ply
format ascii 1.0
element vertex 220
property float x
property float y
property float z
property uchar red
property uchar green
property uchar blue
element face 219
property list uchar int vertex_index
end_header
-30.4494 -25.3223 62.9643 175 0 0
-28.3481 -28.2005 69.758 255 226 0
-29.1829 -37.0984 63.9747 255 66 0
-30.4839 -20.7483 66.0864 62 255 193
-27.2892 -23.5015 71.805 0 196 255
-29.3455 -22.5683 69.4168 78 255 177
-29.7944 -27.1273 66.778 255 64 0
-23.9846 -34.0376 71.3879 0 200 255
-29.8442 -35.6488 60.2235 255 209 0
-30.1486 -29.9216 59.6127 165 0 0
-30.4064 -23.6636 58.7364 255 230 0
-25.8772 -28.9097 71.818 255 247 0
-26.9358 -33.578 69.8206 255 216 0
-27.5696 -38.2199 67.2469 0 232 255
-28.8346 -32.6718 67.2406 255 157 0
-29.8538 -31.6041 63.7528 255 42 0
-30.0052 -21.7769 67.9072 140 255 115
-29.9229 -34.8412 58.1517 63 255 192
-30.3063 -27.7407 61.3249 169 0 0
-30.2844 -26.8865 59.1971 142 0 0
-30.4791 -24.6979 60.7994 128 0 0
-27.8724 -26.021 70.8742 255 223 0
-26.6665 -26.3593 71.8183 108 255 147
-27.2463 -28.8008 70.8839 255 233 0
-26.4023 -31.2966 70.9477 255 232 0
-27.677 -30.9333 69.8479 255 216 0
-27.9756 -33.3878 68.6107 255 193 0
-28.6191 -30.4893 68.572 255 190 0
-30.2078 -26.4667 64.9155 234 0 0
-29.8467 -29.4594 65.287 255 60 0
-30.1757 -28.542 63.3579 213 0 0
-30.0958 -30.6688 61.7464 214 0 0
-28.5028 -37.7493 65.7047 202 255 53
-28.6824 -39.8697 64.1683 0 253 255
-30.4931 -23.275 64.6545 255 207 0
-30.6317 -22.4569 62.5312 226 255 29
-28.4456 -23.198 70.7237 44 255 211
-28.8527 -25.5778 69.6512 255 183 0
-29.1903 -27.8147 68.317 255 169 0
-29.6308 -24.858 68.1644 255 93 0
-30.1892 -24.0241 66.409 252 0 0
-23.3234 -31.7033 72.0853 0 186 255
-29.5978 -36.5271 62.1457 255 5 0
-29.2483 -39.4239 62.3871 133 255 122
-29.6343 -38.6196 60.4555 49 255 206
-29.9961 -32.0022 57.7349 255 179 0
-29.8925 -31.1331 55.7514 0 225 255
-30.0798 -29.0006 57.5084 255 160 0
-30.1529 -25.9937 57.0036 135 255 120
-30.6356 -21.2886 60.5158 142 255 113
-25.184 -26.683 72.4888 0 176 255
-24.3428 -29.2808 72.3358 1 255 254
-24.9605 -31.4476 71.6976 255 242 0
-25.5668 -33.7702 70.7964 121 255 134
-26.0459 -36.2348 69.6829 0 200 255
-27.2504 -35.8831 68.6456 131 255 124
-28.2971 -35.5267 67.1817 255 144 0
-29.0283 -34.8768 65.6919 255 98 0
-29.3428 -30.0311 67.0292 255 156 0
-29.4653 -32.0798 65.5809 255 120 0
-29.5348 -34.3472 63.9305 255 60 0
-29.8672 -33.4794 62.0627 243 0 0
-30.0031 -32.8527 59.9225 197 0 0
-29.8935 -35.9032 57.2748 0 0 140
-29.8996 -34.4865 57.1301 0 0 140
-30.5956 -20.5025 65.1233 0 0 179
-30.6003 -21.7658 64.4074 0 0 179
-30.4885 -22.0117 65.3705 0 0 218
-28.8955 -22.8831 70.0703 0 0 195
-28.6967 -21.6859 70.5948 0 0 164
-29.1467 -21.3711 69.9413 0 0 164
-23.1242 -34.0071 71.5474 0 0 159
-22.7936 -32.84 71.8961 0 0 159
-23.654 -32.8704 71.7366 0 0 188
-30.3145 -23.2295 57.604 0 0 196
-30.1877 -24.3946 56.7376 0 0 196
-30.2796 -24.8287 57.87 0 0 243
-30.7147 -20.1835 61.3619 0 0 191
-30.6337 -21.8727 61.5235 0 0 235
-30.7128 -20.7677 62.3696 0 0 191
-26.602 -23.7568 72.1699 0 0 129
-26.9365 -22.3995 72.1379 0 0 129
-29.8009 -29.2252 54.3053 0 0 148
-29.7955 -30.7579 54.598 0 0 194
-29.898 -29.6003 55.4587 0 0 194
-27.2127 -39.5519 67.1193 0 0 130
-27.0465 -38.3785 67.8161 0 0 130
-29.1239 -41.6541 61.5531 0 0 135
-29.0594 -40.6674 62.4438 0 0 168
-29.3127 -40.4105 61.4964 0 0 168
-30.5853 -19.2266 65.8848 0 0 140
-30.3919 -19.6525 66.8294 0 0 140
-29.5484 -20.9981 69.247 0 0 134
-29.1467 -21.3711 69.9413 0 0 134
-29.8782 -20.6025 68.4922 0 0 168
-29.6753 -22.1726 68.662 0 0 202
-29.5484 -20.9981 69.247 0 0 168
-30.1526 -20.1667 67.7398 0 0 135
-29.8782 -20.6025 68.4922 0 0 135
-30.3919 -19.6525 66.8294 0 0 180
-30.2445 -21.2626 66.9968 0 0 219
-30.1526 -20.1667 67.7398 0 0 180
-23.5255 -35.1545 71.1883 0 0 130
-24.3312 -35.2488 70.9025 0 0 130
-29.8761 -36.2617 58.2978 0 0 180
-29.8368 -36.6655 59.3337 0 0 180
-29.8836 -35.245 59.1876 0 0 219
-29.8761 -36.2617 58.2978 0 0 140
-29.8935 -35.9032 57.2748 0 0 140
-28.194 -39.0561 65.7145 0 0 166
-27.7274 -39.2914 66.4856 0 0 166
-28.0362 -37.9846 66.4758 0 0 198
-28.2838 -40.1163 64.9463 0 0 164
-28.194 -39.0561 65.7145 0 0 164
-28.5926 -38.8095 64.9365 0 0 196
-28.4265 -41.1995 64.1137 0 0 166
-28.0279 -41.4461 64.8916 0 0 134
-28.2838 -40.1163 64.9463 0 0 166
-30.6696 -21.3568 63.3457 0 0 185
-30.5624 -22.866 63.5929 0 0 227
-30.6003 -21.7658 64.4074 0 0 185
-30.7128 -20.7677 62.3696 0 0 145
-30.6696 -21.3568 63.3457 0 0 145
-30.5956 -20.5025 65.1233 0 0 141
-30.5853 -19.2266 65.8848 0 0 141
-27.5997 -22.1589 71.698 0 0 157
-26.9365 -22.3995 72.1379 0 0 157
-27.247 -21.0569 72.0309 0 0 129
-28.1779 -22.0072 71.1574 0 0 131
-28.6967 -21.6859 70.5948 0 0 131
-27.8674 -23.3497 71.2644 0 0 187
-27.5997 -22.1589 71.698 0 0 158
-28.1779 -22.0072 71.1574 0 0 158
-22.4642 -31.5933 72.1626 0 0 130
-23.0275 -30.4998 72.3298 0 0 130
-21.9344 -32.7299 71.9734 0 0 131
-22.4642 -31.5933 72.1626 0 0 160
-22.7936 -32.84 71.8961 0 0 160
-23.1242 -34.0071 71.5474 0 0 130
-23.5255 -35.1545 71.1883 0 0 130
-29.5058 -40.0084 60.5306 0 0 175
-29.3127 -40.4105 61.4964 0 0 175
-29.4413 -39.0217 61.4213 0 0 212
-29.7318 -38.1509 59.4497 0 0 182
-29.7393 -37.1342 60.3395 0 0 222
-29.8368 -36.6655 59.3337 0 0 182
-29.6617 -39.5956 59.5799 0 0 140
-29.7318 -38.1509 59.4497 0 0 140
-29.5058 -40.0084 60.5306 0 0 138
-29.6617 -39.5956 59.5799 0 0 138
-29.9443 -31.5676 56.7431 0 0 219
-29.8844 -32.6324 55.9299 0 0 180
-29.9362 -33.067 56.9217 0 0 180
-29.9916 -28.5341 56.3372 0 0 194
-29.898 -29.6003 55.4587 0 0 194
-29.9862 -30.0668 56.6299 0 0 240
-30.0282 -27.0306 56.0849 0 0 193
-29.9916 -28.5341 56.3372 0 0 193
-30.1164 -27.4972 57.256 0 0 239
-30.0422 -25.5556 55.8213 0 0 147
-30.0282 -27.0306 56.0849 0 0 147
-30.0422 -25.5556 55.8213 0 0 151
-30.1877 -24.3946 56.7376 0 0 151
-30.6904 -19.6904 60.3052 0 0 146
-30.7147 -20.1835 61.3619 0 0 146
-30.5727 -20.8236 59.4219 0 0 147
-30.6904 -19.6904 60.3052 0 0 147
-30.458 -22.0111 58.5322 0 0 197
-30.521 -22.4761 59.6261 0 0 244
-30.5727 -20.8236 59.4219 0 0 197
-30.3145 -23.2295 57.604 0 0 151
-30.458 -22.0111 58.5322 0 0 151
-26.2906 -25.1858 72.1765 0 0 160
-26.602 -23.7568 72.1699 0 0 160
-26.9778 -24.9304 71.8116 0 0 189
-25.5494 -25.3476 72.5118 0 0 159
-26.2906 -25.1858 72.1765 0 0 159
-25.9252 -26.5212 72.1536 0 0 188
-24.8131 -25.5376 72.7165 0 0 128
-25.5494 -25.3476 72.5118 0 0 128
-24.4125 -26.7493 72.6533 0 0 128
-24.8131 -25.5376 72.7165 0 0 128
-23.9919 -28.0482 72.5768 0 0 157
-24.4125 -26.7493 72.6533 0 0 157
-24.7634 -27.9819 72.4123 0 0 185
-23.5372 -29.2886 72.455 0 0 130
-23.9919 -28.0482 72.5768 0 0 130
-23.8331 -30.4921 72.2106 0 0 184
-23.0275 -30.4998 72.3298 0 0 157
-23.5372 -29.2886 72.455 0 0 157
-25.1223 -35.1151 70.6067 0 0 164
-24.3312 -35.2488 70.9025 0 0 164
-24.7757 -33.9039 71.0921 0 0 195
-25.3618 -36.3474 70.05 0 0 160
-25.1223 -35.1151 70.6067 0 0 160
-25.8064 -35.0025 70.2396 0 0 189
-25.6166 -37.4794 69.5125 0 0 128
-25.3618 -36.3474 70.05 0 0 128
-26.2847 -37.386 69.0341 0 0 131
-25.6166 -37.4794 69.5125 0 0 131
-26.8869 -37.2101 68.5154 0 0 160
-26.2847 -37.386 69.0341 0 0 160
-26.6482 -36.059 69.1642 0 0 189
-27.41 -37.0515 67.9462 0 0 188
-27.0465 -38.3785 67.8161 0 0 159
-26.8869 -37.2101 68.5154 0 0 159
-29.9362 -33.067 56.9217 0 0 178
-29.8996 -34.4865 57.1301 0 0 178
-29.9595 -33.4217 57.9433 0 0 216
-29.8207 -32.2594 54.8859 0 0 143
-29.8844 -32.6324 55.9299 0 0 143
-29.8207 -32.2594 54.8859 0 0 147
-29.7955 -30.7579 54.598 0 0 147
-27.2127 -39.5519 67.1193 0 0 132
-27.7274 -39.2914 66.4856 0 0 132
-28.7765 -40.8903 63.3344 0 0 165
-28.9653 -39.6468 63.2777 0 0 197
-29.0594 -40.6674 62.4438 0 0 165
-28.4265 -41.1995 64.1137 0 0 133
-28.7765 -40.8903 63.3344 0 0 133
3 64 63 17
3 0 20 18
3 1 23 21
3 1 25 23
3 1 27 25
3 0 30 28
3 0 18 30
3 2 33 32
3 3 65 67
3 67 66 34
3 65 66 67
3 5 68 70
3 68 36 69
3 68 69 70
3 5 37 36
3 5 39 37
3 3 40 16
3 3 34 40
3 7 71 73
3 73 72 41
3 71 72 73
3 8 44 42
3 9 47 45
3 10 48 19
3 10 74 76
3 76 75 48
3 74 75 76
3 77 49 78
3 79 78 35
3 77 78 79
3 4 80 81
3 11 50 22
3 11 51 50
3 11 52 51
3 12 53 24
3 12 54 53
3 12 55 54
3 14 56 26
3 14 57 56
3 6 58 38
3 15 59 29
3 15 60 59
3 15 61 60
3 9 62 31
3 9 45 62
3 84 83 46
3 82 83 84
3 13 85 86
3 89 88 43
3 87 88 89
3 91 90 3
3 92 5 93
3 94 16 95
3 96 95 5
3 94 95 96
3 97 16 98
3 99 3 100
3 101 100 16
3 99 100 101
3 103 102 7
3 17 104 106
3 106 105 8
3 104 105 106
3 108 107 17
3 18 19 9
3 20 19 18
3 20 10 19
3 21 22 4
3 23 22 21
3 23 11 22
3 23 24 11
3 25 24 23
3 25 12 24
3 25 26 12
3 27 26 25
3 27 14 26
3 28 29 6
3 30 29 28
3 30 15 29
3 30 31 15
3 18 31 30
3 18 9 31
3 32 109 111
3 111 110 13
3 109 110 111
3 33 112 114
3 114 113 32
3 112 113 114
3 33 115 117
3 115 116 117
3 34 35 0
3 118 35 119
3 120 119 34
3 118 119 120
3 122 121 35
3 124 123 3
3 125 4 126
3 125 126 127
3 36 128 129
3 36 130 132
3 130 4 131
3 130 131 132
3 36 21 4
3 37 21 36
3 37 1 21
3 37 38 1
3 39 38 37
3 39 6 38
3 16 39 5
3 40 39 16
3 40 6 39
3 40 28 6
3 34 28 40
3 34 0 28
3 41 133 134
3 137 136 41
3 135 136 137
3 139 138 7
3 42 43 2
3 44 43 42
3 44 140 142
3 142 141 43
3 140 141 142
3 143 44 144
3 145 144 8
3 143 144 145
3 146 44 147
3 149 148 44
3 45 150 152
3 150 46 151
3 150 151 152
3 47 46 45
3 47 153 155
3 155 154 46
3 153 154 155
3 19 47 9
3 48 47 19
3 48 156 158
3 158 157 47
3 156 157 158
3 48 159 160
3 162 161 48
3 35 20 0
3 49 20 35
3 49 10 20
3 163 49 164
3 165 49 166
3 167 10 168
3 169 168 49
3 167 168 169
3 171 170 10
3 22 172 174
3 174 173 4
3 172 173 174
3 50 175 177
3 177 176 22
3 175 176 177
3 50 178 179
3 50 180 181
3 51 182 184
3 184 183 50
3 182 183 184
3 51 185 186
3 51 187 189
3 187 41 188
3 187 188 189
3 52 41 51
3 52 7 41
3 24 52 11
3 53 52 24
3 53 7 52
3 53 190 192
3 192 191 7
3 190 191 192
3 54 193 195
3 195 194 53
3 193 194 195
3 54 196 197
3 54 198 199
3 55 200 202
3 202 201 54
3 200 201 202
3 55 203 205
3 203 13 204
3 203 204 205
3 26 55 12
3 56 55 26
3 56 13 55
3 56 32 13
3 57 32 56
3 57 2 32
3 38 27 1
3 58 27 38
3 58 14 27
3 29 58 6
3 59 58 29
3 59 14 58
3 59 57 14
3 60 57 59
3 60 2 57
3 60 42 2
3 61 42 60
3 61 8 42
3 31 61 15
3 62 61 31
3 62 8 61
3 62 17 8
3 45 17 62
3 45 206 208
3 208 207 17
3 206 207 208
3 46 209 210
3 212 211 46
3 214 213 13
3 43 33 2
3 215 33 216
3 217 216 43
3 215 216 217
3 219 218 33
