ply
format ascii 1.0
element vertex 137
property float x
property float y
property float z
property uchar red
property uchar green
property uchar blue
element face 126
property list uchar int vertex_index
end_header
19.5019 71.641 3.01927 235 255 20
23.5011 66.9006 -4.06943 255 5 0
23.4624 69.5603 -8.52195 39 255 216
22.0042 72.6673 -5.43232 220 255 35
21.1269 65.9412 4.04398 183 255 72
19.9141 75.0652 -1.80469 201 255 54
24.5782 63.8372 -7.10451 29 255 226
24.7181 60.8029 -3.03244 29 255 226
21.7305 69.4154 -0.605554 135 0 0
23.176 63.5495 0.362579 255 159 0
23.5008 68.4393 -6.24517 255 2 0
24.0675 66.6723 -7.70344 146 255 109
24.1337 65.4143 -5.55058 255 19 0
24.7066 62.3125 -5.00711 152 255 103
24.1211 63.8887 -3.47035 255 18 0
19.7844 73.4528 0.442926 174 0 0
20.8879 72.1956 -1.13332 155 0 0
20.612 70.5523 1.31946 128 0 0
21.8558 63.1607 4.33542 57 255 198
22.1302 64.8678 2.30941 197 0 0
22.8604 62.0086 2.52011 76 255 179
22.8129 71.2255 -6.98486 181 255 74
22.7931 69.7272 -4.55128 223 0 0
20.3592 68.7792 3.57808 222 255 33
18.7833 76.0025 0.030918 67 255 188
18.6234 74.3296 2.35007 92 255 163
21.0044 73.871 -3.52326 237 255 18
21.9235 71.0471 -2.97116 159 0 0
22.7264 68.0619 -2.34466 206 0 0
21.4657 67.5928 1.8193 166 0 0
22.4497 66.5775 -0.03487 158 0 0
23.3838 65.2448 -1.84088 220 0 0
24.0191 62.3546 -1.48268 157 255 98
22.7005 61.1393 3.59812 0 0 174
22.3581 62.5847 3.42777 0 0 216
22.1982 61.7153 4.50577 0 0 174
23.2107 60.5229 2.64433 0 0 135
22.7005 61.1393 3.59812 0 0 135
22.4085 71.9464 -6.20859 0 0 219
22.3556 72.7546 -7.39484 0 0 176
21.9513 73.4755 -6.61857 0 0 176
18.1652 76.5383 0.879514 0 0 133
18.2798 77.288 -0.37503 0 0 133
18.0853 75.7018 2.03909 0 0 176
18.7034 75.166 1.1905 0 0 218
18.1652 76.5383 0.879514 0 0 176
23.6393 68.792 -9.20565 0 0 129
23.2961 70.3555 -9.61315 0 0 129
24.4681 64.3896 -8.14209 0 0 162
24.2128 65.8071 -8.44156 0 0 162
24.3228 65.2548 -7.40398 0 0 197
24.6822 62.9026 -7.81732 0 0 128
24.4681 64.3896 -8.14209 0 0 128
24.8236 62.2541 -6.86719 0 0 128
24.6822 62.9026 -7.81732 0 0 128
24.9677 60.0592 -3.82812 0 0 164
24.962 60.814 -4.81546 0 0 164
24.7123 61.5577 -4.01978 0 0 201
24.9994 59.2982 -2.86981 0 0 128
24.9677 60.0592 -3.82812 0 0 128
20.4593 74.4681 -2.66397 0 0 223
20.4996 75.2806 -3.91458 0 0 179
19.9545 75.8777 -3.0553 0 0 179
21.5346 74.0345 -5.73066 0 0 132
21.9513 73.4755 -6.61857 0 0 132
23.3217 61.4165 1.59774 0 0 169
23.4795 62.1869 0.518971 0 0 169
23.0182 62.7791 1.44135 0 0 208
23.3217 61.4165 1.59774 0 0 133
23.2107 60.5229 2.64433 0 0 133
23.0721 71.049 -8.84008 0 0 129
23.2961 70.3555 -9.61315 0 0 129
22.7473 71.8816 -8.07154 0 0 131
22.3556 72.7546 -7.39484 0 0 131
23.1376 70.3929 -7.7534 0 0 209
23.0721 71.049 -8.84008 0 0 170
22.7473 71.8816 -8.07154 0 0 170
19.756 69.3204 4.52394 0 0 183
19.9306 70.2101 3.29868 0 0 229
19.3273 70.7513 4.24453 0 0 183
20.1702 67.9105 4.7451 0 0 136
19.756 69.3204 4.52394 0 0 136
20.554 66.4915 4.97805 0 0 179
20.7431 67.3602 3.81103 0 0 223
20.1702 67.9105 4.7451 0 0 179
20.9425 65.074 5.14938 0 0 134
20.554 66.4915 4.97805 0 0 134
21.307 63.6838 5.2951 0 0 175
21.4914 64.551 4.1897 0 0 217
20.9425 65.074 5.14938 0 0 175
21.6668 62.3416 5.40084 0 0 171
21.307 63.6838 5.2951 0 0 171
21.1179 62.8646 6.36052 0 0 132
22.1982 61.7153 4.50577 0 0 133
21.6668 62.3416 5.40084 0 0 133
19.4213 76.3588 -2.17577 0 0 132
19.9545 75.8777 -3.0553 0 0 132
18.8558 76.8274 -1.25797 0 0 133
18.2798 77.288 -0.37503 0 0 133
19.3487 75.5339 -0.886884 0 0 218
19.4213 76.3588 -2.17577 0 0 176
18.8558 76.8274 -1.25797 0 0 176
17.9803 74.8569 3.25947 0 0 136
18.0853 75.7018 2.03909 0 0 136
18.468 73.512 3.55448 0 0 135
17.9803 74.8569 3.25947 0 0 135
18.9073 72.1677 3.88908 0 0 175
19.0627 72.9853 2.68467 0 0 217
18.468 73.512 3.55448 0 0 175
19.3273 70.7513 4.24453 0 0 135
18.9073 72.1677 3.88908 0 0 135
23.9418 67.348 -8.7964 0 0 162
23.6393 68.792 -9.20565 0 0 162
23.7649 68.1163 -8.1127 0 0 198
23.9418 67.348 -8.7964 0 0 130
24.2128 65.8071 -8.44156 0 0 130
24.8878 61.4917 -5.8185 0 0 171
24.8236 62.2541 -6.86719 0 0 171
24.6424 63.0748 -6.05581 0 0 211
25.1432 59.9933 -5.62684 0 0 129
24.8878 61.4917 -5.8185 0 0 166
24.962 60.814 -4.81546 0 0 166
21.0347 74.6363 -4.77613 0 0 136
20.4996 75.2806 -3.91458 0 0 136
21.5043 73.2691 -4.47779 0 0 223
21.5346 74.0345 -5.73066 0 0 179
21.0347 74.6363 -4.77613 0 0 179
23.901 61.5894 -0.403659 0 0 168
23.5976 62.9521 -0.56005 0 0 207
23.4795 62.1869 0.518971 0 0 168
24.2996 60.922 -1.26057 0 0 130
23.901 61.5894 -0.403659 0 0 130
24.6491 60.1462 -2.03545 0 0 163
24.3686 61.5787 -2.25756 0 0 199
24.2996 60.922 -1.26057 0 0 163
24.9994 59.2982 -2.86981 0 0 130
24.6491 60.1462 -2.03545 0 0 130
3 1 12 10
3 1 14 12
3 0 17 15
3 33 20 34
3 35 34 18
3 33 34 35
3 37 36 20
3 3 38 40
3 38 21 39
3 38 39 40
3 3 22 21
3 41 24 42
3 43 25 44
3 45 44 24
3 43 44 45
3 2 46 47
3 6 48 50
3 50 49 11
3 48 49 50
3 6 51 52
3 6 53 54
3 7 55 57
3 57 56 13
3 55 56 57
3 7 58 59
3 5 60 62
3 60 26 61
3 60 61 62
3 8 27 16
3 8 28 27
3 4 29 23
3 9 30 19
3 9 31 30
3 9 32 31
3 63 3 64
3 10 11 2
3 12 11 10
3 12 6 11
3 12 13 6
3 14 13 12
3 14 7 13
3 15 16 5
3 17 16 15
3 17 8 16
3 18 19 4
3 20 19 18
3 20 9 19
3 20 65 67
3 67 66 9
3 65 66 67
3 69 68 20
3 70 2 71
3 21 72 73
3 21 74 76
3 74 2 75
3 74 75 76
3 21 10 2
3 22 10 21
3 22 1 10
3 77 23 78
3 79 78 0
3 77 78 79
3 80 23 81
3 82 4 83
3 84 83 23
3 82 83 84
3 85 4 86
3 87 18 88
3 89 88 4
3 87 88 89
3 90 18 91
3 90 91 92
3 94 93 18
3 95 5 96
3 24 97 98
3 24 99 101
3 99 5 100
3 99 100 101
3 24 15 5
3 25 15 24
3 25 0 15
3 102 25 103
3 104 25 105
3 106 0 107
3 108 107 25
3 106 107 108
3 110 109 0
3 11 111 113
3 113 112 2
3 111 112 113
3 115 114 11
3 13 116 118
3 118 117 6
3 116 117 118
3 121 120 13
3 119 120 121
3 26 122 123
3 26 124 126
3 124 3 125
3 124 125 126
3 16 26 5
3 27 26 16
3 27 3 26
3 27 22 3
3 28 22 27
3 28 1 22
3 23 17 0
3 29 17 23
3 29 8 17
3 19 29 4
3 30 29 19
3 30 8 29
3 30 28 8
3 31 28 30
3 31 1 28
3 31 14 1
3 32 14 31
3 32 7 14
3 127 32 128
3 129 128 9
3 127 128 129
3 130 32 131
3 132 7 133
3 134 133 32
3 132 133 134
3 136 135 7
