ply
format ascii 1.0
element vertex 205
property float x
property float y
property float z
property uchar red
property uchar green
property uchar blue
element face 207
property list uchar int vertex_index
end_header
-29.9773 -16.2381 68.8659 255 31 0
-26.6139 -7.46816 72.2115 255 126 0
-29.9948 -2.34315 67.4394 145 0 0
-25.4512 6.25938 70.2534 57 255 198
-28.319 -17.8096 71.4265 255 161 0
-23.7085 -3.22155 72.3378 124 255 131
-26.2028 -0.628982 71.3795 255 104 0
-29.5403 4.77206 66.5381 137 0 0
-28.7481 -11.6377 70.9751 255 105 0
-30.2391 -9.59308 68.0649 179 0 0
-28.6747 -5.11875 70.3449 255 42 0
-28.2427 1.94069 69.4075 240 0 0
-27.4219 9.26754 68.3376 74 255 181
-26.4421 -13.4017 72.7088 255 170 0
-30.3 -18.5566 67.5724 48 255 207
-30.4951 -15.4989 67.195 181 255 74
-29.2767 -17.2208 70.2221 255 105 0
-28.9479 -20.1739 70.4658 84 255 171
-29.7513 -19.428 69.0771 114 255 141
-23.4541 -0.169577 71.884 30 255 225
-29.1905 8.65706 66.0694 129 255 126
-29.9104 6.44676 64.8885 149 255 106
-27.7954 -9.31581 71.7006 255 131 0
-28.8684 -8.57082 70.5827 255 72 0
-27.7525 -6.15252 71.3698 255 96 0
-25.9016 2.62633 70.8746 230 255 25
-27.2853 0.53621 70.5573 255 51 0
-26.943 4.1505 69.9997 246 0 0
-27.7975 5.64408 68.9505 225 0 0
-26.4482 8.03574 69.3717 171 255 84
-25.2874 -8.40409 72.7372 185 255 70
-25.2166 -11.296 72.9731 67 255 188
-26.6783 -10.5339 72.4613 255 163 0
-27.7318 -12.6294 71.9647 255 146 0
-30.1582 -6.06257 67.786 128 0 0
-30.6453 -8.58643 66.3674 255 232 0
-30.5486 -4.84124 66.0743 255 227 0
-27.1575 -18.5593 72.311 49 255 206
-27.9102 -20.8163 71.591 0 221 255
-25.2345 -5.30457 72.4082 255 85 0
-26.5354 -4.09136 71.807 255 81 0
-25.1223 -2.03127 71.9675 255 76 0
-24.7528 1.3402 71.4674 111 255 144
-23.7963 -6.31308 72.7172 0 255 255
-29.7889 1.29709 66.9849 159 0 0
-30.3741 -1.21084 65.8073 255 247 0
-30.2009 2.47843 65.2614 255 233 0
-29.4994 -13.7957 69.9601 255 66 0
-30.1693 -13.0128 68.4571 252 0 0
-29.6408 -10.6529 69.5859 255 32 0
-29.5849 -7.21705 69.3152 244 0 0
-29.4438 -3.74383 68.9756 213 0 0
-27.6158 -2.73557 70.9399 255 81 0
-28.5298 -1.54542 69.8547 255 25 0
-29.2451 -0.09015 68.5151 213 0 0
-28.9372 3.6355 68.0559 199 0 0
-28.6146 7.12571 67.562 255 171 0
-24.9972 -14.1503 73.1361 0 213 255
-26.0908 -16.3133 72.8769 61 255 194
-27.4926 -15.6642 72.1698 255 152 0
-28.6676 -14.8213 71.1389 255 128 0
-30.6035 -12.2425 66.852 218 255 37
-29.3959 9.47454 65.2648 0 0 148
-28.9665 10.7326 65.8204 0 0 148
-28.6967 -21.6859 70.5948 0 0 133
-29.1467 -21.3711 69.9413 0 0 133
-23.9238 2.15303 71.4061 0 0 170
-24.1035 0.585311 71.6757 0 0 206
-23.2744 1.39814 71.6143 0 0 170
-24.5256 2.99949 71.1816 0 0 136
-23.9238 2.15303 71.4061 0 0 136
-23.7524 -4.76732 72.5275 0 0 210
-22.9836 -5.45843 72.5979 0 0 173
-22.9397 -3.91266 72.4081 0 0 173
-30.1634 5.21028 64.2313 0 0 150
-30.0495 7.24539 63.9813 0 0 150
-27.785 10.16 67.6903 0 0 184
-28.3814 9.08913 67.3024 0 0 184
-28.0182 8.19662 67.9498 0 0 226
-30.7666 -9.80662 65.6531 0 0 148
-30.7606 -7.9118 65.4469 0 0 148
-30.5719 -2.37433 65.0349 0 0 149
-30.5081 -0.614411 64.806 0 0 149
-30.4934 -18.1307 66.6278 0 0 141
-30.3919 -19.6525 66.8294 0 0 141
-30.5909 -16.6018 66.4391 0 0 183
-30.4934 -18.1307 66.6278 0 0 183
-30.3975 -17.0277 67.3837 0 0 225
-30.6565 -14.9522 66.278 0 0 143
-30.5909 -16.6018 66.4391 0 0 143
-29.5484 -20.9981 69.247 0 0 170
-29.1467 -21.3711 69.9413 0 0 170
-29.3496 -19.8009 69.7715 0 0 205
-29.8782 -20.6025 68.4922 0 0 136
-29.5484 -20.9981 69.247 0 0 136
-30.1526 -20.1667 67.7398 0 0 172
-29.8782 -20.6025 68.4922 0 0 172
-30.0256 -18.9923 68.3248 0 0 208
-30.3919 -19.6525 66.8294 0 0 142
-30.1526 -20.1667 67.7398 0 0 142
-22.7396 -0.8677 71.9755 0 0 171
-23.5813 -1.69556 72.1109 0 0 207
-22.8667 -2.39369 72.2024 0 0 171
-22.5674 0.821493 71.6908 0 0 140
-22.7396 -0.8677 71.9755 0 0 140
-23.2744 1.39814 71.6143 0 0 137
-22.5674 0.821493 71.6908 0 0 137
-22.8667 -2.39369 72.2024 0 0 137
-22.9397 -3.91266 72.4081 0 0 137
-29.7559 8.36939 64.6744 0 0 188
-29.5504 7.55191 65.4789 0 0 232
-29.3959 9.47454 65.2648 0 0 188
-30.0495 7.24539 63.9813 0 0 149
-29.7559 8.36939 64.6744 0 0 149
-25.252 -9.85007 72.8552 0 0 196
-24.5084 -10.2311 72.9813 0 0 164
-24.5438 -8.78517 72.8634 0 0 164
-30.7122 -6.0392 65.3003 0 0 198
-30.7606 -7.9118 65.4469 0 0 198
-30.5969 -6.71384 66.2208 0 0 248
-26.8707 -19.9284 72.3909 0 0 128
-26.4769 -18.8755 72.6153 0 0 128
-27.247 -21.0569 72.0309 0 0 161
-26.8707 -19.9284 72.3909 0 0 161
-27.5338 -19.6878 71.951 0 0 192
-27.5997 -22.1589 71.698 0 0 130
-27.247 -21.0569 72.0309 0 0 130
-28.1779 -22.0072 71.1574 0 0 164
-28.429 -20.4951 71.0284 0 0 196
-28.6967 -21.6859 70.5948 0 0 164
-27.5997 -22.1589 71.698 0 0 130
-28.1779 -22.0072 71.1574 0 0 130
-25.0999 3.64255 70.8852 0 0 170
-25.3272 1.98327 71.171 0 0 204
-24.5256 2.99949 71.1816 0 0 170
-24.8747 5.45908 70.5747 0 0 177
-25.6764 4.44286 70.564 0 0 216
-25.0999 3.64255 70.8852 0 0 177
-23.0403 -6.90218 72.7577 0 0 134
-22.9836 -5.45843 72.5979 0 0 134
-23.7983 -7.73966 72.8534 0 0 132
-23.0403 -6.90218 72.7577 0 0 132
-24.5419 -7.35859 72.7272 0 0 196
-24.5438 -8.78517 72.8634 0 0 164
-23.7983 -7.73966 72.8534 0 0 164
-30.4216 1.23022 64.5331 0 0 202
-30.5081 -0.614411 64.806 0 0 202
-30.2875 0.633798 65.5344 0 0 254
-30.3087 3.22612 64.4178 0 0 194
-30.0557 4.4626 65.0749 0 0 241
-30.1634 5.21028 64.2313 0 0 194
-30.4216 1.23022 64.5331 0 0 149
-30.3087 3.22612 64.4178 0 0 149
-28.6693 9.8548 66.5561 0 0 189
-28.9025 7.89139 66.8157 0 0 234
-28.3814 9.08913 67.3024 0 0 189
-28.9665 10.7326 65.8204 0 0 146
-28.6693 9.8548 66.5561 0 0 146
-24.6111 7.25433 70.2231 0 0 139
-24.8747 5.45908 70.5747 0 0 139
-25.1925 7.99989 69.926 0 0 138
-24.6111 7.25433 70.2231 0 0 138
-25.691 8.88806 69.4852 0 0 173
-25.9497 7.14756 69.8126 0 0 210
-25.1925 7.99989 69.926 0 0 173
-26.1995 9.76906 69.0573 0 0 136
-25.691 8.88806 69.4852 0 0 136
-26.6864 10.385 68.5403 0 0 175
-26.935 8.65164 68.8547 0 0 212
-26.1995 9.76906 69.0573 0 0 175
-27.1464 11.2953 67.9988 0 0 143
-26.6864 10.385 68.5403 0 0 143
-27.785 10.16 67.6903 0 0 143
-27.1464 11.2953 67.9988 0 0 143
-24.4654 -11.7237 73.0803 0 0 133
-24.5084 -10.2311 72.9813 0 0 133
-24.3557 -13.1508 73.1618 0 0 162
-24.4654 -11.7237 73.0803 0 0 162
-25.1069 -12.7232 73.0546 0 0 193
-24.2334 -14.5874 73.2125 0 0 163
-23.5919 -13.5879 73.2382 0 0 131
-24.3557 -13.1508 73.1618 0 0 163
-24.833 -15.5604 73.1795 0 0 130
-24.2334 -14.5874 73.2125 0 0 130
-25.3797 -16.6419 73.0499 0 0 158
-24.833 -15.5604 73.1795 0 0 158
-25.544 -15.2318 73.0065 0 0 187
-25.9436 -17.7525 72.8983 0 0 130
-25.3797 -16.6419 73.0499 0 0 130
-26.6241 -17.4363 72.594 0 0 192
-26.4769 -18.8755 72.6153 0 0 161
-25.9436 -17.7525 72.8983 0 0 161
-30.7107 -13.324 66.1065 0 0 185
-30.6565 -14.9522 66.278 0 0 185
-30.5493 -13.8707 67.0235 0 0 227
-30.7457 -11.6346 65.8954 0 0 197
-30.6244 -10.4145 66.6097 0 0 245
-30.7666 -9.80662 65.6531 0 0 197
-30.7107 -13.324 66.1065 0 0 145
-30.7457 -11.6346 65.8954 0 0 145
-30.6591 -4.18953 65.1683 0 0 194
-30.4613 -3.02604 65.9408 0 0 242
-30.5719 -2.37433 65.0349 0 0 194
-30.7122 -6.0392 65.3003 0 0 148
-30.6591 -4.18953 65.1683 0 0 148
3 0 15 14
3 0 18 16
3 0 14 18
3 63 62 20
3 1 24 22
3 3 27 25
3 3 29 27
3 1 32 30
3 1 22 32
3 2 36 34
3 4 38 37
3 65 64 17
3 5 41 39
3 66 42 67
3 68 67 19
3 66 67 68
3 70 69 42
3 5 71 73
3 71 43 72
3 71 72 73
3 5 39 43
3 7 46 44
3 75 74 21
3 8 49 47
3 10 50 23
3 10 51 50
3 6 52 40
3 11 53 26
3 11 54 53
3 11 55 54
3 12 56 28
3 12 76 78
3 78 77 56
3 76 77 78
3 13 57 31
3 13 58 57
3 13 59 58
3 8 60 33
3 8 47 60
3 9 61 48
3 80 79 35
3 82 81 45
3 14 83 84
3 15 85 87
3 87 86 14
3 85 86 87
3 15 88 89
3 16 17 4
3 18 17 16
3 18 90 92
3 92 91 17
3 90 91 92
3 18 93 94
3 14 95 97
3 97 96 18
3 95 96 97
3 14 98 99
3 100 19 101
3 102 101 5
3 100 101 102
3 103 19 104
3 106 105 19
3 107 5 108
3 20 21 7
3 109 21 110
3 111 110 20
3 109 110 111
3 113 112 21
3 22 23 8
3 24 23 22
3 24 10 23
3 25 26 6
3 27 26 25
3 27 11 26
3 27 28 11
3 29 28 27
3 29 12 28
3 30 114 116
3 114 31 115
3 114 115 116
3 32 31 30
3 32 13 31
3 32 33 13
3 22 33 32
3 22 8 33
3 34 35 9
3 36 35 34
3 36 117 119
3 119 118 35
3 117 118 119
3 37 120 121
3 38 122 124
3 124 123 37
3 122 123 124
3 38 125 126
3 17 38 4
3 127 38 128
3 129 128 17
3 127 128 129
3 131 130 38
3 39 40 1
3 41 40 39
3 41 6 40
3 19 41 5
3 42 41 19
3 42 6 41
3 42 25 6
3 132 25 133
3 134 133 42
3 132 133 134
3 135 3 136
3 137 136 25
3 135 136 137
3 43 138 139
3 43 140 141
3 43 142 144
3 142 30 143
3 142 143 144
3 39 30 43
3 39 1 30
3 44 45 2
3 46 45 44
3 46 145 147
3 147 146 45
3 145 146 147
3 21 46 7
3 148 46 149
3 150 149 21
3 148 149 150
3 152 151 46
3 47 48 0
3 49 48 47
3 49 9 48
3 23 49 8
3 50 49 23
3 50 9 49
3 50 34 9
3 51 34 50
3 51 2 34
3 40 24 1
3 52 24 40
3 52 10 24
3 26 52 6
3 53 52 26
3 53 10 52
3 53 51 10
3 54 51 53
3 54 2 51
3 54 44 2
3 55 44 54
3 55 7 44
3 28 55 11
3 56 55 28
3 56 7 55
3 56 20 7
3 153 20 154
3 155 154 56
3 153 154 155
3 157 156 20
3 158 3 159
3 160 3 161
3 162 29 163
3 164 163 3
3 162 163 164
3 165 29 166
3 167 12 168
3 169 168 29
3 167 168 169
3 170 12 171
3 173 172 12
3 31 174 175
3 57 176 178
3 178 177 31
3 176 177 178
3 57 179 181
3 179 180 181
3 57 182 183
3 58 184 186
3 186 185 57
3 184 185 186
3 58 187 188
3 58 189 191
3 189 37 190
3 189 190 191
3 59 37 58
3 59 4 37
3 33 59 13
3 60 59 33
3 60 4 59
3 60 16 4
3 47 16 60
3 47 0 16
3 48 15 0
3 61 15 48
3 61 192 194
3 194 193 15
3 192 193 194
3 35 61 9
3 195 61 196
3 197 196 35
3 195 196 197
3 199 198 61
3 45 36 2
3 200 36 201
3 202 201 45
3 200 201 202
3 204 203 36
