ply
format ascii 1.0
element vertex 151
property float x
property float y
property float z
property uchar red
property uchar green
property uchar blue
element face 142
property list uchar int vertex_index
end_header
32.3131 -43.8187 20.4543 231 0 0
34.4098 -42.1232 10.6909 202 0 0
30.0367 -47.7239 21.5189 189 255 66
31.4778 -46.9648 16.9767 177 0 0
33.2041 -44.2896 6.74602 215 255 40
34.9701 -40.6427 5.49301 61 255 194
35.4784 -39.6545 14.5014 193 255 62
33.5959 -43.1503 15.7494 141 0 0
32.4857 -45.8255 11.8209 143 0 0
29.7858 -49.2101 19.8454 82 255 173
31.4232 -44.0141 22.6891 188 255 67
32.4592 -42.2315 22.2538 52 255 203
33.3236 -41.9974 20.0616 173 255 82
34.045 -41.6485 17.7448 255 201 0
33.0419 -43.461 18.2463 189 0 0
31.0666 -48.2565 15.0106 208 255 47
32.0481 -46.4073 14.4844 151 0 0
31.4964 -47.7346 12.5875 232 255 23
31.8913 -47.0615 9.99071 243 255 12
34.9378 -41.0003 12.6702 182 0 0
35.9426 -39.0239 11.9572 97 255 158
35.3378 -40.2936 10.0449 255 146 0
30.292 -45.9541 23.1307 77 255 178
31.2155 -45.6916 20.9899 206 0 0
31.9661 -45.377 18.7372 191 0 0
30.8783 -47.2338 19.3939 195 0 0
30.4931 -48.7702 17.4562 219 255 36
33.8239 -43.2106 8.71147 203 0 0
34.6704 -41.5143 8.05811 184 0 0
34.1 -42.4317 5.98109 192 255 63
34.9971 -39.9862 16.9636 49 255 206
34.5472 -41.3878 15.2575 218 0 0
34.0461 -42.6977 13.1744 187 0 0
32.5421 -45.0599 16.3394 128 0 0
33.0683 -44.5355 13.6929 135 0 0
33.4426 -43.9884 11.1581 181 0 0
32.8728 -45.0929 9.17633 157 0 0
32.2194 -46.3172 7.30999 105 255 150
35.6154 -39.5806 7.36021 97 255 158
30.9849 -48.7533 12.8319 0 0 181
31.2815 -47.9955 13.7991 0 0 226
30.77 -49.0142 14.0435 0 0 181
31.208 -48.3926 11.5672 0 0 137
30.9849 -48.7533 12.8319 0 0 137
30.1643 -46.839 22.3248 0 0 211
29.7253 -46.9092 23.3671 0 0 171
29.5977 -47.7941 22.5612 0 0 171
29.9532 -49.7782 17.7134 0 0 181
30.1394 -48.9902 18.6508 0 0 225
29.5996 -49.9981 18.908 0 0 181
30.2628 -49.5001 16.5295 0 0 135
29.9532 -49.7782 17.7134 0 0 135
34.7024 -40.0325 18.2085 0 0 133
35.1986 -39.1542 17.845 0 0 133
31.7739 -47.2622 7.68763 0 0 177
32.0554 -46.6893 8.65035 0 0 220
31.6099 -47.6343 9.02799 0 0 177
31.9392 -46.8426 6.35048 0 0 134
31.7739 -47.2622 7.68763 0 0 134
35.9264 -38.7468 14.2422 0 0 130
35.6933 -38.9488 15.427 0 0 130
36.3512 -38.1608 11.6723 0 0 129
36.0775 -38.7643 10.7083 0 0 129
29.484 -48.6653 21.7885 0 0 130
29.5977 -47.7941 22.5612 0 0 130
29.3585 -49.4084 20.9517 0 0 170
29.9113 -48.467 20.6822 0 0 210
29.484 -48.6653 21.7885 0 0 170
29.261 -50.1581 20.0764 0 0 131
29.3585 -49.4084 20.9517 0 0 131
29.5996 -49.9981 18.908 0 0 133
29.261 -50.1581 20.0764 0 0 133
33.3119 -43.922 5.45161 0 0 132
32.884 -44.8431 5.7811 0 0 132
31.4874 -43.0426 23.5237 0 0 132
30.9372 -43.9977 23.7094 0 0 132
32.0054 -42.1513 23.306 0 0 170
31.4874 -43.0426 23.5237 0 0 170
31.9412 -43.1228 22.4715 0 0 210
32.5702 -41.2695 22.9982 0 0 131
32.0054 -42.1513 23.306 0 0 131
32.9943 -41.2935 22.01 0 0 129
32.5702 -41.2695 22.9982 0 0 129
33.4265 -41.1765 20.9139 0 0 171
32.9943 -41.2935 22.01 0 0 171
32.8914 -42.1144 21.1577 0 0 211
33.8657 -41.038 19.7575 0 0 134
33.4265 -41.1765 20.9139 0 0 134
33.6843 -41.8229 18.9032 0 0 216
34.2264 -40.8636 18.5991 0 0 174
33.8657 -41.038 19.7575 0 0 174
31.4055 -48.0561 10.2688 0 0 183
31.6939 -47.3981 11.2891 0 0 229
31.208 -48.3926 11.5672 0 0 183
31.6099 -47.6343 9.02799 0 0 134
31.4055 -48.0561 10.2688 0 0 134
35.7751 -39.3991 9.75215 0 0 171
36.0775 -38.7643 10.7083 0 0 171
35.6402 -39.6588 11.0011 0 0 211
35.3779 -39.7593 5.09471 0 0 128
35.0607 -40.2526 4.25452 0 0 128
29.8136 -45.9096 24.1321 0 0 132
29.7253 -46.9092 23.3671 0 0 132
30.3716 -44.9677 23.9302 0 0 131
29.8136 -45.9096 24.1321 0 0 131
30.8576 -44.9841 22.9099 0 0 215
30.9372 -43.9977 23.7094 0 0 174
30.3716 -44.9677 23.9302 0 0 174
30.5495 -49.2432 15.3067 0 0 178
30.7798 -48.5133 16.2334 0 0 222
30.2628 -49.5001 16.5295 0 0 178
30.77 -49.0142 14.0435 0 0 137
30.5495 -49.2432 15.3067 0 0 137
33.7598 -42.9931 5.06915 0 0 173
33.652 -43.3606 6.36356 0 0 215
33.3119 -43.922 5.45161 0 0 173
34.2145 -42.0353 4.81784 0 0 130
33.7598 -42.9931 5.06915 0 0 130
34.6495 -41.1409 4.5738 0 0 164
34.5351 -41.5372 5.73705 0 0 201
34.2145 -42.0353 4.81784 0 0 164
35.0607 -40.2526 4.25452 0 0 129
34.6495 -41.1409 4.5738 0 0 129
35.4526 -39.1147 16.6581 0 0 131
35.1986 -39.1542 17.845 0 0 131
35.2378 -39.8204 15.7325 0 0 209
35.6933 -38.9488 15.427 0 0 170
35.4526 -39.1147 16.6581 0 0 170
34.5211 -40.8174 17.3542 0 0 210
34.7024 -40.0325 18.2085 0 0 170
34.2264 -40.8636 18.5991 0 0 170
32.3917 -45.8569 6.06308 0 0 179
32.884 -44.8431 5.7811 0 0 179
32.7117 -45.3034 7.028 0 0 222
32.3917 -45.8569 6.06308 0 0 133
31.9392 -46.8426 6.35048 0 0 133
36.1585 -38.4315 12.9701 0 0 173
35.9264 -38.7468 14.2422 0 0 173
35.7105 -39.3392 13.2293 0 0 214
36.1585 -38.4315 12.9701 0 0 131
36.3512 -38.1608 11.6723 0 0 131
35.9139 -39.0426 8.40979 0 0 176
35.7751 -39.3991 9.75215 0 0 176
35.4766 -39.9371 8.70256 0 0 218
35.7005 -39.2282 6.02831 0 0 171
35.2928 -40.1116 6.42661 0 0 211
35.3779 -39.7593 5.09471 0 0 171
36.034 -38.6829 7.05263 0 0 133
35.7005 -39.2282 6.02831 0 0 133
35.9139 -39.0426 8.40979 0 0 134
36.034 -38.6829 7.05263 0 0 134
3 0 11 10
3 0 12 11
3 0 14 12
3 39 17 40
3 41 40 15
3 39 40 41
3 43 42 17
3 1 21 19
3 2 44 46
3 44 22 45
3 44 45 46
3 2 23 22
3 2 25 23
3 47 26 48
3 49 48 9
3 47 48 49
3 51 50 26
3 4 29 27
3 52 30 53
3 7 31 13
3 7 32 31
3 3 33 24
3 8 34 16
3 8 35 34
3 8 36 35
3 54 37 55
3 56 55 18
3 54 55 56
3 58 57 37
3 6 59 60
3 62 61 20
3 5 38 28
3 63 2 64
3 65 9 66
3 67 66 2
3 65 66 67
3 68 9 69
3 71 70 9
3 73 72 4
3 10 74 75
3 11 76 78
3 78 77 10
3 76 77 78
3 11 79 80
3 11 81 82
3 12 83 85
3 85 84 11
3 83 84 85
3 12 86 87
3 12 88 90
3 88 13 89
3 88 89 90
3 14 13 12
3 14 7 13
3 15 16 3
3 17 16 15
3 17 8 16
3 17 18 8
3 91 18 92
3 93 92 17
3 91 92 93
3 95 94 18
3 19 20 6
3 21 20 19
3 21 96 98
3 98 97 20
3 96 97 98
3 100 99 5
3 22 101 102
3 22 103 104
3 22 105 107
3 105 10 106
3 105 106 107
3 23 10 22
3 23 0 10
3 23 24 0
3 25 24 23
3 25 3 24
3 9 25 2
3 26 25 9
3 26 3 25
3 26 15 3
3 108 15 109
3 110 109 26
3 108 109 110
3 112 111 15
3 27 28 1
3 29 28 27
3 29 5 28
3 113 29 114
3 115 114 4
3 113 114 115
3 116 29 117
3 118 5 119
3 120 119 29
3 118 119 120
3 122 121 5
3 30 123 124
3 30 125 127
3 125 6 126
3 125 126 127
3 13 128 130
3 128 30 129
3 128 129 130
3 31 30 13
3 31 6 30
3 31 19 6
3 32 19 31
3 32 1 19
3 24 14 0
3 33 14 24
3 33 7 14
3 16 33 3
3 34 33 16
3 34 7 33
3 34 32 7
3 35 32 34
3 35 1 32
3 35 27 1
3 36 27 35
3 36 4 27
3 18 36 8
3 37 36 18
3 37 4 36
3 37 131 133
3 133 132 4
3 131 132 133
3 135 134 37
3 20 136 138
3 138 137 6
3 136 137 138
3 140 139 20
3 28 21 1
3 38 21 28
3 38 141 143
3 143 142 21
3 141 142 143
3 144 38 145
3 146 145 5
3 144 145 146
3 147 38 148
3 150 149 38
