ply
format ascii 1.0
element vertex 138
property float x
property float y
property float z
property uchar red
property uchar green
property uchar blue
element face 123
property list uchar int vertex_index
end_header
-29.6546 83.021 19.3487 137 0 0
-27.5183 81.1005 30.5338 255 6 0
-27.8081 74.5616 36.4333 125 255 130
-29.9301 77.4301 25.291 255 161 0
-29.1466 76.3323 30.9607 192 255 63
-28.7659 82.6456 24.9379 183 0 0
-26.9541 87.1039 24.3626 147 255 108
-30.1473 80.1055 19.728 255 250 0
-30.0183 82.8903 16.564 111 255 144
-30.0448 74.3499 28.1916 0 236 255
-27.6657 77.8751 33.5905 255 21 0
-28.5478 75.455 33.8782 179 255 76
-28.3995 78.7908 30.8881 242 0 0
-28.9122 79.5521 28.2709 208 0 0
-28.1632 82.1277 27.7389 254 0 0
-27.9663 84.9507 24.6968 249 0 0
-27.2141 84.3443 27.388 255 35 0
-26.9509 73.2475 38.9579 0 153 255
-26.8182 76.5278 36.2709 116 255 139
-26.6129 79.9674 33.2613 144 255 111
-26.3718 83.1608 30.2092 153 255 102
-29.0303 85.7926 18.9471 208 255 47
-29.5127 85.5347 16.2337 101 255 154
-30.2535 77.324 22.6587 108 255 147
-29.7926 80.2502 22.4753 128 0 0
-29.5505 77.1768 28.0804 255 169 0
-29.4075 80.0503 25.2797 154 0 0
-29.2253 83.1413 21.9762 160 0 0
-28.5291 85.6154 21.7117 255 198 0
-27.6954 87.8691 21.3422 64 255 191
-26.0817 86.3123 26.9281 17 255 238
-30.0985 72.6916 29.6 0 0 138
-30.2293 72.8409 28.2838 0 0 138
-26.4562 72.5191 40.1066 0 0 131
-27.0631 71.4416 40.2484 0 0 131
-26.209 77.6348 35.9317 0 0 130
-26.3127 75.9431 37.3622 0 0 130
-26.1064 79.3546 34.4269 0 0 168
-26.7155 78.2476 34.7661 0 0 205
-26.209 77.6348 35.9317 0 0 168
-25.9952 80.8815 33.0283 0 0 128
-26.1064 79.3546 34.4269 0 0 128
-28.953 87.0015 17.3009 0 0 136
-28.6605 87.0893 18.6359 0 0 136
-30.0918 77.377 23.9748 0 0 224
-30.2908 75.9136 24.106 0 0 181
-30.1291 75.9667 25.4221 0 0 181
-28.2274 73.3666 36.537 0 0 131
-27.8867 72.8016 37.7874 0 0 131
-29.1834 74.7204 32.4517 0 0 175
-28.884 74.2817 33.9105 0 0 175
-28.8472 75.8937 32.4194 0 0 215
-29.4267 75.0103 31.0376 0 0 137
-29.1834 74.7204 32.4517 0 0 137
-29.3486 76.7545 29.5205 0 0 223
-29.6286 75.4325 29.5975 0 0 180
-29.4267 75.0103 31.0376 0 0 180
-26.8136 88.5376 22.6127 0 0 174
-27.1843 88.9202 21.1025 0 0 174
-27.3247 87.4865 22.8524 0 0 214
-25.5715 85.5894 28.3476 0 0 171
-26.2267 84.7365 28.5687 0 0 209
-25.7166 84.0137 29.9881 0 0 171
-29.7158 85.3871 14.7844 0 0 140
-29.4393 86.7472 14.5157 0 0 140
-30.2989 80.0623 18.29 0 0 139
-30.3348 78.7266 19.8088 0 0 139
-30.2344 81.4547 16.708 0 0 187
-30.2989 80.0623 18.29 0 0 187
-30.0828 81.4979 18.146 0 0 233
-30.2054 82.5546 15.2863 0 0 137
-30.2344 81.4547 16.708 0 0 137
-30.1865 74.4266 26.8725 0 0 139
-30.2293 72.8409 28.2838 0 0 139
-29.9875 75.89 26.7413 0 0 223
-30.1291 75.9667 25.4221 0 0 180
-30.1865 74.4266 26.8725 0 0 180
-27.458 72.1445 39.0497 0 0 130
-27.0631 71.4416 40.2484 0 0 130
-27.3795 73.9045 37.6956 0 0 206
-27.8867 72.8016 37.7874 0 0 169
-27.458 72.1445 39.0497 0 0 169
-26.379 74.3029 38.7057 0 0 130
-26.4562 72.5191 40.1066 0 0 130
-26.8845 74.8876 37.6144 0 0 195
-26.379 74.3029 38.7057 0 0 161
-26.3127 75.9431 37.3622 0 0 161
-25.8746 82.4782 31.5022 0 0 166
-26.4923 81.5641 31.7352 0 0 201
-25.9952 80.8815 33.0283 0 0 166
-25.7166 84.0137 29.9881 0 0 130
-25.8746 82.4782 31.5022 0 0 130
-29.1942 86.8726 15.9442 0 0 179
-29.2715 85.6636 17.5904 0 0 222
-28.953 87.0015 17.3009 0 0 179
-29.4393 86.7472 14.5157 0 0 139
-29.1942 86.8726 15.9442 0 0 139
-30.4205 75.9201 22.7353 0 0 137
-30.2908 75.9136 24.106 0 0 137
-30.3879 77.3358 21.2741 0 0 138
-30.4205 75.9201 22.7353 0 0 138
-30.2004 78.7147 21.1934 0 0 222
-30.3348 78.7266 19.8088 0 0 179
-30.3879 77.3358 21.2741 0 0 179
-28.5972 73.8133 35.2595 0 0 169
-28.2274 73.3666 36.537 0 0 169
-28.178 75.0083 35.1557 0 0 207
-28.5972 73.8133 35.2595 0 0 132
-28.884 74.2817 33.9105 0 0 132
-29.8758 74.0191 29.6531 0 0 138
-30.0985 72.6916 29.6 0 0 138
-29.7977 75.7633 28.136 0 0 233
-29.8758 74.0191 29.6531 0 0 187
-29.6286 75.4325 29.5975 0 0 187
-28.4099 87.0007 20.0181 0 0 177
-28.6605 87.0893 18.6359 0 0 177
-28.7797 85.704 20.3294 0 0 219
-27.993 88.1276 19.8334 0 0 175
-28.4099 87.0007 20.0181 0 0 175
-28.1123 86.7423 21.527 0 0 215
-27.531 89.2272 19.6926 0 0 135
-27.993 88.1276 19.8334 0 0 135
-27.531 89.2272 19.6926 0 0 132
-27.1843 88.9202 21.1025 0 0 132
-25.4409 87.1078 26.6693 0 0 131
-25.5715 85.5894 28.3476 0 0 131
-25.9227 87.7374 25.2961 0 0 129
-25.4409 87.1078 26.6693 0 0 129
-26.3589 88.1332 24.0133 0 0 167
-26.5179 86.7081 25.6454 0 0 202
-25.9227 87.7374 25.2961 0 0 167
-26.8136 88.5376 22.6127 0 0 134
-26.3589 88.1332 24.0133 0 0 134
-29.9686 84.0649 14.9495 0 0 182
-29.7655 84.2125 16.3988 0 0 225
-29.7158 85.3871 14.7844 0 0 182
-30.2054 82.5546 15.2863 0 0 140
-29.9686 84.0649 14.9495 0 0 140
3 0 8 7
3 31 9 32
3 1 12 10
3 1 14 12
3 1 16 14
3 33 17 34
3 35 18 36
3 37 19 38
3 39 38 18
3 37 38 39
3 41 40 19
3 43 42 21
3 3 44 46
3 44 23 45
3 44 45 46
3 3 24 23
3 2 47 48
3 4 49 51
3 51 50 11
3 49 50 51
3 4 52 53
3 4 54 56
3 54 25 55
3 54 55 56
3 5 26 13
3 5 27 26
3 5 28 27
3 6 29 15
3 6 57 59
3 59 58 29
3 57 58 59
3 60 30 61
3 62 61 20
3 60 61 62
3 64 63 22
3 7 65 66
3 8 67 69
3 69 68 7
3 67 68 69
3 8 70 71
3 9 72 73
3 9 74 76
3 74 3 75
3 74 75 76
3 10 11 2
3 12 11 10
3 12 4 11
3 12 13 4
3 14 13 12
3 14 5 13
3 14 15 5
3 16 15 14
3 16 6 15
3 17 77 78
3 17 79 81
3 79 2 80
3 79 80 81
3 82 17 83
3 18 84 86
3 84 17 85
3 84 85 86
3 18 2 17
3 18 10 2
3 19 10 18
3 19 1 10
3 19 20 1
3 87 20 88
3 89 88 19
3 87 88 89
3 91 90 20
3 21 22 0
3 92 22 93
3 94 93 21
3 92 93 94
3 96 95 22
3 23 97 98
3 23 99 100
3 23 101 103
3 101 7 102
3 101 102 103
3 24 7 23
3 24 0 7
3 11 104 106
3 106 105 2
3 104 105 106
3 108 107 11
3 109 9 110
3 25 111 113
3 111 9 112
3 111 112 113
3 25 3 9
3 13 25 4
3 26 25 13
3 26 3 25
3 26 24 3
3 27 24 26
3 27 0 24
3 27 21 0
3 28 21 27
3 28 114 116
3 116 115 21
3 114 115 116
3 15 28 5
3 29 28 15
3 29 117 119
3 119 118 28
3 117 118 119
3 29 120 121
3 123 122 29
3 20 16 1
3 30 16 20
3 30 6 16
3 124 30 125
3 126 30 127
3 128 6 129
3 130 129 30
3 128 129 130
3 132 131 6
3 22 8 0
3 133 8 134
3 135 134 22
3 133 134 135
3 137 136 8
