ply
format ascii 1.0
element vertex 186
property float x
property float y
property float z
property uchar red
property uchar green
property uchar blue
element face 168
property list uchar int vertex_index
end_header
-36.4087 2.80849 -58.0331 253 255 2
-29.0073 5.15187 -54.4422 255 149 0
-27.9275 2.16247 -45.0795 128 0 0
-31.4892 9.68639 -56.2997 78 255 177
-29.3446 8.96555 -52.7623 4 255 251
-27.301 -1.53802 -47.0747 61 255 194
-35.1946 8.47121 -58.1416 207 0 0
-32.0042 4.91004 -57.0456 255 17 0
-29.4814 0.562963 -54.4243 10 255 245
-27.801 3.90189 -50.3322 255 25 0
-37.0653 9.94721 -57.969 235 255 20
-34.9254 11.0676 -57.4934 48 255 207
-30.1304 7.51196 -55.5597 255 142 0
-31.6272 7.39751 -56.8993 255 89 0
-30.2932 5.25623 -55.9444 255 108 0
-30.6645 2.83254 -55.8856 255 45 0
-29.1544 2.93059 -54.6435 181 255 74
-28.0701 1.51489 -42.2212 123 255 132
-28.2241 3.89411 -43.6241 116 255 139
-28.1649 4.68269 -46.5047 235 255 20
-28.1759 5.61052 -49.2231 191 255 64
-27.7689 3.01312 -47.8145 189 0 0
-38.1463 4.12706 -58.434 133 255 122
-30.2093 9.53505 -54.7369 76 255 179
-29.066 7.18041 -53.8112 255 123 0
-27.9111 -0.389023 -43.5302 251 255 4
-27.6139 0.356262 -46.2457 173 0 0
-27.6829 -2.32592 -44.5568 95 255 160
-34.7907 1.3044 -57.1916 119 255 136
-39.4476 8.32795 -58.0473 19 255 236
-37.4999 7.1006 -58.4387 255 122 0
-35.7087 5.68938 -58.3276 151 0 0
-33.1683 9.34006 -57.4336 240 255 15
-33.51 6.79036 -57.8204 249 0 0
-34.0702 4.09013 -57.7401 174 0 0
-32.5725 2.29347 -56.7361 255 192 0
-31.2035 0.291258 -55.3973 57 255 198
-28.4347 6.49963 -51.6827 237 255 18
-28.1834 4.66352 -52.5593 255 114 0
-27.4284 1.21073 -48.7781 255 226 0
-27.5508 2.01793 -51.0558 101 255 154
-28.1096 2.63131 -53.0244 65 255 190
-34.9341 12.2169 -56.9526 0 0 134
-35.9105 11.8133 -57.274 0 0 134
-37.6734 1.95398 -57.9856 0 0 191
-38.5422 2.61327 -58.1861 0 0 191
-37.2775 3.46777 -58.2336 0 0 238
-29.777 9.2503 -53.7496 0 0 199
-30.3765 10.3962 -54.118 0 0 165
-29.9442 10.1115 -53.1307 0 0 165
-27.9933 -1.66581 -42.7074 0 0 144
-27.9996 -0.63278 -42.1266 0 0 144
-27.8791 -2.63426 -43.2207 0 0 183
-27.797 -1.35747 -44.0435 0 0 226
-27.9933 -1.66581 -42.7074 0 0 183
-35.2016 -0.113686 -56.6935 0 0 144
-34.0356 0.449267 -56.5896 0 0 144
-39.2818 9.76727 -57.6715 0 0 147
-40.4948 8.84742 -57.605 0 0 147
-32.3288 9.51323 -56.8667 0 0 200
-33.1309 10.4942 -57.0156 0 0 166
-32.2913 10.6673 -56.4486 0 0 166
-29.7203 -0.676581 -54.1184 0 0 172
-30.5814 -0.812433 -54.6049 0 0 172
-30.3424 0.427111 -54.9108 0 0 209
-27.492 0.99773 -51.2195 0 0 129
-27.3559 0.647571 -50.2119 0 0 129
-27.7714 1.30442 -52.2038 0 0 161
-27.8302 2.32462 -52.0401 0 0 193
-27.492 0.99773 -51.2195 0 0 161
-28.1574 1.53464 -53.0518 0 0 128
-27.7714 1.30442 -52.2038 0 0 128
-29.5902 9.71497 -52.0443 0 0 133
-29.9442 10.1115 -53.1307 0 0 133
-36.9804 11.2531 -57.5118 0 0 141
-38.0906 10.5769 -57.6323 0 0 141
-35.9954 10.5074 -57.7312 0 0 222
-36.9804 11.2531 -57.5118 0 0 181
-35.9105 11.8133 -57.274 0 0 181
-28.1113 2.46238 -41.4607 0 0 140
-28.0253 1.36563 -40.7876 0 0 140
-28.1883 3.65199 -42.1622 0 0 189
-28.1113 2.46238 -41.4607 0 0 189
-28.1471 2.7045 -42.9227 0 0 235
-28.3548 4.73585 -42.7894 0 0 140
-28.1883 3.65199 -42.1622 0 0 140
-28.4085 5.0627 -44.2636 0 0 142
-28.3548 4.73585 -42.7894 0 0 142
-28.3789 5.45699 -45.7039 0 0 183
-28.4085 5.0627 -44.2636 0 0 183
-28.1945 4.2884 -45.0644 0 0 225
-28.4111 5.90916 -47.1345 0 0 141
-28.3789 5.45699 -45.7039 0 0 141
-28.1704 5.14661 -47.8639 0 0 221
-28.4166 6.37308 -48.4937 0 0 180
-28.4111 5.90916 -47.1345 0 0 180
-27.231 -1.13041 -48.2213 0 0 134
-27.1551 -2.53097 -47.3112 0 0 134
-39.4465 3.1408 -58.296 0 0 146
-39.0789 4.70323 -58.3891 0 0 146
-39.4465 3.1408 -58.296 0 0 144
-38.5422 2.61327 -58.1861 0 0 144
-31.5565 10.689 -55.7824 0 0 129
-32.2913 10.6673 -56.4486 0 0 129
-30.9165 10.6133 -55.001 0 0 130
-30.3765 10.3962 -54.118 0 0 130
-30.8493 9.61072 -55.5183 0 0 194
-31.5565 10.689 -55.7824 0 0 162
-30.9165 10.6133 -55.001 0 0 162
-28.0791 0.319175 -41.4721 0 0 144
-28.0253 1.36563 -40.7876 0 0 144
-27.9906 0.562932 -42.8757 0 0 228
-28.0791 0.319175 -41.4721 0 0 185
-27.9996 -0.63278 -42.1266 0 0 185
-27.8122 -3.66491 -43.6657 0 0 142
-27.8791 -2.63426 -43.2207 0 0 142
-27.5415 -3.31825 -44.9085 0 0 179
-27.8122 -3.66491 -43.6657 0 0 179
-27.6709 -4.65724 -44.0174 0 0 138
-27.3506 -2.9243 -46.1675 0 0 180
-27.492 -1.93197 -45.8157 0 0 221
-27.5415 -3.31825 -44.9085 0 0 180
-27.1551 -2.53097 -47.3112 0 0 134
-27.3506 -2.9243 -46.1675 0 0 134
-36.0101 0.592753 -57.2255 0 0 191
-36.8191 1.34479 -57.6463 0 0 191
-35.5997 2.05644 -57.6124 0 0 237
-36.421 -0.825337 -56.7275 0 0 145
-36.0101 0.592753 -57.2255 0 0 192
-35.2016 -0.113686 -56.6935 0 0 192
-40.7255 7.30237 -57.8992 0 0 152
-40.4948 8.84742 -57.605 0 0 152
-39.7296 6.80368 -58.1957 0 0 147
-40.7255 7.30237 -57.8992 0 0 147
-38.2564 9.13758 -58.0081 0 0 242
-39.2818 9.76727 -57.6715 0 0 194
-38.0906 10.5769 -57.6323 0 0 194
-38.7557 6.19 -58.3914 0 0 195
-39.7296 6.80368 -58.1957 0 0 195
-38.4737 7.71428 -58.243 0 0 244
-37.8231 5.61383 -58.4364 0 0 235
-39.0789 4.70323 -58.3891 0 0 189
-38.7557 6.19 -58.3914 0 0 189
-34.0094 11.3579 -57.0455 0 0 133
-34.9341 12.2169 -56.9526 0 0 133
-34.0469 10.2038 -57.4635 0 0 200
-34.0094 11.3579 -57.0455 0 0 166
-33.1309 10.4942 -57.0156 0 0 166
-32.9265 0.9438 -56.3618 0 0 185
-34.0356 0.449267 -56.5896 0 0 185
-33.6816 1.79894 -56.9638 0 0 228
-32.242 -0.057306 -55.6925 0 0 183
-32.9265 0.9438 -56.3618 0 0 183
-31.888 1.29236 -56.0667 0 0 226
-31.5367 -1.02236 -54.9547 0 0 140
-32.242 -0.057306 -55.6925 0 0 140
-31.5367 -1.02236 -54.9547 0 0 139
-30.5814 -0.812433 -54.6049 0 0 139
-29.1017 8.53744 -51.5891 0 0 135
-29.5902 9.71497 -52.0443 0 0 135
-28.5173 6.85992 -49.8195 0 0 139
-28.4166 6.37308 -48.4937 0 0 139
-28.6467 7.30448 -51.0493 0 0 174
-28.5173 6.85992 -49.8195 0 0 174
-28.3053 6.05508 -50.4529 0 0 212
-28.8896 7.73259 -52.2225 0 0 210
-29.1017 8.53744 -51.5891 0 0 172
-28.6467 7.30448 -51.0493 0 0 172
-27.2947 0.243969 -49.073 0 0 170
-27.3647 -0.16365 -47.9264 0 0 206
-27.231 -1.13041 -48.2213 0 0 170
-27.4896 1.61433 -49.917 0 0 205
-27.2947 0.243969 -49.073 0 0 169
-27.3559 0.647571 -50.2119 0 0 169
-28.6798 1.68428 -53.8613 0 0 159
-28.632 2.78095 -53.834 0 0 190
-28.1574 1.53464 -53.0518 0 0 159
-28.8433 0.500465 -53.7517 0 0 162
-29.3179 1.74678 -54.5339 0 0 195
-28.6798 1.68428 -53.8613 0 0 162
-28.969 -0.661074 -53.5847 0 0 129
-28.8433 0.500465 -53.7517 0 0 129
-29.7203 -0.676581 -54.1184 0 0 132
-28.969 -0.661074 -53.5847 0 0 132
-37.6734 1.95398 -57.9856 0 0 144
-36.8191 1.34479 -57.6463 0 0 144
3 42 11 43
3 1 14 12
3 1 16 14
3 2 18 17
3 2 19 18
3 2 21 19
3 0 44 46
3 46 45 22
3 44 45 46
3 4 47 49
3 47 23 48
3 47 48 49
3 4 24 23
3 50 25 51
3 52 27 53
3 54 53 25
3 52 53 54
3 56 55 28
3 57 29 58
3 6 30 10
3 6 31 30
3 3 59 61
3 59 32 60
3 59 60 61
3 7 33 13
3 7 34 33
3 7 35 34
3 8 36 15
3 8 62 64
3 64 63 36
3 62 63 64
3 9 37 20
3 9 38 37
3 5 39 26
3 65 40 66
3 67 41 68
3 69 68 40
3 67 68 69
3 71 70 41
3 72 4 73
3 74 10 75
3 11 76 78
3 76 10 77
3 76 77 78
3 11 6 10
3 12 13 3
3 14 13 12
3 14 7 13
3 14 15 7
3 16 15 14
3 16 8 15
3 17 79 80
3 18 81 83
3 83 82 17
3 81 82 83
3 18 84 85
3 18 86 87
3 19 88 90
3 90 89 18
3 88 89 90
3 19 91 92
3 19 93 95
3 93 20 94
3 93 94 95
3 21 20 19
3 21 9 20
3 97 96 5
3 22 98 99
3 101 100 22
3 102 3 103
3 23 104 105
3 23 106 108
3 106 3 107
3 106 107 108
3 23 12 3
3 24 12 23
3 24 1 12
3 109 17 110
3 25 111 113
3 111 17 112
3 111 112 113
3 25 2 17
3 25 26 2
3 27 26 25
3 27 5 26
3 114 27 115
3 116 27 117
3 116 117 118
3 119 5 120
3 121 120 27
3 119 120 121
3 123 122 5
3 28 124 126
3 126 125 0
3 124 125 126
3 129 128 28
3 127 128 129
3 29 130 131
3 29 132 133
3 10 134 136
3 134 29 135
3 134 135 136
3 30 29 10
3 30 137 139
3 139 138 29
3 137 138 139
3 30 140 142
3 140 22 141
3 140 141 142
3 31 22 30
3 31 0 22
3 143 11 144
3 32 145 147
3 145 11 146
3 145 146 147
3 32 6 11
3 13 32 3
3 33 32 13
3 33 6 32
3 33 31 6
3 34 31 33
3 34 0 31
3 34 28 0
3 35 28 34
3 35 148 150
3 150 149 28
3 148 149 150
3 15 35 7
3 36 35 15
3 36 151 153
3 153 152 35
3 151 152 153
3 36 154 155
3 157 156 36
3 158 4 159
3 20 160 161
3 37 162 164
3 164 163 20
3 162 163 164
3 37 165 167
3 165 4 166
3 165 166 167
3 37 24 4
3 38 24 37
3 38 1 24
3 26 21 2
3 39 21 26
3 39 9 21
3 168 39 169
3 170 169 5
3 168 169 170
3 40 171 173
3 171 39 172
3 171 172 173
3 40 9 39
3 40 38 9
3 41 38 40
3 41 1 38
3 41 16 1
3 174 16 175
3 176 175 41
3 174 175 176
3 177 8 178
3 179 178 16
3 177 178 179
3 180 8 181
3 183 182 8
3 185 184 0
