ply
format ascii 1.0
element vertex 411
property float x
property float y
property float z
property uchar red
property uchar green
property uchar blue
element face 466
property list uchar int vertex_index
end_header
3.12934 -18.7597 51.1995 255 149 0
-4.44044 -8.15291 39.7623 165 0 0
-1.80109 -41.2183 41.2638 0 250 255
4.69855 -34.0677 51.2103 14 255 241
1.5904 -43.9367 47.3912 0 247 255
0.016348 -29.7832 46.6577 255 157 0
1.56437 -2.63143 51.6386 126 255 129
-1.33684 -13.3802 46.3307 255 53 0
-2.02601 3.37762 44.8618 231 0 0
-5.00167 9.0204 36.4355 133 255 122
-3.41726 -25.5812 40.9354 255 11 0
4.01036 -26.6389 50.9603 43 255 212
2.48713 -31.9557 48.8542 255 202 0
1.72654 -24.2377 48.7425 255 143 0
1.20829 5.34261 50.9359 146 255 109
-0.229101 0.28372 48.4117 255 24 0
-0.350163 8.34623 47.1263 252 0 0
-3.48477 14.5894 38.4903 106 255 149
-0.258049 -42.4996 44.5058 132 255 123
-3.11274 -10.6502 43.2975 250 0 0
-2.64158 -19.2647 43.7721 255 46 0
-3.96501 -16.9502 40.5099 215 0 0
-0.17775 16.2675 44.9268 60 255 195
5.01922 -40.8567 52.0799 0 247 255
3.40919 -45.4449 50.2298 0 228 255
3.08893 -39.0533 49.3417 246 255 9
0.801565 -37.2164 46.9374 255 222 0
-1.26523 -35.4162 44.3014 255 155 0
-5.1059 -14.9664 36.8874 246 255 9
2.24829 -10.6893 51.5844 255 102 0
0.923079 -16.1264 48.855 255 96 0
0.220676 -7.89318 48.8797 255 57 0
-1.80421 -4.94828 45.895 255 11 0
-3.43782 -2.04538 42.413 205 0 0
-1.97555 11.5311 43.0043 255 194 0
-3.57081 6.38791 40.8552 169 0 0
-4.80792 0.550394 38.4678 255 133 0
-0.706306 -21.7502 46.4977 255 100 0
-2.04287 -27.6169 44.0704 255 101 0
-2.74065 -33.7423 41.1714 232 255 23
-4.41188 -23.7997 37.4382 177 0 0
-3.70037 -32.2709 37.6733 182 255 73
3.58241 -22.7398 51.0356 153 255 102
2.93745 -25.4508 49.8163 255 174 0
2.51442 -21.491 49.8892 255 148 0
1.15738 9.29847 50.2276 43 255 212
0.460907 6.80667 49.0583 255 16 0
0.465252 10.7748 48.2087 255 232 0
-1.08406 -41.8358 42.9352 162 255 93
-0.483883 -45.2043 42.9909 0 126 255
-3.80852 -9.35871 41.5835 210 0 0
-3.59758 -13.7248 41.9342 235 0 0
-4.21253 -12.5537 40.1893 190 0 0
4.91507 -37.5494 51.568 2 255 253
4.13525 -39.9628 50.6327 234 255 21
3.94643 -36.5787 50.2366 255 253 0
1.23736 -30.8743 47.7766 255 178 0
1.60487 -34.5913 47.9217 255 211 0
0.402842 -33.5863 46.7787 255 189 0
-0.290754 -36.3064 45.6753 255 193 0
-0.712286 -32.5852 45.5495 255 163 0
1.87085 -6.65135 51.6832 219 255 36
1.27507 -9.31553 50.2429 255 81 0
0.949034 -5.25035 50.2256 255 63 0
-1.15349 1.82185 46.691 255 1 0
-1.02837 -2.28903 47.1573 255 17 0
-1.94925 -0.766378 45.4717 248 0 0
-2.67304 -3.47498 44.2181 239 0 0
-2.78052 0.741974 43.6621 220 0 0
-1.07983 13.9264 43.9899 183 255 72
-4.28088 11.9027 37.4925 249 255 6
-3.55603 10.5188 39.7741 154 0 0
-4.28414 7.76645 38.6921 128 0 0
-4.23327 3.5668 39.6901 145 0 0
-4.93046 4.81818 37.5505 255 251 0
2.52687 -44.6881 48.7866 0 234 255
-0.244789 -14.7625 47.6439 255 73 0
0.107683 -18.9095 47.6538 255 95 0
-1.03641 -17.5885 46.4283 255 76 0
-3.10036 -22.3708 42.4017 255 31 0
-2.35983 -23.4931 43.9335 255 73 0
-2.80911 -26.5739 42.5638 255 58 0
-2.47564 -30.6463 42.6942 255 84 0
-3.10293 -29.7376 41.0733 255 37 0
-4.76105 -19.4089 37.2112 255 155 0
-4.94635 -23.0224 35.6117 108 255 147
-4.13225 -31.6181 35.8587 81 255 174
4.38982 -30.4241 51.0108 28 255 227
3.6719 -33.0213 49.9716 255 227 0
3.32955 -29.3044 49.8356 255 200 0
2.11972 -28.1628 48.7573 255 171 0
0.859608 -27.0017 47.6937 255 147 0
1.34219 1.36633 51.4009 136 255 119
0.699553 -1.20664 50.0483 255 46 0
0.536573 2.81242 49.6683 255 30 0
-0.330746 4.33041 47.8834 255 9 0
-1.20081 5.89722 46.0145 242 0 0
0.646948 -43.2032 45.9812 13 255 242
-2.29767 -12.0004 44.884 255 28 0
-2.04507 -16.2679 45.0706 255 52 0
-2.89281 -14.9712 43.5689 255 20 0
-3.36133 -18.0745 42.198 255 5 0
-3.70099 -21.3059 40.7517 240 0 0
0.537388 14.7115 47.1261 54 255 201
4.99391 -43.9843 52.7305 0 162 255
4.19064 -46.196 51.7827 0 153 255
4.22136 -43.1681 51.153 215 255 40
3.29261 -42.3371 49.7377 218 255 37
2.26568 -41.4996 48.4238 232 255 23
2.81506 -35.591 49.0471 255 233 0
1.95224 -38.1352 48.1362 255 246 0
1.2032 -40.6654 47.1394 255 254 0
0.166708 -39.8451 45.8164 255 221 0
-0.788853 -39.0497 44.4034 255 180 0
-1.62179 -38.2894 42.8752 255 133 0
-5.0711 -7.05407 37.8496 255 131 0
-4.80636 -11.478 38.3555 141 0 0
-5.43801 -10.5108 36.4425 128 255 127
2.67604 -14.7329 51.4022 255 124 0
2.081 -17.46 50.0177 255 123 0
1.65991 -13.392 50.1542 255 101 0
0.549076 -12.0106 48.9032 255 75 0
-0.562185 -10.5942 47.5893 255 53 0
-0.04327 -3.792 48.7318 255 40 0
-0.828156 -6.4308 47.4429 255 34 0
-1.59674 -9.15842 46.1672 255 31 0
-2.50976 -7.72794 44.613 255 5 0
-3.29656 -6.33359 42.9242 226 0 0
-3.98924 -5.00731 41.1136 187 0 0
-0.295507 12.3277 46.1369 242 0 0
-1.17378 9.93367 45.1135 230 0 0
-2.0337 7.47815 44.0422 217 0 0
-2.74322 13.0964 40.7949 217 255 38
-2.81531 9.03227 41.9604 189 0 0
-2.8282 4.91296 42.9153 203 0 0
-3.53062 2.19829 41.7312 186 0 0
-4.13305 -0.693779 40.4915 165 0 0
-4.64175 -3.77766 39.198 141 0 0
-5.30739 -2.66652 37.1888 127 255 128
3.97268 -20.0284 52.4674 0 227 255
3.50397 -16.0362 52.709 80 255 175
3.05113 -12.0165 52.9602 95 255 160
2.63941 -7.9946 53.1544 5 255 250
1.32205 -20.2135 48.7866 255 118 0
0.479919 -23.0016 47.6599 255 119 0
-0.354076 -25.8275 46.5678 255 127 0
-1.75896 -20.4977 45.208 255 78 0
-1.4427 -24.6522 45.3233 255 105 0
-1.09519 -28.6925 45.434 255 133 0
-1.68143 -31.6004 44.1917 255 128 0
-2.08436 -34.5577 42.797 255 110 0
-2.31119 -37.5726 41.233 106 255 149
-4.52322 -15.9101 38.7343 168 0 0
-4.22905 -20.315 39.014 194 0 0
-3.92585 -24.6534 39.2174 220 0 0
-4.53697 -27.3772 35.7756 219 255 36
-4.06054 -28.0991 37.5878 205 0 0
-3.6078 -28.8862 39.3605 246 0 0
-3.26054 -32.9785 39.4525 157 255 98
0.821348 12.0031 48.7428 0 0 177
0.811315 10.0366 49.2182 0 0 214
1.16741 11.265 49.7523 0 0 177
-1.5062 -42.9503 41.2698 0 0 168
-1.14769 -43.259 42.1056 0 0 168
-1.44258 -41.5271 42.0995 0 0 200
-1.82577 -42.7144 40.3741 0 0 137
-1.5062 -42.9503 41.2698 0 0 137
-5.32719 7.47607 35.8767 0 0 193
-5.29159 5.37496 36.4342 0 0 193
-4.96607 6.91929 36.993 0 0 239
1.76405 -45.4895 47.5461 0 0 154
2.23229 -45.8652 48.2438 0 0 154
2.05864 -44.3124 48.0889 0 0 179
-5.258 -22.67 34.6726 0 0 147
-5.15144 -20.8069 35.4809 0 0 147
0.02383 -44.1381 44.5642 0 0 160
0.476328 -44.4899 45.3019 0 0 160
0.194449 -42.8514 45.2435 0 0 188
-0.168949 -46.8083 43.0273 0 0 135
-0.523848 -46.5913 42.1406 0 0 135
-5.59187 -8.2935 36.1464 0 0 194
-5.25456 -8.78246 37.1461 0 0 239
-5.40842 -6.56511 36.8499 0 0 194
-3.114 13.8429 39.6426 0 0 227
-2.67847 15.0994 40.1123 0 0 186
-3.04924 15.8459 38.9601 0 0 186
4.25408 -20.6501 53.1713 0 0 134
4.20183 -21.9951 52.3819 0 0 134
3.55619 -14.671 53.5643 0 0 136
3.78567 -16.6728 53.418 0 0 136
3.32977 -12.6611 53.69 0 0 170
3.27755 -14.0263 52.8346 0 0 204
3.55619 -14.671 53.5643 0 0 170
2.72546 -6.63732 54.0034 0 0 137
2.91109 -8.64189 53.9195 0 0 137
2.46499 -5.99061 53.1903 0 0 138
2.72546 -6.63732 54.0034 0 0 138
3.41625 -46.9149 50.5191 0 0 152
3.80698 -47.2904 51.2956 0 0 152
3.79992 -45.8204 51.0063 0 0 177
-4.57956 -29.1953 34.8966 0 0 145
-4.81529 -27.0461 34.8508 0 0 145
-0.847595 -44.9433 42.1334 0 0 168
-0.783973 -43.5201 42.9631 0 0 200
-1.14769 -43.259 42.1056 0 0 168
-0.523848 -46.5913 42.1406 0 0 135
-0.847595 -44.9433 42.1334 0 0 135
-1.00355 15.8972 43.3248 0 0 182
-0.628792 15.097 44.4584 0 0 222
-0.552504 17.0678 43.7933 0 0 182
-1.46826 14.7292 42.8724 0 0 142
-1.00355 15.8972 43.3248 0 0 142
-1.91612 13.5315 42.3796 0 0 184
-1.52769 12.7288 43.4971 0 0 225
-1.46826 14.7292 42.8724 0 0 184
-5.21752 3.24179 36.9501 0 0 192
-5.15625 1.1079 37.4087 0 0 192
-4.86919 2.68429 38.0091 0 0 236
-5.21752 3.24179 36.9501 0 0 149
-5.29159 5.37496 36.4342 0 0 149
2.62058 -46.1994 49.0059 0 0 152
3.06175 -46.5778 49.7275 0 0 152
2.96803 -45.0665 49.5082 0 0 177
2.62058 -46.1994 49.0059 0 0 128
2.23229 -45.8652 48.2438 0 0 128
-5.05879 -19.0002 36.2806 0 0 190
-4.93347 -17.1876 37.0493 0 0 234
-5.23121 -16.7789 36.1188 0 0 190
-4.8537 -21.2157 36.4114 0 0 234
-5.05879 -19.0002 36.2806 0 0 190
-5.15144 -20.8069 35.4809 0 0 190
-4.14728 -33.3985 34.942 0 0 144
-4.3772 -31.3157 34.9382 0 0 144
-3.92942 -33.666 35.8665 0 0 143
-4.14728 -33.3985 34.942 0 0 143
-3.71347 -33.9924 36.7738 0 0 182
-3.91631 -31.9445 36.766 0 0 222
-3.92942 -33.666 35.8665 0 0 182
-3.50806 -34.2785 37.6884 0 0 142
-3.71347 -33.9924 36.7738 0 0 142
-3.42003 16.5944 37.7547 0 0 146
-3.04924 15.8459 38.9601 0 0 146
-3.85198 15.2831 37.2948 0 0 146
-3.42003 16.5944 37.7547 0 0 146
-4.25003 13.9398 36.7959 0 0 191
-3.88283 13.2461 37.9914 0 0 235
-3.85198 15.2831 37.2948 0 0 191
-4.64782 12.5302 36.3084 0 0 147
-4.25003 13.9398 36.7959 0 0 147
-5.00822 11.0891 35.7799 0 0 194
-4.64128 10.4616 36.964 0 0 240
-4.64782 12.5302 36.3084 0 0 194
-5.37237 9.57557 35.2626 0 0 149
-5.00822 11.0891 35.7799 0 0 149
0.885568 -44.7981 46.0817 0 0 156
1.35729 -45.1648 46.7867 0 0 156
1.11867 -43.57 46.6862 0 0 183
0.885568 -44.7981 46.0817 0 0 131
0.476328 -44.4899 45.3019 0 0 131
-0.089088 -45.4905 43.8067 0 0 163
0.02383 -44.1381 44.5642 0 0 163
-0.370966 -43.852 43.7483 0 0 194
-0.089088 -45.4905 43.8067 0 0 132
-0.168949 -46.8083 43.0273 0 0 132
0.895637 15.9225 47.6123 0 0 140
0.857416 13.9715 48.2015 0 0 140
0.600808 16.6587 46.4782 0 0 141
0.895637 15.9225 47.6123 0 0 141
0.243239 17.4367 45.3786 0 0 179
0.179819 15.4895 46.0265 0 0 217
0.600808 16.6587 46.4782 0 0 179
-0.092468 18.2107 44.2237 0 0 142
0.243239 17.4367 45.3786 0 0 142
-0.552504 17.0678 43.7933 0 0 141
-0.092468 18.2107 44.2237 0 0 141
4.59227 -45.0902 52.2566 0 0 181
4.50931 -46.5645 52.6386 0 0 155
4.91094 -45.4586 53.1125 0 0 155
-5.78604 -10.0847 35.4442 0 0 149
-5.59187 -8.2935 36.1464 0 0 149
-5.5975 -12.3175 35.706 0 0 149
-5.78604 -10.0847 35.4442 0 0 149
-5.43145 -14.5453 35.9284 0 0 192
-5.27196 -12.7386 36.6649 0 0 237
-5.5975 -12.3175 35.706 0 0 192
-5.23121 -16.7789 36.1188 0 0 148
-5.43145 -14.5453 35.9284 0 0 148
0.50132 12.7432 47.6674 0 0 219
0.821348 12.0031 48.7428 0 0 180
0.857416 13.9715 48.2015 0 0 180
-2.29996 14.3141 41.2749 0 0 144
-2.67847 15.0994 40.1123 0 0 144
-2.35939 12.3137 41.8996 0 0 224
-1.91612 13.5315 42.3796 0 0 183
-2.29996 14.3141 41.2749 0 0 183
-5.52656 -4.37134 36.5195 0 0 192
-5.40842 -6.56511 36.8499 0 0 192
-5.18925 -4.8603 37.5192 0 0 237
-5.40599 -0.500561 36.7692 0 0 194
-5.05766 -1.05806 37.8283 0 0 239
-5.15625 1.1079 37.4087 0 0 194
-5.66206 -2.17727 36.1379 0 0 148
-5.40599 -0.500561 36.7692 0 0 148
-5.52656 -4.37134 36.5195 0 0 149
-5.66206 -2.17727 36.1379 0 0 149
-5.32719 7.47607 35.8767 0 0 150
-5.37237 9.57557 35.2626 0 0 150
5.27844 -44.382 53.6201 0 0 129
4.91094 -45.4586 53.1125 0 0 129
5.33777 -42.8569 53.232 0 0 130
5.27844 -44.382 53.6201 0 0 130
5.35042 -41.2931 52.9067 0 0 156
5.00656 -42.4205 52.4052 0 0 182
5.33777 -42.8569 53.232 0 0 156
5.33493 -39.6779 52.5903 0 0 130
5.35042 -41.2931 52.9067 0 0 130
5.28286 -38.0242 52.3343 0 0 156
4.96714 -39.2031 51.8239 0 0 183
5.33493 -39.6779 52.5903 0 0 156
5.20115 -36.3211 52.1024 0 0 130
5.28286 -38.0242 52.3343 0 0 130
5.09289 -34.5803 51.9235 0 0 157
4.80681 -35.8086 51.3891 0 0 185
5.20115 -36.3211 52.1024 0 0 157
4.95594 -32.7947 51.7818 0 0 131
5.09289 -34.5803 51.9235 0 0 131
4.80158 -30.9729 51.682 0 0 159
4.54418 -32.2459 51.1105 0 0 187
4.95594 -32.7947 51.7818 0 0 159
4.6214 -29.1136 51.6287 0 0 132
4.80158 -30.9729 51.682 0 0 132
4.43166 -27.2209 51.6034 0 0 161
4.20009 -28.5315 50.9855 0 0 190
4.6214 -29.1136 51.6287 0 0 161
4.22067 -25.3003 51.6284 0 0 133
4.43166 -27.2209 51.6034 0 0 133
4.00669 -23.3508 51.666 0 0 163
3.79638 -24.6893 50.998 0 0 193
4.22067 -25.3003 51.6284 0 0 163
3.77754 -21.3841 51.7515 0 0 195
4.00669 -23.3508 51.666 0 0 164
4.20183 -21.9951 52.3819 0 0 164
4.02003 -18.6689 53.2972 0 0 135
4.25408 -20.6501 53.1713 0 0 135
3.73832 -18.0323 52.5882 0 0 201
4.02003 -18.6689 53.2972 0 0 168
3.78567 -16.6728 53.418 0 0 168
3.11695 -10.6528 53.8224 0 0 136
3.32977 -12.6611 53.69 0 0 136
2.84527 -10.0055 53.0573 0 0 207
3.11695 -10.6528 53.8224 0 0 172
2.91109 -8.64189 53.9195 0 0 172
2.08072 -5.31898 52.4547 0 0 171
2.25513 -7.32298 52.4188 0 0 205
2.46499 -5.99061 53.1903 0 0 171
1.92747 -3.30902 52.4324 0 0 174
1.71761 -4.64139 51.6609 0 0 209
2.08072 -5.31898 52.4547 0 0 174
1.79221 -1.31533 52.379 0 0 138
1.92747 -3.30902 52.4324 0 0 138
1.68112 0.683545 52.2601 0 0 176
1.45328 -0.632553 51.5197 0 0 212
1.79221 -1.31533 52.379 0 0 176
1.58832 2.66693 52.0967 0 0 138
1.68112 0.683545 52.2601 0 0 138
1.52137 4.65507 51.8642 0 0 177
1.27524 3.35447 51.1684 0 0 214
1.58832 2.66693 52.0967 0 0 177
1.46959 6.62941 51.5793 0 0 139
1.52137 4.65507 51.8642 0 0 139
1.44414 8.60734 51.2251 0 0 179
1.18283 7.32054 50.5818 0 0 216
1.46959 6.62941 51.5793 0 0 179
1.42805 10.573 50.816 0 0 140
1.44414 8.60734 51.2251 0 0 140
1.16741 11.265 49.7523 0 0 141
1.42805 10.573 50.816 0 0 141
4.11262 -47.6245 52.1418 0 0 128
4.50931 -46.5645 52.6386 0 0 128
4.11262 -47.6245 52.1418 0 0 128
3.80698 -47.2904 51.2956 0 0 128
3.41625 -46.9149 50.5191 0 0 128
3.06175 -46.5778 49.7275 0 0 128
1.76405 -45.4895 47.5461 0 0 129
1.35729 -45.1648 46.7867 0 0 129
-5.01998 -24.8687 34.7688 0 0 147
-5.258 -22.67 34.6726 0 0 147
-4.74166 -25.1998 35.6936 0 0 232
-5.01998 -24.8687 34.7688 0 0 189
-4.81529 -27.0461 34.8508 0 0 189
-4.33461 -29.4977 35.8172 0 0 228
-4.57956 -29.1953 34.8966 0 0 186
-4.3772 -31.3157 34.9382 0 0 186
-3.28815 -34.6324 38.578 0 0 179
-3.48046 -32.6247 38.5629 0 0 217
-3.50806 -34.2785 37.6884 0 0 179
-3.06214 -34.9415 39.4757 0 0 140
-3.28815 -34.6324 38.578 0 0 140
-2.80219 -35.3234 40.3351 0 0 175
-3.0006 -33.3604 40.3119 0 0 212
-3.06214 -34.9415 39.4757 0 0 175
-2.58746 -37.2385 40.3659 0 0 175
-2.52592 -35.6574 41.2022 0 0 211
-2.80219 -35.3234 40.3351 0 0 175
-2.35424 -39.1109 40.3694 0 0 138
-2.58746 -37.2385 40.3659 0 0 138
-2.09919 -40.9338 40.3847 0 0 173
-2.05614 -39.3954 41.2484 0 0 208
-2.35424 -39.1109 40.3694 0 0 173
-1.82577 -42.7144 40.3741 0 0 137
-2.09919 -40.9338 40.3847 0 0 137
3 0 44 42
3 159 47 160
3 161 160 45
3 159 160 161
3 2 162 164
3 164 163 48
3 162 163 164
3 2 165 166
3 1 52 50
3 3 55 53
3 5 58 56
3 5 60 58
3 6 63 61
3 8 66 64
3 8 68 66
3 9 72 70
3 9 74 72
3 9 167 169
3 169 168 74
3 167 168 169
3 4 170 172
3 172 171 75
3 170 171 172
3 7 78 76
3 10 81 79
3 10 83 81
3 173 85 174
3 11 89 87
3 13 90 43
3 13 91 90
3 14 94 92
3 16 95 46
3 16 96 95
3 18 175 177
3 177 176 97
3 175 176 177
3 179 178 49
3 19 100 98
3 21 101 51
3 21 102 101
3 23 106 104
3 25 107 54
3 25 108 107
3 12 109 88
3 26 110 57
3 26 111 110
3 26 112 111
3 27 113 59
3 27 114 113
3 180 117 181
3 182 181 115
3 180 181 182
3 29 120 118
3 31 121 62
3 31 122 121
3 15 123 93
3 32 124 65
3 32 125 124
3 32 126 125
3 33 127 67
3 33 128 127
3 22 129 103
3 34 130 69
3 34 131 130
3 17 183 185
3 183 132 184
3 183 184 185
3 35 133 71
3 35 134 133
3 35 135 134
3 36 136 73
3 36 137 136
3 36 138 137
3 186 139 187
3 188 140 189
3 190 141 191
3 192 191 140
3 190 191 192
3 193 142 194
3 196 195 142
3 24 197 199
3 199 198 105
3 197 198 199
3 30 143 119
3 37 144 77
3 37 145 144
3 20 146 99
3 38 147 80
3 38 148 147
3 38 149 148
3 39 150 82
3 39 151 150
3 28 152 116
3 40 153 84
3 40 154 153
3 200 155 201
3 41 156 86
3 41 157 156
3 41 158 157
3 42 43 11
3 44 43 42
3 44 13 43
3 45 46 14
3 47 46 45
3 47 16 46
3 48 49 18
3 202 49 203
3 204 203 48
3 202 203 204
3 206 205 49
3 50 51 19
3 52 51 50
3 52 21 51
3 53 54 23
3 55 54 53
3 55 25 54
3 56 57 12
3 58 57 56
3 58 26 57
3 58 59 26
3 60 59 58
3 60 27 59
3 61 62 29
3 63 62 61
3 63 31 62
3 64 65 15
3 66 65 64
3 66 32 65
3 66 67 32
3 68 67 66
3 68 33 67
3 207 69 208
3 209 208 22
3 207 208 209
3 210 69 211
3 212 34 213
3 214 213 69
3 212 213 214
3 70 71 17
3 72 71 70
3 72 35 71
3 72 73 35
3 74 73 72
3 74 36 73
3 74 215 217
3 217 216 36
3 215 216 217
3 219 218 74
3 75 220 222
3 222 221 24
3 220 221 222
3 224 223 75
3 76 77 30
3 78 77 76
3 78 37 77
3 79 80 20
3 81 80 79
3 81 38 80
3 81 82 38
3 83 82 81
3 83 39 82
3 225 84 226
3 227 226 28
3 225 226 227
3 85 228 230
3 228 84 229
3 228 229 230
3 85 40 84
3 231 86 232
3 233 86 234
3 235 41 236
3 237 236 86
3 235 236 237
3 239 238 41
3 87 88 3
3 89 88 87
3 89 12 88
3 43 89 11
3 90 89 43
3 90 12 89
3 90 56 12
3 91 56 90
3 91 5 56
3 92 93 6
3 94 93 92
3 94 15 93
3 46 94 14
3 95 94 46
3 95 15 94
3 95 64 15
3 96 64 95
3 96 8 64
3 240 17 241
3 242 17 243
3 244 70 245
3 246 245 17
3 244 245 246
3 247 70 248
3 249 9 250
3 251 250 70
3 249 250 251
3 253 252 9
3 97 254 256
3 256 255 4
3 254 255 256
3 258 257 97
3 49 259 261
3 261 260 18
3 259 260 261
3 263 262 49
3 98 99 7
3 100 99 98
3 100 20 99
3 51 100 19
3 101 100 51
3 101 20 100
3 101 79 20
3 102 79 101
3 102 10 79
3 264 103 265
3 266 103 267
3 268 22 269
3 270 269 103
3 268 269 270
3 271 22 272
3 274 273 22
3 104 275 277
3 275 105 276
3 275 276 277
3 106 105 104
3 106 24 105
3 54 106 23
3 107 106 54
3 107 24 106
3 107 75 24
3 108 75 107
3 108 4 75
3 88 55 3
3 109 55 88
3 109 25 55
3 57 109 12
3 110 109 57
3 110 25 109
3 110 108 25
3 111 108 110
3 111 4 108
3 111 97 4
3 112 97 111
3 112 18 97
3 59 112 26
3 113 112 59
3 113 18 112
3 113 48 18
3 114 48 113
3 114 2 48
3 115 116 1
3 117 116 115
3 117 28 116
3 278 117 279
3 280 117 281
3 282 28 283
3 284 283 117
3 282 283 284
3 286 285 28
3 118 119 0
3 120 119 118
3 120 30 119
3 62 120 29
3 121 120 62
3 121 30 120
3 121 76 30
3 122 76 121
3 122 7 76
3 93 63 6
3 123 63 93
3 123 31 63
3 65 123 15
3 124 123 65
3 124 31 123
3 124 122 31
3 125 122 124
3 125 7 122
3 125 98 7
3 126 98 125
3 126 19 98
3 67 126 32
3 127 126 67
3 127 19 126
3 127 50 19
3 128 50 127
3 128 1 50
3 103 287 289
3 287 47 288
3 287 288 289
3 129 47 103
3 129 16 47
3 69 129 22
3 130 129 69
3 130 16 129
3 130 96 16
3 131 96 130
3 131 8 96
3 132 290 291
3 132 292 294
3 292 34 293
3 292 293 294
3 71 132 17
3 133 132 71
3 133 34 132
3 133 131 34
3 134 131 133
3 134 8 131
3 134 68 8
3 135 68 134
3 135 33 68
3 73 135 35
3 136 135 73
3 136 33 135
3 136 128 33
3 137 128 136
3 137 1 128
3 137 115 1
3 138 115 137
3 138 295 297
3 297 296 115
3 295 296 297
3 298 138 299
3 300 299 36
3 298 299 300
3 301 138 302
3 304 303 138
3 306 305 9
3 307 104 308
3 309 104 310
3 311 23 312
3 313 312 104
3 311 312 313
3 314 23 315
3 316 53 317
3 318 317 23
3 316 317 318
3 319 53 320
3 321 3 322
3 323 322 53
3 321 322 323
3 324 3 325
3 326 87 327
3 328 327 3
3 326 327 328
3 329 87 330
3 331 11 332
3 333 332 87
3 331 332 333
3 334 11 335
3 336 42 337
3 338 337 11
3 336 337 338
3 139 339 341
3 339 42 340
3 339 340 341
3 139 0 42
3 342 139 343
3 140 344 346
3 344 139 345
3 344 345 346
3 140 0 139
3 140 118 0
3 141 118 140
3 141 29 118
3 347 141 348
3 142 349 351
3 349 141 350
3 349 350 351
3 142 29 141
3 142 61 29
3 352 61 353
3 354 353 142
3 352 353 354
3 355 6 356
3 357 356 61
3 355 356 357
3 358 6 359
3 360 92 361
3 362 361 6
3 360 361 362
3 363 92 364
3 365 14 366
3 367 366 92
3 365 366 367
3 368 14 369
3 370 45 371
3 372 371 14
3 370 371 372
3 373 45 374
3 376 375 45
3 105 377 378
3 380 379 105
3 382 381 24
3 384 383 4
3 119 44 0
3 143 44 119
3 143 13 44
3 77 143 30
3 144 143 77
3 144 13 143
3 144 91 13
3 145 91 144
3 145 5 91
3 99 78 7
3 146 78 99
3 146 37 78
3 80 146 20
3 147 146 80
3 147 37 146
3 147 145 37
3 148 145 147
3 148 5 145
3 148 60 5
3 149 60 148
3 149 27 60
3 82 149 38
3 150 149 82
3 150 27 149
3 150 114 27
3 151 114 150
3 151 2 114
3 116 52 1
3 152 52 116
3 152 21 52
3 84 152 28
3 153 152 84
3 153 21 152
3 153 102 21
3 154 102 153
3 154 10 102
3 385 85 386
3 155 387 389
3 387 85 388
3 387 388 389
3 155 40 85
3 86 390 392
3 390 155 391
3 390 391 392
3 156 155 86
3 156 40 155
3 156 154 40
3 157 154 156
3 157 10 154
3 157 83 10
3 158 83 157
3 158 39 83
3 393 158 394
3 395 394 41
3 393 394 395
3 396 158 397
3 398 39 399
3 400 399 158
3 398 399 400
3 401 151 402
3 403 402 39
3 401 402 403
3 404 151 405
3 406 2 407
3 408 407 151
3 406 407 408
3 410 409 2
