ply
format ascii 1.0
element vertex 576
property float x
property float y
property float z
property uchar red
property uchar green
property uchar blue
element face 690
property list uchar int vertex_index
end_header
-64.4256 -44.3208 -14.2685 255 229 0
-67.9955 -45.9831 -27.3006 255 42 0
-54.715 -74.5223 -20.293 255 112 0
-62.4144 -33.4236 -14.542 0 138 255
-65.4442 -32.5656 -21.8185 255 162 0
-52.8466 -83.4253 -13.3222 255 232 0
-61.1243 -71.4026 -15.5921 255 125 0
-66.4607 -32.054 -35.222 167 0 0
-62.5512 -48.0751 -33.133 242 0 0
-67.5676 -58.2211 -18.4249 255 121 0
-68.8822 -44.6733 -20.7088 255 250 0
-69.1763 -31.2843 -28.3179 250 255 5
-62.764 -61.0399 -24.4993 255 21 0
-55.6336 -62.5645 -28.1565 255 11 0
-64.7941 -24.935 -39.3207 251 255 4
-63.725 -32.987 -38.5965 160 0 0
-61.9479 -25.7802 -42.7751 0 230 255
-66.2538 -50.0471 -13.2342 255 216 0
-68.2859 -50.6363 -16.3757 255 250 0
-66.9275 -44.5412 -17.5163 255 186 0
-65.9089 -26.0367 -25.0411 57 255 198
-67.951 -31.7799 -25.0907 255 208 0
-67.9027 -24.9199 -28.465 100 255 155
-68.4173 -24.2605 -31.9155 255 217 0
-53.9472 -79.3469 -16.7328 255 195 0
-50.1523 -85.9987 -16.1047 130 255 125
-50.68 -81.3982 -19.0754 255 138 0
-51.1287 -75.9761 -22.2743 122 255 133
-68.0093 -52.381 -23.0186 255 84 0
-65.5982 -59.6641 -21.7023 255 34 0
-65.8239 -53.6706 -26.2148 253 0 0
-59.1944 -48.6161 -35.0078 37 255 218
-59.4365 -55.507 -30.8798 255 12 0
-62.8661 -38.7677 -14.7318 210 255 45
-64.8699 -38.7369 -18.229 255 179 0
-63.1051 -33.2216 -18.3002 242 255 13
-63.6301 -27.2159 -21.4195 16 255 239
-56.9039 -77.399 -14.2419 255 198 0
-58.1429 -73.0431 -18.1833 255 135 0
-67.4973 -39.1378 -31.2899 234 0 0
-65.5733 -47.1079 -30.4646 215 0 0
-64.8758 -40.1468 -34.5283 178 0 0
-61.8762 -41.0099 -37.2237 173 255 82
-66.5589 -63.4825 -13.7062 0 226 255
-68.241 -57.0114 -15.043 19 255 236
-68.9549 -51.333 -19.6532 255 220 0
-69.2703 -45.1033 -23.9768 255 201 0
-67.514 -38.4003 -21.4919 255 181 0
-69.2381 -38.1672 -24.6694 248 255 7
-69.1846 -38.3904 -27.9311 255 163 0
-68.5394 -31.3785 -31.6958 255 93 0
-67.1859 -24.2987 -35.5591 163 255 92
-63.9852 -49.209 -10.0961 225 255 30
-62.9205 -43.6949 -10.8412 177 255 78
-62.8346 -38.2893 -11.0301 0 220 255
-49.3713 -89.9202 -13.0743 0 115 255
-64.852 -65.0162 -17.0532 255 81 0
-62.2076 -66.5884 -20.0075 255 66 0
-58.9305 -67.9071 -22.3255 255 64 0
-62.864 -54.8164 -28.9052 250 0 0
-59.3564 -62.0099 -26.611 255 20 0
-55.2747 -68.8863 -24.1309 255 42 0
-51.5558 -69.7839 -25.767 150 255 105
-63.3997 -25.3602 -41.1266 249 255 6
-65.3721 -47.159 -13.8122 255 212 0
-66.6126 -47.3781 -15.4015 255 199 0
-65.6508 -44.4673 -15.9093 255 188 0
-67.0325 -25.4452 -26.7653 43 255 212
-67.5925 -21.4704 -30.1408 0 185 255
-54.3634 -77.0364 -18.4807 255 155 0
-52.3388 -80.3515 -17.9002 255 171 0
-52.6458 -77.8982 -19.5521 255 131 0
-50.9053 -78.7921 -20.6359 202 255 53
-52.922 -75.2362 -21.2775 255 90 0
-68.0595 -49.2479 -25.2038 255 65 0
-67.0396 -53.0166 -24.6594 255 29 0
-67.0236 -49.8426 -26.8301 255 9 0
-62.4708 -36.0596 -14.7182 183 255 72
-62.9399 -36.0647 -16.5674 227 255 28
-62.489 -33.3915 -16.4401 43 255 212
-62.8495 -27.7198 -19.5112 0 160 255
-60.3403 -73.5385 -13.4385 72 255 183
-58.2097 -76.4421 -12.8398 51 255 204
-59.035 -74.4299 -14.8841 255 162 0
-57.5883 -75.314 -16.1916 255 171 0
-59.7034 -72.2411 -16.9619 255 132 0
-67.05 -35.6116 -33.2456 200 0 0
-66.2586 -39.6353 -32.947 185 0 0
-65.7621 -36.0897 -34.9403 160 0 0
-62.2651 -33.4148 -40.0534 81 255 174
-62.9003 -37.0317 -38.0094 255 186 0
-68.6142 -47.7283 -18.5819 255 249 0
-68.8273 -50.9492 -17.995 255 255 0
-69.0997 -47.9608 -20.2068 255 251 0
-69.1567 -48.2854 -21.8619 255 211 0
-69.299 -44.8333 -22.3298 255 250 0
-65.148 -35.7119 -20.0746 255 166 0
-66.2171 -38.5832 -19.8833 255 158 0
-66.5126 -35.4261 -21.7271 255 157 0
-68.7864 -31.4715 -26.6948 255 255 0
-68.7334 -34.8967 -24.9211 255 243 0
-69.2778 -34.7584 -26.5186 245 255 10
-69.4459 -38.2091 -26.2839 255 240 0
-69.3434 -34.7567 -28.1478 255 225 0
-68.9426 -34.9069 -29.8182 255 132 0
-69.0831 -31.2497 -29.9821 255 199 0
-67.7195 -20.7608 -33.7685 0 212 255
-67.9962 -24.1898 -33.7105 184 255 71
-64.646 -52.0206 -9.52507 5 255 250
-63.656 -51.3991 -7.98669 0 156 255
-62.9675 -45.9171 -8.83399 0 207 255
-62.9243 -43.2168 -9.05874 0 211 255
-62.7262 -40.9773 -11.002 178 255 77
-63.1547 -40.5389 -9.16084 0 150 255
-52.1527 -85.2475 -11.5864 0 193 255
-51.0329 -86.6002 -13.1084 113 255 142
-48.6595 -87.39 -17.5122 0 224 255
-67.1487 -60.9251 -16.067 255 143 0
-65.8492 -64.2287 -15.4036 198 255 57
-66.3602 -61.654 -17.7559 255 89 0
-64.2681 -60.3858 -23.1807 255 22 0
-64.0117 -63.1877 -20.8945 255 42 0
-62.5452 -63.9045 -22.2536 255 41 0
-60.6339 -67.2933 -21.2474 255 68 0
-60.9273 -64.5311 -23.4401 255 42 0
-64.1134 -47.6351 -31.8825 219 0 0
-64.3192 -51.0195 -29.7888 231 0 0
-62.7551 -51.4978 -31.0411 244 0 0
-57.601 -59.0548 -29.5303 255 10 0
-59.4388 -58.8204 -28.757 255 11 0
-57.5168 -62.3226 -27.4368 255 15 0
-57.3589 -65.4577 -25.3426 255 29 0
-55.483 -65.7967 -26.1317 255 21 0
-53.4057 -69.3203 -24.9524 255 32 0
-53.5973 -66.1155 -26.8696 255 17 0
-62.3793 -70.5501 -14.0788 91 255 164
-65.7158 -28.489 -37.2438 141 0 0
-65.1349 -32.516 -36.9594 140 0 0
-64.3574 -28.9343 -39.0208 128 0 0
-62.9329 -29.3821 -40.6721 255 151 0
-66.9407 -52.9934 -12.5651 22 255 233
-67.8698 -53.3937 -14.1186 10 255 245
-67.3884 -50.3522 -14.7935 255 227 0
-67.7483 -47.5507 -16.9847 255 220 0
-68.0578 -44.5918 -19.1093 255 217 0
-65.7159 -29.33 -23.468 255 168 0
-66.7802 -32.1627 -23.4756 255 166 0
-66.9711 -28.8254 -25.1463 255 181 0
-68.011 -28.3647 -26.7907 255 225 0
-68.6831 -28.0002 -28.4337 249 255 6
-68.8982 -27.7757 -30.1055 255 244 0
-68.387 -24.5115 -30.1725 255 255 0
-67.8753 -21.0289 -31.9362 18 255 237
-53.4462 -81.4684 -15.025 255 223 0
-51.5494 -84.6785 -14.7169 255 223 0
-51.9808 -82.6048 -16.3002 255 205 0
-50.4376 -83.7957 -17.5759 255 173 0
-48.8325 -85.05 -18.8789 77 255 178
-48.9945 -82.503 -20.2828 0 251 255
-67.8477 -55.373 -20.7518 255 101 0
-66.7153 -58.9264 -20.101 255 66 0
-66.9378 -56.0467 -22.4109 255 47 0
-65.7718 -56.7454 -23.9875 255 16 0
-64.4021 -57.4155 -25.4362 255 5 0
-60.9089 -48.4019 -34.1817 255 14 0
-61.0939 -51.858 -32.104 255 7 0
-59.354 -52.0978 -32.9664 255 243 0
-57.6107 -55.6858 -31.6018 159 255 96
-55.7191 -59.2245 -30.1792 161 255 94
-53.7369 -62.793 -28.8058 160 255 95
-63.5491 -41.5244 -14.5799 247 255 8
-64.6308 -41.6128 -16.2876 255 201 0
-63.6861 -38.8106 -16.5129 255 237 0
-63.8879 -35.9394 -18.3565 255 216 0
-64.1493 -32.9344 -20.0963 255 202 0
-62.6219 -30.6047 -18.0414 0 232 255
-63.3478 -30.2627 -19.9179 255 255 0
-64.4397 -29.825 -21.7293 255 196 0
-64.7097 -26.6424 -23.2643 47 255 208
-54.0406 -82.2325 -11.8843 22 255 233
-56.0807 -79.3176 -12.3113 32 255 223
-54.817 -80.375 -13.7085 255 224 0
-55.4769 -78.3668 -15.5287 255 204 0
-56.0222 -76.1812 -17.3774 255 170 0
-56.4689 -73.8 -19.279 255 129 0
-67.8104 -42.6046 -29.3202 255 13 0
-66.8885 -46.539 -28.9223 240 0 0
-66.6335 -43.1276 -30.9518 213 0 0
-65.2783 -43.6641 -32.508 195 0 0
-63.8081 -44.1602 -33.938 210 0 0
-64.363 -36.5808 -36.5515 166 0 0
-63.4066 -40.6189 -35.9746 206 0 0
-62.2589 -44.5724 -35.1902 245 0 0
-60.6421 -44.8773 -36.22 154 255 101
-67.6011 -60.2549 -14.3674 44 255 211
-68.0947 -57.5803 -16.7244 255 186 0
-68.4649 -53.7949 -15.7194 87 255 168
-68.658 -54.2419 -17.3705 255 230 0
-68.4404 -54.7653 -19.0578 255 169 0
-68.6684 -51.8108 -21.337 255 155 0
-68.7936 -48.7177 -23.5359 255 140 0
-68.8158 -45.4919 -25.641 255 122 0
-65.9269 -41.6044 -17.9404 255 169 0
-67.2266 -41.5434 -19.5521 255 180 0
-68.3337 -41.484 -21.1439 255 220 0
-67.7689 -35.1358 -23.3334 255 191 0
-68.5685 -38.2441 -23.0787 255 229 0
-69.0955 -41.4804 -22.7384 255 255 0
-69.4212 -41.5766 -24.353 255 247 0
-69.2862 -41.7983 -25.9946 255 186 0
-68.7246 -42.1479 -27.6569 255 97 0
-68.5056 -38.7083 -29.6063 255 64 0
-68.1447 -35.2017 -31.5248 255 26 0
-67.6294 -31.658 -33.4515 241 0 0
-68.6399 -27.7186 -31.8261 255 163 0
-67.9583 -27.8343 -33.6011 255 51 0
-66.9475 -28.1043 -35.4183 204 0 0
-66.084 -24.5622 -37.443 221 255 34
-65.8069 -52.5474 -11.0423 23 255 232
-65.0533 -49.6757 -11.676 255 237 0
-64.2253 -46.8524 -12.1963 252 255 3
-63.24 -48.6416 -8.47665 0 217 255
-63.3703 -46.4372 -10.5388 196 255 59
-63.457 -44.0674 -12.5802 221 255 34
-62.8709 -41.3133 -12.8148 193 255 62
-62.5599 -38.5915 -12.8969 180 255 75
-62.5729 -35.9158 -12.8332 0 215 255
-49.8001 -88.0312 -14.6187 32 255 223
-64.2399 -67.4466 -14.7385 101 255 154
-63.0875 -68.2703 -16.3256 255 95 0
-65.2967 -62.4216 -19.3821 255 55 0
-63.6239 -65.8163 -18.6021 255 67 0
-61.74 -69.0875 -17.7825 255 95 0
-60.2303 -69.8639 -19.0835 255 99 0
-58.5852 -70.5749 -20.2286 255 98 0
-56.8346 -71.2153 -21.2448 255 88 0
-65.7568 -50.4517 -28.3727 235 0 0
-64.4177 -54.2874 -27.6416 245 0 0
-62.869 -58.0048 -26.7222 255 6 0
-61.1949 -55.2248 -29.9854 255 5 0
-61.2047 -58.4767 -27.8281 255 10 0
-61.1167 -61.5866 -25.6408 255 22 0
-59.187 -65.0468 -24.46 255 37 0
-57.1305 -68.4298 -23.2712 255 54 0
-55.0171 -71.8022 -22.1786 255 73 0
-53.1765 -72.3706 -23.0812 255 57 0
-51.3502 -72.9642 -23.9898 139 255 116
-51.7258 -66.4723 -27.5813 44 255 211
-61.8254 -35.4086 -39.6478 0 0 143
-61.5097 -33.5884 -40.6516 0 0 143
-67.4306 -20.7221 -34.7093 0 0 137
-67.2604 -19.0262 -34.7177 0 0 137
-63.4255 -52.4166 -6.93158 0 0 155
-63.8795 -52.7994 -7.68104 0 0 155
-63.649 -53.8169 -6.62592 0 0 130
-63.2032 -42.9431 -8.15365 0 0 129
-63.0139 -44.2687 -8.07244 0 0 129
-63.3184 -41.6041 -8.2047 0 0 154
-63.0395 -41.8778 -9.10979 0 0 178
-63.2032 -42.9431 -8.15365 0 0 154
-47.8088 -89.2562 -17.5961 0 0 136
-47.8658 -88.1189 -18.2268 0 0 136
-62.906 -70.1303 -13.2653 0 0 136
-61.9286 -71.6041 -12.9719 0 0 136
-61.7054 -27.7811 -42.4422 0 0 186
-62.1979 -29.5821 -41.3907 0 0 186
-62.4404 -27.5811 -41.7236 0 0 227
-61.1983 -25.9642 -43.4732 0 0 145
-61.7054 -27.7811 -42.4422 0 0 145
-67.47 -19.5315 -31.8843 0 0 160
-67.7339 -21.2496 -31.0385 0 0 187
-67.3286 -19.7522 -30.9866 0 0 160
-67.5081 -19.299 -32.835 0 0 133
-67.47 -19.5315 -31.8843 0 0 133
-50.1484 -77.859 -22.0131 0 0 175
-50.0367 -79.267 -21.1939 0 0 175
-51.017 -77.3841 -21.4551 0 0 210
-50.244 -76.3754 -22.7856 0 0 139
-50.1484 -77.859 -22.0131 0 0 139
-56.6732 -55.7473 -31.8882 0 0 142
-57.5789 -53.9643 -32.6173 0 0 142
-55.7274 -57.5166 -31.1769 0 0 179
-56.6649 -57.4551 -30.8905 0 0 216
-56.6732 -55.7473 -31.8882 0 0 179
-54.7665 -59.3073 -30.4558 0 0 142
-55.7274 -57.5166 -31.1769 0 0 142
-62.5609 -29.3655 -17.8043 0 0 128
-62.5052 -30.714 -17.0844 0 0 128
-54.585 -81.6644 -11.1282 0 0 133
-53.6046 -83.101 -10.954 0 0 133
-67.921 -58.6331 -14.7052 0 0 190
-67.6329 -59.9469 -13.5344 0 0 161
-67.9529 -58.3251 -13.8722 0 0 161
-65.5149 -53.714 -9.9455 0 0 132
-66.0821 -54.0102 -10.6847 0 0 132
-63.1011 -48.3176 -7.64276 0 0 128
-63.1293 -49.6682 -7.44128 0 0 128
-49.1245 -90.8045 -12.2557 0 0 134
-49.9059 -89.1596 -12.2551 0 0 134
-48.59 -91.6448 -13.1401 0 0 136
-49.1245 -90.8045 -12.2557 0 0 136
-65.8548 -65.0647 -13.3864 0 0 136
-66.1599 -64.6843 -12.5353 0 0 136
-50.5558 -71.7038 -25.339 0 0 179
-50.4529 -73.294 -24.4504 0 0 179
-51.453 -71.374 -24.8784 0 0 216
-51.7838 -64.7713 -28.4926 0 0 179
-52.7314 -64.6326 -28.1936 0 0 216
-52.7893 -62.9317 -29.1049 0 0 179
-63.5346 -23.3825 -41.2862 0 0 192
-64.0969 -25.1476 -40.2236 0 0 236
-64.2318 -23.1699 -40.3832 0 0 192
-62.8134 -23.5832 -42.1959 0 0 149
-63.5346 -23.3825 -41.2862 0 0 149
-62.0875 -23.7932 -43.0202 0 0 190
-62.6738 -25.5702 -41.9508 0 0 233
-62.8134 -23.5832 -42.1959 0 0 190
-61.3388 -23.9878 -43.8333 0 0 147
-62.0875 -23.7932 -43.0202 0 0 147
-66.5017 -24.0792 -26.6626 0 0 165
-66.4707 -25.7409 -25.9032 0 0 195
-65.9399 -24.3749 -25.8005 0 0 165
-66.9764 -23.7466 -27.5619 0 0 135
-66.5017 -24.0792 -26.6626 0 0 135
-67.4115 -23.484 -28.4118 0 0 162
-67.4676 -25.1826 -27.6151 0 0 191
-66.9764 -23.7466 -27.5619 0 0 162
-67.2564 -21.7592 -29.2497 0 0 162
-67.7476 -23.1952 -29.3029 0 0 191
-67.4115 -23.484 -28.4118 0 0 162
-67.0999 -20.0619 -30.0424 0 0 133
-67.2564 -21.7592 -29.2497 0 0 133
-67.3286 -19.7522 -30.9866 0 0 133
-67.0999 -20.0619 -30.0424 0 0 133
-58.3707 -50.4295 -34.3203 0 0 141
-58.301 -48.6802 -35.3078 0 0 141
-62.7858 -26.5316 -19.1825 0 0 128
-62.6746 -27.9231 -18.5392 0 0 128
-62.9883 -26.2396 -20.1811 0 0 130
-62.7858 -26.5316 -19.1825 0 0 130
-63.3786 -25.9877 -21.1352 0 0 157
-63.2398 -27.4679 -20.4654 0 0 183
-62.9883 -26.2396 -20.1811 0 0 157
-63.7641 -25.6623 -22.1166 0 0 132
-63.3786 -25.9877 -21.1352 0 0 132
-59.275 -74.9903 -13.1391 0 0 199
-58.7928 -75.9737 -12.0764 0 0 167
-59.8581 -74.5218 -12.3758 0 0 167
-62.143 -37.2171 -38.6258 0 0 182
-62.5827 -35.2233 -39.0314 0 0 221
-61.8254 -35.4086 -39.6478 0 0 182
-61.631 -39.2061 -38.2329 0 0 182
-62.3882 -39.0208 -37.6166 0 0 221
-62.143 -37.2171 -38.6258 0 0 182
-61.0796 -41.1541 -37.7225 0 0 142
-61.631 -39.2061 -38.2329 0 0 142
-68.1092 -56.7539 -14.2269 0 0 131
-67.9529 -58.3251 -13.8722 0 0 131
-67.5689 -22.4366 -34.6803 0 0 169
-67.8579 -22.4753 -33.7395 0 0 202
-67.4306 -20.7221 -34.7093 0 0 169
-67.1637 -22.491 -35.6045 0 0 175
-67.591 -24.2443 -34.6348 0 0 210
-67.5689 -22.4366 -34.6803 0 0 175
-66.698 -22.5439 -36.568 0 0 142
-67.1637 -22.491 -35.6045 0 0 142
-64.3746 -53.1102 -8.45023 0 0 132
-64.9344 -53.4506 -9.18686 0 0 132
-64.151 -51.7099 -8.75588 0 0 183
-64.3746 -53.1102 -8.45023 0 0 157
-63.8795 -52.7994 -7.68104 0 0 157
-63.0355 -45.6188 -7.96006 0 0 128
-62.9649 -46.9553 -7.82142 0 0 128
-62.9459 -44.5669 -8.94636 0 0 175
-63.0355 -45.6188 -7.96006 0 0 151
-63.0139 -44.2687 -8.07244 0 0 151
-51.2966 -86.8233 -11.5112 0 0 134
-51.773 -86.1059 -10.6859 0 0 134
-50.7367 -87.4996 -12.2722 0 0 161
-51.2966 -86.8233 -11.5112 0 0 161
-51.5928 -85.9239 -12.3474 0 0 189
-50.2021 -88.2602 -13.0914 0 0 194
-49.9059 -89.1596 -12.2551 0 0 164
-50.7367 -87.4996 -12.2722 0 0 164
-48.5523 -88.4655 -16.8266 0 0 164
-49.2987 -87.7699 -16.1229 0 0 164
-49.4059 -86.6943 -16.8085 0 0 194
-48.5523 -88.4655 -16.8266 0 0 136
-47.8088 -89.2562 -17.5961 0 0 136
-62.4015 -32.1235 -15.3347 0 0 128
-62.5544 -32.1622 -14.3792 0 0 128
-60.9091 -73.0983 -12.6517 0 0 136
-59.8581 -74.5218 -12.3758 0 0 136
-61.3598 -72.0443 -13.7587 0 0 202
-60.9091 -73.0983 -12.6517 0 0 170
-61.9286 -71.6041 -12.9719 0 0 170
-61.864 -31.5985 -41.0814 0 0 186
-62.599 -31.3985 -40.3628 0 0 227
-62.1979 -29.5821 -41.3907 0 0 186
-61.5097 -33.5884 -40.6516 0 0 143
-61.864 -31.5985 -41.0814 0 0 143
-61.1983 -25.9642 -43.4732 0 0 144
-61.3388 -23.9878 -43.8333 0 0 144
-67.4053 -53.1936 -13.3418 0 0 188
-67.5962 -54.6962 -12.9797 0 0 160
-67.1316 -54.496 -12.203 0 0 160
-67.4302 -19.165 -33.7511 0 0 162
-67.7974 -20.8949 -32.8524 0 0 191
-67.5081 -19.299 -32.835 0 0 162
-67.2604 -19.0262 -34.7177 0 0 135
-67.4302 -19.165 -33.7511 0 0 135
-47.9523 -86.9489 -18.9102 0 0 170
-47.8658 -88.1189 -18.2268 0 0 170
-48.746 -86.22 -18.1956 0 0 203
-48.0029 -85.7091 -19.5424 0 0 137
-47.9523 -86.9489 -18.9102 0 0 137
-48.0839 -84.4356 -20.2443 0 0 172
-48.0029 -85.7091 -19.5424 0 0 172
-48.9135 -83.7765 -19.5808 0 0 207
-48.1429 -83.0877 -20.8973 0 0 138
-48.0839 -84.4356 -20.2443 0 0 138
-49.0813 -81.1225 -21.0173 0 0 172
-49.9499 -80.6475 -20.4593 0 0 206
-50.0367 -79.267 -21.1939 0 0 172
-48.1429 -83.0877 -20.8973 0 0 140
-49.0813 -81.1225 -21.0173 0 0 140
-58.4505 -52.1703 -33.2996 0 0 179
-59.2742 -50.357 -33.9871 0 0 216
-58.3707 -50.4295 -34.3203 0 0 179
-58.4824 -53.8918 -32.2841 0 0 215
-58.4505 -52.1703 -33.2996 0 0 178
-57.5789 -53.9643 -32.6173 0 0 178
-53.7753 -61.0915 -29.7691 0 0 179
-54.728 -61.0087 -29.4925 0 0 217
-54.7665 -59.3073 -30.4558 0 0 179
-52.7893 -62.9317 -29.1049 0 0 142
-53.7753 -61.0915 -29.7691 0 0 142
-62.4388 -32.1075 -16.2837 0 0 151
-62.4517 -33.4076 -15.491 0 0 175
-62.4015 -32.1235 -15.3347 0 0 151
-62.5555 -31.9981 -17.2407 0 0 177
-62.4388 -32.1075 -16.2837 0 0 153
-62.5052 -30.714 -17.0844 0 0 153
-62.7357 -29.1623 -18.7763 0 0 178
-62.5609 -29.3655 -17.8043 0 0 153
-62.6746 -27.9231 -18.5392 0 0 153
-64.3039 -25.3756 -23.039 0 0 162
-64.1699 -26.9292 -22.3419 0 0 191
-63.7641 -25.6623 -22.1166 0 0 162
-64.8064 -25.0288 -23.9908 0 0 134
-64.3039 -25.3756 -23.039 0 0 134
-65.406 -24.7259 -24.8792 0 0 165
-65.3093 -26.3395 -24.1527 0 0 195
-64.8064 -25.0288 -23.9908 0 0 165
-65.9399 -24.3749 -25.8005 0 0 135
-65.406 -24.7259 -24.8792 0 0 135
-52.6607 -84.6085 -10.8051 0 0 133
-51.773 -86.1059 -10.6859 0 0 133
-53.0966 -83.74 -11.7353 0 0 192
-52.6607 -84.6085 -10.8051 0 0 163
-53.6046 -83.101 -10.954 0 0 163
-57.718 -77.3694 -11.8245 0 0 134
-58.7928 -75.9737 -12.0764 0 0 134
-56.6535 -78.8071 -11.5603 0 0 165
-57.718 -77.3694 -11.8245 0 0 165
-57.1452 -77.8798 -12.5755 0 0 195
-55.6051 -80.207 -11.3417 0 0 133
-56.6535 -78.8071 -11.5603 0 0 133
-55.0606 -80.775 -12.0978 0 0 193
-54.585 -81.6644 -11.1282 0 0 163
-55.6051 -80.207 -11.3417 0 0 163
-60.4625 -43.0878 -37.2207 0 0 178
-61.2591 -42.9436 -36.7219 0 0 215
-61.0796 -41.1541 -37.7225 0 0 178
-59.7975 -44.9771 -36.6088 0 0 141
-60.4625 -43.0878 -37.2207 0 0 141
-59.0737 -46.8465 -36.0027 0 0 177
-59.9182 -46.7467 -35.6139 0 0 213
-59.7975 -44.9771 -36.6088 0 0 177
-58.301 -48.6802 -35.3078 0 0 141
-59.0737 -46.8465 -36.0027 0 0 141
-66.7393 -63.1333 -12.8602 0 0 134
-66.1599 -64.6843 -12.5353 0 0 134
-67.2604 -61.5195 -13.1908 0 0 132
-67.6329 -59.9469 -13.5344 0 0 132
-67.08 -61.8687 -14.0368 0 0 195
-66.7393 -63.1333 -12.8602 0 0 165
-67.2604 -61.5195 -13.1908 0 0 165
-67.9236 -54.9451 -13.7647 0 0 131
-67.5962 -54.6962 -12.9797 0 0 131
-68.2211 -55.1457 -14.5651 0 0 158
-67.9236 -54.9451 -13.7647 0 0 158
-68.1674 -53.5943 -14.919 0 0 185
-68.353 -55.4032 -15.3812 0 0 187
-68.1092 -56.7539 -14.2269 0 0 159
-68.2211 -55.1457 -14.5651 0 0 159
-66.1471 -22.6756 -37.51 0 0 184
-66.6349 -24.4304 -36.501 0 0 224
-66.698 -22.5439 -36.568 0 0 184
-65.5525 -22.8042 -38.4841 0 0 146
-66.1471 -22.6756 -37.51 0 0 146
-64.9076 -22.9906 -39.4229 0 0 190
-65.4391 -24.7486 -38.3818 0 0 233
-65.5525 -22.8042 -38.4841 0 0 190
-64.2318 -23.1699 -40.3832 0 0 149
-64.9076 -22.9906 -39.4229 0 0 149
-66.649 -54.2332 -11.4461 0 0 132
-67.1316 -54.496 -12.203 0 0 132
-66.3738 -52.7704 -11.8037 0 0 190
-66.649 -54.2332 -11.4461 0 0 161
-66.0821 -54.0102 -10.6847 0 0 161
-65.2265 -52.284 -10.2837 0 0 189
-65.5149 -53.714 -9.9455 0 0 160
-64.9344 -53.4506 -9.18686 0 0 160
-63.3373 -51.0469 -7.1963 0 0 128
-63.4255 -52.4166 -6.93158 0 0 128
-63.448 -50.0204 -8.23167 0 0 177
-63.3373 -51.0469 -7.1963 0 0 153
-63.1293 -49.6682 -7.44128 0 0 153
-63.1038 -47.2793 -8.65532 0 0 174
-63.1011 -48.3176 -7.64276 0 0 151
-62.9649 -46.9553 -7.82142 0 0 151
-63.623 -40.2902 -8.23764 0 0 131
-63.3184 -41.6041 -8.2047 0 0 131
-63.4043 -39.215 -9.15947 0 0 131
-63.623 -40.2902 -8.23764 0 0 131
-63.2442 -38.0902 -10.0941 0 0 157
-62.9947 -39.4141 -10.0954 0 0 183
-63.4043 -39.215 -9.15947 0 0 157
-63.0379 -36.9684 -10.9864 0 0 130
-63.2442 -38.0902 -10.0941 0 0 130
-62.9071 -35.7816 -11.888 0 0 155
-62.7038 -37.1025 -11.9317 0 0 181
-63.0379 -36.9684 -10.9864 0 0 155
-62.7393 -34.6149 -12.7368 0 0 129
-62.9071 -35.7816 -11.888 0 0 129
-62.6601 -33.3688 -13.5912 0 0 154
-62.4937 -34.6697 -13.6876 0 0 178
-62.7393 -34.6149 -12.7368 0 0 154
-62.5544 -32.1622 -14.3792 0 0 128
-62.6601 -33.3688 -13.5912 0 0 128
-49.1226 -88.7861 -15.3799 0 0 165
-49.9762 -87.0149 -15.3617 0 0 196
-49.2987 -87.7699 -16.1229 0 0 165
-48.9821 -89.779 -14.6689 0 0 134
-49.1226 -88.7861 -15.3799 0 0 134
-48.7677 -90.7235 -13.8967 0 0 166
-49.5857 -88.9757 -13.8465 0 0 196
-48.9821 -89.779 -14.6689 0 0 166
-48.59 -91.6448 -13.1401 0 0 134
-48.7677 -90.7235 -13.8967 0 0 134
-65.5 -65.4378 -14.2351 0 0 168
-65.8548 -65.0647 -13.3864 0 0 168
-66.204 -63.8556 -14.5549 0 0 200
-64.6954 -67.0467 -13.9026 0 0 171
-65.5 -65.4378 -14.2351 0 0 171
-65.0446 -65.8376 -15.0711 0 0 205
-63.8363 -68.5786 -13.5951 0 0 137
-64.6954 -67.0467 -13.9026 0 0 137
-63.3096 -68.9983 -14.4087 0 0 205
-62.906 -70.1303 -13.2653 0 0 171
-63.8363 -68.5786 -13.5951 0 0 171
-50.3547 -74.8694 -23.6434 0 0 177
-50.244 -76.3754 -22.7856 0 0 177
-51.2394 -74.4702 -23.1321 0 0 214
-50.3547 -74.8694 -23.6434 0 0 140
-50.4529 -73.294 -24.4504 0 0 140
-50.7979 -66.6958 -27.9217 0 0 142
-51.7838 -64.7713 -28.4926 0 0 142
-50.7301 -68.3984 -27.0781 0 0 141
-50.7979 -66.6958 -27.9217 0 0 141
-50.6451 -70.0542 -26.1709 0 0 179
-51.6408 -68.1281 -26.6742 0 0 217
-50.7301 -68.3984 -27.0781 0 0 179
-50.5558 -71.7038 -25.339 0 0 141
-50.6451 -70.0542 -26.1709 0 0 141
3 0 66 64
3 2 71 69
3 2 73 71
3 1 76 74
3 3 79 77
3 6 83 81
3 6 85 83
3 7 88 86
3 249 248 89
3 10 93 91
3 10 95 93
3 4 98 96
3 11 101 99
3 11 103 101
3 11 105 103
3 251 250 106
3 252 109 253
3 252 253 254
3 255 111 256
3 257 113 258
3 259 258 111
3 257 258 259
3 5 115 114
3 261 260 116
3 9 119 117
3 12 122 120
3 12 124 122
3 8 127 125
3 13 130 128
3 13 132 130
3 13 134 132
3 262 135 263
3 14 138 136
3 16 139 63
3 16 264 266
3 266 265 139
3 264 265 266
3 16 267 268
3 17 142 140
3 19 143 65
3 19 144 143
3 20 147 145
3 22 148 67
3 22 149 148
3 22 151 149
3 269 152 270
3 271 270 68
3 269 270 271
3 273 272 152
3 24 155 153
3 26 156 70
3 26 157 156
3 26 158 157
3 27 274 276
3 276 275 72
3 274 275 276
3 27 277 278
3 28 161 159
3 30 162 75
3 30 163 162
3 31 166 164
3 279 167 280
3 281 168 282
3 283 282 167
3 281 282 283
3 285 284 168
3 33 172 170
3 35 173 78
3 35 174 173
3 286 175 287
3 36 176 80
3 36 177 176
3 36 178 177
3 288 179 289
3 37 180 82
3 37 181 180
3 37 182 181
3 38 183 84
3 38 184 183
3 39 187 185
3 41 188 87
3 41 189 188
3 15 190 137
3 42 191 90
3 42 192 191
3 42 193 192
3 44 290 292
3 290 194 291
3 290 291 292
3 44 195 194
3 18 196 141
3 45 197 92
3 45 198 197
3 45 199 198
3 46 200 94
3 46 201 200
3 34 202 171
3 47 203 97
3 47 204 203
3 21 205 146
3 48 206 100
3 48 207 206
3 48 208 207
3 49 209 102
3 49 210 209
3 49 211 210
3 50 212 104
3 50 213 212
3 23 214 150
3 51 215 107
3 51 216 215
3 51 217 216
3 293 218 294
3 52 219 108
3 52 220 219
3 295 221 296
3 53 222 110
3 53 223 222
3 53 224 223
3 54 225 112
3 54 226 225
3 55 297 298
3 55 299 300
3 25 227 154
3 43 301 302
3 56 228 118
3 56 229 228
3 29 230 160
3 57 231 121
3 57 232 231
3 57 233 232
3 58 234 123
3 58 235 234
3 40 236 186
3 59 237 126
3 59 238 237
3 32 239 165
3 60 240 129
3 60 241 240
3 60 242 241
3 61 243 131
3 61 244 243
3 61 245 244
3 62 246 133
3 62 303 305
3 305 304 246
3 303 304 305
3 306 247 307
3 308 307 169
3 306 307 308
3 309 63 310
3 311 310 14
3 309 310 311
3 312 63 313
3 314 16 315
3 316 315 63
3 314 315 316
3 318 317 16
3 64 65 17
3 66 65 64
3 66 19 65
3 319 67 320
3 321 320 20
3 319 320 321
3 322 67 323
3 324 22 325
3 326 325 67
3 324 325 326
3 327 68 328
3 329 328 22
3 327 328 329
3 330 68 331
3 333 332 68
3 69 70 24
3 71 70 69
3 71 26 70
3 71 72 26
3 73 72 71
3 73 27 72
3 74 75 28
3 76 75 74
3 76 30 75
3 335 334 31
3 77 78 33
3 79 78 77
3 79 35 78
3 336 80 337
3 338 80 339
3 340 36 341
3 342 341 80
3 340 341 342
3 344 343 36
3 81 345 347
3 345 82 346
3 345 346 347
3 83 82 81
3 83 37 82
3 83 84 37
3 85 84 83
3 85 38 84
3 86 87 39
3 88 87 86
3 88 41 87
3 89 90 15
3 348 90 349
3 350 349 89
3 348 349 350
3 351 42 352
3 353 352 90
3 351 352 353
3 355 354 42
3 356 44 357
3 91 92 18
3 93 92 91
3 93 45 92
3 93 94 45
3 95 94 93
3 95 46 94
3 96 97 34
3 98 97 96
3 98 47 97
3 99 100 21
3 101 100 99
3 101 48 100
3 101 102 48
3 103 102 101
3 103 49 102
3 103 104 49
3 105 104 103
3 105 50 104
3 106 107 23
3 358 107 359
3 360 359 106
3 358 359 360
3 361 51 362
3 363 362 107
3 361 362 363
3 365 364 51
3 366 108 367
3 109 368 370
3 368 108 369
3 368 369 370
3 109 52 108
3 371 110 372
3 111 373 375
3 373 110 374
3 373 374 375
3 111 53 110
3 111 112 53
3 113 112 111
3 113 54 112
3 114 376 377
3 115 378 380
3 380 379 114
3 378 379 380
3 115 381 383
3 381 55 382
3 381 382 383
3 116 384 386
3 386 385 25
3 384 385 386
3 388 387 116
3 117 118 43
3 119 118 117
3 119 56 118
3 120 121 29
3 122 121 120
3 122 57 121
3 122 123 57
3 124 123 122
3 124 58 123
3 125 126 40
3 127 126 125
3 127 59 126
3 128 129 32
3 130 129 128
3 130 60 129
3 130 131 60
3 132 131 130
3 132 61 131
3 132 133 61
3 134 133 132
3 134 62 133
3 390 389 3
3 391 81 392
3 135 393 395
3 393 81 394
3 393 394 395
3 135 6 81
3 136 137 7
3 138 137 136
3 138 15 137
3 63 138 14
3 139 138 63
3 139 15 138
3 139 89 15
3 396 89 397
3 398 397 139
3 396 397 398
3 400 399 89
3 402 401 16
3 140 403 405
3 403 141 404
3 403 404 405
3 142 141 140
3 142 18 141
3 65 142 17
3 143 142 65
3 143 18 142
3 143 91 18
3 144 91 143
3 144 10 91
3 145 146 4
3 147 146 145
3 147 21 146
3 67 147 20
3 148 147 67
3 148 21 147
3 148 99 21
3 149 99 148
3 149 11 99
3 149 150 11
3 151 150 149
3 151 23 150
3 68 151 22
3 152 151 68
3 152 23 151
3 152 106 23
3 406 106 407
3 408 407 152
3 406 407 408
3 410 409 106
3 153 154 5
3 155 154 153
3 155 25 154
3 70 155 24
3 156 155 70
3 156 25 155
3 156 116 25
3 157 116 156
3 157 411 413
3 413 412 116
3 411 412 413
3 157 414 415
3 158 416 418
3 418 417 157
3 416 417 418
3 158 419 420
3 72 158 26
3 421 158 422
3 423 422 72
3 421 422 423
3 425 424 158
3 159 160 9
3 161 160 159
3 161 29 160
3 75 161 28
3 162 161 75
3 162 29 161
3 162 120 29
3 163 120 162
3 163 12 120
3 164 165 8
3 166 165 164
3 166 32 165
3 426 166 427
3 428 427 31
3 426 427 428
3 167 429 431
3 429 166 430
3 429 430 431
3 167 32 166
3 167 128 32
3 168 128 167
3 168 13 128
3 168 169 13
3 432 169 433
3 434 433 168
3 432 433 434
3 436 435 169
3 170 171 0
3 172 171 170
3 172 34 171
3 78 172 33
3 173 172 78
3 173 34 172
3 173 96 34
3 174 96 173
3 174 4 96
3 437 79 438
3 439 438 3
3 437 438 439
3 175 440 442
3 440 79 441
3 440 441 442
3 175 35 79
3 80 443 445
3 443 175 444
3 443 444 445
3 176 175 80
3 176 35 175
3 176 174 35
3 177 174 176
3 177 4 174
3 177 145 4
3 178 145 177
3 178 20 145
3 446 178 447
3 448 447 36
3 446 447 448
3 449 178 450
3 451 20 452
3 453 452 178
3 451 452 453
3 455 454 20
3 456 114 457
3 179 458 460
3 458 114 459
3 458 459 460
3 179 5 114
3 82 461 462
3 180 463 465
3 465 464 82
3 463 464 465
3 180 466 467
3 180 468 470
3 468 179 469
3 468 469 470
3 181 179 180
3 181 5 179
3 181 153 5
3 182 153 181
3 182 24 153
3 84 182 37
3 183 182 84
3 183 24 182
3 183 69 24
3 184 69 183
3 184 2 69
3 185 186 1
3 187 186 185
3 187 40 186
3 87 187 39
3 188 187 87
3 188 40 187
3 188 125 40
3 189 125 188
3 189 8 125
3 137 88 7
3 190 88 137
3 190 41 88
3 90 190 15
3 191 190 90
3 191 41 190
3 191 189 41
3 192 189 191
3 192 8 189
3 192 164 8
3 193 164 192
3 193 31 164
3 471 193 472
3 473 472 42
3 471 472 473
3 474 193 475
3 476 31 477
3 478 477 193
3 476 477 478
3 480 479 31
3 481 43 482
3 194 483 484
3 194 485 487
3 485 43 486
3 485 486 487
3 194 117 43
3 195 117 194
3 195 9 117
3 141 488 489
3 196 490 492
3 492 491 141
3 490 491 492
3 196 493 495
3 493 44 494
3 493 494 495
3 92 196 18
3 197 196 92
3 197 44 196
3 197 195 44
3 198 195 197
3 198 9 195
3 198 159 9
3 199 159 198
3 199 28 159
3 94 199 45
3 200 199 94
3 200 28 199
3 200 74 28
3 201 74 200
3 201 1 74
3 171 66 0
3 202 66 171
3 202 19 66
3 97 202 34
3 203 202 97
3 203 19 202
3 203 144 19
3 204 144 203
3 204 10 144
3 146 98 4
3 205 98 146
3 205 47 98
3 100 205 21
3 206 205 100
3 206 47 205
3 206 204 47
3 207 204 206
3 207 10 204
3 207 95 10
3 208 95 207
3 208 46 95
3 102 208 48
3 209 208 102
3 209 46 208
3 209 201 46
3 210 201 209
3 210 1 201
3 210 185 1
3 211 185 210
3 211 39 185
3 104 211 49
3 212 211 104
3 212 39 211
3 212 86 39
3 213 86 212
3 213 7 86
3 150 105 11
3 214 105 150
3 214 50 105
3 107 214 23
3 215 214 107
3 215 50 214
3 215 213 50
3 216 213 215
3 216 7 213
3 216 136 7
3 217 136 216
3 217 14 136
3 496 217 497
3 498 497 51
3 496 497 498
3 499 217 500
3 501 14 502
3 503 502 217
3 501 502 503
3 505 504 14
3 506 140 507
3 218 508 510
3 508 140 509
3 508 509 510
3 218 17 140
3 108 511 513
3 511 218 512
3 511 512 513
3 219 218 108
3 219 17 218
3 219 64 17
3 220 64 219
3 220 0 64
3 514 109 515
3 221 516 518
3 516 109 517
3 516 517 518
3 221 52 109
3 110 519 521
3 519 221 520
3 519 520 521
3 222 221 110
3 222 52 221
3 222 220 52
3 223 220 222
3 223 0 220
3 223 170 0
3 224 170 223
3 224 33 170
3 112 224 53
3 225 224 112
3 225 33 224
3 225 77 33
3 226 77 225
3 226 3 77
3 522 113 523
3 524 113 525
3 526 54 527
3 528 527 113
3 526 527 528
3 529 54 530
3 531 226 532
3 533 532 54
3 531 532 533
3 534 226 535
3 536 3 537
3 538 537 226
3 536 537 538
3 540 539 3
3 154 115 5
3 227 115 154
3 227 55 115
3 541 227 542
3 543 542 25
3 541 542 543
3 544 227 545
3 546 55 547
3 548 547 227
3 546 547 548
3 550 549 55
3 118 551 553
3 553 552 43
3 551 552 553
3 228 554 556
3 556 555 118
3 554 555 556
3 228 557 558
3 228 559 561
3 559 135 560
3 559 560 561
3 229 135 228
3 229 6 135
3 160 119 9
3 230 119 160
3 230 56 119
3 121 230 29
3 231 230 121
3 231 56 230
3 231 229 56
3 232 229 231
3 232 6 229
3 232 85 6
3 233 85 232
3 233 38 85
3 123 233 57
3 234 233 123
3 234 38 233
3 234 184 38
3 235 184 234
3 235 2 184
3 186 76 1
3 236 76 186
3 236 30 76
3 126 236 40
3 237 236 126
3 237 30 236
3 237 163 30
3 238 163 237
3 238 12 163
3 165 127 8
3 239 127 165
3 239 59 127
3 129 239 32
3 240 239 129
3 240 59 239
3 240 238 59
3 241 238 240
3 241 12 238
3 241 124 12
3 242 124 241
3 242 58 124
3 131 242 60
3 243 242 131
3 243 58 242
3 243 235 58
3 244 235 243
3 244 2 235
3 244 73 2
3 245 73 244
3 245 27 73
3 133 245 61
3 246 245 133
3 246 27 245
3 246 562 564
3 564 563 27
3 562 563 564
3 566 565 246
3 169 134 13
3 247 134 169
3 247 62 134
3 567 247 568
3 569 247 570
3 571 62 572
3 573 572 247
3 571 572 573
3 575 574 62
