ply
format ascii 1.0
element vertex 260
property float x
property float y
property float z
property uchar red
property uchar green
property uchar blue
element face 265
property list uchar int vertex_index
end_header
-0.439602 34.47 33.3962 255 72 0
-2.92025 40.4871 22.2504 255 138 0
1.48554 47.9253 27.0657 234 255 21
-1.68171 19.4745 40.3144 255 28 0
1.41721 37.9928 35.1599 255 248 0
0.487524 41.3647 29.9685 255 101 0
2.06929 44.0581 32.5719 0 195 255
0.758041 31.295 38.5225 255 135 0
-1.44157 47.5855 18.3194 129 0 0
-3.16461 22.5485 35.3859 223 0 0
-2.58001 30.2542 31.7709 223 0 0
-3.98407 32.9969 26.2956 240 255 15
-1.68874 37.6634 27.9633 231 0 0
-0.492823 44.7218 24.3004 232 0 0
0.870848 51.4177 21.0608 217 0 0
0.208733 23.9702 41.9526 255 77 0
-1.17025 27.1508 36.9937 255 38 0
2.06606 39.4797 36.0679 0 133 255
1.75444 41.0693 33.7381 88 255 167
1.81056 36.5433 37.5615 0 255 255
-0.588524 50.9633 16.4845 243 255 12
-1.88933 48.7464 15.2426 255 236 0
-3.90135 23.9488 32.8131 208 255 47
-4.09448 19.9915 34.5306 205 255 50
-1.50377 32.4556 32.5709 255 16 0
-2.17464 33.9996 29.8696 227 0 0
-1.06429 36.091 30.7186 255 26 0
0.990978 44.6748 28.4396 255 94 0
-0.003511 43.0824 27.1825 255 35 0
0.585905 46.4485 25.5748 255 28 0
0.183834 48.113 22.6141 227 0 0
1.17629 49.7423 24.1075 255 11 0
0.835051 22.4411 44.351 117 255 138
1.04247 26.1928 42.7267 106 255 149
0.174631 32.8542 35.994 255 111 0
-0.169611 29.2604 37.7653 255 81 0
-0.832447 30.8613 35.2027 255 53 0
-1.87593 28.731 34.4158 255 7 0
-3.50593 36.7839 24.2765 241 255 14
-0.927258 17.868 42.6598 141 255 114
-1.85669 15.5319 41.755 41 255 214
0.557539 36.3139 34.2593 255 147 0
0.004059 37.9694 31.6335 255 91 0
0.967831 39.6368 32.6344 255 174 0
1.38718 42.8513 31.1763 255 176 0
1.789 46.0093 29.9039 78 255 177
1.28069 29.8279 41.0064 85 255 170
1.54156 33.2997 39.2543 50 255 205
1.07961 34.7387 36.7891 255 187 0
-2.228 44.0916 20.2529 128 0 0
-3.51646 41.6719 19.3056 139 255 116
-2.75561 45.2707 17.2433 255 100 0
-3.25176 46.2487 14.1814 23 255 232
-2.42734 21.0469 37.8885 255 1 0
-2.61372 17.1024 39.4298 163 255 92
-3.35529 18.5994 37.0191 255 206 0
-4.21918 15.9769 36.0992 0 218 255
-3.63324 27.8483 30.9786 255 175 0
-4.36044 29.1402 28.273 112 255 143
-3.28272 31.6858 29.0627 177 0 0
-2.84267 35.4535 27.103 178 0 0
-2.30854 39.141 25.138 179 0 0
-0.560564 39.6326 28.9081 255 34 0
-1.12449 41.2387 26.0942 233 0 0
-1.6818 42.7376 23.2055 179 0 0
-0.973789 46.2345 21.3416 179 0 0
-0.209023 49.628 19.5791 177 0 0
0.573729 52.9213 17.9468 216 255 39
0.664228 18.6059 45.8303 0 167 255
-0.007187 20.154 43.5205 232 255 23
-0.722567 21.7477 41.1518 255 51 0
0.465273 27.6937 40.2678 255 99 0
-0.46944 25.5513 39.5042 255 62 0
-1.45293 23.3509 38.7138 255 30 0
-2.18254 24.9254 36.2037 255 2 0
-2.90811 26.4349 33.6237 221 0 0
1.93593 51.1375 25.8523 41 255 214
1.72818 52.9767 22.7944 176 255 79
1.52362 54.6467 19.6598 79 255 176
2.18252 40.8295 35.5222 0 0 128
2.25008 40.0553 36.4637 0 0 128
2.25008 40.0553 36.4637 0 0 128
2.18736 38.8987 37.1477 0 0 128
-0.769027 51.5288 14.9123 0 0 155
-0.150665 52.5963 15.6321 0 0 155
-4.3717 22.6022 32.3919 0 0 153
-4.27245 24.5866 31.4942 0 0 153
1.37517 27.3294 43.102 0 0 144
1.28476 25.4854 43.9451 0 0 144
-3.53887 39.2253 21.8218 0 0 199
-3.83171 37.3738 22.8348 0 0 199
-3.21309 38.6355 23.2635 0 0 243
1.8296 34.3165 39.5885 0 0 140
1.72531 32.6537 40.4811 0 0 140
-2.77902 47.9706 13.1497 0 0 204
-2.57054 47.4976 14.712 0 0 250
-2.09781 49.2195 13.6803 0 0 204
-3.00233 48.3466 11.5951 0 0 159
-3.47506 46.6247 12.6268 0 0 207
-2.77902 47.9706 13.1497 0 0 207
-4.59138 16.6057 34.8642 0 0 193
-4.15683 17.9842 35.3149 0 0 233
-4.52903 18.613 34.0798 0 0 193
-4.61697 14.5673 35.6117 0 0 153
-4.59138 16.6057 34.8642 0 0 153
1.0189 19.7979 46.2736 0 0 145
0.959058 17.8697 46.9644 0 0 145
-4.53422 31.6436 25.9021 0 0 199
-4.72241 29.7152 26.8908 0 0 199
-4.17226 31.0685 27.2843 0 0 243
-4.14945 40.3201 18.8797 0 0 158
-3.79975 42.1707 17.8058 0 0 158
-2.67847 15.0994 40.1123 0 0 148
-3.04924 15.8459 38.9601 0 0 148
2.12078 52.7316 25.3259 0 0 148
2.17325 51.7242 26.861 0 0 148
2.0169 53.6513 23.797 0 0 187
1.83206 52.0571 24.3233 0 0 225
2.12078 52.7316 25.3259 0 0 187
1.80852 56.2317 19.0414 0 0 151
1.86143 55.4064 20.6515 0 0 151
1.70869 56.9717 17.4452 0 0 152
1.42379 55.3867 18.0636 0 0 193
1.80852 56.2317 19.0414 0 0 193
2.02671 41.6243 34.3573 0 0 156
1.91025 40.2745 34.903 0 0 179
2.18252 40.8295 35.5222 0 0 156
2.18413 43.1187 33.7742 0 0 160
1.91186 42.5637 33.155 0 0 185
2.02671 41.6243 34.3573 0 0 160
2.05961 37.4305 37.8945 0 0 136
1.9641 35.9383 38.7421 0 0 136
1.93831 38.0115 36.8147 0 0 179
2.05961 37.4305 37.8945 0 0 156
2.18736 38.8987 37.1477 0 0 156
-1.41943 50.4203 14.2914 0 0 200
-1.23893 49.8549 15.8635 0 0 244
-0.769027 51.5288 14.9123 0 0 200
-2.09781 49.2195 13.6803 0 0 157
-1.41943 50.4203 14.2914 0 0 157
-4.46826 20.6236 33.2506 0 0 193
-3.99791 21.9702 33.6719 0 0 235
-4.3717 22.6022 32.3919 0 0 193
-4.52903 18.613 34.0798 0 0 153
-4.46826 20.6236 33.2506 0 0 153
1.18104 23.6096 44.7572 0 0 145
1.10431 21.7155 45.5339 0 0 145
0.938762 24.3169 43.5389 0 0 214
1.18104 23.6096 44.7572 0 0 179
1.28476 25.4854 43.9451 0 0 179
-4.09186 35.4738 23.874 0 0 199
-4.33093 33.5803 24.8835 0 0 199
-3.745 34.8904 25.286 0 0 243
-4.09186 35.4738 23.874 0 0 156
-3.83171 37.3738 22.8348 0 0 156
-1.00355 15.8972 43.3248 0 0 147
-0.552504 17.0678 43.7933 0 0 147
-1.46826 14.7292 42.8724 0 0 182
-1.00355 15.8972 43.3248 0 0 182
-1.39198 16.7 42.2074 0 0 218
-1.91612 13.5315 42.3796 0 0 148
-1.46826 14.7292 42.8724 0 0 148
1.59487 30.9178 41.3571 0 0 143
1.49428 29.147 42.2418 0 0 143
1.41112 31.5638 40.1303 0 0 204
1.59487 30.9178 41.3571 0 0 173
1.72531 32.6537 40.4811 0 0 173
1.67606 34.9215 38.4079 0 0 194
1.8296 34.3165 39.5885 0 0 166
1.9641 35.9383 38.7421 0 0 166
-3.41933 43.9701 16.7747 0 0 203
-3.79975 42.1707 17.8058 0 0 203
-3.13603 43.4713 18.2744 0 0 249
-3.6674 44.4591 15.2438 0 0 204
-3.41933 43.9701 16.7747 0 0 204
-3.00368 45.7597 15.7124 0 0 251
-3.92558 44.8517 13.7178 0 0 159
-3.6674 44.4591 15.2438 0 0 159
-3.92558 44.8517 13.7178 0 0 160
-3.47506 46.6247 12.6268 0 0 160
-3.42003 16.5944 37.7547 0 0 188
-3.04924 15.8459 38.9601 0 0 188
-2.9845 17.8509 38.2245 0 0 227
-3.85198 15.2831 37.2948 0 0 189
-3.42003 16.5944 37.7547 0 0 189
-3.78724 17.2881 36.5592 0 0 228
-4.25003 13.9398 36.7959 0 0 151
-3.85198 15.2831 37.2948 0 0 151
-4.64782 12.5302 36.3084 0 0 151
-4.25003 13.9398 36.7959 0 0 191
-4.61697 14.5673 35.6117 0 0 191
-3.99684 28.4942 29.6258 0 0 238
-4.50199 27.1823 29.2242 0 0 196
-4.13839 26.5363 30.577 0 0 196
0.430462 53.5753 16.3632 0 0 196
-0.150665 52.5963 15.6321 0 0 196
-0.007398 51.9423 17.2156 0 0 238
0.600808 16.6587 46.4782 0 0 181
0.895637 15.9225 47.6123 0 0 146
0.959058 17.8697 46.9644 0 0 181
0.243239 17.4367 45.3786 0 0 145
0.600808 16.6587 46.4782 0 0 145
0.74964 20.5235 45.0907 0 0 215
1.0189 19.7979 46.2736 0 0 181
1.10431 21.7155 45.5339 0 0 181
-0.092468 18.2107 44.2237 0 0 182
0.243239 17.4367 45.3786 0 0 182
0.32852 19.3799 44.6754 0 0 217
-0.467223 19.011 43.0902 0 0 216
-0.552504 17.0678 43.7933 0 0 181
-0.092468 18.2107 44.2237 0 0 181
1.16158 28.0104 41.8666 0 0 210
1.37517 27.3294 43.102 0 0 177
1.49428 29.147 42.2418 0 0 177
-4.13839 26.5363 30.577 0 0 194
-4.27245 24.5866 31.4942 0 0 194
-3.76729 25.8985 31.8959 0 0 236
-4.87393 27.749 27.8739 0 0 155
-4.50199 27.1823 29.2242 0 0 155
-4.87393 27.749 27.8739 0 0 155
-4.72241 29.7152 26.8908 0 0 155
-4.53422 31.6436 25.9021 0 0 156
-4.33093 33.5803 24.8835 0 0 156
-3.83697 39.8178 20.3493 0 0 200
-3.53887 39.2253 21.8218 0 0 200
-3.21835 41.0795 20.778 0 0 245
-3.83697 39.8178 20.3493 0 0 157
-4.14945 40.3201 18.8797 0 0 157
-2.29996 14.3141 41.2749 0 0 186
-2.23521 16.3171 40.5924 0 0 224
-2.67847 15.0994 40.1123 0 0 186
-1.91612 13.5315 42.3796 0 0 147
-2.29996 14.3141 41.2749 0 0 147
2.27752 44.4871 33.401 0 0 136
2.18413 43.1187 33.7742 0 0 136
2.19996 45.5624 32.0953 0 0 139
2.27752 44.4871 33.401 0 0 139
2.05982 46.5381 30.7614 0 0 171
1.92914 45.0337 31.2379 0 0 201
2.19996 45.5624 32.0953 0 0 171
1.9649 47.5824 29.3553 0 0 143
2.05982 46.5381 30.7614 0 0 143
1.81317 48.5404 27.9362 0 0 178
1.63727 46.9673 28.4848 0 0 212
1.9649 47.5824 29.3553 0 0 178
2.03837 50.1465 27.3295 0 0 147
2.17325 51.7242 26.861 0 0 147
1.71074 49.5314 26.459 0 0 216
1.81317 48.5404 27.9362 0 0 181
2.03837 50.1465 27.3295 0 0 181
1.96371 54.5714 22.2188 0 0 150
2.0169 53.6513 23.797 0 0 150
1.6259 53.8117 21.2271 0 0 229
1.96371 54.5714 22.2188 0 0 190
1.86143 55.4064 20.6515 0 0 190
0.948848 54.524 17.207 0 0 192
1.04868 53.784 18.8033 0 0 233
1.42379 55.3867 18.0636 0 0 192
0.430462 53.5753 16.3632 0 0 153
0.948848 54.524 17.207 0 0 153
3 80 79 17
3 81 17 82
3 84 83 20
3 86 85 22
3 0 26 24
3 2 29 27
3 2 31 29
3 87 33 88
3 0 36 34
3 0 24 36
3 1 89 91
3 91 90 38
3 89 90 91
3 3 40 39
3 4 43 41
3 6 44 18
3 6 45 44
3 92 47 93
3 4 48 19
3 4 41 48
3 8 51 49
3 94 52 95
3 96 95 21
3 94 95 96
3 99 98 52
3 97 98 99
3 9 55 53
3 100 56 101
3 102 101 23
3 100 101 102
3 104 103 56
3 10 59 57
3 12 60 25
3 12 61 60
3 5 62 42
3 13 63 28
3 13 64 63
3 13 65 64
3 14 66 30
3 14 67 66
3 105 68 106
3 15 69 32
3 15 70 69
3 7 71 46
3 16 72 35
3 16 73 72
3 16 74 73
3 10 75 37
3 10 57 75
3 11 107 109
3 109 108 58
3 107 108 109
3 111 110 50
3 113 112 54
3 114 76 115
3 116 77 117
3 118 117 76
3 116 117 118
3 119 78 120
3 123 122 78
3 121 122 123
3 17 18 4
3 124 18 125
3 126 125 17
3 124 125 126
3 127 6 128
3 129 128 18
3 127 128 129
3 130 19 131
3 17 132 134
3 132 19 133
3 132 133 134
3 17 4 19
3 20 21 8
3 135 21 136
3 137 136 20
3 135 136 137
3 139 138 21
3 22 23 9
3 140 23 141
3 142 141 22
3 140 141 142
3 144 143 23
3 24 25 10
3 26 25 24
3 26 12 25
3 27 28 5
3 29 28 27
3 29 13 28
3 29 30 13
3 31 30 29
3 31 14 30
3 145 32 146
3 33 147 149
3 147 32 148
3 147 148 149
3 33 15 32
3 34 35 7
3 36 35 34
3 36 16 35
3 36 37 16
3 24 37 36
3 24 10 37
3 38 150 152
3 152 151 11
3 150 151 152
3 154 153 38
3 39 155 156
3 40 157 159
3 159 158 39
3 157 158 159
3 40 160 161
3 41 42 0
3 43 42 41
3 43 5 42
3 18 43 4
3 44 43 18
3 44 5 43
3 44 27 5
3 45 27 44
3 45 2 27
3 162 46 163
3 47 164 166
3 164 46 165
3 164 165 166
3 47 7 46
3 19 167 169
3 167 47 168
3 167 168 169
3 48 47 19
3 48 7 47
3 48 34 7
3 41 34 48
3 41 0 34
3 49 50 1
3 51 50 49
3 51 170 172
3 172 171 50
3 170 171 172
3 21 51 8
3 52 51 21
3 52 173 175
3 175 174 51
3 173 174 175
3 52 176 177
3 179 178 52
3 53 54 3
3 55 54 53
3 55 180 182
3 182 181 54
3 180 181 182
3 23 55 9
3 56 55 23
3 56 183 185
3 185 184 55
3 183 184 185
3 56 186 187
3 190 189 56
3 188 189 190
3 57 191 193
3 191 58 192
3 191 192 193
3 59 58 57
3 59 11 58
3 25 59 10
3 60 59 25
3 60 11 59
3 60 38 11
3 61 38 60
3 61 1 38
3 42 26 0
3 62 26 42
3 62 12 26
3 28 62 5
3 63 62 28
3 63 12 62
3 63 61 12
3 64 61 63
3 64 1 61
3 64 49 1
3 65 49 64
3 65 8 49
3 30 65 13
3 66 65 30
3 66 8 65
3 66 20 8
3 67 20 66
3 67 194 196
3 196 195 20
3 194 195 196
3 68 197 199
3 197 198 199
3 68 200 201
3 32 202 204
3 202 68 203
3 202 203 204
3 69 68 32
3 69 205 207
3 207 206 68
3 205 206 207
3 69 208 210
3 208 39 209
3 208 209 210
3 70 39 69
3 70 3 39
3 46 211 213
3 211 33 212
3 211 212 213
3 71 33 46
3 71 15 33
3 35 71 7
3 72 71 35
3 72 15 71
3 72 70 15
3 73 70 72
3 73 3 70
3 73 53 3
3 74 53 73
3 74 9 53
3 37 74 16
3 75 74 37
3 75 9 74
3 75 22 9
3 57 22 75
3 57 214 216
3 216 215 22
3 214 215 216
3 58 217 218
3 220 219 58
3 222 221 11
3 50 223 225
3 225 224 1
3 223 224 225
3 227 226 50
3 54 40 3
3 228 40 229
3 230 229 54
3 228 229 230
3 232 231 40
3 233 6 234
3 235 6 236
3 237 45 238
3 239 238 6
3 237 238 239
3 240 45 241
3 242 2 243
3 244 243 45
3 242 243 244
3 76 245 246
3 76 247 249
3 247 2 248
3 247 248 249
3 76 31 2
3 77 31 76
3 77 14 31
3 250 77 251
3 78 252 254
3 252 77 253
3 252 253 254
3 78 14 77
3 78 67 14
3 255 67 256
3 257 256 78
3 255 256 257
3 259 258 67
