ply
format ascii 1.0
element vertex 117
property float x
property float y
property float z
property uchar red
property uchar green
property uchar blue
element face 102
property list uchar int vertex_index
end_header
-48.3543 55.3605 1.32252 249 255 6
-46.5353 61.3985 -9.49849 159 255 96
-49.7644 53.2883 -2.07747 83 255 172
-47.6049 58.7617 -4.199 158 0 0
-48.61 56.0985 -7.18949 255 205 0
-47.2103 58.0242 -12.0291 31 255 224
-46.1668 61.5767 -4.99189 141 255 114
-47.1257 60.1895 -6.89617 255 196 0
-48.3246 57.4558 -5.87728 255 62 0
-47.756 58.7134 -8.47027 255 89 0
-47.9521 57.1887 -9.66535 255 215 0
-47.0856 59.7354 -10.9566 255 115 0
-45.7977 62.3545 -11.9579 32 255 223
-49.2606 54.3552 -0.538904 255 6 0
-49.6648 52.5636 2.14028 59 255 196
-50.2867 51.624 0.491947 0 250 255
-46.9078 58.2077 0.615873 165 255 90
-46.5735 59.9808 -2.20845 255 217 0
-48.0051 57.1435 -1.44785 128 0 0
-48.819 55.9942 -3.22156 255 35 0
-49.2086 54.7884 -4.64776 152 255 103
-49.0736 53.5525 -5.68162 0 170 255
-48.3781 54.7196 -8.0979 0 253 255
-47.6465 55.6479 -10.4519 0 171 255
-46.2797 60.4851 -13.2855 0 239 255
-46.8305 60.794 -8.19733 0 0 230
-46.3875 61.5789 -7.29635 0 0 187
-46.0923 62.1834 -8.59751 0 0 187
-48.5136 54.3995 2.70118 0 0 149
-47.7789 55.8221 2.38452 0 0 149
-46.1405 59.6438 0.324604 0 0 153
-46.2962 58.6847 1.76185 0 0 153
-47.0326 57.1623 -12.3626 0 0 157
-47.2507 55.9742 -11.574 0 0 157
-47.4284 56.8361 -11.2405 0 0 185
-45.5769 61.7518 -13.7539 0 0 171
-46.0387 61.4198 -12.6217 0 0 206
-45.3359 62.6865 -13.0901 0 0 171
-49.8509 51.6039 3.4635 0 0 139
-50.2207 51.1917 2.58764 0 0 139
-50.0824 51.9609 -1.44276 0 0 130
-49.7553 52.7345 -2.65967 0 0 130
-45.908 62.2725 -6.34421 0 0 150
-45.3521 62.9871 -5.29918 0 0 150
-46.6463 60.8831 -5.94403 0 0 234
-45.908 62.2725 -6.34421 0 0 190
-46.3875 61.5789 -7.29635 0 0 190
-45.7582 62.7618 -9.88849 0 0 144
-46.0923 62.1834 -8.59751 0 0 144
-45.3894 63.2398 -11.1182 0 0 184
-46.1665 61.8765 -10.7282 0 0 224
-45.7582 62.7618 -9.88849 0 0 184
-44.9597 63.6823 -12.3233 0 0 143
-45.3894 63.2398 -11.1182 0 0 143
-45.3359 62.6865 -13.0901 0 0 141
-44.9597 63.6823 -12.3233 0 0 141
-50.5316 50.7219 1.76347 0 0 173
-50.2207 51.1917 2.58764 0 0 173
-49.9758 52.0938 1.31611 0 0 208
-50.3435 51.1288 -0.15805 0 0 160
-50.0255 52.4562 -0.792762 0 0 189
-50.0824 51.9609 -1.44276 0 0 160
-50.6593 50.2804 1.04454 0 0 131
-50.3435 51.1288 -0.15805 0 0 131
-50.5316 50.7219 1.76347 0 0 132
-50.6593 50.2804 1.04454 0 0 132
-47.0557 57.2457 2.0312 0 0 153
-46.2962 58.6847 1.76185 0 0 153
-47.6311 56.7841 0.969195 0 0 245
-47.7789 55.8221 2.38452 0 0 198
-47.0557 57.2457 2.0312 0 0 198
-45.5861 62.2053 -3.90429 0 0 151
-45.3521 62.9871 -5.29918 0 0 151
-45.7895 61.4074 -2.51258 0 0 200
-45.5861 62.2053 -3.90429 0 0 200
-46.3701 60.7788 -3.60017 0 0 249
-45.9734 60.5303 -1.08756 0 0 153
-45.7895 61.4074 -2.51258 0 0 153
-46.7407 59.0943 -0.796289 0 0 253
-46.1405 59.6438 0.324604 0 0 203
-45.9734 60.5303 -1.08756 0 0 203
-49.4774 53.4846 -3.94482 0 0 158
-49.7553 52.7345 -2.65967 0 0 158
-49.4865 54.0384 -3.36262 0 0 186
-49.4099 52.8666 -4.46174 0 0 157
-49.4774 53.4846 -3.94482 0 0 157
-49.1411 54.1705 -5.16469 0 0 184
-49.11 52.3001 -4.84058 0 0 128
-49.4099 52.8666 -4.46174 0 0 128
-48.7225 52.9277 -5.99119 0 0 128
-49.11 52.3001 -4.84058 0 0 128
-48.3748 53.5112 -7.19933 0 0 154
-48.7225 52.9277 -5.99119 0 0 154
-48.7258 54.1361 -6.88976 0 0 179
-47.9895 54.0276 -8.34419 0 0 128
-48.3748 53.5112 -7.19933 0 0 128
-47.6237 54.4918 -9.52118 0 0 154
-47.9895 54.0276 -8.34419 0 0 154
-48.0123 55.1837 -9.27489 0 0 180
-47.2344 54.878 -10.6401 0 0 129
-47.6237 54.4918 -9.52118 0 0 129
-47.2344 54.878 -10.6401 0 0 128
-47.2507 55.9742 -11.574 0 0 128
-45.7897 60.7045 -14.3452 0 0 136
-45.5769 61.7518 -13.7539 0 0 136
-46.3156 59.5263 -13.7573 0 0 132
-45.7897 60.7045 -14.3452 0 0 132
-46.7809 58.2958 -13.1291 0 0 163
-46.745 59.2547 -12.6573 0 0 194
-46.3156 59.5263 -13.7573 0 0 163
-47.0326 57.1623 -12.3626 0 0 129
-46.7809 58.2958 -13.1291 0 0 129
-49.1689 53.0011 3.11006 0 0 188
-48.5136 54.3995 2.70118 0 0 188
-49.0096 53.9621 1.7314 0 0 231
-49.1689 53.0011 3.11006 0 0 145
-49.8509 51.6039 3.4635 0 0 145
3 1 25 27
3 25 7 26
3 25 26 27
3 1 9 7
3 1 11 9
3 0 28 29
3 2 15 13
3 30 16 31
3 3 17 6
3 3 18 17
3 3 19 18
3 4 20 8
3 4 21 20
3 4 22 21
3 5 23 10
3 5 32 34
3 34 33 23
3 32 33 34
3 35 24 36
3 37 36 12
3 35 36 37
3 39 38 14
3 41 40 2
3 42 6 43
3 7 44 46
3 44 6 45
3 44 45 46
3 7 3 6
3 7 8 3
3 9 8 7
3 9 4 8
3 9 10 4
3 11 10 9
3 11 5 10
3 47 1 48
3 49 12 50
3 51 50 1
3 49 50 51
3 52 12 53
3 55 54 12
3 13 14 0
3 15 14 13
3 15 56 58
3 58 57 14
3 56 57 58
3 59 15 60
3 61 60 2
3 59 60 61
3 62 15 63
3 65 64 15
3 16 66 67
3 16 68 70
3 68 0 69
3 68 69 70
3 6 71 72
3 17 73 75
3 75 74 6
3 73 74 75
3 17 76 77
3 17 78 80
3 78 16 79
3 78 79 80
3 18 16 17
3 18 0 16
3 18 13 0
3 19 13 18
3 19 2 13
3 8 19 3
3 20 19 8
3 20 2 19
3 20 81 83
3 83 82 2
3 81 82 83
3 21 84 86
3 86 85 20
3 84 85 86
3 21 87 88
3 21 89 90
3 22 91 93
3 93 92 21
3 91 92 93
3 22 94 95
3 10 22 4
3 23 22 10
3 23 96 98
3 98 97 22
3 96 97 98
3 23 99 100
3 102 101 23
3 12 11 1
3 24 11 12
3 24 5 11
3 103 24 104
3 105 24 106
3 107 5 108
3 109 108 24
3 107 108 109
3 111 110 5
3 14 112 114
3 114 113 0
3 112 113 114
3 116 115 14
