ply
format ascii 1.0
element vertex 193
property float x
property float y
property float z
property uchar red
property uchar green
property uchar blue
element face 190
property list uchar int vertex_index
end_header
-12.7865 85.9633 -13.1725 17 255 238
-4.59244 81.9616 -22.8254 6 255 249
-16.539 79.1163 -21.8876 228 0 0
-7.82279 71.09 -29.748 255 234 0
-19.3211 83.1779 -13.2087 29 255 226
-21.5495 80.3982 -17.446 255 53 0
-14.4517 83.2609 -18.1954 255 49 0
-5.89979 77.2364 -27.1717 255 154 0
-2.93169 71.4413 -30.6384 9 255 246
-8.33 85.1144 -18.1841 72 255 183
-23.8692 76.0003 -20.5139 241 0 0
-18.7594 73.3812 -24.1799 255 254 0
-9.81862 81.2945 -22.917 255 72 0
-11.8018 75.9446 -26.0488 186 0 0
-15.9503 84.6581 -13.2908 137 255 118
-16.8905 83.4543 -15.729 255 48 0
-13.5522 84.7678 -15.8333 255 65 0
-2.2639 74.2588 -28.9573 0 152 255
-19.0465 79.9934 -19.7002 255 15 0
-22.7188 78.4142 -19.1306 255 30 0
-20.1823 77.6497 -21.1938 224 0 0
-21.3048 74.8963 -22.3671 255 170 0
-17.6505 76.4356 -23.1975 167 0 0
-6.34908 83.8229 -20.569 40 255 215
-9.00014 83.3889 -20.7394 255 125 0
-6.9687 81.8566 -23.0501 255 170 0
-6.7969 74.3244 -28.675 255 73 0
-8.66706 76.7859 -26.7601 255 28 0
-9.69655 73.7052 -27.9773 204 0 0
-12.8997 72.7348 -27.0329 255 134 0
-10.8026 70.3224 -28.8159 104 255 151
-23.9783 80.3621 -15.1154 16 255 239
-20.4024 81.9688 -15.4651 240 255 15
-17.9352 81.9181 -17.8748 255 41 0
-15.4596 81.3895 -20.2208 255 20 0
-3.0788 79.5759 -24.9134 0 157 255
-5.15937 79.7869 -25.2172 255 224 0
-3.59142 77.2317 -27.1994 84 255 171
-4.29403 74.525 -29.0251 255 215 0
-5.17229 71.4818 -30.3841 255 134 0
-6.19917 68.1487 -31.3058 15 255 240
-3.79553 68.3137 -31.8386 0 215 255
-10.4948 85.8214 -15.7085 101 255 154
-25.1847 78.7359 -16.9887 125 255 130
-26.3727 76.6782 -18.5915 140 255 115
-27.5062 74.1927 -19.9212 48 255 207
-24.9691 73.1852 -21.6129 78 255 177
-11.2136 84.3575 -18.3233 255 90 0
-12.0722 82.5478 -20.5981 255 55 0
-13.0462 80.3539 -22.4974 255 5 0
-7.74788 79.5116 -25.1213 255 105 0
-10.7632 78.8108 -24.6872 255 5 0
-14.1012 77.7607 -24.0086 195 0 0
-15.2002 74.7865 -25.1482 128 0 0
-16.3108 71.4856 -25.9627 139 255 116
-8.38329 69.3417 -30.0956 0 0 188
-9.87322 68.9579 -29.6296 0 0 188
-9.31272 70.7062 -29.282 0 0 229
-19.8618 82.5733 -14.3369 0 0 212
-21.5997 81.7823 -14.2271 0 0 177
-21.059 82.3868 -13.0989 0 0 177
-2.69815 76.9825 -26.9974 0 0 153
-3.33511 78.4038 -26.0564 0 0 177
-2.44184 78.1545 -25.8545 0 0 153
-20.573 72.5831 -23.7189 0 0 192
-21.8457 73.3406 -22.8125 0 0 192
-20.0321 74.1388 -23.2735 0 0 235
-19.3003 71.7023 -24.5357 0 0 151
-20.573 72.5831 -23.7189 0 0 151
-15.1681 70.3671 -26.831 0 0 197
-14.6052 72.1102 -26.4978 0 0 243
-13.4626 70.9917 -27.3661 0 0 197
-16.8601 69.7123 -26.243 0 0 152
-15.1681 70.3671 -26.831 0 0 152
-6.76952 66.3677 -31.5782 0 0 141
-5.51367 66.5365 -31.9503 0 0 141
-1.50694 73.8849 -28.6983 0 0 128
-2.03439 75.496 -27.8764 0 0 128
-1.71237 72.5991 -29.7066 0 0 128
-1.50694 73.8849 -28.6983 0 0 128
-2.04626 71.1903 -30.5472 0 0 153
-2.5978 72.8501 -29.7978 0 0 177
-1.71237 72.5991 -29.7066 0 0 153
-2.36606 69.7439 -31.3054 0 0 129
-2.04626 71.1903 -30.5472 0 0 129
-12.414 69.7855 -28.2577 0 0 194
-13.4626 70.9917 -27.3661 0 0 194
-11.8512 71.5286 -27.9244 0 0 238
-11.378 68.5164 -29.081 0 0 150
-12.414 69.7855 -28.2577 0 0 150
-11.378 68.5164 -29.081 0 0 148
-9.87322 68.9579 -29.6296 0 0 148
-23.3876 80.9789 -14.0522 0 0 140
-25.1265 80.1499 -13.9056 0 0 140
-22.1904 81.1655 -15.2902 0 0 212
-23.3876 80.9789 -14.0522 0 0 176
-21.5997 81.7823 -14.2271 0 0 176
-2.92766 75.7453 -28.0784 0 0 178
-2.69815 76.9825 -26.9974 0 0 153
-2.03439 75.496 -27.8764 0 0 153
-4.31185 66.619 -32.2167 0 0 171
-5.51367 66.5365 -31.9503 0 0 171
-4.99735 68.2312 -31.5722 0 0 204
-2.79798 68.18 -31.9055 0 0 159
-3.36361 69.8775 -31.2385 0 0 185
-2.36606 69.7439 -31.3054 0 0 159
-3.22613 66.5905 -32.4165 0 0 132
-2.79798 68.18 -31.9055 0 0 132
-4.31185 66.619 -32.2167 0 0 135
-3.22613 66.5905 -32.4165 0 0 135
-10.2094 86.4032 -14.2555 0 0 174
-11.6406 85.8923 -14.4405 0 0 208
-11.3553 86.4741 -12.9875 0 0 174
-9.1549 86.164 -15.5049 0 0 137
-10.2094 86.4032 -14.2555 0 0 137
-8.0725 85.8105 -16.7427 0 0 169
-9.4124 85.4679 -16.9463 0 0 202
-9.1549 86.164 -15.5049 0 0 169
-7.11172 85.2738 -17.9551 0 0 134
-8.0725 85.8105 -16.7427 0 0 134
-6.12126 84.6281 -19.1476 0 0 164
-7.33954 84.4687 -19.3766 0 0 194
-7.11172 85.2738 -17.9551 0 0 164
-5.27472 83.7962 -20.3051 0 0 132
-6.12126 84.6281 -19.1476 0 0 132
-4.3964 82.8656 -21.4334 0 0 159
-5.47076 82.8923 -21.6972 0 0 187
-5.27472 83.7962 -20.3051 0 0 159
-3.67331 81.7578 -22.5168 0 0 130
-4.3964 82.8656 -21.4334 0 0 130
-2.91649 80.5649 -23.5608 0 0 155
-3.83562 80.7687 -23.8694 0 0 180
-3.67331 81.7578 -22.5168 0 0 155
-2.31389 79.2139 -24.552 0 0 129
-2.91649 80.5649 -23.5608 0 0 129
-2.44184 78.1545 -25.8545 0 0 129
-2.31389 79.2139 -24.552 0 0 129
-20.5024 82.8408 -11.9218 0 0 141
-21.059 82.3868 -13.0989 0 0 141
-18.832 83.636 -11.9573 0 0 142
-20.5024 82.8408 -11.9218 0 0 142
-17.1466 84.3761 -11.9984 0 0 178
-17.6357 83.918 -13.2497 0 0 214
-18.832 83.636 -11.9573 0 0 178
-15.545 85.1247 -11.9435 0 0 142
-17.1466 84.3761 -11.9984 0 0 142
-13.9631 85.7773 -11.8844 0 0 177
-14.3684 85.3107 -13.2316 0 0 212
-15.545 85.1247 -11.9435 0 0 177
-12.4747 86.4303 -11.715 0 0 177
-13.9631 85.7773 -11.8844 0 0 177
-13.6514 86.2444 -10.4268 0 0 141
-11.3553 86.4741 -12.9875 0 0 139
-12.4747 86.4303 -11.715 0 0 139
-25.7462 79.5031 -14.9305 0 0 140
-25.1265 80.1499 -13.9056 0 0 140
-26.3494 78.69 -15.8672 0 0 173
-25.7462 79.5031 -14.9305 0 0 173
-24.5815 79.549 -16.0521 0 0 207
-26.9633 77.8352 -16.7766 0 0 140
-26.3494 78.69 -15.8672 0 0 140
-27.5573 76.8063 -17.578 0 0 174
-26.9633 77.8352 -16.7766 0 0 174
-25.7787 77.707 -17.7901 0 0 208
-28.1456 75.7341 -18.3629 0 0 140
-27.5573 76.8063 -17.578 0 0 140
-28.7123 74.4914 -19.0278 0 0 176
-28.1456 75.7341 -18.3629 0 0 176
-26.9394 75.4354 -19.2564 0 0 212
-29.2594 73.2154 -19.6862 0 0 141
-28.7123 74.4914 -19.0278 0 0 141
-28.0333 72.7608 -20.4585 0 0 142
-29.2594 73.2154 -19.6862 0 0 142
-26.7648 72.2571 -21.3043 0 0 183
-28.0333 72.7608 -20.4585 0 0 183
-26.2377 73.6889 -20.7671 0 0 223
-25.4842 71.612 -22.0406 0 0 146
-26.7648 72.2571 -21.3043 0 0 146
-23.6779 72.4851 -22.4354 0 0 190
-23.137 74.0408 -21.99 0 0 233
-21.8457 73.3406 -22.8125 0 0 190
-25.4842 71.612 -22.0406 0 0 148
-23.6779 72.4851 -22.4354 0 0 148
-18.076 70.7545 -25.4271 0 0 196
-19.3003 71.7023 -24.5357 0 0 196
-17.5351 72.4334 -25.0713 0 0 242
-18.076 70.7545 -25.4271 0 0 152
-16.8601 69.7123 -26.243 0 0 152
-7.57148 67.8711 -30.8746 0 0 182
-8.38329 69.3417 -30.0956 0 0 182
-7.01098 69.6194 -30.5269 0 0 221
-7.57148 67.8711 -30.8746 0 0 144
-6.76952 66.3677 -31.5782 0 0 144
3 0 16 14
3 2 20 18
3 2 22 20
3 1 25 23
3 3 28 26
3 3 30 28
3 3 55 57
3 57 56 30
3 55 56 57
3 4 58 60
3 58 32 59
3 58 59 60
3 6 33 15
3 6 34 33
3 61 37 62
3 63 62 35
3 61 62 63
3 8 38 17
3 8 39 38
3 8 41 39
3 5 43 31
3 10 44 19
3 10 45 44
3 10 46 45
3 11 64 66
3 66 65 21
3 64 65 66
3 11 67 68
3 9 47 42
3 12 48 24
3 12 49 48
3 7 50 36
3 13 51 27
3 13 52 51
3 13 53 52
3 69 54 70
3 71 70 29
3 69 70 71
3 73 72 54
3 75 74 40
3 14 15 4
3 16 15 14
3 16 6 15
3 76 17 77
3 78 17 79
3 80 8 81
3 82 81 17
3 80 81 82
3 84 83 8
3 18 19 5
3 20 19 18
3 20 10 19
3 20 21 10
3 22 21 20
3 22 11 21
3 23 24 9
3 25 24 23
3 25 12 24
3 26 27 7
3 28 27 26
3 28 13 27
3 28 29 13
3 30 29 28
3 30 85 87
3 87 86 29
3 85 86 87
3 30 88 89
3 91 90 30
3 92 31 93
3 32 94 96
3 94 31 95
3 94 95 96
3 32 5 31
3 15 32 4
3 33 32 15
3 33 5 32
3 33 18 5
3 34 18 33
3 34 2 18
3 35 36 1
3 37 36 35
3 37 7 36
3 17 97 99
3 97 37 98
3 97 98 99
3 38 37 17
3 38 7 37
3 38 26 7
3 39 26 38
3 39 3 26
3 39 40 3
3 41 40 39
3 41 100 102
3 102 101 40
3 100 101 102
3 103 41 104
3 105 104 8
3 103 104 105
3 106 41 107
3 109 108 41
3 110 42 111
3 112 111 0
3 110 111 112
3 113 42 114
3 115 9 116
3 117 116 42
3 115 116 117
3 118 9 119
3 120 23 121
3 122 121 9
3 120 121 122
3 123 23 124
3 125 1 126
3 127 126 23
3 125 126 127
3 128 1 129
3 130 35 131
3 132 131 1
3 130 131 132
3 133 35 134
3 136 135 35
3 137 4 138
3 139 4 140
3 141 14 142
3 143 142 4
3 141 142 143
3 144 14 145
3 146 0 147
3 148 147 14
3 146 147 148
3 149 0 150
3 149 150 151
3 153 152 0
3 31 154 155
3 43 156 158
3 158 157 31
3 156 157 158
3 43 159 160
3 19 43 5
3 44 43 19
3 44 161 163
3 163 162 43
3 161 162 163
3 44 164 165
3 45 166 168
3 168 167 44
3 166 167 168
3 45 169 170
3 45 171 172
3 46 173 175
3 175 174 45
3 173 174 175
3 46 176 177
3 21 46 10
3 178 46 179
3 180 179 21
3 178 179 180
3 182 181 46
3 42 16 0
3 47 16 42
3 47 6 16
3 24 47 9
3 48 47 24
3 48 6 47
3 48 34 6
3 49 34 48
3 49 2 34
3 36 25 1
3 50 25 36
3 50 12 25
3 27 50 7
3 51 50 27
3 51 12 50
3 51 49 12
3 52 49 51
3 52 2 49
3 52 22 2
3 53 22 52
3 53 11 22
3 29 53 13
3 54 53 29
3 54 11 53
3 54 183 185
3 185 184 11
3 183 184 185
3 187 186 54
3 40 188 190
3 190 189 3
3 188 189 190
3 192 191 40
