ply
format ascii 1.0
element vertex 420
property float x
property float y
property float z
property uchar red
property uchar green
property uchar blue
element face 475
property list uchar int vertex_index
end_header
-49.1463 51.0476 -3.99954 0 228 255
-34.5224 37.264 -2.09417 255 183 0
-34.6742 20.2354 1.40888 181 255 74
-37.7091 33.2092 4.30539 255 200 0
-52.1787 44.4263 4.82606 0 149 255
-46.5303 40.4383 2.85199 255 201 0
-42.0234 45.9516 -3.46904 255 187 0
-39.1864 47.4536 -11.3377 98 255 157
-33.4147 37.7721 -10.1625 255 248 0
-34.2524 23.2263 -6.41653 146 0 0
-32.675 31.6079 -15.2992 0 238 255
-40.2239 30.2533 6.15884 65 255 190
-50.7041 48.0016 0.5257 72 255 183
-50.3658 42.654 3.08589 143 255 112
-48.271 45.9664 -0.425207 205 255 50
-44.0884 43.5403 -0.000153 255 170 0
-46.3057 48.6864 -4.32094 237 255 18
-43.0634 51.1424 -12.519 0 163 255
-33.9979 29.3851 0.493006 255 79 0
-34.2754 21.9193 -2.36523 255 145 0
-33.4249 30.7114 -3.3639 255 34 0
-33.2232 31.3937 -7.45005 255 74 0
-33.8402 37.9548 -6.10052 255 183 0
-47.6009 53.3356 -8.59048 0 184 255
-35.1762 27.4086 3.79108 255 167 0
-35.7758 35.6338 1.48946 255 205 0
-47.5486 30.6984 6.26776 0 197 255
-49.1124 36.9521 5.05495 233 255 22
-44.6328 34.161 5.3424 255 158 0
-41.8516 37.4473 3.61396 255 147 0
-39.4587 40.2743 1.01208 255 173 0
-37.6473 42.3149 -2.37361 255 208 0
-44.5937 50.5128 -8.45194 229 255 26
-40.4343 47.3335 -7.35976 255 222 0
-36.4375 43.2843 -6.26594 255 225 0
-35.6011 43.0961 -10.2911 255 251 0
-34.7575 41.9094 -14.1138 0 149 255
-32.925 36.9576 -13.9547 0 192 255
-34.3061 24.2493 -10.5042 255 218 0
-33.0488 31.5942 -11.4867 255 186 0
-49.7463 52.1807 -3.24187 0 97 255
-50.4004 50.6335 -0.808048 0 157 255
-49.9266 49.6039 -1.71697 80 255 175
-49.7674 47.0154 -0.147806 116 255 139
-48.8589 48.5372 -2.21812 139 255 116
-47.2608 47.4179 -2.33079 226 255 29
-47.9745 49.8897 -4.34773 157 255 98
-34.0852 33.5302 -0.583759 255 137 0
-33.646 30.1329 -1.38634 255 47 0
-33.7066 34.1558 -2.50979 255 118 0
-33.4532 34.5763 -4.51846 255 115 0
-34.1261 37.728 -4.06838 255 177 0
-37.2328 29.1919 5.43839 123 255 132
-36.013 26.2137 5.13981 43 255 212
-36.1967 30.5075 4.25606 255 210 0
-35.3218 31.6872 2.83926 255 191 0
-36.6599 34.5057 3.01025 255 207 0
-49.6794 32.1199 6.26124 0 168 255
-51.6289 47.1152 3.95298 0 110 255
-52.412 41.7264 5.58131 0 89 255
-48.6391 41.617 2.79606 233 255 22
-49.8177 39.8627 4.16807 193 255 62
-47.8212 38.7267 4.03249 255 234 0
-46.946 35.6714 5.06309 255 204 0
-45.5601 37.404 4.20832 255 174 0
-43.2092 35.8423 4.58581 255 146 0
-44.2079 39.0685 3.16648 255 156 0
-42.9981 44.8537 -1.66534 255 174 0
-41.7378 42.0478 0.500519 255 157 0
-40.6767 43.2802 -1.11176 255 172 0
-38.4736 41.4134 -0.59617 255 192 0
-39.7562 44.2832 -2.88273 255 191 0
-46.8223 54.1082 -10.8284 0 119 255
-46.3106 51.9425 -8.68912 170 255 85
-45.5175 52.5651 -10.8276 0 213 255
-41.1692 49.3541 -11.967 4 255 251
-41.8568 49.342 -9.98851 254 255 1
-39.7861 47.5563 -9.36028 255 237 0
-38.3292 45.4504 -6.74948 255 222 0
-37.7775 45.571 -8.75342 255 233 0
-35.9955 43.3295 -8.28481 255 234 0
-37.278 45.3841 -10.7437 255 246 0
-34.233 22.6159 -4.3729 128 0 0
-35.0298 18.0405 -4.46665 144 255 111
-35.0935 18.7848 -6.51477 255 238 0
-35.1806 19.4853 -8.5728 252 255 3
-35.2487 20.1547 -10.6195 101 255 154
-34.2917 23.7649 -8.46768 184 0 0
-33.1516 34.8536 -8.61138 255 169 0
-33.1528 31.5388 -9.48833 255 123 0
-33.0133 34.7642 -10.6207 255 225 0
-32.8397 34.5723 -12.5617 213 255 42
-33.189 37.4254 -12.1129 200 255 55
-33.256 28.5642 -14.7186 30 255 225
-32.9837 28.7998 -16.623 0 103 255
-38.4122 27.7717 6.37322 0 209 255
-38.9052 31.7798 5.35665 255 185 0
-51.032 48.9369 1.59713 0 163 255
-51.4629 46.2675 2.71214 71 255 184
-51.5735 43.5837 3.76326 77 255 178
-50.681 45.355 1.84952 94 255 161
-49.3152 44.3678 1.38267 177 255 78
-47.4641 43.2818 1.29036 255 244 0
-45.2751 42.055 1.50806 255 179 0
-46.3261 44.8247 -0.348286 255 221 0
-45.2534 46.2092 -2.11407 255 211 0
-44.2673 47.3946 -3.99223 255 213 0
-38.5841 47.0398 -13.2548 0 180 255
-34.2155 24.9186 1.14485 255 16 0
-34.4142 21.127 -0.426435 213 255 42
-33.9029 25.7524 -0.701424 228 0 0
-33.7191 26.4529 -2.65252 206 0 0
-33.6341 27.0238 -4.66984 208 0 0
-33.6079 27.4772 -6.71762 232 0 0
-33.2987 31.1263 -5.39781 255 43 0
-33.2838 34.8015 -6.56561 255 132 0
-33.6189 37.9602 -8.14553 255 206 0
-48.3715 52.3029 -6.30076 0 178 255
-35.0704 19.2474 3.10779 37 255 218
-35.2925 22.8751 4.37562 87 255 168
-34.6761 23.9558 2.84836 255 73 0
-34.5043 28.4724 2.23174 255 122 0
-34.6185 32.7025 1.21377 255 164 0
-35.0651 36.5615 -0.225835 255 195 0
-51.3894 40.8531 4.67918 0 242 255
-50.9631 38.0469 5.40671 0 207 255
-50.3665 35.1418 5.92624 0 230 255
-48.3308 33.9017 5.74258 255 246 0
-46.09 32.4368 5.89692 143 255 112
-43.8086 30.7051 6.27353 0 234 255
-42.3408 32.3709 5.76063 173 255 82
-40.9395 33.9849 5.0215 255 154 0
-39.6344 35.5119 4.04501 255 168 0
-42.9233 40.6296 1.93036 255 150 0
-40.5919 38.9382 2.42116 255 157 0
-38.4543 36.9143 2.82985 255 185 0
-37.4233 38.1525 1.38685 255 200 0
-36.5575 39.1878 -0.259959 255 209 0
-35.8604 39.986 -2.07427 255 212 0
-47.1251 51.0377 -6.51531 167 255 88
-45.417 49.7318 -6.37268 237 255 18
-43.3779 48.3378 -5.95661 255 224 0
-43.8196 50.9918 -10.5159 70 255 185
-42.5811 48.9977 -7.97012 255 240 0
-41.1717 46.7906 -5.38072 255 205 0
-38.9784 45.0166 -4.77674 255 209 0
-36.9756 42.9452 -4.27936 255 218 0
-35.3197 40.5233 -4.01082 255 212 0
-34.9066 40.7904 -6.02058 255 215 0
-34.5784 40.7949 -8.05563 255 227 0
-34.2856 40.5594 -10.0721 255 255 0
-36.7779 44.9125 -12.6824 6 255 249
-35.2028 42.6122 -12.2456 74 255 181
-33.9816 40.1151 -12.0302 210 255 45
-33.6348 39.4934 -13.8903 0 205 255
-34.2545 24.6977 -12.5111 31 255 224
-33.5951 27.8318 -8.76561 255 21 0
-33.5523 28.1121 -10.7905 255 77 0
-33.4452 28.3459 -12.7768 172 255 83
-32.8894 31.5997 -13.4262 255 255 0
-32.6262 34.3288 -14.403 0 201 255
-50.6127 32.7183 6.45738 0 0 156
-50.3187 31.2319 6.44863 0 0 156
-51.2521 31.8303 6.64477 0 0 133
-52.1734 44.8091 5.53117 0 0 152
-51.8985 46.1536 5.09463 0 0 152
-51.9038 45.7707 4.38952 0 0 174
-52.4986 43.4634 5.83662 0 0 130
-52.1734 44.8091 5.53117 0 0 130
-52.2953 43.0763 5.20369 0 0 169
-52.6153 42.1135 6.21424 0 0 149
-52.4986 43.4634 5.83662 0 0 149
-45.7641 53.5743 -11.8973 0 0 154
-46.1699 53.3366 -10.828 0 0 176
-46.4165 54.3458 -11.8977 0 0 154
-34.8928 18.3059 0.450156 0 0 152
-34.9897 17.8397 1.37538 0 0 152
-39.3181 29.0125 6.26603 0 0 198
-39.0627 27.0251 6.71654 0 0 169
-39.9686 28.2659 6.60934 0 0 169
-35.3398 18.7093 3.875 0 0 146
-35.3449 16.8459 3.08831 0 0 146
-47.1874 29.0174 6.48424 0 0 138
-48.263 29.8333 6.37253 0 0 138
-46.4309 29.8584 6.42328 0 0 139
-47.1874 29.0174 6.48424 0 0 139
-43.4415 51.0671 -11.5174 0 0 183
-44.2689 51.9319 -11.7 0 0 158
-43.8908 52.0072 -12.7015 0 0 158
-37.3521 45.6288 -13.8837 0 0 163
-37.681 45.9762 -12.9686 0 0 189
-38.2552 46.6924 -14.1699 0 0 163
-34.9802 42.2608 -13.1797 0 0 186
-35.715 43.4005 -13.3926 0 0 160
-35.4923 43.0491 -14.3266 0 0 160
-34.6508 19.5799 -2.40999 0 0 197
-34.7202 19.1837 -1.4406 0 0 197
-34.3448 21.5231 -1.39583 0 0 240
-35.4972 15.739 -4.67625 0 0 157
-35.5516 16.1713 -5.709 0 0 157
-34.7803 22.5269 -11.5719 0 0 190
-35.2516 20.4796 -11.6296 0 0 190
-34.7774 22.202 -10.5619 0 0 231
-34.2803 24.4735 -11.5077 0 0 224
-34.7545 22.751 -12.5754 0 0 186
-34.7803 22.5269 -11.5719 0 0 186
-32.7821 36.6845 -14.7893 0 0 149
-32.6327 35.3701 -15.0135 0 0 149
-32.7756 35.6432 -14.1788 0 0 169
-32.5497 31.6502 -16.2142 0 0 131
-32.5381 32.864 -15.7085 0 0 131
-40.9314 29.4587 6.43852 0 0 141
-39.9686 28.2659 6.60934 0 0 141
-50.0733 51.4071 -2.02496 0 0 175
-50.0824 51.9609 -1.44276 0 0 153
-49.7553 52.7345 -2.65967 0 0 153
-36.6229 27.7028 5.2891 0 0 194
-36.509 25.563 5.69856 0 0 166
-37.1189 27.0521 5.84785 0 0 166
-49.3284 30.544 6.36927 0 0 135
-50.3187 31.2319 6.44863 0 0 135
-48.614 31.4092 6.2645 0 0 191
-48.263 29.8333 6.37253 0 0 163
-49.3284 30.544 6.36927 0 0 163
-51.4267 47.5075 4.73926 0 0 134
-51.2027 48.4675 3.49399 0 0 134
-51.4267 47.5075 4.73926 0 0 134
-51.8985 46.1536 5.09463 0 0 134
-52.7846 40.7654 6.43423 0 0 128
-52.6153 42.1135 6.21424 0 0 128
-52.38 40.358 5.86826 0 0 129
-52.7846 40.7654 6.43423 0 0 129
-35.1732 42.5762 -15.2027 0 0 134
-35.4923 43.0491 -14.3266 0 0 134
-34.4994 41.4594 -14.9882 0 0 133
-35.1732 42.5762 -15.2027 0 0 133
-35.5835 16.5435 -6.73306 0 0 201
-35.5516 16.1713 -5.709 0 0 201
-35.0616 18.4126 -5.49071 0 0 247
-35.6496 16.9673 -7.77039 0 0 156
-35.5835 16.5435 -6.73306 0 0 156
-35.6932 17.3175 -8.79941 0 0 199
-35.6496 16.9673 -7.77039 0 0 199
-35.1371 19.1351 -7.54378 0 0 244
-35.752 17.7376 -9.83138 0 0 155
-35.6932 17.3175 -8.79941 0 0 155
-35.2147 19.82 -9.59616 0 0 239
-35.7861 18.0723 -10.8547 0 0 196
-35.752 17.7376 -9.83138 0 0 196
-33.5512 27.0578 -15.566 0 0 141
-33.6812 26.8457 -14.5997 0 0 141
-33.415 27.1755 -16.5183 0 0 169
-33.5512 27.0578 -15.566 0 0 169
-33.1198 28.682 -15.6708 0 0 199
-33.2279 27.3878 -17.4687 0 0 139
-33.415 27.1755 -16.5183 0 0 139
-32.704 30.2462 -16.8762 0 0 160
-32.8294 30.2038 -15.9611 0 0 185
-32.5497 31.6502 -16.2142 0 0 160
-32.8093 28.9366 -17.5662 0 0 135
-32.704 30.2462 -16.8762 0 0 135
-33.2279 27.3878 -17.4687 0 0 138
-32.8093 28.9366 -17.5662 0 0 138
-38.2745 25.6513 6.75392 0 0 139
-39.0627 27.0251 6.71654 0 0 139
-37.7086 26.3419 6.31526 0 0 137
-38.2745 25.6513 6.75392 0 0 137
-37.8225 28.4818 5.90581 0 0 197
-37.1189 27.0521 5.84785 0 0 168
-37.7086 26.3419 6.31526 0 0 168
-50.3435 51.1288 -0.15805 0 0 132
-50.0824 51.9609 -1.44276 0 0 132
-50.6593 50.2804 1.04454 0 0 154
-50.3435 51.1288 -0.15805 0 0 154
-50.7162 49.7852 0.394542 0 0 176
-50.9043 49.3783 2.31606 0 0 157
-50.5316 50.7219 1.76347 0 0 133
-50.6593 50.2804 1.04454 0 0 157
-51.3304 48.026 2.77505 0 0 179
-51.2027 48.4675 3.49399 0 0 156
-50.9043 49.3783 2.31606 0 0 156
-43.4684 51.9925 -13.6671 0 0 133
-43.8908 52.0072 -12.7015 0 0 133
-42.6725 51.0492 -13.4701 0 0 133
-43.4684 51.9925 -13.6671 0 0 133
-41.7254 50.155 -13.1942 0 0 161
-42.1163 50.2482 -12.243 0 0 186
-42.6725 51.0492 -13.4701 0 0 161
-40.82 49.1957 -12.9175 0 0 135
-41.7254 50.155 -13.1942 0 0 135
-39.8285 48.2455 -12.6028 0 0 163
-40.1778 48.4038 -11.6524 0 0 190
-40.82 49.1957 -12.9175 0 0 163
-39.5274 48.0386 -13.5613 0 0 163
-38.8852 47.2467 -12.2962 0 0 190
-39.8285 48.2455 -12.6028 0 0 163
-39.1467 47.7273 -14.4605 0 0 135
-39.5274 48.0386 -13.5613 0 0 135
-38.2552 46.6924 -14.1699 0 0 135
-39.1467 47.7273 -14.4605 0 0 135
-49.4774 53.4846 -3.94482 0 0 131
-49.7553 52.7345 -2.65967 0 0 131
-49.4099 52.8666 -4.46174 0 0 131
-49.4774 53.4846 -3.94482 0 0 131
-49.11 52.3001 -4.84058 0 0 149
-49.4463 51.6142 -3.6207 0 0 169
-49.4099 52.8666 -4.46174 0 0 149
-48.7225 52.9277 -5.99119 0 0 149
-48.7589 51.6753 -5.15015 0 0 169
-49.11 52.3001 -4.84058 0 0 149
-48.3748 53.5112 -7.19933 0 0 130
-48.7225 52.9277 -5.99119 0 0 130
-47.9895 54.0276 -8.34419 0 0 150
-47.9862 52.8193 -7.44562 0 0 171
-48.3748 53.5112 -7.19933 0 0 150
-47.6237 54.4918 -9.52118 0 0 130
-47.9895 54.0276 -8.34419 0 0 130
-47.2344 54.878 -10.6401 0 0 151
-47.2116 53.7219 -9.70944 0 0 172
-47.6237 54.4918 -9.52118 0 0 151
-46.8386 55.2043 -11.7623 0 0 130
-47.2344 54.878 -10.6401 0 0 130
-46.4165 54.3458 -11.8977 0 0 130
-46.8386 55.2043 -11.7623 0 0 130
-35.1878 17.3457 2.22483 0 0 149
-35.3449 16.8459 3.08831 0 0 149
-34.8723 19.7414 2.25834 0 0 228
-34.9897 17.8397 1.37538 0 0 188
-35.1878 17.3457 2.22483 0 0 188
-36.0385 23.9534 5.42035 0 0 139
-36.509 25.563 5.69856 0 0 139
-35.6783 22.2841 5.03825 0 0 169
-36.0385 23.9534 5.42035 0 0 169
-35.6528 24.5444 4.75772 0 0 199
-35.4509 20.5232 4.50892 0 0 141
-35.6783 22.2841 5.03825 0 0 141
-35.1814 21.0612 3.74171 0 0 212
-35.3398 18.7093 3.875 0 0 178
-35.4509 20.5232 4.50892 0 0 178
-51.8687 39.9213 5.41719 0 0 148
-52.38 40.358 5.86826 0 0 148
-51.9007 41.2897 5.13024 0 0 167
-51.6556 38.5182 5.78096 0 0 153
-51.8687 39.9213 5.41719 0 0 153
-51.1762 39.45 5.04294 0 0 175
-51.4995 37.1199 5.95882 0 0 130
-51.6556 38.5182 5.78096 0 0 130
-51.2012 35.6674 6.21858 0 0 156
-51.4995 37.1199 5.95882 0 0 156
-50.6648 36.5944 5.66647 0 0 179
-50.9563 34.2293 6.28988 0 0 131
-51.2012 35.6674 6.21858 0 0 131
-50.0229 33.6309 6.09374 0 0 182
-50.6127 32.7183 6.45738 0 0 158
-50.9563 34.2293 6.28988 0 0 158
-45.7016 30.7276 6.23786 0 0 170
-46.4309 29.8584 6.42328 0 0 170
-46.8193 31.5676 6.08234 0 0 201
-44.5608 29.8617 6.42617 0 0 171
-45.7016 30.7276 6.23786 0 0 171
-44.9493 31.5709 6.08523 0 0 202
-43.4661 28.8745 6.66184 0 0 141
-44.5608 29.8617 6.42617 0 0 141
-42.7238 29.6846 6.49587 0 0 141
-43.4661 28.8745 6.66184 0 0 141
-41.9899 30.5175 6.23942 0 0 174
-42.7238 29.6846 6.49587 0 0 174
-43.0747 31.538 6.01708 0 0 206
-41.2824 31.3121 5.95973 0 0 203
-40.9314 29.4587 6.43852 0 0 172
-41.9899 30.5175 6.23942 0 0 172
-45.1179 52.7185 -11.8558 0 0 132
-45.7641 53.5743 -11.8973 0 0 132
-44.6686 51.7785 -10.6717 0 0 183
-45.1179 52.7185 -11.8558 0 0 158
-44.2689 51.9319 -11.7 0 0 158
-36.5025 44.5507 -13.611 0 0 136
-37.3521 45.6288 -13.8837 0 0 136
-35.9904 43.7623 -12.464 0 0 188
-36.5025 44.5507 -13.611 0 0 162
-35.715 43.4005 -13.3926 0 0 162
-33.9381 40.2514 -14.8765 0 0 155
-34.1961 40.7014 -14.002 0 0 179
-34.4994 41.4594 -14.9882 0 0 155
-33.437 39.1027 -14.7483 0 0 131
-33.9381 40.2514 -14.8765 0 0 131
-33.0821 37.8348 -14.7805 0 0 152
-33.2799 38.2255 -13.9225 0 0 173
-33.437 39.1027 -14.7483 0 0 152
-32.7821 36.6845 -14.7893 0 0 128
-33.0821 37.8348 -14.7805 0 0 128
-34.7628 18.7517 -0.467504 0 0 193
-34.8928 18.3059 0.450156 0 0 193
-34.5442 20.6812 0.491225 0 0 235
-34.7628 18.7517 -0.467504 0 0 154
-34.7202 19.1837 -1.4406 0 0 154
-35.028 17.6405 -3.4607 0 0 200
-34.6508 19.5799 -2.40999 0 0 200
-34.6526 19.9799 -3.41594 0 0 245
-35.028 17.6405 -3.4607 0 0 156
-35.4972 15.739 -4.67625 0 0 156
-35.8168 18.492 -11.8737 0 0 153
-35.7861 18.0723 -10.8547 0 0 153
-35.8168 18.492 -11.8737 0 0 150
-35.2516 20.4796 -11.6296 0 0 150
-34.7072 23.0699 -13.5673 0 0 147
-34.7545 22.751 -12.5754 0 0 147
-34.1805 24.9124 -13.496 0 0 145
-34.7072 23.0699 -13.5673 0 0 145
-33.7758 26.7365 -13.6289 0 0 178
-34.1805 24.9124 -13.496 0 0 178
-33.8498 26.5218 -12.644 0 0 212
-33.3506 28.455 -13.7477 0 0 206
-33.6812 26.8457 -14.5997 0 0 174
-33.7758 26.7365 -13.6289 0 0 174
-32.5137 34.2244 -15.2604 0 0 152
-32.5381 32.864 -15.7085 0 0 152
-32.6506 32.9683 -14.8511 0 0 173
-32.5137 34.2244 -15.2604 0 0 128
-32.6327 35.3701 -15.0135 0 0 128
3 0 42 40
3 0 44 42
3 0 46 44
3 1 49 47
3 1 51 49
3 3 54 52
3 3 56 54
3 161 57 162
3 161 162 163
3 4 164 166
3 166 165 58
3 164 165 166
3 4 167 168
3 4 169 171
3 169 59 170
3 169 170 171
3 5 62 60
3 5 64 62
3 5 66 64
3 6 69 67
3 6 71 69
3 172 74 173
3 174 173 72
3 172 173 174
3 7 77 75
3 7 79 77
3 7 81 79
3 2 175 176
3 9 84 82
3 9 85 84
3 9 87 85
3 8 90 88
3 8 92 90
3 10 94 93
3 11 177 179
3 177 95 178
3 177 178 179
3 11 96 95
3 12 97 41
3 12 98 97
3 12 100 98
3 14 101 43
3 14 102 101
3 14 104 102
3 16 105 45
3 16 106 105
3 18 110 108
3 20 111 48
3 20 112 111
3 20 114 112
3 22 115 50
3 22 116 115
3 180 118 181
3 24 119 53
3 24 120 119
3 24 121 120
3 25 122 55
3 25 123 122
3 26 182 183
3 26 184 185
3 13 124 99
3 27 125 61
3 27 126 125
3 27 127 126
3 28 128 63
3 28 129 128
3 28 130 129
3 29 131 65
3 29 132 131
3 15 133 103
3 30 134 68
3 30 135 134
3 30 136 135
3 31 137 70
3 31 138 137
3 23 139 117
3 32 140 73
3 32 141 140
3 17 186 188
3 186 142 187
3 186 187 188
3 33 143 76
3 33 144 143
3 33 145 144
3 34 146 78
3 34 147 146
3 34 148 147
3 35 149 80
3 35 150 149
3 189 151 190
3 191 190 107
3 189 190 191
3 36 192 194
3 192 152 193
3 192 193 194
3 36 153 152
3 36 154 153
3 19 195 197
3 197 196 109
3 195 196 197
3 199 198 83
3 38 200 202
3 202 201 86
3 200 201 202
3 38 203 205
3 203 155 204
3 203 204 205
3 21 156 113
3 39 157 89
3 39 158 157
3 39 159 158
3 37 160 91
3 37 206 208
3 208 207 160
3 206 207 208
3 210 209 10
3 211 11 212
3 40 213 215
3 213 41 214
3 213 214 215
3 42 41 40
3 42 12 41
3 42 43 12
3 44 43 42
3 44 14 43
3 44 45 14
3 46 45 44
3 46 16 45
3 47 48 18
3 49 48 47
3 49 20 48
3 49 50 20
3 51 50 49
3 51 22 50
3 52 216 218
3 216 53 217
3 216 217 218
3 54 53 52
3 54 24 53
3 54 55 24
3 56 55 54
3 56 25 55
3 57 219 220
3 57 221 223
3 221 26 222
3 221 222 223
3 58 224 225
3 227 226 58
3 59 228 229
3 59 230 231
3 60 61 13
3 62 61 60
3 62 27 61
3 62 63 27
3 64 63 62
3 64 28 63
3 64 65 28
3 66 65 64
3 66 29 65
3 67 68 15
3 69 68 67
3 69 30 68
3 69 70 30
3 71 70 69
3 71 31 70
3 72 73 23
3 74 73 72
3 74 32 73
3 75 76 17
3 77 76 75
3 77 33 76
3 77 78 33
3 79 78 77
3 79 34 78
3 79 80 34
3 81 80 79
3 81 35 80
3 232 36 233
3 235 234 36
3 82 83 19
3 84 83 82
3 84 236 238
3 238 237 83
3 236 237 238
3 84 239 240
3 85 241 243
3 243 242 84
3 241 242 243
3 85 244 245
3 85 246 248
3 246 86 247
3 246 247 248
3 87 86 85
3 87 38 86
3 88 89 21
3 90 89 88
3 90 39 89
3 90 91 39
3 92 91 90
3 92 37 91
3 93 249 250
3 94 251 253
3 253 252 93
3 251 252 253
3 94 254 255
3 256 94 257
3 258 257 10
3 256 257 258
3 259 94 260
3 262 261 94
3 95 263 264
3 95 265 266
3 95 267 269
3 267 52 268
3 267 268 269
3 96 52 95
3 96 3 52
3 41 270 271
3 97 272 274
3 274 273 41
3 272 273 274
3 97 275 277
3 275 276 277
3 97 278 280
3 278 58 279
3 278 279 280
3 98 58 97
3 98 4 58
3 98 99 4
3 100 99 98
3 100 13 99
3 43 100 12
3 101 100 43
3 101 13 100
3 101 60 13
3 102 60 101
3 102 5 60
3 102 103 5
3 104 103 102
3 104 15 103
3 45 104 14
3 105 104 45
3 105 15 104
3 105 67 15
3 106 67 105
3 106 6 67
3 281 17 282
3 283 17 284
3 285 75 286
3 287 286 17
3 285 286 287
3 288 75 289
3 290 7 291
3 292 291 75
3 290 291 292
3 293 107 294
3 295 294 7
3 293 294 295
3 296 107 297
3 299 298 107
3 108 109 2
3 110 109 108
3 110 19 109
3 48 110 18
3 111 110 48
3 111 19 110
3 111 82 19
3 112 82 111
3 112 9 82
3 112 113 9
3 114 113 112
3 114 21 113
3 50 114 20
3 115 114 50
3 115 21 114
3 115 88 21
3 116 88 115
3 116 8 88
3 300 40 301
3 302 40 303
3 304 0 305
3 306 305 40
3 304 305 306
3 307 117 308
3 309 308 0
3 307 308 309
3 310 117 311
3 312 23 313
3 314 313 117
3 312 313 314
3 315 23 316
3 317 72 318
3 319 318 23
3 317 318 319
3 320 72 321
3 323 322 72
3 118 324 325
3 118 326 328
3 326 2 327
3 326 327 328
3 53 329 330
3 119 331 333
3 333 332 53
3 331 332 333
3 119 334 335
3 119 336 338
3 336 118 337
3 336 337 338
3 120 118 119
3 120 2 118
3 120 108 2
3 121 108 120
3 121 18 108
3 55 121 24
3 122 121 55
3 122 18 121
3 122 47 18
3 123 47 122
3 123 1 47
3 99 59 4
3 124 59 99
3 124 339 341
3 341 340 59
3 339 340 341
3 61 124 13
3 125 124 61
3 125 342 344
3 344 343 124
3 342 343 344
3 125 345 346
3 126 347 349
3 349 348 125
3 347 348 349
3 126 350 351
3 126 352 354
3 352 57 353
3 352 353 354
3 127 57 126
3 127 26 57
3 63 127 27
3 128 127 63
3 128 26 127
3 128 355 357
3 357 356 26
3 355 356 357
3 129 358 360
3 360 359 128
3 358 359 360
3 129 361 362
3 129 363 364
3 130 365 367
3 367 366 129
3 365 366 367
3 130 368 370
3 368 11 369
3 368 369 370
3 65 130 28
3 131 130 65
3 131 11 130
3 131 96 11
3 132 96 131
3 132 3 96
3 103 66 5
3 133 66 103
3 133 29 66
3 68 133 15
3 134 133 68
3 134 29 133
3 134 132 29
3 135 132 134
3 135 3 132
3 135 56 3
3 136 56 135
3 136 25 56
3 70 136 30
3 137 136 70
3 137 25 136
3 137 123 25
3 138 123 137
3 138 1 123
3 117 46 0
3 139 46 117
3 139 16 46
3 73 139 23
3 140 139 73
3 140 16 139
3 140 106 16
3 141 106 140
3 141 6 106
3 371 74 372
3 142 373 375
3 373 74 374
3 373 374 375
3 142 32 74
3 76 142 17
3 143 142 76
3 143 32 142
3 143 141 32
3 144 141 143
3 144 6 141
3 144 71 6
3 145 71 144
3 145 31 71
3 78 145 33
3 146 145 78
3 146 31 145
3 146 138 31
3 147 138 146
3 147 1 138
3 147 51 1
3 148 51 147
3 148 22 51
3 80 148 34
3 149 148 80
3 149 22 148
3 149 116 22
3 150 116 149
3 150 8 116
3 107 81 7
3 151 81 107
3 151 35 81
3 376 151 377
3 152 378 380
3 378 151 379
3 378 379 380
3 152 35 151
3 152 150 35
3 153 150 152
3 153 8 150
3 153 92 8
3 154 92 153
3 154 37 92
3 381 154 382
3 383 382 36
3 381 382 383
3 384 154 385
3 386 37 387
3 388 387 154
3 386 387 388
3 390 389 37
3 109 391 393
3 393 392 2
3 391 392 393
3 395 394 109
3 83 396 398
3 398 397 19
3 396 397 398
3 400 399 83
3 86 401 402
3 404 403 86
3 155 405 406
3 155 407 408
3 113 87 9
3 156 87 113
3 156 38 87
3 89 156 21
3 157 156 89
3 157 38 156
3 157 155 38
3 158 155 157
3 158 409 411
3 411 410 155
3 409 410 411
3 158 412 414
3 412 93 413
3 412 413 414
3 159 93 158
3 159 10 93
3 91 159 39
3 160 159 91
3 160 10 159
3 160 415 417
3 417 416 10
3 415 416 417
3 419 418 160
