ply
format ascii 1.0
element vertex 139
property float x
property float y
property float z
property uchar red
property uchar green
property uchar blue
element face 123
property list uchar int vertex_index
end_header
-28.5545 52.1766 -5.29976 255 234 0
-29.276 48.8808 0.763165 0 8 255
-21.054 53.5815 -6.02229 255 19 0
-25.3393 58.3337 -8.79627 255 52 0
-17.8745 56.2439 -11.2223 255 213 0
-32.4267 52.0319 -1.50556 0 66 255
-25.0977 51.2491 -2.63873 239 255 16
-19.8002 56.1176 -1.77263 0 172 255
-18.0479 55.4016 -5.45985 232 255 23
-19.5049 54.7237 -8.63151 128 0 0
-15.9863 55.5276 -7.99373 122 255 133
-27.0982 49.2306 -1.38731 0 203 255
-23.3454 50.4475 -1.0643 0 184 255
-21.743 52.8211 -2.08488 72 255 183
-32.1576 53.4835 -4.40223 0 162 255
-30.2845 53.1713 -6.86189 145 255 110
-23.3794 58.9508 -11.5322 91 255 164
-27.1454 58.4711 -10.668 0 245 255
-25.0746 53.011 -5.90436 255 69 0
-26.816 54.9348 -7.20607 216 0 0
-23.3632 55.9426 -7.79464 128 0 0
-21.6713 57.8237 -10.1511 176 0 0
-19.6229 59.0859 -12.842 50 255 205
-30.3958 52.6078 -3.28975 24 255 231
-28.9616 50.8414 -2.46877 64 255 191
-26.8893 52.0225 -3.88048 193 255 62
-22.9932 52.1371 -4.13346 255 237 0
-19.995 54.3111 -3.6041 255 225 0
-18.5885 57.8094 -3.72155 0 210 255
-28.7102 57.1034 -8.6026 169 255 86
-16.2173 57.2455 -6.72585 0 0 198
-17.0171 55.4646 -6.72679 0 0 244
-17.2481 57.1825 -5.45891 0 0 198
-23.0546 50.7774 -0.12228 0 0 132
-24.4677 49.5248 -0.357252 0 0 132
-22.2316 52.0891 -0.601768 0 0 132
-23.0546 50.7774 -0.12228 0 0 132
-23.9413 57.6161 -11.6632 0 0 144
-22.2028 58.076 -12.5148 0 0 144
-33.1273 52.8455 -2.01887 0 0 130
-33.8354 52.6338 -0.93243 0 0 130
-31.4113 52.3198 -2.39765 0 0 180
-32.1118 53.1334 -2.91097 0 0 156
-33.1273 52.8455 -2.01887 0 0 156
-30.0285 49.6461 0.018931 0 0 135
-30.6682 49.7982 1.31907 0 0 135
-28.8005 57.6529 -10.7487 0 0 146
-27.4932 56.767 -11.1345 0 0 146
-33.0424 51.9902 -0.439488 0 0 128
-33.8354 52.6338 -0.93243 0 0 128
-26.3441 48.9163 -0.518758 0 0 161
-28.1871 49.0557 -0.312072 0 0 189
-27.433 48.7414 0.556478 0 0 161
-25.2218 49.8391 -1.2258 0 0 193
-26.3441 48.9163 -0.518758 0 0 164
-24.4677 49.5248 -0.357252 0 0 164
-21.4303 53.2759 -1.11206 0 0 157
-22.5442 51.6343 -1.57459 0 0 182
-22.2316 52.0891 -0.601768 0 0 157
-20.4589 54.9241 -0.955937 0 0 160
-20.7716 54.4693 -1.92875 0 0 186
-21.4303 53.2759 -1.11206 0 0 160
-33.0554 53.5697 -5.25425 0 0 135
-33.8222 54.2492 -4.13269 0 0 135
-32.1188 53.4135 -6.48407 0 0 164
-33.0554 53.5697 -5.25425 0 0 164
-31.2211 53.3274 -5.63206 0 0 193
-31.1764 53.9725 -7.75541 0 0 143
-32.1188 53.4135 -6.48407 0 0 143
-25.8244 57.3763 -11.2311 0 0 182
-25.2624 58.711 -11.1001 0 0 219
-23.9413 57.6161 -11.6632 0 0 182
-27.4932 56.767 -11.1345 0 0 148
-25.8244 57.3763 -11.2311 0 0 148
-29.9507 49.2472 2.03756 0 0 132
-30.6682 49.7982 1.31907 0 0 132
-28.6044 48.7195 1.53123 0 0 129
-29.9507 49.2472 2.03756 0 0 129
-27.433 48.7414 0.556478 0 0 130
-28.6044 48.7195 1.53123 0 0 130
-20.3246 58.1435 -13.1697 0 0 170
-22.2028 58.076 -12.5148 0 0 170
-21.5011 59.0183 -12.1871 0 0 202
-32.9927 53.5713 -3.46721 0 0 130
-33.8222 54.2492 -4.13269 0 0 130
-31.2767 53.0457 -3.84599 0 0 169
-32.9927 53.5713 -3.46721 0 0 148
-32.1118 53.1334 -2.91097 0 0 148
-31.6039 51.2216 -1.11543 0 0 129
-33.0424 51.9902 -0.439488 0 0 129
-28.9396 49.821 -1.05631 0 0 167
-30.0285 49.6461 0.018931 0 0 167
-28.1871 49.0557 -0.312072 0 0 197
-29.8713 50.6264 -1.59703 0 0 158
-28.9396 49.821 -1.05631 0 0 158
-28.0299 50.036 -1.92804 0 0 183
-30.6942 51.4366 -1.98717 0 0 176
-31.6039 51.2216 -1.11543 0 0 153
-29.8713 50.6264 -1.59703 0 0 153
-17.5185 58.3864 -4.58976 0 0 173
-17.2481 57.1825 -5.45891 0 0 173
-18.3182 56.6055 -4.5907 0 0 207
-19.8355 56.8392 -0.975542 0 0 132
-20.4589 54.9241 -0.955937 0 0 132
-19.346 57.9754 -2.13495 0 0 134
-19.8355 56.8392 -0.975542 0 0 134
-18.7402 58.8213 -3.10941 0 0 157
-19.1944 56.9635 -2.74709 0 0 183
-19.346 57.9754 -2.13495 0 0 157
-18.1574 59.7451 -4.11837 0 0 133
-18.7402 58.8213 -3.10941 0 0 133
-17.5185 58.3864 -4.58976 0 0 142
-18.1574 59.7451 -4.11837 0 0 142
-30.3893 55.9386 -8.62576 0 0 196
-31.1764 53.9725 -7.75541 0 0 196
-29.4974 55.1373 -7.73224 0 0 241
-29.583 56.9691 -9.71598 0 0 168
-27.9278 57.7872 -9.6353 0 0 199
-28.8005 57.6529 -10.7487 0 0 168
-30.3893 55.9386 -8.62576 0 0 142
-29.583 56.9691 -9.71598 0 0 142
-14.7235 57.0694 -7.90068 0 0 211
-16.2173 57.2455 -6.72585 0 0 211
-14.9545 58.7873 -6.6328 0 0 159
-14.8841 55.6904 -9.51029 0 0 158
-14.7235 57.0694 -7.90068 0 0 158
-15.8282 56.0485 -11.1246 0 0 204
-16.9304 55.8857 -9.608 0 0 253
-14.8841 55.6904 -9.51029 0 0 204
-16.8655 57.2593 -12.4405 0 0 158
-15.8282 56.0485 -11.1246 0 0 158
-17.7397 58.6803 -13.2504 0 0 200
-18.7487 57.6649 -12.0322 0 0 247
-16.8655 57.2593 -12.4405 0 0 200
-18.5025 58.8365 -13.9603 0 0 132
-17.7397 58.6803 -13.2504 0 0 132
-19.2042 57.8942 -14.288 0 0 136
-20.3246 58.1435 -13.1697 0 0 165
-18.5025 58.8365 -13.9603 0 0 165
3 30 10 31
3 32 31 8
3 30 31 32
3 33 12 34
3 36 35 12
3 0 15 14
3 38 37 16
3 2 20 18
3 4 21 9
3 4 22 21
3 5 39 40
3 5 41 43
3 41 23 42
3 41 42 43
3 1 44 45
3 6 24 11
3 6 25 24
3 6 26 25
3 7 27 13
3 7 28 27
3 3 29 19
3 47 46 17
3 8 9 2
3 10 9 8
3 10 4 9
3 48 5 49
3 50 11 51
3 52 51 1
3 50 51 52
3 12 53 55
3 53 11 54
3 53 54 55
3 12 6 11
3 12 13 6
3 56 13 57
3 58 57 12
3 56 57 58
3 59 7 60
3 61 60 13
3 59 60 61
3 14 62 63
3 15 64 66
3 66 65 14
3 64 65 66
3 15 67 68
3 16 17 3
3 69 17 70
3 71 70 16
3 69 70 71
3 73 72 17
3 74 1 75
3 76 1 77
3 79 78 1
3 18 19 0
3 20 19 18
3 20 3 19
3 9 20 2
3 21 20 9
3 21 3 20
3 21 16 3
3 22 16 21
3 22 80 82
3 82 81 16
3 80 81 82
3 83 14 84
3 23 85 87
3 85 14 86
3 85 86 87
3 23 0 14
3 88 5 89
3 11 90 92
3 92 91 1
3 90 91 92
3 24 93 95
3 95 94 11
3 93 94 95
3 24 96 98
3 96 5 97
3 96 97 98
3 24 23 5
3 25 23 24
3 25 0 23
3 25 18 0
3 26 18 25
3 26 2 18
3 13 26 6
3 27 26 13
3 27 2 26
3 27 8 2
3 28 8 27
3 28 99 101
3 101 100 8
3 99 100 101
3 102 7 103
3 104 7 105
3 106 28 107
3 108 107 7
3 106 107 108
3 109 28 110
3 112 111 28
3 19 15 0
3 29 15 19
3 29 113 115
3 115 114 15
3 113 114 115
3 17 29 3
3 116 29 117
3 118 117 17
3 116 117 118
3 120 119 29
3 121 10 122
3 121 122 123
3 124 10 125
3 126 4 127
3 128 127 10
3 126 127 128
3 129 4 130
3 131 22 132
3 133 132 4
3 131 132 133
3 134 22 135
3 138 137 22
3 136 137 138
