ply
format ascii 1.0
element vertex 182
property float x
property float y
property float z
property uchar red
property uchar green
property uchar blue
element face 155
property list uchar int vertex_index
end_header
-11.9181 -55.8569 29.6366 240 255 15
-9.34285 -55.1643 36.8223 0 181 255
-14.8537 -44.6752 36.2811 128 0 0
-11.4391 -55.8756 33.5937 255 253 0
-13.7871 -51.0792 36.5102 255 83 0
-11.219 -54.4878 26.5273 0 235 255
-11.0699 -52.0554 40.0143 5 255 250
-13.4048 -47.0593 40.3537 255 236 0
-11.8124 -55.8846 31.6273 227 0 0
-13.7854 -53.1085 33.0498 255 234 0
-13.8905 -52.8032 30.9846 59 255 196
-11.7194 -55.2 28.0812 83 255 172
-9.42434 -53.6057 40.0558 0 71 255
-10.0658 -53.2293 37.9766 87 255 168
-15.5079 -48.1866 36.6031 205 0 0
-14.3663 -49.277 38.6583 255 52 0
-14.2699 -45.9469 38.4253 172 0 0
-11.6634 -44.0327 40.0321 201 255 54
-12.3918 -42.8118 38.343 253 255 2
-12.6388 -41.5018 36.5474 148 255 107
-10.6855 -55.7497 35.4065 67 255 188
-11.4521 -53.2686 36.4276 255 210 0
-12.8898 -53.2368 34.9325 255 100 0
-14.942 -50.3491 34.5384 255 235 0
-15.8617 -47.0286 34.3508 207 255 48
-14.7008 -43.6619 34.1295 113 255 142
-8.76432 -58.1631 31.8183 51 255 204
-9.01121 -58.3966 29.954 147 255 108
-9.28993 -58.1253 28.3503 96 255 159
-12.459 -51.6651 38.2861 255 181 0
-12.9041 -50.111 40.3095 72 255 183
-10.6189 -45.0688 41.4451 0 179 255
-9.49185 -57.7036 26.6558 109 255 146
-9.34547 -57.1597 24.9737 0 159 255
-9.14471 -56.536 23.4392 0 67 255
-12.4803 -54.2584 29.4855 0 0 177
-13.4665 -52.7316 30.1594 0 0 177
-12.9043 -54.33 30.3106 0 0 211
-11.8187 -55.5285 28.8589 0 0 194
-12.3809 -53.93 28.7078 0 0 166
-12.4803 -54.2584 29.4855 0 0 166
-9.70432 -54.1968 37.3995 0 0 190
-8.89744 -53.9327 38.1126 0 0 163
-8.53597 -54.9003 37.5354 0 0 163
-15.0555 -50.0514 33.4683 0 0 188
-14.3637 -51.7288 33.7941 0 0 227
-14.4772 -51.4312 32.724 0 0 188
-15.5154 -48.3912 33.3745 0 0 187
-15.4018 -48.6888 34.4446 0 0 225
-15.0555 -50.0514 33.4683 0 0 187
-15.4797 -46.6925 33.2587 0 0 151
-15.5154 -48.3912 33.3745 0 0 151
-10.7036 -53.1174 27.0885 0 0 138
-11.5018 -53.2747 27.4323 0 0 138
-10.8373 -54.0866 25.8963 0 0 137
-10.7036 -53.1174 27.0885 0 0 137
-7.80389 -59.6367 30.9783 0 0 146
-7.73127 -59.3555 32.0165 0 0 146
-7.92734 -59.7534 30.0461 0 0 180
-8.88776 -58.2798 30.8861 0 0 215
-7.80389 -59.6367 30.9783 0 0 180
-7.78299 -59.648 29.1041 0 0 145
-7.92734 -59.7534 30.0461 0 0 145
-10.318 -52.0771 40.851 0 0 156
-9.49517 -52.8523 40.8718 0 0 156
-10.2471 -52.8305 40.0351 0 0 179
-11.1722 -51.333 40.9512 0 0 134
-10.318 -52.0771 40.851 0 0 134
-12.8204 -47.5113 41.2353 0 0 177
-12.5701 -49.0372 41.2132 0 0 177
-13.1545 -48.5851 40.3316 0 0 211
-12.0119 -46.0641 40.8994 0 0 230
-11.4275 -46.5161 41.781 0 0 190
-12.8204 -47.5113 41.2353 0 0 190
-9.6604 -43.4071 41.0195 0 0 147
-10.0613 -42.9125 40.4131 0 0 147
-13.4131 -42.031 34.3979 0 0 155
-14.0555 -43.4158 33.262 0 0 155
-7.93415 -59.0295 26.7474 0 0 183
-9.39089 -57.9144 27.5031 0 0 220
-7.83319 -59.2403 27.5946 0 0 183
-7.87327 -58.3717 24.2599 0 0 146
-7.86887 -58.5254 25.102 0 0 146
-7.77289 -58.0599 23.4927 0 0 181
-9.24509 -56.8478 24.2064 0 0 216
-7.87327 -58.3717 24.2599 0 0 181
-14.5298 -51.2785 31.6914 0 0 187
-14.4772 -51.4312 32.724 0 0 187
-13.838 -52.9559 32.0172 0 0 226
-14.08 -51.1017 30.7214 0 0 149
-14.5298 -51.2785 31.6914 0 0 149
-14.08 -51.1017 30.7214 0 0 144
-13.4665 -52.7316 30.1594 0 0 144
-11.752 -53.6308 28.2093 0 0 137
-12.3809 -53.93 28.7078 0 0 137
-11.4692 -54.8439 27.3043 0 0 195
-11.5018 -53.2747 27.4323 0 0 166
-11.752 -53.6308 28.2093 0 0 166
-8.57672 -54.1209 39.1522 0 0 132
-8.75 -54.3689 40.1496 0 0 132
-9.74506 -53.4175 39.0162 0 0 197
-8.57672 -54.1209 39.1522 0 0 168
-8.89744 -53.9327 38.1126 0 0 168
-10.4255 -42.302 39.5685 0 0 203
-10.0613 -42.9125 40.4131 0 0 203
-12.0276 -43.4223 39.1875 0 0 249
-10.7454 -41.7642 38.9429 0 0 148
-10.4255 -42.302 39.5685 0 0 148
-10.8689 -41.1092 38.0451 0 0 207
-10.7454 -41.7642 38.9429 0 0 207
-12.5153 -42.1568 37.4452 0 0 255
-10.8195 -40.4328 37.4498 0 0 154
-10.8689 -41.1092 38.0451 0 0 154
-14.8993 -45.0092 33.148 0 0 193
-15.2812 -45.3452 34.2402 0 0 234
-15.4797 -46.6925 33.2587 0 0 193
-14.0555 -43.4158 33.262 0 0 149
-14.8993 -45.0092 33.148 0 0 149
-8.4942 -56.0232 37.1796 0 0 136
-8.53597 -54.9003 37.5354 0 0 136
-8.80631 -56.4035 36.2643 0 0 137
-8.4942 -56.0232 37.1796 0 0 137
-9.47766 -56.6962 35.5564 0 0 171
-10.0142 -55.457 36.1144 0 0 201
-8.80631 -56.4035 36.2643 0 0 171
-9.63824 -56.8482 34.5757 0 0 143
-9.47766 -56.6962 35.5564 0 0 143
-10.015 -56.9112 33.6693 0 0 180
-11.0623 -55.8127 34.5001 0 0 215
-9.63824 -56.8482 34.5757 0 0 180
-8.67763 -58.0549 32.7816 0 0 143
-7.73127 -59.3555 32.0165 0 0 143
-10.1017 -57.0194 32.706 0 0 219
-10.015 -56.9112 33.6693 0 0 183
-8.67763 -58.0549 32.7816 0 0 183
-7.92235 -59.5124 28.3023 0 0 177
-9.15057 -58.2609 29.1521 0 0 210
-7.78299 -59.648 29.1041 0 0 177
-7.83319 -59.2403 27.5946 0 0 141
-7.92235 -59.5124 28.3023 0 0 141
-9.21406 -53.5046 41.1821 0 0 135
-8.75 -54.3689 40.1496 0 0 135
-9.21406 -53.5046 41.1821 0 0 128
-9.49517 -52.8523 40.8718 0 0 128
-12.0893 -50.3608 41.0988 0 0 165
-11.1722 -51.333 40.9512 0 0 165
-11.987 -51.0832 40.1619 0 0 192
-12.0893 -50.3608 41.0988 0 0 142
-12.5701 -49.0372 41.2132 0 0 142
-10.0431 -45.4814 42.1523 0 0 145
-11.4275 -46.5161 41.781 0 0 145
-8.88467 -44.389 42.2131 0 0 143
-10.0431 -45.4814 42.1523 0 0 143
-9.13816 -43.9252 41.726 0 0 190
-11.1412 -44.5508 40.7386 0 0 230
-9.6604 -43.4071 41.0195 0 0 190
-8.88467 -44.389 42.2131 0 0 139
-9.13816 -43.9252 41.726 0 0 139
-12.3821 -40.951 35.6069 0 0 201
-13.6698 -42.5819 35.3385 0 0 246
-13.4131 -42.031 34.3979 0 0 201
-10.8195 -40.4328 37.4498 0 0 164
-12.3821 -40.951 35.6069 0 0 164
-7.94206 -58.7973 25.9431 0 0 145
-7.93415 -59.0295 26.7474 0 0 145
-9.41866 -57.4316 25.8147 0 0 221
-7.94206 -58.7973 25.9431 0 0 184
-7.86887 -58.5254 25.102 0 0 184
-9.90059 -55.4226 25.1195 0 0 173
-10.8373 -54.0866 25.8963 0 0 173
-10.2822 -55.8237 25.7505 0 0 204
-9.80021 -55.1107 24.3523 0 0 173
-9.90059 -55.4226 25.1195 0 0 173
-9.24509 -56.8478 24.2064 0 0 204
-9.24773 -54.6284 23.9108 0 0 143
-9.80021 -55.1107 24.3523 0 0 143
-7.65102 -57.9364 22.5646 0 0 151
-7.77289 -58.0599 23.4927 0 0 151
-9.01137 -56.265 22.681 0 0 147
-7.65102 -57.9364 22.5646 0 0 147
-9.24773 -54.6284 23.9108 0 0 144
-9.01137 -56.265 22.681 0 0 144
3 0 10 8
3 0 35 37
3 37 36 10
3 35 36 37
3 0 38 40
3 38 11 39
3 38 39 40
3 1 41 43
3 41 13 42
3 41 42 43
3 2 16 14
3 2 18 16
3 2 19 18
3 3 22 20
3 44 23 45
3 46 45 9
3 44 45 46
3 47 24 48
3 49 48 23
3 47 48 49
3 51 50 24
3 5 52 53
3 5 54 55
3 56 26 57
3 58 27 59
3 60 59 26
3 58 59 60
3 62 61 27
3 6 63 65
3 65 64 12
3 63 64 65
3 6 66 67
3 4 29 21
3 7 30 15
3 7 68 70
3 70 69 30
3 68 69 70
3 7 71 73
3 71 31 72
3 71 72 73
3 75 74 17
3 77 76 25
3 78 32 79
3 80 79 28
3 78 79 80
3 81 33 82
3 83 34 84
3 85 84 33
3 83 84 85
3 8 9 3
3 10 9 8
3 10 86 88
3 88 87 9
3 86 87 88
3 10 89 90
3 92 91 10
3 11 93 94
3 11 95 97
3 95 5 96
3 95 96 97
3 98 12 99
3 13 100 102
3 100 12 101
3 100 101 102
3 13 6 12
3 14 15 4
3 16 15 14
3 16 7 15
3 16 17 7
3 18 17 16
3 18 103 105
3 105 104 17
3 103 104 105
3 18 106 107
3 19 108 110
3 110 109 18
3 108 109 110
3 19 111 112
3 20 21 1
3 22 21 20
3 22 4 21
3 9 22 3
3 23 22 9
3 23 4 22
3 23 14 4
3 24 14 23
3 24 2 14
3 24 25 2
3 113 25 114
3 115 114 24
3 113 114 115
3 117 116 25
3 118 1 119
3 120 1 121
3 122 20 123
3 124 123 1
3 122 123 124
3 125 20 126
3 127 3 128
3 129 128 20
3 127 128 129
3 26 130 131
3 26 132 134
3 132 3 133
3 132 133 134
3 26 8 3
3 27 8 26
3 27 0 8
3 27 28 0
3 135 28 136
3 137 136 27
3 135 136 137
3 139 138 28
3 12 140 141
3 143 142 12
3 21 13 1
3 29 13 21
3 29 6 13
3 15 29 4
3 30 29 15
3 30 6 29
3 30 144 146
3 146 145 6
3 144 145 146
3 148 147 30
3 31 149 150
3 31 151 152
3 17 31 7
3 153 31 154
3 155 154 17
3 153 154 155
3 157 156 31
3 25 19 2
3 158 19 159
3 160 159 25
3 158 159 160
3 162 161 19
3 28 11 0
3 32 11 28
3 32 5 11
3 163 32 164
3 33 165 167
3 165 32 166
3 165 166 167
3 33 5 32
3 33 168 170
3 170 169 5
3 168 169 170
3 34 171 173
3 173 172 33
3 171 172 173
3 34 174 175
3 176 34 177
3 178 34 179
3 181 180 34
