ply
format ascii 1.0
element vertex 175
property float x
property float y
property float z
property uchar red
property uchar green
property uchar blue
element face 159
property list uchar int vertex_index
end_header
-32.0168 22.7136 -15.4026 195 0 0
-25.0574 16.5349 -15.8004 173 255 82
-33.3636 21.4108 -19.7062 230 255 25
-27.5251 20.5119 -15.928 253 0 0
-29.4618 18.4437 -21.357 255 119 0
-36.7414 24.8947 -13.027 0 230 255
-37.5268 23.4356 -16.9939 221 255 34
-33.971 26.602 -18.6406 255 177 0
-26.0685 14.7927 -20.9347 83 255 172
-32.1384 21.7883 -20.8223 82 255 173
-31.3781 19.9889 -20.6081 255 213 0
-30.4221 20.0207 -22.0453 0 205 255
-39.9442 24.195 -15.7487 0 153 255
-38.4711 25.0072 -17.1686 0 170 255
-36.3982 24.3701 -18.448 138 255 117
-30.6702 23.7729 -13.3589 104 255 151
-28.3035 22.4686 -13.5632 185 255 70
-25.8797 18.8225 -16.0244 249 0 0
-25.4455 18.7938 -13.5228 216 255 39
-25.5739 16.2494 -13.466 26 255 229
-25.2483 16.2019 -23.0041 0 116 255
-26.8055 15.7295 -23.3051 48 255 207
-25.3305 13.9934 -22.1776 0 131 255
-33.1506 21.6986 -17.5673 255 67 0
-29.6378 21.7532 -15.8139 226 0 0
-30.96 20.7799 -18.2306 254 0 0
-28.7282 19.6622 -18.5688 170 0 0
-26.8841 18.1699 -18.7511 128 0 0
-34.3244 23.8818 -14.1748 255 179 0
-37.6706 23.7656 -14.9748 210 255 45
-35.2133 22.8385 -16.1184 255 93 0
-35.4839 22.4275 -18.1645 231 255 24
-34.4341 23.2098 -19.5109 255 130 0
-32.2061 24.5778 -19.3553 255 170 0
-30.7424 28.1877 -17.4008 143 255 112
-26.444 20.7938 -13.5986 221 255 34
-25.8855 18.2326 -11.1369 0 157 255
-28.5561 18.0318 -22.9733 0 224 255
-27.6217 16.6921 -21.6207 255 50 0
-25.448 16.122 -18.4229 241 255 14
-30.1333 21.4 -21.2822 0 0 185
-31.2803 20.9045 -21.4338 0 0 224
-30.9914 22.2838 -20.6707 0 0 185
-38.2349 25.9873 -16.5454 0 0 144
-39.5832 25.341 -16.3906 0 0 144
-37.1138 26.0562 -17.3561 0 0 146
-38.2349 25.9873 -16.5454 0 0 146
-26.0135 15.1394 -14.7644 0 0 187
-26.2717 14.9967 -13.5973 0 0 187
-25.3157 16.3922 -14.6332 0 0 227
-24.5592 14.0384 -22.045 0 0 151
-25.2894 15.0976 -22.5908 0 0 172
-24.5181 15.1426 -22.4582 0 0 151
-34.7262 24.9896 -12.6308 0 0 156
-35.5974 25.5475 -11.9688 0 0 156
-35.5329 24.3882 -13.6009 0 0 246
-33.5177 24.4831 -13.2047 0 0 200
-34.7262 24.9896 -12.6308 0 0 200
-29.0341 28.2948 -16.2458 0 0 167
-29.8573 29.195 -15.8239 0 0 167
-29.8825 27.0965 -17.9182 0 0 177
-29.0341 28.2948 -16.2458 0 0 177
-26.3355 17.0212 -11.3185 0 0 182
-25.6655 18.5132 -12.3298 0 0 220
-26.1155 17.3017 -12.5114 0 0 182
-27.1723 16.7568 -10.4774 0 0 142
-26.3355 17.0212 -11.3185 0 0 142
-27.6719 18.1741 -22.9467 0 0 138
-28.4297 19.3947 -22.4319 0 0 138
-37.5285 25.3289 -12.3279 0 0 152
-35.5974 25.5475 -11.9688 0 0 152
-40.3198 24.9349 -15.6806 0 0 128
-41.0517 24.615 -15.0427 0 0 128
-39.2076 24.6011 -16.4587 0 0 171
-40.3198 24.9349 -15.6806 0 0 150
-39.5832 25.341 -16.3906 0 0 150
-36.0774 25.7377 -17.9958 0 0 192
-37.4346 24.6886 -17.8083 0 0 234
-37.1138 26.0562 -17.3561 0 0 192
-34.8638 26.8536 -18.0921 0 0 180
-35.1846 25.4861 -18.5443 0 0 216
-36.0774 25.7377 -17.9958 0 0 180
-28.8019 23.243 -12.3291 0 0 148
-29.714 24.104 -12.3281 0 0 148
-27.6185 22.5909 -12.4312 0 0 186
-28.8019 23.243 -12.3291 0 0 186
-29.4869 23.1207 -13.461 0 0 225
-27.1539 21.5101 -12.3763 0 0 144
-27.6185 22.5909 -12.4312 0 0 144
-26.1797 16.0296 -12.4831 0 0 175
-26.1155 17.3017 -12.5114 0 0 175
-25.5097 17.5216 -13.4944 0 0 209
-27.0127 14.8559 -12.9821 0 0 149
-26.1797 16.0296 -12.4831 0 0 149
-27.0127 14.8559 -12.9821 0 0 137
-26.2717 14.9967 -13.5973 0 0 137
-26.0269 15.9657 -23.1546 0 0 179
-26.7965 17.0229 -23.1126 0 0 155
-26.018 17.2591 -22.9621 0 0 155
-24.9688 17.6744 -21.9624 0 0 153
-26.018 17.2591 -22.9621 0 0 153
-24.2943 16.4758 -21.9782 0 0 153
-24.9688 17.6744 -21.9624 0 0 153
-24.5181 15.1426 -22.4582 0 0 148
-24.2943 16.4758 -21.9782 0 0 148
-31.6906 24.4287 -12.7968 0 0 152
-29.714 24.104 -12.3281 0 0 152
-32.4973 23.8273 -13.7668 0 0 237
-31.6906 24.4287 -12.7968 0 0 194
-33.5177 24.4831 -13.2047 0 0 194
-38.4339 24.7186 -13.3964 0 0 148
-37.5285 25.3289 -12.3279 0 0 148
-40.0353 24.3687 -14.7572 0 0 133
-41.0517 24.615 -15.0427 0 0 133
-38.8985 24.154 -14.3703 0 0 164
-40.0353 24.3687 -14.7572 0 0 164
-38.8074 23.9803 -15.3617 0 0 192
-37.206 24.3301 -14.0009 0 0 227
-38.4339 24.7186 -13.3964 0 0 187
-38.8985 24.154 -14.3703 0 0 187
-31.0253 23.6786 -19.9372 0 0 193
-30.9914 22.2838 -20.6707 0 0 193
-32.1723 23.183 -20.0888 0 0 235
-33.2306 28.2573 -17.6127 0 0 159
-34.8638 26.8536 -18.0921 0 0 159
-31.6163 29.0502 -16.9928 0 0 167
-29.8573 29.195 -15.8239 0 0 167
-32.3567 27.3949 -18.0207 0 20 255
-33.2306 28.2573 -17.6127 0 0 220
-31.6163 29.0502 -16.9928 0 0 220
-30.6144 25.2916 -18.8955 0 0 230
-31.4743 26.3828 -18.378 0 37 255
-29.8825 27.0965 -17.9182 0 0 230
-31.0253 23.6786 -19.9372 0 0 171
-30.6144 25.2916 -18.8955 0 0 171
-26.2241 20.6727 -12.394 0 0 178
-27.1539 21.5101 -12.3763 0 0 178
-27.3738 21.6312 -13.5809 0 0 213
-25.9449 19.3921 -11.1631 0 0 173
-26.2241 20.6727 -12.394 0 0 173
-26.1648 19.5132 -12.3678 0 0 206
-26.5165 17.8231 -10.0646 0 0 175
-26.5758 18.9826 -10.0908 0 0 141
-25.9449 19.3921 -11.1631 0 0 175
-26.5165 17.8231 -10.0646 0 0 147
-27.1723 16.7568 -10.4774 0 0 147
-29.3627 20.3891 -21.9679 0 0 144
-30.1333 21.4 -21.2822 0 0 144
-29.4891 19.0262 -22.5093 0 0 213
-29.3627 20.3891 -21.9679 0 0 178
-28.4297 19.3947 -22.4319 0 0 178
-27.6808 16.8806 -23.1392 0 0 188
-27.6719 18.1741 -22.9467 0 0 161
-26.7965 17.0229 -23.1126 0 0 161
-24.7921 13.0731 -21.1051 0 0 157
-24.5592 14.0384 -22.045 0 0 157
-24.0209 13.1181 -20.9725 0 0 133
-25.1825 13.4013 -20.6679 0 0 155
-24.7921 13.0731 -21.1051 0 0 155
-24.6442 12.481 -19.5954 0 0 131
-25.5515 13.801 -20.0464 0 0 162
-25.6995 14.3931 -21.5561 0 0 190
-25.1825 13.4013 -20.6679 0 0 162
-25.5979 14.1833 -19.1547 0 0 139
-25.5515 13.801 -20.0464 0 0 139
-25.2876 14.848 -17.8989 0 0 201
-25.7583 15.4574 -19.6788 0 0 247
-25.5979 14.1833 -19.1547 0 0 201
-25.6225 14.9502 -16.8808 0 0 141
-25.2876 14.848 -17.8989 0 0 141
-25.4272 15.1567 -15.5695 0 0 198
-25.2527 16.3284 -17.1117 0 0 242
-25.6225 14.9502 -16.8808 0 0 198
-26.0135 15.1394 -14.7644 0 0 140
-25.4272 15.1567 -15.5695 0 0 140
3 40 11 41
3 42 41 9
3 40 41 42
3 43 13 44
3 46 45 13
3 0 16 15
3 1 19 17
3 1 47 49
3 49 48 19
3 47 48 49
3 50 22 51
3 52 51 20
3 50 51 52
3 2 25 23
3 4 26 10
3 4 27 26
3 5 53 54
3 5 55 57
3 55 28 56
3 55 56 57
3 6 29 12
3 6 30 29
3 6 31 30
3 7 32 14
3 7 33 32
3 58 34 59
3 61 60 34
3 3 35 24
3 62 36 63
3 64 63 18
3 62 63 64
3 66 65 36
3 67 37 68
3 8 38 21
3 8 39 38
3 9 10 2
3 11 10 9
3 11 4 10
3 69 5 70
3 71 12 72
3 13 73 75
3 73 12 74
3 73 74 75
3 13 6 12
3 13 14 6
3 76 14 77
3 78 77 13
3 76 77 78
3 79 7 80
3 81 80 14
3 79 80 81
3 15 82 83
3 16 84 86
3 86 85 15
3 84 85 86
3 16 87 88
3 17 18 3
3 19 18 17
3 19 89 91
3 91 90 18
3 89 90 91
3 19 92 93
3 95 94 19
3 20 96 98
3 96 21 97
3 96 97 98
3 22 21 20
3 22 8 21
3 23 24 0
3 25 24 23
3 25 3 24
3 10 25 2
3 26 25 10
3 26 3 25
3 26 17 3
3 27 17 26
3 27 1 17
3 99 20 100
3 101 20 102
3 104 103 20
3 105 15 106
3 28 107 109
3 107 15 108
3 107 108 109
3 28 0 15
3 110 5 111
3 12 112 113
3 29 114 116
3 116 115 12
3 114 115 116
3 29 117 119
3 117 5 118
3 117 118 119
3 29 28 5
3 30 28 29
3 30 0 28
3 30 23 0
3 31 23 30
3 31 2 23
3 14 31 6
3 32 31 14
3 32 2 31
3 32 9 2
3 33 9 32
3 33 120 122
3 122 121 9
3 120 121 122
3 123 7 124
3 34 125 126
3 34 127 129
3 127 7 128
3 127 128 129
3 34 33 7
3 130 33 131
3 132 131 34
3 130 131 132
3 134 133 33
3 24 16 0
3 35 16 24
3 35 135 137
3 137 136 16
3 135 136 137
3 18 35 3
3 36 35 18
3 36 138 140
3 140 139 35
3 138 139 140
3 36 141 143
3 141 142 143
3 145 144 36
3 146 11 147
3 37 148 150
3 148 11 149
3 148 149 150
3 37 4 11
3 21 151 153
3 151 37 152
3 151 152 153
3 38 37 21
3 38 4 37
3 38 27 4
3 39 27 38
3 39 1 27
3 154 22 155
3 154 155 156
3 157 22 158
3 157 158 159
3 160 8 161
3 162 161 22
3 160 161 162
3 163 8 164
3 165 39 166
3 167 166 8
3 165 166 167
3 168 39 169
3 170 1 171
3 172 171 39
3 170 171 172
3 174 173 1
