ply
format ascii 1.0
element vertex 935
property float x
property float y
property float z
element face 1197
property list uchar int vertex_index
end_header
19.8595 -25.27 -38.7808
18.888 -24.2806 -37.6826
23.8314 -27.2962 -41.4142
22.3949 -27.4661 -42.2173
21.1763 -27.6232 -42.139
20.4991 -26.7272 -41.1465
19.5756 -25.828 -40.3219
21.7551 -26.82 -42.8073
21.0372 -26.8125 -42.3065
20.8209 -26.5694 -41.8971
15.7759 -23.2255 -33.8121
15.4506 -22.3199 -32.3497
16.515 -23.697 -35.644
18.8126 -23.9159 -38.4603
17.8634 -23.5739 -37.1098
25.8181 -26.1228 -42.1639
25.4355 -26.0871 -42.076
25.2289 -25.5015 -41.2394
24.7796 -25.7521 -40.8895
23.82 -25.7383 -42.1541
22.5789 -26.4502 -42.714
19.9066 -25.6317 -40.8519
18.9869 -24.8126 -39.9889
26.0323 -25.2171 -42.4476
25.963 -26.2263 -42.2896
23.8088 -24.8772 -42.8993
22.7265 -25.4215 -43.5336
21.501 -26.0705 -43.1556
20.6399 -25.7306 -41.9782
19.5073 -24.7525 -40.9325
26.0663 -25.3577 -42.6722
26.0939 -26.4681 -42.4552
22.4473 -24.5355 -44.2028
21.9631 -24.9196 -43.8122
21.4868 -25.1201 -42.7651
26.3457 -25.5772 -43.056
26.3263 -26.5423 -42.708
26.4715 -25.9749 -43.6973
26.5672 -26.4937 -43.0326
15.5439 -22.7186 -34.7468
14.8998 -22.0282 -33.3138
15.9639 -22.5768 -36.132
14.8302 -22.0709 -34.8015
18.5368 -23.6435 -39.3269
17.5515 -22.7921 -38.3068
26.1652 -24.4496 -42.1859
26.0411 -24.5723 -42.0484
25.8002 -24.4466 -41.7311
25.4028 -24.3431 -41.5769
24.7421 -24.5253 -41.4388
18.1028 -23.5245 -40.2881
17.2312 -22.6596 -39.5871
26.3641 -23.8107 -42.3616
26.3068 -24.0291 -42.1949
25.0921 -23.6461 -41.8097
24.3095 -23.8027 -42.0979
23.7381 -24.3934 -43.4479
20.7469 -24.7661 -42.5246
19.8699 -23.8699 -41.7494
26.503 -24.0544 -42.7271
23.8664 -23.2556 -42.7372
23.0395 -23.8072 -44.1146
22.0841 -23.7867 -44.4599
21.1202 -24.0053 -43.3121
20.3528 -23.2707 -42.5093
26.2821 -24.5845 -43.4907
21.9809 -23.0056 -44.1112
22.0347 -23.054 -44.5973
26.4095 -24.9305 -43.9795
14.7505 -21.4563 -35.6361
14.5398 -21.0025 -34.066
15.7768 -21.6463 -37.1014
26.4382 -23.3496 -42.2646
26.2727 -23.232 -42.1295
25.8666 -23.2897 -41.9398
25.5102 -23.3849 -41.8756
17.0793 -22.2634 -40.2784
16.6378 -21.7531 -38.8437
26.7892 -21.9835 -41.962
26.5109 -22.435 -42.0286
26.6198 -22.1099 -42.2217
26.3133 -22.1316 -42.3521
25.2852 -22.4148 -42.3648
24.3463 -22.8505 -42.3909
18.0216 -22.4077 -41.2388
26.5665 -22.3307 -42.2857
24.7727 -21.4936 -42.8187
23.8801 -22.2256 -42.9041
23.0502 -22.5019 -44.4049
21.5788 -23.1747 -44.0331
20.6607 -22.531 -43.0006
19.4385 -22.8081 -42.1909
26.7879 -22.7535 -42.8787
22.2735 -22.4352 -44.6814
21.9126 -22.6855 -44.4991
21.4044 -22.5088 -43.8346
26.7768 -23.217 -43.5593
14.7054 -19.3508 -33.0285
14.8778 -20.8865 -36.3463
14.3236 -19.8704 -35.135
15.5638 -20.1532 -37.4445
14.9137 -19.0553 -36.0741
16.945 -21.7407 -40.8882
17.1565 -20.6096 -39.8446
27.4336 -20.0763 -41.4468
27.2113 -20.625 -41.6408
26.9619 -20.822 -41.8971
26.6954 -20.8704 -42.2367
26.1594 -20.9208 -42.5773
16.9171 -20.9954 -41.3864
17.1364 -20.4361 -40.642
27.271 -20.6444 -41.8731
25.3354 -20.7963 -42.8765
24.2339 -20.7494 -43.36
23.4568 -21.5572 -43.4472
20.2571 -21.7062 -42.947
19.0405 -21.5886 -42.4381
27.1704 -21.1211 -42.414
23.5997 -20.1463 -43.7715
22.8144 -20.9784 -43.895
21.7358 -21.399 -44.5481
20.9195 -21.5885 -43.6774
20.0662 -21.3186 -42.9523
27.1038 -21.5114 -42.9473
26.9593 -21.8212 -43.5078
13.8093 -18.0338 -33.3827
14.7176 -18.4824 -36.9483
14.1248 -18.1333 -35.1436
15.8441 -19.1898 -38.7872
27.54 -19.2525 -41.267
27.5373 -19.0082 -41.2328
27.2755 -19.4134 -41.4872
26.9377 -19.5844 -41.805
26.5524 -19.6657 -42.2735
16.7551 -19.3542 -41.2885
16.5789 -19.8891 -40.3688
27.5535 -19.011 -41.3073
27.6781 -18.8053 -41.1928
25.9337 -19.6795 -42.7838
25.187 -19.6746 -43.5081
17.8194 -20.0896 -42.3605
27.8315 -19.7475 -41.9522
24.2062 -19.528 -43.992
22.983 -19.5011 -44.1543
21.724 -19.9473 -44.9081
20.7397 -20.1527 -44.1837
19.6931 -20.5629 -43.054
27.6667 -20.3232 -42.4597
27.4862 -20.3895 -42.9305
13.8409 -15.9967 -32.1687
14.2071 -16.5264 -35.6738
13.3415 -16.8166 -33.9512
15.2587 -17.5066 -37.9728
27.6651 -17.8315 -41.299
27.7065 -18.1654 -41.5913
27.4015 -18.3711 -41.7283
26.9484 -18.5446 -42.1357
16.3861 -17.7894 -41.0252
16.0558 -18.4706 -39.8286
27.8719 -17.98 -41.3429
27.8529 -18.2143 -41.2551
26.5606 -18.5973 -42.8085
25.7997 -18.6668 -43.3711
17.0392 -18.7255 -42.3149
27.823 -18.4376 -41.5902
24.8589 -18.6696 -44.0307
23.7453 -18.5834 -44.7208
22.0526 -18.327 -44.9614
20.6303 -18.5519 -44.6449
18.9133 -18.8647 -43.2828
27.2564 -19.0907 -41.9801
21.292 -17.6732 -45.7619
21.0174 -17.8927 -45.605
27.2134 -19.1352 -42.8391
13.6919 -13.9134 -31.5435
13.8258 -14.3751 -35.1147
13.3252 -15.0518 -33.6028
16.0091 -15.2603 -38.834
15.158 -15.2503 -37.2244
27.4983 -17.3273 -41.2896
27.5107 -17.5196 -41.3906
27.3973 -17.5758 -41.6175
27.1523 -17.6552 -41.9753
16.1551 -16.0747 -40.4371
16.0164 -16.7688 -39.1861
27.7185 -17.3426 -41.1245
27.5199 -17.2046 -41.0773
27.2758 -16.9526 -41.236
27.2736 -17.1341 -41.4096
26.6786 -17.6535 -42.5087
26.1427 -17.7629 -43.1096
17.0596 -17.0409 -42.3483
27.4051 -17.5483 -41.6496
25.3893 -17.8092 -43.6889
24.266 -17.7308 -44.3676
23.0749 -17.5508 -45.2067
20.4556 -17.4325 -45.058
19.0528 -17.1096 -43.9258
27.1112 -17.7096 -42.0753
21.7131 -17.3156 -45.8538
20.7671 -17.14 -45.9446
19.8942 -16.7025 -45.1453
14.3425 -12.7816 -35.635
13.9748 -12.8879 -33.4022
16.0769 -14.6407 -39.5587
15.3956 -13.3864 -37.9188
27.1555 -17.0399 -41.5985
27.1359 -17.2703 -41.7437
16.6349 -14.8618 -40.9982
15.9535 -13.4692 -39.474
27.1858 -16.644 -41.1484
27.1233 -16.4266 -41.0531
26.9554 -16.2534 -41.0801
26.8728 -16.4733 -41.3386
26.6923 -16.7944 -42.0148
26.0744 -16.7231 -42.937
25.5645 -16.1634 -43.3036
17.0274 -15.6236 -43.2401
27.0759 -16.7022 -41.4868
25.7485 -17.2391 -43.3655
25.0633 -16.6988 -43.8045
23.814 -16.689 -44.8995
18.8035 -15.7582 -44.3125
26.7558 -16.4112 -41.9964
26.6846 -15.6111 -42.1178
22.4452 -16.4688 -45.445
21.0225 -16.3674 -46.2607
19.9942 -15.9947 -45.6746
26.4588 -16.7222 -42.4011
15.6953 -10.7425 -35.4865
14.4431 -11.562 -34.2681
15.7908 -11.9917 -38.4479
16.3001 -14.0136 -42.1929
16.1228 -13.0213 -40.302
27.2001 -16.0915 -41.3316
26.9567 -15.5964 -41.2536
26.8661 -15.3807 -41.1784
26.7651 -15.5561 -41.312
26.592 -15.6768 -41.7999
26.2321 -15.668 -42.5225
25.7468 -15.852 -43.004
17.1836 -14.5065 -43.8048
27.1352 -15.6235 -41.553
26.9485 -15.186 -41.3953
25.8141 -15.3152 -43.1244
25.2722 -15.6003 -43.8145
24.5327 -16.0119 -44.721
18.8729 -14.794 -44.7944
27.0075 -15.2788 -41.9384
26.7276 -14.9716 -42.3694
24.5928 -15.3685 -44.9412
23.5335 -15.5437 -45.3931
21.7239 -15.3648 -45.9859
19.9525 -15.1744 -46.1364
26.4421 -14.7325 -42.8438
16.6336 -10.8224 -37.5878
16.2824 -12.572 -41.0637
15.8489 -11.6496 -39.6301
27.1674 -14.7556 -41.4619
26.9536 -14.8077 -41.4372
26.774 -14.8388 -41.7849
26.6209 -14.8047 -42.5191
26.2148 -14.9202 -42.9962
16.4581 -13.1688 -42.7654
27.2261 -15.0886 -41.4866
27.2259 -14.5589 -41.6033
26.295 -14.4326 -43.1719
25.7638 -14.6512 -43.8912
25.0108 -14.8968 -44.5482
17.5048 -13.5842 -44.184
27.1947 -14.9474 -41.6921
27.005 -14.3636 -42.1445
25.1108 -14.3636 -44.8089
24.2329 -14.6064 -45.3898
22.6614 -14.5401 -46.0835
20.2808 -14.0168 -46.0282
18.7828 -14.039 -45.4179
26.7056 -14.0587 -42.773
15.7894 -11.6597 -40.4412
16.2146 -10.98 -39.6379
27.2217 -14.2702 -41.6548
27.1387 -14.2519 -41.9092
26.9147 -14.1803 -42.3593
26.5605 -14.049 -42.9301
16.2573 -12.0266 -41.3578
16.123 -11.4346 -41.3353
27.2339 -13.9189 -41.7032
26.1817 -13.9632 -43.7422
25.5395 -13.8461 -44.5535
16.6826 -12.4189 -42.9386
17.443 -11.9882 -42.4303
27.1619 -13.5962 -42.1847
24.7163 -13.7678 -45.4161
23.4984 -13.7138 -46.0389
21.629 -13.5046 -46.1051
19.6948 -12.9269 -45.9636
18.3572 -12.5702 -44.1428
17.0907 -11.9351 -43.328
26.9325 -13.3832 -42.7949
22.3607 -13.1628 -46.4124
20.7591 -12.6463 -45.9161
19.0478 -12.1472 -45.1711
18.7672 -11.9764 -43.9242
26.5737 -13.1669 -43.4058
27.1929 -13.8777 -41.9381
27.0492 -13.7223 -42.3057
26.8083 -13.6148 -42.8297
26.392 -13.576 -43.3956
27.051 -13.3779 -42.268
26.8314 -13.1546 -42.7842
26.483 -13.0855 -43.4602
26.0828 -13.2725 -44.3301
25.2511 -13.1868 -45.261
26.9883 -13.0532 -42.4269
24.4193 -13.1534 -46.1841
23.3402 -13.1467 -46.6152
16.9283 -11.5439 -42.943
26.9408 -12.7769 -42.8928
23.6104 -12.8204 -46.7522
21.8491 -12.4742 -46.4116
19.7708 -11.7634 -45.4163
18.2511 -11.1934 -43.5546
18.4536 -11.8567 -43.52
26.6896 -12.6048 -43.4893
26.9186 -12.7656 -42.8294
26.7185 -12.5013 -43.4955
26.3343 -12.6141 -44.2726
25.6242 -12.5739 -45.2566
24.9554 -12.8165 -45.784
26.8166 -12.3706 -43.2797
26.7451 -12.4593 -43.0798
25.201 -12.3157 -45.7631
24.5644 -12.5767 -46.3413
26.7843 -12.153 -43.7151
22.5916 -12.1434 -46.5483
20.3798 -11.5751 -45.9918
19.0779 -10.7013 -44.2725
17.5896 -10.2005 -43.5434
26.5685 -11.9966 -44.3535
26.7417 -12.1698 -43.7641
26.5374 -12.2381 -44.1765
26.1986 -12.29 -44.8251
26.8238 -12.0484 -43.7346
26.6338 -12.0682 -43.9629
26.178 -11.9948 -44.8408
25.7013 -12.2054 -45.5664
24.9262 -12.2591 -46.2337
26.6809 -11.8434 -44.0804
26.4559 -11.7483 -44.6941
25.8178 -12.0055 -45.6953
24.9867 -12.007 -46.2214
23.6122 -12.0977 -46.9137
21.2986 -11.535 -46.4541
18.8964 -10.6569 -45.1513
17.0095 -9.60032 -42.9943
26.5359 -11.6768 -44.5878
22.0567 -11.5248 -46.8391
20.2943 -10.9945 -46.3366
18.4901 -10.0465 -45.6091
26.291 -11.584 -45.3107
17.991 -7.68936 -36.6412
16.7412 -7.21195 -39.4459
26.1658 -11.7999 -44.9973
25.9343 -11.8229 -45.3005
16.2045 -7.58596 -41.6149
26.3336 -11.5734 -45.0048
26.0812 -11.6912 -45.5632
25.4121 -11.8306 -46.052
24.0105 -11.8986 -46.9178
22.9789 -11.5942 -46.8624
16.6513 -9.06672 -43.9378
16.2582 -8.56869 -42.4147
26.1818 -11.4417 -45.4892
25.7691 -11.3768 -45.9828
25.17 -11.5924 -46.3995
24.1422 -11.6899 -46.9314
21.9244 -11.2429 -46.9706
19.0419 -10.7084 -46.4716
17.3817 -9.74087 -45.7297
25.8123 -11.1819 -46.3165
25.8738 -11.1357 -45.9884
20.946 -10.8497 -47.1511
19.6259 -10.4243 -46.8377
18.4296 -9.82128 -46.2955
17.6398 -5.73826 -37.7416
17.0865 -5.92338 -40.2175
16.8062 -6.75478 -42.5882
25.3038 -11.1917 -46.5568
24.9259 -11.3872 -46.7766
24.0531 -11.5537 -47.1394
23.1907 -11.5169 -47.2003
16.6613 -8.14908 -44.7316
25.7199 -10.975 -46.5335
25.4851 -11.0363 -46.5752
24.8161 -11.1698 -47.1716
23.7756 -11.2828 -47.4129
22.1319 -11.2024 -47.4141
19.751 -10.5351 -47.2771
17.3018 -9.52244 -46.4889
25.5063 -10.7983 -46.9297
24.7941 -10.816 -47.713
23.7944 -11.1674 -47.9809
22.2944 -11.283 -48.1363
20.442 -10.8322 -48.0062
18.2728 -9.41805 -47.5601
16.8739 -8.04559 -46.6237
25.3425 -10.3461 -47.9062
24.6719 -10.2637 -48.9648
21.0392 -10.9584 -48.6416
19.4374 -10.3056 -48.6777
17.5404 -9.07291 -48.4868
19.7016 -3.70953 -39.2458
18.959 -4.18986 -38.6935
19.2938 -3.51968 -39.835
17.7473 -4.45493 -41.146
17.476 -5.66196 -43.5537
16.6889 -7.30542 -45.6023
23.7757 -10.9413 -48.9522
22.6031 -11.6256 -49.0224
21.7692 -11.2875 -48.8524
16.4135 -7.20019 -47.1939
16.2055 -7.30213 -46.3765
23.9188 -10.5557 -50.2664
22.6792 -11.2308 -50.1607
21.0467 -10.7187 -49.5892
19.0796 -8.93213 -49.3229
16.978 -7.44279 -48.868
22.9256 -10.9277 -51.7005
21.6075 -10.4203 -51.3135
19.991 -8.98681 -50.7958
21.7153 -10.4893 -53.1784
19.2817 -1.95004 -33.8227
19.67 -2.13158 -35.8186
20.4324 -1.73492 -38.1523
19.8297 -2.32732 -37.4415
18.9924 -3.0243 -36.8566
20.2709 -1.71103 -39.4782
19.9591 -2.98657 -38.9738
19.2378 -2.98653 -37.9805
20.3769 -1.57967 -40.3672
19.9491 -3.1639 -40.9797
17.8941 -3.76656 -42.2395
18.5117 -3.0131 -42.5138
18.0115 -4.16774 -43.3602
18.1901 -3.40032 -43.8836
17.4938 -5.24171 -44.6216
17.2576 -4.38224 -45.582
16.674 -6.46174 -46.0036
16.5757 -4.7005 -47.567
23.0465 -0.445926 -37.8519
22.8275 -0.242054 -39.1651
21.6035 -0.623443 -38.8058
20.8921 -1.10324 -38.5354
21.2267 -0.376311 -40.1039
20.5891 -0.955505 -39.7758
20.2516 -1.42958 -41.2821
19.8495 -2.69317 -41.9628
19.061 -2.15539 -42.8462
19.8062 -25.2705 -38.1009
20.2749 -25.6564 -38.176
20.2749 -25.6564 -38.176
20.3508 -25.6778 -38.8484
24.163 -27.4577 -41.244
23.6762 -27.8066 -41.3538
20.156 -25.9086 -39.3285
20.3508 -25.6778 -38.8484
20.4758 -26.6372 -40.5114
20.8974 -27.0386 -40.5617
20.8974 -27.0386 -40.5617
20.7864 -27.2083 -41.2739
23.2043 -27.8475 -41.441
23.6762 -27.8066 -41.3538
23.1132 -27.3811 -41.8157
23.2043 -27.8475 -41.441
22.486 -27.9324 -41.8425
21.9868 -27.8015 -41.8382
22.486 -27.9324 -41.8425
21.7856 -27.5446 -42.1782
21.9868 -27.8015 -41.8382
21.3775 -27.8801 -41.7991
21.125 -27.6563 -41.7702
21.3775 -27.8801 -41.7991
20.8377 -27.1752 -41.6428
21.125 -27.6563 -41.7702
20.7864 -27.2083 -41.2739
15.787 -23.0175 -32.9716
15.8778 -23.657 -33.5609
15.8778 -23.657 -33.5609
16.3426 -23.9221 -34.4574
16.3426 -23.9221 -34.4574
16.1454 -23.4613 -34.728
16.7122 -24.1579 -35.3734
16.7122 -24.1579 -35.3734
17.5625 -24.1751 -36.2023
19.2348 -24.9616 -37.7706
19.8062 -25.2705 -38.1009
19.3738 -24.7753 -38.2317
19.2348 -24.9616 -37.7706
18.749 -24.4669 -37.2216
17.5625 -24.1751 -36.2023
17.1892 -23.6354 -36.3769
18.2367 -24.1135 -36.9351
18.2367 -24.1135 -36.9351
18.3757 -23.9272 -37.3962
18.749 -24.4669 -37.2216
25.2108 -26.3636 -41.9092
25.4173 -26.9246 -42.0097
25.4173 -26.9246 -42.0097
25.761 -26.9441 -41.9997
24.2521 -26.9698 -40.9004
24.163 -27.4577 -41.244
24.7767 -26.042 -40.5503
24.7262 -26.1978 -40.6381
20.156 -25.9086 -39.3285
20.1793 -25.9986 -39.9636
20.4758 -26.6372 -40.5114
25.9523 -26.962 -42.0436
26.1524 -26.9174 -42.0868
25.6268 -26.105 -42.12
25.9523 -26.962 -42.0436
25.761 -26.9441 -41.9997
26.1524 -26.9174 -42.0868
25.8906 -26.1746 -42.2267
26.2249 -26.9692 -42.1496
26.2249 -26.9692 -42.1496
26.4188 -27.0256 -42.0967
24.2521 -26.9698 -40.9004
24.3055 -26.5241 -41.1519
24.7262 -26.1978 -40.6381
26.4188 -27.0256 -42.0967
26.4378 -26.918 -42.1486
26.5033 -27.0389 -42.2314
26.4378 -26.918 -42.1486
26.0285 -26.3472 -42.3724
26.5033 -27.0389 -42.2314
26.6916 -27.0008 -42.2908
26.8078 -27.0379 -42.4172
26.6916 -27.0008 -42.2908
26.2101 -26.5052 -42.5816
26.8078 -27.0379 -42.4172
27.1692 -26.9383 -42.5284
27.2896 -26.9139 -42.6907
27.1692 -26.9383 -42.5284
26.4467 -26.518 -42.8703
27.9255 -27.0094 -42.5882
27.2896 -26.9139 -42.6907
27.203 -26.5892 -42.9301
27.203 -26.5892 -42.9301
26.5193 -26.2343 -43.3649
27.1552 -26.3298 -43.2625
27.1552 -26.3298 -43.2625
27.3993 -26.3199 -43.6323
27.3993 -26.3199 -43.6323
26.729 -25.832 -44.1204
15.9856 -22.0696 -32.0283
15.6244 -22.5647 -32.2404
15.6244 -22.5647 -32.2404
15.6132 -22.7727 -33.0809
15.787 -23.0175 -32.9716
15.9124 -21.7333 -32.0922
15.9856 -22.0696 -32.0283
15.1752 -22.1741 -32.8317
15.9124 -21.7333 -32.0922
15.637 -21.5874 -32.5743
24.9793 -25.9451 -41.0372
25.1075 -26.0708 -41.4909
25.1075 -26.0708 -41.4909
25.3322 -25.7943 -41.6577
25.2108 -26.3636 -41.9092
24.7767 -26.042 -40.5503
24.7546 -26.0704 -40.8623
24.7546 -26.0704 -40.8623
25.0043 -25.6268 -41.0645
24.9793 -25.9451 -41.0372
26.4405 -25.4527 -43.8384
26.698 -25.3098 -44.2615
26.729 -25.832 -44.1204
26.698 -25.3098 -44.2615
26.5862 -24.562 -44.1074
15.1065 -21.2566 -32.8864
15.637 -21.5874 -32.5743
15.1065 -21.2566 -32.8864
14.9265 -20.7437 -33.2625
14.7198 -21.5153 -33.6899
26.5931 -24.0738 -43.7694
26.7699 -23.7053 -43.8973
26.5862 -24.562 -44.1074
26.7699 -23.7053 -43.8973
26.8103 -23.1639 -43.8517
15.0093 -19.9179 -32.7437
15.5786 -19.1069 -32.2427
15.0093 -19.9179 -32.7437
14.6226 -20.1767 -33.5473
14.9265 -20.7437 -33.2625
26.868 -22.5191 -43.5336
26.9015 -22.466 -43.826
26.8103 -23.1639 -43.8517
26.9015 -22.466 -43.826
26.9123 -22.0261 -43.7904
15.0578 -18.3859 -32.1114
15.5786 -19.1069 -32.2427
15.0578 -18.3859 -32.1114
14.6098 -17.7274 -32.2885
14.2574 -18.6923 -33.2056
27.2228 -21.1053 -43.2192
27.2411 -20.6318 -43.2678
26.9777 -21.3476 -43.5565
26.9777 -21.3476 -43.5565
26.9123 -22.0261 -43.7904
14.5911 -15.3215 -30.9214
14.6256 -16.7089 -31.6815
14.6256 -16.7089 -31.6815
13.8251 -17.0152 -32.7757
14.6098 -17.7274 -32.2885
27.3498 -19.7623 -42.8848
27.1048 -20.0046 -43.2221
27.2411 -20.6318 -43.2678
27.1048 -20.0046 -43.2221
26.8892 -19.2733 -43.1493
14.1574 -13.4699 -30.8502
14.5166 -14.2799 -30.6088
14.5166 -14.2799 -30.6088
13.7664 -14.955 -31.8561
14.5911 -15.3215 -30.9214
26.8855 -18.4209 -42.7778
27.1623 -18.4224 -42.4572
26.8344 -17.7081 -42.3959
26.8855 -18.4209 -42.7778
26.8892 -19.2733 -43.1493
13.9455 -13.0221 -31.4087
14.1574 -13.4699 -30.8502
13.9455 -13.0221 -31.4087
14.0869 -12.5094 -32.3381
13.8333 -13.4006 -32.4729
26.9335 -17.0604 -42.0359
26.6567 -17.0589 -42.3564
26.8344 -17.7081 -42.3959
26.5082 -17.2144 -42.5588
26.6567 -17.0589 -42.3564
26.6073 -16.5667 -42.1987
26.5082 -17.2144 -42.5588
26.4042 -16.8334 -42.5568
26.4042 -16.8334 -42.5568
26.3528 -16.3474 -42.4971
14.5728 -11.8888 -32.8964
14.0869 -12.5094 -32.3381
14.2089 -12.225 -33.8352
14.5728 -11.8888 -32.8964
14.8069 -11.2258 -33.3294
26.7202 -16.0112 -42.0571
26.4657 -15.7918 -42.3554
26.5013 -16.1919 -42.2947
26.5013 -16.1919 -42.2947
26.3528 -16.3474 -42.4971
26.6073 -16.5667 -42.1987
26.7061 -15.2914 -42.2436
26.4872 -15.4721 -42.4812
26.4657 -15.7918 -42.3554
26.3445 -15.3526 -42.7184
26.4872 -15.4721 -42.4812
26.5849 -14.8521 -42.6066
26.3445 -15.3526 -42.7184
26.2533 -14.7797 -43.0721
16.2945 -10.3845 -34.0863
17.1 -10.0945 -34.739
16.2945 -10.3845 -34.0863
15.433 -10.8161 -33.9386
14.8069 -11.2258 -33.3294
15.433 -10.8161 -33.9386
15.0692 -11.1522 -34.8773
16.7604 -10.7052 -35.5405
17.1 -10.0945 -34.739
16.7604 -10.7052 -35.5405
17.2295 -10.7451 -36.5912
16.1644 -10.7824 -36.5372
26.5739 -14.3956 -42.8084
26.5806 -13.9984 -43.0796
26.4489 -14.3354 -43.1149
26.4489 -14.3354 -43.1149
26.2533 -14.7797 -43.0721
17.2295 -10.7451 -36.5912
17.702 -10.6301 -36.7646
17.1397 -10.7661 -37.6999
17.702 -10.6301 -36.7646
17.1397 -10.7661 -37.6999
16.9302 -10.8449 -38.7249
16.4241 -10.9012 -38.6129
26.6397 -13.6128 -43.0894
26.5147 -13.5526 -43.396
26.5806 -13.9984 -43.0796
26.5147 -13.5526 -43.396
26.4184 -13.0986 -43.8359
16.5217 -10.6304 -39.1806
16.9302 -10.8449 -38.7249
16.1364 -10.8268 -39.6939
16.5217 -10.6304 -39.1806
16.1364 -10.8268 -39.6939
16.0906 -11.0541 -40.5426
16.1688 -11.2073 -40.4866
16.0186 -11.1941 -41.063
16.0906 -11.0541 -40.5426
16.0186 -11.1941 -41.063
16.2296 -11.416 -41.6546
16.2296 -11.416 -41.6546
16.8896 -11.6928 -42.2021
16.783 -11.7114 -41.8828
16.8896 -11.6928 -42.2021
17.1113 -11.8495 -42.6145
17.1113 -11.8495 -42.6145
16.9352 -11.8229 -43.0633
17.2668 -11.9617 -42.8791
16.854 -11.6273 -42.8708
17.0095 -11.7395 -43.1355
16.9352 -11.8229 -43.0633
26.6317 -12.8858 -43.4476
26.5712 -12.5183 -43.8806
26.5132 -12.7993 -43.8389
26.5132 -12.7993 -43.8389
26.4184 -13.0986 -43.8359
16.5774 -11.2384 -42.0316
16.8624 -11.0752 -42.2462
16.5774 -11.2384 -42.0316
16.6323 -11.4706 -42.4584
16.6323 -11.4706 -42.4584
16.854 -11.6273 -42.8708
17.5238 -10.9 -42.552
17.5897 -11.3687 -43.2488
16.8624 -11.0752 -42.2462
17.4444 -10.6064 -42.8961
17.5238 -10.9 -42.552
17.9204 -10.6969 -43.549
17.4444 -10.6064 -42.8961
17.1137 -10.1099 -42.8905
26.629 -12.3007 -43.9214
26.5106 -12.2142 -44.3127
26.5712 -12.5183 -43.8806
26.5106 -12.2142 -44.3127
26.4466 -11.9166 -44.7825
16.5618 -9.35778 -41.9271
16.8236 -9.80979 -42.6159
16.8236 -9.80979 -42.6159
17.2995 -9.90039 -43.2688
17.1137 -10.1099 -42.8905
26.4297 -11.7903 -44.8321
26.3079 -11.7104 -45.2611
26.4466 -11.9166 -44.7825
26.3079 -11.7104 -45.2611
26.1373 -11.4548 -45.7586
18.0498 -8.51077 -36.2086
18.1194 -8.26925 -35.7606
18.0498 -8.51077 -36.2086
17.9475 -8.37652 -37.1729
17.9475 -8.37652 -37.1729
17.7709 -8.06985 -37.4897
16.5592 -8.95889 -42.0359
16.5618 -9.35778 -41.9271
16.6338 -9.0845 -42.7045
16.5592 -8.95889 -42.0359
16.1836 -8.44308 -41.7461
26.0516 -11.3829 -45.8136
25.898 -11.2537 -46.2615
26.1373 -11.4548 -45.7586
25.898 -11.2537 -46.2615
25.8442 -10.8802 -46.6746
18.0664 -7.12161 -35.4039
18.524 -8.03445 -35.0961
18.524 -8.03445 -35.0961
18.1194 -8.26925 -35.7606
18.0963 -6.5748 -36.0213
18.0664 -7.12161 -35.4039
17.3661 -7.45066 -38.0435
16.7266 -7.71816 -39.4007
17.3514 -7.95686 -37.9983
17.3514 -7.95686 -37.9983
17.7709 -8.06985 -37.4897
18.0963 -6.5748 -36.0213
17.9207 -5.59924 -36.5715
17.8154 -6.71381 -37.1914
16.4728 -7.39896 -40.5304
16.1567 -7.95172 -41.3463
16.4251 -7.76471 -40.2617
16.4251 -7.76471 -40.2617
16.7266 -7.71816 -39.4007
16.2313 -8.07733 -42.0148
16.1836 -8.44308 -41.7461
16.1567 -7.95172 -41.3463
25.6593 -10.9901 -46.6231
25.6912 -10.6885 -46.9812
25.8442 -10.8802 -46.6746
25.6912 -10.6885 -46.9812
25.4244 -10.5722 -47.4179
25.6093 -10.4624 -47.4695
25.6093 -10.4624 -47.4695
25.5856 -10.3238 -48.0524
25.5856 -10.3238 -48.0524
25.4319 -10.1612 -48.5395
17.9969 -4.93791 -37.0058
17.9207 -5.59924 -36.5715
17.9969 -4.93791 -37.0058
18.6565 -4.16372 -37.4818
18.2994 -4.96406 -38.2175
25.0072 -10.3049 -48.4355
25.0966 -10.12 -49.0687
25.4319 -10.1612 -48.5395
25.0966 -10.12 -49.0687
24.8709 -10.1037 -49.6769
24.2954 -10.4097 -49.6156
24.4944 -10.2497 -50.3278
24.8709 -10.1037 -49.6769
24.4944 -10.2497 -50.3278
24.1701 -10.4476 -51.0115
18.6732 -3.58094 -36.5633
18.7838 -2.94526 -35.9476
18.6732 -3.58094 -36.5633
18.9757 -3.60708 -37.7751
18.6565 -4.16372 -37.4818
23.4222 -10.7417 -50.9835
23.6735 -10.6336 -51.7285
24.1701 -10.4476 -51.0115
18.0288 -8.18746 -49.0955
17.4085 -7.68669 -49.5888
18.4593 -8.43136 -49.8162
18.4593 -8.43136 -49.8162
18.915 -8.4587 -50.5527
19.5353 -8.95947 -50.0593
16.7769 -6.07165 -48.2175
17.0916 -5.14656 -48.4792
17.2928 -6.5177 -49.1297
17.2928 -6.5177 -49.1297
17.4085 -7.68669 -49.5888
23.6735 -10.6336 -51.7285
23.0738 -10.8705 -52.6048
22.3204 -10.7085 -52.4395
22.4686 -10.6513 -53.3437
23.0738 -10.8705 -52.6048
20.7993 -9.70356 -51.0546
20.38 -8.851 -51.6534
21.1882 -9.56775 -51.9122
21.1882 -9.56775 -51.9122
21.2421 -9.60225 -52.8447
21.6614 -10.4548 -52.246
18.915 -8.4587 -50.5527
19.2624 -8.28288 -51.5031
19.2624 -8.28288 -51.5031
20.38 -8.851 -51.6534
22.4686 -10.6513 -53.3437
21.9177 -9.99037 -54.1214
21.2421 -9.60225 -52.8447
21.0724 -10.006 -53.8591
21.0724 -10.006 -53.8591
21.2748 -9.50708 -54.8021
21.9177 -9.99037 -54.1214
19.3447 -2.20247 -32.8635
18.8504 -2.44327 -33.5524
19.5062 -1.785 -33.3069
19.3447 -2.20247 -32.8635
19.708 -1.68404 -33.6571
19.5062 -1.785 -33.3069
20.2047 -1.79017 -36.2137
19.9888 -1.7916 -35.3166
19.9888 -1.7916 -35.3166
19.4759 -2.04081 -34.8206
19.7946 -1.70083 -34.3186
19.7946 -1.70083 -34.3186
19.708 -1.68404 -33.6571
19.4759 -2.04081 -34.8206
19.1226 -2.4989 -35.4286
18.9284 -2.40813 -34.4306
18.9284 -2.40813 -34.4306
18.8504 -2.44327 -33.5524
20.5859 -1.59184 -37.3805
20.1311 -2.03112 -37.7969
20.2845 -1.88803 -37.0251
20.2845 -1.88803 -37.0251
19.7499 -2.22945 -36.6301
20.2047 -1.79017 -36.2137
20.6992 -1.48174 -37.9023
20.5859 -1.59184 -37.3805
20.6623 -1.41908 -38.3439
20.6992 -1.48174 -37.9023
20.929 -1.1659 -38.0938
19.3312 -2.57794 -36.3376
18.7838 -2.94526 -35.9476
19.1226 -2.4989 -35.4286
18.3152 -2.74907 -44.065
18.6256 -2.77786 -43.3649
18.7507 -2.1266 -43.5463
18.3152 -2.74907 -44.065
17.849 -3.24003 -44.9142
17.7239 -3.89128 -44.7328
17.6342 -3.09568 -45.7909
17.849 -3.24003 -44.9142
17.6342 -3.09568 -45.7909
17.2932 -3.25481 -46.7835
16.9166 -4.54137 -46.5745
17.0918 -3.76625 -47.7607
17.2932 -3.25481 -46.7835
17.0918 -3.76625 -47.7607
17.0916 -5.14656 -48.4792
23.1021 -0.425686 -37.0517
22.3635 -0.607941 -37.4954
23.5773 -0.320041 -37.4751
23.1021 -0.425686 -37.0517
22.325 -0.534685 -38.3289
21.642 -0.6967 -37.9724
22.3635 -0.607941 -37.4954
23.5773 -0.320041 -37.4751
23.6106 -0.353283 -38.0417
23.6106 -0.353283 -38.0417
23.5011 -0.251348 -38.6984
22.937 -0.34399 -38.5085
21.642 -0.6967 -37.9724
21.2478 -0.863342 -38.6706
21.2863 -0.936598 -37.8372
21.2863 -0.936598 -37.8372
20.929 -1.1659 -38.0938
22.5021 -0.020546 -39.6969
21.7016 -0.087675 -40.1663
22.0271 -0.309183 -39.6345
23.5011 -0.251348 -38.6984
23.2458 -0.118043 -39.2287
23.2458 -0.118043 -39.2287
22.5021 -0.020546 -39.6969
21.2602 -0.423956 -40.7276
21.7016 -0.087675 -40.1663
21.2602 -0.423956 -40.7276
20.7727 -0.950589 -41.3167
20.7391 -0.902944 -40.693
20.4284 -1.40109 -42.1593
20.7727 -0.950589 -41.3167
20.4284 -1.40109 -42.1593
19.8331 -1.764 -42.9413
19.6563 -1.79249 -42.0642
18.7507 -2.1266 -43.5463
19.8331 -1.764 -42.9413
3 459 458 0
3 460 0 461
3 2 462 463
3 0 464 465
3 467 466 5
3 468 5 469
3 471 470 2
3 3 472 474
3 472 2 473
3 472 473 474
3 476 475 3
3 4 477 479
3 477 3 478
3 477 478 479
3 481 480 4
3 5 482 484
3 482 4 483
3 482 483 484
3 486 485 10
3 487 10 488
3 489 10 490
3 491 490 12
3 489 490 491
3 492 12 493
3 495 494 0
3 1 496 498
3 496 0 497
3 496 497 498
3 499 12 500
3 501 500 14
3 499 500 501
3 502 14 503
3 504 503 1
3 502 503 504
3 506 505 16
3 507 16 508
3 2 509 510
3 18 511 512
3 513 0 514
3 515 514 5
3 513 514 515
3 6 5 0
3 0 1 13
3 14 13 1
3 0 13 22
3 0 22 6
3 517 516 15
3 16 518 520
3 518 15 519
3 518 519 520
3 521 15 522
3 523 522 24
3 521 522 523
3 524 24 525
3 526 2 527
3 528 527 18
3 526 527 528
3 19 18 2
3 2 3 19
3 20 19 3
3 3 4 7
3 8 7 4
3 3 7 20
3 26 20 7
3 4 5 8
3 9 8 5
3 5 6 21
3 22 21 6
3 5 21 28
3 5 28 9
3 529 24 530
3 31 531 533
3 533 532 24
3 531 532 533
3 7 8 27
3 7 27 26
3 8 9 28
3 8 28 27
3 534 31 535
3 36 536 538
3 538 537 31
3 536 537 538
3 539 36 540
3 38 541 543
3 543 542 36
3 541 542 543
3 546 545 38
3 544 545 546
3 547 38 548
3 549 548 37
3 547 548 549
3 550 37 551
3 553 552 37
3 555 554 11
3 556 11 557
3 558 557 10
3 556 557 558
3 560 559 11
3 40 561 563
3 561 11 562
3 561 562 563
3 10 11 40
3 10 40 39
3 10 39 12
3 41 12 39
3 12 41 14
3 44 14 41
3 565 564 17
3 566 17 567
3 568 567 16
3 566 567 568
3 570 569 18
3 571 18 572
3 573 572 17
3 571 572 573
3 13 14 44
3 13 44 43
3 13 43 22
3 50 22 43
3 15 16 46
3 15 46 45
3 15 45 24
3 53 24 45
3 16 17 47
3 16 47 46
3 17 18 48
3 17 48 47
3 18 19 49
3 18 49 48
3 19 20 26
3 19 26 25
3 19 25 55
3 19 55 49
3 21 22 29
3 21 29 28
3 22 50 29
3 58 29 50
3 23 30 31
3 23 31 24
3 23 24 53
3 23 53 52
3 23 52 30
3 59 30 52
3 25 26 56
3 25 56 55
3 26 27 33
3 26 33 32
3 26 32 61
3 26 61 56
3 27 28 34
3 27 34 33
3 28 29 58
3 28 58 57
3 28 57 34
3 63 34 57
3 30 35 36
3 30 36 31
3 30 59 35
3 65 35 59
3 32 33 62
3 32 62 61
3 33 34 63
3 33 63 62
3 35 37 38
3 35 38 36
3 35 65 37
3 68 37 65
3 37 574 576
3 574 68 575
3 574 575 576
3 578 577 68
3 580 579 40
3 39 40 42
3 39 42 41
3 40 581 583
3 583 582 70
3 581 582 583
3 40 70 42
3 41 42 69
3 70 69 42
3 41 69 71
3 41 71 44
3 43 44 50
3 51 50 44
3 44 71 77
3 44 77 51
3 45 46 72
3 73 72 46
3 45 72 79
3 45 79 53
3 46 47 73
3 74 73 47
3 47 48 74
3 75 74 48
3 48 49 54
3 55 54 49
3 48 54 75
3 82 75 54
3 50 51 76
3 77 76 51
3 50 76 84
3 50 84 58
3 52 53 78
3 79 78 53
3 52 78 85
3 52 85 59
3 54 55 82
3 83 82 55
3 55 56 60
3 61 60 56
3 55 60 83
3 87 83 60
3 57 58 63
3 64 63 58
3 58 84 91
3 58 91 64
3 59 85 92
3 59 92 65
3 60 61 87
3 88 87 61
3 61 62 66
3 67 66 62
3 61 66 88
3 93 88 66
3 62 63 89
3 90 89 63
3 62 89 94
3 62 94 67
3 63 64 90
3 91 90 64
3 65 92 96
3 65 96 68
3 66 67 93
3 94 93 67
3 68 584 586
3 584 96 585
3 584 585 586
3 588 587 96
3 97 589 590
3 591 97 592
3 593 592 70
3 591 592 593
3 99 70 97
3 69 70 99
3 69 99 98
3 69 98 71
3 100 71 98
3 71 100 77
3 103 77 100
3 72 73 80
3 72 80 79
3 73 74 81
3 73 81 80
3 74 75 82
3 74 82 81
3 76 77 103
3 76 103 102
3 76 102 84
3 109 84 102
3 78 79 105
3 78 105 104
3 78 104 111
3 78 111 85
3 79 80 106
3 79 106 105
3 80 81 107
3 80 107 106
3 81 82 108
3 81 108 107
3 82 83 87
3 82 87 86
3 82 86 112
3 82 112 108
3 84 109 116
3 84 116 91
3 85 111 117
3 85 117 92
3 86 87 113
3 86 113 112
3 87 88 114
3 87 114 113
3 88 93 119
3 88 119 114
3 89 90 95
3 89 95 94
3 90 91 116
3 90 116 115
3 90 115 121
3 90 121 95
3 92 117 123
3 92 123 96
3 93 94 120
3 93 120 119
3 94 95 121
3 94 121 120
3 96 123 124
3 96 594 596
3 594 124 595
3 594 595 596
3 597 124 598
3 600 599 97
3 97 601 603
3 603 602 125
3 601 602 603
3 97 125 99
3 98 99 100
3 101 100 99
3 99 125 127
3 99 127 101
3 100 101 126
3 127 126 101
3 100 126 128
3 100 128 103
3 102 103 109
3 110 109 103
3 103 128 135
3 103 135 110
3 104 105 130
3 104 130 129
3 104 129 136
3 104 136 111
3 105 106 131
3 105 131 130
3 106 107 132
3 106 132 131
3 107 108 133
3 107 133 132
3 108 112 138
3 108 138 133
3 109 110 135
3 109 135 134
3 109 134 140
3 109 140 116
3 111 136 141
3 111 141 117
3 112 113 139
3 112 139 138
3 113 114 119
3 113 119 118
3 113 118 142
3 113 142 139
3 115 116 122
3 115 122 121
3 116 140 146
3 116 146 122
3 117 141 147
3 117 147 123
3 118 119 143
3 118 143 142
3 119 120 144
3 119 144 143
3 120 121 145
3 120 145 144
3 121 122 146
3 121 146 145
3 123 147 148
3 123 148 124
3 124 604 606
3 604 148 605
3 604 605 606
3 124 607 608
3 610 609 149
3 611 149 612
3 613 612 125
3 611 612 613
3 125 149 151
3 125 151 127
3 126 127 150
3 151 150 127
3 126 150 152
3 126 152 128
3 128 152 158
3 128 158 135
3 129 130 137
3 129 137 136
3 130 131 154
3 130 154 153
3 130 153 160
3 130 160 137
3 131 132 155
3 131 155 154
3 132 133 156
3 132 156 155
3 133 138 161
3 133 161 156
3 134 135 158
3 134 158 157
3 134 157 163
3 134 163 140
3 136 137 160
3 136 160 159
3 136 159 164
3 136 164 141
3 138 139 162
3 138 162 161
3 139 142 165
3 139 165 162
3 140 163 169
3 140 169 146
3 141 164 170
3 141 170 147
3 142 143 166
3 142 166 165
3 143 144 167
3 143 167 166
3 144 145 168
3 144 168 167
3 145 146 169
3 145 169 168
3 147 170 148
3 173 148 170
3 148 614 616
3 614 173 615
3 614 615 616
3 618 617 173
3 620 619 174
3 621 174 622
3 623 622 149
3 621 622 623
3 149 174 176
3 149 176 151
3 150 151 176
3 150 176 175
3 150 175 178
3 150 178 152
3 152 178 184
3 152 184 158
3 153 154 180
3 153 180 179
3 153 179 186
3 153 186 160
3 154 155 181
3 154 181 180
3 155 156 182
3 155 182 181
3 156 161 189
3 156 189 182
3 157 158 184
3 157 184 183
3 157 183 191
3 157 191 163
3 159 160 186
3 159 186 185
3 159 185 164
3 192 164 185
3 161 162 190
3 161 190 189
3 162 165 193
3 162 193 190
3 163 191 169
3 197 169 191
3 164 192 170
3 198 170 192
3 165 166 194
3 165 194 193
3 166 167 195
3 166 195 194
3 167 168 172
3 167 172 171
3 167 171 199
3 167 199 195
3 168 169 197
3 168 197 196
3 168 196 172
3 200 172 196
3 170 198 173
3 624 173 625
3 626 625 198
3 624 625 626
3 171 172 200
3 171 200 199
3 173 627 628
3 630 629 174
3 174 631 633
3 633 632 203
3 631 632 633
3 174 203 176
3 175 176 203
3 175 203 202
3 175 202 178
3 205 178 202
3 177 183 184
3 177 184 178
3 177 178 205
3 177 205 204
3 177 204 183
3 208 183 204
3 179 180 187
3 179 187 186
3 180 181 188
3 180 188 187
3 181 182 207
3 181 207 206
3 181 206 188
3 213 188 206
3 182 189 214
3 182 214 207
3 183 208 191
3 217 191 208
3 185 186 211
3 185 211 210
3 185 210 192
3 218 192 210
3 186 187 212
3 186 212 211
3 187 188 213
3 187 213 212
3 189 190 215
3 189 215 214
3 190 193 219
3 190 219 215
3 191 217 197
3 222 197 217
3 192 218 198
3 223 198 218
3 193 194 220
3 193 220 219
3 194 195 221
3 194 221 220
3 195 199 225
3 195 225 221
3 196 197 201
3 196 201 200
3 197 222 201
3 227 201 222
3 198 634 636
3 634 223 635
3 634 635 636
3 228 637 639
3 639 638 223
3 637 638 639
3 199 200 226
3 199 226 225
3 200 201 227
3 200 227 226
3 640 228 641
3 643 642 228
3 645 644 203
3 230 646 648
3 646 203 647
3 646 647 648
3 202 203 230
3 202 230 229
3 202 229 205
3 231 205 229
3 204 205 209
3 204 209 208
3 205 231 209
3 233 209 231
3 206 207 214
3 206 214 213
3 208 209 233
3 208 233 232
3 208 232 217
3 241 217 232
3 210 211 235
3 210 235 234
3 210 234 218
3 242 218 234
3 211 212 236
3 211 236 235
3 212 213 237
3 212 237 236
3 213 214 238
3 213 238 237
3 214 215 239
3 214 239 238
3 215 219 220
3 215 220 216
3 215 216 240
3 215 240 239
3 216 220 245
3 216 245 240
3 217 241 222
3 247 222 241
3 218 242 223
3 248 223 242
3 220 221 246
3 220 246 245
3 221 225 251
3 221 251 246
3 222 247 227
3 253 227 247
3 223 649 651
3 649 224 650
3 649 650 651
3 223 652 654
3 654 653 228
3 652 653 654
3 223 248 224
3 249 224 248
3 224 655 657
3 655 249 656
3 655 656 657
3 254 658 660
3 660 659 249
3 658 659 660
3 225 226 252
3 225 252 251
3 226 227 253
3 226 253 252
3 661 254 662
3 229 663 664
3 665 229 666
3 230 667 669
3 669 668 229
3 667 668 669
3 671 670 229
3 229 672 674
3 674 673 255
3 672 673 674
3 229 255 231
3 231 255 257
3 231 257 233
3 232 233 256
3 257 256 233
3 232 256 263
3 232 263 241
3 234 235 242
3 243 242 235
3 235 236 258
3 259 258 236
3 235 258 265
3 235 265 243
3 236 237 259
3 260 259 237
3 237 238 260
3 261 260 238
3 238 239 261
3 262 261 239
3 239 240 244
3 245 244 240
3 239 244 262
3 267 262 244
3 241 263 269
3 241 269 247
3 242 243 264
3 265 264 243
3 242 264 270
3 242 270 248
3 244 245 267
3 268 267 245
3 245 246 250
3 251 250 246
3 245 250 268
3 273 268 250
3 247 269 276
3 247 276 253
3 248 270 271
3 248 271 249
3 249 271 277
3 249 277 254
3 250 251 273
3 274 273 251
3 251 252 274
3 275 274 252
3 252 253 275
3 276 275 253
3 254 675 677
3 675 277 676
3 675 676 677
3 254 678 679
3 255 680 681
3 683 682 255
3 255 684 686
3 686 685 279
3 684 685 686
3 255 279 257
3 256 257 278
3 279 278 257
3 256 278 284
3 256 284 263
3 258 259 280
3 281 280 259
3 258 280 286
3 258 286 265
3 259 260 281
3 282 281 260
3 260 261 282
3 283 282 261
3 261 262 266
3 267 266 262
3 261 266 283
3 287 283 266
3 263 284 289
3 263 289 269
3 264 265 270
3 271 270 265
3 265 286 291
3 265 291 271
3 266 267 287
3 288 287 267
3 267 268 272
3 273 272 268
3 267 272 288
3 292 288 272
3 269 289 296
3 269 296 276
3 271 291 298
3 271 298 277
3 272 273 292
3 293 292 273
3 273 274 293
3 294 293 274
3 274 275 294
3 295 294 275
3 275 276 296
3 275 296 295
3 277 298 303
3 277 687 689
3 687 303 688
3 687 688 689
3 690 303 691
3 693 692 279
3 694 279 695
3 278 279 284
3 285 284 279
3 279 696 698
3 698 697 285
3 696 697 698
3 699 285 700
3 280 281 304
3 305 304 281
3 280 304 286
3 308 286 304
3 281 282 305
3 306 305 282
3 282 283 306
3 307 306 283
3 283 287 307
3 311 307 287
3 284 285 289
3 290 289 285
3 285 701 702
3 285 703 705
3 705 704 290
3 703 704 705
3 286 308 313
3 286 313 291
3 287 288 311
3 312 311 288
3 288 292 312
3 314 312 292
3 289 290 296
3 297 296 290
3 290 706 707
3 290 708 710
3 710 709 297
3 708 709 710
3 291 313 317
3 291 317 298
3 292 293 314
3 315 314 293
3 293 294 299
3 300 299 294
3 293 299 315
3 319 315 299
3 294 295 300
3 301 300 295
3 295 296 301
3 302 301 296
3 296 297 316
3 711 316 712
3 713 712 297
3 711 712 713
3 296 316 322
3 296 322 302
3 298 317 323
3 298 323 303
3 299 300 319
3 320 319 300
3 300 301 320
3 321 320 301
3 301 302 321
3 322 321 302
3 303 714 716
3 714 323 715
3 714 715 716
3 303 717 718
3 304 305 308
3 309 308 305
3 305 306 309
3 310 309 306
3 306 307 310
3 311 310 307
3 308 309 324
3 325 324 309
3 308 324 313
3 329 313 324
3 309 310 325
3 326 325 310
3 310 311 326
3 327 326 311
3 311 312 327
3 328 327 312
3 312 314 328
3 332 328 314
3 316 719 720
3 721 316 722
3 724 723 316
3 313 329 317
3 333 317 329
3 314 315 318
3 319 318 315
3 314 318 332
3 334 332 318
3 725 321 726
3 727 726 316
3 725 726 727
3 322 316 321
3 729 728 321
3 337 730 732
3 730 321 731
3 730 731 732
3 317 333 323
3 338 323 333
3 318 319 334
3 335 334 319
3 319 320 335
3 336 335 320
3 320 321 336
3 337 336 321
3 323 733 735
3 733 338 734
3 733 734 735
3 737 736 338
3 324 325 330
3 324 330 329
3 325 326 340
3 325 340 339
3 325 339 343
3 325 343 330
3 326 327 341
3 326 341 340
3 327 328 332
3 327 332 331
3 327 331 345
3 327 345 341
3 329 330 343
3 329 343 342
3 329 342 347
3 329 347 333
3 331 332 346
3 331 346 345
3 332 334 351
3 332 351 346
3 739 738 354
3 740 354 741
3 742 741 337
3 740 741 742
3 333 347 355
3 333 355 338
3 334 335 352
3 334 352 351
3 335 336 353
3 335 353 352
3 336 337 354
3 336 354 353
3 338 355 359
3 338 743 745
3 743 359 744
3 743 744 745
3 746 359 747
3 360 748 749
3 750 360 751
3 753 752 360
3 339 340 343
3 344 343 340
3 340 341 344
3 345 344 341
3 342 343 347
3 348 347 343
3 343 344 362
3 363 362 344
3 343 362 348
3 366 348 362
3 344 345 349
3 350 349 345
3 344 349 363
3 367 363 349
3 345 346 350
3 351 350 346
3 755 754 354
3 371 756 758
3 756 354 757
3 756 757 758
3 347 348 365
3 366 365 348
3 347 365 355
3 372 355 365
3 349 350 367
3 368 367 350
3 350 351 368
3 369 368 351
3 351 352 356
3 357 356 352
3 351 356 369
3 376 369 356
3 352 353 357
3 358 357 353
3 353 354 370
3 371 370 354
3 353 370 358
3 378 358 370
3 355 372 359
3 379 359 372
3 356 357 376
3 377 376 357
3 357 358 377
3 378 377 358
3 359 759 761
3 759 379 760
3 759 760 761
3 763 762 379
3 765 764 360
3 766 360 767
3 769 768 360
3 360 770 772
3 770 361 771
3 770 771 772
3 360 773 774
3 360 775 777
3 777 776 384
3 775 776 777
3 360 384 361
3 361 778 780
3 778 364 779
3 778 779 780
3 361 781 782
3 361 384 385
3 361 385 364
3 362 363 367
3 362 367 366
3 364 370 371
3 364 783 785
3 783 371 784
3 783 784 785
3 364 385 386
3 364 386 370
3 365 366 373
3 365 373 372
3 366 367 374
3 366 374 373
3 367 368 375
3 367 375 374
3 368 369 376
3 368 376 375
3 370 386 391
3 370 391 378
3 372 373 380
3 372 380 379
3 373 374 388
3 373 388 387
3 373 387 393
3 373 393 380
3 374 375 389
3 374 389 388
3 375 376 390
3 375 390 389
3 376 377 382
3 376 382 381
3 376 381 396
3 376 396 390
3 377 378 383
3 377 383 382
3 378 391 398
3 378 398 383
3 379 380 393
3 379 393 392
3 379 392 399
3 379 786 788
3 786 399 787
3 786 787 788
3 381 382 397
3 381 397 396
3 382 383 398
3 382 398 397
3 789 399 790
3 791 790 406
3 789 790 791
3 792 406 793
3 794 406 795
3 797 796 384
3 384 798 800
3 800 799 412
3 798 799 800
3 384 412 385
3 385 412 414
3 385 414 386
3 386 414 415
3 386 415 391
3 387 388 394
3 387 394 393
3 388 389 395
3 388 395 394
3 389 390 396
3 389 396 395
3 391 415 416
3 391 416 398
3 392 393 399
3 400 399 393
3 393 394 400
3 401 400 394
3 394 395 401
3 402 401 395
3 395 396 402
3 403 402 396
3 396 397 403
3 404 403 397
3 397 398 404
3 405 404 398
3 398 416 405
3 421 405 416
3 399 400 406
3 407 406 400
3 400 401 417
3 418 417 401
3 400 417 407
3 422 407 417
3 401 402 418
3 419 418 402
3 402 403 408
3 409 408 403
3 402 408 419
3 424 419 408
3 403 404 409
3 410 409 404
3 404 405 420
3 421 420 405
3 404 420 410
3 426 410 420
3 406 801 803
3 801 407 802
3 801 802 803
3 805 804 407
3 407 806 808
3 806 422 807
3 806 807 808
3 810 809 422
3 408 409 424
3 425 424 409
3 409 410 425
3 426 425 410
3 435 811 812
3 813 435 814
3 815 814 412
3 813 814 815
3 438 412 435
3 411 413 412
3 414 412 413
3 411 412 437
3 438 437 412
3 411 437 413
3 440 413 437
3 413 440 414
3 441 414 440
3 414 441 415
3 443 415 441
3 415 443 445
3 415 445 416
3 416 445 447
3 416 447 421
3 417 418 423
3 417 423 422
3 418 419 424
3 418 424 423
3 420 421 447
3 420 447 446
3 420 446 448
3 420 448 426
3 422 423 427
3 422 816 818
3 816 427 817
3 816 817 818
3 423 424 428
3 423 428 427
3 424 425 429
3 424 429 428
3 425 819 821
3 819 426 820
3 819 820 821
3 425 822 824
3 824 823 429
3 822 823 824
3 426 825 827
3 825 448 826
3 825 826 827
3 426 828 829
3 830 427 831
3 427 428 430
3 427 832 834
3 832 430 833
3 832 833 834
3 428 835 837
3 835 429 836
3 835 836 837
3 428 838 840
3 840 839 430
3 838 839 840
3 429 841 842
3 429 843 844
3 845 430 846
3 430 847 848
3 430 849 851
3 849 850 851
3 852 431 853
3 855 854 431
3 856 431 857
3 859 858 432
3 860 432 861
3 862 861 431
3 860 861 862
3 863 431 864
3 431 865 867
3 865 432 866
3 865 866 867
3 431 868 869
3 870 433 871
3 872 871 434
3 870 871 872
3 873 434 874
3 875 874 432
3 873 874 875
3 877 876 433
3 452 878 880
3 878 433 879
3 878 879 880
3 432 434 435
3 432 881 883
3 881 435 882
3 881 882 883
3 433 436 437
3 433 437 434
3 433 452 436
3 454 436 452
3 434 437 438
3 434 438 435
3 436 439 440
3 436 440 437
3 436 454 439
3 455 439 454
3 439 455 440
3 456 440 455
3 440 442 441
3 443 441 442
3 440 456 442
3 457 442 456
3 442 444 443
3 445 443 444
3 442 457 444
3 884 444 885
3 886 885 457
3 884 885 886
3 444 446 445
3 447 445 446
3 444 887 889
3 889 888 446
3 887 888 889
3 890 446 891
3 446 892 894
3 894 893 448
3 892 893 894
3 895 448 896
3 448 897 898
3 899 449 900
3 902 901 449
3 449 450 451
3 449 903 905
3 903 451 904
3 903 904 905
3 449 906 907
3 449 908 910
3 910 909 450
3 908 909 910
3 911 451 912
3 913 912 452
3 911 912 913
3 914 452 915
3 450 916 918
3 918 917 453
3 916 917 918
3 450 453 451
3 450 919 920
3 450 921 922
3 451 453 454
3 451 454 452
3 924 923 453
3 453 925 927
3 927 926 455
3 925 926 927
3 453 455 454
3 929 928 455
3 455 930 932
3 932 931 457
3 930 931 932
3 455 457 456
3 934 933 457
