ply
format ascii 1.0
element vertex 201
property float x
property float y
property float z
property uchar red
property uchar green
property uchar blue
element face 195
property list uchar int vertex_index
end_header
23.3836 -61.5772 -10.0886 0 43 255
22.6379 -62.3162 -15.783 255 83 0
23.0796 -69.6045 -11.6112 255 64 0
24.8474 -74.5505 -4.77473 42 255 213
23.4571 -57.9335 -13.9143 15 255 240
22.9745 -61.9842 -12.7063 227 255 28
24.3244 -69.6299 -4.58888 136 255 119
23.0105 -71.0585 -14.9405 244 255 11
22.9521 -57.3626 -17.1858 76 255 179
22.296 -61.9165 -19.1072 189 255 66
22.9766 -65.2438 -10.8172 255 215 0
23.482 -67.6408 -8.11747 255 62 0
23.8747 -72.3343 -8.44603 220 255 35
22.6724 -66.3525 -13.9021 255 171 0
22.5361 -66.9912 -17.1534 255 11 0
23.367 -60.1282 -11.8469 0 161 255
23.178 -61.7801 -11.2366 0 249 255
22.9565 -60.1354 -14.8663 255 94 0
23.2236 -57.6555 -15.5119 154 255 101
22.7763 -59.8699 -16.4363 255 14 0
22.5405 -59.6342 -18.1519 193 255 62
22.4833 -62.1848 -17.4537 255 19 0
23.5113 -65.3674 -7.93152 108 255 147
23.8587 -66.2056 -6.30085 63 255 192
24.5153 -72.1017 -4.75457 255 225 0
24.0403 -71.0595 -6.57779 128 0 0
24.3474 -73.5584 -6.76699 255 240 0
22.9622 -67.4217 -11.1923 255 135 0
22.7851 -65.8766 -12.4041 255 205 0
22.8294 -68.1217 -12.884 255 144 0
22.9948 -71.4773 -16.7598 51 255 204
22.7493 -69.251 -16.1551 255 46 0
22.6856 -69.2851 -17.8835 167 255 88
22.4226 -66.84 -18.9453 192 255 63
23.1793 -60.0512 -13.2771 133 255 122
22.8005 -62.2552 -14.1344 255 170 0
23.3694 -71.9964 -11.8438 169 255 86
23.0257 -70.453 -13.304 255 71 0
23.3569 -72.8219 -13.5991 49 255 206
23.5131 -62.2008 -9.05175 0 119 255
23.1429 -63.1379 -10.4274 131 255 124
23.2774 -64.1722 -9.29652 111 255 144
23.1878 -66.4687 -9.51572 255 132 0
23.2493 -68.8042 -9.79802 255 76 0
23.863 -68.597 -6.4729 255 183 0
23.6028 -69.8687 -8.25542 255 3 0
23.4519 -71.0608 -10.0326 255 225 0
22.9051 -63.7029 -11.8668 229 255 26
22.741 -64.1397 -13.3041 255 225 0
22.609 -64.4719 -14.9056 255 128 0
22.763 -68.6115 -14.4908 255 97 0
22.5957 -66.7135 -15.548 255 79 0
22.5021 -64.4717 -16.5547 255 71 0
22.3894 -64.5595 -18.1438 253 0 0
22.2201 -64.3485 -19.8634 84 255 171
23.2808 -61.6786 -10.6626 0 0 161
23.3906 -60.9305 -10.8324 0 0 144
23.4935 -60.829 -10.2584 0 0 144
24.0999 -65.4469 -5.42309 0 0 148
23.9318 -65.0204 -6.25205 0 0 148
24.7857 -75.235 -5.90308 0 0 204
24.5357 -74.739 -6.89921 0 0 204
24.5974 -74.0545 -5.77086 0 0 252
22.8295 -70.574 -18.205 0 0 190
22.8402 -70.3812 -17.3216 0 0 231
22.9841 -71.6701 -17.6431 0 0 190
22.6482 -69.3755 -18.7149 0 0 149
22.8295 -70.574 -18.205 0 0 149
23.5711 -73.6744 -12.8962 0 0 188
23.3632 -72.4091 -12.7215 0 0 228
23.5773 -73.2617 -12.0185 0 0 188
23.6599 -56.6525 -14.2073 0 0 147
23.7893 -56.832 -13.4158 0 0 147
23.2508 -56.2014 -16.6606 0 0 190
23.3865 -56.3479 -15.8236 0 0 190
23.0879 -57.509 -16.3488 0 0 230
23.0693 -55.994 -17.5131 0 0 152
23.2508 -56.2014 -16.6606 0 0 152
22.7977 -57.0502 -18.061 0 0 152
23.0693 -55.994 -17.5131 0 0 152
22.2792 -60.6021 -19.475 0 0 189
22.4015 -59.4609 -18.9974 0 0 189
22.4183 -60.7754 -18.6295 0 0 228
22.1621 -61.7928 -19.9662 0 0 150
22.2792 -60.6021 -19.475 0 0 150
23.4954 -63.6468 -8.50295 0 0 164
23.3952 -63.1865 -9.17413 0 0 192
23.6132 -62.6612 -8.38056 0 0 164
24.0937 -69.1134 -5.53089 0 0 239
24.0567 -67.9232 -5.51872 0 0 195
24.2874 -68.4397 -4.57671 0 0 195
23.8418 -72.9709 -9.40468 0 0 194
23.6304 -72.3341 -10.198 0 0 194
23.6633 -71.6975 -9.23932 0 0 237
23.6132 -62.6612 -8.38056 0 0 139
23.7795 -61.5392 -8.35759 0 0 139
22.2473 -65.6917 -20.2818 0 0 195
22.3214 -65.5942 -19.4043 0 0 237
22.3486 -66.9374 -19.8227 0 0 195
22.0916 -64.2001 -20.7108 0 0 155
22.2473 -65.6917 -20.2818 0 0 155
23.4851 -60.1046 -11.1375 0 0 135
23.6497 -59.1714 -11.3674 0 0 135
23.2725 -60.9542 -11.5418 0 0 177
23.4851 -60.1046 -11.1375 0 0 155
23.3906 -60.9305 -10.8324 0 0 155
23.7581 -64.6013 -7.06738 0 0 143
23.6123 -64.2444 -7.82045 0 0 143
23.685 -65.7865 -7.11618 0 0 223
23.7581 -64.6013 -7.06738 0 0 185
23.9318 -65.0204 -6.25205 0 0 185
24.3003 -74.1836 -7.76627 0 0 196
24.064 -73.5715 -8.60578 0 0 196
24.111 -72.9463 -7.60651 0 0 240
24.3003 -74.1836 -7.76627 0 0 151
24.5357 -74.739 -6.89921 0 0 151
22.5167 -68.1529 -19.2458 0 0 189
22.5541 -68.0625 -18.4144 0 0 229
22.6482 -69.3755 -18.7149 0 0 189
22.3486 -66.9374 -19.8227 0 0 152
22.5167 -68.1529 -19.2458 0 0 152
23.5904 -57.9499 -13.1316 0 0 143
23.7893 -56.832 -13.4158 0 0 143
23.5453 -59.0472 -12.0979 0 0 139
23.6497 -59.1714 -11.3674 0 0 139
23.4515 -59.0088 -12.813 0 0 168
23.5453 -59.0472 -12.0979 0 0 168
23.2731 -60.0897 -12.562 0 0 197
23.3182 -58.9924 -13.5957 0 0 204
23.5904 -57.9499 -13.1316 0 0 173
23.4515 -59.0088 -12.813 0 0 173
24.5129 -68.7672 -3.60427 0 0 154
24.2874 -68.4397 -4.57671 0 0 154
24.544 -70.0699 -3.6953 0 0 201
24.5129 -68.7672 -3.60427 0 0 201
24.7325 -69.2071 -2.71069 0 0 155
24.6395 -71.3058 -3.77814 0 0 196
24.4198 -70.8658 -4.67172 0 0 240
24.544 -70.0699 -3.6953 0 0 196
24.7608 -72.4961 -3.71168 0 0 156
24.6395 -71.3058 -3.77814 0 0 156
24.9269 -73.7205 -3.72177 0 0 207
24.6814 -73.3261 -4.76465 0 1 255
24.7608 -72.4961 -3.71168 0 0 207
23.5684 -74.052 -13.8683 0 0 151
23.5711 -73.6744 -12.8962 0 0 151
23.3653 -73.1853 -14.5513 0 0 150
23.5684 -74.052 -13.8683 0 0 150
23.1921 -72.3036 -15.222 0 0 191
23.1837 -71.9402 -14.2698 0 0 232
23.3653 -73.1853 -14.5513 0 0 191
23.1843 -72.513 -16.1316 0 0 190
23.0026 -71.2679 -15.8502 0 0 231
23.1921 -72.3036 -15.222 0 0 190
23.1938 -72.8085 -17.0414 0 0 152
23.1843 -72.513 -16.1316 0 0 152
22.9841 -71.6701 -17.6431 0 0 152
23.1938 -72.8085 -17.0414 0 0 152
23.5432 -56.5135 -15.006 0 0 185
23.6599 -56.6525 -14.2073 0 0 185
23.3403 -57.7945 -14.7131 0 0 223
23.5432 -56.5135 -15.006 0 0 149
23.3865 -56.3479 -15.8236 0 0 149
22.5919 -58.186 -18.544 0 0 197
22.7977 -57.0502 -18.061 0 0 197
22.7463 -58.4984 -17.6688 0 0 241
22.5919 -58.186 -18.544 0 0 153
22.4015 -59.4609 -18.9974 0 0 153
23.3943 -64.7698 -8.61402 0 0 205
23.4954 -63.6468 -8.50295 0 0 173
23.6123 -64.2444 -7.82045 0 0 173
24.0546 -66.7275 -5.43269 0 0 152
24.0999 -65.4469 -5.42309 0 0 152
23.8608 -67.4013 -6.38688 0 0 233
24.0546 -66.7275 -5.43269 0 0 192
24.0567 -67.9232 -5.51872 0 0 192
23.5892 -72.8019 -11.1036 0 0 191
23.4107 -71.5286 -10.9382 0 0 232
23.6304 -72.3341 -10.198 0 0 191
23.5773 -73.2617 -12.0185 0 0 150
23.5892 -72.8019 -11.1036 0 0 150
23.8418 -72.9709 -9.40468 0 0 151
24.064 -73.5715 -8.60578 0 0 151
25.0873 -75.1054 -3.83908 0 0 161
24.9269 -73.7205 -3.72177 0 0 161
25.0519 -75.9171 -4.95646 0 0 162
25.0873 -75.1054 -3.83908 0 0 162
24.7857 -75.235 -5.90308 0 0 164
25.0519 -75.9171 -4.95646 0 0 164
23.6608 -61.2842 -9.07931 0 0 135
23.7795 -61.5392 -8.35759 0 0 135
23.4483 -61.889 -9.57018 0 0 164
23.5961 -60.9723 -9.59774 0 0 145
23.6608 -61.2842 -9.07931 0 0 145
23.5961 -60.9723 -9.59774 0 0 128
23.4935 -60.829 -10.2584 0 0 128
22.1241 -63.0088 -20.3443 0 0 192
22.1621 -61.7928 -19.9662 0 0 192
22.258 -63.1325 -19.4853 0 0 233
22.1241 -63.0088 -20.3443 0 0 149
22.0916 -64.2001 -20.7108 0 0 149
3 0 55 57
3 55 16 56
3 55 56 57
3 1 19 17
3 1 21 19
3 58 23 59
3 3 26 24
3 3 60 62
3 62 61 26
3 60 61 62
3 2 29 27
3 63 32 64
3 65 64 30
3 63 64 65
3 67 66 32
3 5 34 15
3 5 35 34
3 68 38 69
3 70 69 36
3 68 69 70
3 4 71 72
3 8 73 75
3 75 74 18
3 73 74 75
3 8 76 77
3 8 78 79
3 9 80 82
3 82 81 20
3 80 81 82
3 9 83 84
3 85 41 86
3 87 86 39
3 85 86 87
3 11 42 22
3 11 43 42
3 6 88 90
3 88 44 89
3 88 89 90
3 12 45 25
3 12 46 45
3 12 91 93
3 93 92 46
3 91 92 93
3 94 39 95
3 10 47 40
3 13 48 28
3 13 49 48
3 7 50 37
3 14 51 31
3 14 52 51
3 14 53 52
3 96 54 97
3 98 97 33
3 96 97 98
3 100 99 54
3 101 15 102
3 16 103 105
3 103 15 104
3 103 104 105
3 16 5 15
3 17 18 4
3 19 18 17
3 19 8 18
3 19 20 8
3 21 20 19
3 21 9 20
3 106 22 107
3 23 108 110
3 108 22 109
3 108 109 110
3 23 11 22
3 24 25 6
3 26 25 24
3 26 12 25
3 26 111 113
3 113 112 12
3 111 112 113
3 115 114 26
3 27 28 10
3 29 28 27
3 29 13 28
3 30 31 7
3 32 31 30
3 32 14 31
3 32 33 14
3 116 33 117
3 118 117 32
3 116 117 118
3 120 119 33
3 121 4 122
3 15 123 124
3 34 125 127
3 127 126 15
3 125 126 127
3 34 128 130
3 128 4 129
3 128 129 130
3 34 17 4
3 35 17 34
3 35 1 17
3 131 6 132
3 133 6 134
3 133 134 135
3 136 24 137
3 138 137 6
3 136 137 138
3 139 24 140
3 141 3 142
3 143 142 24
3 141 142 143
3 36 37 2
3 38 37 36
3 38 7 37
3 144 38 145
3 146 38 147
3 148 7 149
3 150 149 38
3 148 149 150
3 151 30 152
3 153 152 7
3 151 152 153
3 154 30 155
3 157 156 30
3 18 158 160
3 160 159 4
3 158 159 160
3 162 161 18
3 20 163 165
3 165 164 8
3 163 164 165
3 167 166 20
3 39 40 0
3 41 40 39
3 41 10 40
3 22 168 170
3 168 41 169
3 168 169 170
3 42 41 22
3 42 10 41
3 42 27 10
3 43 27 42
3 43 2 27
3 171 23 172
3 44 173 175
3 173 23 174
3 173 174 175
3 44 11 23
3 25 44 6
3 45 44 25
3 45 11 44
3 45 43 11
3 46 43 45
3 46 2 43
3 46 36 2
3 176 36 177
3 178 177 46
3 176 177 178
3 180 179 36
3 182 181 12
3 183 3 184
3 185 3 186
3 188 187 3
3 39 189 190
3 39 191 193
3 191 0 192
3 191 192 193
3 194 0 195
3 40 16 0
3 47 16 40
3 47 5 16
3 28 47 10
3 48 47 28
3 48 5 47
3 48 35 5
3 49 35 48
3 49 1 35
3 37 29 2
3 50 29 37
3 50 13 29
3 31 50 7
3 51 50 31
3 51 13 50
3 51 49 13
3 52 49 51
3 52 1 49
3 52 21 1
3 53 21 52
3 53 9 21
3 33 53 14
3 54 53 33
3 54 9 53
3 54 196 198
3 198 197 9
3 196 197 198
3 200 199 54
