ply
format ascii 1.0
element vertex 196
property float x
property float y
property float z
property uchar red
property uchar green
property uchar blue
element face 175
property list uchar int vertex_index
end_header
-17.2423 30.3044 -11.9175 197 255 58
-14.465 35.4589 -15.8651 229 255 26
-17.4909 38.1979 -12.9316 255 70 0
-15.7048 32.9566 -13.68 255 88 0
-14.7583 28.0659 -14.8684 106 255 149
-13.9777 30.6019 -17.4836 226 0 0
-13.4206 33.0276 -20.5128 128 0 0
-13.4812 38.1896 -18.5524 98 255 157
-19.2981 35.2608 -11.4029 255 252 0
-17.6598 41.8975 -13.4592 10 255 245
-16.6832 39.5064 -13.8118 121 255 134
-16.4059 28.0755 -12.3156 0 231 255
-15.0555 34.1525 -14.6961 255 61 0
-15.108 30.2131 -14.1856 255 107 0
-14.5576 31.872 -15.3589 255 73 0
-14.3362 29.2968 -16.1262 255 250 0
-14.089 33.1711 -16.5979 255 31 0
-13.694 34.3609 -17.9057 188 0 0
-13.9672 36.9155 -17.1116 162 255 93
-20.3576 33.7452 -10.7267 52 255 203
-19.4732 38.7444 -11.7686 43 255 212
-12.9974 36.7428 -21.0071 236 255 19
-13.1691 34.4012 -22.1069 245 255 10
-12.7219 37.846 -22.6131 0 243 255
-17.3265 34.1376 -12.4072 255 77 0
-16.431 31.7515 -12.7696 255 101 0
-16.5351 35.6821 -13.2721 255 65 0
-15.7801 36.7712 -14.1923 240 255 15
-15.0638 38.049 -15.3016 43 255 212
-15.6961 29.0661 -13.2136 180 255 75
-15.2731 26.3996 -13.7022 0 231 255
-14.3829 26.9676 -16.9729 49 255 206
-14.1384 28.2261 -18.4817 219 255 36
-13.9397 29.4762 -20.1122 255 245 0
-13.6718 31.8838 -18.9503 152 0 0
-13.3178 35.4789 -19.4635 255 141 0
-18.0741 28.8247 -11.1876 16 255 239
-20.3511 30.0629 -10.2976 0 198 255
-19.1972 31.4734 -10.9619 255 231 0
-18.2005 32.7041 -11.6426 255 60 0
-18.283 36.4576 -12.1309 255 52 0
-18.51 40.2764 -12.5726 139 255 116
-13.724 31.0047 -21.8398 136 255 119
-17.257 42.5564 -13.9316 0 0 133
-17.7918 43.6678 -13.7065 0 0 133
-16.8241 29.19 -12.1166 0 0 194
-16.7855 27.3278 -11.9016 0 0 162
-17.2037 28.4423 -11.7025 0 0 162
-12.7133 39.1424 -22.0752 0 0 188
-12.8597 37.2944 -21.8101 0 0 233
-12.8511 38.5908 -21.2722 0 0 188
-15.8463 38.7459 -14.4958 0 0 174
-16.2316 38.1388 -14.0021 0 0 212
-16.2978 40.1135 -14.3056 0 0 174
-15.4881 39.3848 -15.0504 0 0 177
-15.4219 37.4101 -14.7469 0 0 216
-15.8463 38.7459 -14.4958 0 0 177
-15.1386 39.976 -15.5899 0 0 136
-15.4881 39.3848 -15.0504 0 0 136
-14.9005 26.1852 -14.6746 0 0 165
-15.1579 25.3521 -14.0915 0 0 165
-15.0157 27.2328 -14.2853 0 0 199
-14.7264 26.8518 -15.2432 0 0 130
-14.9005 26.1852 -14.6746 0 0 130
-13.2701 38.7339 -19.3017 0 0 185
-13.1884 37.3785 -19.7573 0 0 185
-13.3995 36.8342 -19.008 0 0 229
-18.5889 28.2286 -10.848 0 0 135
-18.0453 26.9668 -10.9627 0 0 135
-20.9657 31.237 -10.1999 0 0 136
-20.9463 29.4733 -10.0191 0 0 136
-19.0993 41.3984 -12.367 0 0 176
-18.9916 39.5104 -12.1706 0 0 215
-19.5809 40.6324 -11.9651 0 0 176
-18.6207 42.0662 -12.7968 0 0 135
-19.0993 41.3984 -12.367 0 0 135
-13.3709 33.3208 -22.8424 0 0 143
-13.0781 34.904 -23.0058 0 0 143
-16.7687 41.3608 -14.1079 0 0 169
-17.1715 40.702 -13.6355 0 0 205
-17.257 42.5564 -13.9316 0 0 169
-16.2978 40.1135 -14.3056 0 0 134
-16.7687 41.3608 -14.1079 0 0 134
-16.4356 26.1333 -12.0801 0 0 130
-16.7855 27.3278 -11.9016 0 0 130
-16.1285 26.6816 -12.5002 0 0 128
-16.4356 26.1333 -12.0801 0 0 128
-20.9723 34.8806 -10.5839 0 0 178
-20.969 33.0781 -10.4145 0 0 178
-21.5836 34.2135 -10.2716 0 0 138
-20.4306 35.5128 -10.8922 0 0 135
-20.9723 34.8806 -10.5839 0 0 135
-19.9008 36.2706 -11.2302 0 0 172
-19.8278 34.503 -11.0648 0 0 209
-20.4306 35.5128 -10.8922 0 0 172
-19.9884 38.0124 -11.4131 0 0 170
-19.3856 37.0026 -11.5858 0 0 207
-19.9008 36.2706 -11.2302 0 0 170
-20.0635 39.8549 -11.5792 0 0 136
-19.9884 38.0124 -11.4131 0 0 136
-19.5809 40.6324 -11.9651 0 0 136
-20.0635 39.8549 -11.5792 0 0 136
-12.8545 36.6264 -23.2589 0 0 194
-13.0781 34.904 -23.0058 0 0 194
-12.9455 36.1236 -22.36 0 0 242
-14.7623 38.7907 -15.9032 0 0 176
-14.4629 37.4956 -16.185 0 0 176
-14.7644 36.754 -15.5833 0 0 215
-14.7623 38.7907 -15.9032 0 0 136
-15.1386 39.976 -15.5899 0 0 136
-15.7737 27.1769 -12.9492 0 0 162
-16.1285 26.6816 -12.5002 0 0 162
-16.051 28.5708 -12.7646 0 0 194
-15.5621 25.8437 -13.1935 0 0 162
-15.7737 27.1769 -12.9492 0 0 162
-15.4846 27.7329 -13.4579 0 0 194
-15.3987 24.6304 -13.4742 0 0 128
-15.5621 25.8437 -13.1935 0 0 128
-15.3987 24.6304 -13.4742 0 0 131
-15.1579 25.3521 -14.0915 0 0 131
-14.5154 27.4672 -15.8721 0 0 167
-14.7264 26.8518 -15.2432 0 0 167
-14.5472 28.6813 -15.4973 0 0 201
-14.5387 26.3026 -16.2954 0 0 170
-14.5154 27.4672 -15.8721 0 0 170
-14.3595 28.1322 -16.5495 0 0 207
-14.6335 25.2005 -16.8055 0 0 135
-14.5387 26.3026 -16.2954 0 0 135
-14.5254 25.9469 -17.5586 0 0 138
-14.6335 25.2005 -16.8055 0 0 138
-14.4031 26.5761 -18.313 0 0 175
-14.5254 25.9469 -17.5586 0 0 175
-14.2606 27.5968 -17.7273 0 0 213
-14.3443 27.1976 -19.1622 0 0 142
-14.4031 26.5761 -18.313 0 0 142
-14.039 28.8511 -19.297 0 0 227
-14.245 27.8227 -19.9775 0 0 184
-14.3443 27.1976 -19.1622 0 0 184
-13.0282 38.0105 -20.5291 0 0 185
-13.1576 36.1108 -20.2353 0 0 228
-13.1884 37.3785 -19.7573 0 0 185
-12.8511 38.5908 -21.2722 0 0 139
-13.0282 38.0105 -20.5291 0 0 139
-14.214 38.2239 -16.8082 0 0 175
-14.2161 36.1872 -16.4883 0 0 214
-14.4629 37.4956 -16.185 0 0 175
-13.9466 38.7551 -17.4133 0 0 134
-14.214 38.2239 -16.8082 0 0 134
-13.7036 39.3921 -18.1337 0 0 179
-13.7242 37.5525 -17.832 0 0 220
-13.9466 38.7551 -17.4133 0 0 179
-13.4357 39.9505 -18.8556 0 0 138
-13.7036 39.3921 -18.1337 0 0 138
-13.2701 38.7339 -19.3017 0 0 138
-13.4357 39.9505 -18.8556 0 0 138
-17.6195 27.7025 -11.3376 0 0 130
-18.0453 26.9668 -10.9627 0 0 130
-17.6582 29.5646 -11.5525 0 0 194
-17.2037 28.4423 -11.7025 0 0 162
-17.6195 27.7025 -11.3376 0 0 162
-20.294 28.2479 -10.0953 0 0 137
-20.9463 29.4733 -10.0191 0 0 137
-19.7274 28.8477 -10.403 0 0 136
-20.294 28.2479 -10.0953 0 0 136
-20.3544 31.904 -10.5122 0 0 220
-20.9657 31.237 -10.1999 0 0 179
-20.969 33.0781 -10.4145 0 0 179
-19.1504 29.5529 -10.7351 0 0 181
-19.7274 28.8477 -10.403 0 0 181
-19.7741 30.7681 -10.6297 0 0 223
-18.6356 30.1491 -11.0747 0 0 213
-18.5889 28.2286 -10.848 0 0 175
-19.1504 29.5529 -10.7351 0 0 175
-18.1956 42.8767 -13.2401 0 0 168
-18.0849 41.087 -13.0159 0 0 204
-18.6207 42.0662 -12.7968 0 0 168
-17.7918 43.6678 -13.7065 0 0 133
-18.1956 42.8767 -13.2401 0 0 133
-14.1859 28.5068 -20.8438 0 0 144
-14.245 27.8227 -19.9775 0 0 144
-14.078 29.271 -21.7076 0 0 193
-14.1859 28.5068 -20.8438 0 0 193
-13.8319 30.2404 -20.976 0 0 241
-14.0189 29.9573 -22.5699 0 0 146
-14.078 29.271 -21.7076 0 0 146
-13.6483 31.6226 -22.7088 0 0 192
-13.4466 32.7029 -21.9733 0 0 240
-13.3709 33.3208 -22.8424 0 0 192
-14.0189 29.9573 -22.5699 0 0 145
-13.6483 31.6226 -22.7088 0 0 145
-12.5548 39.546 -22.8783 0 0 140
-12.7133 39.1424 -22.0752 0 0 140
-12.5891 38.408 -23.5097 0 0 144
-12.5548 39.546 -22.8783 0 0 144
-12.8545 36.6264 -23.2589 0 0 147
-12.5891 38.408 -23.5097 0 0 147
3 44 43 9
3 0 45 47
3 45 11 46
3 45 46 47
3 1 14 12
3 1 16 14
3 1 18 16
3 48 23 49
3 50 49 21
3 48 49 50
3 2 26 24
3 51 27 52
3 53 52 10
3 51 52 53
3 54 28 55
3 56 55 27
3 54 55 56
3 58 57 28
3 3 29 25
3 4 30 13
3 4 59 61
3 61 60 30
3 59 60 61
3 4 62 63
3 5 31 15
3 5 32 31
3 5 34 32
3 7 35 17
3 7 64 66
3 66 65 35
3 64 65 66
3 67 36 68
3 69 37 70
3 8 38 19
3 8 39 38
3 8 40 39
3 71 41 72
3 73 72 20
3 71 72 73
3 75 74 41
3 6 42 33
3 77 76 22
3 9 10 2
3 78 10 79
3 80 79 9
3 78 79 80
3 82 81 10
3 11 83 84
3 11 85 86
3 12 13 3
3 14 13 12
3 14 4 13
3 14 15 4
3 16 15 14
3 16 5 15
3 16 17 5
3 18 17 16
3 18 7 17
3 87 19 88
3 87 88 89
3 90 19 91
3 92 8 93
3 94 93 19
3 92 93 94
3 95 20 96
3 97 96 8
3 95 96 97
3 98 20 99
3 101 100 20
3 21 22 6
3 23 22 21
3 23 102 104
3 104 103 22
3 102 103 104
3 24 25 0
3 26 25 24
3 26 3 25
3 10 26 2
3 27 26 10
3 27 3 26
3 27 12 3
3 28 12 27
3 28 1 12
3 28 105 107
3 107 106 1
3 105 106 107
3 109 108 28
3 25 11 0
3 29 11 25
3 29 110 112
3 112 111 11
3 110 111 112
3 13 29 3
3 30 29 13
3 30 113 115
3 115 114 29
3 113 114 115
3 30 116 117
3 119 118 30
3 15 120 122
3 122 121 4
3 120 121 122
3 31 123 125
3 125 124 15
3 123 124 125
3 31 126 127
3 31 128 129
3 32 130 132
3 132 131 31
3 130 131 132
3 32 133 134
3 32 135 137
3 135 33 136
3 135 136 137
3 34 33 32
3 34 6 33
3 17 34 5
3 35 34 17
3 35 6 34
3 35 21 6
3 138 21 139
3 140 139 35
3 138 139 140
3 142 141 21
3 143 18 144
3 145 144 1
3 143 144 145
3 146 18 147
3 148 7 149
3 150 149 18
3 148 149 150
3 151 7 152
3 154 153 7
3 36 155 156
3 36 157 159
3 157 0 158
3 157 158 159
3 37 160 161
3 37 162 163
3 19 164 166
3 164 37 165
3 164 165 166
3 38 37 19
3 38 167 169
3 169 168 37
3 167 168 169
3 38 170 172
3 170 36 171
3 170 171 172
3 39 36 38
3 39 0 36
3 39 24 0
3 40 24 39
3 40 2 24
3 20 40 8
3 41 40 20
3 41 2 40
3 41 9 2
3 173 9 174
3 175 174 41
3 173 174 175
3 177 176 9
3 33 178 179
3 42 180 182
3 182 181 33
3 180 181 182
3 42 183 184
3 22 42 6
3 185 42 186
3 187 186 22
3 185 186 187
3 189 188 42
3 190 23 191
3 192 23 193
3 195 194 23
