ply
format ascii 1.0
element vertex 180
property float x
property float y
property float z
property uchar red
property uchar green
property uchar blue
element face 162
property list uchar int vertex_index
end_header
-39.595 -0.412017 19.4032 178 255 77
-40.2608 8.03193 13.4369 128 0 0
-36.325 3.18612 24.8714 169 0 0
-37.7923 -0.420272 23.5362 93 255 162
-38.5644 3.6536 20.7216 139 0 0
-40.0599 3.76529 16.5594 181 0 0
-40.5599 3.48714 12.2829 255 157 0
-40.4487 7.92595 9.29307 177 0 0
-35.3333 4.86056 25.7474 97 255 158
-36.6855 5.39303 23.4762 238 255 17
-37.4752 3.52419 22.8636 175 0 0
-37.861 5.57955 21.3567 229 255 26
-38.8361 5.84617 19.2302 229 255 26
-34.4538 0.779248 28.3074 0 219 255
-38.8337 -0.404788 21.4106 230 255 25
-40.1274 -0.529962 17.3543 64 255 191
-40.2261 5.79285 14.9572 162 0 0
-40.4597 3.69463 14.4166 187 0 0
-40.5337 5.72807 12.7986 159 0 0
-40.5413 5.67657 10.7042 177 0 0
-40.5015 7.93307 11.3127 154 0 0
-35.0404 2.82287 26.8802 203 255 52
-35.8559 1.09856 26.2445 210 255 45
-37.1406 1.45032 24.1345 255 186 0
-38.2324 1.66964 22.0851 152 0 0
-39.221 1.63455 19.8928 160 0 0
-39.9072 1.55056 17.8503 196 0 0
-39.4422 3.81591 18.5556 157 0 0
-39.6303 5.89362 17.1371 255 176 0
-39.7862 7.91855 15.5584 223 255 32
-40.3442 1.59456 15.7617 255 191 0
-40.5066 1.37489 13.8226 81 255 174
-40.3487 3.21714 10.2803 92 255 163
-40.2737 5.53391 8.80026 221 255 34
-40.1069 7.93959 7.25434 222 255 33
-39.723 10.1393 14.2866 106 255 149
-40.1671 10.2882 12.0672 243 255 12
-40.3648 10.2227 10.0149 215 255 40
-40.2858 10.1745 7.97744 210 255 45
-39.8912 10.0899 5.91465 0 211 255
-36.8181 6.41797 22.8134 0 0 129
-36.2137 6.15026 23.8974 0 0 129
-37.4058 6.51123 21.7537 0 0 175
-37.2733 5.48629 22.4165 0 0 219
-36.8181 6.41797 22.8134 0 0 175
-37.957 6.63395 20.6859 0 0 132
-37.4058 6.51123 21.7537 0 0 132
-34.1428 -0.331883 29.0024 0 0 134
-34.8815 -0.104071 27.9543 0 0 134
-39.4132 -1.50009 20.1575 0 0 173
-39.0325 -1.49647 21.1613 0 0 173
-39.2143 -0.408403 20.4069 0 0 215
-39.7286 -1.49526 19.1229 0 0 173
-39.5467 -2.58333 19.8773 0 0 130
-39.4132 -1.50009 20.1575 0 0 173
-39.8612 -0.47099 18.3787 0 0 210
-39.9948 -1.55423 18.0985 0 0 169
-39.7286 -1.49526 19.1229 0 0 169
-39.3499 6.91114 17.3873 0 0 172
-39.2332 5.8699 18.1836 0 0 214
-38.9528 6.88741 18.4339 0 0 172
-39.4278 7.9236 16.598 0 0 170
-39.7082 6.90609 16.3477 0 0 211
-39.3499 6.91114 17.3873 0 0 170
-37.5068 -1.49333 24.3034 0 0 130
-37.2172 -0.528173 24.5387 0 0 130
-40.4673 2.24684 12.0382 0 0 176
-40.4406 1.19072 12.808 0 0 176
-40.5332 2.43102 13.0528 0 0 220
-40.4543 3.35214 11.2816 0 0 220
-40.3617 2.11184 11.0369 0 0 176
-40.4673 2.24684 12.0382 0 0 176
-39.3634 11.1792 14.6242 0 0 130
-39.3839 10.1293 15.3331 0 0 130
-40.0889 11.3578 11.3178 0 0 133
-39.8829 11.3402 12.4493 0 0 133
-40.1877 11.3251 10.2917 0 0 170
-40.2659 10.2554 11.041 0 0 211
-40.0889 11.3578 11.3178 0 0 170
-40.1393 11.3396 7.19386 0 0 129
-40.2124 11.3171 8.19062 0 0 129
-39.942 11.2972 6.16247 0 0 179
-40.0885 10.1322 6.94605 0 0 224
-40.1393 11.3396 7.19386 0 0 179
-39.7468 11.2743 5.23467 0 0 129
-39.942 11.2972 6.16247 0 0 129
-35.5376 5.88402 25.033 0 0 130
-34.8467 5.62608 26.1377 0 0 130
-36.0094 5.1268 24.6118 0 0 217
-35.5376 5.88402 25.033 0 0 174
-36.2137 6.15026 23.8974 0 0 174
-38.4445 6.76726 19.6226 0 0 172
-38.3486 5.71286 20.2935 0 0 215
-37.957 6.63395 20.6859 0 0 172
-38.9528 6.88741 18.4339 0 0 134
-38.4445 6.76726 19.6226 0 0 134
-33.743 0.518034 29.3068 0 0 129
-33.9991 1.57909 28.6743 0 0 129
-33.4321 -0.593098 30.0018 0 0 131
-33.743 0.518034 29.3068 0 0 173
-34.1428 -0.331883 29.0024 0 0 173
-38.5662 -1.44836 22.2396 0 0 177
-38.0455 -1.45611 23.3024 0 0 177
-38.313 -0.41253 22.4734 0 0 222
-38.5662 -1.44836 22.2396 0 0 134
-39.0325 -1.49647 21.1613 0 0 134
-40.1711 -1.72502 17.1021 0 0 130
-39.9948 -1.55423 18.0985 0 0 130
-40.2584 -0.654637 16.3575 0 0 130
-40.1711 -1.72502 17.1021 0 0 130
-34.6627 4.62471 26.7662 0 0 167
-34.176 5.39023 27.1565 0 0 128
-34.8467 5.62608 26.1377 0 0 167
-34.5162 3.60586 27.3326 0 0 170
-34.6627 4.62471 26.7662 0 0 170
-35.1869 3.84172 26.3138 0 0 211
-34.2924 2.60091 27.9607 0 0 131
-34.5162 3.60586 27.3326 0 0 131
-34.7471 1.80106 27.5938 0 0 217
-33.9991 1.57909 28.6743 0 0 174
-34.2924 2.60091 27.9607 0 0 174
-35.5826 0.055583 26.9228 0 0 175
-34.8815 -0.104071 27.9543 0 0 175
-35.1548 0.938902 27.276 0 0 218
-36.249 0.231241 25.8928 0 0 130
-35.5826 0.055583 26.9228 0 0 130
-36.8913 0.407125 24.8378 0 0 173
-36.249 0.231241 25.8928 0 0 173
-36.4982 1.27444 25.1895 0 0 215
-37.4664 0.515026 23.8354 0 0 211
-37.2172 -0.528173 24.5387 0 0 170
-36.8913 0.407125 24.8378 0 0 170
-37.5068 -1.49333 24.3034 0 0 131
-38.0455 -1.45611 23.3024 0 0 131
-40.3668 0.407626 15.5612 0 0 172
-40.2584 -0.654637 16.3575 0 0 172
-40.2358 0.532301 16.558 0 0 214
-40.4479 0.297791 14.5917 0 0 170
-40.3668 0.407626 15.5612 0 0 170
-40.4254 1.48473 14.7921 0 0 211
-40.4366 0.148335 13.638 0 0 129
-40.4479 0.297791 14.5917 0 0 129
-40.4366 0.148335 13.638 0 0 132
-40.4406 1.19072 12.808 0 0 132
-40.1663 2.06461 10.0824 0 0 128
-40.3617 2.11184 11.0369 0 0 128
-40.0947 3.14274 9.30158 0 0 130
-40.1663 2.06461 10.0824 0 0 130
-40.0571 4.30112 8.56154 0 0 177
-40.0947 3.14274 9.30158 0 0 177
-40.3112 4.37553 9.5403 0 0 222
-39.9953 5.41439 7.88315 0 0 129
-40.0571 4.30112 8.56154 0 0 129
-39.9119 6.61723 7.11019 0 0 178
-39.9953 5.41439 7.88315 0 0 178
-40.1903 6.73675 8.0273 0 0 223
-39.8036 7.83911 6.35011 0 0 133
-39.9119 6.61723 7.11019 0 0 133
-39.4154 9.01888 15.969 0 0 132
-39.4278 7.9236 16.598 0 0 132
-39.7546 9.02894 14.9225 0 0 222
-39.4154 9.01888 15.969 0 0 177
-39.3839 10.1293 15.3331 0 0 177
-39.6608 11.2658 13.559 0 0 132
-39.3634 11.1792 14.6242 0 0 132
-39.9451 10.2137 13.1769 0 0 223
-39.6608 11.2658 13.559 0 0 178
-39.8829 11.3402 12.4493 0 0 178
-40.2518 11.3411 9.20935 0 0 132
-40.1877 11.3251 10.2917 0 0 132
-40.3253 10.1986 8.99616 0 0 214
-40.2518 11.3411 9.20935 0 0 172
-40.2124 11.3171 8.19062 0 0 172
-39.6958 8.91425 5.68026 0 0 167
-39.8036 7.83911 6.35011 0 0 167
-39.9991 9.01473 6.5845 0 0 207
-39.565 10.1535 4.96976 0 0 131
-39.6958 8.91425 5.68026 0 0 131
-39.565 10.1535 4.96976 0 0 129
-39.7468 11.2743 5.23467 0 0 129
3 40 9 41
3 42 11 43
3 44 43 9
3 42 43 44
3 46 45 11
3 48 47 13
3 0 49 51
3 51 50 14
3 49 50 51
3 0 52 54
3 52 53 54
3 0 55 57
3 55 15 56
3 55 56 57
3 1 18 16
3 1 20 18
3 2 21 8
3 2 22 21
3 2 23 22
3 4 24 10
3 4 25 24
3 4 27 25
3 58 28 59
3 60 59 12
3 58 59 60
3 61 29 62
3 63 62 28
3 61 62 63
3 3 64 65
3 5 30 26
3 6 31 17
3 6 66 68
3 68 67 31
3 66 67 68
3 6 69 71
3 69 32 70
3 69 70 71
3 7 33 19
3 7 34 33
3 72 35 73
3 74 36 75
3 76 37 77
3 78 77 36
3 76 77 78
3 79 38 80
3 81 39 82
3 83 82 38
3 81 82 83
3 85 84 39
3 86 8 87
3 9 88 90
3 88 8 89
3 88 89 90
3 9 2 8
3 9 10 2
3 11 10 9
3 11 4 10
3 11 12 4
3 91 12 92
3 93 92 11
3 91 92 93
3 95 94 12
3 13 96 97
3 100 99 13
3 98 99 100
3 14 101 103
3 103 102 3
3 101 102 103
3 105 104 14
3 15 106 107
3 15 108 109
3 16 17 5
3 18 17 16
3 18 6 17
3 18 19 6
3 20 19 18
3 20 7 19
3 8 110 112
3 110 111 112
3 21 113 115
3 115 114 8
3 113 114 115
3 21 116 117
3 21 118 120
3 118 13 119
3 118 119 120
3 22 13 21
3 22 121 123
3 123 122 13
3 121 122 123
3 22 124 125
3 23 126 128
3 128 127 22
3 126 127 128
3 23 129 131
3 129 3 130
3 129 130 131
3 10 23 2
3 24 23 10
3 24 3 23
3 24 14 3
3 25 14 24
3 25 0 14
3 25 26 0
3 27 26 25
3 27 5 26
3 12 27 4
3 28 27 12
3 28 5 27
3 28 16 5
3 29 16 28
3 29 1 16
3 133 132 3
3 26 15 0
3 30 15 26
3 30 134 136
3 136 135 15
3 134 135 136
3 17 30 5
3 31 30 17
3 31 137 139
3 139 138 30
3 137 138 139
3 31 140 141
3 143 142 31
3 32 144 145
3 32 146 147
3 19 32 6
3 33 32 19
3 33 148 150
3 150 149 32
3 148 149 150
3 33 151 152
3 34 153 155
3 155 154 33
3 153 154 155
3 34 156 157
3 158 29 159
3 35 160 162
3 160 29 161
3 160 161 162
3 35 1 29
3 163 35 164
3 36 165 167
3 165 35 166
3 165 166 167
3 36 1 35
3 36 20 1
3 37 20 36
3 37 7 20
3 168 37 169
3 38 170 172
3 170 37 171
3 170 171 172
3 38 7 37
3 38 34 7
3 39 34 38
3 39 173 175
3 175 174 34
3 173 174 175
3 39 176 177
3 179 178 39
