ply
format ascii 1.0
element vertex 197
property float x
property float y
property float z
property uchar red
property uchar green
property uchar blue
element face 193
property list uchar int vertex_index
end_header
-22.6998 4.37402 -18.2879 142 255 113
-30.4922 12.8791 -35.2565 222 255 33
-29.5043 4.93872 -25.8135 230 0 0
-23.9384 11.646 -26.532 189 255 66
-27.5463 16.098 -35.9238 233 255 22
-25.2372 0.577752 -17.9141 30 255 225
-26.0239 4.30642 -21.9362 255 11 0
-26.7164 8.26711 -26.2814 221 0 0
-23.3335 7.99477 -22.3084 231 0 0
-33.2697 9.42537 -34.3505 42 255 213
-32.8111 5.73117 -29.798 255 22 0
-30.2108 8.94994 -30.444 252 0 0
-27.2738 12.1635 -30.8864 135 0 0
-24.3773 15.4304 -31.1441 239 255 16
-25.9241 17.6945 -35.9787 100 255 155
-23.9718 2.39237 -18.0931 145 255 110
-25.6173 2.52777 -19.9743 255 38 0
-24.3243 4.26298 -20.114 255 22 0
-24.5226 6.17843 -22.0348 236 0 0
-22.9103 6.16532 -20.1324 255 24 0
-32.0065 11.134 -34.8693 209 255 46
-29.0641 2.93772 -23.6109 168 255 87
-30.8518 3.27651 -25.5486 159 255 96
-32.5783 3.66153 -27.5601 157 255 98
-31.1642 5.26389 -27.6823 236 0 0
-31.5304 7.32119 -30.0816 255 19 0
-29.8783 7.06321 -28.1937 241 0 0
-25.3583 9.98365 -26.5302 225 0 0
-27.0609 10.0596 -28.4233 207 0 0
-25.5276 11.8595 -28.6266 172 0 0
-25.7979 13.767 -31.0102 138 0 0
-24.0888 13.6275 -28.7729 216 255 39
-29.0157 14.5531 -35.6651 221 255 34
-26.9606 0.759686 -19.7804 36 255 219
-27.388 2.5563 -21.7276 252 255 3
-27.6758 4.5569 -23.7622 248 0 0
-28.1562 6.50323 -26.0071 201 0 0
-26.3077 6.28223 -23.9999 209 0 0
-25.0274 8.04186 -24.2986 216 0 0
-23.5974 9.8631 -24.3715 255 188 0
-34.0563 4.04563 -29.5126 23 255 232
-34.404 5.91337 -31.8244 19 255 236
-33.1416 7.5077 -32.0119 245 255 10
-31.8069 9.17433 -32.3519 253 0 0
-30.3623 10.8652 -32.7027 176 0 0
-28.5014 8.49348 -28.2814 234 0 0
-28.6732 10.4734 -30.5098 180 0 0
-28.971 12.5378 -33.1422 150 0 0
-27.4396 14.1377 -33.3319 130 0 0
-25.9421 15.8358 -33.6132 128 0 0
-24.4335 17.4096 -33.6 107 255 148
-21.4098 6.40806 -18.332 15 255 240
-21.7245 8.13864 -20.3326 164 255 91
-21.9689 9.9949 -22.3789 77 255 178
-25.1292 19.4989 -37.4026 0 0 138
-25.8785 18.6381 -37.2617 0 0 181
-25.1748 18.5553 -36.1196 0 0 181
-31.2319 12.9841 -36.3067 0 0 179
-31.989 12.1116 -36.1131 0 0 179
-31.2494 12.0065 -35.0629 0 0 221
-28.2706 16.2556 -37.042 0 0 175
-29.0053 15.4831 -36.9126 0 0 175
-28.281 15.3256 -35.7945 0 0 215
-26.0989 0.668719 -18.8472 0 0 208
-26.7996 -0.193479 -18.821 0 0 170
-25.9379 -0.284446 -17.8878 0 0 170
-33.9554 9.5195 -35.4362 0 0 133
-33.9053 8.60455 -34.2233 0 0 133
-20.8601 7.4846 -18.4387 0 0 128
-20.7263 6.76176 -17.5623 0 0 128
-21.0175 8.34989 -19.439 0 0 169
-21.5672 7.27335 -19.3323 0 0 206
-20.8601 7.4846 -18.4387 0 0 169
-21.3126 11.115 -22.4474 0 0 138
-21.2267 10.146 -21.3972 0 0 138
-22.1113 10.9121 -23.4469 0 0 139
-21.3126 11.115 -22.4474 0 0 139
-26.6601 17.8727 -37.2085 0 0 185
-27.4712 17.0745 -37.1811 0 0 185
-26.7352 16.8963 -35.9512 0 0 230
-26.6601 17.8727 -37.2085 0 0 139
-25.8785 18.6381 -37.2617 0 0 139
-32.7041 11.2471 -35.9232 0 0 174
-33.3357 10.3927 -35.6638 0 0 174
-32.6381 10.2797 -34.6099 0 0 213
-32.7041 11.2471 -35.9232 0 0 136
-31.989 12.1116 -36.1131 0 0 136
-29.7994 2.14925 -23.5947 0 0 134
-28.9304 1.90958 -22.6018 0 0 134
-30.6933 2.31865 -24.5635 0 0 171
-29.7994 2.14925 -23.5947 0 0 171
-29.9579 3.10711 -24.5797 0 0 209
-31.5406 2.50867 -25.5185 0 0 131
-30.6933 2.31865 -24.5635 0 0 131
-31.7151 3.46902 -26.5544 0 0 207
-32.4039 2.70118 -26.5243 0 0 170
-31.5406 2.50867 -25.5185 0 0 170
-29.7637 14.7083 -36.7868 0 0 182
-30.502 13.8712 -36.5825 0 0 182
-29.754 13.7161 -35.4608 0 0 225
-29.7637 14.7083 -36.7868 0 0 136
-29.0053 15.4831 -36.9126 0 0 136
-28.2706 16.2556 -37.042 0 0 138
-27.4712 17.0745 -37.1811 0 0 138
-27.6537 -0.143067 -19.6686 0 0 132
-26.7996 -0.193479 -18.821 0 0 132
-27.8787 0.820569 -20.6866 0 0 135
-27.6537 -0.143067 -19.6686 0 0 135
-28.0924 1.71888 -21.6602 0 0 169
-27.8787 0.820569 -20.6866 0 0 169
-27.1743 1.65799 -20.754 0 0 207
-28.226 2.74701 -22.6692 0 0 210
-28.9304 1.90958 -22.6018 0 0 172
-28.0924 1.71888 -21.6602 0 0 172
-25.0851 -0.253233 -17.0461 0 0 163
-25.9379 -0.284446 -17.8878 0 0 163
-25.7858 -1.11543 -17.0198 0 0 129
-24.4047 0.616542 -17.0266 0 0 129
-25.0851 -0.253233 -17.0461 0 0 129
-23.772 1.52385 -17.1161 0 0 167
-24.6045 1.48506 -18.0036 0 0 202
-24.4047 0.616542 -17.0266 0 0 167
-23.1727 2.50311 -17.2146 0 0 132
-23.772 1.52385 -17.1161 0 0 132
-22.5367 3.49394 -17.312 0 0 169
-23.3358 3.3832 -18.1905 0 0 206
-23.1727 2.50311 -17.2146 0 0 169
-33.9554 9.5195 -35.4362 0 0 135
-33.3357 10.3927 -35.6638 0 0 135
-31.2319 12.9841 -36.3067 0 0 138
-30.502 13.8712 -36.5825 0 0 138
-33.2261 2.86695 -27.5099 0 0 132
-32.4039 2.70118 -26.5243 0 0 132
-33.9651 3.059 -28.4861 0 0 166
-33.2261 2.86695 -27.5099 0 0 166
-33.3173 3.85358 -28.5363 0 0 201
-34.6577 3.153 -29.3693 0 0 164
-34.5666 2.16636 -28.3429 0 0 129
-33.9651 3.059 -28.4861 0 0 164
-34.7687 4.11478 -30.4632 0 0 131
-34.6577 3.153 -29.3693 0 0 131
-34.9425 5.04865 -31.6192 0 0 165
-34.7687 4.11478 -30.4632 0 0 165
-34.2302 4.9795 -30.6685 0 0 200
-35.0583 5.93456 -32.7479 0 0 161
-35.5968 5.06984 -32.5427 0 0 128
-34.9425 5.04865 -31.6192 0 0 161
-34.4725 6.84855 -32.9603 0 0 130
-35.0583 5.93456 -32.7479 0 0 130
-33.8412 7.64571 -33.0541 0 0 167
-34.4725 6.84855 -32.9603 0 0 167
-33.7728 6.71053 -31.9182 0 0 203
-33.2056 8.46653 -33.1812 0 0 206
-33.9053 8.60455 -34.2233 0 0 169
-33.8412 7.64571 -33.0541 0 0 169
-24.4295 18.4129 -34.9303 0 0 186
-25.1748 18.5553 -36.1196 0 0 186
-25.1788 17.552 -34.7893 0 0 231
-21.9569 4.54305 -17.4168 0 0 132
-22.5367 3.49394 -17.312 0 0 132
-21.3119 5.56007 -17.4389 0 0 131
-20.7263 6.76176 -17.5623 0 0 131
-22.0548 5.39104 -18.31 0 0 201
-21.9569 4.54305 -17.4168 0 0 166
-21.3119 5.56007 -17.4389 0 0 166
-21.1045 9.21782 -20.374 0 0 169
-21.0175 8.34989 -19.439 0 0 169
-20.3975 9.42908 -19.4804 0 0 132
-21.8467 9.06677 -21.3557 0 0 217
-21.1045 9.21782 -20.374 0 0 176
-21.2267 10.146 -21.3972 0 0 176
-22.9255 10.8462 -24.4432 0 0 177
-22.7832 9.929 -23.3752 0 0 217
-22.1113 10.9121 -23.4469 0 0 177
-23.096 11.7377 -25.5234 0 0 178
-23.7679 10.7545 -25.4518 0 0 219
-22.9255 10.8462 -24.4432 0 0 178
-23.223 12.6403 -26.5977 0 0 137
-23.096 11.7377 -25.5234 0 0 137
-23.2982 13.631 -27.7181 0 0 182
-24.0136 12.6368 -27.6525 0 0 226
-23.223 12.6403 -26.5977 0 0 182
-23.4028 14.5385 -28.8312 0 0 136
-23.2982 13.631 -27.7181 0 0 136
-23.547 15.4399 -30.0168 0 0 181
-24.233 14.529 -29.9585 0 0 224
-23.4028 14.5385 -28.8312 0 0 181
-23.6463 16.3797 -31.236 0 0 141
-23.547 15.4399 -30.0168 0 0 141
-23.6745 17.3693 -32.4639 0 0 185
-24.4054 16.42 -32.3721 0 0 230
-23.6463 16.3797 -31.236 0 0 185
-23.6816 18.3017 -33.6423 0 0 138
-23.6745 17.3693 -32.4639 0 0 138
-23.6776 19.305 -34.9726 0 0 143
-24.4295 18.4129 -34.9303 0 0 191
-23.6816 18.3017 -33.6423 0 0 191
3 56 55 14
3 54 55 56
3 0 17 15
3 0 19 17
3 1 57 59
3 59 58 20
3 57 58 59
3 2 22 21
3 2 24 22
3 2 26 24
3 3 29 27
3 3 31 29
3 4 60 62
3 62 61 32
3 60 61 62
3 5 63 65
3 63 33 64
3 63 64 65
3 6 34 16
3 6 35 34
3 6 37 35
3 8 38 18
3 8 39 38
3 9 66 67
3 10 40 23
3 10 41 40
3 10 42 41
3 11 43 25
3 11 44 43
3 7 45 36
3 12 46 28
3 12 47 46
3 12 48 47
3 13 49 30
3 13 50 49
3 68 51 69
3 70 52 71
3 72 71 51
3 70 71 72
3 73 53 74
3 76 75 53
3 14 77 79
3 79 78 4
3 77 78 79
3 81 80 14
3 15 16 5
3 17 16 15
3 17 6 16
3 17 18 6
3 19 18 17
3 19 8 18
3 20 82 84
3 84 83 9
3 82 83 84
3 86 85 20
3 21 87 88
3 22 89 91
3 91 90 21
3 89 90 91
3 22 92 93
3 22 94 96
3 94 23 95
3 94 95 96
3 24 23 22
3 24 10 23
3 24 25 10
3 26 25 24
3 26 11 25
3 27 28 7
3 29 28 27
3 29 12 28
3 29 30 12
3 31 30 29
3 31 13 30
3 32 97 99
3 99 98 1
3 97 98 99
3 101 100 32
3 103 102 4
3 33 104 105
3 33 106 107
3 16 33 5
3 34 33 16
3 34 108 110
3 110 109 33
3 108 109 110
3 34 111 113
3 111 21 112
3 111 112 113
3 35 21 34
3 35 2 21
3 35 36 2
3 37 36 35
3 37 7 36
3 18 37 6
3 38 37 18
3 38 7 37
3 38 27 7
3 39 27 38
3 39 3 27
3 114 5 115
3 114 115 116
3 117 5 118
3 119 15 120
3 121 120 5
3 119 120 121
3 122 15 123
3 124 0 125
3 126 125 15
3 124 125 126
3 128 127 9
3 130 129 1
3 23 131 132
3 40 133 135
3 135 134 23
3 133 134 135
3 40 136 138
3 136 137 138
3 40 139 140
3 41 141 143
3 143 142 40
3 141 142 143
3 41 144 146
3 144 145 146
3 41 147 148
3 42 149 151
3 151 150 41
3 149 150 151
3 42 152 154
3 152 9 153
3 152 153 154
3 25 42 10
3 43 42 25
3 43 9 42
3 43 20 9
3 44 20 43
3 44 1 20
3 36 26 2
3 45 26 36
3 45 11 26
3 28 45 7
3 46 45 28
3 46 11 45
3 46 44 11
3 47 44 46
3 47 1 44
3 47 32 1
3 48 32 47
3 48 4 32
3 30 48 12
3 49 48 30
3 49 4 48
3 49 14 4
3 50 14 49
3 50 155 157
3 157 156 14
3 155 156 157
3 158 0 159
3 51 160 161
3 51 162 164
3 162 0 163
3 162 163 164
3 51 19 0
3 52 19 51
3 52 8 19
3 165 52 166
3 165 166 167
3 53 168 170
3 168 52 169
3 168 169 170
3 53 8 52
3 53 39 8
3 171 39 172
3 173 172 53
3 171 172 173
3 174 3 175
3 176 175 39
3 174 175 176
3 177 3 178
3 179 31 180
3 181 180 3
3 179 180 181
3 182 31 183
3 184 13 185
3 186 185 31
3 184 185 186
3 187 13 188
3 189 50 190
3 191 190 13
3 189 190 191
3 192 50 193
3 196 195 50
3 194 195 196
