ply
format ascii 1.0
element vertex 193
property float x
property float y
property float z
property uchar red
property uchar green
property uchar blue
element face 187
property list uchar int vertex_index
end_header
-35.1151 24.7505 11.9644 198 255 57
-31.6958 22.5191 21.3521 119 255 136
-39.2737 17.0516 7.9455 255 22 0
-36.3177 25.1828 7.45475 173 255 82
-36.2918 20.2583 14.3224 128 0 0
-38.5631 16.538 12.1671 225 0 0
-37.5732 20.9849 9.75533 199 0 0
-38.245 21.3307 5.33091 255 58 0
-33.5365 23.8748 16.6378 247 255 8
-34.4339 19.3517 18.9596 131 0 0
-40.0107 12.4274 10.5685 157 255 98
-39.9928 12.5046 6.41028 150 255 105
-39.2028 17.0721 3.81491 201 255 54
-35.7419 25.04 9.74357 191 255 64
-35.6994 22.5582 13.1992 140 0 0
-36.996 20.7328 11.9586 139 0 0
-36.3568 23.0159 10.8208 166 0 0
-36.9843 23.1412 8.50176 198 0 0
-32.6342 23.3047 18.9693 251 255 4
-32.0683 20.4043 22.292 100 255 155
-33.3578 18.7195 21.3202 236 255 19
-33.1364 21.0171 19.9742 140 0 0
-34.0361 21.6373 17.7692 151 0 0
-39.0153 16.7934 10.0547 246 0 0
-39.4079 14.449 11.4017 247 0 0
-39.7213 14.6474 9.19525 239 0 0
-40.1389 12.4596 8.4038 162 255 93
-39.7802 14.8974 7.03694 255 10 0
-39.6253 14.9048 5.04108 255 60 0
-39.3585 17.1115 5.80301 255 67 0
-37.6308 23.3624 4.16249 117 255 138
-38.2906 21.3793 3.31987 83 255 172
-36.6743 25.3605 5.3228 31 255 224
-36.7288 18.1249 15.4308 255 159 0
-37.8872 16.2053 14.467 191 255 64
-37.5233 18.4092 13.192 171 0 0
-38.1098 18.8072 10.9221 211 0 0
-38.571 18.9979 8.69546 255 19 0
-38.8156 19.1893 6.51672 255 60 0
-38.051 21.04 7.55389 249 0 0
-37.3938 23.2918 6.30799 255 5 0
-34.4542 24.2476 14.223 221 255 34
-34.681 17.1254 20.2083 111 255 144
-35.7702 17.6837 17.801 254 255 1
-35.3829 19.9396 16.6259 131 0 0
-34.8991 22.1335 15.5211 144 0 0
-38.8189 14.3988 13.5977 167 255 88
-39.5986 12.3923 12.8314 44 255 211
-39.6024 12.4588 4.55469 20 255 235
-39.2166 14.6769 3.17905 8 255 247
-38.8657 19.2481 4.47658 255 108 0
-38.6975 19.2634 2.63002 0 222 255
-34.7891 25.8086 11.3841 0 0 179
-35.1025 25.9533 10.2737 0 0 179
-35.4285 24.8952 10.854 0 0 219
-31.4429 23.7442 20.79 0 0 194
-31.912 24.137 19.5986 0 0 194
-32.165 22.9119 20.1607 0 0 242
-37.6297 23.4259 3.21721 0 0 130
-37.2578 24.4034 3.70325 0 0 130
-35.9391 26.2566 6.85201 0 0 176
-36.1174 26.3454 5.78603 0 0 176
-36.496 25.2716 6.38877 0 0 214
-33.2582 24.9712 16.0662 0 0 191
-33.717 25.1576 14.8588 0 0 191
-33.9954 24.0612 15.4304 0 0 237
-40.0889 11.3578 11.3178 0 0 177
-39.8829 11.3402 12.4493 0 0 177
-39.8046 12.4099 11.6999 0 0 216
-40.1877 11.3251 10.2917 0 0 134
-40.0889 11.3578 11.3178 0 0 134
-40.1393 11.3396 7.19386 0 0 171
-40.2124 11.3171 8.19062 0 0 171
-40.0659 12.4821 7.40704 0 0 207
-39.942 11.2972 6.16247 0 0 138
-40.1393 11.3396 7.19386 0 0 138
-39.7976 12.4817 5.48249 0 0 206
-39.7468 11.2743 5.23467 0 0 170
-39.942 11.2972 6.16247 0 0 170
-39.0047 17.0755 2.93006 0 0 167
-39.0116 15.878 2.61213 0 0 167
-39.2097 15.8745 3.49698 0 0 201
-38.4091 20.32 2.05658 0 0 161
-38.494 20.3214 2.97495 0 0 193
-38.2056 21.378 2.4015 0 0 161
-38.5048 19.2718 1.77664 0 0 128
-38.4091 20.32 2.05658 0 0 128
-35.4101 26.0791 9.12687 0 0 181
-35.698 26.1505 7.98246 0 0 181
-36.0298 25.1114 8.59916 0 0 223
-35.4101 26.0791 9.12687 0 0 139
-35.1025 25.9533 10.2737 0 0 139
-32.3489 24.436 18.4619 0 0 188
-32.8001 24.721 17.2962 0 0 188
-33.0854 23.5897 17.8036 0 0 233
-32.3489 24.436 18.4619 0 0 142
-31.912 24.137 19.5986 0 0 142
-32.7131 19.5619 21.8061 0 0 225
-32.8025 18.4196 22.4242 0 0 183
-32.1577 19.262 22.9101 0 0 183
-37.9596 22.4344 2.7959 0 0 162
-37.9607 22.3708 3.74118 0 0 194
-37.6297 23.4259 3.21721 0 0 162
-38.2056 21.378 2.4015 0 0 130
-37.9596 22.4344 2.7959 0 0 130
-30.4343 23.1854 23.0352 0 0 145
-30.9781 23.4442 21.902 0 0 191
-31.152 22.2603 22.4853 0 0 191
-31.5234 20.0774 23.4026 0 0 182
-32.1577 19.262 22.9101 0 0 182
-31.6129 18.9352 24.0207 0 0 140
-31.3383 21.2029 22.9553 0 0 141
-31.5234 20.0774 23.4026 0 0 141
-31.152 22.2603 22.4853 0 0 182
-31.882 21.4617 21.8221 0 0 224
-31.3383 21.2029 22.9553 0 0 182
-36.3119 26.3336 4.77408 0 0 132
-36.7796 25.4025 4.2834 0 0 132
-36.3119 26.3336 4.77408 0 0 133
-36.1174 26.3454 5.78603 0 0 133
-35.9391 26.2566 6.85201 0 0 140
-35.698 26.1505 7.98246 0 0 140
-37.308 17.1651 14.9489 0 0 219
-37.4551 16.0997 15.5615 0 0 179
-36.8759 17.0595 16.0434 0 0 179
-36.7796 25.4025 4.2834 0 0 171
-37.2578 24.4034 3.70325 0 0 171
-37.1525 24.3614 4.74264 0 0 208
-34.1223 25.3398 13.6965 0 0 181
-34.4527 25.5912 12.5672 0 0 181
-34.7846 24.499 13.0937 0 0 222
-34.1223 25.3398 13.6965 0 0 143
-33.717 25.1576 14.8588 0 0 143
-32.5218 25.8175 16.7246 0 0 144
-33.2582 24.9712 16.0662 0 0 191
-32.8001 24.721 17.2962 0 0 191
-31.4429 23.7442 20.79 0 0 144
-30.9781 23.4442 21.902 0 0 144
-33.4544 17.6498 21.8815 0 0 138
-32.8025 18.4196 22.4242 0 0 138
-34.116 16.8528 21.3255 0 0 180
-33.4544 17.6498 21.8815 0 0 180
-34.0194 17.9225 20.7642 0 0 220
-34.7416 16.0498 20.8321 0 0 138
-34.116 16.8528 21.3255 0 0 138
-35.3484 16.2706 19.6395 0 0 142
-34.7416 16.0498 20.8321 0 0 142
-35.893 16.5498 18.4358 0 0 189
-35.3484 16.2706 19.6395 0 0 189
-35.2256 17.4046 19.0047 0 0 235
-36.3966 16.8389 17.2285 0 0 143
-35.893 16.5498 18.4358 0 0 143
-36.2495 17.9043 16.6159 0 0 225
-36.8759 17.0595 16.0434 0 0 182
-36.3966 16.8389 17.2285 0 0 182
-34.7891 25.8086 11.3841 0 0 140
-34.4527 25.5912 12.5672 0 0 140
-37.9797 15.1678 15.152 0 0 137
-37.4551 16.0997 15.5615 0 0 137
-38.4455 14.2646 14.7174 0 0 174
-37.9797 15.1678 15.152 0 0 174
-38.3531 15.3021 14.0323 0 0 211
-38.9114 13.3089 14.2798 0 0 138
-38.4455 14.2646 14.7174 0 0 138
-39.3012 12.3056 13.8966 0 0 173
-38.9114 13.3089 14.2798 0 0 173
-39.2087 13.3956 13.2146 0 0 211
-39.6608 11.2658 13.559 0 0 175
-39.3634 11.1792 14.6242 0 0 137
-39.3012 12.3056 13.8966 0 0 175
-39.6608 11.2658 13.559 0 0 137
-39.8829 11.3402 12.4493 0 0 137
-40.2518 11.3411 9.20935 0 0 175
-40.1877 11.3251 10.2917 0 0 175
-40.0748 12.4435 9.48613 0 0 213
-40.2518 11.3411 9.20935 0 0 135
-40.2124 11.3171 8.19062 0 0 135
-39.4206 11.3379 4.28978 0 0 134
-39.7468 11.2743 5.23467 0 0 134
-39.2518 12.4704 3.61443 0 0 134
-39.4206 11.3379 4.28978 0 0 134
-39.0589 13.5794 2.92661 0 0 168
-39.2518 12.4704 3.61443 0 0 168
-39.4095 13.5679 3.86687 0 0 203
-38.8722 14.7355 2.30694 0 0 131
-39.0589 13.5794 2.92661 0 0 131
-38.8722 14.7355 2.30694 0 0 133
-39.0116 15.878 2.61213 0 0 133
-38.752 18.1712 2.33761 0 0 161
-39.0047 17.0755 2.93006 0 0 161
-38.9501 18.1678 3.22247 0 0 193
-38.752 18.1712 2.33761 0 0 129
-38.5048 19.2718 1.77664 0 0 129
3 0 52 54
3 54 53 13
3 52 53 54
3 0 16 14
3 0 13 16
3 1 55 57
3 57 56 18
3 55 56 57
3 1 21 19
3 1 18 21
3 2 25 23
3 2 27 25
3 2 29 27
3 59 58 30
3 3 60 62
3 62 61 32
3 60 61 62
3 4 35 33
3 6 36 15
3 6 37 36
3 6 39 37
3 3 40 17
3 3 32 40
3 8 63 65
3 65 64 41
3 63 64 65
3 9 42 20
3 9 43 42
3 9 44 43
3 8 45 22
3 8 41 45
3 5 46 34
3 10 47 24
3 10 66 68
3 68 67 47
3 66 67 68
3 10 69 70
3 11 71 73
3 73 72 26
3 71 72 73
3 11 74 75
3 11 76 78
3 76 48 77
3 76 77 78
3 12 49 28
3 12 79 81
3 81 80 49
3 79 80 81
3 7 50 38
3 82 51 83
3 84 83 31
3 82 83 84
3 86 85 51
3 13 87 89
3 89 88 3
3 87 88 89
3 91 90 13
3 14 15 4
3 16 15 14
3 16 6 15
3 16 17 6
3 13 17 16
3 13 3 17
3 18 92 94
3 94 93 8
3 92 93 94
3 96 95 18
3 19 97 99
3 97 20 98
3 97 98 99
3 21 20 19
3 21 9 20
3 21 22 9
3 18 22 21
3 18 8 22
3 23 24 5
3 25 24 23
3 25 10 24
3 25 26 10
3 27 26 25
3 27 11 26
3 27 28 11
3 29 28 27
3 29 12 28
3 30 31 7
3 100 31 101
3 102 101 30
3 100 101 102
3 104 103 31
3 107 106 1
3 105 106 107
3 108 19 109
3 108 109 110
3 111 19 112
3 113 1 114
3 115 114 19
3 113 114 115
3 32 116 117
3 119 118 32
3 121 120 3
3 33 122 124
3 122 34 123
3 122 123 124
3 35 34 33
3 35 5 34
3 15 35 4
3 36 35 15
3 36 5 35
3 36 23 5
3 37 23 36
3 37 2 23
3 37 38 2
3 39 38 37
3 39 7 38
3 17 39 6
3 40 39 17
3 40 7 39
3 40 30 7
3 32 30 40
3 32 125 127
3 127 126 30
3 125 126 127
3 41 128 130
3 130 129 0
3 128 129 130
3 132 131 41
3 135 134 8
3 133 134 135
3 137 136 1
3 20 138 139
3 42 140 142
3 142 141 20
3 140 141 142
3 42 143 144
3 42 145 146
3 43 147 149
3 149 148 42
3 147 148 149
3 43 150 151
3 43 152 154
3 152 33 153
3 152 153 154
3 44 33 43
3 44 4 33
3 22 44 9
3 45 44 22
3 45 4 44
3 45 14 4
3 41 14 45
3 41 0 14
3 156 155 0
3 34 157 158
3 46 159 161
3 161 160 34
3 159 160 161
3 46 162 163
3 24 46 5
3 47 46 24
3 47 164 166
3 166 165 46
3 164 165 166
3 47 167 169
3 167 168 169
3 171 170 47
3 26 172 174
3 174 173 10
3 172 173 174
3 176 175 26
3 48 177 178
3 48 179 180
3 28 48 11
3 49 48 28
3 49 181 183
3 183 182 48
3 181 182 183
3 49 184 185
3 187 186 49
3 38 29 2
3 50 29 38
3 50 12 29
3 31 50 7
3 51 50 31
3 51 12 50
3 51 188 190
3 190 189 12
3 188 189 190
3 192 191 51
