ply
format ascii 1.0
element vertex 266
property float x
property float y
property float z
property uchar red
property uchar green
property uchar blue
element face 277
property list uchar int vertex_index
end_header
-33.3063 -9.36459 -17.5825 173 0 0
-28.0512 -2.86425 -17.768 191 0 0
-32.7228 -16.6334 -10.5163 152 255 103
-34.6406 -1.70131 -25.0358 224 0 0
-37.586 -16.677 -17.5369 255 45 0
-36.2379 -8.91775 -21.3379 255 8 0
-36.7084 -5.11231 -24.828 124 255 131
-33.9773 -5.47868 -21.325 255 16 0
-28.7968 0.881451 -21.5928 125 255 130
-32.805 -13.1067 -13.9544 228 0 0
-35.3187 -16.6713 -14.0018 255 19 0
-35.7076 -12.9164 -17.6191 255 2 0
-38.0152 -12.5525 -21.3124 138 255 117
-30.1581 -9.83482 -13.9781 242 0 0
-30.6864 -6.00476 -17.6652 169 0 0
-27.3361 -6.43395 -14.0716 241 0 0
-29.9223 -13.0967 -10.7003 17 255 238
-31.4392 -2.26981 -21.3862 128 0 0
-32.2294 1.74084 -25.4885 229 255 26
-35.2012 -20.2347 -10.3591 128 255 127
-37.3285 -20.5035 -13.9393 255 55 0
-34.8025 -9.0825 -19.4552 196 0 0
-35.0538 -7.13217 -21.2313 255 4 0
-33.6133 -7.36701 -19.4723 231 0 0
-33.092 -11.3126 -15.7829 197 0 0
-34.3507 -12.9879 -15.8543 234 0 0
-34.5738 -11.0726 -17.6498 205 0 0
-35.9696 -10.9397 -19.4744 240 0 0
-28.5771 -9.85515 -12.3216 170 255 85
-28.8162 -8.10172 -14.1187 215 0 0
-27.189 -8.11052 -12.4356 166 255 89
-29.9448 -11.5057 -12.265 255 249 0
-35.7073 -3.35164 -24.9221 255 235 0
-35.9675 -1.28172 -26.9448 42 255 213
-34.9884 0.29642 -27.1204 189 255 66
-29.4052 -4.54632 -17.6429 192 0 0
-31.0784 -4.15402 -19.5255 164 0 0
-29.6843 -2.5575 -19.5301 150 0 0
-30.5348 1.36079 -23.5785 219 255 36
-34.1381 -20.1194 -8.66191 0 151 255
-33.9958 -18.4315 -10.3945 255 245 0
-36.4996 -16.5899 -15.8197 255 16 0
-36.4268 -18.4966 -14.0872 255 25 0
-37.5153 -18.7053 -15.8125 255 40 0
-38.2614 -20.7161 -15.7276 125 255 130
-38.38 -18.6069 -17.5988 127 255 128
-38.5377 -16.5261 -19.4407 29 255 226
-38.2246 -10.5761 -23.0747 14 255 241
-37.3763 -8.77993 -23.0223 231 255 24
-37.6334 -6.79768 -24.8773 6 255 249
-36.4319 -6.97824 -23.0401 255 52 0
-35.4358 -5.29126 -23.0808 255 40 0
-34.2921 -3.65341 -23.0881 247 0 0
-26.6385 -1.14664 -17.8615 91 255 164
-28.3469 -1.04582 -19.5568 255 149 0
-32.8045 -14.9932 -12.2499 255 11 0
-34.0978 -16.7143 -12.2766 255 11 0
-34.1282 -14.8609 -14.0072 255 0 0
-35.4002 -14.734 -15.7587 255 16 0
-36.6983 -14.7592 -17.5814 255 30 0
-37.8032 -14.6732 -19.4182 255 255 0
-36.9299 -12.8286 -19.394 255 34 0
-37.1274 -10.8067 -21.1733 255 53 0
-31.6722 -9.63406 -15.6782 187 0 0
-32.0551 -7.6907 -17.6375 162 0 0
-30.3761 -7.86572 -15.8519 167 0 0
-28.8927 -6.23195 -15.7701 204 0 0
-27.6271 -4.57605 -15.9367 210 0 0
-25.7784 -6.32248 -12.5259 28 255 227
-26.0293 -4.67522 -14.2548 176 255 79
-26.3089 -2.89192 -16.0639 201 255 54
-31.3484 -14.773 -10.6912 143 255 112
-31.4031 -13.1517 -12.3355 255 25 0
-31.502 -11.3961 -14.015 255 3 0
-32.4355 -5.76446 -19.5425 185 0 0
-32.7875 -3.82069 -21.4292 191 0 0
-33.1141 -1.81183 -23.3677 152 0 0
-30.1819 -0.601928 -21.6012 134 0 0
-31.7631 -0.136483 -23.4448 149 0 0
-33.472 0.100996 -25.3151 155 0 0
-33.874 2.07236 -27.4597 97 255 158
-35.2943 -18.5496 -12.2353 255 21 0
-36.3057 -20.3319 -12.1814 241 255 14
-37.2114 -22.2456 -12.0955 18 255 237
-38.1039 -22.5368 -13.8679 20 255 235
-27.077 -8.84842 -11.6095 0 0 169
-27.8831 -8.98283 -12.3786 0 0 206
-27.7711 -9.72074 -11.5525 0 0 169
-27.7711 -9.72074 -11.5525 0 0 135
-28.4937 -10.6356 -11.4806 0 0 135
-33.3593 -17.5325 -10.4554 0 0 201
-33.3951 -18.339 -9.59366 0 0 166
-32.7586 -17.44 -9.65457 0 0 166
-38.6801 -10.5921 -23.9094 0 0 130
-38.3048 -9.58845 -23.9206 0 0 130
-26.7996 -0.193479 -18.821 0 0 141
-25.9379 -0.284446 -17.8878 0 0 141
-25.1097 -6.22196 -11.8191 0 0 163
-25.7038 -7.12119 -11.6813 0 0 163
-25.0351 -7.02068 -10.9745 0 0 130
-25.3386 -3.78328 -14.2809 0 0 135
-25.2628 -4.62551 -13.4462 0 0 135
-25.4784 -2.89164 -15.1855 0 0 181
-26.1691 -3.78357 -15.1594 0 0 223
-25.3386 -3.78328 -14.2809 0 0 181
-25.621 -1.98807 -16.121 0 0 139
-25.4784 -2.89164 -15.1855 0 0 139
-29.9212 -13.8231 -9.91499 0 0 131
-29.1816 -12.9906 -9.89961 0 0 131
-30.6354 -13.9348 -10.6958 0 0 198
-30.6342 -14.6613 -9.91046 0 0 164
-29.9212 -13.8231 -9.91499 0 0 164
-37.3046 -5.0648 -25.7524 0 0 166
-37.7671 -5.90749 -25.777 0 0 166
-37.1709 -5.95499 -24.8526 0 0 201
-35.2126 -21.0239 -9.44242 0 0 162
-34.681 -20.9663 -8.59383 0 0 162
-34.6697 -20.177 -9.5105 0 0 195
-35.7243 -21.1861 -10.2739 0 0 131
-35.2126 -21.0239 -9.44242 0 0 131
-38.5668 -21.6754 -15.7543 0 0 131
-38.64 -20.6652 -16.6828 0 0 131
-38.4063 -13.5249 -21.3526 0 0 174
-38.3002 -14.5852 -20.4055 0 0 174
-37.9092 -13.6128 -20.3653 0 0 213
-29.1663 -12.2563 -10.67 0 0 132
-29.1816 -12.9906 -9.89961 0 0 132
-29.1775 -11.4609 -11.4523 0 0 170
-29.9335 -12.3012 -11.4827 0 0 207
-29.1663 -12.2563 -10.67 0 0 170
-29.2609 -10.6804 -12.2933 0 0 205
-29.1775 -11.4609 -11.4523 0 0 169
-28.4937 -10.6356 -11.4806 0 0 169
-36.3526 -3.2676 -25.8445 0 0 172
-36.8532 -4.14793 -25.7975 0 0 172
-36.2079 -4.23197 -24.875 0 0 211
-36.4827 -2.23264 -26.8559 0 0 178
-36.3526 -3.2676 -25.8445 0 0 178
-35.8374 -2.31668 -25.9334 0 0 219
-36.61 -1.38013 -27.7666 0 0 133
-36.4827 -2.23264 -26.8559 0 0 133
-36.1458 -0.405135 -27.9517 0 0 134
-36.61 -1.38013 -27.7666 0 0 134
-35.6562 0.383935 -28.0395 0 0 167
-36.1458 -0.405135 -27.9517 0 0 167
-35.4779 -0.49265 -27.0326 0 0 203
-35.1238 1.27839 -28.1733 0 0 136
-35.6562 0.383935 -28.0395 0 0 136
-29.7994 2.14925 -23.5947 0 0 190
-29.6658 1.12112 -22.5856 0 0 236
-28.9304 1.90958 -22.6018 0 0 190
-30.6933 2.31865 -24.5635 0 0 142
-29.7994 2.14925 -23.5947 0 0 142
-31.5406 2.50867 -25.5185 0 0 182
-31.3821 1.55082 -24.5335 0 0 225
-30.6933 2.31865 -24.5635 0 0 182
-32.4039 2.70118 -26.5243 0 0 141
-31.5406 2.50867 -25.5185 0 0 141
-33.4663 -19.183 -8.72736 0 0 130
-33.5051 -19.8497 -7.89709 0 0 130
-34.067 -19.2754 -9.52821 0 0 205
-33.4663 -19.183 -8.72736 0 0 169
-33.3951 -18.339 -9.59366 0 0 169
-38.6993 -19.6106 -17.6184 0 0 169
-38.64 -20.6652 -16.6828 0 0 169
-38.3207 -19.6615 -16.6632 0 0 206
-38.7786 -18.5935 -18.5227 0 0 132
-38.6993 -19.6106 -17.6184 0 0 132
-38.8575 -17.5531 -19.4436 0 0 169
-38.7786 -18.5935 -18.5227 0 0 169
-38.4589 -17.5665 -18.5197 0 0 206
-38.9742 -16.5545 -20.4032 0 0 134
-38.8575 -17.5531 -19.4436 0 0 134
-38.6009 -11.5648 -23.0831 0 0 168
-38.4962 -12.553 -22.2019 0 0 168
-38.1199 -11.5643 -22.1935 0 0 203
-39.0563 -11.5808 -23.9178 0 0 130
-38.6009 -11.5648 -23.0831 0 0 163
-38.6801 -10.5921 -23.9094 0 0 163
-37.5048 -7.78881 -23.9498 0 0 197
-38.0092 -7.69925 -24.8219 0 0 163
-37.8806 -8.69037 -23.8944 0 0 163
-27.6537 -0.143067 -19.6686 0 0 184
-27.4927 -1.09623 -18.7091 0 0 228
-26.7996 -0.193479 -18.821 0 0 184
-27.8787 0.820569 -20.6866 0 0 191
-28.5718 -0.082185 -20.5748 0 0 238
-27.6537 -0.143067 -19.6686 0 0 191
-28.0924 1.71888 -21.6602 0 0 141
-27.8787 0.820569 -20.6866 0 0 141
-28.9304 1.90958 -22.6018 0 0 142
-28.0924 1.71888 -21.6602 0 0 142
-37.8806 -8.69037 -23.8944 0 0 163
-38.3048 -9.58845 -23.9206 0 0 163
-37.8005 -9.67801 -23.0485 0 0 197
-26.4091 -8.01521 -11.6361 0 0 132
-27.077 -8.84842 -11.6095 0 0 132
-26.4837 -7.2165 -12.4807 0 0 211
-26.4091 -8.01521 -11.6361 0 0 173
-25.7038 -7.12119 -11.6813 0 0 173
-25.1373 -5.44914 -12.5817 0 0 128
-25.1097 -6.22196 -11.8191 0 0 128
-25.9038 -5.49885 -13.3904 0 0 209
-25.1373 -5.44914 -12.5817 0 0 171
-25.2628 -4.62551 -13.4462 0 0 171
-25.7858 -1.11543 -17.0198 0 0 180
-26.4737 -2.01928 -16.9627 0 0 222
-25.621 -1.98807 -16.121 0 0 180
-25.9379 -0.284446 -17.8878 0 0 137
-25.7858 -1.11543 -17.0198 0 0 137
-32.0592 -16.5199 -9.73575 0 0 133
-32.7586 -17.44 -9.65457 0 0 133
-31.372 -15.5897 -9.8232 0 0 135
-30.6342 -14.6613 -9.91046 0 0 135
-32.0356 -15.7032 -10.6038 0 0 207
-32.0592 -16.5199 -9.73575 0 0 170
-31.372 -15.5897 -9.8232 0 0 170
-38.1277 -6.80766 -25.6948 0 0 128
-38.0092 -7.69925 -24.8219 0 0 128
-38.1277 -6.80766 -25.6948 0 0 128
-37.7671 -5.90749 -25.777 0 0 128
-37.3046 -5.0648 -25.7524 0 0 134
-36.8532 -4.14793 -25.7975 0 0 134
-34.5666 2.16636 -28.3429 0 0 177
-35.1238 1.27839 -28.1733 0 0 177
-34.4312 1.18439 -27.2901 0 0 217
-33.2261 2.86695 -27.5099 0 0 183
-33.0517 1.9066 -26.4741 0 0 226
-32.4039 2.70118 -26.5243 0 0 183
-33.9651 3.059 -28.4861 0 0 138
-33.2261 2.86695 -27.5099 0 0 138
-34.5666 2.16636 -28.3429 0 0 137
-33.9651 3.059 -28.4861 0 0 137
-34.1772 -20.8223 -7.76962 0 0 169
-33.5441 -20.5526 -7.0048 0 0 133
-33.5051 -19.8497 -7.89709 0 0 169
-34.1772 -20.8223 -7.76962 0 0 128
-34.681 -20.9663 -8.59383 0 0 128
-36.2765 -21.2347 -11.1851 0 0 173
-35.7243 -21.1861 -10.2739 0 0 173
-35.7535 -20.2833 -11.2702 0 0 211
-36.7294 -22.1916 -11.1421 0 0 171
-36.2765 -21.2347 -11.1851 0 0 171
-36.7585 -21.2888 -12.1384 0 0 209
-37.1884 -23.1594 -11.0996 0 0 134
-36.7294 -22.1916 -11.1421 0 0 134
-37.5823 -23.2599 -12.008 0 0 132
-37.1884 -23.1594 -11.0996 0 0 132
-38.0286 -23.4055 -12.8943 0 0 168
-37.5823 -23.2599 -12.008 0 0 168
-37.6576 -22.3912 -12.9817 0 0 204
-38.4032 -23.6196 -13.7813 0 0 133
-38.0286 -23.4055 -12.8943 0 0 133
-38.488 -22.5858 -14.8245 0 0 165
-38.1826 -21.6265 -14.7977 0 0 200
-38.5668 -21.6754 -15.7543 0 0 165
-38.7873 -23.6686 -14.7379 0 0 136
-38.4032 -23.6196 -13.7813 0 0 175
-38.488 -22.5858 -14.8245 0 0 175
-38.6675 -15.5117 -20.4168 0 0 171
-38.1705 -15.5996 -19.4294 0 0 208
-38.3002 -14.5852 -20.4055 0 0 171
-38.9742 -16.5545 -20.4032 0 0 135
-38.6675 -15.5117 -20.4168 0 0 135
-38.4063 -13.5249 -21.3526 0 0 131
-38.4962 -12.553 -22.2019 0 0 131
3 0 23 21
3 0 26 24
3 0 21 26
3 85 30 86
3 87 86 28
3 85 86 87
3 88 28 89
3 3 33 32
3 3 34 33
3 1 37 35
3 2 90 92
3 90 40 91
3 90 91 92
3 4 43 41
3 4 45 43
3 4 46 45
3 94 93 47
3 5 50 48
3 7 51 22
3 7 52 51
3 96 95 53
3 9 57 55
3 11 58 25
3 11 59 58
3 11 61 59
3 5 62 27
3 5 48 62
3 13 65 63
3 15 66 29
3 15 67 66
3 97 68 98
3 97 98 99
3 100 69 101
3 102 70 103
3 104 103 69
3 102 103 104
3 106 105 70
3 16 107 108
3 16 109 111
3 109 71 110
3 109 110 111
3 16 72 71
3 13 73 31
3 13 63 73
3 6 112 114
3 114 113 49
3 112 113 114
3 14 74 64
3 17 75 36
3 17 76 75
3 8 77 54
3 18 78 38
3 18 79 78
3 18 80 79
3 19 115 117
3 117 116 39
3 115 116 117
3 19 118 119
3 10 81 56
3 20 82 42
3 20 83 82
3 20 84 83
3 121 120 44
3 12 122 124
3 124 123 60
3 122 123 124
3 21 22 5
3 23 22 21
3 23 7 22
3 24 25 9
3 26 25 24
3 26 11 25
3 26 27 11
3 21 27 26
3 21 5 27
3 28 29 13
3 30 29 28
3 30 15 29
3 125 16 126
3 127 31 128
3 129 128 16
3 127 128 129
3 28 130 132
3 130 31 131
3 130 131 132
3 28 13 31
3 32 133 135
3 135 134 6
3 133 134 135
3 33 136 138
3 138 137 32
3 136 137 138
3 33 139 140
3 33 141 142
3 34 143 145
3 145 144 33
3 143 144 145
3 34 146 147
3 35 36 14
3 37 36 35
3 37 17 36
3 148 38 149
3 150 149 8
3 148 149 150
3 151 38 152
3 153 18 154
3 155 154 38
3 153 154 155
3 157 156 18
3 158 39 159
3 40 160 162
3 160 39 161
3 160 161 162
3 40 19 39
3 41 42 10
3 43 42 41
3 43 20 42
3 43 44 20
3 45 44 43
3 45 163 165
3 165 164 44
3 163 164 165
3 45 166 167
3 46 168 170
3 170 169 45
3 168 169 170
3 46 171 172
3 47 173 175
3 175 174 12
3 173 174 175
3 178 177 47
3 176 177 178
3 48 179 181
3 179 49 180
3 179 180 181
3 50 49 48
3 50 6 49
3 22 50 5
3 51 50 22
3 51 6 50
3 51 32 6
3 52 32 51
3 52 3 32
3 53 54 1
3 182 54 183
3 184 183 53
3 182 183 184
3 185 8 186
3 187 186 54
3 185 186 187
3 188 8 189
3 191 190 8
3 55 56 2
3 57 56 55
3 57 10 56
3 25 57 9
3 58 57 25
3 58 10 57
3 58 41 10
3 59 41 58
3 59 4 41
3 59 60 4
3 61 60 59
3 61 12 60
3 27 61 11
3 62 61 27
3 62 12 61
3 62 47 12
3 48 47 62
3 48 192 194
3 194 193 47
3 192 193 194
3 63 64 0
3 65 64 63
3 65 14 64
3 29 65 13
3 66 65 29
3 66 14 65
3 66 35 14
3 67 35 66
3 67 1 35
3 195 30 196
3 68 197 199
3 197 30 198
3 197 198 199
3 68 15 30
3 200 68 201
3 69 202 204
3 202 68 203
3 202 203 204
3 69 15 68
3 69 67 15
3 70 67 69
3 70 1 67
3 70 53 1
3 205 53 206
3 207 206 70
3 205 206 207
3 209 208 53
3 210 2 211
3 71 212 213
3 71 214 216
3 214 2 215
3 214 215 216
3 71 55 2
3 72 55 71
3 72 9 55
3 31 72 16
3 73 72 31
3 73 9 72
3 73 24 9
3 63 24 73
3 63 0 24
3 49 217 218
3 220 219 49
3 222 221 6
3 64 23 0
3 74 23 64
3 74 7 23
3 36 74 14
3 75 74 36
3 75 7 74
3 75 52 7
3 76 52 75
3 76 3 52
3 54 37 1
3 77 37 54
3 77 17 37
3 38 77 8
3 78 77 38
3 78 17 77
3 78 76 17
3 79 76 78
3 79 3 76
3 79 34 3
3 80 34 79
3 80 223 225
3 225 224 34
3 223 224 225
3 226 80 227
3 228 227 18
3 226 227 228
3 229 80 230
3 232 231 80
3 39 233 235
3 233 234 235
3 237 236 39
3 56 40 2
3 81 40 56
3 81 19 40
3 42 81 10
3 82 81 42
3 82 19 81
3 82 238 240
3 240 239 19
3 238 239 240
3 83 241 243
3 243 242 82
3 241 242 243
3 83 244 245
3 83 246 247
3 84 248 250
3 250 249 83
3 248 249 250
3 84 251 252
3 44 84 20
3 253 84 254
3 255 254 44
3 253 254 255
3 258 257 84
3 256 257 258
3 60 46 4
3 259 46 260
3 261 260 60
3 259 260 261
3 263 262 46
3 265 264 12
