ply
format ascii 1.0
element vertex 236
property float x
property float y
property float z
property uchar red
property uchar green
property uchar blue
element face 241
property list uchar int vertex_index
end_header
28.1809 92.5708 12.4717 255 44 0
27.7267 82.7721 27.4657 255 113 0
30.5687 79.6423 18.666 234 255 21
23.8556 101.608 5.43025 255 239 0
23.7662 93.1426 20.6099 27 255 228
23.7434 104.235 -2.29826 0 116 255
28.3099 96.032 4.60352 255 24 0
29.9313 93.1846 0.159759 255 172 0
29.7641 90.3 7.88885 150 0 0
28.0429 87.9783 20.1642 255 71 0
29.601 86.2739 15.7774 202 0 0
29.3572 81.6997 23.0577 249 0 0
26.2689 100.831 1.09295 97 255 158
26.3794 97.5632 9.06027 255 168 0
23.9792 97.7817 13.2098 17 255 238
26.2384 93.6305 16.5865 255 166 0
25.986 88.5201 24.1729 255 201 0
30.8709 83.6063 11.198 255 247 0
28.2941 94.3757 8.45276 255 39 0
29.1182 93.2751 6.12108 243 0 0
29.0043 91.6986 10.0227 234 0 0
27.9072 85.5446 23.7425 255 80 0
28.7806 84.9459 21.5268 255 12 0
28.6058 82.4262 25.2289 255 36 0
23.7097 103.109 1.62602 124 255 131
25.0918 102.642 -0.502287 56 255 199
25.0989 101.361 3.43568 255 180 0
26.3433 99.2738 5.19713 255 117 0
25.1839 99.7485 7.28079 255 207 0
23.8654 95.6369 16.8981 18 255 237
25.1393 95.9288 14.8513 255 226 0
25.1138 93.4973 18.7177 255 199 0
26.1793 91.1174 20.4308 255 155 0
24.9134 90.8882 22.5605 255 208 0
30.5343 90.1741 2.10962 216 255 39
30.7309 91.0377 -1.72678 0 241 255
30.1474 83.0551 17.0642 166 0 0
30.2272 85.3392 13.2479 128 0 0
30.7419 81.6738 14.8838 255 247 0
27.5266 79.9994 30.8708 0 232 255
28.4414 79.7804 28.6917 118 255 137
22.3754 102.983 3.97951 0 182 255
23.4441 90.5102 24.2322 0 188 255
28.3262 97.4658 0.536774 163 255 92
29.1972 95.9998 -1.61629 75 255 180
29.1524 94.7306 2.40756 220 0 0
29.8726 91.8276 3.94579 206 0 0
30.4696 88.7005 5.66676 255 157 0
28.1796 90.3444 16.2117 255 40 0
28.9771 89.6369 13.8445 235 0 0
28.877 87.3473 17.8614 236 0 0
29.5302 83.9814 19.3694 225 0 0
30.0098 80.6433 20.96 205 0 0
29.2317 79.0771 26.5803 162 255 93
29.8983 78.311 24.2539 175 255 80
30.4847 77.0346 22.2047 88 255 167
27.4134 98.5477 2.69387 241 255 14
27.3818 97.0042 6.81207 255 81 0
27.3755 95.1492 10.7753 255 99 0
22.5688 101.336 7.67612 0 179 255
23.9495 99.8068 9.34362 104 255 151
25.2263 97.9771 10.9584 255 230 0
26.2728 95.796 12.8301 255 179 0
27.2546 93.2366 14.6511 255 107 0
27.2775 90.8042 18.4189 255 100 0
27.0871 88.3738 22.2746 255 137 0
26.9169 85.7272 25.9174 255 168 0
24.6734 88.3215 25.9691 19 255 236
25.8215 85.8509 27.5639 27 255 228
26.7074 82.9911 29.3607 50 255 205
29.6544 88.5013 11.8954 179 0 0
30.3436 87.0981 9.53627 131 0 0
30.962 85.4843 7.48546 123 255 132
23.8158 94.3897 18.754 0 0 186
23.1664 95.3546 17.7893 0 0 158
23.1168 94.1074 19.6452 0 0 158
30.914 89.1022 1.00774 0 0 148
30.844 88.4944 2.833 0 0 148
27.91 78.4028 31.4981 0 0 134
27.4328 78.5996 32.4235 0 0 134
21.5674 103.599 3.01974 0 0 132
22.3154 103.705 1.97541 0 0 132
29.1421 77.8109 28.2479 0 0 173
28.8366 79.4287 27.636 0 0 209
28.7469 78.1626 29.3037 0 0 173
30.0862 76.6277 24.9623 0 0 138
29.8122 77.0658 25.9965 0 0 138
30.3794 75.9895 23.9376 0 0 179
30.1915 77.6728 23.2293 0 0 218
30.0862 76.6277 24.9623 0 0 179
30.6607 75.2743 22.8367 0 0 144
30.3794 75.9895 23.9376 0 0 144
24.3547 103.997 -3.41953 0 0 132
23.5582 104.777 -4.21229 0 0 132
26.2874 101.366 -0.922994 0 0 166
25.6988 102.272 -1.72061 0 0 166
25.6803 101.736 0.295329 0 0 198
26.8312 100.33 -0.086689 0 0 136
26.2874 101.366 -0.922994 0 0 136
26.8412 99.6891 1.89341 0 0 211
27.4035 99.1884 0.713775 0 0 174
26.8312 100.33 -0.086689 0 0 174
21.7961 101.083 8.65985 0 0 131
21.7493 101.981 6.80123 0 0 131
23.2441 98.6331 12.3283 0 0 132
23.2222 97.5379 14.2517 0 0 132
23.9644 98.7943 11.2767 0 0 192
23.2293 99.6456 10.3952 0 0 162
23.2441 98.6331 12.3283 0 0 162
23.9537 88.0042 26.8069 0 0 158
24.0588 89.4159 25.1007 0 0 186
23.339 89.0986 25.9385 0 0 158
25.648 84.3722 29.351 0 0 131
25.1648 85.7061 28.3907 0 0 131
26.091 82.9422 30.2494 0 0 163
26.2645 84.421 28.4623 0 0 194
25.648 84.3722 29.351 0 0 163
26.6027 81.5549 30.9913 0 0 132
26.091 82.9422 30.2494 0 0 132
30.0031 93.5864 -1.68861 0 0 184
29.636 94.994 -2.57663 0 0 184
29.5643 94.5922 -0.728264 0 0 225
30.7658 91.5796 -3.62749 0 0 146
31.0886 90.0357 -2.79435 0 0 146
23.1653 96.4654 16.0959 0 0 128
23.1664 95.3546 17.7893 0 0 128
23.9223 96.7093 15.054 0 0 189
23.2222 97.5379 14.2517 0 0 160
23.1653 96.4654 16.0959 0 0 160
31.0122 89.534 -0.910463 0 0 192
30.6326 90.6059 0.191419 0 0 237
30.914 89.1022 1.00774 0 0 192
31.0886 90.0357 -2.79435 0 0 145
31.0122 89.534 -0.910463 0 0 145
28.3674 78.2933 30.4086 0 0 173
27.984 79.8899 29.7813 0 0 208
27.91 78.4028 31.4981 0 0 173
28.7469 78.1626 29.3037 0 0 137
28.3674 78.2933 30.4086 0 0 137
22.9012 104.863 -2.9596 0 0 132
23.5582 104.777 -4.21229 0 0 132
22.9994 104.331 -1.16347 0 0 131
22.9012 104.863 -2.9596 0 0 131
22.9825 103.768 0.798669 0 0 161
23.7265 103.672 -0.336118 0 0 190
22.9994 104.331 -1.16347 0 0 161
23.0425 103.046 2.80276 0 0 187
22.9825 103.768 0.798669 0 0 159
22.3154 103.705 1.97541 0 0 159
23.0355 92.87 21.3629 0 0 128
23.1168 94.1074 19.6452 0 0 128
22.8745 91.5538 23.1741 0 0 156
23.6052 91.8264 22.4211 0 0 184
23.0355 92.87 21.3629 0 0 156
22.708 90.1416 24.9528 0 0 129
22.8745 91.5538 23.1741 0 0 129
22.6029 88.7299 26.6591 0 0 129
23.339 89.0986 25.9385 0 0 157
22.708 90.1416 24.9528 0 0 157
28.7617 96.7328 -0.539756 0 0 209
28.7966 97.2079 -2.4444 0 0 173
28.3612 97.9409 -1.36787 0 0 173
30.8116 87.7577 4.61157 0 0 189
30.844 88.4944 2.833 0 0 189
30.502 89.4373 3.88819 0 0 233
30.8555 78.8086 17.6333 0 0 144
30.787 77.7731 19.2676 0 0 144
29.479 77.4488 27.1597 0 0 138
29.1421 77.8109 28.2479 0 0 138
29.565 78.694 25.4171 0 0 216
29.479 77.4488 27.1597 0 0 178
29.8122 77.0658 25.9965 0 0 178
30.745 76.4693 21.0369 0 0 191
30.787 77.7731 19.2676 0 0 191
30.5267 78.3385 20.4353 0 0 235
30.745 76.4693 21.0369 0 0 144
30.6607 75.2743 22.8367 0 0 144
25.0289 103.2 -2.52154 0 0 162
24.3547 103.997 -3.41953 0 0 162
24.4176 103.438 -1.40027 0 0 192
25.0289 103.2 -2.52154 0 0 135
25.6988 102.272 -1.72061 0 0 135
27.8599 98.6475 -0.364775 0 0 137
28.3612 97.9409 -1.36787 0 0 137
27.8698 98.0067 1.61532 0 0 205
27.8599 98.6475 -0.364775 0 0 171
27.4035 99.1884 0.713775 0 0 171
21.6526 102.805 4.95292 0 0 130
21.5674 103.599 3.01974 0 0 130
22.4721 102.16 5.82781 0 0 186
21.6526 102.805 4.95292 0 0 158
21.7493 101.981 6.80123 0 0 158
22.5389 100.41 9.56146 0 0 130
21.7961 101.083 8.65985 0 0 130
23.2592 100.571 8.50987 0 0 186
22.5389 100.41 9.56146 0 0 158
23.2293 99.6456 10.3952 0 0 158
24.5907 86.9414 27.5933 0 0 129
23.9537 88.0042 26.8069 0 0 129
25.2475 87.0862 26.7665 0 0 185
24.5907 86.9414 27.5933 0 0 157
25.1648 85.7061 28.3907 0 0 157
27.0123 80.0591 31.7464 0 0 161
27.117 81.4952 30.1157 0 0 190
26.6027 81.5549 30.9913 0 0 161
27.4328 78.5996 32.4235 0 0 130
27.0123 80.0591 31.7464 0 0 130
29.254 96.3776 -3.54068 0 0 139
28.7966 97.2079 -2.4444 0 0 139
29.254 96.3776 -3.54068 0 0 144
29.636 94.994 -2.57663 0 0 144
30.4028 92.5129 -2.63188 0 0 187
30.0031 93.5864 -1.68861 0 0 187
30.3311 92.1112 -0.783511 0 0 229
30.4028 92.5129 -2.63188 0 0 143
30.7658 91.5796 -3.62749 0 0 143
31.0578 86.1496 5.52092 0 0 192
30.8116 87.7577 4.61157 0 0 192
30.7158 87.0924 6.57611 0 0 238
30.9421 79.8244 15.7422 0 0 194
30.6553 80.658 16.7749 0 0 241
30.8555 78.8086 17.6333 0 0 194
31.0187 80.9051 13.861 0 0 147
30.9421 79.8244 15.7422 0 0 147
31.0832 81.8713 12.0181 0 0 187
30.8064 82.6401 13.0409 0 0 229
31.0187 80.9051 13.861 0 0 187
31.173 82.7581 10.1069 0 0 147
31.0832 81.8713 12.0181 0 0 147
31.2185 83.6972 8.25058 0 0 194
30.9165 84.5453 9.34174 0 0 240
31.173 82.7581 10.1069 0 0 194
31.2995 84.48 6.40868 0 0 149
31.2185 83.6972 8.25058 0 0 149
31.0578 86.1496 5.52092 0 0 149
31.2995 84.48 6.40868 0 0 149
3 0 20 18
3 1 23 21
3 3 26 24
3 3 28 26
3 4 73 75
3 73 29 74
3 73 74 75
3 4 31 29
3 4 33 31
3 77 76 34
3 2 38 36
3 79 78 39
3 80 41 81
3 6 45 43
3 8 46 19
3 8 47 46
3 9 50 48
3 11 51 22
3 11 52 51
3 82 53 83
3 84 83 40
3 82 83 84
3 85 54 86
3 87 55 88
3 89 88 54
3 87 88 89
3 91 90 55
3 5 92 93
3 12 94 96
3 96 95 25
3 94 95 96
3 12 97 98
3 12 99 101
3 99 56 100
3 99 100 101
3 13 57 27
3 13 58 57
3 102 59 103
3 14 104 105
3 14 106 108
3 106 60 107
3 106 107 108
3 14 61 60
3 15 62 30
3 15 63 62
3 15 64 63
3 16 65 32
3 16 66 65
3 109 67 110
3 111 110 42
3 109 110 111
3 112 68 113
3 114 69 115
3 116 115 68
3 114 115 116
3 118 117 69
3 7 119 121
3 121 120 44
3 119 120 121
3 123 122 35
3 10 70 49
3 17 71 37
3 17 72 71
3 18 19 6
3 20 19 18
3 20 8 19
3 21 22 9
3 23 22 21
3 23 11 22
3 24 25 5
3 26 25 24
3 26 12 25
3 26 27 12
3 28 27 26
3 28 13 27
3 29 124 125
3 29 126 128
3 126 14 127
3 126 127 128
3 29 30 14
3 31 30 29
3 31 15 30
3 31 32 15
3 33 32 31
3 33 16 32
3 34 35 7
3 129 35 130
3 131 130 34
3 129 130 131
3 133 132 35
3 36 37 10
3 38 37 36
3 38 17 37
3 39 40 1
3 134 40 135
3 136 135 39
3 134 135 136
3 138 137 40
3 139 5 140
3 141 5 142
3 143 24 144
3 145 144 5
3 143 144 145
3 41 146 148
3 146 24 147
3 146 147 148
3 41 3 24
3 149 4 150
3 151 42 152
3 153 152 4
3 151 152 153
3 154 42 155
3 158 157 42
3 156 157 158
3 43 159 161
3 159 44 160
3 159 160 161
3 45 44 43
3 45 7 44
3 19 45 6
3 46 45 19
3 46 7 45
3 46 34 7
3 47 34 46
3 47 162 164
3 164 163 34
3 162 163 164
3 166 165 2
3 48 49 0
3 50 49 48
3 50 10 49
3 22 50 9
3 51 50 22
3 51 10 50
3 51 36 10
3 52 36 51
3 52 2 36
3 40 23 1
3 53 23 40
3 53 11 23
3 167 53 168
3 54 169 171
3 169 53 170
3 169 170 171
3 54 11 53
3 54 52 11
3 55 52 54
3 55 2 52
3 55 172 174
3 174 173 2
3 172 173 174
3 176 175 55
3 25 177 179
3 179 178 5
3 177 178 179
3 181 180 25
3 182 43 183
3 56 184 186
3 184 43 185
3 184 185 186
3 56 6 43
3 27 56 12
3 57 56 27
3 57 6 56
3 57 18 6
3 58 18 57
3 58 0 18
3 187 41 188
3 59 189 191
3 189 41 190
3 189 190 191
3 59 3 41
3 192 59 193
3 60 194 196
3 194 59 195
3 194 195 196
3 60 3 59
3 60 28 3
3 61 28 60
3 61 13 28
3 30 61 14
3 62 61 30
3 62 13 61
3 62 58 13
3 63 58 62
3 63 0 58
3 63 48 0
3 64 48 63
3 64 9 48
3 32 64 15
3 65 64 32
3 65 9 64
3 65 21 9
3 66 21 65
3 66 1 21
3 42 33 4
3 67 33 42
3 67 16 33
3 197 67 198
3 68 199 201
3 199 67 200
3 199 200 201
3 68 16 67
3 68 66 16
3 69 66 68
3 69 1 66
3 69 39 1
3 202 39 203
3 204 203 69
3 202 203 204
3 206 205 39
3 44 207 208
3 210 209 44
3 35 211 213
3 213 212 7
3 211 212 213
3 215 214 35
3 49 20 0
3 70 20 49
3 70 8 20
3 37 70 10
3 71 70 37
3 71 8 70
3 71 47 8
3 72 47 71
3 72 216 218
3 218 217 47
3 216 217 218
3 219 38 220
3 221 220 2
3 219 220 221
3 222 38 223
3 224 17 225
3 226 225 38
3 224 225 226
3 227 17 228
3 229 72 230
3 231 230 17
3 229 230 231
3 232 72 233
3 235 234 72
