ply
format ascii 1.0
element vertex 194
property float x
property float y
property float z
property uchar red
property uchar green
property uchar blue
element face 191
property list uchar int vertex_index
end_header
8.06841 -106.497 -26.8629 192 0 0
-2.49782 -102.117 -26.6275 48 255 207
-0.95809 -99.2366 -34.2889 180 0 0
9.72654 -101.706 -34.0785 255 174 0
-6.21271 -98.5734 -29.2103 19 255 236
14.5862 -104.588 -29.6463 62 255 193
9.20594 -104.803 -30.7338 252 0 0
-5.82366 -93.8766 -36.3272 108 255 147
-0.573233 -96.073 -37.3628 225 255 30
2.61156 -104.817 -26.9621 244 0 0
3.85646 -103.669 -31.0308 190 0 0
-1.65704 -101.292 -30.598 234 0 0
-5.90676 -96.794 -32.9513 202 255 53
4.47508 -101.047 -34.6217 139 0 0
6.3333 -106.778 -22.6605 99 255 156
10.8132 -106.865 -26.5536 177 255 78
11.4275 -106.036 -28.5086 177 255 78
8.70673 -105.822 -28.8565 230 0 0
0.080697 -103.635 -26.7649 255 215 0
0.677643 -103.319 -28.9051 214 0 0
-1.86032 -101.996 -28.592 238 0 0
-6.1292 -97.7387 -31.1315 185 255 70
12.3534 -103.372 -31.9285 191 0 0
14.6727 -102.852 -31.4166 62 255 193
12.2718 -101.504 -33.5519 79 255 176
1.39653 -101.63 -32.7383 169 0 0
4.18121 -102.491 -32.9234 148 0 0
1.62706 -100.21 -34.5805 133 0 0
2.10867 -96.6803 -37.612 109 255 146
-4.42164 -100.427 -27.997 138 255 117
11.8835 -104.85 -30.338 255 198 0
9.5724 -103.416 -32.4866 198 0 0
-3.37624 -96.7292 -35.3703 166 0 0
-0.766206 -97.7253 -35.9378 162 0 0
-3.20279 -95.0846 -36.9718 236 255 19
5.18137 -105.728 -27.1108 201 0 0
5.91087 -105.21 -29.1309 212 0 0
3.25081 -104.402 -29.0722 240 0 0
1.15122 -102.698 -30.8255 207 0 0
-1.07884 -100.589 -32.4169 212 0 0
-3.98562 -100.032 -29.9368 255 12 0
-3.60458 -99.302 -31.8712 227 0 0
-3.46044 -98.1614 -33.673 193 0 0
-5.80184 -95.5042 -34.6975 207 255 48
6.66916 -104.407 -30.9743 232 0 0
6.9616 -103.195 -32.7199 211 0 0
7.15954 -101.552 -34.4321 177 0 0
2.0661 -98.6452 -36.1853 128 0 0
4.75334 -99.2428 -36.186 255 150 0
7.32696 -99.6157 -35.9321 89 255 166
10.0789 -107.341 -24.5688 204 255 51
9.19686 -107.499 -22.2775 109 255 146
7.29789 -106.819 -24.7744 154 0 0
4.50239 -105.95 -24.9872 255 203 0
1.90054 -104.877 -24.8784 50 255 205
9.81609 -100.742 -34.7439 0 0 174
11.0887 -100.641 -34.4806 0 0 174
10.9992 -101.605 -33.8152 0 0 214
15.7029 -104.262 -29.3176 0 0 130
15.5056 -105.028 -28.4464 0 0 130
15.8799 -102.536 -30.9109 0 0 135
14.6744 -101.913 -32.1257 0 0 135
4.80186 -98.2089 -36.855 0 0 183
3.431 -97.9616 -36.899 0 0 228
3.47953 -96.9276 -37.568 0 0 183
6.08867 -98.3953 -36.728 0 0 177
6.04015 -99.4293 -36.059 0 0 219
4.80186 -98.2089 -36.855 0 0 177
7.38927 -98.5266 -36.556 0 0 137
6.08867 -98.3953 -36.728 0 0 137
10.9915 -107.595 -23.2856 0 0 134
11.4638 -107.445 -24.2994 0 0 134
7.76508 -107.138 -22.469 0 0 227
8.65937 -107.386 -21.2011 0 0 183
7.22759 -107.026 -21.3926 0 0 183
1.51067 -104.748 -23.7434 0 0 136
2.84212 -105.365 -23.8989 0 0 136
0.653547 -104.227 -24.7863 0 0 134
1.51067 -104.748 -23.7434 0 0 134
11.1204 -106.45 -27.5311 0 0 215
12.4779 -106.488 -27.2147 0 0 174
12.1708 -106.902 -26.2372 0 0 174
-5.73449 -92.984 -37.1212 0 0 137
-6.92938 -92.3929 -36.76 0 0 137
-7.19989 -97.0013 -30.6406 0 0 169
-6.17096 -98.156 -30.1709 0 0 207
-7.24165 -97.4187 -29.68 0 0 169
-7.19976 -96.4814 -31.5845 0 0 133
-7.19989 -97.0013 -30.6406 0 0 133
-7.08853 -96.0091 -32.4943 0 0 174
-6.01798 -97.2663 -32.0414 0 0 214
-7.19976 -96.4814 -31.5845 0 0 174
-7.03329 -95.4169 -33.4087 0 0 136
-7.08853 -96.0091 -32.4943 0 0 136
13.474 -101.239 -33.1934 0 0 173
14.6744 -101.913 -32.1257 0 0 173
13.4722 -102.178 -32.4842 0 0 213
12.249 -100.379 -34.2617 0 0 138
13.474 -101.239 -33.1934 0 0 138
12.249 -100.379 -34.2617 0 0 136
11.0887 -100.641 -34.4806 0 0 136
0.84123 -95.3797 -38.157 0 0 181
0.767718 -96.3766 -37.4874 0 0 224
-0.499721 -95.076 -38.0323 0 0 181
2.12838 -95.6038 -38.2277 0 0 136
0.84123 -95.3797 -38.157 0 0 136
3.47953 -96.9276 -37.568 0 0 138
2.12838 -95.6038 -38.2277 0 0 138
5.85667 -106.604 -21.4944 0 0 139
7.22759 -107.026 -21.3926 0 0 139
5.0585 -106.316 -22.7899 0 0 137
5.85667 -106.604 -21.4944 0 0 137
-4.64824 -100.489 -26.9835 0 0 168
-3.45973 -101.272 -27.3123 0 0 205
-3.68633 -101.334 -26.2988 0 0 168
-5.48969 -99.667 -27.6491 0 0 162
-4.64824 -100.489 -26.9835 0 0 162
-5.71629 -99.7286 -26.6356 0 0 128
-6.38523 -98.7402 -28.2558 0 0 161
-5.31718 -99.5002 -28.6037 0 0 194
-5.48969 -99.667 -27.6491 0 0 161
-7.29407 -97.7558 -28.7383 0 0 128
-6.38523 -98.7402 -28.2558 0 0 128
-7.24165 -97.4187 -29.68 0 0 131
-7.29407 -97.7558 -28.7383 0 0 131
14.2714 -105.266 -28.7915 0 0 132
15.5056 -105.028 -28.4464 0 0 132
12.6921 -105.991 -28.2227 0 0 132
12.4779 -106.488 -27.2147 0 0 132
12.9201 -105.397 -29.1374 0 0 169
12.6921 -105.991 -28.2227 0 0 169
11.6555 -105.443 -29.4233 0 0 207
13.2348 -104.719 -29.9921 0 0 218
14.2714 -105.266 -28.7915 0 0 176
12.9201 -105.397 -29.1374 0 0 176
-4.42406 -93.588 -37.4435 0 0 186
-4.51322 -94.4806 -36.6495 0 0 233
-5.73449 -92.984 -37.1212 0 0 186
-3.10146 -94.1276 -37.7158 0 0 140
-4.42406 -93.588 -37.4435 0 0 140
-1.78669 -94.6218 -37.9113 0 0 184
-1.88801 -95.5788 -37.1673 0 0 229
-3.10146 -94.1276 -37.7158 0 0 184
-0.499721 -95.076 -38.0323 0 0 136
-1.78669 -94.6218 -37.9113 0 0 136
-6.98083 -94.772 -34.2818 0 0 176
-5.8543 -96.1491 -33.8244 0 0 218
-7.03329 -95.4169 -33.4087 0 0 176
-7.01287 -94.0247 -35.0972 0 0 135
-6.98083 -94.772 -34.2818 0 0 135
-7.02377 -93.2109 -35.9121 0 0 180
-5.81275 -94.6904 -35.5123 0 0 223
-7.01287 -94.0247 -35.0972 0 0 180
-6.92938 -92.3929 -36.76 0 0 138
-7.02377 -93.2109 -35.9121 0 0 138
15.7461 -103.394 -30.2028 0 0 172
15.7029 -104.262 -29.3176 0 0 172
14.6294 -103.72 -30.5314 0 0 212
15.7461 -103.394 -30.2028 0 0 133
15.8799 -102.536 -30.9109 0 0 133
8.6163 -99.6963 -35.6706 0 0 175
9.81609 -100.742 -34.7439 0 0 175
8.52675 -100.661 -35.0053 0 0 215
8.6163 -99.6963 -35.6706 0 0 137
7.38927 -98.5266 -36.556 0 0 137
11.8309 -107.206 -25.2918 0 0 132
12.1708 -106.902 -26.2372 0 0 132
10.446 -107.103 -25.5612 0 0 213
11.8309 -107.206 -25.2918 0 0 173
11.4638 -107.445 -24.2994 0 0 173
10.0091 -107.649 -20.9802 0 0 178
9.47157 -107.537 -19.9038 0 0 135
8.65937 -107.386 -21.2011 0 0 178
10.5505 -107.674 -22.14 0 0 137
10.0091 -107.649 -20.9802 0 0 137
9.63786 -107.42 -23.4231 0 0 222
10.9915 -107.595 -23.2856 0 0 179
10.5505 -107.674 -22.14 0 0 179
4.14304 -105.902 -23.9533 0 0 170
5.41784 -106.364 -23.8239 0 0 208
5.0585 -106.316 -22.7899 0 0 170
3.20146 -105.414 -24.9328 0 0 207
4.14304 -105.902 -23.9533 0 0 169
2.84212 -105.365 -23.8989 0 0 169
-0.256373 -103.606 -25.7295 0 0 169
0.990617 -104.256 -25.8216 0 0 207
0.653547 -104.227 -24.7863 0 0 169
-1.54563 -102.847 -25.6609 0 0 175
-1.20856 -102.876 -26.6962 0 0 215
-0.256373 -103.606 -25.7295 0 0 175
-2.74499 -102.103 -25.5545 0 0 133
-1.54563 -102.847 -25.6609 0 0 133
-3.68633 -101.334 -26.2988 0 0 132
-2.74499 -102.103 -25.5545 0 0 132
3 0 17 15
3 1 20 18
3 3 24 22
3 3 55 57
3 57 56 24
3 55 56 57
3 2 27 25
3 6 30 16
3 6 31 30
3 7 34 32
3 9 37 35
3 11 38 19
3 11 39 38
3 4 40 29
3 12 41 21
3 12 42 41
3 12 43 42
3 5 58 59
3 61 60 23
3 10 44 36
3 13 45 26
3 13 46 45
3 8 47 33
3 62 48 63
3 64 63 28
3 62 63 64
3 65 49 66
3 67 66 48
3 65 66 67
3 69 68 49
3 70 50 71
3 14 72 74
3 72 51 73
3 72 73 74
3 14 52 51
3 14 53 52
3 75 54 76
3 78 77 54
3 15 79 81
3 79 16 80
3 79 80 81
3 17 16 15
3 17 6 16
3 83 82 7
3 18 19 9
3 20 19 18
3 20 11 19
3 84 21 85
3 86 85 4
3 84 85 86
3 87 21 88
3 89 12 90
3 91 90 21
3 89 90 91
3 93 92 12
3 22 23 5
3 24 23 22
3 24 94 96
3 96 95 23
3 94 95 96
3 24 97 98
3 100 99 24
3 25 26 10
3 27 26 25
3 27 13 26
3 101 28 102
3 103 102 8
3 101 102 103
3 104 28 105
3 107 106 28
3 108 14 109
3 111 110 14
3 112 29 113
3 114 113 1
3 112 113 114
3 115 29 116
3 115 116 117
3 118 4 119
3 120 119 29
3 118 119 120
3 121 4 122
3 124 123 4
3 125 5 126
3 16 127 128
3 30 129 131
3 131 130 16
3 129 130 131
3 30 132 134
3 132 5 133
3 132 133 134
3 30 22 5
3 31 22 30
3 31 3 22
3 32 33 2
3 34 33 32
3 34 8 33
3 135 34 136
3 137 136 7
3 135 136 137
3 138 34 139
3 140 8 141
3 142 141 34
3 140 141 142
3 144 143 8
3 35 36 0
3 37 36 35
3 37 10 36
3 19 37 9
3 38 37 19
3 38 10 37
3 38 25 10
3 39 25 38
3 39 2 25
3 29 20 1
3 40 20 29
3 40 11 20
3 21 40 4
3 41 40 21
3 41 11 40
3 41 39 11
3 42 39 41
3 42 2 39
3 42 32 2
3 43 32 42
3 43 7 32
3 145 43 146
3 147 146 12
3 145 146 147
3 148 43 149
3 150 7 151
3 152 151 43
3 150 151 152
3 154 153 7
3 23 155 157
3 157 156 5
3 155 156 157
3 159 158 23
3 36 17 0
3 44 17 36
3 44 6 17
3 26 44 10
3 45 44 26
3 45 6 44
3 45 31 6
3 46 31 45
3 46 3 31
3 33 27 2
3 47 27 33
3 47 13 27
3 28 47 8
3 48 47 28
3 48 13 47
3 48 46 13
3 49 46 48
3 49 3 46
3 49 160 162
3 162 161 3
3 160 161 162
3 164 163 49
3 165 15 166
3 50 167 169
3 167 15 168
3 167 168 169
3 50 0 15
3 51 170 172
3 170 171 172
3 51 173 174
3 51 175 177
3 175 50 176
3 175 176 177
3 52 50 51
3 52 0 50
3 52 35 0
3 53 35 52
3 53 9 35
3 178 53 179
3 180 179 14
3 178 179 180
3 54 181 183
3 181 53 182
3 181 182 183
3 54 9 53
3 54 18 9
3 184 18 185
3 186 185 54
3 184 185 186
3 187 1 188
3 189 188 18
3 187 188 189
3 190 1 191
3 193 192 1
