ply
format ascii 1.0
element vertex 476
property float x
property float y
property float z
property uchar red
property uchar green
property uchar blue
element face 494
property list uchar int vertex_index
end_header
-56.3727 -58.5448 50.801 0 128 255
-43.9882 -62.8959 47.4346 194 0 0
-55.5711 -66.376 47.7877 0 160 255
-60.1849 -60.2456 46.4745 255 35 0
-51.0363 -60.9069 49.4648 255 84 0
-49.988 -70.7479 48.4047 71 255 184
-35.1137 -75.1673 49.2913 238 0 0
-42.6209 -73.4648 48.5182 146 0 0
-33.2772 -85.5833 47.4803 255 226 0
-56.1308 -62.1219 49.6625 114 255 141
-57.8784 -63.5102 47.1922 144 255 111
-58.2736 -59.4058 49.4933 193 255 62
-54.0712 -59.6906 50.4543 200 255 55
-53.6179 -64.1817 49.4232 221 255 34
-40.3191 -63.7527 47.329 184 255 71
-39.63 -69.0039 47.7952 164 0 0
-43.4641 -68.1455 47.7074 153 0 0
-62.526 -52.045 47.694 141 255 114
-37.6599 -79.8936 49.351 204 255 51
-34.1706 -80.5153 49.2576 255 36 0
-47.6287 -61.9753 48.2939 216 0 0
-47.221 -67.1294 48.1617 231 0 0
-50.6466 -65.835 48.8421 255 124 0
-28.3452 -80.5316 49.2619 0 122 255
-32.9174 -70.6892 50.3522 31 255 224
-36.0284 -69.8223 48.654 234 0 0
-38.7401 -74.4126 48.739 140 0 0
-46.4645 -72.2736 48.4633 255 222 0
-54.8559 -55.4477 50.8742 69 255 186
-57.8004 -55.3872 50.6948 193 255 62
-51.5361 -56.0683 49.9577 13 255 242
-60.3851 -55.9121 48.8935 255 138 0
-62.4956 -56.7104 45.5571 211 0 0
-64.0433 -57.6372 41.1892 96 255 159
-31.9527 -75.7608 50.2689 199 255 56
-31.0883 -80.6636 49.1695 255 149 0
-30.3304 -85.148 46.1691 172 255 83
-32.5787 -90.1612 43.3842 25 255 230
-56.2909 -60.1481 50.3764 9 255 246
-57.2316 -60.8726 49.6266 123 255 132
-57.2621 -58.956 50.3771 28 255 227
-55.3728 -59.0737 50.7326 40 255 215
-55.145 -61.0708 50.2541 107 255 148
-42.1408 -63.3253 47.2644 255 189 0
-41.8685 -65.9407 47.3781 179 0 0
-43.7583 -65.5108 47.4899 173 0 0
-59.0226 -61.9216 46.8488 255 101 0
-58.6302 -63.9662 45.3677 23 255 232
-59.8203 -62.3183 44.9116 164 255 91
-61.0297 -60.6299 44.4588 193 255 62
-49.3707 -61.4623 48.871 255 9 0
-49.1985 -63.9899 48.6504 255 25 0
-50.8519 -63.3644 49.145 255 102 0
-54.6748 -65.4172 48.8294 34 255 221
-53.3592 -66.4901 48.8123 0 245 255
-34.883 -67.6774 49.2369 44 255 211
-36.4714 -67.2131 48.3945 172 255 83
-41.1384 -71.263 48.0972 128 0 0
-39.2111 -71.6913 48.2457 141 0 0
-40.6662 -73.965 48.5968 128 0 0
-40.1228 -76.6832 49.0559 255 147 0
-42.0607 -76.1372 48.9582 227 255 28
-48.6924 -69.0513 48.4279 255 64 0
-46.9006 -69.7075 48.2656 242 0 0
-48.2811 -71.5591 48.4442 123 255 132
-55.4871 -53.3211 50.7874 0 202 255
-53.2381 -55.7184 50.5049 61 255 194
-58.7156 -53.435 50.3742 25 255 230
-59.1418 -55.6024 50.0053 255 242 0
-60.1631 -53.672 49.5788 165 255 90
-63.6252 -52.5039 46.0886 57 255 198
-62.6033 -54.4113 46.8192 255 0 0
-63.5578 -54.884 44.9529 255 191 0
-63.3408 -57.1681 43.4651 170 0 0
-64.3234 -55.3999 42.8537 88 255 167
-33.9288 -72.8549 49.6023 255 24 0
-32.4209 -73.2267 50.3724 124 255 131
-33.4679 -75.4813 49.7261 255 49 0
-33.7084 -83.1018 48.6419 255 35 0
-32.5775 -80.6422 49.2016 255 97 0
-32.1586 -83.1008 48.2916 255 67 0
-30.6935 -82.9652 47.941 255 90 0
-31.7732 -85.4409 46.8268 230 0 0
-55.8948 -64.2279 48.7716 180 255 75
-56.7381 -64.9973 47.5075 6 255 249
-57.0444 -62.9102 48.6403 207 255 48
-58.1556 -61.4476 48.4416 255 243 0
-59.2623 -59.8383 48.1765 255 166 0
-52.6103 -60.3119 50.0128 255 184 0
-52.4014 -62.669 49.6072 255 194 0
-53.8377 -61.9041 49.9899 214 255 41
-54.93 -63.2086 49.5947 154 255 101
-38.5602 -64.1926 47.6607 53 255 202
-38.1869 -66.7772 47.8077 255 201 0
-39.9983 -66.3577 47.4744 200 0 0
-41.5375 -68.5866 47.6664 148 0 0
-43.0885 -70.7985 48.0696 141 0 0
-61.2101 -51.6724 48.9624 5 255 250
-36.3839 -77.5462 49.2725 203 0 0
-34.6435 -77.8577 49.4293 255 10 0
-35.869 -80.2667 49.3151 255 217 0
-35.3518 -82.939 48.9525 160 255 95
-34.8587 -85.5269 48.0694 52 255 203
-45.8271 -62.45 47.7954 194 0 0
-45.6303 -65.0521 47.7709 187 0 0
-47.4521 -64.5494 48.1748 223 0 0
-48.9864 -66.5234 48.4948 255 44 0
-50.3729 -68.3025 48.5914 255 147 0
-52.1911 -65.0559 49.1633 255 208 0
-51.9287 -67.4509 48.7275 122 255 133
-51.5672 -69.8287 48.3283 0 196 255
-34.4007 -70.2453 49.4022 255 237 0
-35.5755 -72.4796 48.9883 227 0 0
-37.7814 -69.4118 48.1193 196 0 0
-37.3453 -72.094 48.5377 177 0 0
-36.8788 -74.8124 48.9651 180 0 0
-38.2195 -77.1539 49.1542 163 0 0
-39.5201 -79.403 49.3422 88 255 167
-45.3705 -67.6652 47.8853 181 0 0
-45.0218 -70.2849 48.1357 181 0 0
-44.5662 -72.9046 48.481 193 0 0
-45.8988 -74.8176 48.6955 46 255 209
-43.998 -75.5165 48.843 198 255 57
-55.7593 -57.2116 50.9674 62 255 193
-56.9951 -57.1628 50.8311 40 255 215
-56.3744 -55.3235 50.9673 184 255 71
-57.15 -53.3122 50.7648 15 255 240
-42.3691 -60.7361 47.3177 66 255 189
-44.1775 -60.299 47.5227 197 255 58
-45.9931 -59.8608 47.93 202 255 53
-47.7902 -59.4126 48.4818 191 255 64
-49.548 -58.9495 49.1127 163 255 92
-51.2486 -58.4735 49.7525 217 255 38
-52.8718 -57.997 50.3274 255 172 0
-54.389 -57.5517 50.7602 204 255 51
-58.174 -57.3984 50.2636 154 255 101
-59.3158 -57.7321 49.2557 255 222 0
-60.3831 -58.1061 47.8338 255 92 0
-61.4666 -54.0024 48.3815 255 76 0
-61.5081 -56.2866 47.3911 255 35 0
-61.3544 -58.5023 46.0531 239 0 0
-62.222 -58.9116 43.9875 255 171 0
-62.9856 -59.3212 41.7161 103 255 152
-30.5641 -76.0167 50.9099 0 226 255
-33.0167 -78.0902 49.6391 255 81 0
-31.509 -78.2526 49.9108 255 146 0
-30.1106 -78.3636 50.2484 47 255 208
-29.6869 -80.6112 49.1824 152 255 103
-29.2909 -82.7455 47.6326 93 255 162
-32.8971 -87.9376 45.723 240 255 15
-31.4319 -87.6565 44.7835 253 255 2
-55.9428 -66.7277 47.0485 0 0 131
-55.3534 -67.4441 47.2816 0 0 131
-54.9561 -67.0094 47.9049 0 0 153
-54.508 -66.53 48.4257 0 0 153
-55.123 -65.8966 48.3086 0 0 178
-55.3534 -67.4441 47.2816 0 0 128
-54.9561 -67.0094 47.9049 0 0 128
-36.6857 -65.9359 48.3362 0 0 139
-35.9203 -66.1883 48.7885 0 0 139
-59.9337 -52.5339 49.7157 0 0 164
-59.4394 -53.5535 49.9765 0 0 195
-59.2099 -52.4154 50.1134 0 0 164
-64.0243 -53.9585 44.5799 0 0 180
-63.5915 -53.694 45.5208 0 0 219
-64.058 -52.7685 45.1478 0 0 180
-64.4071 -54.2165 43.5303 0 0 185
-63.9406 -55.142 43.9033 0 0 227
-64.0243 -53.9585 44.5799 0 0 185
-35.9356 -84.0951 48.7472 0 0 140
-36.2173 -82.7714 49.0702 0 0 140
-35.6891 -85.389 48.3056 0 0 178
-35.1052 -84.233 48.511 0 0 216
-35.9356 -84.0951 48.7472 0 0 178
-57.673 -64.5345 46.5138 0 0 163
-57.1029 -65.278 46.6714 0 0 163
-57.3083 -64.2538 47.3498 0 0 194
-58.3642 -64.957 44.5959 0 0 141
-58.9694 -64.1368 44.3062 0 0 141
-52.4717 -68.1227 48.4651 0 0 155
-52.6439 -66.9705 48.7699 0 0 182
-53.1869 -67.6423 48.5075 0 0 155
-52.2909 -69.3116 48.2655 0 0 157
-51.748 -68.6398 48.5279 0 0 184
-52.4717 -68.1227 48.4651 0 0 157
-52.054 -70.4453 47.9731 0 0 128
-52.2909 -69.3116 48.2655 0 0 128
-27.6872 -80.5072 49.3461 0 0 131
-27.94 -79.5442 50.193 0 0 131
-28.133 -81.5208 48.3362 0 0 133
-27.6872 -80.5072 49.3461 0 0 133
-40.47 -79.1044 49.3054 0 0 185
-39.8215 -78.0431 49.1991 0 0 226
-40.7713 -77.7446 49.1623 0 0 185
-40.1225 -80.4303 49.3303 0 0 141
-40.47 -79.1044 49.3054 0 0 141
-45.5533 -76.0743 48.7845 0 0 136
-46.4653 -75.6391 48.6183 0 0 136
-44.6029 -76.4238 48.8582 0 0 176
-44.9484 -75.1671 48.7693 0 0 213
-45.5533 -76.0743 48.7845 0 0 176
-43.6623 -76.8148 48.9791 0 0 139
-44.6029 -76.4238 48.8582 0 0 139
-56.7062 -52.2343 50.6302 0 0 164
-56.3186 -53.3167 50.7761 0 0 195
-55.8748 -52.2388 50.6414 0 0 164
-57.5964 -52.2672 50.5598 0 0 135
-56.7062 -52.2343 50.6302 0 0 135
-41.6092 -59.6871 47.4326 0 0 140
-41.4838 -60.9596 47.3404 0 0 140
-44.2673 -59.0076 47.6163 0 0 141
-43.3765 -59.2321 47.5116 0 0 141
-45.1751 -58.7885 47.82 0 0 183
-45.0853 -60.0799 47.7264 0 0 223
-44.2673 -59.0076 47.6163 0 0 183
-47.8846 -58.1387 48.5845 0 0 142
-46.9781 -58.3485 48.3039 0 0 142
-48.7635 -57.9072 48.8999 0 0 182
-48.6691 -59.181 48.7973 0 0 221
-47.8846 -58.1387 48.5845 0 0 182
-50.6558 -56.2627 49.6406 0 0 140
-50.8157 -55.0284 49.706 0 0 140
-51.3923 -57.2709 49.8551 0 0 214
-50.5121 -57.4653 49.538 0 0 177
-50.6558 -56.2627 49.6406 0 0 177
-63.8457 -58.6728 40.2493 0 0 188
-63.3168 -59.5148 40.5127 0 0 188
-63.5144 -58.4792 41.4526 0 0 231
-32.2503 -70.9248 50.915 0 0 137
-32.5372 -69.7075 50.9841 0 0 137
-31.5027 -74.6817 50.774 0 0 172
-31.7368 -73.4147 50.8258 0 0 172
-32.1868 -74.4937 50.3206 0 0 207
-31.2584 -75.8888 50.5894 0 0 197
-30.8085 -74.8097 51.0945 0 0 165
-31.5027 -74.6817 50.774 0 0 165
-29.6263 -84.963 45.8707 0 0 179
-29.1066 -83.7618 46.6025 0 0 179
-29.8107 -83.9467 46.9008 0 0 217
-33.3162 -90.2484 43.9516 0 0 150
-33.1733 -91.3485 42.6379 0 0 150
-32.7379 -89.0494 44.5536 0 0 241
-33.4754 -89.1365 45.1211 0 0 195
-33.3162 -90.2484 43.9516 0 0 195
-37.3713 -81.2487 49.2694 0 0 141
-38.2713 -80.9988 49.3342 0 0 141
-59.5644 -63.3129 44.0781 0 0 180
-58.9694 -64.1368 44.3062 0 0 180
-59.2253 -63.1422 45.1397 0 0 219
-60.1863 -62.4853 43.8117 0 0 143
-59.5644 -63.3129 44.0781 0 0 143
-60.791 -61.6411 43.5853 0 0 184
-60.1863 -62.4853 43.8117 0 0 184
-60.425 -61.4741 44.6852 0 0 225
-61.4136 -60.8102 43.3351 0 0 144
-60.791 -61.6411 43.5853 0 0 144
-53.8501 -67.0665 48.4172 0 0 151
-54.017 -65.9536 48.8209 0 0 176
-54.508 -66.53 48.4257 0 0 151
-53.1869 -67.6423 48.5075 0 0 128
-53.8501 -67.0665 48.4172 0 0 128
-28.5713 -79.4919 49.9572 0 0 131
-27.94 -79.5442 50.193 0 0 131
-35.1261 -66.4204 49.2097 0 0 139
-34.4359 -66.6968 49.7983 0 0 139
-35.6772 -67.4453 48.8157 0 0 213
-35.1261 -66.4204 49.2097 0 0 176
-35.9203 -66.1883 48.7885 0 0 176
-41.7403 -77.4716 49.1134 0 0 185
-40.7713 -77.7446 49.1623 0 0 185
-41.0918 -76.4102 49.0071 0 0 227
-54.6153 -53.3887 50.6507 0 0 165
-55.1715 -54.3844 50.8308 0 0 197
-54.2997 -54.452 50.6941 0 0 165
-54.9424 -52.2589 50.5616 0 0 135
-54.6153 -53.3887 50.6507 0 0 135
-55.8748 -52.2388 50.6414 0 0 137
-54.9424 -52.2589 50.5616 0 0 137
-51.7372 -54.8786 49.9975 0 0 140
-50.8157 -55.0284 49.706 0 0 140
-52.5882 -54.7036 50.2711 0 0 172
-52.3871 -55.8933 50.2313 0 0 208
-51.7372 -54.8786 49.9975 0 0 172
-53.4908 -54.5873 50.5095 0 0 137
-52.5882 -54.7036 50.2711 0 0 137
-54.2997 -54.452 50.6941 0 0 164
-54.047 -55.583 50.6896 0 0 195
-53.4908 -54.5873 50.5095 0 0 164
-32.446 -91.2169 41.9627 0 0 154
-33.1733 -91.3485 42.6379 0 0 154
-31.8563 -89.9631 42.7941 0 0 154
-32.446 -91.2169 41.9627 0 0 154
-38.3736 -65.4849 47.7342 0 0 215
-37.5434 -65.7179 48.0428 0 0 177
-37.7301 -64.4256 47.9693 0 0 177
-49.7234 -71.9498 48.3344 0 0 131
-50.527 -71.4559 48.1866 0 0 131
-60.9707 -50.4975 49.0396 0 0 136
-60.4572 -51.5341 49.4075 0 0 136
-61.7287 -50.6595 48.5508 0 0 137
-60.9707 -50.4975 49.0396 0 0 137
-62.3867 -50.8458 47.9167 0 0 174
-61.8681 -51.8587 48.3282 0 0 210
-61.7287 -50.6595 48.5508 0 0 174
-63.0255 -51.0573 47.2526 0 0 138
-62.3867 -50.8458 47.9167 0 0 138
-63.5751 -51.2868 46.4499 0 0 179
-63.0756 -52.2745 46.8913 0 0 217
-63.0255 -51.0573 47.2526 0 0 179
-64.0796 -51.5431 45.632 0 0 139
-63.5751 -51.2868 46.4499 0 0 139
-64.058 -52.7685 45.1478 0 0 142
-64.0796 -51.5431 45.632 0 0 142
-36.4758 -81.4352 49.2515 0 0 181
-36.7644 -80.0802 49.3331 0 0 221
-37.3713 -81.2487 49.2694 0 0 181
-35.6104 -81.6028 49.1338 0 0 218
-36.4758 -81.4352 49.2515 0 0 179
-36.2173 -82.7714 49.0702 0 0 179
-56.5264 -66.0383 46.9084 0 0 158
-55.9428 -66.7277 47.0485 0 0 158
-56.1546 -65.6867 47.6476 0 0 186
-56.5264 -66.0383 46.9084 0 0 133
-57.1029 -65.278 46.6714 0 0 133
-58.0489 -64.7624 45.6015 0 0 170
-57.673 -64.5345 46.5138 0 0 170
-58.2543 -63.7382 46.2799 0 0 204
-58.0489 -64.7624 45.6015 0 0 138
-58.3642 -64.957 44.5959 0 0 138
-51.3166 -70.9963 48.1484 0 0 159
-50.527 -71.4559 48.1866 0 0 159
-50.7776 -70.2883 48.3665 0 0 187
-51.3166 -70.9963 48.1484 0 0 129
-52.054 -70.4453 47.9731 0 0 129
-33.18 -69.4343 50.3365 0 0 140
-32.5372 -69.7075 50.9841 0 0 140
-34.1628 -67.9284 49.7789 0 0 138
-34.4359 -66.6968 49.7983 0 0 138
-33.9216 -69.2124 49.8615 0 0 177
-34.1628 -67.9284 49.7789 0 0 177
-34.6419 -68.9614 49.3195 0 0 215
-33.659 -70.4673 49.8772 0 0 211
-33.18 -69.4343 50.3365 0 0 175
-33.9216 -69.2124 49.8615 0 0 175
-37.3291 -66.9952 48.1011 0 0 216
-36.6857 -65.9359 48.3362 0 0 178
-37.5434 -65.7179 48.0428 0 0 178
-39.2014 -80.7535 49.3298 0 0 183
-38.2713 -80.9988 49.3342 0 0 183
-38.59 -79.6483 49.3466 0 0 223
-39.2014 -80.7535 49.3298 0 0 141
-40.1225 -80.4303 49.3303 0 0 141
-48.8699 -72.3554 48.3542 0 0 165
-49.1345 -71.1535 48.4245 0 0 197
-49.7234 -71.9498 48.3344 0 0 165
-48.0051 -72.796 48.4746 0 0 135
-48.8699 -72.3554 48.3542 0 0 135
-47.0968 -73.1532 48.4842 0 0 172
-47.3728 -71.9164 48.4537 0 0 207
-48.0051 -72.796 48.4746 0 0 172
-46.8139 -74.4252 48.6003 0 0 135
-46.4653 -75.6391 48.6183 0 0 135
-46.1816 -73.5456 48.5794 0 0 211
-47.0968 -73.1532 48.4842 0 0 174
-46.8139 -74.4252 48.6003 0 0 174
-42.6936 -77.1252 49.0367 0 0 181
-43.0293 -75.8269 48.9006 0 0 221
-43.6623 -76.8148 48.9791 0 0 181
-41.7403 -77.4716 49.1134 0 0 142
-42.6936 -77.1252 49.0367 0 0 142
-58.3792 -52.3286 50.3644 0 0 162
-57.9328 -53.3736 50.5695 0 0 192
-57.5964 -52.2672 50.5598 0 0 162
-59.2099 -52.4154 50.1134 0 0 134
-58.3792 -52.3286 50.3644 0 0 134
-37.9331 -63.1738 47.9956 0 0 138
-37.7301 -64.4256 47.9693 0 0 138
-38.73 -62.9223 47.6774 0 0 138
-37.9331 -63.1738 47.9956 0 0 138
-39.6095 -62.7024 47.5116 0 0 177
-39.4397 -63.9726 47.4949 0 0 215
-38.73 -62.9223 47.6774 0 0 177
-40.4589 -62.4679 47.3461 0 0 139
-39.6095 -62.7024 47.5116 0 0 139
-41.3697 -62.2542 47.3138 0 0 180
-41.23 -63.539 47.2967 0 0 219
-40.4589 -62.4679 47.3461 0 0 180
-42.2549 -62.0307 47.2911 0 0 217
-41.3697 -62.2542 47.3138 0 0 179
-41.4838 -60.9596 47.3404 0 0 179
-42.4723 -59.4506 47.4091 0 0 139
-41.6092 -59.6871 47.4326 0 0 139
-43.2733 -60.5176 47.4202 0 0 220
-42.4723 -59.4506 47.4091 0 0 180
-43.3765 -59.2321 47.5116 0 0 180
-46.0796 -58.5726 48.028 0 0 142
-45.1751 -58.7885 47.82 0 0 142
-46.8917 -59.6367 48.2059 0 0 224
-46.0796 -58.5726 48.028 0 0 183
-46.9781 -58.3485 48.3039 0 0 183
-49.6618 -57.7033 49.2181 0 0 141
-48.7635 -57.9072 48.8999 0 0 141
-50.3983 -58.7115 49.4326 0 0 215
-49.6618 -57.7033 49.2181 0 0 177
-50.5121 -57.4653 49.538 0 0 177
-60.6866 -52.6722 49.2706 0 0 200
-59.9337 -52.5339 49.7157 0 0 167
-60.4572 -51.5341 49.4075 0 0 167
-62.0098 -59.951 43.0994 0 0 187
-61.4136 -60.8102 43.3351 0 0 187
-61.6258 -59.7708 44.2232 0 0 230
-62.3916 -60.1558 41.9637 0 0 187
-62.0098 -59.951 43.0994 0 0 187
-62.6038 -59.1164 42.8518 0 0 229
-62.7394 -60.3191 40.7629 0 0 145
-62.3916 -60.1558 41.9637 0 0 145
-62.7394 -60.3191 40.7629 0 0 144
-63.3168 -59.5148 40.5127 0 0 144
-64.7205 -54.503 42.485 0 0 141
-64.4071 -54.2165 43.5303 0 0 141
-64.6126 -55.6641 41.7217 0 0 144
-64.7205 -54.503 42.485 0 0 144
-64.4726 -56.7827 40.8894 0 0 182
-64.1834 -56.5186 42.0214 0 0 223
-64.6126 -55.6641 41.7217 0 0 182
-64.3256 -57.8607 39.9909 0 0 144
-64.4726 -56.7827 40.8894 0 0 144
-63.8457 -58.6728 40.2493 0 0 143
-64.3256 -57.8607 39.9909 0 0 143
-32.002 -72.1936 50.9251 0 0 175
-32.2503 -70.9248 50.915 0 0 175
-32.6691 -71.9579 50.3623 0 0 212
-32.002 -72.1936 50.9251 0 0 136
-31.7368 -73.4147 50.8258 0 0 136
-30.1867 -75.0044 51.6015 0 0 135
-30.8085 -74.8097 51.0945 0 0 135
-29.9234 -76.1413 51.2714 0 0 132
-30.1867 -75.0044 51.6015 0 0 132
-29.6966 -77.3147 50.9406 0 0 164
-29.9234 -76.1413 51.2714 0 0 164
-30.3374 -77.1902 50.5791 0 0 195
-29.454 -78.4079 50.4505 0 0 130
-29.6966 -77.3147 50.9406 0 0 130
-29.2421 -79.5317 49.9175 0 0 161
-29.454 -78.4079 50.4505 0 0 161
-29.8987 -79.4874 49.7154 0 0 191
-29.016 -80.5714 49.2222 0 0 189
-28.5713 -79.4919 49.9572 0 0 160
-29.2421 -79.5317 49.9175 0 0 160
-28.6058 -82.6277 47.5215 0 0 167
-28.133 -81.5208 48.3362 0 0 167
-28.8181 -81.6385 48.4473 0 0 200
-28.6058 -82.6277 47.5215 0 0 137
-29.1066 -83.7618 46.6025 0 0 137
-35.4327 -86.6643 47.699 0 0 141
-35.6891 -85.389 48.3056 0 0 141
-34.6387 -86.7629 47.3324 0 0 141
-35.4327 -86.6643 47.699 0 0 141
-33.848 -86.7911 47.0378 0 0 181
-34.0679 -85.5551 47.7748 0 0 220
-34.6387 -86.7629 47.3324 0 0 181
-33.6579 -87.9682 46.1592 0 0 145
-33.4754 -89.1365 45.1211 0 0 145
-33.0871 -86.7604 46.6017 0 0 226
-33.848 -86.7911 47.0378 0 0 184
-33.6579 -87.9682 46.1592 0 0 184
-31.2829 -88.7107 43.4937 0 0 201
-32.0053 -88.9088 44.0838 0 0 251
-31.8563 -89.9631 42.7941 0 0 201
-30.7163 -87.4419 44.3214 0 0 149
-31.2829 -88.7107 43.4937 0 0 149
-30.1655 -86.1876 45.0142 0 0 191
-30.8812 -86.4022 45.4763 0 0 236
-30.7163 -87.4419 44.3214 0 0 191
-29.6263 -84.963 45.8707 0 0 143
-30.1655 -86.1876 45.0142 0 0 143
3 0 40 38
3 0 38 41
3 1 45 43
3 2 151 152
3 3 48 46
3 3 49 48
3 4 52 50
3 2 153 155
3 155 154 53
3 153 154 155
3 2 156 157
3 158 56 159
3 7 59 57
3 7 61 59
3 5 64 62
3 160 69 161
3 162 161 67
3 160 161 162
3 163 72 164
3 165 164 70
3 163 164 165
3 166 74 167
3 168 167 72
3 166 167 168
3 6 77 75
3 8 80 78
3 8 82 80
3 9 85 83
3 11 86 39
3 11 87 86
3 12 90 88
3 9 91 42
3 9 83 91
3 14 94 92
3 16 95 44
3 16 96 95
3 18 100 98
3 169 101 170
3 171 102 172
3 173 172 101
3 171 172 173
3 10 174 176
3 176 175 84
3 174 175 176
3 178 177 47
3 20 105 103
3 22 106 51
3 22 107 106
3 13 108 89
3 179 109 180
3 181 180 54
3 179 180 181
3 182 110 183
3 184 183 109
3 182 183 184
3 186 185 110
3 23 187 188
3 23 189 190
3 25 111 55
3 25 112 111
3 15 113 93
3 26 114 58
3 26 115 114
3 26 116 115
3 191 117 192
3 193 192 60
3 191 192 193
3 195 194 117
3 21 118 104
3 27 119 63
3 27 120 119
3 196 121 197
3 198 122 199
3 200 199 121
3 198 199 200
3 202 201 122
3 28 125 123
3 203 126 204
3 205 204 65
3 203 204 205
3 207 206 126
3 208 127 209
3 210 128 211
3 212 129 213
3 214 213 128
3 212 213 214
3 215 130 216
3 217 131 218
3 219 218 130
3 217 218 219
3 30 220 221
3 30 222 224
3 222 132 223
3 222 223 224
3 30 133 132
3 28 134 66
3 28 123 134
3 29 135 124
3 31 136 68
3 31 137 136
3 17 138 97
3 32 139 71
3 32 140 139
3 32 141 140
3 33 142 73
3 33 225 227
3 227 226 142
3 225 226 227
3 24 228 229
3 34 230 232
3 232 231 76
3 230 231 232
3 34 233 235
3 233 143 234
3 233 234 235
3 19 144 99
3 35 145 79
3 35 146 145
3 35 147 146
3 36 148 81
3 36 236 238
3 238 237 148
3 236 237 238
3 37 239 240
3 37 241 243
3 241 149 242
3 241 242 243
3 37 150 149
3 38 39 9
3 40 39 38
3 40 11 39
3 41 42 12
3 38 42 41
3 38 9 42
3 43 44 14
3 45 44 43
3 45 16 44
3 245 244 18
3 46 47 10
3 48 47 46
3 48 246 248
3 248 247 47
3 246 247 248
3 48 249 250
3 49 251 253
3 253 252 48
3 251 252 253
3 49 254 255
3 50 51 20
3 52 51 50
3 52 22 51
3 53 54 13
3 256 54 257
3 258 257 53
3 256 257 258
3 260 259 54
3 261 23 262
3 263 55 264
3 56 265 267
3 265 55 266
3 265 266 267
3 56 25 55
3 57 58 15
3 59 58 57
3 59 26 58
3 59 60 26
3 61 60 59
3 61 268 270
3 270 269 60
3 268 269 270
3 62 63 21
3 64 63 62
3 64 27 63
3 271 65 272
3 273 272 28
3 271 272 273
3 274 65 275
3 277 276 65
3 278 30 279
3 280 66 281
3 282 281 30
3 280 281 282
3 283 66 284
3 285 28 286
3 287 286 66
3 285 286 287
3 67 68 29
3 69 68 67
3 69 31 68
3 70 71 17
3 72 71 70
3 72 32 71
3 72 73 32
3 74 73 72
3 74 33 73
3 75 76 24
3 77 76 75
3 77 34 76
3 78 79 19
3 80 79 78
3 80 35 79
3 80 81 35
3 82 81 80
3 82 36 81
3 288 37 289
3 291 290 37
3 83 84 2
3 85 84 83
3 85 10 84
3 39 85 9
3 86 85 39
3 86 10 85
3 86 46 10
3 87 46 86
3 87 3 46
3 88 89 4
3 90 89 88
3 90 13 89
3 42 90 12
3 91 90 42
3 91 13 90
3 91 53 13
3 83 53 91
3 83 2 53
3 92 292 294
3 292 93 293
3 292 293 294
3 94 93 92
3 94 15 93
3 44 94 14
3 95 94 44
3 95 15 94
3 95 57 15
3 96 57 95
3 96 7 57
3 296 295 5
3 297 97 298
3 299 97 300
3 301 17 302
3 303 302 97
3 301 302 303
3 304 17 305
3 306 70 307
3 308 307 17
3 306 307 308
3 309 70 310
3 312 311 70
3 98 99 6
3 100 99 98
3 100 19 99
3 313 100 314
3 315 314 18
3 313 314 315
3 101 316 318
3 316 100 317
3 316 317 318
3 101 19 100
3 101 78 19
3 102 78 101
3 102 8 78
3 84 319 321
3 321 320 2
3 319 320 321
3 323 322 84
3 47 324 326
3 326 325 10
3 324 325 326
3 328 327 47
3 103 104 1
3 105 104 103
3 105 21 104
3 51 105 20
3 106 105 51
3 106 21 105
3 106 62 21
3 107 62 106
3 107 5 62
3 89 52 4
3 108 52 89
3 108 22 52
3 54 108 13
3 109 108 54
3 109 22 108
3 109 107 22
3 110 107 109
3 110 5 107
3 110 329 331
3 331 330 5
3 329 330 331
3 333 332 110
3 334 24 335
3 55 336 337
3 111 338 340
3 340 339 55
3 338 339 340
3 111 341 343
3 341 24 342
3 341 342 343
3 111 75 24
3 112 75 111
3 112 6 75
3 93 344 346
3 344 56 345
3 344 345 346
3 113 56 93
3 113 25 56
3 58 113 15
3 114 113 58
3 114 25 113
3 114 112 25
3 115 112 114
3 115 6 112
3 115 98 6
3 116 98 115
3 116 18 98
3 60 116 26
3 117 116 60
3 117 18 116
3 117 347 349
3 349 348 18
3 347 348 349
3 351 350 117
3 104 45 1
3 118 45 104
3 118 16 45
3 63 118 21
3 119 118 63
3 119 16 118
3 119 96 16
3 120 96 119
3 120 7 96
3 352 64 353
3 354 353 5
3 352 353 354
3 355 64 356
3 357 27 358
3 359 358 64
3 357 358 359
3 121 360 361
3 121 362 364
3 362 27 363
3 362 363 364
3 121 120 27
3 122 120 121
3 122 7 120
3 122 61 7
3 365 61 366
3 367 366 122
3 365 366 367
3 369 368 61
3 123 124 0
3 125 124 123
3 125 29 124
3 65 125 28
3 126 125 65
3 126 29 125
3 126 67 29
3 370 67 371
3 372 371 126
3 370 371 372
3 374 373 67
3 375 92 376
3 377 92 378
3 379 14 380
3 381 380 92
3 379 380 381
3 382 14 383
3 384 43 385
3 386 385 14
3 384 385 386
3 127 387 389
3 387 43 388
3 387 388 389
3 127 1 43
3 390 127 391
3 128 392 394
3 392 127 393
3 392 393 394
3 128 1 127
3 128 103 1
3 129 103 128
3 129 20 103
3 395 129 396
3 130 397 399
3 397 129 398
3 397 398 399
3 130 20 129
3 130 50 20
3 131 50 130
3 131 4 50
3 400 131 401
3 132 402 404
3 402 131 403
3 402 403 404
3 132 4 131
3 132 88 4
3 133 88 132
3 133 12 88
3 66 133 30
3 134 133 66
3 134 12 133
3 134 41 12
3 123 41 134
3 123 0 41
3 124 40 0
3 135 40 124
3 135 11 40
3 68 135 29
3 136 135 68
3 136 11 135
3 136 87 11
3 137 87 136
3 137 3 87
3 97 405 407
3 405 69 406
3 405 406 407
3 138 69 97
3 138 31 69
3 71 138 17
3 139 138 71
3 139 31 138
3 139 137 31
3 140 137 139
3 140 3 137
3 140 49 3
3 141 49 140
3 141 408 410
3 410 409 49
3 408 409 410
3 73 141 32
3 142 141 73
3 142 411 413
3 413 412 141
3 411 412 413
3 142 414 415
3 417 416 142
3 418 74 419
3 420 74 421
3 422 33 423
3 424 423 74
3 422 423 424
3 425 33 426
3 428 427 33
3 76 429 431
3 431 430 24
3 429 430 431
3 433 432 76
3 143 434 435
3 143 436 437
3 99 77 6
3 144 77 99
3 144 34 77
3 79 144 19
3 145 144 79
3 145 34 144
3 145 143 34
3 146 143 145
3 146 438 440
3 440 439 143
3 438 439 440
3 146 441 442
3 147 443 445
3 445 444 146
3 443 444 445
3 147 446 448
3 446 23 447
3 446 447 448
3 81 147 35
3 148 147 81
3 148 23 147
3 148 449 451
3 451 450 23
3 449 450 451
3 453 452 148
3 454 102 455
3 456 102 457
3 458 8 459
3 460 459 102
3 458 459 460
3 149 461 462
3 149 463 465
3 463 8 464
3 463 464 465
3 149 82 8
3 150 82 149
3 150 36 82
3 466 150 467
3 468 467 37
3 466 467 468
3 469 150 470
3 471 36 472
3 473 472 150
3 471 472 473
3 475 474 36
