ply
format ascii 1.0
element vertex 143
property float x
property float y
property float z
property uchar red
property uchar green
property uchar blue
element face 112
property list uchar int vertex_index
end_header
-62.5512 -48.0751 -33.133 255 139 0
-62.764 -61.0399 -24.4993 94 255 161
-65.5982 -59.6641 -21.7023 84 255 171
-64.852 -65.0162 -17.0532 0 74 255
-62.864 -54.8164 -28.9052 135 0 0
-65.8492 -64.2287 -15.4036 0 64 255
-64.2681 -60.3858 -23.1807 90 255 165
-64.0117 -63.1877 -20.8945 81 255 174
-64.1134 -47.6351 -31.8825 120 255 135
-64.3192 -51.0195 -29.7888 248 255 7
-62.7551 -51.4978 -31.0411 128 0 0
-64.4021 -57.4155 -25.4362 229 255 26
-60.9089 -48.4019 -34.1817 227 255 28
-61.0939 -51.858 -32.104 231 255 24
-62.2589 -44.5724 -35.1902 104 255 151
-60.6421 -44.8773 -36.22 0 218 255
-65.2967 -62.4216 -19.3821 0 207 255
-64.4177 -54.2874 -27.6416 239 255 16
-62.869 -58.0048 -26.7222 255 149 0
-61.1949 -55.2248 -29.9854 231 255 24
-61.2047 -58.4767 -27.8281 99 255 156
-62.6546 -62.4722 -23.3765 0 0 175
-63.4067 -62.1452 -22.7172 0 0 175
-63.516 -60.7129 -23.84 0 0 217
-61.8456 -62.7855 -23.9697 0 0 133
-62.6546 -62.4722 -23.3765 0 0 133
-65.113 -55.543 -25.8255 0 0 135
-65.0869 -57.0804 -24.7119 0 0 135
-60.1315 -50.2499 -33.574 0 0 133
-60.0517 -48.509 -34.5947 0 0 133
-62.0676 -42.7911 -36.207 0 0 136
-62.8328 -42.5957 -35.5824 0 0 136
-61.2591 -42.9436 -36.7219 0 0 177
-61.4505 -44.7248 -35.7051 0 0 220
-62.0676 -42.7911 -36.207 0 0 177
-64.546 -66.2314 -15.8959 0 0 168
-65.0446 -65.8376 -15.0711 0 0 168
-65.3506 -64.6224 -16.2284 0 0 206
-63.9697 -66.6432 -16.6894 0 0 131
-64.546 -66.2314 -15.8959 0 0 131
-65.4474 -61.0429 -20.5422 0 0 214
-66.006 -60.674 -19.7415 0 0 173
-66.1567 -59.2953 -20.9017 0 0 173
-63.8178 -64.502 -19.7483 0 0 132
-63.1096 -64.888 -20.451 0 0 132
-60.3157 -55.3659 -30.4326 0 0 178
-61.1444 -53.5414 -31.0447 0 0 221
-60.2652 -53.6825 -31.4919 0 0 178
-60.2806 -60.2433 -27.2195 0 0 134
-60.3218 -58.6485 -28.2925 0 0 134
-61.1607 -60.0316 -26.7344 0 0 134
-60.2806 -60.2433 -27.2195 0 0 134
-66.4989 -62.5769 -15.7353 0 0 129
-66.204 -63.8556 -14.5549 0 0 129
-66.1047 -62.9414 -16.5798 0 0 129
-66.4989 -62.5769 -15.7353 0 0 129
-65.6061 -63.3351 -17.4046 0 0 171
-65.3506 -64.6224 -16.2284 0 0 210
-66.1047 -62.9414 -16.5798 0 0 171
-63.2785 -63.5461 -21.574 0 0 175
-64.1399 -61.7868 -22.0376 0 0 218
-63.4067 -62.1452 -22.7172 0 0 175
-63.1096 -64.888 -20.451 0 0 132
-63.2785 -63.5461 -21.574 0 0 132
-64.2163 -49.3273 -30.8357 0 0 227
-64.9463 -49.0637 -30.1267 0 0 182
-64.8433 -47.3715 -31.1736 0 0 182
-66.268 -57.8554 -22.0566 0 0 133
-66.1567 -59.2953 -20.9017 0 0 133
-65.685 -58.2048 -22.8449 0 0 133
-66.268 -57.8554 -22.0566 0 0 133
-65.0199 -58.5656 -23.5841 0 0 177
-64.9332 -60.025 -22.4415 0 0 220
-65.685 -58.2048 -22.8449 0 0 177
-64.3351 -58.9006 -24.3085 0 0 219
-65.0199 -58.5656 -23.5841 0 0 177
-65.0869 -57.0804 -24.7119 0 0 177
-60.2239 -51.9779 -32.5352 0 0 177
-61.0014 -50.13 -33.1428 0 0 220
-60.1315 -50.2499 -33.574 0 0 177
-60.2652 -53.6825 -31.4919 0 0 134
-60.2239 -51.9779 -32.5352 0 0 134
-64.6958 -45.6496 -32.1953 0 0 137
-64.8433 -47.3715 -31.1736 0 0 137
-63.9608 -45.8977 -32.9103 0 0 137
-64.6958 -45.6496 -32.1953 0 0 137
-63.1797 -46.1176 -33.5355 0 0 181
-63.3323 -47.8551 -32.5078 0 0 226
-63.9608 -45.8977 -32.9103 0 0 181
-63.0335 -44.3663 -34.5641 0 0 136
-62.8328 -42.5957 -35.5824 0 0 136
-62.4051 -46.3237 -34.1616 0 0 225
-63.1797 -46.1176 -33.5355 0 0 181
-63.0335 -44.3663 -34.5641 0 0 181
-59.9182 -46.7467 -35.6139 0 0 176
-60.0517 -48.509 -34.5947 0 0 176
-60.7755 -46.6396 -35.2008 0 0 218
-60.4625 -43.0878 -37.2207 0 0 133
-61.2591 -42.9436 -36.7219 0 0 133
-59.7975 -44.9771 -36.6088 0 0 133
-60.4625 -43.0878 -37.2207 0 0 133
-59.9182 -46.7467 -35.6139 0 0 132
-59.7975 -44.9771 -36.6088 0 0 132
-65.5 -65.4378 -14.2351 0 0 128
-66.204 -63.8556 -14.5549 0 0 128
-65.5 -65.4378 -14.2351 0 0 129
-65.0446 -65.8376 -15.0711 0 0 129
-65.8284 -62.0378 -18.569 0 0 132
-66.006 -60.674 -19.7415 0 0 132
-65.0743 -63.7189 -18.2177 0 0 210
-65.6061 -63.3351 -17.4046 0 0 171
-65.8284 -62.0378 -18.569 0 0 171
-64.4603 -64.119 -18.9921 0 0 173
-64.6542 -62.8047 -20.1383 0 0 213
-63.8178 -64.502 -19.7483 0 0 173
-64.2379 -65.4162 -17.8276 0 0 173
-65.0743 -63.7189 -18.2177 0 0 214
-64.4603 -64.119 -18.9921 0 0 173
-63.9697 -66.6432 -16.6894 0 0 131
-64.2379 -65.4162 -17.8276 0 0 131
-65.038 -50.7356 -29.0807 0 0 136
-64.9463 -49.0637 -30.1267 0 0 136
-65.0872 -52.3696 -28.0072 0 0 180
-65.038 -50.7356 -29.0807 0 0 180
-64.3684 -52.6534 -28.7152 0 0 225
-65.1208 -53.979 -26.9282 0 0 135
-65.0872 -52.3696 -28.0072 0 0 135
-64.4099 -55.8514 -26.5389 0 0 222
-65.113 -55.543 -25.8255 0 0 178
-65.1208 -53.979 -26.9282 0 0 178
-60.3169 -57.0226 -29.3712 0 0 134
-60.3157 -55.3659 -30.4326 0 0 134
-61.1998 -56.8508 -28.9067 0 0 221
-60.3169 -57.0226 -29.3712 0 0 178
-60.3218 -58.6485 -28.2925 0 0 178
-61.9928 -59.7957 -26.1815 0 0 177
-62.0369 -58.2407 -27.2751 0 0 219
-61.1607 -60.0316 -26.7344 0 0 177
-61.9403 -61.3133 -25.0701 0 0 177
-62.8165 -59.5223 -25.6108 0 0 220
-61.9928 -59.7957 -26.1815 0 0 177
-61.8456 -62.7855 -23.9697 0 0 133
-61.9403 -61.3133 -25.0701 0 0 133
3 1 21 23
3 23 22 6
3 21 22 23
3 1 24 25
3 0 10 8
3 26 11 27
3 29 28 12
3 30 14 31
3 32 15 33
3 34 33 14
3 32 33 34
3 3 35 37
3 37 36 5
3 35 36 37
3 3 38 39
3 2 40 42
3 40 16 41
3 40 41 42
3 44 43 7
3 4 17 9
3 4 18 17
3 45 19 46
3 47 46 13
3 45 46 47
3 48 20 49
3 51 50 20
3 52 5 53
3 54 5 55
3 56 3 57
3 58 57 5
3 56 57 58
3 6 7 2
3 59 7 60
3 61 60 6
3 59 60 61
3 63 62 7
3 8 64 66
3 64 9 65
3 64 65 66
3 10 9 8
3 10 4 9
3 67 2 68
3 69 2 70
3 71 6 72
3 73 72 2
3 71 72 73
3 11 74 76
3 74 6 75
3 74 75 76
3 11 1 6
3 12 13 0
3 77 13 78
3 79 78 12
3 77 78 79
3 81 80 13
3 82 8 83
3 84 8 85
3 86 0 87
3 88 87 8
3 86 87 88
3 14 89 90
3 14 91 93
3 91 0 92
3 91 92 93
3 14 12 0
3 15 12 14
3 15 94 96
3 96 95 12
3 94 95 96
3 97 15 98
3 99 15 100
3 102 101 15
3 5 103 104
3 106 105 5
3 16 107 108
3 16 109 111
3 109 3 110
3 109 110 111
3 7 16 2
3 112 16 113
3 114 113 7
3 112 113 114
3 115 3 116
3 117 116 16
3 115 116 117
3 119 118 3
3 9 120 121
3 17 122 124
3 124 123 9
3 122 123 124
3 17 125 126
3 17 127 129
3 127 11 128
3 127 128 129
3 18 11 17
3 18 1 11
3 13 10 0
3 19 10 13
3 19 4 10
3 130 19 131
3 20 132 134
3 132 19 133
3 132 133 134
3 20 4 19
3 20 18 4
3 135 18 136
3 137 136 20
3 135 136 137
3 138 1 139
3 140 139 18
3 138 139 140
3 142 141 1
