ply
format ascii 1.0
element vertex 158
property float x
property float y
property float z
property uchar red
property uchar green
property uchar blue
element face 147
property list uchar int vertex_index
end_header
24.0681 70.218 24.995 255 213 0
28.321 74.339 13.8517 136 255 119
16.027 76.8858 27.5574 117 255 138
19.3728 81.1526 14.3022 107 255 148
20.1268 73.6652 26.1159 156 0 0
17.5961 79.5412 20.9224 248 255 7
21.7462 76.0214 19.8882 171 0 0
25.9181 72.6158 19.2763 255 7 0
23.7807 77.5393 13.8088 194 255 61
18.7284 70.5134 32.1739 216 255 39
22.6351 67.2935 30.7265 177 255 78
22.0941 71.9204 25.5074 194 0 0
20.8956 74.9455 23.0042 160 0 0
22.896 73.1747 22.502 201 0 0
18.4513 80.4806 17.5923 243 255 12
27.0514 73.5744 16.5178 255 25 0
24.8497 75.1565 16.5924 234 0 0
26.0287 75.8614 13.7566 165 255 90
20.052 67.1723 34.2296 68 255 187
20.6991 68.9196 31.404 204 0 0
21.9976 65.639 33.4917 52 255 203
18.1153 75.3535 26.802 128 0 0
16.7927 78.3393 24.255 251 255 4
18.8752 76.7032 23.5941 129 0 0
19.6908 77.82 20.3641 136 0 0
20.5836 78.697 17.1518 147 0 0
26.0981 68.6419 24.6012 40 255 215
24.9272 71.4892 22.1122 246 0 0
27.0282 69.96 21.8592 147 255 108
28.0983 71.1456 19.1855 136 255 119
29.3058 72.1572 16.5962 125 255 130
30.6311 72.9522 14.0906 0 156 255
23.8076 74.2571 19.5169 216 0 0
22.7028 76.887 16.8108 187 0 0
21.5715 79.3332 13.997 221 255 34
17.3911 73.78 29.9557 239 255 16
19.4121 72.1863 29.1823 159 0 0
21.3721 70.5015 28.4882 195 0 0
23.315 68.818 27.8817 182 255 73
15.3303 78.3178 26.2687 0 0 184
14.2475 78.9605 26.6804 0 0 139
14.9443 77.5285 27.969 0 0 184
18.2629 82.0138 14.5044 0 0 182
17.8021 81.6778 16.1495 0 0 182
18.9121 80.8166 15.9472 0 0 226
18.7278 82.2512 12.8306 0 0 138
18.2629 82.0138 14.5044 0 0 138
20.7175 65.5079 35.1935 0 0 133
19.737 66.2147 35.5947 0 0 133
21.6903 64.7412 34.8246 0 0 171
21.0248 66.4056 33.8607 0 0 210
20.7175 65.5079 35.1935 0 0 171
27.621 68.6023 23.1013 0 0 168
26.5632 69.3009 23.2302 0 0 205
27.156 67.9432 24.4723 0 0 168
29.2166 70.4945 19.2164 0 0 129
28.6536 69.8809 20.4704 0 0 129
29.8204 71.0003 17.9217 0 0 165
28.7021 71.6514 17.8908 0 0 200
29.2166 70.4945 19.2164 0 0 165
31.7678 72.2902 14.2714 0 0 128
31.1039 71.9092 15.4544 0 0 128
31.3374 73.2234 12.8735 0 0 128
31.7678 72.2902 14.2714 0 0 128
16.516 80.3054 21.2363 0 0 182
16.1143 79.7045 22.9026 0 0 182
17.1944 78.9403 22.5887 0 0 227
17.7093 71.2531 32.6057 0 0 136
18.3961 69.5822 33.6264 0 0 136
18.0597 72.1467 31.0648 0 0 225
17.0407 72.8864 31.4966 0 0 181
17.7093 71.2531 32.6057 0 0 181
17.3624 81.2977 17.8537 0 0 182
16.9347 80.8281 19.5188 0 0 182
18.0237 80.0109 19.2573 0 0 227
17.3624 81.2977 17.8537 0 0 138
17.8021 81.6778 16.1495 0 0 138
19.0579 67.9117 34.6542 0 0 175
18.7429 66.9541 36.0193 0 0 134
19.737 66.2147 35.5947 0 0 175
19.3902 68.8429 33.2018 0 0 219
18.3961 69.5822 33.6264 0 0 177
19.0579 67.9117 34.6542 0 0 177
27.8292 75.3517 12.4378 0 0 131
29.0137 74.6132 12.5652 0 0 131
28.1186 69.2881 21.8073 0 0 130
27.621 68.6023 23.1013 0 0 130
27.5633 70.5528 20.5223 0 0 203
28.1186 69.2881 21.8073 0 0 166
28.6536 69.8809 20.4704 0 0 166
30.4412 71.5117 16.7072 0 0 128
29.8204 71.0003 17.9217 0 0 128
29.9685 72.5547 15.3434 0 0 198
30.4412 71.5117 16.7072 0 0 163
31.1039 71.9092 15.4544 0 0 163
30.1688 73.9198 12.6846 0 0 165
29.0137 74.6132 12.5652 0 0 165
29.4761 73.6456 13.9711 0 0 201
30.1688 73.9198 12.6846 0 0 129
31.3374 73.2234 12.8735 0 0 129
15.7131 79.0446 24.6176 0 0 182
15.3303 78.3178 26.2687 0 0 182
16.4099 77.6126 25.9062 0 0 227
15.7131 79.0446 24.6176 0 0 139
16.1143 79.7045 22.9026 0 0 139
16.516 80.3054 21.2363 0 0 138
16.9347 80.8281 19.5188 0 0 138
26.683 76.1129 12.3902 0 0 169
27.1748 75.1002 13.8042 0 0 207
27.8292 75.3517 12.4378 0 0 169
25.5065 76.9217 12.3325 0 0 133
26.683 76.1129 12.3902 0 0 133
24.3825 77.7607 12.3586 0 0 173
24.9047 76.7003 13.7827 0 0 212
25.5065 76.9217 12.3325 0 0 173
23.2233 78.638 12.371 0 0 135
24.3825 77.7607 12.3586 0 0 135
22.1188 79.5349 12.465 0 0 177
22.6761 78.4363 13.9029 0 0 218
23.2233 78.638 12.371 0 0 177
20.9723 80.4482 12.5425 0 0 137
22.1188 79.5349 12.465 0 0 137
19.873 81.3579 12.6951 0 0 180
20.4722 80.2429 14.1496 0 0 223
20.9723 80.4482 12.5425 0 0 180
18.7278 82.2512 12.8306 0 0 138
19.873 81.3579 12.6951 0 0 138
15.6582 76.0402 29.1825 0 0 138
14.9443 77.5285 27.969 0 0 138
16.3402 74.4873 30.3816 0 0 138
17.0407 72.8864 31.4966 0 0 138
16.7091 75.3329 28.7566 0 0 228
15.6582 76.0402 29.1825 0 0 183
16.3402 74.4873 30.3816 0 0 183
22.6639 64.0326 34.4865 0 0 131
21.6903 64.7412 34.8246 0 0 131
22.968 64.881 33.1746 0 0 131
22.6639 64.0326 34.4865 0 0 131
23.2867 65.7083 31.792 0 0 170
22.3163 66.4662 32.1091 0 0 208
22.968 64.881 33.1746 0 0 170
23.6093 66.5052 30.4358 0 0 131
23.2867 65.7083 31.792 0 0 131
23.9493 67.2674 29.0134 0 0 171
22.975 68.0558 29.3041 0 0 210
23.6093 66.5052 30.4358 0 0 171
24.3039 68.0202 27.6299 0 0 132
23.9493 67.2674 29.0134 0 0 132
24.6804 68.7202 26.1865 0 0 172
23.6915 69.518 26.4383 0 0 211
24.3039 68.0202 27.6299 0 0 172
25.6954 67.9321 25.9896 0 0 170
25.0831 69.43 24.7981 0 0 209
24.6804 68.7202 26.1865 0 0 170
26.7228 67.2116 25.7969 0 0 131
25.6954 67.9321 25.9896 0 0 131
27.156 67.9432 24.4723 0 0 130
26.7228 67.2116 25.7969 0 0 130
3 0 13 11
3 2 39 41
3 39 40 41
3 3 42 44
3 44 43 14
3 42 43 44
3 3 45 46
3 1 17 15
3 47 18 48
3 49 20 50
3 51 50 18
3 49 50 51
3 4 23 21
3 6 24 12
3 6 25 24
3 52 28 53
3 54 53 26
3 52 53 54
3 55 29 56
3 57 30 58
3 59 58 29
3 57 58 59
3 60 31 61
3 63 62 31
3 5 64 66
3 66 65 22
3 64 65 66
3 7 32 27
3 8 33 16
3 8 34 33
3 9 67 68
3 9 69 71
3 69 35 70
3 69 70 71
3 9 36 35
3 10 37 19
3 10 38 37
3 11 12 4
3 13 12 11
3 13 6 12
3 14 72 74
3 74 73 5
3 72 73 74
3 76 75 14
3 15 16 7
3 17 16 15
3 17 8 16
3 18 77 79
3 77 78 79
3 18 80 82
3 80 9 81
3 80 81 82
3 18 19 9
3 20 19 18
3 20 10 19
3 21 22 2
3 23 22 21
3 23 5 22
3 12 23 4
3 24 23 12
3 24 5 23
3 24 14 5
3 25 14 24
3 25 3 14
3 84 83 1
3 26 27 0
3 28 27 26
3 28 7 27
3 85 28 86
3 29 87 89
3 87 28 88
3 87 88 89
3 29 7 28
3 29 15 7
3 30 15 29
3 30 1 15
3 90 30 91
3 31 92 94
3 92 30 93
3 92 93 94
3 31 1 30
3 31 95 97
3 97 96 1
3 95 96 97
3 99 98 31
3 22 100 102
3 102 101 2
3 100 101 102
3 104 103 22
3 106 105 5
3 27 13 0
3 32 13 27
3 32 6 13
3 16 32 7
3 33 32 16
3 33 6 32
3 33 25 6
3 34 25 33
3 34 3 25
3 107 17 108
3 109 108 1
3 107 108 109
3 110 17 111
3 112 8 113
3 114 113 17
3 112 113 114
3 115 8 116
3 117 34 118
3 119 118 8
3 117 118 119
3 120 34 121
3 122 3 123
3 124 123 34
3 122 123 124
3 126 125 3
3 127 2 128
3 35 129 130
3 35 131 133
3 131 2 132
3 131 132 133
3 35 21 2
3 36 21 35
3 36 4 21
3 19 36 9
3 37 36 19
3 37 4 36
3 37 11 4
3 38 11 37
3 38 0 11
3 134 20 135
3 136 20 137
3 138 10 139
3 140 139 20
3 138 139 140
3 141 10 142
3 143 38 144
3 145 144 10
3 143 144 145
3 146 38 147
3 148 0 149
3 150 149 38
3 148 149 150
3 151 26 152
3 153 152 0
3 151 152 153
3 154 26 155
3 157 156 26
