ply
format ascii 1.0
element vertex 187
property float x
property float y
property float z
property uchar red
property uchar green
property uchar blue
element face 184
property list uchar int vertex_index
end_header
-27.0662 -116.648 7.00384 200 0 0
-34.1285 -108.646 16.7487 255 144 0
-37.5773 -108.006 9.18726 186 255 69
-36.2552 -104.926 22.7973 64 255 191
-40.2406 -104.782 14.954 150 255 105
-21.5271 -120.168 7.32807 106 255 149
-28.8928 -116.114 2.6725 255 127 0
-25.5602 -115.714 11.1845 161 255 94
-29.2919 -111.054 15.2631 6 255 249
-30.8978 -112.596 11.5996 255 78 0
-38.3966 -105.54 18.9701 255 102 0
-35.8737 -108.931 13.0634 255 59 0
-32.4769 -112.482 7.72278 220 0 0
-34.3771 -111.381 3.75568 232 255 23
-24.3061 -118.514 7.02991 170 0 0
-22.3712 -120.527 4.8702 116 255 139
-25.1482 -118.624 4.73092 255 145 0
-26.1191 -118.385 2.41804 125 255 130
-27.9132 -116.527 4.83975 149 0 0
-33.1685 -107.852 18.5264 77 255 178
-31.7695 -109.921 15.8633 185 255 70
-30.1125 -112.055 13.4533 255 95 0
-32.6286 -110.596 14.0732 255 120 0
-39.2227 -103.891 22.1416 96 255 159
-40.2596 -103.688 20.0783 124 255 131
-39.0153 -106.376 12.0252 166 255 89
-38.1529 -106.91 14.0046 255 31 0
-36.7107 -108.568 11.1433 255 0 0
-34.2477 -110.687 10.3346 255 17 0
-35.0852 -110.267 8.39417 215 0 0
-33.366 -112.003 5.73401 170 0 0
-36 -109.677 6.43544 209 255 46
-34.2717 -105.86 21.4672 0 232 255
-35.3442 -106.757 19.6578 255 152 0
-41.2084 -103.214 17.9658 32 255 223
-30.0478 -115.498 0.554816 126 255 129
-23.5419 -117.997 9.2788 199 255 56
-26.2973 -116.395 9.12483 239 0 0
-27.503 -113.381 13.1446 131 255 124
-28.2616 -114.226 11.2355 255 47 0
-29.0134 -114.624 9.26825 255 17 0
-38.091 -103.731 24.156 0 230 255
-37.3674 -105.445 20.9043 255 143 0
-36.3449 -107.193 17.8217 255 134 0
-39.347 -105.287 16.9862 255 53 0
-37.2742 -107.217 15.9391 255 87 0
-35.0247 -108.987 14.9327 255 115 0
-33.4442 -110.829 12.232 255 79 0
-31.6712 -112.713 9.68665 255 27 0
-29.795 -114.622 7.24331 217 0 0
-30.6584 -114.301 5.1845 162 0 0
-31.654 -113.76 3.13145 128 0 0
-32.8094 -113.091 1.13034 114 255 141
-41.0828 -102.674 20.5592 0 0 134
-40.5756 -102.895 21.6661 0 0 134
-35.2635 -105.393 22.1322 0 0 196
-34.6733 -104.901 23.0677 0 0 163
-35.6651 -104.434 23.7328 0 0 163
-20.5585 -121.167 6.29204 0 0 142
-20.1367 -120.861 7.60949 0 0 142
-21.4681 -121.449 3.73037 0 0 142
-22.8567 -120.512 3.62942 0 0 142
-28.081 -116.993 1.40924 0 0 189
-26.6942 -118.128 1.28201 0 0 189
-27.506 -117.249 2.54527 0 0 236
-29.4703 -115.806 1.61366 0 0 232
-28.6586 -116.685 0.350402 0 0 187
-28.081 -116.993 1.40924 0 0 187
-24.551 -116.856 10.2317 0 0 219
-23.1811 -117.522 10.3731 0 0 178
-24.1902 -116.38 11.326 0 0 178
-28.8642 -110.328 16.1656 0 0 132
-30.0748 -109.917 16.4462 0 0 132
-28.0089 -111.57 15.1426 0 0 134
-28.8642 -110.328 16.1656 0 0 134
-28.3975 -112.218 14.2038 0 0 206
-27.1144 -112.734 14.0833 0 0 169
-28.0089 -111.57 15.1426 0 0 169
-38.9303 -102.993 24.7863 0 0 164
-38.3202 -102.881 25.8408 0 0 164
-39.1594 -102.143 26.4711 0 0 130
-36.5661 -104.032 24.4629 0 0 128
-35.6651 -104.434 23.7328 0 0 128
-24.2452 -119.561 3.55978 0 0 188
-22.8567 -120.512 3.62942 0 0 188
-23.7597 -119.576 4.80056 0 0 234
-25.6337 -118.504 3.57448 0 0 230
-24.7307 -119.441 2.40334 0 0 186
-24.2452 -119.561 3.55978 0 0 186
-25.1953 -115.152 12.1884 0 0 136
-24.1902 -116.38 11.326 0 0 136
-32.0131 -108.316 18.0778 0 0 131
-32.659 -107.22 19.4124 0 0 131
-31.3136 -109.35 16.7463 0 0 162
-32.0131 -108.316 18.0778 0 0 162
-32.469 -108.887 17.1949 0 0 195
-30.5307 -110.488 15.5632 0 0 201
-30.0748 -109.917 16.4462 0 0 166
-31.3136 -109.35 16.7463 0 0 166
-40.0572 -102.996 22.6977 0 0 132
-39.4961 -103.073 23.7791 0 0 132
-39.7411 -103.79 21.1099 0 0 198
-40.0572 -102.996 22.6977 0 0 164
-40.5756 -102.895 21.6661 0 0 164
-33.7081 -105.177 22.3748 0 0 163
-34.1097 -104.218 23.9754 0 0 130
-34.6733 -104.901 23.0677 0 0 163
-33.2106 -106.224 20.8828 0 0 131
-33.7081 -105.177 22.3748 0 0 131
-33.7201 -106.856 19.9968 0 0 195
-32.659 -107.22 19.4124 0 0 162
-33.2106 -106.224 20.8828 0 0 162
-42.015 -102.119 18.3735 0 0 135
-41.5571 -102.437 19.5029 0 0 135
-41.6495 -102.89 16.8881 0 0 133
-42.015 -102.119 18.3735 0 0 133
-41.1656 -103.674 15.3822 0 0 175
-40.7245 -103.998 16.4599 0 0 213
-41.6495 -102.89 16.8881 0 0 175
-40.6741 -104.455 13.9184 0 0 134
-41.1656 -103.674 15.3822 0 0 134
-40.0614 -105.252 12.454 0 0 176
-39.628 -105.579 13.4896 0 0 216
-40.6741 -104.455 13.9184 0 0 176
-39.455 -106.047 11.0203 0 0 135
-40.0614 -105.252 12.454 0 0 135
-38.736 -106.862 9.60134 0 0 178
-38.2963 -107.191 10.6062 0 0 218
-39.455 -106.047 11.0203 0 0 178
-38.0408 -107.676 8.2018 0 0 137
-38.736 -106.862 9.60134 0 0 137
-20.9806 -121.346 5.06311 0 0 184
-20.5585 -121.167 6.29204 0 0 184
-21.9491 -120.348 6.09913 0 0 228
-20.9806 -121.346 5.06311 0 0 143
-21.4681 -121.449 3.73037 0 0 143
-25.3045 -119.26 1.17691 0 0 144
-24.7307 -119.441 2.40334 0 0 144
-25.3045 -119.26 1.17691 0 0 143
-26.6942 -118.128 1.28201 0 0 143
-29.3389 -116.328 -0.733119 0 0 143
-28.6586 -116.685 0.350402 0 0 143
-30.7197 -115.127 -0.450892 0 0 142
-29.3389 -116.328 -0.733119 0 0 142
-21.1477 -119.779 8.53044 0 0 140
-20.1367 -120.861 7.60949 0 0 140
-22.1551 -118.694 9.5058 0 0 138
-23.1811 -117.522 10.3731 0 0 138
-22.5345 -119.083 8.30344 0 0 227
-21.1477 -119.779 8.53044 0 0 184
-22.1551 -118.694 9.5058 0 0 184
-26.1667 -113.985 13.1684 0 0 135
-27.1144 -112.734 14.0833 0 0 135
-26.5316 -114.548 12.1645 0 0 211
-25.1953 -115.152 12.1884 0 0 173
-26.1667 -113.985 13.1684 0 0 173
-37.484 -103.435 25.1422 0 0 128
-38.3202 -102.881 25.8408 0 0 128
-37.1731 -104.329 23.4767 0 0 195
-36.5661 -104.032 24.4629 0 0 162
-37.484 -103.435 25.1422 0 0 162
-38.6569 -103.811 23.1488 0 0 192
-38.9303 -102.993 24.7863 0 0 160
-39.4961 -103.073 23.7791 0 0 160
-40.734 -103.451 19.022 0 0 203
-41.0828 -102.674 20.5592 0 0 168
-41.5571 -102.437 19.5029 0 0 168
-32.1004 -113.923 -0.163129 0 0 187
-30.7197 -115.127 -0.450892 0 0 187
-31.4286 -114.294 0.842579 0 0 232
-37.2522 -108.511 6.82589 0 0 180
-36.7886 -108.841 7.81135 0 0 221
-38.0408 -107.676 8.2018 0 0 180
-36.5071 -109.345 5.46104 0 0 138
-37.2522 -108.511 6.82589 0 0 138
-35.6956 -110.197 4.12116 0 0 181
-35.1885 -110.529 5.09556 0 0 224
-36.5071 -109.345 5.46104 0 0 181
-34.9475 -111.04 2.78967 0 0 139
-35.6956 -110.197 4.12116 0 0 139
-34.1637 -111.895 1.477 0 0 183
-33.5932 -112.236 2.44301 0 0 226
-34.9475 -111.04 2.78967 0 0 183
-33.4618 -112.728 0.177926 0 0 140
-34.1637 -111.895 1.477 0 0 140
-32.1004 -113.923 -0.163129 0 0 140
-33.4618 -112.728 0.177926 0 0 140
3 0 16 14
3 0 18 16
3 1 20 19
3 1 22 20
3 53 24 54
3 2 27 25
3 2 29 27
3 2 31 29
3 3 55 57
3 55 32 56
3 55 56 57
3 3 33 32
3 5 58 59
3 61 60 15
3 6 62 64
3 64 63 17
3 62 63 64
3 6 65 67
3 65 35 66
3 65 66 67
3 7 68 70
3 68 36 69
3 68 69 70
3 7 37 36
3 8 71 72
3 8 73 74
3 8 75 77
3 75 38 76
3 75 76 77
3 9 39 21
3 9 40 39
3 78 41 79
3 78 79 80
3 10 42 23
3 10 43 42
3 4 44 34
3 11 45 26
3 11 46 45
3 11 47 46
3 12 48 28
3 12 49 48
3 12 50 49
3 13 51 30
3 13 52 51
3 81 3 82
3 14 15 5
3 16 15 14
3 16 83 85
3 85 84 15
3 83 84 85
3 16 86 88
3 86 17 87
3 86 87 88
3 18 17 16
3 18 6 17
3 89 7 90
3 19 91 92
3 20 93 95
3 95 94 19
3 93 94 95
3 20 96 98
3 96 8 97
3 96 97 98
3 20 21 8
3 22 21 20
3 22 9 21
3 99 23 100
3 24 101 103
3 101 23 102
3 101 102 103
3 24 10 23
3 25 26 4
3 27 26 25
3 27 11 26
3 27 28 11
3 29 28 27
3 29 12 28
3 29 30 12
3 31 30 29
3 31 13 30
3 32 104 106
3 104 105 106
3 32 107 108
3 32 109 111
3 109 19 110
3 109 110 111
3 33 19 32
3 33 1 19
3 112 34 113
3 114 34 115
3 116 4 117
3 118 117 34
3 116 117 118
3 119 4 120
3 121 25 122
3 123 122 4
3 121 122 123
3 124 25 125
3 126 2 127
3 128 127 25
3 126 127 128
3 130 129 2
3 15 131 133
3 133 132 5
3 131 132 133
3 135 134 15
3 17 136 137
3 139 138 17
3 35 140 141
3 35 142 143
3 144 5 145
3 36 146 147
3 36 148 150
3 148 5 149
3 148 149 150
3 36 14 5
3 37 14 36
3 37 0 14
3 38 151 152
3 38 153 155
3 153 7 154
3 153 154 155
3 21 38 8
3 39 38 21
3 39 7 38
3 39 37 7
3 40 37 39
3 40 0 37
3 41 156 157
3 41 158 160
3 158 3 159
3 158 159 160
3 23 161 163
3 161 41 162
3 161 162 163
3 42 41 23
3 42 3 41
3 42 33 3
3 43 33 42
3 43 1 33
3 34 164 166
3 164 24 165
3 164 165 166
3 44 24 34
3 44 10 24
3 26 44 4
3 45 44 26
3 45 10 44
3 45 43 10
3 46 43 45
3 46 1 43
3 46 22 1
3 47 22 46
3 47 9 22
3 28 47 11
3 48 47 28
3 48 9 47
3 48 40 9
3 49 40 48
3 49 0 40
3 49 18 0
3 50 18 49
3 50 6 18
3 30 50 12
3 51 50 30
3 51 6 50
3 51 35 6
3 52 35 51
3 52 167 169
3 169 168 35
3 167 168 169
3 170 31 171
3 172 171 2
3 170 171 172
3 173 31 174
3 175 13 176
3 177 176 31
3 175 176 177
3 178 13 179
3 180 52 181
3 182 181 13
3 180 181 182
3 183 52 184
3 186 185 52
