ply
format ascii 1.0
element vertex 178
property float x
property float y
property float z
property uchar red
property uchar green
property uchar blue
element face 175
property list uchar int vertex_index
end_header
46.3462 -66.273 50.3619 111 255 144
34.7207 -76.9172 54.3251 126 255 129
40.857 -72.6517 52.4853 157 0 0
47.7241 -71.1348 50.9444 76 255 179
37.7692 -75.1633 53.4986 228 0 0
41.3793 -77.6346 52.3745 170 0 0
38.0407 -79.9584 52.5101 182 255 73
42.0414 -64.682 50.4994 104 255 151
43.7789 -69.6199 51.44 130 0 0
39.668 -67.7231 51.8442 199 0 0
37.0816 -70.3315 53.4254 244 0 0
34.4316 -72.3912 55.2281 253 255 2
44.6973 -74.5753 51.7887 169 0 0
47.1632 -68.7179 50.7749 220 255 35
36.2325 -76.1464 53.9466 255 21 0
37.96 -77.5763 53.194 234 0 0
36.3676 -78.4665 53.3551 152 255 103
40.8885 -66.2493 51.1499 255 166 0
38.9048 -65.3232 51.5354 57 255 198
36.6302 -67.9656 53.2851 154 255 101
35.4528 -69.1024 54.3102 149 255 106
35.7564 -71.4364 54.31 255 11 0
34.266 -70.1104 55.4188 32 255 223
42.3535 -71.186 51.9628 139 0 0
44.3561 -72.0996 51.7444 149 0 0
42.8115 -73.6787 52.1818 150 0 0
41.3841 -80.108 51.7629 217 255 38
43.1031 -78.6559 51.6906 223 255 32
39.3188 -73.9883 53.0032 186 0 0
41.2083 -75.1442 52.5828 163 0 0
39.5807 -76.4571 52.9288 192 0 0
39.6972 -78.9128 52.5128 194 0 0
39.6832 -81.3375 51.6616 82 255 173
44.1972 -65.5057 50.4028 250 255 5
45.1124 -67.9763 50.91 128 0 0
42.9909 -67.144 50.9857 129 0 0
41.6995 -68.7053 51.5793 145 0 0
40.3337 -70.1724 52.1987 166 0 0
37.786 -66.7037 52.3614 163 255 92
38.3923 -69.0888 52.6002 222 0 0
38.9153 -71.5251 52.8525 193 0 0
37.4707 -72.7403 53.535 226 0 0
36.0239 -73.7946 54.2264 255 11 0
34.5895 -74.6701 54.8989 255 53 0
45.8127 -70.4381 51.2768 158 0 0
46.2617 -72.8856 51.3928 255 175 0
46.4528 -75.3146 51.1682 81 255 174
43.0581 -76.1724 52.1232 161 0 0
44.8055 -77.0401 51.4805 218 255 37
33.1106 -73.1903 56.1465 16 255 239
33.1695 -75.3607 55.5281 6 255 249
46.7547 -67.4955 50.5684 0 0 224
47.7836 -67.8371 50.5043 0 0 181
47.3751 -66.6147 50.2978 0 0 181
34.7656 -78.0132 53.8643 0 0 166
35.589 -78.7879 53.3793 0 0 166
35.5441 -77.6918 53.8401 0 0 202
46.9166 -65.3991 50.0776 0 0 139
45.8337 -65.0393 50.0912 0 0 139
47.3751 -66.6147 50.2978 0 0 137
46.9166 -65.3991 50.0776 0 0 137
38.4999 -64.1584 51.4532 0 0 132
39.4398 -64.5783 51.1615 0 0 132
34.7819 -68.4833 54.9352 0 0 131
35.2955 -67.9659 54.3152 0 0 131
34.1885 -68.9874 55.4895 0 0 167
34.8594 -69.6064 54.8645 0 0 203
34.7819 -68.4833 54.9352 0 0 167
42.1816 -80.612 51.2889 0 0 137
41.3196 -81.3277 51.2221 0 0 137
48.5905 -71.4125 50.635 0 0 132
48.3975 -70.2401 50.6941 0 0 132
47.8675 -72.3281 50.8619 0 0 134
48.5905 -71.4125 50.635 0 0 134
38.0325 -81.1252 51.9375 0 0 175
38.8537 -81.8147 51.5132 0 0 175
38.8619 -80.648 52.0858 0 0 216
36.9679 -66.1899 52.7858 0 0 130
37.4621 -65.5505 52.2977 0 0 130
42.584 -63.8587 50.1878 0 0 137
41.5178 -63.4644 50.2977 0 0 137
43.1193 -65.0938 50.4511 0 0 226
43.6619 -64.2706 50.1395 0 0 182
42.584 -63.8587 50.1878 0 0 182
44.7576 -78.2627 51.1169 0 0 179
43.9543 -77.848 51.5855 0 0 222
43.9064 -79.0706 51.2219 0 0 179
45.607 -77.3803 51.0107 0 0 137
44.7576 -78.2627 51.1169 0 0 137
32.4478 -73.5151 56.5911 0 0 129
32.488 -72.4665 56.9428 0 0 129
32.4773 -74.6003 56.2819 0 0 166
33.1401 -74.2755 55.8373 0 0 202
32.4478 -73.5151 56.5911 0 0 166
48.117 -69.0316 50.6093 0 0 134
47.7836 -67.8371 50.5043 0 0 134
47.4437 -69.9264 50.8597 0 0 218
48.3975 -70.2401 50.6941 0 0 176
48.117 -69.0316 50.6093 0 0 176
36.3967 -79.6009 52.8542 0 0 171
37.2333 -80.3468 52.4316 0 0 171
37.2041 -79.2125 52.9326 0 0 209
36.3967 -79.6009 52.8542 0 0 131
35.589 -78.7879 53.3793 0 0 131
40.4316 -65.0413 50.9688 0 0 178
41.4649 -65.4656 50.8247 0 0 220
41.0081 -64.2577 50.6435 0 0 178
39.8966 -65.7862 51.3427 0 0 215
40.4316 -65.0413 50.9688 0 0 175
39.4398 -64.5783 51.1615 0 0 175
35.8841 -67.3975 53.8026 0 0 130
36.39 -66.8208 53.2476 0 0 130
36.0415 -68.534 53.7976 0 0 203
35.8841 -67.3975 53.8026 0 0 166
35.2955 -67.9659 54.3152 0 0 166
41.0081 -64.2577 50.6435 0 0 135
41.5178 -63.4644 50.2977 0 0 135
43.0411 -79.8859 51.2528 0 0 180
42.2436 -79.3819 51.7267 0 0 223
42.1816 -80.612 51.2889 0 0 180
43.9064 -79.0706 51.2219 0 0 137
43.0411 -79.8859 51.2528 0 0 137
40.4691 -81.9425 51.1715 0 0 179
41.3196 -81.3277 51.2221 0 0 179
40.5336 -80.7227 51.7123 0 0 222
39.6257 -82.5256 50.99 0 0 136
40.4691 -81.9425 51.1715 0 0 136
39.6257 -82.5256 50.99 0 0 136
38.8537 -81.8147 51.5132 0 0 136
38.0325 -81.1252 51.9375 0 0 134
37.2333 -80.3468 52.4316 0 0 134
38.0215 -64.8603 51.8847 0 0 131
38.4999 -64.1584 51.4532 0 0 131
38.3454 -66.0134 51.9484 0 0 205
38.0215 -64.8603 51.8847 0 0 168
37.4621 -65.5505 52.2977 0 0 168
37.2081 -67.3346 52.8232 0 0 203
36.9679 -66.1899 52.7858 0 0 167
36.39 -66.8208 53.2476 0 0 167
44.7592 -64.6556 50.1117 0 0 139
43.6619 -64.2706 50.1395 0 0 139
45.2717 -65.8894 50.3823 0 0 227
45.8337 -65.0393 50.0912 0 0 182
44.7592 -64.6556 50.1117 0 0 182
47.1363 -73.2034 51.086 0 0 173
47.8675 -72.3281 50.8619 0 0 173
46.9929 -72.0102 51.1686 0 0 213
47.2319 -74.4179 50.9738 0 0 176
47.1363 -73.2034 51.086 0 0 176
46.3572 -74.1001 51.2805 0 0 217
47.245 -75.5951 50.6937 0 0 134
47.2319 -74.4179 50.9738 0 0 134
46.4307 -76.5175 50.8546 0 0 177
45.6291 -76.1773 51.3244 0 0 219
45.607 -77.3803 51.0107 0 0 177
47.245 -75.5951 50.6937 0 0 135
46.4307 -76.5175 50.8546 0 0 135
33.6677 -69.4503 56.1586 0 0 132
34.1885 -68.9874 55.4895 0 0 132
33.6694 -70.5496 55.9972 0 0 130
33.6677 -69.4503 56.1586 0 0 130
33.7522 -71.69 55.9018 0 0 169
34.3488 -71.2508 55.3234 0 0 207
33.6694 -70.5496 55.9972 0 0 169
33.0918 -72.0896 56.361 0 0 131
32.488 -72.4665 56.9428 0 0 131
33.7711 -72.7907 55.6873 0 0 202
33.7522 -71.69 55.9018 0 0 166
33.0918 -72.0896 56.361 0 0 166
32.4613 -75.6197 55.8151 0 0 128
32.4773 -74.6003 56.2819 0 0 128
33.2007 -76.4172 55.0768 0 0 128
32.4613 -75.6197 55.8151 0 0 128
33.9762 -77.1954 54.4753 0 0 162
33.9451 -76.1389 54.9266 0 0 196
33.2007 -76.4172 55.0768 0 0 162
34.7656 -78.0132 53.8643 0 0 129
33.9762 -77.1954 54.4753 0 0 129
3 0 51 53
3 51 13 52
3 51 52 53
3 1 16 14
3 1 54 56
3 56 55 16
3 54 55 56
3 0 57 58
3 0 59 60
3 61 18 62
3 63 20 64
3 65 22 66
3 67 66 20
3 65 66 67
3 2 25 23
3 69 68 26
3 3 70 71
3 3 72 73
3 4 30 28
3 6 31 15
3 6 32 31
3 6 74 76
3 76 75 32
3 74 75 76
3 7 35 33
3 9 36 17
3 9 37 36
3 77 38 78
3 10 39 19
3 10 40 39
3 10 41 40
3 11 42 21
3 11 43 42
3 7 79 80
3 7 81 83
3 81 33 82
3 81 82 83
3 8 44 34
3 12 45 24
3 12 46 45
3 5 47 29
3 84 48 85
3 86 85 27
3 84 85 86
3 88 87 48
3 89 49 90
3 91 50 92
3 93 92 49
3 91 92 93
3 13 94 95
3 13 96 98
3 96 3 97
3 96 97 98
3 14 15 4
3 16 15 14
3 16 6 15
3 16 99 101
3 101 100 6
3 99 100 101
3 103 102 16
3 104 17 105
3 106 105 7
3 104 105 106
3 18 107 109
3 107 17 108
3 107 108 109
3 18 9 17
3 110 19 111
3 20 112 114
3 112 19 113
3 112 113 114
3 20 10 19
3 20 21 10
3 22 21 20
3 22 11 21
3 115 7 116
3 23 24 8
3 25 24 23
3 25 12 24
3 26 27 5
3 117 27 118
3 119 118 26
3 117 118 119
3 121 120 27
3 28 29 2
3 30 29 28
3 30 5 29
3 15 30 4
3 31 30 15
3 31 5 30
3 31 26 5
3 32 26 31
3 32 122 124
3 124 123 26
3 122 123 124
3 32 125 126
3 128 127 32
3 130 129 6
3 33 34 0
3 35 34 33
3 35 8 34
3 17 35 7
3 36 35 17
3 36 8 35
3 36 23 8
3 37 23 36
3 37 2 23
3 131 18 132
3 38 133 135
3 133 18 134
3 133 134 135
3 38 9 18
3 19 136 138
3 136 38 137
3 136 137 138
3 39 38 19
3 39 9 38
3 39 37 9
3 40 37 39
3 40 2 37
3 40 28 2
3 41 28 40
3 41 4 28
3 21 41 10
3 42 41 21
3 42 4 41
3 42 14 4
3 43 14 42
3 43 1 14
3 33 139 140
3 33 141 143
3 141 0 142
3 141 142 143
3 34 13 0
3 44 13 34
3 44 3 13
3 24 44 8
3 45 44 24
3 45 3 44
3 45 144 146
3 146 145 3
3 144 145 146
3 46 147 149
3 149 148 45
3 147 148 149
3 46 150 151
3 29 25 2
3 47 25 29
3 47 12 25
3 27 47 5
3 48 47 27
3 48 12 47
3 48 46 12
3 152 46 153
3 154 153 48
3 152 153 154
3 156 155 46
3 157 22 158
3 159 22 160
3 161 11 162
3 163 162 22
3 161 162 163
3 49 164 165
3 49 166 168
3 166 11 167
3 166 167 168
3 49 43 11
3 50 43 49
3 50 1 43
3 169 50 170
3 171 50 172
3 173 1 174
3 175 174 50
3 173 174 175
3 177 176 1
