ply
format ascii 1.0
element vertex 160
property float x
property float y
property float z
property uchar red
property uchar green
property uchar blue
element face 153
property list uchar int vertex_index
end_header
66.2538 -26.8986 33.7598 255 81 0
66.5603 -19.8588 25.221 200 255 55
60.46 -29.7658 27.9985 225 255 30
66.2537 -23.6375 29.3852 246 0 0
63.3344 -24.886 26.7055 128 0 0
63.8719 -28.4308 30.7848 209 0 0
62.1361 -33.0136 31.6856 48 255 207
64.9176 -31.474 34.9687 128 255 127
68.5789 -18.7004 28.1487 141 255 114
67.793 -22.1355 32.4543 109 255 146
67.1458 -25.1635 36.8006 60 255 195
66.5134 -29.7475 38.1275 56 255 199
66.2086 -25.3289 31.559 255 32 0
65.0294 -26.0559 30.0972 220 0 0
65.2286 -27.692 32.2547 255 14 0
64.3424 -30.0084 32.8835 255 10 0
65.532 -29.2093 34.4244 255 70 0
68.175 -20.4746 30.2872 129 255 126
65.0366 -20.3447 24.0121 106 255 149
61.7947 -27.3505 27.4189 128 0 0
61.4859 -25.4421 25.5567 255 247 0
59.8832 -27.9403 26.2192 117 255 138
66.7159 -28.8472 39.6184 0 201 255
66.3815 -21.8156 27.2646 217 0 0
64.9599 -22.3864 25.9491 156 0 0
64.9452 -24.2893 27.9853 182 0 0
63.5354 -26.7261 28.7128 162 0 0
62.2551 -29.1196 29.3638 171 0 0
61.2146 -31.4536 29.8364 193 255 62
62.8742 -30.7563 31.3511 226 0 0
63.6324 -32.2718 33.3362 155 255 100
68.9654 -16.8045 26.0601 0 175 255
67.7506 -19.3136 26.6101 255 234 0
67.462 -21.1804 28.721 255 20 0
67.2113 -22.9202 30.8843 255 51 0
67.0235 -24.5401 33.0784 255 91 0
63.2454 -22.9062 24.7942 255 254 0
67.4518 -23.6934 34.6313 85 255 170
66.8986 -26.0525 35.2816 255 136 0
66.8472 -26.5694 38.942 0 205 255
66.8111 -27.478 37.4707 255 179 0
66.37 -28.3627 35.9593 255 132 0
65.9015 -30.6284 36.5715 92 255 163
65.7984 -20.1017 24.6166 0 0 226
65.8896 -19.0549 23.6433 0 0 184
66.6515 -18.812 24.2477 0 0 184
59.5142 -30.0699 27.3427 0 0 186
59.2258 -29.1572 26.4531 0 0 186
60.1716 -28.853 27.1089 0 0 229
59.9562 -30.9335 28.1699 0 0 139
59.5142 -30.0699 27.3427 0 0 139
64.6995 -32.5792 35.1219 0 0 170
64.0569 -32.9781 34.3057 0 0 170
64.275 -31.8729 34.1524 0 0 205
68.7722 -17.7524 27.1044 0 0 206
69.2487 -16.5183 26.8748 0 0 170
69.0554 -17.4663 27.9191 0 0 170
61.3932 -24.4162 24.6812 0 0 145
60.4785 -25.706 25.0469 0 0 145
61.3302 -33.3536 30.8541 0 0 177
60.8695 -32.5736 29.9295 0 0 177
61.6754 -32.2336 30.761 0 0 216
67.2988 -24.4284 35.716 0 0 195
67.4775 -23.2476 35.4127 0 0 163
67.3245 -23.9826 36.4973 0 0 163
66.6802 -27.2562 39.9857 0 0 129
66.6785 -26.111 39.6524 0 0 129
68.8098 -18.3598 28.9708 0 0 135
69.0554 -17.4663 27.9191 0 0 135
68.6079 -19.2469 30.04 0 0 170
68.3769 -19.5875 29.218 0 0 205
68.8098 -18.3598 28.9708 0 0 170
68.3469 -20.0882 31.1057 0 0 134
68.6079 -19.2469 30.04 0 0 134
68.156 -20.9187 32.1892 0 0 168
67.984 -21.3051 31.3708 0 0 203
68.3469 -20.0882 31.1057 0 0 168
65.0817 -19.2543 23.1001 0 0 141
65.8896 -19.0549 23.6433 0 0 141
64.1326 -20.5648 23.5051 0 0 144
65.0817 -19.2543 23.1001 0 0 144
59.6772 -26.9551 25.3782 0 0 188
60.4785 -25.706 25.0469 0 0 188
60.6845 -26.6912 25.8879 0 0 232
58.8798 -28.2208 25.6626 0 0 144
59.6772 -26.9551 25.3782 0 0 144
58.8798 -28.2208 25.6626 0 0 141
59.2258 -29.1572 26.4531 0 0 141
61.9447 -34.089 31.6835 0 0 135
62.6609 -33.7368 32.5921 0 0 135
67.0803 -24.7055 37.5504 0 0 130
67.3245 -23.9826 36.4973 0 0 130
66.6364 -29.5226 40.655 0 0 128
66.6145 -28.3951 40.324 0 0 128
66.6697 -29.9681 39.9245 0 0 128
66.6364 -29.5226 40.655 0 0 128
66.5685 -30.4183 39.179 0 0 158
66.6147 -29.2974 38.873 0 0 187
66.6697 -29.9681 39.9245 0 0 158
66.395 -30.8637 38.3938 0 0 129
66.5685 -30.4183 39.179 0 0 129
63.409 -33.366 33.4174 0 0 172
62.6609 -33.7368 32.5921 0 0 172
62.8843 -32.6427 32.5109 0 0 208
63.409 -33.366 33.4174 0 0 135
64.0569 -32.9781 34.3057 0 0 135
67.2967 -18.5869 24.8974 0 0 138
66.6515 -18.812 24.2477 0 0 138
69.4549 -15.5659 25.85 0 0 134
69.2487 -16.5183 26.8748 0 0 134
69.1247 -15.7918 25.0536 0 0 134
69.4549 -15.5659 25.85 0 0 134
68.4992 -17.0598 25.3169 0 0 136
69.1247 -15.7918 25.0536 0 0 136
67.8918 -18.3143 25.5919 0 0 173
68.4992 -17.0598 25.3169 0 0 173
68.358 -18.0591 26.3351 0 0 210
67.1554 -19.5862 25.9156 0 0 218
67.2967 -18.5869 24.8974 0 0 178
67.8918 -18.3143 25.5919 0 0 178
63.237 -21.8456 23.8962 0 0 186
64.1326 -20.5648 23.5051 0 0 186
64.141 -21.6254 24.4032 0 0 230
62.273 -23.1483 24.3 0 0 188
62.3656 -24.1742 25.1754 0 0 233
61.3932 -24.4162 24.6812 0 0 188
63.237 -21.8456 23.8962 0 0 145
62.273 -23.1483 24.3 0 0 145
60.3335 -31.7774 29.0888 0 0 182
59.9562 -30.9335 28.1699 0 0 182
60.8373 -30.6097 28.9175 0 0 223
60.3335 -31.7774 29.0888 0 0 137
60.8695 -32.5736 29.9295 0 0 137
61.3302 -33.3536 30.8541 0 0 135
61.9447 -34.089 31.6835 0 0 135
67.8973 -21.7138 33.2588 0 0 133
68.156 -20.9187 32.1892 0 0 133
67.7267 -22.4927 34.3474 0 0 132
67.4775 -23.2476 35.4127 0 0 132
67.6224 -22.9145 33.5428 0 0 199
67.8973 -21.7138 33.2588 0 0 166
67.7267 -22.4927 34.3474 0 0 166
66.931 -25.4084 38.621 0 0 129
66.6785 -26.111 39.6524 0 0 129
66.9965 -25.8665 37.8713 0 0 191
67.0803 -24.7055 37.5504 0 0 161
66.931 -25.4084 38.621 0 0 161
66.7815 -27.7083 39.2802 0 0 186
66.6802 -27.2562 39.9857 0 0 157
66.6145 -28.3951 40.324 0 0 157
66.089 -31.3041 37.6158 0 0 162
66.2075 -30.188 37.3495 0 0 193
66.395 -30.8637 38.3938 0 0 162
65.7214 -31.74 36.7863 0 0 132
66.089 -31.3041 37.6158 0 0 132
65.2295 -32.1628 35.985 0 0 166
65.4096 -31.0512 35.7701 0 0 200
65.7214 -31.74 36.7863 0 0 166
64.6995 -32.5792 35.1219 0 0 134
65.2295 -32.1628 35.985 0 0 134
3 0 14 12
3 0 16 14
3 1 43 45
3 43 18 44
3 43 44 45
3 2 21 19
3 2 46 48
3 48 47 21
3 46 47 48
3 2 49 50
3 3 25 23
3 5 26 13
3 5 27 26
3 5 29 27
3 7 30 15
3 7 51 53
3 53 52 30
3 51 52 53
3 8 54 56
3 54 31 55
3 54 55 56
3 8 32 31
3 8 33 32
3 9 34 17
3 9 35 34
3 4 36 24
3 58 57 20
3 6 59 61
3 61 60 28
3 59 60 61
3 10 62 64
3 62 37 63
3 62 63 64
3 10 38 37
3 65 39 66
3 11 40 22
3 11 41 40
3 11 42 41
3 12 13 3
3 14 13 12
3 14 5 13
3 14 15 5
3 16 15 14
3 16 7 15
3 67 8 68
3 69 17 70
3 71 70 8
3 69 70 71
3 72 17 73
3 74 9 75
3 76 75 17
3 74 75 76
3 18 77 78
3 18 79 80
3 19 20 4
3 21 20 19
3 21 81 83
3 83 82 20
3 81 82 83
3 21 84 85
3 87 86 21
3 89 88 6
3 90 10 91
3 92 22 93
3 94 22 95
3 96 11 97
3 98 97 22
3 96 97 98
3 100 99 11
3 23 24 1
3 25 24 23
3 25 4 24
3 13 25 3
3 26 25 13
3 26 4 25
3 26 19 4
3 27 19 26
3 27 2 19
3 27 28 2
3 29 28 27
3 29 6 28
3 15 29 5
3 30 29 15
3 30 6 29
3 30 101 103
3 103 102 6
3 101 102 103
3 105 104 30
3 106 1 107
3 31 108 109
3 31 110 111
3 31 112 113
3 32 114 116
3 116 115 31
3 114 115 116
3 32 117 119
3 117 1 118
3 117 118 119
3 32 23 1
3 33 23 32
3 33 3 23
3 17 33 8
3 34 33 17
3 34 3 33
3 34 12 3
3 35 12 34
3 35 0 12
3 24 18 1
3 36 18 24
3 36 120 122
3 122 121 18
3 120 121 122
3 20 36 4
3 123 36 124
3 125 124 20
3 123 124 125
3 127 126 36
3 28 128 130
3 130 129 2
3 128 129 130
3 132 131 28
3 134 133 6
3 135 9 136
3 37 137 138
3 37 139 141
3 139 9 140
3 139 140 141
3 37 35 9
3 38 35 37
3 38 0 35
3 39 142 143
3 39 144 146
3 144 10 145
3 144 145 146
3 22 147 149
3 147 39 148
3 147 148 149
3 40 39 22
3 40 10 39
3 40 38 10
3 41 38 40
3 41 0 38
3 41 16 0
3 42 16 41
3 42 7 16
3 150 42 151
3 152 151 11
3 150 151 152
3 153 42 154
3 155 7 156
3 157 156 42
3 155 156 157
3 159 158 7
