ply
format ascii 1.0
element vertex 172
property float x
property float y
property float z
property uchar red
property uchar green
property uchar blue
element face 154
property list uchar int vertex_index
end_header
1.54869 -32.9195 81.0377 255 31 0
-0.925852 -32.4074 70.6307 117 255 138
1.55955 -26.4705 79.5059 193 255 62
0.784613 -26.3722 74.3564 241 255 14
0.660759 -32.7498 75.9824 165 0 0
0.218931 -38.8371 77.9347 58 255 197
1.50971 -26.5799 84.0054 255 137 0
-0.615904 -26.021 69.0855 0 241 255
1.45324 -33.0352 85.2236 107 255 148
0.976744 -38.9794 82.7568 255 159 0
1.60362 -29.7224 80.2606 242 0 0
1.27279 -29.6653 77.7553 182 0 0
1.21043 -32.8459 78.5783 212 0 0
0.494165 -35.8434 76.9084 255 187 0
1.03692 -35.9488 79.4669 255 2 0
1.36054 -23.2608 83.3379 0 254 255
0.973824 -23.3757 85.2292 0 213 255
0.056635 -29.4582 72.4727 128 0 0
0.149475 -26.2462 71.7104 248 255 7
-0.765587 -29.247 69.8083 249 255 6
1.12254 -29.9442 86.3218 0 169 255
0.954601 -38.966 84.7933 9 255 246
0.401817 -41.7396 83.7291 0 201 255
0.236353 -41.7538 81.5115 0 241 255
1.2624 -26.435 76.9752 224 255 31
0.747034 -29.5868 75.1383 145 0 0
-0.064127 -32.6122 73.316 255 142 0
-0.235971 -35.6981 74.2565 100 255 155
1.65109 -26.5106 81.8761 250 255 5
1.70836 -29.7805 82.5789 255 76 0
-1.47247 -25.6635 66.5201 0 108 255
1.10984 -26.6926 85.8126 26 255 229
1.55631 -29.853 84.6268 255 189 0
1.64016 -32.9817 83.2814 255 132 0
1.15516 -36.0659 85.8268 0 160 255
1.40128 -36.0633 84.0113 255 202 0
1.35177 -36.0222 81.8621 255 89 0
0.719082 -38.9331 80.442 233 255 22
0.55582 -21.8008 85.7016 0 0 135
0.865999 -21.7017 84.8976 0 0 135
-1.40235 -32.2567 69.2984 0 0 194
-1.32222 -30.6765 68.8872 0 0 194
-0.845719 -30.8272 70.2195 0 0 237
-1.50305 -33.8114 69.7537 0 0 149
-1.40235 -32.2567 69.2984 0 0 149
0.013219 -43.0016 84.2444 0 0 157
0.340261 -41.6873 84.6819 0 0 157
-0.048336 -42.9493 85.1972 0 0 132
-0.006265 -43.056 83.1945 0 0 134
0.013219 -43.0016 84.2444 0 0 134
1.41097 -26.4528 78.2405 0 0 230
1.36065 -24.8103 77.8654 0 0 189
1.50922 -24.828 79.1307 0 0 189
-0.130922 -38.7658 76.622 0 0 187
0.006695 -37.269 76.1088 0 0 187
0.356548 -37.3402 77.4215 0 0 227
-0.296598 -40.205 77.2077 0 0 145
-0.130922 -38.7658 76.622 0 0 145
0.792763 -24.741 73.9895 0 0 149
0.999945 -24.7694 75.2892 0 0 149
-0.192051 -24.4983 70.051 0 0 194
0.190638 -24.6109 71.3634 0 0 194
-0.233214 -26.1336 70.3979 0 0 238
-0.542885 -24.3743 68.768 0 0 149
-0.192051 -24.4983 70.051 0 0 149
-1.04418 -25.8422 67.8028 0 0 237
-0.971166 -24.1956 67.4853 0 0 193
-0.542885 -24.3743 68.768 0 0 193
0.772073 -26.7723 86.5192 0 0 132
0.722494 -25.1278 86.2839 0 0 132
0.890367 -37.4733 86.1455 0 0 128
0.875595 -36.0432 86.5272 0 0 128
0.026838 -41.7239 80.2904 0 0 140
-0.238393 -43.0665 80.9057 0 0 140
1.05936 -21.6442 83.9519 0 0 139
1.25679 -21.59 82.9785 0 0 139
1.16718 -23.3182 84.2835 0 0 202
1.05936 -21.6442 83.9519 0 0 170
0.865999 -21.7017 84.8976 0 0 170
-1.22157 -29.0838 68.4961 0 0 194
-1.14673 -27.4708 68.1348 0 0 194
-0.690746 -27.634 69.4469 0 0 237
-1.22157 -29.0838 68.4961 0 0 149
-1.32222 -30.6765 68.8872 0 0 149
0.758474 -29.997 86.9574 0 0 152
0.778421 -28.3981 86.7738 0 0 152
0.414359 -28.4509 87.4094 0 0 129
1.04424 -31.51 86.5516 0 0 129
0.758474 -29.997 86.9574 0 0 129
1.2096 -33.0555 86.0025 0 0 157
1.28789 -31.4897 85.7727 0 0 182
1.04424 -31.51 86.5516 0 0 157
0.616653 -40.3005 85.214 0 0 130
0.790088 -38.9233 85.6288 0 0 130
0.678209 -40.3528 84.2612 0 0 185
0.616653 -40.3005 85.214 0 0 159
0.340261 -41.6873 84.6819 0 0 159
-0.088997 -43.0631 82.0857 0 0 166
0.319085 -41.7467 82.6203 0 0 196
-0.006265 -43.056 83.1945 0 0 166
-0.238393 -43.0665 80.9057 0 0 139
-0.088997 -43.0631 82.0857 0 0 139
1.23884 -24.8008 76.5986 0 0 147
1.36065 -24.8103 77.8654 0 0 147
1.02351 -26.4036 75.6658 0 0 235
0.999945 -24.7694 75.2892 0 0 192
1.23884 -24.8008 76.5986 0 0 192
-0.587257 -34.0544 72.4409 0 0 192
-1.01812 -33.952 71.0982 0 0 192
-0.49499 -32.5098 71.9734 0 0 235
-0.673179 -35.5973 72.9111 0 0 192
-0.587257 -34.0544 72.4409 0 0 192
-0.150049 -34.1551 73.7863 0 0 235
-0.78475 -37.099 73.4403 0 0 148
-0.673179 -35.5973 72.9111 0 0 148
-0.358374 -37.1963 74.7829 0 0 188
0.129097 -35.7707 75.5825 0 0 229
0.006695 -37.269 76.1088 0 0 188
-0.78475 -37.099 73.4403 0 0 148
-0.358374 -37.1963 74.7829 0 0 148
1.53701 -24.8381 80.3297 0 0 145
1.50922 -24.828 79.1307 0 0 145
1.43751 -23.2332 82.2457 0 0 142
1.25679 -21.59 82.9785 0 0 142
1.58278 -24.8581 81.5148 0 0 178
1.43751 -23.2332 82.2457 0 0 178
1.50581 -24.8857 82.607 0 0 214
1.60532 -26.4906 80.691 0 0 223
1.53701 -24.8381 80.3297 0 0 184
1.58278 -24.8581 81.5148 0 0 184
0.475194 -24.678 72.6665 0 0 194
0.792763 -24.741 73.9895 0 0 194
0.467044 -26.3092 73.0334 0 0 237
0.475194 -24.678 72.6665 0 0 149
0.190638 -24.6109 71.3634 0 0 149
-1.36959 -23.9997 66.2407 0 0 149
-0.971166 -24.1956 67.4853 0 0 149
-1.91749 -25.4053 65.2828 0 0 149
-1.36959 -23.9997 66.2407 0 0 149
-1.57501 -27.292 66.852 0 0 192
-1.04418 -25.8422 67.8028 0 0 235
-1.14673 -27.4708 68.1348 0 0 192
-2.04695 -27.0564 65.5761 0 0 149
-1.57501 -27.292 66.852 0 0 149
-1.91749 -25.4053 65.2828 0 0 148
-2.04695 -27.0564 65.5761 0 0 148
-1.50305 -33.8114 69.7537 0 0 149
-1.01812 -33.952 71.0982 0 0 149
0.654486 -23.4693 85.9922 0 0 133
0.55582 -21.8008 85.7016 0 0 133
1.04183 -25.0342 85.5209 0 0 187
0.654486 -23.4693 85.9922 0 0 160
0.722494 -25.1278 86.2839 0 0 160
1.11619 -28.3184 86.0672 0 0 181
0.772073 -26.7723 86.5192 0 0 156
0.778421 -28.3981 86.7738 0 0 156
1.06055 -34.5709 86.3041 0 0 128
0.875595 -36.0432 86.5272 0 0 128
1.3042 -34.5505 85.5252 0 0 179
1.2096 -33.0555 86.0025 0 0 155
1.06055 -34.5709 86.3041 0 0 155
1.05488 -37.5159 85.31 0 0 179
0.890367 -37.4733 86.1455 0 0 155
0.790088 -38.9233 85.6288 0 0 155
0.268202 -40.3135 79.7556 0 0 177
0.477718 -40.3435 80.9767 0 0 212
0.026838 -41.7239 80.2904 0 0 177
0.018126 -40.2655 78.5019 0 0 179
0.469006 -38.8851 79.1883 0 0 216
0.268202 -40.3135 79.7556 0 0 179
-0.296598 -40.205 77.2077 0 0 144
0.018126 -40.2655 78.5019 0 0 144
3 0 12 10
3 0 14 12
3 38 16 39
3 1 19 17
3 1 40 42
3 42 41 19
3 40 41 42
3 1 43 44
3 45 22 46
3 45 46 47
3 49 48 22
3 2 50 52
3 50 24 51
3 50 51 52
3 4 25 11
3 4 26 25
3 4 27 26
3 5 53 55
3 55 54 13
3 53 54 55
3 5 56 57
3 6 28 15
3 6 29 28
3 3 58 59
3 7 60 62
3 62 61 18
3 60 61 62
3 7 63 64
3 7 65 67
3 65 30 66
3 65 66 67
3 68 31 69
3 8 32 20
3 8 33 32
3 70 34 71
3 9 35 21
3 9 36 35
3 9 37 36
3 73 72 23
3 10 11 2
3 12 11 10
3 12 4 11
3 12 13 4
3 14 13 12
3 14 5 13
3 74 15 75
3 16 76 78
3 76 15 77
3 76 77 78
3 16 6 15
3 17 18 3
3 19 18 17
3 19 7 18
3 19 79 81
3 81 80 7
3 79 80 81
3 83 82 19
3 84 20 85
3 84 85 86
3 87 20 88
3 89 8 90
3 91 90 20
3 89 90 91
3 92 21 93
3 22 94 96
3 94 21 95
3 94 95 96
3 22 9 21
3 22 23 9
3 97 23 98
3 99 98 22
3 97 98 99
3 101 100 23
3 24 102 103
3 24 104 106
3 104 3 105
3 104 105 106
3 11 24 2
3 25 24 11
3 25 3 24
3 25 17 3
3 26 17 25
3 26 1 17
3 26 107 109
3 109 108 1
3 107 108 109
3 27 110 112
3 112 111 26
3 110 111 112
3 27 113 114
3 13 27 4
3 115 27 116
3 117 116 13
3 115 116 117
3 119 118 27
3 120 2 121
3 15 122 123
3 28 124 126
3 126 125 15
3 124 125 126
3 28 127 129
3 127 2 128
3 127 128 129
3 28 10 2
3 29 10 28
3 29 0 10
3 18 130 132
3 132 131 3
3 130 131 132
3 134 133 18
3 30 135 136
3 30 137 138
3 139 30 140
3 141 140 7
3 139 140 141
3 142 30 143
3 145 144 30
3 147 146 1
3 148 16 149
3 31 150 152
3 150 16 151
3 150 151 152
3 31 6 16
3 20 153 155
3 153 31 154
3 153 154 155
3 32 31 20
3 32 6 31
3 32 29 6
3 33 29 32
3 33 0 29
3 34 156 157
3 34 158 160
3 158 8 159
3 158 159 160
3 21 161 163
3 161 34 162
3 161 162 163
3 35 34 21
3 35 8 34
3 35 33 8
3 36 33 35
3 36 0 33
3 36 14 0
3 37 14 36
3 37 5 14
3 23 37 9
3 164 37 165
3 166 165 23
3 164 165 166
3 167 5 168
3 169 168 37
3 167 168 169
3 171 170 5
