ply
format ascii 1.0
element vertex 228
property float x
property float y
property float z
property uchar red
property uchar green
property uchar blue
element face 224
property list uchar int vertex_index
end_header
70.5619 -40.4606 -26.6099 255 104 0
62.4464 -33.6112 -40.0361 174 255 81
67.0997 -37.5292 -33.6984 164 0 0
65.0527 -54.2934 -28.1896 176 255 79
70.5225 -32.5498 -28.9982 255 138 0
69.2039 -30.58 -32.7637 230 0 0
69.1545 -39.027 -30.2381 232 0 0
62.6281 -53.1654 -30.8623 171 255 84
64.8236 -26.8583 -40.4454 231 255 24
62.2125 -24.8001 -43.9416 0 198 255
67.175 -28.7436 -36.6083 128 0 0
64.8167 -35.748 -37.0036 185 0 0
70.9375 -42.132 -22.8216 0 22 255
68.4365 -47.19 -27.7245 180 255 75
66.3655 -46.1517 -31.0105 205 0 0
63.9864 -44.625 -33.8684 219 0 0
61.5476 -42.5372 -36.3708 172 255 83
70.9221 -37.4684 -25.9501 59 255 196
70.7717 -33.6368 -27.1342 49 255 206
70.63 -36.5314 -27.8064 255 124 0
70.0606 -35.658 -29.6463 255 48 0
69.9678 -39.7331 -28.4462 255 38 0
63.7534 -30.2643 -40.3863 206 0 0
63.5597 -25.8538 -42.2673 202 255 53
62.5001 -29.1748 -41.968 178 255 77
68.3003 -33.9873 -33.2939 174 0 0
68.2484 -29.6569 -34.6768 165 0 0
67.2322 -33.1342 -35.1087 144 0 0
66.1067 -32.2387 -36.9119 142 0 0
65.9689 -36.6819 -35.3728 164 0 0
66.866 -50.7425 -28.0642 186 255 69
67.4621 -46.7164 -29.4246 213 0 0
65.7827 -50.2969 -29.6386 224 0 0
61.3225 -52.3253 -31.9754 56 255 199
63.3629 -48.9555 -32.3652 233 0 0
62.0988 -48.0343 -33.5512 255 217 0
62.7695 -43.6466 -35.1621 235 0 0
60.8276 -46.9589 -34.6441 57 255 198
70.4568 -29.7744 -28.3288 0 209 255
70.2468 -28.5456 -30.231 80 255 175
69.7324 -27.4074 -32.1663 133 255 122
69.9826 -31.537 -30.8723 255 57 0
69.2634 -34.8197 -31.4738 230 0 0
68.1785 -38.3032 -31.9874 187 0 0
63.0363 -57.7719 -28.0826 0 189 255
63.8836 -53.8189 -29.6085 255 221 0
68.9631 -26.3496 -34.142 187 255 68
67.998 -25.3539 -36.1586 231 255 24
66.8924 -24.3968 -38.2059 118 255 137
66.027 -27.8172 -38.5421 255 132 0
64.9478 -31.2851 -38.6834 165 0 0
63.6486 -34.7235 -38.57 219 0 0
70.8932 -41.2492 -24.7324 0 229 255
70.3067 -44.3145 -25.3588 6 255 249
69.6991 -43.7297 -27.2194 255 251 0
68.8804 -43.1614 -29.0066 233 0 0
67.8979 -42.5598 -30.7152 200 0 0
66.8056 -41.8833 -32.3473 184 0 0
64.6017 -49.709 -31.0677 227 0 0
65.1935 -45.4602 -32.4879 208 0 0
65.6545 -41.1041 -33.909 187 0 0
64.4815 -40.2088 -35.4046 204 0 0
63.3018 -39.1969 -36.8298 229 0 0
62.1074 -38.0766 -38.1674 171 255 84
61.8119 -33.0153 -40.6952 0 0 172
61.8387 -30.7971 -41.6611 0 0 172
62.4732 -31.393 -41.002 0 0 209
65.5767 -54.4571 -27.3925 0 0 138
64.6105 -56.212 -27.4144 0 0 138
65.9593 -52.518 -28.1269 0 0 216
66.4833 -52.6816 -27.3298 0 0 177
65.5767 -54.4571 -27.3925 0 0 177
61.0474 -49.6722 -33.2649 0 0 176
61.7107 -50.1798 -32.7633 0 0 215
60.6593 -51.8177 -32.477 0 0 176
60.4118 -49.1346 -33.8113 0 0 178
61.4632 -47.4966 -34.0976 0 0 217
61.0474 -49.6722 -33.2649 0 0 178
61.9406 -59.4573 -27.9249 0 0 136
62.546 -59.6684 -27.2818 0 0 136
62.4124 -57.5014 -28.7081 0 0 137
61.9406 -59.4573 -27.9249 0 0 137
64.6107 -24.679 -41.3591 0 0 144
65.2549 -25.1556 -40.352 0 0 144
62.6183 -23.1612 -44.0643 0 0 177
63.2919 -23.6881 -43.2271 0 0 177
62.8861 -25.327 -43.1044 0 0 216
61.8803 -22.6591 -44.9331 0 0 140
62.6183 -23.1612 -44.0643 0 0 140
61.4829 -24.2525 -44.6684 0 0 135
61.8803 -22.6591 -44.9331 0 0 135
70.9227 -40.3119 -23.4491 0 0 128
70.7602 -40.8732 -22.5045 0 0 128
70.9154 -41.6906 -23.777 0 0 189
70.9005 -39.8705 -24.4045 0 0 159
70.9227 -40.3119 -23.4491 0 0 159
70.0793 -46.197 -24.6841 0 0 133
70.4879 -44.6404 -24.3983 0 0 133
68.8406 -47.4071 -26.8194 0 0 138
68.1248 -49.1405 -27.0341 0 0 138
69.0678 -45.4598 -27.4719 0 0 214
69.4719 -45.6769 -26.5669 0 0 176
68.8406 -47.4071 -26.8194 0 0 176
70.8469 -35.5526 -26.5422 0 0 187
70.7357 -34.2232 -26.2035 0 0 158
70.8109 -36.139 -25.6115 0 0 158
61.8273 -28.5989 -42.6671 0 0 172
61.6835 -26.4115 -43.654 0 0 172
62.3563 -26.9874 -42.9548 0 0 208
61.8273 -28.5989 -42.6671 0 0 137
61.8387 -30.7971 -41.6611 0 0 137
70.8142 -42.6301 -21.8546 0 0 128
70.7602 -40.8732 -22.5045 0 0 128
67.3396 -50.9168 -27.204 0 0 139
66.4833 -52.6816 -27.3298 0 0 139
67.6512 -48.9663 -27.8943 0 0 217
68.1248 -49.1405 -27.0341 0 0 178
67.3396 -50.9168 -27.204 0 0 178
70.5526 -32.3662 -26.7919 0 0 128
70.7357 -34.2232 -26.2035 0 0 128
70.3951 -30.4351 -27.3892 0 0 158
70.5526 -32.3662 -26.7919 0 0 158
70.6143 -31.7056 -27.7315 0 0 188
70.1431 -28.5703 -27.9856 0 0 128
70.3951 -30.4351 -27.3892 0 0 128
70.2232 -27.8404 -28.9492 0 0 159
69.9095 -26.6363 -28.6059 0 0 129
70.1431 -28.5703 -27.9856 0 0 159
70.1182 -27.226 -29.9003 0 0 159
70.2232 -27.8404 -28.9492 0 0 159
70.3518 -29.16 -29.2799 0 0 189
70.0264 -26.5481 -30.8834 0 0 130
70.1182 -27.226 -29.9003 0 0 130
69.9896 -27.9765 -31.1987 0 0 198
69.7691 -25.9791 -31.8511 0 0 165
70.0264 -26.5481 -30.8834 0 0 165
63.6023 -57.9512 -27.3609 0 0 137
62.546 -59.6684 -27.2818 0 0 137
64.0445 -56.0327 -28.1361 0 0 213
64.6105 -56.212 -27.4144 0 0 175
63.6023 -57.9512 -27.3609 0 0 175
62.836 -55.5249 -29.4711 0 0 175
63.4599 -55.7954 -28.8456 0 0 212
62.4124 -57.5014 -28.7081 0 0 175
62.2083 -55.1982 -30.0979 0 0 176
63.2558 -53.4921 -30.2354 0 0 215
62.836 -55.5249 -29.4711 0 0 176
61.5441 -54.8291 -30.6387 0 0 137
62.2083 -55.1982 -30.0979 0 0 137
60.8913 -54.409 -31.1953 0 0 177
61.9753 -52.7453 -31.4188 0 0 216
61.5441 -54.8291 -30.6387 0 0 177
60.205 -53.9447 -31.6696 0 0 138
60.8913 -54.409 -31.1953 0 0 138
60.6593 -51.8177 -32.477 0 0 138
60.205 -53.9447 -31.6696 0 0 138
63.9788 -24.1768 -42.2701 0 0 182
64.6107 -24.679 -41.3591 0 0 182
64.1917 -26.3561 -41.3563 0 0 223
63.9788 -24.1768 -42.2701 0 0 143
63.2919 -23.6881 -43.2271 0 0 143
61.4829 -24.2525 -44.6684 0 0 137
61.6835 -26.4115 -43.654 0 0 137
69.5172 -25.3563 -32.8587 0 0 133
69.7691 -25.9791 -31.8511 0 0 133
69.1326 -24.8274 -33.8466 0 0 172
69.5172 -25.3563 -32.8587 0 0 172
69.3477 -26.8785 -33.1541 0 0 209
68.7427 -24.2571 -34.881 0 0 137
69.1326 -24.8274 -33.8466 0 0 137
68.2602 -23.7593 -35.8893 0 0 179
68.7427 -24.2571 -34.881 0 0 179
68.4806 -25.8518 -35.1503 0 0 219
67.7596 -23.2331 -36.9483 0 0 141
68.2602 -23.7593 -35.8893 0 0 141
67.2067 -22.7546 -37.9719 0 0 184
67.7596 -23.2331 -36.9483 0 0 184
67.4452 -24.8754 -37.1823 0 0 227
66.6214 -22.2605 -39.0469 0 0 144
67.2067 -22.7546 -37.9719 0 0 144
66.2893 -23.9249 -39.2323 0 0 143
66.6214 -22.2605 -39.0469 0 0 143
65.8566 -25.6351 -39.4004 0 0 190
66.2893 -23.9249 -39.2323 0 0 190
66.4597 -26.107 -38.374 0 0 236
65.4253 -27.3378 -39.4938 0 0 228
65.2549 -25.1556 -40.352 0 0 185
65.8566 -25.6351 -39.4004 0 0 185
70.915 -37.9801 -25.0134 0 0 128
70.8109 -36.139 -25.6115 0 0 128
70.9077 -39.3588 -25.3413 0 0 188
70.915 -37.9801 -25.0134 0 0 159
70.9005 -39.8705 -24.4045 0 0 159
70.853 -43.9287 -22.1477 0 0 157
70.8142 -42.6301 -21.8546 0 0 157
70.7297 -44.4269 -21.1808 0 0 128
70.8033 -43.5491 -23.1297 0 0 130
70.853 -43.9287 -22.1477 0 0 130
70.7812 -43.1077 -24.0851 0 0 160
70.9154 -41.6906 -23.777 0 0 191
70.8033 -43.5491 -23.1297 0 0 160
70.5999 -42.7819 -25.0456 0 0 199
70.7812 -43.1077 -24.0851 0 0 166
70.4879 -44.6404 -24.3983 0 0 166
69.7756 -45.9694 -25.6366 0 0 136
70.0793 -46.197 -24.6841 0 0 136
70.0029 -44.0221 -26.2891 0 0 209
69.7756 -45.9694 -25.6366 0 0 172
69.4719 -45.6769 -26.5669 0 0 172
59.7458 -48.5513 -34.2714 0 0 138
60.4118 -49.1346 -33.8113 0 0 138
60.1886 -46.3553 -35.1488 0 0 138
59.7458 -48.5513 -34.2714 0 0 138
60.5487 -44.1444 -36.0121 0 0 176
61.1876 -44.7481 -35.5074 0 0 214
60.1886 -46.3553 -35.1488 0 0 176
60.9272 -41.926 -36.9274 0 0 138
60.5487 -44.1444 -36.0121 0 0 138
61.207 -39.6957 -37.8257 0 0 174
61.8275 -40.3069 -37.2691 0 0 212
60.9272 -41.926 -36.9274 0 0 174
61.49 -37.4686 -38.7774 0 0 138
61.207 -39.6957 -37.8257 0 0 138
61.6594 -35.236 -39.7118 0 0 173
62.2769 -35.8439 -39.1018 0 0 210
61.49 -37.4686 -38.7774 0 0 173
61.8119 -33.0153 -40.6952 0 0 137
61.6594 -35.236 -39.7118 0 0 137
3 0 19 17
3 0 21 19
3 1 24 22
3 1 64 66
3 66 65 24
3 64 65 66
3 2 27 25
3 2 29 27
3 3 67 68
3 3 69 71
3 69 30 70
3 69 70 71
3 3 32 30
3 72 35 73
3 74 73 33
3 72 73 74
3 75 37 76
3 77 76 35
3 75 76 77
3 4 38 18
3 4 39 38
3 4 41 39
3 6 42 20
3 6 43 42
3 78 44 79
3 81 80 44
3 8 82 83
3 9 84 86
3 86 85 23
3 84 85 86
3 9 87 88
3 9 89 90
3 5 46 40
3 10 47 26
3 10 48 47
3 10 49 48
3 11 50 28
3 11 51 50
3 12 91 92
3 12 93 95
3 93 52 94
3 93 94 95
3 96 53 97
3 13 98 99
3 13 100 102
3 100 54 101
3 100 101 102
3 13 55 54
3 14 56 31
3 14 57 56
3 7 58 45
3 15 59 34
3 15 60 59
3 15 61 60
3 16 62 36
3 16 63 62
3 17 103 105
3 103 18 104
3 103 104 105
3 19 18 17
3 19 4 18
3 19 20 4
3 21 20 19
3 21 6 20
3 22 23 8
3 24 23 22
3 24 9 23
3 24 106 108
3 108 107 9
3 106 107 108
3 110 109 24
3 25 26 5
3 27 26 25
3 27 10 26
3 27 28 10
3 29 28 27
3 29 11 28
3 111 12 112
3 30 113 114
3 30 115 117
3 115 13 116
3 115 116 117
3 30 31 13
3 32 31 30
3 32 14 31
3 33 34 7
3 35 34 33
3 35 15 34
3 35 36 15
3 37 36 35
3 37 16 36
3 18 118 119
3 38 120 122
3 122 121 18
3 120 121 122
3 38 123 124
3 38 125 127
3 125 126 127
3 39 128 130
3 130 129 38
3 128 129 130
3 39 131 132
3 39 133 135
3 133 40 134
3 133 134 135
3 41 40 39
3 41 5 40
3 20 41 4
3 42 41 20
3 42 5 41
3 42 25 5
3 43 25 42
3 43 2 25
3 44 136 137
3 44 138 140
3 138 3 139
3 138 139 140
3 44 45 3
3 141 45 142
3 143 142 44
3 141 142 143
3 144 7 145
3 146 145 45
3 144 145 146
3 147 7 148
3 149 33 150
3 151 150 7
3 149 150 151
3 152 33 153
3 155 154 33
3 23 156 158
3 158 157 8
3 156 157 158
3 160 159 23
3 162 161 9
3 40 163 164
3 46 165 167
3 167 166 40
3 165 166 167
3 46 168 169
3 26 46 5
3 47 46 26
3 47 170 172
3 172 171 46
3 170 171 172
3 47 173 174
3 48 175 177
3 177 176 47
3 175 176 177
3 48 178 179
3 48 180 181
3 49 182 184
3 184 183 48
3 182 183 184
3 49 185 187
3 185 8 186
3 185 186 187
3 28 49 10
3 50 49 28
3 50 8 49
3 50 22 8
3 51 22 50
3 51 1 22
3 188 17 189
3 52 190 192
3 190 17 191
3 190 191 192
3 52 0 17
3 193 12 194
3 193 194 195
3 196 12 197
3 198 52 199
3 200 199 12
3 198 199 200
3 53 201 203
3 201 52 202
3 201 202 203
3 53 0 52
3 204 53 205
3 54 206 208
3 206 53 207
3 206 207 208
3 54 0 53
3 54 21 0
3 55 21 54
3 55 6 21
3 31 55 13
3 56 55 31
3 56 6 55
3 56 43 6
3 57 43 56
3 57 2 43
3 45 32 3
3 58 32 45
3 58 14 32
3 34 58 7
3 59 58 34
3 59 14 58
3 59 57 14
3 60 57 59
3 60 2 57
3 60 29 2
3 61 29 60
3 61 11 29
3 36 61 15
3 62 61 36
3 62 11 61
3 62 51 11
3 63 51 62
3 63 1 51
3 209 37 210
3 211 37 212
3 213 16 214
3 215 214 37
3 213 214 215
3 216 16 217
3 218 63 219
3 220 219 16
3 218 219 220
3 221 63 222
3 223 1 224
3 225 224 63
3 223 224 225
3 227 226 1
