ply
format ascii 1.0
element vertex 144
property float x
property float y
property float z
property uchar red
property uchar green
property uchar blue
element face 132
property list uchar int vertex_index
end_header
66.3578 -52.0664 24.4459 216 0 0
69.4291 -46.9971 17.59 61 255 194
68.8463 -48.8899 22.9205 255 132 0
66.8591 -50.2093 19.1961 224 0 0
63.3433 -55.4321 26.1636 92 255 163
63.5636 -53.6141 21.0047 151 0 0
63.6256 -51.3815 16.057 128 0 0
69.9042 -46.5313 19.5622 0 182 255
67.3442 -51.1656 26.3858 162 255 93
68.4607 -49.6005 25.6748 205 255 50
67.7268 -50.4485 23.6483 255 31 0
68.0452 -49.5824 20.9725 255 51 0
66.6405 -51.2044 21.7909 223 0 0
61.9183 -55.3719 21.9141 102 255 153
61.9183 -54.326 19.431 235 255 20
63.6211 -52.5429 18.5058 139 0 0
61.8936 -53.1951 16.9979 240 255 15
61.8273 -51.997 14.6112 112 255 143
66.0183 -52.7897 27.1599 196 255 59
68.4606 -47.4361 15.7952 21 255 234
68.8399 -48.6418 27.8566 0 139 255
69.2449 -48.1097 25.0369 59 255 196
69.5981 -47.4058 22.2718 32 255 223
69.1704 -48.0196 20.2267 255 163 0
68.2933 -48.5738 18.3567 255 61 0
67.002 -49.0934 16.657 255 202 0
64.6015 -54.4594 27.9772 87 255 168
64.861 -53.7308 25.2933 181 0 0
63.4679 -54.5802 23.5576 255 160 0
65.077 -52.8731 22.6618 177 0 0
65.2441 -51.8919 20.0882 170 0 0
65.3505 -50.7978 17.5702 158 0 0
65.3813 -49.6076 15.1019 236 255 19
63.5607 -50.1506 13.653 120 255 135
69.8949 -46.2714 20.6305 0 0 129
70.0314 -45.8323 19.2692 0 0 129
61.0966 -54.6873 18.6615 0 0 145
61.1228 -55.236 19.873 0 0 145
61.0843 -54.1219 17.445 0 0 189
61.906 -53.7606 18.2145 0 0 231
61.0966 -54.6873 18.6615 0 0 189
61.0529 -53.5401 16.2575 0 0 145
61.0843 -54.1219 17.445 0 0 145
65.8208 -53.0818 28.5401 0 0 143
66.4586 -52.2617 28.1688 0 0 143
69.5209 -46.4167 16.298 0 0 131
69.795 -46.2457 17.2478 0 0 131
68.9448 -47.2166 16.6926 0 0 204
69.0367 -46.6362 15.4006 0 0 170
69.5209 -46.4167 16.298 0 0 170
68.4261 -49.3964 28.1715 0 0 139
68.6061 -48.8251 29.2888 0 0 139
63.9724 -54.9458 27.0704 0 0 226
63.8958 -55.3116 28.3954 0 0 185
63.2668 -55.7979 27.4886 0 0 185
61.7651 -51.3767 13.4391 0 0 146
60.9738 -52.3365 13.8999 0 0 146
70.0325 -46.0128 18.2339 0 0 128
70.0314 -45.8323 19.2692 0 0 128
69.6666 -46.7642 18.5761 0 0 189
69.795 -46.2457 17.2478 0 0 160
70.0325 -46.0128 18.2339 0 0 160
67.9024 -50.383 26.0303 0 0 215
68.2365 -49.8757 27.0806 0 0 178
67.6783 -50.6583 27.4361 0 0 178
62.6147 -56.2981 26.5963 0 0 145
63.2668 -55.7979 27.4886 0 0 145
61.1228 -55.7589 21.1145 0 0 187
61.152 -56.2677 22.3503 0 0 187
60.3565 -56.6547 21.5508 0 0 145
61.9183 -54.849 20.6725 0 0 231
61.1228 -55.7589 21.1145 0 0 188
61.1228 -55.236 19.873 0 0 188
61.0197 -52.9411 15.0641 0 0 188
61.8604 -52.5961 15.8045 0 0 231
61.0529 -53.5401 16.2575 0 0 188
60.9738 -52.3365 13.8999 0 0 145
61.0197 -52.9411 15.0641 0 0 145
67.1216 -51.4496 27.7818 0 0 141
67.6783 -50.6583 27.4361 0 0 141
66.6813 -51.9776 26.7729 0 0 224
67.1216 -51.4496 27.7818 0 0 184
66.4586 -52.2617 28.1688 0 0 184
68.4971 -46.812 14.5393 0 0 137
69.0367 -46.6362 15.4006 0 0 137
67.7578 -47.6555 14.9811 0 0 142
68.4971 -46.812 14.5393 0 0 142
68.8687 -48.0983 29.0012 0 0 135
68.6061 -48.8251 29.2888 0 0 135
69.0532 -47.931 27.5719 0 0 165
69.0821 -47.3876 28.7165 0 0 134
68.8687 -48.0983 29.0012 0 0 165
68.6503 -49.1211 26.7657 0 0 204
68.4261 -49.3964 28.1715 0 0 170
68.2365 -49.8757 27.0806 0 0 170
69.2558 -47.665 26.162 0 0 162
69.0532 -47.931 27.5719 0 0 162
69.0424 -48.3757 26.4467 0 0 191
69.4178 -47.4087 24.7531 0 0 132
69.2558 -47.665 26.162 0 0 132
69.5944 -47.0567 23.3705 0 0 158
69.4178 -47.4087 24.7531 0 0 158
69.4215 -47.7577 23.6543 0 0 185
69.7419 -46.7086 21.9853 0 0 130
69.5944 -47.0567 23.3705 0 0 130
69.7511 -46.9685 20.917 0 0 179
69.8949 -46.2714 20.6305 0 0 154
69.7419 -46.7086 21.9853 0 0 154
67.0285 -48.4842 15.412 0 0 180
67.7578 -47.6555 14.9811 0 0 180
67.7313 -48.2647 16.2261 0 0 218
64.4486 -54.7583 29.3368 0 0 187
63.743 -55.6104 29.7549 0 0 145
63.8958 -55.3116 28.3954 0 0 187
65.1124 -53.9167 28.9487 0 0 144
64.4486 -54.7583 29.3368 0 0 144
65.3099 -53.6246 27.5686 0 0 228
65.8208 -53.0818 28.5401 0 0 187
65.1124 -53.9167 28.9487 0 0 187
62.6248 -55.8764 25.3058 0 0 145
62.6147 -56.2981 26.5963 0 0 145
61.9123 -55.8463 23.181 0 0 146
61.152 -56.2677 22.3503 0 0 146
62.6871 -55.4505 24.0028 0 0 187
61.9123 -55.8463 23.181 0 0 187
62.6931 -54.9761 22.7358 0 0 229
63.4056 -55.0062 24.8606 0 0 231
62.6248 -55.8764 25.3058 0 0 188
62.6871 -55.4505 24.0028 0 0 188
66.2181 -48.7413 14.6345 0 0 188
67.0285 -48.4842 15.412 0 0 188
66.1917 -49.3505 15.8795 0 0 230
65.3511 -48.9759 13.8899 0 0 146
66.2181 -48.7413 14.6345 0 0 146
64.4408 -49.2474 13.1654 0 0 192
65.3511 -48.9759 13.8899 0 0 192
64.471 -49.8791 14.3775 0 0 236
63.4864 -49.5138 12.4714 0 0 148
64.4408 -49.2474 13.1654 0 0 148
62.6319 -50.4535 12.96 0 0 191
62.694 -51.0738 14.1321 0 0 234
61.7651 -51.3767 13.4391 0 0 191
63.4864 -49.5138 12.4714 0 0 148
62.6319 -50.4535 12.96 0 0 148
3 34 7 35
3 0 10 8
3 0 12 10
3 36 14 37
3 38 16 39
3 40 39 14
3 38 39 40
3 42 41 16
3 43 18 44
3 1 45 46
3 1 47 49
3 47 19 48
3 47 48 49
3 50 20 51
3 2 21 9
3 2 22 21
3 2 23 22
3 3 24 11
3 3 25 24
3 4 52 54
3 52 26 53
3 52 53 54
3 4 27 26
3 5 28 13
3 5 29 28
3 5 30 29
3 6 31 15
3 6 32 31
3 6 33 32
3 56 55 17
3 7 57 58
3 7 59 61
3 59 1 60
3 59 60 61
3 8 62 64
3 62 9 63
3 62 63 64
3 10 9 8
3 10 2 9
3 10 11 2
3 12 11 10
3 12 3 11
3 65 4 66
3 67 13 68
3 67 68 69
3 14 70 72
3 70 13 71
3 70 71 72
3 14 5 13
3 14 15 5
3 16 15 14
3 16 6 15
3 16 17 6
3 73 17 74
3 75 74 16
3 73 74 75
3 77 76 17
3 78 8 79
3 18 80 82
3 80 8 81
3 80 81 82
3 18 0 8
3 19 83 84
3 19 85 86
3 20 87 88
3 20 89 91
3 89 90 91
3 9 92 94
3 92 20 93
3 92 93 94
3 21 20 9
3 21 95 97
3 97 96 20
3 95 96 97
3 21 98 99
3 22 100 102
3 102 101 21
3 100 101 102
3 22 103 104
3 22 105 107
3 105 7 106
3 105 106 107
3 23 7 22
3 23 1 7
3 11 23 2
3 24 23 11
3 24 1 23
3 24 19 1
3 25 19 24
3 25 108 110
3 110 109 19
3 108 109 110
3 26 111 113
3 111 112 113
3 26 114 115
3 26 116 118
3 116 18 117
3 116 117 118
3 27 18 26
3 27 0 18
3 119 4 120
3 13 121 122
3 28 123 125
3 125 124 13
3 123 124 125
3 28 126 128
3 126 4 127
3 126 127 128
3 28 27 4
3 29 27 28
3 29 0 27
3 29 12 0
3 30 12 29
3 30 3 12
3 15 30 5
3 31 30 15
3 31 3 30
3 31 25 3
3 32 25 31
3 32 129 131
3 131 130 25
3 129 130 131
3 32 132 133
3 33 134 136
3 136 135 32
3 134 135 136
3 33 137 138
3 17 33 6
3 139 33 140
3 141 140 17
3 139 140 141
3 143 142 33
