ply
format ascii 1.0
element vertex 181
property float x
property float y
property float z
property uchar red
property uchar green
property uchar blue
element face 156
property list uchar int vertex_index
end_header
9.29856 29.7379 4.37495 255 135 0
8.72223 25.1306 -5.84715 60 255 195
9.19074 27.7655 -0.952347 226 255 29
8.96245 30.7865 9.98551 237 255 18
7.45987 31.7714 -9.74674 31 255 224
8.04227 34.8635 -5.13533 197 255 58
8.29771 37.1888 0.061659 255 161 0
8.05615 38.5424 5.69775 164 0 0
7.28043 38.7939 11.5812 255 184 0
9.29628 28.8554 1.6659 238 255 17
8.22436 36.1352 -2.60214 213 255 42
7.40738 42.1374 3.39467 212 255 43
7.11663 42.4848 6.35058 208 255 47
7.73202 38.8093 8.62113 175 0 0
6.69136 42.5384 9.36161 200 255 55
5.50967 41.7693 15.4549 0 196 255
4.80608 40.9631 18.4988 0 69 255
8.99407 26.5071 -3.46219 206 255 49
9.189 30.3867 7.15523 128 0 0
9.58477 25.7684 6.34707 117 255 138
9.46956 26.349 9.12906 116 255 139
7.81257 27.0054 -9.85849 0 157 255
8.15577 28.5899 -7.72706 255 240 0
7.77695 33.4019 -7.5216 171 255 84
8.45987 30.0738 -5.42963 216 0 0
8.69605 31.422 -2.98516 178 0 0
8.84028 32.5952 -0.410376 155 0 0
8.87441 33.5578 2.27655 143 0 0
7.55689 41.5035 0.519646 87 255 168
8.24464 37.9981 2.83612 161 0 0
8.78658 34.2817 5.05464 142 0 0
8.57118 34.7485 7.90057 149 0 0
8.22887 34.9484 10.7902 222 255 33
6.14777 42.298 12.4034 190 255 65
6.71727 38.4979 14.5554 69 255 186
9.44954 27.348 3.99659 0 0 184
9.4484 26.9068 2.64207 0 0 184
9.29742 29.2967 3.02042 0 0 227
6.55667 44.2875 6.70609 0 0 137
6.74892 44.2181 5.17712 0 0 137
6.34404 44.3143 8.21161 0 0 177
6.904 42.5116 7.85609 0 0 217
6.55667 44.2875 6.70609 0 0 177
4.14546 42.313 19.0379 0 0 134
4.50352 42.8303 17.4717 0 0 134
4.4373 40.4286 20.01 0 0 133
4.14546 42.313 19.0379 0 0 133
8.78277 22.6138 -6.15073 0 0 134
8.55864 24.4139 -6.96811 0 0 134
9.27892 25.2587 -1.28404 0 0 180
9.18059 24.6295 -2.53897 0 0 180
9.0924 27.1363 -2.20727 0 0 222
7.63622 29.3884 -9.80261 0 0 201
7.46889 28.4892 -10.8272 0 0 166
7.29255 30.8722 -10.7714 0 0 166
7.90961 34.1327 -6.32846 0 0 215
7.51426 35.73 -7.45683 0 0 175
7.64691 36.4608 -6.26369 0 0 175
7.09226 43.5067 0.76979 0 0 137
7.14523 43.1395 -0.672812 0 0 137
7.52364 36.8366 12.6408 0 0 179
7.99786 34.9138 12.2453 0 0 179
7.75465 36.8712 11.1857 0 0 220
5.51377 43.877 12.8533 0 0 136
5.81807 44.1108 11.2862 0 0 136
6.39118 38.2129 16.04 0 0 174
6.11347 40.1336 15.0052 0 0 214
5.78738 39.8486 16.4898 0 0 174
6.95814 36.5209 15.5829 0 0 136
6.39118 38.2129 16.04 0 0 136
9.67949 23.3575 5.89701 0 0 141
9.6708 23.728 7.26994 0 0 141
9.41067 26.3979 1.31245 0 0 182
9.3579 25.8529 0.003332 0 0 182
9.24351 28.3105 0.356775 0 0 226
9.41067 26.3979 1.31245 0 0 140
9.4484 26.9068 2.64207 0 0 140
9.10501 28.7379 10.9658 0 0 139
8.79016 30.8587 11.4147 0 0 139
7.06796 33.2175 -10.8302 0 0 132
7.29255 30.8722 -10.7714 0 0 132
7.7507 37.1528 -5.01396 0 0 136
7.64691 36.4608 -6.26369 0 0 136
7.84174 37.7886 -3.74737 0 0 178
8.13331 35.4993 -3.86873 0 0 219
7.7507 37.1528 -5.01396 0 0 178
7.89677 38.3666 -2.42599 0 0 137
7.84174 37.7886 -3.74737 0 0 137
7.93344 38.8935 -1.09409 0 0 179
8.26104 36.662 -1.27024 0 0 221
7.89677 38.3666 -2.42599 0 0 179
6.89429 44.0444 3.69917 0 0 137
7.0175 43.8236 2.2073 0 0 137
7.262 42.3111 4.87262 0 0 218
6.89429 44.0444 3.69917 0 0 177
6.74892 44.2181 5.17712 0 0 177
4.85532 43.2334 15.9497 0 0 174
5.19472 43.6127 14.3791 0 0 174
4.54037 45.0768 14.8739 0 0 135
5.15787 41.3662 16.9769 0 0 210
4.85532 43.2334 15.9497 0 0 172
4.50352 42.8303 17.4717 0 0 172
5.43558 39.4455 18.0117 0 0 174
5.78738 39.8486 16.4898 0 0 174
5.15787 41.3662 16.9769 0 0 213
5.07876 39.0287 19.4861 0 0 134
5.43558 39.4455 18.0117 0 0 134
4.70999 38.4942 20.9972 0 0 134
5.07876 39.0287 19.4861 0 0 172
4.4373 40.4286 20.01 0 0 172
9.06514 23.977 -3.77704 0 0 177
8.92921 23.2888 -4.96952 0 0 177
8.85815 25.8188 -4.65467 0 0 217
9.06514 23.977 -3.77704 0 0 138
9.18059 24.6295 -2.53897 0 0 138
9.27892 25.2587 -1.28404 0 0 139
9.3579 25.8529 0.003332 0 0 139
9.61319 24.0183 8.66093 0 0 185
9.6708 23.728 7.26994 0 0 185
9.52717 26.0587 7.73807 0 0 229
9.35856 26.5191 10.5375 0 0 183
9.21601 28.5677 9.55729 0 0 227
9.10501 28.7379 10.9658 0 0 183
9.5605 24.2759 10.0529 0 0 184
9.35856 26.5191 10.5375 0 0 184
9.4495 24.446 11.4614 0 0 140
9.61319 24.0183 8.66093 0 0 140
9.5605 24.2759 10.0529 0 0 140
7.63758 26.1706 -10.8271 0 0 129
7.46889 28.4892 -10.8272 0 0 129
7.92424 24.6413 -10.0101 0 0 128
7.63758 26.1706 -10.8271 0 0 128
8.10381 25.3513 -8.97377 0 0 130
7.92424 24.6413 -10.0101 0 0 130
8.27541 26.1435 -7.90806 0 0 168
8.10381 25.3513 -8.97377 0 0 168
7.98416 27.7976 -8.79277 0 0 204
8.439 26.8602 -6.78711 0 0 210
8.55864 24.4139 -6.96811 0 0 172
8.27541 26.1435 -7.90806 0 0 172
7.21929 34.1179 -9.74124 0 0 133
7.06796 33.2175 -10.8302 0 0 133
7.37783 34.9331 -8.62868 0 0 174
7.11513 37.2612 -8.5639 0 0 135
7.51426 35.73 -7.45683 0 0 174
7.61841 32.5867 -8.63417 0 0 211
7.21929 34.1179 -9.74124 0 0 172
7.37783 34.9331 -8.62868 0 0 172
7.56303 41.0508 -0.865099 0 0 137
7.14523 43.1395 -0.672812 0 0 137
7.9273 39.3462 0.290653 0 0 221
7.93344 38.8935 -1.09409 0 0 179
7.56303 41.0508 -0.865099 0 0 179
7.48213 41.8205 1.95716 0 0 219
7.09226 43.5067 0.76979 0 0 178
7.0175 43.8236 2.2073 0 0 178
8.42338 32.9397 11.8171 0 0 181
8.79016 30.8587 11.4147 0 0 181
8.59566 32.8675 10.3879 0 0 224
8.42338 32.9397 11.8171 0 0 138
7.99786 34.9138 12.2453 0 0 138
6.08986 44.231 9.76532 0 0 136
6.34404 44.3143 8.21161 0 0 136
6.41957 42.4182 10.8825 0 0 215
6.08986 44.231 9.76532 0 0 176
5.81807 44.1108 11.2862 0 0 176
5.82872 42.0336 13.9292 0 0 213
5.51377 43.877 12.8533 0 0 174
5.19472 43.6127 14.3791 0 0 174
7.24206 36.6886 14.1279 0 0 178
7.52364 36.8366 12.6408 0 0 178
6.99885 38.6459 13.0683 0 0 220
7.24206 36.6886 14.1279 0 0 136
6.95814 36.5209 15.5829 0 0 136
8.78277 22.6138 -6.15073 0 0 136
8.92921 23.2888 -4.96952 0 0 136
9.59265 25.3632 4.98266 0 0 185
9.44954 27.348 3.99659 0 0 185
9.44167 27.7532 5.36101 0 0 229
9.59265 25.3632 4.98266 0 0 140
9.67949 23.3575 5.89701 0 0 140
3 0 35 37
3 37 36 9
3 35 36 37
3 38 12 39
3 40 14 41
3 42 41 12
3 40 41 42
3 43 16 44
3 46 45 16
3 1 47 48
3 2 49 51
3 51 50 17
3 49 50 51
3 3 20 18
3 4 52 54
3 52 21 53
3 52 53 54
3 4 22 21
3 5 55 57
3 55 23 56
3 55 56 57
3 5 24 23
3 5 25 24
3 6 26 10
3 6 27 26
3 58 28 59
3 7 29 11
3 7 30 29
3 7 31 30
3 8 32 13
3 8 60 62
3 62 61 32
3 60 61 62
3 63 33 64
3 65 34 66
3 67 66 15
3 65 66 67
3 69 68 34
3 71 70 19
3 9 72 74
3 74 73 2
3 72 73 74
3 76 75 9
3 78 77 3
3 79 4 80
3 81 5 82
3 83 10 84
3 85 84 5
3 83 84 85
3 86 10 87
3 88 6 89
3 90 89 10
3 88 89 90
3 91 11 92
3 12 93 95
3 93 11 94
3 93 94 95
3 12 7 11
3 12 13 7
3 14 13 12
3 14 8 13
3 96 15 97
3 96 97 98
3 16 99 101
3 99 15 100
3 99 100 101
3 16 102 104
3 104 103 15
3 102 103 104
3 16 105 106
3 109 108 16
3 107 108 109
3 17 110 112
3 112 111 1
3 110 111 112
3 114 113 17
3 116 115 2
3 18 19 0
3 20 19 18
3 20 117 119
3 119 118 19
3 117 118 119
3 120 20 121
3 122 121 3
3 120 121 122
3 123 20 124
3 123 124 125
3 127 126 20
3 21 128 129
3 21 130 131
3 21 132 133
3 22 134 136
3 136 135 21
3 134 135 136
3 22 137 139
3 137 1 138
3 137 138 139
3 140 4 141
3 23 142 144
3 142 143 144
3 23 145 147
3 145 4 146
3 145 146 147
3 23 22 4
3 24 22 23
3 24 1 22
3 24 17 1
3 25 17 24
3 25 2 17
3 10 25 5
3 26 25 10
3 26 2 25
3 26 9 2
3 27 9 26
3 27 0 9
3 28 148 149
3 28 150 152
3 150 6 151
3 150 151 152
3 11 153 155
3 153 28 154
3 153 154 155
3 29 28 11
3 29 6 28
3 29 27 6
3 30 27 29
3 30 0 27
3 30 18 0
3 31 18 30
3 31 3 18
3 13 31 7
3 32 31 13
3 32 3 31
3 32 156 158
3 158 157 3
3 156 157 158
3 160 159 32
3 161 14 162
3 33 163 165
3 163 14 164
3 163 164 165
3 33 8 14
3 15 166 168
3 166 33 167
3 166 167 168
3 34 33 15
3 34 8 33
3 34 169 171
3 171 170 8
3 169 170 171
3 173 172 34
3 175 174 1
3 19 176 178
3 178 177 0
3 176 177 178
3 180 179 19
