ply
format ascii 1.0
element vertex 208
property float x
property float y
property float z
property uchar red
property uchar green
property uchar blue
element face 203
property list uchar int vertex_index
end_header
1.48554 47.9253 27.0657 255 111 0
2.38422 51.4058 35.7168 234 0 0
2.69123 60.6733 23.1563 255 174 0
2.06929 44.0581 32.5719 7 255 248
1.80832 57.8158 35.454 255 234 0
2.54048 56.4493 29.6371 196 0 0
-0.492823 44.7218 24.3004 150 255 105
0.870848 51.4177 21.0608 255 8 0
2.62731 45.397 36.2315 36 255 219
2.21855 45.5535 41.2193 175 255 80
1.49707 51.8416 41.5712 255 97 0
2.50748 50.14 30.8249 255 116 0
2.30562 54.3258 24.7995 255 29 0
2.09341 57.8167 18.423 181 255 74
-0.588524 50.9633 16.4845 0 218 255
1.98995 60.4615 32.2175 143 255 112
0.990978 44.6748 28.4396 183 255 72
-0.003511 43.0824 27.1825 15 255 240
0.585905 46.4485 25.5748 255 70 0
0.183834 48.113 22.6141 255 17 0
1.17629 49.7423 24.1075 255 55 0
1.38018 48.5396 44.4158 137 255 118
1.11947 55.0845 41.7573 25 255 230
2.56027 48.3231 35.9443 255 97 0
2.58492 47.8326 33.6267 255 175 0
2.57756 50.8848 33.1321 255 61 0
2.61633 58.6648 26.4353 183 0 0
2.57329 55.4807 27.0829 253 0 0
2.56352 57.5014 23.9039 231 0 0
2.19924 56.1661 21.6432 254 0 0
2.55195 59.3265 20.6544 255 199 0
1.38718 42.8513 31.1763 0 204 255
1.789 46.0093 29.9039 255 182 0
2.12224 54.5849 35.5556 136 0 0
2.46355 54.0288 32.7389 214 0 0
2.2579 57.231 32.4393 128 0 0
2.39933 59.656 29.2173 255 137 0
2.54447 61.8602 25.9107 114 255 141
-0.973789 46.2345 21.3416 61 255 194
-0.209023 49.628 19.5791 255 211 0
0.573729 52.9213 17.9468 255 208 0
2.52129 45.5776 38.5813 103 255 152
2.30184 48.5813 38.5486 250 0 0
1.78607 45.3732 44.0777 105 255 150
1.88064 48.6465 41.391 150 0 0
1.99497 51.721 38.5456 145 0 0
1.64219 54.9394 38.5782 255 95 0
2.48576 44.9161 34.2302 0 254 255
2.33064 47.0668 31.6188 255 204 0
2.1408 49.1556 28.8067 255 131 0
2.5796 53.2723 30.1683 255 27 0
2.41057 52.311 27.8698 255 67 0
1.93593 51.1375 25.8523 255 75 0
1.72818 52.9767 22.7944 255 31 0
1.52362 54.6467 19.6598 249 0 0
1.32397 56.1266 16.4673 69 255 186
2.76253 62.4736 19.8204 0 224 255
-0.769027 51.5288 14.9123 0 0 148
-0.150665 52.5963 15.6321 0 0 148
1.72823 43.4547 31.8741 0 0 186
1.57081 41.9603 32.4572 0 0 159
1.91186 42.5637 33.155 0 0 159
2.29117 61.265 29.0526 0 0 196
2.19464 60.0588 30.7174 0 0 241
2.08647 61.6678 30.5527 0 0 196
2.36374 62.3671 27.3993 0 0 196
2.4719 60.7581 27.564 0 0 241
2.29117 61.265 29.0526 0 0 196
-0.808655 42.9803 25.1973 0 0 179
-0.563999 42.1606 26.6383 0 0 179
-0.248167 43.9021 25.7415 0 0 215
-1.08731 43.7297 23.753 0 0 144
-0.808655 42.9803 25.1973 0 0 144
-0.733306 45.4782 22.821 0 0 222
-1.3278 44.4861 22.2736 0 0 183
-1.08731 43.7297 23.753 0 0 183
2.36992 45.5655 39.9003 0 0 211
2.49035 44.0999 39.8105 0 0 176
2.33899 44.0879 41.1296 0 0 176
1.54269 45.2153 45.587 0 0 150
1.75259 43.6468 45.3364 0 0 150
1.20478 56.6353 40.1965 0 0 154
0.959774 56.7018 41.8435 0 0 154
2.55654 45.1566 35.2309 0 0 180
2.53153 43.8255 35.3933 0 0 155
2.6023 44.0659 36.394 0 0 155
2.79313 63.2692 18.1329 0 0 149
2.79595 64.046 19.4724 0 0 149
2.68002 62.5069 16.8996 0 0 147
2.64942 61.7113 18.587 0 0 188
2.79313 63.2692 18.1329 0 0 188
2.18413 43.1187 33.7742 0 0 130
1.91186 42.5637 33.155 0 0 130
-1.23893 49.8549 15.8635 0 0 148
-1.01505 49.2744 17.4019 0 0 148
-1.41943 50.4203 14.2914 0 0 148
-1.23893 49.8549 15.8635 0 0 191
-0.769027 51.5288 14.9123 0 0 191
1.73824 60.7589 33.8052 0 0 200
1.89913 59.1386 33.8358 0 0 248
1.64743 59.4361 35.4235 0 0 200
1.84676 62.0739 32.1327 0 0 153
1.73824 60.7589 33.8052 0 0 153
1.94328 63.2802 30.4679 0 0 153
2.08647 61.6678 30.5527 0 0 200
1.84676 62.0739 32.1327 0 0 200
0.493733 43.8786 27.8111 0 0 206
0.242007 42.2235 28.5755 0 0 172
0.739251 43.0198 29.2041 0 0 172
2.17964 43.9381 42.4718 0 0 142
2.33899 44.0879 41.1296 0 0 142
1.1317 48.4037 45.9914 0 0 153
1.33975 46.7985 45.756 0 0 153
1.18077 50.1545 44.578 0 0 153
1.1317 48.4037 45.9914 0 0 153
1.23921 51.8056 43.1557 0 0 200
1.43862 50.1906 42.9935 0 0 247
1.18077 50.1545 44.578 0 0 200
1.05041 53.427 43.2488 0 0 200
1.30827 53.4631 41.6643 0 0 248
1.23921 51.8056 43.1557 0 0 200
0.881877 55.0459 43.3968 0 0 203
1.05041 53.427 43.2488 0 0 203
0.81282 53.3884 44.8882 0 0 155
0.959774 56.7018 41.8435 0 0 154
0.881877 55.0459 43.3968 0 0 154
1.17751 41.244 31.9053 0 0 134
1.57081 41.9603 32.4572 0 0 134
0.937353 42.108 30.5724 0 0 136
1.17751 41.244 31.9053 0 0 136
1.18908 43.7631 29.8079 0 0 200
0.739251 43.0198 29.2041 0 0 168
0.937353 42.108 30.5724 0 0 168
-0.282037 41.3575 28.0453 0 0 140
0.242007 42.2235 28.5755 0 0 140
-0.282037 41.3575 28.0453 0 0 142
-0.563999 42.1606 26.6383 0 0 142
-1.6009 45.1631 20.7972 0 0 146
-1.3278 44.4861 22.2736 0 0 146
-1.20768 46.91 19.8305 0 0 146
-1.6009 45.1631 20.7972 0 0 146
-0.825295 48.6067 18.9492 0 0 186
-1.20768 46.91 19.8305 0 0 186
-0.591406 47.9313 20.4604 0 0 226
-0.398774 50.2957 18.0318 0 0 228
-1.01505 49.2744 17.4019 0 0 187
-0.825295 48.6067 18.9492 0 0 187
0.430462 53.5753 16.3632 0 0 187
-0.150665 52.5963 15.6321 0 0 187
-0.007398 51.9423 17.2156 0 0 227
2.6226 44.0927 37.4231 0 0 131
2.6023 44.0659 36.394 0 0 131
2.56959 44.1829 38.598 0 0 136
2.49035 44.0999 39.8105 0 0 136
2.5743 45.4873 37.4064 0 0 195
2.6226 44.0927 37.4231 0 0 165
2.56959 44.1829 38.598 0 0 165
1.9634 43.848 43.9009 0 0 147
1.75259 43.6468 45.3364 0 0 147
2.00231 45.4633 42.6485 0 0 227
2.17964 43.9381 42.4718 0 0 186
1.9634 43.848 43.9009 0 0 186
1.58313 46.9564 44.2468 0 0 239
1.54269 45.2153 45.587 0 0 195
1.33975 46.7985 45.756 0 0 195
1.46614 56.5628 38.6069 0 0 200
1.38083 55.0119 40.1677 0 0 248
1.20478 56.6353 40.1965 0 0 200
1.54921 58.001 37.0448 0 0 200
1.72525 56.3776 37.0161 0 0 248
1.46614 56.5628 38.6069 0 0 200
1.64743 59.4361 35.4235 0 0 153
1.54921 58.001 37.0448 0 0 153
2.39236 43.5477 34.6033 0 0 128
2.53153 43.8255 35.3933 0 0 128
2.27752 44.4871 33.401 0 0 178
2.18413 43.1187 33.7742 0 0 154
2.39236 43.5477 34.6033 0 0 154
0.805581 55.178 15.6235 0 0 186
0.430462 53.5753 16.3632 0 0 186
0.948848 54.524 17.207 0 0 226
2.46394 63.4584 25.6981 0 0 151
2.36374 62.3671 27.3993 0 0 151
2.6172 62.8533 24.2254 0 0 151
2.46394 63.4584 25.6981 0 0 151
2.69059 62.2598 22.8481 0 0 191
2.61785 61.2667 24.5335 0 0 234
2.6172 62.8533 24.2254 0 0 191
2.72623 63.16 21.1802 0 0 149
2.79595 64.046 19.4724 0 0 149
2.72688 61.5735 21.4883 0 0 234
2.69059 62.2598 22.8481 0 0 191
2.72623 63.16 21.1802 0 0 191
2.54413 60.1377 19.004 0 0 188
2.65724 60.9001 20.2374 0 0 228
2.64942 61.7113 18.587 0 0 188
2.31486 59.3828 17.8884 0 0 185
2.32268 58.5716 19.5387 0 0 224
2.54413 60.1377 19.004 0 0 185
2.03981 58.5407 16.7895 0 0 146
2.31486 59.3828 17.8884 0 0 146
1.65509 57.6956 15.8116 0 0 185
1.70869 56.9717 17.4452 0 0 224
2.03981 58.5407 16.7895 0 0 185
1.2262 56.7628 14.8492 0 0 146
1.65509 57.6956 15.8116 0 0 146
0.805581 55.178 15.6235 0 0 146
1.2262 56.7628 14.8492 0 0 146
3 58 57 14
3 0 18 16
3 0 20 18
3 1 25 23
3 2 28 26
3 2 30 28
3 3 59 61
3 59 31 60
3 59 60 61
3 3 32 31
3 4 35 33
3 62 36 63
3 64 63 15
3 62 63 64
3 65 37 66
3 67 66 36
3 65 66 67
3 6 68 70
3 70 69 17
3 68 69 70
3 6 71 72
3 6 73 75
3 73 38 74
3 73 74 75
3 7 39 19
3 7 40 39
3 9 76 78
3 76 41 77
3 76 77 78
3 9 42 41
3 79 43 80
3 10 44 21
3 10 45 44
3 10 46 45
3 82 81 22
3 8 83 85
3 83 47 84
3 83 84 85
3 11 48 24
3 11 49 48
3 5 50 34
3 12 51 27
3 12 52 51
3 12 53 52
3 13 54 29
3 13 55 54
3 86 56 87
3 90 89 56
3 88 89 90
3 91 3 92
3 14 93 94
3 97 96 14
3 95 96 97
3 98 15 99
3 100 99 4
3 98 99 100
3 101 15 102
3 105 104 15
3 103 104 105
3 16 106 108
3 106 17 107
3 106 107 108
3 18 17 16
3 18 6 17
3 18 19 6
3 20 19 18
3 20 7 19
3 109 9 110
3 111 21 112
3 113 21 114
3 115 10 116
3 117 116 21
3 115 116 117
3 118 22 119
3 120 119 10
3 118 119 120
3 121 22 122
3 121 122 123
3 125 124 22
3 23 24 8
3 25 24 23
3 25 11 24
3 26 27 5
3 28 27 26
3 28 12 27
3 28 29 12
3 30 29 28
3 30 13 29
3 31 126 127
3 31 128 129
3 31 130 132
3 130 16 131
3 130 131 132
3 32 16 31
3 32 0 16
3 33 34 1
3 35 34 33
3 35 5 34
3 15 35 4
3 36 35 15
3 36 5 35
3 36 26 5
3 37 26 36
3 37 2 26
3 17 133 134
3 136 135 17
3 38 137 138
3 38 139 140
3 19 38 6
3 39 38 19
3 39 141 143
3 143 142 38
3 141 142 143
3 39 144 146
3 144 14 145
3 144 145 146
3 40 14 39
3 40 147 149
3 149 148 14
3 147 148 149
3 150 8 151
3 41 152 153
3 41 154 156
3 154 8 155
3 154 155 156
3 41 23 8
3 42 23 41
3 42 1 23
3 43 157 158
3 43 159 161
3 159 9 160
3 159 160 161
3 21 162 164
3 162 43 163
3 162 163 164
3 44 43 21
3 44 9 43
3 44 42 9
3 45 42 44
3 45 1 42
3 45 33 1
3 46 33 45
3 46 4 33
3 22 46 10
3 165 46 166
3 167 166 22
3 165 166 167
3 168 4 169
3 170 169 46
3 168 169 170
3 172 171 4
3 47 173 174
3 47 175 177
3 175 3 176
3 175 176 177
3 24 47 8
3 48 47 24
3 48 3 47
3 48 32 3
3 49 32 48
3 49 0 32
3 34 25 1
3 50 25 34
3 50 11 25
3 27 50 5
3 51 50 27
3 51 11 50
3 51 49 11
3 52 49 51
3 52 0 49
3 52 20 0
3 53 20 52
3 53 7 20
3 29 53 12
3 54 53 29
3 54 7 53
3 54 40 7
3 55 40 54
3 55 178 180
3 180 179 40
3 178 179 180
3 181 37 182
3 183 37 184
3 185 2 186
3 187 186 37
3 185 186 187
3 56 188 189
3 56 190 192
3 190 2 191
3 190 191 192
3 56 30 2
3 193 30 194
3 195 194 56
3 193 194 195
3 196 13 197
3 198 197 30
3 196 197 198
3 199 13 200
3 201 55 202
3 203 202 13
3 201 202 203
3 204 55 205
3 207 206 55
