ply
format ascii 1.0
element vertex 180
property float x
property float y
property float z
property uchar red
property uchar green
property uchar blue
element face 170
property list uchar int vertex_index
end_header
7.56447 -37.9627 21.6566 251 0 0
9.17742 -21.6898 20.4057 130 255 125
6.97208 -36.2201 11.9764 255 47 0
7.5563 -30.7653 26.0548 71 255 184
8.59765 -30.14 21.2677 166 0 0
8.53503 -29.4522 16.2815 184 0 0
7.95747 -37.1386 16.7548 255 11 0
6.25531 -43.0774 12.1078 0 252 255
6.78039 -44.2119 16.8512 255 78 0
6.30091 -38.5366 26.3092 135 255 120
6.1171 -45.0701 21.6713 118 255 137
7.26276 -28.9301 11.3934 60 255 195
4.71063 -35.5333 7.50715 0 162 255
7.63199 -34.4671 23.9215 222 0 0
8.18327 -30.4668 23.7085 255 175 0
8.14245 -34.1408 21.514 209 0 0
8.38875 -33.7679 19.0487 213 0 0
7.91524 -37.5782 19.2133 252 0 0
7.44941 -40.7536 16.8412 255 47 0
7.29886 -41.2154 19.286 255 35 0
5.63391 -42.1515 26.302 2 255 253
9.10442 -21.4543 17.8422 127 255 128
7.88663 -32.972 14.1362 244 0 0
8.03361 -29.1508 13.8159 255 197 0
7.14183 -32.6243 11.7561 255 7 0
6.1253 -32.3661 9.43654 148 255 107
5.97511 -35.8271 9.70522 238 255 17
5.76827 -39.2012 9.83986 4 255 251
8.63159 -26.2925 23.3834 106 255 149
8.93582 -25.9793 20.9032 255 137 0
8.95274 -25.6785 18.3797 128 0 0
8.72592 -29.7938 18.7768 171 0 0
8.30958 -33.3672 16.5752 227 0 0
7.64421 -36.6723 14.3306 255 29 0
6.69379 -39.7057 12.0832 223 255 32
7.25798 -40.2381 14.4254 255 65 0
6.69792 -43.6663 14.4447 214 255 41
5.96245 -46.9632 14.406 0 247 255
6.95256 -34.7448 26.229 166 255 89
6.99052 -38.2803 24.0346 255 14 0
6.87815 -41.602 21.7068 255 39 0
6.28744 -41.9097 24.0561 255 62 0
5.56111 -45.3741 23.9906 0 254 255
8.67658 -25.4172 15.8531 233 255 22
6.55758 -44.6842 19.2774 229 255 26
5.97315 -47.5246 16.795 0 252 255
9.20951 -19.6155 21.3736 0 0 141
9.07862 -21.8306 21.6688 0 0 141
9.26325 -19.4998 20.0849 0 0 142
9.20951 -19.6155 21.3736 0 0 142
9.14092 -21.572 19.1239 0 0 235
9.22675 -19.3821 18.8032 0 0 188
9.26325 -19.4998 20.0849 0 0 188
7.82179 -28.6845 25.9155 0 0 136
7.47104 -28.8389 27.0506 0 0 136
6.62674 -36.6407 26.2691 0 0 205
6.58302 -34.8661 27.3205 0 0 169
6.25719 -36.7619 27.3607 0 0 169
5.27226 -45.4945 25.1003 0 0 163
5.59751 -43.7628 25.1463 0 0 196
5.30866 -43.8832 26.256 0 0 163
4.91597 -47.159 25.0258 0 0 128
5.20481 -47.0386 23.9161 0 0 160
5.27226 -45.4945 25.1003 0 0 160
7.70007 -27.0805 12.3707 0 0 178
8.0855 -27.1909 13.582 0 0 178
7.64819 -29.0404 12.6046 0 0 219
7.32504 -27.0432 11.1311 0 0 136
7.70007 -27.0805 12.3707 0 0 136
6.77159 -28.8784 10.1999 0 0 136
7.32504 -27.0432 11.1311 0 0 136
4.80474 -33.882 7.33343 0 0 167
5.51207 -32.2984 8.29813 0 0 167
5.41796 -33.9497 8.47185 0 0 203
3.97662 -35.449 6.43202 0 0 131
4.80474 -33.882 7.33343 0 0 131
3.87015 -36.9884 6.57028 0 0 129
3.97662 -35.449 6.43202 0 0 129
5.8472 -42.7821 10.9919 0 0 163
6.06643 -41.0963 10.9796 0 0 163
6.47455 -41.3915 12.0955 0 0 198
5.52232 -49.118 16.737 0 0 128
5.85181 -47.7633 17.9942 0 0 128
5.52618 -48.8338 15.5574 0 0 128
5.52232 -49.118 16.737 0 0 128
5.95115 -38.644 27.3862 0 0 131
6.25719 -36.7619 27.3607 0 0 131
5.61765 -40.4515 27.3826 0 0 164
5.96741 -40.3441 26.3056 0 0 199
5.95115 -38.644 27.3862 0 0 164
5.32064 -42.252 27.3678 0 0 129
5.61765 -40.4515 27.3826 0 0 129
5.30866 -43.8832 26.256 0 0 128
5.32064 -42.252 27.3678 0 0 128
9.15973 -19.3065 17.4988 0 0 141
9.22675 -19.3821 18.8032 0 0 141
8.94103 -21.3738 16.5587 0 0 141
9.15973 -19.3065 17.4988 0 0 141
5.25059 -37.2981 8.7008 0 0 164
4.61835 -37.1512 7.60177 0 0 164
5.34287 -35.6802 8.60618 0 0 198
5.14717 -38.9852 8.76812 0 0 165
5.25059 -37.2981 8.7008 0 0 165
5.87169 -37.5141 9.77254 0 0 200
5.02151 -40.5708 8.80121 0 0 128
5.14717 -38.9852 8.76812 0 0 128
5.59505 -44.383 10.9786 0 0 128
5.94171 -44.7084 12.0923 0 0 128
5.92378 -46.5361 20.4324 0 0 129
5.72117 -46.7306 21.6128 0 0 129
8.13527 -28.5353 24.7424 0 0 179
7.82179 -28.6845 25.9155 0 0 179
7.86978 -30.6161 24.8817 0 0 221
8.35943 -26.4481 24.5798 0 0 180
8.13527 -28.5353 24.7424 0 0 180
8.40743 -28.3797 23.546 0 0 223
8.58212 -24.287 24.3813 0 0 139
8.35943 -26.4481 24.5798 0 0 139
8.8057 -24.132 23.1577 0 0 139
8.58212 -24.287 24.3813 0 0 139
8.95782 -23.9754 21.9176 0 0 184
8.8057 -24.132 23.1577 0 0 184
8.7837 -26.1359 22.1433 0 0 229
9.05662 -23.8345 20.6544 0 0 230
9.07862 -21.8306 21.6688 0 0 185
8.95782 -23.9754 21.9176 0 0 185
6.16302 -45.0028 13.2608 0 0 162
5.94171 -44.7084 12.0923 0 0 162
6.47662 -43.3718 13.2762 0 0 195
5.79528 -46.6513 13.2414 0 0 162
6.16302 -45.0028 13.2608 0 0 162
6.33019 -45.3148 14.4253 0 0 196
5.38874 -48.2325 13.2073 0 0 128
5.79528 -46.6513 13.2414 0 0 128
7.18688 -30.9035 27.1655 0 0 176
7.47104 -28.8389 27.0506 0 0 176
7.10163 -28.9771 28.1613 0 0 135
6.88501 -32.8933 27.2526 0 0 133
6.58302 -34.8661 27.3205 0 0 133
7.25443 -32.7551 26.1419 0 0 212
7.18688 -30.9035 27.1655 0 0 173
6.88501 -32.8933 27.2526 0 0 173
5.44318 -46.8826 22.7724 0 0 163
5.72117 -46.7306 21.6128 0 0 163
5.8391 -45.2221 22.8309 0 0 197
5.44318 -46.8826 22.7724 0 0 128
5.20481 -47.0386 23.9161 0 0 128
8.72711 -23.3553 15.5642 0 0 184
8.94103 -21.3738 16.5587 0 0 184
8.8905 -23.4358 16.8476 0 0 228
8.40698 -25.3241 14.6006 0 0 179
8.3551 -27.284 14.8345 0 0 220
8.0855 -27.1909 13.582 0 0 179
8.72711 -23.3553 15.5642 0 0 139
8.40698 -25.3241 14.6006 0 0 139
6.20286 -30.5964 9.22147 0 0 172
6.77159 -28.8784 10.1999 0 0 172
6.69403 -30.6481 10.415 0 0 210
6.20286 -30.5964 9.22147 0 0 133
5.51207 -32.2984 8.29813 0 0 133
3.87015 -36.9884 6.57028 0 0 129
4.61835 -37.1512 7.60177 0 0 129
5.60367 -40.8441 9.85795 0 0 162
6.23103 -39.4534 10.9615 0 0 196
6.06643 -41.0963 10.9796 0 0 162
5.02151 -40.5708 8.80121 0 0 129
5.60367 -40.8441 9.85795 0 0 129
5.8472 -42.7821 10.9919 0 0 128
5.59505 -44.383 10.9786 0 0 128
6.14402 -46.3431 19.2354 0 0 165
6.33734 -44.8772 20.4743 0 0 199
5.92378 -46.5361 20.4324 0 0 165
6.26537 -46.1044 18.0362 0 0 199
6.14402 -46.3431 19.2354 0 0 164
5.85181 -47.7633 17.9942 0 0 164
5.52083 -48.5531 14.3629 0 0 162
5.9678 -47.2439 15.6005 0 0 195
5.52618 -48.8338 15.5574 0 0 162
5.38874 -48.2325 13.2073 0 0 128
5.52083 -48.5531 14.3629 0 0 128
3 0 15 13
3 0 17 15
3 0 19 17
3 1 46 47
3 1 48 49
3 1 50 52
3 50 21 51
3 50 51 52
3 2 24 22
3 2 26 24
3 2 27 26
3 3 53 54
3 4 28 14
3 4 29 28
3 4 31 29
3 6 32 16
3 6 33 32
3 6 35 33
3 8 36 18
3 8 37 36
3 9 55 57
3 55 38 56
3 55 56 57
3 9 39 38
3 9 41 39
3 58 42 59
3 60 59 20
3 58 59 60
3 63 62 42
3 61 62 63
3 5 43 30
3 11 64 66
3 66 65 23
3 64 65 66
3 11 67 68
3 11 69 70
3 12 71 73
3 73 72 25
3 71 72 73
3 12 74 75
3 12 76 77
3 7 78 80
3 80 79 34
3 78 79 80
3 10 44 40
3 81 45 82
3 84 83 45
3 13 14 3
3 15 14 13
3 15 4 14
3 15 16 4
3 17 16 15
3 17 6 16
3 17 18 6
3 19 18 17
3 19 8 18
3 85 9 86
3 87 20 88
3 89 88 9
3 87 88 89
3 90 20 91
3 93 92 20
3 21 94 95
3 21 96 97
3 22 23 5
3 24 23 22
3 24 11 23
3 24 25 11
3 26 25 24
3 26 12 25
3 26 98 100
3 100 99 12
3 98 99 100
3 27 101 103
3 103 102 26
3 101 102 103
3 27 104 105
3 107 106 7
3 109 108 10
3 14 110 112
3 112 111 3
3 110 111 112
3 28 113 115
3 115 114 14
3 113 114 115
3 28 116 117
3 28 118 119
3 29 120 122
3 122 121 28
3 120 121 122
3 29 123 125
3 123 1 124
3 123 124 125
3 29 30 1
3 31 30 29
3 31 5 30
3 16 31 4
3 32 31 16
3 32 5 31
3 32 22 5
3 33 22 32
3 33 2 22
3 33 34 2
3 35 34 33
3 35 7 34
3 18 35 6
3 36 35 18
3 36 7 35
3 36 126 128
3 128 127 7
3 126 127 128
3 37 129 131
3 131 130 36
3 129 130 131
3 37 132 133
3 134 3 135
3 134 135 136
3 38 137 138
3 38 139 141
3 139 3 140
3 139 140 141
3 38 13 3
3 39 13 38
3 39 0 13
3 39 40 0
3 41 40 39
3 41 10 40
3 20 41 9
3 42 41 20
3 42 10 41
3 42 142 144
3 144 143 10
3 142 143 144
3 146 145 42
3 30 21 1
3 43 21 30
3 43 147 149
3 149 148 21
3 147 148 149
3 23 43 5
3 150 43 151
3 152 151 23
3 150 151 152
3 154 153 43
3 25 155 157
3 157 156 11
3 155 156 157
3 159 158 25
3 161 160 12
3 34 27 2
3 162 27 163
3 164 163 34
3 162 163 164
3 166 165 27
3 168 167 7
3 40 19 0
3 44 19 40
3 44 8 19
3 169 44 170
3 171 170 10
3 169 170 171
3 45 172 174
3 172 44 173
3 172 173 174
3 45 8 44
3 45 37 8
3 175 37 176
3 177 176 45
3 175 176 177
3 179 178 37
