ply
format ascii 1.0
element vertex 119
property float x
property float y
property float z
property uchar red
property uchar green
property uchar blue
element face 106
property list uchar int vertex_index
end_header
65.9823 -49.1624 -11.0675 128 0 0
68.4108 -46.6988 -15.0212 198 255 57
63.2596 -51.2152 -7.06098 225 255 30
66.3517 -55.1337 -7.77708 233 0 0
67.5732 -59.3816 -8.28941 0 247 255
68.5671 -53.1227 -11.8303 255 51 0
64.1544 -47.3491 -10.5623 255 122 0
63.5849 -44.4149 -11.9228 0 240 255
65.4954 -46.1367 -12.5446 255 115 0
66.8036 -44.8324 -14.505 117 255 138
67.2576 -47.9577 -13.0501 152 0 0
65.0091 -55.9453 -5.75979 192 255 63
66.1063 -58.0174 -6.00588 144 255 111
68.2337 -56.2921 -10.0927 215 255 40
68.9678 -55.3183 -12.1588 1 255 254
69.3728 -52.0453 -13.8686 121 255 134
62.8318 -48.4331 -8.55738 101 255 154
64.6333 -50.2613 -9.07108 132 0 0
63.531 -53.9381 -5.45196 85 255 170
64.9427 -53.1359 -7.4634 167 0 0
66.291 -52.1692 -9.47208 176 0 0
66.6536 -60.1487 -6.22621 0 253 255
67.2721 -57.2144 -8.04209 255 66 0
67.5507 -54.1743 -9.80029 255 13 0
67.5277 -51.0777 -11.4768 209 0 0
68.61 -49.9162 -13.4792 254 0 0
69.5017 -48.747 -15.4815 31 255 224
65.812 -59.3929 -5.09369 0 0 132
65.4403 -58.3329 -4.99437 0 0 132
68.8317 -56.496 -12.3171 0 0 130
68.6115 -56.9249 -11.2657 0 0 130
69.2165 -54.842 -13.1993 0 0 129
68.8317 -56.496 -12.3171 0 0 129
63.2927 -42.9398 -12.5348 0 0 139
64.2442 -43.7589 -12.9078 0 0 139
68.217 -45.0905 -15.7338 0 0 182
67.4134 -44.1573 -15.4757 0 0 182
67.6072 -45.7656 -14.7631 0 0 226
68.9029 -46.0703 -16.0026 0 0 135
68.217 -45.0905 -15.7338 0 0 135
63.0457 -49.8241 -7.80918 0 0 220
62.2022 -48.8998 -7.54511 0 0 178
62.4161 -50.2909 -6.79691 0 0 178
63.5515 -55.2547 -4.60089 0 0 135
62.8199 -54.2461 -4.44795 0 0 135
67.071 -60.8576 -7.36632 0 0 128
67.3957 -60.5083 -8.41124 0 0 128
67.1134 -59.7651 -7.25781 0 0 194
66.6112 -61.2411 -6.33473 0 0 161
67.071 -60.8576 -7.36632 0 0 161
69.7255 -49.8784 -15.6983 0 0 166
69.4373 -50.3962 -14.675 0 0 201
69.661 -51.5276 -14.8919 0 0 166
69.8374 -48.1887 -16.4829 0 0 130
69.7255 -49.8784 -15.6983 0 0 130
63.8697 -45.882 -11.2426 0 0 226
62.9569 -45.0129 -10.924 0 0 183
63.2416 -46.4801 -10.2438 0 0 183
65.1994 -44.6198 -13.2187 0 0 186
64.2442 -43.7589 -12.9078 0 0 186
64.5401 -45.2758 -12.2337 0 0 232
66.1495 -45.4845 -13.5248 0 0 231
65.8536 -43.9676 -14.1989 0 0 186
65.1994 -44.6198 -13.2187 0 0 186
62.5846 -51.6085 -6.05147 0 0 135
62.4161 -50.2909 -6.79691 0 0 135
64.8916 -57.2969 -4.87132 0 0 134
64.2906 -56.2583 -4.7548 0 0 134
65.5577 -56.9814 -5.88283 0 0 210
64.8916 -57.2969 -4.87132 0 0 171
65.4403 -58.3329 -4.99437 0 0 171
67.9142 -58.9565 -9.33099 0 0 128
67.3957 -60.5083 -8.41124 0 0 128
68.2445 -57.4118 -10.2326 0 0 162
67.9035 -57.8368 -9.19104 0 0 196
67.9142 -58.9565 -9.33099 0 0 162
68.6007 -55.8052 -11.1258 0 0 196
68.2445 -57.4118 -10.2326 0 0 162
68.6115 -56.9249 -11.2657 0 0 162
69.419 -53.2055 -14.0542 0 0 164
69.1703 -53.6818 -13.0137 0 0 199
69.2165 -54.842 -13.1993 0 0 164
69.661 -51.5276 -14.8919 0 0 129
69.419 -53.2055 -14.0542 0 0 129
62.7073 -43.5871 -11.539 0 0 137
62.9569 -45.0129 -10.924 0 0 137
62.7073 -43.5871 -11.539 0 0 137
63.2927 -42.9398 -12.5348 0 0 137
66.517 -43.2698 -15.1704 0 0 141
65.8536 -43.9676 -14.1989 0 0 141
66.517 -43.2698 -15.1704 0 0 139
67.4134 -44.1573 -15.4757 0 0 139
62.0051 -47.5522 -8.22953 0 0 135
62.2022 -48.8998 -7.54511 0 0 135
62.5803 -47.022 -9.2413 0 0 136
62.0051 -47.5522 -8.22953 0 0 136
63.4931 -47.8911 -9.55985 0 0 224
63.2416 -46.4801 -10.2438 0 0 181
62.5803 -47.022 -9.2413 0 0 181
62.7202 -52.9699 -5.24697 0 0 135
62.8199 -54.2461 -4.44795 0 0 135
63.3953 -52.5767 -6.25647 0 0 219
62.5846 -51.6085 -6.05147 0 0 178
62.7202 -52.9699 -5.24697 0 0 178
64.27 -54.9417 -5.60588 0 0 217
63.5515 -55.2547 -4.60089 0 0 176
64.2906 -56.2583 -4.7548 0 0 176
66.1674 -61.5327 -5.3 0 0 128
66.6112 -61.2411 -6.33473 0 0 128
66.0856 -60.4585 -5.20385 0 0 128
66.1674 -61.5327 -5.3 0 0 128
66.3799 -59.0831 -6.11605 0 0 200
65.812 -59.3929 -5.09369 0 0 165
66.0856 -60.4585 -5.20385 0 0 165
69.4484 -47.0944 -16.2327 0 0 173
68.9029 -46.0703 -16.0026 0 0 173
68.9562 -47.7229 -15.2513 0 0 212
69.4484 -47.0944 -16.2327 0 0 131
69.8374 -48.1887 -16.4829 0 0 131
3 0 8 6
3 0 10 8
3 27 12 28
3 29 14 30
3 32 31 14
3 34 33 7
3 1 35 37
3 37 36 9
3 35 36 37
3 1 38 39
3 2 40 42
3 40 16 41
3 40 41 42
3 2 17 16
3 43 18 44
3 3 19 11
3 3 20 19
3 4 45 46
3 4 47 49
3 47 21 48
3 47 48 49
3 4 22 21
3 5 23 13
3 5 24 23
3 5 25 24
3 50 26 51
3 52 51 15
3 50 51 52
3 54 53 26
3 6 55 57
3 55 7 56
3 55 56 57
3 8 7 6
3 8 58 60
3 60 59 7
3 58 59 60
3 8 61 63
3 61 9 62
3 61 62 63
3 10 9 8
3 10 1 9
3 64 2 65
3 66 11 67
3 12 68 70
3 68 11 69
3 68 69 70
3 12 3 11
3 71 4 72
3 73 13 74
3 75 74 4
3 73 74 75
3 14 76 78
3 76 13 77
3 76 77 78
3 14 5 13
3 14 15 5
3 79 15 80
3 81 80 14
3 79 80 81
3 83 82 15
3 7 84 85
3 87 86 7
3 9 88 89
3 91 90 9
3 16 92 93
3 16 94 95
3 16 96 98
3 96 6 97
3 96 97 98
3 17 6 16
3 17 0 6
3 18 99 100
3 18 101 103
3 101 2 102
3 101 102 103
3 11 104 106
3 104 18 105
3 104 105 106
3 19 18 11
3 19 2 18
3 19 17 2
3 20 17 19
3 20 0 17
3 21 107 108
3 21 109 110
3 21 111 113
3 111 12 112
3 111 112 113
3 22 12 21
3 22 3 12
3 13 22 4
3 23 22 13
3 23 3 22
3 23 20 3
3 24 20 23
3 24 0 20
3 24 10 0
3 25 10 24
3 25 1 10
3 15 25 5
3 26 25 15
3 26 1 25
3 26 114 116
3 116 115 1
3 114 115 116
3 118 117 26
