ply
format ascii 1.0
element vertex 142
property float x
property float y
property float z
property uchar red
property uchar green
property uchar blue
element face 133
property list uchar int vertex_index
end_header
-11.4883 -78.5668 6.40949 0 183 255
-4.51759 -71.7746 11.7517 182 0 0
-1.93124 -66.817 11.5397 135 255 120
-0.842249 -67.9639 15.6683 131 255 124
-10.4913 -79.628 8.88111 255 240 0
-3.37225 -72.8648 15.7805 101 255 154
-7.14882 -76.2673 12.0991 255 32 0
-8.60516 -75.424 8.59543 255 149 0
-6.16949 -70.8689 8.05946 194 255 61
-11.0301 -77.063 5.97962 0 158 255
-12.1245 -79.0562 5.28214 0 120 255
-9.82343 -80.1312 10.5158 64 255 191
-11.0259 -81.8322 8.87876 0 194 255
-6.55079 -76.7712 14.0374 50 255 205
-8.29379 -78.4326 12.2348 119 255 136
-8.95297 -77.9633 10.4343 255 133 0
-3.20003 -69.3625 11.614 129 0 0
-3.97725 -68.8438 9.68573 242 255 13
-5.29223 -71.2982 9.86371 194 0 0
-7.43231 -73.2276 8.32904 255 43 0
-6.59557 -73.6111 10.0763 255 14 0
-1.31618 -67.3863 13.5763 255 244 0
-2.55433 -69.906 13.6171 128 0 0
-11.0908 -79.0847 7.46486 123 255 132
-12.0846 -80.3299 6.19179 0 189 255
-11.6511 -81.1809 7.41209 0 222 255
-2.05509 -70.4791 15.6863 246 255 9
-3.87417 -72.2967 13.7276 168 0 0
-5.23468 -74.5739 13.8802 255 197 0
-5.85573 -74.0646 11.9262 236 0 0
-7.84099 -75.8124 10.2809 255 84 0
-9.64632 -77.5196 8.79362 255 223 0
-10.3292 -77.1535 7.33577 160 255 95
-8.32643 -72.927 6.66153 26 255 229
-9.41748 -75.1561 7.02093 136 255 119
-12.6876 -81.2915 4.85342 0 43 255
-10.0761 -81.2444 10.5241 0 0 138
-9.49332 -80.3692 11.4147 0 0 138
-8.72851 -79.52 12.2742 0 0 140
-7.99761 -78.6819 13.1995 0 0 140
-9.49332 -80.3692 11.4147 0 0 172
-9.05861 -79.2819 11.3753 0 0 205
-8.72851 -79.52 12.2742 0 0 172
-1.07921 -67.6751 14.6223 0 0 242
-0.530129 -66.3537 14.6571 0 0 197
-0.293164 -66.6426 15.7031 0 0 197
-11.4295 -82.6531 8.09544 0 0 134
-11.0774 -82.9873 8.85494 0 0 134
-2.71367 -71.6719 15.7334 0 0 235
-1.87872 -70.783 16.7447 0 0 192
-2.5373 -71.9759 16.7918 0 0 192
-2.30226 -66.5329 10.5538 0 0 152
-1.3209 -65.482 11.538 0 0 152
-5.51225 -69.6066 7.94483 0 0 192
-4.41613 -68.5941 8.75796 0 0 192
-5.07337 -69.8564 8.8726 0 0 236
-6.63501 -70.6748 7.19125 0 0 147
-5.51225 -69.6066 7.94483 0 0 147
-7.24796 -71.898 7.3605 0 0 225
-7.71348 -71.7039 6.49228 0 0 185
-6.63501 -70.6748 7.19125 0 0 185
-12.5393 -81.925 5.41542 0 0 149
-12.3861 -80.8107 5.5226 0 0 170
-12.2378 -81.4442 6.0846 0 0 149
-11.3741 -77.1523 5.28544 0 0 130
-10.6348 -76.0513 5.73964 0 0 130
-11.9213 -78.1489 4.9367 0 0 150
-11.3741 -77.1523 5.28544 0 0 150
-11.5773 -78.0596 5.63088 0 0 172
-12.3811 -79.3224 4.60522 0 0 128
-11.9213 -78.1489 4.9367 0 0 128
-0.151626 -66.9305 16.7788 0 0 151
-0.293164 -66.6426 15.7031 0 0 151
-10.6774 -82.0949 9.70557 0 0 166
-10.4247 -80.9817 9.69727 0 0 196
-10.0761 -81.2444 10.5241 0 0 166
-11.0774 -82.9873 8.85494 0 0 136
-10.6774 -82.0949 9.70557 0 0 136
-3.18865 -73.1734 16.8349 0 0 192
-2.5373 -71.9759 16.7918 0 0 192
-2.3537 -72.2845 17.8463 0 0 149
-7.1261 -77.8512 14.1008 0 0 143
-6.30159 -77.0503 15.0541 0 0 143
-7.42229 -77.6019 13.1361 0 0 215
-7.1261 -77.8512 14.1008 0 0 179
-7.99761 -78.6819 13.1995 0 0 179
-1.04616 -65.7791 12.5771 0 0 152
-1.3209 -65.482 11.538 0 0 152
-0.738629 -66.0637 13.5954 0 0 152
-0.530129 -66.3537 14.6571 0 0 152
-1.62371 -67.1017 12.558 0 0 242
-1.04616 -65.7791 12.5771 0 0 197
-0.738629 -66.0637 13.5954 0 0 197
-12.021 -81.8697 6.69475 0 0 151
-12.2378 -81.4442 6.0846 0 0 151
-11.8678 -80.7554 6.80194 0 0 174
-11.7421 -82.3275 7.3621 0 0 160
-11.3385 -81.5065 8.14543 0 0 187
-11.4295 -82.6531 8.09544 0 0 160
-12.021 -81.8697 6.69475 0 0 131
-11.7421 -82.3275 7.3621 0 0 131
-0.67791 -68.261 16.7335 0 0 151
-0.151626 -66.9305 16.7788 0 0 151
-1.28433 -69.5186 16.7425 0 0 150
-1.87872 -70.783 16.7447 0 0 150
-1.44867 -69.2215 15.6773 0 0 239
-0.67791 -68.261 16.7335 0 0 194
-1.28433 -69.5186 16.7425 0 0 194
-4.05515 -74.0011 15.851 0 0 147
-3.18865 -73.1734 16.8349 0 0 147
-5.64442 -75.9543 14.9795 0 0 145
-6.30159 -77.0503 15.0541 0 0 145
-4.98636 -74.8557 14.9009 0 0 185
-5.64442 -75.9543 14.9795 0 0 185
-5.89273 -75.6726 13.9588 0 0 225
-4.30346 -73.7194 14.8303 0 0 229
-4.05515 -74.0011 15.851 0 0 188
-4.98636 -74.8557 14.9009 0 0 188
-3.32526 -67.5463 9.62679 0 0 197
-2.30226 -66.5329 10.5538 0 0 197
-2.95425 -67.8304 10.6127 0 0 242
-3.32526 -67.5463 9.62679 0 0 150
-4.41613 -68.5941 8.75796 0 0 150
-8.76965 -72.8107 5.85162 0 0 143
-7.71348 -71.7039 6.49228 0 0 143
-9.28293 -73.9833 6.08059 0 0 140
-8.76965 -72.8107 5.85162 0 0 140
-9.82845 -75.0978 6.26029 0 0 168
-9.28293 -73.9833 6.08059 0 0 168
-8.87195 -74.0416 6.84123 0 0 200
-10.2238 -76.1095 6.50028 0 0 189
-10.6348 -76.0513 5.73964 0 0 161
-9.82845 -75.0978 6.26029 0 0 161
-12.6627 -80.4401 4.39086 0 0 148
-12.3811 -79.3224 4.60522 0 0 148
-12.4061 -80.1739 5.06778 0 0 170
-12.7005 -82.5204 4.70091 0 0 129
-12.5393 -81.925 5.41542 0 0 129
-12.814 -81.6956 4.15623 0 0 129
-12.7005 -82.5204 4.70091 0 0 129
-12.6627 -80.4401 4.39086 0 0 128
-12.814 -81.6956 4.15623 0 0 128
3 0 10 9
3 37 36 11
3 38 14 39
3 40 11 41
3 42 41 14
3 40 41 42
3 1 18 16
3 1 20 18
3 3 43 45
3 43 21 44
3 43 44 45
3 3 22 21
3 4 25 23
3 47 46 12
3 5 48 50
3 48 26 49
3 48 49 50
3 5 27 26
3 6 28 13
3 6 29 28
3 6 30 29
3 4 31 15
3 4 23 31
3 2 51 52
3 8 53 55
3 55 54 17
3 53 54 55
3 8 56 57
3 8 58 60
3 58 33 59
3 58 59 60
3 7 34 19
3 7 32 34
3 61 35 62
3 63 62 24
3 61 62 63
3 9 64 65
3 10 66 68
3 68 67 9
3 66 67 68
3 10 69 70
3 71 3 72
3 11 12 4
3 73 12 74
3 75 74 11
3 73 74 75
3 77 76 12
3 78 5 79
3 78 79 80
3 81 13 82
3 14 83 85
3 83 13 84
3 83 84 85
3 14 6 13
3 14 15 6
3 11 15 14
3 11 4 15
3 16 17 2
3 18 17 16
3 18 8 17
3 18 19 8
3 20 19 18
3 20 7 19
3 86 2 87
3 21 88 89
3 21 90 92
3 90 2 91
3 90 91 92
3 21 16 2
3 22 16 21
3 22 1 16
3 23 24 0
3 25 24 23
3 25 93 95
3 95 94 24
3 93 94 95
3 12 25 4
3 96 25 97
3 98 97 12
3 96 97 98
3 100 99 25
3 101 3 102
3 26 103 104
3 26 105 107
3 105 3 106
3 105 106 107
3 26 22 3
3 27 22 26
3 27 1 22
3 108 5 109
3 13 110 111
3 28 112 114
3 114 113 13
3 112 113 114
3 28 115 117
3 115 5 116
3 115 116 117
3 28 27 5
3 29 27 28
3 29 1 27
3 29 20 1
3 30 20 29
3 30 7 20
3 15 30 6
3 31 30 15
3 31 7 30
3 31 32 7
3 23 32 31
3 23 0 32
3 17 118 120
3 120 119 2
3 118 119 120
3 122 121 17
3 33 123 124
3 33 125 126
3 19 33 8
3 34 33 19
3 34 127 129
3 129 128 33
3 127 128 129
3 34 130 132
3 130 9 131
3 130 131 132
3 32 9 34
3 32 0 9
3 24 10 0
3 35 10 24
3 35 133 135
3 135 134 10
3 133 134 135
3 136 35 137
3 138 35 139
3 141 140 35
