ply
format ascii 1.0
element vertex 182
property float x
property float y
property float z
property uchar red
property uchar green
property uchar blue
element face 176
property list uchar int vertex_index
end_header
52.5722 43.2898 1.79197 255 23 0
51.9787 31.2797 6.1645 98 255 157
56.28 38.874 8.34649 255 178 0
48.8485 39.6739 2.59761 161 255 94
52.3341 37.5696 4.57923 182 0 0
56.2281 36.3636 11.829 23 255 232
56.7183 32.9424 9.04672 32 255 223
54.2535 46.6004 2.07573 255 206 0
54.9648 41.1582 4.94017 255 175 0
55.2252 44.4344 6.28862 255 108 0
55.12 35.3138 6.70093 255 132 0
55.0109 29.0359 7.16315 255 121 0
50.8938 41.5424 2.07525 128 0 0
50.6453 38.6523 3.58495 255 117 0
52.4844 40.5005 3.32724 223 0 0
52.5569 45.9559 0.040083 108 255 147
51.1059 44.2718 0.306839 206 255 49
49.1981 42.5052 0.841825 145 255 110
54.1215 48.2072 2.65643 75 255 180
54.8664 45.5425 4.14777 255 174 0
54.4029 47.1181 4.93998 123 255 132
53.6198 49.2366 0.446042 0 212 255
55.7803 40.0367 6.6178 255 199 0
55.0945 38.293 5.98902 255 149 0
55.9938 37.1444 7.41343 255 197 0
56.1192 31.0553 7.9407 130 255 125
56.117 27.8822 7.76634 0 200 255
54.9435 25.7666 7.07556 0 248 255
50.3962 35.5947 4.79712 137 255 118
52.1562 34.4931 5.51878 255 170 0
56.4329 37.6554 10.0954 255 118 0
56.5563 35.9556 8.88387 255 198 0
56.7526 34.71 10.3754 74 255 181
53.7268 44.9655 1.787 255 160 0
53.8777 42.2447 3.33132 255 111 0
54.6946 43.9194 3.607 255 200 0
55.414 42.8296 5.50206 255 197 0
55.8463 41.6957 7.45745 255 152 0
54.4519 45.9715 7.27976 52 255 203
55.309 43.2714 8.47284 125 255 130
55.9637 40.5071 9.44238 204 255 51
55.7534 39.2485 11.4167 35 255 220
53.4172 47.6027 0.081573 42 255 213
53.9056 39.412 4.62663 255 66 0
53.8475 36.4532 5.612 255 34 0
53.7395 33.3676 6.27009 255 11 0
56.0924 34.148 7.84878 255 201 0
55.0799 32.2239 7.07377 255 124 0
53.6134 30.1656 6.63665 255 243 0
53.4942 26.8637 6.79795 45 255 210
50.9819 30.1476 6.27727 0 0 148
51.075 31.8282 5.94014 0 0 148
51.8999 29.613 6.37385 0 0 148
50.9819 30.1476 6.27727 0 0 148
53.8932 48.4513 4.22855 0 0 173
54.2622 47.6626 3.7982 0 0 209
53.7525 48.9958 3.08677 0 0 173
53.7525 48.9958 3.08677 0 0 138
53.6499 49.5347 1.89262 0 0 138
56.5069 27.2875 8.11467 0 0 128
56.4663 28.8651 8.31997 0 0 128
56.1191 26.2647 7.60894 0 0 128
56.5069 27.2875 8.11467 0 0 128
48.6881 38.162 3.33378 0 0 151
47.7338 38.6476 2.94532 0 0 151
47.9297 40.1328 2.08737 0 0 199
48.1045 41.5484 1.20948 0 0 199
49.0233 41.0895 1.71972 0 0 248
47.7338 38.6476 2.94532 0 0 152
47.9297 40.1328 2.08737 0 0 152
53.8376 46.705 7.87242 0 0 146
53.9243 47.3071 6.62474 0 0 146
55.2082 42.657 9.56743 0 0 140
54.7868 44.0167 9.05857 0 0 140
55.5356 41.2749 10.0522 0 0 179
55.6364 41.8893 8.95761 0 0 217
55.2082 42.657 9.56743 0 0 179
55.4304 40.6455 11.0394 0 0 174
55.8586 39.8778 10.4296 0 0 210
55.5356 41.2749 10.0522 0 0 174
54.1702 24.6233 6.97543 0 0 138
54.9204 24.0998 7.01212 0 0 138
51.8965 46.4096 -0.804262 0 0 136
52.4762 47.2435 -0.899742 0 0 136
51.1709 45.5676 -0.670884 0 0 177
51.8965 46.4096 -0.804262 0 0 177
51.8314 45.1138 0.173461 0 0 215
50.3222 44.7129 -0.421418 0 0 143
51.1709 45.5676 -0.670884 0 0 143
50.152 43.3885 0.574332 0 0 235
49.3683 43.8295 -0.153925 0 0 190
50.3222 44.7129 -0.421418 0 0 190
56.4031 34.8771 11.8458 0 0 141
55.954 35.6735 12.6726 0 0 141
53.399 50.0495 0.787428 0 0 135
53.2015 50.5521 -0.370488 0 0 135
53.8707 48.7219 1.55123 0 0 200
53.399 50.0495 0.787428 0 0 167
53.6499 49.5347 1.89262 0 0 167
56.4674 30.4517 8.40715 0 0 155
56.4188 31.9989 8.49371 0 0 182
56.767 31.3952 8.96016 0 0 155
56.1181 29.4688 7.85352 0 0 186
56.4674 30.4517 8.40715 0 0 158
56.4663 28.8651 8.31997 0 0 158
55.5324 25.2069 7.26356 0 0 162
55.5302 26.8244 7.42095 0 0 192
56.1191 26.2647 7.60894 0 0 162
54.9204 24.0998 7.01212 0 0 132
55.5324 25.2069 7.26356 0 0 132
49.5866 37.6512 3.82745 0 0 198
48.6881 38.162 3.33378 0 0 198
49.7469 39.1631 3.09128 0 0 247
49.462 36.1224 4.43354 0 0 196
49.5866 37.6512 3.82745 0 0 196
50.5208 37.1235 4.19103 0 0 244
49.3276 34.517 5.02356 0 0 151
49.462 36.1224 4.43354 0 0 151
50.2838 33.9856 5.25645 0 0 150
49.3276 34.517 5.02356 0 0 150
51.1638 33.4348 5.61728 0 0 193
50.2838 33.9856 5.25645 0 0 193
51.2762 35.0439 5.15795 0 0 239
52.0674 32.8864 5.84164 0 0 236
51.075 31.8282 5.94014 0 0 191
51.1638 33.4348 5.61728 0 0 191
48.3298 42.9238 0.216949 0 0 148
49.3683 43.8295 -0.153925 0 0 148
48.3298 42.9238 0.216949 0 0 151
48.1045 41.5484 1.20948 0 0 151
56.6654 34.0503 11.119 0 0 167
56.4904 35.5368 11.1022 0 0 200
56.4031 34.8771 11.8458 0 0 167
56.8631 33.1953 10.3281 0 0 136
56.6654 34.0503 11.119 0 0 136
56.846 32.3115 9.66373 0 0 158
56.7355 33.8262 9.71108 0 0 187
56.8631 33.1953 10.3281 0 0 158
56.767 31.3952 8.96016 0 0 131
56.846 32.3115 9.66373 0 0 131
53.8999 47.8804 5.45485 0 0 142
53.8932 48.4513 4.22855 0 0 142
54.4274 46.5448 6.10987 0 0 220
53.8999 47.8804 5.45485 0 0 180
53.9243 47.3071 6.62474 0 0 180
54.3582 45.3667 8.46203 0 0 144
53.8376 46.705 7.87242 0 0 144
54.8805 44.6215 7.8763 0 0 225
54.3582 45.3667 8.46203 0 0 184
54.7868 44.0167 9.05857 0 0 184
55.1875 39.9912 12.1144 0 0 143
55.4304 40.6455 11.0394 0 0 143
55.4869 38.5762 12.3785 0 0 141
55.1875 39.9912 12.1144 0 0 141
55.7243 37.1337 12.5846 0 0 182
55.9908 37.806 11.6229 0 0 223
55.4869 38.5762 12.3785 0 0 182
55.954 35.6735 12.6726 0 0 140
55.7243 37.1337 12.5846 0 0 140
53.2692 49.7155 -0.621035 0 0 132
53.2015 50.5521 -0.370488 0 0 132
53.1679 48.8986 -0.80327 0 0 161
53.2692 49.7155 -0.621035 0 0 161
53.5185 48.4197 0.263807 0 0 190
52.9063 48.0669 -0.878997 0 0 131
53.1679 48.8986 -0.80327 0 0 131
52.987 46.7793 0.060828 0 0 197
52.4762 47.2435 -0.899742 0 0 165
52.9063 48.0669 -0.878997 0 0 165
52.7173 29.056 6.60992 0 0 186
51.8999 29.613 6.37385 0 0 186
52.796 30.7227 6.40058 0 0 228
52.6577 27.405 6.69057 0 0 184
52.7173 29.056 6.60992 0 0 184
53.5538 28.5146 6.7173 0 0 226
52.5938 25.6884 6.83826 0 0 144
52.6577 27.405 6.69057 0 0 144
53.4455 25.1719 6.83662 0 0 175
54.2189 26.3151 6.93676 0 0 212
54.1702 24.6233 6.97543 0 0 175
52.5938 25.6884 6.83826 0 0 144
53.4455 25.1719 6.83662 0 0 144
3 0 14 12
3 0 16 15
3 0 12 16
3 1 50 51
3 1 52 53
3 54 20 55
3 56 55 18
3 54 55 56
3 57 18 58
3 2 24 22
3 59 26 60
3 62 61 26
3 3 63 64
3 4 28 13
3 4 29 28
3 3 65 67
3 67 66 17
3 65 66 67
3 3 68 69
3 5 32 30
3 7 35 33
3 9 36 19
3 9 37 36
3 70 38 71
3 72 39 73
3 74 40 75
3 76 75 39
3 74 75 76
3 77 41 78
3 79 78 40
3 77 78 79
3 7 42 21
3 7 33 42
3 8 43 34
3 10 44 23
3 10 45 44
3 6 46 31
3 11 47 25
3 11 48 47
3 11 49 48
3 81 80 27
3 12 13 3
3 14 13 12
3 14 4 13
3 15 82 83
3 16 84 86
3 86 85 15
3 84 85 86
3 16 87 88
3 16 89 91
3 89 17 90
3 89 90 91
3 12 17 16
3 12 3 17
3 93 92 5
3 18 19 7
3 20 19 18
3 20 9 19
3 94 21 95
3 18 96 98
3 96 21 97
3 96 97 98
3 18 7 21
3 22 23 8
3 24 23 22
3 24 10 23
3 99 25 100
3 101 100 6
3 99 100 101
3 26 102 104
3 102 25 103
3 102 103 104
3 26 11 25
3 26 27 11
3 105 27 106
3 107 106 26
3 105 106 107
3 109 108 27
3 13 110 112
3 112 111 3
3 110 111 112
3 28 113 115
3 115 114 13
3 113 114 115
3 28 116 117
3 28 118 119
3 29 120 122
3 122 121 28
3 120 121 122
3 29 123 125
3 123 1 124
3 123 124 125
3 17 126 127
3 129 128 17
3 30 31 2
3 32 31 30
3 32 6 31
3 130 32 131
3 132 131 5
3 130 131 132
3 133 32 134
3 135 6 136
3 137 136 32
3 135 136 137
3 139 138 6
3 33 34 0
3 35 34 33
3 35 8 34
3 19 35 7
3 36 35 19
3 36 8 35
3 36 22 8
3 37 22 36
3 37 2 22
3 140 20 141
3 38 142 144
3 142 20 143
3 142 143 144
3 38 9 20
3 145 38 146
3 39 147 149
3 147 38 148
3 147 148 149
3 39 9 38
3 39 37 9
3 40 37 39
3 40 2 37
3 40 30 2
3 41 30 40
3 41 5 30
3 150 41 151
3 152 41 153
3 154 5 155
3 156 155 41
3 154 155 156
3 158 157 5
3 21 159 160
3 42 161 163
3 163 162 21
3 161 162 163
3 42 164 165
3 42 166 168
3 166 15 167
3 166 167 168
3 33 15 42
3 33 0 15
3 34 14 0
3 43 14 34
3 43 4 14
3 23 43 8
3 44 43 23
3 44 4 43
3 44 29 4
3 45 29 44
3 45 1 29
3 31 24 2
3 46 24 31
3 46 10 24
3 25 46 6
3 47 46 25
3 47 10 46
3 47 45 10
3 48 45 47
3 48 1 45
3 48 169 171
3 171 170 1
3 169 170 171
3 49 172 174
3 174 173 48
3 172 173 174
3 49 175 176
3 27 49 11
3 177 49 178
3 179 178 27
3 177 178 179
3 181 180 49
