ply
format ascii 1.0
element vertex 141
property float x
property float y
property float z
property uchar red
property uchar green
property uchar blue
element face 126
property list uchar int vertex_index
end_header
5.51931 27.9259 26.8823 154 255 101
8.15955 30.8201 15.7094 132 0 0
6.95344 29.8481 21.3845 195 0 0
8.70499 22.3612 19.3907 241 255 14
7.54747 21.3334 24.8473 200 0 0
6.15736 19.4384 30.0076 143 255 112
6.06509 37.9279 17.5246 77 255 178
4.60673 36.0109 23.3893 47 255 208
6.25017 29.0011 24.1619 235 0 0
7.28797 25.6396 23.1677 197 0 0
6.59577 24.7951 25.8676 240 0 0
8.61788 30.931 12.844 253 255 2
9.24757 26.6892 11.946 0 248 255
8.91401 26.786 14.7783 255 120 0
5.35145 37.0944 20.4734 184 255 71
6.35122 15.0523 31.4004 0 167 255
7.04931 16.096 28.9583 159 255 96
7.59851 30.4571 18.562 161 0 0
8.46923 26.6407 17.6059 128 0 0
7.92135 26.2569 20.4085 159 0 0
8.17074 21.9583 22.1483 255 164 0
8.34689 17.5718 23.7767 89 255 166
9.13223 22.5384 16.5953 122 255 133
5.8773 23.7312 28.4962 149 255 106
7.76685 34.8792 13.7004 106 255 149
7.199 34.5438 16.6104 255 163 0
6.5459 33.9488 19.5025 195 0 0
5.83385 33.1035 22.3622 230 0 0
5.09283 32.02 25.1776 159 255 96
6.86441 20.4914 27.4708 247 0 0
7.72793 16.9374 26.414 190 255 65
6.79916 11.0999 31.4851 0 0 129
6.74801 13.3348 30.857 0 0 166
6.40237 12.8174 32.0286 0 0 166
9.4495 24.446 11.4614 0 0 139
9.34702 24.5878 12.8649 0 0 139
7.52364 36.8366 12.6408 0 0 136
7.99786 34.9138 12.2453 0 0 136
6.39118 38.2129 16.04 0 0 134
5.78738 39.8486 16.4898 0 0 134
6.63205 36.2359 17.0675 0 0 219
6.95814 36.5209 15.5829 0 0 177
6.39118 38.2129 16.04 0 0 177
7.77621 14.6984 27.1341 0 0 173
7.38862 16.5167 27.6861 0 0 213
7.4369 14.2777 28.4063 0 0 173
8.08768 15.0215 25.8494 0 0 134
7.77621 14.6984 27.1341 0 0 134
8.93272 28.8101 12.395 0 0 229
9.10501 28.7379 10.9658 0 0 184
8.79016 30.8587 11.4147 0 0 184
9.18024 24.6362 14.281 0 0 184
9.34702 24.5878 12.8649 0 0 184
9.08079 26.7376 13.3622 0 0 230
8.99475 20.2838 18.8444 0 0 137
8.78878 20.1784 20.2273 0 0 137
5.43558 39.4455 18.0117 0 0 134
5.78738 39.8486 16.4898 0 0 134
5.07876 39.0287 19.4861 0 0 173
5.70827 37.5111 18.999 0 0 213
5.43558 39.4455 18.0117 0 0 173
4.70999 38.4942 20.9972 0 0 132
5.07876 39.0287 19.4861 0 0 132
4.33763 37.9524 22.4552 0 0 170
4.97909 36.5526 21.9313 0 0 209
4.70999 38.4942 20.9972 0 0 170
7.09706 13.8567 29.6359 0 0 168
6.70027 15.5742 30.1794 0 0 206
6.74801 13.3348 30.857 0 0 168
7.4369 14.2777 28.4063 0 0 132
7.09706 13.8567 29.6359 0 0 132
8.52165 19.977 21.6061 0 0 180
8.78878 20.1784 20.2273 0 0 180
8.43787 22.1597 20.7695 0 0 224
8.60972 17.7837 22.4203 0 0 179
8.52165 19.977 21.6061 0 0 179
8.25881 19.765 22.9625 0 0 222
8.66036 15.5627 23.1989 0 0 136
8.60972 17.7837 22.4203 0 0 136
9.35856 26.5191 10.5375 0 0 139
9.10501 28.7379 10.9658 0 0 139
9.35856 26.5191 10.5375 0 0 139
9.4495 24.446 11.4614 0 0 139
9.28935 22.5124 15.1895 0 0 184
9.18024 24.6362 14.281 0 0 184
9.02312 24.6622 15.6868 0 0 229
9.20837 20.3724 17.4467 0 0 183
8.91861 22.4498 17.993 0 0 227
8.99475 20.2838 18.8444 0 0 183
9.35476 20.3695 16.0498 0 0 138
9.20837 20.3724 17.4467 0 0 138
9.28935 22.5124 15.1895 0 0 138
9.35476 20.3695 16.0498 0 0 138
5.33459 25.183 29.0167 0 0 167
5.6983 25.8286 27.6892 0 0 204
5.1556 27.2804 28.2098 0 0 167
5.52121 23.0947 29.7713 0 0 129
5.33459 25.183 29.0167 0 0 129
5.66125 20.9483 30.527 0 0 166
6.01733 21.5848 29.2519 0 0 203
5.52121 23.0947 29.7713 0 0 166
5.80916 18.8105 31.2304 0 0 128
5.66125 20.9483 30.527 0 0 128
5.90609 16.6175 31.9268 0 0 165
6.25429 17.2454 30.704 0 0 201
5.80916 18.8105 31.2304 0 0 165
6.01073 14.4325 32.5702 0 0 128
5.90609 16.6175 31.9268 0 0 128
6.06188 12.1976 33.1983 0 0 128
6.40237 12.8174 32.0286 0 0 164
6.01073 14.4325 32.5702 0 0 164
8.42338 32.9397 11.8171 0 0 138
8.79016 30.8587 11.4147 0 0 138
8.19236 32.9051 13.2722 0 0 226
8.42338 32.9397 11.8171 0 0 182
7.99786 34.9138 12.2453 0 0 182
7.24206 36.6886 14.1279 0 0 136
7.52364 36.8366 12.6408 0 0 136
7.48292 34.7115 15.1554 0 0 220
7.24206 36.6886 14.1279 0 0 178
6.95814 36.5209 15.5829 0 0 178
3.96748 37.2954 23.9499 0 0 131
4.33763 37.9524 22.4552 0 0 131
4.23404 35.3523 24.8258 0 0 167
3.96748 37.2954 23.9499 0 0 167
3.59479 36.6369 25.3864 0 0 130
4.47708 33.3569 25.7199 0 0 169
4.84978 34.0154 24.2835 0 0 207
4.23404 35.3523 24.8258 0 0 169
4.72297 31.3663 26.5585 0 0 130
4.47708 33.3569 25.7199 0 0 130
4.93621 29.3192 27.4109 0 0 168
5.30607 29.973 26.03 0 0 206
4.72297 31.3663 26.5585 0 0 168
5.1556 27.2804 28.2098 0 0 129
4.93621 29.3192 27.4109 0 0 129
8.39716 15.3387 24.5308 0 0 177
8.03741 17.2546 25.0954 0 0 219
8.08768 15.0215 25.8494 0 0 177
8.66036 15.5627 23.1989 0 0 136
8.39716 15.3387 24.5308 0 0 136
3 0 10 8
3 1 13 11
3 33 32 15
3 31 32 33
3 2 19 17
3 4 20 9
3 4 21 20
3 35 34 12
3 3 22 18
3 36 24 37
3 6 38 39
3 6 40 42
3 40 25 41
3 40 41 42
3 6 26 25
3 7 27 14
3 7 28 27
3 5 29 23
3 43 30 44
3 45 44 16
3 43 44 45
3 47 46 30
3 8 9 2
3 10 9 8
3 10 4 9
3 11 48 50
3 48 12 49
3 48 49 50
3 13 12 11
3 13 51 53
3 53 52 12
3 51 52 53
3 55 54 3
3 56 6 57
3 58 14 59
3 60 59 6
3 58 59 60
3 61 14 62
3 63 7 64
3 65 64 14
3 63 64 65
3 15 16 5
3 66 16 67
3 68 67 15
3 66 67 68
3 70 69 16
3 17 18 1
3 19 18 17
3 19 3 18
3 9 19 2
3 20 19 9
3 20 3 19
3 20 71 73
3 73 72 3
3 71 72 73
3 21 74 76
3 76 75 20
3 74 75 76
3 21 77 78
3 12 79 80
3 82 81 12
3 18 13 1
3 22 13 18
3 22 83 85
3 85 84 13
3 83 84 85
3 86 22 87
3 88 87 3
3 86 87 88
3 89 22 90
3 92 91 22
3 93 23 94
3 95 94 0
3 93 94 95
3 96 23 97
3 98 5 99
3 100 99 23
3 98 99 100
3 101 5 102
3 103 15 104
3 105 104 5
3 103 104 105
3 106 15 107
3 110 109 15
3 108 109 110
3 111 11 112
3 24 113 115
3 113 11 114
3 113 114 115
3 24 1 11
3 116 24 117
3 25 118 120
3 118 24 119
3 118 119 120
3 25 1 24
3 25 17 1
3 26 17 25
3 26 2 17
3 14 26 6
3 27 26 14
3 27 2 26
3 27 8 2
3 28 8 27
3 28 0 8
3 121 7 122
3 123 7 124
3 123 124 125
3 126 28 127
3 128 127 7
3 126 127 128
3 129 28 130
3 131 0 132
3 133 132 28
3 131 132 133
3 135 134 0
3 23 10 0
3 29 10 23
3 29 4 10
3 16 29 5
3 30 29 16
3 30 4 29
3 30 21 4
3 136 21 137
3 138 137 30
3 136 137 138
3 140 139 21
