ply
format ascii 1.0
element vertex 211
property float x
property float y
property float z
property uchar red
property uchar green
property uchar blue
element face 209
property list uchar int vertex_index
end_header
-63.7082 -43.1935 45.6538 205 0 0
-66.6041 -35.4991 39.1267 230 0 0
-67.4612 -31.6577 35.7464 192 255 63
-67.4107 -36.6674 35.8429 189 0 0
-67.555 -32.8272 32.2382 221 255 34
-61.7618 -47.2506 48.1633 64 255 191
-64.4315 -48.0971 45.7228 65 255 190
-65.3526 -39.2975 42.5367 226 0 0
-65.8949 -44.2122 42.954 216 0 0
-66.8744 -40.4248 39.5532 214 0 0
-66.6121 -41.7556 36.0139 118 255 137
-60.2493 -42.5655 47.2659 245 255 10
-62.3405 -38.5222 44.6961 151 0 0
-64.2102 -34.6197 41.8765 194 0 0
-65.7572 -30.7158 39.0518 186 0 0
-67.7348 -32.2264 33.9978 199 255 56
-62.7632 -45.203 47.0015 205 0 0
-63.2402 -47.6237 47.1033 182 255 73
-64.1602 -45.6231 45.8609 220 0 0
-66.0296 -37.3943 40.8474 232 0 0
-66.3269 -39.8229 41.1369 237 0 0
-66.8329 -37.9394 39.3523 234 0 0
-67.116 -37.3052 34.093 230 255 25
-67.0911 -39.1989 35.9711 255 157 0
-60.4483 -38.2687 45.4727 242 255 13
-61.5429 -36.2786 44.2631 223 255 32
-63.3121 -36.5611 43.2995 177 0 0
-62.5872 -34.3136 43.0307 207 255 48
-64.4645 -30.3786 40.574 204 255 51
-65.2845 -28.3734 39.3608 88 255 167
-66.4086 -28.72 37.6779 87 255 168
-66.3988 -44.8448 41.2651 196 255 59
-65.9234 -46.7453 42.7585 75 255 180
-67.0787 -33.5926 37.4146 218 0 0
-67.232 -36.0567 37.5366 225 0 0
-67.5296 -34.1573 35.7372 209 0 0
-67.5277 -34.7638 34.0013 173 0 0
-67.0496 -35.3868 32.2563 239 255 16
-64.5761 -41.2265 44.1526 214 0 0
-64.9878 -43.6557 44.4313 225 0 0
-65.7116 -41.7241 42.8442 232 0 0
-66.4432 -42.3085 41.3156 218 0 0
-66.7424 -42.958 39.6098 255 179 0
-67.195 -38.5494 37.7117 203 0 0
-66.9692 -41.0793 37.8291 160 0 0
-66.6069 -43.6418 37.7768 109 255 146
-61.083 -44.8846 47.8319 213 255 42
-62.1069 -42.8317 46.5977 163 0 0
-59.3272 -40.3006 46.6277 122 255 133
-61.3118 -40.5201 46.0315 128 0 0
-63.0871 -40.8256 45.2153 173 0 0
-64.0014 -38.863 43.7246 191 0 0
-64.8338 -36.9322 42.1663 208 0 0
-65.5749 -35.0159 40.5783 215 0 0
-63.5642 -32.3536 41.7974 200 255 55
-65.0258 -32.6778 40.4544 198 0 0
-66.2225 -33.0935 38.9941 210 0 0
-66.7807 -31.1468 37.4404 255 190 0
-65.2244 -46.142 44.432 255 203 0
-66.8998 -33.4352 30.5177 0 236 255
-66.8203 -38.582 34.1362 0 0 134
-66.7344 -37.6246 33.2144 0 0 134
-61.1651 -35.1854 44.1681 0 0 131
-60.5758 -36.1775 44.6796 0 0 131
-61.6873 -34.2029 43.5519 0 0 173
-62.065 -35.2961 43.6469 0 0 216
-61.1651 -35.1854 44.1681 0 0 173
-65.07 -27.2334 39.6459 0 0 131
-64.6231 -28.2531 40.1749 0 0 131
-65.655 -27.3527 38.7546 0 0 132
-65.07 -27.2334 39.6459 0 0 132
-66.3224 -46.1254 41.0798 0 0 130
-66.4458 -45.1844 40.3406 0 0 130
-62.0046 -48.4486 48.1513 0 0 167
-61.4893 -49.4846 48.628 0 0 128
-61.2466 -48.2866 48.64 0 0 167
-63.9783 -49.0833 46.267 0 0 168
-63.3826 -48.8466 46.9572 0 0 168
-63.8358 -47.8604 46.4131 0 0 207
-64.4827 -49.3397 45.4491 0 0 173
-64.0295 -50.3259 45.9932 0 0 130
-63.9783 -49.0833 46.267 0 0 173
-66.337 -43.0395 35.9385 0 0 182
-66.3344 -43.9826 36.82 0 0 182
-66.6095 -42.6987 36.8953 0 0 228
-60.6662 -43.7251 47.5489 0 0 219
-60.1322 -44.773 48.0955 0 0 176
-59.7153 -43.6135 47.8125 0 0 176
-58.867 -39.1965 46.3635 0 0 179
-58.2699 -40.2285 46.8411 0 0 179
-57.8097 -39.1244 46.5769 0 0 134
-63.272 -31.2462 41.9096 0 0 130
-62.7408 -32.2367 42.4222 0 0 130
-66.8339 -28.9418 36.8067 0 0 131
-66.6982 -27.7031 37.0048 0 0 131
-65.6134 -47.7023 43.4121 0 0 132
-65.8822 -48.0163 42.4738 0 0 132
-66.3389 -33.7331 29.7 0 0 135
-66.7899 -32.4405 29.7182 0 0 135
-66.5007 -34.7194 30.534 0 0 135
-66.3389 -33.7331 29.7 0 0 135
-67.7495 -30.9554 34.0734 0 0 171
-67.598 -31.942 34.8721 0 0 212
-67.6126 -30.671 34.9477 0 0 171
-67.798 -31.2413 33.1752 0 0 130
-67.7495 -30.9554 34.0734 0 0 130
-67.7081 -31.5417 32.2954 0 0 172
-67.6449 -32.5268 33.118 0 0 214
-67.798 -31.2413 33.1752 0 0 172
-66.8078 -39.5289 35.0752 0 0 179
-67.1036 -38.252 35.032 0 0 224
-66.8203 -38.582 34.1362 0 0 179
-66.5683 -40.8072 35.0966 0 0 178
-66.8516 -40.4772 35.9925 0 0 223
-66.8078 -39.5289 35.0752 0 0 178
-66.1787 -41.1398 34.1657 0 0 136
-66.2225 -42.0881 35.0829 0 0 184
-66.5683 -40.8072 35.0966 0 0 184
-59.2291 -42.4751 47.4779 0 0 134
-59.7153 -43.6135 47.8125 0 0 134
-60.0285 -37.1726 45.2844 0 0 132
-59.4276 -38.1805 45.7859 0 0 132
-60.9956 -37.2737 44.8679 0 0 220
-60.0285 -37.1726 45.2844 0 0 176
-60.5758 -36.1775 44.6796 0 0 176
-64.2131 -29.2557 40.7815 0 0 130
-63.7221 -30.2587 41.2979 0 0 130
-64.8745 -29.376 39.9674 0 0 216
-64.2131 -29.2557 40.7815 0 0 173
-64.6231 -28.2531 40.1749 0 0 173
-66.217 -27.526 37.9131 0 0 174
-65.8466 -28.5467 38.5194 0 0 217
-65.655 -27.3527 38.7546 0 0 174
-66.6982 -27.7031 37.0048 0 0 132
-66.217 -27.526 37.9131 0 0 132
-66.0848 -47.0756 41.8265 0 0 175
-66.1611 -45.7951 42.0118 0 0 218
-66.3224 -46.1254 41.0798 0 0 175
-65.8822 -48.0163 42.4738 0 0 130
-66.0848 -47.0756 41.8265 0 0 130
-66.7012 -36.6655 32.2961 0 0 181
-66.7344 -37.6246 33.2144 0 0 181
-67.0828 -36.346 33.1747 0 0 227
-62.7438 -48.6352 47.6213 0 0 167
-62.0046 -48.4486 48.1513 0 0 167
-62.501 -47.4371 47.6333 0 0 206
-62.7438 -48.6352 47.6213 0 0 129
-63.3826 -48.8466 46.9572 0 0 129
-66.6176 -44.241 39.513 0 0 175
-66.4458 -45.1844 40.3406 0 0 175
-66.5706 -43.9014 40.4375 0 0 218
-66.5498 -44.5829 38.5965 0 0 174
-66.6176 -44.241 39.513 0 0 174
-66.6746 -43.2999 38.6933 0 0 217
-66.4014 -44.9268 37.6168 0 0 134
-66.5498 -44.5829 38.5965 0 0 134
-66.4014 -44.9268 37.6168 0 0 134
-66.3344 -43.9826 36.82 0 0 134
-66.337 -43.0395 35.9385 0 0 135
-66.2225 -42.0881 35.0829 0 0 135
-60.9024 -47.1146 48.5234 0 0 129
-61.2466 -48.2866 48.64 0 0 129
-60.563 -45.9316 48.3577 0 0 132
-60.1322 -44.773 48.0955 0 0 132
-61.4224 -46.0676 47.9976 0 0 211
-60.9024 -47.1146 48.5234 0 0 170
-60.563 -45.9316 48.3577 0 0 170
-58.7681 -41.3426 47.1588 0 0 135
-58.2699 -40.2285 46.8411 0 0 135
-59.7883 -41.4331 46.9468 0 0 225
-59.2291 -42.4751 47.4779 0 0 179
-58.7681 -41.3426 47.1588 0 0 179
-59.8878 -39.2847 46.0502 0 0 224
-58.867 -39.1965 46.3635 0 0 179
-59.4276 -38.1805 45.7859 0 0 179
-62.2523 -33.2167 43.0389 0 0 130
-61.6873 -34.2029 43.5519 0 0 130
-63.0757 -33.3336 42.4141 0 0 213
-62.2523 -33.2167 43.0389 0 0 172
-62.7408 -32.2367 42.4222 0 0 172
-64.0144 -31.3661 41.1857 0 0 213
-63.272 -31.2462 41.9096 0 0 172
-63.7221 -30.2587 41.2979 0 0 172
-67.0199 -30.1551 36.6879 0 0 173
-66.5947 -29.9334 37.5591 0 0 216
-66.8339 -28.9418 36.8067 0 0 173
-67.3602 -30.4106 35.8409 0 0 171
-67.121 -31.4022 36.5934 0 0 212
-67.0199 -30.1551 36.6879 0 0 171
-67.6126 -30.671 34.9477 0 0 130
-67.3602 -30.4106 35.8409 0 0 130
-65.2639 -47.4007 44.2489 0 0 169
-65.5739 -46.4437 43.5953 0 0 210
-65.6134 -47.7023 43.4121 0 0 169
-64.8674 -48.3783 44.8943 0 0 172
-64.8279 -47.1196 45.0774 0 0 214
-65.2639 -47.4007 44.2489 0 0 172
-64.4827 -49.3397 45.4491 0 0 129
-64.8674 -48.3783 44.8943 0 0 129
-67.5306 -31.8393 31.4154 0 0 131
-67.7081 -31.5417 32.2954 0 0 131
-67.203 -32.1433 30.5552 0 0 132
-66.7899 -32.4405 29.7182 0 0 132
-67.2274 -33.1312 31.378 0 0 219
-67.5306 -31.8393 31.4154 0 0 176
-67.203 -32.1433 30.5552 0 0 176
-66.5756 -35.6952 31.4033 0 0 182
-66.9747 -34.411 31.387 0 0 228
-66.5007 -34.7194 30.534 0 0 182
-66.7012 -36.6655 32.2961 0 0 135
-66.5756 -35.6952 31.4033 0 0 135
3 0 18 16
3 1 21 19
3 61 60 22
3 62 25 63
3 64 27 65
3 66 65 25
3 64 65 66
3 67 29 68
3 70 69 29
3 72 71 31
3 2 35 33
3 4 36 15
3 4 37 36
3 5 73 75
3 73 74 75
3 6 76 78
3 78 77 17
3 76 77 78
3 6 79 81
3 79 80 81
3 7 40 38
3 9 41 20
3 9 42 41
3 3 43 34
3 10 44 23
3 10 45 44
3 10 82 84
3 84 83 45
3 82 83 84
3 11 85 87
3 85 46 86
3 85 86 87
3 11 47 46
3 88 48 89
3 88 89 90
3 12 49 24
3 12 50 49
3 12 51 50
3 13 52 26
3 13 53 52
3 91 54 92
3 14 55 28
3 14 56 55
3 14 57 56
3 94 93 30
3 8 58 39
3 96 95 32
3 97 59 98
3 100 99 59
3 101 15 102
3 103 102 2
3 101 102 103
3 104 15 105
3 106 4 107
3 108 107 15
3 106 107 108
3 16 17 5
3 18 17 16
3 18 6 17
3 19 20 7
3 21 20 19
3 21 9 20
3 22 23 3
3 109 23 110
3 111 110 22
3 109 110 111
3 112 10 113
3 114 113 23
3 112 113 114
3 117 116 10
3 115 116 117
3 118 11 119
3 120 24 121
3 25 122 124
3 122 24 123
3 122 123 124
3 25 12 24
3 25 26 12
3 27 26 25
3 27 13 26
3 125 28 126
3 29 127 129
3 127 28 128
3 127 128 129
3 29 14 28
3 29 30 14
3 130 30 131
3 132 131 29
3 130 131 132
3 134 133 30
3 31 32 8
3 135 32 136
3 137 136 31
3 135 136 137
3 139 138 32
3 33 34 1
3 35 34 33
3 35 3 34
3 15 35 2
3 36 35 15
3 36 3 35
3 36 22 3
3 37 22 36
3 37 140 142
3 142 141 22
3 140 141 142
3 17 143 145
3 145 144 5
3 143 144 145
3 147 146 17
3 38 39 0
3 40 39 38
3 40 8 39
3 20 40 7
3 41 40 20
3 41 8 40
3 41 31 8
3 42 31 41
3 42 148 150
3 150 149 31
3 148 149 150
3 34 21 1
3 43 21 34
3 43 9 21
3 23 43 3
3 44 43 23
3 44 9 43
3 44 42 9
3 45 42 44
3 45 151 153
3 153 152 42
3 151 152 153
3 45 154 155
3 157 156 45
3 159 158 10
3 160 5 161
3 46 162 163
3 46 164 166
3 164 5 165
3 164 165 166
3 46 16 5
3 47 16 46
3 47 0 16
3 48 167 168
3 48 169 171
3 169 11 170
3 169 170 171
3 24 172 174
3 172 48 173
3 172 173 174
3 49 48 24
3 49 11 48
3 49 47 11
3 50 47 49
3 50 0 47
3 50 38 0
3 51 38 50
3 51 7 38
3 26 51 12
3 52 51 26
3 52 7 51
3 52 19 7
3 53 19 52
3 53 1 19
3 175 27 176
3 54 177 179
3 177 27 178
3 177 178 179
3 54 13 27
3 28 180 182
3 180 54 181
3 180 181 182
3 55 54 28
3 55 13 54
3 55 53 13
3 56 53 55
3 56 1 53
3 56 33 1
3 57 33 56
3 57 2 33
3 30 57 14
3 183 57 184
3 185 184 30
3 183 184 185
3 186 2 187
3 188 187 57
3 186 187 188
3 190 189 2
3 39 18 0
3 58 18 39
3 58 6 18
3 32 58 8
3 191 58 192
3 193 192 32
3 191 192 193
3 194 6 195
3 196 195 58
3 194 195 196
3 198 197 6
3 199 4 200
3 59 201 202
3 59 203 205
3 203 4 204
3 203 204 205
3 59 37 4
3 206 37 207
3 208 207 59
3 206 207 208
3 210 209 37
