ply
format ascii 1.0
element vertex 224
property float x
property float y
property float z
property uchar red
property uchar green
property uchar blue
element face 210
property list uchar int vertex_index
end_header
-17.4401 41.0457 -31.1399 255 111 0
-22.6119 27.3979 -30.7743 0 59 255
-12.5663 56.2379 -31.0807 150 0 0
-12.6919 42.0333 -32.1469 255 111 0
-15.639 34.3919 -31.5442 255 191 0
-11.5301 34.5884 -31.7158 0 225 255
-18.4349 54.1884 -28.8707 115 255 140
-4.82817 64.9244 -32.5948 17 255 238
-22.3113 39.9523 -30.0353 0 216 255
-19.9307 33.9503 -31.0573 255 240 0
-18.885 27.2128 -30.9712 0 168 255
-15.009 48.5305 -31.0979 244 0 0
-9.91527 49.8519 -32.7238 151 255 104
-10.1261 63.9061 -30.838 131 0 0
-7.25 57.5875 -33.0621 166 255 89
-10.4502 42.3725 -32.557 0 249 255
-11.9655 38.4349 -32.1078 171 255 84
-19.8878 40.4954 -30.5948 176 255 79
-20.9606 37.0499 -30.6873 255 209 0
-18.6707 37.4402 -31.1288 255 175 0
-15.2239 30.7446 -31.2518 39 255 216
-17.2192 30.7246 -31.2427 107 255 148
-15.449 55.2698 -29.9577 255 136 0
-16.5892 51.4583 -30.0898 176 0 0
-13.7905 52.3692 -31.0904 191 0 0
-12.4029 49.2629 -31.9428 255 9 0
-11.1071 53.1532 -32.07 227 0 0
-10.8026 70.3224 -28.8159 0 247 255
-11.9533 66.7104 -29.3461 255 239 0
-8.94379 67.5934 -30.4433 255 154 0
-5.99277 61.3301 -32.9739 151 255 104
-15.0287 41.5727 -31.6655 255 106 0
-16.3799 37.8264 -31.5169 255 157 0
-14.1356 38.1738 -31.8472 255 150 0
-13.5503 34.5442 -31.6675 255 177 0
-13.2763 30.6842 -31.1794 0 216 255
-14.2914 59.1155 -29.8316 255 243 0
-6.19917 68.1487 -31.3058 44 255 211
-23.1835 36.6772 -30.1766 0 185 255
-22.0458 33.7248 -30.6782 3 255 252
-21.2389 30.5949 -30.9242 59 255 196
-17.7775 34.181 -31.3418 255 211 0
-19.2375 30.6651 -31.1385 244 255 11
-20.7695 27.311 -30.9403 0 225 255
-18.8074 44.0531 -30.4336 126 255 129
-19.4691 50.4738 -29.1459 90 255 165
-17.7089 47.7123 -30.2522 255 217 0
-16.2233 44.7488 -31.1191 255 48 0
-13.7076 45.3936 -31.804 255 56 0
-11.2897 45.9366 -32.4434 229 255 26
-13.1224 62.9496 -29.6545 255 232 0
-11.3406 60.0999 -31.0211 128 0 0
-7.33988 64.5866 -31.8506 233 0 0
-8.55799 60.8608 -32.1002 204 0 0
-9.82145 57.0326 -32.145 204 0 0
-8.56539 53.7473 -32.951 164 255 91
-10.1664 40.4631 -32.4245 0 0 139
-9.3823 42.4512 -32.7173 0 0 139
-16.1108 28.9148 -31.071 0 0 135
-15.1798 28.8207 -30.9848 0 0 135
-9.31272 70.7062 -29.282 0 0 148
-10.2496 72.0138 -28.3966 0 0 148
-8.38329 69.3417 -30.0956 0 0 191
-9.87322 68.9579 -29.6296 0 0 233
-9.31272 70.7062 -29.282 0 0 191
-23.49 27.438 -30.6088 0 0 128
-22.8919 28.9635 -30.675 0 0 128
-15.2815 60.4509 -29.1227 0 0 152
-15.8292 58.5441 -29.235 0 0 152
-22.7474 38.3147 -30.1059 0 0 195
-23.9068 38.0567 -29.8062 0 0 165
-23.4708 39.6942 -29.7355 0 0 165
-19.7571 25.5582 -30.8831 0 0 157
-20.6994 25.6074 -30.8677 0 0 157
-19.8272 27.2619 -30.9558 0 0 182
-19.635 45.4537 -29.9474 0 0 141
-20.1084 43.699 -30.1056 0 0 141
-18.952 52.3311 -29.0083 0 0 236
-20.4745 51.758 -28.5234 0 0 193
-19.9573 53.6153 -28.3858 0 0 193
-9.45086 48.0846 -32.8597 0 0 175
-10.1381 46.127 -32.7195 0 0 175
-10.6025 47.8943 -32.5836 0 0 209
-10.924 38.4943 -32.1999 0 0 170
-11.2078 40.4037 -32.3324 0 0 202
-10.1664 40.4631 -32.4245 0 0 170
-10.7063 36.571 -32.004 0 0 170
-11.7478 36.5117 -31.9118 0 0 202
-10.924 38.4943 -32.1999 0 0 170
-17.1085 28.9048 -31.0664 0 0 164
-16.2216 30.7346 -31.2472 0 0 192
-16.1108 28.9148 -31.071 0 0 164
-17.9414 27.1489 -30.9307 0 0 160
-18.0521 28.9687 -31.1069 0 0 187
-17.1085 28.9048 -31.0664 0 0 160
-18.8753 25.4164 -30.8056 0 0 133
-17.9414 27.1489 -30.9307 0 0 133
-11.8512 71.5286 -27.9244 0 0 194
-11.2981 73.22 -27.5051 0 0 150
-10.2496 72.0138 -28.3966 0 0 194
-12.414 69.7855 -28.2577 0 0 152
-11.8512 71.5286 -27.9244 0 0 152
-11.378 68.5164 -29.081 0 0 245
-12.9894 67.9795 -28.5227 0 0 199
-12.414 69.7855 -28.2577 0 0 199
-4.84693 61.3891 -33.2697 0 0 173
-5.41047 63.1272 -32.7843 0 0 207
-4.26462 63.1863 -33.0801 0 0 173
-5.44348 59.5844 -33.3669 0 0 140
-4.84693 61.3891 -33.2697 0 0 140
-6.0721 57.7131 -33.411 0 0 177
-6.62139 59.4588 -33.018 0 0 212
-5.44348 59.5844 -33.3669 0 0 177
-6.72212 55.8369 -33.3655 0 0 141
-6.0721 57.7131 -33.411 0 0 141
-14.206 28.7905 -30.9486 0 0 166
-15.1798 28.8207 -30.9848 0 0 166
-14.2501 30.7144 -31.2156 0 0 196
-19.4792 55.458 -28.207 0 0 150
-19.9573 53.6153 -28.3858 0 0 150
-17.9009 56.0806 -28.7546 0 0 152
-19.4792 55.458 -28.207 0 0 152
-16.408 56.6213 -29.2981 0 0 194
-16.9419 54.7291 -29.4142 0 0 239
-17.9009 56.0806 -28.7546 0 0 194
-14.8702 57.1927 -29.8946 0 0 244
-16.408 56.6213 -29.2981 0 0 198
-15.8292 58.5441 -29.235 0 0 198
-5.68573 69.8153 -30.8449 0 0 143
-7.01098 69.6194 -30.5269 0 0 143
-4.99735 68.2312 -31.5722 0 0 140
-5.68573 69.8153 -30.8449 0 0 140
-4.31185 66.619 -32.2167 0 0 173
-5.51367 66.5365 -31.9503 0 0 207
-4.99735 68.2312 -31.5722 0 0 173
-3.74244 64.8959 -32.7946 0 0 137
-4.31185 66.619 -32.2167 0 0 137
-4.26462 63.1863 -33.0801 0 0 137
-3.74244 64.8959 -32.7946 0 0 137
-23.3339 25.8956 -30.7383 0 0 128
-22.4911 25.7785 -30.7996 0 0 128
-24.2225 36.5055 -29.8668 0 0 132
-23.9068 38.0567 -29.8062 0 0 132
-23.6209 35.0972 -30.1759 0 0 132
-24.2225 36.5055 -29.8668 0 0 132
-23.0521 33.6209 -30.4267 0 0 157
-23.6209 35.0972 -30.1759 0 0 157
-22.6147 35.201 -30.4274 0 0 182
-22.6088 32.1269 -30.627 0 0 131
-23.0521 33.6209 -30.4267 0 0 131
-22.2054 30.562 -30.75 0 0 155
-22.6088 32.1269 -30.627 0 0 155
-21.6424 32.1599 -30.8012 0 0 180
-21.9254 28.9964 -30.8493 0 0 179
-22.8919 28.9635 -30.675 0 0 155
-22.2054 30.562 -30.75 0 0 155
-21.5699 25.735 -30.8826 0 0 153
-22.4911 25.7785 -30.7996 0 0 153
-21.6907 27.3545 -30.8573 0 0 177
-21.5699 25.735 -30.8826 0 0 129
-20.6994 25.6074 -30.8677 0 0 129
-19.7571 25.5582 -30.8831 0 0 131
-18.8753 25.4164 -30.8056 0 0 131
-23.1332 41.302 -29.5921 0 0 136
-23.4708 39.6942 -29.7355 0 0 136
-21.8604 41.6486 -29.9065 0 0 139
-23.1332 41.302 -29.5921 0 0 139
-20.6487 41.9202 -30.1863 0 0 170
-21.0996 40.2238 -30.3151 0 0 202
-21.8604 41.6486 -29.9065 0 0 170
-19.3476 42.2742 -30.5142 0 0 211
-20.6487 41.9202 -30.1863 0 0 176
-20.1084 43.699 -30.1056 0 0 176
-20.924 49.9654 -28.7299 0 0 147
-20.4745 51.758 -28.5234 0 0 147
-19.9659 48.6641 -29.3035 0 0 147
-20.924 49.9654 -28.7299 0 0 147
-19.0858 47.2834 -29.8567 0 0 183
-19.9659 48.6641 -29.3035 0 0 183
-18.589 49.093 -29.6991 0 0 222
-18.2582 45.8827 -30.3429 0 0 221
-19.635 45.4537 -29.9474 0 0 183
-19.0858 47.2834 -29.8567 0 0 183
-9.7183 44.3449 -32.7763 0 0 175
-10.8699 44.1546 -32.5002 0 0 210
-10.1381 46.127 -32.7195 0 0 175
-9.3823 42.4512 -32.7173 0 0 139
-9.7183 44.3449 -32.7763 0 0 139
-13.554 66.1403 -28.7378 0 0 153
-12.9894 67.9795 -28.5227 0 0 153
-14.1385 64.2599 -28.892 0 0 201
-13.554 66.1403 -28.7378 0 0 201
-12.5379 64.83 -29.5003 0 0 248
-14.697 62.3679 -29.0341 0 0 153
-14.1385 64.2599 -28.892 0 0 153
-13.7069 61.0325 -29.743 0 0 248
-15.2815 60.4509 -29.1227 0 0 201
-14.697 62.3679 -29.0341 0 0 201
-7.57148 67.8711 -30.8746 0 0 225
-8.38329 69.3417 -30.0956 0 0 185
-7.01098 69.6194 -30.5269 0 0 185
-7.37981 53.9169 -33.31 0 0 178
-7.9077 55.6674 -33.0065 0 0 214
-6.72212 55.8369 -33.3655 0 0 178
-8.06557 51.9905 -33.1688 0 0 142
-7.37981 53.9169 -33.31 0 0 142
-8.74051 50.0427 -33.0552 0 0 177
-9.24033 51.7996 -32.8374 0 0 213
-8.06557 51.9905 -33.1688 0 0 177
-9.45086 48.0846 -32.8597 0 0 142
-8.74051 50.0427 -33.0552 0 0 142
-23.49 27.438 -30.6088 0 0 128
-23.3339 25.8956 -30.7383 0 0 128
-10.558 34.5292 -31.7087 0 0 138
-10.7063 36.571 -32.004 0 0 138
-11.4588 32.5415 -31.3805 0 0 138
-10.558 34.5292 -31.7087 0 0 138
-12.3319 30.5894 -31.1123 0 0 168
-12.4032 32.6363 -31.4476 0 0 199
-11.4588 32.5415 -31.3805 0 0 168
-13.2955 28.6458 -30.829 0 0 137
-12.3319 30.5894 -31.1123 0 0 137
-14.206 28.7905 -30.9486 0 0 136
-13.2955 28.6458 -30.829 0 0 136
3 57 56 15
3 0 19 17
3 59 58 20
3 2 24 22
3 2 26 24
3 60 27 61
3 62 29 63
3 64 63 27
3 62 63 64
3 1 65 66
3 3 33 31
3 5 34 16
3 5 35 34
3 67 36 68
3 8 69 71
3 69 38 70
3 69 70 71
3 9 39 18
3 9 40 39
3 4 41 32
3 10 42 21
3 10 43 42
3 10 72 74
3 74 73 43
3 72 73 74
3 75 44 76
3 6 77 79
3 77 45 78
3 77 78 79
3 11 46 23
3 11 47 46
3 11 48 47
3 12 49 25
3 12 80 82
3 82 81 49
3 80 81 82
3 13 50 28
3 13 51 50
3 7 52 37
3 14 53 30
3 14 54 53
3 14 55 54
3 15 16 3
3 83 16 84
3 85 84 15
3 83 84 85
3 86 5 87
3 88 87 16
3 86 87 88
3 17 18 8
3 19 18 17
3 19 9 18
3 20 21 4
3 89 21 90
3 91 90 20
3 89 90 91
3 92 10 93
3 94 93 21
3 92 93 94
3 96 95 10
3 22 23 6
3 24 23 22
3 24 11 23
3 24 25 11
3 26 25 24
3 26 12 25
3 27 97 99
3 97 98 99
3 27 100 101
3 27 102 104
3 102 28 103
3 102 103 104
3 29 28 27
3 29 13 28
3 105 30 106
3 107 106 7
3 105 106 107
3 108 30 109
3 110 14 111
3 112 111 30
3 110 111 112
3 114 113 14
3 31 32 0
3 33 32 31
3 33 4 32
3 16 33 3
3 34 33 16
3 34 4 33
3 34 20 4
3 35 20 34
3 35 115 117
3 117 116 20
3 115 116 117
3 118 6 119
3 120 6 121
3 122 22 123
3 124 123 6
3 122 123 124
3 36 125 127
3 125 22 126
3 125 126 127
3 36 2 22
3 128 37 129
3 130 37 131
3 132 7 133
3 134 133 37
3 132 133 134
3 135 7 136
3 138 137 7
3 140 139 1
3 38 141 142
3 38 143 144
3 18 38 8
3 39 38 18
3 39 145 147
3 147 146 38
3 145 146 147
3 39 148 149
3 40 150 152
3 152 151 39
3 150 151 152
3 40 153 155
3 153 1 154
3 153 154 155
3 32 19 0
3 41 19 32
3 41 9 19
3 21 41 4
3 42 41 21
3 42 9 41
3 42 40 9
3 43 40 42
3 43 1 40
3 43 156 158
3 158 157 1
3 156 157 158
3 160 159 43
3 162 161 10
3 163 8 164
3 165 8 166
3 167 17 168
3 169 168 8
3 167 168 169
3 44 170 172
3 170 17 171
3 170 171 172
3 44 0 17
3 45 173 174
3 45 175 176
3 23 45 6
3 46 45 23
3 46 177 179
3 179 178 45
3 177 178 179
3 46 180 182
3 180 44 181
3 180 181 182
3 47 44 46
3 47 0 44
3 47 31 0
3 48 31 47
3 48 3 31
3 25 48 11
3 49 48 25
3 49 3 48
3 49 15 3
3 183 15 184
3 185 184 49
3 183 184 185
3 187 186 15
3 28 188 189
3 50 190 192
3 192 191 28
3 190 191 192
3 50 193 194
3 50 195 197
3 195 36 196
3 195 196 197
3 51 36 50
3 51 2 36
3 37 198 200
3 198 29 199
3 198 199 200
3 52 29 37
3 52 13 29
3 30 52 7
3 53 52 30
3 53 13 52
3 53 51 13
3 54 51 53
3 54 2 51
3 54 26 2
3 55 26 54
3 55 12 26
3 201 55 202
3 203 202 14
3 201 202 203
3 204 55 205
3 206 12 207
3 208 207 55
3 206 207 208
3 210 209 12
3 212 211 1
3 213 5 214
3 215 5 216
3 217 35 218
3 219 218 5
3 217 218 219
3 220 35 221
3 223 222 35
