ply
format ascii 1.0
element vertex 205
property float x
property float y
property float z
property uchar red
property uchar green
property uchar blue
element face 207
property list uchar int vertex_index
end_header
-49.2952 -30.4881 63.4286 128 0 0
-46.7002 -27.7499 67.8165 255 251 0
-51.9814 -23.5853 60.3351 255 231 0
-44.7537 -21.9998 59.8468 29 255 226
-46.6861 -32.7375 67.2039 165 0 0
-43.3881 -27.2051 67.2699 113 255 142
-46.0866 -24.7891 64.0686 255 59 0
-51.1956 -21.0158 56.4014 218 0 0
-48.863 -28.7698 66.6938 228 255 27
-51.4466 -26.681 62.8132 255 252 0
-49.4239 -25.4285 64.2919 255 249 0
-48.5607 -22.7043 60.3897 255 6 0
-47.1738 -20.1107 55.9928 68 255 187
-45.8867 -31.199 70.1276 200 255 55
-48.9215 -31.5723 61.1564 183 255 72
-50.5103 -29.5146 61.4261 234 255 21
-48.0316 -31.5762 65.3585 140 0 0
-46.4574 -33.7121 65.0044 255 191 0
-47.7121 -32.5978 63.1085 255 182 0
-43.0082 -25.7193 65.2998 10 255 245
-50.5867 -19.7441 54.1922 98 255 157
-52.6179 -20.248 54.351 74 255 181
-47.979 -28.1742 67.5209 173 255 82
-49.3514 -27.0096 65.723 179 255 76
-48.1052 -26.541 66.1162 255 254 0
-45.4414 -23.4057 61.946 255 251 0
-47.3223 -23.6919 62.28 255 34 0
-46.6222 -22.3722 60.1018 254 0 0
-47.855 -21.4339 58.1772 215 0 0
-45.9156 -21.0205 57.9469 165 255 90
-45.1596 -29.0053 69.3843 99 255 156
-44.8415 -30.6585 70.7365 0 212 255
-46.4893 -29.4093 69.194 175 255 80
-47.4434 -29.9656 68.4711 212 255 43
-51.9152 -25.0431 61.7993 200 255 55
-52.6806 -25.8405 60.737 6 255 249
-53.1735 -24.2619 59.7073 0 234 255
-45.2248 -33.9218 68.953 191 255 64
-45.1246 -34.8683 66.83 165 255 90
-45.1271 -27.4517 67.6798 255 138 0
-46.5432 -26.2193 66.0708 255 138 0
-44.7959 -25.975 65.7357 255 77 0
-44.2588 -24.5312 63.6847 128 255 127
-43.5573 -28.7017 69.1532 0 241 255
-51.7067 -22.2667 58.497 255 87 0
-53.2788 -22.8412 58.2435 34 255 221
-53.0592 -21.5283 56.4203 125 255 130
-49.2989 -29.5458 65.3124 255 92 0
-50.5627 -28.5034 63.3498 255 78 0
-50.1846 -27.6627 64.8039 244 255 11
-50.6504 -25.9586 63.8108 189 255 66
-50.7037 -24.4416 62.3585 255 240 0
-47.8587 -25.0597 64.3315 255 129 0
-49.1289 -24.0102 62.4757 255 115 0
-50.4011 -23.0834 60.5233 255 99 0
-49.8443 -21.8214 58.4218 236 0 0
-49.1729 -20.5701 56.1991 255 176 0
-44.1606 -32.4125 71.6573 0 149 255
-44.9101 -33.098 70.5876 51 255 204
-46.5077 -31.8932 68.941 255 141 0
-47.9594 -30.6911 67.1796 255 114 0
-51.784 -27.5946 61.3044 108 255 147
-51.3379 -19.3298 53.184 0 0 147
-50.3114 -19.054 53.1083 0 0 147
-45.5688 -34.8133 64.673 0 0 158
-46.184 -34.2525 63.7411 0 0 158
-43.3913 -24.3626 63.5295 0 0 172
-43.6335 -25.1253 64.4922 0 0 206
-42.766 -24.9567 64.337 0 0 172
-43.9515 -23.7964 62.6744 0 0 138
-43.3913 -24.3626 63.5295 0 0 138
-43.4727 -27.9534 68.2116 0 0 207
-42.6834 -28.561 68.912 0 0 173
-42.5988 -27.8127 67.9704 0 0 173
-53.5375 -20.5379 54.3328 0 0 142
-53.3593 -19.8632 53.3199 0 0 142
-47.8609 -19.6745 55.0022 0 0 186
-48.8605 -19.9042 55.1053 0 0 186
-48.1734 -20.3404 56.0959 0 0 227
-52.8346 -26.3356 59.965 0 0 135
-53.2944 -25.488 59.6659 0 0 135
-53.8598 -23.2172 57.9003 0 0 130
-53.9411 -22.5083 57.1751 0 0 130
-49.5183 -31.1224 60.1591 0 0 157
-48.6115 -32.1747 59.907 0 0 157
-50.3127 -30.0936 60.294 0 0 199
-49.5183 -31.1224 60.1591 0 0 199
-49.7159 -30.5434 61.2912 0 0 246
-51.1078 -29.0982 60.3958 0 0 151
-50.3127 -30.0936 60.294 0 0 151
-46.8114 -33.6954 62.7932 0 0 212
-46.184 -34.2525 63.7411 0 0 212
-47.0848 -33.1549 64.0565 0 11 255
-47.41 -33.1653 61.8432 0 0 158
-46.8114 -33.6954 62.7932 0 0 158
-48.0147 -32.6525 60.8671 0 0 212
-47.41 -33.1653 61.8432 0 0 212
-48.3168 -32.085 62.1325 0 11 255
-48.6115 -32.1747 59.907 0 0 157
-48.0147 -32.6525 60.8671 0 0 157
-42.3159 -26.3195 66.0419 0 0 173
-43.1982 -26.4622 66.2848 0 0 208
-42.5059 -27.0624 67.027 0 0 173
-42.1644 -25.5398 65.1312 0 0 137
-42.3159 -26.3195 66.0419 0 0 137
-42.766 -24.9567 64.337 0 0 137
-42.1644 -25.5398 65.1312 0 0 137
-42.5059 -27.0624 67.027 0 0 139
-42.5988 -27.8127 67.9704 0 0 139
-52.3535 -19.5817 53.2634 0 0 189
-51.6023 -19.9961 54.2716 0 0 231
-51.3379 -19.3298 53.184 0 0 189
-53.3593 -19.8632 53.3199 0 0 146
-52.3535 -19.5817 53.2634 0 0 146
-45.0006 -29.8319 70.0604 0 0 183
-44.1421 -30.4528 70.7772 0 0 157
-44.3012 -29.6262 70.101 0 0 157
-53.5408 -24.6987 59.1511 0 0 156
-53.2944 -25.488 59.6659 0 0 156
-52.927 -25.0512 60.2222 0 0 182
-44.453 -34.9696 68.761 0 0 148
-44.4214 -34.4998 69.7728 0 0 148
-44.4029 -35.4429 67.6995 0 0 194
-44.453 -34.9696 68.761 0 0 194
-45.1747 -34.3951 67.8915 0 0 239
-44.2541 -35.9593 66.4903 0 0 156
-44.4029 -35.4429 67.6995 0 0 156
-44.9024 -35.3914 65.5858 0 0 211
-45.791 -34.2902 65.9172 0 9 255
-45.5688 -34.8133 64.673 0 0 211
-44.2541 -35.9593 66.4903 0 0 156
-44.9024 -35.3914 65.5858 0 0 156
-44.5428 -23.2337 61.805 0 0 175
-44.8501 -23.9685 62.8153 0 0 210
-43.9515 -23.7964 62.6744 0 0 175
-44.199 -22.5307 60.7554 0 0 175
-45.0976 -22.7028 60.8964 0 0 211
-44.5428 -23.2337 61.805 0 0 175
-42.6762 -29.3043 69.8241 0 0 139
-42.6834 -28.561 68.912 0 0 139
-43.5 -29.4744 69.9855 0 0 136
-42.6762 -29.3043 69.8241 0 0 136
-44.3585 -28.8535 69.2688 0 0 197
-44.3012 -29.6262 70.101 0 0 166
-43.5 -29.4744 69.9855 0 0 166
-53.8314 -21.8519 56.2635 0 0 168
-53.9411 -22.5083 57.1751 0 0 168
-53.169 -22.1847 57.3319 0 0 199
-53.7582 -21.1781 55.3674 0 0 180
-52.8386 -20.8881 55.3857 0 0 218
-53.5375 -20.5379 54.3328 0 0 180
-53.8314 -21.8519 56.2635 0 0 136
-53.7582 -21.1781 55.3674 0 0 136
-49.5674 -19.4912 54.1019 0 0 188
-49.8798 -20.1571 55.1956 0 0 231
-48.8605 -19.9042 55.1053 0 0 188
-50.3114 -19.054 53.1083 0 0 147
-49.5674 -19.4912 54.1019 0 0 147
-43.9283 -21.7527 59.8227 0 0 137
-44.199 -22.5307 60.7554 0 0 137
-44.4701 -21.2504 58.876 0 0 137
-43.9283 -21.7527 59.8227 0 0 137
-45.0511 -20.7607 57.9261 0 0 174
-45.3347 -21.5102 58.8968 0 0 208
-44.4701 -21.2504 58.876 0 0 174
-45.643 -20.2897 56.9521 0 0 139
-45.0511 -20.7607 57.9261 0 0 139
-46.2721 -19.8348 55.9751 0 0 178
-46.5447 -20.5656 56.9698 0 0 214
-45.643 -20.2897 56.9521 0 0 178
-46.9284 -19.382 54.9883 0 0 141
-46.2721 -19.8348 55.9751 0 0 141
-47.8609 -19.6745 55.0022 0 0 143
-46.9284 -19.382 54.9883 0 0 143
-43.9242 -31.2603 71.4422 0 0 130
-44.1421 -30.4528 70.7772 0 0 130
-43.5838 -32.1373 71.9026 0 0 152
-43.9242 -31.2603 71.4422 0 0 152
-44.5011 -31.5355 71.1969 0 0 176
-43.2037 -32.9826 72.3577 0 0 151
-42.6269 -32.7074 72.6029 0 0 128
-43.5838 -32.1373 71.9026 0 0 151
-43.6511 -33.3326 71.884 0 0 131
-43.2037 -32.9826 72.3577 0 0 131
-44.0258 -33.6754 71.3492 0 0 157
-43.6511 -33.3326 71.884 0 0 157
-44.5353 -32.7552 71.1225 0 0 184
-44.264 -34.0879 70.5902 0 0 139
-44.0258 -33.6754 71.3492 0 0 139
-45.0674 -33.5099 69.7703 0 0 210
-44.4214 -34.4998 69.7728 0 0 175
-44.264 -34.0879 70.5902 0 0 175
-51.7446 -28.1382 60.335 0 0 183
-51.1078 -29.0982 60.3958 0 0 183
-51.1472 -28.5546 61.3652 0 0 223
-52.3863 -27.2126 60.2487 0 0 167
-52.2323 -26.7176 61.0207 0 0 199
-52.8346 -26.3356 59.965 0 0 167
-51.7446 -28.1382 60.335 0 0 143
-52.3863 -27.2126 60.2487 0 0 143
-53.8072 -23.9275 58.6322 0 0 157
-53.2261 -23.5515 58.9754 0 0 183
-53.8598 -23.2172 57.9003 0 0 157
-53.5408 -24.6987 59.1511 0 0 130
-53.8072 -23.9275 58.6322 0 0 130
3 0 15 14
3 0 18 16
3 0 14 18
3 63 62 20
3 1 24 22
3 3 27 25
3 3 29 27
3 1 32 30
3 1 22 32
3 2 36 34
3 4 38 37
3 65 64 17
3 5 41 39
3 66 42 67
3 68 67 19
3 66 67 68
3 70 69 42
3 5 71 73
3 71 43 72
3 71 72 73
3 5 39 43
3 7 46 44
3 75 74 21
3 8 49 47
3 10 50 23
3 10 51 50
3 6 52 40
3 11 53 26
3 11 54 53
3 11 55 54
3 12 56 28
3 12 76 78
3 78 77 56
3 76 77 78
3 13 57 31
3 13 58 57
3 13 59 58
3 8 60 33
3 8 47 60
3 9 61 48
3 80 79 35
3 82 81 45
3 14 83 84
3 15 85 87
3 87 86 14
3 85 86 87
3 15 88 89
3 16 17 4
3 18 17 16
3 18 90 92
3 92 91 17
3 90 91 92
3 18 93 94
3 14 95 97
3 97 96 18
3 95 96 97
3 14 98 99
3 100 19 101
3 102 101 5
3 100 101 102
3 103 19 104
3 106 105 19
3 107 5 108
3 20 21 7
3 109 21 110
3 111 110 20
3 109 110 111
3 113 112 21
3 22 23 8
3 24 23 22
3 24 10 23
3 25 26 6
3 27 26 25
3 27 11 26
3 27 28 11
3 29 28 27
3 29 12 28
3 30 114 116
3 114 31 115
3 114 115 116
3 32 31 30
3 32 13 31
3 32 33 13
3 22 33 32
3 22 8 33
3 34 35 9
3 36 35 34
3 36 117 119
3 119 118 35
3 117 118 119
3 37 120 121
3 38 122 124
3 124 123 37
3 122 123 124
3 38 125 126
3 17 38 4
3 127 38 128
3 129 128 17
3 127 128 129
3 131 130 38
3 39 40 1
3 41 40 39
3 41 6 40
3 19 41 5
3 42 41 19
3 42 6 41
3 42 25 6
3 132 25 133
3 134 133 42
3 132 133 134
3 135 3 136
3 137 136 25
3 135 136 137
3 43 138 139
3 43 140 141
3 43 142 144
3 142 30 143
3 142 143 144
3 39 30 43
3 39 1 30
3 44 45 2
3 46 45 44
3 46 145 147
3 147 146 45
3 145 146 147
3 21 46 7
3 148 46 149
3 150 149 21
3 148 149 150
3 152 151 46
3 47 48 0
3 49 48 47
3 49 9 48
3 23 49 8
3 50 49 23
3 50 9 49
3 50 34 9
3 51 34 50
3 51 2 34
3 40 24 1
3 52 24 40
3 52 10 24
3 26 52 6
3 53 52 26
3 53 10 52
3 53 51 10
3 54 51 53
3 54 2 51
3 54 44 2
3 55 44 54
3 55 7 44
3 28 55 11
3 56 55 28
3 56 7 55
3 56 20 7
3 153 20 154
3 155 154 56
3 153 154 155
3 157 156 20
3 158 3 159
3 160 3 161
3 162 29 163
3 164 163 3
3 162 163 164
3 165 29 166
3 167 12 168
3 169 168 29
3 167 168 169
3 170 12 171
3 173 172 12
3 31 174 175
3 57 176 178
3 178 177 31
3 176 177 178
3 57 179 181
3 179 180 181
3 57 182 183
3 58 184 186
3 186 185 57
3 184 185 186
3 58 187 188
3 58 189 191
3 189 37 190
3 189 190 191
3 59 37 58
3 59 4 37
3 33 59 13
3 60 59 33
3 60 4 59
3 60 16 4
3 47 16 60
3 47 0 16
3 48 15 0
3 61 15 48
3 61 192 194
3 194 193 15
3 192 193 194
3 35 61 9
3 195 61 196
3 197 196 35
3 195 196 197
3 199 198 61
3 45 36 2
3 200 36 201
3 202 201 45
3 200 201 202
3 204 203 36
