ply
format ascii 1.0
element vertex 181
property float x
property float y
property float z
property uchar red
property uchar green
property uchar blue
element face 173
property list uchar int vertex_index
end_header
6.60082 -108.632 33.7257 255 241 0
13.2726 -103.694 42.416 231 255 24
13.5664 -110.135 29.5415 233 255 22
8.1049 -104.871 38.8858 0 137 255
10.2139 -99.3001 47.5276 0 10 255
12.3823 -100.227 47.6992 0 61 255
10.8038 -103.179 43.5608 31 255 224
10.239 -106.869 38.4063 196 255 59
9.77828 -113.64 25.7984 61 255 194
5.85519 -112.324 27.648 94 255 161
16.321 -102.296 39.7228 98 255 157
17.1114 -105.349 32.8765 166 255 89
13.3691 -107.007 36.1691 255 25 0
9.58729 -110.289 32.2833 255 104 0
10.7035 -101.248 45.6906 0 155 255
9.86181 -102.22 43.4359 0 84 255
9.55649 -104.188 41.3095 0 220 255
6.07641 -110.467 30.7676 255 176 0
4.37235 -111.038 28.1182 0 236 255
4.84873 -109.096 31.0752 139 255 116
12.9757 -101.967 45.201 0 232 255
14.3214 -101.599 44.2991 0 192 255
14.7418 -103.22 41.2159 209 255 46
14.9952 -104.816 37.9516 220 0 0
13.3651 -105.378 39.3838 255 145 0
8.43661 -107.912 36.1672 222 255 33
9.85455 -108.604 35.435 255 204 0
7.93919 -109.681 33.2066 255 199 0
7.65992 -111.431 30.0722 255 118 0
15.4184 -107.907 31.2244 255 238 0
7.32654 -106.779 36.4471 56 255 199
5.61945 -107.182 33.8106 34 255 221
11.234 -99.9947 47.8283 0 92 255
11.7618 -101.847 45.6744 5 255 250
11.9483 -103.68 43.2181 84 255 171
11.8868 -105.464 40.4726 199 255 56
10.6047 -105.06 41.1286 97 255 158
9.02762 -106.087 38.8825 144 255 111
11.6536 -112.034 27.7523 199 255 56
4.01712 -107.367 30.9838 0 143 255
16.737 -103.827 36.3017 255 238 0
15.1864 -106.376 34.5898 128 0 0
13.4026 -108.586 32.8568 190 0 0
11.7029 -107.179 37.4781 255 185 0
11.5294 -108.829 34.3008 255 73 0
11.4842 -110.438 31.0273 244 0 0
9.5412 -111.957 29.0397 255 30 0
7.67863 -113.199 26.8544 133 255 122
9.4925 -101.537 43.1602 0 0 133
9.83516 -101.214 44.3538 0 0 133
9.31115 -102.556 42.232 0 0 134
9.4925 -101.537 43.1602 0 0 134
14.6715 -109.779 28.7443 0 0 202
15.5976 -108.665 29.5858 0 0 202
14.4924 -109.021 30.3829 0 0 247
7.33016 -105.062 37.5798 0 0 164
6.94098 -106.016 36.3604 0 0 164
7.71572 -105.825 37.6665 0 0 190
10.724 -99.6474 47.678 0 0 159
10.7792 -99.0743 48.759 0 0 143
10.2691 -98.727 48.6086 0 0 143
10.9315 -113.641 25.1801 0 0 193
11.8691 -112.838 26.157 0 0 193
10.7159 -112.837 26.7754 0 0 233
5.05918 -112.683 26.3327 0 0 147
5.92138 -113.278 26.053 0 0 147
3.64263 -111.254 26.7007 0 0 144
3.82689 -110.21 28.176 0 0 144
4.5179 -106.376 32.2308 0 0 173
4.81829 -107.274 32.3972 0 0 203
5.31907 -106.284 33.6443 0 0 173
12.5228 -99.3044 48.6957 0 0 129
11.9128 -99.3644 48.7981 0 0 129
16.8106 -100.916 40.6399 0 0 154
16.0459 -101.531 41.3845 0 0 154
17.1523 -101.65 38.8971 0 0 157
16.8106 -100.916 40.6399 0 0 157
16.529 -103.062 38.0122 0 0 249
17.3603 -102.415 37.1866 0 0 204
17.1523 -101.65 38.8971 0 0 204
5.92138 -113.278 26.053 0 0 180
6.83309 -113.716 25.6562 0 0 180
6.76691 -112.761 27.2512 0 0 214
18.1124 -104.687 32.0267 0 0 162
17.8364 -103.926 33.7282 0 0 162
7.79363 -104.073 38.6668 0 0 137
8.4327 -103.882 39.9569 0 0 137
10.256 -100.728 45.4812 0 0 148
10.4587 -100.274 46.6091 0 0 165
10.0112 -99.7539 46.3996 0 0 148
10.2827 -101.734 44.5633 0 0 167
10.256 -100.728 45.4812 0 0 149
9.83516 -101.214 44.3538 0 0 149
9.15849 -103.541 41.1688 0 0 154
9.70915 -103.204 42.3727 0 0 175
9.31115 -102.556 42.232 0 0 154
8.4327 -103.882 39.9569 0 0 156
8.83069 -104.53 40.0977 0 0 178
9.15849 -103.541 41.1688 0 0 156
10.0482 -114.495 24.2195 0 0 151
8.90336 -114.324 24.7219 0 0 151
4.06508 -109.239 29.6545 0 0 177
3.82689 -110.21 28.176 0 0 177
4.61054 -110.067 29.5967 0 0 209
13.311 -100.972 46.1693 0 0 152
13.0143 -100.102 47.4184 0 0 152
12.679 -101.097 46.4501 0 0 173
13.9838 -100.788 45.7184 0 0 160
13.311 -100.972 46.1693 0 0 160
13.6485 -101.783 44.7501 0 0 184
14.6633 -100.428 45.2444 0 0 140
13.9838 -100.788 45.7184 0 0 140
15.0461 -101.183 43.6727 0 0 144
14.6633 -100.428 45.2444 0 0 144
15.2563 -101.993 42.1311 0 0 179
15.0461 -101.183 43.6727 0 0 179
14.5316 -102.409 42.7575 0 0 212
15.5314 -102.758 40.4693 0 0 226
16.0459 -101.531 41.3845 0 0 188
15.2563 -101.993 42.1311 0 0 188
16.4754 -107.386 30.3825 0 0 207
17.3219 -106.107 31.2086 0 0 207
16.2649 -106.628 32.0505 0 0 255
16.4754 -107.386 30.3825 0 0 159
15.5976 -108.665 29.5858 0 0 159
6.08744 -106.218 35.0421 0 0 166
6.47299 -106.98 35.1289 0 0 192
6.94098 -106.016 36.3604 0 0 166
5.31907 -106.284 33.6443 0 0 142
6.08744 -106.218 35.0421 0 0 142
7.33016 -105.062 37.5798 0 0 138
7.79363 -104.073 38.6668 0 0 138
11.3387 -99.2482 48.8626 0 0 128
10.7792 -99.0743 48.759 0 0 128
11.8082 -100.111 47.7638 0 0 157
11.9128 -99.3644 48.7981 0 0 142
11.3387 -99.2482 48.8626 0 0 142
12.7925 -111.856 27.0323 0 0 197
13.7489 -110.907 27.9269 0 0 197
12.61 -111.085 28.6469 0 0 239
12.7925 -111.856 27.0323 0 0 154
11.8691 -112.838 26.157 0 0 154
10.9315 -113.641 25.1801 0 0 152
10.0482 -114.495 24.2195 0 0 152
4.31776 -112.04 26.5678 0 0 176
5.05918 -112.683 26.3327 0 0 176
5.11377 -111.681 27.8831 0 0 208
4.31776 -112.04 26.5678 0 0 146
3.64263 -111.254 26.7007 0 0 146
3.64927 -108.374 29.6088 0 0 174
4.06508 -109.239 29.6545 0 0 174
4.43293 -108.231 31.0295 0 0 205
3.80662 -106.352 30.7535 0 0 146
4.5179 -106.376 32.2308 0 0 146
3.31498 -107.388 29.4914 0 0 146
3.80662 -106.352 30.7535 0 0 146
3.64927 -108.374 29.6088 0 0 146
3.31498 -107.388 29.4914 0 0 146
13.1548 -99.1795 48.4149 0 0 131
12.5228 -99.3044 48.6957 0 0 151
13.0143 -100.102 47.4184 0 0 151
17.6492 -103.165 35.4408 0 0 161
17.3603 -102.415 37.1866 0 0 161
16.9242 -104.588 34.5891 0 3 255
17.8364 -103.926 33.7282 0 0 209
17.6492 -103.165 35.4408 0 0 209
7.85354 -114.103 25.2499 0 0 186
8.90336 -114.324 24.7219 0 0 186
8.72845 -113.42 26.3264 0 0 223
7.85354 -114.103 25.2499 0 0 148
6.83309 -113.716 25.6562 0 0 148
9.76127 -98.3338 48.313 0 0 129
10.2691 -98.727 48.6086 0 0 129
9.76564 -98.7446 47.1852 0 0 131
9.76127 -98.3338 48.313 0 0 131
10.0112 -99.7539 46.3996 0 0 131
9.76564 -98.7446 47.1852 0 0 131
18.1124 -104.687 32.0267 0 0 162
17.3219 -106.107 31.2086 0 0 162
14.6715 -109.779 28.7443 0 0 157
13.7489 -110.907 27.9269 0 0 157
3 48 15 49
3 51 50 15
3 0 19 17
3 1 21 20
3 1 22 21
3 1 24 22
3 0 27 25
3 0 17 27
3 2 52 54
3 54 53 29
3 52 53 54
3 3 55 57
3 57 56 30
3 55 56 57
3 4 58 60
3 58 32 59
3 58 59 60
3 6 33 14
3 6 34 33
3 6 36 34
3 3 37 16
3 3 30 37
3 8 61 63
3 63 62 38
3 61 62 63
3 9 64 65
3 67 66 18
3 68 39 69
3 70 69 31
3 68 69 70
3 5 71 72
3 10 73 74
3 10 75 76
3 10 77 79
3 77 40 78
3 77 78 79
3 12 41 23
3 12 42 41
3 7 43 35
3 13 44 26
3 13 45 44
3 13 46 45
3 9 47 28
3 9 80 82
3 82 81 47
3 80 81 82
3 11 83 84
3 86 85 3
3 87 14 88
3 89 88 4
3 87 88 89
3 15 90 92
3 90 14 91
3 90 91 92
3 15 6 14
3 15 16 6
3 93 16 94
3 95 94 15
3 93 94 95
3 96 3 97
3 98 97 16
3 96 97 98
3 100 99 8
3 17 18 9
3 19 18 17
3 19 101 103
3 103 102 18
3 101 102 103
3 20 104 106
3 106 105 5
3 104 105 106
3 21 107 109
3 109 108 20
3 107 108 109
3 21 110 111
3 21 112 113
3 22 114 116
3 116 115 21
3 114 115 116
3 22 117 119
3 117 10 118
3 117 118 119
3 22 23 10
3 24 23 22
3 24 12 23
3 25 26 7
3 27 26 25
3 27 13 26
3 27 28 13
3 17 28 27
3 17 9 28
3 29 120 122
3 122 121 11
3 120 121 122
3 124 123 29
3 30 31 0
3 125 31 126
3 127 126 30
3 125 126 127
3 129 128 31
3 131 130 3
3 32 132 133
3 32 134 136
3 134 5 135
3 134 135 136
3 14 32 4
3 33 32 14
3 33 5 32
3 33 20 5
3 34 20 33
3 34 1 20
3 34 35 1
3 36 35 34
3 36 7 35
3 16 36 6
3 37 36 16
3 37 7 36
3 37 25 7
3 30 25 37
3 30 0 25
3 38 137 139
3 139 138 2
3 137 138 139
3 141 140 38
3 143 142 8
3 18 144 146
3 146 145 9
3 144 145 146
3 148 147 18
3 31 19 0
3 39 19 31
3 39 149 151
3 151 150 19
3 149 150 151
3 152 39 153
3 154 39 155
3 157 156 39
3 160 159 5
3 158 159 160
3 40 161 162
3 40 163 165
3 163 11 164
3 163 164 165
3 23 40 10
3 41 40 23
3 41 11 40
3 41 29 11
3 42 29 41
3 42 2 29
3 35 24 1
3 43 24 35
3 43 12 24
3 26 43 7
3 44 43 26
3 44 12 43
3 44 42 12
3 45 42 44
3 45 2 42
3 45 38 2
3 46 38 45
3 46 8 38
3 28 46 13
3 47 46 28
3 47 8 46
3 47 166 168
3 168 167 8
3 166 167 168
3 170 169 47
3 171 4 172
3 173 4 174
3 176 175 4
3 178 177 11
3 180 179 2
