ply
format ascii 1.0
element vertex 151
property float x
property float y
property float z
property uchar red
property uchar green
property uchar blue
element face 142
property list uchar int vertex_index
end_header
-1.0304 -79.5379 37.9059 128 0 0
-2.14737 -77.1152 28.6998 207 0 0
-1.98121 -84.5049 38.8101 237 255 18
-2.89648 -83.3319 33.9069 182 0 0
-4.60978 -80.2144 24.7036 167 255 88
-2.44031 -75.6107 24.3462 72 255 183
-0.736547 -73.0713 32.6907 234 255 21
-1.67631 -78.4724 33.1881 180 0 0
-3.82138 -81.8515 29.2128 226 0 0
-3.05281 -86.3443 36.7432 100 255 155
-0.691685 -79.9422 40.3567 254 255 1
-0.524048 -77.2925 39.8997 127 255 128
-0.783398 -76.895 37.4966 246 255 9
-1.00536 -76.4154 35.1613 255 149 0
-1.36727 -79.0469 35.5155 156 0 0
-4.03044 -84.9385 31.8443 198 255 57
-3.36961 -82.6233 31.5335 206 0 0
-4.53389 -84.1313 29.4707 182 255 73
-5.01934 -83.2835 27.1486 169 255 86
-1.27169 -75.2333 30.6823 174 0 0
-0.660135 -72.4697 30.5428 99 255 156
-1.31631 -74.556 28.5149 255 180 0
-1.05126 -82.4845 40.8416 116 255 139
-1.43468 -82.0595 38.3539 134 0 0
-1.84689 -81.5463 35.9176 162 0 0
-2.42506 -83.9618 36.334 155 0 0
-3.52886 -85.6814 34.2699 216 255 39
-3.3027 -78.7524 26.7167 226 0 0
-2.30801 -76.3694 26.5138 206 0 0
-3.56338 -77.96 24.5163 180 255 75
-0.742622 -73.6167 34.8925 115 255 140
-1.17047 -75.8582 32.8927 158 0 0
-1.93882 -77.8233 30.9196 198 0 0
-2.26071 -80.9471 33.5382 187 0 0
-2.65131 -80.2704 31.2162 208 0 0
-3.00091 -79.5314 28.9458 221 0 0
-4.23617 -81.039 26.9391 240 0 0
-5.47522 -82.4255 24.8734 43 255 212
-1.32533 -73.8462 26.3715 79 255 176
-4.79671 -85.278 29.5897 0 0 171
-4.28216 -84.5349 30.6575 0 0 211
-4.54498 -85.6816 30.7765 0 0 171
-5.04866 -84.8355 28.4011 0 0 131
-4.79671 -85.278 29.5897 0 0 131
-1.51624 -83.4947 39.8259 0 0 225
-1.3202 -83.7214 41.084 0 0 180
-1.78518 -84.7315 40.0683 0 0 180
-3.81035 -86.8629 34.4449 0 0 176
-3.29083 -86.0129 35.5065 0 0 218
-3.57233 -87.1943 35.6815 0 0 176
-4.04559 -86.4748 33.2049 0 0 133
-3.81035 -86.8629 34.4449 0 0 133
-0.705884 -73.8561 36.0272 0 0 138
-0.684459 -72.3689 35.9133 0 0 138
-5.76713 -83.5354 24.9414 0 0 166
-5.24728 -82.8545 26.011 0 0 204
-5.53919 -83.9644 26.079 0 0 166
-6.00776 -83.1019 23.8071 0 0 128
-5.76713 -83.5354 24.9414 0 0 128
-0.53851 -71.5862 32.651 0 0 135
-0.632352 -71.8537 33.7157 0 0 135
-0.375484 -70.9978 30.5352 0 0 135
-0.598853 -72.1479 29.4858 0 0 135
-2.30317 -85.7114 39.0326 0 0 135
-1.78518 -84.7315 40.0683 0 0 135
-2.83897 -86.6311 37.9991 0 0 179
-2.51701 -85.4246 37.7767 0 0 223
-2.30317 -85.7114 39.0326 0 0 179
-3.36067 -87.5402 36.9407 0 0 134
-2.83897 -86.6311 37.9991 0 0 134
-3.57233 -87.1943 35.6815 0 0 134
-3.36067 -87.5402 36.9407 0 0 134
-4.78071 -79.8114 23.6009 0 0 129
-5.25575 -80.9025 23.6718 0 0 129
-0.473318 -78.7752 41.3612 0 0 137
-0.535593 -80.102 41.6088 0 0 137
-0.389499 -77.4504 41.1327 0 0 182
-0.473318 -78.7752 41.3612 0 0 182
-0.607866 -78.6174 40.1282 0 0 228
-0.425072 -76.063 40.9081 0 0 138
-0.389499 -77.4504 41.1327 0 0 138
-0.523624 -75.8971 39.7017 0 0 137
-0.425072 -76.063 40.9081 0 0 137
-0.6533 -75.6984 38.5002 0 0 184
-0.523624 -75.8971 39.7017 0 0 184
-0.653723 -77.0938 38.6981 0 0 231
-0.726272 -75.4952 37.3292 0 0 136
-0.6533 -75.6984 38.5002 0 0 136
-0.894379 -76.6552 36.329 0 0 227
-0.837253 -75.2555 36.1616 0 0 181
-0.726272 -75.4952 37.3292 0 0 181
-5.29139 -84.4116 27.24 0 0 168
-4.77662 -83.7074 28.3097 0 0 207
-5.04866 -84.8355 28.4011 0 0 168
-5.53919 -83.9644 26.079 0 0 129
-5.29139 -84.4116 27.24 0 0 129
-0.92694 -73.1911 28.4719 0 0 175
-0.598853 -72.1479 29.4858 0 0 175
-0.988222 -73.5128 29.5288 0 0 217
-1.88544 -74.3683 24.2903 0 0 132
-2.50774 -75.2373 23.266 0 0 132
-0.886432 -82.6538 42.1063 0 0 136
-1.3202 -83.7214 41.084 0 0 136
-0.71538 -81.3731 41.8512 0 0 136
-0.886432 -82.6538 42.1063 0 0 136
-0.871471 -81.2134 40.5991 0 0 226
-0.535593 -80.102 41.6088 0 0 181
-0.71538 -81.3731 41.8512 0 0 181
-4.29638 -86.1033 31.9921 0 0 173
-3.77965 -85.31 33.0571 0 0 214
-4.04559 -86.4748 33.2049 0 0 173
-4.54498 -85.6816 30.7765 0 0 132
-4.29638 -86.1033 31.9921 0 0 132
-4.2575 -78.6842 23.5073 0 0 170
-4.08658 -79.0872 24.61 0 0 210
-4.78071 -79.8114 23.6009 0 0 170
-3.68336 -77.5711 23.4256 0 0 130
-4.2575 -78.6842 23.5073 0 0 130
-3.12183 -76.3965 23.3405 0 0 172
-3.00184 -76.7853 24.4313 0 0 213
-3.68336 -77.5711 23.4256 0 0 172
-2.50774 -75.2373 23.266 0 0 131
-3.12183 -76.3965 23.3405 0 0 131
-0.63539 -72.1264 34.8166 0 0 136
-0.684459 -72.3689 35.9133 0 0 136
-0.739584 -73.344 33.7916 0 0 229
-0.632352 -71.8537 33.7157 0 0 183
-0.63539 -72.1264 34.8166 0 0 183
-0.873991 -75.016 35.0269 0 0 224
-0.705884 -73.8561 36.0272 0 0 179
-0.837253 -75.2555 36.1616 0 0 179
-5.68847 -82.0081 23.7567 0 0 168
-5.25575 -80.9025 23.6718 0 0 168
-5.0425 -81.3199 24.7885 0 0 207
-5.68847 -82.0081 23.7567 0 0 128
-6.00776 -83.1019 23.8071 0 0 128
-0.500304 -71.2854 31.5771 0 0 181
-0.53851 -71.5862 32.651 0 0 181
-0.698341 -72.7705 31.6167 0 0 226
-0.500304 -71.2854 31.5771 0 0 135
-0.375484 -70.9978 30.5352 0 0 135
-0.931452 -72.8362 27.4002 0 0 176
-0.92694 -73.1911 28.4719 0 0 176
-1.32082 -74.2011 27.4432 0 0 219
-1.32795 -73.486 25.303 0 0 173
-1.88282 -74.7284 25.3589 0 0 214
-1.88544 -74.3683 24.2903 0 0 173
-0.864575 -72.5021 26.349 0 0 134
-1.32795 -73.486 25.303 0 0 134
-0.931452 -72.8362 27.4002 0 0 133
-0.864575 -72.5021 26.349 0 0 133
3 0 11 10
3 0 12 11
3 0 14 12
3 39 17 40
3 41 40 15
3 39 40 41
3 43 42 17
3 1 21 19
3 2 44 46
3 44 22 45
3 44 45 46
3 2 23 22
3 2 25 23
3 47 26 48
3 49 48 9
3 47 48 49
3 51 50 26
3 4 29 27
3 52 30 53
3 7 31 13
3 7 32 31
3 3 33 24
3 8 34 16
3 8 35 34
3 8 36 35
3 54 37 55
3 56 55 18
3 54 55 56
3 58 57 37
3 6 59 60
3 62 61 20
3 5 38 28
3 63 2 64
3 65 9 66
3 67 66 2
3 65 66 67
3 68 9 69
3 71 70 9
3 73 72 4
3 10 74 75
3 11 76 78
3 78 77 10
3 76 77 78
3 11 79 80
3 11 81 82
3 12 83 85
3 85 84 11
3 83 84 85
3 12 86 87
3 12 88 90
3 88 13 89
3 88 89 90
3 14 13 12
3 14 7 13
3 15 16 3
3 17 16 15
3 17 8 16
3 17 18 8
3 91 18 92
3 93 92 17
3 91 92 93
3 95 94 18
3 19 20 6
3 21 20 19
3 21 96 98
3 98 97 20
3 96 97 98
3 100 99 5
3 22 101 102
3 22 103 104
3 22 105 107
3 105 10 106
3 105 106 107
3 23 10 22
3 23 0 10
3 23 24 0
3 25 24 23
3 25 3 24
3 9 25 2
3 26 25 9
3 26 3 25
3 26 15 3
3 108 15 109
3 110 109 26
3 108 109 110
3 112 111 15
3 27 28 1
3 29 28 27
3 29 5 28
3 113 29 114
3 115 114 4
3 113 114 115
3 116 29 117
3 118 5 119
3 120 119 29
3 118 119 120
3 122 121 5
3 30 123 124
3 30 125 127
3 125 6 126
3 125 126 127
3 13 128 130
3 128 30 129
3 128 129 130
3 31 30 13
3 31 6 30
3 31 19 6
3 32 19 31
3 32 1 19
3 24 14 0
3 33 14 24
3 33 7 14
3 16 33 3
3 34 33 16
3 34 7 33
3 34 32 7
3 35 32 34
3 35 1 32
3 35 27 1
3 36 27 35
3 36 4 27
3 18 36 8
3 37 36 18
3 37 4 36
3 37 131 133
3 133 132 4
3 131 132 133
3 135 134 37
3 20 136 138
3 138 137 6
3 136 137 138
3 140 139 20
3 28 21 1
3 38 21 28
3 38 141 143
3 143 142 21
3 141 142 143
3 144 38 145
3 146 145 5
3 144 145 146
3 147 38 148
3 150 149 38
