ply
format ascii 1.0
element vertex 164
property float x
property float y
property float z
property uchar red
property uchar green
property uchar blue
element face 152
property list uchar int vertex_index
end_header
68.5248 -30.525 -23.8534 201 0 0
63.6735 -37.0136 -16.2036 94 255 161
70.1675 -44.2384 -18.9399 215 255 40
70.6996 -34.8096 -25.2729 109 255 146
69.8294 -27.3662 -27.6423 139 255 116
64.9035 -43.1029 -13.8927 0 225 255
67.5019 -40.2675 -17.7547 174 0 0
65.0325 -27.3158 -22.0854 111 255 144
67.1882 -23.5779 -26.0884 223 255 32
66.2584 -33.8222 -20.065 128 0 0
69.603 -37.4164 -21.5367 255 22 0
66.8241 -28.8212 -23.0395 132 0 0
66.176 -25.4549 -24.0852 244 255 11
67.874 -27.0555 -24.9721 172 0 0
69.2054 -23.6401 -28.8752 38 255 217
64.3685 -32.2971 -19.1525 106 255 149
64.9627 -35.4461 -18.146 255 139 0
69.0963 -42.1351 -18.3723 255 11 0
68.6491 -38.8247 -19.6535 220 0 0
69.9662 -40.8348 -20.2857 255 60 0
70.5828 -39.6145 -22.1875 213 255 42
70.691 -43.1283 -20.8877 0 252 255
69.8755 -32.5026 -24.5822 255 41 0
69.3296 -28.9137 -25.7416 255 7 0
70.3335 -31.0957 -26.4495 122 255 133
64.2759 -40.0629 -15.1102 229 255 26
65.5987 -38.5805 -17.0457 137 0 0
66.2304 -41.7073 -15.8357 255 150 0
68.0233 -43.4822 -16.4464 189 255 66
69.3951 -45.4417 -16.9839 128 255 127
68.6899 -25.3166 -26.9125 231 0 0
67.9797 -21.7243 -28.1067 69 255 186
65.6247 -30.5789 -21.1025 255 132 0
67.4749 -32.1715 -21.9648 150 0 0
66.898 -37.0497 -18.9554 144 0 0
68.0954 -35.5052 -20.8437 181 0 0
69.1116 -33.9799 -22.7167 237 0 0
70.3021 -36.0719 -23.4084 255 70 0
70.9079 -38.4919 -24.0766 0 255 255
70.1731 -47.6304 -17.4843 0 146 255
62.8554 -36.2644 -15.7022 0 0 134
63.0702 -37.7563 -15.22 0 0 134
63.4099 -35.4814 -16.6944 0 0 134
62.8554 -36.2644 -15.7022 0 0 134
64.3181 -36.2298 -17.1748 0 0 221
64.0545 -34.6977 -17.6656 0 0 178
63.4099 -35.4814 -16.6944 0 0 178
63.952 -42.2838 -13.5197 0 0 178
63.2927 -42.9398 -12.5348 0 0 136
64.2442 -43.7589 -12.9078 0 0 178
64.5897 -41.5829 -14.5014 0 0 222
63.6382 -40.7638 -14.1284 0 0 179
63.952 -42.2838 -13.5197 0 0 179
68.217 -45.0905 -15.7338 0 0 135
67.4134 -44.1573 -15.4757 0 0 135
68.9029 -46.0703 -16.0026 0 0 170
68.7092 -44.462 -16.7151 0 0 208
68.217 -45.0905 -15.7338 0 0 170
64.7717 -25.6739 -22.5544 0 0 137
64.2398 -26.6245 -21.5146 0 0 137
66.3734 -22.8269 -25.5982 0 0 180
65.8674 -23.7654 -24.5966 0 0 180
66.6821 -24.5164 -25.0868 0 0 223
66.8405 -21.8392 -26.6456 0 0 139
66.3734 -22.8269 -25.5982 0 0 139
68.2288 -20.8299 -29.1299 0 0 174
68.5925 -22.6822 -28.4909 0 0 214
68.8416 -21.7878 -29.5142 0 0 174
67.6 -19.9366 -28.7117 0 0 133
68.2288 -20.8299 -29.1299 0 0 133
70.9227 -40.3119 -23.4491 0 0 163
70.7453 -39.0532 -23.1321 0 0 197
70.7602 -40.8732 -22.5045 0 0 163
70.9005 -39.8705 -24.4045 0 0 130
70.9227 -40.3119 -23.4491 0 0 130
70.0612 -49.3201 -16.6997 0 0 128
69.8374 -48.1887 -16.4829 0 0 128
70.7357 -34.2232 -26.2035 0 0 130
70.8109 -36.139 -25.6115 0 0 130
65.1994 -44.6198 -13.2187 0 0 137
64.2442 -43.7589 -12.9078 0 0 137
65.8536 -43.9676 -14.1989 0 0 137
65.1994 -44.6198 -13.2187 0 0 137
69.5975 -24.7733 -29.2224 0 0 165
69.5174 -25.5032 -28.2588 0 0 200
69.9095 -26.6363 -28.6059 0 0 165
69.2923 -22.8489 -29.8749 0 0 131
69.5975 -24.7733 -29.2224 0 0 131
68.8416 -21.7878 -29.5142 0 0 130
69.2923 -22.8489 -29.8749 0 0 130
63.7574 -33.1232 -18.1689 0 0 135
63.5507 -31.5806 -18.6109 0 0 135
64.6656 -33.8716 -18.6493 0 0 223
63.7574 -33.1232 -18.1689 0 0 180
64.0545 -34.6977 -17.6656 0 0 180
70.8142 -42.6301 -21.8546 0 0 163
70.7602 -40.8732 -22.5045 0 0 163
70.6369 -41.3714 -21.5376 0 0 197
70.5526 -32.3662 -26.7919 0 0 163
70.5165 -32.9527 -25.8612 0 0 197
70.7357 -34.2232 -26.2035 0 0 163
70.3951 -30.4351 -27.3892 0 0 130
70.5526 -32.3662 -26.7919 0 0 130
70.1431 -28.5703 -27.9856 0 0 163
70.0814 -29.231 -27.0459 0 0 198
70.3951 -30.4351 -27.3892 0 0 163
69.9095 -26.6363 -28.6059 0 0 130
70.1431 -28.5703 -27.9856 0 0 130
63.3714 -39.281 -14.6733 0 0 176
62.7337 -39.9819 -13.6916 0 0 135
63.6382 -40.7638 -14.1284 0 0 176
63.9747 -38.5383 -15.6569 0 0 219
63.0702 -37.7563 -15.22 0 0 177
63.3714 -39.281 -14.6733 0 0 177
66.517 -43.2698 -15.1704 0 0 181
65.5669 -42.4051 -14.8642 0 0 224
65.8536 -43.9676 -14.1989 0 0 181
67.1268 -42.5948 -16.1411 0 0 219
66.517 -43.2698 -15.1704 0 0 178
67.4134 -44.1573 -15.4757 0 0 178
65.3435 -24.7435 -23.5543 0 0 181
64.7717 -25.6739 -22.5544 0 0 181
65.6043 -26.3854 -23.0853 0 0 224
65.3435 -24.7435 -23.5543 0 0 139
65.8674 -23.7654 -24.5966 0 0 139
67.2362 -20.9124 -27.6548 0 0 177
66.8405 -21.8392 -26.6456 0 0 177
67.584 -22.6511 -27.0976 0 0 219
67.2362 -20.9124 -27.6548 0 0 137
67.6 -19.9366 -28.7117 0 0 137
64.4432 -28.2216 -21.0833 0 0 136
64.2398 -26.6245 -21.5146 0 0 136
64.1112 -30.7122 -19.6168 0 0 136
63.5507 -31.5806 -18.6109 0 0 136
64.7393 -29.8531 -20.5918 0 0 180
64.1112 -30.7122 -19.6168 0 0 180
64.9966 -31.438 -20.1275 0 0 223
65.3286 -28.9474 -21.594 0 0 227
64.4432 -28.2216 -21.0833 0 0 183
64.7393 -29.8531 -20.5918 0 0 183
70.915 -37.9801 -25.0134 0 0 164
70.8109 -36.139 -25.6115 0 0 164
70.8037 -36.6508 -24.6747 0 0 199
70.915 -37.9801 -25.0134 0 0 130
70.9005 -39.8705 -24.4045 0 0 130
69.4484 -47.0944 -16.2327 0 0 131
68.9029 -46.0703 -16.0026 0 0 131
69.7841 -46.5361 -17.2341 0 0 197
69.4484 -47.0944 -16.2327 0 0 163
69.8374 -48.1887 -16.4829 0 0 163
70.23 -48.8518 -17.725 0 0 128
70.0612 -49.3201 -16.6997 0 0 128
70.3869 -47.1223 -18.4845 0 0 128
70.23 -48.8518 -17.725 0 0 128
70.3841 -45.4263 -19.2123 0 0 162
70.1703 -45.9344 -18.2121 0 0 196
70.3869 -47.1223 -18.4845 0 0 162
70.6458 -44.8713 -20.1862 0 0 162
70.4292 -43.6833 -19.9138 0 0 196
70.3841 -45.4263 -19.2123 0 0 162
70.7297 -44.4269 -21.1808 0 0 129
70.6458 -44.8713 -20.1862 0 0 129
70.8142 -42.6301 -21.8546 0 0 129
70.7297 -44.4269 -21.1808 0 0 129
3 0 13 11
3 1 40 41
3 1 42 43
3 1 44 46
3 44 16 45
3 44 45 46
3 2 19 17
3 2 21 19
3 3 24 22
3 5 47 49
3 47 48 49
3 5 50 52
3 50 25 51
3 50 51 52
3 5 27 25
3 53 28 54
3 55 29 56
3 57 56 28
3 55 56 57
3 7 58 59
3 8 60 62
3 62 61 12
3 60 61 62
3 8 63 64
3 4 30 23
3 65 31 66
3 67 66 14
3 65 66 67
3 69 68 31
3 9 32 15
3 9 33 32
3 6 34 26
3 10 35 18
3 10 36 35
3 10 37 36
3 70 38 71
3 72 71 20
3 70 71 72
3 74 73 38
3 75 39 76
3 78 77 3
3 79 5 80
3 82 81 5
3 11 12 7
3 13 12 11
3 13 8 12
3 83 14 84
3 85 84 4
3 83 84 85
3 86 14 87
3 89 88 14
3 90 15 91
3 16 92 94
3 92 15 93
3 92 93 94
3 16 9 15
3 17 18 6
3 19 18 17
3 19 10 18
3 19 20 10
3 21 20 19
3 21 95 97
3 97 96 20
3 95 96 97
3 22 23 0
3 24 23 22
3 24 4 23
3 98 24 99
3 100 99 3
3 98 99 100
3 101 24 102
3 103 4 104
3 105 104 24
3 103 104 105
3 107 106 4
3 25 108 110
3 108 109 110
3 25 111 113
3 111 1 112
3 111 112 113
3 25 26 1
3 27 26 25
3 27 6 26
3 114 27 115
3 116 115 5
3 114 115 116
3 28 117 119
3 117 27 118
3 117 118 119
3 28 6 27
3 28 17 6
3 29 17 28
3 29 2 17
3 12 120 122
3 122 121 7
3 120 121 122
3 124 123 12
3 23 13 0
3 30 13 23
3 30 8 13
3 14 30 4
3 31 30 14
3 31 8 30
3 31 125 127
3 127 126 8
3 125 126 127
3 129 128 31
3 130 7 131
3 15 132 133
3 32 134 136
3 136 135 15
3 134 135 136
3 32 137 139
3 137 7 138
3 137 138 139
3 32 11 7
3 33 11 32
3 33 0 11
3 26 16 1
3 34 16 26
3 34 9 16
3 18 34 6
3 35 34 18
3 35 9 34
3 35 33 9
3 36 33 35
3 36 0 33
3 36 22 0
3 37 22 36
3 37 3 22
3 20 37 10
3 38 37 20
3 38 3 37
3 38 140 142
3 142 141 3
3 140 141 142
3 144 143 38
3 145 29 146
3 39 147 149
3 147 29 148
3 147 148 149
3 39 2 29
3 150 39 151
3 152 39 153
3 154 2 155
3 156 155 39
3 154 155 156
3 157 21 158
3 159 158 2
3 157 158 159
3 160 21 161
3 163 162 21
