ply
format ascii 1.0
element vertex 162
property float x
property float y
property float z
property uchar red
property uchar green
property uchar blue
element face 149
property list uchar int vertex_index
end_header
26.5762 -34.8454 32.6746 101 255 154
25.5603 -25.643 36.0496 212 255 43
31.7136 -27.6857 31.3015 144 0 0
26.0234 -30.1746 34.4132 160 0 0
28.7771 -26.647 33.8256 179 0 0
29.257 -31.1398 32.0791 255 156 0
22.7097 -29.3408 36.4278 75 255 180
23.2967 -33.9803 34.7735 226 255 29
31.3431 -23.1737 32.9498 189 255 66
34.1666 -24.045 30.0014 205 0 0
26.3818 -32.5471 33.4894 134 0 0
27.6745 -30.7317 33.2683 128 0 0
27.9861 -33.1453 32.2971 241 255 14
23.0365 -31.609 35.5751 255 152 0
21.6997 -33.4042 35.7472 0 211 255
27.0105 -23.9637 35.7075 77 255 178
30.3156 -27.0753 32.6223 184 0 0
30.1813 -24.941 33.3564 215 0 0
31.685 -25.3213 32.0653 176 0 0
32.8669 -23.6067 31.4895 255 168 0
33.0423 -25.9563 30.6183 161 0 0
25.7727 -27.9714 35.2204 160 0 0
27.1838 -26.1712 34.9563 163 0 0
27.4625 -28.4559 34.1021 150 0 0
29.0996 -28.894 32.9199 168 0 0
30.5559 -29.4967 31.6567 156 0 0
24.1206 -27.4618 36.2735 206 255 49
24.3611 -29.7085 35.4537 173 0 0
24.7595 -32.0111 34.5583 136 0 0
24.913 -34.3739 33.7951 233 255 22
28.6346 -24.367 34.5819 255 176 0
29.964 -22.6948 34.126 61 255 194
33.9865 -21.831 30.8055 69 255 186
35.1797 -22.4425 29.1994 52 255 203
30.7141 -31.8585 30.6878 111 255 144
32.0082 -29.9659 30.2291 247 255 8
33.1667 -28.0516 29.7747 219 255 36
34.3193 -26.3658 29.065 198 255 57
35.2387 -24.646 28.4528 53 255 202
20.8749 -33.1855 36.2294 0 0 131
21.5112 -32.2442 36.1775 0 0 131
26.2854 -24.8033 35.8786 0 0 209
26.2109 -23.7188 36.2495 0 0 169
25.4858 -24.5585 36.4206 0 0 169
22.6325 -28.2822 36.8095 0 0 129
21.8734 -29.1789 36.9217 0 0 129
23.4151 -28.4013 36.3507 0 0 204
23.3379 -27.3427 36.7324 0 0 165
22.6325 -28.2822 36.8095 0 0 165
31.2934 -21.9921 33.2798 0 0 170
30.6039 -21.7526 33.8679 0 0 170
30.6536 -22.9342 33.5379 0 0 211
31.9929 -22.257 32.6149 0 0 132
31.2934 -21.9921 33.2798 0 0 132
31.4634 -32.0154 29.9181 0 0 133
30.855 -32.9332 30.1418 0 0 133
32.1104 -31.0691 29.6887 0 0 181
31.3611 -30.9122 30.4585 0 0 227
31.4634 -32.0154 29.9181 0 0 181
33.7654 -28.3567 28.9492 0 0 131
33.239 -29.2155 29.2382 0 0 131
34.3417 -27.5139 28.5944 0 0 175
33.743 -27.2087 29.4198 0 0 218
33.7654 -28.3567 28.9492 0 0 175
35.769 -24.88 27.5321 0 0 130
35.3469 -25.73 27.8954 0 0 130
35.7281 -23.7697 27.9772 0 0 132
35.769 -24.88 27.5321 0 0 132
22.0162 -30.2125 36.5178 0 0 128
21.8734 -29.1789 36.9217 0 0 128
22.1796 -31.3466 36.0915 0 0 174
22.8731 -30.4749 36.0015 0 0 217
22.0162 -30.2125 36.5178 0 0 174
22.3681 -32.5066 35.6612 0 0 219
22.1796 -31.3466 36.0915 0 0 176
21.5112 -32.2442 36.1775 0 0 176
26.9864 -22.8171 36.0416 0 0 132
26.2109 -23.7188 36.2495 0 0 132
27.7233 -23.0926 35.5008 0 0 129
26.9864 -22.8171 36.0416 0 0 129
27.3946 -35.1427 32.0252 0 0 132
26.8079 -35.9903 32.1685 0 0 132
24.7529 -25.4765 36.5513 0 0 129
25.4858 -24.5585 36.4206 0 0 129
24.0331 -26.386 36.6633 0 0 128
23.3379 -27.3427 36.7324 0 0 128
24.8405 -26.5524 36.1615 0 0 209
24.7529 -25.4765 36.5513 0 0 169
24.0331 -26.386 36.6633 0 0 169
21.0337 -34.3281 35.8444 0 0 130
20.8749 -33.1855 36.2294 0 0 130
21.8457 -34.5949 35.3633 0 0 131
21.0337 -34.3281 35.8444 0 0 131
22.6441 -34.883 34.8764 0 0 172
22.4982 -33.6922 35.2604 0 0 213
21.8457 -34.5949 35.3633 0 0 172
23.4588 -35.1162 34.3874 0 0 129
22.6441 -34.883 34.8764 0 0 129
24.267 -35.313 33.8981 0 0 171
24.1049 -34.1771 34.2843 0 0 212
23.4588 -35.1162 34.3874 0 0 171
25.1489 -35.4928 33.3435 0 0 177
24.267 -35.313 33.8981 0 0 177
24.5028 -36.4319 33.4466 0 0 133
25.9805 -35.7285 32.7833 0 0 172
25.7446 -34.6096 33.2349 0 0 213
25.1489 -35.4928 33.3435 0 0 172
26.8079 -35.9903 32.1685 0 0 132
25.9805 -35.7285 32.7833 0 0 132
28.5354 -23.2942 34.938 0 0 170
27.7233 -23.0926 35.5008 0 0 170
27.8225 -24.1653 35.1447 0 0 211
29.2001 -22.4581 34.7101 0 0 167
28.5354 -23.2942 34.938 0 0 167
29.2993 -23.5309 34.354 0 0 206
29.8922 -21.5116 34.4633 0 0 132
29.2001 -22.4581 34.7101 0 0 132
29.8922 -21.5116 34.4633 0 0 130
30.6039 -21.7526 33.8679 0 0 130
32.7548 -22.4735 31.8848 0 0 179
31.9929 -22.257 32.6149 0 0 179
32.105 -23.3902 32.2197 0 0 224
33.3147 -21.5856 31.5428 0 0 172
32.7548 -22.4735 31.8848 0 0 172
33.4267 -22.7188 31.1475 0 0 214
33.8998 -20.6692 31.1563 0 0 132
33.3147 -21.5856 31.5428 0 0 132
34.5044 -21.0275 30.3727 0 0 130
33.8998 -20.6692 31.1563 0 0 130
35.101 -21.3332 29.5697 0 0 169
34.5044 -21.0275 30.3727 0 0 169
34.5831 -22.1367 30.0025 0 0 210
35.6282 -21.547 28.7657 0 0 128
35.101 -21.3332 29.5697 0 0 128
28.0995 -34.2926 31.8364 0 0 178
27.2812 -33.9954 32.4859 0 0 223
27.3946 -35.1427 32.0252 0 0 178
28.7183 -33.3252 31.7069 0 0 130
28.0995 -34.2926 31.8364 0 0 130
29.3538 -32.3224 31.5978 0 0 175
28.6216 -32.1426 32.1881 0 0 218
28.7183 -33.3252 31.7069 0 0 175
30.0823 -32.6818 30.9022 0 0 132
30.855 -32.9332 30.1418 0 0 132
29.9856 -31.4992 31.3835 0 0 218
29.3538 -32.3224 31.5978 0 0 175
30.0823 -32.6818 30.9022 0 0 175
32.6598 -30.1727 29.4654 0 0 130
32.1104 -31.0691 29.6887 0 0 130
32.5874 -29.0087 30.0019 0 0 221
32.6598 -30.1727 29.4654 0 0 177
33.239 -29.2155 29.2382 0 0 177
34.8871 -26.5899 28.2015 0 0 133
34.3417 -27.5139 28.5944 0 0 133
34.779 -25.5059 28.7589 0 0 211
34.8871 -26.5899 28.2015 0 0 170
35.3469 -25.73 27.8954 0 0 170
35.6986 -22.6679 28.3505 0 0 171
35.2092 -23.5442 28.8261 0 0 212
35.7281 -23.7697 27.9772 0 0 171
35.6282 -21.547 28.7657 0 0 130
35.6986 -22.6679 28.3505 0 0 130
3 0 12 10
3 39 14 40
3 1 41 43
3 41 15 42
3 41 42 43
3 2 18 16
3 2 20 18
3 3 23 21
3 5 24 11
3 5 25 24
3 6 44 45
3 6 46 48
3 46 26 47
3 46 47 48
3 6 27 26
3 7 28 13
3 7 29 28
3 4 30 22
3 8 31 17
3 8 49 51
3 51 50 31
3 49 50 51
3 8 52 53
3 9 32 19
3 9 33 32
3 54 34 55
3 56 35 57
3 58 57 34
3 56 57 58
3 59 36 60
3 61 37 62
3 63 62 36
3 61 62 63
3 64 38 65
3 67 66 38
3 10 11 3
3 12 11 10
3 12 5 11
3 68 6 69
3 70 13 71
3 72 71 6
3 70 71 72
3 14 73 75
3 73 13 74
3 73 74 75
3 14 7 13
3 15 76 77
3 15 78 79
3 16 17 4
3 18 17 16
3 18 8 17
3 18 19 8
3 20 19 18
3 20 9 19
3 21 22 1
3 23 22 21
3 23 4 22
3 11 23 3
3 24 23 11
3 24 4 23
3 24 16 4
3 25 16 24
3 25 2 16
3 81 80 0
3 82 1 83
3 26 84 85
3 26 86 88
3 86 1 87
3 86 87 88
3 26 21 1
3 27 21 26
3 27 3 21
3 13 27 6
3 28 27 13
3 28 3 27
3 28 10 3
3 29 10 28
3 29 0 10
3 89 14 90
3 91 14 92
3 93 7 94
3 95 94 14
3 93 94 95
3 96 7 97
3 98 29 99
3 100 99 7
3 98 99 100
3 101 29 102
3 101 102 103
3 104 0 105
3 106 105 29
3 104 105 106
3 108 107 0
3 22 15 1
3 30 15 22
3 30 109 111
3 111 110 15
3 109 110 111
3 17 30 4
3 31 30 17
3 31 112 114
3 114 113 30
3 112 113 114
3 31 115 116
3 118 117 31
3 19 119 121
3 121 120 8
3 119 120 121
3 32 122 124
3 124 123 19
3 122 123 124
3 32 125 126
3 32 127 128
3 33 129 131
3 131 130 32
3 129 130 131
3 33 132 133
3 134 12 135
3 136 135 0
3 134 135 136
3 137 12 138
3 139 5 140
3 141 140 12
3 139 140 141
3 34 142 143
3 34 144 146
3 144 5 145
3 144 145 146
3 34 25 5
3 35 25 34
3 35 2 25
3 147 35 148
3 36 149 151
3 149 35 150
3 149 150 151
3 36 2 35
3 36 20 2
3 37 20 36
3 37 9 20
3 152 37 153
3 38 154 156
3 154 37 155
3 154 155 156
3 38 9 37
3 38 33 9
3 157 33 158
3 159 158 38
3 157 158 159
3 161 160 33
