ply
format ascii 1.0
element vertex 139
property float x
property float y
property float z
property uchar red
property uchar green
property uchar blue
element face 124
property list uchar int vertex_index
end_header
14.7979 28.0899 -25.8631 255 247 0
13.6717 27.8957 -18.8141 255 40 0
13.0852 39.9138 -23.3358 15 255 240
13.3061 34.0469 -20.8921 183 0 0
14.4792 23.1061 -20.1671 255 204 0
13.4831 33.6809 -24.3929 255 245 0
13.8984 28.2103 -22.1142 255 3 0
14.4722 30.7332 -27.0431 24 255 231
13.9929 25.2585 -19.4205 255 121 0
14.3793 22.6416 -18.6831 36 255 219
13.983 24.9385 -17.9116 187 255 68
13.1748 36.7241 -23.8939 255 245 0
13.4483 31.0848 -19.8365 232 0 0
13.4997 30.8857 -21.4481 197 0 0
13.7027 28.073 -20.3524 255 10 0
14.1589 25.5889 -21.0947 255 74 0
15.017 25.7784 -24.6188 92 255 163
13.5726 30.7771 -18.2718 165 255 90
13.7933 27.6256 -17.288 120 255 135
13.1894 36.9504 -22.1259 255 140 0
13.3343 37.0242 -20.5015 79 255 176
13.4419 33.9435 -19.2477 188 255 67
15.134 21.1365 -20.9256 0 152 255
14.9656 20.6446 -19.51 0 175 255
14.1023 24.638 -16.5084 0 136 255
14.0067 30.8518 -25.0375 255 110 0
13.3263 33.8404 -22.6099 128 0 0
13.6848 30.832 -23.1571 182 0 0
14.2387 28.3041 -23.8966 183 0 0
14.4938 25.6888 -22.7346 255 234 0
14.8196 23.1305 -21.7263 68 255 187
15.0924 28.1714 -26.9073 0 0 204
14.9296 29.493 -27.4973 0 0 204
14.6351 29.4116 -26.4531 0 0 251
13.0187 41.3483 -24.12 0 0 158
13.1384 41.5496 -23.2203 0 0 158
13.0593 39.61 -24.265 0 0 162
13.0187 41.3483 -24.12 0 0 162
13.13 38.319 -23.6149 0 0 247
13.1041 38.0152 -24.5441 0 0 202
13.0593 39.61 -24.265 0 0 202
15.4873 24.6582 -24.9821 0 0 149
15.1451 24.6222 -24.0449 0 0 149
13.697 30.7232 -17.5687 0 0 148
13.641 32.3656 -18.0316 0 0 148
13.4515 38.6646 -20.3416 0 0 149
13.3092 38.5672 -21.0517 0 0 149
13.5757 33.9487 -18.5195 0 0 150
13.5283 35.5904 -19.1268 0 0 150
13.641 32.3656 -18.0316 0 0 187
13.5073 32.3603 -18.7598 0 0 225
13.5757 33.9487 -18.5195 0 0 187
14.6183 21.4619 -18.3896 0 0 137
14.3729 22.4929 -17.9731 0 0 137
14.0662 26.1602 -16.2394 0 0 177
13.9478 26.1318 -16.8982 0 0 210
13.9117 27.654 -16.6292 0 0 177
13.6233 33.6584 -25.4011 0 0 156
13.3909 35.0315 -25.072 0 0 156
13.7449 32.2663 -24.7152 0 0 252
13.8851 32.2439 -25.7234 0 0 205
13.6233 33.6584 -25.4011 0 0 205
14.7387 30.7378 -28.0973 0 0 159
14.3146 32.0776 -27.7257 0 0 159
14.7387 30.7378 -28.0973 0 0 156
14.9296 29.493 -27.4973 0 0 156
14.1748 23.6413 -17.5874 0 0 168
14.3729 22.4929 -17.9731 0 0 168
14.1812 23.79 -18.2973 0 0 197
13.2367 36.5531 -24.8225 0 0 154
13.1041 38.0152 -24.5441 0 0 154
13.3289 35.2025 -24.1434 0 0 245
13.3909 35.0315 -25.072 0 0 200
13.2367 36.5531 -24.8225 0 0 200
15.3563 25.8061 -25.6319 0 0 193
15.2467 26.9619 -26.2541 0 0 193
14.9075 26.9342 -25.2409 0 0 234
15.3563 25.8061 -25.6319 0 0 152
15.4873 24.6582 -24.9821 0 0 152
13.8073 29.1474 -17.0768 0 0 182
13.683 29.2014 -17.7799 0 0 218
13.697 30.7232 -17.5687 0 0 182
13.9117 27.654 -16.6292 0 0 144
13.8073 29.1474 -17.0768 0 0 144
13.1846 40.012 -22.4689 0 0 157
13.1384 41.5496 -23.2203 0 0 157
13.2368 38.5303 -21.8639 0 0 199
13.1373 38.4321 -22.7308 0 0 243
13.1846 40.012 -22.4689 0 0 199
13.2619 36.9873 -21.3137 0 0 236
13.2368 38.5303 -21.8639 0 0 194
13.3092 38.5672 -21.0517 0 0 194
13.4745 37.1308 -19.7537 0 0 191
13.4515 38.6646 -20.3416 0 0 191
13.5917 38.7712 -19.5938 0 0 151
13.3881 35.4839 -19.8746 0 0 232
13.4745 37.1308 -19.7537 0 0 191
13.5283 35.5904 -19.1268 0 0 191
15.0924 28.1714 -26.9073 0 0 153
15.2467 26.9619 -26.2541 0 0 153
15.3902 20.1823 -20.7264 0 0 128
15.4522 20.4799 -21.2866 0 0 128
15.3059 19.9363 -20.0186 0 0 154
15.3902 20.1823 -20.7264 0 0 154
15.0498 20.8905 -20.2178 0 0 176
15.2623 19.5559 -19.283 0 0 136
15.3059 19.9363 -20.0186 0 0 136
14.9114 20.4634 -18.803 0 0 163
14.6724 21.6431 -19.0965 0 0 190
14.6183 21.4619 -18.3896 0 0 163
15.2623 19.5559 -19.283 0 0 136
14.9114 20.4634 -18.803 0 0 136
14.2344 23.4911 -16.8858 0 0 167
14.1748 23.6413 -17.5874 0 0 167
14.0426 24.7882 -17.21 0 0 196
14.2088 24.5631 -15.893 0 0 142
14.0662 26.1602 -16.2394 0 0 142
14.3098 23.1975 -16.1996 0 0 139
14.2088 24.5631 -15.893 0 0 139
14.2344 23.4911 -16.8858 0 0 140
14.3098 23.1975 -16.1996 0 0 140
14.1179 32.1846 -26.7262 0 0 158
14.3146 32.0776 -27.7257 0 0 158
14.2395 30.7925 -26.0403 0 2 255
14.1179 32.1846 -26.7262 0 0 208
13.8851 32.2439 -25.7234 0 0 208
14.8835 24.5774 -23.1028 0 0 185
15.1451 24.6222 -24.0449 0 0 185
14.7554 25.7336 -23.6767 0 0 222
15.0464 23.2982 -22.5986 0 0 183
14.8835 24.5774 -23.1028 0 0 183
14.6567 24.4096 -22.2304 0 0 219
15.1827 22.2206 -22.0674 0 0 141
15.0464 23.2982 -22.5986 0 0 141
15.3399 21.2237 -21.6671 0 0 160
15.1827 22.2206 -22.0674 0 0 160
14.9768 22.1335 -21.3259 0 0 185
15.4522 20.4799 -21.2866 0 0 129
15.3399 21.2237 -21.6671 0 0 129
3 0 31 33
3 33 32 7
3 31 32 33
3 1 10 8
3 2 34 35
3 2 36 37
3 2 38 40
3 38 11 39
3 38 39 40
3 1 14 12
3 1 8 14
3 42 41 16
3 44 43 17
3 45 20 46
3 47 21 48
3 49 17 50
3 51 50 21
3 49 50 51
3 4 23 22
3 53 52 9
3 54 24 55
3 56 55 18
3 54 55 56
3 5 57 58
3 5 59 61
3 59 25 60
3 59 60 61
3 3 26 19
3 6 27 13
3 6 28 27
3 6 29 28
3 4 30 15
3 4 22 30
3 7 62 63
3 65 64 7
3 8 9 4
3 10 9 8
3 10 66 68
3 68 67 9
3 66 67 68
3 11 69 70
3 11 71 73
3 71 5 72
3 71 72 73
3 12 13 3
3 14 13 12
3 14 6 13
3 14 15 6
3 8 15 14
3 8 4 15
3 16 74 76
3 76 75 0
3 74 75 76
3 78 77 16
3 17 18 1
3 79 18 80
3 81 80 17
3 79 80 81
3 83 82 18
3 84 2 85
3 86 19 87
3 88 87 2
3 86 87 88
3 20 89 91
3 89 19 90
3 89 90 91
3 20 3 19
3 92 20 93
3 92 93 94
3 21 95 97
3 95 20 96
3 95 96 97
3 21 3 20
3 21 12 3
3 17 12 21
3 17 1 12
3 99 98 0
3 22 100 101
3 23 102 104
3 104 103 22
3 102 103 104
3 23 105 106
3 9 23 4
3 107 23 108
3 109 108 9
3 107 108 109
3 111 110 23
3 18 10 1
3 24 10 18
3 24 112 114
3 114 113 10
3 112 113 114
3 115 24 116
3 117 24 118
3 120 119 24
3 121 7 122
3 25 123 125
3 123 7 124
3 123 124 125
3 25 0 7
3 19 11 2
3 26 11 19
3 26 5 11
3 13 26 3
3 27 26 13
3 27 5 26
3 27 25 5
3 28 25 27
3 28 0 25
3 28 16 0
3 29 16 28
3 29 126 128
3 128 127 16
3 126 127 128
3 15 29 6
3 30 29 15
3 30 129 131
3 131 130 29
3 129 130 131
3 30 132 133
3 22 134 136
3 136 135 30
3 134 135 136
3 22 137 138
