ply
format ascii 1.0
element vertex 143
property float x
property float y
property float z
property uchar red
property uchar green
property uchar blue
element face 134
property list uchar int vertex_index
end_header
34.795 -36.8576 -13.6495 0 187 255
36.0603 -34.4624 -9.14921 219 0 0
37.2746 -30.7381 -10.6721 97 255 158
37.0674 -33.044 -6.07017 139 255 116
34.1407 -39.0958 -10.5842 255 183 0
35.7082 -36.7407 -4.62034 123 255 132
34.7458 -38.0456 -7.74822 255 53 0
35.2578 -35.7569 -11.7003 255 210 0
36.3906 -32.2375 -13.4497 119 255 136
35.2034 -35.5376 -14.4299 0 149 255
34.9393 -36.5112 -14.916 0 150 255
33.8147 -40.2663 -8.72161 114 255 141
33.6162 -40.7843 -10.2965 0 253 255
34.5428 -39.0976 -5.57242 70 255 185
34.1306 -39.6997 -7.17667 146 255 109
34.4082 -38.5492 -9.23979 255 133 0
36.6768 -32.6262 -9.96654 198 0 0
36.8301 -31.4115 -12.2293 180 255 75
36.2501 -33.2663 -11.3277 255 24 0
35.8259 -34.0602 -12.4335 255 131 0
35.5834 -35.2394 -10.4401 255 92 0
37.185 -31.8362 -8.47309 238 255 17
36.5786 -33.6992 -7.66772 128 0 0
34.5144 -37.8037 -12.3201 140 255 115
34.4954 -37.951 -13.6502 0 228 255
34.0872 -39.2631 -12.1178 16 255 239
36.4193 -34.9512 -5.13742 255 233 0
35.9153 -35.5417 -6.9288 146 0 0
35.229 -37.3241 -6.2837 255 190 0
35.3913 -36.2914 -8.46871 255 23 0
34.9844 -36.9354 -9.75923 255 156 0
34.7054 -37.3815 -11.1114 255 235 0
34.9706 -36.3555 -12.861 137 255 118
36.0262 -33.028 -14.4959 0 235 255
35.4811 -34.7728 -13.5648 100 255 155
34.6489 -37.7998 -15.1826 0 90 255
33.5128 -41.1787 -8.49805 0 0 142
33.6322 -40.9139 -7.69489 0 0 142
33.7901 -40.6306 -6.92242 0 0 146
33.9833 -40.3011 -6.06978 0 0 146
33.6322 -40.9139 -7.69489 0 0 181
33.9726 -39.983 -7.94914 0 0 220
33.7901 -40.6306 -6.92242 0 0 181
37.1262 -32.4401 -7.27163 0 0 238
37.4219 -31.4948 -7.63725 0 0 193
37.3631 -32.0987 -6.43579 0 0 193
33.6088 -40.9153 -11.0725 0 0 137
33.3583 -41.6723 -10.1515 0 0 137
36.0637 -35.846 -4.87888 0 0 243
36.3544 -35.474 -3.95414 0 0 196
35.9988 -36.3688 -3.69559 0 0 196
37.3346 -30.1305 -11.784 0 0 146
37.5482 -29.748 -11.0239 0 0 146
36.6831 -31.2622 -13.8827 0 0 179
36.9029 -30.8492 -13.2725 0 0 179
36.6103 -31.8245 -12.8395 0 0 217
36.4924 -31.6806 -14.451 0 0 139
36.6831 -31.2622 -13.8827 0 0 139
36.2084 -32.6328 -13.9728 0 0 203
36.3102 -32.0759 -14.974 0 0 170
36.4924 -31.6806 -14.451 0 0 170
34.3792 -38.6521 -14.3978 0 0 159
34.5722 -37.8754 -14.4164 0 0 188
34.3024 -38.7278 -13.6316 0 0 159
35.3111 -35.2369 -15.2324 0 0 128
35.4562 -34.7145 -14.9346 0 0 128
35.179 -35.7237 -15.4755 0 0 147
35.3111 -35.2369 -15.2324 0 0 147
35.0713 -36.0244 -14.673 0 0 170
35.0639 -36.2776 -15.7413 0 0 128
35.179 -35.7237 -15.4755 0 0 128
37.3383 -32.6477 -5.18419 0 0 152
37.3631 -32.0987 -6.43579 0 0 152
33.4135 -41.4377 -9.28549 0 0 178
33.7154 -40.5253 -9.50906 0 0 216
33.5128 -41.1787 -8.49805 0 0 178
33.3583 -41.6723 -10.1515 0 0 142
33.4135 -41.4377 -9.28549 0 0 142
35.6425 -37.2425 -3.38759 0 0 197
35.9988 -36.3688 -3.69559 0 0 197
35.9331 -36.8705 -2.46285 0 0 150
34.1894 -40.0001 -5.26765 0 0 148
34.3919 -39.7431 -4.35592 0 0 148
34.3367 -39.3987 -6.37455 0 0 226
34.1894 -40.0001 -5.26765 0 0 185
33.9833 -40.3011 -6.06978 0 0 185
37.519 -30.2913 -9.95672 0 0 145
37.5482 -29.748 -11.0239 0 0 145
37.4743 -30.8404 -8.85722 0 0 150
37.4219 -31.4948 -7.63725 0 0 150
37.2298 -31.2871 -9.5726 0 0 233
37.519 -30.2913 -9.95672 0 0 189
37.4743 -30.8404 -8.85722 0 0 189
34.0983 -39.3838 -12.8654 0 0 158
34.3024 -38.7278 -13.6316 0 0 158
34.2913 -38.6071 -12.884 0 0 186
33.8443 -40.1548 -11.9832 0 0 171
33.8517 -40.0237 -11.2072 0 0 204
33.6088 -40.9153 -11.0725 0 0 171
34.0983 -39.3838 -12.8654 0 0 136
33.8443 -40.1548 -11.9832 0 0 136
37.0158 -33.6098 -4.81057 0 0 202
37.3383 -32.6477 -5.18419 0 0 202
37.2867 -33.2135 -3.9246 0 0 153
36.6917 -34.5634 -4.3442 0 0 147
36.3544 -35.474 -3.95414 0 0 147
36.7434 -33.9976 -5.6038 0 0 244
37.0158 -33.6098 -4.81057 0 0 197
36.6917 -34.5634 -4.3442 0 0 197
35.3432 -37.6501 -4.2713 0 0 151
35.6425 -37.2425 -3.38759 0 0 151
34.7605 -38.8286 -4.74735 0 0 147
34.3919 -39.7431 -4.35592 0 0 147
35.1036 -37.9418 -5.10298 0 0 186
34.7605 -38.8286 -4.74735 0 0 186
34.8859 -38.2109 -5.92806 0 0 228
35.4686 -37.0324 -5.45202 0 0 234
35.3432 -37.6501 -4.2713 0 0 190
35.1036 -37.9418 -5.10298 0 0 190
37.1124 -30.4672 -12.5626 0 0 186
37.3346 -30.1305 -11.784 0 0 186
37.0523 -31.0748 -11.4507 0 0 228
37.1124 -30.4672 -12.5626 0 0 142
36.9029 -30.8492 -13.2725 0 0 142
36.1451 -32.524 -15.4415 0 0 135
36.3102 -32.0759 -14.974 0 0 135
35.8677 -33.4597 -14.9676 0 0 134
36.1451 -32.524 -15.4415 0 0 134
35.5951 -34.3321 -14.5021 0 0 162
35.8677 -33.4597 -14.9676 0 0 162
35.7537 -33.9004 -14.0304 0 0 192
35.3422 -35.1552 -13.9974 0 0 183
35.4562 -34.7145 -14.9346 0 0 156
35.5951 -34.3321 -14.5021 0 0 156
34.9187 -36.9218 -15.8746 0 0 156
35.0639 -36.2776 -15.7413 0 0 156
34.7941 -37.1555 -15.0493 0 0 183
34.4864 -38.5997 -15.251 0 0 136
34.3792 -38.6521 -14.3978 0 0 136
34.7699 -37.6902 -15.9723 0 0 133
34.4864 -38.5997 -15.251 0 0 133
34.9187 -36.9218 -15.8746 0 0 132
34.7699 -37.6902 -15.9723 0 0 132
3 0 10 9
3 37 36 11
3 38 14 39
3 40 11 41
3 42 41 14
3 40 41 42
3 1 18 16
3 1 20 18
3 3 43 45
3 43 21 44
3 43 44 45
3 3 22 21
3 4 25 23
3 47 46 12
3 5 48 50
3 48 26 49
3 48 49 50
3 5 27 26
3 6 28 13
3 6 29 28
3 6 30 29
3 4 31 15
3 4 23 31
3 2 51 52
3 8 53 55
3 55 54 17
3 53 54 55
3 8 56 57
3 8 58 60
3 58 33 59
3 58 59 60
3 7 34 19
3 7 32 34
3 61 35 62
3 63 62 24
3 61 62 63
3 9 64 65
3 10 66 68
3 68 67 9
3 66 67 68
3 10 69 70
3 71 3 72
3 11 12 4
3 73 12 74
3 75 74 11
3 73 74 75
3 77 76 12
3 78 5 79
3 78 79 80
3 81 13 82
3 14 83 85
3 83 13 84
3 83 84 85
3 14 6 13
3 14 15 6
3 11 15 14
3 11 4 15
3 16 17 2
3 18 17 16
3 18 8 17
3 18 19 8
3 20 19 18
3 20 7 19
3 86 2 87
3 21 88 89
3 21 90 92
3 90 2 91
3 90 91 92
3 21 16 2
3 22 16 21
3 22 1 16
3 23 24 0
3 25 24 23
3 25 93 95
3 95 94 24
3 93 94 95
3 12 25 4
3 96 25 97
3 98 97 12
3 96 97 98
3 100 99 25
3 101 3 102
3 101 102 103
3 26 104 105
3 26 106 108
3 106 3 107
3 106 107 108
3 26 22 3
3 27 22 26
3 27 1 22
3 109 5 110
3 13 111 112
3 28 113 115
3 115 114 13
3 113 114 115
3 28 116 118
3 116 5 117
3 116 117 118
3 28 27 5
3 29 27 28
3 29 1 27
3 29 20 1
3 30 20 29
3 30 7 20
3 15 30 6
3 31 30 15
3 31 7 30
3 31 32 7
3 23 32 31
3 23 0 32
3 17 119 121
3 121 120 2
3 119 120 121
3 123 122 17
3 33 124 125
3 33 126 127
3 19 33 8
3 34 33 19
3 34 128 130
3 130 129 33
3 128 129 130
3 34 131 133
3 131 9 132
3 131 132 133
3 32 9 34
3 32 0 9
3 24 10 0
3 35 10 24
3 35 134 136
3 136 135 10
3 134 135 136
3 137 35 138
3 139 35 140
3 142 141 35
