ply
format ascii 1.0
element vertex 225
property float x
property float y
property float z
property uchar red
property uchar green
property uchar blue
element face 224
property list uchar int vertex_index
end_header
15.157 36.9839 -52.0127 255 106 0
10.2789 43.4113 -47.0063 255 79 0
14.7536 37.4722 -41.2117 170 0 0
20.3978 31.1582 -45.7933 157 0 0
19.069 30.1514 -40.2865 223 255 32
22.3539 27.3795 -42.2851 251 255 4
12.5977 39.7347 -49.3705 255 74 0
9.62481 41.3317 -51.7137 255 201 0
12.0265 38.5212 -54.4898 153 255 102
12.7106 40.8689 -44.3391 255 14 0
15.0367 37.3951 -46.5936 255 39 0
16.3561 33.4266 -38.0763 231 255 24
17.2876 34.0504 -43.6627 222 0 0
17.8624 34.5778 -49.2091 236 0 0
7.50898 45.0829 -49.2851 0 134 255
21.5223 26.5391 -39.5449 0 237 255
13.8742 38.2342 -50.725 255 83 0
12.3109 39.1963 -51.9892 255 120 0
13.6224 37.8668 -53.4341 255 128 0
13.5973 39.7018 -40.2328 212 255 43
12.6795 41.4952 -41.7167 194 255 61
13.7759 39.2965 -42.8273 198 0 0
13.8579 38.9839 -45.4335 255 50 0
14.9639 37.4034 -43.9791 218 0 0
19.6739 30.7702 -43.0165 159 0 0
18.2557 32.1831 -42.131 207 0 0
18.7467 32.602 -44.8206 202 0 0
17.6424 34.3164 -46.4487 244 0 0
19.1803 32.9572 -47.5115 188 0 0
19.5204 33.2791 -50.2833 197 255 58
20.8269 31.7684 -48.764 210 255 45
9.34791 45.6238 -45.8511 20 255 235
8.9504 44.3991 -48.1392 198 255 57
9.21078 40.2734 -53.9048 104 255 151
8.03511 41.8306 -52.5557 32 255 223
7.58399 40.4594 -54.6319 0 95 255
14.4082 37.7454 -38.714 214 255 41
20.6411 28.6932 -41.2733 255 126 0
21.3726 29.3509 -44.0026 128 0 0
21.9528 30.1072 -46.9563 216 255 39
23.0915 28.2673 -45.222 113 255 142
11.3142 41.5524 -48.128 255 82 0
9.94998 42.3935 -49.4201 255 141 0
11.0935 40.7299 -50.5443 255 152 0
10.7845 39.9153 -52.8843 255 206 0
10.4002 38.9885 -55.2464 0 197 255
16.5556 35.8359 -53.4103 121 255 134
15.0367 36.7251 -54.5941 82 255 173
10.5886 44.3389 -44.6204 139 255 116
11.6905 43.0319 -43.1301 156 255 99
11.5872 42.2313 -45.5943 255 49 0
12.6863 40.3034 -46.8446 255 62 0
13.911 38.6238 -48.0291 255 81 0
15.2317 37.1252 -49.3441 255 78 0
15.1901 35.5657 -37.3614 92 255 163
15.6171 35.5196 -39.742 165 0 0
17.6728 31.7649 -39.3912 221 255 34
16.9114 33.6752 -40.9107 169 0 0
15.9643 35.6394 -42.4532 186 0 0
16.3133 35.6781 -45.2145 244 0 0
16.3964 35.8951 -47.8596 255 34 0
16.5952 35.844 -50.6123 255 60 0
18.0502 34.703 -52.0407 159 255 96
8.46446 43.146 -50.4291 163 255 92
13.423 37.3237 -55.9433 0 225 255
8.15276 39.8121 -55.3065 0 0 154
8.39739 40.3664 -54.2683 0 0 181
8.96616 39.7191 -54.9429 0 0 154
7.31056 39.7833 -55.5768 0 0 128
8.15276 39.8121 -55.3065 0 0 128
14.2606 37.8107 -37.4399 0 0 142
13.9407 38.8356 -38.2167 0 0 142
16.5248 35.731 -54.807 0 0 140
17.3653 35.2644 -54.0564 0 0 140
10.6716 44.8743 -43.4656 0 0 139
10.142 45.5493 -44.1516 0 0 139
15.7731 34.4962 -37.7188 0 0 228
15.4546 34.5214 -36.4702 0 0 186
16.0376 33.4518 -36.8276 0 0 186
18.3709 30.9581 -39.8388 0 0 229
18.0541 30.6344 -38.5272 0 0 186
18.7522 29.8276 -38.9749 0 0 186
19.5622 33.4473 -51.6835 0 0 140
20.3129 32.7642 -50.9607 0 0 140
22.1967 30.4175 -48.4167 0 0 141
22.7442 29.6095 -47.4467 0 0 141
7.06391 46.2357 -48.7392 0 0 133
7.72005 45.8509 -48.2501 0 0 133
6.78247 45.3404 -49.7442 0 0 134
7.06391 46.2357 -48.7392 0 0 134
7.50457 42.6946 -51.9692 0 0 130
7.23234 41.9211 -52.956 0 0 130
14.0632 36.8336 -56.6376 0 0 166
14.2298 37.0244 -55.2687 0 0 198
14.87 36.5343 -55.963 0 0 166
21.8251 25.5083 -38.6273 0 0 143
21.004 26.2669 -38.2796 0 0 143
22.3411 25.9346 -39.9725 0 0 143
21.8251 25.5083 -38.6273 0 0 143
22.7569 26.3548 -41.3425 0 0 186
21.9381 26.9593 -40.915 0 0 228
22.3411 25.9346 -39.9725 0 0 186
23.1618 26.83 -42.6982 0 0 142
22.7569 26.3548 -41.3425 0 0 142
13.1384 40.5985 -40.9747 0 0 215
12.6871 41.6946 -40.5168 0 0 177
13.146 40.7979 -39.7748 0 0 177
16.6986 32.3476 -37.3288 0 0 145
16.0376 33.4518 -36.8276 0 0 145
20.9662 32.0089 -50.201 0 0 180
20.3129 32.7642 -50.9607 0 0 180
20.1736 32.5237 -49.5236 0 0 220
8.63951 46.1214 -46.5331 0 0 138
8.89663 46.8072 -45.4621 0 0 138
8.44076 45.509 -47.6771 0 0 175
8.63951 46.1214 -46.5331 0 0 175
9.14916 45.0114 -46.9951 0 0 212
8.22969 44.741 -48.7121 0 0 202
7.72005 45.8509 -48.2501 0 0 168
8.44076 45.509 -47.6771 0 0 168
7.00678 41.2355 -53.994 0 0 158
7.23234 41.9211 -52.956 0 0 158
7.80955 41.145 -53.5938 0 0 186
6.74534 40.4726 -54.8824 0 0 128
7.00678 41.2355 -53.994 0 0 128
6.74534 40.4726 -54.8824 0 0 128
7.31056 39.7833 -55.5768 0 0 128
13.5352 39.8138 -38.9761 0 0 142
13.146 40.7979 -39.7748 0 0 142
14.0028 38.7236 -39.4734 0 0 222
13.5352 39.8138 -38.9761 0 0 182
13.9407 38.8356 -38.2167 0 0 182
19.4712 29.0808 -39.4578 0 0 143
18.7522 29.8276 -38.9749 0 0 143
20.6978 27.2747 -39.087 0 0 142
21.004 26.2669 -38.2796 0 0 142
20.2573 28.3517 -39.9512 0 0 189
20.6978 27.2747 -39.087 0 0 189
21.0817 27.6162 -40.4091 0 0 233
19.855 29.4223 -40.7799 0 0 230
19.4712 29.0808 -39.4578 0 0 187
20.2573 28.3517 -39.9512 0 0 187
23.3135 28.6895 -46.5796 0 0 179
22.7442 29.6095 -47.4467 0 0 179
22.5221 29.1872 -46.0892 0 0 218
23.5306 27.2739 -44.1666 0 0 188
22.7227 27.8234 -43.7535 0 0 231
23.1618 26.83 -42.6982 0 0 188
23.905 27.7417 -45.6223 0 0 144
23.5306 27.2739 -44.1666 0 0 144
23.3135 28.6895 -46.5796 0 0 141
23.905 27.7417 -45.6223 0 0 141
9.56087 39.0767 -55.6137 0 0 156
8.96616 39.7191 -54.9429 0 0 156
9.80549 39.631 -54.5756 0 0 183
15.7653 36.1756 -55.3989 0 0 172
15.7961 36.2805 -54.0022 0 0 207
16.5248 35.731 -54.807 0 0 172
15.5987 35.9848 -56.7678 0 0 138
14.87 36.5343 -55.963 0 0 175
15.7653 36.1756 -55.3989 0 0 175
9.52161 46.1918 -44.7669 0 0 138
8.89663 46.8072 -45.4621 0 0 138
9.96828 44.9813 -45.2357 0 0 209
9.52161 46.1918 -44.7669 0 0 173
10.142 45.5493 -44.1516 0 0 173
12.2174 42.6658 -41.2388 0 0 142
12.6871 41.6946 -40.5168 0 0 142
11.7229 43.4341 -41.9455 0 0 177
12.2174 42.6658 -41.2388 0 0 177
12.185 42.2636 -42.4234 0 0 214
11.2225 44.2208 -42.7204 0 0 179
11.2549 44.623 -41.5358 0 0 140
11.7229 43.4341 -41.9455 0 0 179
11.1395 43.6854 -43.8753 0 0 214
10.6716 44.8743 -43.4656 0 0 177
11.2225 44.2208 -42.7204 0 0 177
14.9492 35.5894 -36.0263 0 0 188
15.2137 34.5451 -35.1351 0 0 145
15.4546 34.5214 -36.4702 0 0 188
14.6516 36.7209 -36.7636 0 0 148
14.9492 35.5894 -36.0263 0 0 148
14.7992 36.6556 -38.0377 0 0 233
14.2606 37.8107 -37.4399 0 0 189
14.6516 36.7209 -36.7636 0 0 189
17.3569 31.5167 -37.9863 0 0 148
18.0541 30.6344 -38.5272 0 0 148
17.0145 32.5958 -38.7337 0 0 234
16.6986 32.3476 -37.3288 0 0 190
17.3569 31.5167 -37.9863 0 0 190
18.1126 34.6979 -53.3716 0 0 174
17.3653 35.2644 -54.0564 0 0 174
17.3029 35.2695 -52.7255 0 0 210
18.8271 34.1593 -52.5622 0 0 179
18.7853 33.9911 -51.162 0 0 217
19.5622 33.4473 -51.6835 0 0 179
18.1126 34.6979 -53.3716 0 0 136
18.8271 34.1593 -52.5622 0 0 136
21.6338 31.2482 -49.3205 0 0 183
21.3898 30.9378 -47.8602 0 0 224
22.1967 30.4175 -48.4167 0 0 183
20.9662 32.0089 -50.201 0 0 141
21.6338 31.2482 -49.3205 0 0 141
7.71924 43.3524 -50.9058 0 0 159
8.24978 42.4883 -51.4924 0 0 188
7.50457 42.6946 -51.9692 0 0 159
7.2415 44.3208 -50.3339 0 0 162
7.98672 44.1144 -49.8571 0 0 192
7.71924 43.3524 -50.9058 0 0 162
6.78247 45.3404 -49.7442 0 0 132
7.2415 44.3208 -50.3339 0 0 132
13.1773 37.0243 -57.1781 0 0 132
14.0632 36.8336 -56.6376 0 0 132
12.5295 37.5618 -56.3693 0 0 133
13.1773 37.0243 -57.1781 0 0 133
11.8312 38.1606 -55.6425 0 0 163
12.7247 37.9224 -55.2165 0 0 194
12.5295 37.5618 -56.3693 0 0 163
11.018 38.3942 -56.0208 0 0 158
11.2133 38.7549 -54.8681 0 0 187
11.8312 38.1606 -55.6425 0 0 158
10.1316 38.4876 -56.3711 0 0 131
11.018 38.3942 -56.0208 0 0 131
9.56087 39.0767 -55.6137 0 0 129
10.1316 38.4876 -56.3711 0 0 129
3 0 18 16
3 2 21 19
3 2 23 21
3 3 26 24
3 3 28 26
3 3 30 28
3 1 32 31
3 65 35 66
3 67 66 33
3 65 66 67
3 69 68 35
3 70 36 71
3 5 37 15
3 5 38 37
3 5 40 38
3 6 43 41
3 8 44 17
3 8 45 44
3 73 72 46
3 74 48 75
3 9 49 20
3 9 50 49
3 9 51 50
3 10 52 22
3 10 53 52
3 11 76 78
3 76 54 77
3 76 77 78
3 11 55 54
3 4 79 81
3 79 56 80
3 79 80 81
3 12 57 25
3 12 58 57
3 12 59 58
3 13 60 27
3 13 61 60
3 13 62 61
3 83 82 29
3 85 84 39
3 14 86 87
3 14 88 89
3 7 63 42
3 91 90 34
3 92 64 93
3 94 93 47
3 92 93 94
3 95 15 96
3 97 15 98
3 99 5 100
3 101 100 15
3 99 100 101
3 103 102 5
3 16 17 6
3 18 17 16
3 18 8 17
3 19 104 106
3 104 20 105
3 104 105 106
3 21 20 19
3 21 9 20
3 21 22 9
3 23 22 21
3 23 10 22
3 107 11 108
3 24 25 4
3 26 25 24
3 26 12 25
3 26 27 12
3 28 27 26
3 28 13 27
3 28 29 13
3 30 29 28
3 30 109 111
3 111 110 29
3 109 110 111
3 31 112 113
3 32 114 116
3 116 115 31
3 114 115 116
3 32 117 119
3 117 14 118
3 117 118 119
3 33 34 7
3 35 34 33
3 35 120 122
3 122 121 34
3 120 121 122
3 35 123 124
3 126 125 35
3 127 19 128
3 36 129 131
3 129 19 130
3 129 130 131
3 36 2 19
3 132 4 133
3 15 134 135
3 37 136 138
3 138 137 15
3 136 137 138
3 37 139 141
3 139 4 140
3 139 140 141
3 37 24 4
3 38 24 37
3 38 3 24
3 38 39 3
3 40 39 38
3 40 142 144
3 144 143 39
3 142 143 144
3 145 40 146
3 147 146 5
3 145 146 147
3 148 40 149
3 151 150 40
3 41 42 1
3 43 42 41
3 43 7 42
3 17 43 6
3 44 43 17
3 44 7 43
3 44 33 7
3 45 33 44
3 45 152 154
3 154 153 33
3 152 153 154
3 46 47 0
3 155 47 156
3 157 156 46
3 155 156 157
3 160 159 47
3 158 159 160
3 161 31 162
3 48 163 165
3 163 31 164
3 163 164 165
3 48 1 31
3 20 166 167
3 49 168 170
3 170 169 20
3 168 169 170
3 49 171 173
3 171 172 173
3 49 174 176
3 174 48 175
3 174 175 176
3 50 48 49
3 50 1 48
3 50 41 1
3 51 41 50
3 51 6 41
3 22 51 9
3 52 51 22
3 52 6 51
3 52 16 6
3 53 16 52
3 53 0 16
3 54 177 179
3 177 178 179
3 54 180 181
3 54 182 184
3 182 36 183
3 182 183 184
3 55 36 54
3 55 2 36
3 56 185 186
3 56 187 189
3 187 11 188
3 187 188 189
3 25 56 4
3 57 56 25
3 57 11 56
3 57 55 11
3 58 55 57
3 58 2 55
3 58 23 2
3 59 23 58
3 59 10 23
3 27 59 12
3 60 59 27
3 60 10 59
3 60 53 10
3 61 53 60
3 61 0 53
3 61 46 0
3 62 46 61
3 62 190 192
3 192 191 46
3 190 191 192
3 29 62 13
3 193 62 194
3 195 194 29
3 193 194 195
3 197 196 62
3 39 30 3
3 198 30 199
3 200 199 39
3 198 199 200
3 202 201 30
3 42 32 1
3 63 32 42
3 63 14 32
3 34 63 7
3 203 63 204
3 205 204 34
3 203 204 205
3 206 14 207
3 208 207 63
3 206 207 208
3 210 209 14
3 47 18 0
3 64 18 47
3 64 8 18
3 211 64 212
3 213 64 214
3 215 8 216
3 217 216 64
3 215 216 217
3 218 45 219
3 220 219 8
3 218 219 220
3 221 45 222
3 224 223 45
