ply
format ascii 1.0
element vertex 164
property float x
property float y
property float z
property uchar red
property uchar green
property uchar blue
element face 152
property list uchar int vertex_index
end_header
2.17198 -86.8584 11.1878 144 0 0
-2.56782 -81.9969 21.3676 155 255 100
7.20859 -79.9287 17.0525 167 255 88
6.20671 -84.2562 11.4568 225 0 0
3.67825 -82.3273 16.4013 244 0 0
-4.12421 -86.6309 16.4191 209 255 46
8.7591 -85.251 6.74496 99 255 156
4.66343 -88.502 6.2135 255 134 0
0.942345 -80.1805 21.2131 30 255 225
-0.339501 -84.6666 16.1905 248 0 0
5.86759 -79.0067 19.3857 32 255 223
5.44322 -81.1368 16.7306 255 10 0
3.99472 -80.1804 19.1186 142 255 113
9.32392 -83.1953 9.6988 60 255 195
4.19427 -85.5047 11.4257 168 0 0
5.54591 -86.3289 8.83426 175 0 0
3.51981 -87.7552 8.62372 128 0 0
2.51467 -90.0997 5.9136 255 243 0
1.40502 -89.073 8.59199 251 255 4
-0.85991 -81.1047 21.2731 135 255 120
0.343334 -82.3511 18.7746 255 2 0
-1.43543 -83.3859 18.7024 255 17 0
-3.14905 -88.1207 13.6694 93 255 162
8.64007 -80.6643 14.6601 67 255 188
8.10573 -82.8062 11.8127 255 218 0
6.78622 -82.1105 14.1921 228 0 0
4.982 -83.3164 13.9693 230 0 0
2.95314 -84.568 13.823 193 0 0
-4.40045 -82.8522 21.6456 62 255 193
-3.31744 -84.2907 18.9241 216 0 0
-5.29197 -85.1147 19.336 76 255 179
7.44738 -84.869 9.13329 212 0 0
6.77768 -86.9717 6.31418 230 255 25
3.93441 -90.6404 3.41672 0 255 255
2.3206 -81.2361 18.8648 255 232 0
1.67489 -83.4724 16.3098 202 0 0
0.945323 -85.708 13.8038 191 0 0
-2.21876 -85.676 16.2529 223 0 0
-1.04787 -86.8467 13.7871 255 195 0
0.089496 -88.0472 11.2211 227 255 28
5.21222 -78.4894 20.5348 0 0 129
6.1222 -77.9166 20.6817 0 0 129
4.27578 -79.0762 20.4013 0 0 167
4.93116 -79.5936 19.2522 0 0 205
5.21222 -78.4894 20.5348 0 0 167
9.67103 -82.1785 11.0224 0 0 130
10.2098 -82.4598 9.78565 0 0 130
-2.32452 -80.8664 22.651 0 0 130
-3.18475 -81.2753 22.7702 0 0 130
-1.71386 -81.5508 21.3203 0 0 202
-1.47056 -80.4203 22.6037 0 0 165
-2.32452 -80.8664 22.651 0 0 165
8.11299 -79.2365 17.293 0 0 131
7.42925 -78.8281 18.4449 0 0 131
7.92433 -80.2965 15.8563 0 0 212
8.82873 -79.6043 16.0968 0 0 172
8.11299 -79.2365 17.293 0 0 172
-5.36101 -83.303 21.7907 0 0 177
-5.02112 -82.1219 23.0778 0 0 177
-5.98168 -82.5728 23.2229 0 0 135
-5.80677 -84.4343 20.6359 0 0 170
-4.84621 -83.9834 20.4908 0 0 208
-5.36101 -83.303 21.7907 0 0 170
9.35774 -85.4151 5.46197 0 0 134
9.64416 -84.4322 6.94298 0 0 134
8.38121 -86.3303 5.26431 0 0 138
9.35774 -85.4151 5.46197 0 0 138
5.33635 -88.7518 4.94653 0 0 180
6.39347 -87.9866 4.99687 0 0 180
5.72056 -87.7369 6.26384 0 0 225
4.29892 -89.5712 4.81511 0 0 229
4.97184 -89.821 3.54814 0 0 183
5.33635 -88.7518 4.94653 0 0 183
2.07935 -91.1708 4.62124 0 0 137
1.41904 -90.7777 5.93151 0 0 137
1.22153 -79.0379 22.506 0 0 129
0.33794 -79.5084 22.5036 0 0 129
1.82731 -79.6218 21.3462 0 0 128
1.22153 -79.0379 22.506 0 0 128
1.63147 -80.7083 20.039 0 0 202
2.51643 -80.1496 20.172 0 0 165
1.82731 -79.6218 21.3462 0 0 165
-1.47528 -88.0554 12.4517 0 0 182
-2.09846 -87.4837 13.7282 0 0 226
-2.52587 -88.6924 12.3929 0 0 182
-0.906595 -88.6556 11.1688 0 0 177
-0.479189 -87.4469 12.5041 0 0 220
-1.47528 -88.0554 12.4517 0 0 177
-0.307739 -89.1858 9.91056 0 0 133
-0.906595 -88.6556 11.1688 0 0 133
6.75875 -78.3671 19.6115 0 0 163
7.01336 -77.2771 20.9075 0 0 128
6.1222 -77.9166 20.6817 0 0 163
6.53809 -79.4677 18.2191 0 0 206
7.42925 -78.8281 18.4449 0 0 168
6.75875 -78.3671 19.6115 0 0 168
9.92657 -83.4044 8.4199 0 0 131
10.2098 -82.4598 9.78565 0 0 131
9.04151 -84.2232 8.22188 0 0 217
9.64416 -84.4322 6.94298 0 0 175
9.92657 -83.4044 8.4199 0 0 175
0.864215 -90.2644 7.27071 0 0 186
1.41904 -90.7777 5.93151 0 0 186
1.95985 -89.5863 7.25279 0 0 233
-0.563188 -79.9705 22.5336 0 0 130
-1.47056 -80.4203 22.6037 0 0 130
0.041218 -80.6426 21.2431 0 0 205
0.33794 -79.5084 22.5036 0 0 167
-0.563188 -79.9705 22.5336 0 0 167
-4.14852 -88.5636 13.8177 0 0 177
-3.63663 -87.3758 15.0442 0 0 219
-4.6361 -87.8187 15.1925 0 0 177
-3.55084 -89.236 12.4329 0 0 134
-4.14852 -88.5636 13.8177 0 0 134
-2.52587 -88.6924 12.3929 0 0 134
-3.55084 -89.236 12.4329 0 0 134
9.49906 -79.9109 14.9611 0 0 130
8.82873 -79.6043 16.0968 0 0 130
9.3291 -80.9129 13.503 0 0 131
9.49906 -79.9109 14.9611 0 0 131
8.3729 -81.7352 13.2364 0 0 218
9.06194 -81.9839 12.0793 0 0 176
9.3291 -80.9129 13.503 0 0 176
-4.10107 -81.703 22.9092 0 0 133
-5.02112 -82.1219 23.0778 0 0 133
-3.48414 -82.4245 21.5066 0 0 212
-3.18475 -81.2753 22.7702 0 0 172
-4.10107 -81.703 22.9092 0 0 172
-6.19684 -85.6102 19.353 0 0 130
-5.80677 -84.4343 20.6359 0 0 130
-5.67302 -86.2829 18.0487 0 0 130
-6.19684 -85.6102 19.353 0 0 130
-5.08914 -87.041 16.5903 0 0 177
-4.70809 -85.8728 17.8776 0 0 220
-5.67302 -86.2829 18.0487 0 0 177
-4.6361 -87.8187 15.1925 0 0 133
-5.08914 -87.041 16.5903 0 0 133
8.71483 -83.0007 10.7557 0 0 206
9.67103 -82.1785 11.0224 0 0 168
9.06194 -81.9839 12.0793 0 0 168
7.3905 -87.1907 5.04892 0 0 182
8.38121 -86.3303 5.26431 0 0 182
7.76839 -86.1114 6.52957 0 0 227
7.3905 -87.1907 5.04892 0 0 135
6.39347 -87.9866 4.99687 0 0 135
4.51241 -90.9346 2.1201 0 0 138
4.97184 -89.821 3.54814 0 0 138
3.40162 -91.7581 2.10502 0 0 139
4.51241 -90.9346 2.1201 0 0 139
2.78921 -91.4411 3.37281 0 0 186
3.22454 -90.37 4.66516 0 0 233
2.07935 -91.1708 4.62124 0 0 186
3.40162 -91.7581 2.10502 0 0 139
2.78921 -91.4411 3.37281 0 0 139
3.35349 -79.6218 20.2989 0 0 129
4.27578 -79.0762 20.4013 0 0 129
3.15766 -80.7083 18.9917 0 0 196
3.35349 -79.6218 20.2989 0 0 161
2.51643 -80.1496 20.172 0 0 161
0.350024 -89.6987 8.59599 0 0 182
0.747259 -88.5601 9.90657 0 0 226
-0.307739 -89.1858 9.91056 0 0 182
0.864215 -90.2644 7.27071 0 0 137
0.350024 -89.6987 8.59599 0 0 137
3 40 10 41
3 42 12 43
3 44 43 10
3 42 43 44
3 45 13 46
3 0 16 14
3 0 18 16
3 1 47 48
3 1 49 51
3 49 19 50
3 49 50 51
3 1 21 19
3 2 52 53
3 2 54 56
3 54 23 55
3 54 55 56
3 2 25 23
3 4 26 11
3 4 27 26
3 57 28 58
3 57 58 59
3 60 30 61
3 62 61 28
3 60 61 62
3 6 63 64
3 6 65 66
3 3 31 24
3 7 32 15
3 7 67 69
3 69 68 32
3 67 68 69
3 7 70 72
3 70 33 71
3 70 71 72
3 74 73 17
3 8 75 76
3 8 77 78
3 8 79 81
3 79 34 80
3 79 80 81
3 9 35 20
3 9 36 35
3 5 37 29
3 82 38 83
3 84 83 22
3 82 83 84
3 85 39 86
3 87 86 38
3 85 86 87
3 89 88 39
3 10 90 92
3 90 91 92
3 10 93 95
3 93 2 94
3 93 94 95
3 10 11 2
3 12 11 10
3 12 4 11
3 13 96 97
3 13 98 100
3 98 6 99
3 98 99 100
3 14 15 3
3 16 15 14
3 16 7 15
3 16 17 7
3 18 17 16
3 18 101 103
3 103 102 17
3 101 102 103
3 19 104 105
3 19 106 108
3 106 8 107
3 106 107 108
3 19 20 8
3 21 20 19
3 21 9 20
3 109 22 110
3 111 110 5
3 109 110 111
3 112 22 113
3 115 114 22
3 23 116 117
3 23 118 119
3 23 120 122
3 120 24 121
3 120 121 122
3 25 24 23
3 25 3 24
3 11 25 2
3 26 25 11
3 26 3 25
3 26 14 3
3 27 14 26
3 27 0 14
3 28 123 124
3 28 125 127
3 125 1 126
3 125 126 127
3 28 29 1
3 30 29 28
3 30 5 29
3 128 30 129
3 130 30 131
3 132 5 133
3 134 133 30
3 132 133 134
3 136 135 5
3 24 137 139
3 137 13 138
3 137 138 139
3 31 13 24
3 31 6 13
3 15 31 3
3 32 31 15
3 32 6 31
3 32 140 142
3 142 141 6
3 140 141 142
3 144 143 32
3 33 145 146
3 33 147 148
3 17 33 7
3 149 33 150
3 151 150 17
3 149 150 151
3 153 152 33
3 154 12 155
3 34 156 158
3 156 12 157
3 156 157 158
3 34 4 12
3 20 34 8
3 35 34 20
3 35 4 34
3 35 27 4
3 36 27 35
3 36 0 27
3 29 21 1
3 37 21 29
3 37 9 21
3 22 37 5
3 38 37 22
3 38 9 37
3 38 36 9
3 39 36 38
3 39 0 36
3 39 18 0
3 159 18 160
3 161 160 39
3 159 160 161
3 163 162 18
