ply
format ascii 1.0
element vertex 199
property float x
property float y
property float z
property uchar red
property uchar green
property uchar blue
element face 196
property list uchar int vertex_index
end_header
19.8662 75.4648 -21.4085 222 255 33
15.3612 75.8391 -29.2869 244 0 0
17.8485 65.3714 -22.9298 117 255 138
9.96938 72.4934 -36.6171 105 255 150
21.1442 69.7513 -18.8681 93 255 162
19.1818 70.7565 -22.5653 255 47 0
19.9626 64.8533 -19.6245 25 255 230
14.5796 70.0558 -29.6493 199 0 0
12.7492 74.5162 -32.9574 128 0 0
12.2368 68.2932 -33.0246 255 157 0
17.7574 80.7257 -24.1398 63 255 192
15.4337 80.9095 -28.461 157 255 98
17.6895 76.1541 -25.569 255 60 0
16.9744 70.715 -26.0828 245 0 0
15.7437 64.8606 -26.0653 40 255 215
12.7843 80.1595 -32.5359 211 255 44
20.6903 67.3443 -19.2482 99 255 156
14.165 66.8114 -29.4558 209 255 46
13.418 69.2963 -31.3114 166 0 0
13.0668 66.202 -31.2025 76 255 179
18.9539 77.9478 -22.7678 147 255 108
17.8592 78.3472 -24.9303 255 19 0
18.8111 75.7119 -23.5615 255 55 0
18.5996 68.1733 -22.8123 255 35 0
18.0553 70.8379 -24.4158 255 35 0
17.4933 67.8706 -24.4118 255 44 0
16.3609 67.8893 -26.1959 255 13 0
16.7814 65.3049 -24.5504 117 255 138
15.4332 78.5923 -29.0053 246 0 0
14.0445 80.8487 -30.6212 195 255 60
14.2151 78.0304 -30.8705 186 0 0
11.3404 73.5044 -34.8385 128 0 0
11.405 76.5929 -34.7195 255 110 0
10.006 75.527 -36.4923 122 255 133
20.5518 72.7186 -20.2155 255 95 0
19.6077 73.1281 -22.1034 255 63 0
20.2595 70.2344 -20.6016 255 93 0
19.68 67.9425 -21.0561 255 48 0
18.9117 65.1604 -21.273 153 255 102
15.046 73.0289 -29.5107 255 14 0
14.1003 75.1301 -31.0935 203 0 0
13.8341 72.3733 -31.2159 204 0 0
12.4957 71.5123 -33.0755 135 0 0
11.2419 70.5792 -34.8139 255 156 0
11.1033 67.373 -34.7401 0 222 255
16.6403 80.9052 -26.3523 173 255 82
16.665 78.5421 -27.0357 255 34 0
16.5741 75.9737 -27.4174 255 0 0
18.5216 73.4295 -24.0802 255 58 0
17.4416 73.4904 -25.8841 255 14 0
16.1783 73.2617 -27.8346 254 0 0
15.7947 70.544 -27.8781 252 0 0
15.293 67.6339 -27.8265 255 211 0
20.7635 74.7609 -19.3771 3 255 252
21.4737 71.9187 -18.1422 12 255 243
12.8362 77.4384 -32.8193 140 0 0
11.401 79.5824 -34.4064 113 255 142
13.3418 64.9615 -30.3407 0 0 175
13.6159 66.5067 -30.3291 0 0 216
13.8909 65.2663 -29.4673 0 0 175
12.8565 64.6715 -31.22 0 0 133
13.3418 64.9615 -30.3407 0 0 133
17.4772 63.9798 -22.9072 0 0 166
16.9437 63.9466 -23.7175 0 0 166
17.315 65.3381 -23.7401 0 0 202
9.29079 73.3414 -37.4035 0 0 179
9.30911 74.8582 -37.3411 0 0 179
9.9877 74.0102 -36.5547 0 0 221
9.36218 71.6846 -37.3919 0 0 137
9.29079 73.3414 -37.4035 0 0 137
19.5406 63.4365 -19.684 0 0 170
19.0151 63.5901 -20.5083 0 0 170
19.4371 65.0069 -20.4488 0 0 208
17.1989 80.8154 -25.246 0 0 218
16.4836 82.1191 -25.9298 0 0 176
17.0421 82.0294 -24.8236 0 0 176
15.2066 64.7178 -26.9433 0 0 176
14.9813 66.1045 -27.8239 0 0 176
15.5184 66.2473 -26.9459 0 0 217
15.4053 63.4089 -26.0553 0 0 133
15.2066 64.7178 -26.9433 0 0 133
21.1377 74.4871 -18.3534 0 0 129
20.6906 75.8927 -18.967 0 0 129
21.4927 73.066 -17.7359 0 0 165
21.1186 73.3398 -18.7597 0 0 201
21.1377 74.4871 -18.3534 0 0 165
14.6749 82.0912 -29.1926 0 0 135
15.3159 82.1263 -28.1005 0 0 135
12.6541 81.5421 -32.3218 0 0 176
13.2842 81.8867 -31.3645 0 0 176
13.4144 80.5041 -31.5785 0 0 217
11.9538 81.3105 -33.3033 0 0 137
12.6541 81.5421 -32.3218 0 0 137
10.6348 79.0731 -35.3866 0 0 188
11.403 78.0876 -34.563 0 0 235
10.6368 77.5783 -35.5432 0 0 188
10.5085 80.5022 -35.2528 0 0 140
10.6348 79.0731 -35.3866 0 0 140
21.1449 67.0122 -18.3804 0 0 160
20.9172 68.5478 -19.0582 0 0 194
21.3719 68.2157 -18.1904 0 0 160
20.8186 65.8171 -18.6085 0 0 128
21.1449 67.0122 -18.3804 0 0 128
20.4548 64.5715 -18.7967 0 0 162
20.3265 66.0988 -19.4364 0 0 197
20.8186 65.8171 -18.6085 0 0 162
20.0573 63.2918 -18.9306 0 0 129
20.4548 64.5715 -18.7967 0 0 129
12.5401 65.7679 -32.0552 0 0 171
12.1251 66.8135 -32.9662 0 0 171
12.6518 67.2476 -32.1135 0 0 210
12.5401 65.7679 -32.0552 0 0 132
12.8565 64.6715 -31.22 0 0 132
16.4264 63.7719 -24.4732 0 0 167
15.9075 63.5498 -25.2307 0 0 167
16.2626 65.0827 -25.3079 0 0 204
16.4264 63.7719 -24.4732 0 0 130
16.9437 63.9466 -23.7175 0 0 130
9.93733 77.0453 -36.4295 0 0 183
10.6368 77.5783 -35.5432 0 0 183
10.7055 76.0599 -35.6059 0 0 228
9.15398 76.4913 -37.3512 0 0 142
9.93733 77.0453 -36.4295 0 0 142
9.15398 76.4913 -37.3512 0 0 142
9.30911 74.8582 -37.3411 0 0 142
18.4997 63.7347 -21.2879 0 0 170
17.9681 63.8401 -22.1163 0 0 170
18.3801 65.2659 -22.1014 0 0 209
18.4997 63.7347 -21.2879 0 0 130
19.0151 63.5901 -20.5083 0 0 130
19.5406 63.4365 -19.684 0 0 129
20.0573 63.2918 -18.9306 0 0 129
10.6636 69.8915 -35.6054 0 0 182
10.0274 70.8486 -36.507 0 0 182
10.6056 71.5363 -35.7155 0 0 227
10.5943 68.2884 -35.5685 0 0 175
10.6636 69.8915 -35.6054 0 0 175
11.1726 68.9761 -34.777 0 0 216
10.5275 66.6461 -35.6124 0 0 137
10.5943 68.2884 -35.5685 0 0 137
11.5583 66.3534 -33.824 0 0 173
11.67 67.8331 -33.8823 0 0 213
12.1251 66.8135 -32.9662 0 0 173
11.0443 65.767 -34.6808 0 0 136
11.5583 66.3534 -33.824 0 0 136
10.5275 66.6461 -35.6124 0 0 138
11.0443 65.767 -34.6808 0 0 138
15.9192 82.1241 -27.0462 0 0 135
16.4836 82.1191 -25.9298 0 0 135
16.037 80.9074 -27.4066 0 0 213
15.3159 82.1263 -28.1005 0 0 173
15.9192 82.1241 -27.0462 0 0 173
14.4173 65.6932 -28.6386 0 0 170
14.729 67.2227 -28.6411 0 0 209
14.9813 66.1045 -27.8239 0 0 170
13.8909 65.2663 -29.4673 0 0 132
14.4173 65.6932 -28.6386 0 0 132
15.4053 63.4089 -26.0553 0 0 130
15.9075 63.5498 -25.2307 0 0 130
17.4772 63.9798 -22.9072 0 0 129
17.9681 63.8401 -22.1163 0 0 129
17.5742 81.8414 -23.6633 0 0 134
17.0421 82.0294 -24.8236 0 0 134
18.2512 80.4716 -23.0625 0 0 132
17.5742 81.8414 -23.6633 0 0 132
18.8494 79.0827 -22.3765 0 0 170
18.3556 79.3368 -23.4538 0 0 208
18.2512 80.4716 -23.0625 0 0 170
19.3799 77.8276 -21.7453 0 0 128
18.8494 79.0827 -22.3765 0 0 128
19.8361 76.5861 -21.0656 0 0 161
19.41 76.7063 -22.0881 0 0 195
19.3799 77.8276 -21.7453 0 0 161
20.2848 76.2341 -20.0499 0 0 131
20.6906 75.8927 -18.967 0 0 131
20.3149 75.1128 -20.3928 0 0 201
19.8361 76.5861 -21.0656 0 0 165
20.2848 76.2341 -20.0499 0 0 165
21.8646 71.5583 -17.1158 0 0 130
21.4927 73.066 -17.7359 0 0 130
21.743 70.4213 -17.5539 0 0 130
21.8646 71.5583 -17.1158 0 0 130
21.5783 69.3376 -17.9168 0 0 161
21.309 70.835 -18.5052 0 0 195
21.743 70.4213 -17.5539 0 0 161
21.3719 68.2157 -18.1904 0 0 128
21.5783 69.3376 -17.9168 0 0 128
13.9803 82.0608 -30.2727 0 0 176
14.6749 82.0912 -29.1926 0 0 176
14.7391 80.8791 -29.5411 0 0 218
13.9803 82.0608 -30.2727 0 0 134
13.2842 81.8867 -31.3645 0 0 134
11.2621 81.022 -34.2386 0 0 181
11.9538 81.3105 -33.3033 0 0 181
12.0927 79.871 -33.4712 0 0 225
11.2621 81.022 -34.2386 0 0 141
10.5085 80.5022 -35.2528 0 0 141
9.36218 71.6846 -37.3919 0 0 138
10.0274 70.8486 -36.507 0 0 138
3 57 19 58
3 59 58 17
3 57 58 59
3 61 60 19
3 0 22 20
3 2 25 23
3 2 27 25
3 2 62 64
3 64 63 27
3 62 63 64
3 1 30 28
3 3 33 31
3 3 65 67
3 67 66 33
3 65 66 67
3 3 68 69
3 4 36 34
3 6 37 16
3 6 38 37
3 6 70 72
3 72 71 38
3 70 71 72
3 7 41 39
3 9 42 18
3 9 43 42
3 9 44 43
3 10 73 75
3 73 45 74
3 73 74 75
3 12 46 21
3 12 47 46
3 5 48 35
3 13 49 24
3 13 50 49
3 13 51 50
3 14 52 26
3 14 76 78
3 78 77 52
3 76 77 78
3 14 79 80
3 81 53 82
3 83 54 84
3 85 84 53
3 83 84 85
3 11 86 87
3 15 88 90
3 90 89 29
3 88 89 90
3 15 91 92
3 8 55 40
3 93 56 94
3 95 94 32
3 93 94 95
3 97 96 56
3 98 16 99
3 100 99 4
3 98 99 100
3 101 16 102
3 103 6 104
3 105 104 16
3 103 104 105
3 107 106 6
3 17 18 7
3 19 18 17
3 19 9 18
3 19 108 110
3 110 109 9
3 108 109 110
3 112 111 19
3 20 21 10
3 22 21 20
3 22 12 21
3 23 24 5
3 25 24 23
3 25 13 24
3 25 26 13
3 27 26 25
3 27 14 26
3 27 113 115
3 115 114 14
3 113 114 115
3 117 116 27
3 28 29 11
3 30 29 28
3 30 15 29
3 31 32 8
3 33 32 31
3 33 118 120
3 120 119 32
3 118 119 120
3 33 121 122
3 124 123 33
3 34 35 0
3 36 35 34
3 36 5 35
3 16 36 4
3 37 36 16
3 37 5 36
3 37 23 5
3 38 23 37
3 38 2 23
3 38 125 127
3 127 126 2
3 125 126 127
3 129 128 38
3 131 130 6
3 39 40 1
3 41 40 39
3 41 8 40
3 18 41 7
3 42 41 18
3 42 8 41
3 42 31 8
3 43 31 42
3 43 3 31
3 43 132 134
3 134 133 3
3 132 133 134
3 44 135 137
3 137 136 43
3 135 136 137
3 44 138 139
3 140 44 141
3 142 141 9
3 140 141 142
3 143 44 144
3 146 145 44
3 45 147 148
3 45 149 151
3 149 11 150
3 149 150 151
3 21 45 10
3 46 45 21
3 46 11 45
3 46 28 11
3 47 28 46
3 47 1 28
3 35 22 0
3 48 22 35
3 48 12 22
3 24 48 5
3 49 48 24
3 49 12 48
3 49 47 12
3 50 47 49
3 50 1 47
3 50 39 1
3 51 39 50
3 51 7 39
3 26 51 13
3 52 51 26
3 52 7 51
3 52 17 7
3 152 17 153
3 154 153 52
3 152 153 154
3 156 155 17
3 158 157 14
3 160 159 2
3 161 10 162
3 163 10 164
3 165 20 166
3 167 166 10
3 165 166 167
3 168 20 169
3 170 0 171
3 172 171 20
3 170 171 172
3 53 173 174
3 53 175 177
3 175 0 176
3 175 176 177
3 53 34 0
3 54 34 53
3 54 4 34
3 178 54 179
3 180 54 181
3 182 4 183
3 184 183 54
3 182 183 184
3 186 185 4
3 29 187 189
3 189 188 11
3 187 188 189
3 191 190 29
3 40 30 1
3 55 30 40
3 55 15 30
3 32 55 8
3 56 55 32
3 56 15 55
3 56 192 194
3 194 193 15
3 192 193 194
3 196 195 56
3 198 197 3
