ply
format ascii 1.0
element vertex 219
property float x
property float y
property float z
property uchar red
property uchar green
property uchar blue
element face 215
property list uchar int vertex_index
end_header
13.9871 -31.7982 40.9807 26 255 229
5.53408 -38.7425 48.016 255 83 0
13.4177 -24.4908 45.4725 171 0 0
8.75193 -31.7075 46.8487 211 0 0
3.21516 -39.6571 51.2859 0 93 255
8.27 -28.5275 49.514 145 0 0
6.26024 -32.2095 50.2368 255 182 0
6.99407 -35.3045 47.3848 255 81 0
13.6036 -28.043 43.1939 255 0 0
10.537 -24.7173 48.8438 148 0 0
11.0262 -28.1053 46.0672 211 0 0
11.3006 -31.7017 43.6357 255 24 0
9.32523 -35.0941 44.2677 255 105 0
7.77008 -38.4286 44.8686 143 255 112
15.1863 -29.9727 40.802 27 255 228
5.79028 -30.6471 51.8538 111 255 144
5.34275 -34.0586 50.6244 88 255 167
6.01754 -40.2429 46.6896 60 255 195
4.98687 -40.6283 48.1144 1 255 254
14.706 -22.5506 45.1858 105 255 150
14.8375 -24.4319 43.9871 226 255 29
14.9681 -26.2277 42.8632 203 255 52
13.4452 -26.3408 44.3379 229 0 0
10.3722 -23.0201 50.0626 99 255 156
9.12923 -24.863 50.5985 243 255 12
8.52174 -30.0613 48.1873 168 0 0
9.64184 -28.1787 47.8275 166 0 0
9.89233 -29.859 46.4264 179 0 0
11.1685 -29.8893 44.803 240 0 0
9.98449 -31.721 45.1941 239 0 0
10.3035 -33.3906 43.9076 255 77 0
9.04172 -33.4628 45.4524 255 32 0
6.24063 -36.9599 47.7157 255 69 0
7.35103 -36.9205 46.0759 255 127 0
6.60931 -38.5756 46.4502 255 142 0
7.11002 -40.0154 45.1972 0 199 255
5.02142 -37.2221 49.5119 157 255 98
4.44093 -39.143 49.5686 34 255 221
13.3001 -22.6617 46.6907 235 255 20
7.94165 -26.8938 50.986 255 249 0
6.89124 -28.7595 51.3461 244 255 11
7.14057 -30.3841 49.9992 156 0 0
7.50047 -31.9868 48.4892 224 0 0
7.81909 -33.5918 47.086 255 33 0
6.66186 -33.7255 48.7464 255 4 0
5.82123 -35.4858 49.1055 255 244 0
15.0385 -28.1084 41.8113 161 255 94
13.8334 -29.8434 42.0215 255 29 0
11.7556 -22.8904 48.4087 223 255 32
11.9983 -24.4979 47.1364 133 0 0
9.37473 -26.5238 49.2504 128 0 0
10.7729 -26.4527 47.443 143 0 0
12.1889 -26.2835 45.7928 202 0 0
12.2891 -28.1091 44.5598 255 19 0
12.4493 -29.8947 43.3599 255 18 0
12.672 -31.6641 42.228 255 255 0
11.5664 -33.4557 42.4924 108 255 147
10.6327 -35.0403 42.7817 92 255 163
9.68735 -36.6352 43.1803 70 255 185
8.11115 -35.2032 45.8158 255 95 0
8.48086 -36.7743 44.5932 255 162 0
8.85507 -38.321 43.5305 0 208 255
14.663 -31.8651 40.4259 0 0 174
15.2626 -30.9524 40.3366 0 0 174
14.5867 -30.8855 40.8913 0 0 209
8.41693 -25.029 51.4425 0 0 147
8.98887 -24.0328 51.2418 0 0 147
4.43237 -37.4612 50.3431 0 0 142
4.78154 -36.4936 50.257 0 0 142
13.2122 -21.8405 47.2542 0 0 145
13.97 -21.6432 46.4993 0 0 145
6.1882 -28.8423 52.3009 0 0 146
6.68817 -27.9593 52.0916 0 0 146
5.18145 -35.6255 50.0538 0 0 181
5.58199 -34.7722 49.8649 0 0 219
4.94221 -34.9118 50.8133 0 0 181
4.78154 -36.4936 50.257 0 0 182
5.42132 -36.354 49.3087 0 0 221
5.18145 -35.6255 50.0538 0 0 182
3.53687 -40.3434 50.4952 0 0 181
4.14976 -40.0864 49.6365 0 0 181
3.82805 -39.4 50.4273 0 0 220
7.93429 -39.2195 44.3832 0 0 162
8.47679 -39.1657 43.7141 0 0 162
8.31258 -38.3748 44.1995 0 0 191
7.31631 -40.7734 44.6847 0 0 128
6.85294 -40.7728 45.3078 0 0 128
15.9121 -30.0709 40.2211 0 0 139
15.8334 -29.1384 40.6732 0 0 139
15.9121 -30.0709 40.2211 0 0 141
15.2626 -30.9524 40.3366 0 0 141
5.11194 -30.7172 52.8136 0 0 148
5.63772 -29.7862 52.5548 0 0 148
5.35149 -31.5284 52.0236 0 0 146
5.11194 -30.7172 52.8136 0 0 146
5.58647 -32.3096 51.2151 0 0 189
6.02526 -31.4283 51.0453 0 0 231
5.35149 -31.5284 52.0236 0 0 189
5.12772 -33.2341 51.4089 0 0 192
5.8015 -33.1341 50.4306 0 0 237
5.58647 -32.3096 51.2151 0 0 192
4.68495 -34.1325 51.6193 0 0 147
5.12772 -33.2341 51.4089 0 0 147
4.94221 -34.9118 50.8133 0 0 145
4.68495 -34.1325 51.6193 0 0 145
5.79 -41.1234 46.7234 0 0 132
6.30669 -40.8866 46.054 0 0 132
5.27467 -41.3161 47.4358 0 0 165
5.79 -41.1234 46.7234 0 0 165
5.50221 -40.4356 47.402 0 0 195
4.71686 -41.5615 48.1825 0 0 137
5.27467 -41.3161 47.4358 0 0 137
2.90339 -40.6538 51.3395 0 0 145
2.58023 -39.9238 52.1507 0 0 145
15.4508 -22.4921 44.4588 0 0 146
15.4124 -21.5596 44.9791 0 0 146
15.5166 -23.4328 43.8594 0 0 191
15.4508 -22.4921 44.4588 0 0 191
14.7718 -23.4913 44.5865 0 0 234
15.5764 -24.4051 43.2952 0 0 146
15.5166 -23.4328 43.8594 0 0 146
14.9028 -25.3298 43.4251 0 0 223
15.6417 -25.303 42.7332 0 0 183
15.5764 -24.4051 43.2952 0 0 183
9.61035 -23.1114 50.9739 0 0 145
10.2565 -22.2283 50.6256 0 0 145
9.7507 -23.9416 50.3306 0 0 237
9.61035 -23.1114 50.9739 0 0 192
8.98887 -24.0328 51.2418 0 0 192
6.30669 -40.8866 46.054 0 0 159
6.85294 -40.7728 45.3078 0 0 159
6.56378 -40.1291 45.9434 0 0 186
4.14213 -38.4216 50.3714 0 0 181
4.73117 -38.1825 49.5403 0 0 220
4.43237 -37.4612 50.3431 0 0 181
3.52924 -38.6787 51.2301 0 0 184
3.82805 -39.4 50.4273 0 0 225
4.14213 -38.4216 50.3714 0 0 184
2.90535 -38.9331 52.0983 0 0 144
3.52924 -38.6787 51.2301 0 0 144
2.58023 -39.9238 52.1507 0 0 145
2.90535 -38.9331 52.0983 0 0 145
14.6729 -21.5877 45.7468 0 0 148
15.4124 -21.5596 44.9791 0 0 148
14.0031 -22.6062 45.9382 0 0 234
14.6729 -21.5877 45.7468 0 0 191
13.97 -21.6432 46.4993 0 0 191
7.21337 -27.0265 51.9116 0 0 149
7.82314 -26.0443 51.6362 0 0 149
7.41645 -27.8266 51.166 0 0 236
7.21337 -27.0265 51.9116 0 0 192
6.68817 -27.9593 52.0916 0 0 192
6.34076 -29.7033 51.5999 0 0 240
6.1882 -28.8423 52.3009 0 0 195
5.63772 -29.7862 52.5548 0 0 195
14.1205 -32.7197 40.514 0 0 139
13.4024 -32.6621 41.1263 0 0 139
14.663 -31.8651 40.4259 0 0 136
14.1205 -32.7197 40.514 0 0 136
4.42273 -40.829 48.9095 0 0 176
4.7139 -39.8856 48.8415 0 0 212
4.14976 -40.0864 49.6365 0 0 176
4.71686 -41.5615 48.1825 0 0 139
4.42273 -40.829 48.9095 0 0 139
3.53687 -40.3434 50.4952 0 0 144
2.90339 -40.6538 51.3395 0 0 144
15.6857 -26.2882 42.1949 0 0 144
15.6417 -25.303 42.7332 0 0 144
15.7209 -27.2285 41.669 0 0 181
15.6857 -26.2882 42.1949 0 0 181
15.0033 -27.168 42.3373 0 0 220
15.7595 -28.2062 41.1779 0 0 142
15.7209 -27.2285 41.669 0 0 142
15.1124 -29.0406 41.3067 0 0 214
15.8334 -29.1384 40.6732 0 0 177
15.7595 -28.2062 41.1779 0 0 177
11.0378 -22.0552 49.7666 0 0 146
10.2565 -22.2283 50.6256 0 0 146
11.7295 -21.9904 48.9396 0 0 189
11.0378 -22.0552 49.7666 0 0 189
11.0639 -22.9553 49.2357 0 0 231
12.4399 -21.9549 48.1132 0 0 146
11.7295 -21.9904 48.9396 0 0 146
12.5278 -22.7761 47.5497 0 0 232
13.2122 -21.8405 47.2542 0 0 189
12.4399 -21.9549 48.1132 0 0 189
8.53544 -25.8784 50.7923 0 0 236
8.41693 -25.029 51.4425 0 0 192
7.82314 -26.0443 51.6362 0 0 192
12.7448 -32.595 41.75 0 0 173
13.4024 -32.6621 41.1263 0 0 173
13.3295 -31.7311 41.6043 0 0 208
12.1921 -33.4908 41.8822 0 0 171
12.7448 -32.595 41.75 0 0 171
12.1192 -32.5599 42.3602 0 0 205
11.7385 -34.3485 41.9633 0 0 135
12.1921 -33.4908 41.8822 0 0 135
11.2716 -35.1408 42.1079 0 0 169
11.7385 -34.3485 41.9633 0 0 169
11.0995 -34.248 42.637 0 0 201
10.7562 -35.9644 42.3073 0 0 137
11.2716 -35.1408 42.1079 0 0 137
10.2835 -36.7618 42.5066 0 0 168
10.7562 -35.9644 42.3073 0 0 168
10.16 -35.8378 42.981 0 0 200
9.81382 -37.5633 42.7221 0 0 136
10.2835 -36.7618 42.5066 0 0 136
9.39769 -38.4063 42.8972 0 0 164
9.81382 -37.5633 42.7221 0 0 164
9.27121 -37.4781 43.3554 0 0 195
9.01585 -39.2128 43.0724 0 0 132
9.39769 -38.4063 42.8972 0 0 132
9.01585 -39.2128 43.0724 0 0 133
8.47679 -39.1657 43.7141 0 0 133
7.60426 -40.0128 44.5475 0 0 157
7.93429 -39.2195 44.3832 0 0 157
7.44005 -39.222 45.0329 0 0 183
7.60426 -40.0128 44.5475 0 0 129
7.31631 -40.7734 44.6847 0 0 129
3 0 62 64
3 64 63 14
3 62 63 64
3 1 18 17
3 2 20 19
3 2 22 20
3 65 24 66
3 3 27 25
3 3 29 27
3 3 31 29
3 1 34 32
3 1 17 34
3 68 67 36
3 69 38 70
3 71 40 72
3 6 41 15
3 6 42 41
3 6 44 42
3 73 45 74
3 75 74 16
3 73 74 75
3 76 36 77
3 78 77 45
3 76 77 78
3 4 79 81
3 81 80 37
3 79 80 81
3 8 46 21
3 8 47 46
3 9 48 23
3 9 49 48
3 5 50 39
3 10 51 26
3 10 52 51
3 10 53 52
3 11 54 28
3 11 55 54
3 11 56 55
3 12 57 30
3 12 58 57
3 7 59 43
3 13 60 33
3 13 61 60
3 13 82 84
3 84 83 61
3 82 83 84
3 86 85 35
3 14 87 88
3 90 89 14
3 91 15 92
3 93 15 94
3 95 6 96
3 97 96 15
3 95 96 97
3 98 16 99
3 100 99 6
3 98 99 100
3 101 16 102
3 104 103 16
3 17 105 106
3 18 107 109
3 109 108 17
3 107 108 109
3 18 110 111
3 113 112 4
3 19 114 115
3 20 116 118
3 118 117 19
3 116 117 118
3 20 119 120
3 20 121 123
3 121 21 122
3 121 122 123
3 22 21 20
3 22 8 21
3 124 23 125
3 24 126 128
3 126 23 127
3 126 127 128
3 24 9 23
3 25 26 5
3 27 26 25
3 27 10 26
3 27 28 10
3 29 28 27
3 29 11 28
3 29 30 11
3 31 30 29
3 31 12 30
3 32 33 7
3 34 33 32
3 34 13 33
3 34 35 13
3 17 35 34
3 17 129 131
3 131 130 35
3 129 130 131
3 36 37 1
3 132 37 133
3 134 133 36
3 132 133 134
3 135 4 136
3 137 136 37
3 135 136 137
3 138 4 139
3 141 140 4
3 142 19 143
3 38 144 146
3 144 19 145
3 144 145 146
3 38 2 19
3 147 39 148
3 40 149 151
3 149 39 150
3 149 150 151
3 40 5 39
3 15 152 154
3 152 40 153
3 152 153 154
3 41 40 15
3 41 5 40
3 41 25 5
3 42 25 41
3 42 3 25
3 42 43 3
3 44 43 42
3 44 7 43
3 16 44 6
3 45 44 16
3 45 7 44
3 45 32 7
3 36 32 45
3 36 1 32
3 156 155 0
3 158 157 0
3 37 18 1
3 159 18 160
3 161 160 37
3 159 160 161
3 163 162 18
3 165 164 4
3 21 166 167
3 46 168 170
3 170 169 21
3 168 169 170
3 46 171 172
3 46 173 175
3 173 14 174
3 173 174 175
3 47 14 46
3 47 0 14
3 23 176 177
3 48 178 180
3 180 179 23
3 178 179 180
3 48 181 182
3 48 183 185
3 183 38 184
3 183 184 185
3 49 38 48
3 49 2 38
3 39 186 188
3 186 24 187
3 186 187 188
3 50 24 39
3 50 9 24
3 26 50 5
3 51 50 26
3 51 9 50
3 51 49 9
3 52 49 51
3 52 2 49
3 52 22 2
3 53 22 52
3 53 8 22
3 28 53 10
3 54 53 28
3 54 8 53
3 54 47 8
3 55 47 54
3 55 0 47
3 55 189 191
3 191 190 0
3 189 190 191
3 56 192 194
3 194 193 55
3 192 193 194
3 56 195 196
3 30 56 11
3 57 56 30
3 57 197 199
3 199 198 56
3 197 198 199
3 57 200 201
3 58 202 204
3 204 203 57
3 202 203 204
3 58 205 206
3 43 31 3
3 59 31 43
3 59 12 31
3 33 59 7
3 60 59 33
3 60 12 59
3 60 58 12
3 61 58 60
3 61 207 209
3 209 208 58
3 207 208 209
3 61 210 211
3 213 212 61
3 35 214 216
3 216 215 13
3 214 215 216
3 218 217 35
