ply
format ascii 1.0
element vertex 168
property float x
property float y
property float z
property uchar red
property uchar green
property uchar blue
element face 141
property list uchar int vertex_index
end_header
52.955 -15.2266 -4.94443 177 0 0
43.8288 -23.1742 7.40537 141 255 114
48.6172 -15.2406 -5.6171 0 178 255
54.137 -11.1634 -9.30638 255 252 0
57.5878 -14.8549 -4.3535 228 255 27
58.6613 -10.3092 -8.43785 111 255 144
45.3284 -20.887 3.24626 0 237 255
51.2437 -18.9345 -0.745335 241 0 0
50.7206 -15.3513 -5.30476 255 199 0
51.3695 -13.5029 -7.51715 205 255 50
53.6274 -13.2424 -7.1122 141 0 0
46.3342 -23.1211 5.29078 0 244 255
44.5198 -22.0658 5.36088 165 255 90
47.2043 -21.7239 3.27093 204 255 51
48.1317 -20.2583 1.19462 235 255 20
50.2862 -20.678 1.27177 156 255 99
53.5704 -19.0606 -0.623219 200 255 55
41.9509 -22.4704 9.50028 0 197 255
43.3122 -24.212 9.366 0 116 255
55.2654 -15.0131 -4.60784 155 0 0
55.9279 -12.892 -6.70079 128 0 0
58.2048 -12.6073 -6.35437 237 255 18
49.9384 -17.0853 -3.10401 172 255 83
42.386 -21.6356 7.48661 0 205 255
49.0603 -18.7164 -0.933147 150 255 105
52.1481 -17.1209 -2.81873 212 0 0
54.4678 -17.0669 -2.58141 178 0 0
56.8353 -17.0552 -2.43658 95 255 160
59.1795 -17.195 -2.40447 0 96 255
56.4279 -10.6994 -8.85146 255 115 0
56.7466 -8.43749 -11.0456 2 255 253
48.2653 -22.0414 3.25252 0 0 170
46.7693 -22.4225 4.28085 0 0 205
47.8303 -22.74 4.26244 0 0 170
49.8062 -21.5184 2.25294 0 0 174
48.7453 -21.2009 2.27135 0 0 211
48.2653 -22.0414 3.25252 0 0 174
51.4511 -20.8392 1.27202 0 0 138
49.8062 -21.5184 2.25294 0 0 138
43.1671 -24.6912 10.2969 0 0 129
42.5268 -23.7243 10.3805 0 0 129
48.9156 -14.3794 -6.72545 0 0 135
47.6535 -15.0046 -5.71448 0 0 135
52.9971 -11.3493 -9.5129 0 0 186
51.6133 -12.5191 -8.61829 0 0 186
52.7532 -12.3332 -8.41177 0 0 228
54.3008 -10.0786 -10.4073 0 0 145
52.9971 -11.3493 -9.5129 0 0 145
48.5029 -17.6832 -2.12139 0 0 136
48.914 -16.9545 -3.2404 0 0 136
44.1616 -20.8098 4.31154 0 0 163
43.7574 -21.3992 5.36885 0 0 163
44.9241 -21.4764 4.30357 0 0 195
44.5248 -20.3206 3.21961 0 0 130
44.1616 -20.8098 4.31154 0 0 130
45.7624 -20.2585 2.16056 0 0 132
44.5248 -20.3206 3.21961 0 0 132
56.4078 -18.1338 -1.51657 0 0 185
55.2029 -18.0579 -1.5299 0 0 228
54.7753 -19.1365 -0.60989 0 0 185
57.5798 -18.2037 -1.50051 0 0 183
58.0074 -17.1251 -2.42052 0 0 225
56.4078 -18.1338 -1.51657 0 0 183
57.8891 -7.00478 -11.9294 0 0 146
57.8433 -8.19947 -10.8205 0 0 146
56.81 -7.27763 -12.156 0 0 145
57.8891 -7.00478 -11.9294 0 0 145
58.9875 -13.6887 -5.23736 0 0 142
58.7193 -14.8646 -4.28466 0 0 142
53.0932 -20.0306 0.324528 0 0 181
51.9283 -19.8693 0.324276 0 0 221
51.4511 -20.8392 1.27202 0 0 181
54.7753 -19.1365 -0.60989 0 0 141
53.0932 -20.0306 0.324528 0 0 141
58.8007 -9.13531 -9.51658 0 0 141
59.818 -9.01498 -9.33426 0 0 141
41.8461 -22.8535 10.4476 0 0 129
41.3681 -21.7512 10.4816 0 0 129
42.6315 -23.3412 9.43314 0 0 183
41.8461 -22.8535 10.4476 0 0 155
42.5268 -23.7243 10.3805 0 0 155
44.1539 -24.9582 9.25588 0 0 129
43.1671 -24.6912 10.2969 0 0 129
44.4457 -24.3314 8.30824 0 0 132
44.1539 -24.9582 9.25588 0 0 132
44.704 -23.8125 7.32793 0 0 161
43.5705 -23.6931 8.38569 0 0 191
44.4457 -24.3314 8.30824 0 0 161
45.9567 -23.786 6.27063 0 0 166
45.0815 -23.1477 6.34807 0 0 200
44.704 -23.8125 7.32793 0 0 166
47.3765 -23.55 5.21882 0 0 134
45.9567 -23.786 6.27063 0 0 134
47.8303 -22.74 4.26244 0 0 137
47.3765 -23.55 5.21882 0 0 137
50.2918 -13.5106 -7.67547 0 0 177
48.9156 -14.3794 -6.72545 0 0 177
49.9933 -14.3718 -6.56713 0 0 215
50.2918 -13.5106 -7.67547 0 0 140
51.6133 -12.5191 -8.61829 0 0 140
59.296 -12.5649 -6.23779 0 0 182
57.8963 -13.7311 -5.35394 0 0 223
58.9875 -13.6887 -5.23736 0 0 182
59.4856 -11.3726 -7.24068 0 0 142
59.296 -12.5649 -6.23779 0 0 142
59.7139 -10.2236 -8.28242 0 0 182
58.433 -11.4582 -7.39611 0 0 223
59.4856 -11.3726 -7.24068 0 0 182
59.818 -9.01498 -9.33426 0 0 142
59.7139 -10.2236 -8.28242 0 0 142
47.3284 -15.7279 -4.59589 0 0 134
47.6535 -15.0046 -5.71448 0 0 134
48.2534 -16.0321 -4.49694 0 0 134
47.3284 -15.7279 -4.59589 0 0 134
49.3051 -16.0875 -4.34078 0 0 174
49.6689 -15.296 -5.46093 0 0 211
48.2534 -16.0321 -4.49694 0 0 174
50.3295 -16.2183 -4.20439 0 0 211
49.3051 -16.0875 -4.34078 0 0 174
48.914 -16.9545 -3.2404 0 0 174
41.4284 -21.4528 9.52683 0 0 128
41.3681 -21.7512 10.4816 0 0 128
41.646 -21.0354 8.52 0 0 161
41.4284 -21.4528 9.52683 0 0 161
42.1685 -22.053 8.49344 0 0 191
41.8168 -20.7065 7.49904 0 0 129
41.646 -21.0354 8.52 0 0 129
42.6905 -21.1841 6.43172 0 0 159
43.4529 -21.8507 6.42374 0 0 189
43.7574 -21.3992 5.36885 0 0 159
41.8168 -20.7065 7.49904 0 0 131
42.6905 -21.1841 6.43172 0 0 131
47.164 -19.9442 1.13473 0 0 166
45.7624 -20.2585 2.16056 0 0 166
46.73 -20.5727 2.22044 0 0 199
47.6284 -19.1732 0.07085 0 0 170
47.164 -19.9442 1.13473 0 0 170
48.596 -19.4874 0.130736 0 0 204
48.0639 -18.4988 -1.03596 0 0 134
47.6284 -19.1732 0.07085 0 0 134
49.4994 -17.9009 -2.01858 0 0 207
48.5029 -17.6832 -2.12139 0 0 172
48.0639 -18.4988 -1.03596 0 0 172
58.3431 -15.9648 -3.3262 0 0 182
58.7193 -14.8646 -4.28466 0 0 182
57.2115 -15.955 -3.39504 0 0 223
59.5152 -16.0347 -3.31014 0 0 186
58.3431 -15.9648 -3.3262 0 0 186
58.0074 -17.1251 -2.42052 0 0 229
60.5795 -16.177 -3.30306 0 0 140
59.5152 -16.0347 -3.31014 0 0 140
58.791 -18.34 -1.53805 0 0 144
57.5798 -18.2037 -1.50051 0 0 144
60.3015 -17.3788 -2.44245 0 0 141
58.791 -18.34 -1.53805 0 0 141
60.5795 -16.177 -3.30306 0 0 142
60.3015 -17.3788 -2.44245 0 0 142
57.684 -9.3304 -9.72338 0 0 190
57.5446 -10.5043 -8.64465 0 0 236
58.8007 -9.13531 -9.51658 0 0 190
56.5873 -9.56842 -9.94855 0 0 233
57.684 -9.3304 -9.72338 0 0 189
57.8433 -8.19947 -10.8205 0 0 189
55.6056 -8.71562 -11.2769 0 0 191
54.3008 -10.0786 -10.4073 0 0 191
55.4418 -9.80046 -10.176 0 0 236
55.6056 -8.71562 -11.2769 0 0 147
56.81 -7.27763 -12.156 0 0 147
3 0 10 8
3 31 13 32
3 33 32 11
3 31 32 33
3 34 15 35
3 36 35 13
3 34 35 36
3 38 37 15
3 39 18 40
3 2 41 42
3 3 43 45
3 45 44 9
3 43 44 45
3 3 46 47
3 4 21 19
3 48 22 49
3 1 23 17
3 6 50 52
3 52 51 12
3 50 51 52
3 6 53 54
3 6 55 56
3 7 24 14
3 7 25 24
3 7 26 25
3 57 27 58
3 59 58 16
3 57 58 59
3 60 28 61
3 62 61 27
3 60 61 62
3 5 29 20
3 63 30 64
3 66 65 30
3 8 9 2
3 10 9 8
3 10 3 9
3 68 67 4
3 11 12 1
3 13 12 11
3 13 6 12
3 13 14 6
3 15 14 13
3 15 7 14
3 15 16 7
3 69 16 70
3 71 70 15
3 69 70 71
3 73 72 16
3 75 74 5
3 76 17 77
3 18 78 80
3 78 17 79
3 78 79 80
3 18 1 17
3 81 18 82
3 83 18 84
3 85 1 86
3 87 86 18
3 85 86 87
3 88 11 89
3 90 89 1
3 88 89 90
3 91 11 92
3 94 93 11
3 9 95 97
3 97 96 2
3 95 96 97
3 99 98 9
3 19 20 0
3 21 20 19
3 21 5 20
3 100 21 101
3 102 101 4
3 100 101 102
3 103 21 104
3 105 5 106
3 107 106 21
3 105 106 107
3 109 108 5
3 110 2 111
3 112 2 113
3 114 8 115
3 116 115 2
3 114 115 116
3 22 117 119
3 117 8 118
3 117 118 119
3 22 0 8
3 17 120 121
3 23 122 124
3 124 123 17
3 122 123 124
3 23 125 126
3 12 23 1
3 127 23 128
3 129 128 12
3 127 128 129
3 131 130 23
3 14 132 134
3 134 133 6
3 132 133 134
3 24 135 137
3 137 136 14
3 135 136 137
3 24 138 139
3 24 140 142
3 140 22 141
3 140 141 142
3 25 22 24
3 25 0 22
3 25 19 0
3 26 19 25
3 26 4 19
3 16 26 7
3 27 26 16
3 27 4 26
3 27 143 145
3 145 144 4
3 143 144 145
3 28 146 148
3 148 147 27
3 146 147 148
3 28 149 150
3 151 28 152
3 153 28 154
3 156 155 28
3 20 10 0
3 29 10 20
3 29 3 10
3 157 29 158
3 159 158 5
3 157 158 159
3 30 160 162
3 160 29 161
3 160 161 162
3 30 3 29
3 30 163 165
3 165 164 3
3 163 164 165
3 167 166 30
