ply
format ascii 1.0
element vertex 173
property float x
property float y
property float z
property uchar red
property uchar green
property uchar blue
element face 135
property list uchar int vertex_index
end_header
-2.92025 40.4871 22.2504 255 173 0
-5.00167 9.0204 36.4355 115 255 140
-3.16461 22.5485 35.3859 129 0 0
-3.48477 14.5894 38.4903 255 64 0
-2.58001 30.2542 31.7709 255 48 0
-3.57081 6.38791 40.8552 247 255 8
-3.90135 23.9488 32.8131 255 29 0
-4.09448 19.9915 34.5306 255 34 0
-2.17464 33.9996 29.8696 255 229 0
-4.28088 11.9027 37.4925 128 0 0
-3.55603 10.5188 39.7741 255 75 0
-4.28414 7.76645 38.6921 255 61 0
-2.228 44.0916 20.2529 147 255 108
-2.42734 21.0469 37.8885 83 255 172
-3.35529 18.5994 37.0191 135 0 0
-4.21918 15.9769 36.0992 255 42 0
-3.63324 27.8483 30.9786 255 27 0
-3.28272 31.6858 29.0627 255 27 0
-2.84267 35.4535 27.103 119 255 136
-2.30854 39.141 25.138 125 255 130
-1.6818 42.7376 23.2055 255 193 0
-2.90811 26.4349 33.6237 255 47 0
-2.8282 4.91296 42.9153 64 255 191
-3.53062 2.19829 41.7312 69 255 186
-4.3717 22.6022 32.3919 0 0 138
-4.27245 24.5866 31.4942 0 0 138
-3.53887 39.2253 21.8218 0 0 141
-3.21309 38.6355 23.2635 0 0 141
-4.96607 6.91929 36.993 0 0 197
-4.6073 6.29231 38.1213 0 0 197
-4.64291 8.39342 37.5638 0 3 255
-5.32719 7.47607 35.8767 0 0 136
-4.96607 6.91929 36.993 0 0 136
-2.09859 46.4281 17.7813 0 0 140
-2.49181 44.6811 18.7481 0 0 207
-1.83479 45.8385 19.2861 0 0 207
-4.59138 16.6057 34.8642 0 0 197
-4.15683 17.9842 35.3149 0 4 255
-4.52903 18.613 34.0798 0 0 197
-4.61697 14.5673 35.6117 0 0 137
-4.59138 16.6057 34.8642 0 0 137
-2.26571 36.5585 27.5332 0 0 194
-2.50865 34.7266 28.4863 0 0 254
-1.93169 35.8315 28.9164 0 0 194
-1.99864 38.4022 26.5506 0 0 196
-2.5756 37.2973 26.1205 0 2 255
-2.26571 36.5585 27.5332 0 0 196
-1.08731 43.7297 23.753 0 0 194
-1.40315 41.9882 24.6499 0 0 194
-0.808655 42.9803 25.1973 0 0 134
-1.3278 44.4861 22.2736 0 0 135
-1.08731 43.7297 23.753 0 0 135
-2.74406 28.3445 32.6973 0 0 250
-2.39202 27.583 34.0197 0 0 191
-2.22797 29.4926 33.0933 0 0 191
-3.114 13.8429 39.6426 0 0 131
-3.04924 15.8459 38.9601 0 0 131
-3.19306 7.71009 41.4078 0 0 189
-3.18567 9.77554 40.8673 0 0 189
-3.56342 8.45337 40.3147 0 0 246
-3.19951 5.65044 41.8853 0 0 239
-2.82176 6.97261 42.4379 0 0 184
-3.19306 7.71009 41.4078 0 0 184
-4.46826 20.6236 33.2506 0 0 199
-3.99791 21.9702 33.6719 0 6 255
-4.3717 22.6022 32.3919 0 0 199
-4.52903 18.613 34.0798 0 0 138
-4.46826 20.6236 33.2506 0 0 138
-1.83921 33.2276 31.2202 0 0 191
-2.37733 32.1269 30.8202 0 0 249
-2.04189 31.3549 32.1709 0 0 191
-1.61947 35.0453 30.2941 0 0 131
-1.83921 33.2276 31.2202 0 0 131
-1.93169 35.8315 28.9164 0 0 132
-1.61947 35.0453 30.2941 0 0 132
-2.04189 31.3549 32.1709 0 0 131
-2.22797 29.4926 33.0933 0 0 131
-4.2587 5.66662 39.1911 0 0 192
-3.90204 4.97736 40.2727 0 0 192
-3.92748 7.07718 39.7737 0 0 250
-4.2587 5.66662 39.1911 0 0 133
-4.6073 6.29231 38.1213 0 0 133
-2.87223 42.8817 19.7792 0 0 207
-3.21835 41.0795 20.778 0 0 207
-2.57413 42.2893 21.2516 0 18 255
-2.87223 42.8817 19.7792 0 0 141
-2.49181 44.6811 18.7481 0 0 141
-2.52053 19.0746 38.6591 0 0 131
-2.05452 20.2607 39.1014 0 0 131
-2.9845 17.8509 38.2245 0 0 188
-2.52053 19.0746 38.6591 0 0 188
-2.89132 19.8232 37.4538 0 0 246
-3.42003 16.5944 37.7547 0 0 250
-3.04924 15.8459 38.9601 0 0 191
-2.9845 17.8509 38.2245 0 0 191
-4.64782 12.5302 36.3084 0 0 196
-4.25003 13.9398 36.7959 0 1 255
-4.61697 14.5673 35.6117 0 0 196
-5.00822 11.0891 35.7799 0 0 198
-4.64128 10.4616 36.964 0 6 255
-4.64782 12.5302 36.3084 0 0 198
-5.37237 9.57557 35.2626 0 0 137
-5.00822 11.0891 35.7799 0 0 137
-3.99684 28.4942 29.6258 0 0 138
-4.13839 26.5363 30.577 0 0 138
-3.82158 30.413 28.6679 0 0 200
-3.99684 28.4942 29.6258 0 0 200
-3.45798 29.767 30.0207 0 8 255
-3.6334 32.3413 27.6791 0 0 138
-3.82158 30.413 28.6679 0 0 138
-3.41337 34.2252 26.6993 0 0 200
-3.6334 32.3413 27.6791 0 0 200
-3.06269 33.5696 28.0829 0 8 255
-3.1743 36.1187 25.6898 0 0 138
-3.41337 34.2252 26.6993 0 0 138
-2.90724 37.9625 24.7072 0 0 200
-3.1743 36.1187 25.6898 0 0 200
-2.5756 37.2973 26.1205 0 8 255
-2.6144 39.814 23.6942 0 11 255
-3.21309 38.6355 23.2635 0 0 202
-2.90724 37.9625 24.7072 0 0 202
-1.71652 40.1899 25.6161 0 0 134
-1.99864 38.4022 26.5506 0 0 134
-1.99517 40.9393 24.1718 0 1 255
-1.71652 40.1899 25.6161 0 0 196
-1.40315 41.9882 24.6499 0 0 196
-1.6009 45.1631 20.7972 0 0 200
-1.9549 43.4146 21.7292 0 8 255
-1.3278 44.4861 22.2736 0 0 200
-1.83479 45.8385 19.2861 0 0 138
-1.6009 45.1631 20.7972 0 0 138
-1.94014 22.1989 38.3012 0 0 130
-2.05452 20.2607 39.1014 0 0 130
-2.30494 22.9862 37.0461 0 0 131
-1.94014 22.1989 38.3012 0 0 131
-2.67357 23.7369 35.7948 0 0 189
-2.79597 21.7977 36.6372 0 0 246
-2.30494 22.9862 37.0461 0 0 189
-2.54532 25.6801 34.9137 0 0 132
-2.39202 27.583 34.0197 0 0 132
-3.03636 24.4917 34.5048 0 0 250
-2.67357 23.7369 35.7948 0 0 192
-2.54532 25.6801 34.9137 0 0 192
-4.13839 26.5363 30.577 0 0 200
-4.27245 24.5866 31.4942 0 0 200
-3.76729 25.8985 31.8959 0 7 255
-3.53887 39.2253 21.8218 0 0 142
-3.21835 41.0795 20.778 0 0 142
-3.14962 11.8076 40.2845 0 0 190
-3.114 13.8429 39.6426 0 0 190
-3.5204 12.5541 39.1322 0 0 248
-3.14962 11.8076 40.2845 0 0 130
-3.18567 9.77554 40.8673 0 0 130
-2.43095 6.19555 43.4787 0 0 130
-2.82176 6.97261 42.4379 0 0 130
-2.42711 4.14529 43.8885 0 0 128
-2.43095 6.19555 43.4787 0 0 128
-2.80436 2.82747 43.2887 0 0 129
-2.42711 4.14529 43.8885 0 0 129
-3.15557 1.47013 42.6966 0 0 182
-2.80436 2.82747 43.2887 0 0 182
-3.17941 3.55562 42.3232 0 0 237
-3.48421 0.076454 42.0721 0 0 130
-3.15557 1.47013 42.6966 0 0 130
-3.88194 2.88254 40.7107 0 0 187
-3.55071 4.2931 41.2932 0 0 243
-3.90204 4.97736 40.2727 0 0 187
-3.83183 0.752255 41.1114 0 0 132
-3.88194 2.88254 40.7107 0 0 132
-3.48421 0.076454 42.0721 0 0 129
-3.83183 0.752255 41.1114 0 0 129
-5.32719 7.47607 35.8767 0 0 138
-5.37237 9.57557 35.2626 0 0 138
3 25 24 6
3 0 26 27
3 1 11 9
3 1 28 30
3 30 29 11
3 28 29 30
3 1 31 32
3 35 34 12
3 33 34 35
3 2 14 13
3 36 15 37
3 38 37 7
3 36 37 38
3 40 39 15
3 4 17 16
3 41 18 42
3 43 42 8
3 41 42 43
3 44 19 45
3 46 45 18
3 44 45 46
3 47 20 48
3 47 48 49
3 51 50 20
3 4 52 54
3 52 21 53
3 52 53 54
3 4 16 21
3 3 55 56
3 5 57 59
3 59 58 10
3 57 58 59
3 5 60 62
3 60 22 61
3 60 61 62
3 5 23 22
3 6 7 2
3 63 7 64
3 65 64 6
3 63 64 65
3 67 66 7
3 68 8 69
3 70 69 4
3 68 69 70
3 71 8 72
3 74 73 8
3 75 4 76
3 9 10 3
3 11 10 9
3 11 5 10
3 11 77 79
3 79 78 5
3 77 78 79
3 81 80 11
3 12 82 84
3 84 83 0
3 82 83 84
3 86 85 12
3 13 87 88
3 14 89 91
3 91 90 13
3 89 90 91
3 14 92 94
3 92 3 93
3 92 93 94
3 7 14 2
3 15 14 7
3 15 3 14
3 15 9 3
3 95 9 96
3 97 96 15
3 95 96 97
3 98 1 99
3 100 99 9
3 98 99 100
3 102 101 1
3 16 103 104
3 17 105 107
3 107 106 16
3 105 106 107
3 17 108 109
3 8 17 4
3 18 17 8
3 18 110 112
3 112 111 17
3 110 111 112
3 18 113 114
3 19 115 117
3 117 116 18
3 115 116 117
3 19 118 120
3 118 0 119
3 118 119 120
3 121 19 122
3 20 123 125
3 123 19 124
3 123 124 125
3 20 0 19
3 20 12 0
3 126 12 127
3 128 127 20
3 126 127 128
3 130 129 12
3 131 13 132
3 133 13 134
3 135 2 136
3 137 136 13
3 135 136 137
3 21 138 139
3 21 140 142
3 140 2 141
3 140 141 142
3 21 6 2
3 16 6 21
3 16 143 145
3 145 144 6
3 143 144 145
3 147 146 0
3 10 148 150
3 150 149 3
3 148 149 150
3 152 151 10
3 22 153 154
3 22 155 156
3 22 157 158
3 23 159 161
3 161 160 22
3 159 160 161
3 23 162 163
3 164 23 165
3 166 165 5
3 164 165 166
3 167 23 168
3 170 169 23
3 172 171 1
