ply
format ascii 1.0
element vertex 183
property float x
property float y
property float z
property uchar red
property uchar green
property uchar blue
element face 176
property list uchar int vertex_index
end_header
1.56437 -2.63143 51.6386 211 255 44
3.08118 -7.74629 58.3322 255 211 0
2.24666 8.26568 57.8858 179 0 0
1.20829 5.34261 50.9359 234 255 21
1.969 -1.95514 62.6242 254 255 1
2.54704 0.305098 58.5306 212 0 0
1.75102 6.16547 62.3971 255 105 0
2.24829 -10.6893 51.5844 0 239 255
3.60842 -13.3058 54.4197 0 248 255
2.81152 -5.28005 54.8525 255 80 0
2.2872 2.68005 54.6612 255 45 0
2.06371 10.5654 53.5348 255 8 0
1.15738 9.29847 50.2276 25 255 230
1.84254 2.12053 62.6196 255 254 0
1.87085 -6.65135 51.6832 95 255 160
2.82547 -8.95323 60.2076 98 255 157
3.45275 -10.5491 56.3073 130 255 125
3.18277 -9.28917 54.6847 255 97 0
3.08098 -6.52726 56.5487 255 38 0
2.3701 4.29661 58.3295 197 0 0
2.52968 1.46641 56.5687 255 9 0
2.35802 5.43105 56.2539 246 0 0
2.14128 6.63069 54.2232 255 26 0
2.24843 9.37765 55.6906 227 0 0
1.34219 1.36633 51.4009 255 75 0
0.699553 -1.20664 50.0483 10 255 245
0.536573 2.81242 49.6683 16 255 239
2.13842 -6.05415 62.4545 123 255 132
2.56088 -4.88313 60.4513 155 0 0
2.78398 -3.71067 58.5163 222 0 0
2.34906 -0.828014 60.551 151 0 0
2.18798 3.20175 60.4536 142 0 0
2.07089 7.2042 60.1237 128 0 0
3.05113 -12.0165 52.9602 82 255 173
2.63941 -7.9946 53.1544 255 115 0
2.29058 -3.98661 53.2262 255 96 0
2.77071 -2.51969 56.6543 255 25 0
2.51033 -1.28943 54.8608 255 63 0
2.02006 0.000763 53.1193 255 78 0
1.83445 3.96753 52.7925 255 61 0
1.7309 7.9162 52.2226 255 44 0
1.69872 11.8475 51.4044 255 251 0
1.29709 9.18083 64.3339 14 255 241
1.68373 10.1803 61.931 255 232 0
1.98705 11.1828 59.5441 250 255 5
2.1652 12.2165 57.1901 219 255 36
2.18813 13.3089 54.8764 189 255 66
2.04038 14.4838 52.5998 166 255 89
1.72306 15.757 50.3473 0 183 255
0.811315 10.0366 49.2182 0 0 132
1.16741 11.265 49.7523 0 0 132
1.2567 -3.94089 50.9321 0 0 164
1.40994 -5.95085 50.9544 0 0 164
1.71761 -4.64139 51.6609 0 0 198
3.257 -9.76741 58.1861 0 0 178
3.12914 -10.3709 59.1237 0 0 178
2.95332 -8.34976 59.2699 0 0 219
3.26697 -9.14768 57.3197 0 0 209
3.44279 -11.1688 57.1736 0 0 171
3.257 -9.76741 58.1861 0 0 171
2.05371 -4.00465 62.5393 0 0 235
1.79868 -4.57389 63.5967 0 0 189
1.71397 -2.52438 63.6815 0 0 189
1.9541 -12.0406 50.8693 0 0 128
2.46217 -12.7111 51.4933 0 0 128
0.328141 -2.49932 49.3901 0 0 132
0.235226 -0.46146 49.23 0 0 132
3.8379 -15.3076 54.2734 0 0 130
3.74016 -13.9372 55.2085 0 0 130
3.55619 -14.671 53.5643 0 0 128
3.8379 -15.3076 54.2734 0 0 128
3.32977 -12.6611 53.69 0 0 194
3.27755 -14.0263 52.8346 0 0 161
3.55619 -14.671 53.5643 0 0 161
1.09155 10.7027 65.2815 0 0 143
1.08713 8.66953 65.5313 0 0 143
1.65611 12.1753 61.5715 0 0 192
1.47537 11.6937 62.8287 0 0 192
1.44774 13.6887 62.4692 0 0 144
1.80776 12.6766 60.378 0 0 186
1.83539 10.6816 60.7375 0 0 232
1.65611 12.1753 61.5715 0 0 186
2.1386 14.184 56.7182 0 0 140
2.0444 13.6795 57.9513 0 0 140
2.15007 14.7302 55.5613 0 0 178
2.17667 12.7627 56.0333 0 0 219
2.1386 14.184 56.7182 0 0 178
2.04837 16.4318 52.0161 0 0 136
2.10147 15.8537 53.2101 0 0 136
1.8897 17.0684 50.8898 0 0 171
1.88172 15.1204 51.4735 0 0 209
2.04837 16.4318 52.0161 0 0 171
1.75621 17.6955 49.7088 0 0 135
1.8897 17.0684 50.8898 0 0 135
0.809142 8.05257 49.643 0 0 167
0.834596 6.07464 49.9971 0 0 167
1.18283 7.32054 50.5818 0 0 203
0.809142 8.05257 49.643 0 0 133
0.811315 10.0366 49.2182 0 0 133
1.6752 -0.462408 63.7192 0 0 142
1.71397 -2.52438 63.6815 0 0 142
1.61197 1.57542 63.7169 0 0 189
1.90577 0.082695 62.6219 0 0 236
1.6752 -0.462408 63.7192 0 0 189
1.58688 3.62181 63.6552 0 0 142
1.61197 1.57542 63.7169 0 0 142
1.54112 5.64429 63.544 0 0 190
1.79678 4.143 62.5084 0 0 237
1.58688 3.62181 63.6552 0 0 190
1.57296 -7.98344 50.9631 0 0 162
1.76168 -10.0024 50.9137 0 0 162
2.05957 -8.67034 51.6338 0 0 196
1.57296 -7.98344 50.9631 0 0 130
1.40994 -5.95085 50.9544 0 0 130
2.98271 -10.9858 60.0468 0 0 140
2.59043 -9.55634 61.1888 0 0 140
2.98271 -10.9858 60.0468 0 0 137
3.12914 -10.3709 59.1237 0 0 137
3.66233 -12.5589 56.1523 0 0 133
3.44279 -11.1688 57.1736 0 0 133
3.53058 -11.9274 55.3635 0 0 199
3.74016 -13.9372 55.2085 0 0 165
3.66233 -12.5589 56.1523 0 0 165
0.153736 1.54807 49.04 0 0 166
0.235226 -0.46146 49.23 0 0 166
0.618063 0.802892 49.8583 0 0 202
0.49874 4.80955 49.3633 0 0 169
0.872429 4.07752 50.3021 0 0 206
0.834596 6.07464 49.9971 0 0 169
0.102913 3.57142 48.7758 0 0 132
0.49874 4.80955 49.3633 0 0 132
0.153736 1.54807 49.04 0 0 133
0.102913 3.57142 48.7758 0 0 133
1.85606 -6.64466 63.4855 0 0 142
1.79868 -4.57389 63.5967 0 0 142
2.24691 -8.10681 62.3123 0 0 142
1.85606 -6.64466 63.4855 0 0 142
2.48194 -7.50369 61.331 0 0 228
2.59043 -9.55634 61.1888 0 0 184
2.24691 -8.10681 62.3123 0 0 184
1.9541 -12.0406 50.8693 0 0 129
1.76168 -10.0024 50.9137 0 0 129
0.824294 -3.22849 50.137 0 0 166
1.2567 -3.94089 50.9321 0 0 166
1.13196 -1.91904 50.8435 0 0 202
0.824294 -3.22849 50.137 0 0 130
0.328141 -2.49932 49.3901 0 0 130
2.86359 -13.3747 52.1812 0 0 128
3.27755 -14.0263 52.8346 0 0 128
2.64971 -11.3529 52.2723 0 0 194
2.46217 -12.7111 51.4933 0 0 161
2.86359 -13.3747 52.1812 0 0 161
1.43808 12.5395 50.3407 0 0 171
1.16741 11.265 49.7523 0 0 171
1.42805 10.573 50.816 0 0 208
1.31416 7.15197 64.5123 0 0 144
1.08713 8.66953 65.5313 0 0 144
1.52405 7.67315 63.3655 0 0 235
1.54112 5.64429 63.544 0 0 188
1.31416 7.15197 64.5123 0 0 188
1.28204 11.1939 64.0302 0 0 145
1.09155 10.7027 65.2815 0 0 145
1.49041 9.68058 63.1325 0 0 236
1.28204 11.1939 64.0302 0 0 189
1.47537 11.6937 62.8287 0 0 189
1.95533 13.1626 59.1283 0 0 142
1.80776 12.6766 60.378 0 0 142
2.07612 11.6996 58.3671 0 0 226
1.95533 13.1626 59.1283 0 0 182
2.0444 13.6795 57.9513 0 0 182
2.17534 15.2663 54.3484 0 0 138
2.15007 14.7302 55.5613 0 0 138
2.11426 13.8964 53.7381 0 0 213
2.17534 15.2663 54.3484 0 0 174
2.10147 15.8537 53.2101 0 0 174
1.45025 14.4942 49.8121 0 0 169
1.43808 12.5395 50.3407 0 0 169
1.71089 13.8022 50.8758 0 0 205
1.48847 16.4453 49.2229 0 0 134
1.45025 14.4942 49.8121 0 0 134
1.52162 18.3838 48.5845 0 0 133
1.48847 16.4453 49.2229 0 0 170
1.75621 17.6955 49.7088 0 0 170
3 50 49 12
3 0 51 53
3 53 52 14
3 51 52 53
3 1 54 56
3 56 55 15
3 54 55 56
3 1 57 59
3 57 16 58
3 57 58 59
3 1 18 16
3 2 21 19
3 2 23 21
3 3 26 24
3 4 60 62
3 60 27 61
3 60 61 62
3 4 28 27
3 4 30 28
3 6 31 13
3 6 32 31
3 7 63 64
3 66 65 25
3 8 67 68
3 8 69 70
3 8 71 73
3 71 33 72
3 71 72 73
3 9 34 17
3 9 35 34
3 5 36 29
3 10 37 20
3 10 38 37
3 10 39 38
3 11 40 22
3 11 41 40
3 74 42 75
3 76 43 77
3 76 77 78
3 79 44 80
3 81 80 43
3 79 80 81
3 82 45 83
3 84 46 85
3 86 85 45
3 84 85 86
3 87 47 88
3 89 48 90
3 91 90 47
3 89 90 91
3 93 92 48
3 12 94 96
3 96 95 3
3 94 95 96
3 98 97 12
3 99 4 100
3 101 13 102
3 103 102 4
3 101 102 103
3 104 13 105
3 106 6 107
3 108 107 13
3 106 107 108
3 14 109 111
3 111 110 7
3 109 110 111
3 113 112 14
3 15 114 115
3 117 116 15
3 16 118 119
3 16 120 122
3 120 8 121
3 120 121 122
3 16 17 8
3 18 17 16
3 18 9 17
3 19 20 5
3 21 20 19
3 21 10 20
3 21 22 10
3 23 22 21
3 23 11 22
3 24 25 0
3 26 25 24
3 26 123 125
3 125 124 25
3 123 124 125
3 126 26 127
3 128 127 3
3 126 127 128
3 129 26 130
3 132 131 26
3 27 133 134
3 27 135 136
3 27 137 139
3 137 15 138
3 137 138 139
3 28 15 27
3 28 1 15
3 28 29 1
3 30 29 28
3 30 5 29
3 13 30 4
3 31 30 13
3 31 5 30
3 31 19 5
3 32 19 31
3 32 2 19
3 141 140 7
3 25 142 144
3 144 143 0
3 142 143 144
3 146 145 25
3 33 147 148
3 33 149 151
3 149 7 150
3 149 150 151
3 17 33 8
3 34 33 17
3 34 7 33
3 34 14 7
3 35 14 34
3 35 0 14
3 29 18 1
3 36 18 29
3 36 9 18
3 20 36 5
3 37 36 20
3 37 9 36
3 37 35 9
3 38 35 37
3 38 0 35
3 38 24 0
3 39 24 38
3 39 3 24
3 22 39 10
3 40 39 22
3 40 3 39
3 40 12 3
3 41 12 40
3 41 152 154
3 154 153 12
3 152 153 154
3 42 155 156
3 42 157 159
3 157 6 158
3 157 158 159
3 160 42 161
3 43 162 164
3 162 42 163
3 162 163 164
3 43 6 42
3 43 32 6
3 44 32 43
3 44 2 32
3 165 44 166
3 45 167 169
3 167 44 168
3 167 168 169
3 45 2 44
3 45 23 2
3 46 23 45
3 46 11 23
3 170 46 171
3 47 172 174
3 172 46 173
3 172 173 174
3 47 11 46
3 47 41 11
3 48 41 47
3 48 175 177
3 177 176 41
3 175 176 177
3 48 178 179
3 182 181 48
3 180 181 182
