ply
format ascii 1.0
element vertex 645
property float x
property float y
property float z
property uchar red
property uchar green
property uchar blue
element face 563
property list uchar int vertex_index
end_header
-2.24815 -4.41675 58.6412 0 207 255
-17.0084 -44.0075 84.2028 212 255 43
-9.79484 -48.0889 88.4234 149 255 106
-0.925852 -32.4074 70.6307 255 76 0
-1.9196 -44.1608 75.1134 84 255 171
-0.375378 -44.2637 84.7596 248 255 7
-2.16896 -0.728067 56.4191 0 189 255
-16.6662 -48.6127 83.6793 255 194 0
-20.3865 -46.7597 81.2087 37 255 218
-9.56576 -43.6031 88.089 0 121 255
-13.1539 -45.9176 86.5691 210 255 45
-13.2964 -50.7463 85.957 16 255 239
-28.7373 -43.8217 76.8002 29 255 226
-1.33353 -38.4999 72.6241 255 245 0
0.218931 -38.8371 77.9347 255 167 0
-3.86269 -47.331 88.9862 0 251 255
-1.18462 -43.6729 87.8421 0 185 255
-2.44972 -48.5625 86.7426 0 231 255
-2.09811 -49.1574 82.8615 0 201 255
-6.29655 -45.5732 89.3322 57 255 198
-7.01834 -50.2547 89.0596 0 75 255
-21.3047 -42.4416 81.8609 0 238 255
-24.4466 -45.1903 78.8927 115 255 140
-34.4272 -45.2436 70.5944 29 255 226
-2.60323 -9.89266 58.8998 0 200 255
-1.85239 -18.353 63.2064 255 153 0
-0.615904 -26.021 69.0855 159 255 96
0.976744 -38.9794 82.7568 102 255 153
-0.713139 -44.3792 80.2998 255 57 0
-1.61963 6.08795 57.1239 139 255 116
-2.26463 -2.78209 57.6826 0 244 255
-2.56506 -5.69081 57.4158 0 89 255
-16.7685 -46.2163 84.0496 255 239 0
-18.4817 -47.6483 82.44 133 255 122
-18.7165 -45.3149 82.8226 255 243 0
-15.2551 -42.8313 85.2542 0 217 255
-13.2416 -43.7464 86.4284 0 219 255
-15.0227 -44.9207 85.4098 217 255 38
-14.9248 -47.2008 85.2621 255 243 0
0.494165 -35.8434 76.9084 122 255 133
-4.4211 -49.6914 88.591 0 109 255
-3.02114 -48.0256 88.0976 28 255 227
-3.67189 -50.3819 87.494 0 77 255
-9.61323 -45.7829 88.4279 137 255 118
-7.83989 -44.592 88.8703 0 230 255
-8.02707 -46.8466 89.0723 96 255 159
-6.61813 -47.8844 89.3576 45 255 210
-8.326 -49.1954 88.9363 0 226 255
-10.0404 -50.5092 88.0877 0 209 255
-23.5957 -41.7742 80.7832 0 155 255
-22.9081 -43.7526 80.494 249 255 6
-25.1303 -43.0725 79.4291 4 255 251
-29.948 -45.2888 74.9985 27 255 228
-27.9419 -45.9988 76.0749 0 202 255
-37.3052 -42.2404 70.1319 0 127 255
-35.6255 -43.0788 71.5039 39 255 216
-35.9571 -44.4033 69.1951 0 209 255
-1.07232 -18.9406 65.4892 129 255 126
-2.09991 -21.7777 63.5786 254 255 1
-1.26672 -22.3358 65.9613 6 255 249
-0.765587 -29.247 69.8083 255 210 0
-1.67755 -28.9206 67.184 255 214 0
-1.87885 -32.106 67.9661 255 214 0
-2.08025 -35.2153 68.8767 152 255 103
-1.60379 -41.3958 73.8099 236 255 19
-0.626741 -44.0344 86.5126 129 255 126
-0.155285 -41.4258 87.1445 0 102 255
0.278706 -41.635 85.6348 58 255 197
0.954601 -38.966 84.7933 0 203 255
0.401817 -41.7396 83.7291 255 182 0
0.236353 -41.7538 81.5115 255 70 0
-0.414347 -44.3724 82.6599 255 149 0
-1.42142 9.6225 57.4411 0 208 255
-16.6764 -51.1579 83.1747 0 224 255
-18.3959 -50.1491 81.9555 0 226 255
-11.3568 -44.7378 87.515 25 255 230
-11.4083 -46.9831 87.6035 189 255 66
-11.5569 -49.3735 87.3659 212 255 43
-13.1869 -48.2598 86.3944 249 255 6
-14.9385 -49.6495 84.8743 125 255 130
-30.8993 -43.1671 75.785 0 193 255
-31.9203 -44.581 73.9049 0 196 255
-0.064127 -32.6122 73.316 152 255 103
-1.11039 -35.4966 71.5657 255 87 0
-0.235971 -35.6981 74.2565 255 102 0
-0.480776 -38.6946 75.3092 128 0 0
-0.812126 -41.5729 76.4808 181 0 0
-3.41776 -44.9596 89.13 0 152 255
-2.04824 -43.1799 88.6948 0 52 255
-2.43579 -45.628 88.4902 5 255 250
-1.73994 -46.1566 87.3658 71 255 184
-1.33709 -46.5346 85.7937 172 255 83
-1.21825 -46.7666 83.8402 255 230 0
-2.1472 -48.9363 84.9728 0 236 255
-38.8533 -41.3242 68.6278 0 46 255
-6.14915 -43.32 89.0038 0 90 255
-4.66512 -44.1779 89.2871 0 124 255
-4.96196 -46.5011 89.3904 13 255 242
-5.40878 -48.8477 89.2111 0 161 255
-11.7394 -51.879 86.8475 0 168 255
-17.3868 -42.003 84.062 0 139 255
-19.105 -43.1826 83.0069 61 255 194
-20.7655 -44.496 81.628 255 252 0
-22.3779 -45.9431 80.0204 121 255 134
-23.9625 -47.5024 78.3051 0 126 255
-26.5752 -44.4888 77.8252 0 197 255
-33.8232 -43.8522 72.7527 30 255 225
-32.7823 -46.0384 71.8855 0 195 255
-1.91809 -4.63301 59.9917 0 177 255
-2.39726 -6.8397 58.7838 0 249 255
-1.98669 -7.54467 60.3898 17 255 238
-2.12306 -10.762 60.6523 0 147 255
-2.32635 -14.1429 60.8571 0 194 255
-1.64212 -14.8981 62.8927 82 255 173
-2.5877 -17.5897 61.0648 200 255 55
-2.88937 -21.0393 61.3282 100 255 155
-1.47247 -25.6635 66.5201 15 255 240
0.719082 -38.9331 80.442 167 255 88
-0.182678 -41.6939 79.0692 239 0 0
-1.23081 -44.3038 77.7612 255 219 0
-1.3595 -46.8692 81.5869 181 255 74
-1.72477 -46.8651 79.1175 25 255 230
-1.91932 -2.1111 59.2713 0 175 255
-1.53748 8.64231 55.3536 47 255 208
-1.70615 5.05084 55.1829 17 255 238
-1.87178 2.6286 56.7712 0 237 255
-1.93244 0.23674 58.1587 8 255 247
-4.31782 -51.2126 87.7132 0 0 146
-4.0465 -50.0366 88.0425 0 0 163
-4.69242 -50.8673 88.2617 0 0 146
-3.9607 -51.5425 87.0808 0 0 130
-4.31782 -51.2126 87.7132 0 0 130
-25.5453 -42.1182 79.601 0 0 163
-24.363 -42.4234 80.1061 0 0 189
-24.778 -41.469 80.278 0 0 163
-29.5897 -46.4283 74.6308 0 0 140
-30.4945 -46.0477 74.0475 0 0 140
-36.6616 -43.9531 68.4348 0 0 171
-36.6312 -43.3219 69.6635 0 0 201
-37.3356 -42.8716 68.9032 0 0 171
-0.701537 -19.152 66.6896 0 0 157
-0.642067 -17.435 66.4378 0 0 157
-0.798736 -20.8496 66.9257 0 0 201
-1.16952 -20.6382 65.7252 0 0 245
-0.701537 -19.152 66.6896 0 0 201
-0.845719 -30.8272 70.2195 0 0 251
-0.354476 -29.3526 71.1405 0 0 204
-0.434609 -30.9328 71.5517 0 0 204
-2.32321 -44.0579 73.7614 0 0 194
-2.1653 -42.6754 73.1096 0 0 194
-1.7617 -42.7783 74.4616 0 0 236
-2.43089 -45.3875 74.4632 0 0 151
-2.32321 -44.0579 73.7614 0 0 151
-2.19588 -1.37532 55.587 0 0 171
-2.07926 -0.263674 54.8653 0 0 141
-2.05235 0.383579 55.6974 0 0 171
-20.285 -47.9821 80.9615 0 0 173
-19.3326 -48.4265 81.5771 0 0 173
-19.4341 -47.204 81.8244 0 0 204
-21.2135 -47.5418 80.3491 0 0 142
-20.285 -47.9821 80.9615 0 0 142
-31.9611 -42.833 75.2613 0 0 138
-31.4586 -42.1901 76.1285 0 0 138
-32.4716 -43.54 74.3213 0 0 169
-31.4098 -43.874 74.845 0 0 198
-31.9611 -42.833 75.2613 0 0 169
0.298316 -32.681 74.6492 0 0 158
0.341453 -31.0995 74.2272 0 0 158
0.212394 -34.2239 75.1195 0 0 202
-0.150049 -34.1551 73.7863 0 0 247
0.298316 -32.681 74.6492 0 0 202
-39.662 -40.2606 69.0689 0 0 143
-38.8323 -40.738 69.8206 0 0 143
-8.70224 -43.0154 88.2217 0 0 133
-9.63505 -42.5718 87.7604 0 0 133
-6.45478 -50.7363 88.8966 0 0 146
-5.65 -50.0328 88.9724 0 0 146
-6.21356 -49.5512 89.1354 0 0 163
-7.20549 -51.4625 88.7537 0 0 129
-6.45478 -50.7363 88.8966 0 0 129
-18.5069 -41.6326 83.4816 0 0 133
-17.6371 -41.0981 83.8204 0 0 133
-17.6371 -41.0981 83.8204 0 0 134
-16.5063 -41.466 84.4108 0 0 134
-27.6563 -44.1552 77.3127 0 0 193
-26.9928 -43.4637 78.1243 0 0 166
-28.0738 -43.1302 77.6118 0 0 166
-26.9393 -46.365 76.6221 0 0 141
-27.6634 -47.1695 75.7468 0 0 141
-1.69279 -6.22132 61.0657 0 0 167
-1.95239 -6.08884 60.1907 0 0 195
-1.65849 -4.76549 60.8666 0 0 167
-1.80625 -11.1095 61.6201 0 0 147
-1.76527 -9.42898 61.441 0 0 147
-1.90789 -12.8 61.7225 0 0 184
-2.22471 -12.4525 60.7547 0 0 220
-1.80625 -11.1095 61.6201 0 0 184
-1.74725 -16.6256 63.0496 0 0 237
-1.2752 -15.1942 63.9846 0 0 195
-1.38033 -16.9216 64.1414 0 0 195
-2.65412 -23.1156 62.6345 0 0 155
-2.23121 -23.4624 63.8121 0 0 155
-0.192051 -24.4983 70.051 0 0 158
-0.233214 -26.1336 70.3979 0 0 158
-0.542885 -24.3743 68.768 0 0 158
-0.192051 -24.4983 70.051 0 0 158
-1.04418 -25.8422 67.8028 0 0 251
-0.971166 -24.1956 67.4853 0 0 205
-0.542885 -24.3743 68.768 0 0 205
-2.1495 -28.6849 65.908 0 0 157
-2.27105 -30.2992 66.2692 0 0 157
-1.81074 -38.3689 71.2734 0 0 202
-1.69917 -36.8673 70.7442 0 0 202
-1.22196 -36.9982 72.0949 0 0 247
-1.04518 -42.3889 88.0172 0 0 145
-1.47699 -42.1424 88.4435 0 0 145
-1.61643 -43.4264 88.2685 0 0 162
-0.088695 -40.0693 87.4194 0 0 131
0.235144 -40.1532 86.8044 0 0 131
1.18901 -37.5213 83.384 0 0 175
1.17794 -37.5147 84.4023 0 0 175
0.965672 -38.9727 83.775 0 0 207
1.16426 -37.5008 82.3094 0 0 145
1.18901 -37.5213 83.384 0 0 145
0.847913 -38.9562 81.5994 0 0 222
1.03543 -37.4777 81.152 0 0 185
1.16426 -37.5008 82.3094 0 0 185
-2.18015 -48.0473 78.528 0 0 146
-1.99934 -48.056 79.8041 0 0 146
-1.99701 -46.8203 77.8119 0 0 147
-2.18015 -48.0473 78.528 0 0 147
-1.65849 -4.76549 60.8666 0 0 139
-1.68627 -3.28023 60.5098 0 0 139
-1.73799 0.537257 59.0852 0 0 142
-1.77326 1.86324 58.4262 0 0 142
-1.73143 -0.636664 59.6415 0 0 166
-1.92588 -0.937181 58.715 0 0 193
-1.73799 0.537257 59.0852 0 0 166
-2.72816 -9.32778 58.1178 0 0 162
-2.62517 -7.8013 58.0598 0 0 162
-2.50025 -8.36618 58.8418 0 0 187
-2.37866 -3.39357 56.9025 0 0 162
-2.33083 -2.36656 56.2708 0 0 162
-2.21679 -1.75508 57.0509 0 0 188
-2.52888 -4.84793 56.7691 0 0 157
-2.37866 -3.39357 56.9025 0 0 157
-2.41485 -4.23645 57.5492 0 0 179
-2.70049 -6.49339 56.664 0 0 136
-2.52888 -4.84793 56.7691 0 0 136
-14.2483 -43.2888 85.8413 0 0 180
-13.3588 -42.7475 86.1881 0 0 157
-14.3655 -42.2899 85.6009 0 0 157
0.852298 -34.3446 77.7434 0 0 155
0.577462 -34.2966 76.4454 0 0 155
0.765543 -35.8961 78.1877 0 0 154
0.852298 -34.3446 77.7434 0 0 154
0.627926 -37.3929 78.7008 0 0 195
0.356548 -37.3402 77.4215 0 0 236
0.765543 -35.8961 78.1877 0 0 195
-3.41979 -50.6424 86.7236 0 0 153
-2.8087 -49.7326 86.3479 0 0 153
-3.06081 -49.4722 87.1183 0 0 173
-3.41979 -50.6424 86.7236 0 0 131
-3.9607 -51.5425 87.0808 0 0 131
-8.48666 -50.4098 88.7045 0 0 150
-7.83283 -50.9395 88.7661 0 0 150
-7.67217 -49.7251 88.998 0 0 170
-9.34385 -51.0667 88.2802 0 0 155
-8.48666 -50.4098 88.7045 0 0 155
-9.18319 -49.8523 88.512 0 0 176
-10.1559 -51.7609 87.7742 0 0 134
-9.34385 -51.0667 88.2802 0 0 134
-13.3606 -52.0391 85.6394 0 0 141
-14.1585 -51.4852 85.138 0 0 141
-28.5867 -46.7833 75.1689 0 0 170
-28.9449 -45.6438 75.5367 0 0 199
-29.5897 -46.4283 74.6308 0 0 170
-27.6634 -47.1695 75.7468 0 0 140
-28.5867 -46.7833 75.1689 0 0 140
-36.4653 -42.6596 70.8179 0 0 198
-36.3165 -42.0461 71.9422 0 0 169
-37.1563 -41.6269 71.2562 0 0 169
-0.990298 -17.2154 65.2828 0 0 155
-0.642067 -17.435 66.4378 0 0 155
-1.46235 -18.6468 64.3478 0 0 241
-1.38033 -16.9216 64.1414 0 0 198
-0.990298 -17.2154 65.2828 0 0 198
-1.81462 -23.7415 65.0034 0 0 200
-2.23121 -23.4624 63.8121 0 0 200
-1.68331 -22.0567 64.7699 0 0 245
-0.308056 -27.7466 70.7593 0 0 159
-0.354476 -29.3526 71.1405 0 0 159
-0.690746 -27.634 69.4469 0 0 250
-0.233214 -26.1336 70.3979 0 0 204
-0.308056 -27.7466 70.7593 0 0 204
-2.3717 -31.8919 66.6603 0 0 204
-2.27105 -30.2992 66.2692 0 0 204
-1.7782 -30.5133 67.575 0 0 250
-2.48255 -33.4664 67.0941 0 0 157
-2.3717 -31.8919 66.6603 0 0 157
-2.58325 -35.021 67.5494 0 0 203
-2.48255 -33.4664 67.0941 0 0 203
-1.97955 -33.6607 68.4214 0 0 249
-2.68235 -36.5507 68.0574 0 0 157
-2.58325 -35.021 67.5494 0 0 157
-2.05434 -41.2766 72.4569 0 0 199
-1.91921 -39.8287 71.864 0 0 199
-1.46866 -39.9478 73.217 0 0 242
-2.05434 -41.2766 72.4569 0 0 154
-2.1653 -42.6754 73.1096 0 0 154
0.45214 -40.2578 86.0495 0 0 157
0.235144 -40.1532 86.8044 0 0 157
0.061711 -41.5304 86.3897 0 0 180
0.616653 -40.3005 85.214 0 0 186
0.790088 -38.9233 85.6288 0 0 162
0.45214 -40.2578 86.0495 0 0 162
-2.186 -49.2022 81.6761 0 0 141
-2.47809 -50.3058 82.3298 0 0 141
-1.27489 10.0245 58.5659 0 0 154
-1.34595 11.4121 57.5706 0 0 154
-1.38228 8.26493 58.329 0 0 152
-1.27489 10.0245 58.5659 0 0 152
-1.48138 6.49766 58.1704 0 0 188
-1.52052 7.85522 57.2825 0 0 226
-1.38228 8.26493 58.329 0 0 188
-1.61685 4.78884 57.9088 0 0 148
-1.48138 6.49766 58.1704 0 0 148
-2.89143 -10.9791 58.0973 0 0 142
-2.73495 -11.5506 58.944 0 0 142
-2.19588 -1.37532 55.587 0 0 139
-2.33083 -2.36656 56.2708 0 0 139
-17.5504 -51.9625 82.3109 0 0 143
-16.7138 -52.4786 82.8904 0 0 143
-18.4102 -51.4581 81.7013 0 0 174
-17.5504 -51.9625 82.3109 0 0 174
-17.5362 -50.6535 82.5651 0 0 206
-19.2672 -50.9667 81.0947 0 0 143
-18.4102 -51.4581 81.7013 0 0 143
-19.2897 -49.6768 81.3349 0 0 172
-18.4388 -48.8987 82.1978 0 0 203
-19.3326 -48.4265 81.5771 0 0 172
-19.2672 -50.9667 81.0947 0 0 143
-19.2897 -49.6768 81.3349 0 0 143
-10.5083 -43.1244 87.5864 0 0 134
-9.63505 -42.5718 87.7604 0 0 134
-12.3463 -43.196 86.7561 0 0 134
-13.3588 -42.7475 86.1881 0 0 134
-11.4038 -43.6917 87.2994 0 0 158
-12.3463 -43.196 86.7561 0 0 158
-12.2992 -44.2421 86.9717 0 0 180
-10.4613 -44.1705 87.802 0 0 180
-10.5083 -43.1244 87.5864 0 0 157
-11.4038 -43.6917 87.2994 0 0 157
-14.9796 -50.9368 84.5966 0 0 171
-14.1585 -51.4852 85.138 0 0 171
-14.1174 -50.1979 85.4156 0 0 200
-15.8485 -51.691 83.7468 0 0 172
-14.9796 -50.9368 84.5966 0 0 172
-15.8074 -50.4037 84.0245 0 0 202
-16.7138 -52.4786 82.8904 0 0 142
-15.8485 -51.691 83.7468 0 0 142
-29.2278 -42.8249 77.1254 0 0 139
-28.0738 -43.1302 77.6118 0 0 139
-30.3088 -42.4976 76.6178 0 0 139
-31.4586 -42.1901 76.1285 0 0 139
-29.8183 -43.4944 76.2926 0 0 192
-29.2278 -42.8249 77.1254 0 0 165
-30.3088 -42.4976 76.6178 0 0 165
-31.4807 -45.6938 73.5007 0 0 169
-30.4945 -46.0477 74.0475 0 0 169
-30.9341 -44.9349 74.4517 0 0 198
-0.003746 -31.0352 72.8943 0 0 157
0.341453 -31.0995 74.2272 0 0 157
-0.49499 -32.5098 71.9734 0 0 252
-0.434609 -30.9328 71.5517 0 0 205
-0.003746 -31.0352 72.8943 0 0 205
0.129097 -35.7707 75.5825 0 0 246
0.212394 -34.2239 75.1195 0 0 201
0.577462 -34.2966 76.4454 0 0 201
-2.733 -44.0698 88.9124 0 0 160
-2.62419 -42.8748 88.8742 0 0 144
-3.30895 -43.7647 89.0918 0 0 144
-2.65744 -49.9195 85.463 0 0 157
-2.29846 -48.7494 85.8577 0 0 179
-2.8087 -49.7326 86.3479 0 0 157
-2.52491 -50.0957 84.501 0 0 136
-2.65744 -49.9195 85.463 0 0 136
-2.50037 -50.2062 83.4454 0 0 164
-2.12265 -49.0469 83.9172 0 0 191
-2.52491 -50.0957 84.501 0 0 164
-2.47809 -50.3058 82.3298 0 0 139
-2.50037 -50.2062 83.4454 0 0 139
-38.0582 -41.1961 70.5727 0 0 142
-37.1563 -41.6269 71.2562 0 0 142
-38.0792 -41.7823 69.3799 0 0 202
-38.0582 -41.1961 70.5727 0 0 172
-38.8323 -40.738 69.8206 0 0 172
-38.1096 -42.4135 68.1512 0 0 174
-37.3356 -42.8716 68.9032 0 0 174
-38.0792 -41.7823 69.3799 0 0 206
-39.5642 -40.8262 67.8142 0 0 143
-39.662 -40.2606 69.0689 0 0 143
-38.7576 -41.9298 67.3327 0 0 145
-39.5642 -40.8262 67.8142 0 0 145
-38.1096 -42.4135 68.1512 0 0 143
-38.7576 -41.9298 67.3327 0 0 143
-7.8393 -43.5098 88.6123 0 0 154
-8.70224 -43.0154 88.2217 0 0 154
-8.70283 -44.0976 88.4796 0 0 176
-6.99393 -42.8738 88.6791 0 0 153
-7.8393 -43.5098 88.6123 0 0 153
-6.99452 -43.956 88.937 0 0 173
-6.19817 -42.2159 88.7141 0 0 132
-6.99393 -42.8738 88.6791 0 0 132
-5.38018 -42.5945 88.9734 0 0 131
-6.19817 -42.2159 88.7141 0 0 131
-4.63816 -43.0235 89.115 0 0 149
-5.38018 -42.5945 88.9734 0 0 149
-5.40713 -43.749 89.1454 0 0 168
-3.93262 -43.3738 89.1703 0 0 129
-4.63816 -43.0235 89.115 0 0 129
-4.04144 -44.5688 89.2085 0 0 162
-3.30895 -43.7647 89.0918 0 0 145
-3.93262 -43.3738 89.1703 0 0 145
-5.15615 -50.4547 88.6623 0 0 144
-4.91494 -49.2695 88.9011 0 0 160
-5.65 -50.0328 88.9724 0 0 144
-4.69242 -50.8673 88.2617 0 0 128
-5.15615 -50.4547 88.6623 0 0 128
-7.20549 -51.4625 88.7537 0 0 130
-7.83283 -50.9395 88.7661 0 0 130
-11.0054 -52.4458 87.1541 0 0 160
-10.1559 -51.7609 87.7742 0 0 160
-10.8899 -51.1941 87.4676 0 0 185
-12.5821 -52.6055 86.0847 0 0 167
-12.5179 -51.3126 86.4023 0 0 195
-13.3606 -52.0391 85.6394 0 0 167
-11.8139 -53.1669 86.4774 0 0 139
-12.5821 -52.6055 86.0847 0 0 139
-11.0054 -52.4458 87.1541 0 0 137
-11.8139 -53.1669 86.4774 0 0 137
-19.366 -42.2223 82.9541 0 0 159
-18.2459 -42.5928 83.5345 0 0 183
-18.5069 -41.6326 83.4816 0 0 159
-20.4658 -41.8519 82.381 0 0 158
-20.2049 -42.8121 82.4339 0 0 182
-19.366 -42.2223 82.9541 0 0 158
-21.6346 -41.5215 81.8304 0 0 135
-20.4658 -41.8519 82.381 0 0 135
-22.7801 -41.1878 81.2916 0 0 157
-22.4502 -42.1079 81.322 0 0 180
-21.6346 -41.5215 81.8304 0 0 157
-23.9901 -40.8904 80.7751 0 0 134
-22.7801 -41.1878 81.2916 0 0 134
-24.778 -41.469 80.278 0 0 134
-23.9901 -40.8904 80.7751 0 0 134
-15.4404 -41.8801 85.0069 0 0 134
-14.3655 -42.2899 85.6009 0 0 134
-16.3209 -42.4171 84.6581 0 0 179
-15.4404 -41.8801 85.0069 0 0 156
-16.5063 -41.466 84.4108 0 0 156
-22.2092 -47.1335 79.755 0 0 172
-21.2135 -47.5418 80.3491 0 0 172
-21.3822 -46.3514 80.6146 0 0 203
-23.0015 -47.9132 78.8973 0 0 171
-22.2092 -47.1335 79.755 0 0 171
-23.1702 -46.7228 79.1627 0 0 200
-23.8297 -48.738 78.0447 0 0 142
-23.0015 -47.9132 78.8973 0 0 142
-26.2703 -42.7556 78.9263 0 0 136
-25.5453 -42.1182 79.601 0 0 136
-25.8528 -43.7807 78.6271 0 0 196
-26.2703 -42.7556 78.9263 0 0 168
-26.9928 -43.4637 78.1243 0 0 168
-26.256 -45.6101 77.4973 0 0 169
-27.2585 -45.2438 76.95 0 0 197
-26.9393 -46.365 76.6221 0 0 169
-25.1917 -45.9608 78.031 0 0 171
-25.5109 -44.8396 78.3589 0 0 200
-26.256 -45.6101 77.4973 0 0 171
-24.9497 -47.1168 77.7372 0 0 170
-24.2046 -46.3463 78.5989 0 0 199
-25.1917 -45.9608 78.031 0 0 170
-24.7472 -48.3204 77.4468 0 0 142
-24.9497 -47.1168 77.7372 0 0 142
-23.8297 -48.738 78.0447 0 0 141
-24.7472 -48.3204 77.4468 0 0 141
-35.3478 -42.4342 72.5593 0 0 141
-36.3165 -42.0461 71.9422 0 0 141
-34.4467 -42.8209 73.1838 0 0 167
-35.3478 -42.4342 72.5593 0 0 167
-34.7243 -43.4655 72.1283 0 0 195
-33.4231 -43.1756 73.7452 0 0 141
-34.4467 -42.8209 73.1838 0 0 141
-32.8718 -44.2166 73.3288 0 0 195
-32.4716 -43.54 74.3213 0 0 167
-33.4231 -43.1756 73.7452 0 0 167
-31.9117 -46.4225 72.491 0 0 167
-31.4807 -45.6938 73.5007 0 0 167
-32.3513 -45.3097 72.8952 0 0 195
-36.0286 -45.071 67.9757 0 0 142
-36.6616 -43.9531 68.4348 0 0 142
-35.4022 -45.5235 68.756 0 0 140
-36.0286 -45.071 67.9757 0 0 140
-34.6372 -45.9436 69.4556 0 0 169
-35.1922 -44.8235 69.8947 0 0 198
-35.4022 -45.5235 68.756 0 0 169
-33.9538 -46.3746 70.1832 0 0 139
-34.6372 -45.9436 69.4556 0 0 139
-33.1313 -46.772 70.8287 0 0 168
-33.6048 -45.641 71.2399 0 0 196
-33.9538 -46.3746 70.1832 0 0 168
-32.3919 -47.1883 71.5105 0 0 139
-33.1313 -46.772 70.8287 0 0 139
-31.9117 -46.4225 72.491 0 0 140
-32.3919 -47.1883 71.5105 0 0 140
-1.69708 -7.82031 61.3097 0 0 143
-1.69279 -6.22132 61.0657 0 0 143
-2.05487 -9.15335 60.5211 0 0 209
-1.69708 -7.82031 61.3097 0 0 176
-1.76527 -9.42898 61.441 0 0 176
-2.49486 -11.9853 59.8202 0 0 176
-2.73495 -11.5506 58.944 0 0 176
-2.36315 -10.3273 59.7761 0 0 208
-2.59651 -13.6757 59.9226 0 0 180
-2.49486 -11.9853 59.8202 0 0 180
-2.22471 -12.4525 60.7547 0 0 215
-2.75527 -15.3929 59.9706 0 0 147
-2.59651 -13.6757 59.9226 0 0 147
-1.21892 -13.4551 63.7875 0 0 153
-1.2752 -15.1942 63.9846 0 0 153
-1.56577 -13.1776 62.7403 0 0 151
-1.21892 -13.4551 63.7875 0 0 151
-1.98424 -14.5205 61.8749 0 0 227
-1.90789 -12.8 61.7225 0 0 188
-1.56577 -13.1776 62.7403 0 0 188
-2.88594 -17.1162 60.0745 0 0 186
-2.75527 -15.3929 59.9706 0 0 186
-2.45702 -15.8663 60.9609 0 0 224
-3.06487 -18.8521 60.1495 0 0 150
-2.88594 -17.1162 60.0745 0 0 150
-3.21571 -20.5769 60.2812 0 0 191
-3.06487 -18.8521 60.1495 0 0 191
-2.73854 -19.3145 61.1965 0 0 230
-3.40379 -22.3066 60.4058 0 0 152
-3.21571 -20.5769 60.2812 0 0 152
-3.04885 -22.7464 61.5093 0 0 197
-2.49464 -21.4085 62.4534 0 0 240
-2.65412 -23.1156 62.6345 0 0 197
-3.40379 -22.3066 60.4058 0 0 153
-3.04885 -22.7464 61.5093 0 0 153
-0.868292 -22.5318 67.2058 0 0 157
-0.798736 -20.8496 66.9257 0 0 157
-1.36959 -23.9997 66.2407 0 0 248
-0.868292 -22.5318 67.2058 0 0 203
-0.971166 -24.1956 67.4853 0 0 203
-1.91749 -25.4053 65.2828 0 0 203
-1.81462 -23.7415 65.0034 0 0 203
-1.36959 -23.9997 66.2407 0 0 248
-2.04695 -27.0564 65.5761 0 0 204
-1.57501 -27.292 66.852 0 0 250
-2.1495 -28.6849 65.908 0 0 204
-1.91749 -25.4053 65.2828 0 0 157
-2.04695 -27.0564 65.5761 0 0 157
-2.1841 -36.7267 69.3997 0 0 202
-1.59532 -35.356 70.2212 0 0 247
-1.69917 -36.8673 70.7442 0 0 202
-2.68235 -36.5507 68.0574 0 0 157
-2.1841 -36.7267 69.3997 0 0 157
-1.81074 -38.3689 71.2734 0 0 155
-1.91921 -39.8287 71.864 0 0 155
-2.00402 -41.9279 88.7191 0 0 128
-2.62419 -42.8748 88.8742 0 0 128
-2.00402 -41.9279 88.7191 0 0 128
-1.47699 -42.1424 88.4435 0 0 128
-0.530512 -41.2653 87.6684 0 0 147
-1.04518 -42.3889 88.0172 0 0 147
-0.66995 -42.5494 87.4933 0 0 164
-0.530512 -41.2653 87.6684 0 0 130
-0.088695 -40.0693 87.4194 0 0 130
1.05488 -37.5159 85.31 0 0 138
0.790088 -38.9233 85.6288 0 0 138
1.05488 -37.5159 85.31 0 0 140
1.17794 -37.5147 84.4023 0 0 140
0.878002 -37.441 79.9544 0 0 150
1.03543 -37.4777 81.152 0 0 150
0.469006 -38.8851 79.1883 0 0 233
0.627926 -37.3929 78.7008 0 0 193
0.878002 -37.441 79.9544 0 0 193
-1.8167 -48.0581 81.0388 0 0 174
-1.7288 -48.0133 82.2242 0 0 205
-2.186 -49.2022 81.6761 0 0 174
-1.54214 -46.8672 80.3522 0 0 211
-1.8167 -48.0581 81.0388 0 0 178
-1.99934 -48.056 79.8041 0 0 178
-1.75003 -45.5397 77.1337 0 0 186
-1.47779 -45.5845 78.4393 0 0 223
-1.99701 -46.8203 77.8119 0 0 186
-2.09443 -45.4682 75.8098 0 0 188
-1.57521 -44.2323 76.4373 0 0 227
-1.75003 -45.5397 77.1337 0 0 188
-2.43089 -45.3875 74.4632 0 0 150
-2.09443 -45.4682 75.8098 0 0 150
-1.68688 -2.01927 60.1496 0 0 139
-1.73143 -0.636664 59.6415 0 0 139
-1.9187 -3.37206 59.6315 0 0 187
-1.68688 -2.01927 60.1496 0 0 162
-1.68627 -3.28023 60.5098 0 0 162
-1.4223 10.9381 56.4564 0 0 194
-1.34682 12.7276 56.5858 0 0 153
-1.34595 11.4121 57.5706 0 0 194
-1.48032 10.448 55.4126 0 0 190
-1.4223 10.9381 56.4564 0 0 190
-1.47945 9.13241 56.3973 0 0 230
-1.45142 9.89793 54.3894 0 0 150
-1.48032 10.448 55.4126 0 0 150
-1.48579 8.06017 54.3963 0 0 149
-1.45142 9.89793 54.3894 0 0 149
-1.57013 6.26443 54.3109 0 0 183
-1.48579 8.06017 54.3963 0 0 183
-1.62181 6.84658 55.2682 0 0 218
-1.63807 4.42343 54.2891 0 0 146
-1.57013 6.26443 54.3109 0 0 146
-1.82094 3.27303 55.0792 0 0 144
-1.63807 4.42343 54.2891 0 0 144
-1.90375 2.06191 55.8734 0 0 177
-1.82094 3.27303 55.0792 0 0 177
-1.78897 3.83972 55.977 0 0 210
-2.02037 0.950268 56.5952 0 0 202
-2.05235 0.383579 55.6974 0 0 172
-1.90375 2.06191 55.8734 0 0 172
-1.74293 3.05917 57.7324 0 0 179
-1.7457 4.35827 56.9476 0 0 213
-1.61685 4.78884 57.9088 0 0 179
-1.90211 1.43267 57.4649 0 0 205
-1.74293 3.05917 57.7324 0 0 174
-1.77326 1.86324 58.4262 0 0 174
-2.70907 -7.22686 57.3758 0 0 158
-2.48116 -6.26526 58.0998 0 0 182
-2.62517 -7.8013 58.0598 0 0 158
-2.70049 -6.49339 56.664 0 0 136
-2.70907 -7.22686 57.3758 0 0 136
-3.01635 -10.4142 57.3153 0 0 140
-2.72816 -9.32778 58.1178 0 0 169
-2.89143 -10.9791 58.0973 0 0 169
3 0 31 30
3 1 34 32
3 1 37 35
3 1 32 37
3 127 42 128
3 129 128 40
3 127 128 129
3 131 130 42
3 2 45 43
3 2 47 45
3 2 48 47
3 132 51 133
3 134 133 49
3 132 133 134
3 136 135 52
3 137 56 138
3 139 138 54
3 137 138 139
3 140 57 141
3 142 59 143
3 144 143 57
3 142 143 144
3 3 145 147
3 145 60 146
3 145 146 147
3 3 62 60
3 3 63 62
3 4 148 150
3 150 149 64
3 148 149 150
3 4 151 152
3 5 67 65
3 5 69 67
3 5 71 69
3 6 153 155
3 153 154 155
3 7 74 73
3 8 156 158
3 158 157 33
3 156 157 158
3 8 159 160
3 10 75 36
3 10 76 75
3 10 78 76
3 7 79 38
3 7 73 79
3 161 80 162
3 163 81 164
3 165 164 80
3 163 164 165
3 166 82 167
3 168 84 169
3 170 169 82
3 168 169 170
3 14 85 39
3 14 86 85
3 15 89 87
3 17 90 41
3 17 91 90
3 17 93 91
3 171 94 172
3 9 173 174
3 19 95 44
3 19 96 95
3 19 97 96
3 20 98 46
3 20 175 177
3 177 176 98
3 175 176 177
3 20 178 179
3 11 99 77
3 181 180 100
3 182 100 183
3 21 102 101
3 22 103 50
3 22 104 103
3 12 184 186
3 184 105 185
3 184 185 186
3 188 187 53
3 23 106 55
3 23 107 106
3 189 110 190
3 191 190 108
3 189 190 191
3 192 111 193
3 194 112 195
3 196 195 111
3 194 195 196
3 25 197 199
3 197 113 198
3 197 198 199
3 25 114 113
3 25 115 114
3 201 200 58
3 26 202 203
3 26 204 205
3 26 206 208
3 206 116 207
3 206 207 208
3 210 209 61
3 13 211 213
3 213 212 83
3 211 212 213
3 16 214 216
3 216 215 88
3 214 215 216
3 218 217 66
3 27 219 221
3 221 220 68
3 219 220 221
3 27 222 223
3 27 224 226
3 224 117 225
3 224 225 226
3 28 118 70
3 28 119 118
3 18 120 92
3 227 121 228
3 230 229 121
3 231 108 232
3 29 123 72
3 29 124 123
3 29 125 124
3 233 126 234
3 235 122 236
3 237 236 126
3 235 236 237
3 24 238 240
3 240 239 109
3 238 239 240
3 30 241 243
3 243 242 6
3 241 242 243
3 31 244 246
3 246 245 30
3 244 245 246
3 31 247 248
3 32 33 7
3 34 33 32
3 34 8 33
3 35 249 251
3 249 36 250
3 249 250 251
3 37 36 35
3 37 10 36
3 37 38 10
3 32 38 37
3 32 7 38
3 252 39 253
3 254 39 255
3 256 14 257
3 258 257 39
3 256 257 258
3 40 41 15
3 42 41 40
3 42 17 41
3 42 259 261
3 261 260 17
3 259 260 261
3 263 262 42
3 43 44 9
3 45 44 43
3 45 19 44
3 45 46 19
3 47 46 45
3 47 20 46
3 47 264 266
3 266 265 20
3 264 265 266
3 48 267 269
3 269 268 47
3 267 268 269
3 48 270 271
3 273 272 11
3 49 50 21
3 51 50 49
3 51 22 50
3 52 53 12
3 274 53 275
3 276 275 52
3 274 275 276
3 278 277 53
3 54 279 281
3 279 55 280
3 279 280 281
3 56 55 54
3 56 23 55
3 57 282 283
3 57 284 286
3 284 25 285
3 284 285 286
3 57 58 25
3 59 58 57
3 59 287 289
3 289 288 58
3 287 288 289
3 60 290 291
3 60 292 294
3 292 26 293
3 292 293 294
3 60 61 26
3 62 61 60
3 62 295 297
3 297 296 61
3 295 296 297
3 62 298 299
3 63 300 302
3 302 301 62
3 300 301 302
3 63 303 304
3 64 305 307
3 307 306 13
3 305 306 307
3 309 308 64
3 65 66 16
3 67 66 65
3 67 310 312
3 312 311 66
3 310 311 312
3 67 313 315
3 313 68 314
3 313 314 315
3 69 68 67
3 69 27 68
3 69 70 27
3 71 70 69
3 71 28 70
3 317 316 18
3 318 72 319
3 320 72 321
3 322 29 323
3 324 323 72
3 322 323 324
3 326 325 29
3 328 327 24
3 330 329 6
3 73 331 332
3 74 333 335
3 335 334 73
3 333 334 335
3 74 336 337
3 33 74 7
3 338 74 339
3 340 339 33
3 338 339 340
3 342 341 74
3 343 9 344
3 36 345 346
3 75 347 349
3 349 348 36
3 347 348 349
3 75 350 352
3 350 9 351
3 350 351 352
3 75 43 9
3 76 43 75
3 76 2 43
3 76 77 2
3 78 77 76
3 78 11 77
3 38 78 10
3 79 78 38
3 79 11 78
3 79 353 355
3 355 354 11
3 353 354 355
3 73 356 358
3 358 357 79
3 356 357 358
3 73 359 360
3 361 12 362
3 80 363 364
3 80 365 367
3 365 12 366
3 365 366 367
3 80 52 12
3 81 52 80
3 81 368 370
3 370 369 52
3 368 369 370
3 82 371 372
3 82 373 375
3 373 3 374
3 373 374 375
3 82 83 3
3 84 83 82
3 84 13 83
3 39 376 378
3 376 84 377
3 376 377 378
3 85 84 39
3 85 13 84
3 85 64 13
3 86 64 85
3 86 4 64
3 87 379 381
3 379 88 380
3 379 380 381
3 89 88 87
3 89 16 88
3 41 89 15
3 90 89 41
3 90 16 89
3 90 65 16
3 91 65 90
3 91 5 65
3 91 92 5
3 93 92 91
3 93 18 92
3 382 93 383
3 384 383 17
3 382 383 384
3 385 93 386
3 387 18 388
3 389 388 93
3 387 388 389
3 391 390 18
3 392 54 393
3 94 394 396
3 394 54 395
3 394 395 396
3 94 397 399
3 399 398 54
3 397 398 399
3 400 94 401
3 402 94 403
3 405 404 94
3 44 406 408
3 408 407 9
3 406 407 408
3 95 409 411
3 411 410 44
3 409 410 411
3 95 412 413
3 95 414 415
3 96 416 418
3 418 417 95
3 416 417 418
3 96 419 420
3 96 421 423
3 421 87 422
3 421 422 423
3 97 87 96
3 97 15 87
3 46 97 19
3 98 97 46
3 98 15 97
3 98 40 15
3 424 40 425
3 426 425 98
3 424 425 426
3 428 427 40
3 430 429 20
3 77 48 2
3 99 48 77
3 99 431 433
3 433 432 48
3 431 432 433
3 434 99 435
3 436 435 11
3 434 435 436
3 437 99 438
3 440 439 99
3 100 101 1
3 441 101 442
3 443 442 100
3 441 442 443
3 444 21 445
3 446 445 101
3 444 445 446
3 447 21 448
3 449 49 450
3 451 450 21
3 449 450 451
3 452 49 453
3 455 454 49
3 456 35 457
3 100 458 460
3 458 35 459
3 458 459 460
3 100 1 35
3 101 34 1
3 102 34 101
3 102 8 34
3 50 102 21
3 103 102 50
3 103 8 102
3 103 461 463
3 463 462 8
3 461 462 463
3 104 464 466
3 466 465 103
3 464 465 466
3 104 467 468
3 469 51 470
3 105 471 473
3 471 51 472
3 471 472 473
3 105 22 51
3 53 105 12
3 474 105 475
3 476 475 53
3 474 475 476
3 477 22 478
3 479 478 105
3 477 478 479
3 480 104 481
3 482 481 22
3 480 481 482
3 483 104 484
3 486 485 104
3 55 487 488
3 106 489 491
3 491 490 55
3 489 490 491
3 106 492 493
3 106 494 496
3 494 81 495
3 494 495 496
3 107 81 106
3 107 497 499
3 499 498 81
3 497 498 499
3 500 56 501
3 502 56 503
3 504 23 505
3 506 505 56
3 504 505 506
3 507 23 508
3 509 107 510
3 511 510 23
3 509 510 511
3 512 107 513
3 515 514 107
3 108 109 0
3 110 109 108
3 110 24 109
3 516 110 517
3 111 518 520
3 518 110 519
3 518 519 520
3 111 24 110
3 111 521 523
3 523 522 24
3 521 522 523
3 112 524 526
3 526 525 111
3 524 525 526
3 112 527 528
3 113 529 530
3 113 531 532
3 113 533 535
3 533 112 534
3 533 534 535
3 114 112 113
3 114 536 538
3 538 537 112
3 536 537 538
3 114 539 540
3 115 541 543
3 543 542 114
3 541 542 543
3 115 544 545
3 58 115 25
3 546 115 547
3 548 547 58
3 546 547 548
3 550 549 115
3 551 59 552
3 116 553 555
3 553 59 554
3 553 554 555
3 116 556 558
3 558 557 59
3 556 557 558
3 61 116 26
3 559 116 560
3 561 560 61
3 559 560 561
3 563 562 116
3 83 63 3
3 564 63 565
3 566 565 83
3 564 565 566
3 568 567 63
3 570 569 13
3 88 571 572
3 574 573 88
3 66 575 577
3 577 576 16
3 575 576 577
3 579 578 66
3 68 580 581
3 583 582 68
3 117 584 585
3 117 586 588
3 586 14 587
3 586 587 588
3 70 117 27
3 118 117 70
3 118 14 117
3 118 86 14
3 119 86 118
3 119 4 86
3 92 71 5
3 120 71 92
3 120 28 71
3 589 120 590
3 591 590 18
3 589 590 591
3 121 592 594
3 592 120 593
3 592 593 594
3 121 28 120
3 121 119 28
3 595 119 596
3 597 596 121
3 595 596 597
3 598 4 599
3 600 599 119
3 598 599 600
3 602 601 4
3 603 122 604
3 108 605 607
3 605 122 606
3 605 606 607
3 108 0 122
3 72 608 610
3 608 609 610
3 123 611 613
3 613 612 72
3 611 612 613
3 123 614 615
3 123 616 617
3 124 618 620
3 620 619 123
3 618 619 620
3 124 621 622
3 124 623 624
3 125 625 627
3 627 626 124
3 625 626 627
3 125 628 630
3 628 6 629
3 628 629 630
3 631 125 632
3 633 632 29
3 631 632 633
3 126 634 636
3 634 125 635
3 634 635 636
3 126 6 125
3 126 30 6
3 122 30 126
3 122 0 30
3 109 31 0
3 637 31 638
3 639 638 109
3 637 638 639
3 641 640 31
3 644 643 24
3 642 643 644
