ply
format ascii 1.0
element vertex 131
property float x
property float y
property float z
property uchar red
property uchar green
property uchar blue
element face 115
property list uchar int vertex_index
end_header
-66.4607 -32.054 -35.222 240 255 15
-69.1763 -31.2843 -28.3179 0 192 255
-64.7941 -24.935 -39.3207 255 235 0
-68.4173 -24.2605 -31.9155 0 216 255
-67.4973 -39.1378 -31.2899 194 0 0
-69.1846 -38.3904 -27.9311 0 242 255
-68.5394 -31.3785 -31.6958 255 58 0
-67.1859 -24.2987 -35.5591 255 199 0
-63.6695 -21.4047 -41.4458 8 255 247
-67.05 -35.6116 -33.2456 255 165 0
-66.2586 -39.6353 -32.947 102 255 153
-69.3434 -34.7567 -28.1478 49 255 206
-68.9426 -34.9069 -29.8182 255 99 0
-69.0831 -31.2497 -29.9821 255 169 0
-67.9962 -24.1898 -33.7105 111 255 144
-66.2102 -20.7891 -37.577 94 255 161
-65.7158 -28.489 -37.2438 255 250 0
-68.8982 -27.7757 -30.1055 36 255 219
-67.8104 -42.6046 -29.3202 67 255 188
-66.6335 -43.1276 -30.9518 90 255 165
-68.5056 -38.7083 -29.6063 255 247 0
-68.1447 -35.2017 -31.5248 244 0 0
-67.6294 -31.658 -33.4515 202 0 0
-68.6399 -27.7186 -31.8261 255 132 0
-67.9583 -27.8343 -33.6011 255 14 0
-66.9475 -28.1043 -35.4183 162 0 0
-66.084 -24.5622 -37.443 128 0 0
-65.0211 -21.0462 -39.5252 255 246 0
-62.9483 -21.6055 -42.3555 0 0 146
-62.9927 -19.656 -42.5217 0 0 146
-66.1114 -34.0718 -35.0812 0 0 187
-66.4061 -35.8506 -34.093 0 0 187
-66.7554 -33.8328 -34.2338 0 0 231
-69.2271 -33.0214 -27.4183 0 0 128
-68.9814 -31.3779 -27.5063 0 0 128
-69.2598 -33.0205 -28.2329 0 0 186
-69.3106 -34.7576 -27.3332 0 0 157
-69.2271 -33.0214 -27.4183 0 0 157
-64.5758 -26.9347 -39.1707 0 0 191
-65.0366 -28.7117 -38.1323 0 0 191
-65.255 -26.712 -38.2823 0 0 236
-65.7685 -41.6497 -32.7275 0 0 143
-65.5672 -39.891 -33.7377 0 0 143
-69.2354 -40.0943 -26.9629 0 0 130
-69.3153 -38.2997 -27.1075 0 0 130
-68.9546 -40.2691 -27.794 0 0 133
-69.2354 -40.0943 -26.9629 0 0 133
-68.8451 -38.5493 -28.7687 0 0 204
-68.6151 -40.4281 -28.6316 0 0 169
-68.9546 -40.2691 -27.794 0 0 169
-65.0208 -19.1809 -39.5842 0 0 186
-65.6156 -20.9176 -38.5511 0 0 229
-65.6153 -19.0524 -38.6101 0 0 186
-64.3806 -19.3057 -40.5864 0 0 144
-65.0208 -19.1809 -39.5842 0 0 144
-63.5346 -23.3825 -41.2862 0 0 192
-64.0969 -25.1476 -40.2236 0 0 192
-64.2318 -23.1699 -40.3832 0 0 238
-62.8134 -23.5832 -42.1959 0 0 146
-63.5346 -23.3825 -41.2862 0 0 193
-62.9483 -21.6055 -42.3555 0 0 193
-66.0103 -37.8625 -33.9437 0 0 187
-66.6543 -37.6234 -33.0963 0 0 231
-66.4061 -35.8506 -34.093 0 0 187
-65.5672 -39.891 -33.7377 0 0 143
-66.0103 -37.8625 -33.9437 0 0 143
-69.3946 -36.4829 -27.2158 0 0 128
-69.3106 -34.7576 -27.3332 0 0 128
-69.264 -36.5735 -28.0394 0 0 192
-69.3153 -38.2997 -27.1075 0 0 161
-69.3946 -36.4829 -27.2158 0 0 161
-67.8579 -22.4753 -33.7395 0 0 164
-68.2068 -24.2252 -32.813 0 0 196
-68.0684 -22.5107 -32.842 0 0 164
-67.5689 -22.4366 -34.6803 0 0 134
-67.8579 -22.4753 -33.7395 0 0 134
-67.1637 -22.491 -35.6045 0 0 173
-67.591 -24.2443 -34.6348 0 0 210
-67.5689 -22.4366 -34.6803 0 0 173
-66.6759 -20.7362 -36.6135 0 0 178
-66.698 -22.5439 -36.568 0 0 217
-67.1637 -22.491 -35.6045 0 0 178
-66.1406 -19.0004 -37.6083 0 0 138
-66.6759 -20.7362 -36.6135 0 0 138
-65.6153 -19.0524 -38.6101 0 0 140
-66.1406 -19.0004 -37.6083 0 0 140
-65.4253 -30.5025 -37.1016 0 0 189
-65.7978 -32.285 -36.0907 0 0 189
-66.0882 -30.2715 -36.2329 0 0 234
-65.4253 -30.5025 -37.1016 0 0 145
-65.0366 -28.7117 -38.1323 0 0 145
-64.5758 -26.9347 -39.1707 0 0 146
-64.0969 -25.1476 -40.2236 0 0 146
-68.9297 -29.6422 -28.3758 0 0 128
-68.9814 -31.3779 -27.5063 0 0 128
-68.7906 -27.8879 -29.2696 0 0 156
-69.0373 -29.53 -29.2117 0 0 184
-68.9297 -29.6422 -28.3758 0 0 156
-68.6426 -26.1436 -30.139 0 0 128
-68.7906 -27.8879 -29.2696 0 0 128
-68.4022 -24.386 -31.044 0 0 158
-68.6578 -26.0181 -31.0105 0 0 187
-68.6426 -26.1436 -30.139 0 0 158
-68.1463 -22.6447 -31.9258 0 0 128
-68.4022 -24.386 -31.044 0 0 128
-68.0684 -22.5107 -32.842 0 0 130
-68.1463 -22.6447 -31.9258 0 0 130
-67.3495 -44.5718 -29.1213 0 0 139
-67.9029 -44.2938 -28.3104 0 0 139
-66.761 -44.8333 -29.9371 0 0 181
-67.3495 -44.5718 -29.1213 0 0 181
-67.2219 -42.8661 -30.136 0 0 222
-66.1034 -45.1178 -30.7082 0 0 141
-66.761 -44.8333 -29.9371 0 0 141
-65.9559 -43.3958 -31.7299 0 0 185
-66.446 -41.3814 -31.9494 0 0 227
-65.7685 -41.6497 -32.7275 0 0 185
-66.1034 -45.1178 -30.7082 0 0 142
-65.9559 -43.3958 -31.7299 0 0 142
-66.1114 -34.0718 -35.0812 0 0 144
-65.7978 -32.285 -36.0907 0 0 144
-68.2675 -42.3763 -28.4886 0 0 137
-67.9029 -44.2938 -28.3104 0 0 137
-68.158 -40.6565 -29.4633 0 0 213
-68.2675 -42.3763 -28.4886 0 0 175
-68.6151 -40.4281 -28.6316 0 0 175
-63.7049 -19.485 -41.5468 0 0 191
-64.3453 -21.2255 -40.4855 0 0 237
-64.3806 -19.3057 -40.5864 0 0 191
-62.9927 -19.656 -42.5217 0 0 147
-63.7049 -19.485 -41.5468 0 0 147
3 29 28 8
3 0 30 32
3 32 31 9
3 30 31 32
3 1 33 34
3 1 35 37
3 35 11 36
3 35 36 37
3 1 13 11
3 2 38 40
3 40 39 16
3 38 39 40
3 4 19 18
3 42 41 10
3 5 43 44
3 5 45 46
3 5 47 49
3 47 20 48
3 47 48 49
3 6 21 12
3 6 22 21
3 3 23 17
3 7 24 14
3 7 25 24
3 7 26 25
3 50 27 51
3 52 51 15
3 50 51 52
3 54 53 27
3 8 55 57
3 57 56 2
3 55 56 57
3 60 59 8
3 58 59 60
3 9 10 4
3 61 10 62
3 63 62 9
3 61 62 63
3 65 64 10
3 11 66 67
3 11 68 70
3 68 5 69
3 68 69 70
3 11 12 5
3 13 12 11
3 13 6 12
3 71 14 72
3 73 72 3
3 71 72 73
3 74 14 75
3 76 7 77
3 78 77 14
3 76 77 78
3 79 15 80
3 81 80 7
3 79 80 81
3 82 15 83
3 85 84 15
3 16 86 88
3 88 87 0
3 86 87 88
3 90 89 16
3 92 91 2
3 93 1 94
3 95 17 96
3 97 96 1
3 95 96 97
3 98 17 99
3 100 3 101
3 102 101 17
3 100 101 102
3 103 3 104
3 106 105 3
3 18 107 108
3 19 109 111
3 111 110 18
3 109 110 111
3 19 112 113
3 10 19 4
3 114 19 115
3 116 115 10
3 114 115 116
3 118 117 19
3 120 119 0
3 121 18 122
3 20 123 125
3 123 18 124
3 123 124 125
3 20 4 18
3 12 20 5
3 21 20 12
3 21 4 20
3 21 9 4
3 22 9 21
3 22 0 9
3 17 13 1
3 23 13 17
3 23 6 13
3 14 23 3
3 24 23 14
3 24 6 23
3 24 22 6
3 25 22 24
3 25 0 22
3 25 16 0
3 26 16 25
3 26 2 16
3 15 26 7
3 27 26 15
3 27 2 26
3 27 8 2
3 126 8 127
3 128 127 27
3 126 127 128
3 130 129 8
