ply
format ascii 1.0
element vertex 194
property float x
property float y
property float z
property uchar red
property uchar green
property uchar blue
element face 177
property list uchar int vertex_index
end_header
13.5664 -110.135 29.5415 202 0 0
16.3978 -116.277 17.6323 77 255 178
10.239 -106.869 38.4063 157 255 98
9.77828 -113.64 25.7984 255 254 0
14.5317 -113.23 23.2368 184 0 0
5.85519 -112.324 27.648 0 137 255
17.1114 -105.349 32.8765 133 255 122
13.3691 -107.007 36.1691 122 255 133
9.58729 -110.289 32.2833 255 156 0
18.0701 -108.382 26.3726 255 111 0
19.6326 -111.404 20.7055 169 0 0
10.318 -115.351 22.6405 51 255 204
8.43661 -107.912 36.1672 32 255 223
9.85455 -108.604 35.435 255 249 0
7.93919 -109.681 33.2066 19 255 236
7.65992 -111.431 30.0722 165 255 90
15.4184 -107.907 31.2244 143 0 0
17.5324 -106.864 29.5406 255 237 0
15.7767 -109.424 27.9472 128 0 0
15.3649 -114.776 20.3464 198 0 0
17.0625 -112.456 21.9196 162 0 0
18 -113.943 19.2125 255 176 0
20.6481 -112.847 18.1925 82 255 173
7.32654 -106.779 36.4471 0 68 255
6.55543 -105.253 36.2737 0 13 255
11.8868 -105.464 40.4726 0 133 255
10.6047 -105.06 41.1286 0 97 255
9.02762 -106.087 38.8825 0 180 255
11.6536 -112.034 27.7523 254 0 0
13.9314 -111.679 26.3124 182 0 0
12.0847 -113.642 24.5617 232 0 0
12.7856 -115.264 21.5152 255 201 0
13.7306 -116.871 18.6341 71 255 184
15.1864 -106.376 34.5898 208 255 47
13.4026 -108.586 32.8568 252 0 0
11.7029 -107.179 37.4781 105 255 150
11.5294 -108.829 34.3008 255 126 0
11.4842 -110.438 31.0273 255 47 0
9.5412 -111.957 29.0397 255 86 0
7.67863 -113.199 26.8544 98 255 157
20.4136 -107.121 24.9435 130 255 125
16.3174 -110.94 24.8317 138 0 0
18.7668 -109.901 23.4233 128 0 0
21.2456 -108.671 22.1956 235 255 20
22.2087 -110.179 19.6862 86 255 169
7.27001 -109.157 33.4661 0 0 163
8.1879 -108.796 34.6869 0 0 189
7.51871 -108.272 34.9464 0 0 163
7.0078 -110.074 31.9871 0 0 137
7.27001 -109.157 33.4661 0 0 137
17.7445 -115.813 17.1529 0 0 189
18.5456 -114.646 17.9431 0 0 189
17.1989 -115.11 18.4224 0 0 229
16.987 -116.973 16.3414 0 0 150
17.7445 -115.813 17.1529 0 0 150
7.33016 -105.062 37.5798 0 0 159
6.94098 -106.016 36.3604 0 0 183
7.71572 -105.825 37.6665 0 0 159
10.7043 -104.12 42.3447 0 0 128
11.2765 -104.37 42.1733 0 0 128
8.56626 -105.479 38.8842 0 0 131
9.29205 -105.138 40.096 0 0 131
7.71572 -105.825 37.6665 0 0 154
8.17708 -106.433 37.6648 0 0 175
8.56626 -105.479 38.8842 0 0 154
11.9645 -116.168 20.5657 0 0 187
11.5518 -115.307 22.0778 0 0 225
10.7308 -116.212 21.1284 0 0 187
12.437 -116.972 19.1252 0 0 187
13.2581 -116.067 20.0747 0 0 225
11.9645 -116.168 20.5657 0 0 187
12.9706 -117.814 17.6856 0 0 149
12.437 -116.972 19.1252 0 0 149
5.05918 -112.683 26.3327 0 0 142
5.92138 -113.278 26.053 0 0 142
14.2778 -106.692 35.3794 0 0 223
15.0908 -105.596 36.2707 0 0 185
14.1822 -105.911 37.0604 0 0 185
5.92138 -113.278 26.053 0 0 174
6.83309 -113.716 25.6562 0 0 174
6.76691 -112.761 27.2512 0 0 206
18.1124 -104.687 32.0267 0 0 157
17.8364 -103.926 33.7282 0 0 157
18.8913 -106.974 27.1589 0 0 202
18.6224 -106.215 28.7429 0 0 202
17.8013 -107.623 27.9566 0 0 248
19.2418 -107.751 25.658 0 0 246
20.063 -106.344 26.4443 0 0 201
18.8913 -106.974 27.1589 0 0 201
21.9632 -112.215 17.7782 0 0 149
21.2099 -113.504 17.0087 0 0 149
9.17324 -115.179 23.1429 0 0 183
10.0482 -114.495 24.2195 0 0 219
8.90336 -114.324 24.7219 0 0 183
9.51009 -116.1 21.5796 0 0 146
9.17324 -115.179 23.1429 0 0 146
10.7308 -116.212 21.1284 0 0 147
9.51009 -116.1 21.5796 0 0 147
5.11377 -111.681 27.8831 0 0 141
5.9658 -111.395 29.2078 0 0 141
13.3671 -106.193 37.7764 0 0 144
14.1822 -105.911 37.0604 0 0 144
6.86817 -110.949 30.4199 0 0 169
7.79955 -110.556 31.6394 0 0 199
7.0078 -110.074 31.9871 0 0 169
5.9658 -111.395 29.2078 0 0 169
6.75755 -111.877 28.8601 0 0 198
6.86817 -110.949 30.4199 0 0 169
19.8696 -114.098 17.4331 0 0 191
19.3241 -113.395 18.7025 0 0 231
18.5456 -114.646 17.9431 0 0 191
21.2099 -113.504 17.0087 0 0 149
19.8696 -114.098 17.4331 0 0 149
6.47299 -106.98 35.1289 0 0 136
6.96368 -107.705 35.0864 0 0 136
6.08744 -106.218 35.0421 0 0 160
6.47299 -106.98 35.1289 0 0 160
6.94098 -106.016 36.3604 0 0 185
5.78706 -105.319 34.8758 0 0 138
6.08744 -106.218 35.0421 0 0 138
7.01889 -104.264 37.3608 0 0 135
7.33016 -105.062 37.5798 0 0 135
6.34085 -104.324 35.9842 0 0 138
7.01889 -104.264 37.3608 0 0 138
5.78706 -105.319 34.8758 0 0 139
6.34085 -104.324 35.9842 0 0 139
11.9176 -104.572 41.8454 0 0 132
12.5797 -104.579 41.4443 0 0 132
11.2458 -105.262 40.8006 0 0 170
11.9176 -104.572 41.8454 0 0 150
11.2765 -104.37 42.1733 0 0 150
10.0806 -104.624 41.2191 0 0 128
10.7043 -104.12 42.3447 0 0 128
9.81617 -105.574 40.0056 0 0 167
10.0806 -104.624 41.2191 0 0 148
9.29205 -105.138 40.096 0 0 148
6.96368 -107.705 35.0864 0 0 158
7.51871 -108.272 34.9464 0 0 158
7.88157 -107.345 36.3072 0 0 181
14.3001 -117.639 17.2674 0 0 189
15.6337 -117.342 16.7665 0 0 189
15.0642 -116.574 18.1332 0 0 229
14.3001 -117.639 17.2674 0 0 148
12.9706 -117.814 17.6856 0 0 148
5.05918 -112.683 26.3327 0 0 140
5.11377 -111.681 27.8831 0 0 140
16.9242 -104.588 34.5891 0 0 156
17.8364 -103.926 33.7282 0 0 156
15.9617 -105.102 35.4457 0 0 151
15.0908 -105.596 36.2707 0 0 151
16.1489 -105.863 33.7332 0 0 240
16.9242 -104.588 34.5891 0 0 196
15.9617 -105.102 35.4457 0 0 196
12.626 -105.421 39.9282 0 0 162
13.3189 -104.536 40.8999 0 0 136
12.5797 -104.579 41.4443 0 0 162
12.534 -106.278 38.431 0 0 164
12.626 -105.421 39.9282 0 0 164
11.7949 -106.321 38.9754 0 0 190
12.536 -107.093 36.8236 0 0 203
13.3671 -106.193 37.7764 0 0 172
12.534 -106.278 38.431 0 0 172
7.85354 -114.103 25.2499 0 0 179
8.90336 -114.324 24.7219 0 0 179
8.72845 -113.42 26.3264 0 0 214
7.85354 -114.103 25.2499 0 0 144
6.83309 -113.716 25.6562 0 0 144
18.3229 -105.445 30.3587 0 0 203
18.1124 -104.687 32.0267 0 0 203
17.3219 -106.107 31.2086 0 0 250
18.3229 -105.445 30.3587 0 0 157
18.6224 -106.215 28.7429 0 0 157
21.1746 -105.636 25.7572 0 0 201
20.8241 -104.858 27.258 0 0 156
20.063 -106.344 26.4443 0 0 201
21.5976 -106.447 24.3597 0 0 155
21.1746 -105.636 25.7572 0 0 155
22.0137 -107.222 22.9858 0 0 196
21.5976 -106.447 24.3597 0 0 196
20.8296 -107.896 23.5695 0 0 240
22.4864 -108.022 21.7216 0 0 152
22.0137 -107.222 22.9858 0 0 152
22.968 -108.776 20.4669 0 0 192
22.4864 -108.022 21.7216 0 0 192
21.7272 -109.425 20.9409 0 0 233
23.4868 -109.534 19.3153 0 0 150
22.968 -108.776 20.4669 0 0 150
22.7435 -110.881 18.525 0 0 189
21.4284 -111.513 18.9393 0 0 228
21.9632 -112.215 17.7782 0 0 189
23.4868 -109.534 19.3153 0 0 149
22.7435 -110.881 18.525 0 0 149
16.987 -116.973 16.3414 0 0 149
15.6337 -117.342 16.7665 0 0 149
3 45 14 46
3 47 46 12
3 45 46 47
3 49 48 14
3 0 18 16
3 1 21 19
3 1 50 52
3 52 51 21
3 50 51 52
3 1 53 54
3 55 24 56
3 57 56 23
3 55 56 57
3 58 26 59
3 60 27 61
3 62 23 63
3 64 63 27
3 62 63 64
3 3 30 28
3 65 31 66
3 67 66 11
3 65 66 67
3 68 32 69
3 70 69 31
3 68 69 70
3 72 71 32
3 5 73 74
3 7 75 77
3 75 33 76
3 75 76 77
3 7 34 33
3 2 35 25
3 8 36 13
3 8 37 36
3 8 38 37
3 5 39 15
3 5 78 80
3 80 79 39
3 78 79 80
3 6 81 82
3 9 83 85
3 85 84 17
3 83 84 85
3 9 86 88
3 86 40 87
3 86 87 88
3 4 41 29
3 10 42 20
3 10 43 42
3 10 44 43
3 90 89 22
3 91 11 92
3 93 92 3
3 91 92 93
3 94 11 95
3 97 96 11
3 99 98 5
3 100 7 101
3 12 13 2
3 14 13 12
3 14 8 13
3 14 15 8
3 102 15 103
3 104 103 14
3 102 103 104
3 105 5 106
3 107 106 15
3 105 106 107
3 16 17 6
3 18 17 16
3 18 9 17
3 19 20 4
3 21 20 19
3 21 10 20
3 21 22 10
3 108 22 109
3 110 109 21
3 108 109 110
3 112 111 22
3 23 113 114
3 24 115 117
3 117 116 23
3 115 116 117
3 24 118 119
3 120 24 121
3 122 24 123
3 125 124 24
3 126 25 127
3 26 128 130
3 128 25 129
3 128 129 130
3 26 2 25
3 131 26 132
3 27 133 135
3 133 26 134
3 133 134 135
3 27 2 26
3 27 12 2
3 23 12 27
3 23 136 138
3 138 137 12
3 136 137 138
3 28 29 0
3 30 29 28
3 30 4 29
3 11 30 3
3 31 30 11
3 31 4 30
3 31 19 4
3 32 19 31
3 32 1 19
3 32 139 141
3 141 140 1
3 139 140 141
3 143 142 32
3 145 144 5
3 146 6 147
3 33 148 149
3 33 150 152
3 150 6 151
3 150 151 152
3 33 16 6
3 34 16 33
3 34 0 16
3 25 153 155
3 153 154 155
3 35 156 158
3 158 157 25
3 156 157 158
3 35 159 161
3 159 7 160
3 159 160 161
3 13 35 2
3 36 35 13
3 36 7 35
3 36 34 7
3 37 34 36
3 37 0 34
3 37 28 0
3 38 28 37
3 38 3 28
3 15 38 8
3 39 38 15
3 39 3 38
3 39 162 164
3 164 163 3
3 162 163 164
3 166 165 39
3 17 167 169
3 169 168 6
3 167 168 169
3 171 170 17
3 40 172 174
3 172 173 174
3 40 175 176
3 29 18 0
3 41 18 29
3 41 9 18
3 20 41 4
3 42 41 20
3 42 9 41
3 42 40 9
3 43 40 42
3 43 177 179
3 179 178 40
3 177 178 179
3 43 180 181
3 44 182 184
3 184 183 43
3 182 183 184
3 44 185 186
3 22 44 10
3 187 44 188
3 189 188 22
3 187 188 189
3 191 190 44
3 193 192 1
