ply
format ascii 1.0
element vertex 172
property float x
property float y
property float z
property uchar red
property uchar green
property uchar blue
element face 149
property list uchar int vertex_index
end_header
-18.0845 -48.3505 -14.5349 181 0 0
-23.5564 -40.6202 -16.0885 142 255 113
-21.0869 -45.7016 -17.7875 43 255 212
-21.3243 -44.3478 -15.0982 255 24 0
-24.4009 -41.8451 -18.6196 0 247 255
-26.6841 -38.1207 -19.6475 93 255 162
-14.9799 -50.5771 -11.4619 255 120 0
-17.8155 -50.5258 -16.8372 0 202 255
-17.7577 -46.3208 -11.7663 159 0 0
-16.5213 -49.5126 -12.9777 137 0 0
-16.3895 -48.3481 -11.5826 128 0 0
-18.0898 -47.36 -13.1613 175 0 0
-22.6405 -42.4999 -15.5162 229 255 26
-20.8443 -43.5194 -13.7809 167 255 88
-23.9608 -38.6364 -16.84 100 255 155
-27.1196 -36.0925 -20.3048 0 183 255
-28.3724 -34.5687 -22.0335 0 57 255
-19.6227 -47.0823 -16.1372 230 0 0
-19.7544 -46.2622 -14.7902 223 0 0
-21.3388 -45.0455 -16.4698 255 236 0
-22.9433 -43.1662 -16.8375 223 255 32
-24.2844 -41.334 -17.2887 255 115 0
-25.2192 -39.4514 -17.8609 255 74 0
-25.7424 -40.0159 -19.0919 69 255 186
-13.652 -53.0845 -11.3247 0 244 255
-15.006 -51.9417 -12.7839 248 255 7
-16.447 -50.7096 -14.2697 226 255 29
-17.9281 -49.38 -15.788 255 195 0
-19.3952 -47.9474 -17.3454 169 255 86
-14.6937 -49.2383 -10.0504 129 255 126
-15.8913 -47.1325 -10.1758 250 255 5
-16.9443 -45.1524 -10.4397 117 255 138
-19.5821 -45.3965 -13.4068 221 0 0
-18.9328 -44.4001 -12.0881 212 255 43
-25.6396 -37.4485 -18.5753 174 255 81
-22.6415 -41.1259 -15.212 0 0 172
-22.1835 -42.0658 -14.9258 0 0 172
-23.0984 -41.5601 -15.8024 0 0 210
-22.8345 -40.1395 -15.5942 0 0 140
-22.6415 -41.1259 -15.212 0 0 140
-23.7586 -39.6283 -16.4643 0 0 226
-23.0367 -39.1475 -15.9699 0 0 183
-22.8345 -40.1395 -15.5942 0 0 183
-28.6413 -34.7686 -22.6488 0 0 128
-28.1475 -35.5974 -21.7403 0 0 128
-28.8721 -33.7247 -22.9035 0 0 128
-28.6413 -34.7686 -22.6488 0 0 128
-23.6721 -42.5056 -17.7286 0 0 206
-22.8713 -43.4348 -17.5179 0 0 170
-23.6001 -42.7743 -18.4089 0 0 170
-13.0656 -54.4983 -11.2122 0 0 144
-13.0344 -53.6163 -10.6055 0 0 144
-14.9683 -52.6737 -13.3606 0 0 141
-14.3163 -53.3219 -12.6489 0 0 141
-15.6888 -52.0577 -14.1035 0 0 187
-15.7265 -51.3256 -13.5268 0 0 232
-14.9683 -52.6737 -13.3606 0 0 187
-17.0808 -51.2705 -16.1063 0 0 140
-17.1002 -52.0036 -16.5388 0 0 140
-17.8718 -49.9529 -16.3126 0 0 217
-17.1371 -50.6977 -15.5817 0 0 177
-17.0808 -51.2705 -16.1063 0 0 177
-14.8368 -49.9077 -10.7562 0 0 229
-14.0958 -50.3969 -10.0162 0 0 185
-14.2389 -51.0663 -10.7219 0 0 185
-19.3478 -43.4458 -12.3478 0 0 178
-19.8885 -43.9597 -12.9345 0 0 219
-20.3035 -43.0055 -13.1942 0 0 178
-18.3166 -43.8042 -11.4984 0 0 142
-19.3478 -43.4458 -12.3478 0 0 142
-26.3057 -35.6889 -19.8678 0 0 142
-27.0576 -34.9934 -20.6837 0 0 142
-21.9431 -44.7026 -17.9929 0 0 134
-21.7589 -44.9532 -18.6374 0 0 134
-24.2491 -42.0383 -19.2962 0 0 133
-23.6001 -42.7743 -18.4089 0 0 133
-25.0324 -41.1126 -19.5294 0 0 132
-24.2491 -42.0383 -19.2962 0 0 132
-17.8644 -51.1816 -17.236 0 0 137
-17.1002 -52.0036 -16.5388 0 0 137
-18.546 -49.7306 -17.5864 0 0 137
-17.8644 -51.1816 -17.236 0 0 137
-21.2854 -42.5755 -14.0582 0 0 172
-21.7424 -43.0096 -14.6486 0 0 209
-22.1835 -42.0658 -14.9258 0 0 172
-20.3035 -43.0055 -13.1942 0 0 138
-21.2854 -42.5755 -14.0582 0 0 138
-22.9504 -38.0955 -16.4585 0 0 150
-23.0367 -39.1475 -15.9699 0 0 150
-23.8788 -37.5709 -17.3053 0 0 150
-22.9504 -38.0955 -16.4585 0 0 150
-27.5212 -36.3593 -20.8759 0 0 163
-26.9018 -37.1066 -19.9761 0 0 195
-27.3034 -37.3734 -20.5473 0 0 163
-27.746 -35.3306 -21.1691 0 0 196
-27.5212 -36.3593 -20.8759 0 0 163
-28.1475 -35.5974 -21.7403 0 0 163
-27.684 -34.2315 -21.5481 0 0 180
-27.0576 -34.9934 -20.6837 0 0 180
-27.746 -35.3306 -21.1691 0 0 221
-28.3253 -33.4523 -22.3566 0 0 138
-27.684 -34.2315 -21.5481 0 0 138
-28.3253 -33.4523 -22.3566 0 0 135
-28.8721 -33.7247 -22.9035 0 0 135
-22.0691 -44.3745 -17.3341 0 0 173
-21.2128 -45.3736 -17.1286 0 0 211
-21.9431 -44.7026 -17.9929 0 0 173
-22.141 -44.1059 -16.6537 0 0 206
-22.0691 -44.3745 -17.3341 0 0 169
-22.8713 -43.4348 -17.5179 0 0 169
-25.7032 -40.198 -19.7655 0 0 162
-25.0716 -40.9305 -18.8558 0 0 195
-25.0324 -41.1126 -19.5294 0 0 162
-26.3635 -39.2789 -20.0065 0 0 130
-25.7032 -40.198 -19.7655 0 0 130
-26.8344 -38.3314 -20.2843 0 0 157
-26.2132 -39.0683 -19.3697 0 0 188
-26.3635 -39.2789 -20.0065 0 0 157
-27.3034 -37.3734 -20.5473 0 0 128
-26.8344 -38.3314 -20.2843 0 0 128
-13.5749 -52.32 -10.6533 0 0 141
-13.0344 -53.6163 -10.6055 0 0 141
-14.316 -51.8308 -11.3933 0 0 238
-14.2389 -51.0663 -10.7219 0 0 191
-13.5749 -52.32 -10.6533 0 0 191
-13.6393 -53.8933 -11.9192 0 0 141
-13.0656 -54.4983 -11.2122 0 0 141
-14.329 -52.5131 -12.0543 0 0 236
-13.6393 -53.8933 -11.9192 0 0 190
-14.3163 -53.3219 -12.6489 0 0 190
-16.3966 -51.3625 -14.8226 0 0 139
-15.6888 -52.0577 -14.1035 0 0 139
-17.1876 -50.0448 -15.0289 0 0 226
-16.3966 -51.3625 -14.8226 0 0 183
-17.1371 -50.6977 -15.5817 0 0 183
-19.3358 -48.4414 -17.8406 0 0 171
-18.6053 -49.2366 -17.0913 0 0 208
-18.546 -49.7306 -17.5864 0 0 171
-20.0947 -47.1783 -18.1476 0 0 134
-19.3358 -48.4414 -17.8406 0 0 134
-20.9405 -46.0554 -18.3687 0 0 170
-20.241 -46.8245 -17.5664 0 0 207
-20.0947 -47.1783 -18.1476 0 0 170
-21.7589 -44.9532 -18.6374 0 0 134
-20.9405 -46.0554 -18.3687 0 0 134
-13.8636 -49.6418 -9.30398 0 0 145
-14.0958 -50.3969 -10.0162 0 0 145
-14.3562 -48.5424 -9.34029 0 0 143
-13.8636 -49.6418 -9.30398 0 0 143
-14.955 -47.4895 -9.40297 0 0 192
-14.3562 -48.5424 -9.34029 0 0 192
-15.2925 -48.1854 -10.1131 0 0 239
-15.4035 -46.4613 -9.50454 0 0 143
-14.955 -47.4895 -9.40297 0 0 143
-15.93 -45.4713 -9.6365 0 0 191
-15.4035 -46.4613 -9.50454 0 0 191
-16.4178 -46.1424 -10.3077 0 0 237
-16.2596 -44.4729 -9.83965 0 0 144
-15.93 -45.4713 -9.6365 0 0 144
-17.3223 -44.1804 -10.6742 0 0 185
-17.9385 -44.7762 -11.2639 0 0 229
-18.3166 -43.8042 -11.4984 0 0 185
-16.2596 -44.4729 -9.83965 0 0 145
-17.3223 -44.1804 -10.6742 0 0 145
-24.7182 -36.9769 -18.173 0 0 196
-23.8788 -37.5709 -17.3053 0 0 196
-24.8002 -38.0424 -17.7076 0 0 246
-25.5657 -36.3668 -19.0031 0 0 188
-26.3796 -36.7705 -19.44 0 0 234
-26.3057 -35.6889 -19.8678 0 0 188
-24.7182 -36.9769 -18.173 0 0 147
-25.5657 -36.3668 -19.0031 0 0 147
3 0 11 9
3 1 35 37
3 37 36 12
3 35 36 37
3 1 38 39
3 1 40 42
3 40 14 41
3 40 41 42
3 43 16 44
3 46 45 16
3 2 19 17
3 4 47 49
3 47 20 48
3 47 48 49
3 4 21 20
3 4 23 21
3 50 24 51
3 52 25 53
3 54 26 55
3 56 55 25
3 54 55 56
3 7 57 58
3 7 59 61
3 59 27 60
3 59 60 61
3 7 28 27
3 6 62 64
3 62 29 63
3 62 63 64
3 8 30 10
3 8 31 30
3 3 32 18
3 65 33 66
3 67 66 13
3 65 66 67
3 69 68 33
3 5 34 22
3 71 70 15
3 73 72 2
3 74 4 75
3 77 76 4
3 78 7 79
3 81 80 7
3 9 10 6
3 11 10 9
3 11 8 10
3 12 13 3
3 82 13 83
3 84 83 12
3 82 83 84
3 86 85 13
3 14 87 88
3 14 89 90
3 91 15 92
3 93 92 5
3 91 92 93
3 16 94 96
3 94 15 95
3 94 95 96
3 16 97 99
3 99 98 15
3 97 98 99
3 16 100 101
3 103 102 16
3 17 18 0
3 19 18 17
3 19 3 18
3 104 19 105
3 106 105 2
3 104 105 106
3 20 107 109
3 107 19 108
3 107 108 109
3 20 3 19
3 20 12 3
3 21 12 20
3 21 1 12
3 21 22 1
3 23 22 21
3 23 5 22
3 110 23 111
3 112 111 4
3 110 111 112
3 113 23 114
3 115 5 116
3 117 116 23
3 115 116 117
3 119 118 5
3 24 120 121
3 24 122 124
3 122 6 123
3 122 123 124
3 125 24 126
3 25 127 129
3 127 24 128
3 127 128 129
3 25 6 24
3 25 9 6
3 26 9 25
3 26 0 9
3 130 26 131
3 27 132 134
3 132 26 133
3 132 133 134
3 27 0 26
3 27 17 0
3 28 17 27
3 28 2 17
3 135 28 136
3 137 136 7
3 135 136 137
3 138 28 139
3 140 2 141
3 142 141 28
3 140 141 142
3 144 143 2
3 29 145 146
3 29 147 148
3 10 29 6
3 30 29 10
3 30 149 151
3 151 150 29
3 149 150 151
3 30 152 153
3 31 154 156
3 156 155 30
3 154 155 156
3 31 157 158
3 18 11 0
3 32 11 18
3 32 8 11
3 13 32 3
3 33 32 13
3 33 8 32
3 33 31 8
3 159 31 160
3 161 160 33
3 159 160 161
3 163 162 31
3 22 14 1
3 34 14 22
3 34 164 166
3 166 165 14
3 164 165 166
3 15 34 5
3 167 34 168
3 169 168 15
3 167 168 169
3 171 170 34
