ply
format ascii 1.0
element vertex 337
property float x
property float y
property float z
property uchar red
property uchar green
property uchar blue
element face 276
property list uchar int vertex_index
end_header
31.9123 -22.0315 -32.9428 227 0 0
22.9437 -45.0967 -15.4365 0 33 255
29.9517 -32.26 -28.1528 100 255 155
30.999 -12.4784 -39.487 255 118 0
29.6416 -7.73316 -44.1611 0 98 255
26.2087 -41.5413 -17.2588 0 190 255
27.5636 -39.7046 -21.2586 39 255 216
30.0187 -23.1158 -35.5827 255 219 0
31.1808 -27.25 -30.7185 255 29 0
32.1626 -16.6895 -34.6474 99 255 156
30.5822 -17.7738 -37.8703 158 0 0
12.7158 -49.0029 -4.91514 0 143 255
15.5788 -49.2292 -7.72531 0 32 255
20.8823 -45.7433 -11.9184 0 211 255
29.902 -35.429 -23.6634 48 255 207
26.9951 -40.726 -19.2327 0 197 255
28.3382 -38.7642 -20.3504 0 190 255
29.6958 -25.7878 -34.2469 29 255 226
30.0504 -12.7937 -41.2016 239 255 16
30.8148 -15.1161 -38.7771 128 0 0
29.8145 -15.462 -40.3163 215 255 40
29.585 -18.1603 -39.2426 183 255 72
16.7384 -49.2575 -9.2183 0 30 255
18.1227 -47.4883 -9.6951 0 30 255
21.9918 -45.4939 -13.6529 0 125 255
20.2729 -47.2289 -12.9699 0 219 255
32.3446 -21.2621 -31.5065 50 255 205
32.2082 -23.9334 -30.5667 147 255 108
30.6302 -29.7829 -29.4677 232 255 23
31.4626 -29.0967 -28.3589 113 255 142
30.8408 -31.5601 -27.1395 194 255 61
30.7649 -33.1503 -24.8917 0 212 255
30.0476 -33.9379 -25.8767 255 145 0
29.0828 -36.2397 -24.5964 158 255 97
29.1418 -34.6904 -26.7958 0 235 255
31.7108 -12.0152 -37.6069 0 252 255
30.2749 -10.1624 -41.8648 0 242 255
24.6492 -43.3208 -16.2941 0 110 255
25.4594 -42.6355 -18.1968 0 204 255
31.0331 -22.6186 -34.3292 201 0 0
31.6072 -24.663 -31.884 254 0 0
30.6624 -25.247 -33.1398 244 0 0
30.2152 -27.849 -31.8475 148 255 107
32.0976 -19.3691 -33.8721 255 182 0
31.6756 -14.6598 -37.0634 255 128 0
31.5448 -17.3145 -36.3164 144 0 0
31.3282 -19.9709 -35.3959 169 0 0
30.3144 -20.443 -36.7971 202 0 0
29.3734 -20.8825 -38.0079 34 255 221
13.371 -51.0454 -5.92952 0 132 255
14.2324 -49.1376 -6.29007 0 137 255
19.2739 -47.4121 -11.3061 0 120 255
31.9165 -26.5505 -29.5095 128 255 127
28.8316 -37.6052 -22.4434 137 255 118
27.9496 -38.4886 -23.3237 0 215 255
28.5116 -38.2583 -19.9243 0 0 128
27.9525 -39.2325 -19.3413 0 0 128
29.4885 -14.2601 -41.5061 0 0 182
29.9324 -14.1279 -40.7589 0 0 222
29.6064 -12.9259 -41.9488 0 0 182
29.3958 -15.6278 -40.9726 0 0 140
29.4885 -14.2601 -41.5061 0 0 140
18.1061 -46.6623 -9.1781 0 0 131
17.4561 -47.4774 -8.92196 0 0 131
22.4678 -45.2953 -14.5447 0 0 189
22.8233 -44.6578 -14.0457 0 0 160
23.2993 -44.4593 -14.9375 0 0 160
22.0531 -46.0144 -15.0513 0 0 166
21.5771 -46.213 -14.1595 0 0 166
22.4678 -45.2953 -14.5447 0 0 199
22.4671 -45.8064 -15.9039 0 0 132
22.0531 -46.0144 -15.0513 0 0 132
29.9582 -8.94779 -43.0129 0 0 234
30.3712 -8.8687 -42.0675 0 0 190
30.0546 -7.65406 -43.2156 0 0 190
29.5163 -9.05108 -43.8565 0 0 186
29.833 -10.2657 -42.7084 0 0 186
29.9582 -8.94779 -43.0129 0 0 229
29.2984 -7.80037 -44.9838 0 0 141
29.5163 -9.05108 -43.8565 0 0 141
25.6937 -41.8438 -16.306 0 0 128
26.3529 -40.974 -16.8309 0 0 128
25.4289 -42.431 -16.7764 0 0 188
24.914 -42.7335 -15.8236 0 0 159
25.6937 -41.8438 -16.306 0 0 159
26.84 -40.7355 -20.694 0 0 164
26.5558 -41.2462 -19.6811 0 0 164
27.2794 -40.2153 -20.2456 0 0 195
27.1094 -40.2121 -21.6696 0 0 131
26.84 -40.7355 -20.694 0 0 131
29.7775 -28.1549 -32.327 0 0 172
29.9555 -26.8184 -33.0472 0 0 208
29.5178 -27.1243 -33.5267 0 0 172
29.9512 -29.1368 -31.159 0 0 136
29.7775 -28.1549 -32.327 0 0 136
32.2472 -17.6214 -33.4766 0 0 144
32.1688 -16.255 -33.7951 0 0 144
32.1301 -18.0293 -34.2598 0 0 221
32.2147 -18.9612 -33.089 0 0 181
32.2472 -17.6214 -33.4766 0 0 181
29.1114 -19.7264 -39.1945 0 0 171
29.4792 -19.5214 -38.6252 0 0 205
29.2172 -18.3653 -39.8118 0 0 171
29.0784 -21.1348 -38.4919 0 0 133
29.1114 -19.7264 -39.1945 0 0 133
12.3693 -49.9511 -4.75735 0 0 135
11.8988 -48.9328 -4.25913 0 0 135
13.0434 -50.0242 -5.42233 0 0 193
12.6969 -50.9724 -5.26454 0 0 162
12.3693 -49.9511 -4.75735 0 0 162
14.9056 -49.1834 -7.00769 0 0 192
14.7491 -48.2494 -6.47994 0 0 162
15.4223 -48.2952 -7.19756 0 0 162
15.063 -50.19 -7.5217 0 0 167
14.3898 -50.1442 -6.80408 0 0 167
14.9056 -49.1834 -7.00769 0 0 199
15.5544 -50.215 -8.23956 0 0 131
15.063 -50.19 -7.5217 0 0 131
16.5401 -50.225 -9.72241 0 0 134
17.2332 -49.2351 -9.99049 0 0 134
20.9545 -45.0185 -11.4303 0 0 132
21.6672 -44.9431 -12.284 0 0 132
20.2345 -45.7983 -11.0848 0 0 130
20.9545 -45.0185 -11.4303 0 0 130
20.0781 -46.5777 -11.6123 0 0 196
19.4304 -46.6328 -10.7787 0 0 164
20.2345 -45.7983 -11.0848 0 0 164
19.4318 -48.1596 -12.6575 0 0 132
19.8292 -48.0583 -13.4578 0 0 132
31.6642 -28.6761 -27.8051 0 0 134
31.4403 -29.9274 -27.2284 0 0 134
30.1227 -34.9774 -23.2059 0 0 158
30.5542 -33.838 -23.8201 0 0 158
30.3335 -34.2896 -24.2775 0 0 186
29.6808 -36.068 -22.5976 0 0 129
30.1227 -34.9774 -23.2059 0 0 129
29.3668 -36.5171 -23.0534 0 0 189
29.1456 -37.1561 -21.9876 0 0 160
29.6808 -36.068 -22.5976 0 0 160
28.0731 -37.7917 -24.3715 0 0 162
28.5162 -37.3641 -23.9601 0 0 193
28.6397 -36.6673 -25.0079 0 0 162
27.5307 -38.9967 -23.6851 0 0 133
28.0731 -37.7917 -24.3715 0 0 133
29.767 -6.44595 -44.3238 0 0 146
30.0546 -7.65406 -43.2156 0 0 146
29.4293 -6.47532 -45.2588 0 0 144
29.767 -6.44595 -44.3238 0 0 144
26.8877 -40.621 -17.7955 0 0 129
26.3529 -40.974 -16.8309 0 0 129
27.281 -40.2133 -18.7824 0 0 156
26.6019 -41.1337 -18.2458 0 0 183
26.8877 -40.621 -17.7955 0 0 156
27.6666 -39.7451 -19.7915 0 0 186
27.281 -40.2133 -18.7824 0 0 158
27.9525 -39.2325 -19.3413 0 0 158
29.4389 -24.707 -35.4401 0 0 172
29.8572 -24.4518 -34.9148 0 0 207
29.6003 -23.371 -36.108 0 0 172
29.3496 -26.0911 -34.6911 0 0 134
29.4389 -24.707 -35.4401 0 0 134
29.5178 -27.1243 -33.5267 0 0 133
29.3496 -26.0911 -34.6911 0 0 133
32.1336 -15.3464 -34.9451 0 0 143
32.1688 -16.255 -33.7951 0 0 143
29.2811 -16.9769 -40.4357 0 0 177
29.6997 -16.8112 -39.7795 0 0 215
29.3958 -15.6278 -40.9726 0 0 177
29.2172 -18.3653 -39.8118 0 0 137
29.2811 -16.9769 -40.4357 0 0 137
12.2302 -48.0031 -4.40269 0 0 134
11.8988 -48.9328 -4.25913 0 0 134
16.1842 -48.3479 -7.93706 0 0 134
15.4223 -48.2952 -7.19756 0 0 134
16.7639 -48.3621 -8.68356 0 0 160
16.1586 -49.2434 -8.47181 0 0 190
16.1842 -48.3479 -7.93706 0 0 160
17.4305 -48.3729 -9.4567 0 0 198
16.7639 -48.3621 -8.68356 0 0 166
17.4561 -47.4774 -8.92196 0 0 166
17.9253 -48.3505 -10.2289 0 0 160
17.2332 -49.2351 -9.99049 0 0 160
17.4305 -48.3729 -9.4567 0 0 190
22.222 -44.8184 -13.1512 0 0 132
22.8233 -44.6578 -14.0457 0 0 132
21.4371 -45.6186 -12.7857 0 0 187
21.6672 -44.9431 -12.284 0 0 159
22.222 -44.8184 -13.1512 0 0 159
20.7176 -47.0805 -13.818 0 0 162
21.1324 -46.3614 -13.3114 0 0 193
21.5771 -46.213 -14.1595 0 0 162
19.8292 -48.0583 -13.4578 0 0 135
20.7176 -47.0805 -13.818 0 0 135
32.2652 -22.1193 -30.3944 0 0 140
32.2141 -20.7506 -30.808 0 0 140
32.197 -23.455 -29.9245 0 0 172
32.2652 -22.1193 -30.3944 0 0 172
32.2764 -22.5977 -31.0366 0 0 208
32.1629 -24.7943 -29.4442 0 0 137
32.197 -23.455 -29.9245 0 0 137
31.1294 -31.1591 -26.6187 0 0 165
31.4403 -29.9274 -27.2284 0 0 165
31.1517 -30.3284 -27.7492 0 0 197
30.8029 -32.3552 -26.0156 0 0 195
31.0915 -31.9542 -25.4948 0 0 164
31.1294 -31.1591 -26.6187 0 0 164
28.6692 -35.8927 -26.1075 0 0 166
28.6397 -36.6673 -25.0079 0 0 166
29.1123 -35.465 -25.6961 0 0 198
31.6756 -10.6999 -37.7623 0 0 146
31.8154 -11.6652 -36.6201 0 0 146
31.4148 -10.9413 -38.7867 0 0 148
31.6756 -10.6999 -37.7623 0 0 148
31.0589 -11.1729 -39.7267 0 0 191
31.3549 -12.2468 -38.5469 0 0 235
31.4148 -10.9413 -38.7867 0 0 191
30.6968 -10.0149 -40.9156 0 0 146
30.3712 -8.8687 -42.0675 0 0 146
30.6369 -11.3204 -40.6759 0 0 238
31.0589 -11.1729 -39.7267 0 0 192
30.6968 -10.0149 -40.9156 0 0 192
29.7207 -11.5814 -42.3768 0 0 186
30.1626 -11.4781 -41.5332 0 0 229
29.833 -10.2657 -42.7084 0 0 186
29.6064 -12.9259 -41.9488 0 0 142
29.7207 -11.5814 -42.3768 0 0 142
29.2984 -7.80037 -44.9838 0 0 141
29.4293 -6.47532 -45.2588 0 0 141
24.152 -43.5713 -15.3663 0 0 129
24.914 -42.7335 -15.8236 0 0 129
23.7964 -44.2088 -15.8653 0 0 194
23.2993 -44.4593 -14.9375 0 0 163
24.152 -43.5713 -15.3663 0 0 163
24.2112 -43.9335 -16.7706 0 0 161
23.3585 -44.8214 -16.3418 0 0 161
23.7964 -44.2088 -15.8653 0 0 191
24.6163 -43.5908 -17.722 0 0 165
24.2112 -43.9335 -16.7706 0 0 165
25.0543 -42.9781 -17.2454 0 0 196
24.9884 -43.2373 -18.6315 0 0 132
24.6163 -43.5908 -17.722 0 0 132
25.788 -42.201 -19.1632 0 0 160
26.2273 -41.6807 -18.7148 0 0 190
26.5558 -41.2462 -19.6811 0 0 160
24.9884 -43.2373 -18.6315 0 0 133
25.788 -42.201 -19.1632 0 0 133
30.1587 -30.1038 -29.9692 0 0 174
30.4227 -28.816 -30.6576 0 0 210
29.9512 -29.1368 -31.159 0 0 174
29.8194 -31.3423 -29.3117 0 0 171
30.291 -31.0215 -28.8103 0 0 206
30.1587 -30.1038 -29.9692 0 0 171
29.5111 -32.6216 -28.5903 0 0 136
29.8194 -31.3423 -29.3117 0 0 136
32.3382 -19.9077 -31.9062 0 0 140
32.2141 -20.7506 -30.808 0 0 140
32.2211 -20.3156 -32.6893 0 0 222
32.3382 -19.9077 -31.9062 0 0 182
32.2147 -18.9612 -33.089 0 0 182
31.9077 -13.0092 -36.4248 0 0 147
31.8154 -11.6652 -36.6201 0 0 147
31.8901 -14.3315 -36.1531 0 0 188
31.9077 -13.0092 -36.4248 0 0 188
31.6932 -13.3375 -37.3351 0 0 231
31.9191 -15.6747 -35.8554 0 0 234
32.1336 -15.3464 -34.9451 0 0 190
31.8901 -14.3315 -36.1531 0 0 190
29.2777 -22.2543 -37.3206 0 0 174
29.6003 -23.371 -36.108 0 0 174
29.696 -21.9991 -36.7953 0 0 210
29.2777 -22.2543 -37.3206 0 0 133
29.0784 -21.1348 -38.4919 0 0 133
13.0465 -52.051 -5.71845 0 0 134
12.6969 -50.9724 -5.26454 0 0 134
13.5624 -52.1354 -6.39107 0 0 131
13.0465 -52.051 -5.71845 0 0 131
13.1425 -48.099 -5.08412 0 0 137
12.2302 -48.0031 -4.40269 0 0 137
13.9008 -48.1664 -5.77159 0 0 136
14.7491 -48.2494 -6.47994 0 0 136
13.4741 -49.0702 -5.6026 0 0 196
13.1425 -48.099 -5.08412 0 0 165
13.9008 -48.1664 -5.77159 0 0 165
13.9591 -51.0981 -6.62381 0 0 161
13.8017 -50.0915 -6.1098 0 0 191
14.3898 -50.1442 -6.80408 0 0 161
13.5624 -52.1354 -6.39107 0 0 133
13.9591 -51.0981 -6.62381 0 0 133
16.1342 -50.2292 -8.98606 0 0 165
15.5544 -50.215 -8.23956 0 0 165
16.1586 -49.2434 -8.47181 0 0 197
16.1342 -50.2292 -8.98606 0 0 131
16.5401 -50.225 -9.72241 0 0 131
18.8547 -46.6708 -9.97318 0 0 133
18.1061 -46.6623 -9.1781 0 0 133
18.6983 -47.4502 -10.5006 0 0 189
18.8547 -46.6708 -9.97318 0 0 160
19.4304 -46.6328 -10.7787 0 0 160
18.5009 -48.3124 -11.0344 0 0 166
17.9253 -48.3505 -10.2289 0 0 166
18.6983 -47.4502 -10.5006 0 0 198
18.9323 -48.2512 -11.8257 0 0 167
19.7734 -47.3205 -12.138 0 0 199
19.4318 -48.1596 -12.6575 0 0 167
18.5009 -48.3124 -11.0344 0 0 132
18.9323 -48.2512 -11.8257 0 0 132
22.4671 -45.8064 -15.9039 0 0 134
23.3585 -44.8214 -16.3418 0 0 134
32.0171 -26.1029 -28.9157 0 0 168
32.1629 -24.7943 -29.4442 0 0 168
32.0624 -25.242 -30.0381 0 0 202
31.8912 -27.403 -28.3804 0 0 166
31.6896 -27.8236 -28.9342 0 0 198
31.6642 -28.6761 -27.8051 0 0 166
32.0171 -26.1029 -28.9157 0 0 135
31.8912 -27.403 -28.3804 0 0 135
30.8753 -32.6788 -24.4286 0 0 130
31.0915 -31.9542 -25.4948 0 0 130
30.8753 -32.6788 -24.4286 0 0 129
30.5542 -33.838 -23.8201 0 0 129
28.8989 -37.7357 -20.9411 0 0 128
28.5116 -38.2583 -19.9243 0 0 128
28.5849 -38.1847 -21.3969 0 0 186
28.8989 -37.7357 -20.9411 0 0 158
29.1456 -37.1561 -21.9876 0 0 158
27.3024 -39.6041 -22.7022 0 0 164
27.1094 -40.2121 -21.6696 0 0 164
27.7566 -39.0966 -22.2912 0 0 196
27.3024 -39.6041 -22.7022 0 0 130
27.5307 -38.9967 -23.6851 0 0 130
29.1061 -33.8368 -27.9118 0 0 166
29.5468 -33.4752 -27.4743 0 0 198
29.5111 -32.6216 -28.5903 0 0 166
28.7478 -35.1172 -27.1677 0 0 133
29.1061 -33.8368 -27.9118 0 0 133
28.6692 -35.8927 -26.1075 0 0 131
28.7478 -35.1172 -27.1677 0 0 131
3 55 16 56
3 57 20 58
3 59 58 18
3 57 58 59
3 61 60 20
3 62 23 63
3 1 64 66
3 64 24 65
3 64 65 66
3 1 67 69
3 69 68 24
3 67 68 69
3 1 70 71
3 0 27 26
3 2 30 28
3 2 32 30
3 2 34 32
3 4 72 74
3 72 36 73
3 72 73 74
3 4 75 77
3 77 76 36
3 75 76 77
3 4 78 79
3 5 80 81
3 5 82 84
3 82 37 83
3 82 83 84
3 5 38 37
3 6 85 87
3 87 86 15
3 85 86 87
3 6 88 89
3 7 41 39
3 90 42 91
3 92 91 17
3 90 91 92
3 94 93 42
3 9 95 96
3 9 97 99
3 97 43 98
3 97 98 99
3 3 44 35
3 10 45 19
3 10 46 45
3 10 47 46
3 100 48 101
3 102 101 21
3 100 101 102
3 104 103 48
3 11 105 106
3 11 107 109
3 107 49 108
3 107 108 109
3 12 110 112
3 110 50 111
3 110 111 112
3 12 113 115
3 115 114 50
3 113 114 115
3 12 116 117
3 119 118 22
3 13 120 121
3 13 122 123
3 13 124 126
3 124 51 125
3 124 125 126
3 128 127 25
3 8 52 40
3 130 129 29
3 14 131 133
3 133 132 31
3 131 132 133
3 14 134 135
3 14 136 138
3 136 53 137
3 136 137 138
3 139 54 140
3 141 140 33
3 139 140 141
3 143 142 54
3 144 4 145
3 147 146 4
3 148 5 149
3 150 15 151
3 152 151 5
3 150 151 152
3 16 153 155
3 153 15 154
3 153 154 155
3 16 6 15
3 156 17 157
3 158 157 7
3 156 157 158
3 159 17 160
3 162 161 17
3 163 9 164
3 18 19 3
3 20 19 18
3 20 10 19
3 20 21 10
3 165 21 166
3 167 166 20
3 165 166 167
3 169 168 21
3 170 11 171
3 172 12 173
3 174 22 175
3 176 175 12
3 174 175 176
3 23 177 179
3 177 22 178
3 177 178 179
3 23 180 182
3 182 181 22
3 180 181 182
3 24 183 184
3 24 185 187
3 185 13 186
3 185 186 187
3 24 25 13
3 188 25 189
3 190 189 24
3 188 189 190
3 192 191 25
3 26 193 194
3 27 195 197
3 197 196 26
3 195 196 197
3 27 198 199
3 28 29 8
3 30 29 28
3 30 200 202
3 202 201 29
3 200 201 202
3 30 203 205
3 203 31 204
3 203 204 205
3 32 31 30
3 32 14 31
3 32 33 14
3 34 33 32
3 34 206 208
3 208 207 33
3 206 207 208
3 209 35 210
3 211 35 212
3 213 3 214
3 215 214 35
3 213 214 215
3 36 216 217
3 36 218 220
3 218 3 219
3 218 219 220
3 36 18 3
3 221 18 222
3 223 222 36
3 221 222 223
3 225 224 18
3 227 226 4
3 37 228 229
3 37 230 232
3 230 1 231
3 230 231 232
3 37 233 235
3 235 234 1
3 233 234 235
3 38 236 238
3 238 237 37
3 236 237 238
3 38 239 240
3 15 38 5
3 241 38 242
3 243 242 15
3 241 242 243
3 245 244 38
3 39 40 0
3 41 40 39
3 41 8 40
3 17 41 7
3 42 41 17
3 42 8 41
3 42 28 8
3 246 28 247
3 248 247 42
3 246 247 248
3 249 2 250
3 251 250 28
3 249 250 251
3 253 252 2
3 254 26 255
3 43 256 258
3 256 26 257
3 256 257 258
3 43 0 26
3 35 259 260
3 44 261 263
3 263 262 35
3 261 262 263
3 44 264 266
3 264 9 265
3 264 265 266
3 19 44 3
3 45 44 19
3 45 9 44
3 45 43 9
3 46 43 45
3 46 0 43
3 46 39 0
3 47 39 46
3 47 7 39
3 21 47 10
3 48 47 21
3 48 7 47
3 48 267 269
3 269 268 7
3 267 268 269
3 271 270 48
3 49 272 273
3 49 274 275
3 276 11 277
3 50 278 279
3 50 280 282
3 280 11 281
3 280 281 282
3 50 49 11
3 283 49 284
3 285 284 50
3 283 284 285
3 287 286 49
3 22 288 290
3 290 289 12
3 288 289 290
3 292 291 22
3 293 23 294
3 51 295 297
3 295 23 296
3 295 296 297
3 51 298 300
3 300 299 23
3 298 299 300
3 25 51 13
3 301 51 302
3 303 302 25
3 301 302 303
3 305 304 51
3 307 306 1
3 40 27 0
3 52 27 40
3 52 308 310
3 310 309 27
3 308 309 310
3 29 52 8
3 311 52 312
3 313 312 29
3 311 312 313
3 315 314 52
3 31 316 317
3 319 318 31
3 320 16 321
3 53 322 324
3 322 16 323
3 322 323 324
3 53 6 16
3 33 53 14
3 54 53 33
3 54 6 53
3 54 325 327
3 327 326 6
3 325 326 327
3 329 328 54
3 330 34 331
3 332 331 2
3 330 331 332
3 333 34 334
3 336 335 34
