ply
format ascii 1.0
element vertex 198
property float x
property float y
property float z
property uchar red
property uchar green
property uchar blue
element face 190
property list uchar int vertex_index
end_header
43.4242 -97.9105 19.9041 193 0 0
39.2994 -98.9538 28.3623 255 182 0
39.8335 -95.4718 35.1929 43 255 212
44.0235 -95.2449 26.3875 194 0 0
45.4733 -93.0689 21.4904 128 0 0
45.0885 -95.6486 15.3388 148 0 0
42.5539 -100.505 13.6513 164 0 0
42.12 -96.2338 31.0358 99 255 156
41.512 -99.2529 24.3142 255 77 0
40.4677 -102.025 17.869 255 19 0
38.2857 -102.193 21.8147 80 255 175
43.7385 -96.604 23.1335 196 0 0
44.801 -94.2604 23.9542 148 0 0
44.5402 -95.5639 20.7781 154 0 0
45.2658 -94.3518 18.4014 138 0 0
44.2799 -96.8471 17.6272 159 0 0
43.9764 -98.1421 14.5311 157 0 0
43.0402 -99.1981 16.7353 183 0 0
39.6024 -97.2555 31.7781 255 191 0
41.0142 -96.0904 33.1862 56 255 199
40.7638 -97.7642 29.7829 255 163 0
41.8496 -97.79 27.665 255 91 0
40.441 -99.3421 26.392 255 149 0
39.997 -100.851 23.0768 255 125 0
38.8739 -100.59 25.0213 154 255 101
38.6198 -103.794 16.8487 246 255 9
39.7152 -103.411 14.8353 255 219 0
37.6778 -105.3 13.9736 0 190 255
38.5981 -94.3903 37.0592 0 123 255
38.3841 -96.2623 33.6548 53 255 202
38.1006 -98.0708 30.2302 56 255 199
37.698 -99.8371 26.8736 0 220 255
44.3183 -93.8041 29.6229 80 255 175
45.1002 -92.9076 27.1189 233 255 22
45.753 -91.7734 24.5745 248 255 7
46.2998 -90.4851 22.017 116 255 139
46.0682 -91.7549 19.0198 242 255 13
45.9404 -93.0483 16.0252 235 255 20
45.8657 -94.385 13.0592 101 255 154
44.8897 -96.9856 12.3264 230 255 25
43.5901 -99.4825 11.5082 232 255 23
41.9461 -101.87 10.6627 236 255 19
43.1286 -95.9309 28.7594 255 239 0
42.8435 -97.3776 25.4394 255 8 0
42.5054 -98.7459 22.143 254 0 0
42.0731 -100.069 18.9133 236 0 0
41.0622 -100.653 21.0359 255 53 0
39.3953 -102.323 19.8859 255 91 0
37.5139 -103.791 18.7814 0 251 255
41.5157 -101.385 15.7814 208 0 0
40.8195 -102.735 12.763 255 167 0
39.9887 -104.159 9.85811 0 237 255
37.1201 -105.357 14.9552 0 0 170
38.1488 -104.547 15.4112 0 0 206
37.5911 -104.604 16.3928 0 0 170
37.9588 -93.6465 37.9369 0 0 161
38.6924 -93.414 38.7017 0 0 161
38.0531 -92.6702 39.5794 0 0 129
37.621 -96.4936 32.8397 0 0 131
37.7533 -95.5461 34.5484 0 0 131
37.4792 -97.3978 31.1274 0 0 163
38.2423 -97.1666 31.9425 0 0 195
37.621 -96.4936 32.8397 0 0 163
37.2897 -98.3394 29.4462 0 0 131
37.4792 -97.3978 31.1274 0 0 131
40.5374 -94.8863 35.8602 0 0 128
39.9371 -94.5283 36.8564 0 0 128
42.2453 -95.3974 32.7001 0 0 162
41.6924 -95.3257 33.7753 0 0 162
41.5671 -96.1621 32.111 0 0 195
42.762 -95.3066 31.5435 0 0 134
42.2453 -95.3974 32.7001 0 0 134
42.6243 -96.0824 29.8976 0 0 205
43.2663 -95.1551 30.4053 0 0 169
42.762 -95.3066 31.5435 0 0 169
37.4158 -100.711 25.2652 0 0 130
36.8201 -100.168 26.156 0 0 130
39.816 -103.792 12.3506 0 0 180
40.2673 -103.073 13.7991 0 0 222
39.2639 -104.13 13.3867 0 0 180
39.4006 -104.504 10.8981 0 0 181
40.4041 -103.447 11.3106 0 0 224
39.816 -103.792 12.3506 0 0 181
38.2452 -105.074 12.9559 0 0 176
39.2639 -104.13 13.3867 0 0 176
38.6965 -104.355 14.4044 0 0 215
39.3194 -93.9876 37.7895 0 0 158
39.4138 -93.0113 39.432 0 0 128
38.6924 -93.414 38.7017 0 0 158
39.2158 -94.931 36.1261 0 0 188
39.9371 -94.5283 36.8564 0 0 157
39.3194 -93.9876 37.7895 0 0 157
37.8604 -94.6101 36.2506 0 0 130
37.9588 -93.6465 37.9369 0 0 130
38.4911 -95.3263 35.357 0 0 195
37.8604 -94.6101 36.2506 0 0 162
37.7533 -95.5461 34.5484 0 0 162
37.0884 -99.2226 27.7679 0 0 162
37.8993 -98.954 28.5519 0 0 195
37.2897 -98.3394 29.4462 0 0 162
36.8201 -100.168 26.156 0 0 131
37.0884 -99.2226 27.7679 0 0 131
44.8905 -92.6417 29.9281 0 0 140
44.4856 -93.0313 31.2083 0 0 140
45.2814 -92.1934 28.6761 0 0 182
44.8905 -92.6417 29.9281 0 0 182
44.7092 -93.3558 28.3709 0 0 224
45.614 -91.6734 27.3695 0 0 142
45.2814 -92.1934 28.6761 0 0 142
45.9405 -91.1063 26.0974 0 0 184
45.614 -91.6734 27.3695 0 0 184
45.4266 -92.3405 25.8467 0 0 228
46.2076 -90.4945 24.7808 0 0 142
45.9405 -91.1063 26.0974 0 0 142
46.481 -89.8503 23.502 0 0 185
46.2076 -90.4945 24.7808 0 0 185
46.0264 -91.1293 23.2958 0 0 229
46.7005 -89.1834 22.1864 0 0 186
46.8817 -88.5486 23.6714 0 0 142
46.481 -89.8503 23.502 0 0 186
46.5407 -89.8005 20.741 0 0 141
46.7005 -89.1834 22.1864 0 0 141
46.4249 -90.4354 19.2424 0 0 186
46.5407 -89.8005 20.741 0 0 186
46.184 -91.12 20.5184 0 0 230
46.3463 -91.0706 17.7897 0 0 140
46.4249 -90.4354 19.2424 0 0 140
46.2824 -91.7173 16.2923 0 0 185
46.3463 -91.0706 17.7897 0 0 185
46.0043 -92.4016 17.5225 0 0 229
46.267 -92.3787 14.8452 0 0 140
46.2824 -91.7173 16.2923 0 0 140
46.2297 -93.0471 13.3622 0 0 184
46.267 -92.3787 14.8452 0 0 184
45.9031 -93.7166 14.5422 0 0 228
46.2456 -93.74 11.9308 0 0 139
46.2297 -93.0471 13.3622 0 0 139
45.8232 -95.0837 11.5994 0 0 140
46.2456 -93.74 11.9308 0 0 140
45.3352 -96.384 11.2329 0 0 181
45.8232 -95.0837 11.5994 0 0 181
45.3777 -95.6853 12.6928 0 0 223
44.7544 -97.687 10.8514 0 0 140
45.3352 -96.384 11.2329 0 0 140
44.1046 -98.9354 10.4424 0 0 182
44.7544 -97.687 10.8514 0 0 182
44.2399 -98.2341 11.9173 0 0 224
43.3414 -100.191 10.0363 0 0 141
44.1046 -98.9354 10.4424 0 0 141
42.5194 -101.385 9.61352 0 0 183
43.3414 -100.191 10.0363 0 0 183
42.7681 -100.676 11.0855 0 0 227
41.5796 -102.598 9.21481 0 0 142
42.5194 -101.385 9.61352 0 0 142
41.1278 -95.1956 34.8568 0 0 157
40.5374 -94.8863 35.8602 0 0 157
40.4238 -95.7811 34.1896 0 0 188
41.1278 -95.1956 34.8568 0 0 130
41.6924 -95.3257 33.7753 0 0 130
43.8611 -94.0917 30.8371 0 0 137
44.4856 -93.0313 31.2083 0 0 137
43.7235 -94.8675 29.1912 0 0 217
43.8611 -94.0917 30.8371 0 0 177
43.2663 -95.1551 30.4053 0 0 177
37.0382 -104.602 17.3591 0 0 169
37.5911 -104.604 16.3928 0 0 169
38.0669 -103.793 17.8151 0 0 205
38.0038 -101.087 24.339 0 0 161
38.286 -100.214 25.9475 0 0 193
37.4158 -100.711 25.2652 0 0 161
37.7097 -101.889 22.7357 0 0 160
38.5798 -101.391 23.418 0 0 191
38.0038 -101.087 24.339 0 0 160
37.334 -102.765 21.2222 0 0 130
37.7097 -101.889 22.7357 0 0 130
36.9482 -103.564 19.7056 0 0 162
37.8998 -102.992 20.298 0 0 194
37.334 -102.765 21.2222 0 0 162
36.4784 -104.453 18.2991 0 0 165
36.9482 -103.564 19.7056 0 0 165
35.9126 -104.226 19.2233 0 0 131
37.0382 -104.602 17.3591 0 0 131
36.4784 -104.453 18.2991 0 0 131
40.6009 -103.743 8.81249 0 0 185
41.5796 -102.598 9.21481 0 0 185
40.9674 -103.014 10.2604 0 0 229
36.5674 -106.194 13.6227 0 0 135
37.1201 -105.357 14.9552 0 0 135
37.1372 -106.086 12.6111 0 0 136
36.5674 -106.194 13.6227 0 0 136
38.2452 -105.074 12.9559 0 0 138
37.1372 -106.086 12.6111 0 0 138
38.8867 -105.267 9.51142 0 0 141
39.4006 -104.504 10.8981 0 0 141
39.5151 -104.925 8.45595 0 0 142
38.8867 -105.267 9.51142 0 0 142
40.6009 -103.743 8.81249 0 0 143
39.5151 -104.925 8.45595 0 0 143
3 0 13 11
3 0 15 13
3 0 17 15
3 1 20 18
3 1 22 20
3 1 24 22
3 52 27 53
3 54 53 25
3 52 53 54
3 55 28 56
3 55 56 57
3 58 29 59
3 60 30 61
3 62 61 29
3 60 61 62
3 64 63 30
3 3 33 32
3 4 34 12
3 4 35 34
3 4 36 35
3 5 37 14
3 5 38 37
3 5 39 38
3 6 40 16
3 6 41 40
3 2 65 66
3 7 67 69
3 69 68 19
3 67 68 69
3 7 70 71
3 7 72 74
3 72 42 73
3 72 73 74
3 8 43 21
3 8 44 43
3 8 46 44
3 10 47 23
3 10 48 47
3 76 75 31
3 9 49 45
3 77 50 78
3 79 78 26
3 77 78 79
3 80 51 81
3 82 81 50
3 80 81 82
3 11 12 3
3 13 12 11
3 13 4 12
3 13 14 4
3 15 14 13
3 15 5 14
3 15 16 5
3 17 16 15
3 17 6 16
3 18 19 2
3 20 19 18
3 20 7 19
3 20 21 7
3 22 21 20
3 22 8 21
3 22 23 8
3 24 23 22
3 24 10 23
3 25 26 9
3 27 26 25
3 27 83 85
3 85 84 26
3 83 84 85
3 28 86 88
3 86 87 88
3 28 89 91
3 89 2 90
3 89 90 91
3 92 28 93
3 29 94 96
3 94 28 95
3 94 95 96
3 29 2 28
3 29 18 2
3 30 18 29
3 30 1 18
3 30 31 1
3 97 31 98
3 99 98 30
3 97 98 99
3 101 100 31
3 32 102 103
3 33 104 106
3 106 105 32
3 104 105 106
3 33 107 108
3 12 33 3
3 34 33 12
3 34 109 111
3 111 110 33
3 109 110 111
3 34 112 113
3 35 114 116
3 116 115 34
3 114 115 116
3 35 117 119
3 117 118 119
3 35 120 121
3 36 122 124
3 124 123 35
3 122 123 124
3 36 125 126
3 14 36 4
3 37 36 14
3 37 127 129
3 129 128 36
3 127 128 129
3 37 130 131
3 38 132 134
3 134 133 37
3 132 133 134
3 38 135 136
3 38 137 138
3 39 139 141
3 141 140 38
3 139 140 141
3 39 142 143
3 16 39 5
3 40 39 16
3 40 144 146
3 146 145 39
3 144 145 146
3 40 147 148
3 41 149 151
3 151 150 40
3 149 150 151
3 41 152 153
3 19 154 156
3 156 155 2
3 154 155 156
3 158 157 19
3 159 32 160
3 42 161 163
3 161 32 162
3 161 162 163
3 42 3 32
3 21 42 7
3 43 42 21
3 43 3 42
3 43 11 3
3 44 11 43
3 44 0 11
3 44 45 0
3 46 45 44
3 46 9 45
3 23 46 8
3 47 46 23
3 47 9 46
3 47 25 9
3 48 25 47
3 48 164 166
3 166 165 25
3 164 165 166
3 31 24 1
3 167 24 168
3 169 168 31
3 167 168 169
3 170 10 171
3 172 171 24
3 170 171 172
3 173 10 174
3 175 48 176
3 177 176 10
3 175 176 177
3 178 48 179
3 178 179 180
3 182 181 48
3 45 17 0
3 49 17 45
3 49 6 17
3 26 49 9
3 50 49 26
3 50 6 49
3 50 41 6
3 51 41 50
3 51 183 185
3 185 184 41
3 183 184 185
3 186 27 187
3 188 27 189
3 191 190 27
3 192 51 193
3 194 51 195
3 197 196 51
