ply
format ascii 1.0
element vertex 175
property float x
property float y
property float z
property uchar red
property uchar green
property uchar blue
element face 148
property list uchar int vertex_index
end_header
25.968 23.5605 -31.0908 0 110 255
31.8984 23.5694 -29.5125 0 242 255
36.338 26.2759 -16.6366 132 255 123
32.3644 28.0506 -26.1784 150 255 105
38.7304 18.7644 -19.299 16 255 239
29.0196 23.8445 -30.4935 0 245 255
34.755 25.9741 -23.8187 255 69 0
36.902 22.862 -21.4841 255 176 0
34.7179 22.3983 -28.1972 40 255 215
32.7591 30.2758 -24.4924 0 245 255
30.701 26.2785 -28.6983 85 255 170
29.2615 26.5406 -29.4474 3 255 252
30.4719 23.8014 -30.0497 0 236 255
35.6757 28.2149 -18.1056 102 255 153
35.7486 26.337 -20.3317 255 187 0
36.6064 24.5075 -19.0179 128 0 0
35.992 22.897 -25.0131 230 255 25
34.7296 24.1294 -25.9904 255 136 0
36.1048 21.4206 -27.4459 0 235 255
31.0684 28.7206 -27.2898 0 203 255
32.0842 25.8075 -27.8574 255 233 0
37.3922 22.422 -17.7708 255 227 0
26.1492 26.611 -30.6239 0 206 255
27.7485 26.635 -30.0911 19 255 236
27.5234 23.7464 -30.8404 11 255 244
33.8308 29.2151 -23.0996 117 255 138
34.8238 27.9053 -21.7005 155 255 100
35.8618 24.5473 -22.6364 255 1 0
37.1972 21.4041 -24.0318 54 255 201
37.8626 20.9284 -20.3717 255 248 0
33.5897 27.1399 -25.0096 255 127 0
33.4252 25.0973 -26.9464 255 193 0
33.3126 23.1104 -28.8907 7 255 248
33.0177 31.3676 -23.6548 0 0 138
32.5133 31.8392 -24.4243 0 0 138
31.8383 22.4625 -30.3222 0 0 154
31.1251 22.5784 -30.5908 0 0 154
31.1852 23.6854 -29.7811 0 0 178
25.1578 23.451 -31.1682 0 0 134
25.2149 25.0416 -31.0685 0 0 134
36.779 20.7994 -27.0472 0 0 171
36.0484 22.1588 -26.2295 0 0 205
36.7226 21.5376 -25.8308 0 0 171
31.7164 28.3856 -26.7341 0 0 195
31.3288 29.9116 -26.563 0 0 165
31.9769 29.5766 -26.0072 0 0 165
26.3644 28.0934 -30.3165 0 0 137
25.4989 28.1141 -30.6495 0 0 137
28.9781 22.4805 -30.9791 0 0 156
28.2299 22.4314 -31.1526 0 0 156
28.2715 23.7954 -30.667 0 0 182
34.8891 28.8946 -20.6736 0 0 142
34.4929 29.5992 -21.4658 0 0 142
32.1742 30.6892 -25.1642 0 0 136
32.5133 31.8392 -24.4243 0 0 136
32.5617 29.1632 -25.3354 0 0 201
31.9769 29.5766 -26.0072 0 0 168
32.1742 30.6892 -25.1642 0 0 168
29.9813 26.4095 -29.0729 0 0 187
29.4726 27.8574 -28.8796 0 0 159
30.1923 27.7263 -28.5051 0 0 159
30.4141 22.558 -30.6969 0 0 154
29.688 22.5796 -30.9188 0 0 154
29.7458 23.8229 -30.2716 0 0 179
30.4141 22.558 -30.6969 0 0 128
31.1251 22.5784 -30.5908 0 0 128
35.7122 27.276 -19.2186 0 0 227
35.3515 28.1105 -19.9892 0 0 186
35.315 29.0494 -18.8761 0 0 186
39.0429 18.2304 -20.6915 0 0 150
39.5025 17.1464 -20.2058 0 0 150
30.6828 30.2186 -27.19 0 0 135
31.3288 29.9116 -26.563 0 0 135
30.376 28.9474 -27.8008 0 0 134
30.6828 30.2186 -27.19 0 0 134
30.8847 27.4995 -27.9941 0 0 192
30.1923 27.7263 -28.5051 0 0 163
30.376 28.9474 -27.8008 0 0 163
37.1687 23.2445 -16.5126 0 0 200
36.8651 24.3489 -17.2037 0 0 248
36.6416 25.1714 -15.9455 0 0 200
37.7459 21.2587 -17.1808 0 0 152
37.1687 23.2445 -16.5126 0 0 152
38.415 19.4299 -17.9449 0 0 202
38.0613 20.5932 -18.5349 0 0 251
37.7459 21.2587 -17.1808 0 0 202
39.1138 17.5797 -18.7789 0 0 153
38.415 19.4299 -17.9449 0 0 153
39.5025 17.1464 -20.2058 0 0 153
39.1138 17.5797 -18.7789 0 0 153
25.9931 22.0095 -31.2742 0 0 131
26.7325 22.1868 -31.2957 0 0 131
25.3055 26.5669 -30.8351 0 0 136
25.4989 28.1141 -30.6495 0 0 136
26.0586 25.0857 -30.8573 0 0 198
25.2149 25.0416 -31.0685 0 0 167
25.3055 26.5669 -30.8351 0 0 167
28.7265 27.9928 -29.3345 0 0 134
29.4726 27.8574 -28.8796 0 0 134
27.97 28.04 -29.6563 0 0 161
28.7265 27.9928 -29.3345 0 0 161
28.505 26.5878 -29.7693 0 0 189
27.1641 28.1055 -30.0501 0 0 135
27.97 28.04 -29.6563 0 0 135
26.9488 26.623 -30.3575 0 0 193
26.3644 28.0934 -30.3165 0 0 163
27.1641 28.1055 -30.0501 0 0 163
27.5102 22.2797 -31.1705 0 0 160
26.7325 22.1868 -31.2957 0 0 160
26.7457 23.6535 -30.9656 0 0 187
27.5102 22.2797 -31.1705 0 0 129
28.2299 22.4314 -31.1526 0 0 129
28.9781 22.4805 -30.9791 0 0 128
29.688 22.5796 -30.9188 0 0 128
33.9963 30.2542 -22.1653 0 0 139
33.5536 30.8372 -22.9584 0 0 139
34.3273 28.5602 -22.4001 0 0 211
33.9963 30.2542 -22.1653 0 0 176
34.4929 29.5992 -21.4658 0 0 176
35.2862 27.1212 -21.0161 0 0 219
34.8891 28.8946 -20.6736 0 0 181
35.3515 28.1105 -19.9892 0 0 181
37.3252 20.7911 -25.3401 0 0 178
36.7226 21.5376 -25.8308 0 0 178
36.5946 22.1505 -24.5225 0 0 214
38.609 19.3125 -21.2279 0 0 196
38.2965 19.8464 -19.8353 0 0 242
39.0429 18.2304 -20.6915 0 0 196
38.0937 20.2961 -21.7135 0 0 147
38.609 19.3125 -21.2279 0 0 147
37.6135 21.2629 -22.2697 0 0 190
37.3823 21.8952 -20.9279 0 0 233
38.0937 20.2961 -21.7135 0 0 190
37.7611 20.5339 -23.5436 0 0 184
37.0496 22.133 -22.758 0 0 223
37.6135 21.2629 -22.2697 0 0 184
37.9668 20.0437 -24.9219 0 0 144
37.7611 20.5339 -23.5436 0 0 144
37.3252 20.7911 -25.3401 0 0 141
37.9668 20.0437 -24.9219 0 0 141
35.4151 30.0395 -17.8822 0 0 143
35.315 29.0494 -18.8761 0 0 143
35.6665 29.1675 -17.0305 0 0 146
35.4151 30.0395 -17.8822 0 0 146
35.9976 28.198 -16.296 0 0 189
36.0069 27.2454 -17.3711 0 0 232
35.6665 29.1675 -17.0305 0 0 189
36.2274 27.184 -15.486 0 0 150
35.9976 28.198 -16.296 0 0 150
36.6416 25.1714 -15.9455 0 0 150
36.2274 27.184 -15.486 0 0 150
25.1578 23.451 -31.1682 0 0 134
25.9931 22.0095 -31.2742 0 0 134
33.2949 29.7455 -23.796 0 0 205
33.0177 31.3676 -23.6548 0 0 171
33.5536 30.8372 -22.9584 0 0 171
36.8631 20.3099 -28.379 0 0 137
36.779 20.7994 -27.0472 0 0 137
36.1308 20.7749 -28.6783 0 0 134
36.8631 20.3099 -28.379 0 0 134
35.4373 21.2638 -29.054 0 0 165
35.4114 21.9094 -27.8215 0 0 195
36.1308 20.7749 -28.6783 0 0 165
34.6997 21.5949 -29.3063 0 0 131
35.4373 21.2638 -29.054 0 0 131
33.997 21.9509 -29.6531 0 0 159
34.0152 22.7544 -28.5439 0 0 187
34.6997 21.5949 -29.3063 0 0 159
33.2656 22.1516 -29.8569 0 0 129
33.997 21.9509 -29.6531 0 0 129
32.5585 22.3812 -30.1678 0 0 155
32.6055 23.3399 -29.2016 0 0 181
33.2656 22.1516 -29.8569 0 0 155
31.8383 22.4625 -30.3222 0 0 128
32.5585 22.3812 -30.1678 0 0 128
3 33 9 34
3 1 12 10
3 1 35 37
3 37 36 12
3 35 36 37
3 2 15 13
3 0 38 39
3 40 18 41
3 42 41 16
3 40 41 42
3 3 43 45
3 43 19 44
3 43 44 45
3 3 20 19
3 46 22 47
3 5 23 11
3 5 24 23
3 5 48 50
3 50 49 24
3 48 49 50
3 51 26 52
3 7 27 14
3 7 28 27
3 4 29 21
3 6 30 25
3 8 31 17
3 8 32 31
3 9 53 54
3 9 55 57
3 55 3 56
3 55 56 57
3 10 58 60
3 58 11 59
3 58 59 60
3 12 11 10
3 12 5 11
3 12 61 63
3 63 62 5
3 61 62 63
3 65 64 12
3 13 66 68
3 66 14 67
3 66 67 68
3 15 14 13
3 15 7 14
3 70 69 4
3 16 17 6
3 18 17 16
3 18 8 17
3 19 71 72
3 19 73 74
3 19 75 77
3 75 10 76
3 75 76 77
3 20 10 19
3 20 1 10
3 78 21 79
3 80 79 2
3 78 79 80
3 81 21 82
3 83 4 84
3 85 84 21
3 83 84 85
3 86 4 87
3 89 88 4
3 91 90 0
3 22 92 93
3 22 94 96
3 94 0 95
3 94 95 96
3 11 97 98
3 23 99 101
3 101 100 11
3 99 100 101
3 23 102 103
3 23 104 106
3 104 22 105
3 104 105 106
3 24 22 23
3 24 0 22
3 24 107 109
3 109 108 0
3 107 108 109
3 111 110 24
3 113 112 5
3 114 25 115
3 26 116 118
3 116 25 117
3 116 117 118
3 26 6 25
3 14 119 121
3 119 26 120
3 119 120 121
3 27 26 14
3 27 6 26
3 27 16 6
3 28 16 27
3 28 122 124
3 124 123 16
3 122 123 124
3 21 15 2
3 29 15 21
3 29 7 15
3 125 29 126
3 127 126 4
3 125 126 127
3 128 29 129
3 130 7 131
3 132 131 29
3 130 131 132
3 133 28 134
3 135 134 7
3 133 134 135
3 136 28 137
3 139 138 28
3 140 13 141
3 142 13 143
3 144 2 145
3 146 145 13
3 144 145 146
3 147 2 148
3 150 149 2
3 152 151 0
3 25 153 155
3 153 9 154
3 153 154 155
3 30 9 25
3 30 3 9
3 17 30 6
3 31 30 17
3 31 3 30
3 31 20 3
3 32 20 31
3 32 1 20
3 156 18 157
3 158 18 159
3 160 8 161
3 162 161 18
3 160 161 162
3 163 8 164
3 165 32 166
3 167 166 8
3 165 166 167
3 168 32 169
3 170 1 171
3 172 171 32
3 170 171 172
3 174 173 1
