ply
format ascii 1.0
element vertex 96
property float x
property float y
property float z
property uchar red
property uchar green
property uchar blue
element face 72
property list uchar int vertex_index
end_header
47.1684 -95.936 -17.0281 0 84 255
42.9585 -105.667 -11.0356 128 0 0
45.1539 -101.486 -14.2758 0 225 255
43.9477 -104.193 -8.40993 105 255 150
45.0488 -102.486 -10.1669 103 255 152
44.1018 -103.76 -12.7175 255 146 0
41.693 -107.221 -9.23531 116 255 139
46.1706 -96.3853 -18.9578 0 72 255
46.1608 -98.8635 -15.71 0 91 255
40.525 -108.742 -11.8092 115 255 140
41.8139 -106.981 -13.5326 235 255 20
42.9933 -104.849 -15.1064 96 255 159
48.089 -94.122 -16.6323 0 0 132
47.5737 -95.6152 -15.9418 0 0 132
40.9968 -107.843 -8.27893 0 0 134
42.2039 -106.398 -7.89903 0 0 134
46.088 -94.8335 -20.2939 0 0 128
46.6909 -94.709 -19.4819 0 0 167
45.5677 -96.5097 -19.7698 0 0 167
46.081 -99.7521 -13.833 0 0 134
45.6024 -100.956 -13.052 0 0 134
45.6574 -100.175 -14.9929 0 0 218
46.5845 -98.441 -14.5501 0 0 175
46.081 -99.7521 -13.833 0 0 175
39.1587 -110.228 -12.1187 0 0 135
39.8225 -109.451 -10.8752 0 0 135
41.1552 -107.536 -14.6767 0 0 132
40.5044 -108.532 -13.8732 0 0 132
41.7449 -106.47 -15.4636 0 0 176
42.4036 -105.915 -14.3195 0 0 219
41.1552 -107.536 -14.6767 0 0 176
44.8979 -102.631 -7.96915 0 0 132
44.369 -103.4 -7.06431 0 0 132
45.4484 -101.777 -8.84765 0 0 175
44.8979 -102.631 -7.96915 0 0 175
44.4982 -103.34 -9.28843 0 0 218
45.9246 -100.844 -9.71652 0 0 133
45.4484 -101.777 -8.84765 0 0 133
45.5498 -101.456 -10.9976 0 0 132
45.9246 -100.844 -9.71652 0 0 132
45.0763 -102.093 -12.2729 0 0 178
45.5498 -101.456 -10.9976 0 0 178
44.5753 -103.123 -11.4422 0 0 222
44.6278 -102.623 -13.4967 0 0 219
45.6024 -100.956 -13.052 0 0 176
45.0763 -102.093 -12.2729 0 0 176
43.3312 -104.884 -7.48634 0 0 132
44.369 -103.4 -7.06431 0 0 132
42.8204 -105.707 -8.82262 0 0 222
43.3312 -104.884 -7.48634 0 0 178
42.2039 -106.398 -7.89903 0 0 178
47.1901 -94.5739 -18.6034 0 0 171
47.689 -94.3492 -17.6386 0 0 171
46.6695 -96.1606 -17.9929 0 0 213
47.1901 -94.5739 -18.6034 0 0 128
46.6909 -94.709 -19.4819 0 0 128
47.0699 -97.0789 -15.2828 0 0 133
46.5845 -98.441 -14.5501 0 0 133
46.6646 -97.3998 -16.3691 0 0 216
47.5737 -95.6152 -15.9418 0 0 174
47.0699 -97.0789 -15.2828 0 0 174
40.4065 -108.691 -9.58822 0 0 135
40.9968 -107.843 -8.27893 0 0 135
41.109 -107.982 -10.5223 0 0 226
40.4065 -108.691 -9.58822 0 0 180
39.8225 -109.451 -10.8752 0 0 180
39.86 -109.413 -13.0115 0 0 134
39.1587 -110.228 -12.1187 0 0 134
41.1694 -107.862 -12.6709 0 0 222
39.86 -109.413 -13.0115 0 0 178
40.5044 -108.532 -13.8732 0 0 178
42.3481 -105.285 -16.1778 0 0 131
41.7449 -106.47 -15.4636 0 0 131
43.5413 -103.599 -15.818 0 0 132
42.3481 -105.285 -16.1778 0 0 132
44.6216 -101.918 -15.4027 0 0 174
44.0736 -103.167 -14.6911 0 0 216
43.5413 -103.599 -15.818 0 0 174
45.1251 -100.606 -16.1198 0 0 176
45.6574 -100.175 -14.9929 0 0 219
44.6216 -101.918 -15.4027 0 0 176
45.6491 -99.1874 -16.759 0 0 131
45.1251 -100.606 -16.1198 0 0 131
46.1529 -97.7237 -17.418 0 0 174
46.6646 -97.3998 -16.3691 0 0 217
45.6491 -99.1874 -16.759 0 0 174
45.654 -97.9483 -18.3829 0 0 170
46.6695 -96.1606 -17.9929 0 0 210
46.1529 -97.7237 -17.418 0 0 170
45.0422 -98.1664 -19.2832 0 0 130
45.654 -97.9483 -18.3829 0 0 130
45.5677 -96.5097 -19.7698 0 0 128
45.0422 -98.1664 -19.2832 0 0 128
48.6096 -92.5352 -17.2428 0 0 130
48.089 -94.122 -16.6323 0 0 171
47.689 -94.3492 -17.6386 0 0 171
3 0 12 13
3 1 4 3
3 1 5 4
3 14 6 15
3 18 17 7
3 16 17 18
3 2 19 20
3 2 21 23
3 21 8 22
3 21 22 23
3 24 9 25
3 26 10 27
3 28 11 29
3 30 29 10
3 28 29 30
3 3 31 32
3 4 33 35
3 35 34 3
3 33 34 35
3 4 36 37
3 4 38 39
3 5 40 42
3 42 41 4
3 40 41 42
3 5 43 45
3 43 2 44
3 43 44 45
3 46 3 47
3 6 48 50
3 48 3 49
3 48 49 50
3 6 1 3
3 7 51 53
3 53 52 0
3 51 52 53
3 55 54 7
3 8 56 57
3 8 58 60
3 58 0 59
3 58 59 60
3 61 6 62
3 9 63 65
3 63 6 64
3 63 64 65
3 9 1 6
3 66 9 67
3 10 68 70
3 68 9 69
3 68 69 70
3 10 1 9
3 10 5 1
3 11 5 10
3 11 2 5
3 71 11 72
3 73 11 74
3 75 2 76
3 77 76 11
3 75 76 77
3 78 8 79
3 80 79 2
3 78 79 80
3 81 8 82
3 83 0 84
3 85 84 8
3 83 84 85
3 86 7 87
3 88 87 0
3 86 87 88
3 89 7 90
3 92 91 7
3 95 94 0
3 93 94 95
