ply
format ascii 1.0
element vertex 154
property float x
property float y
property float z
property uchar red
property uchar green
property uchar blue
element face 134
property list uchar int vertex_index
end_header
-44.5652 11.4611 57.2267 154 0 0
-50.8968 4.64058 52.0231 217 0 0
-47.8968 8.0639 54.7734 185 0 0
-48.7759 9.54567 50.6356 255 241 0
-53.2238 1.50249 48.7697 167 255 88
-46.0658 5.84836 57.9279 177 255 78
-51.9749 6.06485 47.6897 92 255 163
-46.2565 9.78666 56.0264 173 0 0
-46.863 10.7458 54.1667 255 139 0
-45.3014 12.5967 55.4837 240 255 15
-47.7432 4.35283 56.8706 47 255 208
-52.164 3.02261 50.4672 238 0 0
-52.8664 3.82286 48.3386 255 211 0
-51.4934 5.39524 49.9287 183 0 0
-49.4583 6.33371 53.4491 198 0 0
-49.9965 7.09528 51.4118 148 0 0
-48.4363 8.89428 52.8149 128 0 0
-47.2269 11.4868 52.046 139 255 116
-45.9864 14.1456 51.1514 0 139 255
-42.8321 13.0574 58.3697 238 255 17
-43.7481 14.3979 56.7606 115 255 140
-52.2925 0.586546 50.8016 49 255 206
-51.3387 2.15366 52.4549 163 255 92
-50.1389 3.77592 53.9406 169 255 86
-48.7169 5.4192 55.2714 255 214 0
-47.1137 7.04394 56.4784 222 0 0
-45.3727 8.61422 57.5956 196 0 0
-44.2029 7.2573 58.8804 75 255 180
-43.5304 10.1054 58.645 255 161 0
-41.6124 11.508 59.6256 0 236 255
-54.0645 2.38209 46.6292 0 186 255
-50.3791 7.72498 49.1929 248 255 7
-46.4938 12.4882 52.7432 0 0 183
-47.0449 11.1163 53.1063 0 0 230
-46.3118 12.1177 53.8036 0 0 183
-45.8735 13.8176 52.296 0 0 188
-46.6067 12.8162 51.5987 0 0 236
-46.4938 12.4882 52.7432 0 0 188
-42.5045 14.5846 58.1669 0 0 136
-41.9422 13.8086 58.8968 0 0 136
-51.7682 0.106633 51.7563 0 0 129
-52.077 -0.661256 50.8788 0 0 129
-51.2913 0.89019 52.583 0 0 170
-51.8156 1.3701 51.6282 0 0 209
-51.7682 0.106633 51.7563 0 0 170
-49.663 3.28481 54.8049 0 0 128
-50.249 2.49074 54.1142 0 0 128
-48.952 4.10645 55.4703 0 0 169
-49.4279 4.59756 54.606 0 0 209
-49.663 3.28481 54.8049 0 0 169
-43.203 7.91511 59.3177 0 0 133
-43.4856 6.50816 59.4033 0 0 133
-42.8668 9.33918 59.2 0 0 176
-43.8666 8.68137 58.7627 0 0 219
-43.203 7.91511 59.3177 0 0 176
-41.9078 10.0405 59.6903 0 0 177
-42.5714 10.8067 59.1353 0 0 221
-42.8668 9.33918 59.2 0 0 177
-53.6441 1.94229 47.6995 0 0 204
-54.0679 1.23273 46.7879 0 0 167
-53.6475 0.792929 47.8582 0 0 167
-52.7307 5.32059 46.894 0 0 174
-53.1765 4.19959 47.2185 0 0 174
-52.4207 4.94386 48.0141 0 0 216
-52.1836 6.37529 46.519 0 0 132
-52.7307 5.32059 46.894 0 0 132
-44.0572 14.9435 55.7875 0 0 137
-43.3743 15.9123 56.4485 0 0 137
-45.531 13.0431 54.4621 0 0 181
-46.3118 12.1177 53.8036 0 0 181
-46.0822 11.6712 54.8252 0 0 227
-47.8867 3.02825 57.0469 0 0 129
-48.4651 3.57327 56.2698 0 0 129
-47.1384 3.75371 57.5703 0 0 128
-47.8867 3.02825 57.0469 0 0 128
-46.2997 4.50148 58.099 0 0 169
-46.9045 5.10059 57.3993 0 0 208
-47.1384 3.75371 57.5703 0 0 169
-48.8748 9.7994 49.4616 0 0 139
-48.0889 10.7893 50.1771 0 0 139
-47.3144 11.7599 50.8823 0 0 187
-48.0889 10.7893 50.1771 0 0 187
-48.0014 10.5163 51.3408 0 0 235
-46.6941 13.0893 50.435 0 0 189
-47.3144 11.7599 50.8823 0 0 189
-46.6067 12.8162 51.5987 0 0 239
-46.0117 14.373 49.919 0 0 142
-46.6941 13.0893 50.435 0 0 142
-42.9625 15.2548 57.3624 0 0 179
-43.2901 13.7276 57.5651 0 0 224
-42.5045 14.5846 58.1669 0 0 179
-43.3743 15.9123 56.4485 0 0 137
-42.9625 15.2548 57.3624 0 0 137
-53.1165 0.299299 48.8838 0 0 130
-53.6475 0.792929 47.8582 0 0 130
-52.6508 -0.158675 49.8998 0 0 131
-52.077 -0.661256 50.8788 0 0 131
-52.7582 1.04452 49.7856 0 0 206
-53.1165 0.299299 48.8838 0 0 168
-52.6508 -0.158675 49.8998 0 0 168
-50.8489 1.67961 53.3713 0 0 128
-51.2913 0.89019 52.583 0 0 128
-50.7388 2.96479 53.1978 0 0 208
-50.8489 1.67961 53.3713 0 0 169
-50.249 2.49074 54.1142 0 0 169
-48.2301 4.88601 56.071 0 0 203
-48.952 4.10645 55.4703 0 0 166
-48.4651 3.57327 56.2698 0 0 166
-45.4132 5.17869 58.5419 0 0 129
-46.2997 4.50148 58.099 0 0 129
-44.4818 5.88316 59.0181 0 0 132
-43.4856 6.50816 59.4033 0 0 132
-45.1344 6.55283 58.4042 0 0 212
-45.4132 5.17869 58.5419 0 0 172
-44.4818 5.88316 59.0181 0 0 172
-41.3323 13.034 59.5247 0 0 179
-41.9422 13.8086 58.8968 0 0 179
-42.2222 12.2827 58.9976 0 0 223
-40.8615 10.6565 60.0913 0 0 136
-41.9078 10.0405 59.6903 0 0 136
-40.6242 12.1675 60.0682 0 0 136
-40.8615 10.6565 60.0913 0 0 136
-41.3323 13.034 59.5247 0 0 137
-40.6242 12.1675 60.0682 0 0 137
-54.5663 1.71736 45.7215 0 0 129
-54.0679 1.23273 46.7879 0 0 129
-54.4557 2.8103 45.5168 0 0 128
-54.5663 1.71736 45.7215 0 0 128
-53.7755 3.4792 46.3638 0 0 168
-53.4654 3.10247 47.4839 0 0 206
-53.1765 4.19959 47.2185 0 0 168
-54.4557 2.8103 45.5168 0 0 130
-53.7755 3.4792 46.3638 0 0 130
-49.6764 8.88905 48.7402 0 0 184
-49.5775 8.63533 49.9142 0 0 231
-48.8748 9.7994 49.4616 0 0 184
-50.5211 7.9937 48.0167 0 0 138
-49.6764 8.88905 48.7402 0 0 138
-51.319 7.16363 47.2651 0 0 180
-51.177 6.89492 48.4413 0 0 224
-50.5211 7.9937 48.0167 0 0 180
-52.1836 6.37529 46.519 0 0 136
-51.319 7.16363 47.2651 0 0 136
-44.8339 14.0429 55.1491 0 0 182
-44.5247 13.4973 56.1221 0 0 228
-44.0572 14.9435 55.7875 0 0 182
-45.531 13.0431 54.4621 0 0 137
-44.8339 14.0429 55.1491 0 0 137
-45.3516 15.2313 51.8673 0 0 140
-45.8735 13.8176 52.296 0 0 140
-45.4167 15.5222 50.6454 0 0 142
-45.3516 15.2313 51.8673 0 0 142
-46.0117 14.373 49.919 0 0 143
-45.4167 15.5222 50.6454 0 0 143
3 0 9 7
3 1 13 11
3 2 16 14
3 32 17 33
3 34 33 8
3 32 33 34
3 35 18 36
3 37 36 17
3 35 36 37
3 39 38 19
3 40 21 41
3 42 22 43
3 44 43 21
3 42 43 44
3 45 23 46
3 47 24 48
3 49 48 23
3 47 48 49
3 5 25 10
3 5 26 25
3 50 27 51
3 52 28 53
3 54 53 27
3 52 53 54
3 55 29 56
3 57 56 28
3 55 56 57
3 4 58 60
3 58 30 59
3 58 59 60
3 6 61 63
3 63 62 12
3 61 62 63
3 6 64 65
3 3 31 15
3 67 66 20
3 7 8 2
3 9 8 7
3 9 68 70
3 70 69 8
3 68 69 70
3 71 10 72
3 73 10 74
3 75 5 76
3 77 76 10
3 75 76 77
3 11 12 4
3 13 12 11
3 13 6 12
3 79 78 3
3 14 15 1
3 16 15 14
3 16 3 15
3 8 16 2
3 17 16 8
3 17 3 16
3 17 80 82
3 82 81 3
3 80 81 82
3 18 83 85
3 85 84 17
3 83 84 85
3 18 86 87
3 19 20 0
3 88 20 89
3 90 89 19
3 88 89 90
3 92 91 20
3 93 4 94
3 21 95 96
3 21 97 99
3 97 4 98
3 97 98 99
3 21 11 4
3 22 11 21
3 22 1 11
3 100 22 101
3 23 102 104
3 102 22 103
3 102 103 104
3 23 1 22
3 23 14 1
3 24 14 23
3 24 2 14
3 10 105 107
3 105 24 106
3 105 106 107
3 25 24 10
3 25 2 24
3 25 7 2
3 26 7 25
3 26 0 7
3 108 5 109
3 27 110 111
3 27 112 114
3 112 5 113
3 112 113 114
3 27 26 5
3 28 26 27
3 28 0 26
3 28 19 0
3 29 19 28
3 29 115 117
3 117 116 19
3 115 116 117
3 118 29 119
3 120 29 121
3 123 122 29
3 30 124 125
3 30 126 127
3 12 30 4
3 128 30 129
3 130 129 12
3 128 129 130
3 132 131 30
3 15 13 1
3 31 13 15
3 31 6 13
3 133 31 134
3 135 134 3
3 133 134 135
3 136 31 137
3 138 6 139
3 140 139 31
3 138 139 140
3 142 141 6
3 20 9 0
3 143 9 144
3 145 144 20
3 143 144 145
3 147 146 9
3 148 18 149
3 150 18 151
3 153 152 18
