ply
format ascii 1.0
element vertex 145
property float x
property float y
property float z
property uchar red
property uchar green
property uchar blue
element face 132
property list uchar int vertex_index
end_header
53.7001 8.1917 44.5572 237 255 18
45.5367 16.4421 46.3874 110 255 145
49.8239 14.1982 36.6107 255 133 0
51.0925 8.52309 49.3559 133 255 122
47.4201 12.918 50.4266 72 255 183
49.5491 11.8728 45.6321 186 0 0
47.2535 15.0226 41.4509 130 0 0
52.0594 11.319 40.7691 187 0 0
55.1145 11.2358 35.9145 0 211 255
52.3857 8.30486 46.9799 255 59 0
50.4704 10.2363 47.5675 245 0 0
51.708 9.95176 45.1554 245 0 0
50.7405 11.523 43.1991 184 0 0
53.0169 9.79672 42.7241 252 0 0
54.4144 9.76558 40.2866 165 255 90
55.056 8.19076 42.112 17 255 238
46.5385 14.7032 48.4719 222 255 33
48.418 14.5371 39.0176 128 0 0
46.1323 16.5904 39.2778 240 255 15
47.3255 16.0314 36.86 242 255 13
48.8077 15.6048 34.4712 0 235 255
49.2752 10.6233 49.9336 170 255 85
48.4568 12.3527 48.0515 194 0 0
47.4302 14.024 46.0319 149 0 0
46.3086 15.6652 43.9121 255 137 0
48.4353 13.4588 43.5813 145 0 0
49.6 13.0428 41.1419 143 0 0
50.9506 12.7784 38.721 142 0 0
52.4924 12.6328 36.3109 231 255 24
53.5186 11.2412 38.3444 255 177 0
52.6846 6.56298 48.6483 0 251 255
54.012 6.48867 46.2447 0 246 255
45.2139 17.3032 41.7322 111 255 144
45.2032 16.8726 47.6179 0 0 183
45.7041 16.0032 48.6601 0 0 183
46.0376 15.5727 47.4296 0 0 226
44.7662 17.7819 46.5486 0 0 140
45.2032 16.8726 47.6179 0 0 140
45.0311 17.301 45.302 0 0 140
44.7662 17.7819 46.5486 0 0 140
50.645 14.0806 35.413 0 0 185
50.1369 14.7839 34.3433 0 0 185
49.3158 14.9015 35.541 0 0 230
50.1838 9.57319 49.6447 0 0 208
49.5342 9.71769 50.7919 0 0 170
50.4428 8.66759 50.5031 0 0 170
55.1605 9.79174 39.0649 0 0 132
55.4403 9.02101 39.9713 0 0 132
53.2892 5.62124 48.21 0 0 161
52.6198 5.63979 49.3987 0 0 161
53.2244 4.69805 48.9604 0 0 128
53.9529 5.58408 47.0082 0 0 161
53.3483 6.52582 47.4465 0 0 193
53.2892 5.62124 48.21 0 0 161
54.6103 5.60175 45.7902 0 0 128
53.9529 5.58408 47.0082 0 0 128
46.9022 13.2123 51.5708 0 0 135
47.7518 11.9903 51.3213 0 0 135
45.1978 17.7758 39.4047 0 0 139
45.6612 17.3879 38.1878 0 0 139
54.6618 11.8892 34.9038 0 0 179
53.3508 12.5877 35.102 0 0 179
53.8034 11.9343 36.1127 0 0 221
55.7611 8.23359 40.884 0 0 168
55.4403 9.02101 39.9713 0 0 168
54.7352 8.97817 41.1993 0 0 205
46.1182 15.0706 49.6684 0 0 179
46.559 14.1779 50.6458 0 0 179
46.9793 13.8106 49.4492 0 0 221
45.2838 16.3705 49.8566 0 0 138
46.1182 15.0706 49.6684 0 0 181
45.7041 16.0032 48.6601 0 0 181
46.2579 17.1084 36.9789 0 0 183
45.6612 17.3879 38.1878 0 0 183
46.7289 16.3109 38.0689 0 0 226
46.8819 16.7909 35.782 0 0 139
46.2579 17.1084 36.9789 0 0 139
47.623 16.5776 34.5876 0 0 183
46.8819 16.7909 35.782 0 0 183
48.0666 15.8181 35.6656 0 0 227
48.4094 16.3158 33.4046 0 0 139
47.623 16.5776 34.5876 0 0 139
49.6842 15.4333 33.2813 0 0 184
49.2859 16.1443 32.2147 0 0 140
48.4094 16.3158 33.4046 0 0 184
49.6842 15.4333 33.2813 0 0 140
50.1369 14.7839 34.3433 0 0 140
57.1578 10.5533 34.4234 0 0 134
55.971 11.2294 34.6885 0 0 173
56.3013 10.5596 35.6494 0 0 173
48.6793 10.843 51.0748 0 0 133
49.5342 9.71769 50.7919 0 0 133
48.3476 11.7706 50.1801 0 0 214
47.7518 11.9903 51.3213 0 0 174
48.6793 10.843 51.0748 0 0 174
54.7126 10.5296 38.0938 0 0 175
53.9665 10.5034 39.3155 0 0 215
55.1605 9.79174 39.0649 0 0 175
55.5105 10.5268 36.8788 0 0 174
54.3165 11.2385 37.1295 0 0 213
54.7126 10.5296 38.0938 0 0 174
56.3013 10.5596 35.6494 0 0 135
55.5105 10.5268 36.8788 0 0 135
51.2156 7.61878 50.1665 0 0 131
50.4428 8.66759 50.5031 0 0 131
52.0116 6.63872 49.8127 0 0 129
52.6198 5.63979 49.3987 0 0 129
51.8885 7.54303 49.0021 0 0 200
51.2156 7.61878 50.1665 0 0 165
52.0116 6.63872 49.8127 0 0 165
54.6771 6.49834 45.0221 0 0 163
54.5212 7.34986 44.1784 0 0 163
53.8561 7.34018 45.4009 0 0 197
54.6771 6.49834 45.0221 0 0 128
54.6103 5.60175 45.7902 0 0 128
46.9022 13.2123 51.5708 0 0 136
46.559 14.1779 50.6458 0 0 136
45.4171 16.9125 44.0644 0 0 184
45.0311 17.301 45.302 0 0 184
45.9227 16.0537 45.1498 0 0 228
44.8697 17.7316 42.9744 0 0 184
45.4171 16.9125 44.0644 0 0 184
45.7613 16.4842 42.8222 0 0 228
44.4155 18.5912 41.8679 0 0 140
44.8697 17.7316 42.9744 0 0 140
44.7386 18.1322 40.6319 0 0 183
45.6731 16.9468 40.505 0 0 226
45.1978 17.7758 39.4047 0 0 183
43.9402 19.4202 40.7675 0 0 139
44.4155 18.5912 41.8679 0 0 183
44.7386 18.1322 40.6319 0 0 183
51.9792 13.2979 35.2631 0 0 183
50.645 14.0806 35.413 0 0 183
51.1581 13.4155 36.4608 0 0 227
51.9792 13.2979 35.2631 0 0 140
53.3508 12.5877 35.102 0 0 140
54.6618 11.8892 34.9038 0 0 138
55.971 11.2294 34.6885 0 0 138
55.1991 7.34939 42.9558 0 0 163
54.378 8.19123 43.3346 0 0 197
54.5212 7.34986 44.1784 0 0 163
55.8742 7.4 41.7241 0 0 129
55.1991 7.34939 42.9558 0 0 129
55.7611 8.23359 40.884 0 0 129
55.8742 7.4 41.7241 0 0 129
3 0 11 9
3 0 13 11
3 0 15 13
3 1 33 35
3 35 34 16
3 33 34 35
3 1 36 37
3 1 38 39
3 2 19 17
3 2 20 19
3 2 40 42
3 42 41 20
3 40 41 42
3 3 43 45
3 43 21 44
3 43 44 45
3 5 22 10
3 5 23 22
3 5 25 23
3 7 26 12
3 7 27 26
3 7 29 27
3 47 46 14
3 48 30 49
3 48 49 50
3 51 31 52
3 53 52 30
3 51 52 53
3 55 54 31
3 4 56 57
3 6 32 24
3 59 58 18
3 8 60 62
3 62 61 28
3 60 61 62
3 9 10 3
3 11 10 9
3 11 5 10
3 11 12 5
3 13 12 11
3 13 7 12
3 13 14 7
3 15 14 13
3 15 63 65
3 65 64 14
3 63 64 65
3 16 66 68
3 68 67 4
3 66 67 68
3 71 70 16
3 69 70 71
3 17 18 6
3 19 18 17
3 19 72 74
3 74 73 18
3 72 73 74
3 19 75 76
3 20 77 79
3 79 78 19
3 77 78 79
3 20 80 81
3 20 82 84
3 82 83 84
3 86 85 20
3 89 88 8
3 87 88 89
3 21 90 91
3 21 92 94
3 92 4 93
3 92 93 94
3 10 21 3
3 22 21 10
3 22 4 21
3 22 16 4
3 23 16 22
3 23 1 16
3 23 24 1
3 25 24 23
3 25 6 24
3 12 25 5
3 26 25 12
3 26 6 25
3 26 17 6
3 27 17 26
3 27 2 17
3 27 28 2
3 29 28 27
3 29 8 28
3 14 29 7
3 95 29 96
3 97 96 14
3 95 96 97
3 98 8 99
3 100 99 29
3 98 99 100
3 102 101 8
3 103 3 104
3 30 105 106
3 30 107 109
3 107 3 108
3 107 108 109
3 30 9 3
3 31 9 30
3 31 0 9
3 31 110 112
3 112 111 0
3 110 111 112
3 114 113 31
3 116 115 4
3 24 117 119
3 119 118 1
3 117 118 119
3 32 120 122
3 122 121 24
3 120 121 122
3 32 123 124
3 18 32 6
3 125 32 126
3 127 126 18
3 125 126 127
3 130 129 32
3 128 129 130
3 28 131 133
3 133 132 2
3 131 132 133
3 135 134 28
3 137 136 8
3 138 15 139
3 140 139 0
3 138 139 140
3 141 15 142
3 144 143 15
