ply
format ascii 1.0
element vertex 223
property float x
property float y
property float z
property uchar red
property uchar green
property uchar blue
element face 209
property list uchar int vertex_index
end_header
4.97129 -38.954 30.5009 139 0 0
4.54283 -51.5953 21.3617 0 226 255
3.04661 -52.786 29.881 240 0 0
0.85845 -54.3078 37.4712 255 199 0
4.0118 -39.4494 34.3214 55 255 200
3.979 -46.0221 30.3422 217 0 0
3.13678 -46.5237 34.1755 255 231 0
-0.141935 -61.279 37.0073 192 255 63
1.00971 -60.3147 33.1102 223 0 0
0.062551 -66.9616 32.6662 46 255 209
4.98341 -45.615 26.2101 255 140 0
3.79901 -52.2242 25.7872 197 255 58
2.1083 -53.4456 33.726 235 0 0
2.02849 -59.4253 29.2142 172 255 83
3.58843 -43.0205 34.2859 166 255 89
0.011786 -64.1863 34.833 180 255 75
4.9126 -35.4712 32.4194 97 255 158
5.51256 -35.2192 30.4694 255 244 0
6.21347 -34.9873 28.4121 18 255 237
5.60139 -38.7514 28.4632 255 101 0
5.63391 -42.1515 26.302 133 255 122
5.00737 -42.3524 28.4335 128 0 0
3.51446 -49.426 30.1476 234 0 0
3.92702 -49.1926 28.1349 207 0 0
3.42997 -52.5016 27.873 255 212 0
2.93296 -55.7704 27.5541 171 255 84
0.177826 -54.8346 39.3503 70 255 185
1.48331 -50.8024 37.6977 60 255 195
2.10687 -50.3595 35.85 255 219 0
1.51625 -53.8467 35.6017 222 0 0
1.00727 -63.1833 30.8706 169 255 86
1.55693 -59.861 31.1748 255 215 0
4.44587 -39.1764 32.444 255 188 0
4.46029 -42.5436 30.4594 185 0 0
3.9989 -42.7568 32.4015 228 0 0
3.55695 -46.2482 32.2852 243 0 0
3.1008 -49.6857 32.0914 247 0 0
-0.316149 -58.3301 39.1599 72 255 183
0.297369 -57.8083 37.2252 203 0 0
0.939095 -57.3291 35.3186 211 0 0
0.425484 -60.7873 35.0459 212 0 0
0.508387 -63.6852 32.8433 236 0 0
0.459118 -66.4189 30.6426 43 255 212
4.84852 -48.7031 23.8415 233 255 22
4.44845 -45.8207 28.3238 175 0 0
4.37068 -48.961 26.0361 170 0 0
4.17305 -51.9307 23.616 217 255 38
2.66658 -46.8688 36.0322 46 255 209
2.64286 -49.9915 33.9861 247 0 0
2.61562 -53.0958 31.8257 242 0 0
1.55317 -56.8913 33.4206 224 0 0
2.09801 -56.4901 31.5084 236 0 0
2.55574 -56.1193 29.5594 241 0 0
2.40759 -59.005 27.2068 51 255 204
0.825049 -52.8185 38.5053 0 0 172
0.484738 -53.0819 39.4448 0 0 172
0.518138 -54.5712 38.4108 0 0 213
1.17088 -52.5551 37.5845 0 0 211
1.13748 -51.0658 38.6185 0 0 171
0.825049 -52.8185 38.5053 0 0 171
1.23305 -62.934 29.879 0 0 129
0.925807 -64.5234 29.7478 0 0 129
4.7042 -51.3948 20.2007 0 0 135
4.93404 -49.9932 21.458 0 0 135
4.2196 -37.6117 34.3068 0 0 169
4.22498 -35.9644 35.2047 0 0 130
4.01719 -37.8021 35.2194 0 0 169
4.22883 -39.3129 33.3827 0 0 212
4.43663 -37.4752 33.3681 0 0 172
4.2196 -37.6117 34.3068 0 0 172
-0.229042 -59.8045 38.0836 0 0 214
-0.476058 -60.0587 39.0875 0 0 173
-0.388951 -61.5331 38.0112 0 0 173
6.62674 -36.6407 26.2691 0 0 141
6.58302 -34.8661 27.3205 0 0 191
6.25719 -36.7619 27.3607 0 0 191
5.27226 -45.4945 25.1003 0 0 183
5.59751 -43.7628 25.1463 0 0 183
5.30866 -43.8832 26.256 0 0 229
4.91597 -47.159 25.0258 0 0 224
5.20481 -47.0386 23.9161 0 0 180
5.27226 -45.4945 25.1003 0 0 180
3.66743 -53.655 24.5581 0 0 172
3.85444 -53.5082 23.4724 0 0 172
3.98603 -52.0774 24.7016 0 0 213
2.38767 -47.0841 36.9498 0 0 129
2.67644 -45.3286 36.9959 0 0 129
3.81455 -39.6241 35.2402 0 0 130
4.01719 -37.8021 35.2194 0 0 130
3.60286 -41.4097 35.2225 0 0 168
3.80012 -41.235 34.3037 0 0 206
3.81455 -39.6241 35.2402 0 0 168
3.3795 -43.1894 35.2102 0 0 129
3.60286 -41.4097 35.2225 0 0 129
3.15367 -44.941 35.155 0 0 167
3.3626 -44.7721 34.2307 0 0 205
3.3795 -43.1894 35.2102 0 0 167
-0.285177 -62.9806 36.9361 0 0 131
-0.388951 -61.5331 38.0112 0 0 131
-0.208316 -64.4343 35.8489 0 0 172
-0.065075 -62.7326 35.9201 0 0 213
-0.285177 -62.9806 36.9361 0 0 172
-0.142114 -65.8346 34.7777 0 0 130
-0.208316 -64.4343 35.8489 0 0 130
-0.116732 -67.2223 33.6943 0 0 170
0.037169 -65.5739 33.7496 0 0 210
-0.142114 -65.8346 34.7777 0 0 170
5.15789 -33.5417 32.3754 0 0 176
5.12769 -31.7872 33.2691 0 0 134
4.88239 -33.7167 33.3131 0 0 176
5.45787 -33.4157 31.4004 0 0 180
5.15789 -33.5417 32.3754 0 0 180
5.21258 -35.3452 31.4444 0 0 225
5.79224 -33.2671 30.4167 0 0 137
5.45787 -33.4157 31.4004 0 0 137
5.86302 -35.1033 29.4407 0 0 236
6.1427 -33.1512 29.388 0 0 188
5.79224 -33.2671 30.4167 0 0 188
5.95115 -38.644 27.3862 0 0 189
6.25719 -36.7619 27.3607 0 0 189
5.90743 -36.8694 28.4376 0 0 237
5.61765 -40.4515 27.3826 0 0 232
5.96741 -40.3441 26.3056 0 0 185
5.95115 -38.644 27.3862 0 0 185
3.34099 -53.9666 26.6761 0 0 170
3.52551 -53.8279 25.6332 0 0 170
3.61449 -52.3629 26.8301 0 0 210
3.09248 -55.601 26.5166 0 0 171
3.34099 -53.9666 26.6761 0 0 171
3.18147 -54.136 27.7136 0 0 211
2.81541 -57.1827 26.3465 0 0 130
3.09248 -55.601 26.5166 0 0 130
0.126182 -53.3889 40.366 0 0 131
-0.146276 -55.1308 40.3008 0 0 131
0.126182 -53.3889 40.366 0 0 131
0.484738 -53.0819 39.4448 0 0 131
1.4683 -49.3148 38.6917 0 0 130
1.13748 -51.0658 38.6185 0 0 130
1.79604 -49.0509 37.7826 0 0 130
1.4683 -49.3148 38.6917 0 0 130
1.79509 -50.581 36.7739 0 0 209
2.10782 -48.8295 36.8587 0 0 170
1.79604 -49.0509 37.7826 0 0 170
1.50789 -61.2728 30.0312 0 0 170
1.2821 -61.5222 31.0227 0 0 210
1.23305 -62.934 29.879 0 0 170
1.74367 -61.0549 29.0508 0 0 168
1.79271 -59.6431 30.1945 0 0 207
1.50789 -61.2728 30.0312 0 0 168
1.92817 -60.8089 28.0423 0 0 130
1.74367 -61.0549 29.0508 0 0 130
4.66999 -35.6226 33.3558 0 0 133
4.88239 -33.7167 33.3131 0 0 133
4.67923 -37.3238 32.4317 0 0 214
4.66999 -35.6226 33.3558 0 0 173
4.43663 -37.4752 33.3681 0 0 173
-0.580863 -58.6108 40.1486 0 0 172
-0.740772 -60.3394 40.0761 0 0 131
-0.476058 -60.0587 39.0875 0 0 172
-0.393264 -56.8785 40.2056 0 0 131
-0.580863 -58.6108 40.1486 0 0 131
-0.069162 -56.5823 39.2551 0 0 213
-0.146276 -55.1308 40.3008 0 0 172
-0.393264 -56.8785 40.2056 0 0 172
0.651733 -66.1412 29.6338 0 0 169
0.925807 -64.5234 29.7478 0 0 169
0.733192 -64.8011 30.7566 0 0 208
3.89782 -54.5 19.9664 0 0 133
4.27312 -52.9417 20.0939 0 0 176
4.16753 -53.1537 21.2342 0 0 176
6.51547 -33.0145 28.3442 0 0 140
6.1427 -33.1512 29.388 0 0 140
6.51547 -33.0145 28.3442 0 0 143
6.58302 -34.8661 27.3205 0 0 143
5.96067 -42.0306 25.1791 0 0 139
5.96741 -40.3441 26.3056 0 0 139
5.96067 -42.0306 25.1791 0 0 138
5.59751 -43.7628 25.1463 0 0 138
5.08688 -48.5471 22.6979 0 0 136
5.20481 -47.0386 23.9161 0 0 136
4.69567 -50.1492 22.6016 0 0 223
4.93404 -49.9932 21.458 0 0 179
5.08688 -48.5471 22.6979 0 0 179
3.98264 -53.3214 22.3614 0 0 175
4.16753 -53.1537 21.2342 0 0 175
4.35794 -51.763 22.4889 0 0 217
3.98264 -53.3214 22.3614 0 0 132
3.85444 -53.5082 23.4724 0 0 132
3.66743 -53.655 24.5581 0 0 131
3.52551 -53.8279 25.6332 0 0 131
2.91858 -45.1136 36.0834 0 0 129
2.67644 -45.3286 36.9959 0 0 129
2.90168 -46.6962 35.1039 0 0 207
3.15367 -44.941 35.155 0 0 168
2.91858 -45.1136 36.0834 0 0 168
2.38673 -48.6142 35.9411 0 0 207
2.38767 -47.0841 36.9498 0 0 168
2.10782 -48.8295 36.8587 0 0 168
2.55272 -58.8 26.1729 0 0 170
2.81541 -57.1827 26.3465 0 0 170
2.67028 -57.3877 27.3805 0 0 210
2.11772 -60.5987 27.0386 0 0 168
2.21804 -59.2151 28.2105 0 0 206
1.92817 -60.8089 28.0423 0 0 168
2.25258 -60.3566 26.0052 0 0 130
2.11772 -60.5987 27.0386 0 0 130
2.55272 -58.8 26.1729 0 0 129
2.25258 -60.3566 26.0052 0 0 129
-0.138961 -68.5314 32.6388 0 0 128
-0.116732 -67.2223 33.6943 0 0 128
-0.014142 -68.2437 31.5969 0 0 129
-0.138961 -68.5314 32.6388 0 0 129
0.184142 -67.9724 30.5851 0 0 165
0.260835 -66.6903 31.6544 0 0 202
-0.014142 -68.2437 31.5969 0 0 165
0.320123 -67.6706 29.5538 0 0 166
0.184142 -67.9724 30.5851 0 0 166
0.045147 -69.2241 29.4963 0 0 128
0.651733 -66.1412 29.6338 0 0 128
0.320123 -67.6706 29.5538 0 0 128
4.4345 -52.7412 18.9329 0 0 134
4.7042 -51.3948 20.2007 0 0 177
4.27312 -52.9417 20.0939 0 0 177
3 0 17 16
3 0 19 17
3 0 21 19
3 2 24 22
3 2 25 24
3 3 54 56
3 56 55 26
3 54 55 56
3 3 57 59
3 57 27 58
3 57 58 59
3 3 29 27
3 61 60 30
3 1 62 63
3 4 64 66
3 64 65 66
3 4 67 69
3 67 32 68
3 67 68 69
3 4 34 32
3 6 35 14
3 6 36 35
3 7 70 72
3 70 37 71
3 70 71 72
3 7 38 37
3 7 40 38
3 9 41 15
3 9 42 41
3 75 74 18
3 73 74 75
3 10 76 78
3 78 77 20
3 76 77 78
3 10 79 81
3 79 43 80
3 79 80 81
3 5 44 33
3 11 45 23
3 11 46 45
3 11 82 84
3 84 83 46
3 82 83 84
3 85 47 86
3 12 48 28
3 12 49 48
3 8 50 39
3 13 51 31
3 13 52 51
3 13 53 52
3 87 4 88
3 89 14 90
3 91 90 4
3 89 90 91
3 92 14 93
3 94 6 95
3 96 95 14
3 94 95 96
3 97 7 98
3 99 15 100
3 101 100 7
3 99 100 101
3 102 15 103
3 104 9 105
3 106 105 15
3 104 105 106
3 16 107 109
3 107 108 109
3 17 110 112
3 112 111 16
3 110 111 112
3 17 113 114
3 17 115 117
3 115 18 116
3 115 116 117
3 19 18 17
3 19 118 120
3 120 119 18
3 118 119 120
3 19 121 123
3 121 20 122
3 121 122 123
3 21 20 19
3 21 10 20
3 22 23 5
3 24 23 22
3 24 11 23
3 24 124 126
3 126 125 11
3 124 125 126
3 25 127 129
3 129 128 24
3 127 128 129
3 25 130 131
3 26 132 133
3 135 134 26
3 27 136 137
3 27 138 139
3 27 140 142
3 140 28 141
3 140 141 142
3 29 28 27
3 29 12 28
3 30 31 8
3 143 31 144
3 145 144 30
3 143 144 145
3 146 13 147
3 148 147 31
3 146 147 148
3 150 149 13
3 151 16 152
3 32 153 155
3 153 16 154
3 153 154 155
3 32 0 16
3 32 33 0
3 34 33 32
3 34 5 33
3 14 34 4
3 35 34 14
3 35 5 34
3 35 22 5
3 36 22 35
3 36 2 22
3 37 156 158
3 156 157 158
3 37 159 160
3 37 161 163
3 161 26 162
3 161 162 163
3 38 26 37
3 38 3 26
3 38 39 3
3 40 39 38
3 40 8 39
3 15 40 7
3 41 40 15
3 41 8 40
3 41 30 8
3 42 30 41
3 42 164 166
3 166 165 30
3 164 165 166
3 169 168 1
3 167 168 169
3 18 170 171
3 173 172 18
3 20 174 175
3 177 176 20
3 43 178 179
3 43 180 182
3 180 1 181
3 180 181 182
3 33 21 0
3 44 21 33
3 44 10 21
3 23 44 5
3 45 44 23
3 45 10 44
3 45 43 10
3 46 43 45
3 46 1 43
3 46 183 185
3 185 184 1
3 183 184 185
3 187 186 46
3 189 188 11
3 47 190 191
3 47 192 194
3 192 6 193
3 192 193 194
3 28 195 197
3 195 47 196
3 195 196 197
3 48 47 28
3 48 6 47
3 48 36 6
3 49 36 48
3 49 2 36
3 39 29 3
3 50 29 39
3 50 12 29
3 31 50 8
3 51 50 31
3 51 12 50
3 51 49 12
3 52 49 51
3 52 2 49
3 52 25 2
3 53 25 52
3 53 198 200
3 200 199 25
3 198 199 200
3 201 53 202
3 203 202 13
3 201 202 203
3 204 53 205
3 207 206 53
3 208 9 209
3 210 9 211
3 212 42 213
3 214 213 9
3 212 213 214
3 215 42 216
3 215 216 217
3 219 218 42
3 222 221 1
3 220 221 222
