ply
format ascii 1.0
element vertex 185
property float x
property float y
property float z
property uchar red
property uchar green
property uchar blue
element face 153
property list uchar int vertex_index
end_header
-66.8012 -17.2915 -35.6669 255 159 0
-54.4617 -4.44078 -51.6864 255 121 0
-67.0647 -18.0341 -31.8324 0 183 255
-49.3956 1.72369 -54.7405 232 255 23
-65.0205 -17.3157 -39.6433 63 255 192
-64.3245 -10.4709 -39.5182 125 255 130
-61.9731 -10.4942 -43.7998 222 255 33
-58.0651 -3.8619 -47.6996 132 255 123
-47.3575 1.17789 -56.1219 64 255 191
-67.7195 -20.7608 -33.7685 39 255 216
-67.1416 -20.6834 -35.65 0 246 255
-66.0711 -17.2118 -37.6396 228 255 27
-63.2824 -10.3933 -41.6659 255 205 0
-61.5757 -7.04928 -43.6231 90 255 165
-53.9416 -0.91128 -51.5052 255 241 0
-56.3049 -4.10608 -49.7919 255 104 0
-58.4946 -7.38521 -47.9004 255 244 0
-56.7673 -7.70144 -49.8374 126 255 129
-67.8753 -21.0289 -31.9362 0 180 255
-67.1408 -17.5691 -33.7337 255 226 0
-51.4497 2.16889 -52.9963 132 255 123
-51.9867 -1.28755 -53.3358 128 0 0
-52.5806 -4.82797 -53.2936 91 255 164
-50.0185 -1.73741 -54.8404 255 187 0
-48.0652 -2.24187 -55.9352 0 178 255
-66.3208 -14.6229 -33.537 0 194 255
-66.1889 -14.1423 -35.5552 142 255 113
-65.0328 -10.7535 -37.3744 0 237 255
-65.6665 -13.8604 -37.5941 255 113 0
-64.7837 -13.7812 -39.6569 255 17 0
-63.6089 -13.8833 -41.7305 200 255 55
-60.1195 -7.15131 -45.8055 116 255 139
-61.3233 -5.43581 -43.4074 0 0 140
-62.1816 -7.08658 -42.5109 0 0 140
-54.7228 -6.24827 -51.6065 0 0 186
-55.8756 -7.8786 -50.682 0 0 186
-55.6145 -6.07111 -50.7619 0 0 229
-67.47 -19.5315 -31.8843 0 0 182
-67.7339 -21.2496 -31.0385 0 0 155
-67.3286 -19.7522 -30.9866 0 0 155
-50.4227 1.94629 -53.8684 0 0 232
-50.1661 3.62977 -53.6131 0 0 188
-49.139 3.40717 -54.4851 0 0 188
-46.7152 -0.847789 -56.5007 0 0 176
-47.7113 -0.53199 -56.0285 0 0 214
-46.3613 0.862086 -56.5941 0 0 176
-47.1047 -2.52022 -56.2457 0 0 135
-46.7152 -0.847789 -56.5007 0 0 135
-65.0208 -19.1809 -39.5842 0 0 141
-65.6153 -19.0524 -38.6101 0 0 141
-64.3804 -17.4404 -40.6455 0 0 185
-64.3806 -19.3057 -40.5864 0 0 143
-65.0208 -19.1809 -39.5842 0 0 185
-65.8479 -12.9333 -34.3861 0 0 131
-65.8441 -13.2716 -33.3141 0 0 131
-65.782 -12.6931 -35.3952 0 0 159
-66.2549 -14.3826 -34.5461 0 0 189
-65.8479 -12.9333 -34.3861 0 0 159
-64.6787 -10.6122 -38.4463 0 0 202
-64.3613 -9.07932 -38.2643 0 0 168
-64.0072 -8.93802 -39.3362 0 0 168
-62.1 -12.3093 -43.7897 0 0 186
-62.9179 -14.0039 -42.755 0 0 186
-62.791 -12.1888 -42.7652 0 0 228
-57.8388 -2.18876 -47.4501 0 0 146
-56.9514 -2.25134 -48.5674 0 0 146
-58.8717 -3.80749 -46.5911 0 0 145
-57.8388 -2.18876 -47.4501 0 0 145
-59.0923 -5.50661 -46.7526 0 0 234
-59.8989 -5.4522 -45.6441 0 0 190
-58.8717 -3.80749 -46.5911 0 0 190
-59.4852 -9.057 -46.89 0 0 145
-58.6779 -9.21469 -47.8697 0 0 145
-52.8747 -6.62258 -53.0823 0 0 140
-51.6344 -5.03556 -53.9078 0 0 140
-66.836 -18.3437 -30.8882 0 0 129
-67.3286 -19.7522 -30.9866 0 0 129
-48.0718 3.13498 -55.3023 0 0 145
-49.139 3.40717 -54.4851 0 0 145
-47.0528 2.86208 -55.993 0 0 182
-48.3765 1.45079 -55.4312 0 0 222
-48.0718 3.13498 -55.3023 0 0 182
-46.0103 2.5237 -56.6118 0 0 141
-47.0528 2.86208 -55.993 0 0 141
-46.3613 0.862086 -56.5941 0 0 137
-46.0103 2.5237 -56.6118 0 0 137
-67.8579 -22.4753 -33.7395 0 0 130
-68.0684 -22.5107 -32.842 0 0 130
-67.5689 -22.4366 -34.6803 0 0 164
-67.8579 -22.4753 -33.7395 0 0 164
-67.4306 -20.7221 -34.7093 0 0 196
-67.1637 -22.491 -35.6045 0 0 135
-67.5689 -22.4366 -34.6803 0 0 135
-66.6759 -20.7362 -36.6135 0 0 137
-67.1637 -22.491 -35.6045 0 0 137
-66.1406 -19.0004 -37.6083 0 0 173
-66.6759 -20.7362 -36.6135 0 0 173
-66.6064 -18.9476 -36.6448 0 0 209
-65.5458 -17.2637 -38.6414 0 0 215
-65.6153 -19.0524 -38.6101 0 0 177
-66.1406 -19.0004 -37.6083 0 0 177
-63.556 -8.79737 -40.4584 0 0 137
-64.0072 -8.93802 -39.3362 0 0 137
-63.035 -8.7586 -41.5322 0 0 175
-63.8035 -10.4321 -40.592 0 0 213
-63.556 -8.79737 -40.4584 0 0 175
-62.429 -8.7213 -42.6445 0 0 219
-63.035 -8.7586 -41.5322 0 0 180
-62.1816 -7.08658 -42.5109 0 0 180
-54.8896 -0.776034 -50.4701 0 0 146
-53.708 0.78749 -51.238 0 0 146
-56.0713 -2.37343 -49.6135 0 0 194
-54.8896 -0.776034 -50.4701 0 0 194
-55.1233 -2.50868 -50.6485 0 0 240
-57.185 -3.98399 -48.7457 0 0 237
-56.9514 -2.25134 -48.5674 0 0 191
-56.0713 -2.37343 -49.6135 0 0 191
-57.8143 -9.3728 -48.8382 0 0 191
-58.6779 -9.21469 -47.8697 0 0 191
-57.6309 -7.54333 -48.8689 0 0 236
-56.9726 -9.54584 -49.7136 0 0 144
-57.8143 -9.3728 -48.8382 0 0 144
-56.9726 -9.54584 -49.7136 0 0 144
-55.8756 -7.8786 -50.682 0 0 144
-68.1311 -22.7702 -31.0543 0 0 128
-67.7339 -21.2496 -31.0385 0 0 128
-68.1463 -22.6447 -31.9258 0 0 128
-68.1311 -22.7702 -31.0543 0 0 128
-67.7974 -20.8949 -32.8524 0 0 186
-68.0684 -22.5107 -32.842 0 0 157
-68.1463 -22.6447 -31.9258 0 0 157
-51.2353 3.82401 -52.6347 0 0 147
-50.1661 3.62977 -53.6131 0 0 147
-52.4621 2.32758 -51.9836 0 0 146
-51.2353 3.82401 -52.6347 0 0 146
-52.6957 0.628805 -52.2507 0 0 241
-53.708 0.78749 -51.238 0 0 194
-52.4621 2.32758 -51.9836 0 0 194
-50.3533 -3.49028 -54.6812 0 0 178
-51.6344 -5.03556 -53.9078 0 0 178
-51.2995 -3.28269 -54.067 0 0 217
-49.3767 -3.74251 -55.2286 0 0 178
-50.3533 -3.49028 -54.6812 0 0 178
-49.0418 -1.98964 -55.3878 0 0 217
-48.4321 -3.96061 -55.6156 0 0 136
-49.3767 -3.74251 -55.2286 0 0 136
-48.4321 -3.96061 -55.6156 0 0 136
-47.1047 -2.52022 -56.2457 0 0 136
-66.5755 -16.6543 -31.6789 0 0 129
-66.836 -18.3437 -30.8882 0 0 129
-66.2036 -14.9487 -32.5312 0 0 130
-65.8441 -13.2716 -33.3141 0 0 130
-66.6928 -16.3285 -32.6847 0 0 188
-66.5755 -16.6543 -31.6789 0 0 159
-66.2036 -14.9487 -32.5312 0 0 159
-64.6403 -9.32745 -37.1349 0 0 134
-64.3613 -9.07932 -38.2643 0 0 134
-65.2039 -10.9986 -36.3048 0 0 132
-64.6403 -9.32745 -37.1349 0 0 132
-65.6108 -12.4479 -36.4648 0 0 195
-65.782 -12.6931 -35.3952 0 0 163
-65.2039 -10.9986 -36.3048 0 0 163
-63.6746 -15.7243 -41.6891 0 0 184
-64.3804 -17.4404 -40.6455 0 0 184
-64.3147 -15.5995 -40.6869 0 0 225
-63.6746 -15.7243 -41.6891 0 0 144
-62.9179 -14.0039 -42.755 0 0 144
-60.627 -5.40118 -44.5529 0 0 142
-61.3233 -5.43581 -43.4074 0 0 142
-60.8476 -7.1003 -44.7143 0 0 228
-60.627 -5.40118 -44.5529 0 0 186
-59.8989 -5.4522 -45.6441 0 0 186
-60.2976 -8.94005 -45.8426 0 0 191
-59.307 -7.26826 -46.853 0 0 236
-59.4852 -9.057 -46.89 0 0 191
-61.2244 -10.6115 -44.8397 0 0 188
-61.0463 -8.82275 -44.8027 0 0 231
-60.2976 -8.94005 -45.8426 0 0 188
-62.1 -12.3093 -43.7897 0 0 145
-61.2244 -10.6115 -44.8397 0 0 145
-53.7823 -6.44187 -52.4101 0 0 187
-54.7228 -6.24827 -51.6065 0 0 187
-53.5211 -4.63438 -52.49 0 0 230
-53.7823 -6.44187 -52.4101 0 0 140
-52.8747 -6.62258 -53.0823 0 0 140
3 0 10 9
3 0 11 10
3 32 13 33
3 1 15 14
3 1 17 15
3 1 34 36
3 36 35 17
3 34 35 36
3 2 37 39
3 37 18 38
3 37 38 39
3 2 19 18
3 3 40 42
3 40 20 41
3 40 41 42
3 3 21 20
3 3 23 21
3 43 24 44
3 45 44 8
3 43 44 45
3 47 46 24
3 4 48 49
3 4 50 52
3 50 51 52
3 53 25 54
3 55 26 56
3 57 56 25
3 55 56 57
3 5 58 60
3 58 27 59
3 58 59 60
3 5 28 27
3 5 29 28
3 6 30 12
3 6 61 63
3 63 62 30
3 61 62 63
3 7 64 65
3 7 66 67
3 7 68 70
3 68 31 69
3 68 69 70
3 72 71 16
3 74 73 22
3 75 2 76
3 77 3 78
3 79 8 80
3 81 80 3
3 79 80 81
3 82 8 83
3 85 84 8
3 9 86 87
3 10 88 90
3 90 89 9
3 88 89 90
3 10 91 92
3 10 93 94
3 11 95 97
3 97 96 10
3 95 96 97
3 11 98 100
3 98 4 99
3 98 99 100
3 101 5 102
3 103 12 104
3 105 104 5
3 103 104 105
3 13 106 108
3 106 12 107
3 106 107 108
3 13 6 12
3 14 109 110
3 15 111 113
3 113 112 14
3 111 112 113
3 15 114 116
3 114 7 115
3 114 115 116
3 15 16 7
3 17 16 15
3 17 117 119
3 119 118 16
3 117 118 119
3 17 120 121
3 123 122 17
3 18 124 125
3 18 126 127
3 18 128 130
3 128 9 129
3 128 129 130
3 19 9 18
3 19 0 9
3 20 131 132
3 20 133 134
3 20 135 137
3 135 14 136
3 135 136 137
3 21 14 20
3 21 1 14
3 21 22 1
3 23 22 21
3 23 138 140
3 140 139 22
3 138 139 140
3 8 23 3
3 24 23 8
3 24 141 143
3 143 142 23
3 141 142 143
3 24 144 145
3 147 146 24
3 148 2 149
3 25 150 151
3 25 152 154
3 152 2 153
3 152 153 154
3 25 19 2
3 26 19 25
3 26 0 19
3 27 155 156
3 27 157 158
3 27 159 161
3 159 26 160
3 159 160 161
3 28 26 27
3 28 0 26
3 28 11 0
3 29 11 28
3 29 4 11
3 12 29 5
3 30 29 12
3 30 4 29
3 30 162 164
3 164 163 4
3 162 163 164
3 166 165 30
3 167 13 168
3 31 169 171
3 169 13 170
3 169 170 171
3 31 6 13
3 16 31 7
3 172 31 173
3 174 173 16
3 172 173 174
3 175 6 176
3 177 176 31
3 175 176 177
3 179 178 6
3 22 180 182
3 182 181 1
3 180 181 182
3 184 183 22
