ply
format ascii 1.0
element vertex 187
property float x
property float y
property float z
property uchar red
property uchar green
property uchar blue
element face 165
property list uchar int vertex_index
end_header
-60.3681 9.49254 6.87295 255 220 0
-65.692 5.96016 17.6502 128 0 0
-63.0999 7.22542 8.6435 221 255 34
-57.5973 12.0739 5.77882 0 196 255
-65.7938 5.77568 13.4207 97 255 158
-63.6495 8.83491 11.3383 142 255 113
-63.3936 9.37897 15.529 240 255 15
-61.171 11.4894 9.22692 61 255 194
-58.805 14.3196 7.51298 255 219 0
-63.7783 4.97567 8.96436 0 166 255
-64.288 6.2485 9.63768 0 195 255
-60.9441 6.89804 7.21174 62 255 193
-59.4281 8.0196 6.56212 0 244 255
-58.9712 10.7503 6.22215 110 255 145
-65.8504 5.89067 15.4353 255 193 0
-64.7922 7.63191 14.3791 250 0 0
-64.6171 7.74885 16.6079 130 0 0
-66.5808 4.01448 18.6741 252 255 3
-66.759 3.9646 16.4875 93 255 162
-62.4263 10.1615 10.2644 59 255 196
-58.8041 14.9824 9.21011 0 250 255
-57.8593 16.5667 8.49104 0 228 255
-57.7538 15.8389 6.92608 2 255 253
-62.4168 5.87305 8.02591 30 255 225
-61.7626 8.31373 7.69752 255 238 0
-65.3272 5.96599 19.9831 255 237 0
-64.2627 7.77449 18.9806 255 229 0
-66.1652 4.01386 20.9553 2 255 253
-65.5357 5.6279 11.719 0 165 255
-64.5982 7.02476 10.7766 50 255 205
-64.7809 7.41001 12.3933 255 164 0
-63.6131 9.19418 13.2973 155 255 100
-63.0091 9.43438 17.9284 154 255 101
-63.4898 8.20926 9.76113 233 255 22
-62.2433 9.40107 8.73573 255 233 0
-60.9426 10.6486 7.78224 255 230 0
-59.9489 12.8691 8.29146 139 255 116
-59.6517 11.9672 6.96708 255 251 0
-58.406 13.356 6.33807 234 255 21
-57.2121 14.8038 5.92047 0 167 255
-64.7186 5.85801 10.0861 0 0 128
-64.6099 5.25992 9.81585 0 0 128
-57.3566 17.6543 9.16437 0 0 146
-57.7049 16.7917 9.49054 0 0 146
-57.4534 17.393 8.22242 0 0 143
-57.3566 17.6543 9.16437 0 0 143
-64.5378 6.83466 20.7036 0 0 157
-65.0522 5.92536 21.1776 0 0 157
-65.4712 4.94929 21.6637 0 0 156
-65.852 3.97105 22.1174 0 0 156
-65.0522 5.92536 21.1776 0 0 203
-65.7462 4.98993 20.4692 0 0 250
-65.4712 4.94929 21.6637 0 0 203
-57.0007 11.274 5.8235 0 0 145
-57.7533 10.6457 5.94393 0 0 145
-56.9229 12.7608 5.66654 0 0 144
-57.0007 11.274 5.8235 0 0 144
-62.7386 10.1346 14.9745 0 0 193
-62.8483 10.0422 13.8586 0 0 193
-63.5034 9.28657 14.4131 0 0 235
-62.7464 9.40541 19.1704 0 0 207
-63.6359 8.60443 18.4545 0 0 255
-63.3732 8.57547 19.6966 0 0 207
-66.0755 4.8181 13.0439 0 0 143
-66.2392 4.83776 13.9404 0 0 143
-65.6648 5.70179 12.5698 0 0 199
-65.9465 4.74421 12.193 0 0 170
-66.0755 4.8181 13.0439 0 0 170
-56.996 16.1077 6.23046 0 0 160
-57.483 15.3214 6.42328 0 0 184
-57.2669 16.6253 6.73327 0 0 160
-56.6328 15.5488 5.81757 0 0 136
-56.996 16.1077 6.23046 0 0 136
-64.355 4.6235 9.47919 0 0 137
-64.0617 3.80499 9.32177 0 0 137
-64.0331 5.61208 9.30102 0 0 177
-64.355 4.6235 9.47919 0 0 155
-64.6099 5.25992 9.81585 0 0 155
-60.3592 6.03848 7.25748 0 0 147
-61.1688 5.54923 7.57281 0 0 147
-59.6012 6.59926 6.93267 0 0 182
-60.3592 6.03848 7.25748 0 0 182
-60.1861 7.45882 6.88693 0 0 218
-58.7804 7.13314 6.7103 0 0 149
-59.6012 6.59926 6.93267 0 0 149
-58.6686 8.61852 6.33559 0 0 149
-58.7804 7.13314 6.7103 0 0 149
-58.4402 9.98388 6.1656 0 0 175
-58.6686 8.61852 6.33559 0 0 175
-59.1996 9.38496 6.39214 0 0 207
-58.2842 11.4121 6.00048 0 0 205
-57.7533 10.6457 5.94393 0 0 173
-58.4402 9.98388 6.1656 0 0 173
-67.0422 2.9548 18.1219 0 0 153
-66.9262 2.98238 19.1951 0 0 153
-67.1313 2.92986 17.0286 0 0 196
-67.0422 2.9548 18.1219 0 0 196
-66.6699 3.98954 17.5808 0 0 239
-67.1034 2.8995 16.0204 0 0 149
-67.1313 2.92986 17.0286 0 0 149
-66.7218 3.93222 15.4738 0 0 150
-67.1034 2.8995 16.0204 0 0 150
-66.2675 4.89525 14.9477 0 0 186
-66.7218 3.93222 15.4738 0 0 186
-66.3047 4.92763 15.9614 0 0 224
-65.8221 5.83317 14.428 0 0 222
-66.2392 4.83776 13.9404 0 0 185
-66.2675 4.89525 14.9477 0 0 185
-62.3928 10.3989 11.2296 0 0 179
-63.0379 9.49818 10.8014 0 0 213
-63.0044 9.73563 11.7666 0 0 179
-61.7607 11.1014 10.6866 0 0 146
-62.3928 10.3989 11.2296 0 0 146
-61.133 11.7653 10.1679 0 0 179
-61.7987 10.8254 9.74566 0 0 214
-61.7607 11.1014 10.6866 0 0 179
-58.1773 15.9996 9.85007 0 0 148
-58.6236 15.1799 10.2561 0 0 148
-58.3317 15.7746 8.85058 0 0 217
-58.1773 15.9996 9.85007 0 0 181
-57.7049 16.7917 9.49054 0 0 181
-57.4006 17.0291 7.43994 0 0 168
-57.8066 16.2028 7.70856 0 0 196
-57.4534 17.393 8.22242 0 0 168
-57.2669 16.6253 6.73327 0 0 137
-57.4006 17.0291 7.43994 0 0 137
-63.3593 4.15714 8.84745 0 0 140
-64.0617 3.80499 9.32177 0 0 140
-62.6785 4.60583 8.37822 0 0 171
-63.3593 4.15714 8.84745 0 0 171
-63.0975 5.42436 8.49513 0 0 201
-61.9051 5.03674 7.9799 0 0 144
-62.6785 4.60583 8.37822 0 0 144
-61.6804 6.38554 7.61882 0 0 211
-61.1688 5.54923 7.57281 0 0 178
-61.9051 5.03674 7.9799 0 0 178
-64.0055 7.73891 20.2024 0 0 205
-64.795 6.87024 19.4818 0 0 252
-64.5378 6.83466 20.7036 0 0 205
-63.3732 8.57547 19.6966 0 0 158
-64.0055 7.73891 20.2024 0 0 158
-66.4694 2.98506 21.4471 0 0 156
-65.852 3.97105 22.1174 0 0 156
-66.7184 2.98207 20.3357 0 0 154
-66.4694 2.98506 21.4471 0 0 154
-66.373 4.01417 19.8147 0 0 245
-66.9262 2.98238 19.1951 0 0 200
-66.7184 2.98207 20.3357 0 0 200
-65.067 6.32633 11.2478 0 0 164
-64.8737 6.24614 10.6556 0 0 147
-65.3425 5.54771 11.1268 0 0 147
-62.9861 9.91527 12.746 0 0 182
-63.0044 9.73563 11.7666 0 0 182
-63.6313 9.01455 12.3178 0 0 217
-62.9861 9.91527 12.746 0 0 151
-62.8483 10.0422 13.8586 0 0 151
-62.0327 10.1838 18.635 0 0 160
-62.7464 9.40541 19.1704 0 0 160
-62.3231 10.2063 17.3804 0 0 160
-62.0327 10.1838 18.635 0 0 160
-62.5153 10.1786 16.1807 0 0 203
-63.2014 9.40667 16.7287 0 0 248
-62.3231 10.2063 17.3804 0 0 203
-62.7386 10.1346 14.9745 0 0 156
-62.5153 10.1786 16.1807 0 0 156
-65.6614 4.77186 11.4514 0 0 135
-65.9465 4.74421 12.193 0 0 135
-65.3425 5.54771 11.1268 0 0 129
-65.6614 4.77186 11.4514 0 0 129
-64.4431 6.63663 10.2071 0 0 162
-64.7186 5.85801 10.0861 0 0 145
-64.8737 6.24614 10.6556 0 0 145
-60.5312 12.4833 9.66131 0 0 146
-61.133 11.7653 10.1679 0 0 146
-59.3477 14.2298 9.6529 0 0 148
-58.6236 15.1799 10.2561 0 0 148
-59.9202 13.1731 9.19358 0 0 178
-59.3477 14.2298 9.6529 0 0 178
-59.3765 13.9257 8.75079 0 0 211
-60.56 12.1793 8.75919 0 0 211
-60.5312 12.4833 9.66131 0 0 177
-59.9202 13.1731 9.19358 0 0 177
-56.7303 14.1257 5.73737 0 0 167
-56.9229 12.7608 5.66654 0 0 167
-57.4047 13.4389 5.84965 0 0 195
-56.7303 14.1257 5.73737 0 0 138
-56.6328 15.5488 5.81757 0 0 138
3 40 10 41
3 0 12 11
3 0 13 12
3 1 16 14
3 1 18 17
3 1 14 18
3 42 21 43
3 45 44 21
3 2 23 9
3 2 24 23
3 47 46 25
3 48 27 49
3 50 25 51
3 52 51 27
3 50 51 52
3 3 53 54
3 3 55 56
3 4 30 28
3 6 31 15
3 6 57 59
3 59 58 31
3 57 58 59
3 60 32 61
3 62 61 26
3 60 61 62
3 4 63 64
3 4 65 67
3 65 28 66
3 65 66 67
3 5 33 29
3 7 34 19
3 7 35 34
3 8 36 20
3 8 37 36
3 8 38 37
3 68 39 69
3 70 69 22
3 68 69 70
3 72 71 39
3 73 9 74
3 10 75 77
3 75 9 76
3 75 76 77
3 10 2 9
3 11 78 79
3 12 80 82
3 82 81 11
3 80 81 82
3 12 83 84
3 12 85 86
3 13 87 89
3 89 88 12
3 87 88 89
3 13 90 92
3 90 3 91
3 90 91 92
3 14 15 4
3 16 15 14
3 16 6 15
3 17 93 94
3 18 95 97
3 97 96 17
3 95 96 97
3 18 98 99
3 18 100 101
3 14 102 104
3 104 103 18
3 102 103 104
3 14 105 107
3 105 4 106
3 105 106 107
3 108 19 109
3 110 109 5
3 108 109 110
3 111 19 112
3 113 7 114
3 115 114 19
3 113 114 115
3 116 20 117
3 21 118 120
3 118 20 119
3 118 119 120
3 21 8 20
3 21 22 8
3 121 22 122
3 123 122 21
3 121 122 123
3 125 124 22
3 9 126 127
3 23 128 130
3 130 129 9
3 128 129 130
3 23 131 132
3 23 133 135
3 133 11 134
3 133 134 135
3 24 11 23
3 24 0 11
3 25 26 1
3 136 26 137
3 138 137 25
3 136 137 138
3 140 139 26
3 27 141 142
3 27 143 144
3 27 145 147
3 145 17 146
3 145 146 147
3 25 17 27
3 25 1 17
3 28 148 150
3 148 29 149
3 148 149 150
3 30 29 28
3 30 5 29
3 15 30 4
3 31 30 15
3 31 5 30
3 31 151 153
3 153 152 5
3 151 152 153
3 155 154 31
3 26 16 1
3 32 16 26
3 32 6 16
3 156 32 157
3 158 32 159
3 160 6 161
3 162 161 32
3 160 161 162
3 164 163 6
3 28 165 166
3 28 167 168
3 29 169 171
3 169 10 170
3 169 170 171
3 33 10 29
3 33 2 10
3 19 33 5
3 34 33 19
3 34 2 33
3 34 24 2
3 35 24 34
3 35 0 24
3 172 7 173
3 20 174 175
3 36 176 178
3 178 177 20
3 176 177 178
3 36 179 181
3 179 7 180
3 179 180 181
3 36 35 7
3 37 35 36
3 37 0 35
3 37 13 0
3 38 13 37
3 38 3 13
3 22 38 8
3 39 38 22
3 39 3 38
3 39 182 184
3 184 183 3
3 182 183 184
3 186 185 39
