ply
format ascii 1.0
element vertex 238
property float x
property float y
property float z
property uchar red
property uchar green
property uchar blue
element face 205
property list uchar int vertex_index
end_header
3.0228 54.2229 -14.313 238 255 17
0.917259 57.4774 11.3039 240 255 15
2.50631 58.2406 -2.26005 255 153 0
1.84219 58.4847 4.36942 137 0 0
1.94355 58.6686 -19.035 255 143 0
2.57074 54.929 -24.4804 255 162 0
3.22557 50.7123 -19.6316 116 255 139
2.84993 56.7768 -8.49879 227 255 28
0.92247 63.3457 -6.5811 212 255 43
0.408689 64.0953 0.155144 216 255 39
-0.216171 63.6625 7.23413 232 255 23
1.4002 58.1352 7.80624 133 0 0
2.63457 55.4822 6.58493 255 130 0
2.11874 55.0022 9.97166 114 255 141
2.37875 56.4729 -16.6925 136 0 0
2.58849 54.7737 -19.4791 128 0 0
3.113 52.5828 -17.0446 244 255 11
1.15149 62.5502 -9.82408 88 255 167
0.106583 64.0285 3.65305 223 255 32
2.71277 57.6548 -5.43111 225 255 30
3.03157 50.6863 -24.4927 97 255 158
2.82081 52.7025 -26.8124 191 255 64
2.21602 58.5198 1.0097 143 0 0
3.41766 55.4931 0.015636 112 255 143
3.07513 55.6469 3.26019 255 131 0
3.93066 52.5992 5.56121 0 246 255
1.70662 60.8347 -21.3171 0 228 255
2.26139 56.914 -21.8612 255 143 0
2.81626 52.8474 -22.0994 255 139 0
2.19587 57.9433 -13.7811 255 149 0
2.9434 55.6262 -11.4607 232 255 23
2.02971 59.1738 -10.7673 255 158 0
1.85793 60.147 -7.65963 166 0 0
1.65492 60.8435 -4.45914 168 0 0
0.679699 63.865 -3.25588 212 255 43
1.40048 61.2466 -1.16521 164 0 0
1.08615 61.3457 2.22053 157 0 0
0.718157 61.1363 5.69221 147 0 0
0.31629 60.6208 9.23913 138 0 0
1.64881 60.1972 -16.0636 102 255 153
-0.538034 63.0001 10.889 109 255 146
-0.09041 59.8065 12.8463 109 255 146
-0.469999 58.7057 16.4952 0 103 255
2.42064 56.9533 -26.7064 63 255 192
2.63048 54.6388 -28.9087 0 172 255
3.43317 53.0491 -13.1101 0 0 138
3.42549 52.265 -14.4502 0 0 138
1.23837 55.8471 12.3525 0 0 182
1.83911 54.6095 11.6863 0 0 182
1.518 56.2398 10.6378 0 0 226
3.42549 52.265 -14.4502 0 0 183
3.47059 51.4449 -15.816 0 0 183
3.0679 53.4029 -15.6788 0 0 228
3.07963 56.6327 -2.69661 0 0 181
3.18285 56.3398 -4.28214 0 0 181
2.60954 57.9477 -3.84558 0 0 225
3.32466 47.2675 -25.389 0 0 137
3.1083 49.4819 -25.5382 0 0 179
3.24793 48.472 -24.3434 0 0 179
3.6776 52.4575 7.19891 0 0 184
3.28262 54.0407 6.07307 0 0 229
3.02956 53.899 7.71077 0 0 184
4.08435 50.8377 8.3568 0 0 140
4.33741 50.9794 6.7191 0 0 186
3.6776 52.4575 7.19891 0 0 186
3.28905 49.6601 -20.8326 0 0 183
3.08439 50.7276 -22.0665 0 0 183
3.02092 51.7799 -20.8655 0 0 227
3.52966 48.5863 -19.5703 0 0 139
3.28905 49.6601 -20.8326 0 0 139
1.70855 60.3345 -11.877 0 0 179
2.11279 58.5586 -12.2742 0 0 221
1.79163 59.7192 -13.3839 0 0 179
0.544194 63.9802 -1.55037 0 0 220
0.264941 65.3164 -2.54152 0 0 178
0.129436 65.4315 -0.836014 0 0 178
1.5181 60.8462 -14.5252 0 0 137
1.304 61.9903 -15.6148 0 0 137
1.79163 59.7192 -13.3839 0 0 180
1.92234 59.0702 -14.9223 0 0 223
1.5181 60.8462 -14.5252 0 0 180
3.34531 54.9867 -8.79985 0 0 182
3.39204 54.4114 -10.2808 0 0 182
2.89667 56.2015 -9.97976 0 0 226
4.01563 53.8539 -0.380138 0 0 139
3.87509 54.0292 1.18291 0 0 139
-0.684865 62.5244 12.746 0 0 139
-0.824124 64.1603 11.821 0 0 139
-0.461053 60.9277 13.7246 0 0 182
-0.314222 61.4033 11.8676 0 0 226
-0.684865 62.5244 12.746 0 0 182
-0.253391 56.9968 17.451 0 0 138
-0.632068 58.02 18.3303 0 0 138
-0.021498 57.6143 15.6696 0 0 138
-0.253391 56.9968 17.451 0 0 138
2.49569 55.9412 -25.5934 0 0 219
2.25598 57.9839 -25.4256 0 0 178
2.33103 56.9718 -24.3126 0 0 178
2.78969 52.4302 -28.8394 0 0 171
2.72564 53.6707 -27.8606 0 0 209
2.88485 51.4621 -27.7912 0 0 171
2.64281 53.3499 -29.7862 0 0 129
2.78969 52.4302 -28.8394 0 0 129
2.77164 53.659 9.40414 0 0 184
3.02956 53.899 7.71077 0 0 184
2.37666 55.2422 8.27829 0 0 229
2.48021 53.3619 11.0636 0 0 139
2.77164 53.659 9.40414 0 0 139
2.48021 53.3619 11.0636 0 0 139
1.83911 54.6095 11.6863 0 0 139
3.46695 50.5425 -17.0869 0 0 184
3.52323 49.6073 -18.3804 0 0 184
3.16929 51.6476 -18.3381 0 0 229
3.46695 50.5425 -17.0869 0 0 139
3.47059 51.4449 -15.816 0 0 139
0.896375 63.73 -10.8816 0 0 136
1.26944 62.0226 -11.4054 0 0 136
0.755757 64.1709 -9.23196 0 0 136
0.896375 63.73 -10.8816 0 0 136
0.641247 64.5687 -7.61047 0 0 178
1.03698 62.9479 -8.20259 0 0 219
0.755757 64.1709 -9.23196 0 0 178
0.002898 65.4668 0.926026 0 0 136
0.129436 65.4315 -0.836014 0 0 136
-0.148155 65.4334 2.67498 0 0 179
0.257636 64.0619 1.9041 0 0 222
0.002898 65.4668 0.926026 0 0 179
-0.275037 65.3249 4.47874 0 0 137
-0.148155 65.4334 2.67498 0 0 137
-0.436414 65.1419 6.26928 0 0 181
-0.054794 63.8455 5.44359 0 0 224
-0.275037 65.3249 4.47874 0 0 181
3.24996 55.9541 -5.80283 0 0 182
3.31854 55.5151 -7.33667 0 0 182
2.78135 57.2158 -6.96495 0 0 225
3.24996 55.9541 -5.80283 0 0 138
3.18285 56.3398 -4.28214 0 0 138
3.00291 50.49 -26.6981 0 0 178
2.92619 51.6944 -25.6525 0 0 219
3.1083 49.4819 -25.5382 0 0 178
3.06696 49.2495 -27.6769 0 0 134
2.88485 51.4621 -27.7912 0 0 173
3.00291 50.49 -26.6981 0 0 173
3.70382 54.1061 2.80519 0 0 184
3.87509 54.0292 1.18291 0 0 184
3.24639 55.57 1.63792 0 0 229
4.13159 52.5822 3.9557 0 0 184
3.70382 54.1061 2.80519 0 0 184
3.50289 54.123 4.4107 0 0 229
4.56716 51.0165 5.13651 0 0 140
4.13159 52.5822 3.9557 0 0 140
4.97391 49.3968 6.2944 0 0 140
4.56716 51.0165 5.13651 0 0 186
4.33741 50.9794 6.7191 0 0 186
1.89897 59.9246 -22.731 0 0 137
1.65689 61.9005 -22.4069 0 0 137
2.17635 57.9643 -23.003 0 0 181
1.89897 59.9246 -22.731 0 0 181
1.98401 58.8744 -21.5892 0 0 224
2.41607 55.9215 -23.1708 0 0 223
2.33103 56.9718 -24.3126 0 0 180
2.17635 57.9643 -23.003 0 0 180
3.19204 49.6471 -23.2631 0 0 182
2.92391 51.7669 -23.2961 0 0 226
3.08439 50.7276 -22.0665 0 0 182
3.40841 47.4327 -23.1138 0 0 138
3.24793 48.472 -24.3434 0 0 182
3.19204 49.6471 -23.2631 0 0 182
3.52966 48.5863 -19.5703 0 0 139
3.52323 49.6073 -18.3804 0 0 139
1.5906 60.862 -10.2957 0 0 221
1.70855 60.3345 -11.877 0 0 179
1.26944 62.0226 -11.4054 0 0 179
0.511943 64.8805 -5.92593 0 0 136
0.641247 64.5687 -7.61047 0 0 136
0.390558 65.1402 -4.26332 0 0 136
0.264941 65.3164 -2.54152 0 0 136
0.801084 63.6054 -4.91849 0 0 219
0.511943 64.8805 -5.92593 0 0 178
0.390558 65.1402 -4.26332 0 0 178
1.43992 62.733 -20.9001 0 0 137
1.65689 61.9005 -22.4069 0 0 137
1.5125 61.6291 -19.8106 0 0 138
1.43992 62.733 -20.9001 0 0 138
1.63096 60.546 -18.6696 0 0 181
1.82509 59.7517 -20.176 0 0 225
1.5125 61.6291 -19.8106 0 0 181
1.48359 61.3103 -17.1839 0 0 138
1.304 61.9903 -15.6148 0 0 138
1.79618 59.4329 -17.5493 0 0 223
1.63096 60.546 -18.6696 0 0 180
1.48359 61.3103 -17.1839 0 0 180
3.39347 53.7507 -11.684 0 0 183
3.43317 53.0491 -13.1101 0 0 183
2.9831 54.9246 -12.8868 0 0 227
3.39347 53.7507 -11.684 0 0 138
3.39204 54.4114 -10.2808 0 0 138
3.34531 54.9867 -8.79985 0 0 138
3.31854 55.5151 -7.33667 0 0 138
3.5353 55.2589 -1.55877 0 0 181
3.07963 56.6327 -2.69661 0 0 181
2.96199 56.8669 -1.1222 0 0 225
3.5353 55.2589 -1.55877 0 0 139
4.01563 53.8539 -0.380138 0 0 139
-0.557603 64.8885 8.11348 0 0 137
-0.436414 65.1419 6.26928 0 0 137
-0.718535 64.5574 9.94092 0 0 138
-0.824124 64.1603 11.821 0 0 138
-0.377103 63.3313 9.06158 0 0 226
-0.557603 64.8885 8.11348 0 0 182
-0.718535 64.5574 9.94092 0 0 182
-0.770376 59.7628 17.4261 0 0 139
-0.632068 58.02 18.3303 0 0 139
-0.650848 60.3772 15.5491 0 0 139
-0.770376 59.7628 17.4261 0 0 139
-0.280205 59.2561 14.6707 0 0 227
-0.461053 60.9277 13.7246 0 0 183
-0.650848 60.3772 15.5491 0 0 183
0.168297 58.1647 13.8451 0 0 181
-0.280205 59.2561 14.6707 0 0 225
-0.021498 57.6143 15.6696 0 0 181
0.672131 57.0002 13.074 0 0 182
0.413425 58.642 12.0751 0 0 226
0.168297 58.1647 13.8451 0 0 182
1.23837 55.8471 12.3525 0 0 138
0.672131 57.0002 13.074 0 0 138
2.20563 59.0045 -26.4864 0 0 135
2.25598 57.9839 -25.4256 0 0 135
2.33985 57.9206 -27.7024 0 0 133
2.20563 59.0045 -26.4864 0 0 133
2.44477 56.7634 -28.8036 0 0 170
2.33985 57.9206 -27.7024 0 0 170
2.52556 55.7961 -27.8075 0 0 207
2.4881 55.5458 -29.8038 0 0 162
2.30239 57.6704 -29.6987 0 0 128
2.44477 56.7634 -28.8036 0 0 162
2.4881 55.5458 -29.8038 0 0 128
2.64281 53.3499 -29.7862 0 0 128
3 0 45 46
3 1 13 11
3 1 47 49
3 49 48 13
3 47 48 49
3 0 16 14
3 0 50 52
3 52 51 16
3 50 51 52
3 2 53 55
3 55 54 19
3 53 54 55
3 58 57 20
3 56 57 58
3 3 24 22
3 59 25 60
3 61 60 12
3 59 60 61
3 64 63 25
3 62 63 64
3 4 27 26
3 6 28 15
3 6 65 67
3 67 66 28
3 65 66 67
3 6 68 69
3 70 31 71
3 72 71 29
3 70 71 72
3 8 32 17
3 8 33 32
3 9 73 75
3 73 34 74
3 73 74 75
3 9 35 34
3 9 36 35
3 10 37 18
3 10 38 37
3 76 39 77
3 78 29 79
3 80 79 39
3 78 79 80
3 7 81 83
3 83 82 30
3 81 82 83
3 85 84 23
3 86 40 87
3 88 41 89
3 90 89 40
3 88 89 90
3 91 42 92
3 94 93 42
3 5 95 97
3 95 43 96
3 95 96 97
3 98 44 99
3 100 99 21
3 98 99 100
3 102 101 44
3 11 12 3
3 13 12 11
3 13 103 105
3 105 104 12
3 103 104 105
3 13 106 107
3 109 108 13
3 14 15 4
3 16 15 14
3 16 6 15
3 16 110 112
3 112 111 6
3 110 111 112
3 114 113 16
3 115 17 116
3 117 17 118
3 119 8 120
3 121 120 17
3 119 120 121
3 122 9 123
3 124 18 125
3 126 125 9
3 124 125 126
3 127 18 128
3 129 10 130
3 131 130 18
3 129 130 131
3 19 132 134
3 134 133 7
3 132 133 134
3 136 135 19
3 20 21 5
3 137 21 138
3 139 138 20
3 137 138 139
3 142 141 21
3 140 141 142
3 22 23 2
3 24 23 22
3 24 143 145
3 145 144 23
3 143 144 145
3 12 24 3
3 25 24 12
3 25 146 148
3 148 147 24
3 146 147 148
3 25 149 150
3 153 152 25
3 151 152 153
3 26 154 155
3 27 156 158
3 158 157 26
3 156 157 158
3 27 159 161
3 159 5 160
3 159 160 161
3 15 27 4
3 28 27 15
3 28 5 27
3 28 20 5
3 162 20 163
3 164 163 28
3 162 163 164
3 167 166 20
3 165 166 167
3 169 168 6
3 29 30 0
3 31 30 29
3 31 7 30
3 17 170 172
3 170 31 171
3 170 171 172
3 32 31 17
3 32 7 31
3 32 19 7
3 33 19 32
3 33 2 19
3 173 8 174
3 34 175 176
3 34 177 179
3 177 8 178
3 177 178 179
3 34 33 8
3 35 33 34
3 35 2 33
3 35 22 2
3 36 22 35
3 36 3 22
3 18 36 9
3 37 36 18
3 37 3 36
3 37 11 3
3 38 11 37
3 38 1 11
3 180 26 181
3 182 26 183
3 184 4 185
3 186 185 26
3 184 185 186
3 39 187 188
3 39 189 191
3 189 4 190
3 189 190 191
3 39 14 4
3 29 14 39
3 29 0 14
3 30 192 194
3 194 193 0
3 192 193 194
3 196 195 30
3 198 197 7
3 23 199 201
3 201 200 2
3 199 200 201
3 203 202 23
3 204 10 205
3 40 206 207
3 40 208 210
3 208 10 209
3 208 209 210
3 40 38 10
3 41 38 40
3 41 1 38
3 42 211 212
3 42 213 214
3 42 215 217
3 215 41 216
3 215 216 217
3 218 41 219
3 220 219 42
3 218 219 220
3 221 1 222
3 223 222 41
3 221 222 223
3 225 224 1
3 43 226 227
3 43 228 229
3 21 43 5
3 44 43 21
3 44 230 232
3 232 231 43
3 230 231 232
3 44 233 235
3 233 234 235
3 237 236 44
