ply
format ascii 1.0
element vertex 137
property float x
property float y
property float z
property uchar red
property uchar green
property uchar blue
element face 127
property list uchar int vertex_index
end_header
-29.345 75.2172 8.43055 38 255 217
-25.3312 72.2473 18.8177 19 255 236
-19.1672 81.8257 9.35754 130 0 0
-21.0043 75.2866 19.9669 42 255 213
-25.9554 78.9109 2.80982 197 255 58
-27.3789 74.0228 13.6478 147 255 108
-24.2111 78.371 8.39629 202 0 0
-22.5755 77.1947 14.1463 218 0 0
-17.9829 80.4204 15.8292 229 255 26
-20.4418 82.3406 3.153 240 255 15
-28.7016 77.3226 2.93385 0 197 255
-27.7236 77.1077 5.60852 255 213 0
-26.3645 73.1976 16.2394 141 255 114
-24.9538 75.5686 13.7548 255 1 0
-24.0344 74.7424 16.4928 255 17 0
-19.5788 77.8934 17.9395 196 255 59
-21.6632 80.0848 8.73914 163 0 0
-22.3999 80.4143 5.76923 160 0 0
-19.7855 82.1785 6.21457 128 0 0
-23.1239 73.7711 19.2254 141 255 114
-16.7298 83.4827 10.2511 251 255 4
-17.2384 83.9089 6.92767 252 255 3
-28.3687 74.6993 11.0451 150 255 105
-26.7874 76.748 8.30795 242 0 0
-25.87 76.2373 11.0249 248 0 0
-23.3877 77.871 11.2549 208 0 0
-20.9516 79.5697 11.767 168 0 0
-21.7751 76.333 17.058 238 0 0
-20.255 78.8444 14.8401 178 0 0
-18.5681 81.2485 12.5681 134 0 0
-16.2315 82.7909 13.6446 114 255 141
-25.0596 78.7117 5.57848 198 0 0
-23.1828 80.5859 2.8682 220 255 35
-17.7712 84.1026 3.69041 118 255 137
-28.5343 76.1625 7.01954 0 0 208
-29.0268 76.3409 5.70788 0 0 170
-29.8375 75.3956 7.1189 0 0 170
-30.5812 74.4692 8.56672 0 0 166
-31.3231 73.4746 9.98172 0 0 129
-30.087 74.2226 9.84556 0 0 166
-29.8375 75.3956 7.1189 0 0 130
-30.5812 74.4692 8.56672 0 0 130
-26.479 71.5112 18.7688 0 0 128
-25.9016 70.9938 19.9821 0 0 128
-25.8479 72.7224 17.5286 0 0 201
-26.9957 71.9864 17.4797 0 0 165
-26.479 71.5112 18.7688 0 0 165
-26.4383 78.9442 1.45506 0 0 174
-27.8114 78.15 1.51707 0 0 174
-27.3285 78.1167 2.87183 0 0 214
-24.9964 79.7666 1.42857 0 0 135
-26.4383 78.9442 1.45506 0 0 135
-15.7505 84.4784 9.07725 0 0 138
-15.5423 84.2038 10.8271 0 0 138
-28.5951 73.291 13.714 0 0 129
-28.0619 72.877 14.9562 0 0 129
-27.8738 74.3611 12.3465 0 0 203
-29.09 73.6292 12.4126 0 0 166
-28.5951 73.291 13.714 0 0 166
-20.8022 82.3427 1.66955 0 0 180
-22.1727 81.4653 1.52716 0 0 180
-21.8123 81.4633 3.0106 0 0 224
-16.4838 84.9261 4.08925 0 0 181
-17.5048 84.0057 5.30904 0 0 226
-16.2174 84.8293 5.70788 0 0 181
-29.5158 76.4483 4.37055 0 0 132
-30.0252 76.5442 3.05883 0 0 132
-28.2126 77.2151 4.27118 0 0 209
-29.5158 76.4483 4.37055 0 0 170
-29.0268 76.3409 5.70788 0 0 170
-19.2614 77.3015 19.4873 0 0 172
-20.2915 76.59 18.9532 0 0 212
-19.9741 75.9981 20.501 0 0 172
-18.5002 78.6091 18.5279 0 0 134
-19.2614 77.3015 19.4873 0 0 134
-17.7022 79.8726 17.4727 0 0 178
-18.7809 79.1569 16.8843 0 0 221
-18.5002 78.6091 18.5279 0 0 178
-16.8636 81.1153 16.4583 0 0 136
-17.7022 79.8726 17.4727 0 0 136
-27.5547 72.4644 16.252 0 0 129
-26.9957 71.9864 17.4797 0 0 129
-26.8717 73.6102 14.9436 0 0 203
-28.0619 72.877 14.9562 0 0 166
-27.5547 72.4644 16.252 0 0 166
-23.7129 72.491 20.2955 0 0 164
-24.2276 73.0092 19.0215 0 0 199
-24.8166 71.7291 20.0917 0 0 164
-22.6883 73.2246 20.5729 0 0 128
-23.7129 72.491 20.2955 0 0 128
-21.6285 73.9824 20.9436 0 0 165
-22.0641 74.5289 19.5962 0 0 201
-22.6883 73.2246 20.5729 0 0 165
-20.6508 74.6738 21.4001 0 0 129
-21.6285 73.9824 20.9436 0 0 129
-19.9741 75.9981 20.501 0 0 130
-20.6508 74.6738 21.4001 0 0 130
-24.8166 71.7291 20.0917 0 0 128
-25.9016 70.9938 19.9821 0 0 128
-29.2218 77.3555 1.61409 0 0 132
-30.0252 76.5442 3.05883 0 0 132
-29.2218 77.3555 1.61409 0 0 133
-27.8114 78.15 1.51707 0 0 133
-16.0048 84.6914 7.41552 0 0 181
-16.9841 83.6958 8.58941 0 0 226
-15.7505 84.4784 9.07725 0 0 181
-16.2174 84.8293 5.70788 0 0 138
-16.0048 84.6914 7.41552 0 0 138
-15.2931 83.8579 12.5238 0 0 181
-15.5423 84.2038 10.8271 0 0 181
-16.4807 83.1368 11.9479 0 0 225
-15.9879 82.3006 15.3661 0 0 182
-17.1072 81.6057 14.7369 0 0 226
-16.8636 81.1153 16.4583 0 0 182
-15.0859 83.4329 14.307 0 0 137
-15.9879 82.3006 15.3661 0 0 137
-15.2931 83.8579 12.5238 0 0 138
-15.0859 83.4329 14.307 0 0 138
-29.5988 73.9636 11.1528 0 0 129
-29.09 73.6292 12.4126 0 0 129
-28.8569 74.9583 9.73783 0 0 203
-30.087 74.2226 9.84556 0 0 167
-29.5988 73.9636 11.1528 0 0 167
-23.6101 80.6041 1.45776 0 0 177
-24.9964 79.7666 1.42857 0 0 177
-24.5691 79.7484 2.83901 0 0 219
-23.6101 80.6041 1.45776 0 0 136
-22.1727 81.4653 1.52716 0 0 136
-16.7109 84.9451 2.43177 0 0 138
-16.4838 84.9261 4.08925 0 0 138
-18.0622 84.1018 2.12241 0 0 137
-16.7109 84.9451 2.43177 0 0 137
-19.3975 83.2208 1.8537 0 0 182
-19.1065 83.2216 3.4217 0 0 227
-18.0622 84.1018 2.12241 0 0 182
-20.8022 82.3427 1.66955 0 0 137
-19.3975 83.2208 1.8537 0 0 137
3 0 34 36
3 34 11 35
3 34 35 36
3 0 37 39
3 37 38 39
3 0 40 41
3 1 14 12
3 1 42 43
3 1 44 46
3 44 12 45
3 44 45 46
3 2 18 16
3 4 47 49
3 49 48 10
3 47 48 49
3 4 50 51
3 53 52 20
3 5 24 22
3 7 25 13
3 7 26 25
3 3 27 19
3 8 28 15
3 8 29 28
3 8 30 29
3 5 54 55
3 5 56 58
3 56 22 57
3 56 57 58
3 6 31 23
3 9 32 17
3 9 59 61
3 61 60 32
3 59 60 61
3 62 33 63
3 64 63 21
3 62 63 64
3 65 10 66
3 11 67 69
3 67 10 68
3 67 68 69
3 11 4 10
3 12 13 5
3 14 13 12
3 14 7 13
3 70 15 71
3 72 71 3
3 70 71 72
3 73 15 74
3 75 8 76
3 77 76 15
3 75 76 77
3 79 78 8
3 12 80 81
3 12 82 84
3 82 5 83
3 82 83 84
3 16 17 6
3 18 17 16
3 18 9 17
3 85 19 86
3 87 86 1
3 85 86 87
3 88 19 89
3 90 3 91
3 92 91 19
3 90 91 92
3 93 3 94
3 96 95 3
3 97 1 98
3 10 99 100
3 102 101 10
3 20 21 2
3 103 21 104
3 105 104 20
3 103 104 105
3 107 106 21
3 22 23 0
3 24 23 22
3 24 6 23
3 13 24 5
3 25 24 13
3 25 6 24
3 25 16 6
3 26 16 25
3 26 2 16
3 19 14 1
3 27 14 19
3 27 7 14
3 15 27 3
3 28 27 15
3 28 7 27
3 28 26 7
3 29 26 28
3 29 2 26
3 29 20 2
3 30 20 29
3 30 108 110
3 110 109 20
3 108 109 110
3 111 30 112
3 113 112 8
3 111 112 113
3 114 30 115
3 117 116 30
3 22 118 119
3 22 120 122
3 120 0 121
3 120 121 122
3 23 11 0
3 31 11 23
3 31 4 11
3 17 31 6
3 32 31 17
3 32 4 31
3 32 123 125
3 125 124 4
3 123 124 125
3 127 126 32
3 21 18 2
3 33 18 21
3 33 9 18
3 128 33 129
3 130 33 131
3 132 9 133
3 134 133 33
3 132 133 134
3 136 135 9
