ply
format ascii 1.0
element vertex 332
property float x
property float y
property float z
property uchar red
property uchar green
property uchar blue
element face 349
property list uchar int vertex_index
end_header
25.4454 7.58747 64.1125 255 67 0
19.3022 7.60327 70.3089 255 132 0
23.7015 -3.23505 70.6708 255 57 0
31.3678 -2.31198 66.7461 255 74 0
21.4904 19.6521 64.0151 235 0 0
28.843 19.8974 61.4418 155 255 100
33.7321 8.5717 62.7188 143 255 112
20.5128 -3.45661 73.9475 143 255 112
23.1457 -7.67198 75.0086 0 120 255
26.6812 -7.4465 72.6325 0 255 255
22.0806 7.5533 66.531 238 0 0
20.3327 13.6278 66.9862 162 0 0
23.3501 13.5149 63.9517 255 44 0
24.8873 19.6078 61.9497 255 60 0
27.0188 13.6367 62.5466 255 54 0
31.1679 14.0717 62.2995 255 238 0
29.4116 7.93846 63.0829 255 50 0
34.5387 -6.09604 69.0312 70 255 185
35.5354 -1.38533 65.561 181 255 74
38.2361 -5.11084 67.1073 0 182 255
18.3628 1.66383 73.9548 255 153 0
21.1685 1.84339 69.933 219 0 0
24.3637 1.90633 66.811 255 43 0
28.1266 2.21255 64.9404 255 69 0
27.3393 -2.94863 68.2875 255 59 0
30.5869 -6.95075 70.7228 111 255 144
19.5019 25.8758 64.1154 0 235 255
22.6837 25.6617 61.2164 154 255 101
35.4336 14.6304 62.1155 0 178 255
32.3251 2.87392 64.0089 255 72 0
23.6803 7.53955 65.1294 255 39 0
22.6707 10.5117 65.1437 255 15 0
24.3423 10.5071 63.981 255 59 0
25.1071 13.5347 63.0532 255 67 0
26.1792 10.5764 63.2188 255 66 0
28.1596 10.7314 62.7992 255 49 0
27.3649 7.71912 63.4559 255 65 0
36.4333 -5.60022 68.1273 38 255 217
16.9662 1.40218 76.0684 0 232 255
22.0612 -3.32491 72.2132 255 53 0
20.8181 -0.867424 71.8942 245 0 0
22.3501 -0.802347 70.1372 255 15 0
22.6978 1.86309 68.2229 255 6 0
23.9966 -0.742001 68.6235 255 39 0
25.7763 -0.635202 67.3908 255 55 0
25.4606 -3.12571 69.3589 255 59 0
28.6066 -7.24825 71.6281 113 255 142
18.026 7.53739 72.4909 131 255 124
20.898 16.6422 65.4633 200 0 0
19.5211 16.7198 67.3147 239 255 16
20.0244 19.7443 65.6731 218 255 37
20.5296 22.7521 64.0646 255 186 0
21.0254 25.7481 62.4688 194 255 61
22.093 22.6582 62.612 255 4 0
26.8105 19.7104 61.5429 255 42 0
25.6736 22.6807 60.9996 244 255 11
27.6602 22.831 60.7753 39 255 216
32.4005 11.2568 62.5309 255 20 0
33.3124 14.3552 62.2725 156 255 99
34.5694 11.5702 62.4061 149 255 106
29.7029 -0.161407 65.7277 255 68 0
30.1873 2.5039 64.3997 255 69 0
31.797 0.212317 65.1859 255 76 0
37.5873 -0.89649 64.9015 0 219 255
21.8016 -5.68443 74.3464 95 255 160
23.4327 -5.55368 72.8461 204 255 51
25.1737 -5.44219 71.5263 220 255 35
20.6338 7.59082 68.2846 172 0 0
19.8017 10.6119 68.6007 255 144 0
21.1654 10.5611 66.7041 200 0 0
21.7621 13.558 65.2739 238 0 0
22.4165 16.5709 63.9732 255 18 0
23.1085 19.5942 62.7623 255 41 0
24.0998 16.5499 62.9091 255 60 0
25.9441 16.6068 62.2713 255 60 0
27.9236 16.7498 61.9926 255 33 0
29.998 16.9671 61.9503 159 255 96
29.0535 13.8215 62.3402 255 26 0
30.2479 10.9657 62.6152 255 27 0
31.5482 8.23189 62.8802 255 38 0
33.0212 -4.27017 67.8994 255 104 0
33.4517 -1.8701 66.1494 255 97 0
35.0399 -3.78548 67.183 255 144 0
37.0121 -3.2828 66.4079 255 191 0
38.9129 -2.80102 65.5112 0 193 255
17.5061 4.46232 74.2758 252 255 3
18.8255 4.61519 72.1005 128 0 0
19.358 -0.994179 73.8254 188 255 67
19.7418 1.79498 71.875 182 0 0
20.163 4.66274 70.0151 165 0 0
21.5833 4.65711 68.1315 218 0 0
23.1341 4.65099 66.5419 255 18 0
24.8398 4.69011 65.3004 255 56 0
26.701 4.80636 64.412 255 70 0
26.1769 2.0147 65.7234 255 64 0
27.6855 -0.446409 66.4387 255 63 0
29.3186 -2.6779 67.4341 255 63 0
27.0291 -5.28442 70.3951 255 73 0
28.9784 -5.04049 69.4413 255 68 0
30.9884 -4.69836 68.6287 255 78 0
32.5781 -6.55844 69.8759 96 255 159
19.0241 13.6753 68.9998 123 255 132
23.809 22.6248 61.5893 255 47 0
24.4872 25.6588 60.3995 30 255 225
28.6988 5.01366 63.8302 255 66 0
30.8019 5.30711 63.4671 255 58 0
32.9728 5.66537 63.2106 238 255 17
33.933 0.650066 64.7233 213 255 42
34.503 3.2937 63.6633 11 255 244
18.9156 9.10778 70.5185 0 0 193
18.2775 9.07484 71.6095 0 0 193
18.6641 7.57033 71.3999 0 0 238
29.2846 21.4771 61.1154 0 0 178
28.6932 22.9439 60.7822 0 0 178
28.2516 21.3642 61.1085 0 0 216
29.8901 20.0204 61.4704 0 0 141
29.2846 21.4771 61.1154 0 0 141
34.8252 8.74645 62.5972 0 0 176
35.2438 10.2457 62.4408 0 0 176
34.1507 10.0709 62.5625 0 0 213
37.8894 0.338663 64.2863 0 0 133
38.5841 -0.668493 64.5033 0 0 133
22.4737 -6.67821 74.6775 0 0 194
21.6784 -6.77079 75.3741 0 0 163
22.3505 -7.76457 75.7052 0 0 163
23.9986 -7.62024 74.3829 0 0 166
24.1421 -6.56109 73.3016 0 0 166
23.2892 -6.61283 73.9273 0 0 198
39.084 -4.88708 66.5169 0 0 156
39.4225 -3.73216 65.7188 0 0 156
38.5745 -3.95593 66.3093 0 0 182
19.9354 -2.22539 73.8865 0 0 216
19.1811 -2.34157 74.818 0 0 178
19.7585 -3.57279 74.879 0 0 178
18.8784 16.7344 68.3649 0 0 147
19.0974 18.2689 67.4788 0 0 147
18.7894 25.9305 65.087 0 0 147
19.2988 24.3669 64.9967 0 0 147
18.9431 27.454 64.1366 0 0 148
18.7894 25.9305 65.087 0 0 148
19.6947 27.3769 63.2282 0 0 147
18.9431 27.454 64.1366 0 0 147
22.091 27.1985 61.0383 0 0 180
21.2618 27.2417 61.6645 0 0 180
21.8545 25.7049 61.8426 0 0 219
22.9627 27.1609 60.5035 0 0 140
22.091 27.1985 61.0383 0 0 140
25.4544 25.708 60.1947 0 0 175
25.0804 24.1697 60.6995 0 0 211
26.0476 24.219 60.4947 0 0 175
24.8024 27.1725 59.7725 0 0 139
25.4544 25.708 60.1947 0 0 139
31.6426 15.6506 62.1444 0 0 178
31.0577 17.0983 61.9698 0 0 178
30.583 15.5194 62.1249 0 0 216
34.8299 16.0626 62.0325 0 0 178
33.7694 15.925 62.111 0 0 178
34.373 14.4928 62.194 0 0 216
35.8502 16.1725 61.9041 0 0 138
34.8299 16.0626 62.0325 0 0 138
36.4554 14.7411 61.9147 0 0 139
35.8502 16.1725 61.9041 0 0 139
35.5932 3.51016 63.4626 0 0 136
35.2892 2.20517 63.9548 0 0 136
34.8369 4.67472 63.3038 0 0 137
35.5932 3.51016 63.4626 0 0 137
22.9794 -8.60308 75.9935 0 0 129
22.3505 -7.76457 75.7052 0 0 129
23.7863 -8.57434 75.452 0 0 129
22.9794 -8.60308 75.9935 0 0 129
36.1139 -6.73252 69.0412 0 0 161
35.486 -5.84813 68.5793 0 0 191
35.1665 -6.98043 69.4932 0 0 161
36.9736 -6.49457 68.4669 0 0 129
36.1139 -6.73252 69.0412 0 0 129
37.875 -6.24988 67.9569 0 0 157
37.3347 -5.35553 67.6173 0 0 184
36.9736 -6.49457 68.4669 0 0 157
38.6696 -6.0249 67.3041 0 0 128
37.875 -6.24988 67.9569 0 0 128
16.6891 -0.112147 76.9598 0 0 143
16.2281 1.18785 77.0931 0 0 143
17.4382 0.083974 75.9553 0 0 144
16.6891 -0.112147 76.9598 0 0 144
18.1366 0.214801 74.8985 0 0 185
17.6645 1.533 75.0116 0 0 227
17.4382 0.083974 75.9553 0 0 185
28.3618 -8.27483 72.7395 0 0 168
27.6439 -7.34738 72.1303 0 0 201
27.3991 -8.37396 73.2417 0 0 168
29.3419 -8.16141 72.2591 0 0 136
28.3618 -8.27483 72.7395 0 0 136
30.332 -8.01266 71.8065 0 0 169
29.5968 -7.0995 71.1755 0 0 203
29.3419 -8.16141 72.2591 0 0 169
31.314 -7.84738 71.3356 0 0 135
30.332 -8.01266 71.8065 0 0 135
17.6521 9.02282 72.7248 0 0 148
17.3798 7.43986 73.5994 0 0 148
17.6521 9.02282 72.7248 0 0 148
18.2775 9.07484 71.6095 0 0 148
19.349 19.7812 66.658 0 0 189
19.0974 18.2689 67.4788 0 0 189
19.7727 18.232 66.4939 0 0 233
19.56 21.3011 65.7756 0 0 146
19.349 19.7812 66.658 0 0 146
19.8126 22.805 64.9713 0 0 187
19.56 21.3011 65.7756 0 0 187
20.277 21.2482 64.8688 0 0 230
20.0157 24.314 64.09 0 0 232
19.2988 24.3669 64.9967 0 0 189
19.8126 22.805 64.9713 0 0 189
27.0409 24.2941 60.3826 0 0 176
26.0476 24.219 60.4947 0 0 176
26.6669 22.7558 60.8874 0 0 213
28.0563 24.3897 60.3331 0 0 140
27.0409 24.2941 60.3826 0 0 140
28.0563 24.3897 60.3331 0 0 140
28.6932 22.9439 60.7822 0 0 140
35.637 11.7175 62.262 0 0 176
36.0691 13.2476 62.1167 0 0 176
35.0015 13.1003 62.2608 0 0 214
35.637 11.7175 62.262 0 0 138
35.2438 10.2457 62.4408 0 0 138
36.8314 0.11008 64.5739 0 0 167
35.8055 -0.134342 64.9036 0 0 167
36.5614 -1.14091 65.2313 0 0 199
36.8314 0.11008 64.5739 0 0 134
37.8894 0.338663 64.2863 0 0 134
20.3767 -4.68266 74.9742 0 0 138
19.7585 -3.57279 74.879 0 0 138
21.0211 -5.79657 75.1736 0 0 134
21.6784 -6.77079 75.3741 0 0 134
21.1572 -4.57052 74.1469 0 0 206
20.3767 -4.68266 74.9742 0 0 171
21.0211 -5.79657 75.1736 0 0 171
25.0126 -6.50535 72.6417 0 0 168
24.3032 -5.49794 72.1862 0 0 202
24.1421 -6.56109 73.3016 0 0 168
25.7663 -7.50751 73.1949 0 0 170
25.9275 -6.44435 72.0794 0 0 203
25.0126 -6.50535 72.6417 0 0 170
23.9986 -7.62024 74.3829 0 0 131
23.7863 -8.57434 75.452 0 0 131
26.4478 -8.436 73.7423 0 0 134
25.7663 -7.50751 73.1949 0 0 134
27.3991 -8.37396 73.2417 0 0 135
26.4478 -8.436 73.7423 0 0 135
39.2469 -1.62076 64.8081 0 0 162
38.5841 -0.668493 64.5033 0 0 162
38.2501 -1.84875 65.2064 0 0 192
39.8192 -2.58684 64.9781 0 0 130
39.2469 -1.62076 64.8081 0 0 130
39.8192 -2.58684 64.9781 0 0 129
39.4225 -3.73216 65.7188 0 0 129
39.084 -4.88708 66.5169 0 0 128
38.6696 -6.0249 67.3041 0 0 128
16.551 2.78054 76.2487 0 0 145
16.2281 1.18785 77.0931 0 0 145
16.8209 4.31062 75.3524 0 0 189
16.551 2.78054 76.2487 0 0 189
17.2362 2.93225 75.1721 0 0 232
17.1198 5.90232 74.4918 0 0 147
16.8209 4.31062 75.3524 0 0 147
17.7661 5.99985 73.3834 0 0 236
17.3798 7.43986 73.5994 0 0 192
17.1198 5.90232 74.4918 0 0 192
18.6341 -1.1142 74.8338 0 0 141
19.1811 -2.34157 74.818 0 0 141
18.8604 0.334825 73.8901 0 0 225
18.1366 0.214801 74.8985 0 0 184
18.6341 -1.1142 74.8338 0 0 184
32.3096 -7.65123 70.9121 0 0 168
31.5825 -6.75459 70.2994 0 0 201
31.314 -7.84738 71.3356 0 0 168
33.2692 -7.44401 70.431 0 0 134
32.3096 -7.65123 70.9121 0 0 134
34.2495 -7.21281 70.0087 0 0 165
33.5584 -6.32724 69.4536 0 0 197
33.2692 -7.44401 70.431 0 0 165
35.1665 -6.98043 69.4932 0 0 132
34.2495 -7.21281 70.0087 0 0 132
19.1653 10.6121 69.6643 0 0 191
18.9156 9.10778 70.5185 0 0 191
19.552 9.10758 69.4548 0 0 235
18.7765 12.1438 69.8639 0 0 192
19.1653 10.6121 69.6643 0 0 192
19.4129 12.1436 68.8002 0 0 237
18.3994 13.6605 70.0951 0 0 148
18.7765 12.1438 69.8639 0 0 148
18.6299 15.2121 69.2074 0 0 192
19.2726 15.1976 68.1573 0 0 236
18.8784 16.7344 68.3649 0 0 192
18.3994 13.6605 70.0951 0 0 148
18.6299 15.2121 69.2074 0 0 148
20.4565 27.313 62.405 0 0 187
19.6947 27.3769 63.2282 0 0 187
20.2636 25.812 63.2921 0 0 230
20.6929 28.8065 61.6006 0 0 143
20.4565 27.313 62.405 0 0 184
21.2618 27.2417 61.6645 0 0 184
23.8644 27.1595 60.095 0 0 176
22.9627 27.1609 60.5035 0 0 176
23.5854 25.6602 60.808 0 0 213
23.8644 27.1595 60.095 0 0 139
24.8024 27.1725 59.7725 0 0 139
30.4676 18.5553 61.7247 0 0 178
29.8901 20.0204 61.4704 0 0 178
29.4205 18.4323 61.6961 0 0 217
30.4676 18.5553 61.7247 0 0 141
31.0577 17.0983 61.9698 0 0 141
32.7149 15.7923 62.1309 0 0 179
31.6426 15.6506 62.1444 0 0 179
32.2402 14.2134 62.286 0 0 217
32.7149 15.7923 62.1309 0 0 140
33.7694 15.925 62.111 0 0 140
36.4554 14.7411 61.9147 0 0 138
36.0691 13.2476 62.1167 0 0 138
35.0042 0.883358 64.4848 0 0 169
34.7342 -0.367634 65.1421 0 0 203
35.8055 -0.134342 64.9036 0 0 169
34.218 1.97188 64.1933 0 0 204
35.0042 0.883358 64.4848 0 0 170
35.2892 2.20517 63.9548 0 0 170
34.0718 5.86056 63.0775 0 0 172
33.7379 4.47953 63.437 0 0 208
34.8369 4.67472 63.3038 0 0 172
34.4515 7.31372 62.8316 0 0 175
33.3525 7.11853 62.9647 0 0 211
34.0718 5.86056 63.0775 0 0 175
34.8252 8.74645 62.5972 0 0 138
34.4515 7.31372 62.8316 0 0 138
3 0 32 30
3 0 34 32
3 0 36 34
3 2 41 39
3 2 43 41
3 2 45 43
3 1 109 111
3 111 110 47
3 109 110 111
3 4 50 48
3 4 51 50
3 4 53 51
3 5 56 54
3 5 112 114
3 114 113 56
3 112 113 114
3 5 115 116
3 6 59 57
3 6 117 119
3 119 118 59
3 117 118 119
3 3 62 60
3 121 120 63
3 8 122 124
3 122 64 123
3 122 123 124
3 8 65 64
3 8 125 127
3 127 126 65
3 125 126 127
3 10 69 67
3 12 70 31
3 12 71 70
3 12 73 71
3 14 74 33
3 14 75 74
3 14 77 75
3 16 78 35
3 16 79 78
3 17 82 80
3 19 83 37
3 19 84 83
3 19 128 130
3 130 129 84
3 128 129 130
3 20 85 38
3 20 86 85
3 7 131 133
3 131 87 132
3 131 132 133
3 21 88 40
3 21 89 88
3 21 90 89
3 22 91 42
3 22 92 91
3 22 94 92
3 24 95 44
3 24 96 95
3 9 97 66
3 25 98 46
3 25 99 98
3 25 100 99
3 11 101 68
3 135 134 49
3 26 136 137
3 26 138 139
3 26 140 141
3 27 142 144
3 144 143 52
3 142 143 144
3 27 145 146
3 13 102 72
3 147 103 148
3 149 148 55
3 147 148 149
3 151 150 103
3 15 152 154
3 154 153 76
3 152 153 154
3 28 155 157
3 157 156 58
3 155 156 157
3 28 158 159
3 28 160 161
3 23 104 93
3 29 105 61
3 29 106 105
3 18 107 81
3 162 108 163
3 165 164 108
3 166 8 167
3 169 168 8
3 30 31 10
3 32 31 30
3 32 12 31
3 32 33 12
3 34 33 32
3 34 14 33
3 34 35 14
3 36 35 34
3 36 16 35
3 170 37 171
3 172 171 17
3 170 171 172
3 173 37 174
3 175 19 176
3 177 176 37
3 175 176 177
3 179 178 19
3 180 38 181
3 182 38 183
3 184 20 185
3 186 185 38
3 184 185 186
3 39 40 7
3 41 40 39
3 41 21 40
3 41 42 21
3 43 42 41
3 43 22 42
3 43 44 22
3 45 44 43
3 45 24 44
3 187 46 188
3 189 188 9
3 187 188 189
3 190 46 191
3 192 25 193
3 194 193 46
3 192 193 194
3 196 195 25
3 47 197 198
3 200 199 47
3 48 49 11
3 50 49 48
3 50 201 203
3 203 202 49
3 201 202 203
3 50 204 205
3 51 206 208
3 208 207 50
3 206 207 208
3 51 209 211
3 209 26 210
3 209 210 211
3 51 52 26
3 53 52 51
3 53 27 52
3 54 55 13
3 56 55 54
3 56 212 214
3 214 213 55
3 212 213 214
3 56 215 216
3 218 217 56
3 57 58 15
3 59 58 57
3 59 28 58
3 59 219 221
3 221 220 28
3 219 220 221
3 223 222 59
3 60 61 23
3 62 61 60
3 62 29 61
3 63 224 226
3 226 225 18
3 224 225 226
3 228 227 63
3 229 7 230
3 64 231 232
3 64 233 235
3 233 7 234
3 233 234 235
3 64 39 7
3 65 39 64
3 65 2 39
3 65 66 2
3 236 66 237
3 238 237 65
3 236 237 238
3 239 9 240
3 241 240 66
3 239 240 241
3 243 242 8
3 244 9 245
3 247 246 9
3 67 68 1
3 69 68 67
3 69 11 68
3 31 69 10
3 70 69 31
3 70 11 69
3 70 48 11
3 71 48 70
3 71 4 48
3 71 72 4
3 73 72 71
3 73 13 72
3 33 73 12
3 74 73 33
3 74 13 73
3 74 54 13
3 75 54 74
3 75 5 54
3 75 76 5
3 77 76 75
3 77 15 76
3 35 77 14
3 78 77 35
3 78 15 77
3 78 57 15
3 79 57 78
3 79 6 57
3 80 81 3
3 82 81 80
3 82 18 81
3 37 82 17
3 83 82 37
3 83 18 82
3 83 63 18
3 84 63 83
3 84 248 250
3 250 249 63
3 248 249 250
3 84 251 252
3 254 253 84
3 256 255 19
3 38 257 258
3 85 259 261
3 261 260 38
3 259 260 261
3 85 262 263
3 85 264 266
3 264 47 265
3 264 265 266
3 86 47 85
3 86 1 47
3 87 267 268
3 87 269 271
3 269 20 270
3 269 270 271
3 40 87 7
3 88 87 40
3 88 20 87
3 88 86 20
3 89 86 88
3 89 1 86
3 89 67 1
3 90 67 89
3 90 10 67
3 42 90 21
3 91 90 42
3 91 10 90
3 91 30 10
3 92 30 91
3 92 0 30
3 92 93 0
3 94 93 92
3 94 23 93
3 44 94 22
3 95 94 44
3 95 23 94
3 95 60 23
3 96 60 95
3 96 3 60
3 66 45 2
3 97 45 66
3 97 24 45
3 46 97 9
3 98 97 46
3 98 24 97
3 98 96 24
3 99 96 98
3 99 3 96
3 99 80 3
3 100 80 99
3 100 17 80
3 272 100 273
3 274 273 25
3 272 273 274
3 275 100 276
3 277 17 278
3 279 278 100
3 277 278 279
3 281 280 17
3 68 282 284
3 284 283 1
3 282 283 284
3 101 285 287
3 287 286 68
3 285 286 287
3 101 288 289
3 49 101 11
3 290 101 291
3 292 291 49
3 290 291 292
3 294 293 101
3 52 295 297
3 297 296 26
3 295 296 297
3 300 299 52
3 298 299 300
3 72 53 4
3 102 53 72
3 102 27 53
3 55 102 13
3 103 102 55
3 103 27 102
3 103 301 303
3 303 302 27
3 301 302 303
3 305 304 103
3 76 306 308
3 308 307 5
3 306 307 308
3 310 309 76
3 58 311 313
3 313 312 15
3 311 312 313
3 315 314 58
3 317 316 28
3 93 36 0
3 104 36 93
3 104 16 36
3 61 104 23
3 105 104 61
3 105 16 104
3 105 79 16
3 106 79 105
3 106 6 79
3 81 62 3
3 107 62 81
3 107 29 62
3 318 107 319
3 320 319 18
3 318 319 320
3 108 321 323
3 321 107 322
3 321 322 323
3 108 29 107
3 108 106 29
3 324 106 325
3 326 325 108
3 324 325 326
3 327 6 328
3 329 328 106
3 327 328 329
3 331 330 6
