ply
format ascii 1.0
element vertex 348
property float x
property float y
property float z
property uchar red
property uchar green
property uchar blue
element face 364
property list uchar int vertex_index
end_header
55.4632 15.703 -42.7214 117 255 138
36.8207 15.6694 -54.7963 196 255 59
49.8252 18.6845 -40.6871 78 255 177
41.2241 19.4654 -46.53 242 255 13
46.4551 18.6705 -51.1989 255 185 0
44.1329 9.82476 -57.2955 57 255 198
53.9034 9.56143 -51.0738 255 241 0
33.9276 14.5293 -46.4416 29 255 226
30.7152 7.44583 -51.712 0 12 255
48.27 20.0226 -46.2826 200 255 55
51.2784 17.8715 -47.3591 255 122 0
50.0023 14.9382 -51.714 206 0 0
54.6016 13.55 -47.4982 188 0 0
38.864 18.6771 -51.2633 188 255 67
37.156 17.6313 -47.2879 255 252 0
34.889 15.6913 -51.3023 238 255 17
32.0971 11.5666 -49.7159 32 255 223
33.1096 12.0466 -54.0159 53 255 202
35.5757 10.9998 -56.8342 13 255 242
46.9481 17.1883 -38.4476 37 255 218
43.1258 18.1877 -40.988 255 235 0
45.6074 19.7996 -44.2174 240 255 15
43.5189 20.1555 -49.5029 179 255 76
41.4506 17.9382 -53.8084 245 255 10
39.9989 13.6594 -56.7709 255 155 0
44.9684 14.9858 -54.9567 255 34 0
49.1039 10.2609 -54.7995 255 137 0
39.2595 17.8931 -42.2869 79 255 176
58.3115 10.9498 -42.7083 0 210 255
54.0482 17.3572 -42.4552 0 220 255
51.9749 18.4684 -44.7837 131 255 124
53.4736 16.9434 -45.1156 255 101 0
52.9088 15.9408 -47.5498 255 12 0
55.016 14.8853 -45.2455 255 2 0
37.7623 17.4276 -53.2007 181 255 74
36.7556 17.3553 -51.5019 208 255 47
35.6995 15.9053 -53.2391 195 255 60
33.9096 14.0603 -52.8393 221 255 34
34.8207 14.0082 -54.6214 195 255 60
34.1523 11.7471 -55.6186 54 255 201
36.0861 13.4926 -56.018 227 255 28
48.4006 18.0601 -39.701 255 220 0
46.4162 18.7208 -41.3625 255 228 0
47.7609 19.4114 -42.578 240 255 15
47.3527 19.6763 -48.8615 247 255 8
45.9161 20.2861 -48.0497 188 255 67
44.9013 19.7149 -50.5033 220 255 35
42.4374 19.3526 -51.8055 197 255 58
43.9422 18.5003 -52.6852 255 225 0
43.1074 16.7226 -54.5507 255 152 0
45.6437 17.0731 -53.2421 255 101 0
51.9283 12.4137 -51.5376 128 0 0
49.4936 12.7661 -53.4223 148 0 0
51.5517 10.0523 -53.0571 255 246 0
42.2814 19.0415 -43.8325 255 245 0
41.1723 18.2068 -41.8083 255 255 0
40.2315 18.6688 -44.552 255 253 0
35.4088 16.2128 -47.0527 255 238 0
36.4757 16.892 -44.8376 89 255 166
34.8892 15.5581 -44.4195 0 182 255
31.3366 9.63644 -50.8911 0 108 255
41.977 11.9375 -57.208 233 255 22
39.587 11.0306 -57.6638 81 255 174
59.7356 9.26669 -40.1845 0 90 255
51.2352 18.8467 -41.4509 0 152 255
49.125 19.6843 -43.5317 200 255 55
50.5259 19.3887 -44.2585 56 255 199
49.7286 19.2523 -46.9364 255 237 0
48.921 18.4554 -49.4046 255 150 0
48.1654 17.0535 -51.6011 255 60 0
50.6073 16.6711 -49.685 255 30 0
52.3869 14.4064 -49.7 190 0 0
54.2288 11.7527 -49.4431 128 0 0
40.0503 19.3591 -49.0246 212 255 43
39.1163 18.7285 -47.1154 248 255 7
37.9242 18.3017 -49.4474 229 255 26
35.9965 16.888 -49.4395 252 255 3
34.3313 15.167 -49.0163 255 230 0
32.9756 13.2025 -48.22 36 255 219
33.3229 13.7394 -50.6898 255 238 0
32.4447 11.9485 -52.0369 91 255 164
32.5095 9.72086 -54.8021 0 77 255
43.6829 17.0498 -38.0487 0 191 255
45.0658 17.8418 -39.8546 116 255 139
44.3615 19.0554 -42.7558 255 237 0
43.4096 19.8227 -45.5513 240 255 15
46.9012 20.1791 -45.3843 198 255 57
44.6082 20.3008 -46.9527 198 255 57
42.3026 20.0294 -48.1821 202 255 53
41.1435 19.6178 -50.5885 178 255 77
40.0325 18.586 -52.7171 182 255 73
39.0529 16.989 -54.5224 213 255 42
38.2626 14.9199 -55.971 255 251 0
40.6245 16.0021 -55.4742 255 205 0
42.4444 14.4936 -56.0685 255 94 0
44.4607 12.529 -56.3177 251 0 0
47.5087 15.1335 -53.4859 239 0 0
46.9849 12.805 -55.0365 191 0 0
46.6144 10.1859 -56.2338 255 172 0
48.8465 7.53157 -55.8296 0 237 255
48.7395 16.2536 -36.8108 0 212 255
50.281 17.1025 -37.8215 0 200 255
41.8599 17.4707 -38.9357 7 255 248
40.0293 17.5873 -39.5308 0 168 255
38.275 17.9437 -44.8886 251 255 4
37.4459 17.2574 -42.4117 0 166 255
37.6911 12.4902 -57.0295 255 206 0
37.3403 9.81125 -57.6642 0 218 255
56.8849 13.5344 -42.8144 172 255 83
56.5914 12.3888 -45.1554 255 189 0
56.3335 10.7923 -47.1914 235 255 20
56.0998 8.79117 -48.9116 128 255 127
53.7703 8.30933 -51.7369 0 0 196
52.5945 8.55476 -52.7285 0 0 196
52.7276 9.80686 -52.0655 0 0 242
33.7409 14.2656 -45.0606 0 0 159
34.2217 14.78 -44.0495 0 0 159
34.4084 15.0437 -45.4306 0 0 186
33.3358 13.5896 -45.976 0 0 133
33.7409 14.2656 -45.0606 0 0 133
30.6559 7.32052 -50.5922 0 0 160
30.9666 8.41583 -50.1817 0 0 160
31.0259 8.54113 -51.3015 0 0 189
30.3917 6.19156 -50.9309 0 0 132
30.6559 7.32052 -50.5922 0 0 132
30.4748 6.24209 -51.9332 0 0 130
30.3917 6.19156 -50.9309 0 0 130
42.9197 9.49873 -57.6142 0 0 176
41.8417 10.5551 -57.5705 0 0 176
43.055 10.8811 -57.2517 0 0 213
51.583 18.9026 -43.1454 0 0 153
50.8806 19.1177 -42.8547 0 0 178
51.9376 18.6316 -41.7416 0 0 153
32.421 10.9423 -53.52 0 0 156
32.0885 10.8932 -52.5305 0 0 156
32.7772 11.9976 -53.0264 0 0 182
32.8096 10.8837 -54.409 0 0 180
32.1209 9.7794 -53.9131 0 0 154
32.421 10.9423 -53.52 0 0 154
34.6378 10.1052 -56.5179 0 0 156
33.9262 10.4788 -55.9101 0 0 156
34.864 11.3734 -56.2264 0 0 183
35.4282 9.64399 -57.0244 0 0 131
34.6378 10.1052 -56.5179 0 0 131
46.007 17.5151 -39.1511 0 0 194
45.2604 17.0915 -38.3761 0 0 163
46.2015 16.7647 -37.6726 0 0 163
49.5784 15.6601 -35.8993 0 0 135
48.7324 15.2082 -35.377 0 0 135
50.3492 16.0846 -36.4046 0 0 163
49.5103 16.6781 -37.3162 0 0 193
49.5784 15.6601 -35.8993 0 0 163
38.751 17.6446 -41.0524 0 0 154
39.1359 17.4917 -39.6744 0 0 154
39.6444 17.7402 -40.9088 0 0 180
36.6165 16.7933 -42.3019 0 0 155
36.9608 17.0747 -43.6246 0 0 181
36.1314 16.6106 -43.5149 0 0 155
36.9987 17.0842 -41.1047 0 0 129
36.6165 16.7933 -42.3019 0 0 129
32.0252 11.3173 -48.4152 0 0 163
32.4644 12.1353 -47.6673 0 0 163
32.5364 12.3846 -48.968 0 0 193
38.3596 9.01788 -57.8902 0 0 169
38.4636 10.4209 -57.664 0 0 202
39.483 9.62753 -57.89 0 0 169
37.2652 8.39423 -57.7532 0 0 136
38.3596 9.01788 -57.8902 0 0 136
58.3995 11.4368 -41.4992 0 0 182
59.1116 10.5953 -40.2373 0 0 182
59.0236 10.1083 -41.4464 0 0 222
57.5982 12.2421 -42.7613 0 0 223
57.6862 12.7291 -41.5523 0 0 183
58.3995 11.4368 -41.4992 0 0 183
57.206 9.27016 -46.9066 0 0 146
57.2594 10.1703 -46.0084 0 0 146
57.0891 8.26961 -47.7667 0 0 190
56.2166 9.79172 -48.0515 0 0 234
57.206 9.27016 -46.9066 0 0 190
53.0115 17.9128 -43.6195 0 0 185
52.3075 18.4425 -43.408 0 0 158
53.3441 17.8869 -42.2438 0 0 158
51.4126 8.73611 -53.657 0 0 194
50.1887 8.84043 -54.5281 0 0 194
50.3278 10.1566 -53.9283 0 0 239
51.4126 8.73611 -53.657 0 0 149
52.5945 8.55476 -52.7285 0 0 149
35.3381 15.9437 -43.3059 0 0 158
36.1314 16.6106 -43.5149 0 0 158
35.6825 16.225 -44.6286 0 0 185
34.6076 15.357 -43.0403 0 0 129
35.3381 15.9437 -43.3059 0 0 129
34.6076 15.357 -43.0403 0 0 131
34.2217 14.78 -44.0495 0 0 131
31.2823 9.44153 -49.67 0 0 162
31.6626 10.4066 -49.0824 0 0 162
31.7169 10.6015 -50.3035 0 0 192
31.2823 9.44153 -49.67 0 0 133
30.9666 8.41583 -50.1817 0 0 133
40.6467 10.1016 -57.7984 0 0 174
40.782 11.484 -57.4359 0 0 209
41.8417 10.5551 -57.5705 0 0 174
39.483 9.62753 -57.89 0 0 137
40.6467 10.1016 -57.7984 0 0 137
60.3521 7.78909 -40.0258 0 0 144
60.2984 8.3226 -38.8945 0 0 144
59.7371 8.65565 -41.2806 0 0 184
60.3521 7.78909 -40.0258 0 0 184
60.3536 7.17805 -41.1218 0 0 143
59.0251 9.49722 -42.5424 0 0 185
59.0236 10.1083 -41.4464 0 0 226
59.7371 8.65565 -41.2806 0 0 185
58.2484 10.2491 -43.7668 0 0 144
59.0251 9.49722 -42.5424 0 0 144
51.2504 18.9285 -44.5211 0 0 184
51.583 18.9026 -43.1454 0 0 157
52.3075 18.4425 -43.408 0 0 157
31.5345 9.73719 -51.9576 0 0 158
31.8907 10.7925 -51.464 0 0 185
32.0885 10.8932 -52.5305 0 0 158
31.2238 8.64188 -52.3681 0 0 158
31.0259 8.54113 -51.3015 0 0 186
31.5345 9.73719 -51.9576 0 0 158
30.9553 7.45548 -52.6681 0 0 129
31.2238 8.64188 -52.3681 0 0 129
31.8525 8.59299 -54.2131 0 0 129
32.1209 9.7794 -53.9131 0 0 129
32.3074 8.43946 -54.9887 0 0 128
31.8525 8.59299 -54.2131 0 0 128
33.1047 9.46572 -55.5018 0 0 154
33.3309 10.734 -55.2103 0 0 180
33.9262 10.4788 -55.9101 0 0 154
32.3074 8.43946 -54.9887 0 0 129
33.1047 9.46572 -55.5018 0 0 129
44.055 8.40221 -57.5731 0 0 142
45.2669 8.60622 -57.1714 0 0 142
44.5689 16.6955 -37.4731 0 0 162
43.7973 16.426 -36.5532 0 0 162
44.6833 16.0717 -35.9776 0 0 132
44.3744 17.4458 -38.9517 0 0 189
44.5689 16.6955 -37.4731 0 0 160
45.2604 17.0915 -38.3761 0 0 160
46.5076 8.78679 -56.6406 0 0 184
45.2669 8.60622 -57.1714 0 0 184
45.3736 10.0053 -56.7646 0 0 225
47.6237 7.45962 -56.4384 0 0 186
46.5076 8.78679 -56.6406 0 0 186
47.7304 8.85873 -56.0317 0 0 228
48.7831 6.10351 -56.1547 0 0 187
47.5603 6.03157 -56.7636 0 0 145
47.6237 7.45962 -56.4384 0 0 187
50.06 7.47575 -55.0432 0 0 191
48.9752 8.89624 -55.3145 0 0 236
50.1887 8.84043 -54.5281 0 0 191
49.9746 6.07261 -55.4755 0 0 148
50.06 7.47575 -55.0432 0 0 148
48.7831 6.10351 -56.1547 0 0 146
49.9746 6.07261 -55.4755 0 0 146
47.0456 16.2789 -36.9822 0 0 132
46.2015 16.7647 -37.6726 0 0 132
47.9413 15.8116 -36.1638 0 0 133
48.7324 15.2082 -35.377 0 0 133
47.8438 16.7209 -37.6292 0 0 197
47.0456 16.2789 -36.9822 0 0 165
47.9413 15.8116 -36.1638 0 0 165
51.1577 16.4909 -36.7963 0 0 134
50.3492 16.0846 -36.4046 0 0 134
51.0239 17.377 -38.2095 0 0 131
51.1577 16.4909 -36.7963 0 0 131
50.796 18.168 -39.6423 0 0 160
50.0531 17.8935 -39.2543 0 0 188
51.0239 17.377 -38.2095 0 0 160
51.501 18.2491 -40.0242 0 0 154
50.5302 18.7656 -41.069 0 0 180
50.796 18.168 -39.6423 0 0 154
52.217 18.2742 -40.3225 0 0 129
51.501 18.2491 -40.0242 0 0 129
51.9376 18.6316 -41.7416 0 0 128
52.217 18.2742 -40.3225 0 0 128
54.3142 17.2503 -41.0543 0 0 131
53.3441 17.8869 -42.2438 0 0 131
54.9828 16.6568 -41.2254 0 0 131
54.3142 17.2503 -41.0543 0 0 131
55.6903 15.8297 -41.3585 0 0 168
54.7557 16.5301 -42.5883 0 0 201
54.9828 16.6568 -41.2254 0 0 168
42.9642 16.8338 -37.0151 0 0 131
43.7973 16.426 -36.5532 0 0 131
42.0527 17.0443 -37.4586 0 0 159
42.9642 16.8338 -37.0151 0 0 159
42.7714 17.2603 -38.4922 0 0 187
41.1953 17.3166 -37.8017 0 0 130
42.0527 17.0443 -37.4586 0 0 130
40.2801 17.3749 -38.0993 0 0 157
41.1953 17.3166 -37.8017 0 0 157
40.9446 17.529 -39.2333 0 0 183
39.4196 17.5042 -38.3156 0 0 129
40.2801 17.3749 -38.0993 0 0 129
39.4196 17.5042 -38.3156 0 0 128
39.1359 17.4917 -39.6744 0 0 128
37.8442 17.3268 -41.1148 0 0 155
38.751 17.6446 -41.0524 0 0 155
38.3527 17.5752 -42.3493 0 0 182
37.8442 17.3268 -41.1148 0 0 128
36.9987 17.0842 -41.1047 0 0 128
32.8598 12.9262 -46.8653 0 0 162
33.3358 13.5896 -45.976 0 0 162
33.4516 13.8659 -47.3308 0 0 191
32.8598 12.9262 -46.8653 0 0 134
32.4644 12.1353 -47.6673 0 0 134
32.0252 11.3173 -48.4152 0 0 134
31.6626 10.4066 -49.0824 0 0 134
30.4748 6.24209 -51.9332 0 0 129
30.9553 7.45548 -52.6681 0 0 129
36.3105 9.04973 -57.4394 0 0 162
35.4282 9.64399 -57.0244 0 0 162
36.458 10.4055 -57.2492 0 0 192
36.3105 9.04973 -57.4394 0 0 134
37.2652 8.39423 -57.7532 0 0 134
42.9197 9.49873 -57.6142 0 0 141
44.055 8.40221 -57.5731 0 0 141
56.3404 14.9452 -41.4687 0 0 136
55.6903 15.8297 -41.3585 0 0 136
59.776 9.6804 -38.9415 0 0 143
60.2984 8.3226 -38.8945 0 0 143
59.776 9.6804 -38.9415 0 0 143
59.1116 10.5953 -40.2373 0 0 143
57.0512 13.8609 -41.5152 0 0 140
57.6862 12.7291 -41.5523 0 0 140
56.174 14.6187 -42.7679 0 0 214
56.3404 14.9452 -41.4687 0 0 177
57.0512 13.8609 -41.5152 0 0 177
57.3883 10.9686 -44.9904 0 0 186
57.4515 11.6693 -43.9318 0 0 227
58.2484 10.2491 -43.7668 0 0 186
56.4624 11.5905 -46.1734 0 0 228
57.3883 10.9686 -44.9904 0 0 186
57.2594 10.1703 -46.0084 0 0 186
57.0326 7.18803 -48.5114 0 0 147
57.0891 8.26961 -47.7667 0 0 147
55.9936 7.61813 -49.621 0 0 149
57.0326 7.18803 -48.5114 0 0 149
54.8954 8.00326 -50.7021 0 0 195
55.0016 9.1763 -49.9927 0 0 241
55.9936 7.61813 -49.621 0 0 195
54.7623 6.75116 -51.3651 0 0 150
53.7703 8.30933 -51.7369 0 0 196
54.8954 8.00326 -50.7021 0 0 196
3 0 31 29
3 0 33 31
3 1 36 34
3 1 38 36
3 1 40 38
3 2 43 41
3 4 46 44
3 4 48 46
3 4 50 48
3 6 53 51
3 6 112 114
3 114 113 53
3 112 113 114
3 3 56 54
3 7 59 57
3 7 115 117
3 117 116 59
3 115 116 117
3 7 118 119
3 8 120 122
3 122 121 60
3 120 121 122
3 8 123 124
3 8 125 126
3 5 127 129
3 129 128 61
3 127 128 129
3 130 66 131
3 132 131 64
3 130 131 132
3 10 67 30
3 10 68 67
3 10 70 68
3 12 71 32
3 12 72 71
3 13 75 73
3 15 76 35
3 15 77 76
3 15 79 77
3 17 80 37
3 17 133 135
3 135 134 80
3 133 134 135
3 17 136 138
3 136 81 137
3 136 137 138
3 18 139 141
3 141 140 39
3 139 140 141
3 18 142 143
3 19 144 146
3 144 83 145
3 144 145 146
3 21 84 42
3 21 85 84
3 9 86 65
3 22 87 45
3 22 88 87
3 22 89 88
3 23 90 47
3 23 91 90
3 23 93 91
3 25 94 49
3 25 95 94
3 11 96 69
3 26 97 52
3 26 98 97
3 26 99 98
3 147 100 148
3 149 101 150
3 151 150 100
3 149 150 151
3 20 102 82
3 27 103 55
3 27 152 154
3 154 153 103
3 152 153 154
3 14 104 74
3 155 105 156
3 157 156 58
3 155 156 157
3 159 158 105
3 16 160 162
3 162 161 78
3 160 161 162
3 24 106 92
3 163 107 164
3 165 164 62
3 163 164 165
3 167 166 107
3 28 168 170
3 170 169 63
3 168 169 170
3 28 171 173
3 171 108 172
3 171 172 173
3 28 109 108
3 174 110 175
3 176 111 177
3 178 177 110
3 176 177 178
3 29 179 181
3 179 30 180
3 179 180 181
3 31 30 29
3 31 10 30
3 31 32 10
3 33 32 31
3 33 12 32
3 34 35 13
3 36 35 34
3 36 15 35
3 36 37 15
3 38 37 36
3 38 17 37
3 38 39 17
3 40 39 38
3 40 18 39
3 41 42 19
3 43 42 41
3 43 21 42
3 44 45 9
3 46 45 44
3 46 22 45
3 46 47 22
3 48 47 46
3 48 23 47
3 48 49 23
3 50 49 48
3 50 25 49
3 51 52 11
3 53 52 51
3 53 26 52
3 53 182 184
3 184 183 26
3 182 183 184
3 186 185 53
3 54 55 20
3 56 55 54
3 56 27 55
3 57 58 14
3 59 58 57
3 59 187 189
3 189 188 58
3 187 188 189
3 59 190 191
3 193 192 59
3 60 194 196
3 196 195 16
3 194 195 196
3 198 197 60
3 61 62 24
3 199 62 200
3 201 200 61
3 199 200 201
3 203 202 62
3 204 63 205
3 206 63 207
3 206 207 208
3 209 28 210
3 211 210 63
3 209 210 211
3 213 212 28
3 64 65 2
3 66 65 64
3 66 9 65
3 30 214 216
3 214 66 215
3 214 215 216
3 67 66 30
3 67 9 66
3 67 44 9
3 68 44 67
3 68 4 44
3 68 69 4
3 70 69 68
3 70 11 69
3 32 70 10
3 71 70 32
3 71 11 70
3 71 51 11
3 72 51 71
3 72 6 51
3 73 74 3
3 75 74 73
3 75 14 74
3 35 75 13
3 76 75 35
3 76 14 75
3 76 57 14
3 77 57 76
3 77 7 57
3 77 78 7
3 79 78 77
3 79 16 78
3 37 79 15
3 80 79 37
3 80 16 79
3 80 60 16
3 217 60 218
3 219 218 80
3 217 218 219
3 220 8 221
3 222 221 60
3 220 221 222
3 224 223 8
3 81 225 226
3 81 227 228
3 39 81 17
3 229 81 230
3 231 230 39
3 229 230 231
3 233 232 81
3 235 234 5
3 236 82 237
3 236 237 238
3 83 239 241
3 239 82 240
3 239 240 241
3 83 20 82
3 42 83 19
3 84 83 42
3 84 20 83
3 84 54 20
3 85 54 84
3 85 3 54
3 65 43 2
3 86 43 65
3 86 21 43
3 45 86 9
3 87 86 45
3 87 21 86
3 87 85 21
3 88 85 87
3 88 3 85
3 88 73 3
3 89 73 88
3 89 13 73
3 47 89 22
3 90 89 47
3 90 13 89
3 90 34 13
3 91 34 90
3 91 1 34
3 91 92 1
3 93 92 91
3 93 24 92
3 49 93 23
3 94 93 49
3 94 24 93
3 94 61 24
3 95 61 94
3 95 5 61
3 69 50 4
3 96 50 69
3 96 25 50
3 52 96 11
3 97 96 52
3 97 25 96
3 97 95 25
3 98 95 97
3 98 5 95
3 98 242 244
3 244 243 5
3 242 243 244
3 99 245 247
3 247 246 98
3 245 246 247
3 99 248 250
3 248 249 250
3 251 99 252
3 253 252 26
3 251 252 253
3 254 99 255
3 257 256 99
3 258 19 259
3 100 260 261
3 100 262 264
3 262 19 263
3 262 263 264
3 100 41 19
3 101 41 100
3 101 2 41
3 265 101 266
3 267 101 268
3 269 2 270
3 271 270 101
3 269 270 271
3 272 64 273
3 274 273 2
3 272 273 274
3 275 64 276
3 278 277 64
3 279 29 280
3 281 29 282
3 283 0 284
3 285 284 29
3 283 284 285
3 82 286 287
3 102 288 290
3 290 289 82
3 288 289 290
3 102 291 292
3 55 102 20
3 103 102 55
3 103 293 295
3 295 294 102
3 293 294 295
3 103 296 297
3 299 298 103
3 74 56 3
3 104 56 74
3 104 27 56
3 58 104 14
3 105 104 58
3 105 27 104
3 105 300 302
3 302 301 27
3 300 301 302
3 304 303 105
3 78 305 307
3 307 306 7
3 305 306 307
3 309 308 78
3 311 310 16
3 313 312 8
3 92 40 1
3 106 40 92
3 106 18 40
3 62 106 24
3 107 106 62
3 107 18 106
3 107 314 316
3 316 315 18
3 314 315 316
3 318 317 107
3 320 319 5
3 321 0 322
3 63 323 324
3 326 325 63
3 108 327 328
3 108 329 331
3 329 0 330
3 329 330 331
3 108 33 0
3 109 33 108
3 109 12 33
3 332 109 333
3 334 333 28
3 332 333 334
3 110 335 337
3 335 109 336
3 335 336 337
3 110 12 109
3 110 72 12
3 111 72 110
3 111 6 72
3 338 111 339
3 340 111 341
3 342 6 343
3 344 343 111
3 342 343 344
3 347 346 6
3 345 346 347
