ply
format ascii 1.0
element vertex 316
property float x
property float y
property float z
property uchar red
property uchar green
property uchar blue
element face 302
property list uchar int vertex_index
end_header
-68.003 -27.6715 32.6352 255 149 0
-63.7082 -43.1935 45.6538 182 0 0
-66.6041 -35.4991 39.1267 208 0 0
-59.7042 -51.3958 49.8526 255 48 0
-67.4612 -31.6577 35.7464 177 0 0
-67.4107 -36.6674 35.8429 166 0 0
-67.555 -32.8272 32.2382 137 0 0
-61.7618 -47.2506 48.1633 200 0 0
-64.4315 -48.0971 45.7228 201 255 54
-65.3526 -39.2975 42.5367 203 0 0
-65.8949 -44.2122 42.954 193 0 0
-66.8744 -40.4248 39.5532 191 0 0
-67.4006 -28.8372 29.0823 255 137 0
-56.2624 -51.1564 50.4955 0 185 255
-58.1394 -46.8025 49.2758 229 255 26
-60.2493 -42.5655 47.2659 255 252 0
-62.3405 -38.5222 44.6961 128 0 0
-64.2102 -34.6197 41.8765 213 255 42
-65.7572 -30.7158 39.0518 92 255 163
-67.7641 -29.6843 34.149 157 0 0
-67.7348 -32.2264 33.9978 170 0 0
-67.8613 -30.2562 32.3526 155 0 0
-62.7632 -45.203 47.0015 182 0 0
-63.2402 -47.6237 47.1033 203 0 0
-64.1602 -45.6231 45.8609 197 0 0
-66.0296 -37.3943 40.8474 210 0 0
-66.3269 -39.8229 41.1369 214 0 0
-66.8329 -37.9394 39.3523 212 0 0
-67.116 -37.3052 34.093 248 255 7
-67.0911 -39.1989 35.9711 237 255 18
-67.9533 -24.1497 28.0351 0 232 255
-67.9489 -22.0918 26.7108 0 101 255
-54.3978 -51.1967 50.3358 0 86 255
-59.1813 -44.6615 48.359 251 255 4
-60.4483 -38.2687 45.4727 125 255 130
-61.5429 -36.2786 44.2631 113 255 142
-63.3121 -36.5611 43.2995 255 155 0
-58.7156 -53.435 50.3742 0 247 255
-60.1631 -53.672 49.5788 9 255 246
-66.3988 -44.8448 41.2651 214 255 41
-65.9234 -46.7453 42.7585 91 255 164
-66.68 -31.4458 28.9186 132 255 123
-67.0787 -33.5926 37.4146 196 0 0
-67.232 -36.0567 37.5366 202 0 0
-67.5296 -34.1573 35.7372 187 0 0
-67.5277 -34.7638 34.0013 150 0 0
-67.0496 -35.3868 32.2563 255 253 0
-60.7313 -49.3226 49.1168 238 0 0
-61.2101 -51.6724 48.9624 152 255 103
-62.2473 -49.6466 48.1393 255 207 0
-63.525 -50.0696 46.8111 78 255 177
-64.5761 -41.2265 44.1526 191 0 0
-64.9878 -43.6557 44.4313 202 0 0
-65.7116 -41.7241 42.8442 209 0 0
-66.4432 -42.3085 41.3156 195 0 0
-66.7424 -42.958 39.6098 218 255 37
-67.195 -38.5494 37.7117 181 0 0
-66.9692 -41.0793 37.8291 227 255 28
-68.1946 -25.6282 31.2 107 255 148
-67.9266 -28.2468 30.8181 146 0 0
-67.9509 -26.2066 29.3887 255 145 0
-67.2616 -26.7917 27.6977 111 255 144
-66.9747 -22.6516 25.1432 0 110 255
-58.0428 -51.2222 50.3547 255 253 0
-57.156 -48.9747 49.9918 192 255 63
-59.0184 -49.0994 49.728 223 0 0
-60.043 -46.9787 48.8834 172 0 0
-61.083 -44.8846 47.8319 145 0 0
-62.1069 -42.8317 46.5977 140 0 0
-61.3118 -40.5201 46.0315 255 123 0
-63.0871 -40.8256 45.2153 150 0 0
-64.0014 -38.863 43.7246 168 0 0
-64.8338 -36.9322 42.1663 185 0 0
-65.5749 -35.0159 40.5783 192 0 0
-65.0258 -32.6778 40.4544 211 255 44
-66.2225 -33.0935 38.9941 188 0 0
-66.7807 -31.1468 37.4404 255 171 0
-67.2591 -29.1635 35.9354 226 255 29
-67.6703 -27.1412 34.486 109 255 146
-65.2244 -46.142 44.432 255 183 0
-67.5062 -30.8514 30.5926 128 0 0
-66.8998 -33.4352 30.5177 255 247 0
-66.8203 -38.582 34.1362 0 0 144
-66.7344 -37.6246 33.2144 0 0 144
-68.2776 -20.7891 26.8845 0 0 141
-68.2192 -21.8048 27.582 0 0 141
-53.4394 -51.2644 50.1483 0 0 139
-54.0707 -52.3265 50.4249 0 0 139
-61.1651 -35.1854 44.1681 0 0 141
-60.5758 -36.1775 44.6796 0 0 141
-62.065 -35.2961 43.6469 0 0 141
-61.1651 -35.1854 44.1681 0 0 141
-66.3224 -46.1254 41.0798 0 0 140
-66.4458 -45.1844 40.3406 0 0 140
-64.4827 -49.3397 45.4491 0 0 183
-64.0295 -50.3259 45.9932 0 0 183
-63.9783 -49.0833 46.267 0 0 226
-66.7906 -41.4174 36.9215 0 0 188
-67.0302 -40.1391 36.9001 0 0 233
-66.8516 -40.4772 35.9925 0 0 188
-66.788 -42.3605 37.8029 0 0 142
-66.7906 -41.4174 36.9215 0 0 142
-68.1522 -24.8886 29.6039 0 0 184
-68.0727 -25.9174 30.2944 0 0 227
-68.274 -24.5994 30.5095 0 0 184
-67.1873 -25.7588 27.0503 0 0 184
-67.6075 -25.4707 27.8664 0 0 227
-67.5332 -24.4378 27.219 0 0 184
-66.691 -27.0756 26.9337 0 0 143
-67.1873 -25.7588 27.0503 0 0 143
-66.9161 -21.6139 24.5021 0 0 185
-67.4599 -21.3482 25.2537 0 0 185
-67.4013 -20.3105 24.6126 0 0 141
-56.7062 -52.2343 50.6302 0 0 132
-55.8748 -52.2388 50.6414 0 0 132
-57.1526 -51.1893 50.4251 0 0 206
-57.5964 -52.2672 50.5598 0 0 170
-56.7062 -52.2343 50.6302 0 0 170
-57.6477 -47.8886 49.6338 0 0 231
-56.6332 -47.8445 49.6882 0 0 186
-57.1248 -46.7585 49.3302 0 0 186
-65.3915 -31.6968 39.7531 0 0 225
-64.7452 -31.5282 40.5142 0 0 182
-65.1108 -30.5472 39.8129 0 0 182
-67.1235 -27.9248 36.1335 0 0 141
-66.8339 -28.9418 36.8067 0 0 141
-67.3291 -26.9137 35.4088 0 0 186
-67.4647 -28.1523 35.2107 0 0 230
-67.1235 -27.9248 36.1335 0 0 186
-61.3384 -52.8374 48.6719 0 0 136
-61.8681 -51.8587 48.3282 0 0 136
-65.6134 -47.7023 43.4121 0 0 142
-65.8822 -48.0163 42.4738 0 0 142
-66.3389 -33.7331 29.7 0 0 193
-66.7899 -32.4405 29.7182 0 0 240
-66.229 -32.7384 28.9004 0 0 193
-66.5007 -34.7194 30.534 0 0 145
-66.3389 -33.7331 29.7 0 0 145
-66.8078 -39.5289 35.0752 0 0 190
-67.1036 -38.252 35.032 0 0 236
-66.8203 -38.582 34.1362 0 0 190
-66.8516 -40.4772 35.9925 0 0 143
-66.8078 -39.5289 35.0752 0 0 143
-68.2214 -22.8338 28.2441 0 0 141
-68.1534 -23.8601 28.9271 0 0 141
-67.9511 -23.1208 27.373 0 0 226
-68.2214 -22.8338 28.2441 0 0 183
-68.2192 -21.8048 27.582 0 0 183
-67.531 -23.4089 26.5568 0 0 185
-67.5332 -24.4378 27.219 0 0 185
-67.9511 -23.1208 27.373 0 0 228
-54.9424 -52.2589 50.5616 0 0 135
-54.0707 -52.3265 50.4249 0 0 135
-55.3301 -51.1766 50.4157 0 0 213
-55.8748 -52.2388 50.6414 0 0 175
-54.9424 -52.2589 50.5616 0 0 175
-57.6326 -45.6633 48.948 0 0 143
-57.1248 -46.7585 49.3302 0 0 143
-58.1535 -44.5928 48.4896 0 0 190
-58.6604 -45.732 48.8174 0 0 235
-57.6326 -45.6633 48.948 0 0 190
-58.6951 -43.5231 48.0245 0 0 144
-58.1535 -44.5928 48.4896 0 0 144
-59.2291 -42.4751 47.4779 0 0 191
-59.7153 -43.6135 47.8125 0 0 237
-58.6951 -43.5231 48.0245 0 0 191
-60.0285 -37.1726 45.2844 0 0 142
-59.4276 -38.1805 45.7859 0 0 142
-60.9956 -37.2737 44.8679 0 0 231
-60.0285 -37.1726 45.2844 0 0 187
-60.5758 -36.1775 44.6796 0 0 187
-62.9496 -35.4373 43.1651 0 0 183
-62.4275 -36.4198 43.7813 0 0 226
-62.065 -35.2961 43.6469 0 0 183
-63.3987 -34.4667 42.4536 0 0 183
-63.7612 -35.5904 42.588 0 0 226
-62.9496 -35.4373 43.1651 0 0 183
-65.5209 -29.5446 39.2063 0 0 140
-65.1108 -30.5472 39.8129 0 0 140
-66.0829 -29.7179 38.3649 0 0 141
-65.5209 -29.5446 39.2063 0 0 141
-58.9287 -54.5187 50.1898 0 0 128
-58.258 -54.4111 50.5345 0 0 128
-59.6524 -54.6372 49.7921 0 0 163
-58.9287 -54.5187 50.1898 0 0 163
-59.4394 -53.5535 49.9765 0 0 195
-60.2741 -54.792 49.2362 0 0 132
-59.6524 -54.6372 49.7921 0 0 132
-66.0848 -47.0756 41.8265 0 0 185
-66.1611 -45.7951 42.0118 0 0 229
-66.3224 -46.1254 41.0798 0 0 185
-65.8822 -48.0163 42.4738 0 0 140
-66.0848 -47.0756 41.8265 0 0 140
-66.5457 -30.4324 28.1965 0 0 187
-67.0403 -30.1415 29.0004 0 0 232
-66.906 -29.1281 28.2784 0 0 187
-66.0379 -31.7342 28.1455 0 0 145
-66.5457 -30.4324 28.1965 0 0 145
-66.229 -32.7384 28.9004 0 0 145
-66.0379 -31.7342 28.1455 0 0 145
-66.7012 -36.6655 32.2961 0 0 191
-66.7344 -37.6246 33.2144 0 0 191
-67.0828 -36.346 33.1747 0 0 238
-62.3867 -50.8458 47.9167 0 0 177
-61.8681 -51.8587 48.3282 0 0 177
-61.7287 -50.6595 48.5508 0 0 217
-63.0255 -51.0573 47.2526 0 0 177
-62.3867 -50.8458 47.9167 0 0 177
-62.8862 -49.8581 47.4752 0 0 217
-63.5751 -51.2868 46.4499 0 0 140
-63.0255 -51.0573 47.2526 0 0 140
-63.5751 -51.2868 46.4499 0 0 139
-64.0295 -50.3259 45.9932 0 0 139
-66.6176 -44.241 39.513 0 0 186
-66.4458 -45.1844 40.3406 0 0 186
-66.5706 -43.9014 40.4375 0 0 229
-66.6746 -43.2999 38.6933 0 0 187
-66.8558 -42.0187 38.7195 0 0 231
-66.788 -42.3605 37.8029 0 0 187
-66.6176 -44.241 39.513 0 0 141
-66.6746 -43.2999 38.6933 0 0 141
-67.9521 -25.1782 28.7119 0 0 227
-68.1522 -24.8886 29.6039 0 0 184
-68.1534 -23.8601 28.9271 0 0 184
-66.8365 -28.1053 27.5861 0 0 187
-66.906 -29.1281 28.2784 0 0 187
-67.3311 -27.8145 28.39 0 0 232
-66.8365 -28.1053 27.5861 0 0 143
-66.691 -27.0756 26.9337 0 0 143
-67.947 -21.0683 26.0375 0 0 140
-68.2776 -20.7891 26.8845 0 0 140
-67.4618 -22.3717 25.927 0 0 229
-67.947 -21.0683 26.0375 0 0 185
-67.4599 -21.3482 25.2537 0 0 185
-67.0439 -23.6888 25.773 0 0 184
-67.531 -23.4089 26.5568 0 0 184
-67.4618 -22.3717 25.927 0 0 228
-66.276 -22.9125 24.4632 0 0 144
-66.9161 -21.6139 24.5021 0 0 144
-66.4047 -23.9634 25.0514 0 0 143
-66.276 -22.9125 24.4632 0 0 143
-67.0439 -23.6888 25.773 0 0 143
-66.4047 -23.9634 25.0514 0 0 143
-57.9328 -53.3736 50.5695 0 0 129
-58.258 -54.4111 50.5345 0 0 129
-58.3792 -52.3286 50.3644 0 0 197
-57.9328 -53.3736 50.5695 0 0 164
-57.5964 -52.2672 50.5598 0 0 164
-53.7858 -50.0993 50.0231 0 0 140
-53.4394 -51.2644 50.1483 0 0 140
-54.7952 -50.0704 50.1479 0 0 141
-53.7858 -50.0993 50.0231 0 0 141
-55.7275 -50.0503 50.2277 0 0 178
-55.3301 -51.1766 50.4157 0 0 218
-54.7952 -50.0704 50.1479 0 0 178
-56.1743 -48.9594 49.9759 0 0 141
-56.6332 -47.8445 49.6882 0 0 141
-56.7092 -50.0656 50.2436 0 0 223
-55.7275 -50.0503 50.2277 0 0 181
-56.1743 -48.9594 49.9759 0 0 181
-59.7883 -41.4331 46.9468 0 0 144
-59.2291 -42.4751 47.4779 0 0 144
-59.8878 -39.2847 46.0502 0 0 144
-59.4276 -38.1805 45.7859 0 0 144
-60.3195 -40.4103 46.3296 0 0 188
-59.8878 -39.2847 46.0502 0 0 188
-60.8801 -39.3944 45.7521 0 0 234
-60.7806 -41.5428 46.6487 0 0 236
-59.7883 -41.4331 46.9468 0 0 190
-60.3195 -40.4103 46.3296 0 0 190
-63.8872 -33.4866 41.837 0 0 140
-63.3987 -34.4667 42.4536 0 0 140
-64.295 -32.5157 41.1259 0 0 140
-64.7452 -31.5282 40.5142 0 0 140
-64.618 -33.6487 41.1655 0 0 224
-63.8872 -33.4866 41.837 0 0 182
-64.295 -32.5157 41.1259 0 0 182
-66.5947 -29.9334 37.5591 0 0 182
-66.269 -30.9313 38.2461 0 0 224
-66.0829 -29.7179 38.3649 0 0 182
-67.0199 -30.1551 36.6879 0 0 227
-66.5947 -29.9334 37.5591 0 0 184
-66.8339 -28.9418 36.8067 0 0 184
-67.5868 -25.8814 34.7436 0 0 142
-67.3291 -26.9137 35.4088 0 0 142
-67.8487 -26.1147 33.7855 0 0 143
-67.5868 -25.8814 34.7436 0 0 143
-68.0151 -26.3799 32.86 0 0 185
-67.8366 -27.4064 33.5606 0 0 229
-67.8487 -26.1147 33.7855 0 0 185
-68.1109 -25.3583 32.1424 0 0 185
-68.0988 -26.6499 31.9176 0 0 229
-68.0151 -26.3799 32.86 0 0 185
-68.2672 -24.3253 31.455 0 0 186
-68.1109 -25.3583 32.1424 0 0 186
-68.1835 -24.0553 32.3974 0 0 142
-68.274 -24.5994 30.5095 0 0 142
-68.2672 -24.3253 31.455 0 0 142
-60.8149 -53.8372 48.9802 0 0 172
-60.6866 -52.6722 49.2706 0 0 210
-61.3384 -52.8374 48.6719 0 0 172
-60.2741 -54.792 49.2362 0 0 134
-60.8149 -53.8372 48.9802 0 0 134
-65.2639 -47.4007 44.2489 0 0 180
-65.5739 -46.4437 43.5953 0 0 221
-65.6134 -47.7023 43.4121 0 0 180
-64.8674 -48.3783 44.8943 0 0 183
-64.8279 -47.1196 45.0774 0 0 225
-65.2639 -47.4007 44.2489 0 0 183
-64.4827 -49.3397 45.4491 0 0 139
-64.8674 -48.3783 44.8943 0 0 139
-66.5756 -35.6952 31.4033 0 0 192
-66.9747 -34.411 31.387 0 0 239
-66.5007 -34.7194 30.534 0 0 192
-66.7012 -36.6655 32.2961 0 0 145
-66.5756 -35.6952 31.4033 0 0 145
3 0 21 19
3 1 24 22
3 2 27 25
3 83 82 28
3 84 31 85
3 86 32 87
3 88 35 89
3 91 90 35
3 3 38 37
3 93 92 39
3 4 44 42
3 6 45 20
3 6 46 45
3 7 49 47
3 8 50 23
3 8 94 96
3 96 95 50
3 94 95 96
3 9 53 51
3 11 54 26
3 11 55 54
3 5 56 43
3 97 57 98
3 99 98 29
3 97 98 99
3 101 100 57
3 102 60 103
3 104 103 58
3 102 103 104
3 105 61 106
3 107 106 30
3 105 106 107
3 109 108 61
3 110 62 111
3 110 111 112
3 13 113 114
3 13 115 117
3 115 63 116
3 115 116 117
3 14 118 120
3 118 64 119
3 118 119 120
3 14 65 64
3 14 66 65
3 15 67 33
3 15 68 67
3 16 69 34
3 16 70 69
3 16 71 70
3 17 72 36
3 17 73 72
3 18 121 123
3 121 74 122
3 121 122 123
3 18 75 74
3 18 76 75
3 124 77 125
3 126 78 127
3 128 127 77
3 126 127 128
3 130 129 48
3 10 79 52
3 132 131 40
3 12 80 59
3 133 81 134
3 135 134 41
3 133 134 135
3 137 136 81
3 19 20 4
3 21 20 19
3 21 6 20
3 22 23 7
3 24 23 22
3 24 8 23
3 25 26 9
3 27 26 25
3 27 11 26
3 28 29 5
3 138 29 139
3 140 139 28
3 138 139 140
3 142 141 29
3 143 30 144
3 31 145 147
3 145 30 146
3 145 146 147
3 31 148 150
3 150 149 30
3 148 149 150
3 32 151 152
3 32 153 155
3 153 13 154
3 153 154 155
3 156 14 157
3 158 33 159
3 160 159 14
3 158 159 160
3 161 33 162
3 163 15 164
3 165 164 33
3 163 164 165
3 166 34 167
3 35 168 170
3 168 34 169
3 168 169 170
3 35 16 34
3 35 36 16
3 171 36 172
3 173 172 35
3 171 172 173
3 174 17 175
3 176 175 36
3 174 175 176
3 177 18 178
3 180 179 18
3 37 181 182
3 38 183 185
3 185 184 37
3 183 184 185
3 38 186 187
3 39 40 10
3 188 40 189
3 190 189 39
3 188 189 190
3 192 191 40
3 193 41 194
3 195 194 12
3 193 194 195
3 196 41 197
3 199 198 41
3 42 43 2
3 44 43 42
3 44 5 43
3 20 44 4
3 45 44 20
3 45 5 44
3 45 28 5
3 46 28 45
3 46 200 202
3 202 201 28
3 200 201 202
3 47 48 3
3 49 48 47
3 49 203 205
3 205 204 48
3 203 204 205
3 23 49 7
3 50 49 23
3 50 206 208
3 208 207 49
3 206 207 208
3 50 209 210
3 212 211 50
3 51 52 1
3 53 52 51
3 53 10 52
3 26 53 9
3 54 53 26
3 54 10 53
3 54 39 10
3 55 39 54
3 55 213 215
3 215 214 39
3 213 214 215
3 43 27 2
3 56 27 43
3 56 11 27
3 29 56 5
3 57 56 29
3 57 11 56
3 57 55 11
3 216 55 217
3 218 217 57
3 216 217 218
3 220 219 55
3 58 59 0
3 60 59 58
3 60 12 59
3 30 221 223
3 221 60 222
3 221 222 223
3 61 60 30
3 61 12 60
3 61 224 226
3 226 225 12
3 224 225 226
3 228 227 61
3 229 31 230
3 62 231 233
3 231 31 232
3 231 232 233
3 62 234 236
3 236 235 31
3 234 235 236
3 237 62 238
3 239 62 240
3 242 241 62
3 243 37 244
3 63 245 247
3 245 37 246
3 245 246 247
3 63 3 37
3 248 32 249
3 250 32 251
3 252 13 253
3 254 253 32
3 252 253 254
3 64 255 256
3 64 257 259
3 257 13 258
3 257 258 259
3 64 63 13
3 65 63 64
3 65 3 63
3 65 47 3
3 66 47 65
3 66 7 47
3 33 66 14
3 67 66 33
3 67 7 66
3 67 22 7
3 68 22 67
3 68 1 22
3 260 15 261
3 34 262 263
3 69 264 266
3 266 265 34
3 264 265 266
3 69 267 269
3 267 15 268
3 267 268 269
3 69 68 15
3 70 68 69
3 70 1 68
3 70 51 1
3 71 51 70
3 71 9 51
3 36 71 16
3 72 71 36
3 72 9 71
3 72 25 9
3 73 25 72
3 73 2 25
3 270 17 271
3 74 272 273
3 74 274 276
3 274 17 275
3 274 275 276
3 74 73 17
3 75 73 74
3 75 2 73
3 75 42 2
3 76 42 75
3 76 4 42
3 277 76 278
3 279 278 18
3 277 278 279
3 77 280 282
3 280 76 281
3 280 281 282
3 77 4 76
3 77 19 4
3 78 19 77
3 78 0 19
3 283 78 284
3 285 78 286
3 287 0 288
3 289 288 78
3 287 288 289
3 290 58 291
3 292 291 0
3 290 291 292
3 293 58 294
3 293 294 295
3 297 296 58
3 48 38 3
3 298 38 299
3 300 299 48
3 298 299 300
3 302 301 38
3 52 24 1
3 79 24 52
3 79 8 24
3 40 79 10
3 303 79 304
3 305 304 40
3 303 304 305
3 306 8 307
3 308 307 79
3 306 307 308
3 310 309 8
3 59 21 0
3 80 21 59
3 80 6 21
3 41 80 12
3 81 80 41
3 81 6 80
3 81 46 6
3 311 46 312
3 313 312 81
3 311 312 313
3 315 314 46
