ply
format ascii 1.0
element vertex 240
property float x
property float y
property float z
property uchar red
property uchar green
property uchar blue
element face 208
property list uchar int vertex_index
end_header
7.21131 19.7205 47.2448 0 235 255
9.98363 30.5669 22.2317 0 160 255
11.3509 33.3186 29.8534 84 255 171
8.12059 32.4486 38.7256 47 255 208
8.12808 27.4643 38.1294 0 253 255
8.30582 26.4614 42.9332 255 28 0
7.56475 19.2435 52.3514 0 224 255
8.30346 25.4251 49.2149 165 0 0
13.6435 28.5444 30.1701 62 255 193
10.1454 28.3225 34.4213 0 254 255
7.9868 32.727 33.7551 7 255 248
8.24098 31.9297 44.7305 255 182 0
14.724 31.2662 25.1502 33 255 222
7.13308 24.0934 42.3928 72 255 183
7.42494 23.1401 44.9959 255 225 0
5.9334 32.1208 20.5454 0 28 255
8.5201 32.6629 20.7259 0 73 255
6.94702 21.7388 53.2726 0 238 255
6.70942 21.4013 55.7935 0 28 255
8.27324 29.9316 38.3928 231 255 24
8.42759 30.0313 36.0765 176 255 79
7.77005 32.6384 36.2402 26 255 229
7.68864 28.3275 50.1605 189 255 66
8.44927 28.8241 47.0623 157 0 0
7.55243 31.3191 47.9226 61 255 194
12.6048 31.0206 30.0245 255 152 0
14.2152 29.9743 27.67 255 197 0
13.6621 32.5313 27.7396 66 255 189
11.4762 28.5185 23.7262 0 223 255
7.66351 24.5033 40.0272 0 158 255
7.81501 27.1217 40.1837 255 230 0
8.5587 29.6356 40.7621 255 126 0
7.67627 19.5725 49.6842 66 255 189
7.77145 22.4433 47.825 254 0 0
7.55089 22.1552 50.6687 255 77 0
7.48743 24.9023 51.9715 149 255 106
11.9923 28.6346 32.4252 61 255 194
10.6882 30.7651 32.1866 255 191 0
8.74518 27.9539 36.2819 0 170 255
8.99007 30.3058 33.9953 200 255 55
9.34055 32.9866 31.8352 39 255 216
8.78775 25.9292 45.9958 128 0 0
8.81331 29.1901 43.7112 199 0 0
8.58295 32.3399 41.5198 255 241 0
7.91763 34.8955 42.3729 0 200 255
14.3952 27.4075 27.5467 0 193 255
14.043 28.7625 25.1664 106 255 149
13.3357 30.2211 22.9472 46 255 209
7.31813 21.4303 46.1204 0 0 205
7.28964 21.6491 44.8803 0 0 172
7.18283 19.9392 46.0048 0 0 172
7.65559 18.6264 46.6448 0 0 132
7.97161 18.557 47.7859 0 0 132
7.18283 19.9392 46.0048 0 0 134
7.65559 18.6264 46.6448 0 0 134
8.43295 30.5379 22.4643 0 0 143
9.34825 29.4957 23.1579 0 0 143
9.25186 31.6149 21.4788 0 0 218
7.70119 31.5859 21.7113 0 0 181
8.43295 30.5379 22.4643 0 0 181
6.89102 20.1814 56.748 0 0 135
7.00343 20.2518 55.366 0 0 135
8.0447 33.8588 37.6131 0 0 164
7.86943 33.9537 36.3704 0 0 164
7.94532 32.5435 37.4829 0 0 194
7.23742 31.0459 49.3968 0 0 176
7.62053 29.8233 49.0415 0 0 212
7.30552 29.5501 50.5158 0 0 176
12.1302 27.5866 24.6154 0 0 134
10.9578 27.3722 24.5414 0 0 134
7.72849 22.9044 41.2589 0 0 131
8.21743 23.3482 40.2991 0 0 131
5.88291 32.5801 19.2632 0 0 133
6.63183 33.3279 19.6864 0 0 133
7.13793 24.6945 53.1892 0 0 171
7.21723 23.3206 52.622 0 0 204
6.86772 23.1128 53.8397 0 0 171
7.26064 26.3196 52.4855 0 0 139
7.13793 24.6945 53.1892 0 0 139
8.39962 18.3161 51.5669 0 0 137
8.20148 18.1349 52.9324 0 0 137
7.62051 19.408 51.0178 0 0 198
8.45537 18.4806 50.2333 0 0 167
8.39962 18.3161 51.5669 0 0 167
11.0688 28.4786 33.4232 0 0 198
11.7068 27.3671 33.5751 0 0 167
10.7833 27.211 34.5731 0 0 167
8.43663 27.7091 37.2056 0 0 168
8.59333 26.4955 37.2974 0 0 147
8.28478 26.2507 38.2211 0 0 147
8.31766 34.1531 32.7669 0 0 161
8.99454 34.2829 31.807 0 0 161
8.66367 32.8568 32.7951 0 0 189
8.21909 36.403 41.2662 0 0 145
7.69613 36.2209 42.7999 0 0 145
8.10708 34.9898 40.8202 0 0 146
8.21909 36.403 41.2662 0 0 146
14.0193 27.9759 28.8584 0 0 195
14.2816 26.7267 28.8409 0 0 165
13.9058 27.2952 30.1526 0 0 165
7.14371 22.1257 43.5788 0 0 136
7.46328 22.6995 42.4417 0 0 136
7.27901 23.6168 43.6944 0 0 212
7.14371 22.1257 43.5788 0 0 177
7.28964 21.6491 44.8803 0 0 177
6.40784 31.3148 21.6211 0 0 131
5.86498 30.5789 21.1447 0 0 131
7.22675 32.3919 20.6356 0 0 202
6.40784 31.3148 21.6211 0 0 170
7.70119 31.5859 21.7113 0 0 170
7.92518 33.5989 19.7767 0 0 170
6.63183 33.3279 19.6864 0 0 170
7.22675 32.3919 20.6356 0 0 203
7.12223 20.4206 54.1055 0 0 165
7.25589 20.4912 52.812 0 0 195
7.43109 19.1729 53.6449 0 0 165
6.82822 21.57 54.533 0 0 188
7.12223 20.4206 54.1055 0 0 161
7.00343 20.2518 55.366 0 0 161
6.74892 22.944 55.1002 0 0 170
6.86772 23.1128 53.8397 0 0 170
6.82822 21.57 54.533 0 0 203
7.43109 19.1729 53.6449 0 0 135
8.20148 18.1349 52.9324 0 0 135
9.95914 27.0025 35.4821 0 0 134
10.7833 27.211 34.5731 0 0 134
7.94315 34.0519 35.0804 0 0 166
8.05153 34.0962 33.8379 0 0 166
7.87842 32.6827 34.9977 0 0 196
7.94315 34.0519 35.0804 0 0 136
7.86943 33.9537 36.3704 0 0 136
10.0945 28.4715 23.9051 0 0 139
10.9578 27.3722 24.5414 0 0 139
10.7299 29.5427 22.979 0 0 204
9.34825 29.4957 23.1579 0 0 171
10.0945 28.4715 23.9051 0 0 171
8.05249 24.7702 39.17 0 0 128
8.21743 23.3482 40.2991 0 0 128
7.89579 25.9838 39.0783 0 0 166
8.28478 26.2507 38.2211 0 0 146
8.05249 24.7702 39.17 0 0 146
7.3983 24.2983 41.21 0 0 198
7.72849 22.9044 41.2589 0 0 167
7.46328 22.6995 42.4417 0 0 167
11.8817 34.1584 28.8029 0 0 140
10.5474 34.4615 29.7807 0 0 140
6.06595 30.9969 19.8985 0 0 136
5.86498 30.5789 21.1447 0 0 136
6.06595 30.9969 19.8985 0 0 136
5.88291 32.5801 19.2632 0 0 136
7.36124 28.0322 51.58 0 0 184
7.58803 26.6149 51.066 0 0 223
7.26064 26.3196 52.4855 0 0 184
7.30552 29.5501 50.5158 0 0 140
7.36124 28.0322 51.58 0 0 140
6.70369 21.1987 57.1664 0 0 132
6.89102 20.1814 56.748 0 0 132
6.69551 22.7056 56.2776 0 0 139
6.70369 21.1987 57.1664 0 0 139
6.74892 22.944 55.1002 0 0 135
6.69551 22.7056 56.2776 0 0 135
8.20408 18.483 49.0056 0 0 134
8.45537 18.4806 50.2333 0 0 134
7.44379 19.6465 48.4645 0 0 191
7.97161 18.557 47.7859 0 0 162
8.20408 18.483 49.0056 0 0 162
13.3559 27.3968 31.3923 0 0 136
13.9058 27.2952 30.1526 0 0 136
12.5303 27.4419 32.5198 0 0 136
11.7068 27.3671 33.5751 0 0 136
12.8179 28.5895 31.2976 0 0 200
13.3559 27.3968 31.3923 0 0 169
12.5303 27.4419 32.5198 0 0 169
9.25905 26.8182 36.4124 0 0 131
8.59333 26.4955 37.2974 0 0 131
9.44527 28.1382 35.3516 0 0 184
9.95914 27.0025 35.4821 0 0 158
9.25905 26.8182 36.4124 0 0 158
9.54223 34.2954 30.7716 0 0 173
10.5474 34.4615 29.7807 0 0 173
10.3457 33.1526 30.8443 0 0 207
9.54223 34.2954 30.7716 0 0 133
8.99454 34.2829 31.807 0 0 133
8.31766 34.1531 32.7669 0 0 132
8.05153 34.0962 33.8379 0 0 132
7.21487 32.6126 48.273 0 0 143
7.23742 31.0459 49.3968 0 0 143
7.4272 32.9248 46.708 0 0 145
7.21487 32.6126 48.273 0 0 145
7.77147 33.2301 45.112 0 0 188
7.89671 31.6244 46.3266 0 0 230
7.4272 32.9248 46.708 0 0 188
7.6098 34.7129 43.9332 0 0 144
7.69613 36.2209 42.7999 0 0 144
8.07931 33.4126 43.5517 0 0 224
7.77147 33.2301 45.112 0 0 184
7.6098 34.7129 43.9332 0 0 184
8.43974 33.712 40.3936 0 0 179
8.25029 33.6177 41.9464 0 0 216
8.10708 34.9898 40.8202 0 0 179
8.20856 33.7664 38.9965 0 0 172
8.35177 32.3943 40.1227 0 0 205
8.43974 33.712 40.3936 0 0 172
8.0447 33.8588 37.6131 0 0 138
8.20856 33.7664 38.9965 0 0 138
13.996 26.2244 27.5687 0 0 134
14.2816 26.7267 28.8409 0 0 134
13.5897 27.0311 26.5257 0 0 132
13.996 26.2244 27.5687 0 0 132
13.4136 27.7086 25.3355 0 0 159
13.5897 27.0311 26.5257 0 0 159
14.2191 28.085 26.3565 0 0 185
12.7596 28.6405 24.4463 0 0 192
12.1302 27.5866 24.6154 0 0 163
13.4136 27.7086 25.3355 0 0 163
13.0373 33.7647 27.746 0 0 172
12.5065 32.9249 28.7965 0 0 204
11.8817 34.1584 28.8029 0 0 172
14.0692 33.2091 26.5471 0 0 139
13.0373 33.7647 27.746 0 0 139
14.6001 32.5765 25.2524 0 0 167
14.1931 31.8987 26.4449 0 0 198
14.0692 33.2091 26.5471 0 0 167
14.7034 31.7876 23.8829 0 0 136
14.6001 32.5765 25.2524 0 0 136
14.0092 31.265 22.7814 0 0 160
14.0299 30.7436 24.0487 0 0 187
14.7034 31.7876 23.8829 0 0 160
12.7927 30.9495 21.9246 0 0 134
14.0092 31.265 22.7814 0 0 134
11.1166 31.1224 21.5668 0 0 172
11.6597 30.394 22.5895 0 0 206
12.7927 30.9495 21.9246 0 0 172
10.3849 32.1704 20.8139 0 0 180
9.25186 31.6149 21.4788 0 0 216
11.1166 31.1224 21.5668 0 0 180
9.9078 33.0142 19.8123 0 0 146
10.3849 32.1704 20.8139 0 0 146
7.92518 33.5989 19.7767 0 0 149
9.9078 33.0142 19.8123 0 0 149
3 0 48 50
3 48 14 49
3 48 49 50
3 0 51 52
3 0 53 54
3 1 55 56
3 1 57 59
3 57 16 58
3 57 58 59
3 60 18 61
3 3 21 19
3 3 62 64
3 64 63 21
3 62 63 64
3 65 24 66
3 67 66 22
3 65 66 67
3 2 27 25
3 68 28 69
3 70 29 71
3 5 30 13
3 5 31 30
3 73 72 15
3 6 34 32
3 74 35 75
3 76 75 17
3 74 75 76
3 78 77 35
3 6 79 80
3 6 81 83
3 81 32 82
3 81 82 83
3 9 84 86
3 84 36 85
3 84 85 86
3 9 37 36
3 4 87 89
3 87 38 88
3 87 88 89
3 10 39 20
3 10 40 39
3 10 90 92
3 92 91 40
3 90 91 92
3 7 41 33
3 11 42 23
3 11 43 42
3 93 44 94
3 96 95 44
3 8 97 99
3 97 45 98
3 97 98 99
3 12 46 26
3 12 47 46
3 100 13 101
3 14 102 104
3 102 13 103
3 102 103 104
3 14 5 13
3 105 15 106
3 16 107 109
3 107 15 108
3 107 108 109
3 16 110 112
3 112 111 15
3 110 111 112
3 113 17 114
3 115 114 6
3 113 114 115
3 18 116 118
3 116 17 117
3 116 117 118
3 18 119 121
3 121 120 17
3 119 120 121
3 122 6 123
3 124 9 125
3 19 20 4
3 21 20 19
3 21 10 20
3 21 126 128
3 128 127 10
3 126 127 128
3 130 129 21
3 22 23 7
3 24 23 22
3 24 11 23
3 25 26 8
3 27 26 25
3 27 12 26
3 28 131 132
3 28 133 135
3 133 1 134
3 133 134 135
3 29 136 137
3 29 138 140
3 138 4 139
3 138 139 140
3 13 141 143
3 141 29 142
3 141 142 143
3 30 29 13
3 30 4 29
3 30 19 4
3 31 19 30
3 31 3 19
3 145 144 2
3 15 146 147
3 149 148 15
3 32 33 0
3 34 33 32
3 34 7 33
3 17 34 6
3 35 34 17
3 35 7 34
3 35 22 7
3 150 22 151
3 152 151 35
3 150 151 152
3 154 153 22
3 155 18 156
3 157 18 158
3 160 159 18
3 32 161 162
3 32 163 165
3 163 0 164
3 163 164 165
3 166 8 167
3 36 168 169
3 36 170 172
3 170 8 171
3 170 171 172
3 36 25 8
3 37 25 36
3 37 2 25
3 38 173 174
3 38 175 177
3 175 9 176
3 175 176 177
3 20 38 4
3 39 38 20
3 39 9 38
3 39 37 9
3 40 37 39
3 40 2 37
3 40 178 180
3 180 179 2
3 178 179 180
3 182 181 40
3 184 183 10
3 33 14 0
3 41 14 33
3 41 5 14
3 23 41 7
3 42 41 23
3 42 5 41
3 42 31 5
3 43 31 42
3 43 3 31
3 185 24 186
3 187 24 188
3 189 11 190
3 191 190 24
3 189 190 191
3 44 192 193
3 44 194 196
3 194 11 195
3 194 195 196
3 44 43 11
3 197 43 198
3 199 198 44
3 197 198 199
3 200 3 201
3 202 201 43
3 200 201 202
3 204 203 3
3 45 205 206
3 45 207 208
3 26 45 8
3 46 45 26
3 46 209 211
3 211 210 45
3 209 210 211
3 46 212 214
3 212 28 213
3 212 213 214
3 47 28 46
3 47 1 28
3 215 27 216
3 217 216 2
3 215 216 217
3 218 27 219
3 220 12 221
3 222 221 27
3 220 221 222
3 223 12 224
3 225 47 226
3 227 226 12
3 225 226 227
3 228 47 229
3 230 1 231
3 232 231 47
3 230 231 232
3 233 16 234
3 235 234 1
3 233 234 235
3 236 16 237
3 239 238 16
