ply
format ascii 1.0
element vertex 611
property float x
property float y
property float z
property uchar red
property uchar green
property uchar blue
element face 705
property list uchar int vertex_index
end_header
-8.31445 42.5298 -32.8777 255 175 0
2.68846 34.2486 -29.2774 251 255 4
0.115778 69.9837 -29.8179 0 237 255
-4.59244 81.9616 -22.8254 216 255 39
-17.4401 41.0457 -31.1399 255 157 0
-22.6119 27.3979 -30.7743 0 244 255
-15.1358 26.8968 -30.7178 255 255 0
-1.18479 40.4504 -33.0027 210 255 45
-8.14499 24.717 -29.6749 0 237 255
-12.5663 56.2379 -31.0807 210 0 0
-16.539 79.1163 -21.8876 255 226 0
-7.82279 71.09 -29.748 255 25 0
-2.80316 57.7367 -34.1808 244 255 11
2.19341 53.7468 -32.1914 145 255 110
3.46429 46.2576 -24.1941 255 232 0
-12.6919 42.0333 -32.1469 255 157 0
-15.639 34.3919 -31.5442 255 233 0
-11.5301 34.5884 -31.7158 255 205 0
1.16543 37.729 -31.8151 133 255 122
-1.39598 30.2289 -30.8426 255 247 0
0.845982 26.9113 -29.4685 0 233 255
-18.4349 54.1884 -28.8707 210 255 45
-16.2716 61.7863 -28.4138 255 248 0
-14.4517 83.2609 -18.1954 117 255 138
-1.80488 76.7332 -26.7955 7 255 248
-5.89979 77.2364 -27.1717 255 179 0
-2.93169 71.4413 -30.6384 211 255 44
-4.82817 64.9244 -32.5948 255 154 0
-0.881121 64.3898 -32.9938 114 255 141
0.400566 56.4056 -33.9965 72 255 183
1.39439 62.2383 -31.6798 125 255 130
3.79989 30.3628 -25.5257 255 60 0
-7.44413 87.603 -12.1494 255 249 0
-8.33 85.1144 -18.1841 255 190 0
-3.96704 85.2352 -16.9297 0 144 255
-22.3113 39.9523 -30.0353 255 220 0
-24.0584 33.5171 -30.1752 0 132 255
-19.9307 33.9503 -31.0573 231 255 24
-18.885 27.2128 -30.9712 190 255 65
-4.41563 42.0847 -33.2162 255 209 0
-7.72314 34.1388 -31.6423 255 178 0
-4.2911 32.7066 -31.413 255 182 0
-25.8525 45.149 -28.1025 0 220 255
-20.4626 46.8544 -29.4611 231 255 24
-15.009 48.5305 -31.0979 255 43 0
-9.91527 49.8519 -32.7238 255 94 0
-9.81862 81.2945 -22.917 255 100 0
-11.8018 75.9446 -26.0488 219 0 0
-14.0254 69.2485 -27.6994 255 255 0
-10.1261 63.9061 -30.838 192 0 0
-7.25 57.5875 -33.0621 255 77 0
-5.37838 50.347 -33.8912 255 182 0
-1.62847 49.6056 -34.2841 198 255 57
1.04716 47.5517 -33.5408 81 255 174
2.59497 44.4709 -31.282 186 255 69
2.25906 58.8879 -28.6985 0 216 255
2.94889 50.2216 -28.77 255 142 0
3.43887 40.7709 -27.5371 255 104 0
4.24495 36.749 -22.8673 233 0 0
-11.5407 26.1727 -30.2036 136 255 119
-10.4502 42.3725 -32.557 255 166 0
-11.9655 38.4349 -32.1078 255 191 0
-9.88255 38.5536 -32.2921 255 188 0
2.01084 36.0607 -30.7209 166 255 89
1.05654 32.4354 -30.6622 172 255 83
1.91849 30.6591 -29.5423 208 255 47
-13.5522 84.7678 -15.8333 6 255 249
-0.749981 73.511 -28.4394 0 177 255
-2.2639 74.2588 -28.9573 158 255 97
-1.16083 70.9393 -30.456 117 255 138
-1.80043 68.0464 -31.9725 157 255 98
-0.258581 67.3368 -31.6652 89 255 166
0.467056 63.4995 -32.5584 73 255 182
0.8225 66.2123 -30.9062 120 255 135
4.35495 28.3695 -23.3727 169 255 86
3.95628 24.8237 -24.5058 32 255 223
-5.40602 87.7136 -11.2084 0 154 255
-5.58869 86.72 -14.5844 62 255 193
-19.8878 40.4954 -30.5948 255 178 0
-20.9606 37.0499 -30.6873 255 250 0
-18.6707 37.4402 -31.1288 255 218 0
-15.2239 30.7446 -31.2518 255 250 0
-17.2192 30.7246 -31.2427 236 255 19
-16.9977 27.085 -30.8902 224 255 31
-18.8656 23.62 -30.6401 0 222 255
-17.1068 23.2878 -30.3847 0 245 255
-2.70083 41.4177 -33.1994 255 247 0
-4.25019 37.5341 -32.4145 255 200 0
-2.64099 36.6377 -32.279 255 231 0
-1.74229 24.7773 -29.6889 0 200 255
-3.07626 26.3111 -30.0625 51 255 204
-23.2068 45.9912 -28.7507 95 255 160
-15.449 55.2698 -29.9577 182 0 0
-16.5892 51.4583 -30.0898 234 0 0
-13.7905 52.3692 -31.0904 248 0 0
-12.4029 49.2629 -31.9428 255 62 0
-11.1071 53.1532 -32.07 255 27 0
-20.1823 77.6497 -21.1938 0 199 255
-17.6505 76.4356 -23.1975 197 255 58
-6.34908 83.8229 -20.569 255 243 0
-9.00014 83.3889 -20.7394 255 151 0
-6.9687 81.8566 -23.0501 255 194 0
-6.7969 74.3244 -28.675 255 101 0
-8.66706 76.7859 -26.7601 255 57 0
-9.69655 73.7052 -27.9773 237 0 0
-12.8997 72.7348 -27.0329 255 159 0
-10.8026 70.3224 -28.8159 175 0 0
-11.9533 66.7104 -29.3461 137 0 0
-8.94379 67.5934 -30.4433 223 0 0
-3.70108 61.4482 -33.5655 255 216 0
-5.99277 61.3301 -32.9739 255 102 0
-4.8942 57.8386 -33.7599 255 165 0
-6.19424 54.0864 -33.6689 255 138 0
-4.03042 54.1136 -34.1736 255 212 0
-3.38606 50.1455 -34.2034 255 241 0
-2.11767 53.7921 -34.4205 212 255 43
1.46492 55.2167 -33.3071 70 255 185
0.79631 52.092 -33.9488 71 255 184
1.7646 50.7748 -33.1363 81 255 174
1.94687 46.1136 -32.613 102 255 153
2.43923 49.217 -31.9066 162 255 93
3.03157 50.6863 -24.4927 44 255 211
2.82081 52.7025 -26.8124 122 255 133
3.18502 48.2774 -26.5838 255 57 0
3.21595 45.6087 -28.2966 255 125 0
3.51279 43.6479 -26.0488 255 41 0
3.81033 38.7888 -25.2701 255 24 0
3.86704 41.6165 -23.6277 243 0 0
4.92535 37.3439 -18.6318 0 210 255
-23.1719 30.5291 -30.5758 0 195 255
-7.80436 29.5413 -30.6949 255 162 0
-9.56206 30.1273 -30.8754 255 181 0
-9.81579 25.5523 -29.9271 65 255 190
-15.0287 41.5727 -31.6655 255 152 0
-16.3799 37.8264 -31.5169 255 201 0
-14.1356 38.1738 -31.8472 255 194 0
-13.5503 34.5442 -31.6675 255 219 0
-13.2763 30.6842 -31.1794 255 227 0
0.10648 39.2076 -32.5623 157 255 98
-1.21083 35.467 -31.985 232 255 23
0.021528 34.0528 -31.4658 187 255 68
-0.194881 28.6559 -30.2838 64 255 191
-17.367 57.9728 -28.6385 242 255 13
-14.2914 59.1155 -29.8316 145 0 0
-15.4596 81.3895 -20.2208 137 255 118
-3.0788 79.5759 -24.9134 172 255 83
-5.15937 79.7869 -25.2172 255 246 0
-3.59142 77.2317 -27.1994 209 255 46
-4.29403 74.525 -29.0251 255 238 0
-5.17229 71.4818 -30.3841 255 160 0
-6.19917 68.1487 -31.3058 255 86 0
-3.79553 68.3137 -31.8386 255 225 0
-2.65672 64.8674 -32.9943 225 255 30
-1.73954 61.1762 -33.815 176 255 79
-1.02595 57.2571 -34.2751 143 255 112
-0.153492 60.5046 -33.6752 86 255 169
1.03642 59.4562 -33.112 67 255 188
1.84787 58.0827 -32.1144 133 255 122
3.85891 44.1701 -21.6908 68 255 187
-22.3703 24.159 -30.8249 0 171 255
-24.0558 24.3934 -30.7023 0 29 255
3.26244 32.3359 -27.5225 255 154 0
2.65259 28.768 -28.1116 111 255 144
3.31456 26.8069 -26.4112 90 255 165
-9.92409 86.9849 -12.8025 54 255 201
-10.4948 85.8214 -15.7085 170 255 85
-7.815 86.5067 -15.3013 255 221 0
-5.89344 85.4333 -17.7261 231 255 24
-4.20036 83.7695 -20.0413 46 255 209
-2.75418 81.554 -22.2082 0 206 255
-1.54899 78.852 -24.1905 0 130 255
0.927254 68.6242 -28.7454 0 146 255
-24.6302 39.4362 -29.4358 8 255 247
-23.1835 36.6772 -30.1766 66 255 189
-22.0458 33.7248 -30.6782 192 255 63
-21.2389 30.5949 -30.9242 171 255 84
-17.7775 34.181 -31.3418 255 251 0
-19.2375 30.6651 -31.1385 207 255 48
-20.7695 27.311 -30.9403 153 255 102
-20.6292 23.9037 -30.795 0 197 255
-9.49146 87.8859 -9.6573 0 211 255
-7.19053 88.431 -8.7854 0 176 255
-6.29644 42.4483 -33.1006 255 188 0
-7.89403 38.4724 -32.403 255 185 0
-6.01023 38.1429 -32.4459 255 186 0
-5.95195 33.557 -31.5492 255 173 0
-6.12524 28.7114 -30.514 165 255 90
-2.76499 31.5902 -31.1971 255 208 0
-4.54241 27.6309 -30.3174 66 255 189
1.75389 25.0382 -28.3724 0 176 255
-26.3493 41.9935 -28.5052 0 185 255
-23.9551 42.6518 -29.1489 255 194 0
-21.4095 43.3449 -29.7777 255 139 0
-18.8074 44.0531 -30.4336 255 108 0
-19.4691 50.4738 -29.1459 171 255 84
-17.7089 47.7123 -30.2522 255 41 0
-16.2233 44.7488 -31.1191 255 98 0
-13.7076 45.3936 -31.804 255 105 0
-11.2897 45.9366 -32.4434 255 123 0
-8.98645 46.3174 -32.9956 255 145 0
-11.2136 84.3575 -18.3233 255 118 0
-12.0722 82.5478 -20.5981 255 84 0
-13.0462 80.3539 -22.4974 255 35 0
-7.74788 79.5116 -25.1213 255 132 0
-10.7632 78.8108 -24.6872 255 35 0
-14.1012 77.7607 -24.0086 229 0 0
-15.2002 74.7865 -25.1482 219 255 36
-15.1546 65.5702 -28.1294 255 243 0
-13.1224 62.9496 -29.6545 128 0 0
-11.3406 60.0999 -31.0211 189 0 0
-7.33988 64.5866 -31.8506 255 32 0
-8.55799 60.8608 -32.1002 255 6 0
-9.82145 57.0326 -32.145 255 6 0
-8.56539 53.7473 -32.951 255 76 0
-7.56575 50.2336 -33.3867 255 134 0
-6.81266 46.4737 -33.4313 255 171 0
-4.78927 46.3523 -33.7294 255 205 0
-2.94672 45.9184 -33.8643 255 251 0
-1.32134 45.1625 -33.7948 198 255 57
-0.498903 53.1119 -34.3624 127 255 128
-0.143183 48.7313 -34.0822 125 255 130
0.054691 44.1004 -33.4632 135 255 120
1.16599 42.7682 -32.8074 102 255 153
2.02438 41.2133 -31.7814 130 255 125
2.67326 39.4856 -30.3744 216 255 39
1.48889 64.735 -29.7188 0 224 255
1.9585 60.6747 -30.3783 61 255 194
2.34571 56.4529 -30.6988 244 255 11
2.63048 54.6388 -28.9087 155 255 100
2.65514 52.061 -30.6637 255 252 0
2.89141 47.4776 -30.2761 255 234 0
3.0628 42.6755 -29.57 255 211 0
3.18183 37.6311 -28.617 255 183 0
3.62947 35.6887 -26.5761 255 82 0
4.08801 33.6906 -24.3412 255 8 0
4.60625 31.6636 -22.0087 255 207 0
4.3328 39.519 -21.1275 255 202 0
4.77809 34.6604 -20.424 255 202 0
5.20068 29.6301 -19.6708 0 203 255
-9.58596 34.4701 -31.7016 255 191 0
-11.3876 30.4947 -31.0452 255 204 0
-13.3148 26.6074 -30.4785 255 224 0
-13.6653 22.3469 -29.6863 0 201 255
-15.3707 22.8758 -30.0558 13 255 242
-13.1693 85.3656 -14.5029 0 0 144
-14.7513 84.713 -14.5621 0 0 144
4.48381 25.621 -22.9214 0 0 150
4.65582 27.3837 -22.2623 0 0 150
-4.63337 87.051 -12.385 0 0 133
-4.62275 87.4841 -10.6053 0 0 133
-2.66295 22.8198 -29.3364 0 0 141
-2.0001 21.9787 -29.1609 0 0 141
-18.3606 78.383 -21.5407 0 0 221
-19.6144 78.8216 -20.447 0 0 184
-17.7927 79.5548 -20.7939 0 0 184
-23.49 27.438 -30.6088 0 0 151
-23.77 29.0036 -30.5095 0 0 151
-22.8919 28.9635 -30.675 0 0 171
0.151188 24.9874 -29.3019 0 0 162
-0.369244 25.8597 -29.7096 0 0 162
0.325551 27.7836 -29.8762 0 0 188
-16.8193 59.8795 -28.5261 0 0 244
-18.4444 59.2254 -27.9348 0 0 199
-17.8967 61.1322 -27.8224 0 0 199
-16.1934 82.5895 -18.0351 0 0 144
-15.6711 83.3576 -16.9622 0 0 144
-14.9556 82.3252 -19.2081 0 0 216
-16.6974 81.6538 -19.0478 0 0 181
-16.1934 82.5895 -18.0351 0 0 181
-23.194 22.7105 -30.8665 0 0 129
-22.3966 22.5065 -30.8201 0 0 129
3.64719 22.9591 -24.9542 0 0 144
4.02453 21.9795 -24.0621 0 0 144
-2.11244 81.0884 -21.708 0 0 133
-2.67577 82.3679 -20.6787 0 0 133
-1.50985 79.7375 -22.6992 0 0 157
-2.15158 80.203 -23.1993 0 0 180
-2.11244 81.0884 -21.708 0 0 157
-19.8313 22.0156 -30.6151 0 0 133
-19.0136 21.7721 -30.4498 0 0 133
-10.5816 87.7452 -8.39455 0 0 141
-10.8272 87.3917 -9.95736 0 0 141
-7.10386 88.7173 -7.02137 0 0 138
-8.18085 88.4883 -7.55309 0 0 138
-6.24841 88.433 -8.22035 0 0 134
-7.10386 88.7173 -7.02137 0 0 134
-4.77795 24.9966 -29.7773 0 0 173
-3.80934 26.971 -30.1899 0 0 204
-4.04488 24.3367 -29.6499 0 0 173
-5.54073 25.6418 -29.8848 0 0 142
-4.77795 24.9966 -29.7773 0 0 142
2.16192 24.0601 -27.6887 0 0 165
2.20324 26.9031 -28.242 0 0 192
2.61127 25.9251 -27.5583 0 0 165
-27.0714 44.7494 -27.7775 0 0 139
-26.9025 46.2998 -27.541 0 0 139
-26.1009 43.5712 -28.3038 0 0 196
-27.3198 43.1717 -27.9788 0 0 167
-27.0714 44.7494 -27.7775 0 0 167
-18.952 52.3311 -29.0083 0 0 232
-20.4745 51.758 -28.5234 0 0 191
-19.9573 53.6153 -28.3858 0 0 191
-15.1681 70.3671 -26.831 0 0 198
-14.6052 72.1102 -26.4978 0 0 198
-13.4626 70.9917 -27.3661 0 0 242
-15.7174 68.5938 -27.1113 0 0 154
-15.1681 70.3671 -26.831 0 0 154
-14.59 67.4094 -27.9144 0 0 246
-16.2821 66.7546 -27.3264 0 0 201
-15.7174 68.5938 -27.1113 0 0 201
1.4241 65.8376 -28.5031 0 0 165
1.20807 66.6796 -29.2321 0 0 192
1.14328 67.7822 -28.0164 0 0 165
2.10878 59.7813 -29.5384 0 0 198
1.89715 61.8311 -29.2642 0 0 168
2.04744 60.9377 -28.4243 0 0 168
4.36706 40.7608 -20.1405 0 0 189
4.09585 41.8445 -21.4092 0 0 229
4.13011 43.0863 -20.4222 0 0 189
5.09324 33.5901 -19.2247 0 0 187
4.85172 36.0022 -19.5279 0 0 226
5.16687 34.9319 -18.3286 0 0 187
5.30453 31.075 -18.8481 0 0 189
4.98938 32.1452 -20.0474 0 0 228
5.09324 33.5901 -19.2247 0 0 189
5.52744 28.6183 -18.5417 0 0 147
5.30453 31.075 -18.8481 0 0 147
-24.98 33.4234 -29.8398 0 0 131
-24.6599 34.9254 -29.8661 0 0 131
-24.8547 24.4973 -30.5491 0 0 128
-24.807 23.0126 -30.7709 0 0 128
-14.7927 20.5369 -29.5402 0 0 139
-13.9949 20.1517 -29.308 0 0 139
-15.6454 20.8013 -29.725 0 0 166
-14.518 22.6113 -29.8711 0 0 194
-14.7927 20.5369 -29.5402 0 0 166
-16.4519 21.124 -29.953 0 0 137
-15.6454 20.8013 -29.725 0 0 137
-17.3769 63.0131 -27.6651 0 0 154
-17.8967 61.1322 -27.8224 0 0 154
-15.2214 84.1111 -15.7812 0 0 144
-14.7513 84.713 -14.5621 0 0 144
-14.0019 84.0144 -17.0143 0 0 214
-15.6711 83.3576 -16.9622 0 0 179
-15.2214 84.1111 -15.7812 0 0 179
4.28448 23.8481 -23.4879 0 0 183
4.15562 26.5966 -23.9393 0 0 220
4.48381 25.621 -22.9214 0 0 183
4.02453 21.9795 -24.0621 0 0 148
4.28448 23.8481 -23.4879 0 0 148
-4.7247 86.5541 -14.073 0 0 156
-5.49736 87.2168 -12.8964 0 0 179
-4.63337 87.051 -12.385 0 0 156
-3.91388 85.8118 -15.2457 0 0 158
-4.77786 85.9776 -15.757 0 0 182
-4.7247 86.5541 -14.073 0 0 158
-18.1342 21.606 -30.3221 0 0 159
-19.0136 21.7721 -30.4498 0 0 159
-17.9862 23.4539 -30.5124 0 0 184
-3.32994 23.5868 -29.5232 0 0 170
-2.40927 25.5442 -29.8757 0 0 201
-2.66295 22.8198 -29.3364 0 0 170
-4.04488 24.3367 -29.6499 0 0 142
-3.32994 23.5868 -29.5232 0 0 142
-25.5468 46.7946 -27.8541 0 0 142
-26.9025 46.2998 -27.541 0 0 142
-24.224 47.2157 -28.1782 0 0 174
-24.5296 45.5701 -28.4266 0 0 207
-25.5468 46.7946 -27.8541 0 0 174
-22.7928 47.7241 -28.5323 0 0 146
-24.224 47.2157 -28.1782 0 0 146
-21.4207 48.1557 -28.8875 0 0 179
-21.8347 46.4228 -29.1059 0 0 214
-22.7928 47.7241 -28.5323 0 0 179
-21.4505 78.032 -20.1622 0 0 146
-19.6144 78.8216 -20.447 0 0 146
-22.0257 76.825 -20.8538 0 0 146
-21.4505 78.032 -20.1622 0 0 146
-20.7435 76.273 -21.7804 0 0 148
-22.0257 76.825 -20.8538 0 0 148
-19.4776 75.6659 -22.7823 0 0 188
-20.7435 76.273 -21.7804 0 0 188
-18.9164 77.0426 -22.1956 0 0 228
-18.205 74.9084 -23.6887 0 0 151
-19.4776 75.6659 -22.7823 0 0 151
2.12484 59.9718 -27.4825 0 0 142
2.04744 60.9377 -28.4243 0 0 142
2.92619 51.6944 -25.6525 0 0 220
2.69577 53.8158 -25.6464 0 0 183
2.80116 52.8077 -24.4865 0 0 183
5.00413 38.535 -17.6394 0 0 149
4.66333 39.6733 -18.8927 0 0 149
5.27413 36.204 -17.4209 0 0 149
5.00413 38.535 -17.6394 0 0 149
5.16687 34.9319 -18.3286 0 0 149
5.27413 36.204 -17.4209 0 0 149
-24.0764 30.4998 -30.3169 0 0 152
-24.5197 31.9938 -30.1166 0 0 152
-23.6151 32.0231 -30.3755 0 0 173
-24.0764 30.4998 -30.3169 0 0 131
-23.77 29.0036 -30.5095 0 0 131
-1.14295 23.9204 -29.4121 0 0 166
-0.968583 26.7166 -29.9864 0 0 193
-0.369244 25.8597 -29.7096 0 0 166
-2.0001 21.9787 -29.1609 0 0 139
-1.14295 23.9204 -29.4121 0 0 139
-19.4792 55.458 -28.207 0 0 151
-19.9573 53.6153 -28.3858 0 0 151
-18.9453 57.3502 -28.0909 0 0 153
-18.4444 59.2254 -27.9348 0 0 153
-17.9009 56.0806 -28.7546 0 0 239
-19.4792 55.458 -28.207 0 0 196
-18.9453 57.3502 -28.0909 0 0 196
-17.253 80.6915 -19.9605 0 0 145
-16.6974 81.6538 -19.0478 0 0 145
-15.9993 80.2529 -21.0542 0 0 220
-17.7927 79.5548 -20.7939 0 0 183
-17.253 80.6915 -19.9605 0 0 183
2.92391 51.7669 -23.2961 0 0 147
2.80116 52.8077 -24.4865 0 0 147
3.19204 49.6471 -23.2631 0 0 148
2.92391 51.7669 -23.2961 0 0 148
3.40841 47.4327 -23.1138 0 0 186
3.24793 48.472 -24.3434 0 0 224
3.19204 49.6471 -23.2631 0 0 186
3.60572 46.389 -21.8622 0 0 187
3.6616 45.2138 -22.9425 0 0 226
3.40841 47.4327 -23.1138 0 0 187
3.84632 45.3152 -20.5999 0 0 149
3.60572 46.389 -21.8622 0 0 149
4.13011 43.0863 -20.4222 0 0 149
3.84632 45.3152 -20.5999 0 0 149
-24.0367 22.8277 -30.8052 0 0 149
-23.213 24.2762 -30.7636 0 0 168
-23.194 22.7105 -30.8665 0 0 149
-24.807 23.0126 -30.7709 0 0 128
-24.0367 22.8277 -30.8052 0 0 128
-9.24967 22.7572 -29.3258 0 0 142
-8.45014 22.2228 -29.185 0 0 142
2.94226 24.9445 -26.7081 0 0 173
2.61127 25.9251 -27.5583 0 0 173
2.98358 27.7875 -27.2614 0 0 204
3.32633 23.9507 -25.9069 0 0 181
3.63542 25.8153 -25.4585 0 0 216
3.64719 22.9591 -24.9542 0 0 181
2.94226 24.9445 -26.7081 0 0 141
3.32633 23.9507 -25.9069 0 0 141
-10.2094 86.4032 -14.2555 0 0 209
-11.6406 85.8923 -14.4405 0 0 176
-11.3553 86.4741 -12.9875 0 0 176
-3.26974 84.8603 -16.3708 0 0 133
-3.91388 85.8118 -15.2457 0 0 133
-3.2822 84.2085 -18.0394 0 0 133
-3.26974 84.8603 -16.3708 0 0 133
-3.39886 83.4757 -19.5952 0 0 156
-4.0837 84.5024 -18.4855 0 0 179
-3.2822 84.2085 -18.0394 0 0 156
-3.47727 82.6618 -21.1247 0 0 180
-3.39886 83.4757 -19.5952 0 0 157
-2.67577 82.3679 -20.6787 0 0 157
-1.05206 78.2457 -23.633 0 0 134
-1.50985 79.7375 -22.6992 0 0 134
-1.05369 77.2981 -25.0741 0 0 134
-1.05206 78.2457 -23.633 0 0 134
-1.18164 76.2387 -26.3766 0 0 154
-1.67693 77.7926 -25.493 0 0 177
-1.05369 77.2981 -25.0741 0 0 154
-0.654186 74.6276 -27.1985 0 0 154
-1.27743 75.1221 -27.6174 0 0 176
-1.18164 76.2387 -26.3766 0 0 154
-0.247656 72.9112 -27.9615 0 0 132
-0.654186 74.6276 -27.1985 0 0 132
0.185223 71.1476 -28.6508 0 0 154
-0.317101 71.7474 -29.1286 0 0 177
-0.247656 72.9112 -27.9615 0 0 154
0.590962 70.4678 -28.1146 0 0 156
0.521516 69.304 -29.2816 0 0 179
0.185223 71.1476 -28.6508 0 0 156
0.873375 69.6768 -27.4416 0 0 136
0.590962 70.4678 -28.1146 0 0 136
1.14328 67.7822 -28.0164 0 0 138
0.873375 69.6768 -27.4416 0 0 138
-24.9459 37.885 -29.4964 0 0 134
-25.6917 39.1979 -29.0885 0 0 134
-24.2225 36.5055 -29.8668 0 0 158
-24.9459 37.885 -29.4964 0 0 158
-23.9068 38.0567 -29.8062 0 0 182
-23.6209 35.0972 -30.1759 0 0 183
-24.6599 34.9254 -29.8661 0 0 158
-24.2225 36.5055 -29.8668 0 0 158
-21.5261 22.3788 -30.8052 0 0 152
-22.3966 22.5065 -30.8201 0 0 152
-21.4998 24.0314 -30.81 0 0 174
-20.7131 22.1574 -30.6926 0 0 156
-19.7474 23.7619 -30.7175 0 0 179
-19.8313 22.0156 -30.6151 0 0 156
-21.5261 22.3788 -30.8052 0 0 131
-20.7131 22.1574 -30.6926 0 0 131
-11.0435 86.9412 -11.5299 0 0 142
-11.3553 86.4741 -12.9875 0 0 142
-9.70778 87.4354 -11.2299 0 0 207
-11.0435 86.9412 -11.5299 0 0 174
-10.8272 87.3917 -9.95736 0 0 174
-9.33132 88.2158 -7.98904 0 0 141
-10.5816 87.7452 -8.39455 0 0 141
-8.341 88.1584 -9.22135 0 0 194
-9.33132 88.2158 -7.98904 0 0 166
-8.18085 88.4883 -7.55309 0 0 166
-5.35616 88.0743 -9.43187 0 0 160
-6.29828 88.0723 -9.99692 0 0 185
-6.24841 88.433 -8.22035 0 0 160
-4.62275 87.4841 -10.6053 0 0 132
-5.35616 88.0743 -9.43187 0 0 132
-6.33214 26.1821 -29.9831 0 0 174
-5.33383 28.1712 -30.4157 0 0 205
-5.54073 25.6418 -29.8848 0 0 174
-7.34201 24.1849 -29.5635 0 0 174
-7.13511 26.7142 -30.0944 0 0 207
-6.33214 26.1821 -29.9831 0 0 174
-8.45014 22.2228 -29.185 0 0 142
-7.34201 24.1849 -29.5635 0 0 142
1.63371 22.1485 -27.8514 0 0 139
2.16192 24.0601 -27.6887 0 0 139
1.14329 23.1237 -28.3641 0 0 137
1.63371 22.1485 -27.8514 0 0 137
0.689341 24.0603 -28.9121 0 0 163
1.29994 25.9748 -28.9205 0 0 190
1.14329 23.1237 -28.3641 0 0 163
0.151188 24.9874 -29.3019 0 0 137
0.689341 24.0603 -28.9121 0 0 137
-27.4186 41.6895 -28.1389 0 0 134
-27.3198 43.1717 -27.9788 0 0 134
-26.5513 40.4766 -28.6232 0 0 135
-27.4186 41.6895 -28.1389 0 0 135
-25.4898 40.7148 -28.9705 0 0 184
-25.6917 39.1979 -29.0885 0 0 159
-26.5513 40.4766 -28.6232 0 0 159
-20.924 49.9654 -28.7299 0 0 148
-20.4745 51.758 -28.5234 0 0 148
-19.9659 48.6641 -29.3035 0 0 223
-21.4207 48.1557 -28.8875 0 0 185
-20.924 49.9654 -28.7299 0 0 185
-12.0235 85.2946 -15.7709 0 0 209
-13.1693 85.3656 -14.5029 0 0 176
-11.6406 85.8923 -14.4405 0 0 176
-16.9798 74.0839 -24.6641 0 0 193
-18.205 74.9084 -23.6887 0 0 193
-16.4253 75.6111 -24.1728 0 0 234
-15.7555 73.1361 -25.5555 0 0 195
-14.0499 73.7606 -26.0906 0 0 238
-14.6052 72.1102 -26.4978 0 0 195
-16.9798 74.0839 -24.6641 0 0 153
-15.7555 73.1361 -25.5555 0 0 153
-16.8184 64.9051 -27.5229 0 0 155
-16.2821 66.7546 -27.3264 0 0 155
-15.7131 63.6782 -28.2716 0 0 247
-17.3769 63.0131 -27.6651 0 0 201
-16.8184 64.9051 -27.5229 0 0 201
1.66235 63.8612 -28.9345 0 0 139
1.4241 65.8376 -28.5031 0 0 139
1.72369 62.7049 -30.0486 0 0 194
1.66235 63.8612 -28.9345 0 0 166
1.89715 61.8311 -29.2642 0 0 166
2.33985 57.9206 -27.7024 0 0 143
2.12484 59.9718 -27.4825 0 0 143
2.62072 54.8279 -26.7594 0 0 146
2.69577 53.8158 -25.6464 0 0 146
2.52556 55.7961 -27.8075 0 0 177
2.62072 54.8279 -26.7594 0 0 177
2.72564 53.6707 -27.8606 0 0 211
2.44477 56.7634 -28.8036 0 0 208
2.33985 57.9206 -27.7024 0 0 176
2.52556 55.7961 -27.8075 0 0 176
4.78147 29.0308 -21.5803 0 0 186
4.65582 27.3837 -22.2623 0 0 186
4.4806 30.0165 -22.6907 0 0 224
4.62908 38.4315 -19.8796 0 0 228
4.36706 40.7608 -20.1405 0 0 188
4.66333 39.6733 -18.8927 0 0 188
5.07868 28.014 -20.4114 0 0 190
4.78147 29.0308 -21.5803 0 0 190
4.90346 30.6468 -20.8398 0 0 230
5.40219 27.0626 -19.3089 0 0 148
5.07868 28.014 -20.4114 0 0 148
5.40219 27.0626 -19.3089 0 0 148
5.52744 28.6183 -18.5417 0 0 148
-24.98 33.4234 -29.8398 0 0 131
-24.5197 31.9938 -30.1166 0 0 131
-24.212 25.9357 -30.5728 0 0 150
-23.49 27.438 -30.6088 0 0 150
-23.3339 25.8956 -30.7383 0 0 171
-24.212 25.9357 -30.5728 0 0 128
-24.8547 24.4973 -30.5491 0 0 128
-10.0851 23.1749 -29.452 0 0 173
-8.98039 25.1347 -29.801 0 0 205
-9.24967 22.7572 -29.3258 0 0 173
-10.9042 23.6082 -29.6209 0 0 141
-10.0851 23.1749 -29.452 0 0 141
-11.7667 23.9184 -29.7591 0 0 171
-10.6782 25.8625 -30.0654 0 0 201
-10.9042 23.6082 -29.6209 0 0 171
-12.829 22.0055 -29.5005 0 0 139
-13.9949 20.1517 -29.308 0 0 139
-12.603 24.2598 -29.945 0 0 199
-11.7667 23.9184 -29.7591 0 0 170
-12.829 22.0055 -29.5005 0 0 170
-17.32 21.33 -30.1175 0 0 162
-16.2388 23.0818 -30.2202 0 0 189
-16.4519 21.124 -29.953 0 0 162
-18.1342 21.606 -30.3221 0 0 135
-17.32 21.33 -30.1175 0 0 135
3 0 62 60
3 1 65 63
3 244 66 245
3 2 69 67
3 2 71 69
3 2 73 71
3 247 246 74
3 249 248 76
3 4 80 78
3 6 83 81
3 6 85 83
3 7 88 86
3 251 250 89
3 9 94 92
3 9 96 94
3 10 252 254
3 252 97 253
3 252 253 254
3 10 98 97
3 3 101 99
3 11 104 102
3 11 106 104
3 11 108 106
3 12 111 109
3 12 113 111
3 12 115 113
3 13 118 116
3 13 120 118
3 14 123 121
3 14 125 123
3 14 127 125
3 5 255 257
3 257 256 129
3 255 256 257
3 8 132 130
3 15 135 133
3 17 136 61
3 17 137 136
3 18 140 138
3 20 141 64
3 20 258 260
3 260 259 141
3 258 259 260
3 22 261 263
3 261 142 262
3 261 262 263
3 22 143 142
3 23 264 265
3 23 266 268
3 266 144 267
3 266 267 268
3 24 147 145
3 26 148 68
3 26 149 148
3 26 151 149
3 28 152 70
3 28 153 152
3 28 155 153
3 30 156 72
3 30 157 156
3 270 269 159
3 31 163 161
3 272 271 75
3 32 166 164
3 34 167 77
3 34 168 167
3 273 169 274
3 275 170 276
3 277 276 169
3 275 276 277
3 35 173 172
3 37 174 79
3 37 175 174
3 16 176 134
3 38 177 82
3 38 178 177
3 38 179 178
3 279 278 84
3 280 180 281
3 282 181 283
3 285 284 181
3 39 184 182
3 41 185 87
3 41 186 185
3 19 187 139
3 286 188 287
3 288 287 90
3 286 287 288
3 290 289 188
3 291 189 292
3 293 292 162
3 291 292 293
3 42 294 295
3 42 296 298
3 296 190 297
3 296 297 298
3 42 191 190
3 43 192 91
3 43 193 192
3 21 299 301
3 299 194 300
3 299 300 301
3 44 195 93
3 44 196 195
3 44 197 196
3 45 198 95
3 45 199 198
3 33 200 165
3 46 201 100
3 46 202 201
3 25 203 146
3 47 204 103
3 47 205 204
3 47 206 205
3 48 302 304
3 304 303 105
3 302 303 304
3 48 305 306
3 48 307 309
3 307 207 308
3 307 308 309
3 49 208 107
3 49 209 208
3 27 210 150
3 50 211 110
3 50 212 211
3 50 213 212
3 51 214 112
3 51 215 214
3 51 216 215
3 52 217 114
3 52 218 217
3 29 219 154
3 53 220 117
3 53 221 220
3 53 222 221
3 54 223 119
3 54 224 223
3 310 225 311
3 312 311 171
3 310 311 312
3 55 313 315
3 313 226 314
3 313 314 315
3 55 227 226
3 56 228 122
3 56 229 228
3 56 230 229
3 57 231 124
3 57 232 231
3 57 233 232
3 58 234 126
3 58 235 234
3 316 236 317
3 318 317 158
3 316 317 318
3 319 237 320
3 321 320 128
3 319 320 321
3 322 238 323
3 324 323 237
3 322 323 324
3 326 325 238
3 36 327 328
3 330 329 160
3 40 239 183
3 59 240 131
3 59 241 240
3 331 242 332
3 333 243 334
3 335 334 242
3 333 334 335
3 337 336 243
3 60 61 15
3 62 61 60
3 62 17 61
3 63 64 18
3 65 64 63
3 65 20 64
3 338 22 339
3 66 340 341
3 66 342 344
3 342 23 343
3 342 343 344
3 67 68 24
3 69 68 67
3 69 26 68
3 69 70 26
3 71 70 69
3 71 28 70
3 71 72 28
3 73 72 71
3 73 30 72
3 74 75 31
3 345 75 346
3 347 346 74
3 345 346 347
3 349 348 75
3 76 77 32
3 350 77 351
3 352 351 76
3 350 351 352
3 353 34 354
3 355 354 77
3 353 354 355
3 78 79 35
3 80 79 78
3 80 37 79
3 81 82 16
3 83 82 81
3 83 38 82
3 83 84 38
3 85 84 83
3 85 356 358
3 358 357 84
3 356 357 358
3 86 87 39
3 88 87 86
3 88 41 87
3 89 90 19
3 359 90 360
3 361 360 89
3 359 360 361
3 363 362 90
3 364 42 365
3 366 91 367
3 368 367 42
3 366 367 368
3 369 91 370
3 371 43 372
3 373 372 91
3 371 372 373
3 92 93 21
3 94 93 92
3 94 44 93
3 94 95 44
3 96 95 94
3 96 45 95
3 97 374 375
3 97 376 377
3 97 378 379
3 98 380 382
3 382 381 97
3 380 381 382
3 98 383 384
3 99 100 33
3 101 100 99
3 101 46 100
3 102 103 25
3 104 103 102
3 104 47 103
3 104 105 47
3 106 105 104
3 106 48 105
3 106 107 48
3 108 107 106
3 108 49 107
3 109 110 27
3 111 110 109
3 111 50 110
3 111 112 50
3 113 112 111
3 113 51 112
3 113 114 51
3 115 114 113
3 115 52 114
3 116 117 29
3 118 117 116
3 118 53 117
3 118 119 53
3 120 119 118
3 120 54 119
3 385 55 386
3 121 387 389
3 387 122 388
3 387 388 389
3 123 122 121
3 123 56 122
3 123 124 56
3 125 124 123
3 125 57 124
3 125 126 57
3 127 126 125
3 127 58 126
3 390 128 391
3 392 128 393
3 395 394 128
3 129 396 398
3 398 397 36
3 396 397 398
3 400 399 129
3 130 131 40
3 132 131 130
3 132 59 131
3 133 134 4
3 135 134 133
3 135 16 134
3 61 135 15
3 136 135 61
3 136 16 135
3 136 81 16
3 137 81 136
3 137 6 81
3 138 139 7
3 140 139 138
3 140 19 139
3 64 140 18
3 141 140 64
3 141 19 140
3 141 89 19
3 401 89 402
3 403 402 141
3 401 402 403
3 405 404 89
3 406 21 407
3 142 408 409
3 142 410 412
3 410 21 411
3 410 411 412
3 142 92 21
3 143 92 142
3 143 9 92
3 144 413 414
3 144 415 417
3 415 10 416
3 415 416 417
3 145 146 3
3 147 146 145
3 147 25 146
3 68 147 24
3 148 147 68
3 148 25 147
3 148 102 25
3 149 102 148
3 149 11 102
3 149 150 11
3 151 150 149
3 151 27 150
3 70 151 26
3 152 151 70
3 152 27 151
3 152 109 27
3 153 109 152
3 153 12 109
3 153 154 12
3 155 154 153
3 155 29 154
3 72 155 28
3 156 155 72
3 156 29 155
3 156 116 29
3 157 116 156
3 157 13 116
3 418 121 419
3 420 121 421
3 422 14 423
3 424 423 121
3 422 423 424
3 425 158 426
3 427 426 14
3 425 426 427
3 428 158 429
3 431 430 158
3 159 160 5
3 432 160 433
3 434 433 159
3 432 433 434
3 436 435 160
3 438 437 8
3 161 162 1
3 163 162 161
3 163 439 441
3 441 440 162
3 439 440 441
3 75 163 31
3 442 163 443
3 444 443 75
3 442 443 444
3 446 445 163
3 164 447 449
3 447 165 448
3 447 448 449
3 166 165 164
3 166 33 165
3 77 166 32
3 167 166 77
3 167 33 166
3 167 99 33
3 168 99 167
3 168 3 99
3 450 34 451
3 452 34 453
3 454 168 455
3 456 455 34
3 454 455 456
3 169 457 459
3 457 168 458
3 457 458 459
3 169 3 168
3 169 145 3
3 170 145 169
3 170 24 145
3 460 170 461
3 462 170 463
3 464 24 465
3 466 465 170
3 464 465 466
3 467 67 468
3 469 468 24
3 467 468 469
3 470 67 471
3 472 2 473
3 474 473 67
3 472 473 474
3 475 171 476
3 477 476 2
3 475 476 477
3 478 171 479
3 481 480 171
3 172 482 483
3 173 484 486
3 486 485 172
3 484 485 486
3 173 487 489
3 487 36 488
3 487 488 489
3 79 173 35
3 174 173 79
3 174 36 173
3 174 129 36
3 175 129 174
3 175 5 129
3 134 80 4
3 176 80 134
3 176 37 80
3 82 176 16
3 177 176 82
3 177 37 176
3 177 175 37
3 178 175 177
3 178 5 175
3 178 159 5
3 179 159 178
3 179 490 492
3 492 491 159
3 490 491 492
3 84 179 38
3 493 179 494
3 495 494 84
3 493 494 495
3 497 496 179
3 498 164 499
3 180 500 502
3 500 164 501
3 500 501 502
3 180 32 164
3 503 180 504
3 181 505 507
3 505 180 506
3 505 506 507
3 181 32 180
3 181 76 32
3 508 76 509
3 510 509 181
3 508 509 510
3 512 511 76
3 182 183 0
3 184 183 182
3 184 40 183
3 87 184 39
3 185 184 87
3 185 40 184
3 185 130 40
3 186 130 185
3 186 8 130
3 139 88 7
3 187 88 139
3 187 41 88
3 90 187 19
3 188 187 90
3 188 41 187
3 188 186 41
3 513 186 514
3 515 514 188
3 513 514 515
3 516 8 517
3 518 517 186
3 516 517 518
3 520 519 8
3 162 65 1
3 189 65 162
3 189 20 65
3 521 189 522
3 523 189 524
3 525 20 526
3 527 526 189
3 525 526 527
3 529 528 20
3 190 530 531
3 190 532 533
3 190 534 536
3 534 172 535
3 534 535 536
3 191 172 190
3 191 35 172
3 91 191 42
3 192 191 91
3 192 35 191
3 192 78 35
3 193 78 192
3 193 4 78
3 194 537 538
3 194 539 541
3 539 43 540
3 539 540 541
3 93 194 21
3 195 194 93
3 195 43 194
3 195 193 43
3 196 193 195
3 196 4 193
3 196 133 4
3 197 133 196
3 197 15 133
3 95 197 44
3 198 197 95
3 198 15 197
3 198 60 15
3 199 60 198
3 199 0 60
3 165 542 544
3 542 66 543
3 542 543 544
3 200 66 165
3 200 23 66
3 100 200 33
3 201 200 100
3 201 23 200
3 201 144 23
3 202 144 201
3 202 10 144
3 146 101 3
3 203 101 146
3 203 46 101
3 103 203 25
3 204 203 103
3 204 46 203
3 204 202 46
3 205 202 204
3 205 10 202
3 205 98 10
3 206 98 205
3 206 545 547
3 547 546 98
3 545 546 547
3 105 206 47
3 548 206 549
3 550 549 105
3 548 549 550
3 552 551 206
3 207 553 554
3 207 555 557
3 555 22 556
3 555 556 557
3 107 207 48
3 208 207 107
3 208 22 207
3 208 143 22
3 209 143 208
3 209 9 143
3 150 108 11
3 210 108 150
3 210 49 108
3 110 210 27
3 211 210 110
3 211 49 210
3 211 209 49
3 212 209 211
3 212 9 209
3 212 96 9
3 213 96 212
3 213 45 96
3 112 213 50
3 214 213 112
3 214 45 213
3 214 199 45
3 215 199 214
3 215 0 199
3 215 182 0
3 216 182 215
3 216 39 182
3 114 216 51
3 217 216 114
3 217 39 216
3 217 86 39
3 218 86 217
3 218 7 86
3 154 115 12
3 219 115 154
3 219 52 115
3 117 219 29
3 220 219 117
3 220 52 219
3 220 218 52
3 221 218 220
3 221 7 218
3 221 138 7
3 222 138 221
3 222 18 138
3 119 222 53
3 223 222 119
3 223 18 222
3 223 63 18
3 224 63 223
3 224 1 63
3 171 73 2
3 225 73 171
3 225 30 73
3 558 225 559
3 226 560 562
3 560 225 561
3 560 561 562
3 226 30 225
3 226 157 30
3 227 157 226
3 227 13 157
3 563 55 564
3 122 565 566
3 228 567 569
3 569 568 122
3 567 568 569
3 228 570 572
3 570 55 571
3 570 571 572
3 228 227 55
3 229 227 228
3 229 13 227
3 229 120 13
3 230 120 229
3 230 54 120
3 124 230 56
3 231 230 124
3 231 54 230
3 231 224 54
3 232 224 231
3 232 1 224
3 232 161 1
3 233 161 232
3 233 31 161
3 126 233 57
3 234 233 126
3 234 31 233
3 234 74 31
3 235 74 234
3 235 573 575
3 575 574 74
3 573 574 575
3 158 127 14
3 236 127 158
3 236 58 127
3 128 576 578
3 576 236 577
3 576 577 578
3 237 236 128
3 237 58 236
3 237 235 58
3 238 235 237
3 238 579 581
3 581 580 235
3 579 580 581
3 238 582 583
3 585 584 238
3 587 586 36
3 160 588 590
3 590 589 5
3 588 589 590
3 592 591 160
3 183 62 0
3 239 62 183
3 239 17 62
3 131 239 40
3 240 239 131
3 240 17 239
3 240 137 17
3 241 137 240
3 241 6 137
3 593 132 594
3 595 594 8
3 593 594 595
3 596 132 597
3 598 59 599
3 600 599 132
3 598 599 600
3 242 601 602
3 242 603 605
3 603 59 604
3 603 604 605
3 242 241 59
3 243 241 242
3 243 6 241
3 243 85 6
3 606 85 607
3 608 607 243
3 606 607 608
3 610 609 85
