ply
format ascii 1.0
element vertex 494
property float x
property float y
property float z
property uchar red
property uchar green
property uchar blue
element face 565
property list uchar int vertex_index
end_header
-10.7417 -81.3869 71.9669 0 75 255
-15.5314 -89.3998 50.3441 245 0 0
-23.7136 -74.1012 66.6033 255 251 0
-6.02815 -85.9227 66.6328 0 141 255
-9.14339 -92.8346 56.174 163 255 92
-12.1558 -85.5808 63.1314 255 220 0
-28.198 -70.2028 60.5652 67 255 188
-13.3973 -99.3533 44.3688 88 255 167
-19.2523 -95.3237 36.4836 255 131 0
-17.1163 -78.4054 70.4407 228 255 27
-18.7969 -81.1424 58.932 255 138 0
-21.6504 -84.9104 45.5835 255 183 0
-8.39644 -83.5242 69.7871 6 255 249
-8.90669 -86.6101 65.0706 137 255 118
-11.2058 -83.5265 68.3978 100 255 155
-8.9288 -79.8459 73.4385 0 95 255
-6.02835 -81.6884 70.9807 0 81 255
-12.3843 -91.7068 53.442 255 129 0
-11.5109 -95.9752 50.4357 255 255 0
-14.5512 -94.4167 47.0054 255 0 0
-16.2728 -97.6499 40.3102 242 255 13
-17.5174 -91.9559 43.4123 156 0 0
-20.6134 -76.2558 68.7957 255 239 0
-17.9448 -79.8821 65.1375 255 178 0
-21.1498 -77.6755 63.1218 255 207 0
-23.6451 -88.2866 39.1681 46 255 209
-7.11133 -89.6017 61.6118 0 174 255
-10.3292 -89.2407 59.5089 255 247 0
-13.6406 -87.4134 56.9904 255 94 0
-26.2329 -72.0748 63.8459 233 255 22
-23.928 -75.7313 60.831 73 255 182
-8.38004 -95.9021 52.9458 0 25 255
-12.2128 -78.1645 74.5404 0 111 255
-13.5775 -80.2619 71.5307 90 255 165
-15.8898 -76.4379 74.388 0 251 255
-19.6833 -74.4667 73.3854 186 255 69
-23.2218 -72.3522 71.6561 211 255 44
-26.2146 -70.2132 69.1975 221 255 34
-28.512 -68.1078 66.0116 236 255 19
-30.1927 -66.067 62.2107 251 255 4
-14.5129 -82.0326 66.8925 255 245 0
-15.5292 -83.4908 61.0335 255 122 0
-16.8807 -84.9333 54.4636 255 54 0
-21.8075 -79.1331 56.9188 107 255 148
-19.9959 -82.6485 52.2876 255 148 0
-18.6016 -86.8346 47.5348 255 19 0
-20.5341 -89.6119 40.5689 255 21 0
-22.4373 -93.4397 33.9439 255 250 0
-9.66023 -82.3632 71.0638 0 182 255
-9.73146 -83.7608 69.0955 27 255 228
-10.9165 -82.4062 70.4893 0 220 255
-9.92606 -80.8037 72.7045 0 172 255
-8.53085 -81.7703 71.7324 0 234 255
-13.9717 -90.647 51.8988 255 42 0
-13.4915 -93.0087 50.2655 255 66 0
-15.0238 -91.8701 48.5693 236 0 0
-16.0361 -93.2382 45.171 178 0 0
-16.5358 -90.5861 46.8991 197 0 0
-22.2287 -75.1673 67.7694 255 241 0
-20.8979 -76.9903 66.0605 255 213 0
-22.42 -75.9209 64.9662 255 232 0
-6.43094 -87.8324 64.1902 0 155 255
-10.4993 -86.2783 64.1327 213 255 42
-9.51518 -87.9698 62.3694 202 255 53
-11.1619 -87.398 61.2862 255 224 0
-11.987 -88.4645 58.2765 255 161 0
-12.8342 -86.5059 60.1408 255 152 0
-5.90295 -83.8693 68.9035 0 135 255
-27.2731 -71.1193 62.2635 223 255 32
-26.1884 -73.0438 61.0281 56 255 199
-27.2005 -72.199 59.5112 0 153 255
-7.53317 -92.7462 57.2384 0 104 255
-8.73237 -94.4648 54.568 0 239 255
-12.5595 -97.6221 47.4443 255 196 0
-11.0618 -97.9019 49.0322 0 231 255
-11.9616 -99.6889 46.1438 0 178 255
-17.7409 -96.4979 38.2964 255 243 0
-19.9627 -97.3203 33.1442 116 255 139
-14.0121 -77.3311 74.588 0 150 255
-18.938 -73.3627 75.1603 0 204 255
-20.8482 -72.3559 74.5364 0 214 255
-21.5049 -73.4187 72.6105 201 255 54
-22.675 -71.3197 73.7242 0 220 255
-25.9366 -69.205 71.5247 0 229 255
-27.3165 -68.1419 70.1323 0 234 255
-27.4514 -69.1545 67.6921 227 255 28
-28.5104 -67.0807 68.5486 0 241 255
-30.3722 -64.9776 64.8698 2 255 253
-31.0957 -63.947 62.8336 8 255 247
-30.8943 -65.0872 60.1638 9 255 246
-31.7396 -62.9415 60.7244 0 101 255
-15.3216 -79.3939 71.0585 173 255 82
-14.0606 -81.1915 69.4008 179 255 76
-15.8012 -80.2472 68.7183 247 255 8
-18.3435 -80.5136 62.116 255 150 0
-16.687 -81.666 63.1117 255 148 0
-17.1875 -82.3044 59.9758 255 115 0
-16.1559 -84.1856 57.8127 255 83 0
-17.7712 -82.9679 56.6945 255 96 0
-22.8371 -77.4493 58.9851 6 255 249
-22.2677 -82.9378 48.1843 24 255 231
-21.4954 -81.7767 51.4075 123 255 132
-20.7689 -83.6564 48.9208 255 164 0
-19.2449 -84.6282 49.8768 255 85 0
-20.1282 -85.7474 46.4254 255 92 0
-19.5566 -88.0954 44.034 255 15 0
-21.0836 -87.1238 43.0047 255 106 0
-23.0934 -90.7279 36.4401 92 255 163
-23.3284 -95.7066 30.8787 0 180 255
-7.15526 -84.7315 68.2878 44 255 211
-7.40791 -86.5028 65.9153 80 255 175
-8.52868 -85.1323 67.5608 68 255 187
-10.019 -85.0696 66.7601 127 255 128
-11.6145 -84.594 65.909 206 255 49
-7.42447 -80.7601 72.3523 0 119 255
-7.16771 -82.8155 70.4346 26 255 229
-29.0497 -69.327 58.7806 0 165 255
-10.7701 -92.4668 54.8909 255 238 0
-10.3371 -94.3917 53.3433 205 255 50
-11.9289 -93.8825 51.8867 255 181 0
-13.046 -95.3647 48.7967 255 118 0
-14.0352 -96.9457 45.6239 255 50 0
-14.8307 -98.6422 42.382 178 255 77
-15.495 -95.9592 43.6776 190 0 0
-16.9546 -94.7771 41.7332 128 0 0
-18.4332 -93.5327 39.9241 128 0 0
-18.8966 -77.3457 69.6856 255 252 0
-17.5538 -79.1933 67.9342 255 224 0
-19.2659 -78.0919 67.0488 255 209 0
-19.5915 -78.7594 64.1628 255 183 0
-19.9327 -79.3988 61.0958 255 176 0
-23.16 -84.3722 45.0367 13 255 242
-22.6187 -86.4489 42.3191 255 200 0
-24.1485 -86.107 42.0001 0 183 255
-8.03724 -91.2549 58.9323 6 255 249
-7.92642 -88.1337 63.3501 125 255 130
-8.69231 -89.6441 60.6361 173 255 82
-9.6627 -91.0717 57.8095 221 255 34
-11.3058 -90.4683 56.5263 255 189 0
-12.94 -89.5288 55.14 255 101 0
-14.5516 -88.3591 53.7162 255 41 0
-25.05 -73.0689 65.2951 246 255 9
-23.8122 -74.9029 63.7627 252 255 3
-25.0663 -73.9439 62.4489 225 255 30
-25.138 -74.8875 59.5797 0 153 255
-9.94953 -96.1694 51.8367 6 255 249
-11.3779 -79.9987 73.1916 0 188 255
-11.9813 -80.9527 71.8416 0 220 255
-12.9836 -79.2572 73.2348 28 255 227
-14.742 -78.4239 73.0178 109 255 146
-16.5772 -77.4914 72.601 168 255 87
-16.9845 -74.3275 75.5924 0 124 255
-17.7966 -75.479 73.9805 160 255 95
-18.4237 -76.4824 72.0103 207 255 48
-20.2284 -75.4255 71.2561 230 255 25
-21.9475 -74.3471 70.3408 240 255 15
-23.5453 -73.2674 69.2623 243 255 12
-24.3817 -70.2663 72.7215 0 224 255
-24.8001 -71.2808 70.5192 216 255 39
-24.9944 -72.2 68.0176 241 255 14
-26.2788 -71.152 66.606 239 255 16
-27.3968 -70.1266 65.0318 238 255 17
-28.3632 -69.1261 63.3078 239 255 16
-29.5222 -66.0245 66.7866 0 249 255
-29.4143 -67.0767 64.1743 245 255 10
-29.2097 -68.154 61.4582 240 255 15
-29.9816 -67.2163 59.5202 2 255 253
-32.3576 -61.971 58.5982 0 16 255
-10.5208 -78.9832 74.1754 0 87 255
-12.4018 -81.9475 69.9833 82 255 173
-12.8158 -82.9104 67.6735 191 255 64
-13.2853 -83.7985 65.0142 255 229 0
-16.2391 -80.9953 66.0473 255 197 0
-14.9896 -82.7894 64.0797 255 175 0
-13.8431 -84.6163 62.0913 255 158 0
-14.5055 -85.3988 58.9713 255 102 0
-15.2744 -86.1988 55.7032 255 57 0
-16.1376 -87.0759 52.3232 255 17 0
-22.599 -76.6613 62.0118 255 244 0
-21.4348 -78.3686 60.0523 255 220 0
-20.341 -80.0708 57.9111 255 184 0
-22.3058 -80.0349 53.7798 0 181 255
-20.8547 -80.8413 54.665 255 202 0
-19.3405 -81.8318 55.6398 255 138 0
-18.4559 -83.7211 53.314 255 86 0
-17.701 -85.7967 51.0251 255 33 0
-17.0714 -88.0884 48.8631 237 0 0
-18.0424 -89.2858 45.3568 209 0 0
-19.0129 -90.7045 41.8449 193 0 0
-19.9469 -92.3639 38.375 189 0 0
-22.0819 -88.7834 39.6611 255 123 0
-21.5024 -91.3967 37.189 255 34 0
-20.8181 -94.2646 34.9992 197 0 0
-21.6158 -96.3874 31.7696 191 255 64
-6.22955 -86.8775 65.4115 0 0 168
-5.74741 -87.44 64.5241 0 0 149
-5.54601 -86.4851 65.7454 0 0 149
-5.40862 -85.4009 66.9128 0 0 148
-5.34603 -84.3742 68.0482 0 0 148
-5.96555 -84.896 67.7682 0 0 167
-5.54601 -86.4851 65.7454 0 0 129
-5.40862 -85.4009 66.9128 0 0 129
-12.9867 -100.447 43.769 0 0 170
-12.2688 -100.615 44.6565 0 0 170
-12.6795 -99.5211 45.2563 0 0 200
-13.6852 -100.264 42.795 0 0 142
-12.9867 -100.447 43.769 0 0 142
-18.8157 -96.8612 35.697 0 0 201
-18.06 -97.4483 36.6034 0 0 201
-18.4966 -95.9108 37.39 0 0 246
-19.6075 -96.322 34.8139 0 0 245
-19.1709 -97.8595 34.0273 0 0 200
-18.8157 -96.8612 35.697 0 0 200
-21.3579 -71.2536 74.9917 0 0 133
-20.4012 -71.7531 75.3285 0 0 133
-22.2713 -70.7356 74.5856 0 0 157
-21.7616 -71.8378 74.1303 0 0 181
-21.3579 -71.2536 74.9917 0 0 157
-27.7789 -67.0646 70.4746 0 0 134
-27.106 -67.5911 71.2011 0 0 134
-28.3758 -66.534 69.6827 0 0 160
-27.9135 -67.6113 69.3404 0 0 184
-27.7789 -67.0646 70.4746 0 0 160
-31.4844 -62.8685 63.0854 0 0 137
-31.1413 -63.3875 64.118 0 0 137
-31.8064 -62.3657 62.0308 0 0 164
-31.4177 -63.4442 61.779 0 0 191
-31.4844 -62.8685 63.0854 0 0 164
-8.17663 -80.303 72.8954 0 0 164
-7.65053 -79.6719 73.2095 0 0 146
-8.40269 -79.2148 73.7527 0 0 146
-29.0517 -69.9941 57.5327 0 0 135
-29.4649 -68.9116 57.8664 0 0 135
-23.9027 -84.2562 44.9132 0 0 135
-23.4468 -83.433 46.3574 0 0 135
-24.397 -85.1235 43.3949 0 0 162
-23.6543 -85.2396 43.5184 0 0 188
-23.9027 -84.2562 44.9132 0 0 162
-6.78969 -90.2829 60.7321 0 0 130
-6.36938 -89.3379 62.0061 0 0 130
-7.57429 -90.4283 60.2721 0 0 172
-7.25265 -91.1096 59.3923 0 0 151
-6.78969 -90.2829 60.7321 0 0 151
-5.50696 -80.9494 71.1894 0 0 130
-6.19215 -80.5494 71.9234 0 0 130
-25.6911 -74.5054 58.9213 0 0 158
-25.6632 -73.9657 60.3039 0 0 181
-26.2163 -73.5836 59.6455 0 0 158
-25.2389 -75.4249 58.1796 0 0 134
-25.6911 -74.5054 58.9213 0 0 134
-7.60713 -95.5323 53.3453 0 0 128
-7.76307 -94.9827 54.2337 0 0 128
-8.20866 -96.5003 52.1033 0 0 128
-7.60713 -95.5323 53.3453 0 0 128
-10.305 -97.8174 49.6736 0 0 132
-10.7916 -98.7453 48.3225 0 0 132
-15.8353 -99.054 39.7043 0 0 194
-15.1142 -99.5502 40.7402 0 0 194
-15.5517 -98.1461 41.3461 0 0 236
-17.4825 -73.2209 76.0981 0 0 132
-16.4842 -73.6813 76.2411 0 0 132
-24.8757 -69.1774 73.1235 0 0 134
-24.0329 -69.697 73.6525 0 0 134
-29.9479 -64.951 67.0736 0 0 135
-29.4604 -65.4783 67.9806 0 0 135
-30.8137 -65.7041 58.8539 0 0 137
-31.234 -64.6169 59.1262 0 0 137
-32.704 -60.8768 58.8383 0 0 137
-32.4174 -61.3714 59.9048 0 0 137
-11.3668 -78.5739 74.3579 0 0 163
-10.8954 -77.9589 74.8602 0 0 145
-11.7414 -77.5495 75.0427 0 0 145
-22.627 -80.5861 52.2327 0 0 135
-22.9981 -79.7297 53.3835 0 0 135
-22.8383 -97.1999 29.8057 0 0 147
-23.7547 -96.9231 29.4544 0 0 147
-6.02919 -88.4533 63.2953 0 0 129
-5.74741 -87.44 64.5241 0 0 129
-6.77114 -88.717 62.901 0 0 169
-6.36938 -89.3379 62.0061 0 0 150
-6.02919 -88.4533 63.2953 0 0 150
-5.34109 -83.2285 69.1403 0 0 149
-5.40378 -82.138 70.1789 0 0 149
-5.96565 -82.7789 69.9421 0 0 168
-5.34109 -83.2285 69.1403 0 0 130
-5.34603 -84.3742 68.0482 0 0 130
-26.7224 -73.1612 58.887 0 0 159
-26.2163 -73.5836 59.6455 0 0 159
-26.6945 -72.6214 60.2697 0 0 184
-7.33963 -93.4047 56.38 0 0 129
-6.75719 -92.4589 57.6464 0 0 129
-7.93923 -94.264 55.0448 0 0 148
-7.33963 -93.4047 56.38 0 0 148
-8.13277 -93.6055 55.9032 0 0 168
-8.55621 -95.1834 53.7569 0 0 167
-7.76307 -94.9827 54.2337 0 0 148
-7.93923 -94.264 55.0448 0 0 148
-11.2415 -99.6388 46.8783 0 0 154
-10.7916 -98.7453 48.3225 0 0 154
-11.5117 -98.7954 47.588 0 0 176
-11.5814 -100.587 45.485 0 0 134
-11.2415 -99.6388 46.8783 0 0 134
-11.5814 -100.587 45.485 0 0 134
-12.2688 -100.615 44.6565 0 0 134
-17.3012 -97.9942 37.62 0 0 200
-16.5672 -98.5702 38.6269 0 0 200
-17.0069 -97.0739 39.3033 0 0 246
-17.3012 -97.9942 37.62 0 0 156
-18.06 -97.4483 36.6034 0 0 156
-19.4213 -98.8929 32.3863 0 0 156
-19.1709 -97.8595 34.0273 0 0 156
-20.2687 -98.4093 31.5514 0 0 155
-19.4213 -98.8929 32.3863 0 0 155
-13.5626 -76.7182 75.2024 0 0 148
-13.1124 -77.7478 74.5642 0 0 167
-12.663 -77.1349 75.1786 0 0 148
-14.5207 -76.2864 75.2039 0 0 130
-13.5626 -76.7182 75.2024 0 0 130
-15.4596 -75.8397 75.1039 0 0 152
-14.951 -76.8845 74.488 0 0 173
-14.5207 -76.2864 75.2039 0 0 152
-19.4461 -72.2565 75.6404 0 0 133
-18.4593 -72.7384 75.8821 0 0 133
-19.8931 -72.8593 74.8484 0 0 180
-19.4461 -72.2565 75.6404 0 0 156
-20.4012 -71.7531 75.3285 0 0 156
-26.416 -68.1226 71.8973 0 0 134
-25.6531 -68.6467 72.5251 0 0 134
-26.6266 -68.6735 70.8285 0 0 183
-26.416 -68.1226 71.8973 0 0 159
-27.106 -67.5911 71.2011 0 0 159
-30.7796 -63.9028 65.1361 0 0 136
-30.3729 -64.4276 66.1153 0 0 136
-30.734 -64.4623 63.8517 0 0 190
-30.7796 -63.9028 65.1361 0 0 163
-31.1413 -63.3875 64.118 0 0 163
-31.6567 -63.5441 59.4065 0 0 164
-31.234 -64.6169 59.1262 0 0 164
-31.317 -64.0143 60.4441 0 0 191
-12.663 -77.1349 75.1786 0 0 129
-11.7414 -77.5495 75.0427 0 0 129
-23.4866 -77.0493 58.4395 0 0 161
-23.3826 -76.5903 59.9081 0 0 186
-24.032 -76.1903 59.3624 0 0 161
-23.0133 -77.8993 57.4711 0 0 136
-23.4866 -77.0493 58.4395 0 0 136
-22.4985 -78.7412 56.4379 0 0 162
-22.3223 -78.2912 57.952 0 0 188
-23.0133 -77.8993 57.4711 0 0 162
-21.8816 -82.3572 49.7959 0 0 192
-22.2218 -81.457 51.0466 0 0 165
-22.608 -82.0375 49.435 0 0 165
-23.8972 -90.5687 36.3029 0 0 170
-23.3693 -89.5073 37.8041 0 0 200
-24.173 -89.3481 37.667 0 0 170
-23.5942 -91.8298 34.9115 0 0 141
-23.8972 -90.5687 36.3029 0 0 141
-23.2662 -93.1857 33.6634 0 0 177
-22.7654 -92.0838 35.192 0 0 210
-23.5942 -91.8298 34.9115 0 0 177
-23.7117 -94.3192 32.1308 0 0 178
-22.8829 -94.5732 32.4113 0 0 212
-23.2662 -93.1857 33.6634 0 0 178
-24.2023 -95.524 30.7013 0 0 144
-23.7117 -94.3192 32.1308 0 0 144
-23.7547 -96.9231 29.4544 0 0 144
-24.2023 -95.524 30.7013 0 0 144
-6.89021 -80.0853 72.6092 0 0 129
-7.65053 -79.6719 73.2095 0 0 129
-6.72641 -81.2243 71.6665 0 0 168
-6.19215 -80.5494 71.9234 0 0 148
-6.89021 -80.0853 72.6092 0 0 148
-28.5946 -70.3663 58.3498 0 0 161
-28.1688 -70.8041 59.2422 0 0 161
-28.6238 -69.7649 59.6729 0 0 187
-28.5946 -70.3663 58.3498 0 0 134
-29.0517 -69.9941 57.5327 0 0 134
-23.0007 -82.7157 47.9313 0 0 135
-22.608 -82.0375 49.435 0 0 135
-22.7139 -83.655 46.6105 0 0 189
-23.0007 -82.7157 47.9313 0 0 163
-23.4468 -83.433 46.3574 0 0 163
-24.9026 -86.0968 42.0206 0 0 136
-24.397 -85.1235 43.3949 0 0 136
-24.6762 -87.1238 40.5514 0 0 137
-24.9026 -86.0968 42.0206 0 0 137
-24.4245 -88.2136 39.1354 0 0 165
-23.8968 -87.1968 40.5841 0 0 193
-24.6762 -87.1238 40.5514 0 0 165
-24.173 -89.3481 37.667 0 0 139
-24.4245 -88.2136 39.1354 0 0 139
-7.00061 -91.8552 58.5454 0 0 129
-6.75719 -92.4589 57.6464 0 0 129
-7.78521 -92.0006 58.0854 0 0 171
-7.00061 -91.8552 58.5454 0 0 151
-7.25265 -91.1096 59.3923 0 0 151
-5.50696 -80.9494 71.1894 0 0 130
-5.40378 -82.138 70.1789 0 0 130
-24.637 -75.7684 58.7368 0 0 160
-24.032 -76.1903 59.3624 0 0 160
-24.533 -75.3094 60.2053 0 0 185
-24.637 -75.7684 58.7368 0 0 133
-25.2389 -75.4249 58.1796 0 0 133
-27.6701 -71.8022 58.7152 0 0 159
-27.6993 -71.2009 60.0382 0 0 183
-28.1688 -70.8041 59.2422 0 0 159
-27.2387 -72.8138 58.2022 0 0 134
-27.6701 -71.8022 58.7152 0 0 134
-26.7224 -73.1612 58.887 0 0 133
-27.2387 -72.8138 58.2022 0 0 133
-9.74885 -96.9512 51.0759 0 0 151
-10.5057 -97.0357 50.4344 0 0 171
-10.305 -97.8174 49.6736 0 0 151
-8.96411 -96.8175 51.6304 0 0 150
-9.16479 -96.0358 52.3912 0 0 170
-9.74885 -96.9512 51.0759 0 0 150
-8.20866 -96.5003 52.1033 0 0 128
-8.96411 -96.8175 51.6304 0 0 128
-14.4019 -99.9088 41.8017 0 0 183
-13.6852 -100.264 42.795 0 0 183
-14.114 -98.9978 43.3754 0 0 220
-14.4019 -99.9088 41.8017 0 0 148
-15.1142 -99.5502 40.7402 0 0 148
-15.8353 -99.054 39.7043 0 0 153
-16.5672 -98.5702 38.6269 0 0 153
-16.0069 -74.7846 75.706 0 0 132
-16.4842 -73.6813 76.2411 0 0 132
-16.4372 -75.3827 74.9902 0 0 175
-15.4596 -75.8397 75.1039 0 0 153
-16.0069 -74.7846 75.706 0 0 153
-17.9613 -73.8451 75.3763 0 0 178
-17.4825 -73.2209 76.0981 0 0 155
-18.4593 -72.7384 75.8821 0 0 155
-23.1795 -70.2237 74.1538 0 0 134
-22.2713 -70.7356 74.5856 0 0 134
-23.5284 -70.793 73.2228 0 0 181
-23.1795 -70.2237 74.1538 0 0 158
-24.0329 -69.697 73.6525 0 0 158
-25.1592 -69.7356 72.1231 0 0 182
-24.8757 -69.1774 73.1235 0 0 158
-25.6531 -68.6467 72.5251 0 0 158
-28.9545 -66.0064 68.8616 0 0 135
-28.3758 -66.534 69.6827 0 0 135
-29.0163 -66.5526 67.6676 0 0 186
-28.9545 -66.0064 68.8616 0 0 161
-29.4604 -65.4783 67.9806 0 0 161
-29.9472 -65.501 65.8282 0 0 188
-29.9479 -64.951 67.0736 0 0 162
-30.3729 -64.4276 66.1153 0 0 162
-29.9309 -67.8562 58.2362 0 0 161
-29.4649 -68.9116 57.8664 0 0 161
-29.5157 -68.2717 59.1504 0 0 186
-30.3574 -66.7687 58.5321 0 0 163
-30.438 -66.1517 59.842 0 0 190
-30.8137 -65.7041 58.8539 0 0 163
-29.9309 -67.8562 58.2362 0 0 137
-30.3574 -66.7687 58.5321 0 0 137
-32.1084 -61.8567 60.9679 0 0 137
-31.8064 -62.3657 62.0308 0 0 137
-32.0486 -62.4562 59.6613 0 0 191
-32.1084 -61.8567 60.9679 0 0 164
-32.4174 -61.3714 59.9048 0 0 164
-31.9656 -63.0588 58.3434 0 0 165
-31.6567 -63.5441 59.4065 0 0 165
-32.0486 -62.4562 59.6613 0 0 192
-32.6808 -61.5079 57.5578 0 0 137
-32.704 -60.8768 58.8383 0 0 137
-32.3219 -62.6131 57.3231 0 0 137
-32.6808 -61.5079 57.5578 0 0 137
-31.9656 -63.0588 58.3434 0 0 137
-32.3219 -62.6131 57.3231 0 0 137
-9.22462 -78.8007 74.2023 0 0 128
-8.40269 -79.2148 73.7527 0 0 128
-10.0206 -78.3693 74.5708 0 0 128
-10.8954 -77.9589 74.8602 0 0 128
-9.72481 -79.4146 73.8069 0 0 162
-9.22462 -78.8007 74.2023 0 0 144
-10.0206 -78.3693 74.5708 0 0 144
-22.7477 -79.1921 54.8684 0 0 134
-22.9981 -79.7297 53.3835 0 0 134
-22.0567 -79.584 55.3493 0 0 190
-22.4985 -78.7412 56.4379 0 0 163
-22.7477 -79.1921 54.8684 0 0 163
-21.9006 -80.9058 52.5936 0 0 189
-22.627 -80.5861 52.2327 0 0 163
-22.2218 -81.457 51.0466 0 0 163
-21.0952 -97.9429 30.8641 0 0 195
-20.2687 -98.4093 31.5514 0 0 195
-20.7893 -96.8539 32.4569 0 0 237
-21.982 -97.5403 30.2511 0 0 185
-22.4721 -96.047 31.3242 0 0 223
-22.8383 -97.1999 29.8057 0 0 185
-21.0952 -97.9429 30.8641 0 0 152
-21.982 -97.5403 30.2511 0 0 152
3 0 50 48
3 0 48 51
3 1 55 53
3 1 57 55
3 2 60 58
3 3 194 196
3 194 61 195
3 194 195 196
3 5 64 62
3 5 66 64
3 3 197 199
3 199 198 67
3 197 198 199
3 3 200 201
3 6 70 68
3 4 72 71
3 7 75 73
3 7 202 204
3 204 203 75
3 202 203 204
3 7 205 206
3 8 207 209
3 209 208 76
3 207 208 209
3 8 210 212
3 210 77 211
3 210 211 212
3 213 80 214
3 215 82 216
3 217 216 80
3 215 216 217
3 218 84 219
3 220 86 221
3 222 221 84
3 220 221 222
3 223 88 224
3 225 90 226
3 227 226 88
3 225 226 227
3 9 93 91
3 10 96 94
3 10 98 96
3 11 102 100
3 11 104 102
3 11 106 104
3 12 111 109
3 14 112 49
3 14 113 112
3 15 228 230
3 228 114 229
3 228 229 230
3 12 115 52
3 12 109 115
3 232 231 116
3 17 119 117
3 19 120 54
3 19 121 120
3 19 123 121
3 21 124 56
3 21 125 124
3 22 128 126
3 24 129 59
3 24 130 129
3 233 131 234
3 235 133 236
3 237 236 131
3 235 236 237
3 26 238 239
3 26 240 242
3 240 134 241
3 240 241 242
3 13 135 110
3 27 136 63
3 27 137 136
3 27 138 137
3 28 139 65
3 28 140 139
3 16 243 244
3 29 143 141
3 245 144 246
3 247 246 69
3 245 246 247
3 249 248 144
3 31 250 251
3 31 252 253
3 18 145 118
3 255 254 74
3 20 256 258
3 258 257 122
3 256 257 258
3 32 148 146
3 34 149 78
3 34 150 149
3 259 151 260
3 35 152 79
3 35 153 152
3 35 154 153
3 36 155 81
3 36 156 155
3 261 157 262
3 37 158 83
3 37 159 158
3 37 160 159
3 38 161 85
3 38 162 161
3 263 163 264
3 39 164 87
3 39 165 164
3 39 166 165
3 266 265 89
3 267 167 268
3 32 269 271
3 269 168 270
3 269 270 271
3 32 146 168
3 33 169 147
3 40 170 92
3 40 171 170
3 23 172 127
3 41 173 95
3 41 174 173
3 41 175 174
3 42 176 97
3 42 177 176
3 30 178 142
3 43 179 99
3 43 180 179
3 272 181 273
3 44 182 101
3 44 183 182
3 44 184 183
3 45 185 103
3 45 186 185
3 45 187 186
3 46 188 105
3 46 189 188
3 25 190 132
3 47 191 107
3 47 192 191
3 47 193 192
3 275 274 108
3 48 49 12
3 50 49 48
3 50 14 49
3 51 52 15
3 48 52 51
3 48 12 52
3 53 54 17
3 55 54 53
3 55 19 54
3 55 56 19
3 57 56 55
3 57 21 56
3 58 59 22
3 60 59 58
3 60 24 59
3 61 276 277
3 61 278 280
3 278 26 279
3 278 279 280
3 62 63 13
3 64 63 62
3 64 27 63
3 64 65 27
3 66 65 64
3 66 28 65
3 67 281 283
3 283 282 16
3 281 282 283
3 285 284 67
3 68 69 29
3 70 69 68
3 70 286 288
3 288 287 69
3 286 287 288
3 71 289 290
3 72 291 293
3 293 292 71
3 291 292 293
3 72 294 296
3 294 31 295
3 294 295 296
3 73 74 18
3 75 74 73
3 75 297 299
3 299 298 74
3 297 298 299
3 75 300 301
3 303 302 75
3 76 304 306
3 306 305 20
3 304 305 306
3 308 307 76
3 77 309 310
3 77 311 312
3 313 78 314
3 315 314 32
3 313 314 315
3 316 78 317
3 318 34 319
3 320 319 78
3 318 319 320
3 321 79 322
3 80 323 325
3 323 79 324
3 323 324 325
3 80 35 79
3 80 81 35
3 82 81 80
3 82 36 81
3 326 83 327
3 84 328 330
3 328 83 329
3 328 329 330
3 84 37 83
3 84 85 37
3 86 85 84
3 86 38 85
3 331 87 332
3 88 333 335
3 333 87 334
3 333 334 335
3 88 39 87
3 88 89 39
3 90 89 88
3 90 336 338
3 338 337 89
3 336 337 338
3 339 32 340
3 91 92 33
3 93 92 91
3 93 40 92
3 94 95 23
3 96 95 94
3 96 41 95
3 96 97 41
3 98 97 96
3 98 42 97
3 341 99 342
3 343 342 30
3 341 342 343
3 344 99 345
3 346 43 347
3 348 347 99
3 346 347 348
3 100 349 351
3 349 101 350
3 349 350 351
3 102 101 100
3 102 44 101
3 102 103 44
3 104 103 102
3 104 45 103
3 104 105 45
3 106 105 104
3 106 46 105
3 352 107 353
3 354 353 25
3 352 353 354
3 355 107 356
3 357 47 358
3 359 358 107
3 357 358 359
3 360 108 361
3 362 361 47
3 360 361 362
3 363 108 364
3 366 365 108
3 109 110 3
3 111 110 109
3 111 13 110
3 49 111 12
3 112 111 49
3 112 13 111
3 112 62 13
3 113 62 112
3 113 5 62
3 114 367 368
3 114 369 371
3 369 16 370
3 369 370 371
3 52 114 15
3 115 114 52
3 115 16 114
3 115 67 16
3 109 67 115
3 109 3 67
3 116 372 374
3 374 373 6
3 372 373 374
3 376 375 116
3 117 118 4
3 119 118 117
3 119 18 118
3 54 119 17
3 120 119 54
3 120 18 119
3 120 73 18
3 121 73 120
3 121 7 73
3 121 122 7
3 123 122 121
3 123 20 122
3 56 123 19
3 124 123 56
3 124 20 123
3 124 76 20
3 125 76 124
3 125 8 76
3 126 127 9
3 128 127 126
3 128 23 127
3 59 128 22
3 129 128 59
3 129 23 128
3 129 94 23
3 130 94 129
3 130 10 94
3 377 100 378
3 131 379 381
3 379 100 380
3 379 380 381
3 131 11 100
3 131 132 11
3 133 132 131
3 133 25 132
3 382 133 383
3 384 133 385
3 386 25 387
3 388 387 133
3 386 387 388
3 390 389 25
3 391 71 392
3 134 393 395
3 393 71 394
3 393 394 395
3 134 4 71
3 110 61 3
3 135 61 110
3 135 26 61
3 63 135 13
3 136 135 63
3 136 26 135
3 136 134 26
3 137 134 136
3 137 4 134
3 137 117 4
3 138 117 137
3 138 17 117
3 65 138 27
3 139 138 65
3 139 17 138
3 139 53 17
3 140 53 139
3 140 1 53
3 397 396 16
3 141 142 2
3 143 142 141
3 143 30 142
3 69 143 29
3 144 143 69
3 144 30 143
3 144 398 400
3 400 399 30
3 398 399 400
3 402 401 144
3 403 70 404
3 405 404 6
3 403 404 405
3 406 70 407
3 409 408 70
3 118 72 4
3 145 72 118
3 145 31 72
3 74 145 18
3 410 145 411
3 412 411 74
3 410 411 412
3 413 31 414
3 415 414 145
3 413 414 415
3 417 416 31
3 122 418 420
3 420 419 7
3 418 419 420
3 422 421 122
3 424 423 20
3 146 147 0
3 148 147 146
3 148 33 147
3 78 148 32
3 149 148 78
3 149 33 148
3 149 91 33
3 150 91 149
3 150 9 91
3 151 425 426
3 151 427 429
3 427 34 428
3 427 428 429
3 79 430 432
3 430 151 431
3 430 431 432
3 152 151 79
3 152 34 151
3 152 150 34
3 153 150 152
3 153 9 150
3 153 126 9
3 154 126 153
3 154 22 126
3 81 154 35
3 155 154 81
3 155 22 154
3 155 58 22
3 156 58 155
3 156 2 58
3 433 82 434
3 157 435 437
3 435 82 436
3 435 436 437
3 157 36 82
3 83 438 440
3 438 157 439
3 438 439 440
3 158 157 83
3 158 36 157
3 158 156 36
3 159 156 158
3 159 2 156
3 159 141 2
3 160 141 159
3 160 29 141
3 85 160 37
3 161 160 85
3 161 29 160
3 161 68 29
3 162 68 161
3 162 6 68
3 441 86 442
3 163 443 445
3 443 86 444
3 443 444 445
3 163 38 86
3 87 446 448
3 446 163 447
3 446 447 448
3 164 163 87
3 164 38 163
3 164 162 38
3 165 162 164
3 165 6 162
3 165 116 6
3 166 116 165
3 166 449 451
3 451 450 116
3 449 450 451
3 89 166 39
3 452 166 453
3 454 453 89
3 452 453 454
3 456 455 166
3 457 90 458
3 167 459 461
3 459 90 460
3 459 460 461
3 167 462 464
3 464 463 90
3 462 463 464
3 465 167 466
3 467 167 468
3 470 469 167
3 471 15 472
3 168 473 474
3 168 475 477
3 475 15 476
3 475 476 477
3 168 51 15
3 146 51 168
3 146 0 51
3 147 50 0
3 169 50 147
3 169 14 50
3 92 169 33
3 170 169 92
3 170 14 169
3 170 113 14
3 171 113 170
3 171 5 113
3 127 93 9
3 172 93 127
3 172 40 93
3 95 172 23
3 173 172 95
3 173 40 172
3 173 171 40
3 174 171 173
3 174 5 171
3 174 66 5
3 175 66 174
3 175 28 66
3 97 175 41
3 176 175 97
3 176 28 175
3 176 140 28
3 177 140 176
3 177 1 140
3 142 60 2
3 178 60 142
3 178 24 60
3 99 178 30
3 179 178 99
3 179 24 178
3 179 130 24
3 180 130 179
3 180 10 130
3 181 478 479
3 181 480 482
3 480 43 481
3 480 481 482
3 101 483 485
3 483 181 484
3 483 484 485
3 182 181 101
3 182 43 181
3 182 180 43
3 183 180 182
3 183 10 180
3 183 98 10
3 184 98 183
3 184 42 98
3 103 184 44
3 185 184 103
3 185 42 184
3 185 177 42
3 186 177 185
3 186 1 177
3 186 57 1
3 187 57 186
3 187 21 57
3 105 187 45
3 188 187 105
3 188 21 187
3 188 125 21
3 189 125 188
3 189 8 125
3 132 106 11
3 190 106 132
3 190 46 106
3 107 190 25
3 191 190 107
3 191 46 190
3 191 189 46
3 192 189 191
3 192 8 189
3 192 77 8
3 193 77 192
3 193 486 488
3 488 487 77
3 486 487 488
3 108 193 47
3 489 193 490
3 491 490 108
3 489 490 491
3 493 492 193
