ply
format ascii 1.0
element vertex 147
property float x
property float y
property float z
property uchar red
property uchar green
property uchar blue
element face 127
property list uchar int vertex_index
end_header
64.6338 -54.1378 35.4513 140 0 0
65.5439 -47.187 43.8435 67 255 188
63.2437 -54.386 40.5969 67 255 188
63.379 -50.6405 44.4438 56 255 199
65.4084 -50.9377 39.7324 151 0 0
66.8995 -50.8023 34.2035 227 255 28
65.6233 -53.3739 29.9202 130 0 0
63.3433 -55.4321 26.1636 0 242 255
64.0025 -54.3252 38.1108 255 165 0
64.3204 -52.6511 40.1771 176 0 0
65.1171 -52.6089 37.5712 139 0 0
66.2101 -50.928 37.0252 142 0 0
65.7985 -52.4468 34.8201 130 0 0
66.387 -52.1579 32.0023 255 142 0
65.1666 -53.8219 32.6994 128 0 0
64.4912 -48.9007 44.2063 191 255 64
65.4444 -45.1248 45.575 0 62 255
63.3821 -52.577 42.5475 184 255 71
64.4724 -50.8405 42.2366 191 0 0
65.5404 -49.1282 41.8575 180 0 0
66.4997 -47.4614 41.3891 73 255 182
66.4321 -49.2655 39.2474 255 162 0
67.1873 -49.3023 36.4695 86 255 169
66.8989 -51.7336 29.1777 96 255 159
66.0183 -52.7897 27.1599 236 255 19
63.4848 -55.8577 36.0924 90 255 165
63.9311 -55.5233 33.4182 232 255 23
64.2958 -55.0571 30.6964 241 255 14
64.6015 -54.4594 27.9772 255 130 0
64.861 -53.7308 25.2933 116 255 139
64.9736 -47.0143 44.9131 0 0 171
64.4472 -47.8712 45.0945 0 0 171
65.0176 -48.0438 44.0249 0 0 210
65.4941 -46.1559 44.7093 0 0 210
64.9238 -45.9833 45.7789 0 0 171
64.9736 -47.0143 44.9131 0 0 171
65.9956 -46.3545 43.5884 0 0 169
65.9458 -45.3234 44.4542 0 0 169
65.4941 -46.1559 44.7093 0 0 207
63.3129 -53.4815 41.5722 0 0 208
62.8542 -53.4488 42.6845 0 0 169
62.7851 -54.3533 41.7092 0 0 169
67.3635 -50.0125 33.9049 0 0 176
67.5074 -49.2625 35.0379 0 0 176
67.0434 -50.0523 35.3365 0 0 217
67.1974 -50.675 32.7717 0 0 133
67.3635 -50.0125 33.9049 0 0 133
62.9391 -56.7248 36.4173 0 0 133
63.2053 -55.9585 37.3718 0 0 133
63.1139 -56.5529 35.1196 0 0 133
62.9391 -56.7248 36.4173 0 0 133
62.7437 -50.4893 45.3566 0 0 129
62.8276 -51.514 44.5182 0 0 129
66.8738 -46.6615 41.1039 0 0 132
66.8943 -47.5584 40.0508 0 0 132
63.6467 -55.9138 31.0914 0 0 180
64.1135 -55.2902 32.0573 0 0 224
63.4644 -56.1469 32.4523 0 0 180
63.9724 -54.9458 27.0704 0 0 224
63.8958 -55.3116 28.3954 0 0 180
63.2668 -55.7979 27.4886 0 0 180
63.8788 -48.7436 45.2043 0 0 170
63.3227 -49.6135 45.323 0 0 170
63.9351 -49.7706 44.3251 0 0 208
63.8788 -48.7436 45.2043 0 0 131
64.4472 -47.8712 45.0945 0 0 131
64.8356 -44.9014 46.5168 0 0 129
64.9238 -45.9833 45.7789 0 0 129
65.3525 -44.0423 46.2597 0 0 129
64.8356 -44.9014 46.5168 0 0 129
65.8742 -44.2926 45.2679 0 0 128
65.3525 -44.0423 46.2597 0 0 128
65.8742 -44.2926 45.2679 0 0 130
65.9458 -45.3234 44.4542 0 0 130
62.6147 -56.2981 26.5963 0 0 137
63.2668 -55.7979 27.4886 0 0 137
62.8291 -52.4822 43.57 0 0 130
62.8542 -53.4488 42.6845 0 0 130
63.3805 -51.6087 43.4957 0 0 207
62.8276 -51.514 44.5182 0 0 169
62.8291 -52.4822 43.57 0 0 169
66.8605 -48.4604 38.9799 0 0 174
66.8943 -47.5584 40.0508 0 0 174
66.4659 -48.3635 40.3182 0 0 215
67.2381 -48.4788 37.591 0 0 175
66.8605 -48.4604 38.9799 0 0 175
66.8097 -49.2839 37.8584 0 0 216
67.5609 -48.5265 36.1854 0 0 132
67.2381 -48.4788 37.591 0 0 132
67.5609 -48.5265 36.1854 0 0 132
67.5074 -49.2625 35.0379 0 0 132
66.9412 -51.3528 31.6711 0 0 178
67.1974 -50.675 32.7717 0 0 178
66.6433 -51.4801 33.1029 0 0 222
67.1972 -51.1407 30.2588 0 0 176
66.9412 -51.3528 31.6711 0 0 176
66.643 -51.9457 30.59 0 0 217
67.4556 -50.9423 28.832 0 0 134
67.1972 -51.1407 30.2588 0 0 134
67.1216 -51.4496 27.7818 0 0 132
67.4556 -50.9423 28.832 0 0 132
66.6813 -51.9776 26.7729 0 0 179
67.1216 -51.4496 27.7818 0 0 179
66.4586 -52.2617 28.1688 0 0 222
66.1881 -52.4281 25.8029 0 0 134
66.6813 -51.9776 26.7729 0 0 134
62.7311 -55.2565 40.8056 0 0 130
62.7851 -54.3533 41.7092 0 0 130
63.0848 -55.2226 39.624 0 0 131
62.7311 -55.2565 40.8056 0 0 131
63.4641 -55.1922 38.381 0 0 174
63.6231 -54.3556 39.3538 0 0 215
63.0848 -55.2226 39.624 0 0 174
63.7437 -55.0914 37.1016 0 0 216
63.4641 -55.1922 38.381 0 0 174
63.2053 -55.9585 37.3718 0 0 174
63.337 -56.3857 33.7825 0 0 178
63.708 -55.6905 34.7553 0 0 220
63.1139 -56.5529 35.1196 0 0 178
63.4644 -56.1469 32.4523 0 0 134
63.337 -56.3857 33.7825 0 0 134
62.7437 -50.4893 45.3566 0 0 130
63.3227 -49.6135 45.323 0 0 130
66.4735 -46.4917 42.3612 0 0 173
65.9956 -46.3545 43.5884 0 0 173
66.0218 -47.3242 42.6163 0 0 213
66.4735 -46.4917 42.3612 0 0 131
66.8738 -46.6615 41.1039 0 0 131
63.743 -55.6104 29.7549 0 0 135
63.6467 -55.9138 31.0914 0 0 135
64.4486 -54.7583 29.3368 0 0 227
63.743 -55.6104 29.7549 0 0 182
63.8958 -55.3116 28.3954 0 0 182
65.6094 -52.8986 24.8696 0 0 181
66.1881 -52.4281 25.8029 0 0 181
65.4396 -53.2602 26.2266 0 0 226
62.6248 -55.8764 25.3058 0 0 136
62.6147 -56.2981 26.5963 0 0 136
63.4056 -55.0062 24.8606 0 0 138
62.6248 -55.8764 25.3058 0 0 138
64.1644 -54.1555 24.4255 0 0 181
64.1021 -54.5814 25.7285 0 0 226
63.4056 -55.0062 24.8606 0 0 181
64.969 -53.3019 23.9776 0 0 138
64.1644 -54.1555 24.4255 0 0 138
65.6094 -52.8986 24.8696 0 0 136
64.969 -53.3019 23.9776 0 0 136
3 0 10 8
3 0 12 10
3 0 14 12
3 1 30 32
3 32 31 15
3 30 31 32
3 1 33 35
3 33 16 34
3 33 34 35
3 1 36 38
3 38 37 16
3 36 37 38
3 2 39 41
3 39 17 40
3 39 40 41
3 4 18 9
3 4 19 18
3 4 21 19
3 5 22 11
3 5 42 44
3 44 43 22
3 42 43 44
3 5 45 46
3 6 23 13
3 6 24 23
3 47 25 48
3 50 49 25
3 3 51 52
3 54 53 20
3 55 27 56
3 57 56 26
3 55 56 57
3 7 58 60
3 58 28 59
3 58 59 60
3 7 29 28
3 8 9 2
3 10 9 8
3 10 4 9
3 10 11 4
3 12 11 10
3 12 5 11
3 12 13 5
3 14 13 12
3 14 6 13
3 15 61 63
3 63 62 3
3 61 62 63
3 65 64 15
3 16 66 67
3 16 68 69
3 16 70 71
3 73 72 16
3 74 7 75
3 17 76 77
3 17 78 80
3 78 3 79
3 78 79 80
3 9 17 2
3 18 17 9
3 18 3 17
3 18 15 3
3 19 15 18
3 19 1 15
3 19 20 1
3 21 20 19
3 21 81 83
3 83 82 20
3 81 82 83
3 11 21 4
3 22 21 11
3 22 84 86
3 86 85 21
3 84 85 86
3 22 87 88
3 90 89 22
3 13 91 93
3 93 92 5
3 91 92 93
3 23 94 96
3 96 95 13
3 94 95 96
3 23 97 98
3 23 99 100
3 24 101 103
3 103 102 23
3 101 102 103
3 24 104 105
3 106 2 107
3 108 2 109
3 110 8 111
3 112 111 2
3 110 111 112
3 25 113 115
3 113 8 114
3 113 114 115
3 25 0 8
3 25 26 0
3 116 26 117
3 118 117 25
3 116 117 118
3 120 119 26
3 122 121 3
3 20 123 125
3 125 124 1
3 123 124 125
3 127 126 20
3 26 14 0
3 27 14 26
3 27 6 14
3 128 27 129
3 28 130 132
3 130 27 131
3 130 131 132
3 28 6 27
3 28 24 6
3 29 24 28
3 29 133 135
3 135 134 24
3 133 134 135
3 136 7 137
3 138 7 139
3 140 29 141
3 142 141 7
3 140 141 142
3 143 29 144
3 146 145 29
