ply
format ascii 1.0
element vertex 281
property float x
property float y
property float z
property uchar red
property uchar green
property uchar blue
element face 251
property list uchar int vertex_index
end_header
2.43409 40.6309 36.8596 0 200 255
1.48554 47.9253 27.0657 142 255 113
2.07769 38.9024 46.064 128 0 0
1.41721 37.9928 35.1599 255 214 0
0.487524 41.3647 29.9685 255 55 0
2.06929 44.0581 32.5719 255 212 0
2.11765 35.3333 39.9227 12 255 243
1.26341 37.6776 51.9081 191 255 64
-1.68874 37.6634 27.9633 0 215 255
-0.492823 44.7218 24.3004 203 255 52
0.406755 26.362 67.2992 139 255 116
2.55335 39.9204 40.8105 255 159 0
2.62731 45.397 36.2315 255 163 0
2.21855 45.5535 41.2193 83 255 172
2.50748 50.14 30.8249 21 255 234
2.06606 39.4797 36.0679 136 255 119
1.75444 41.0693 33.7381 255 248 0
2.29897 42.1794 34.9764 137 255 118
2.30866 38.3178 38.2274 139 255 116
1.81056 36.5433 37.5615 75 255 180
0.62859 32.2495 59.966 0 153 255
0.935896 33.0705 56.9877 0 153 255
1.30299 33.8466 54.0148 39 255 216
0.990978 44.6748 28.4396 255 48 0
-0.003511 43.0824 27.1825 240 0 0
0.585905 46.4485 25.5748 255 215 0
0.183834 48.113 22.6141 0 216 255
0.387266 33.3534 66.6868 0 240 255
0.740643 28.0992 70.8594 0 198 255
0.468657 25.2702 69.8876 103 255 152
0.445282 29.3121 68.4054 255 131 0
0.348171 30.3932 65.7335 144 255 111
2.38313 39.4386 43.3378 255 2 0
2.45942 42.6223 41.0398 255 31 0
2.14073 42.3228 43.7242 255 162 0
2.03728 35.3206 48.2368 255 253 0
2.3073 36.0399 45.4933 187 255 68
2.45381 36.7607 42.8873 202 255 53
2.56027 48.3231 35.9443 26 255 229
2.58492 47.8326 33.6267 192 255 63
0.557539 36.3139 34.2593 87 255 168
0.004059 37.9694 31.6335 128 255 127
0.967831 39.6368 32.6344 255 134 0
1.38718 42.8513 31.1763 255 136 0
1.789 46.0093 29.9039 255 102 0
1.07961 34.7387 36.7891 0 221 255
1.68561 38.316 48.9348 255 69 0
1.71912 41.9205 46.5952 149 255 106
1.68614 34.5928 51.087 255 197 0
-0.560564 39.6326 28.9081 255 219 0
-1.12449 41.2387 26.0942 202 255 53
0.420523 31.3645 62.9003 0 143 255
2.56257 40.3327 38.5722 155 255 100
2.5773 42.7348 36.5564 152 255 103
2.6179 42.7883 38.6147 255 195 0
2.52129 45.5776 38.5813 235 255 20
2.30394 34.2967 42.3441 0 225 255
2.45229 37.5008 40.4552 255 232 0
2.48576 44.9161 34.2302 255 234 0
2.33064 47.0668 31.6188 255 126 0
2.1408 49.1556 28.8067 125 255 130
0.738133 34.644 57.4918 0 0 201
0.782243 32.66 58.4769 0 0 253
0.58448 34.2335 58.981 0 0 201
0.900787 35.026 55.9656 0 0 150
0.738133 34.644 57.4918 0 0 150
1.33092 48.8338 25.5866 0 0 174
0.881099 48.0954 24.8411 0 0 174
1.03572 47.1869 26.3203 0 0 213
0.52476 34.7679 67.0214 0 0 137
0.552334 32.7468 67.9536 0 0 137
0.581342 30.7261 68.8129 0 0 178
0.592963 28.7056 69.6324 0 0 218
0.729023 30.1197 70.0399 0 0 178
0.552334 32.7468 67.9536 0 0 180
0.416274 31.3327 67.5461 0 0 222
0.581342 30.7261 68.8129 0 0 180
2.56891 49.6039 34.5382 0 0 137
2.47225 49.8644 35.8306 0 0 137
1.8296 34.3165 39.5885 0 0 128
2.01335 33.6705 40.8153 0 0 128
1.26179 39.5516 50.7531 0 0 196
1.47288 39.8707 49.2664 0 0 196
1.47451 37.9968 50.4214 0 0 246
-2.26571 36.5585 27.5332 0 0 139
-1.93169 35.8315 28.9164 0 0 139
-1.99864 38.4022 26.5506 0 0 140
-2.26571 36.5585 27.5332 0 0 140
-1.08731 43.7297 23.753 0 0 181
-1.40315 41.9882 24.6499 0 0 181
-0.808655 42.9803 25.1973 0 0 224
-0.733306 45.4782 22.821 0 0 140
-1.08731 43.7297 23.753 0 0 140
-0.012594 48.8705 21.0966 0 0 139
0.527341 49.7654 21.8375 0 0 139
0.418376 24.3443 67.96 0 0 187
0.449327 23.7984 69.2542 0 0 187
0.437706 25.8161 68.5934 0 0 233
0.483177 24.849 66.6314 0 0 144
0.418376 24.3443 67.96 0 0 144
0.454621 26.8571 65.926 0 0 145
0.483177 24.849 66.6314 0 0 145
0.343667 32.894 63.4153 0 0 194
0.384347 30.8788 64.3169 0 0 243
0.307491 32.4084 64.8319 0 0 194
0.374596 33.3678 61.9561 0 0 147
0.343667 32.894 63.4153 0 0 147
2.26019 47.0674 39.884 0 0 177
2.41156 47.0794 38.565 0 0 177
2.36992 45.5655 39.9003 0 0 218
1.75259 43.6468 45.3364 0 0 146
1.50921 43.4889 46.8457 0 0 146
2.32497 33.8251 43.6081 0 0 132
2.22714 32.5676 43.2705 0 0 132
1.04515 39.2581 52.296 0 0 149
1.06455 37.3296 53.4258 0 0 149
0.824985 30.6885 59.387 0 0 148
0.674326 30.2576 60.8353 0 0 148
0.978638 31.0991 57.8979 0 0 201
0.824985 30.6885 59.387 0 0 201
0.782243 32.66 58.4769 0 0 254
1.15137 31.5155 56.4482 0 0 147
0.978638 31.0991 57.8979 0 0 147
1.11944 33.4586 55.5012 0 0 252
1.33492 31.9035 54.9617 0 0 200
1.15137 31.5155 56.4482 0 0 200
1.08433 35.4141 54.4792 0 0 200
1.11944 33.4586 55.5012 0 0 251
0.900787 35.026 55.9656 0 0 200
1.06455 37.3296 53.4258 0 0 201
1.2832 35.7621 52.9614 0 0 253
1.08433 35.4141 54.4792 0 0 201
-1.37652 36.8772 29.3409 0 0 138
-1.93169 35.8315 28.9164 0 0 138
0.680064 48.9277 23.3608 0 0 177
0.384869 47.2808 24.0945 0 0 218
0.881099 48.0954 24.8411 0 0 177
0.527341 49.7654 21.8375 0 0 138
0.680064 48.9277 23.3608 0 0 138
0.348894 35.3742 65.7125 0 0 142
0.327039 33.8885 65.3085 0 0 142
0.348894 35.3742 65.7125 0 0 139
0.52476 34.7679 67.0214 0 0 139
0.60465 26.6847 70.3735 0 0 218
0.593611 24.6628 71.0768 0 0 177
0.729604 26.0773 71.5627 0 0 177
0.327039 33.8885 65.3085 0 0 189
0.307491 32.4084 64.8319 0 0 189
0.367719 31.8733 66.2101 0 0 236
2.14085 33.8932 47.8716 0 0 139
2.02951 33.4674 49.2359 0 0 139
2.27586 34.2528 46.4998 0 0 182
2.14085 33.8932 47.8716 0 0 182
2.17229 35.6803 46.8651 0 0 224
2.32665 34.6967 45.1827 0 0 135
2.27586 34.2528 46.4998 0 0 135
2.38056 36.4003 44.1903 0 0 210
2.3999 35.057 43.8797 0 0 172
2.32665 34.6967 45.1827 0 0 172
2.58124 49.3587 33.3794 0 0 170
2.57259 48.0778 34.7855 0 0 207
2.56891 49.6039 34.5382 0 0 170
2.54252 50.5124 31.9785 0 0 171
2.5462 48.9863 32.2258 0 0 209
2.58124 49.3587 33.3794 0 0 171
0.280799 37.1416 32.9464 0 0 205
-0.217772 36.2197 32.5149 0 0 169
0.058969 35.3919 33.8278 0 0 169
1.67606 34.9215 38.4079 0 0 156
1.8296 34.3165 39.5885 0 0 156
1.9641 35.9383 38.7421 0 0 186
1.31058 34.0192 38.0217 0 0 158
1.67606 34.9215 38.4079 0 0 158
1.44508 35.641 37.1753 0 0 188
0.918825 33.0169 37.6558 0 0 129
1.31058 34.0192 38.0217 0 0 129
0.62712 33.7965 36.3916 0 0 131
0.918825 33.0169 37.6558 0 0 131
0.366085 34.584 35.1267 0 0 165
0.62712 33.7965 36.3916 0 0 165
0.818574 35.5263 35.5242 0 0 199
0.058969 35.3919 33.8278 0 0 132
0.366085 34.584 35.1267 0 0 132
0.99711 27.4188 71.9547 0 0 133
0.729604 26.0773 71.5627 0 0 133
1.00812 29.4334 71.1704 0 0 132
0.99711 27.4188 71.9547 0 0 132
0.729023 30.1197 70.0399 0 0 133
1.00812 29.4334 71.1704 0 0 133
1.48964 41.673 48.0966 0 0 196
1.70236 40.1182 47.765 0 0 246
1.47288 39.8707 49.2664 0 0 196
1.50921 43.4889 46.8457 0 0 146
1.48964 41.673 48.0966 0 0 146
1.26179 39.5516 50.7531 0 0 149
1.04515 39.2581 52.296 0 0 149
1.50892 32.3152 53.5285 0 0 146
1.33492 31.9035 54.9617 0 0 146
1.7005 32.6883 52.0646 0 0 196
1.50892 32.3152 53.5285 0 0 196
1.49456 34.2197 52.5509 0 0 246
1.85395 33.1034 50.661 0 0 143
1.7005 32.6883 52.0646 0 0 143
1.86171 34.9567 49.6619 0 0 236
2.02951 33.4674 49.2359 0 0 190
1.85395 33.1034 50.661 0 0 190
-0.530115 37.0302 31.176 0 0 134
-0.217772 36.2197 32.5149 0 0 134
-0.812426 37.8618 29.8133 0 0 173
-0.530115 37.0302 31.176 0 0 173
-0.278252 38.801 30.2708 0 0 212
-1.12465 38.648 28.4357 0 0 217
-1.37652 36.8772 29.3409 0 0 177
-0.812426 37.8618 29.8133 0 0 177
-1.71652 40.1899 25.6161 0 0 181
-1.99864 38.4022 26.5506 0 0 181
-1.40662 39.4511 27.0287 0 0 224
-1.71652 40.1899 25.6161 0 0 140
-1.40315 41.9882 24.6499 0 0 140
-0.394977 47.1738 21.9778 0 0 182
-0.733306 45.4782 22.821 0 0 182
-0.154495 46.4174 23.4573 0 0 224
-0.394977 47.1738 21.9778 0 0 140
-0.012594 48.8705 21.0966 0 0 140
0.458173 23.2458 70.5068 0 0 138
0.593611 24.6628 71.0768 0 0 138
0.458173 23.2458 70.5068 0 0 141
0.449327 23.7984 69.2542 0 0 141
0.425329 28.8727 65.1432 0 0 193
0.454621 26.8571 65.926 0 0 193
0.377463 28.3776 66.5163 0 0 241
0.461505 29.3584 63.7266 0 0 195
0.425329 28.8727 65.1432 0 0 195
0.384347 30.8788 64.3169 0 0 245
0.570292 29.8151 62.3025 0 0 147
0.461505 29.3584 63.7266 0 0 147
0.524556 31.807 61.4331 0 0 251
0.674326 30.2576 60.8353 0 0 200
0.570292 29.8151 62.3025 0 0 200
0.478629 33.8103 60.4889 0 0 199
0.524556 31.807 61.4331 0 0 250
0.374596 33.3678 61.9561 0 0 199
0.58448 34.2335 58.981 0 0 149
0.478629 33.8103 60.4889 0 0 149
2.43105 48.4522 37.2465 0 0 176
2.54078 46.9503 37.2628 0 0 216
2.41156 47.0794 38.565 0 0 176
2.47225 49.8644 35.8306 0 0 138
2.43105 48.4522 37.2465 0 0 138
1.9634 43.848 43.9009 0 0 188
1.92992 42.1216 45.1597 0 0 234
1.75259 43.6468 45.3364 0 0 188
2.00231 45.4633 42.6485 0 0 187
2.17964 43.9381 42.4718 0 0 232
1.9634 43.848 43.9009 0 0 187
2.04959 47.1 41.3052 0 0 142
2.00231 45.4633 42.6485 0 0 142
2.26019 47.0674 39.884 0 0 142
2.04959 47.1 41.3052 0 0 142
2.1065 33.1523 42.026 0 0 130
2.22714 32.5676 43.2705 0 0 130
2.21079 34.815 41.1334 0 0 192
2.01335 33.6705 40.8153 0 0 160
2.1065 33.1523 42.026 0 0 160
2.37887 35.5287 42.6157 0 0 199
2.32497 33.8251 43.6081 0 0 165
2.3999 35.057 43.8797 0 0 165
2.54354 51.7061 30.4966 0 0 135
2.54252 50.5124 31.9785 0 0 135
2.45903 51.2255 29.3474 0 0 136
2.54354 51.7061 30.4966 0 0 136
2.27569 50.7333 28.3383 0 0 171
2.32414 49.6478 29.8158 0 0 209
2.45903 51.2255 29.3474 0 0 171
2.03837 50.1465 27.3295 0 0 135
2.27569 50.7333 28.3383 0 0 135
1.71074 49.5314 26.459 0 0 171
1.81317 48.5404 27.9362 0 0 209
2.03837 50.1465 27.3295 0 0 171
1.33092 48.8338 25.5866 0 0 135
1.71074 49.5314 26.459 0 0 135
3 0 17 15
3 0 15 18
3 61 21 62
3 63 62 20
3 61 62 63
3 65 64 21
3 1 25 23
3 1 66 68
3 68 67 25
3 66 67 68
3 70 69 27
3 71 30 72
3 73 72 28
3 71 72 73
3 74 27 75
3 76 75 30
3 74 75 76
3 2 34 32
3 2 36 35
3 2 32 36
3 78 77 38
3 3 42 40
3 5 43 16
3 5 44 43
3 6 79 80
3 3 45 19
3 3 40 45
3 7 81 83
3 83 82 46
3 81 82 83
3 7 48 22
3 7 46 48
3 8 84 85
3 8 86 87
3 4 49 41
3 9 50 24
3 9 88 90
3 90 89 50
3 88 89 90
3 9 91 92
3 94 93 26
3 10 95 97
3 97 96 29
3 95 96 97
3 10 98 99
3 10 100 101
3 102 51 103
3 104 103 31
3 102 103 104
3 106 105 51
3 11 54 52
3 13 55 33
3 13 107 109
3 109 108 55
3 107 108 109
3 111 110 47
3 112 56 113
3 11 57 37
3 11 52 57
3 12 58 53
3 14 59 39
3 14 60 59
3 15 16 3
3 17 16 15
3 17 5 16
3 18 19 6
3 15 19 18
3 15 3 19
3 115 114 7
3 20 116 117
3 21 118 120
3 120 119 20
3 118 119 120
3 21 121 122
3 21 123 125
3 123 22 124
3 123 124 125
3 126 22 127
3 128 127 21
3 126 127 128
3 129 7 130
3 131 130 22
3 129 130 131
3 132 8 133
3 23 24 4
3 25 24 23
3 25 9 24
3 25 26 9
3 134 26 135
3 136 135 25
3 134 135 136
3 138 137 26
3 27 139 140
3 142 141 27
3 28 143 145
3 143 29 144
3 143 144 145
3 30 29 28
3 30 10 29
3 30 31 10
3 27 31 30
3 27 146 148
3 148 147 31
3 146 147 148
3 32 33 11
3 34 33 32
3 34 13 33
3 35 149 150
3 36 151 153
3 153 152 35
3 151 152 153
3 36 154 155
3 36 156 158
3 156 37 157
3 156 157 158
3 32 37 36
3 32 11 37
3 38 39 12
3 159 39 160
3 161 160 38
3 159 160 161
3 162 14 163
3 164 163 39
3 162 163 164
3 40 165 167
3 165 41 166
3 165 166 167
3 42 41 40
3 42 4 41
3 16 42 3
3 43 42 16
3 43 4 42
3 43 23 4
3 44 23 43
3 44 1 23
3 19 168 170
3 170 169 6
3 168 169 170
3 45 171 173
3 173 172 19
3 171 172 173
3 45 174 175
3 45 176 177
3 40 178 180
3 180 179 45
3 178 179 180
3 40 181 182
3 183 28 184
3 185 28 186
3 188 187 28
3 46 47 2
3 189 47 190
3 191 190 46
3 189 190 191
3 193 192 47
3 195 194 7
3 22 196 197
3 48 198 200
3 200 199 22
3 198 199 200
3 48 201 202
3 48 203 205
3 203 35 204
3 203 204 205
3 46 35 48
3 46 2 35
3 41 206 207
3 49 208 210
3 210 209 41
3 208 209 210
3 49 211 213
3 211 8 212
3 211 212 213
3 24 49 4
3 50 49 24
3 50 8 49
3 50 214 216
3 216 215 8
3 214 215 216
3 218 217 50
3 26 219 221
3 221 220 9
3 219 220 221
3 223 222 26
3 29 224 225
3 227 226 29
3 31 228 230
3 230 229 10
3 228 229 230
3 51 231 233
3 233 232 31
3 231 232 233
3 51 234 235
3 51 236 238
3 236 20 237
3 236 237 238
3 239 20 240
3 241 240 51
3 239 240 241
3 243 242 20
3 52 53 0
3 54 53 52
3 54 12 53
3 33 54 11
3 55 54 33
3 55 12 54
3 55 38 12
3 244 38 245
3 246 245 55
3 244 245 246
3 248 247 38
3 47 34 2
3 249 34 250
3 251 250 47
3 249 250 251
3 252 13 253
3 254 253 34
3 252 253 254
3 255 13 256
3 258 257 13
3 56 259 260
3 56 261 263
3 261 6 262
3 261 262 263
3 37 264 266
3 264 56 265
3 264 265 266
3 57 56 37
3 57 6 56
3 57 18 6
3 52 18 57
3 52 0 18
3 53 17 0
3 58 17 53
3 58 5 17
3 39 58 12
3 59 58 39
3 59 5 58
3 59 44 5
3 60 44 59
3 60 1 44
3 267 14 268
3 269 14 270
3 271 60 272
3 273 272 14
3 271 272 273
3 274 60 275
3 276 1 277
3 278 277 60
3 276 277 278
3 280 279 1
