ply
format ascii 1.0
element vertex 110
property float x
property float y
property float z
property uchar red
property uchar green
property uchar blue
element face 81
property list uchar int vertex_index
end_header
-1.13674 30.4537 72.2563 233 255 22
-1.85953 22.8165 76.6101 29 255 226
0.021446 30.4247 68.3014 128 0 0
-4.18063 25.3455 76.6508 0 149 255
-2.69627 26.1428 75.8069 29 255 226
0.028297 36.2249 59.899 88 255 167
0.083261 33.1873 62.9607 67 255 188
-0.612364 26.9462 72.9156 255 66 0
-0.384563 30.5759 70.455 255 8 0
-0.077536 26.9585 70.9017 191 0 0
0.138668 26.7342 68.5786 255 49 0
-1.4895 26.6773 74.5608 200 255 55
0.120201 30.0295 65.8689 255 241 0
-4.4279 23.335 77.5383 0 0 133
-5.01915 24.8217 76.8789 0 0 133
-3.66543 23.7668 77.1825 0 0 129
-4.4279 23.335 77.5383 0 0 129
0.081206 36.5924 61.1915 0 0 163
0.086591 38.1389 59.6219 0 0 163
0.108688 35.0735 62.7224 0 0 245
0.055779 34.7061 61.4299 0 73 255
0.081206 36.5924 61.1915 0 0 245
-0.141506 25.1596 72.0711 0 0 202
-0.34495 26.9523 71.9086 0 9 255
-0.408919 25.1535 73.0781 0 0 202
0.028855 25.1266 70.9716 0 0 145
-0.141506 25.1596 72.0711 0 0 145
-1.36382 23.0112 75.8611 0 0 183
-1.1788 24.9416 74.8365 0 0 183
-1.67451 24.7469 75.5854 0 0 236
-0.974241 32.289 70.988 0 0 131
-1.46676 32.1558 71.775 0 0 131
-0.08373 32.2531 68.032 0 0 212
-0.286735 32.3287 69.1088 0 0 212
-0.181558 30.5003 69.3782 0 24 255
0.056785 32.0902 66.8913 0 0 148
-0.08373 32.2531 68.032 0 0 148
0.070823 30.2271 67.0851 0 51 255
0.106162 31.8926 65.6751 0 0 230
0.056785 32.0902 66.8913 0 0 230
0.113632 26.5181 67.3043 0 0 155
0.165186 24.881 68.5829 0 0 155
-4.74752 26.8491 75.9542 0 0 134
-5.01915 24.8217 76.8789 0 0 134
-3.91873 27.3414 75.6544 0 0 133
-4.74752 26.8491 75.9542 0 0 133
-3.43845 25.7442 76.2288 0 0 234
-3.17655 27.7401 75.2324 0 0 182
-3.91873 27.3414 75.6544 0 0 182
-2.92325 24.1655 76.7606 0 0 181
-3.43845 25.7442 76.2288 0 0 234
-3.66543 23.7668 77.1825 0 0 181
-2.50488 22.5023 77.1622 0 0 178
-2.2779 24.4797 76.2085 0 0 229
-2.92325 24.1655 76.7606 0 0 178
-0.009421 37.6946 58.3086 0 0 165
0.086591 38.1389 59.6219 0 0 165
-0.117498 35.7687 58.5594 0 0 167
-0.009421 37.6946 58.3086 0 0 167
-0.056418 34.3244 60.0991 0 0 165
-0.117498 35.7687 58.5594 0 0 165
-0.028936 32.8056 61.63 0 0 250
-0.056418 34.3244 60.0991 0 0 250
0.055779 34.7061 61.4299 0 82 255
0.029756 31.3078 63.1056 0 0 162
-0.028936 32.8056 61.63 0 0 162
0.136957 25.0144 69.8101 0 0 219
0.030566 26.8463 69.7401 0 36 255
0.028855 25.1266 70.9716 0 0 219
0.165186 24.881 68.5829 0 0 153
0.136957 25.0144 69.8101 0 0 153
-1.68813 30.2476 72.959 0 0 129
-1.46676 32.1558 71.775 0 0 129
-2.4679 28.0921 74.7342 0 0 129
-3.17655 27.7401 75.2324 0 0 129
-1.86451 28.3594 74.1112 0 0 179
-2.4679 28.0921 74.7342 0 0 179
-2.09288 26.41 75.1838 0 0 230
-1.31312 28.5655 73.4086 0 0 233
-1.68813 30.2476 72.959 0 0 181
-1.86451 28.3594 74.1112 0 0 181
-0.740237 25.076 74.0139 0 0 186
-1.05093 26.8117 73.7382 0 0 241
-1.1788 24.9416 74.8365 0 0 186
-0.408919 25.1535 73.0781 0 0 136
-0.740237 25.076 74.0139 0 0 136
-0.598154 32.3501 70.0873 0 0 193
-0.974241 32.289 70.988 0 0 193
-0.760651 30.5148 71.3557 0 0 251
-0.598154 32.3501 70.0873 0 0 139
-0.286735 32.3287 69.1088 0 0 139
0.087692 33.4715 64.221 0 0 158
0.108688 35.0735 62.7224 0 0 158
0.101731 31.6084 64.4148 0 61 255
0.087692 33.4715 64.221 0 0 236
0.106162 31.8926 65.6751 0 0 236
0.048226 29.729 64.5596 0 0 243
0.029756 31.3078 63.1056 0 0 243
0.101731 31.6084 64.4148 0 72 255
0.104399 28.1657 65.9495 0 0 236
0.129435 28.3818 67.2238 0 60 255
0.113632 26.5181 67.3043 0 0 236
0.048226 29.729 64.5596 0 0 159
0.104399 28.1657 65.9495 0 0 159
-2.04494 20.8593 77.5016 0 0 128
-2.50488 22.5023 77.1622 0 0 128
-1.50141 21.0987 76.8173 0 0 129
-2.04494 20.8593 77.5016 0 0 129
-1.36382 23.0112 75.8611 0 0 130
-1.50141 21.0987 76.8173 0 0 130
3 13 3 14
3 16 15 3
3 17 5 18
3 19 6 20
3 21 20 5
3 19 20 21
3 22 9 23
3 24 23 7
3 22 23 24
3 26 25 9
3 1 11 4
3 1 27 29
3 29 28 11
3 27 28 29
3 0 30 31
3 2 32 34
3 34 33 8
3 32 33 34
3 2 35 36
3 2 37 39
3 37 12 38
3 37 38 39
3 41 40 10
3 3 42 43
3 3 44 45
3 3 46 48
3 46 4 47
3 46 47 48
3 49 4 50
3 51 50 3
3 49 50 51
3 52 1 53
3 54 53 4
3 52 53 54
3 5 55 56
3 5 57 58
3 5 59 60
3 6 61 63
3 63 62 5
3 61 62 63
3 6 64 65
3 7 8 0
3 9 8 7
3 9 2 8
3 9 10 2
3 66 10 67
3 68 67 9
3 66 67 68
3 70 69 10
3 71 0 72
3 4 73 74
3 11 75 77
3 77 76 4
3 75 76 77
3 11 78 80
3 78 0 79
3 78 79 80
3 11 7 0
3 81 7 82
3 83 82 11
3 81 82 83
3 85 84 7
3 8 86 88
3 88 87 0
3 86 87 88
3 90 89 8
3 91 6 92
3 12 93 95
3 93 6 94
3 93 94 95
3 12 96 98
3 98 97 6
3 96 97 98
3 10 12 2
3 99 12 100
3 101 100 10
3 99 100 101
3 103 102 12
3 104 1 105
3 106 1 107
3 109 108 1
