ply
format ascii 1.0
element vertex 428
property float x
property float y
property float z
property uchar red
property uchar green
property uchar blue
element face 423
property list uchar int vertex_index
end_header
2.68846 34.2486 -29.2774 53 255 202
4.95668 26.398 -21.1519 235 255 20
2.21611 11.4126 -25.3521 255 37 0
6.00268 5.01509 -18.7681 140 0 0
-2.25791 19.1802 -28.6329 255 95 0
3.46429 46.2576 -24.1941 225 255 30
5.6029 15.6038 -19.7293 151 0 0
6.99157 13.2525 -15.7311 255 20 0
0.845982 26.9113 -29.4685 111 255 144
1.39098 0.112896 -24.5374 181 255 74
-1.18731 3.96247 -26.2478 255 235 0
4.58126 46.1778 -14.6292 128 0 0
4.78029 49.3787 -9.48258 120 255 135
3.22557 50.7123 -19.6316 238 255 17
4.40131 42.0026 -19.1535 128 0 0
-9.64503 14.6602 -27.8505 156 255 99
-12.7458 17.0335 -28.4976 0 162 255
3.79989 30.3628 -25.5257 236 0 0
2.56995 23.0821 -27.0049 255 117 0
4.09279 19.1353 -23.6185 200 0 0
4.20326 7.71017 -22.4251 178 0 0
3.79171 -2.99155 -21.7474 90 255 165
-5.01349 22.3623 -29.2373 246 255 9
-6.66574 11.5816 -27.4883 230 0 0
0.105404 15.4113 -27.4234 255 119 0
-3.85648 7.92898 -27.1047 240 0 0
3.43887 40.7709 -27.5371 158 255 97
4.24495 36.749 -22.8673 145 0 0
8.05568 13.1294 -11.7119 144 255 111
7.42884 4.0323 -14.5214 255 154 0
6.64602 17.9346 -16.2945 148 255 107
7.23047 16.9881 -14.4306 67 255 188
1.91849 30.6591 -29.5423 22 255 233
3.82818 50.307 -14.5875 239 255 16
4.68984 47.8991 -12.1267 255 131 0
2.37875 56.4729 -16.6925 0 101 255
3.113 52.5828 -17.0446 106 255 149
3.82089 48.5023 -17.1292 137 0 0
4.35495 28.3695 -23.3727 166 0 0
3.95628 24.8237 -24.5058 216 0 0
4.61268 22.8726 -22.4701 158 0 0
5.85393 10.241 -19.206 147 0 0
5.03893 11.679 -21.1202 149 0 0
5.138 6.18839 -20.6787 148 0 0
4.08957 2.21113 -22.0662 176 0 0
5.09454 0.913679 -20.3151 255 150 0
-1.74229 24.7773 -29.6889 179 255 76
-3.07626 26.3111 -30.0625 3 255 252
-3.58362 20.8624 -28.984 255 69 0
-5.71701 16.9803 -28.271 255 15 0
-4.29992 15.3296 -28.0533 255 23 0
2.43223 17.2628 -26.0647 255 77 0
1.51354 19.2588 -27.3303 255 144 0
1.18107 13.4127 -26.4998 255 90 0
-3.54304 0.513464 -26.3831 75 255 180
-2.50889 5.96289 -26.7623 251 0 0
-4.9752 2.4892 -26.6583 201 255 54
-6.41549 4.42075 -26.8149 205 255 50
3.51279 43.6479 -26.0488 199 255 56
3.81033 38.7888 -25.2701 195 0 0
3.86704 41.6165 -23.6277 156 0 0
5.08291 39.726 -16.6471 246 255 9
4.92535 37.3439 -18.6318 246 255 9
8.30554 9.07597 -10.7598 88 255 167
7.83461 8.58429 -12.9971 209 0 0
7.9722 4.28301 -12.2105 107 255 148
5.29384 21.0177 -20.3777 255 147 0
5.98397 19.3368 -18.2972 211 255 44
6.32793 14.2197 -17.7249 197 0 0
6.60573 9.18406 -17.2083 174 0 0
-0.194881 28.6559 -30.2838 0 201 255
-0.543606 23.0635 -29.1353 255 175 0
1.88442 5.65384 -24.8651 255 1 0
0.727373 7.61443 -25.9083 255 38 0
0.114033 1.98777 -25.5175 166 255 89
5.26234 41.8335 -14.485 248 255 7
5.45368 43.691 -12.1586 251 255 4
5.63093 45.31 -9.67794 255 255 0
5.75958 46.6866 -7.05047 0 249 255
3.35252 48.6079 -22.0335 236 255 19
3.85891 44.1701 -21.6908 138 0 0
3.83374 46.4602 -19.5091 134 0 0
4.48121 44.216 -16.9781 128 0 0
-8.7553 19.7286 -28.6951 253 255 2
-10.3544 20.7975 -28.9768 19 255 236
-11.1844 15.9376 -28.1321 135 255 120
3.26244 32.3359 -27.5225 255 84 0
2.65259 28.768 -28.1116 255 158 0
3.31456 26.8069 -26.4112 255 53 0
3.3381 21.0945 -25.4027 255 25 0
3.31821 15.2827 -24.5844 253 0 0
4.84974 17.2765 -21.7094 153 0 0
4.18768 13.3923 -22.9241 187 0 0
3.22392 9.48328 -23.9889 231 0 0
3.01065 3.82234 -23.5849 213 0 0
2.62635 -1.57679 -23.2843 199 255 56
-6.53904 23.6528 -29.4522 30 255 225
-7.20541 18.4531 -28.4689 255 21 0
-8.13591 13.204 -27.6463 255 221 0
-9.33702 8.00535 -27.0306 73 255 182
1.75389 25.0382 -28.3724 255 196 0
0.5327 21.2093 -28.3558 255 179 0
-1.03331 17.3498 -28.1269 255 118 0
-0.457857 9.62303 -26.7237 255 57 0
-1.68073 11.6124 -27.3299 255 56 0
-2.95674 13.5288 -27.7582 255 41 0
-5.23966 9.81393 -27.3272 230 0 0
-7.86866 6.26916 -26.9183 202 255 53
5.80444 47.8059 -4.2842 0 119 255
3.18183 37.6311 -28.617 105 255 150
3.62947 35.6887 -26.5761 255 4 0
4.08801 33.6906 -24.3412 178 0 0
4.60625 31.6636 -22.0087 255 144 0
4.3328 39.519 -21.1275 131 0 0
4.77809 34.6604 -20.424 246 255 9
7.70953 16.9087 -12.6454 0 213 255
7.56784 12.8641 -13.7451 255 71 0
7.26973 8.61087 -15.1407 206 0 0
6.77172 4.27732 -16.7109 146 0 0
6.77468 -0.428621 -16.179 115 255 140
5.99678 0.013935 -18.3457 241 255 14
7.29482 18.4514 -13.9458 0 0 129
7.05761 19.0602 -14.6831 0 0 129
2.30348 32.4539 -29.4098 0 0 190
1.96467 33.3599 -30.1316 0 0 162
2.34965 35.1546 -29.9991 0 0 162
3.83587 51.0911 -13.2474 0 0 148
3.42549 52.265 -14.4502 0 0 148
3.0679 53.4029 -15.6788 0 0 189
2.74587 54.5278 -16.8685 0 0 231
2.70077 55.3479 -15.5027 0 0 189
3.42549 52.265 -14.4502 0 0 191
3.47059 51.4449 -15.816 0 0 234
3.0679 53.4029 -15.6788 0 0 191
-5.65087 -0.101716 -26.5058 0 0 188
-4.25912 1.50133 -26.5207 0 0 229
-4.93479 -1.08958 -26.3682 0 0 188
-6.40454 0.868164 -26.5673 0 0 148
-5.65087 -0.101716 -26.5058 0 0 148
3.32466 47.2675 -25.389 0 0 146
3.24793 48.472 -24.3434 0 0 146
3.48854 44.9528 -25.1215 0 0 228
3.34891 45.9627 -26.3163 0 0 187
3.32466 47.2675 -25.389 0 0 187
5.35291 37.3951 -16.4285 0 0 149
5.47232 38.5117 -15.4343 0 0 149
8.19245 4.62563 -11.0005 0 0 193
8.13887 6.67949 -11.4852 0 0 237
8.35912 7.02211 -10.2752 0 0 193
6.12469 21.026 -17.5688 0 0 147
5.79383 21.916 -18.6221 0 0 147
0.325551 27.7836 -29.8762 0 0 188
0.430829 30.5457 -30.473 0 0 160
0.95126 29.6734 -30.0654 0 0 160
3.02092 51.7799 -20.8655 0 0 148
2.90703 52.743 -19.5553 0 0 148
3.28905 49.6601 -20.8326 0 0 233
3.08439 50.7276 -22.0665 0 0 190
3.02092 51.7799 -20.8655 0 0 190
2.90581 -4.80133 -22.3562 0 0 187
2.32313 -4.09395 -23.1247 0 0 187
3.20903 -2.28417 -22.5159 0 0 227
-4.77795 24.9966 -29.7773 0 0 175
-3.80934 26.971 -30.1899 0 0 175
-4.04488 24.3367 -29.6499 0 0 209
-5.77627 23.0075 -29.3448 0 0 213
-5.54073 25.6418 -29.8848 0 0 177
-4.77795 24.9966 -29.7773 0 0 177
-8.59764 3.70437 -26.7311 0 0 188
-7.14207 5.34495 -26.8666 0 0 230
-7.87105 2.78017 -26.6794 0 0 188
-9.33704 4.61143 -26.7717 0 0 147
-8.59764 3.70437 -26.7311 0 0 147
5.28795 49.6808 -4.04152 0 0 150
5.31151 49.2049 -5.49427 0 0 150
3.25083 41.7232 -28.5536 0 0 140
3.32741 43.1898 -27.9168 0 0 140
3.31035 39.201 -28.0771 0 0 210
3.12232 40.1533 -29.0935 0 0 176
3.25083 41.7232 -28.5536 0 0 176
5.09324 33.5901 -19.2247 0 0 191
4.85172 36.0022 -19.5279 0 0 233
5.16687 34.9319 -18.3286 0 0 191
4.98938 32.1452 -20.0474 0 0 149
5.09324 33.5901 -19.2247 0 0 149
-12.3692 19.3488 -28.9061 0 0 174
-11.1735 21.2308 -29.1457 0 0 174
-11.5501 18.9155 -28.7372 0 0 208
6.28005 -2.55499 -17.0162 0 0 149
6.67238 -2.64404 -15.8636 0 0 149
5.8911 -2.33371 -18.0996 0 0 192
6.38573 -0.207343 -17.2624 0 0 236
6.28005 -2.55499 -17.0162 0 0 192
5.42546 -2.01697 -19.1382 0 0 148
5.8911 -2.33371 -18.0996 0 0 148
6.76538 19.5334 -15.6151 0 0 141
6.45571 20.3249 -16.5675 0 0 141
6.93825 17.4613 -15.3625 0 0 198
6.76538 19.5334 -15.6151 0 0 167
7.05761 19.0602 -14.6831 0 0 167
1.48751 31.5473 -30.1023 0 0 131
1.96467 33.3599 -30.1316 0 0 131
1.38224 28.7852 -29.5054 0 0 187
0.95126 29.6734 -30.0654 0 0 160
1.48751 31.5473 -30.1023 0 0 160
0.34532 -1.61913 -24.8849 0 0 145
1.03954 -2.49244 -24.3964 0 0 145
4.2667 49.8871 -12.017 0 0 192
4.25901 49.103 -13.3571 0 0 235
3.83587 51.0911 -13.2474 0 0 192
4.31192 50.6269 -10.6949 0 0 191
4.73507 48.6389 -10.8046 0 0 234
4.2667 49.8871 -12.017 0 0 191
2.48362 55.6233 -18.0858 0 0 147
2.16115 57.5708 -17.8637 0 0 147
2.85075 53.6782 -18.2618 0 0 190
2.48362 55.6233 -18.0858 0 0 190
2.74587 54.5278 -16.8685 0 0 233
3.16929 51.6476 -18.3381 0 0 232
2.90703 52.743 -19.5553 0 0 190
2.85075 53.6782 -18.2618 0 0 190
-10.9761 12.8613 -27.6614 0 0 144
-10.2317 12.1341 -27.5271 0 0 144
-2.40927 25.5442 -29.8757 0 0 203
-2.23612 28.27 -30.4525 0 0 171
-1.56913 27.5031 -30.2658 0 0 171
-7.12468 1.83394 -26.6456 0 0 189
-5.69534 3.45497 -26.7366 0 0 230
-6.40454 0.868164 -26.5673 0 0 189
-7.87105 2.78017 -26.6794 0 0 148
-7.12468 1.83394 -26.6456 0 0 148
3.36437 44.6283 -27.1727 0 0 144
3.34891 45.9627 -26.3163 0 0 144
3.47583 42.2094 -26.793 0 0 221
3.32741 43.1898 -27.9168 0 0 182
3.36437 44.6283 -27.1727 0 0 182
5.27413 36.204 -17.4209 0 0 191
5.00413 38.535 -17.6394 0 0 234
5.35291 37.3951 -16.4285 0 0 191
5.16687 34.9319 -18.3286 0 0 149
5.27413 36.204 -17.4209 0 0 149
-13.5351 17.495 -28.7136 0 0 139
-14.0151 15.2708 -28.4077 0 0 139
5.44877 22.7564 -19.6624 0 0 193
5.12526 23.7078 -20.7648 0 0 237
5.28019 25.4466 -20.0495 0 0 193
5.63891 20.1773 -19.3375 0 0 228
5.44877 22.7564 -19.6624 0 0 187
5.79383 21.916 -18.6221 0 0 187
6.315 18.6357 -17.2959 0 0 218
6.12469 21.026 -17.5688 0 0 180
6.45571 20.3249 -16.5675 0 0 180
-0.086677 31.3543 -30.8748 0 0 132
0.430829 30.5457 -30.473 0 0 132
-0.79543 29.4424 -30.5632 0 0 134
-0.086677 31.3543 -30.8748 0 0 134
-0.968583 26.7166 -29.9864 0 0 195
-1.56913 27.5031 -30.2658 0 0 166
-0.79543 29.4424 -30.5632 0 0 166
-0.293153 -0.681693 -25.3749 0 0 184
0.752507 1.05033 -25.0275 0 0 223
0.34532 -1.61913 -24.8849 0 0 184
-1.00117 0.266371 -25.722 0 0 145
-0.293153 -0.681693 -25.3749 0 0 145
-1.65184 1.25372 -26.0871 0 0 183
-0.536637 2.97512 -25.8827 0 0 222
-1.00117 0.266371 -25.722 0 0 183
-2.82971 -0.47078 -26.1548 0 0 185
-2.36517 2.23797 -26.3154 0 0 225
-1.65184 1.25372 -26.0871 0 0 185
-4.17395 -2.06199 -26.2421 0 0 146
-2.82971 -0.47078 -26.1548 0 0 146
-4.93479 -1.08958 -26.3682 0 0 148
-4.17395 -2.06199 -26.2421 0 0 148
5.69027 40.5491 -13.2738 0 0 149
5.56203 39.5654 -14.3532 0 0 149
5.78594 41.4778 -12.1106 0 0 193
5.69027 40.5491 -13.2738 0 0 193
5.35801 42.7622 -13.3218 0 0 237
5.9108 42.3434 -10.949 0 0 150
5.78594 41.4778 -12.1106 0 0 150
5.99943 43.1529 -9.7087 0 0 194
5.9108 42.3434 -10.949 0 0 194
5.5423 44.5005 -10.9183 0 0 239
6.10392 43.9045 -8.4686 0 0 150
5.99943 43.1529 -9.7087 0 0 150
6.16825 44.5929 -7.15487 0 0 195
6.10392 43.9045 -8.4686 0 0 195
5.69526 45.9983 -8.3642 0 0 240
6.23443 45.2259 -5.84052 0 0 151
6.16825 44.5929 -7.15487 0 0 151
3.19204 49.6471 -23.2631 0 0 148
3.08439 50.7276 -22.0665 0 0 148
3.40841 47.4327 -23.1138 0 0 231
3.24793 48.472 -24.3434 0 0 190
3.19204 49.6471 -23.2631 0 0 190
5.56203 39.5654 -14.3532 0 0 192
5.47232 38.5117 -15.4343 0 0 192
5.17263 40.7798 -15.566 0 0 235
-9.55483 20.263 -28.836 0 0 213
-9.24967 22.7572 -29.3258 0 0 177
-8.45014 22.2228 -29.185 0 0 177
-11.7458 13.5 -27.8022 0 0 179
-10.4147 15.2989 -27.9913 0 0 216
-10.9761 12.8613 -27.6614 0 0 179
-12.4907 14.1498 -27.9899 0 0 142
-11.7458 13.5 -27.8022 0 0 142
-13.2714 14.6977 -28.1726 0 0 176
-11.9651 16.4855 -28.3148 0 0 211
-12.4907 14.1498 -27.9899 0 0 176
-14.0151 15.2708 -28.4077 0 0 140
-13.2714 14.6977 -28.1726 0 0 140
1.65722 -3.33729 -23.7698 0 0 185
1.03954 -2.49244 -24.3964 0 0 185
2.00866 -0.731947 -23.9109 0 0 225
1.65722 -3.33729 -23.7698 0 0 145
2.32313 -4.09395 -23.1247 0 0 145
2.01378 58.335 -16.378 0 0 147
2.16115 57.5708 -17.8637 0 0 147
2.28731 57.2081 -15.2368 0 0 147
2.01378 58.335 -16.378 0 0 147
2.70077 55.3479 -15.5027 0 0 148
2.28731 57.2081 -15.2368 0 0 148
-2.92063 28.9507 -30.6298 0 0 137
-2.23612 28.27 -30.4525 0 0 137
-2.92063 28.9507 -30.6298 0 0 140
-3.80934 26.971 -30.1899 0 0 140
-6.33214 26.1821 -29.9831 0 0 141
-5.54073 25.6418 -29.8848 0 0 141
-7.34201 24.1849 -29.5635 0 0 141
-6.33214 26.1821 -29.9831 0 0 141
-7.64717 21.6907 -29.0737 0 0 213
-8.45014 22.2228 -29.185 0 0 177
-7.34201 24.1849 -29.5635 0 0 177
-9.47715 11.406 -27.425 0 0 182
-10.2317 12.1341 -27.5271 0 0 182
-8.89047 13.9321 -27.7484 0 0 220
-10.0777 8.80666 -27.1172 0 0 184
-9.47715 11.406 -27.425 0 0 184
-8.73646 10.6047 -27.3384 0 0 224
-10.8029 6.33632 -26.9036 0 0 145
-10.0777 8.80666 -27.1172 0 0 145
-10.0712 5.47953 -26.8278 0 0 187
-8.60284 7.13725 -26.9745 0 0 227
-9.33704 4.61143 -26.7717 0 0 187
-10.8029 6.33632 -26.9036 0 0 146
-10.0712 5.47953 -26.8278 0 0 146
4.31049 51.2877 -9.29175 0 0 149
4.31192 50.6269 -10.6949 0 0 149
4.79944 49.9913 -8.09346 0 0 149
4.31049 51.2877 -9.29175 0 0 149
5.28908 48.6453 -6.87741 0 0 194
5.26994 48.0327 -8.26653 0 0 238
4.79944 49.9913 -8.09346 0 0 194
5.78201 47.2463 -5.66734 0 0 238
5.28908 48.6453 -6.87741 0 0 194
5.31151 49.2049 -5.49427 0 0 194
6.25685 45.7855 -4.45738 0 0 196
6.23443 45.2259 -5.84052 0 0 196
5.78201 47.2463 -5.66734 0 0 241
5.77043 48.227 -2.83727 0 0 150
5.28795 49.6808 -4.04152 0 0 150
6.269 46.2907 -3.07473 0 0 151
5.77043 48.227 -2.83727 0 0 151
6.25685 45.7855 -4.45738 0 0 151
6.269 46.2907 -3.07473 0 0 151
2.68086 36.8671 -29.8259 0 0 133
2.34965 35.1546 -29.9991 0 0 133
2.92755 38.5584 -29.4957 0 0 136
3.12232 40.1533 -29.0935 0 0 136
2.93515 35.9399 -28.9472 0 0 199
2.68086 36.8671 -29.8259 0 0 168
2.92755 38.5584 -29.4957 0 0 168
4.90346 30.6468 -20.8398 0 0 191
4.69217 33.162 -21.2164 0 0 233
4.98938 32.1452 -20.0474 0 0 191
5.07868 28.014 -20.4114 0 0 194
4.78147 29.0308 -21.5803 0 0 238
4.90346 30.6468 -20.8398 0 0 194
5.28019 25.4466 -20.0495 0 0 147
5.07868 28.014 -20.4114 0 0 147
7.69141 18.9341 -12.3283 0 0 128
7.53435 18.4118 -13.0532 0 0 128
7.91497 17.2864 -11.7013 0 0 136
7.69141 18.9341 -12.3283 0 0 136
8.08805 15.3967 -11.2345 0 0 171
7.8826 15.0191 -12.1786 0 0 204
7.91497 17.2864 -11.7013 0 0 171
8.26449 13.5243 -10.6412 0 0 143
8.08805 15.3967 -11.2345 0 0 143
8.38942 11.4976 -10.1652 0 0 184
8.18061 11.1027 -11.2358 0 0 223
8.26449 13.5243 -10.6412 0 0 184
8.50095 9.52339 -9.58973 0 0 148
8.38942 11.4976 -10.1652 0 0 148
8.35912 7.02211 -10.2752 0 0 149
8.50095 9.52339 -9.58973 0 0 149
-10.0851 23.1749 -29.452 0 0 141
-9.24967 22.7572 -29.3258 0 0 141
-10.0851 23.1749 -29.452 0 0 140
-11.1735 21.2308 -29.1457 0 0 140
-12.3692 19.3488 -28.9061 0 0 139
-13.5351 17.495 -28.7136 0 0 139
7.47 16.9484 -13.538 0 0 173
7.29482 18.4514 -13.9458 0 0 150
7.53435 18.4118 -13.0532 0 0 150
7.95629 2.18428 -11.7875 0 0 150
8.19245 4.62563 -11.0005 0 0 150
7.69622 1.9442 -13.0261 0 0 150
7.95629 2.18428 -11.7875 0 0 150
7.42454 1.81884 -14.1816 0 0 192
7.70052 4.15766 -13.366 0 0 236
7.69622 1.9442 -13.0261 0 0 192
7.09746 -0.411619 -15.0104 0 0 150
6.67238 -2.64404 -15.8636 0 0 150
7.10176 1.80184 -15.3502 0 0 237
7.42454 1.81884 -14.1816 0 0 193
7.09746 -0.411619 -15.0104 0 0 193
4.97434 -1.5671 -20.1229 0 0 191
5.54566 0.463807 -19.3304 0 0 234
5.42546 -2.01697 -19.1382 0 0 191
4.32292 -3.51972 -20.8391 0 0 189
4.44313 -1.03894 -21.0313 0 0 231
4.97434 -1.5671 -20.1229 0 0 189
3.52528 -5.40054 -21.5489 0 0 147
4.32292 -3.51972 -20.8391 0 0 147
2.90581 -4.80133 -22.3562 0 0 146
3.52528 -5.40054 -21.5489 0 0 146
3 121 31 122
3 0 123 125
3 123 32 124
3 123 124 125
3 127 126 33
3 128 36 129
3 130 129 35
3 128 129 130
3 131 33 132
3 133 132 36
3 131 132 133
3 1 40 38
3 3 43 41
3 3 45 43
3 4 48 46
3 4 50 48
3 2 53 51
3 134 56 135
3 136 135 54
3 134 135 136
3 138 137 56
3 5 139 140
3 5 141 143
3 141 58 142
3 141 142 143
3 5 60 58
3 145 144 61
3 146 65 147
3 148 147 63
3 146 147 148
3 149 67 150
3 7 68 30
3 7 69 68
3 8 151 153
3 151 70 152
3 151 152 153
3 8 71 70
3 9 74 72
3 11 76 75
3 12 77 34
3 12 78 77
3 13 154 155
3 13 156 158
3 156 79 157
3 156 157 158
3 13 81 79
3 11 82 37
3 11 75 82
3 15 85 83
3 17 88 86
3 19 89 39
3 19 90 89
3 6 91 66
3 20 92 42
3 20 93 92
3 20 94 93
3 21 95 44
3 21 159 161
3 161 160 95
3 159 160 161
3 22 162 164
3 164 163 47
3 162 163 164
3 22 165 167
3 165 96 166
3 165 166 167
3 22 97 96
3 23 98 49
3 23 99 98
3 18 100 87
3 24 101 52
3 24 102 101
3 10 103 73
3 25 104 55
3 25 105 104
3 25 106 105
3 168 107 169
3 170 169 57
3 168 169 170
3 172 171 107
3 173 108 174
3 26 175 176
3 26 177 179
3 177 109 178
3 177 178 179
3 26 110 109
3 27 111 59
3 27 112 111
3 14 113 80
3 180 114 181
3 182 181 62
3 180 181 182
3 184 183 114
3 16 185 187
3 187 186 84
3 185 186 187
3 28 116 115
3 29 117 64
3 29 118 117
3 188 119 189
3 190 120 191
3 192 191 119
3 190 191 192
3 194 193 120
3 195 30 196
3 31 197 199
3 197 30 198
3 197 198 199
3 31 7 30
3 32 200 201
3 32 202 204
3 202 8 203
3 202 203 204
3 206 205 9
3 33 34 11
3 207 34 208
3 209 208 33
3 207 208 209
3 210 12 211
3 212 211 34
3 210 211 212
3 35 213 214
3 36 215 217
3 217 216 35
3 215 216 217
3 36 218 220
3 218 13 219
3 218 219 220
3 36 37 13
3 33 37 36
3 33 11 37
3 222 221 15
3 38 39 17
3 40 39 38
3 40 19 39
3 41 42 6
3 43 42 41
3 43 20 42
3 43 44 20
3 45 44 43
3 45 21 44
3 46 223 225
3 223 47 224
3 223 224 225
3 48 47 46
3 48 22 47
3 48 49 22
3 50 49 48
3 50 23 49
3 51 52 18
3 53 52 51
3 53 24 52
3 54 55 10
3 56 55 54
3 56 25 55
3 56 57 25
3 226 57 227
3 228 227 56
3 226 227 228
3 230 229 57
3 58 231 232
3 58 233 235
3 233 26 234
3 233 234 235
3 58 59 26
3 60 59 58
3 60 27 59
3 61 62 14
3 236 62 237
3 238 237 61
3 236 237 238
3 240 239 62
3 242 241 16
3 63 64 28
3 65 64 63
3 65 29 64
3 243 66 244
3 245 244 1
3 243 244 245
3 67 246 248
3 246 66 247
3 246 247 248
3 67 6 66
3 30 249 251
3 249 67 250
3 249 250 251
3 68 67 30
3 68 6 67
3 68 41 6
3 69 41 68
3 69 3 41
3 70 252 253
3 70 254 255
3 70 256 258
3 256 46 257
3 256 257 258
3 71 46 70
3 71 4 46
3 72 73 2
3 74 73 72
3 74 10 73
3 259 74 260
3 261 260 9
3 259 260 261
3 262 74 263
3 264 10 265
3 266 265 74
3 264 265 266
3 267 54 268
3 269 268 10
3 267 268 269
3 270 54 271
3 273 272 54
3 75 274 275
3 76 276 278
3 278 277 75
3 276 277 278
3 76 279 280
3 34 76 11
3 77 76 34
3 77 281 283
3 283 282 76
3 281 282 283
3 77 284 285
3 78 286 288
3 288 287 77
3 286 287 288
3 78 289 290
3 79 291 292
3 79 293 295
3 293 5 294
3 293 294 295
3 79 80 5
3 81 80 79
3 81 14 80
3 37 81 13
3 82 81 37
3 82 14 81
3 82 61 14
3 75 61 82
3 75 296 298
3 298 297 61
3 296 297 298
3 83 299 301
3 299 84 300
3 299 300 301
3 85 84 83
3 85 16 84
3 302 85 303
3 304 303 15
3 302 303 304
3 305 85 306
3 307 16 308
3 309 308 85
3 307 308 309
3 311 310 16
3 86 87 0
3 88 87 86
3 88 18 87
3 39 88 17
3 89 88 39
3 89 18 88
3 89 51 18
3 90 51 89
3 90 2 51
3 66 40 1
3 91 40 66
3 91 19 40
3 42 91 6
3 92 91 42
3 92 19 91
3 92 90 19
3 93 90 92
3 93 2 90
3 93 72 2
3 94 72 93
3 94 9 72
3 44 94 20
3 95 94 44
3 95 9 94
3 95 312 314
3 314 313 9
3 312 313 314
3 316 315 95
3 317 35 318
3 319 35 320
3 322 321 35
3 47 323 324
3 326 325 47
3 96 327 328
3 96 329 330
3 96 331 333
3 331 83 332
3 331 332 333
3 97 83 96
3 97 15 83
3 49 97 22
3 98 97 49
3 98 15 97
3 98 334 336
3 336 335 15
3 334 335 336
3 99 337 339
3 339 338 98
3 337 338 339
3 99 340 341
3 87 32 0
3 100 32 87
3 100 8 32
3 52 100 18
3 101 100 52
3 101 8 100
3 101 71 8
3 102 71 101
3 102 4 71
3 73 53 2
3 103 53 73
3 103 24 53
3 55 103 10
3 104 103 55
3 104 24 103
3 104 102 24
3 105 102 104
3 105 4 102
3 105 50 4
3 106 50 105
3 106 23 50
3 57 106 25
3 107 106 57
3 107 23 106
3 107 99 23
3 342 99 343
3 344 343 107
3 342 343 344
3 346 345 99
3 347 12 348
3 349 12 350
3 351 78 352
3 353 352 12
3 351 352 353
3 108 354 356
3 354 78 355
3 354 355 356
3 108 357 359
3 359 358 78
3 357 358 359
3 360 108 361
3 362 108 363
3 365 364 108
3 366 0 367
3 109 368 369
3 109 370 372
3 370 0 371
3 370 371 372
3 109 86 0
3 110 86 109
3 110 17 86
3 59 110 26
3 111 110 59
3 111 17 110
3 111 38 17
3 112 38 111
3 112 1 38
3 80 60 5
3 113 60 80
3 113 27 60
3 62 113 14
3 114 113 62
3 114 27 113
3 114 112 27
3 373 112 374
3 375 374 114
3 373 374 375
3 376 1 377
3 378 377 112
3 376 377 378
3 380 379 1
3 381 115 382
3 383 115 384
3 385 28 386
3 387 386 115
3 385 386 387
3 388 28 389
3 390 63 391
3 392 391 28
3 390 391 392
3 393 63 394
3 396 395 63
3 84 397 398
3 400 399 84
3 402 401 16
3 115 403 405
3 403 31 404
3 403 404 405
3 116 31 115
3 116 7 31
3 64 116 28
3 117 116 64
3 117 7 116
3 117 69 7
3 118 69 117
3 118 3 69
3 406 65 407
3 408 65 409
3 410 29 411
3 412 411 65
3 410 411 412
3 119 413 414
3 119 415 417
3 415 29 416
3 415 416 417
3 119 118 29
3 120 118 119
3 120 3 118
3 120 45 3
3 418 45 419
3 420 419 120
3 418 419 420
3 421 21 422
3 423 422 45
3 421 422 423
3 424 21 425
3 427 426 21
