ply
format ascii 1.0
element vertex 436
property float x
property float y
property float z
property uchar red
property uchar green
property uchar blue
element face 454
property list uchar int vertex_index
end_header
-45.4 -86.5743 31.8102 198 0 0
-51.1088 -79.8347 8.98942 255 26 0
-45.8765 -92.5575 22.2194 161 0 0
-48.1789 -89.1378 11.3315 252 0 0
-46.8668 -83.1641 19.7153 215 0 0
-49.3855 -74.0263 16.1323 255 237 0
-55.7464 -70.4174 6.04711 233 0 0
-45.542 -89.5493 27.1684 157 0 0
-46.4769 -87.8422 21.2447 185 0 0
-45.9928 -84.872 25.7036 190 0 0
-44.6405 -87.8743 37.7369 169 255 86
-44.3808 -91.0807 33.0725 218 255 37
-44.5225 -94.1823 27.8109 138 0 0
-49.3344 -84.4177 10.2386 255 30 0
-49.6991 -87.1592 6.33637 255 20 0
-51.7731 -82.4001 5.3849 26 255 229
-47.8236 -75.7759 21.7953 40 255 215
-54.6363 -67.6415 9.12242 35 255 220
-57.8452 -65.355 4.34872 255 36 0
-61.7853 -57.0829 -1.63152 0 36 255
-43.6601 -100.285 16.4866 0 245 255
-45.8675 -95.6057 17.0871 168 0 0
-47.0841 -93.9518 11.989 255 199 0
-46.9845 -90.8697 16.6648 207 0 0
-47.6162 -86.1646 15.5377 237 0 0
-48.5008 -81.5376 14.0966 255 1 0
-44.4364 -97.2295 22.2181 128 0 0
-46.1002 -83.6622 35.9133 158 255 97
-46.1882 -82.0539 29.8995 242 0 0
-48.226 -92.147 7.05451 173 255 82
-46.5457 -80.2523 23.8261 237 0 0
-47.7156 -78.5524 17.9646 245 0 0
-50.0298 -76.9566 12.5385 247 0 0
-52.1447 -72.3332 10.8747 246 0 0
-53.4008 -75.2371 7.61546 247 0 0
-45.405 -88.0564 29.5399 171 0 0
-45.8003 -87.2084 26.5106 171 0 0
-45.6937 -85.7418 28.7589 189 0 0
-45.0602 -87.3097 34.8192 218 0 0
-44.4203 -89.4917 35.4996 197 255 58
-44.9564 -88.8402 32.5494 182 0 0
-45.0102 -90.364 30.1386 158 0 0
-50.1358 -82.1143 9.62624 255 34 0
-50.4644 -83.4532 7.76155 255 42 0
-51.5256 -81.1557 7.20069 248 255 7
-52.7422 -78.8783 6.61347 148 255 107
-57.3976 -64.0932 5.84547 14 255 241
-58.8118 -62.7879 3.52166 119 255 136
-59.4473 -64.0213 2.07703 137 255 118
-60.1663 -61.3597 1.27028 0 157 255
-60.839 -58.7158 0.534358 0 37 255
-45.9396 -94.0749 19.6715 166 0 0
-46.5337 -93.2386 16.9901 190 0 0
-46.4392 -91.7119 19.4257 183 0 0
-46.652 -85.4961 20.5239 199 0 0
-46.9931 -87.0007 18.3499 209 0 0
-47.2336 -84.6651 17.6293 223 0 0
-47.9904 -83.8411 14.8382 250 0 0
-47.5667 -82.3465 16.8466 236 0 0
-45.2511 -93.3939 25.0221 144 0 0
-44.5419 -95.7084 25.0429 132 0 0
-45.2878 -94.9078 22.3626 145 0 0
-45.1914 -96.4278 19.6576 144 0 0
-46.0022 -84.2359 38.7881 29 255 226
-47.6789 -91.5414 11.7395 232 0 0
-47.6575 -93.0849 9.49538 177 255 78
-48.2793 -90.6295 9.20485 246 0 0
-50.6352 -86.0257 3.96451 39 255 216
-49.6503 -88.5353 4.35299 166 255 89
-46.6989 -79.8331 28.8158 163 255 92
-46.2981 -81.1521 26.8526 237 0 0
-46.7853 -78.9041 25.8041 165 255 90
-48.4487 -74.8829 18.9216 156 255 99
-47.6045 -77.1131 19.894 255 4 0
-48.4402 -76.277 17.0555 255 1 0
-48.7246 -77.7518 15.1877 247 0 0
-49.5871 -75.4672 14.3272 250 0 0
-55.0449 -69.0034 7.55793 255 0 0
-53.3531 -69.9923 10.0037 255 232 0
-53.8752 -71.4243 8.41255 237 0 0
-52.7187 -73.8009 9.23572 236 0 0
-54.5942 -72.8625 6.85653 234 0 0
-55.3481 -74.2322 5.30547 169 255 86
-56.5762 -71.7977 4.56062 177 255 78
-45.7242 -91.0497 24.7222 156 0 0
-46.2485 -90.1983 21.8287 173 0 0
-46.0131 -88.6963 24.194 167 0 0
-46.195 -86.3458 23.4947 181 0 0
-46.3615 -84.006 22.678 199 0 0
-43.6652 -94.8584 30.563 104 255 151
-44.443 -92.6424 30.4974 255 151 0
-45.1357 -91.881 27.6206 147 0 0
-48.6996 -86.759 10.8165 255 16 0
-48.8868 -88.1923 8.78968 255 12 0
-49.5912 -85.7965 8.2969 255 32 0
-50.6342 -84.7462 5.87546 252 255 3
-56.2172 -66.5526 6.69254 255 252 0
-56.8303 -67.9077 5.20204 252 0 0
-57.6767 -69.2725 3.75804 177 255 78
-58.6298 -66.6705 2.91905 163 255 92
-45.6243 -97.155 14.4741 215 255 40
-46.2813 -96.3515 12.033 81 255 174
-46.4918 -94.7829 14.5248 192 0 0
-47.1044 -92.4007 14.3395 213 0 0
-47.5535 -90.0202 13.9604 231 0 0
-46.7602 -89.3512 18.9665 196 0 0
-47.3116 -88.509 16.1624 222 0 0
-47.947 -87.654 13.4402 248 0 0
-48.3881 -85.3128 12.8301 255 9 0
-48.9542 -83.0003 12.1689 255 18 0
-49.6846 -80.7108 11.4783 255 16 0
-43.6727 -96.4204 27.6938 243 255 12
-43.5739 -97.9613 24.7522 248 255 7
-43.3062 -99.493 21.7711 117 255 138
-44.1548 -98.7528 19.3587 255 132 0
-44.92 -97.9593 16.9214 255 144 0
-45.6114 -85.1085 33.9461 234 0 0
-45.7828 -84.3063 30.9107 219 0 0
-46.1442 -82.9112 32.9329 255 225 0
-46.7348 -80.7365 31.8241 45 255 210
-45.0974 -86.2299 39.7432 30 255 225
-45.3951 -85.7748 36.9103 255 6 0
-48.9277 -89.6342 6.74274 253 0 0
-48.812 -91.1082 4.67119 58 255 197
-45.9613 -83.4359 27.8486 212 0 0
-46.2118 -82.55 24.7961 213 0 0
-46.6039 -81.6829 21.7872 220 0 0
-47.0665 -77.9899 22.8199 255 232 0
-46.9998 -79.3828 20.8529 241 0 0
-47.2019 -80.8488 18.8548 231 0 0
-48.0531 -80.0434 16.0285 244 0 0
-49.1803 -79.2467 13.329 254 0 0
-50.5787 -78.4284 10.7634 255 5 0
-50.5456 -71.8062 15.1993 40 255 215
-51.8314 -70.9137 12.5501 159 255 96
-50.6289 -73.187 13.447 255 2 0
-51.028 -74.6548 11.7212 242 0 0
-51.6053 -76.1318 10.0186 246 0 0
-52.2173 -77.5526 8.3232 255 10 0
-54.0445 -76.5833 5.98694 158 255 97
-62.1713 -54.4131 -2.2325 0 28 255
-62.8613 -49.9434 -4.77129 0 27 255
-59.2877 -61.5107 3.13842 0 0 131
-58.7068 -62.2175 4.28493 0 0 131
-59.965 -60.7966 2.01274 0 0 165
-59.489 -62.0738 2.39597 0 0 199
-59.2877 -61.5107 3.13842 0 0 165
-60.3013 -59.4747 1.64477 0 0 164
-60.5026 -60.0378 0.902321 0 0 197
-59.965 -60.7966 2.01274 0 0 164
-50.5554 -86.6768 2.9974 0 0 136
-51.1715 -85.4091 2.81321 0 0 136
-47.0847 -78.2823 26.7471 0 0 173
-46.7421 -79.3686 27.3099 0 0 211
-47.0416 -78.7469 28.253 0 0 173
-44.2118 -88.9026 38.0377 0 0 135
-44.3822 -88.0315 39.1172 0 0 135
-44.0099 -91.3514 34.5015 0 0 178
-44.0296 -90.5569 35.715 0 0 178
-44.4006 -90.2862 34.2861 0 0 219
-44.0036 -92.1716 33.1976 0 0 139
-44.0099 -91.3514 34.5015 0 0 139
-44.4119 -91.8615 31.785 0 0 222
-44.0348 -92.9525 31.9101 0 0 181
-44.0036 -92.1716 33.1976 0 0 181
-51.8023 -82.9994 4.46116 0 0 169
-51.2328 -84.1724 4.70645 0 0 169
-51.2037 -83.5732 5.63018 0 0 205
-52.5069 -81.8234 4.23579 0 0 135
-51.8023 -82.9994 4.46116 0 0 135
-59.9072 -64.6433 1.38289 0 0 135
-60.202 -63.2764 0.968213 0 0 135
-62.1371 -57.5826 -2.35906 0 0 131
-61.5957 -58.4386 -1.27867 0 0 131
-62.1798 -56.2041 -2.69691 0 0 130
-62.1371 -57.5826 -2.35906 0 0 130
-42.8754 -101.426 16.1485 0 0 143
-43.2408 -100.655 17.6338 0 0 143
-47.1748 -80.1085 32.7108 0 0 135
-46.777 -81.1474 33.3096 0 0 135
-47.0935 -79.669 31.2403 0 0 135
-47.1748 -80.1085 32.7108 0 0 135
-45.453 -85.3943 40.6143 0 0 132
-44.8963 -86.3142 41.0541 0 0 132
-46.9895 -94.7421 10.8009 0 0 177
-46.5882 -95.9419 10.8229 0 0 177
-46.6827 -95.1516 12.011 0 0 216
-47.8463 -93.4053 7.1398 0 0 178
-47.562 -93.8742 8.36023 0 0 178
-47.9417 -92.616 8.27494 0 0 219
-48.1159 -92.927 5.96582 0 0 136
-47.8463 -93.4053 7.1398 0 0 136
-49.1303 -90.5306 3.50853 0 0 174
-49.2311 -89.8218 4.51209 0 0 212
-49.5494 -89.2441 3.34943 0 0 174
-48.6751 -91.8709 3.62213 0 0 138
-49.1303 -90.5306 3.50853 0 0 138
-47.4451 -76.8829 22.3076 0 0 211
-47.276 -77.3486 23.7736 0 0 173
-47.6546 -76.2416 23.2613 0 0 173
-51.2258 -70.7155 14.7315 0 0 135
-50.7121 -71.1943 16.0828 0 0 135
-53.9064 -68.148 10.3843 0 0 133
-54.6426 -67.0305 9.93724 0 0 133
-55.6704 -74.8597 4.51542 0 0 136
-56.3582 -73.6564 4.1825 0 0 136
-58.1289 -69.9214 3.03965 0 0 137
-58.6303 -68.6149 2.63998 0 0 137
-62.4029 -53.1 -2.47437 0 0 128
-62.2198 -53.9777 -1.43139 0 0 128
-62.4203 -53.5132 -3.28006 0 0 128
-62.4029 -53.1 -2.47437 0 0 128
-62.9118 -48.9684 -5.79007 0 0 128
-63.039 -48.625 -4.93278 0 0 128
-62.9399 -50.319 -5.5886 0 0 128
-62.9118 -48.9684 -5.79007 0 0 128
-52.3111 -80.6289 6.0358 0 0 172
-52.4348 -81.2511 5.12791 0 0 172
-51.6494 -81.7779 6.29279 0 0 209
-52.9194 -79.4902 5.7422 0 0 169
-52.3111 -80.6289 6.0358 0 0 169
-52.1339 -80.017 6.90708 0 0 205
-53.6388 -78.346 5.46862 0 0 135
-52.9194 -79.4902 5.7422 0 0 135
-57.9997 -62.8702 5.44683 0 0 131
-57.4017 -63.5317 6.63524 0 0 131
-58.1047 -63.4405 4.68356 0 0 200
-57.9997 -62.8702 5.44683 0 0 166
-58.7068 -62.2175 4.28493 0 0 166
-60.5615 -61.9456 0.564839 0 0 169
-60.202 -63.2764 0.968213 0 0 169
-59.8068 -62.6905 1.67366 0 0 205
-60.7861 -60.5769 0.172229 0 0 133
-60.5615 -61.9456 0.564839 0 0 133
-61.1225 -59.255 -0.195734 0 0 164
-60.7861 -60.5769 0.172229 0 0 164
-60.5026 -60.0378 0.902321 0 0 198
-61.3121 -57.8994 -0.548582 0 0 196
-61.5957 -58.4386 -1.27867 0 0 163
-61.1225 -59.255 -0.195734 0 0 163
-43.2959 -101.06 15.0547 0 0 143
-44.0518 -99.8966 15.3278 0 0 143
-46.4597 -82.6103 35.3541 0 0 135
-46.4928 -82.9471 36.7986 0 0 135
-46.439 -83.4613 39.6086 0 0 132
-45.9054 -84.3973 40.1367 0 0 132
-46.4437 -83.234 38.236 0 0 133
-46.439 -83.4613 39.6086 0 0 133
-46.4928 -82.9471 36.7986 0 0 171
-46.0512 -83.9491 37.3507 0 0 208
-46.4437 -83.234 38.236 0 0 171
-50.0629 -87.9316 3.19164 0 0 172
-50.1428 -87.2805 4.15875 0 0 209
-50.5554 -86.6768 2.9974 0 0 172
-49.5494 -89.2441 3.34943 0 0 137
-50.0629 -87.9316 3.19164 0 0 137
-56.9722 -72.4392 3.81007 0 0 174
-56.3582 -73.6564 4.1825 0 0 174
-55.9621 -73.0149 4.93304 0 0 212
-44.1017 -89.7113 36.919 0 0 175
-44.2118 -88.9026 38.0377 0 0 175
-44.5304 -88.683 36.6183 0 0 214
-44.1017 -89.7113 36.919 0 0 138
-44.0296 -90.5569 35.715 0 0 138
-43.6458 -94.0605 31.9429 0 0 139
-43.1705 -95.0989 31.907 0 0 139
-44.0541 -93.7504 30.5302 0 0 228
-43.6458 -94.0605 31.9429 0 0 184
-44.0348 -92.9525 31.9101 0 0 184
-51.2333 -84.8122 3.75097 0 0 173
-50.6347 -85.386 4.91999 0 0 211
-51.2328 -84.1724 4.70645 0 0 173
-51.1715 -85.4091 2.81321 0 0 134
-51.2333 -84.8122 3.75097 0 0 134
-52.5069 -81.8234 4.23579 0 0 133
-52.4348 -81.2511 5.12791 0 0 133
-48.1308 -75.1772 22.7179 0 0 135
-47.6546 -76.2416 23.2613 0 0 135
-48.333 -74.7002 21.2799 0 0 135
-48.1308 -75.1772 22.7179 0 0 135
-48.6456 -74.2537 19.8431 0 0 172
-48.1362 -75.3294 20.3584 0 0 209
-48.333 -74.7002 21.2799 0 0 172
-48.9955 -73.7928 18.4324 0 0 135
-48.6456 -74.2537 19.8431 0 0 135
-49.4639 -73.3644 17.0378 0 0 172
-48.9171 -74.4546 17.527 0 0 209
-48.9955 -73.7928 18.4324 0 0 172
-55.3119 -66.4686 8.68811 0 0 133
-54.6426 -67.0305 9.93724 0 0 133
-56.6925 -64.6945 7.04964 0 0 132
-57.4017 -63.5317 6.63524 0 0 132
-56.1023 -65.9242 7.47318 0 0 169
-56.6925 -64.6945 7.04964 0 0 169
-56.8074 -65.3229 6.26901 0 0 205
-55.4267 -67.097 7.90748 0 0 206
-55.3119 -66.4686 8.68811 0 0 170
-56.1023 -65.9242 7.47318 0 0 170
-59.1068 -67.3139 2.22049 0 0 175
-58.6303 -68.6149 2.63998 0 0 175
-58.1532 -67.9715 3.33855 0 0 214
-59.4984 -65.9679 1.8039 0 0 173
-59.0385 -65.3459 2.49804 0 0 211
-59.9072 -64.6433 1.38289 0 0 173
-59.1068 -67.3139 2.22049 0 0 136
-59.4984 -65.9679 1.8039 0 0 136
-42.8754 -101.426 16.1485 0 0 141
-43.2959 -101.06 15.0547 0 0 141
-45.9528 -96.7532 13.2536 0 0 226
-45.7327 -97.5403 11.9377 0 0 183
-45.4041 -97.9421 13.1583 0 0 183
-43.1666 -95.9116 30.4295 0 0 141
-43.1705 -95.0989 31.907 0 0 141
-43.1704 -96.6926 28.995 0 0 181
-43.1666 -95.9116 30.4295 0 0 181
-43.669 -95.6394 29.1284 0 0 224
-43.1285 -97.4847 27.4696 0 0 141
-43.1704 -96.6926 28.995 0 0 141
-43.0792 -98.2552 25.9988 0 0 182
-43.1285 -97.4847 27.4696 0 0 182
-43.6233 -97.1908 26.223 0 0 225
-42.9623 -99.0352 24.449 0 0 142
-43.0792 -98.2552 25.9988 0 0 142
-42.8284 -99.801 22.9585 0 0 183
-42.9623 -99.0352 24.449 0 0 183
-43.4401 -98.7271 23.2617 0 0 226
-42.6061 -100.576 21.4056 0 0 142
-42.8284 -99.801 22.9585 0 0 142
-43.0639 -100.259 20.2761 0 0 140
-42.6061 -100.576 21.4056 0 0 140
-43.4882 -99.8889 19.0699 0 0 188
-43.0639 -100.259 20.2761 0 0 188
-43.7305 -99.1229 20.5649 0 0 234
-43.9075 -99.5191 17.9227 0 0 228
-43.2408 -100.655 17.6338 0 0 184
-43.4882 -99.8889 19.0699 0 0 184
-44.6818 -98.7336 15.5452 0 0 183
-44.0518 -99.8966 15.3278 0 0 183
-44.29 -99.1223 16.704 0 0 226
-45.0339 -98.3314 14.3216 0 0 185
-44.6818 -98.7336 15.5452 0 0 185
-45.2721 -97.5571 15.6978 0 0 229
-45.4041 -97.9421 13.1583 0 0 139
-45.0339 -98.3314 14.3216 0 0 139
-46.4817 -82.2347 33.8639 0 0 173
-46.1222 -83.2867 34.4231 0 0 211
-46.4597 -82.6103 35.3541 0 0 173
-46.4395 -81.8238 32.3785 0 0 212
-46.4817 -82.2347 33.8639 0 0 173
-46.777 -81.1474 33.3096 0 0 173
-47.0756 -79.2173 29.7361 0 0 173
-46.7169 -80.2848 30.32 0 0 211
-47.0935 -79.669 31.2403 0 0 173
-47.0416 -78.7469 28.253 0 0 135
-47.0756 -79.2173 29.7361 0 0 135
-44.6107 -87.2093 40.1203 0 0 133
-44.8963 -86.3142 41.0541 0 0 133
-44.8689 -87.0521 38.74 0 0 208
-44.3822 -88.0315 39.1172 0 0 171
-44.6107 -87.2093 40.1203 0 0 171
-45.5498 -85.2329 39.2656 0 0 205
-45.453 -85.3943 40.6143 0 0 169
-45.9054 -84.3973 40.1367 0 0 169
-46.0803 -97.1517 10.7766 0 0 138
-45.7327 -97.5403 11.9377 0 0 138
-46.0803 -97.1517 10.7766 0 0 139
-46.5882 -95.9419 10.8229 0 0 139
-47.2762 -94.3086 9.55411 0 0 179
-46.9895 -94.7421 10.8009 0 0 179
-47.3708 -93.5183 10.7422 0 0 220
-47.2762 -94.3086 9.55411 0 0 136
-47.562 -93.8742 8.36023 0 0 136
-48.4089 -92.4076 4.77416 0 0 179
-48.1159 -92.927 5.96582 0 0 179
-48.519 -91.6276 5.86285 0 0 219
-48.4089 -92.4076 4.77416 0 0 136
-48.6751 -91.8709 3.62213 0 0 136
-47.1354 -77.8057 25.2657 0 0 135
-47.0847 -78.2823 26.7471 0 0 135
-46.9259 -78.447 24.312 0 0 211
-47.1354 -77.8057 25.2657 0 0 173
-47.276 -77.3486 23.7736 0 0 173
-50.0439 -72.2544 16.5712 0 0 134
-50.7121 -71.1943 16.0828 0 0 134
-49.9655 -72.9162 15.6658 0 0 211
-49.4639 -73.3644 17.0378 0 0 173
-50.0439 -72.2544 16.5712 0 0 173
-53.2648 -69.3234 10.8249 0 0 172
-53.9064 -68.148 10.3843 0 0 172
-53.9947 -68.8169 9.56304 0 0 210
-52.504 -69.7841 12.0981 0 0 172
-53.2648 -69.3234 10.8249 0 0 172
-52.5923 -70.453 11.2769 0 0 209
-51.8687 -70.2692 13.4069 0 0 135
-52.504 -69.7841 12.0981 0 0 135
-51.1885 -71.36 13.8747 0 0 208
-51.2258 -70.7155 14.7315 0 0 171
-51.8687 -70.2692 13.4069 0 0 171
-54.29 -77.1985 5.15536 0 0 170
-53.6388 -78.346 5.46862 0 0 170
-53.3933 -77.7308 6.30021 0 0 207
-55.0186 -76.0353 4.85615 0 0 172
-54.6963 -75.4078 5.6462 0 0 209
-55.6704 -74.8597 4.51542 0 0 172
-54.29 -77.1985 5.15536 0 0 135
-55.0186 -76.0353 4.85615 0 0 135
-57.5786 -71.184 3.44094 0 0 175
-57.1264 -70.5351 4.15933 0 0 214
-58.1289 -69.9214 3.03965 0 0 175
-56.9722 -72.4392 3.81007 0 0 136
-57.5786 -71.184 3.44094 0 0 136
-60.7884 -58.2131 1.30572 0 0 129
-60.3013 -59.4747 1.64477 0 0 129
-61.1808 -57.412 0.215165 0 0 129
-60.7884 -58.2131 1.30572 0 0 129
-61.6539 -56.5956 -0.867775 0 0 160
-61.3121 -57.8994 -0.548582 0 0 192
-61.1808 -57.412 0.215165 0 0 160
-61.8469 -55.2607 -1.16827 0 0 128
-62.2198 -53.9777 -1.43139 0 0 128
-61.9783 -55.748 -1.93201 0 0 191
-61.6539 -56.5956 -0.867775 0 0 159
-61.8469 -55.2607 -1.16827 0 0 159
-62.3728 -54.8692 -2.9974 0 0 160
-62.1798 -56.2041 -2.69691 0 0 160
-61.9783 -55.748 -1.93201 0 0 192
-62.3728 -54.8692 -2.9974 0 0 128
-62.4203 -53.5132 -3.28006 0 0 128
-63.044 -49.5703 -3.92707 0 0 128
-63.039 -48.625 -4.93278 0 0 128
-62.7479 -50.8651 -3.74376 0 0 128
-63.044 -49.5703 -3.92707 0 0 128
-62.7653 -51.2783 -4.54945 0 0 128
-62.7479 -50.8651 -3.74376 0 0 128
-62.7653 -51.2783 -4.54945 0 0 128
-62.9399 -50.319 -5.5886 0 0 128
3 0 37 35
3 0 40 38
3 0 35 40
3 1 44 42
3 1 45 44
3 142 47 143
3 144 49 145
3 146 145 47
3 144 145 146
3 147 50 148
3 149 148 49
3 147 148 149
3 2 53 51
3 4 56 54
3 4 58 56
3 2 61 59
3 2 51 61
3 3 66 64
3 151 150 67
3 152 71 153
3 154 153 69
3 152 153 154
3 5 74 72
3 5 76 74
3 6 79 77
3 6 81 79
3 6 83 81
3 7 86 84
3 9 87 36
3 9 88 87
3 10 155 156
3 11 157 159
3 159 158 39
3 157 158 159
3 11 160 161
3 11 162 164
3 162 90 163
3 162 163 164
3 7 91 41
3 7 84 91
3 13 94 92
3 15 95 43
3 15 165 167
3 167 166 95
3 165 166 167
3 15 168 169
3 18 96 46
3 18 97 96
3 18 99 97
3 171 170 48
3 19 172 173
3 19 174 175
3 20 176 177
3 21 102 100
3 23 103 52
3 23 104 103
3 8 105 85
3 24 106 55
3 24 107 106
3 24 108 107
3 25 109 57
3 25 110 109
3 12 111 89
3 26 112 60
3 26 113 112
3 26 114 113
3 21 115 62
3 21 100 115
3 27 118 116
3 178 119 179
3 181 180 119
3 182 120 183
3 27 121 63
3 27 116 121
3 22 184 186
3 186 185 101
3 184 185 186
3 29 187 189
3 189 188 65
3 187 188 189
3 29 190 191
3 14 122 93
3 192 123 193
3 194 193 68
3 192 193 194
3 196 195 123
3 28 124 117
3 30 125 70
3 30 126 125
3 16 197 199
3 197 127 198
3 197 198 199
3 31 128 73
3 31 129 128
3 31 130 129
3 32 131 75
3 32 132 131
3 200 133 201
3 17 202 203
3 33 134 78
3 33 135 134
3 33 136 135
3 34 137 80
3 34 138 137
3 34 139 138
3 205 204 82
3 207 206 98
3 208 140 209
3 211 210 140
3 212 141 213
3 215 214 141
3 35 36 7
3 37 36 35
3 37 9 36
3 38 39 10
3 40 39 38
3 40 11 39
3 40 41 11
3 35 41 40
3 35 7 41
3 42 43 13
3 44 43 42
3 44 15 43
3 44 216 218
3 218 217 15
3 216 217 218
3 45 219 221
3 221 220 44
3 219 220 221
3 45 222 223
3 224 46 225
3 47 226 228
3 226 46 227
3 226 227 228
3 47 18 46
3 47 48 18
3 49 48 47
3 49 229 231
3 231 230 48
3 229 230 231
3 49 232 233
3 50 234 236
3 236 235 49
3 234 235 236
3 50 237 239
3 237 19 238
3 237 238 239
3 241 240 20
3 51 52 21
3 53 52 51
3 53 23 52
3 54 55 8
3 56 55 54
3 56 24 55
3 56 57 24
3 58 57 56
3 58 25 57
3 59 60 12
3 61 60 59
3 61 26 60
3 61 62 26
3 51 62 61
3 51 21 62
3 243 242 27
3 244 63 245
3 246 63 247
3 248 27 249
3 250 249 63
3 248 249 250
3 64 65 22
3 66 65 64
3 66 29 65
3 67 68 14
3 251 68 252
3 253 252 67
3 251 252 253
3 255 254 68
3 69 70 28
3 71 70 69
3 71 30 70
3 72 73 16
3 74 73 72
3 74 31 73
3 74 75 31
3 76 75 74
3 76 32 75
3 77 78 17
3 79 78 77
3 79 33 78
3 79 80 33
3 81 80 79
3 81 34 80
3 81 82 34
3 83 82 81
3 83 256 258
3 258 257 82
3 256 257 258
3 84 85 2
3 86 85 84
3 86 8 85
3 36 86 7
3 87 86 36
3 87 8 86
3 87 54 8
3 88 54 87
3 88 4 54
3 39 259 261
3 261 260 10
3 259 260 261
3 263 262 39
3 264 89 265
3 90 266 268
3 266 89 267
3 266 267 268
3 90 12 89
3 41 90 11
3 91 90 41
3 91 12 90
3 91 59 12
3 84 59 91
3 84 2 59
3 92 93 3
3 94 93 92
3 94 14 93
3 43 94 13
3 95 94 43
3 95 14 94
3 95 67 14
3 269 67 270
3 271 270 95
3 269 270 271
3 273 272 67
3 275 274 15
3 276 16 277
3 278 16 279
3 280 72 281
3 282 281 16
3 280 281 282
3 283 72 284
3 285 5 286
3 287 286 72
3 285 286 287
3 288 17 289
3 46 290 291
3 96 292 294
3 294 293 46
3 292 293 294
3 96 295 297
3 295 17 296
3 295 296 297
3 96 77 17
3 97 77 96
3 97 6 77
3 97 98 6
3 99 98 97
3 99 298 300
3 300 299 98
3 298 299 300
3 48 99 18
3 301 99 302
3 303 302 48
3 301 302 303
3 305 304 99
3 307 306 20
3 100 308 310
3 308 101 309
3 308 309 310
3 102 101 100
3 102 22 101
3 52 102 21
3 103 102 52
3 103 22 102
3 103 64 22
3 104 64 103
3 104 3 64
3 85 53 2
3 105 53 85
3 105 23 53
3 55 105 8
3 106 105 55
3 106 23 105
3 106 104 23
3 107 104 106
3 107 3 104
3 107 92 3
3 108 92 107
3 108 13 92
3 57 108 24
3 109 108 57
3 109 13 108
3 109 42 13
3 110 42 109
3 110 1 42
3 89 311 312
3 111 313 315
3 315 314 89
3 313 314 315
3 111 316 317
3 60 111 12
3 112 111 60
3 112 318 320
3 320 319 111
3 318 319 320
3 112 321 322
3 113 323 325
3 325 324 112
3 323 324 325
3 113 326 327
3 113 328 329
3 114 330 332
3 332 331 113
3 330 331 332
3 114 333 335
3 333 20 334
3 333 334 335
3 62 114 26
3 115 114 62
3 115 20 114
3 115 336 338
3 338 337 20
3 336 337 338
3 100 339 341
3 341 340 115
3 339 340 341
3 100 342 343
3 116 117 0
3 118 117 116
3 118 28 117
3 344 118 345
3 346 345 27
3 344 345 346
3 119 347 349
3 347 118 348
3 347 348 349
3 119 28 118
3 119 69 28
3 350 69 351
3 352 351 119
3 350 351 352
3 354 353 69
3 120 355 356
3 120 357 359
3 357 10 358
3 357 358 359
3 63 360 362
3 360 120 361
3 360 361 362
3 121 120 63
3 121 10 120
3 121 38 10
3 116 38 121
3 116 0 38
3 101 363 364
3 366 365 101
3 65 367 369
3 369 368 22
3 367 368 369
3 371 370 65
3 93 66 3
3 122 66 93
3 122 29 66
3 68 122 14
3 123 122 68
3 123 29 122
3 123 372 374
3 374 373 29
3 372 373 374
3 376 375 123
3 117 37 0
3 124 37 117
3 124 9 37
3 70 124 28
3 125 124 70
3 125 9 124
3 125 88 9
3 126 88 125
3 126 4 88
3 377 71 378
3 127 379 381
3 379 71 380
3 379 380 381
3 127 30 71
3 73 127 16
3 128 127 73
3 128 30 127
3 128 126 30
3 129 126 128
3 129 4 126
3 129 58 4
3 130 58 129
3 130 25 58
3 75 130 31
3 131 130 75
3 131 25 130
3 131 110 25
3 132 110 131
3 132 1 110
3 133 382 383
3 133 384 386
3 384 5 385
3 384 385 386
3 78 387 389
3 389 388 17
3 387 388 389
3 134 390 392
3 392 391 78
3 390 391 392
3 134 393 394
3 134 395 397
3 395 133 396
3 395 396 397
3 135 133 134
3 135 5 133
3 135 76 5
3 136 76 135
3 136 32 76
3 80 136 33
3 137 136 80
3 137 32 136
3 137 132 32
3 138 132 137
3 138 1 132
3 138 45 1
3 139 45 138
3 139 398 400
3 400 399 45
3 398 399 400
3 82 139 34
3 401 139 402
3 403 402 82
3 401 402 403
3 405 404 139
3 98 83 6
3 406 83 407
3 408 407 98
3 406 407 408
3 410 409 83
3 411 50 412
3 413 50 414
3 415 19 416
3 417 416 50
3 415 416 417
3 140 418 419
3 140 420 422
3 420 19 421
3 420 421 422
3 140 423 425
3 425 424 19
3 423 424 425
3 427 426 140
3 141 428 429
3 141 430 431
3 141 432 433
3 435 434 141
