ply
format ascii 1.0
element vertex 183
property float x
property float y
property float z
property uchar red
property uchar green
property uchar blue
element face 164
property list uchar int vertex_index
end_header
-4.44044 -8.15291 39.7623 70 255 185
-5.56964 -22.3176 33.7335 128 0 0
-3.711 -39.1857 33.9644 255 237 0
-4.62215 -31.0133 34.0177 201 0 0
-4.68311 -38.2978 30.1757 255 192 0
-3.57017 -46.0636 29.8218 154 255 101
-5.1059 -14.9664 36.8874 167 0 0
-4.41188 -23.7997 37.4382 224 0 0
-3.70037 -32.2709 37.6733 39 255 216
-4.21253 -12.5537 40.1893 60 255 195
-5.27667 -34.1667 30.2455 93 255 162
-4.62561 -41.8573 28.0783 69 255 186
-6.13406 -9.65859 34.4459 0 246 255
-5.35653 -18.5914 35.3501 146 0 0
-4.76105 -19.4089 37.2112 196 0 0
-4.94635 -23.0224 35.6117 179 0 0
-4.1623 -35.1788 34.0253 235 0 0
-4.13225 -31.6181 35.8587 241 0 0
-3.72658 -35.7139 35.8743 255 239 0
-3.30502 -39.642 35.834 0 172 255
-3.39965 -49.3827 27.6133 34 255 221
-5.7469 -26.1025 32.025 245 255 10
-5.09361 -26.715 33.926 165 0 0
-5.2068 -30.445 32.1416 255 163 0
-4.67375 -34.6682 32.1543 195 0 0
-4.15899 -38.743 32.0817 234 0 0
-3.66271 -42.6497 31.9449 158 255 97
-4.11327 -42.2684 30.0246 237 0 0
-3.99734 -45.7106 27.8602 255 229 0
-3.76587 -49.027 25.6107 0 182 255
-5.0711 -7.05407 37.8496 88 255 167
-4.80636 -11.478 38.3555 190 0 0
-5.43801 -10.5108 36.4425 255 149 0
-5.75699 -14.1242 34.9695 255 133 0
-6.03641 -17.8603 33.421 255 254 0
-6.27586 -21.6773 31.7855 130 255 125
-4.52322 -15.9101 38.7343 255 197 0
-4.22905 -20.315 39.014 176 255 79
-3.92585 -24.6534 39.2174 45 255 210
-4.53697 -27.3772 35.7756 211 0 0
-4.06054 -28.0991 37.5878 255 224 0
-4.32648 -10.3533 39.9758 0 0 211
-4.01052 -10.9562 40.8864 0 0 171
-4.12448 -8.75581 40.6729 0 0 171
-3.48311 -41.1019 33.9085 0 0 166
-3.28012 -41.33 34.8433 0 0 166
-3.50801 -39.4138 34.8992 0 0 203
-3.11051 -51.1257 27.4992 0 0 128
-3.24843 -50.9728 26.4841 0 0 128
-5.54257 -30.1721 31.1761 0 0 180
-5.47685 -28.2737 32.0833 0 0 224
-5.81262 -28.0008 31.1177 0 0 180
-4.22961 -45.507 26.8662 0 0 172
-4.31148 -43.784 27.9693 0 0 212
-4.54375 -43.5803 26.9753 0 0 172
-4.11388 -47.1652 25.7415 0 0 170
-3.8816 -47.3688 26.7355 0 0 209
-4.22961 -45.507 26.8662 0 0 170
-3.9532 -48.8125 24.5985 0 0 131
-4.11388 -47.1652 25.7415 0 0 131
-5.59187 -8.2935 36.1464 0 0 179
-5.25456 -8.78246 37.1461 0 0 223
-5.40842 -6.56511 36.8499 0 0 179
-6.11728 -13.7536 33.9682 0 0 183
-5.94553 -11.8914 34.7077 0 0 228
-6.30581 -11.5208 33.7064 0 0 183
-6.25699 -15.6216 33.194 0 0 183
-5.8967 -15.9922 34.1952 0 0 229
-6.11728 -13.7536 33.9682 0 0 183
-6.64421 -21.3848 30.7653 0 0 139
-6.52489 -19.4434 31.5946 0 0 139
-6.37038 -23.6026 30.9178 0 0 139
-6.64421 -21.3848 30.7653 0 0 139
-3.65408 -30.5785 38.5169 0 0 167
-3.83417 -28.4926 38.4741 0 0 167
-3.88045 -30.185 37.6305 0 0 205
-3.48046 -32.6247 38.5629 0 0 129
-3.65408 -30.5785 38.5169 0 0 129
-3.37204 -46.2206 30.7958 0 0 167
-3.41831 -44.5136 31.8574 0 0 167
-3.61644 -44.3566 30.8833 0 0 205
-3.90505 -13.1393 41.0618 0 0 130
-4.01052 -10.9562 40.8864 0 0 130
-4.08877 -14.7519 40.3496 0 0 130
-3.90505 -13.1393 41.0618 0 0 130
-5.60939 -33.913 29.2615 0 0 136
-5.5775 -32.0329 30.228 0 0 136
-5.27847 -36.0002 29.2367 0 0 135
-5.60939 -33.913 29.2615 0 0 135
-4.98168 -38.0657 29.2018 0 0 177
-4.97989 -36.2323 30.2106 0 0 219
-5.27847 -36.0002 29.2367 0 0 177
-4.95294 -39.8454 28.1531 0 0 175
-4.65436 -40.0775 29.127 0 0 217
-4.98168 -38.0657 29.2018 0 0 175
-4.90389 -41.6292 27.0837 0 0 134
-4.95294 -39.8454 28.1531 0 0 134
-4.54375 -43.5803 26.9753 0 0 133
-4.90389 -41.6292 27.0837 0 0 133
-6.30397 -7.44241 34.1011 0 0 138
-5.9399 -7.86737 35.148 0 0 138
-6.50591 -9.29039 33.398 0 0 138
-6.30397 -7.44241 34.1011 0 0 138
-6.30581 -11.5208 33.7064 0 0 139
-6.50591 -9.29039 33.398 0 0 139
-3.52117 -36 36.7889 0 0 167
-3.50806 -34.2785 37.6884 0 0 167
-3.71347 -33.9924 36.7738 0 0 205
-3.31038 -37.9641 36.7688 0 0 166
-3.52117 -36 36.7889 0 0 166
-3.5158 -37.6779 35.8542 0 0 203
-3.09536 -39.8841 36.7605 0 0 128
-3.31038 -37.9641 36.7688 0 0 128
-3.07634 -41.5164 35.7931 0 0 128
-3.09536 -39.8841 36.7605 0 0 128
-3.07634 -41.5164 35.7931 0 0 128
-3.28012 -41.33 34.8433 0 0 128
-3.22168 -49.5297 28.6084 0 0 166
-3.30694 -47.8702 29.7127 0 0 166
-3.48491 -47.7231 28.7175 0 0 204
-3.22168 -49.5297 28.6084 0 0 128
-3.11051 -51.1257 27.4992 0 0 128
-5.24174 -32.3059 31.1936 0 0 223
-5.54257 -30.1721 31.1761 0 0 179
-5.5775 -32.0329 30.228 0 0 179
-3.43155 -50.795 25.4828 0 0 166
-3.24843 -50.9728 26.4841 0 0 166
-3.58276 -49.2049 26.612 0 0 203
-3.56279 -50.6031 24.4642 0 0 129
-3.43155 -50.795 25.4828 0 0 129
-3.56279 -50.6031 24.4642 0 0 130
-3.9532 -48.8125 24.5985 0 0 130
-5.78604 -10.0847 35.4442 0 0 225
-5.59187 -8.2935 36.1464 0 0 180
-5.9399 -7.86737 35.148 0 0 180
-6.40517 -17.5349 32.4124 0 0 138
-6.25699 -15.6216 33.194 0 0 138
-6.15614 -19.7688 32.6033 0 0 232
-6.40517 -17.5349 32.4124 0 0 185
-6.52489 -19.4434 31.5946 0 0 185
-6.1059 -25.8152 31.0375 0 0 183
-6.01138 -23.8899 31.9053 0 0 229
-6.37038 -23.6026 30.9178 0 0 183
-5.81262 -28.0008 31.1177 0 0 137
-6.1059 -25.8152 31.0375 0 0 137
-4.21484 -6.58011 40.4379 0 0 131
-4.12448 -8.75581 40.6729 0 0 131
-4.54109 -5.96528 39.4801 0 0 132
-4.21484 -6.58011 40.4379 0 0 132
-4.85643 -5.41586 38.5238 0 0 174
-4.75577 -7.60349 38.8059 0 0 215
-4.54109 -5.96528 39.4801 0 0 174
-5.18925 -4.8603 37.5192 0 0 134
-4.85643 -5.41586 38.5238 0 0 134
-5.40842 -6.56511 36.8499 0 0 135
-5.18925 -4.8603 37.5192 0 0 135
-4.24412 -16.4301 39.6221 0 0 170
-4.08877 -14.7519 40.3496 0 0 170
-4.36787 -14.2319 39.4618 0 0 209
-4.09703 -18.6326 39.762 0 0 170
-4.24412 -16.4301 39.6221 0 0 170
-4.37614 -18.1125 38.8742 0 0 210
-3.96502 -20.8104 39.8828 0 0 130
-4.09703 -18.6326 39.762 0 0 130
-3.81342 -22.9796 39.9845 0 0 168
-3.96502 -20.8104 39.8828 0 0 168
-4.07745 -22.4842 39.1157 0 0 206
-3.67156 -25.1173 40.0764 0 0 129
-3.81342 -22.9796 39.9845 0 0 129
-3.76682 -26.7698 39.2889 0 0 168
-3.99319 -26.3763 38.4026 0 0 206
-3.83417 -28.4926 38.4741 0 0 168
-3.67156 -25.1173 40.0764 0 0 129
-3.76682 -26.7698 39.2889 0 0 129
-3.48046 -32.6247 38.5629 0 0 128
-3.50806 -34.2785 37.6884 0 0 128
-3.45896 -42.8339 32.8987 0 0 167
-3.48311 -41.1019 33.9085 0 0 167
-3.68685 -40.9177 32.9547 0 0 205
-3.45896 -42.8339 32.8987 0 0 129
-3.41831 -44.5136 31.8574 0 0 129
-3.37204 -46.2206 30.7958 0 0 128
-3.30694 -47.8702 29.7127 0 0 128
3 0 41 43
3 41 9 42
3 41 42 43
3 1 15 13
3 2 18 16
3 2 19 18
3 2 44 46
3 46 45 19
3 44 45 46
3 48 47 20
3 49 23 50
3 51 50 21
3 49 50 51
3 4 24 10
3 4 25 24
3 4 27 25
3 52 28 53
3 54 53 11
3 52 53 54
3 55 29 56
3 57 56 28
3 55 56 57
3 59 58 29
3 60 32 61
3 62 61 30
3 60 61 62
3 63 33 64
3 65 64 12
3 63 64 65
3 66 34 67
3 68 67 33
3 66 67 68
3 69 35 70
3 72 71 35
3 6 36 31
3 7 37 14
3 7 38 37
3 3 39 22
3 8 40 17
3 8 73 75
3 75 74 40
3 73 74 75
3 8 76 77
3 5 78 80
3 80 79 26
3 78 79 80
3 9 81 82
3 9 83 84
3 85 10 86
3 87 10 88
3 89 4 90
3 91 90 10
3 89 90 91
3 92 11 93
3 94 93 4
3 92 93 94
3 95 11 96
3 98 97 11
3 99 12 100
3 101 12 102
3 104 103 12
3 13 14 6
3 15 14 13
3 15 7 14
3 16 17 3
3 18 17 16
3 18 8 17
3 18 105 107
3 107 106 8
3 105 106 107
3 19 108 110
3 110 109 18
3 108 109 110
3 19 111 112
3 19 113 114
3 116 115 19
3 20 117 119
3 119 118 5
3 117 118 119
3 121 120 20
3 21 22 1
3 23 22 21
3 23 3 22
3 10 122 124
3 122 23 123
3 122 123 124
3 24 23 10
3 24 3 23
3 24 16 3
3 25 16 24
3 25 2 16
3 25 26 2
3 27 26 25
3 27 5 26
3 11 27 4
3 28 27 11
3 28 5 27
3 28 20 5
3 29 20 28
3 29 125 127
3 127 126 20
3 125 126 127
3 29 128 129
3 131 130 29
3 30 31 0
3 32 31 30
3 32 6 31
3 12 132 134
3 132 32 133
3 132 133 134
3 33 32 12
3 33 6 32
3 33 13 6
3 34 13 33
3 34 1 13
3 135 34 136
3 35 137 139
3 137 34 138
3 137 138 139
3 35 1 34
3 35 21 1
3 140 21 141
3 142 141 35
3 140 141 142
3 144 143 21
3 145 0 146
3 147 0 148
3 149 30 150
3 151 150 0
3 149 150 151
3 152 30 153
3 155 154 30
3 31 9 0
3 36 9 31
3 36 156 158
3 158 157 9
3 156 157 158
3 14 36 6
3 37 36 14
3 37 159 161
3 161 160 36
3 159 160 161
3 37 162 163
3 38 164 166
3 166 165 37
3 164 165 166
3 38 167 168
3 22 15 1
3 39 15 22
3 39 7 15
3 17 39 3
3 40 39 17
3 40 7 39
3 40 38 7
3 169 38 170
3 171 170 40
3 169 170 171
3 173 172 38
3 175 174 8
3 26 176 178
3 178 177 2
3 176 177 178
3 180 179 26
3 182 181 5
