ply
format ascii 1.0
element vertex 259
property float x
property float y
property float z
property uchar red
property uchar green
property uchar blue
element face 225
property list uchar int vertex_index
end_header
-5.76853 16.687 23.4347 0 162 255
-11.6402 25.5755 32.9202 177 0 0
-10.1205 17.8506 41.7878 33 255 222
-8.3161 22.6843 27.535 230 255 25
-13.0263 29.4901 27.8283 198 255 57
-10.8939 27.224 24.3378 255 225 0
-13.4563 22.9763 28.9315 255 75 0
-13.504 19.5467 33.8392 98 255 157
-10.5184 14.8339 46.1092 0 240 255
-10.6597 21.7353 37.5926 153 255 102
-6.2358 14.9717 26.7937 0 89 255
-5.825 26.4999 22.9803 121 255 134
-5.15117 20.6807 25.1636 255 238 0
-10.0247 28.8741 31.9838 245 255 10
-11.3134 30.94 29.729 98 255 157
-12.3318 27.6667 30.3864 128 0 0
-13.5839 26.2147 28.3126 233 0 0
-13.4739 24.2732 31.1658 249 0 0
-13.7097 21.2696 31.3985 255 135 0
-12.9255 22.5908 33.5008 255 39 0
-10.6385 13.2544 48.1991 0 204 255
-9.71807 24.9049 25.7923 200 0 0
-7.80805 27.4204 24.2988 255 30 0
-6.81823 24.9772 25.6646 255 69 0
-5.19843 23.706 24.1167 255 230 0
-6.3366 22.5067 27.04 91 255 164
-10.3468 19.8867 39.6721 43 255 212
-13.1477 27.8789 25.5831 137 255 118
-12.5274 25.0316 26.3192 255 14 0
-11.3064 22.4464 27.7025 255 23 0
-9.62265 20.5317 29.1253 0 244 255
-12.3297 20.4015 29.6236 177 255 78
-12.9661 18.4298 31.7992 0 223 255
-10.1492 16.1279 43.9306 0 241 255
-9.57885 26.4109 34.5079 143 255 112
-10.9793 23.6902 35.3095 255 70 0
-9.49478 24.6006 36.8263 47 255 208
-9.4875 22.8221 39.1059 32 255 223
-9.15691 20.7746 41.329 44 255 211
-8.72738 18.4775 43.4111 24 255 231
-9.35293 17.1595 45.6961 6 255 249
-10.1664 15.9113 48.1252 47 255 208
-10.0848 14.1761 50.6569 0 161 255
-6.66188 15.8381 24.9381 0 204 255
-9.07378 11.7858 52.9306 0 70 255
-6.20652 19.6338 21.6857 0 174 255
-8.95647 29.4293 22.7344 41 255 214
-6.32146 29.2989 22.2308 9 255 246
-6.74027 21.5243 22.5644 118 255 137
-6.85658 18.6444 23.8754 255 231 0
-5.77764 17.832 25.8426 24 255 231
-12.1853 20.7824 35.8828 126 255 129
-4.63971 15.7757 23.4579 0 0 137
-5.05881 17.1675 22.7525 0 0 137
-10.1103 12.0655 48.0463 0 0 138
-10.2181 12.302 49.3297 0 0 138
-7.90603 21.7186 28.1403 0 0 153
-6.91628 21.6298 27.8928 0 0 153
-7.32635 22.5955 27.2875 0 0 175
-10.7322 17.4137 40.9124 0 0 169
-10.8453 18.4317 39.8545 0 0 169
-10.2336 18.8686 40.73 0 0 199
-12.8125 31.0191 27.4962 0 0 188
-11.9561 31.744 28.4465 0 0 188
-12.1698 30.2151 28.7787 0 0 228
-13.2319 30.0961 26.3999 0 0 147
-12.8125 31.0191 27.4962 0 0 147
-13.087 28.6845 26.7057 0 0 213
-13.2926 29.2905 25.2773 0 0 178
-13.2319 30.0961 26.3999 0 0 178
-13.2484 18.1371 33.9749 0 0 167
-12.9795 17.5787 32.9548 0 0 167
-13.2351 18.9883 32.8192 0 0 197
-10.7165 14.3019 45.0553 0 0 158
-10.5319 14.9489 43.966 0 0 158
-10.3338 15.4809 45.0199 0 0 183
-8.90618 26.9132 35.1143 0 0 138
-9.08856 28.0824 34.055 0 0 138
-8.86415 26.0081 36.2735 0 0 164
-9.53682 25.5057 35.6671 0 0 193
-8.90618 26.9132 35.1143 0 0 164
-8.93305 23.2067 39.8194 0 0 136
-8.89765 24.2019 38.5364 0 0 136
-8.76776 22.1829 40.931 0 0 161
-9.32221 21.7984 40.2175 0 0 188
-8.93305 23.2067 39.8194 0 0 161
-8.25535 19.0452 44.3765 0 0 139
-8.40516 19.9333 43.1483 0 0 139
-8.56813 18.3862 45.519 0 0 166
-9.04015 17.8185 44.5536 0 0 195
-8.25535 19.0452 44.3765 0 0 166
-9.65248 16.4887 49.2744 0 0 143
-9.31678 17.1883 47.9834 0 0 143
-9.6117 15.6211 50.5403 0 0 179
-10.1256 15.0437 49.3911 0 0 215
-9.65248 16.4887 49.2744 0 0 179
-6.39309 13.8552 26.5759 0 0 152
-6.60613 14.2884 25.648 0 0 152
-6.44884 15.4049 25.8659 0 0 174
-8.615 11.9565 54.3247 0 0 145
-9.07653 13.1581 53.0672 0 0 145
-6.42799 21.0552 20.9086 0 0 134
-5.53624 20.1077 20.9607 0 0 134
-9.9252 28.3266 23.5361 0 0 221
-10.5102 29.4121 22.9851 0 0 183
-11.4789 28.3094 23.7869 0 0 183
-5.7589 26.9689 21.5165 0 0 181
-6.00713 28.3684 21.1417 0 0 181
-6.07323 27.8994 22.6055 0 0 217
-5.9685 25.4908 22.0631 0 0 144
-5.7589 26.9689 21.5165 0 0 144
-9.01616 19.5704 29.6682 0 0 134
-10.137 19.4377 29.9318 0 0 134
-10.6691 29.907 30.8564 0 0 221
-10.3692 31.4083 30.6181 0 0 183
-9.72482 30.3754 31.7455 0 0 183
-10.5698 12.8414 47.0807 0 0 157
-10.5097 13.6312 46.0358 0 0 157
-10.5784 14.0441 47.1541 0 0 183
-10.5698 12.8414 47.0807 0 0 134
-10.1103 12.0655 48.0463 0 0 134
-6.36356 13.4074 27.4296 0 0 140
-5.59099 14.46 27.7725 0 0 140
-5.82385 21.2724 27.4549 0 0 173
-5.23113 20.3594 26.5167 0 0 173
-5.74388 21.5937 26.1018 0 0 206
-5.82385 21.2724 27.4549 0 0 136
-6.91628 21.6298 27.8928 0 0 136
-10.9803 19.3386 38.8391 0 0 168
-11.1368 20.2629 37.7994 0 0 168
-10.5032 20.811 38.6324 0 0 198
-10.9803 19.3386 38.8391 0 0 137
-10.8453 18.4317 39.8545 0 0 137
-11.0617 32.4051 29.3384 0 0 146
-10.3692 31.4083 30.6181 0 0 146
-11.0617 32.4051 29.3384 0 0 146
-11.9561 31.744 28.4465 0 0 146
-12.6058 28.6369 24.4095 0 0 140
-13.2926 29.2905 25.2773 0 0 140
-12.0208 27.5514 24.9605 0 0 202
-11.4789 28.3094 23.7869 0 0 171
-12.6058 28.6369 24.4095 0 0 171
-11.4905 19.3725 30.1809 0 0 174
-10.137 19.4377 29.9318 0 0 174
-10.9762 20.4666 29.3744 0 0 207
-11.8087 18.3867 31.2687 0 0 172
-11.4905 19.3725 30.1809 0 0 172
-12.6479 19.4156 30.7114 0 0 204
-12.158 17.3398 32.2035 0 0 138
-11.8087 18.3867 31.2687 0 0 138
-12.158 17.3398 32.2035 0 0 136
-12.9795 17.5787 32.9548 0 0 136
-10.6123 15.7013 42.9825 0 0 162
-10.598 16.5626 41.9111 0 0 162
-10.1348 16.9892 42.8592 0 0 189
-10.6123 15.7013 42.9825 0 0 131
-10.5319 14.9489 43.966 0 0 131
-10.7165 14.3019 45.0553 0 0 131
-10.5097 13.6312 46.0358 0 0 131
-9.31148 29.314 32.7929 0 0 139
-9.72482 30.3754 31.7455 0 0 139
-9.80177 27.6425 33.2459 0 0 220
-9.31148 29.314 32.7929 0 0 182
-9.08856 28.0824 34.055 0 0 182
-8.90129 25.0911 37.3966 0 0 134
-8.86415 26.0081 36.2735 0 0 134
-9.49114 23.7113 37.9661 0 0 186
-8.90129 25.0911 37.3966 0 0 159
-8.89765 24.2019 38.5364 0 0 159
-8.61992 21.0819 42.1072 0 0 135
-8.76776 22.1829 40.931 0 0 135
-8.94214 19.626 42.3701 0 0 190
-8.61992 21.0819 42.1072 0 0 162
-8.40516 19.9333 43.1483 0 0 162
-8.91005 17.8123 46.7688 0 0 140
-8.56813 18.3862 45.519 0 0 140
-9.75966 16.5354 46.9106 0 0 208
-8.91005 17.8123 46.7688 0 0 174
-9.31678 17.1883 47.9834 0 0 174
-9.94126 12.7629 50.5587 0 0 175
-10.2181 12.302 49.3297 0 0 175
-10.3617 13.7152 49.428 0 0 208
-6.0545 14.7661 24.9879 0 0 152
-5.60782 15.1905 24.2363 0 0 152
-6.2152 16.2626 24.1864 0 0 175
-6.0545 14.7661 24.9879 0 0 130
-6.60613 14.2884 25.648 0 0 130
-6.39309 13.8552 26.5759 0 0 128
-6.36356 13.4074 27.4296 0 0 128
-9.58206 14.3532 51.9304 0 0 147
-9.6117 15.6211 50.5403 0 0 147
-9.5793 12.9809 51.7938 0 0 214
-9.58206 14.3532 51.9304 0 0 178
-9.07653 13.1581 53.0672 0 0 178
-9.43573 11.5677 51.6955 0 0 177
-9.94126 12.7629 50.5587 0 0 177
-9.5793 12.9809 51.7938 0 0 211
-8.47059 10.6131 54.1736 0 0 145
-8.615 11.9565 54.3247 0 0 145
-8.7157 10.4471 52.7666 0 0 145
-8.47059 10.6131 54.1736 0 0 145
-9.43573 11.5677 51.6955 0 0 141
-8.7157 10.4471 52.7666 0 0 141
-5.27781 18.6409 21.8779 0 0 136
-5.53624 20.1077 20.9607 0 0 136
-5.98752 18.1604 22.5602 0 0 193
-5.05881 17.1675 22.7525 0 0 165
-5.27781 18.6409 21.8779 0 0 165
-9.75392 30.2921 21.8678 0 0 147
-10.5102 29.4121 22.9851 0 0 147
-8.00752 30.5277 21.8736 0 0 151
-9.75392 30.2921 21.8678 0 0 151
-6.69002 30.4625 21.6218 0 0 175
-8.00752 30.5277 21.8736 0 0 175
-7.63896 29.3641 22.4826 0 0 209
-5.84742 29.9132 20.8294 0 0 139
-6.69002 30.4625 21.6218 0 0 139
-5.84742 29.9132 20.8294 0 0 147
-6.00713 28.3684 21.1417 0 0 147
-5.65522 24.0938 22.6313 0 0 181
-5.9685 25.4908 22.0631 0 0 181
-5.51172 25.1029 23.5485 0 0 218
-6.42613 23.0029 21.8552 0 0 192
-5.65522 24.0938 22.6313 0 0 192
-5.96935 22.6151 23.3405 0 0 235
-6.69486 22.0004 21.3479 0 0 136
-6.42613 23.0029 21.8552 0 0 136
-6.47339 20.5791 22.125 0 0 188
-6.42799 21.0552 20.9086 0 0 161
-6.69486 22.0004 21.3479 0 0 161
-5.54436 18.9351 26.8562 0 0 178
-5.4644 19.2564 25.5031 0 0 214
-5.23113 20.3594 26.5167 0 0 178
-5.29218 17.4672 27.0197 0 0 141
-5.54436 18.9351 26.8562 0 0 141
-5.52127 16.0371 27.4953 0 0 175
-6.00672 16.4019 26.3181 0 0 209
-5.29218 17.4672 27.0197 0 0 175
-5.59099 14.46 27.7725 0 0 141
-5.52127 16.0371 27.4953 0 0 141
-8.5593 20.6423 28.9355 0 0 157
-7.90603 21.7186 28.1403 0 0 157
-8.96938 21.608 28.3301 0 0 181
-8.5593 20.6423 28.9355 0 0 132
-9.01616 19.5704 29.6682 0 0 132
-11.8996 19.7864 36.9445 0 0 173
-11.4225 21.2589 36.7377 0 0 206
-11.1368 20.2629 37.7994 0 0 173
-12.4906 19.3592 36.0425 0 0 137
-11.8996 19.7864 36.9445 0 0 137
-13.15 18.7414 35.0207 0 0 175
-12.8447 20.1646 34.861 0 0 209
-12.4906 19.3592 36.0425 0 0 175
-13.2484 18.1371 33.9749 0 0 138
-13.15 18.7414 35.0207 0 0 138
-10.7322 17.4137 40.9124 0 0 134
-10.598 16.5626 41.9111 0 0 134
-4.63971 15.7757 23.4579 0 0 144
-5.60782 15.1905 24.2363 0 0 144
3 0 52 53
3 1 15 13
3 1 17 15
3 1 19 17
3 55 54 20
3 3 23 21
3 3 25 23
3 3 56 58
3 58 57 25
3 56 57 58
3 2 59 61
3 61 60 26
3 59 60 61
3 4 62 64
3 64 63 14
3 62 63 64
3 4 65 66
3 4 67 69
3 67 27 68
3 67 68 69
3 6 28 16
3 6 29 28
3 6 31 29
3 7 32 18
3 7 70 72
3 72 71 32
3 70 71 72
3 8 73 75
3 75 74 33
3 73 74 75
3 76 34 77
3 78 36 79
3 80 79 34
3 78 79 80
3 81 37 82
3 83 38 84
3 85 84 37
3 83 84 85
3 86 39 87
3 88 40 89
3 90 89 39
3 88 89 90
3 91 41 92
3 93 42 94
3 95 94 41
3 93 94 95
3 10 96 98
3 98 97 43
3 96 97 98
3 99 44 100
3 101 45 102
3 5 103 105
3 103 46 104
3 103 104 105
3 11 47 22
3 11 106 108
3 108 107 47
3 106 107 108
3 11 109 110
3 12 48 24
3 12 49 48
3 12 50 49
3 112 111 30
3 9 51 35
3 13 113 115
3 113 14 114
3 113 114 115
3 15 14 13
3 15 4 14
3 15 16 4
3 17 16 15
3 17 6 16
3 17 18 6
3 19 18 17
3 19 7 18
3 20 116 118
3 118 117 8
3 116 117 118
3 120 119 20
3 122 121 10
3 21 22 5
3 23 22 21
3 23 11 22
3 23 24 11
3 25 24 23
3 25 12 24
3 25 123 125
3 125 124 12
3 123 124 125
3 127 126 25
3 26 128 130
3 130 129 9
3 128 129 130
3 132 131 26
3 14 133 134
3 136 135 14
3 27 137 138
3 27 139 141
3 139 5 140
3 139 140 141
3 16 27 4
3 28 27 16
3 28 5 27
3 28 21 5
3 29 21 28
3 29 3 21
3 29 30 3
3 31 30 29
3 31 142 144
3 144 143 30
3 142 143 144
3 18 31 6
3 32 31 18
3 32 145 147
3 147 146 31
3 145 146 147
3 32 148 149
3 151 150 32
3 33 152 154
3 154 153 2
3 152 153 154
3 156 155 33
3 158 157 8
3 159 13 160
3 34 161 163
3 161 13 162
3 161 162 163
3 34 1 13
3 34 35 1
3 36 35 34
3 36 9 35
3 164 36 165
3 37 166 168
3 166 36 167
3 166 167 168
3 37 9 36
3 37 26 9
3 38 26 37
3 38 2 26
3 169 38 170
3 39 171 173
3 171 38 172
3 171 172 173
3 39 2 38
3 39 33 2
3 40 33 39
3 40 8 33
3 174 40 175
3 41 176 178
3 176 40 177
3 176 177 178
3 41 8 40
3 41 20 8
3 42 20 41
3 42 179 181
3 181 180 20
3 179 180 181
3 43 182 184
3 184 183 0
3 182 183 184
3 186 185 43
3 188 187 10
3 189 42 190
3 44 191 193
3 191 42 192
3 191 192 193
3 44 194 196
3 196 195 42
3 194 195 196
3 197 44 198
3 199 44 200
3 202 201 44
3 45 203 204
3 45 205 207
3 205 0 206
3 205 206 207
3 46 208 209
3 46 210 211
3 22 46 5
3 47 46 22
3 47 212 214
3 214 213 46
3 212 213 214
3 47 215 216
3 218 217 47
3 24 219 221
3 221 220 11
3 219 220 221
3 48 222 224
3 224 223 24
3 222 223 224
3 48 225 226
3 48 227 229
3 227 45 228
3 227 228 229
3 49 45 48
3 49 0 45
3 49 43 0
3 50 43 49
3 50 10 43
3 230 50 231
3 232 231 12
3 230 231 232
3 233 50 234
3 235 10 236
3 237 236 50
3 235 236 237
3 239 238 10
3 30 240 242
3 242 241 3
3 240 241 242
3 244 243 30
3 35 19 1
3 51 19 35
3 51 7 19
3 245 51 246
3 247 246 9
3 245 246 247
3 248 51 249
3 250 7 251
3 252 251 51
3 250 251 252
3 254 253 7
3 256 255 2
3 258 257 0
