ply
format ascii 1.0
element vertex 135
property float x
property float y
property float z
property uchar red
property uchar green
property uchar blue
element face 117
property list uchar int vertex_index
end_header
-40.6128 3.49102 47.6948 76 255 179
-42.2423 14.0965 45.5933 255 83 0
-38.1585 5.17499 43.0177 0 165 255
-39.7736 8.82415 46.8053 255 4 0
-40.1683 10.9023 50.8193 255 243 0
-39.4975 17.2946 47.9723 128 0 0
-42.5322 3.29451 46.1329 0 181 255
-39.0254 4.12925 45.16 246 255 9
-39.427 7.61533 51.4236 77 255 178
-38.2997 15.6373 50.3362 255 233 0
-37.442 19.2408 48.923 233 255 22
-37.9818 20.151 46.4556 234 255 21
-36.2516 22.2218 47.7336 0 178 255
-41.174 11.606 46.2453 255 58 0
-40.1424 9.99154 44.2104 144 255 111
-41.2966 12.3098 43.5965 104 255 151
-42.3859 16.8553 44.5333 149 255 106
-42.2664 14.5049 42.9295 19 255 236
-39.4169 3.99749 49.187 0 185 255
-38.8244 5.60642 46.9836 255 104 0
-38.9556 6.79396 49.1312 255 232 0
-40.3264 9.96689 48.7969 251 0 0
-41.1304 12.8863 48.1824 255 80 0
-38.8697 11.9059 52.0545 108 255 147
-40.1481 14.1208 49.4671 214 0 0
-41.5908 15.8215 47.123 255 9 0
-40.3145 18.3749 45.4037 218 255 37
-38.7124 7.299 44.9342 239 255 16
-36.39 19.9058 49.2053 0 0 149
-36.9065 18.1882 49.808 0 0 149
-35.7948 21.3963 48.6106 0 0 178
-36.8468 20.7313 48.3283 0 0 212
-36.39 19.9058 49.2053 0 0 178
-35.373 22.5775 47.9549 0 0 135
-35.7948 21.3963 48.6106 0 0 135
-38.8405 4.09777 42.1651 0 0 147
-39.4282 4.16204 43.2585 0 0 147
-37.9348 5.29854 42.0858 0 0 138
-38.8405 4.09777 42.1651 0 0 138
-42.654 17.1376 43.2812 0 0 146
-41.852 18.1636 43.805 0 0 146
-38.9842 5.77227 50.1263 0 0 168
-39.1862 5.39572 49.1591 0 0 197
-39.2149 4.37404 50.1543 0 0 168
-38.0447 12.6206 52.4244 0 0 154
-38.3017 10.751 53.3801 0 0 154
-38.2929 20.3846 45.0916 0 0 151
-37.4526 21.4793 45.7272 0 0 151
-39.3554 9.02003 43.4361 0 0 143
-40.0317 10.0836 42.9465 0 0 143
-41.4822 13.4373 42.0525 0 0 143
-41.9631 14.5521 41.6524 0 0 143
-41.615 3.2218 44.8161 0 0 152
-43.5625 3.09333 45.437 0 0 152
-39.8617 3.63917 44.3297 0 0 194
-41.615 3.2218 44.8161 0 0 194
-40.7788 3.71188 45.6465 0 0 237
-38.592 4.65212 44.0889 0 0 210
-39.4282 4.16204 43.2585 0 0 176
-39.8617 3.63917 44.3297 0 0 176
-39.1014 6.36244 52.4675 0 0 145
-39.22 6.18296 51.2725 0 0 145
-39.2912 8.01197 52.4602 0 0 146
-39.1014 6.36244 52.4675 0 0 146
-39.6619 9.65546 52.1581 0 0 189
-39.7977 9.25881 51.1215 0 0 229
-39.2912 8.01197 52.4602 0 0 189
-37.3353 16.3865 50.5146 0 0 155
-37.7597 14.4863 51.5653 0 0 155
-37.8709 17.439 49.6296 0 0 224
-37.3353 16.3865 50.5146 0 0 186
-36.9065 18.1882 49.808 0 0 186
-36.5875 22.5147 46.3662 0 0 192
-37.4526 21.4793 45.7272 0 0 192
-37.1167 21.1864 47.0946 0 0 233
-36.0074 23.3876 46.9806 0 0 142
-36.5875 22.5147 46.3662 0 0 142
-36.0074 23.3876 46.9806 0 0 136
-35.373 22.5775 47.9549 0 0 136
-40.6089 11.2428 42.6396 0 0 178
-40.0317 10.0836 42.9465 0 0 178
-40.7195 11.1507 43.9035 0 0 213
-42.5943 15.9624 42.4793 0 0 183
-42.3261 15.6801 43.7314 0 0 220
-42.654 17.1376 43.2812 0 0 183
-41.9631 14.5521 41.6524 0 0 151
-42.5943 15.9624 42.4793 0 0 151
-39.1913 7.20464 50.2774 0 0 211
-38.9842 5.77227 50.1263 0 0 177
-39.22 6.18296 51.2725 0 0 177
-39.0126 10.1573 52.7757 0 0 151
-38.3017 10.751 53.3801 0 0 151
-39.519 11.4041 51.4369 0 0 228
-39.6619 9.65546 52.1581 0 0 188
-39.0126 10.1573 52.7757 0 0 188
-38.5847 13.7716 51.1953 0 0 238
-38.0447 12.6206 52.4244 0 0 195
-37.7597 14.4863 51.5653 0 0 195
-40.8164 18.9234 44.2402 0 0 184
-41.852 18.1636 43.805 0 0 184
-41.3502 17.6151 44.9685 0 0 221
-39.4592 19.4965 44.5656 0 0 195
-39.1482 19.263 45.9296 0 0 237
-38.2929 20.3846 45.0916 0 0 195
-40.8164 18.9234 44.2402 0 0 150
-39.4592 19.4965 44.5656 0 0 150
-43.9344 2.9594 46.4976 0 0 138
-43.5625 3.09333 45.437 0 0 138
-42.9406 2.9667 47.0753 0 0 135
-43.9344 2.9594 46.4976 0 0 135
-41.9809 3.06496 47.8563 0 0 164
-41.5725 3.39276 46.9138 0 0 191
-42.9406 2.9667 47.0753 0 0 164
-41.0086 3.02438 48.5223 0 0 134
-41.9809 3.06496 47.8563 0 0 134
-40.4106 3.27762 49.2684 0 0 151
-40.0148 3.74425 48.4409 0 0 171
-41.0086 3.02438 48.5223 0 0 151
-39.6794 3.24411 49.7745 0 0 128
-40.4106 3.27762 49.2684 0 0 128
-39.2149 4.37404 50.1543 0 0 131
-39.6794 3.24411 49.7745 0 0 131
-38.6404 7.67376 43.7979 0 0 179
-39.4274 8.64527 44.5723 0 0 215
-39.3554 9.02003 43.4361 0 0 179
-38.3635 6.61175 42.8397 0 0 176
-38.4354 6.237 43.9759 0 0 210
-38.6404 7.67376 43.7979 0 0 176
-37.9348 5.29854 42.0858 0 0 138
-38.3635 6.61175 42.8397 0 0 138
-40.9973 12.3398 42.3861 0 0 173
-41.7815 13.4073 43.263 0 0 206
-41.4822 13.4373 42.0525 0 0 173
-40.6089 11.2428 42.6396 0 0 140
-40.9973 12.3398 42.3861 0 0 140
3 0 7 6
3 28 10 29
3 30 12 31
3 32 31 10
3 30 31 32
3 34 33 12
3 1 15 13
3 2 35 36
3 2 37 38
3 40 39 16
3 41 20 42
3 43 42 18
3 41 42 43
3 4 21 8
3 4 22 21
3 44 23 45
3 5 24 9
3 5 25 24
3 5 26 25
3 47 46 11
3 3 27 19
3 49 48 14
3 51 50 17
3 6 52 53
3 7 54 56
3 56 55 6
3 54 55 56
3 7 57 59
3 57 2 58
3 57 58 59
3 60 8 61
3 62 8 63
3 64 4 65
3 66 65 8
3 64 65 66
3 67 9 68
3 10 69 71
3 69 9 70
3 69 70 71
3 10 5 9
3 10 11 5
3 12 11 10
3 12 72 74
3 74 73 11
3 72 73 74
3 12 75 76
3 78 77 12
3 13 14 3
3 15 14 13
3 15 79 81
3 81 80 14
3 79 80 81
3 16 17 1
3 82 17 83
3 84 83 16
3 82 83 84
3 86 85 17
3 18 19 0
3 20 19 18
3 20 3 19
3 8 87 89
3 87 20 88
3 87 88 89
3 21 20 8
3 21 3 20
3 21 13 3
3 22 13 21
3 22 1 13
3 23 90 91
3 23 92 94
3 92 4 93
3 92 93 94
3 9 95 97
3 95 23 96
3 95 96 97
3 24 23 9
3 24 4 23
3 24 22 4
3 25 22 24
3 25 1 22
3 25 16 1
3 26 16 25
3 26 98 100
3 100 99 16
3 98 99 100
3 11 26 5
3 101 26 102
3 103 102 11
3 101 102 103
3 105 104 26
3 106 6 107
3 108 6 109
3 110 0 111
3 112 111 6
3 110 111 112
3 113 0 114
3 115 18 116
3 117 116 0
3 115 116 117
3 118 18 119
3 121 120 18
3 19 7 0
3 27 7 19
3 27 2 7
3 14 27 3
3 122 27 123
3 124 123 14
3 122 123 124
3 125 2 126
3 127 126 27
3 125 126 127
3 129 128 2
3 17 15 1
3 130 15 131
3 132 131 17
3 130 131 132
3 134 133 15
