ply
format ascii 1.0
element vertex 502
property float x
property float y
property float z
property uchar red
property uchar green
property uchar blue
element face 508
property list uchar int vertex_index
end_header
-45.3231 32.1828 -14.9493 105 255 150
-53.8761 21.5098 16.5862 169 255 86
-49.4298 30.7445 -1.78547 182 255 73
-43.3924 43.1706 -13.2081 0 146 255
-47.174 34.0582 -8.46613 42 255 213
-32.0168 22.7136 -15.4026 255 143 0
-37.9987 26.9674 -15.9222 102 255 153
-52.0479 27.0635 6.12157 19 255 236
-25.0574 16.5349 -15.8004 54 255 201
-44.4774 27.62 -12.7652 96 255 159
-42.1592 25.0351 -14.3368 10 255 245
-42.5097 29.0834 -14.4846 255 207 0
-52.6704 18.125 20.2842 0 172 255
-53.7668 17.5981 15.3598 0 246 255
-49.3304 15.5911 10.1909 0 226 255
-52.6095 20.8682 12.4022 222 255 33
-49.7477 32.9562 0.37262 0 215 255
-50.7889 29.2272 3.01113 156 255 99
-47.7687 25.874 5.74433 69 255 186
-45.1399 28.6395 2.90714 69 255 186
-43.0612 30.1333 0.150084 0 229 255
-47.2413 33.9064 -12.7004 17 255 238
-42.3294 33.2815 -7.52135 186 255 69
-43.2102 30.3385 -10.7478 255 101 0
-33.3636 21.4108 -19.7062 0 208 255
-27.5251 20.5119 -15.928 255 189 0
-44.1349 37.7538 -14.988 255 231 0
-40.2094 35.3256 -12.8339 255 197 0
-49.2032 35.4864 -3.43716 0 136 255
-47.8394 32.7998 -4.52469 124 255 131
-47.7716 36.0211 -7.06697 95 255 160
-46.8584 36.518 -12.1842 156 255 99
-36.7414 24.8947 -13.027 0 247 255
-37.5268 23.4356 -16.9939 92 255 163
-36.1711 31.5836 -10.9062 184 255 71
-53.2366 24.5313 10.5041 240 255 15
-50.7302 22.6698 7.37302 185 255 70
-42.3707 32.4464 -3.01741 34 255 221
-45.4639 29.7979 -14.0545 0 244 255
-44.3713 28.1272 -14.1716 3 255 252
-44.014 30.715 -14.9741 185 255 70
-53.3486 20.0985 18.6481 163 255 92
-54.2509 17.9707 17.9817 0 212 255
-54.3362 19.6883 16.5251 120 255 135
-53.1925 19.4842 14.2089 208 255 47
-54.2149 21.1296 14.2407 146 255 109
-50.7505 31.7651 -1.05495 131 255 124
-51.1969 30.8644 1.57512 0 246 255
-50.2695 29.8139 0.467944 229 255 26
-48.0016 28.4944 2.8076 255 144 0
-47.4777 29.5542 0.411806 255 152 0
-44.2082 29.6161 1.42305 23 255 232
-46.189 30.3234 -1.06919 255 253 0
-46.5143 33.1505 -14.1253 44 255 211
-45.7549 32.1364 -12.3144 202 255 53
-46.0532 30.7236 -13.3078 95 255 160
-44.3532 28.7838 -11.7775 234 255 21
-31.3781 19.9889 -20.6081 0 165 255
-44.0281 40.6693 -14.4255 228 255 27
-41.587 39.4539 -14.2333 221 255 34
-41.5437 42.2476 -13.7751 0 241 255
-48.5277 35.723 -5.14517 0 171 255
-45.9621 36.6705 -5.69703 0 180 255
-44.9224 37.8409 -11.4544 105 255 150
-44.9984 39.9757 -13.329 53 255 202
-45.7971 37.6029 -14.0746 114 255 141
-40.6954 25.6748 -15.6126 128 255 127
-39.9442 24.195 -15.7487 60 255 195
-38.4711 25.0072 -17.1686 0 242 255
-36.3982 24.3701 -18.448 0 119 255
-38.5845 33.2467 -11.1531 255 200 0
-51.6177 29.8389 6.30485 0 150 255
-51.4906 28.0336 7.53244 0 202 255
-51.6615 26.2875 9.59877 28 255 227
-52.5348 25.4923 7.61868 123 255 132
-52.792 23.3891 8.30203 154 255 101
-51.7458 24.4828 6.39742 81 255 174
-46.3983 24.1226 6.98454 0 155 255
-47.1815 33.5831 -6.25123 85 255 170
-45.1324 32.3831 -3.71556 242 255 13
-44.849 33.3239 -5.78065 224 255 31
-39.4008 32.742 -6.19963 20 255 235
-30.6702 23.7729 -13.3589 0 255 255
-28.3035 22.4686 -13.5632 64 255 191
-25.8797 18.8225 -16.0244 255 185 0
-25.4455 18.7938 -13.5228 13 255 242
-25.5739 16.2494 -13.466 0 194 255
-42.2098 26.3632 -11.0485 0 237 255
-41.8254 25.2222 -12.3522 0 176 255
-43.8273 26.0078 -13.3149 12 255 243
-42.83 26.6729 -14.5265 74 255 181
-40.2597 27.7322 -14.4935 255 123 0
-51.6853 16.8347 13.0902 109 255 146
-50.7291 18.7981 12.8628 158 255 97
-50.0121 20.4387 11.6513 89 255 166
-51.4318 30.6008 4.27566 0 156 255
-51.5161 28.5189 4.9638 44 255 211
-50.5461 26.2151 5.59018 121 255 134
-49.3165 27.8752 4.74723 216 255 39
-46.2924 27.2212 4.83785 36 255 219
-47.5716 34.1501 -10.7513 32 255 223
-45.0659 33.7969 -8.20141 249 255 6
-45.3432 33.3917 -10.671 255 243 0
-42.5302 32.1758 -9.63786 255 75 0
-39.6403 31.0026 -7.63525 155 255 100
-40.349 29.1497 -8.31164 123 255 132
-41.3062 27.7426 -9.42541 51 255 204
-33.1506 21.6986 -17.5673 255 243 0
-29.6378 21.7532 -15.8139 255 167 0
-30.96 20.7799 -18.2306 255 189 0
-28.7282 19.6622 -18.5688 182 255 73
-26.8841 18.1699 -18.7511 94 255 161
-44.547 34.9357 -15.0692 240 255 15
-42.6333 33.7123 -14.9451 255 153 0
-41.9034 36.6333 -14.3675 255 99 0
-39.3153 38.1762 -12.5672 54 255 201
-50.998 19.7028 19.423 0 191 255
-51.9396 21.7008 17.6897 0 246 255
-49.6451 34.7525 -1.69998 0 209 255
-50.2466 33.1309 -2.87783 47 255 208
-48.6606 31.7634 -3.1282 142 255 113
-49.6127 33.7631 -4.45953 4 255 251
-48.6803 34.4202 -6.12248 0 231 255
-48.2154 34.8582 -8.17483 0 220 255
-45.3834 37.1262 -8.48597 82 255 173
-47.4236 36.1927 -9.5978 170 255 85
-48.2772 35.1115 -10.5172 0 211 255
-47.8075 35.3375 -12.6134 0 227 255
-46.3653 35.3495 -14.1315 79 255 176
-34.3244 23.8818 -14.1748 179 255 76
-40.1265 24.5425 -13.7658 30 255 225
-37.6706 23.7656 -14.9748 243 255 12
-35.2133 22.8385 -16.1184 247 255 8
-35.4839 22.4275 -18.1645 0 247 255
-41.5002 32.1096 -13.7136 227 0 0
-39.5946 30.1741 -12.6808 128 0 0
-37.0375 28.9673 -13.5602 255 249 0
-52.4216 23.634 15.5538 30 255 225
-52.1582 25.134 12.7367 49 255 206
-53.682 23.2444 13.6482 244 255 11
-53.5989 22.5307 11.2758 201 255 54
-51.8208 21.8713 9.71093 255 220 0
-49.0205 21.3854 8.8757 65 255 190
-49.2926 24.1679 6.35835 177 255 78
-47.8773 22.6112 7.45541 0 219 255
-45.4279 31.215 -2.24439 224 255 31
-42.5124 31.0808 -1.23474 7 255 248
-42.355 33.4364 -5.08161 34 255 221
-26.444 20.7938 -13.5986 17 255 238
-25.448 16.122 -18.4229 0 149 255
-44.8604 37.1477 -5.07352 0 0 139
-46.3907 36.7994 -4.7137 0 0 139
-44.1954 41.5731 -13.2686 0 0 191
-44.356 40.9768 -12.4923 0 0 165
-43.5531 42.5742 -12.4319 0 0 165
-36.8777 27.0363 -16.7329 0 0 172
-37.1138 26.0562 -17.3561 0 0 172
-38.2349 25.9873 -16.5454 0 0 201
-37.8185 32.9914 -4.36552 0 0 145
-37.7349 32.5558 -5.25156 0 0 145
-26.0135 15.1394 -14.7644 0 0 175
-26.2717 14.9967 -13.5973 0 0 175
-25.3157 16.3922 -14.6332 0 0 206
-53.0529 17.2746 19.53 0 0 143
-51.9715 17.0899 20.9702 0 0 143
-53.9707 16.8014 15.4654 0 0 153
-54.2128 16.9877 16.7764 0 0 153
-54.0088 17.7844 16.6708 0 0 173
-53.4772 16.6518 13.7798 0 0 139
-53.9707 16.8014 15.4654 0 0 139
-52.726 17.2164 14.225 0 0 202
-52.4364 16.2701 12.645 0 0 172
-53.4772 16.6518 13.7798 0 0 172
-49.9202 32.6021 1.98022 0 0 154
-48.5508 33.3033 1.4111 0 0 154
-44.3369 27.9528 3.99373 0 0 174
-44.9131 27.2437 4.95909 0 0 174
-45.7161 27.9303 3.87249 0 0 205
-43.7598 28.5453 3.30058 0 0 139
-44.3369 27.9528 3.99373 0 0 139
-42.1653 29.7553 1.34282 0 0 161
-42.7388 29.4967 1.9793 0 0 161
-43.6347 29.8747 0.786565 0 0 185
-41.7087 30.0053 0.82235 0 0 132
-42.1653 29.7553 1.34282 0 0 132
-29.095 19.0529 -19.9629 0 0 182
-30.0531 19.8255 -19.5885 0 0 216
-30.42 19.2163 -20.9826 0 0 182
-28.173 18.3068 -20.0541 0 0 179
-27.8062 18.916 -18.6599 0 0 213
-29.095 19.0529 -19.9629 0 0 179
-39.0732 39.5131 -12.5625 0 0 186
-40.4511 38.8151 -13.4003 0 0 222
-40.209 40.152 -13.3955 0 0 186
-37.8557 38.7654 -11.8394 0 0 150
-39.0732 39.5131 -12.5625 0 0 150
-50.1084 20.5949 18.7586 0 0 145
-49.5902 19.4483 19.4954 0 0 145
-50.5792 21.5939 17.892 0 0 174
-51.4688 20.7018 18.5563 0 0 205
-50.1084 20.5949 18.7586 0 0 174
-49.4242 35.1195 -2.56857 0 0 188
-48.5814 35.9365 -1.69145 0 0 163
-48.3605 36.3034 -2.56004 0 0 163
-44.1519 38.3237 -9.18916 0 0 152
-44.2057 37.5449 -7.8154 0 0 152
-34.7262 24.9896 -12.6308 0 0 150
-35.5974 25.5475 -11.9688 0 0 150
-35.5329 24.3882 -13.6009 0 0 221
-33.5177 24.4831 -13.2047 0 0 185
-34.7262 24.9896 -12.6308 0 0 185
-35.4161 23.79 -18.9794 0 0 148
-35.1846 25.4861 -18.5443 0 0 148
-49.0493 14.9762 7.82773 0 0 156
-50.214 15.283 9.40111 0 0 156
-51.3274 24.373 15.0115 0 0 145
-51.2285 23.7184 16.3223 0 0 145
-46.4766 22.438 7.70635 0 0 160
-47.1378 23.3669 7.21997 0 0 183
-45.737 23.1937 7.47091 0 0 160
-47.0529 21.6607 8.04218 0 0 137
-46.4766 22.438 7.70635 0 0 137
-41.0582 31.8425 -1.55055 0 0 172
-41.129 31.1597 -0.659218 0 0 172
-42.4416 31.7636 -2.12607 0 0 202
-25.6655 18.5132 -12.3298 0 0 141
-26.1155 17.3017 -12.5114 0 0 141
-25.7583 15.4574 -19.6788 0 0 146
-26.5349 16.4071 -20.0218 0 0 146
-31.7582 20.8886 -20.7152 0 0 143
-32.3708 20.6999 -20.1572 0 0 158
-32.751 21.5995 -20.2643 0 0 143
-30.9001 20.0048 -21.3267 0 0 128
-31.7582 20.8886 -20.7152 0 0 128
-30.42 19.2163 -20.9826 0 0 128
-30.9001 20.0048 -21.3267 0 0 128
-40.1874 41.5488 -13.1664 0 0 191
-40.209 40.152 -13.3955 0 0 191
-41.5653 40.8508 -14.0042 0 0 231
-48.0113 36.2074 -3.58376 0 0 138
-48.3605 36.3034 -2.56004 0 0 138
-47.6735 36.3257 -4.43777 0 0 154
-48.8655 35.6047 -4.29117 0 0 175
-48.0113 36.2074 -3.58376 0 0 154
-47.2449 36.1968 -5.4211 0 0 183
-47.6735 36.3257 -4.43777 0 0 160
-46.3907 36.7994 -4.7137 0 0 160
-44.318 39.9093 -11.5551 0 0 155
-43.9213 38.6811 -10.6734 0 0 155
-44.9604 38.9083 -12.3917 0 0 224
-44.318 39.9093 -11.5551 0 0 187
-44.356 40.9768 -12.4923 0 0 187
-37.5285 25.3289 -12.3279 0 0 147
-35.5974 25.5475 -11.9688 0 0 147
-36.0774 25.7377 -17.9958 0 0 178
-37.4346 24.6886 -17.8083 0 0 211
-37.1138 26.0562 -17.3561 0 0 178
-35.1846 25.4861 -18.5443 0 0 141
-36.0774 25.7377 -17.9958 0 0 141
-38.014 34.8551 -10.8254 0 0 205
-39.3969 34.2861 -11.9935 0 0 251
-38.8264 35.8945 -11.6658 0 0 205
-36.9681 33.9534 -10.0923 0 0 160
-38.014 34.8551 -10.8254 0 0 160
-35.7614 33.1218 -9.9688 0 0 208
-37.3778 32.4151 -11.0296 0 1 255
-36.9681 33.9534 -10.0923 0 0 208
-48.2321 15.195 8.67077 0 0 156
-48.6238 16.4671 10.7714 0 0 156
-50.5749 30.4349 7.27127 0 0 140
-50.8098 31.0921 6.43397 0 0 140
-50.5113 29.5322 7.88507 0 0 173
-50.5749 30.4349 7.27127 0 0 173
-51.5541 28.9362 6.91864 0 0 204
-50.37 28.2335 8.29602 0 0 146
-50.5113 29.5322 7.88507 0 0 146
-51.5761 27.1605 8.5656 0 0 209
-50.4555 27.3604 9.32919 0 0 177
-50.37 28.2335 8.29602 0 0 177
-45.5922 24.8745 6.60419 0 0 165
-47.0835 24.9983 6.36444 0 0 191
-46.2774 25.7502 5.98409 0 0 165
-44.9829 24.0129 7.2657 0 0 138
-45.5922 24.8745 6.60419 0 0 138
-45.737 23.1937 7.47091 0 0 137
-44.9829 24.0129 7.2657 0 0 137
-39.4175 33.0733 -5.13262 0 0 175
-40.8818 33.343 -5.79348 0 0 175
-40.8651 33.0118 -6.86049 0 0 206
-39.4175 33.0733 -5.13262 0 0 145
-37.8185 32.9914 -4.36552 0 0 145
-28.8019 23.243 -12.3291 0 0 143
-29.714 24.104 -12.3281 0 0 143
-27.6185 22.5909 -12.4312 0 0 174
-28.8019 23.243 -12.3291 0 0 174
-29.4869 23.1207 -13.461 0 0 204
-27.1539 21.5101 -12.3763 0 0 140
-27.6185 22.5909 -12.4312 0 0 140
-26.1797 16.0296 -12.4831 0 0 165
-26.1155 17.3017 -12.5114 0 0 165
-25.5097 17.5216 -13.4944 0 0 192
-27.0127 14.8559 -12.9821 0 0 144
-26.1797 16.0296 -12.4831 0 0 144
-27.0127 14.8559 -12.9821 0 0 135
-26.2717 14.9967 -13.5973 0 0 135
-42.3607 44.1657 -13.0505 0 0 135
-42.9719 44.2369 -12.3766 0 0 135
-42.9719 44.2369 -12.3766 0 0 138
-43.5531 42.5742 -12.4319 0 0 138
-42.0176 25.7927 -11.7004 0 0 201
-40.2955 25.9083 -11.0797 0 0 171
-40.4877 26.4788 -10.4278 0 0 171
-53.8432 17.1974 18.3788 0 0 153
-53.0529 17.2746 19.53 0 0 153
-53.4606 18.0478 19.133 0 0 174
-53.8432 17.1974 18.3788 0 0 139
-54.2128 16.9877 16.7764 0 0 139
-51.3915 15.9048 10.8508 0 0 152
-52.4364 16.2701 12.645 0 0 152
-50.5078 16.2129 11.6405 0 0 243
-50.214 15.283 9.40111 0 0 199
-51.3915 15.9048 10.8508 0 0 199
-49.3232 18.0706 12.1073 0 0 193
-48.6238 16.4671 10.7714 0 0 193
-50.0298 17.1946 11.5268 0 0 233
-48.9647 18.8909 11.5016 0 0 180
-49.3232 18.0706 12.1073 0 0 180
-50.3706 19.6184 12.257 0 0 214
-48.5328 19.8841 11.1677 0 0 146
-48.9647 18.8909 11.5016 0 0 146
-50.6447 31.5562 2.58147 0 0 178
-49.9202 32.6021 1.98022 0 0 178
-50.4723 31.9103 0.973867 0 0 211
-50.7622 31.4244 3.93174 0 0 162
-50.6447 31.5562 2.58147 0 0 162
-51.3143 30.7326 2.92539 0 0 187
-50.7169 31.4731 5.41938 0 0 141
-50.7622 31.4244 3.93174 0 0 141
-51.5247 30.2198 5.29025 0 0 198
-50.8098 31.0921 6.43397 0 0 169
-50.7169 31.4731 5.41938 0 0 169
-45.5393 26.4238 5.53085 0 0 163
-46.2774 25.7502 5.98409 0 0 163
-47.0306 26.5476 5.29109 0 0 188
-45.5393 26.4238 5.53085 0 0 138
-44.9131 27.2437 4.95909 0 0 138
-43.2939 29.0336 2.55854 0 0 163
-43.7598 28.5453 3.30058 0 0 163
-44.674 29.1278 2.16509 0 0 189
-43.2939 29.0336 2.55854 0 0 138
-42.7388 29.4967 1.9793 0 0 138
-37.8546 31.6861 -5.96937 0 0 187
-37.7349 32.5558 -5.25156 0 0 187
-39.5205 31.8723 -6.91744 0 0 225
-37.9827 30.8412 -6.41017 0 0 147
-37.8546 31.6861 -5.96937 0 0 147
-38.337 29.9147 -6.74837 0 0 185
-37.9827 30.8412 -6.41017 0 0 185
-39.9946 30.0762 -7.97344 0 0 221
-38.5506 28.9872 -7.013 0 0 151
-38.337 29.9147 -6.74837 0 0 151
-39.0292 28.2837 -7.56989 0 0 175
-38.5506 28.9872 -7.013 0 0 175
-40.8276 28.4462 -8.86853 0 0 206
-39.4801 27.7196 -8.52093 0 0 144
-39.0292 28.2837 -7.56989 0 0 144
-39.9319 27.0298 -9.33246 0 0 177
-39.4801 27.7196 -8.52093 0 0 177
-41.758 27.0529 -10.237 0 0 209
-40.4877 26.4788 -10.4278 0 0 145
-39.9319 27.0298 -9.33246 0 0 145
-38.3794 37.3198 -11.5325 0 0 198
-38.8264 35.8945 -11.6658 0 0 198
-39.7623 36.7509 -12.7006 0 0 241
-38.3794 37.3198 -11.5325 0 0 155
-37.8557 38.7654 -11.8394 0 0 155
-41.4363 43.7042 -13.334 0 0 166
-42.4681 42.7091 -13.4916 0 0 193
-42.3607 44.1657 -13.0505 0 0 166
-39.9997 42.9519 -13.0855 0 0 155
-41.4363 43.7042 -13.334 0 0 155
-40.1874 41.5488 -13.1664 0 0 153
-39.9997 42.9519 -13.0855 0 0 153
-51.3545 17.8163 20.9125 0 0 136
-51.9715 17.0899 20.9702 0 0 136
-50.5183 18.6052 20.4819 0 0 149
-49.5902 19.4483 19.4954 0 0 149
-51.8342 18.9139 19.8536 0 0 207
-51.3545 17.8163 20.9125 0 0 175
-50.5183 18.6052 20.4819 0 0 175
-48.6762 34.336 0.13891 0 0 156
-48.5508 33.3033 1.4111 0 0 156
-48.6249 35.2341 -0.897389 0 0 138
-48.5814 35.9365 -1.69145 0 0 138
-49.6964 33.8544 -0.663679 0 0 214
-48.6762 34.336 0.13891 0 0 180
-48.6249 35.2341 -0.897389 0 0 180
-44.495 37.3171 -6.42093 0 0 146
-44.8604 37.1477 -5.07352 0 0 146
-45.6728 36.8984 -7.0915 0 0 220
-44.495 37.3171 -6.42093 0 0 184
-44.2057 37.5449 -7.8154 0 0 184
-45.1529 37.4835 -9.9702 0 0 236
-44.1519 38.3237 -9.18916 0 0 195
-43.9213 38.6811 -10.6734 0 0 195
-31.6906 24.4287 -12.7968 0 0 147
-29.714 24.104 -12.3281 0 0 147
-32.4973 23.8273 -13.7668 0 0 214
-31.6906 24.4287 -12.7968 0 0 180
-33.5177 24.4831 -13.2047 0 0 180
-40.0705 25.4926 -11.9905 0 0 146
-40.2955 25.9083 -11.0797 0 0 146
-39.2211 25.1528 -12.6973 0 0 176
-40.0705 25.4926 -11.9905 0 0 176
-40.9759 24.8824 -13.059 0 0 208
-38.4339 24.7186 -13.3964 0 0 206
-37.5285 25.3289 -12.3279 0 0 175
-39.2211 25.1528 -12.6973 0 0 175
-34.959 22.8187 -18.8377 0 0 148
-35.941 23.3988 -18.3063 0 0 166
-35.4161 23.79 -18.9794 0 0 148
-33.8988 22.3103 -19.6086 0 0 148
-34.4238 21.9191 -18.9354 0 0 166
-34.959 22.8187 -18.8377 0 0 148
-32.751 21.5995 -20.2643 0 0 128
-33.8988 22.3103 -19.6086 0 0 128
-34.4176 32.4685 -9.93405 0 0 162
-35.7614 33.1218 -9.9688 0 0 162
-34.8342 31.278 -11.4116 0 0 163
-34.4176 32.4685 -9.93405 0 0 163
-35.2674 29.9699 -12.7386 0 0 212
-36.6043 30.2754 -12.2332 0 7 255
-34.8342 31.278 -11.4116 0 0 212
-35.8285 29.1729 -14.4346 0 0 164
-35.2674 29.9699 -12.7386 0 0 164
-36.3091 28.173 -15.6156 0 0 200
-37.5181 27.9673 -14.7412 0 0 245
-35.8285 29.1729 -14.4346 0 0 200
-36.8777 27.0363 -16.7329 0 0 155
-36.3091 28.173 -15.6156 0 0 155
-49.0493 14.9762 7.82773 0 0 153
-48.2321 15.195 8.67077 0 0 153
-50.9875 22.7518 17.3903 0 0 142
-50.5792 21.5939 17.892 0 0 142
-52.1806 22.6674 16.6217 0 0 211
-50.9875 22.7518 17.3903 0 0 178
-51.2285 23.7184 16.3223 0 0 178
-50.6655 26.3266 10.4092 0 0 146
-50.4555 27.3604 9.32919 0 0 146
-50.9138 25.7499 11.9781 0 0 182
-50.6655 26.3266 10.4092 0 0 182
-51.9099 25.7107 11.1677 0 0 217
-51.1957 25.1231 13.603 0 0 148
-50.9138 25.7499 11.9781 0 0 148
-52.2899 24.384 14.1452 0 0 208
-51.3274 24.373 15.0115 0 0 176
-51.1957 25.1231 13.603 0 0 176
-48.0369 20.3574 9.77988 0 0 195
-48.5328 19.8841 11.1677 0 0 195
-49.5163 20.912 10.2635 0 0 237
-47.6245 21.0477 8.75232 0 0 164
-48.4489 21.9983 8.16555 0 0 190
-47.0529 21.6607 8.04218 0 0 164
-48.0369 20.3574 9.77988 0 0 145
-47.6245 21.0477 8.75232 0 0 145
-41.4343 30.4791 0.129938 0 0 161
-41.7087 30.0053 0.82235 0 0 161
-42.7868 30.6071 -0.542328 0 0 185
-41.4343 30.4791 0.129938 0 0 142
-41.129 31.1597 -0.659218 0 0 142
-40.8946 33.4204 -4.57361 0 0 177
-42.3422 33.3589 -6.30148 0 0 210
-40.8818 33.343 -5.79348 0 0 177
-40.9726 33.0968 -3.53239 0 0 142
-40.8946 33.4204 -4.57361 0 0 142
-40.9804 32.6018 -2.50028 0 0 172
-42.3629 32.9414 -4.04951 0 0 202
-40.9726 33.0968 -3.53239 0 0 172
-41.0582 31.8425 -1.55055 0 0 145
-40.9804 32.6018 -2.50028 0 0 145
-26.2241 20.6727 -12.394 0 0 167
-27.1539 21.5101 -12.3763 0 0 167
-27.3738 21.6312 -13.5809 0 0 195
-26.1648 19.5132 -12.3678 0 0 162
-25.9447 19.7938 -13.5607 0 0 187
-25.6655 18.5132 -12.3298 0 0 162
-26.2241 20.6727 -12.394 0 0 138
-26.1648 19.5132 -12.3678 0 0 138
-27.2529 17.431 -20.1859 0 0 150
-28.173 18.3068 -20.0541 0 0 150
-26.1661 17.146 -18.587 0 0 225
-27.2529 17.431 -20.1859 0 0 188
-26.5349 16.4071 -20.0218 0 0 188
-25.2876 14.848 -17.8989 0 0 149
-25.7583 15.4574 -19.6788 0 0 149
-25.6225 14.9502 -16.8808 0 0 139
-25.2876 14.848 -17.8989 0 0 139
-25.4272 15.1567 -15.5695 0 0 183
-25.2527 16.3284 -17.1117 0 0 218
-25.6225 14.9502 -16.8808 0 0 183
-26.0135 15.1394 -14.7644 0 0 137
-25.4272 15.1567 -15.5695 0 0 137
3 0 40 38
3 1 43 41
3 1 45 43
3 2 48 46
3 2 50 48
3 2 52 50
3 0 55 53
3 0 38 55
3 3 60 58
3 150 62 151
3 3 152 154
3 152 64 153
3 152 153 154
3 3 58 64
3 6 68 66
3 6 155 157
3 157 156 68
3 155 156 157
3 7 72 71
3 7 74 72
3 7 76 74
3 4 80 78
3 159 158 81
3 5 83 82
3 8 86 84
3 8 160 162
3 162 161 86
3 160 161 162
3 9 89 87
3 11 90 39
3 11 91 90
3 12 163 164
3 13 165 167
3 167 166 42
3 165 166 167
3 13 168 169
3 13 170 172
3 170 92 171
3 170 171 172
3 15 93 44
3 15 94 93
3 16 173 174
3 17 95 47
3 17 96 95
3 17 98 96
3 19 99 49
3 19 175 177
3 177 176 99
3 175 176 177
3 19 178 179
3 20 180 182
3 182 181 51
3 180 181 182
3 20 183 184
3 21 102 100
3 23 103 54
3 23 104 103
3 23 105 104
3 9 106 56
3 9 87 106
3 24 109 107
3 185 110 186
3 187 186 57
3 185 186 187
3 188 111 189
3 190 189 110
3 188 189 190
3 26 114 112
3 191 115 192
3 193 192 59
3 191 192 193
3 195 194 115
3 196 116 197
3 198 117 199
3 200 199 116
3 198 199 200
3 28 201 203
3 201 118 202
3 201 202 203
3 28 119 118
3 28 121 119
3 30 122 61
3 30 123 122
3 204 124 205
3 31 125 63
3 31 126 125
3 31 127 126
3 26 128 65
3 26 112 128
3 32 206 207
3 32 208 210
3 208 129 209
3 208 209 210
3 10 130 88
3 33 131 67
3 33 132 131
3 33 133 132
3 212 211 69
3 27 134 113
3 34 135 70
3 34 136 135
3 14 213 214
3 215 137 216
3 35 138 73
3 35 139 138
3 35 140 139
3 36 141 75
3 36 142 141
3 18 143 97
3 217 144 218
3 219 218 77
3 217 218 219
3 221 220 144
3 29 145 120
3 37 146 79
3 37 222 224
3 224 223 146
3 222 223 224
3 22 147 101
3 25 148 108
3 226 225 85
3 227 149 228
3 38 39 9
3 40 39 38
3 40 11 39
3 41 42 12
3 43 42 41
3 43 13 42
3 43 44 13
3 45 44 43
3 45 15 44
3 46 47 16
3 48 47 46
3 48 17 47
3 48 49 17
3 50 49 48
3 50 19 49
3 50 51 19
3 52 51 50
3 52 20 51
3 53 54 21
3 55 54 53
3 55 23 54
3 55 56 23
3 38 56 55
3 38 9 56
3 229 57 230
3 231 230 24
3 229 230 231
3 232 57 233
3 235 234 57
3 58 59 26
3 60 59 58
3 60 236 238
3 238 237 59
3 236 237 238
3 239 28 240
3 241 61 242
3 243 242 28
3 241 242 243
3 62 244 246
3 244 61 245
3 244 245 246
3 62 30 61
3 247 63 248
3 64 249 251
3 249 63 250
3 249 250 251
3 64 31 63
3 64 65 31
3 58 65 64
3 58 26 65
3 252 32 253
3 66 67 10
3 68 67 66
3 68 33 67
3 68 69 33
3 254 69 255
3 256 255 68
3 254 255 256
3 258 257 69
3 259 70 260
3 261 260 27
3 259 260 261
3 262 70 263
3 264 34 265
3 266 265 70
3 264 265 266
3 268 267 14
3 71 269 270
3 72 271 273
3 273 272 71
3 271 272 273
3 72 274 275
3 72 276 278
3 276 73 277
3 276 277 278
3 74 73 72
3 74 35 73
3 74 75 35
3 76 75 74
3 76 36 75
3 279 77 280
3 281 280 18
3 279 280 281
3 282 77 283
3 285 284 77
3 78 79 29
3 80 79 78
3 80 37 79
3 81 286 288
3 288 287 22
3 286 287 288
3 290 289 81
3 82 291 292
3 83 293 295
3 295 294 82
3 293 294 295
3 83 296 297
3 84 85 25
3 86 85 84
3 86 298 300
3 300 299 85
3 298 299 300
3 86 301 302
3 304 303 86
3 306 305 3
3 307 3 308
3 87 309 311
3 309 88 310
3 309 310 311
3 89 88 87
3 89 10 88
3 39 89 9
3 90 89 39
3 90 10 89
3 90 66 10
3 91 66 90
3 91 6 66
3 42 312 314
3 314 313 12
3 312 313 314
3 316 315 42
3 92 317 318
3 92 319 321
3 319 14 320
3 319 320 321
3 44 92 13
3 93 92 44
3 93 14 92
3 93 322 324
3 324 323 14
3 322 323 324
3 94 325 327
3 327 326 93
3 325 326 327
3 94 328 329
3 47 330 332
3 332 331 16
3 330 331 332
3 95 333 335
3 335 334 47
3 333 334 335
3 95 336 337
3 95 338 340
3 338 71 339
3 338 339 340
3 96 71 95
3 96 7 71
3 96 97 7
3 98 97 96
3 98 18 97
3 49 98 17
3 99 98 49
3 99 18 98
3 99 341 343
3 343 342 18
3 341 342 343
3 345 344 99
3 51 346 348
3 348 347 19
3 346 347 348
3 350 349 51
3 100 101 4
3 102 101 100
3 102 22 101
3 54 102 21
3 103 102 54
3 103 22 102
3 103 81 22
3 104 81 103
3 104 351 353
3 353 352 81
3 351 352 353
3 104 354 355
3 105 356 358
3 358 357 104
3 356 357 358
3 105 359 360
3 56 105 23
3 106 105 56
3 106 361 363
3 363 362 105
3 361 362 363
3 106 364 365
3 87 366 368
3 368 367 106
3 366 367 368
3 87 369 370
3 107 108 5
3 109 108 107
3 109 25 108
3 57 109 24
3 110 109 57
3 110 25 109
3 110 84 25
3 111 84 110
3 111 8 84
3 112 113 0
3 114 113 112
3 114 27 113
3 59 114 26
3 115 114 59
3 115 27 114
3 115 371 373
3 373 372 27
3 371 372 373
3 375 374 115
3 376 60 377
3 378 377 3
3 376 377 378
3 379 60 380
3 382 381 60
3 383 12 384
3 116 385 386
3 116 387 389
3 387 12 388
3 387 388 389
3 116 41 12
3 117 41 116
3 117 1 41
3 390 16 391
3 118 392 393
3 118 394 396
3 394 16 395
3 394 395 396
3 118 46 16
3 119 46 118
3 119 2 46
3 119 120 2
3 121 120 119
3 121 29 120
3 61 121 28
3 122 121 61
3 122 29 121
3 122 78 29
3 123 78 122
3 123 4 78
3 397 62 398
3 124 399 401
3 399 62 400
3 399 400 401
3 124 30 62
3 63 402 404
3 402 124 403
3 402 403 404
3 125 124 63
3 125 30 124
3 125 123 30
3 126 123 125
3 126 4 123
3 126 100 4
3 127 100 126
3 127 21 100
3 65 127 31
3 128 127 65
3 128 21 127
3 128 53 21
3 112 53 128
3 112 0 53
3 405 82 406
3 129 407 409
3 407 82 408
3 407 408 409
3 129 5 82
3 88 410 411
3 130 412 414
3 414 413 88
3 412 413 414
3 130 415 417
3 415 32 416
3 415 416 417
3 67 130 10
3 131 130 67
3 131 32 130
3 131 129 32
3 132 129 131
3 132 5 129
3 132 107 5
3 133 107 132
3 133 24 107
3 69 133 33
3 418 133 419
3 420 419 69
3 418 419 420
3 421 24 422
3 423 422 133
3 421 422 423
3 425 424 24
3 113 40 0
3 134 40 113
3 134 11 40
3 70 134 27
3 135 134 70
3 135 11 134
3 135 91 11
3 136 91 135
3 136 6 91
3 426 34 427
3 428 34 429
3 430 136 431
3 432 431 34
3 430 431 432
3 433 136 434
3 435 6 436
3 437 436 136
3 435 436 437
3 439 438 6
3 441 440 14
3 442 117 443
3 137 444 446
3 444 117 445
3 444 445 446
3 137 1 117
3 73 447 448
3 138 449 451
3 451 450 73
3 449 450 451
3 138 452 453
3 138 454 456
3 454 137 455
3 454 455 456
3 139 137 138
3 139 1 137
3 139 45 1
3 140 45 139
3 140 15 45
3 75 140 35
3 141 140 75
3 141 15 140
3 141 94 15
3 142 94 141
3 142 457 459
3 459 458 94
3 457 458 459
3 97 76 7
3 143 76 97
3 143 36 76
3 77 143 18
3 144 143 77
3 144 36 143
3 144 142 36
3 460 142 461
3 462 461 144
3 460 461 462
3 464 463 142
3 120 52 2
3 145 52 120
3 145 20 52
3 79 145 29
3 146 145 79
3 146 20 145
3 146 465 467
3 467 466 20
3 465 466 467
3 469 468 146
3 101 80 4
3 147 80 101
3 147 37 80
3 470 147 471
3 472 471 22
3 470 471 472
3 473 147 474
3 475 37 476
3 477 476 147
3 475 476 477
3 479 478 37
3 108 83 5
3 148 83 108
3 148 480 482
3 482 481 83
3 480 481 482
3 85 148 25
3 483 148 484
3 485 484 85
3 483 484 485
3 487 486 148
3 488 111 489
3 149 490 492
3 490 111 491
3 490 491 492
3 149 8 111
3 493 149 494
3 495 149 496
3 497 8 498
3 499 498 149
3 497 498 499
3 501 500 8
