ply
format ascii 1.0
element vertex 509
property float x
property float y
property float z
property uchar red
property uchar green
property uchar blue
element face 543
property list uchar int vertex_index
end_header
-11.6681 53.8933 1.2929 158 0 0
-14.5657 60.7979 12.0849 131 255 124
-5.98332 35.8189 -8.3644 126 255 129
-7.05984 39.154 12.2906 225 0 0
-12.3848 43.3645 -3.10462 203 255 52
-6.48569 39.8483 0.621262 255 201 0
-11.4765 44.3836 5.05833 249 255 6
-6.53476 51.1704 -9.18637 197 255 58
-8.71675 63.2388 7.64406 234 255 21
-16.9137 61.9542 2.82073 174 255 81
-13.4494 47.9819 -0.974671 255 159 0
-10.7084 44.8013 1.12505 73 255 182
-12.3179 48.3713 4.13023 255 227 0
-8.02582 58.6881 -0.910786 240 255 15
-9.3904 52.1497 -4.15283 255 23 0
-12.3691 47.6886 -6.67883 213 0 0
-11.215 65.3328 11.5392 185 255 70
-8.43215 63.292 15.0536 0 207 255
-21.919 60.4133 11.7442 198 0 0
-21.3114 60.3882 6.71279 255 56 0
-16.4005 63.316 8.5526 255 167 0
-10.7745 64.6744 5.97291 157 255 98
-5.65083 30.2472 -7.88216 0 18 255
-5.3585 40.0366 6.31923 255 115 0
-6.35441 35.0434 10.147 100 255 155
-5.95783 29.7573 13.2223 0 86 255
-5.42885 34.4064 15.7118 61 255 194
-10.0954 36.6277 -9.36347 0 205 255
-8.93064 40.0819 -5.46242 255 248 0
-5.2442 38.6466 -4.27761 255 185 0
-7.30894 42.8776 -1.94174 75 255 180
-9.02502 42.0987 2.40957 94 255 161
-11.5551 40.0375 7.26792 255 103 0
-8.16212 46.0034 -11.4486 104 255 151
-12.2175 41.6898 -8.38141 255 157 0
-8.86502 58.8534 4.12533 255 136 0
-10.3656 54.2373 7.69088 255 40 0
-8.81906 58.7943 10.7029 160 255 95
-7.32243 63.6956 2.32129 0 217 255
-9.02814 49.2685 8.28594 50 255 205
-13.5935 44.9369 10.4321 175 255 80
-13.9902 39.1406 13.1402 249 0 0
-14.1135 37.4312 19.5382 255 24 0
-10.0256 34.9577 17.0028 211 255 44
-12.6917 50.8629 0.336369 255 37 0
-13.669 48.18 1.88754 255 207 0
-13.025 51.0216 3.09388 254 0 0
-9.27119 56.0764 -0.063248 248 0 0
-8.03331 55.1235 -2.55146 205 0 0
-10.5295 52.5764 -1.39692 189 0 0
-11.8159 49.9312 -2.71984 255 54 0
-13.1192 63.8448 12.3789 187 255 68
-11.0666 64.3446 14.6115 0 170 255
-18.1397 59.6928 10.8103 255 96 0
-19.375 62.2888 9.8556 255 77 0
-15.8704 62.7584 10.259 255 83 0
-13.6373 64.7435 10.0132 255 223 0
-5.43599 33.186 -8.42226 0 122 255
-5.702 34.27 -6.5845 0 236 255
-6.0499 39.9147 9.49701 255 80 0
-5.30726 37.6909 8.36852 170 255 85
-5.0306 37.7503 11.4081 255 112 0
-5.9303 34.8923 12.9697 255 128 0
-5.1768 37.2797 14.46 255 87 0
-8.06922 36.1042 -8.74953 2 255 253
-7.032 33.6607 -9.6758 0 110 255
-10.6691 41.6574 -4.11094 219 255 36
-7.91941 41.9419 -3.89529 192 255 63
-9.64392 42.9071 -2.24067 127 255 128
-9.82865 45.0026 3.04968 98 255 157
-8.74607 43.9984 1.64919 34 255 221
-10.6692 42.7534 3.53419 112 255 143
-10.554 40.6668 4.63154 233 255 22
-12.3642 42.0503 5.67882 255 230 0
-6.52538 54.7761 -7.62576 114 255 141
-7.21106 48.4943 -10.3888 102 255 153
-13.5717 45.0351 -4.77517 255 195 0
-12.7666 44.6922 -7.68942 250 0 0
-12.9591 42.3619 -5.50348 255 191 0
-11.2883 40.0236 -6.21868 255 253 0
-8.23417 61.0928 5.80736 255 201 0
-9.3759 59.1613 7.40038 255 157 0
-9.4007 61.1196 9.11648 255 138 0
-19.6081 62.1129 4.78244 255 113 0
-21.4394 59.8946 4.06204 97 255 158
-19.7553 61.8758 2.04761 0 254 255
-9.05378 65.0225 6.9591 100 255 155
-8.72207 64.6057 4.15552 0 175 255
-7.64507 63.6832 5.16089 167 255 88
-7.19317 61.2577 3.32534 255 210 0
-5.79578 39.8153 -1.85679 255 161 0
-7.02436 36.3179 -2.15778 125 255 130
-6.88225 36.5946 0.168381 118 255 137
-8.68371 54.1198 10.0127 68 255 187
-9.05524 51.3952 7.62467 169 255 86
-14.5505 41.9208 11.5411 255 236 0
-14.7461 41.4352 14.9229 182 255 73
-13.1777 36.4037 22.8284 169 255 86
-13.64 34.3711 20.8272 27 255 228
-13.127 35.5014 17.7389 255 247 0
-13.3348 45.4804 -2.15365 225 255 30
-11.3764 44.0542 -0.857369 139 255 116
-13.0411 45.7186 0.465335 204 255 51
-11.9996 46.3161 2.6209 154 255 101
-10.1579 46.8409 4.36393 197 255 58
-7.37243 58.6737 -3.68136 102 255 153
-7.52548 55.0859 -5.13662 255 230 0
-8.23738 52.0223 -6.63906 255 17 0
-9.03232 49.5669 -8.22921 241 0 0
-11.1439 50.1842 -5.53502 255 33 0
-13.0862 47.5908 -3.9066 255 158 0
-9.6757 64.7584 9.76014 136 255 119
-9.56988 63.0467 11.2887 255 196 0
-9.77762 64.6244 13.1904 8 255 247
-24.7036 58.4405 11.1128 219 255 36
-22.8307 57.684 8.63319 255 245 0
-22.5487 61.2125 9.29097 255 18 0
-19.3799 62.0531 7.6387 255 123 0
-16.4039 62.0787 5.92124 210 0 0
-13.377 62.3771 4.44251 255 247 0
-13.4689 64.072 7.53956 255 23 0
-11.0883 65.5441 8.75017 216 255 39
-5.94855 39.6235 3.20779 255 233 0
-5.88624 37.1105 2.76941 64 255 191
-5.4873 37.5864 5.57117 45 255 210
-6.61792 32.3164 11.5615 16 255 239
-6.57119 31.9914 14.0298 32 255 223
-11.2362 38.1268 -11.1071 0 199 255
-23.4555 58.4004 14.0132 45 255 210
-20.4044 58.3349 13.6591 111 255 144
-7.20067 38.0991 -7.14367 204 255 51
-5.12534 37.2216 -6.70281 236 255 19
-5.93835 40.135 -5.6384 250 255 5
-5.58745 41.6563 -3.44182 166 255 89
-5.47279 42.3681 -0.958047 143 255 112
-9.14242 43.7509 -0.442006 45 255 210
-7.1009 43.3505 0.335938 42 255 213
-6.97718 41.8309 1.55178 145 255 110
-8.07306 40.3989 3.97659 255 214 0
-8.49929 39.8198 6.89569 255 52 0
-9.32972 39.4283 9.74288 213 0 0
-9.13098 43.2462 -12.4322 33 255 222
-9.94564 46.9217 -9.43645 223 0 0
-10.9351 44.0198 -10.2264 255 47 0
-11.3827 41.0348 -10.695 156 255 99
-11.3303 38.9887 -8.66949 225 255 30
-9.43502 38.1459 -7.4543 181 255 74
-10.4285 56.6861 2.78726 255 9 0
-11.8398 54.4508 4.82591 145 0 0
-10.51 56.9581 6.25517 255 62 0
-9.07828 56.6403 9.00897 255 197 0
-8.97482 56.4905 11.6068 0 204 255
-9.1123 60.9262 13.0149 128 255 127
-20.9932 57.0283 5.80935 81 255 174
-7.24498 61.4887 0.737038 53 255 202
-8.30329 58.6503 1.57609 255 153 0
-6.49525 35.5033 -4.45198 90 255 165
-11.5017 51.1177 5.80351 255 36 0
-10.0505 49.096 5.94454 231 255 24
-10.7187 46.9383 6.77918 255 163 0
-11.7071 47.5879 9.58869 173 255 82
-12.9001 44.7378 7.59617 255 60 0
-13.7526 41.964 8.46575 255 63 0
-12.8594 39.7068 10.1889 255 11 0
-10.8987 38.3929 12.4549 137 0 0
-11.4051 38.2371 24.2947 0 213 255
-13.0408 39.5037 21.3645 184 255 71
-14.2691 40.5155 18.2353 177 255 78
-14.4746 38.2741 16.3582 255 7 0
-12.0306 36.8592 15.0308 184 0 0
-8.32544 37.1591 14.8924 128 0 0
-6.63463 35.594 17.1354 128 255 127
-13.5795 61.2429 13.5237 0 0 196
-12.8562 62.7664 13.6707 0 0 196
-13.8424 62.3214 12.2319 0 0 239
-7.37433 53.1604 -9.82981 0 0 215
-7.36964 54.9632 -9.04951 0 0 215
-6.53007 52.9733 -8.40606 0 13 255
-7.7033 51.1094 -10.5817 0 0 171
-7.37433 53.1604 -9.82981 0 0 171
-6.87291 49.8323 -9.78758 0 0 229
-8.04145 49.7714 -11.1829 0 0 190
-7.7033 51.1094 -10.5817 0 0 190
-16.858 62.1955 1.34282 0 0 181
-18.2788 62.1563 0.956256 0 0 181
-18.3345 61.915 2.43417 0 0 217
-15.3775 62.1253 1.84457 0 0 147
-16.858 62.1955 1.34282 0 0 147
-8.2456 52.9655 10.3408 0 0 142
-9.03663 53.9681 11.5425 0 0 142
-14.0025 42.5523 15.8704 0 0 151
-14.1635 42.9812 14.2441 0 0 151
-13.2953 33.0512 21.4426 0 0 143
-13.5296 33.9745 22.4631 0 0 143
-12.6501 33.672 20.0889 0 0 142
-13.2953 33.0512 21.4426 0 0 142
-7.69913 58.6809 -2.29608 0 0 238
-7.29028 60.4708 -3.00201 0 0 195
-7.61697 60.478 -1.61672 0 0 195
-10.0692 64.203 15.5488 0 0 136
-10.8396 63.4446 15.9388 0 0 136
-5.78509 29.1262 -6.40795 0 0 138
-5.953 28.6931 -7.32686 0 0 138
-6.3194 35.0144 8.81232 0 0 173
-5.79582 36.3382 7.92308 0 0 173
-5.83083 36.3671 9.25776 0 0 205
-6.02947 33.8674 9.81367 0 0 137
-6.3194 35.0144 8.81232 0 0 137
-6.48616 33.6799 10.8543 0 0 181
-6.16122 32.5039 10.5209 0 0 157
-6.02947 33.8674 9.81367 0 0 157
-5.5841 32.9019 16.1171 0 0 173
-6.15527 31.6944 15.2761 0 0 173
-6.00002 33.1989 14.8708 0 0 205
-10.3227 35.9291 -10.4231 0 0 162
-10.8931 36.6786 -11.2949 0 0 162
-10.6658 37.3772 -10.2353 0 0 188
-5.66531 29.2057 -8.61041 0 0 133
-5.82099 30.6578 -8.92614 0 0 133
-5.953 28.6931 -7.32686 0 0 139
-5.66531 29.2057 -8.61041 0 0 139
-23.5415 56.8099 14.9823 0 0 145
-23.9247 57.0784 13.6001 0 0 145
-19.9758 57.9435 15.2312 0 0 149
-21.4564 57.9571 15.1152 0 0 149
-18.5993 58.0608 13.595 0 0 159
-19.9758 57.9435 15.2312 0 0 159
-7.59236 45.5789 -12.7127 0 0 138
-7.97126 46.9764 -12.2408 0 0 138
-8.64655 44.6248 -11.9404 0 0 211
-8.0768 44.2003 -13.2045 0 0 177
-7.59236 45.5789 -12.7127 0 0 177
-21.7811 58.0884 3.79445 0 0 147
-21.338 59.4102 2.78965 0 0 147
-10.8347 64.0289 4.32974 0 0 197
-12.1359 62.8802 3.56454 0 0 197
-12.0757 63.5258 5.20771 0 0 241
-8.18887 63.9759 1.59396 0 0 158
-8.88869 64.431 2.51107 0 0 158
-8.02225 64.1506 3.23841 0 0 182
-7.42302 63.8973 0.8444 0 0 130
-8.18887 63.9759 1.59396 0 0 130
-7.2837 62.5921 1.52917 0 0 199
-7.38429 62.7939 0.052272 0 0 169
-7.42302 63.8973 0.8444 0 0 169
-6.49609 34.6976 -2.02327 0 0 142
-6.2634 35.1108 -0.976174 0 0 142
-5.59889 35.7516 2.63139 0 0 138
-5.8746 35.9336 3.85755 0 0 138
-4.71729 28.8265 13.3146 0 0 139
-5.2994 30.1528 12.3464 0 0 139
-12.6503 46.2624 10.0104 0 0 222
-11.8435 47.5094 11.0139 0 0 185
-12.7867 46.1839 11.4356 0 0 185
-11.7594 36.773 25.1453 0 0 151
-10.5266 37.4842 25.7592 0 0 151
-11.8299 63.0163 14.787 0 0 182
-12.0929 64.0947 13.4952 0 0 218
-12.8562 62.7664 13.6707 0 0 182
-10.8396 63.4446 15.9388 0 0 146
-11.8299 63.0163 14.787 0 0 146
-5.81272 32.2086 -7.17439 0 0 164
-5.92014 30.7392 -6.90433 0 0 164
-5.54341 31.7166 -8.15221 0 0 191
-5.94572 32.7506 -6.2555 0 0 164
-5.81272 32.2086 -7.17439 0 0 164
-5.569 33.728 -7.50338 0 0 190
-6.08864 33.2129 -5.23485 0 0 139
-5.94572 32.7506 -6.2555 0 0 139
-8.42562 35.2152 -9.49488 0 0 152
-9.43872 35.477 -9.80185 0 0 152
-9.08232 36.3659 -9.0565 0 0 173
-7.90701 33.9935 -9.95801 0 0 148
-8.42562 35.2152 -9.49488 0 0 148
-7.55061 34.8824 -9.21266 0 0 168
-7.21834 32.7164 -10.3128 0 0 129
-7.90701 33.9935 -9.95801 0 0 129
-6.51158 32.3645 -9.82296 0 0 128
-7.21834 32.7164 -10.3128 0 0 128
-5.71357 32.1271 -9.19619 0 0 154
-6.51158 32.3645 -9.82296 0 0 154
-6.234 33.4233 -9.04903 0 0 176
-5.54341 31.7166 -8.15221 0 0 183
-5.82099 30.6578 -8.92614 0 0 158
-5.71357 32.1271 -9.19619 0 0 158
-6.54848 56.7262 -8.70876 0 0 164
-6.9024 56.7509 -7.0998 0 0 164
-6.54848 56.7262 -8.70876 0 0 163
-7.36964 54.9632 -9.04951 0 0 163
-7.49574 48.2218 -11.7108 0 0 146
-8.04145 49.7714 -11.1829 0 0 146
-7.68659 47.2488 -10.9187 0 0 189
-7.97126 46.9764 -12.2408 0 0 163
-7.49574 48.2218 -11.7108 0 0 163
-7.87482 62.1217 15.6082 0 0 136
-8.08095 62.9373 16.4775 0 0 136
-20.4959 60.4008 1.78243 0 0 178
-21.338 59.4102 2.78965 0 0 178
-20.5974 60.8852 3.05482 0 0 212
-19.4155 61.429 0.621006 0 0 150
-20.4959 60.4008 1.78243 0 0 150
-19.4155 61.429 0.621006 0 0 144
-18.2788 62.1563 0.956256 0 0 144
-6.19235 35.2491 0.186907 0 0 169
-6.2634 35.1108 -0.976174 0 0 169
-6.95331 36.4562 -0.9947 0 0 198
-5.50708 28.3947 14.1118 0 0 135
-6.3678 29.4315 14.2188 0 0 135
-8.43137 51.6033 9.14685 0 0 178
-8.86948 52.7575 8.81867 0 0 212
-8.2456 52.9655 10.3408 0 0 178
-8.41782 50.5399 9.47748 0 0 170
-9.04169 50.3319 7.9553 0 0 201
-8.43137 51.6033 9.14685 0 0 170
-13.5872 44.732 11.9987 0 0 151
-12.7867 46.1839 11.4356 0 0 151
-14.0657 43.224 12.5532 0 0 189
-14.072 43.4288 10.9866 0 0 228
-13.5872 44.732 11.9987 0 0 189
-14.6483 41.678 13.232 0 0 240
-14.0657 43.224 12.5532 0 0 197
-14.1635 42.9812 14.2441 0 0 197
-13.2984 34.9908 23.4637 0 0 145
-12.6457 35.8563 24.4122 0 0 145
-13.4088 35.3874 21.8278 0 0 214
-13.2984 34.9908 23.4637 0 0 179
-13.5296 33.9745 22.4631 0 0 179
-12.3937 34.2372 18.5448 0 0 181
-13.3835 34.9362 19.283 0 0 216
-12.6501 33.672 20.0889 0 0 181
-10.8429 33.9653 18.1767 0 0 190
-11.5763 35.2295 17.3708 0 0 230
-12.3937 34.2372 18.5448 0 0 190
-9.33843 34.17 18.045 0 0 145
-10.8429 33.9653 18.1767 0 0 145
-6.91695 60.4435 -4.54828 0 0 157
-7.29028 60.4708 -3.00201 0 0 157
-7.32593 58.6997 -5.1276 0 0 153
-6.91695 60.4435 -4.54828 0 0 153
-7.40245 56.9058 -5.85523 0 0 197
-7.32593 58.6997 -5.1276 0 0 197
-7.44896 56.8798 -4.40899 0 0 240
-7.02543 54.931 -6.38119 0 0 237
-6.9024 56.7509 -7.0998 0 0 195
-7.40245 56.9058 -5.85523 0 0 195
-9.42465 64.343 14.8383 0 0 154
-10.4221 64.4845 13.9009 0 0 176
-10.0692 64.203 15.5488 0 0 154
-8.75192 63.6768 15.7699 0 0 148
-9.10488 63.9582 14.122 0 0 167
-9.42465 64.343 14.8383 0 0 148
-8.08095 62.9373 16.4775 0 0 128
-8.75192 63.6768 15.7699 0 0 128
-23.7671 58.0622 9.87302 0 0 247
-23.4434 56.1189 9.26543 0 0 202
-24.3798 56.4972 10.5053 0 0 202
-5.78509 29.1262 -6.40795 0 0 141
-5.92014 30.7392 -6.90433 0 0 141
-5.67513 36.1716 5.25843 0 0 174
-5.8746 35.9336 3.85755 0 0 174
-5.68677 37.3485 4.17029 0 0 206
-5.88584 36.2859 6.5244 0 0 175
-5.39728 37.6387 6.96985 0 0 208
-5.79582 36.3382 7.92308 0 0 175
-5.67513 36.1716 5.25843 0 0 140
-5.88584 36.2859 6.5244 0 0 140
-5.62944 31.4323 11.516 0 0 135
-6.16122 32.5039 10.5209 0 0 135
-6.28787 31.0369 12.3919 0 0 185
-5.2994 30.1528 12.3464 0 0 160
-5.62944 31.4323 11.516 0 0 160
-6.67448 30.5486 14.6225 0 0 155
-6.3678 29.4315 14.2188 0 0 155
-6.26451 30.8744 13.626 0 0 178
-6.67448 30.5486 14.6225 0 0 139
-6.15527 31.6944 15.2761 0 0 139
-10.5345 37.6942 -12.4652 0 0 147
-10.4253 39.2121 -12.0967 0 0 147
-10.5345 37.6942 -12.4652 0 0 145
-10.8931 36.6786 -11.2949 0 0 145
-10.3227 35.9291 -10.4231 0 0 133
-9.43872 35.477 -9.80185 0 0 133
-14.4229 59.5847 13.7246 0 0 159
-15.6799 59.2923 12.8078 0 0 159
-24.5487 57.0984 12.1499 0 0 157
-24.3798 56.4972 10.5053 0 0 157
-24.0795 58.4204 12.563 0 0 216
-24.5487 57.0984 12.1499 0 0 181
-23.9247 57.0784 13.6001 0 0 181
-22.982 57.9898 15.2922 0 0 141
-23.5415 56.8099 14.9823 0 0 141
-21.9299 58.3676 13.8362 0 0 216
-22.982 57.9898 15.2922 0 0 180
-21.4564 57.9571 15.1152 0 0 180
-17.4669 58.7398 12.1705 0 0 208
-19.272 59.0138 12.2347 0 2 255
-18.5993 58.0608 13.595 0 0 208
-15.6799 59.2923 12.8078 0 0 215
-16.3527 60.2453 11.4476 0 13 255
-17.4669 58.7398 12.1705 0 0 215
-8.09454 42.8258 -13.6318 0 0 145
-8.0768 44.2003 -13.2045 0 0 145
-9.37265 41.7718 -12.7593 0 0 149
-8.09454 42.8258 -13.6318 0 0 149
-10.4985 40.6661 -11.8907 0 0 184
-9.37265 41.7718 -12.7593 0 0 184
-10.2568 42.1405 -11.5636 0 0 221
-11.3095 39.5808 -10.901 0 0 214
-10.4253 39.2121 -12.0967 0 0 179
-10.4985 40.6661 -11.8907 0 0 179
-9.18219 55.1535 12.3396 0 0 176
-9.03663 53.9681 11.5425 0 0 176
-8.82926 55.3051 10.8098 0 0 209
-8.21489 60.9388 14.5888 0 0 182
-8.77223 62.1091 14.0343 0 0 217
-7.87482 62.1217 15.6082 0 0 182
-8.77566 59.8276 13.5436 0 0 143
-8.21489 60.9388 14.5888 0 0 143
-8.62904 58.7617 12.3877 0 0 173
-8.96568 59.8602 11.8589 0 0 204
-8.77566 59.8276 13.5436 0 0 173
-8.70692 57.6098 12.8396 0 0 175
-8.89694 57.6424 11.1549 0 0 207
-8.62904 58.7617 12.3877 0 0 175
-9.08391 56.3355 13.4732 0 0 149
-8.70692 57.6098 12.8396 0 0 149
-9.18219 55.1535 12.3396 0 0 150
-9.08391 56.3355 13.4732 0 0 150
-13.5795 61.2429 13.5237 0 0 161
-14.4229 59.5847 13.7246 0 0 161
-22.5332 55.7296 7.93987 0 0 157
-23.4434 56.1189 9.26543 0 0 157
-21.6145 55.4018 6.52796 0 0 211
-22.5332 55.7296 7.93987 0 0 211
-21.9119 57.3561 7.22127 0 7 255
-21.3056 55.1243 5.30864 0 0 149
-21.6145 55.4018 6.52796 0 0 149
-21.558 56.6552 4.66811 0 0 182
-21.2163 58.4615 4.93569 0 0 218
-21.7811 58.0884 3.79445 0 0 182
-21.3056 55.1243 5.30864 0 0 146
-21.558 56.6552 4.66811 0 0 146
-13.6091 62.3367 2.65546 0 0 209
-15.3775 62.1253 1.84457 0 0 209
-15.1453 62.1656 3.63162 0 4 255
-13.6091 62.3367 2.65546 0 0 153
-12.1359 62.8802 3.56454 0 0 153
-9.80847 63.9945 3.42104 0 0 174
-10.8347 64.0289 4.32974 0 0 174
-9.74828 64.64 5.06421 0 0 206
-9.80847 63.9945 3.42104 0 0 141
-8.88869 64.431 2.51107 0 0 141
-7.22655 61.8782 -0.79281 0 0 139
-7.38429 62.7939 0.052272 0 0 139
-7.6354 60.0884 -0.086874 0 0 236
-7.61697 60.478 -1.61672 0 0 194
-7.22655 61.8782 -0.79281 0 0 194
-6.48527 33.8295 -4.16859 0 0 178
-6.08864 33.2129 -5.23485 0 0 178
-6.09862 34.8866 -5.51824 0 0 213
-6.23153 34.2903 -3.17037 0 0 177
-6.7598 35.9106 -3.30488 0 0 211
-6.49609 34.6976 -2.02327 0 0 177
-6.48527 33.8295 -4.16859 0 0 141
-6.23153 34.2903 -3.17037 0 0 141
-6.09689 35.4937 1.33087 0 0 174
-6.38425 36.8525 1.46889 0 0 206
-5.59889 35.7516 2.63139 0 0 174
-6.19235 35.2491 0.186907 0 0 139
-6.09689 35.4937 1.33087 0 0 139
-4.71729 28.8265 13.3146 0 0 140
-5.50708 28.3947 14.1118 0 0 140
-9.28681 49.4539 9.83419 0 0 146
-8.41782 50.5399 9.47748 0 0 146
-10.6263 48.6136 10.4856 0 0 147
-11.8435 47.5094 11.0139 0 0 147
-10.3676 48.4282 8.93731 0 0 230
-9.28681 49.4539 9.83419 0 0 190
-10.6263 48.6136 10.4856 0 0 190
-10.079 38.9703 24.8464 0 0 154
-10.5266 37.4842 25.7592 0 0 154
-11.1658 39.7134 23.6711 0 0 149
-10.079 38.9703 24.8464 0 0 149
-12.2914 37.3204 23.5616 0 0 225
-11.7594 36.773 25.1453 0 0 187
-12.6457 35.8563 24.4122 0 0 187
-11.9836 40.3467 22.206 0 0 189
-11.1658 39.7134 23.6711 0 0 189
-12.2229 38.8704 22.8296 0 0 229
-12.7548 41.0309 20.7352 0 0 150
-11.9836 40.3467 22.206 0 0 150
-13.3689 41.5368 19.1706 0 0 192
-12.7548 41.0309 20.7352 0 0 192
-13.655 40.0096 19.7999 0 0 233
-13.764 42.0924 17.5266 0 0 153
-13.3689 41.5368 19.1706 0 0 153
-14.5076 40.9754 16.5791 0 0 238
-14.0025 42.5523 15.8704 0 0 195
-13.764 42.0924 17.5266 0 0 195
-7.64295 34.4881 18.1113 0 0 188
-8.33011 35.2758 17.0691 0 0 227
-9.33843 34.17 18.045 0 0 188
-6.19719 34.5305 17.9095 0 0 143
-7.64295 34.4881 18.1113 0 0 143
-5.5943 33.9367 17.1977 0 0 159
-6.03174 35.0002 16.4236 0 0 184
-6.19719 34.5305 17.9095 0 0 159
-5.5841 32.9019 16.1171 0 0 144
-5.5943 33.9367 17.1977 0 0 144
3 0 46 44
3 0 49 47
3 0 44 49
3 1 172 174
3 174 173 51
3 172 173 174
3 1 55 53
3 1 51 55
3 2 58 57
3 3 61 59
3 3 63 61
3 2 65 64
3 2 57 65
3 4 68 66
3 6 71 69
3 6 73 71
3 7 175 177
3 177 176 74
3 175 176 177
3 7 178 179
3 7 180 182
3 180 75 181
3 180 181 182
3 4 78 76
3 4 66 78
3 8 82 80
3 9 85 83
3 9 183 185
3 185 184 85
3 183 184 185
3 9 186 187
3 8 88 86
3 8 80 88
3 5 92 90
3 189 188 93
3 190 96 191
3 192 98 193
3 195 194 98
3 10 102 100
3 12 103 45
3 12 104 103
3 13 196 198
3 196 105 197
3 196 197 198
3 14 106 48
3 14 107 106
3 14 109 107
3 10 110 50
3 10 100 110
3 16 113 111
3 200 199 52
3 18 116 114
3 20 117 54
3 20 118 117
3 20 120 118
3 16 121 56
3 16 111 121
3 22 201 202
3 23 124 122
3 24 203 205
3 205 204 60
3 203 204 205
3 24 206 207
3 24 208 210
3 208 125 209
3 208 209 210
3 26 126 62
3 26 211 213
3 213 212 126
3 211 212 213
3 27 214 216
3 216 215 127
3 214 215 216
3 22 217 218
3 22 219 220
3 221 128 222
3 223 129 224
3 226 225 129
3 28 132 130
3 30 133 67
3 30 134 133
3 11 135 101
3 31 136 70
3 31 137 136
3 31 138 137
3 32 139 72
3 32 140 139
3 33 227 228
3 33 229 231
3 229 141 230
3 229 230 231
3 15 142 108
3 34 143 77
3 34 144 143
3 34 145 144
3 28 146 79
3 28 130 146
3 35 149 147
3 37 150 81
3 37 151 150
3 17 152 112
3 19 153 115
3 233 232 84
3 21 234 236
3 236 235 119
3 234 235 236
3 38 237 239
3 239 238 87
3 237 238 239
3 38 240 241
3 38 242 244
3 242 154 243
3 242 243 244
3 35 155 89
3 35 147 155
3 29 156 131
3 246 245 91
3 248 247 123
3 25 249 250
3 36 157 148
3 39 158 94
3 39 159 158
3 40 251 253
3 251 160 252
3 251 252 253
3 40 161 160
3 40 162 161
3 41 163 95
3 41 164 163
3 254 165 255
3 42 166 97
3 42 167 166
3 42 168 167
3 43 169 99
3 43 170 169
3 43 171 170
3 44 45 10
3 46 45 44
3 46 12 45
3 47 48 13
3 49 48 47
3 49 14 48
3 49 50 14
3 44 50 49
3 44 10 50
3 51 52 16
3 256 52 257
3 258 257 51
3 256 257 258
3 260 259 52
3 53 54 18
3 55 54 53
3 55 20 54
3 55 56 20
3 51 56 55
3 51 16 56
3 57 261 263
3 263 262 22
3 261 262 263
3 58 264 266
3 266 265 57
3 264 265 266
3 58 267 268
3 59 60 23
3 61 60 59
3 61 24 60
3 61 62 24
3 63 62 61
3 63 26 62
3 64 269 271
3 271 270 27
3 269 270 271
3 65 272 274
3 274 273 64
3 272 273 274
3 65 275 276
3 65 277 278
3 57 279 281
3 281 280 65
3 279 280 281
3 57 282 284
3 282 22 283
3 282 283 284
3 66 67 28
3 68 67 66
3 68 30 67
3 69 70 11
3 71 70 69
3 71 31 70
3 71 72 31
3 73 72 71
3 73 32 72
3 74 285 286
3 288 287 74
3 75 289 290
3 75 291 293
3 291 33 292
3 291 292 293
3 76 77 15
3 78 77 76
3 78 34 77
3 78 79 34
3 66 79 78
3 66 28 79
3 80 81 35
3 82 81 80
3 82 37 81
3 295 294 17
3 83 84 19
3 85 84 83
3 85 296 298
3 298 297 84
3 296 297 298
3 85 299 300
3 302 301 85
3 86 87 21
3 88 87 86
3 88 38 87
3 88 89 38
3 80 89 88
3 80 35 89
3 90 91 29
3 92 91 90
3 92 303 305
3 305 304 91
3 303 304 305
3 307 306 25
3 93 94 36
3 308 94 309
3 310 309 93
3 308 309 310
3 311 39 312
3 313 312 94
3 311 312 313
3 314 40 315
3 316 95 317
3 318 317 40
3 316 317 318
3 96 319 321
3 319 95 320
3 319 320 321
3 96 41 95
3 322 97 323
3 98 324 326
3 324 97 325
3 324 325 326
3 98 42 97
3 98 99 42
3 327 99 328
3 329 328 98
3 327 328 329
3 330 43 331
3 332 331 99
3 330 331 332
3 334 333 43
3 100 101 4
3 102 101 100
3 102 11 101
3 45 102 10
3 103 102 45
3 103 11 102
3 103 69 11
3 104 69 103
3 104 6 69
3 105 335 336
3 105 337 338
3 48 105 13
3 106 105 48
3 106 339 341
3 341 340 105
3 339 340 341
3 106 342 344
3 342 74 343
3 342 343 344
3 107 74 106
3 107 7 74
3 107 108 7
3 109 108 107
3 109 15 108
3 50 109 14
3 110 109 50
3 110 15 109
3 110 76 15
3 100 76 110
3 100 4 76
3 111 112 8
3 113 112 111
3 113 17 112
3 52 113 16
3 345 113 346
3 347 346 52
3 345 346 347
3 348 17 349
3 350 349 113
3 348 349 350
3 352 351 17
3 114 353 355
3 353 115 354
3 353 354 355
3 116 115 114
3 116 19 115
3 54 116 18
3 117 116 54
3 117 19 116
3 117 83 19
3 118 83 117
3 118 9 83
3 118 119 9
3 120 119 118
3 120 21 119
3 56 120 20
3 121 120 56
3 121 21 120
3 121 86 21
3 111 86 121
3 111 8 86
3 357 356 22
3 122 123 5
3 124 123 122
3 124 358 360
3 360 359 123
3 358 359 360
3 60 124 23
3 361 124 362
3 363 362 60
3 361 362 363
3 365 364 124
3 125 366 367
3 125 368 370
3 368 25 369
3 368 369 370
3 62 125 24
3 126 125 62
3 126 25 125
3 126 371 373
3 373 372 25
3 371 372 373
3 375 374 126
3 127 376 377
3 379 378 127
3 381 380 27
3 383 382 1
3 384 114 385
3 128 386 388
3 386 114 387
3 386 387 388
3 128 18 114
3 389 128 390
3 129 391 393
3 391 128 392
3 391 392 393
3 129 18 128
3 129 53 18
3 394 53 395
3 396 395 129
3 394 395 396
3 397 1 398
3 399 398 53
3 397 398 399
3 130 131 2
3 132 131 130
3 132 29 131
3 67 132 28
3 133 132 67
3 133 29 132
3 133 90 29
3 134 90 133
3 134 5 90
3 101 68 4
3 135 68 101
3 135 30 68
3 70 135 11
3 136 135 70
3 136 30 135
3 136 134 30
3 137 134 136
3 137 5 134
3 137 122 5
3 138 122 137
3 138 23 122
3 72 138 31
3 139 138 72
3 139 23 138
3 139 59 23
3 140 59 139
3 140 3 59
3 141 400 401
3 141 402 403
3 108 75 7
3 142 75 108
3 142 33 75
3 77 142 15
3 143 142 77
3 143 33 142
3 143 141 33
3 144 141 143
3 144 404 406
3 406 405 141
3 404 405 406
3 144 407 409
3 407 127 408
3 407 408 409
3 145 127 144
3 145 27 127
3 79 145 34
3 146 145 79
3 146 27 145
3 146 64 27
3 130 64 146
3 130 2 64
3 147 148 0
3 149 148 147
3 149 36 148
3 81 149 35
3 150 149 81
3 150 36 149
3 150 93 36
3 151 93 150
3 151 410 412
3 412 411 93
3 410 411 412
3 112 82 8
3 152 82 112
3 152 37 82
3 413 152 414
3 415 414 17
3 413 414 415
3 416 152 417
3 418 37 419
3 420 419 152
3 418 419 420
3 421 151 422
3 423 422 37
3 421 422 423
3 424 151 425
3 427 426 151
3 429 428 1
3 115 430 431
3 153 432 434
3 434 433 115
3 432 433 434
3 153 435 436
3 84 153 19
3 437 153 438
3 439 438 84
3 437 438 439
3 441 440 153
3 119 442 444
3 444 443 9
3 442 443 444
3 446 445 119
3 87 447 449
3 449 448 21
3 447 448 449
3 451 450 87
3 154 452 453
3 154 454 456
3 454 13 455
3 454 455 456
3 89 154 38
3 155 154 89
3 155 13 154
3 155 47 13
3 147 47 155
3 147 0 47
3 131 58 2
3 156 58 131
3 156 457 459
3 459 458 58
3 457 458 459
3 91 156 29
3 460 156 461
3 462 461 91
3 460 461 462
3 464 463 156
3 123 92 5
3 465 92 466
3 467 466 123
3 465 466 467
3 469 468 92
3 471 470 25
3 148 46 0
3 157 46 148
3 157 12 46
3 94 157 36
3 158 157 94
3 158 12 157
3 158 104 12
3 159 104 158
3 159 6 104
3 472 39 473
3 160 474 475
3 160 476 478
3 476 39 477
3 476 477 478
3 160 159 39
3 161 159 160
3 161 6 159
3 161 73 6
3 162 73 161
3 162 32 73
3 95 162 40
3 163 162 95
3 163 32 162
3 163 140 32
3 164 140 163
3 164 3 140
3 165 479 480
3 165 481 482
3 97 483 485
3 483 165 484
3 483 484 485
3 166 165 97
3 166 486 488
3 488 487 165
3 486 487 488
3 166 489 490
3 167 491 493
3 493 492 166
3 491 492 493
3 167 494 495
3 167 496 498
3 496 96 497
3 496 497 498
3 168 96 167
3 168 41 96
3 99 168 42
3 169 168 99
3 169 41 168
3 169 164 41
3 170 164 169
3 170 3 164
3 170 63 3
3 171 63 170
3 171 26 63
3 499 171 500
3 501 500 43
3 499 500 501
3 502 171 503
3 504 26 505
3 506 505 171
3 504 505 506
3 508 507 26
