ply
format ascii 1.0
element vertex 905
property float x
property float y
property float z
element face 1092
property list uchar int vertex_index
end_header
35.3258 -39.2843 36.9772
35.6393 -39.0034 36.5605
35.5253 -39.3233 36.1853
35.7926 -38.9367 36.1562
35.4511 -38.7992 37.5739
35.7951 -38.5125 37.1056
36.0568 -38.2353 36.8266
35.6279 -38.846 36.9506
35.8957 -38.634 36.5018
36.2266 -38.2434 36.2086
35.7843 -39.0694 35.8404
36.0898 -38.6656 35.6653
36.352 -38.243 35.7259
35.7102 -39.3631 35.3343
36.1264 -38.8513 34.9888
35.7727 -39.5576 34.4996
35.6655 -37.9192 38.4885
35.9248 -37.7434 38.1397
35.3634 -38.4901 38.3469
35.9104 -38.0447 37.6409
36.4249 -37.7383 36.6478
36.754 -37.385 36.3285
36.5097 -37.9464 35.8625
36.7494 -37.5625 35.9115
36.3144 -38.5473 35.0401
36.5665 -38.122 35.1581
36.7139 -37.7709 35.5135
36.0399 -39.1318 34.5495
36.4612 -38.5605 34.3387
36.7286 -38.0972 34.5146
36.115 -39.3313 33.5684
36.5107 -38.7114 33.641
35.5323 -37.5959 39.2154
36.0238 -37.3688 38.4372
36.3334 -37.0667 38.1456
36.067 -37.6226 37.9655
36.3774 -37.3163 37.6153
36.7675 -37.1573 36.7567
37.0485 -37.0739 35.9877
37.3265 -36.782 35.6691
36.8817 -37.8263 34.6325
37.0158 -37.455 35.1189
37.2666 -36.9855 35.3818
36.731 -38.3748 33.6479
36.9936 -37.8876 33.9243
37.0891 -37.5768 34.4432
36.4795 -39.1884 32.1351
36.7224 -38.5796 33.0015
36.9525 -38.1368 33.3271
36.2761 -39.682 31.4517
36.3128 -39.8361 30.5716
26.3048 -37.6325 50.8096
25.8143 -37.3429 51.2628
26.8829 -37.206 50.3435
26.2665 -36.6577 50.9265
25.7779 -36.8001 51.3289
28.3642 -37.1783 49.0154
27.6681 -36.9776 49.6717
27.0226 -36.2805 50.3152
26.5197 -35.8248 50.7766
29.648 -37.086 47.8335
29.0058 -36.943 48.4654
28.4023 -36.3377 49.1087
27.7619 -35.6365 49.7465
26.9838 -35.3817 50.4167
26.5586 -35.2731 50.7722
30.6227 -36.967 46.8652
30.18 -36.6351 47.4284
29.6697 -36.2792 47.9893
29.0716 -35.8745 48.5893
28.4903 -35.4087 49.1553
28.1537 -35.1126 49.4752
35.8676 -36.9291 39.314
36.3518 -36.7139 38.5566
36.7255 -36.454 38.0365
36.5438 -36.8454 37.9447
36.8862 -36.6494 37.3332
37.2208 -36.415 36.7962
37.0693 -36.7605 36.6024
37.3842 -36.4901 36.1169
37.6375 -36.2507 35.7787
37.3335 -37.0391 34.9452
37.5799 -36.5738 35.1864
37.7585 -36.1728 35.5168
37.2688 -37.5781 33.5834
37.4522 -37.1413 34.0949
37.7358 -36.5858 34.4963
36.725 -38.9347 31.6822
36.8963 -38.6018 31.9554
37.35 -37.7052 32.729
37.6811 -37.0843 33.1919
36.79 -39.0076 30.9604
37.2903 -38.1839 31.2275
37.6606 -37.5967 31.3766
36.76 -39.3387 29.6645
25.3899 -37.0268 51.6397
24.9175 -36.6213 52.0386
24.3478 -36.2753 52.4948
23.8265 -36.0488 52.9011
26.1328 -36.0036 51.0821
25.6139 -36.1768 51.4876
24.8772 -35.761 52.0747
24.18 -35.3704 52.6071
23.7439 -35.576 52.949
26.0961 -35.3592 51.1323
25.3942 -35.1939 51.6751
24.7753 -34.9322 52.1443
24.3203 -34.559 52.4737
27.9145 -34.8391 49.6922
27.3876 -34.7463 50.12
26.5945 -34.532 50.7516
25.7954 -34.521 51.3658
25.1653 -34.4227 51.8385
24.6843 -34.2949 52.1918
31.2396 -36.3127 46.4206
30.7134 -36.2225 47.024
30.3302 -35.7763 47.4955
29.7252 -35.3424 48.1003
29.0852 -34.9201 48.7027
28.4141 -34.5589 49.2984
27.8134 -34.1331 49.8069
27.2048 -33.9551 50.2869
31.2461 -35.8192 46.6136
31.0543 -35.8799 46.7996
30.7904 -35.7523 47.0935
35.6474 -36.4378 40.2608
36.2214 -36.2293 39.3669
36.6813 -36.0636 38.5992
37.1202 -35.9708 37.7129
37.4423 -35.6456 37.3838
37.1964 -36.2417 37.154
37.5278 -35.9156 36.75
37.8361 -35.643 36.3627
37.6016 -36.1346 36.1449
37.8293 -35.8756 35.9241
37.8843 -36.2939 34.69
37.964 -35.9885 35.177
37.8741 -36.7323 33.4113
38.0118 -36.3328 34.0175
38.1132 -35.9856 34.5787
37.8616 -37.197 31.8075
38.033 -36.7535 32.5274
38.1759 -36.3429 33.2206
37.2709 -38.4552 30.1472
37.7529 -37.7238 30.1988
38.032 -37.1608 30.9132
38.2156 -36.7562 31.4785
37.0677 -38.8314 29.8244
23.3996 -35.7918 53.2247
23.9583 -34.7249 52.7522
23.5612 -35.0825 53.0668
24.0305 -34.2744 52.6767
23.6828 -34.3397 52.9365
26.0396 -33.8264 51.1704
25.4391 -33.8043 51.6141
24.871 -33.8057 52.031
24.2714 -33.768 52.4661
23.9039 -33.9894 52.7522
31.435 -35.4231 46.4963
31.0432 -34.9504 46.9933
30.4212 -34.8171 47.5728
29.7202 -34.3684 48.2278
29.0411 -33.9542 48.8287
28.3451 -33.5356 49.4095
27.5697 -33.1643 50.0155
26.6223 -33.2054 50.7231
25.7144 -33.0817 51.3814
25.0219 -33.1867 51.8852
24.6274 -33.378 52.1817
31.2098 -35.6583 46.7082
31.0574 -35.5064 46.8924
30.7396 -35.3636 47.2169
35.8758 -35.3718 40.7782
35.714 -35.8673 40.671
36.1379 -35.6355 40.0994
36.5887 -35.5581 39.319
37.0277 -35.422 38.5602
37.414 -35.3395 37.8346
37.6829 -35.3408 37.2172
37.8977 -35.3702 36.6453
38.0679 -35.4019 36.1186
38.1939 -35.4872 35.531
38.3353 -35.784 34.1989
38.3566 -35.5282 34.8147
38.4482 -36.0951 32.6865
38.4942 -35.793 33.4549
38.1732 -37.1166 30.1534
38.5092 -36.5561 30.4538
38.6249 -36.0999 31.6772
38.3881 -37.0127 29.0443
38.9783 -36.0849 29.4215
22.9419 -35.3757 53.5597
23.0053 -34.3866 53.4442
31.5655 -33.5263 46.7182
30.9262 -33.1771 47.3327
30.2605 -32.8163 47.9291
29.5966 -32.4414 48.4929
28.948 -31.9834 49.0171
28.2645 -31.4033 49.5391
27.8107 -30.9692 49.8716
24.0253 -33.2908 52.6109
23.6209 -33.5835 52.9266
32.0806 -34.8468 45.9435
31.5567 -34.4601 46.5729
30.985 -34.1196 47.1655
30.3381 -33.781 47.7702
29.6625 -33.3853 48.3693
28.975 -32.9562 48.9465
28.2188 -32.4552 49.5422
27.1783 -31.7199 50.3034
26.0152 -32.1807 51.1294
25.1285 -32.306 51.7537
24.3406 -32.7664 52.3407
23.8645 -33.0578 52.707
24.7957 -31.9427 51.9572
24.6721 -32.2228 52.0641
36.3573 -34.7508 40.4096
36.7723 -34.361 40.0088
36.5059 -35.1862 39.8206
36.9083 -34.7755 39.4199
37.4122 -34.7921 38.4352
37.7628 -34.8406 37.6634
38.0218 -34.914 36.9949
38.219 -34.9922 36.4007
38.4021 -35.0349 35.8267
38.5441 -34.8958 35.6926
38.5181 -35.0895 35.3137
38.5292 -34.9618 35.5954
38.6857 -35.2786 34.1296
38.6604 -35.0844 34.7714
38.8899 -35.4752 32.5426
38.884 -35.2319 33.3795
39.132 -35.6372 30.4777
39.1157 -35.404 31.5583
28.7899 -29.7328 49.2104
29.5413 -31.6425 48.5852
29.0567 -31.037 48.9743
28.348 -30.3032 49.5023
27.4369 -30.4875 50.1257
22.733 -33.249 53.5467
26.7071 -30.6041 50.6112
25.929 -31.0679 51.1413
25.5077 -31.7267 51.4591
23.8994 -31.9994 52.5812
23.4681 -32.6031 52.9462
36.0693 -33.2904 41.7448
25.3141 -30.617 51.5214
24.9599 -31.365 51.8044
24.4287 -31.8871 52.2043
36.1549 -33.8577 41.3089
36.7185 -33.9066 40.4104
37.0778 -33.9878 39.7656
37.4671 -34.0997 38.9817
37.8577 -34.2447 38.1148
38.1576 -34.3876 37.3493
38.3826 -34.5337 36.6601
38.513 -34.6846 36.1278
38.5928 -34.7578 35.7971
38.8201 -34.7019 35.1023
38.6331 -34.8258 35.5294
39.1381 -34.7012 33.7925
38.9001 -34.8236 34.4819
39.4383 -34.7802 32.0589
39.1863 -34.9032 32.9644
39.4664 -35.0124 31.0227
28.4454 -29.2511 49.4484
27.6584 -29.5727 49.971
26.9002 -29.8106 50.471
26.0848 -29.9701 50.9973
25.6675 -30.3918 51.2819
23.3504 -31.7107 52.9369
36.1109 -32.5608 42.0065
36.7027 -32.2919 41.3486
25.6881 -29.5505 51.2264
25.3493 -29.9227 51.4569
24.6755 -30.3486 51.9135
23.9121 -31.044 52.4786
36.3056 -33.1643 41.4694
36.8642 -32.9319 40.7777
37.458 -32.648 40.0788
37.0495 -33.5189 40.1425
37.5137 -33.2304 39.5877
37.9946 -33.5341 38.5283
38.3164 -33.7816 37.6946
38.571 -33.9837 36.934
38.7788 -34.2188 36.1174
38.6683 -34.554 35.9277
39.0526 -34.1926 35.3482
38.764 -34.5439 35.6433
39.5452 -33.9954 33.9404
39.1687 -34.348 34.5924
39.9383 -33.9659 32.1659
39.5488 -34.3149 33.0286
27.7768 -28.6887 49.8823
27.0213 -28.9479 50.3721
26.4832 -29.3272 50.7254
26.4437 -28.8184 50.7295
25.9605 -29.1172 51.0367
36.7756 -31.5854 41.5746
37.3023 -31.5414 40.9134
25.3631 -29.1988 51.4016
24.6643 -29.3931 51.839
23.8618 -29.7622 52.3764
23.1235 -30.2487 52.9172
37.0409 -32.0777 40.9993
37.5346 -32.0225 40.3371
24.0882 -29.1702 52.1684
23.8084 -29.2281 52.3467
37.897 -32.3898 39.5803
38.253 -32.691 38.7886
38.5197 -33.1192 37.9651
38.7584 -33.3818 37.2402
38.9902 -33.5646 36.5047
39.2282 -33.6622 35.7388
39.8556 -33.4031 34.1195
39.5041 -33.6622 34.852
39.9937 -33.5283 33.2172
27.2244 -28.1626 50.2166
37.4868 -30.3955 41.1557
26.6424 -28.3037 50.5814
26.1036 -28.4193 50.9108
37.2866 -31.0365 41.1613
37.8475 -30.9692 40.4449
25.5579 -28.556 51.2396
24.9641 -28.6587 51.5941
23.5313 -29.2154 52.5191
38.2909 -31.5724 39.5017
38.7494 -31.3874 38.9272
24.3544 -28.7027 51.9562
38.2925 -32.1446 39.1369
38.6969 -31.9043 38.6422
38.8037 -32.4714 38.026
38.9435 -32.8099 37.472
39.1591 -32.9881 36.831
39.7701 -32.6705 35.7113
39.3897 -33.1137 36.1225
40.4519 -32.4229 33.8745
40.0045 -32.819 34.7312
39.5917 -33.1905 35.4395
40.1631 -32.9975 33.8203
37.9963 -30.0104 40.645
38.3966 -30.3056 40.0222
38.7152 -30.4519 39.53
38.424 -30.8409 39.7367
38.8187 -30.8896 39.1306
39.1533 -31.1696 38.3953
39.274 -31.8588 37.6578
39.085 -32.404 37.5823
39.641 -32.0093 36.8008
39.2817 -32.4468 37.1419
39.8919 -32.1297 36.0948
39.5327 -32.5669 36.4589
40.4476 -32.0104 34.6005
40.136 -32.1678 35.3701
38.5047 -29.5937 40.1243
38.824 -29.9468 39.5839
39.0517 -30.2626 39.1227
39.27 -30.5239 38.6304
39.5234 -30.6258 38.1262
39.6748 -30.9762 37.5905
39.7853 -31.4431 37.0166
40.6648 -30.9882 35.2707
40.3543 -31.2877 35.8453
40.0242 -31.5688 36.3855
40.7649 -31.3111 34.5368
40.439 -31.5914 35.2429
40.1809 -31.7553 35.7945
38.988 -29.3101 39.5419
39.2109 -29.7385 39.0998
39.3955 -30.0098 38.7038
39.6101 -30.1756 38.2503
40.0852 -30.1215 37.3898
39.8602 -30.2748 37.724
40.227 -30.1226 37.0997
40.0449 -30.4873 37.2302
40.9116 -29.8115 35.6492
40.65 -30.2273 36.0531
40.3443 -30.4585 36.6099
40.0244 -30.951 36.9304
40.8264 -30.3803 35.4065
40.5222 -30.7376 35.9371
40.2249 -31.05 36.4056
40.0232 -31.2597 36.6912
39.4714 -29.2168 38.8415
39.457 -29.6644 38.7496
39.8726 -29.1413 38.1953
39.7007 -29.6785 38.3183
40.5621 -29.0199 36.963
40.1703 -29.5922 37.4796
39.846 -29.932 37.9505
40.6128 -29.4619 36.642
40.4411 -29.9345 36.7584
40.8936 -29.3783 36.0099
40.6869 -29.8268 36.2614
40.5413 -30.1172 36.4251
40.1757 -28.7972 37.7721
40.3636 -28.9962 37.3783
35.2005 -39.3062 37.3215
35.0882 -39.5584 37.1553
35.2322 -38.9409 37.9254
35.2631 -39.0637 37.6198
35.2005 -39.3062 37.3215
35.3885 -39.0417 37.2755
35.2631 -39.0637 37.6198
35.1997 -39.573 36.7495
35.0882 -39.5584 37.1553
35.4256 -39.3038 36.5813
35.1997 -39.573 36.7495
35.2995 -39.5925 36.3535
35.4233 -39.54 36.0243
35.2995 -39.5925 36.3535
35.4233 -39.54 36.0243
35.5157 -39.5599 35.5988
35.6177 -39.3432 35.7598
35.5157 -39.5599 35.5988
35.524 -39.6215 35.4038
35.2322 -38.9409 37.9254
35.4073 -38.6447 37.9604
35.1884 -38.7864 38.3119
35.1884 -38.7864 38.3119
35.1315 -38.6626 38.6488
35.5376 -39.7026 35.1188
35.524 -39.6215 35.4038
35.7414 -39.4604 34.917
35.5376 -39.7026 35.1188
35.5688 -39.7999 34.7014
35.696 -39.7381 34.3123
35.5688 -39.7999 34.7014
35.9438 -39.4445 34.034
35.696 -39.7381 34.3123
35.8672 -39.625 33.8467
35.1315 -38.6626 38.6488
35.2761 -38.3691 38.728
35.2761 -38.3691 38.728
35.5145 -38.2047 38.4177
35.4271 -38.0836 38.7988
35.4271 -38.0836 38.7988
35.5989 -37.7576 38.8519
35.3605 -37.922 39.1623
35.3605 -37.922 39.1623
35.2751 -37.743 39.5593
35.8569 -39.7426 33.5256
35.8672 -39.625 33.8467
35.9614 -39.7491 32.9481
35.8569 -39.7426 33.5256
35.9614 -39.7491 32.9481
36.1437 -39.6776 32.2315
36.2972 -39.2599 32.8517
36.3778 -39.4352 31.7934
36.1437 -39.6776 32.2315
36.042 -39.9244 31.8898
36.1239 -39.9402 31.3592
36.042 -39.9244 31.8898
36.2944 -39.759 31.0116
36.1239 -39.9402 31.3592
36.1422 -40.0172 30.9191
36.063 -40.2255 30.5545
36.1422 -40.0172 30.9191
36.277 -40.0005 30.0642
36.063 -40.2255 30.5545
27.8397 -37.2904 49.4693
27.6396 -37.4359 49.631
27.6396 -37.4359 49.631
27.4473 -37.3293 49.8255
28.3765 -37.4754 48.9484
28.5132 -37.3045 48.8551
29.1545 -37.2302 48.2647
28.9322 -37.3843 48.4407
28.9322 -37.3843 48.4407
28.834 -37.1868 48.5801
28.3765 -37.4754 48.9484
28.1877 -37.3908 49.1412
27.8397 -37.2904 49.4693
28.1877 -37.3908 49.1412
28.0161 -37.078 49.3436
29.6411 -37.374 47.7687
29.8425 -37.2753 47.5835
29.6411 -37.374 47.7687
29.4756 -37.3017 47.9488
29.1545 -37.2302 48.2647
29.4756 -37.3017 47.9488
29.3269 -37.0145 48.1494
35.2751 -37.743 39.5593
35.4538 -37.3937 39.6082
35.7 -37.2625 39.2647
35.6214 -37.0602 39.6575
35.4538 -37.3937 39.6082
36.277 -40.0005 30.0642
36.5006 -39.7518 29.6107
36.5364 -39.5874 30.118
36.7249 -39.5028 29.1092
36.5006 -39.7518 29.6107
26.2879 -38.0366 50.7804
26.5361 -37.8183 50.5814
26.2879 -38.0366 50.7804
26.0487 -37.8855 51.0128
25.8034 -37.7407 51.2394
26.0487 -37.8855 51.0128
26.0596 -37.4877 51.0362
25.8034 -37.7407 51.2394
25.566 -37.5723 51.4609
25.3538 -37.4142 51.6493
25.566 -37.5723 51.4609
25.6021 -37.1848 51.4513
26.8251 -37.605 50.3483
27.0547 -37.4435 50.1614
26.8251 -37.605 50.3483
26.5939 -37.4193 50.5766
26.5361 -37.8183 50.5814
27.4473 -37.3293 49.8255
27.2755 -37.0918 50.0076
27.0547 -37.4435 50.1614
28.834 -37.1868 48.5801
28.685 -37.0607 48.7404
28.5132 -37.3045 48.8551
30.5469 -37.4064 46.7835
30.83 -37.1398 46.5597
30.5469 -37.4064 46.7835
30.3299 -37.2158 47.0994
30.1086 -37.0498 47.381
30.3299 -37.2158 47.0994
30.4013 -36.8011 47.1468
30.1086 -37.0498 47.381
29.914 -36.8606 47.631
29.8425 -37.2753 47.5835
31.5038 -36.6806 45.9568
31.1385 -36.8127 46.3374
31.1385 -36.8127 46.3374
30.9311 -36.6399 46.6429
30.83 -37.1398 46.5597
35.4501 -36.6658 40.4024
35.5114 -36.8146 40.1308
35.6214 -37.0602 39.6575
35.7575 -36.6834 39.7874
35.5114 -36.8146 40.1308
36.7249 -39.5028 29.1092
37.098 -38.9288 29.0986
37.098 -38.9288 29.0986
37.2518 -38.6751 29.1786
36.9139 -39.0851 29.7444
25.3538 -37.4142 51.6493
25.1256 -37.2233 51.8532
24.8894 -37.0206 52.0527
25.1256 -37.2233 51.8532
25.1537 -36.824 51.8392
24.8894 -37.0206 52.0527
24.6497 -36.8453 52.2549
24.3648 -36.6723 52.483
24.6497 -36.8453 52.2549
24.6326 -36.4483 52.2667
24.3648 -36.6723 52.483
24.1144 -36.5254 52.6852
23.8538 -36.4121 52.8884
24.1144 -36.5254 52.6852
24.0872 -36.1621 52.698
23.8538 -36.4121 52.8884
23.6108 -36.2687 53.079
23.3973 -36.1402 53.2408
23.6108 -36.2687 53.079
23.6131 -35.9203 53.0629
31.5985 -36.0681 46.0942
31.5038 -36.6806 45.9568
31.3373 -35.8679 46.4585
31.5985 -36.0681 46.0942
31.6962 -35.6233 46.132
35.4501 -36.6658 40.4024
35.3611 -36.4967 40.7082
35.3611 -36.4967 40.7082
35.5573 -36.2934 40.5595
35.5573 -36.2934 40.5595
35.6807 -36.1525 40.4659
35.5906 -36.0082 40.7646
35.5906 -36.0082 40.7646
35.5578 -35.7882 40.9857
37.1693 -38.6433 29.9858
37.2518 -38.6751 29.1786
37.3534 -38.487 29.34
37.3534 -38.487 29.34
37.5944 -38.1213 29.3658
37.5119 -38.0895 30.173
37.5944 -38.1213 29.3658
37.912 -37.7657 28.7885
38.0705 -37.3682 29.6215
38.4226 -37.148 27.8823
37.912 -37.7657 28.7885
23.3973 -36.1402 53.2408
23.1597 -35.9752 53.4232
23.1708 -35.5837 53.3922
22.9309 -35.7671 53.5907
23.1597 -35.9752 53.4232
32.3514 -35.015 45.5942
32.019 -35.3351 45.8556
32.019 -35.3351 45.8556
31.7578 -35.1349 46.2199
31.6962 -35.6233 46.132
35.5578 -35.7882 40.9857
35.7949 -35.6196 40.7246
35.6388 -35.5405 41.0393
35.6388 -35.5405 41.0393
35.8025 -35.1182 41.0666
36.0433 -34.8077 40.8824
35.8025 -35.1182 41.0666
36.1166 -35.0613 40.5939
39.2931 -35.5288 29.8871
39.0551 -35.861 29.9496
39.2163 -35.7526 29.359
38.8897 -36.3966 28.4382
39.1848 -35.9327 28.6267
38.6832 -36.5488 29.2329
39.2163 -35.7526 29.359
39.1848 -35.9327 28.6267
38.4226 -37.148 27.8823
38.8897 -36.3966 28.4382
22.9309 -35.7671 53.5907
22.6769 -35.5959 53.7844
22.6769 -35.5959 53.7844
22.6423 -35.1859 53.7816
22.9736 -34.8812 53.5019
22.6739 -34.6913 53.7238
22.6423 -35.1859 53.7816
22.6739 -34.6913 53.7238
22.5732 -34.2261 53.761
22.8691 -33.8178 53.4954
22.4371 -33.6573 53.8123
22.5732 -34.2261 53.761
32.1242 -34.3691 46.012
32.3836 -34.5709 45.6999
32.3836 -34.5709 45.6999
32.3514 -35.015 45.5942
31.8667 -33.7089 46.3993
31.5611 -33.9932 46.6456
31.8623 -34.1758 46.3267
31.8623 -34.1758 46.3267
31.8187 -34.6534 46.2582
32.1242 -34.3691 46.012
31.875 -33.2249 46.4783
31.8667 -33.7089 46.3993
31.5405 -33.0568 46.8028
31.875 -33.2249 46.4783
31.5405 -33.0568 46.8028
31.2209 -32.8822 47.11
31.2459 -33.3517 47.0255
30.8834 -32.7069 47.4167
31.2209 -32.8822 47.11
30.8834 -32.7069 47.4167
30.5505 -32.5264 47.7149
30.5934 -32.9967 47.6309
30.2068 -32.3507 48.0097
30.5505 -32.5264 47.7149
30.2068 -32.3507 48.0097
29.8748 -32.1632 48.2916
29.9286 -32.6288 48.211
29.5689 -32.042 48.539
29.8748 -32.1632 48.2916
29.8472 -31.7638 48.3377
36.0433 -34.8077 40.8824
36.2561 -34.3042 40.8593
35.9421 -34.3611 41.332
35.9421 -34.3611 41.332
35.8082 -34.1042 41.6902
39.438 -35.2492 30.1894
39.6053 -34.9369 30.4619
39.2992 -35.3248 30.7502
39.2931 -35.5288 29.8871
39.438 -35.2492 30.1894
29.8472 -31.7638 48.3377
29.7311 -31.2667 48.459
29.1714 -30.5398 48.9095
29.4888 -30.9639 48.6536
29.4888 -30.9639 48.6536
29.299 -31.3397 48.7797
29.7311 -31.2667 48.459
29.038 -29.8878 49.0275
28.5689 -30.018 49.3564
28.8171 -30.1729 49.1735
28.8171 -30.1729 49.1735
28.7024 -30.6701 49.2383
29.1714 -30.5398 48.9095
28.925 -29.5492 49.119
29.038 -29.8878 49.0275
28.6176 -29.4919 49.3294
28.925 -29.5492 49.119
28.7528 -29.3083 49.238
22.4371 -33.6573 53.8123
22.2109 -33.1154 53.9258
23.1006 -32.926 53.2465
22.9673 -32.2368 53.2646
22.5997 -32.5598 53.5648
22.5997 -32.5598 53.5648
22.2109 -33.1154 53.9258
22.9673 -32.2368 53.2646
23.4092 -32.1569 52.9416
22.9084 -31.7906 53.2599
35.8082 -34.1042 41.6902
35.9181 -33.7099 41.731
35.9181 -33.7099 41.731
36.1121 -33.5741 41.5269
35.8753 -33.4263 41.9489
35.8753 -33.4263 41.9489
36.0901 -32.9256 41.8757
35.8961 -33.0615 42.0798
35.8961 -33.0615 42.0798
35.7023 -32.8712 42.4176
39.6566 -34.5731 31.5814
39.4523 -34.8963 31.5408
39.6706 -34.6893 31.0633
39.6706 -34.6893 31.0633
39.6053 -34.9369 30.4619
40.1378 -33.7764 31.7209
39.9065 -34.166 31.6349
39.9065 -34.166 31.6349
39.6883 -34.373 32.1124
39.6566 -34.5731 31.5814
28.7528 -29.3083 49.238
28.7194 -29.0218 49.2628
28.4507 -28.8024 49.4417
28.7194 -29.0218 49.2628
28.1111 -28.9699 49.6653
28.4507 -28.8024 49.4417
28.1164 -28.5212 49.6587
35.7023 -32.8712 42.4176
35.72 -32.4415 42.5415
35.72 -32.4415 42.5415
35.9456 -32.1204 42.3809
35.9456 -32.1204 42.3809
36.1782 -32.0655 42.1234
23.6312 -31.3773 52.7078
23.4602 -31.0474 52.7877
23.1793 -31.3807 53.0169
23.1793 -31.3807 53.0169
22.9084 -31.7906 53.2599
36.4433 -32.0731 41.7906
36.5105 -31.5778 41.9075
36.1782 -32.0655 42.1234
23.5178 -30.6464 52.6979
23.0659 -30.6497 53.007
23.4602 -31.0474 52.7877
23.0659 -30.6497 53.007
22.6582 -30.3226 53.2442
40.1603 -33.5843 32.2217
40.1378 -33.7764 31.7209
40.1603 -33.5843 32.2217
40.188 -33.3655 32.7473
39.966 -33.7471 32.6916
27.8029 -28.2881 49.8549
28.1164 -28.5212 49.6587
27.8029 -28.2881 49.8549
27.5267 -28.0251 50.022
27.5006 -28.4256 50.0495
36.6298 -31.247 41.8799
36.5105 -31.5778 41.9075
36.6298 -31.247 41.8799
36.8833 -31.1303 41.6192
37.1388 -30.8559 41.4125
36.8833 -31.1303 41.6192
37.0311 -31.3109 41.3679
23.6966 -29.4888 52.4477
23.3156 -29.3465 52.6746
23.4809 -29.6199 52.6032
23.4809 -29.6199 52.6032
23.1118 -29.8632 52.8736
23.4927 -30.0055 52.6468
23.6433 -28.9989 52.4224
23.6698 -29.2217 52.4329
23.7819 -29.0052 52.3362
23.1118 -29.8632 52.8736
22.8983 -30.0165 53.0355
22.8983 -30.0165 53.0355
22.6582 -30.3226 53.2442
24.2213 -28.9365 52.0623
24.0549 -28.7425 52.1409
23.9218 -28.9763 52.247
23.9218 -28.9763 52.247
23.7819 -29.0052 52.3362
23.9483 -29.1992 52.2575
40.2144 -33.166 33.1698
40.188 -33.3655 32.7473
40.0784 -33.2629 33.5187
40.2144 -33.166 33.1698
40.2991 -32.9006 33.4713
27.2499 -27.8261 50.1846
27.5267 -28.0251 50.022
37.3347 -30.2289 41.3996
37.2389 -30.5354 41.4097
37.3347 -30.2289 41.3996
37.5307 -29.9971 41.2305
37.7855 -29.8045 40.9751
37.5307 -29.9971 41.2305
37.7415 -30.203 40.9004
27.2499 -27.8261 50.1846
27.0026 -27.929 50.3396
27.0026 -27.929 50.3396
26.7116 -27.9995 50.522
26.9334 -28.2332 50.399
37.1388 -30.8559 41.4125
37.3867 -30.716 41.1585
37.2389 -30.5354 41.4097
26.7116 -27.9995 50.522
26.4532 -28.0577 50.6776
26.4532 -28.0577 50.6776
26.1838 -28.1155 50.8423
26.373 -28.3615 50.7461
26.1838 -28.1155 50.8423
25.9238 -28.1739 50.9962
25.9238 -28.1739 50.9962
25.6509 -28.2422 51.1606
25.8308 -28.4877 51.0752
25.6509 -28.2422 51.1606
25.3833 -28.2905 51.3165
25.3833 -28.2905 51.3165
25.0864 -28.3418 51.4937
25.261 -28.6073 51.4168
25.0864 -28.3418 51.4937
24.8 -28.3729 51.6589
24.8 -28.3729 51.6589
24.4952 -28.395 51.84
24.6593 -28.6807 51.7752
23.6433 -28.9989 52.4224
23.3338 -29.0328 52.6195
23.3338 -29.0328 52.6195
23.3156 -29.3465 52.6746
24.4952 -28.395 51.84
24.1879 -28.4223 52.0199
24.1879 -28.4223 52.0199
24.0549 -28.7425 52.1409
40.6106 -32.2941 33.4999
40.4435 -32.6133 33.4984
40.6223 -32.0791 33.8399
40.6106 -32.2941 33.4999
40.4497 -32.2166 34.2375
40.6223 -32.0791 33.8399
40.6202 -31.8728 34.2029
40.3075 -32.7102 33.8474
40.2991 -32.9006 33.4713
40.4435 -32.6133 33.4984
37.7855 -29.8045 40.9751
38.0527 -29.5944 40.6962
38.3069 -29.386 40.4359
38.0527 -29.5944 40.6962
38.2505 -29.802 40.3847
40.7788 -31.5232 34.1711
40.9577 -31.1227 34.0897
40.7788 -31.5232 34.1711
40.6063 -31.6607 34.5686
40.6202 -31.8728 34.2029
38.3069 -29.386 40.4359
38.5728 -29.191 40.1326
38.8145 -29.0493 39.8414
38.5728 -29.191 40.1326
38.7464 -29.4519 39.8331
40.9123 -30.4879 35.0134
40.9806 -30.138 35.1408
40.8315 -30.7918 34.9455
40.7149 -31.1497 34.9038
40.8815 -30.9533 34.5786
40.8815 -30.9533 34.5786
40.9577 -31.1227 34.0897
40.9123 -30.4879 35.0134
40.7456 -30.6843 35.3386
40.8315 -30.7918 34.9455
38.8145 -29.0493 39.8414
39.0932 -28.9319 39.4725
39.2297 -29.2635 39.1917
39.3349 -28.8853 39.1223
39.0932 -28.9319 39.4725
41.0565 -29.472 35.4522
41.0232 -29.8535 35.2621
40.9806 -30.138 35.1408
41.0232 -29.8535 35.2621
40.869 -30.0959 35.5279
40.9591 -29.1979 35.942
41.0476 -29.2554 35.6325
41.0476 -29.2554 35.6325
40.9026 -29.5949 35.8296
41.0565 -29.472 35.4522
39.3349 -28.8853 39.1223
39.6284 -28.8101 38.6807
39.672 -29.179 38.5184
39.8289 -28.7724 38.3576
39.6284 -28.8101 38.6807
39.9805 -28.6003 38.146
39.8289 -28.7724 38.3576
40.0241 -28.9692 37.9837
40.6827 -28.7564 36.796
40.7045 -29.0056 36.6505
40.7298 -29.2265 36.49
40.7045 -29.0056 36.6505
40.5874 -29.2409 36.8025
40.5281 -28.7903 37.1122
40.6827 -28.7564 36.796
40.5281 -28.7903 37.1122
40.4289 -28.7784 37.3198
40.4629 -29.0081 37.1707
40.9591 -29.1979 35.942
40.8703 -29.1848 36.174
40.7298 -29.2265 36.49
40.7532 -29.4201 36.3259
40.8703 -29.1848 36.174
40.2335 -28.432 37.7565
39.9805 -28.6003 38.146
40.2335 -28.432 37.7565
40.3349 -28.6789 37.5167
40.4289 -28.7784 37.3198
40.3349 -28.6789 37.5167
40.2696 -28.8967 37.5752
3 0 397 398
3 4 399 400
3 401 0 402
3 403 402 4
3 401 402 403
3 7 4 0
3 405 404 0
3 2 406 408
3 406 0 407
3 406 407 408
3 0 2 1
3 3 1 2
3 0 1 7
3 8 7 1
3 1 3 8
3 11 8 3
3 410 409 2
3 2 10 3
3 11 3 10
3 2 411 413
3 413 412 13
3 411 412 413
3 2 13 10
3 13 414 415
3 416 4 417
3 418 417 18
3 416 417 418
3 419 18 420
3 4 7 5
3 8 5 7
3 4 5 19
3 4 19 18
3 5 8 6
3 9 6 8
3 5 6 19
3 20 19 6
3 6 9 20
3 22 20 9
3 8 11 9
3 12 9 11
3 9 12 22
3 25 22 12
3 10 13 11
3 14 11 13
3 11 24 25
3 11 25 12
3 11 14 24
3 28 24 14
3 422 421 13
3 15 423 425
3 423 13 424
3 423 424 425
3 13 27 14
3 28 14 27
3 13 15 27
3 30 27 15
3 427 426 15
3 30 428 430
3 428 15 429
3 428 429 430
3 432 431 18
3 433 18 434
3 435 434 16
3 433 434 435
3 436 16 437
3 438 437 32
3 436 437 438
3 439 32 440
3 16 18 19
3 16 19 17
3 16 17 33
3 16 33 32
3 17 19 35
3 17 35 33
3 19 20 36
3 19 36 35
3 20 22 23
3 20 23 21
3 20 21 37
3 20 37 36
3 21 23 38
3 21 38 37
3 22 25 26
3 22 26 23
3 23 26 41
3 23 41 38
3 24 28 25
3 29 25 28
3 25 40 41
3 25 41 26
3 25 29 40
3 44 40 29
3 27 30 28
3 31 28 30
3 28 43 44
3 28 44 29
3 28 31 43
3 47 43 31
3 442 441 30
3 443 30 444
3 30 46 47
3 30 47 31
3 30 445 447
3 447 446 46
3 445 446 447
3 49 448 450
3 448 46 449
3 448 449 450
3 452 451 49
3 50 453 455
3 453 49 454
3 453 454 455
3 457 456 50
3 458 50 459
3 461 460 57
3 462 57 463
3 56 464 465
3 467 466 61
3 468 61 469
3 470 56 471
3 57 472 474
3 474 473 56
3 472 473 474
3 60 475 476
3 477 60 478
3 61 479 481
3 481 480 60
3 479 480 481
3 482 32 483
3 32 33 72
3 32 484 486
3 484 72 485
3 484 485 486
3 33 35 36
3 33 36 34
3 33 34 73
3 33 73 72
3 34 36 75
3 34 75 73
3 36 37 76
3 36 76 75
3 37 38 78
3 37 78 76
3 38 41 42
3 38 42 39
3 38 39 79
3 38 79 78
3 39 42 82
3 39 82 79
3 40 44 45
3 40 45 41
3 41 81 42
3 82 42 81
3 41 45 85
3 41 85 81
3 43 47 48
3 43 48 44
3 44 84 85
3 44 85 45
3 44 48 89
3 44 89 84
3 46 87 88
3 46 88 47
3 46 49 91
3 46 91 87
3 47 88 89
3 47 89 48
3 49 50 91
3 94 91 50
3 50 487 489
3 489 488 94
3 487 488 489
3 490 94 491
3 51 492 493
3 494 51 495
3 52 496 498
3 498 497 51
3 496 497 498
3 499 52 500
3 95 501 503
3 503 502 52
3 501 502 503
3 53 504 505
3 506 53 507
3 508 507 51
3 506 507 508
3 54 51 53
3 51 54 52
3 55 52 54
3 52 55 95
3 100 95 55
3 509 57 510
3 511 510 53
3 509 510 511
3 58 53 57
3 53 58 54
3 59 54 58
3 54 99 100
3 54 100 55
3 54 59 99
3 104 99 59
3 512 61 513
3 514 513 56
3 512 513 514
3 62 56 61
3 56 62 57
3 63 57 62
3 57 63 58
3 64 58 63
3 58 64 59
3 65 59 64
3 59 65 104
3 110 104 65
3 66 515 516
3 517 66 518
3 67 519 521
3 521 520 66
3 519 520 521
3 522 67 523
3 524 523 60
3 522 523 524
3 68 60 67
3 60 68 61
3 69 61 68
3 61 69 62
3 70 62 69
3 62 70 63
3 71 63 70
3 63 108 109
3 63 109 64
3 63 71 108
3 119 108 71
3 64 109 110
3 64 110 65
3 526 525 114
3 527 114 528
3 529 528 66
3 527 528 529
3 66 114 115
3 66 115 67
3 67 115 116
3 67 116 68
3 68 116 117
3 68 117 69
3 69 117 118
3 69 118 70
3 70 118 119
3 70 119 71
3 125 530 531
3 532 72 533
3 534 533 125
3 532 533 534
3 126 125 72
3 72 73 126
3 127 126 73
3 73 75 74
3 76 74 75
3 73 74 127
3 128 127 74
3 74 76 128
3 130 128 76
3 76 78 77
3 79 77 78
3 76 77 130
3 131 130 77
3 77 79 131
3 133 131 79
3 79 82 80
3 83 80 82
3 79 80 133
3 134 133 80
3 80 83 134
3 136 134 83
3 81 85 82
3 86 82 85
3 82 135 136
3 82 136 83
3 82 86 135
3 138 135 86
3 84 89 85
3 90 85 89
3 85 137 138
3 85 138 86
3 85 90 137
3 141 137 90
3 87 91 88
3 92 88 91
3 88 92 89
3 93 89 92
3 89 140 141
3 89 141 90
3 89 93 140
3 145 140 93
3 91 143 92
3 144 92 143
3 91 94 147
3 91 147 143
3 92 144 93
3 145 93 144
3 94 535 536
3 94 537 539
3 539 538 147
3 537 538 539
3 540 95 541
3 96 542 544
3 544 543 95
3 542 543 544
3 545 96 546
3 97 547 549
3 549 548 96
3 547 548 549
3 550 97 551
3 98 552 554
3 554 553 97
3 552 553 554
3 555 98 556
3 148 557 559
3 559 558 98
3 557 558 559
3 95 100 96
3 101 96 100
3 96 101 97
3 102 97 101
3 97 102 98
3 103 98 102
3 98 103 148
3 150 148 103
3 99 104 100
3 105 100 104
3 100 105 101
3 106 101 105
3 101 106 102
3 107 102 106
3 102 149 150
3 102 150 103
3 102 107 149
3 151 149 107
3 104 110 111
3 104 111 105
3 105 111 112
3 105 112 106
3 106 112 113
3 106 113 107
3 107 113 156
3 107 156 151
3 108 119 120
3 108 120 109
3 109 120 121
3 109 121 110
3 110 153 111
3 154 111 153
3 110 121 165
3 110 165 153
3 111 154 112
3 155 112 154
3 112 155 113
3 156 113 155
3 561 560 114
3 158 562 564
3 562 114 563
3 562 563 564
3 114 122 123
3 114 123 115
3 114 158 122
3 169 122 158
3 115 123 124
3 115 124 116
3 116 160 117
3 161 117 160
3 116 124 171
3 116 171 160
3 117 161 118
3 162 118 161
3 118 162 119
3 163 119 162
3 119 163 120
3 164 120 163
3 120 164 121
3 165 121 164
3 122 169 123
3 170 123 169
3 123 170 124
3 171 124 170
3 566 565 125
3 567 125 568
3 569 125 570
3 571 570 173
3 569 570 571
3 572 173 573
3 125 126 174
3 125 174 173
3 126 127 175
3 126 175 174
3 127 128 176
3 127 176 175
3 128 130 131
3 128 131 129
3 128 129 177
3 128 177 176
3 129 131 178
3 129 178 177
3 131 133 134
3 131 134 132
3 131 132 179
3 131 179 178
3 132 134 180
3 132 180 179
3 134 136 181
3 134 181 180
3 135 138 139
3 135 139 136
3 136 139 183
3 136 183 181
3 137 141 142
3 137 142 138
3 138 182 139
3 183 139 182
3 138 142 185
3 138 185 182
3 140 145 146
3 140 146 141
3 141 184 142
3 185 142 184
3 141 146 188
3 141 188 184
3 143 574 576
3 574 147 575
3 574 575 576
3 143 577 579
3 579 578 144
3 577 578 579
3 144 186 145
3 187 145 186
3 144 580 582
3 582 581 189
3 580 581 582
3 144 189 186
3 145 187 146
3 188 146 187
3 584 583 189
3 585 148 586
3 148 150 191
3 148 587 589
3 587 191 588
3 587 588 589
3 149 151 152
3 149 152 150
3 150 152 192
3 150 192 191
3 151 156 157
3 151 157 152
3 152 157 201
3 152 201 192
3 153 165 166
3 153 166 154
3 154 166 167
3 154 167 155
3 155 167 168
3 155 168 156
3 156 200 201
3 156 201 157
3 156 168 212
3 156 212 200
3 591 590 202
3 592 202 593
3 594 593 158
3 592 593 594
3 158 159 170
3 158 170 169
3 158 202 203
3 158 203 159
3 159 160 171
3 159 171 170
3 159 203 204
3 159 204 160
3 160 204 205
3 160 205 161
3 161 205 206
3 161 206 162
3 162 206 207
3 162 207 163
3 163 207 208
3 163 208 164
3 164 208 209
3 164 209 165
3 165 209 210
3 165 210 166
3 166 210 211
3 166 211 167
3 167 211 212
3 167 212 168
3 595 173 596
3 597 596 172
3 595 596 597
3 174 172 173
3 598 172 599
3 216 600 602
3 602 601 172
3 600 601 602
3 172 174 216
3 218 216 174
3 174 175 218
3 219 218 175
3 175 176 219
3 220 219 176
3 176 177 220
3 221 220 177
3 177 178 221
3 222 221 178
3 178 179 222
3 223 222 179
3 179 180 223
3 224 223 180
3 180 181 224
3 226 224 181
3 181 183 226
3 229 226 183
3 182 228 183
3 229 183 228
3 182 185 228
3 231 228 185
3 184 230 185
3 231 185 230
3 184 188 230
3 233 230 188
3 186 189 187
3 190 187 189
3 187 232 188
3 233 188 232
3 187 190 232
3 603 232 604
3 605 604 190
3 603 604 605
3 189 606 608
3 608 607 190
3 606 607 608
3 609 190 610
3 189 611 612
3 613 191 614
3 616 615 191
3 191 617 619
3 617 192 618
3 617 618 619
3 621 620 192
3 192 201 239
3 192 622 624
3 622 239 623
3 622 623 624
3 626 625 202
3 627 202 628
3 629 193 630
3 631 630 203
3 629 630 631
3 632 203 633
3 634 633 202
3 632 633 634
3 636 635 193
3 637 193 638
3 193 194 204
3 193 204 203
3 193 639 641
3 641 640 194
3 639 640 641
3 642 194 643
3 194 195 205
3 194 205 204
3 194 644 646
3 646 645 195
3 644 645 646
3 647 195 648
3 195 196 206
3 195 206 205
3 195 649 651
3 651 650 196
3 649 650 651
3 235 652 654
3 652 196 653
3 652 653 654
3 196 197 207
3 196 207 206
3 196 235 197
3 236 197 235
3 197 198 208
3 197 208 207
3 197 236 198
3 237 198 236
3 198 199 209
3 198 209 208
3 198 237 199
3 238 199 237
3 199 238 209
3 240 209 238
3 200 212 213
3 200 213 201
3 201 213 244
3 201 244 239
3 209 240 241
3 209 241 210
3 210 241 242
3 210 242 211
3 211 214 215
3 211 215 212
3 211 242 247
3 211 247 214
3 212 243 244
3 212 244 213
3 212 215 248
3 212 248 243
3 214 247 248
3 214 248 215
3 655 216 656
3 657 656 249
3 655 656 657
3 658 249 659
3 216 218 219
3 216 219 217
3 216 217 250
3 216 250 249
3 217 219 251
3 217 251 250
3 219 220 252
3 219 252 251
3 220 221 253
3 220 253 252
3 221 222 254
3 221 254 253
3 222 223 255
3 222 255 254
3 223 224 256
3 223 256 255
3 224 226 227
3 224 227 225
3 224 225 257
3 224 257 256
3 225 227 259
3 225 259 257
3 226 258 259
3 226 259 227
3 226 229 258
3 261 258 229
3 228 260 261
3 228 261 229
3 228 231 260
3 263 260 231
3 230 262 263
3 230 263 231
3 230 233 262
3 264 262 233
3 232 660 662
3 662 661 264
3 660 661 662
3 232 264 233
3 232 663 664
3 235 665 666
3 668 667 236
3 669 236 670
3 671 670 235
3 669 670 671
3 672 234 673
3 674 673 237
3 672 673 674
3 675 237 676
3 677 676 236
3 675 676 677
3 679 678 234
3 265 680 682
3 680 234 681
3 680 681 682
3 234 265 237
3 266 237 265
3 683 239 684
3 237 266 238
3 267 238 266
3 238 267 240
3 268 240 267
3 239 685 687
3 685 244 686
3 685 686 687
3 239 688 689
3 240 268 241
3 269 241 268
3 241 246 247
3 241 247 242
3 241 269 246
3 274 246 269
3 243 270 244
3 690 244 691
3 692 691 270
3 690 691 692
3 243 248 276
3 243 276 270
3 694 693 249
3 695 249 696
3 697 696 245
3 695 696 697
3 698 245 699
3 700 699 271
3 698 699 700
3 701 271 702
3 245 249 277
3 245 277 271
3 246 274 275
3 246 275 247
3 247 275 276
3 247 276 248
3 249 250 278
3 249 278 277
3 250 251 280
3 250 280 278
3 251 252 281
3 251 281 280
3 252 253 282
3 252 282 281
3 253 254 283
3 253 283 282
3 254 255 284
3 254 284 283
3 255 256 285
3 255 285 284
3 256 257 286
3 256 286 285
3 257 259 288
3 257 288 286
3 258 287 288
3 258 288 259
3 258 261 290
3 258 290 287
3 260 289 290
3 260 290 261
3 260 263 292
3 260 292 289
3 703 262 704
3 705 704 264
3 703 704 705
3 706 264 707
3 709 708 291
3 710 291 711
3 712 711 262
3 710 711 712
3 262 291 292
3 262 292 263
3 265 713 714
3 716 715 265
3 293 717 719
3 717 265 718
3 717 718 719
3 265 293 266
3 294 266 293
3 266 294 267
3 295 267 294
3 267 295 268
3 297 268 295
3 721 720 271
3 722 271 723
3 724 271 725
3 268 273 274
3 268 274 269
3 268 297 273
3 300 273 297
3 270 726 728
3 726 276 727
3 726 727 728
3 270 729 730
3 271 277 278
3 271 278 272
3 271 272 298
3 271 731 733
3 731 298 732
3 731 732 733
3 272 278 304
3 272 304 298
3 273 300 274
3 301 274 300
3 274 301 275
3 302 275 301
3 275 302 276
3 303 276 302
3 276 734 736
3 734 303 735
3 734 735 736
3 738 737 303
3 278 280 281
3 278 281 279
3 278 279 305
3 278 305 304
3 279 281 308
3 279 308 305
3 281 282 309
3 281 309 308
3 282 283 310
3 282 310 309
3 283 284 311
3 283 311 310
3 284 285 312
3 284 312 311
3 285 286 288
3 285 288 287
3 285 287 313
3 285 313 312
3 287 290 315
3 287 315 313
3 289 314 315
3 289 315 290
3 289 292 316
3 289 316 314
3 740 739 291
3 291 741 743
3 743 742 316
3 741 742 743
3 291 316 292
3 745 744 293
3 293 746 748
3 748 747 317
3 746 747 748
3 293 317 294
3 294 296 295
3 297 295 296
3 294 317 319
3 294 319 296
3 298 749 750
3 751 298 752
3 321 753 755
3 755 754 298
3 753 754 755
3 296 319 320
3 296 320 297
3 297 320 323
3 297 323 300
3 298 304 299
3 305 299 304
3 298 299 321
3 322 321 299
3 299 305 322
3 326 322 305
3 300 323 324
3 300 324 301
3 301 306 302
3 307 302 306
3 301 324 328
3 301 328 306
3 302 756 758
3 756 325 757
3 756 757 758
3 302 759 761
3 761 760 303
3 759 760 761
3 302 307 325
3 762 325 763
3 764 763 307
3 762 763 764
3 303 765 766
3 303 767 768
3 305 308 326
3 329 326 308
3 306 769 771
3 769 328 770
3 769 770 771
3 306 772 774
3 774 773 307
3 772 773 774
3 308 309 329
3 330 329 309
3 309 310 331
3 309 331 330
3 310 311 332
3 310 332 331
3 311 312 333
3 311 333 332
3 312 313 335
3 312 335 333
3 313 315 338
3 313 338 335
3 314 337 315
3 338 315 337
3 314 316 339
3 314 339 337
3 776 775 316
3 339 777 779
3 777 316 778
3 777 778 779
3 781 780 317
3 318 782 783
3 784 318 785
3 340 786 788
3 788 787 318
3 786 787 788
3 317 789 790
3 317 791 793
3 793 792 319
3 791 792 793
3 794 321 795
3 796 795 318
3 794 795 796
3 322 318 321
3 318 322 340
3 341 340 322
3 319 797 798
3 319 799 801
3 801 800 320
3 799 800 801
3 320 802 803
3 320 804 806
3 806 805 323
3 804 805 806
3 322 326 343
3 322 343 341
3 323 807 808
3 323 809 811
3 811 810 324
3 809 810 811
3 324 812 813
3 324 814 816
3 816 815 328
3 814 815 816
3 325 817 818
3 325 819 820
3 326 329 330
3 326 330 327
3 326 327 344
3 326 344 343
3 327 330 345
3 327 345 344
3 328 821 822
3 328 823 824
3 330 331 346
3 330 346 345
3 331 332 347
3 331 347 346
3 332 333 349
3 332 349 347
3 333 335 351
3 333 351 349
3 334 335 338
3 334 338 337
3 334 350 351
3 334 351 335
3 334 337 353
3 334 353 350
3 825 336 826
3 828 827 336
3 352 829 831
3 829 336 830
3 829 830 831
3 336 337 339
3 336 832 834
3 832 339 833
3 832 833 834
3 336 352 337
3 353 337 352
3 835 340 836
3 354 837 839
3 839 838 340
3 837 838 839
3 340 341 354
3 355 354 341
3 341 343 342
3 344 342 343
3 341 342 355
3 356 355 342
3 342 344 356
3 357 356 344
3 344 345 357
3 358 357 345
3 345 346 359
3 345 359 358
3 346 347 349
3 346 349 348
3 346 348 360
3 346 360 359
3 348 349 351
3 348 351 350
3 348 350 363
3 348 363 360
3 350 353 366
3 350 366 363
3 364 840 841
3 842 364 843
3 844 843 352
3 842 843 844
3 365 352 364
3 352 365 353
3 366 353 365
3 845 354 846
3 367 847 849
3 849 848 354
3 847 848 849
3 354 355 367
3 368 367 355
3 355 356 368
3 369 368 356
3 356 357 369
3 370 369 357
3 357 358 370
3 372 370 358
3 358 359 372
3 374 372 359
3 359 360 378
3 359 378 374
3 360 363 382
3 360 382 378
3 379 850 851
3 852 361 853
3 854 853 364
3 852 853 854
3 855 364 856
3 857 379 858
3 859 858 361
3 857 858 859
3 380 361 379
3 361 362 365
3 361 365 364
3 361 380 362
3 381 362 380
3 362 363 366
3 362 366 365
3 362 381 363
3 382 363 381
3 860 367 861
3 367 368 383
3 367 862 864
3 862 383 863
3 862 863 864
3 368 369 384
3 368 384 383
3 369 370 386
3 369 386 384
3 370 372 389
3 370 389 386
3 371 372 374
3 371 374 373
3 371 388 372
3 389 372 388
3 371 373 388
3 391 388 373
3 373 374 377
3 378 377 374
3 373 377 391
3 394 391 377
3 865 375 866
3 379 867 869
3 869 868 375
3 867 868 869
3 871 870 392
3 872 392 873
3 874 873 375
3 872 873 874
3 375 376 379
3 380 379 376
3 375 392 393
3 375 393 376
3 376 377 380
3 381 380 377
3 376 393 394
3 376 394 377
3 377 378 381
3 382 381 378
3 875 383 876
3 383 384 386
3 383 386 385
3 383 877 879
3 877 385 878
3 877 878 879
3 395 880 882
3 882 881 385
3 880 881 882
3 385 386 388
3 389 388 386
3 385 388 395
3 396 395 388
3 883 387 884
3 390 885 887
3 887 886 387
3 885 886 887
3 889 888 387
3 387 388 390
3 391 390 388
3 387 890 892
3 892 891 396
3 890 891 892
3 387 396 388
3 392 893 894
3 895 390 896
3 897 896 392
3 895 896 897
3 393 392 390
3 390 391 393
3 394 393 391
3 395 898 899
3 900 395 901
3 396 902 904
3 904 903 395
3 902 903 904
