ply
format ascii 1.0
element vertex 641
property float x
property float y
property float z
property uchar red
property uchar green
property uchar blue
element face 758
property list uchar int vertex_index
end_header
-12.098 -52.4608 -8.52963 176 255 79
-9.23866 -79.1948 -4.19519 255 236 0
-23.6157 -42.5891 -21.2388 23 255 232
-10.1921 -68.2119 -1.73032 205 255 50
-12.7174 -80.3136 1.10238 0 42 255
-12.3435 -59.8528 -12.9156 164 255 91
-18.0845 -48.3505 -14.5349 109 255 146
-18.3313 -53.3253 -18.1797 178 255 77
-24.0476 -45.1862 -24.3209 116 255 139
-10.0439 -64.7671 -7.4567 126 255 129
-7.82677 -75.2911 -9.48939 10 255 245
-21.82 -31.7383 -20.0565 188 0 0
-15.5749 -43.7935 -9.23959 223 255 32
-23.5564 -40.6202 -16.0885 72 255 183
-28.9102 -34.9684 -23.2641 0 234 255
-26.3173 -34.9257 -28.787 0 165 255
-12.6639 -64.3653 -13.9264 104 255 151
-15.0878 -56.8107 -15.5484 191 255 64
-16.2902 -60.7932 -16.3075 0 237 255
-10.9377 -73.6067 -3.32748 166 255 89
-10.1617 -66.6957 -4.65678 152 255 103
-9.67627 -71.9883 -6.01727 171 255 84
-9.13052 -69.886 -8.69178 123 255 132
-7.67094 -77.4968 -6.78655 192 255 63
-18.0044 -33.8511 -16.9532 106 255 149
-10.3503 -49.0609 -5.63445 0 251 255
-11.2643 -44.6427 -5.97437 0 192 255
-14.0187 -47.8465 -8.63015 182 255 73
-21.0869 -45.7016 -17.7875 59 255 196
-21.3243 -44.3478 -15.0982 59 255 196
-24.4009 -41.8451 -18.6196 21 255 234
-26.6841 -38.1207 -19.6475 2 255 253
-26.705 -38.7691 -22.2929 25 255 230
-28.0468 -35.1126 -26.108 70 255 185
-25.3961 -38.9971 -24.9019 13 255 242
-25.9098 -40.5829 -28.0959 0 113 255
-7.07721 -63.1941 0.656917 0 141 255
-11.8053 -74.6022 -0.507802 137 255 118
-11.3605 -80.2054 -1.61686 202 255 53
-12.4791 -55.912 -11.0997 152 255 103
-14.9799 -50.5771 -11.4619 148 255 107
-14.9305 -53.4057 -13.9373 140 255 115
-17.8155 -50.5258 -16.8372 89 255 166
-20.6702 -47.2449 -19.8863 16 255 239
-23.0687 -43.5692 -23.2011 0 210 255
-21.4657 -49.4348 -21.0309 144 255 111
-21.5712 -23.146 -24.4112 255 250 0
-9.54767 -54.1069 -5.6628 219 255 36
-8.43814 -61.7288 -2.49317 92 255 163
-9.51667 -60.04 -5.44517 186 255 69
-10.7186 -58.1069 -8.28486 152 255 103
-10.6232 -62.4849 -10.2075 128 255 127
-10.0984 -67.3687 -11.3695 158 255 97
-8.63445 -85.8545 -2.18658 138 255 117
-6.26527 -84.812 -4.78815 28 255 227
-18.1915 -26.2392 -22.5201 165 255 90
-25.12 -28.9306 -22.773 255 30 0
-15.6969 -39.7014 -10.8237 191 255 64
-17.7577 -46.3208 -11.7663 120 255 135
-19.7628 -42.4916 -12.6075 151 255 104
-19.9513 -38.4349 -14.3516 255 136 0
-23.7967 -36.5054 -17.7707 255 207 0
-26.9955 -33.8943 -21.0627 204 255 51
-29.3127 -30.6171 -24.3037 111 255 144
-30.0603 -31.1872 -26.9933 29 255 226
-28.3781 -30.9084 -30.0987 0 116 255
-24.766 -39.4996 -26.8517 0 177 255
-14.3922 -62.6512 -15.1323 55 255 200
-10.3437 -76.3893 -3.83441 219 255 36
-10.2874 -72.8672 -4.68144 178 255 77
-9.47802 -75.6276 -5.13825 222 255 33
-8.78223 -74.7242 -6.44436 192 255 63
-8.29883 -78.416 -5.47832 247 255 8
-11.4267 -50.7863 -7.09329 204 255 51
-12.1664 -48.4819 -7.12036 212 255 43
-13.0335 -50.0453 -8.55753 180 255 75
-22.431 -44.2047 -19.4874 38 255 217
-22.7994 -43.7035 -18.1983 47 255 208
-24.0974 -42.2315 -19.9728 37 255 218
-25.664 -40.3801 -20.4391 17 255 238
-25.2006 -40.6269 -21.7909 37 255 218
-26.0848 -38.8885 -23.652 44 255 211
-24.6108 -40.8534 -23.0431 15 255 240
-11.831 -74.856 0.965178 0 198 255
-12.375 -77.5826 0.249649 0 242 255
-11.9311 -77.3827 -1.15319 144 255 111
-12.1988 -80.3778 -0.278955 5 255 250
-12.4102 -57.8044 -12.1178 151 255 104
-13.6266 -54.702 -12.5138 150 255 105
-13.5684 -56.4615 -13.4937 155 255 100
-16.6869 -55.1223 -16.8528 189 255 66
-16.3849 -53.4814 -16.2404 133 255 122
-17.9134 -51.8373 -17.6348 108 255 147
-19.2764 -48.9353 -18.3357 52 255 203
-19.4291 -50.0929 -19.0705 78 255 177
-20.8696 -48.2524 -20.5718 48 255 207
-19.9456 -51.4268 -19.5616 162 255 93
-8.37812 -52.1458 -4.19495 0 185 255
-8.36241 -54.8747 -4.21935 1 255 254
-8.87534 -65.6491 -0.630276 108 255 147
-7.80743 -62.4869 -0.946453 43 255 212
-9.29026 -64.9492 -2.1753 238 255 17
-10.0619 -65.779 -6.06691 137 255 118
-9.78509 -63.3025 -5.12693 166 255 89
-10.0029 -62.3559 -6.55073 145 255 110
-10.0711 -59.1046 -6.87285 163 255 92
-10.3118 -61.3319 -7.95477 136 255 119
-10.7865 -60.2332 -9.34815 136 255 119
-10.2061 -63.6679 -8.83566 123 255 132
-8.45094 -72.5674 -9.10828 125 255 130
-9.40212 -68.6812 -10.0362 122 255 133
-8.97674 -71.3196 -10.4523 151 255 104
-9.97968 -69.9425 -11.7735 57 255 198
-8.70274 -73.991 -10.8442 0 157 255
-9.9826 -86.0195 -0.903833 24 255 231
-8.27447 -88.8155 -1.12686 0 122 255
-5.62522 -84.0168 -6.15549 0 171 255
-18.3004 -30.3072 -19.9574 143 255 112
-20.1558 -29.0884 -21.3031 255 116 0
-21.9014 -27.6972 -22.5151 128 0 0
-23.5508 -30.4173 -21.4526 233 0 0
-13.4201 -44.2639 -7.5967 84 255 171
-13.6566 -42.2057 -8.17766 42 255 213
-13.4916 -40.102 -9.02989 0 251 255
-15.8648 -41.7821 -9.89714 255 213 0
-16.5213 -49.5126 -12.9777 131 255 124
-16.3895 -48.3481 -11.5826 136 255 119
-18.0898 -47.36 -13.1613 112 255 143
-22.6405 -42.4999 -15.5162 43 255 212
-20.8443 -43.5194 -13.7809 78 255 177
-21.7266 -41.6316 -14.3354 112 255 143
-20.1257 -40.5195 -13.3597 242 255 13
-22.1126 -39.6587 -15.0999 206 255 49
-21.94 -37.5547 -16.0771 255 167 0
-23.9608 -38.6364 -16.84 165 255 90
-27.9227 -36.6261 -21.4471 0 237 255
-27.1196 -36.0925 -20.3048 77 255 178
-28.3724 -34.5687 -22.0335 39 255 216
-28.2783 -32.3359 -22.6798 153 255 102
-29.3718 -32.8807 -23.7736 15 255 240
-30.0966 -31.0364 -25.5427 12 255 243
-29.6265 -33.1527 -25.1085 0 250 255
-27.1473 -35.0154 -27.5102 70 255 185
-28.334 -33.0755 -28.0789 97 255 158
-27.3314 -32.8881 -29.5125 0 159 255
-23.3394 -44.2962 -23.8499 2 255 253
-24.0113 -41.5842 -24.9836 0 191 255
-24.3144 -42.1809 -25.6456 0 244 255
-30.6863 -26.9237 -29.2396 0 31 255
-12.3992 -62.0523 -13.5037 207 255 48
-13.6147 -58.3868 -14.2408 182 255 73
-13.8703 -60.4654 -14.7701 246 255 9
-15.5384 -58.7516 -16.0093 255 235 0
-17.3128 -56.9138 -17.2459 103 255 152
-19.105 -54.9615 -18.5174 12 255 243
-10.8985 -70.8718 -2.631 157 255 98
-10.237 -67.5084 -3.21445 174 255 81
-10.5692 -70.1538 -4.04945 152 255 103
-10.178 -69.3067 -5.43507 147 255 108
-9.85159 -68.3441 -6.80152 136 255 119
-9.71222 -67.2794 -8.16082 123 255 132
-9.24961 -70.9898 -7.35109 147 255 108
-8.40409 -73.7009 -7.76736 149 255 106
-7.4879 -76.455 -8.12738 146 255 109
-19.9606 -32.8848 -18.5604 255 166 0
-10.8577 -46.8027 -5.71793 6 255 249
-12.8789 -46.3323 -7.26245 225 255 30
-14.9157 -45.7902 -8.8333 190 255 65
-19.6227 -47.0823 -16.1372 84 255 171
-19.7544 -46.2622 -14.7902 87 255 168
-21.3388 -45.0455 -16.4698 65 255 190
-22.9433 -43.1662 -16.8375 36 255 219
-24.2844 -41.334 -17.2887 13 255 242
-25.2192 -39.4514 -17.8609 34 255 221
-25.7424 -40.0159 -19.0919 0 248 255
-26.9847 -38.542 -20.9211 0 241 255
-27.9863 -36.9115 -22.7754 0 250 255
-28.7277 -35.1267 -24.6589 19 255 236
-27.5034 -37.0123 -24.1813 44 255 211
-26.735 -37.0171 -25.5575 56 255 199
-25.9633 -37.0205 -26.8165 13 255 242
-25.1318 -46.201 -24.6909 0 238 255
-25.0672 -42.9297 -26.1534 111 255 144
-26.1881 -43.7903 -26.5826 0 162 255
-9.95818 -68.8082 -0.200268 0 245 255
-10.6107 -72.233 1.87682 0 84 255
-10.9692 -71.901 0.334237 34 255 221
-11.0564 -71.453 -1.1703 170 255 85
-11.4832 -74.188 -1.93928 148 255 107
-11.2136 -76.9819 -2.51202 187 255 68
-10.3197 -79.8026 -2.91621 255 254 0
-12.4168 -54.1481 -9.88633 160 255 95
-13.4979 -51.5556 -9.98192 162 255 93
-13.652 -53.0845 -11.3247 154 255 101
-15.006 -51.9417 -12.7839 143 255 112
-16.447 -50.7096 -14.2697 125 255 130
-14.9133 -55.0223 -14.8653 150 255 105
-16.3461 -52.0153 -15.3754 119 255 136
-17.9281 -49.38 -15.788 98 255 157
-19.3952 -47.9474 -17.3454 67 255 188
-20.7942 -46.4091 -18.9498 34 255 221
-22.0768 -44.764 -20.6092 4 255 251
-23.2038 -43.0114 -22.3307 0 235 255
-21.9469 -45.4559 -21.5042 0 237 255
-22.1848 -46.3197 -22.1601 22 255 233
-22.8433 -47.3541 -22.613 128 255 127
-20.8363 -52.9065 -19.8664 5 255 250
-22.4437 -50.7586 -21.3311 0 252 255
-23.8832 -48.5232 -22.9368 0 244 255
-23.0416 -21.4097 -25.2511 0 244 255
-24.9294 -24.4624 -24.698 205 255 50
-9.87713 -51.4799 -5.64434 70 255 185
-10.7853 -53.3067 -7.09437 194 255 61
-7.72075 -58.6057 -2.67983 0 192 255
-9.57383 -64.1677 -3.67195 198 255 57
-8.99251 -60.9143 -3.98941 221 255 34
-8.57089 -57.8033 -4.16544 74 255 181
-9.42467 -56.963 -5.61451 204 255 51
-10.3242 -56.0785 -7.04192 180 255 75
-11.3113 -55.1429 -8.46185 167 255 88
-11.5111 -57.0444 -9.69148 150 255 105
-11.479 -59.059 -10.7356 143 255 112
-11.3351 -61.2157 -11.5697 144 255 111
-9.85841 -66.121 -9.51799 118 255 137
-10.3508 -64.8692 -10.8687 131 255 124
-11.2062 -63.5168 -12.2014 164 255 91
-11.2044 -65.9349 -12.6715 220 255 35
-11.4093 -68.4172 -13.045 0 202 255
-11.3554 -83.201 -0.646494 0 239 255
-10.2017 -83.0366 -1.93876 255 238 0
-8.9561 -82.6254 -3.20857 255 200 0
-7.32842 -85.437 -3.47192 55 255 200
-7.80828 -82.0059 -4.48214 255 213 0
-6.94777 -81.217 -5.78544 241 255 14
-6.53274 -80.2864 -7.13308 38 255 217
-6.66636 -79.2225 -8.51971 0 135 255
-19.9446 -24.7641 -23.5217 255 225 0
-23.5032 -26.1491 -23.6303 173 0 0
-26.4956 -27.2908 -24.0538 227 255 28
-15.039 -37.5206 -12.0079 54 255 201
-14.6937 -49.2383 -10.0504 158 255 97
-15.8913 -47.1325 -10.1758 151 255 104
-16.9443 -45.1524 -10.4397 153 255 102
-19.5821 -45.3965 -13.4068 88 255 167
-18.9328 -44.4001 -12.0881 116 255 139
-17.7003 -43.2083 -10.9088 188 255 67
-18.0321 -41.2245 -11.6245 255 238 0
-17.8602 -39.1488 -12.5988 255 115 0
-17.1641 -36.9544 -13.8156 159 255 96
-19.2288 -36.2143 -15.5636 255 242 0
-21.2054 -35.2988 -17.2454 255 22 0
-23.0651 -34.2081 -18.8578 255 61 0
-25.6396 -37.4485 -18.5753 121 255 134
-25.4918 -35.2852 -19.4309 255 255 0
-24.778 -32.9437 -20.4044 255 109 0
-26.3127 -31.5094 -21.899 255 163 0
-27.6383 -29.9123 -23.3654 255 219 0
-28.7262 -28.1638 -24.836 0 251 255
-30.0765 -28.7489 -25.9604 0 155 255
-30.5343 -29.0465 -27.3596 0 177 255
-30.2126 -29.0828 -28.9312 0 143 255
-29.1975 -33.1931 -26.5795 54 255 201
-29.3961 -31.1192 -28.5465 0 221 255
-24.1477 -41.1508 -24.1191 0 218 255
-24.8933 -39.1814 -25.9768 0 206 255
-25.4396 -37.103 -27.9028 0 196 255
-25.1084 -39.972 -27.5417 0 145 255
-25.3398 -37.3145 -28.7991 0 53 255
-25.8011 -34.9164 -29.8922 0 25 255
-12.5462 -78.9481 0.676013 0 0 176
-12.4268 -77.5885 0.969804 0 0 156
-12.598 -78.954 1.39617 0 0 156
-7.78348 -55.2485 -3.48315 0 0 143
-7.64106 -53.8389 -3.4733 0 0 143
-8.07131 -90.13 -0.573793 0 0 143
-8.9651 -88.7486 -0.46672 0 0 143
-26.3982 -33.8209 -29.7991 0 0 153
-26.9052 -32.8021 -30.1619 0 0 153
-26.8244 -33.9069 -29.1498 0 0 172
-30.6215 -26.8342 -28.4574 0 0 134
-30.7201 -25.7709 -29.3527 0 0 134
-17.2733 -59.7972 -16.8985 0 0 179
-17.7847 -57.8575 -17.3677 0 0 179
-16.8015 -58.8535 -16.7767 0 0 211
-17.1868 -32.5962 -17.7052 0 0 161
-16.1989 -33.0166 -16.8755 0 0 161
-18.9825 -33.3679 -17.7568 0 0 251
-18.1649 -32.1131 -18.5088 0 0 206
-17.1868 -32.5962 -17.7052 0 0 206
-10.604 -47.9318 -5.67619 0 0 199
-9.86283 -47.0164 -4.9533 0 0 171
-9.60912 -48.1455 -4.91157 0 0 171
-26.3249 -45.5372 -25.8173 0 0 173
-25.6599 -44.9957 -25.6368 0 0 202
-25.7968 -46.7425 -24.8715 0 0 173
-9.73145 -69.0584 0.586841 0 0 143
-9.12896 -67.5415 0.382394 0 0 143
-11.0774 -73.6047 2.1725 0 0 141
-10.3072 -72.3574 2.6625 0 0 141
-20.5172 -54.7984 -19.2972 0 0 177
-19.9707 -53.934 -19.1919 0 0 207
-19.6515 -55.8259 -18.6227 0 0 177
-23.0783 -51.4631 -21.4487 0 0 146
-22.24 -52.6171 -20.7023 0 0 146
-23.7981 -50.3455 -22.2516 0 0 175
-23.1634 -49.6409 -22.1339 0 0 205
-23.0783 -51.4631 -21.4487 0 0 175
-24.5376 -49.1469 -23.0817 0 0 146
-23.7981 -50.3455 -22.2516 0 0 146
-22.3064 -22.2778 -24.8311 0 0 253
-21.2416 -20.6506 -25.1573 0 0 207
-20.5064 -21.5187 -24.7373 0 0 207
-6.49993 -61.6572 0.55546 0 0 149
-6.02244 -62.0185 1.38901 0 0 149
-7.64035 -60.5524 -1.81847 0 0 173
-7.325 -60.9315 -1.04511 0 0 173
-8.12278 -62.1078 -1.71981 0 0 201
-8.07944 -60.1672 -2.5865 0 0 204
-7.28166 -58.9909 -1.9118 0 0 175
-7.64035 -60.5524 -1.81847 0 0 175
-10.7419 -70.475 -12.6006 0 0 171
-10.6945 -69.1799 -12.4092 0 0 199
-10.0271 -71.2376 -11.9648 0 0 171
-11.6336 -69.6569 -13.2208 0 0 148
-10.7419 -70.475 -12.6006 0 0 148
-11.27 -84.5475 -0.122264 0 0 139
-11.8065 -83.1477 0.019376 0 0 139
-6.79685 -85.1245 -4.13003 0 0 205
-6.49112 -86.835 -3.63795 0 0 175
-5.95955 -86.5225 -4.29607 0 0 175
-6.03586 -81.6782 -7.35433 0 0 163
-6.07898 -82.1516 -6.64428 0 0 187
-5.5821 -83.5434 -6.86554 0 0 163
-6.10267 -81.1462 -8.04765 0 0 162
-6.59955 -79.7545 -7.8264 0 0 186
-6.03586 -81.6782 -7.35433 0 0 162
-16.2095 -25.4052 -22.5928 0 0 165
-17.2687 -26.8936 -21.9378 0 0 165
-17.1228 -24.697 -23.0734 0 0 165
-16.2095 -25.4052 -22.5928 0 0 165
-19.068 -25.5016 -23.0209 0 6 255
-17.9994 -23.9595 -23.5742 0 0 213
-17.1228 -24.697 -23.0734 0 0 213
-10.248 -43.6923 -5.36455 0 0 145
-10.1967 -44.8015 -5.17004 0 0 145
-14.2889 -38.8097 -10.4858 0 0 187
-13.1862 -39.01 -9.58886 0 0 187
-14.5942 -39.9017 -9.92679 0 0 223
-15.368 -38.611 -11.4158 0 0 225
-13.96 -37.7193 -11.0779 0 0 188
-14.2889 -38.8097 -10.4858 0 0 188
-28.8585 -29.9114 -30.3326 0 0 158
-29.3675 -30.0168 -29.5565 0 0 158
-28.8871 -31.0138 -29.3226 0 0 180
-28.2938 -29.7638 -31.1336 0 0 138
-28.8585 -29.9114 -30.3326 0 0 138
-25.5482 -36.1721 -29.8063 0 0 129
-25.5388 -37.4916 -29.1613 0 0 129
-25.7789 -34.973 -30.3528 0 0 140
-25.5704 -36.1154 -29.3457 0 0 152
-25.5482 -36.1721 -29.8063 0 0 140
-25.9049 -33.7704 -30.914 0 0 128
-25.7789 -34.973 -30.3528 0 0 128
-13.7859 -64.6905 -14.6922 0 0 177
-13.5281 -63.5083 -14.5293 0 0 207
-12.9218 -65.5476 -14.0893 0 0 177
-14.7884 -63.764 -15.2669 0 0 149
-13.7859 -64.6905 -14.6922 0 0 149
-15.7374 -62.8349 -15.8545 0 0 181
-15.3412 -61.7222 -15.7199 0 0 214
-14.7884 -63.764 -15.2669 0 0 181
-16.8009 -61.8297 -16.4162 0 0 151
-15.7374 -62.8349 -15.8545 0 0 151
-16.9925 -34.242 -16.0942 0 0 161
-16.1989 -33.0166 -16.8755 0 0 161
-12.1548 -76.2252 1.32757 0 0 137
-11.6876 -74.9161 1.71668 0 0 137
-12.103 -76.2193 0.607414 0 0 177
-12.1548 -76.2252 1.32757 0 0 156
-12.4268 -77.5885 0.969804 0 0 156
-19.687 -22.3652 -24.4078 0 0 163
-20.5064 -21.5187 -24.7373 0 0 163
-7.64892 -52.4745 -3.4611 0 0 144
-7.61293 -51.1485 -3.4351 0 0 144
-8.37026 -53.5102 -4.20715 0 0 201
-7.64892 -52.4745 -3.4611 0 0 173
-7.64106 -53.8389 -3.4733 0 0 173
-9.38864 -73.2619 -11.5001 0 0 171
-10.0271 -71.2376 -11.9648 0 0 171
-9.34121 -71.9667 -11.3088 0 0 198
-9.81917 -87.3507 -0.355205 0 0 141
-10.5837 -85.9568 -0.250934 0 0 141
-9.12853 -87.4175 -1.01535 0 0 199
-9.81917 -87.3507 -0.355205 0 0 171
-8.9651 -88.7486 -0.46672 0 0 171
-5.53795 -86.2092 -4.99951 0 0 144
-5.95955 -86.5225 -4.29607 0 0 144
-5.21792 -85.8116 -5.68318 0 0 170
-5.94525 -84.4144 -5.47182 0 0 197
-5.53795 -86.2092 -4.99951 0 0 170
-5.06288 -85.4084 -6.41673 0 0 141
-5.21792 -85.8116 -5.68318 0 0 141
-5.5821 -83.5434 -6.86554 0 0 140
-5.06288 -85.4084 -6.41673 0 0 140
-17.3232 -28.9276 -20.6565 0 0 163
-16.3719 -29.4889 -19.9762 0 0 163
-18.2508 -28.3182 -21.3293 0 0 210
-17.3232 -28.9276 -20.6565 0 0 210
-19.2281 -29.6978 -20.6303 0 3 255
-19.1736 -27.6638 -21.9116 0 1 255
-17.2687 -26.8936 -21.9378 0 0 209
-18.2508 -28.3182 -21.3293 0 0 209
-12.4287 -43.3899 -7.03048 0 0 173
-11.3508 -43.5793 -6.21931 0 0 173
-12.3422 -44.4533 -6.78554 0 0 201
-12.5469 -42.3608 -7.32096 0 0 173
-12.4287 -43.3899 -7.03048 0 0 173
-13.5383 -43.2348 -7.88718 0 0 202
-12.4649 -41.2863 -7.6987 0 0 147
-12.5469 -42.3608 -7.32096 0 0 147
-13.5741 -41.1538 -8.60378 0 0 211
-12.3824 -40.2345 -8.12481 0 0 179
-12.4649 -41.2863 -7.6987 0 0 179
-27.3222 -31.7645 -30.5384 0 0 158
-27.8456 -30.7747 -30.8315 0 0 158
-27.8547 -31.8983 -29.8056 0 0 180
-27.3222 -31.7645 -30.5384 0 0 134
-26.9052 -32.8021 -30.1619 0 0 134
-25.8237 -39.1259 -28.8097 0 0 134
-26.2557 -39.3648 -29.1091 0 0 134
-12.7888 -80.1738 1.80869 0 0 134
-12.598 -78.954 1.39617 0 0 134
-30.6285 -25.8018 -30.2151 0 0 136
-30.7201 -25.7709 -29.3527 0 0 136
-30.3935 -26.8871 -30.0847 0 0 136
-30.6285 -25.8018 -30.2151 0 0 136
-18.6808 -56.8813 -18.0034 0 0 176
-18.2089 -55.9377 -17.8816 0 0 207
-17.7847 -57.8575 -17.3677 0 0 176
-19.6515 -55.8259 -18.6227 0 0 147
-18.6808 -56.8813 -18.0034 0 0 147
-17.2733 -59.7972 -16.8985 0 0 150
-16.8009 -61.8297 -16.4162 0 0 150
-17.3348 -30.8243 -19.2073 0 0 164
-16.3719 -29.4889 -19.9762 0 0 164
-19.1305 -31.596 -19.2589 0 0 249
-17.3348 -30.8243 -19.2073 0 0 205
-18.1649 -32.1131 -18.5088 0 0 205
-9.99346 -45.8815 -5.04183 0 0 144
-9.86283 -47.0164 -4.9533 0 0 144
-11.061 -45.7227 -5.84615 0 0 201
-10.1967 -44.8015 -5.17004 0 0 173
-9.99346 -45.8815 -5.04183 0 0 173
-26.8613 -44.2486 -26.8003 0 0 145
-26.3249 -45.5372 -25.8173 0 0 145
-26.6297 -42.5406 -27.5836 0 0 144
-26.8613 -44.2486 -26.8003 0 0 144
-26.4906 -40.9369 -28.3403 0 0 164
-26.0489 -42.1866 -27.3392 0 0 188
-26.6297 -42.5406 -27.5836 0 0 164
-26.2557 -39.3648 -29.1091 0 0 139
-26.4906 -40.9369 -28.3403 0 0 139
-6.66371 -63.5261 1.48812 0 0 148
-6.02244 -62.0185 1.38901 0 0 148
-7.68848 -64.7344 0.810987 0 0 148
-6.66371 -63.5261 1.48812 0 0 148
-8.58755 -65.9619 0.16739 0 0 174
-7.97628 -64.4216 0.013321 0 0 203
-7.68848 -64.7344 0.810987 0 0 174
-9.41676 -67.2287 -0.415272 0 0 203
-8.58755 -65.9619 0.16739 0 0 174
-9.12896 -67.5415 0.382394 0 0 174
-9.72644 -70.9834 2.43208 0 0 141
-10.3072 -72.3574 2.6625 0 0 141
-10.0577 -70.7708 1.62539 0 0 144
-9.72644 -70.9834 2.43208 0 0 144
-11.2208 -73.5445 1.421 0 0 183
-11.0774 -73.6047 2.1725 0 0 161
-11.6876 -74.9161 1.71668 0 0 161
-10.237 -70.6048 0.854093 0 0 166
-10.0577 -70.7708 1.62539 0 0 166
-10.7899 -72.067 1.10553 0 0 191
-10.4637 -70.3546 0.066985 0 0 196
-9.73145 -69.0584 0.586841 0 0 169
-10.237 -70.6048 0.854093 0 0 169
-21.4363 -53.691 -19.97 0 0 147
-20.5172 -54.7984 -19.2972 0 0 147
-21.64 -51.8325 -20.5987 0 0 206
-21.4363 -53.691 -19.97 0 0 176
-22.24 -52.6171 -20.7023 0 0 176
-25.1618 -47.9858 -23.9588 0 0 174
-24.5075 -47.3621 -23.8139 0 0 203
-24.5376 -49.1469 -23.0817 0 0 174
-25.7968 -46.7425 -24.8715 0 0 145
-25.1618 -47.9858 -23.9588 0 0 145
-21.9929 -19.7579 -25.4644 0 0 161
-21.2416 -20.6506 -25.1573 0 0 161
-23.6865 -20.4945 -25.6786 0 0 160
-21.9929 -19.7579 -25.4644 0 0 160
-24.5973 -22.0336 -25.5122 0 0 155
-23.6865 -20.4945 -25.6786 0 0 155
-25.5412 -23.56 -25.2357 0 0 196
-24.5973 -22.0336 -25.5122 0 0 196
-23.9855 -22.9361 -24.9746 0 0 237
-26.2893 -24.988 -25.0183 0 0 151
-25.5412 -23.56 -25.2357 0 0 151
-9.46352 -49.3347 -4.89635 0 0 143
-9.60912 -48.1455 -4.91157 0 0 143
-8.47743 -50.8772 -4.1766 0 0 145
-7.61293 -51.1485 -3.4351 0 0 145
-9.22694 -50.5443 -4.9013 0 0 168
-8.47743 -50.8772 -4.1766 0 0 168
-9.12762 -51.8129 -4.91965 0 0 195
-10.1137 -50.2704 -5.6394 0 0 198
-9.46352 -49.3347 -4.89635 0 0 171
-9.22694 -50.5443 -4.9013 0 0 171
-6.86504 -61.3036 -0.246225 0 0 177
-6.49993 -61.6572 0.55546 0 0 177
-7.44232 -62.8405 -0.144768 0 0 207
-6.86504 -61.3036 -0.246225 0 0 147
-7.325 -60.9315 -1.04511 0 0 147
-6.88874 -57.483 -1.95392 0 0 145
-7.28166 -58.9909 -1.9118 0 0 145
-7.46265 -57.114 -2.71339 0 0 146
-6.88874 -57.483 -1.95392 0 0 146
-7.88772 -56.7128 -3.45619 0 0 170
-7.46265 -57.114 -2.71339 0 0 170
-8.14582 -58.2045 -3.42264 0 0 197
-8.46665 -56.339 -4.1924 0 0 200
-7.78348 -55.2485 -3.48315 0 0 172
-7.88772 -56.7128 -3.45619 0 0 172
-12.2944 -67.5735 -13.6486 0 0 177
-12.9218 -65.5476 -14.0893 0 0 177
-12.0366 -66.3913 -13.4857 0 0 208
-12.2944 -67.5735 -13.6486 0 0 147
-11.6336 -69.6569 -13.2208 0 0 147
-12.7592 -81.5155 1.58058 0 0 134
-12.7888 -80.1738 1.80869 0 0 134
-12.4875 -81.704 0.893811 0 0 135
-12.7592 -81.5155 1.58058 0 0 135
-12.2282 -81.7361 0.203146 0 0 157
-12.4581 -80.3457 0.41171 0 0 178
-12.4875 -81.704 0.893811 0 0 157
-11.7771 -81.7894 -0.462724 0 0 184
-12.2282 -81.7361 0.203146 0 0 161
-11.8065 -83.1477 0.019376 0 0 161
-10.669 -84.6103 -0.775164 0 0 193
-11.27 -84.5475 -0.122264 0 0 167
-10.5837 -85.9568 -0.250934 0 0 167
-7.3595 -90.2008 -1.26777 0 0 144
-8.07131 -90.13 -0.573793 0 0 144
-7.57398 -88.7331 -1.78852 0 0 146
-7.3595 -90.2008 -1.26777 0 0 146
-7.75397 -87.2526 -2.31838 0 0 176
-8.45446 -87.335 -1.65672 0 0 206
-7.57398 -88.7331 -1.78852 0 0 176
-7.10096 -87.0438 -2.96105 0 0 146
-6.49112 -86.835 -3.63795 0 0 146
-7.98144 -85.6457 -2.82925 0 0 208
-7.75397 -87.2526 -2.31838 0 0 177
-7.10096 -87.0438 -2.96105 0 0 177
-6.36821 -80.5954 -8.77283 0 0 140
-6.10267 -81.1462 -8.04765 0 0 140
-7.02594 -78.6187 -9.21901 0 0 140
-6.36821 -80.5954 -8.77283 0 0 140
-7.60614 -76.653 -9.70385 0 0 163
-7.24656 -77.2568 -9.00455 0 0 186
-7.02594 -78.6187 -9.21901 0 0 163
-8.04413 -76.0029 -10.3812 0 0 163
-8.26475 -74.6411 -10.1668 0 0 187
-7.60614 -76.653 -9.70385 0 0 163
-8.68287 -75.3158 -11.066 0 0 143
-8.04413 -76.0029 -10.3812 0 0 143
-9.38864 -73.2619 -11.5001 0 0 143
-8.68287 -75.3158 -11.066 0 0 143
-18.8737 -23.1743 -23.9631 0 0 164
-17.9994 -23.9595 -23.5742 0 0 164
-20.7579 -23.955 -23.9665 0 3 255
-19.687 -22.3652 -24.4078 0 0 210
-18.8737 -23.1743 -23.9631 0 0 210
-27.0724 -26.4022 -24.6962 0 0 187
-26.2893 -24.988 -25.0183 0 0 187
-25.7125 -25.8766 -24.3759 0 0 223
-10.248 -43.6923 -5.36455 0 0 145
-11.3508 -43.5793 -6.21931 0 0 145
-12.1038 -39.1302 -8.63619 0 0 151
-12.3824 -40.2345 -8.12481 0 0 151
-12.1038 -39.1302 -8.63619 0 0 152
-13.1862 -39.01 -9.58886 0 0 152
-13.4373 -36.5796 -11.7542 0 0 157
-13.96 -37.7193 -11.0779 0 0 157
-14.4776 -36.3746 -12.7109 0 0 157
-13.4373 -36.5796 -11.7542 0 0 157
-15.5401 -36.0915 -13.6147 0 0 198
-14.4776 -36.3746 -12.7109 0 0 198
-16.1016 -37.2375 -12.9117 0 0 240
-16.5724 -35.7937 -14.5254 0 0 157
-15.5401 -36.0915 -13.6147 0 0 157
-17.6047 -35.4236 -15.3994 0 0 198
-16.5724 -35.7937 -14.5254 0 0 198
-18.1965 -36.5843 -14.6896 0 0 239
-18.6166 -35.0327 -16.2584 0 0 239
-16.9925 -34.242 -16.0942 0 0 198
-17.6047 -35.4236 -15.3994 0 0 198
-28.1877 -26.8387 -25.0873 0 0 175
-27.0724 -26.4022 -24.6962 0 0 175
-27.6109 -27.7273 -24.4449 0 0 205
-29.1401 -27.2208 -25.5908 0 0 144
-28.1877 -26.8387 -25.0873 0 0 144
-29.8153 -27.5134 -26.153 0 0 160
-29.1401 -27.2208 -25.5908 0 0 160
-29.4014 -28.4563 -25.3982 0 0 183
-30.3166 -27.7468 -26.8177 0 0 137
-29.8153 -27.5134 -26.153 0 0 137
-30.5455 -27.8956 -27.5173 0 0 151
-30.3166 -27.7468 -26.8177 0 0 151
-30.3054 -28.8977 -26.66 0 0 168
-30.6103 -27.9851 -28.2996 0 0 171
-30.6215 -26.8342 -28.4574 0 0 153
-30.5455 -27.8956 -27.5173 0 0 153
-30.1567 -27.9667 -29.9305 0 0 156
-30.3935 -26.8871 -30.0847 0 0 156
-30.4494 -28.0032 -29.0854 0 0 176
-29.7758 -28.9986 -29.7489 0 0 157
-29.8043 -30.101 -28.7388 0 0 178
-29.3675 -30.0168 -29.5565 0 0 157
-30.1567 -27.9667 -29.9305 0 0 137
-29.7758 -28.9986 -29.7489 0 0 137
-28.2938 -29.7638 -31.1336 0 0 137
-27.8456 -30.7747 -30.8315 0 0 137
-25.4231 -38.8204 -28.5326 0 0 152
-25.5091 -40.2775 -27.8188 0 0 170
-25.8237 -39.1259 -28.8097 0 0 152
-25.2241 -38.6433 -28.1704 0 0 156
-25.4231 -38.8204 -28.5326 0 0 142
-25.5388 -37.4916 -29.1613 0 0 142
-26.14 -33.8162 -30.3517 0 0 145
-26.3982 -33.8209 -29.7991 0 0 145
-26.0592 -34.9211 -29.3396 0 0 160
-26.14 -33.8162 -30.3517 0 0 130
-25.9049 -33.7704 -30.914 0 0 130
3 1 70 68
3 1 72 70
3 0 75 73
3 2 78 76
3 2 80 78
3 2 82 80
3 4 269 271
3 269 84 270
3 269 270 271
3 4 86 84
3 5 89 87
3 7 92 90
3 7 94 92
3 7 96 94
3 272 98 273
3 3 101 99
3 9 104 102
3 9 106 104
3 9 108 106
3 10 111 109
3 10 113 111
3 274 115 275
3 11 118 117
3 11 120 118
3 12 122 121
3 12 124 122
3 6 127 125
3 13 130 128
3 13 132 130
3 13 134 132
3 14 137 135
3 14 139 137
3 14 141 139
3 15 144 142
3 15 276 278
3 278 277 144
3 276 277 278
3 8 147 145
3 279 148 280
3 16 151 149
3 18 152 67
3 18 153 152
3 18 281 283
3 283 282 153
3 281 282 283
3 19 157 155
3 21 158 69
3 21 159 158
3 21 161 159
3 23 162 71
3 23 163 162
3 24 284 285
3 24 286 288
3 286 164 287
3 286 287 288
3 25 289 291
3 289 165 290
3 289 290 291
3 27 166 74
3 27 167 166
3 28 170 168
3 30 171 77
3 30 172 171
3 30 174 172
3 32 175 79
3 32 176 175
3 32 178 176
3 34 179 81
3 34 180 179
3 292 183 293
3 294 293 181
3 292 293 294
3 295 184 296
3 297 185 298
3 37 186 83
3 37 187 186
3 37 188 187
3 38 189 85
3 38 190 189
3 39 193 191
3 41 194 88
3 41 195 194
3 17 196 150
3 42 197 91
3 42 198 197
3 42 199 198
3 43 200 93
3 43 201 200
3 43 203 201
3 45 204 95
3 45 205 204
3 299 206 300
3 301 300 154
3 299 300 301
3 302 207 303
3 304 208 305
3 306 305 207
3 304 305 306
3 308 307 208
3 46 309 311
3 309 209 310
3 309 310 311
3 46 210 209
3 47 211 97
3 47 212 211
3 36 312 313
3 48 314 316
3 316 315 100
3 314 315 316
3 48 317 319
3 317 213 318
3 317 318 319
3 20 214 156
3 49 215 103
3 49 216 215
3 49 217 216
3 50 218 105
3 50 219 218
3 50 220 219
3 51 221 107
3 51 222 221
3 22 223 160
3 52 224 110
3 52 225 224
3 52 226 225
3 320 227 321
3 322 321 112
3 320 321 322
3 324 323 227
3 325 228 326
3 53 229 114
3 53 230 229
3 54 327 329
3 327 231 328
3 327 328 329
3 54 232 231
3 54 233 232
3 330 234 331
3 332 331 116
3 330 331 332
3 333 235 334
3 335 334 234
3 333 334 335
3 55 336 337
3 55 338 339
3 55 340 342
3 340 236 341
3 340 341 342
3 56 237 119
3 56 238 237
3 26 343 344
3 57 345 347
3 347 346 123
3 345 346 347
3 57 348 350
3 348 239 349
3 348 349 350
3 40 240 192
3 58 241 126
3 58 242 241
3 29 243 169
3 59 244 129
3 59 245 244
3 59 246 245
3 60 247 131
3 60 248 247
3 60 249 248
3 61 250 133
3 61 251 250
3 31 252 173
3 62 253 136
3 62 254 253
3 62 255 254
3 63 256 138
3 63 257 256
3 63 258 257
3 64 259 140
3 64 260 259
3 33 261 177
3 65 262 143
3 65 351 353
3 353 352 262
3 351 352 353
3 65 354 355
3 44 263 202
3 66 264 146
3 66 265 264
3 35 266 182
3 356 267 357
3 358 268 359
3 360 359 267
3 358 359 360
3 362 361 268
3 363 67 364
3 365 364 16
3 363 364 365
3 366 67 367
3 368 18 369
3 370 369 67
3 368 369 370
3 372 371 18
3 68 69 19
3 70 69 68
3 70 21 69
3 70 71 21
3 72 71 70
3 72 23 71
3 373 24 374
3 73 74 25
3 75 74 73
3 75 27 74
3 76 77 28
3 78 77 76
3 78 30 77
3 78 79 30
3 80 79 78
3 80 32 79
3 80 81 32
3 82 81 80
3 82 34 81
3 375 83 376
3 84 377 379
3 377 83 378
3 377 378 379
3 84 37 83
3 84 85 37
3 86 85 84
3 86 38 85
3 87 88 39
3 89 88 87
3 89 41 88
3 90 91 17
3 92 91 90
3 92 42 91
3 92 93 42
3 94 93 92
3 94 43 93
3 94 95 43
3 96 95 94
3 96 45 95
3 380 46 381
3 382 97 383
3 98 384 386
3 384 97 385
3 384 385 386
3 98 47 97
3 99 100 36
3 101 100 99
3 101 48 100
3 102 103 20
3 104 103 102
3 104 49 103
3 104 105 49
3 106 105 104
3 106 50 105
3 106 107 50
3 108 107 106
3 108 51 107
3 109 110 22
3 111 110 109
3 111 52 110
3 111 112 52
3 113 112 111
3 113 387 389
3 389 388 112
3 387 388 389
3 390 114 391
3 115 392 394
3 392 114 393
3 392 393 394
3 115 53 114
3 395 54 396
3 397 116 398
3 399 398 54
3 397 398 399
3 400 116 401
3 403 402 116
3 117 404 405
3 118 406 408
3 408 407 117
3 406 407 408
3 118 409 411
3 409 55 410
3 409 410 411
3 118 119 55
3 120 119 118
3 120 56 119
3 121 412 414
3 414 413 26
3 412 413 414
3 122 415 417
3 417 416 121
3 415 416 417
3 122 418 419
3 122 420 422
3 420 123 421
3 420 421 422
3 124 123 122
3 124 57 123
3 125 126 40
3 127 126 125
3 127 58 126
3 128 129 29
3 130 129 128
3 130 59 129
3 130 131 59
3 132 131 130
3 132 60 131
3 132 133 60
3 134 133 132
3 134 61 133
3 135 136 31
3 137 136 135
3 137 62 136
3 137 138 62
3 139 138 137
3 139 63 138
3 139 140 63
3 141 140 139
3 141 64 140
3 142 143 33
3 144 143 142
3 144 65 143
3 144 423 425
3 425 424 65
3 423 424 425
3 427 426 144
3 145 146 44
3 147 146 145
3 147 66 146
3 429 428 35
3 430 4 431
3 148 432 433
3 148 434 435
3 149 150 5
3 151 150 149
3 151 17 150
3 67 151 16
3 152 151 67
3 152 17 151
3 152 90 17
3 153 90 152
3 153 7 90
3 153 154 7
3 436 154 437
3 438 437 153
3 436 437 438
3 440 439 154
3 442 441 18
3 155 156 3
3 157 156 155
3 157 20 156
3 69 157 19
3 158 157 69
3 158 20 157
3 158 102 20
3 159 102 158
3 159 9 102
3 159 160 9
3 161 160 159
3 161 22 160
3 71 161 21
3 162 161 71
3 162 22 161
3 162 109 22
3 163 109 162
3 163 10 109
3 443 117 444
3 164 445 447
3 445 117 446
3 445 446 447
3 164 11 117
3 165 448 449
3 165 450 452
3 450 26 451
3 450 451 452
3 74 165 25
3 166 165 74
3 166 26 165
3 166 121 26
3 167 121 166
3 167 12 121
3 168 169 6
3 170 169 168
3 170 29 169
3 77 170 28
3 171 170 77
3 171 29 170
3 171 128 29
3 172 128 171
3 172 13 128
3 172 173 13
3 174 173 172
3 174 31 173
3 79 174 30
3 175 174 79
3 175 31 174
3 175 135 31
3 176 135 175
3 176 14 135
3 176 177 14
3 178 177 176
3 178 33 177
3 81 178 32
3 179 178 81
3 179 33 178
3 179 142 33
3 180 142 179
3 180 15 142
3 181 182 8
3 183 182 181
3 183 35 182
3 453 183 454
3 455 183 456
3 457 35 458
3 459 458 183
3 457 458 459
3 461 460 35
3 462 36 463
3 464 36 465
3 466 99 467
3 468 467 36
3 466 467 468
3 184 469 471
3 469 99 470
3 469 470 471
3 184 3 99
3 185 472 473
3 185 474 475
3 83 476 478
3 476 185 477
3 476 477 478
3 186 185 83
3 186 479 481
3 481 480 185
3 479 480 481
3 186 482 484
3 482 184 483
3 482 483 484
3 187 184 186
3 187 3 184
3 187 155 3
3 188 155 187
3 188 19 155
3 85 188 37
3 189 188 85
3 189 19 188
3 189 68 19
3 190 68 189
3 190 1 68
3 191 192 0
3 193 192 191
3 193 40 192
3 88 193 39
3 194 193 88
3 194 40 193
3 194 125 40
3 195 125 194
3 195 6 125
3 150 89 5
3 196 89 150
3 196 41 89
3 91 196 17
3 197 196 91
3 197 41 196
3 197 195 41
3 198 195 197
3 198 6 195
3 198 168 6
3 199 168 198
3 199 28 168
3 93 199 42
3 200 199 93
3 200 28 199
3 200 76 28
3 201 76 200
3 201 2 76
3 201 202 2
3 203 202 201
3 203 44 202
3 95 203 43
3 204 203 95
3 204 44 203
3 204 145 44
3 205 145 204
3 205 8 145
3 154 96 7
3 206 96 154
3 206 45 96
3 485 206 486
3 207 487 489
3 487 206 488
3 487 488 489
3 207 45 206
3 207 205 45
3 208 205 207
3 208 8 205
3 208 181 8
3 490 181 491
3 492 491 208
3 490 491 492
3 494 493 181
3 209 495 496
3 209 497 498
3 209 499 500
3 210 501 503
3 503 502 209
3 501 502 503
3 210 504 505
3 506 25 507
3 97 508 509
3 211 510 512
3 512 511 97
3 510 511 512
3 211 513 515
3 513 25 514
3 513 514 515
3 211 73 25
3 212 73 211
3 212 0 73
3 100 516 518
3 518 517 36
3 516 517 518
3 520 519 100
3 213 521 522
3 213 523 524
3 156 101 3
3 214 101 156
3 214 48 101
3 103 214 20
3 215 214 103
3 215 48 214
3 215 213 48
3 216 213 215
3 216 525 527
3 527 526 213
3 525 526 527
3 216 528 530
3 528 98 529
3 528 529 530
3 217 98 216
3 217 47 98
3 105 217 49
3 218 217 105
3 218 47 217
3 218 212 47
3 219 212 218
3 219 0 212
3 219 191 0
3 220 191 219
3 220 39 191
3 107 220 50
3 221 220 107
3 221 39 220
3 221 87 39
3 222 87 221
3 222 5 87
3 160 108 9
3 223 108 160
3 223 51 108
3 110 223 22
3 224 223 110
3 224 51 223
3 224 222 51
3 225 222 224
3 225 5 222
3 225 149 5
3 226 149 225
3 226 16 149
3 112 226 52
3 227 226 112
3 227 16 226
3 227 531 533
3 533 532 16
3 531 532 533
3 535 534 227
3 536 4 537
3 538 4 539
3 540 86 541
3 542 541 4
3 540 541 542
3 228 543 545
3 543 86 544
3 543 544 545
3 228 38 86
3 114 546 548
3 546 228 547
3 546 547 548
3 229 228 114
3 229 38 228
3 229 190 38
3 230 190 229
3 230 1 190
3 549 115 550
3 551 115 552
3 553 53 554
3 555 554 115
3 553 554 555
3 231 556 557
3 231 558 560
3 558 53 559
3 558 559 560
3 231 230 53
3 232 230 231
3 232 1 230
3 232 72 1
3 233 72 232
3 233 23 72
3 116 233 54
3 234 233 116
3 234 23 233
3 234 163 23
3 235 163 234
3 235 10 163
3 561 235 562
3 563 235 564
3 565 10 566
3 567 566 235
3 565 566 567
3 568 113 569
3 570 569 10
3 568 569 570
3 571 113 572
3 574 573 113
3 236 575 576
3 236 577 579
3 577 46 578
3 577 578 579
3 119 236 55
3 237 236 119
3 237 46 236
3 237 210 46
3 238 210 237
3 238 580 582
3 582 581 210
3 580 581 582
3 584 583 26
3 123 585 586
3 588 587 123
3 239 589 590
3 239 591 592
3 192 75 0
3 240 75 192
3 240 27 75
3 126 240 40
3 241 240 126
3 241 27 240
3 241 167 27
3 242 167 241
3 242 12 167
3 169 127 6
3 243 127 169
3 243 58 127
3 129 243 29
3 244 243 129
3 244 58 243
3 244 242 58
3 245 242 244
3 245 12 242
3 245 124 12
3 246 124 245
3 246 57 124
3 131 246 59
3 247 246 131
3 247 57 246
3 247 239 57
3 248 239 247
3 248 593 595
3 595 594 239
3 593 594 595
3 248 596 597
3 249 598 600
3 600 599 248
3 598 599 600
3 249 601 603
3 601 24 602
3 601 602 603
3 133 249 60
3 250 249 133
3 250 24 249
3 250 164 24
3 251 164 250
3 251 11 164
3 173 134 13
3 252 134 173
3 252 61 134
3 136 252 31
3 253 252 136
3 253 61 252
3 253 251 61
3 254 251 253
3 254 11 251
3 254 120 11
3 255 120 254
3 255 56 120
3 138 255 62
3 256 255 138
3 256 56 255
3 256 238 56
3 257 238 256
3 257 604 606
3 606 605 238
3 604 605 606
3 257 607 608
3 258 609 611
3 611 610 257
3 609 610 611
3 258 612 613
3 140 258 63
3 259 258 140
3 259 614 616
3 616 615 258
3 614 615 616
3 259 617 619
3 617 148 618
3 617 618 619
3 260 148 259
3 260 620 622
3 622 621 148
3 620 621 622
3 177 141 14
3 261 141 177
3 261 64 141
3 143 261 33
3 262 261 143
3 262 64 261
3 262 260 64
3 623 260 624
3 625 624 262
3 623 624 625
3 627 626 260
3 629 628 65
3 202 82 2
3 263 82 202
3 263 34 82
3 146 263 44
3 264 263 146
3 264 34 263
3 264 180 34
3 265 180 264
3 265 15 180
3 182 147 8
3 266 147 182
3 266 66 147
3 630 266 631
3 632 631 35
3 630 631 632
3 267 633 635
3 633 266 634
3 633 634 635
3 267 66 266
3 267 265 66
3 268 265 267
3 268 15 265
3 268 636 638
3 638 637 15
3 636 637 638
3 640 639 268
