ply
format ascii 1.0
element vertex 721
property float x
property float y
property float z
property uchar red
property uchar green
property uchar blue
element face 879
property list uchar int vertex_index
end_header
-35.8584 -26.4562 -40.7176 0 134 255
-28.7471 -7.96849 -38.381 255 250 0
-30.5612 -4.48545 -52.8521 221 255 34
-26.2665 -25.4511 -37.1104 0 152 255
-20.1382 -12.6575 -26.4209 109 255 146
-24.2391 -5.18066 -29.4926 255 99 0
-29.7636 -17.3517 -31.2352 200 255 55
-28.0095 -16.8258 -39.3894 131 255 124
-36.4087 2.80849 -58.0331 255 234 0
-29.0073 5.15187 -54.4422 84 255 171
-26.4521 2.07665 -34.1132 252 255 3
-27.9275 2.16247 -45.0795 254 255 1
-26.7626 -5.59897 -47.6732 48 255 207
-26.834 -14.7077 -45.376 0 214 255
-33.6577 -15.5496 -46.7536 255 200 0
-29.4918 -25.0882 -40.2479 185 255 70
-39.7851 -9.11881 -52.4906 255 77 0
-41.2503 -22.4308 -44.0066 51 255 204
-32.9273 -37.2733 -34.4901 224 255 31
-31.4892 9.68639 -56.2997 0 165 255
-9.72544 -12.0091 -25.7566 37 255 218
-27.8885 -7.47506 -33.4417 255 196 0
-25.4848 -1.51903 -31.7419 255 179 0
-27.9243 -3.16777 -36.4628 255 218 0
-27.9805 1.21638 -39.354 255 245 0
-28.0754 -2.94259 -41.8846 255 244 0
-27.301 -1.53802 -47.0747 177 255 78
-27.6996 -7.07593 -43.3602 193 255 62
-27.0022 -21.0947 -38.5891 33 255 222
-26.3791 -15.6317 -42.8713 0 213 255
-26.2123 -20.1687 -41.3225 0 131 255
-27.8471 -19.728 -43.0463 81 255 174
-26.8325 -25.024 -39.1106 0 220 255
-45.3651 0.546288 -57.0663 112 255 143
-33.2805 -0.40587 -55.9876 255 238 0
-38.1063 -3.07392 -56.034 255 146 0
-34.9209 -5.98542 -53.3484 255 144 0
-36.5558 -11.8512 -49.6775 255 123 0
-32.034 -9.86492 -50.1174 255 200 0
-29.9553 -36.4995 -33.3039 238 255 17
-31.2196 -43.4571 -30.3382 101 255 154
-15.8968 -4.56828 -26.4642 255 252 0
-18.5298 -1.05458 -27.2568 255 207 0
-22.4856 -8.90398 -27.6685 255 12 0
-27.4507 -11.6651 -30.5506 255 174 0
-29.4774 -12.7912 -34.7456 233 255 22
-28.7297 -12.4827 -39.3772 193 255 62
-29.9189 -17.6091 -35.2965 153 255 102
-29.2499 -22.0415 -35.0979 0 190 255
-40.0116 5.27941 -58.3441 255 174 0
-35.1946 8.47121 -58.1416 205 255 50
-32.0042 4.91004 -57.0456 165 255 90
-29.4814 0.562963 -54.4243 119 255 136
-12.9463 -8.2782 -26.1203 255 199 0
-20.8273 2.18912 -28.6126 114 255 141
-22.8486 5.15569 -30.3313 134 255 121
-27.801 3.90189 -50.3322 160 255 95
-27.4333 -0.02247 -51.3832 58 255 197
-27.6054 -4.48653 -50.9193 25 255 230
-27.0157 -11.2885 -43.6284 86 255 169
-26.525 -9.99807 -47.0061 0 196 255
-28.332 -9.35459 -49.2275 102 255 153
-29.5994 -14.5587 -46.6894 207 255 48
-31.2638 -20.0346 -43.6932 237 255 18
-35.077 -21.3826 -43.3657 171 255 84
-33.0092 -25.6184 -40.6879 164 255 91
-41.5819 -0.992674 -57.4762 255 172 0
-43.2598 -7.32013 -54.7188 110 255 145
-44.4839 -13.8649 -50.6073 42 255 213
-40.9783 -15.5306 -48.1797 255 91 0
-37.7895 -18.0716 -45.7308 255 210 0
-38.1807 -24.485 -42.1789 143 255 112
-40.3219 -29.7071 -40.4655 0 180 255
-37.3573 -30.8887 -39.1111 112 255 143
-33.5685 -44.4563 -32.0245 0 172 255
-35.5943 -37.5772 -35.8631 33 255 222
-34.5654 -31.2523 -38.0891 134 255 121
-26.2938 -30.1788 -34.9652 0 50 255
-28.2362 -30.3951 -36.3515 130 255 125
-31.3887 -30.8695 -37.2891 224 255 31
-28.6513 -7.93102 -35.8488 255 226 0
-27.9317 -5.3344 -34.9549 255 206 0
-28.436 -5.61317 -37.5169 255 225 0
-28.2285 -3.25793 -39.1492 255 227 0
-28.3725 -5.47502 -40.162 255 244 0
-27.9416 -5.00389 -42.7745 236 255 19
-28.3463 -7.65283 -40.9183 234 255 21
-26.5647 -23.2471 -37.9319 0 219 255
-26.3232 -20.594 -40.0706 0 182 255
-26.1822 -22.8447 -39.229 0 132 255
-26.4142 -22.5457 -40.2943 0 154 255
-26.2437 -25.1792 -38.2217 0 127 255
-47.3575 1.17789 -56.1219 0 190 255
-44.6631 3.86952 -57.1016 129 255 126
-31.8698 -2.33597 -54.5122 255 255 0
-34.0787 -3.16601 -54.8384 255 185 0
-32.6254 -5.0355 -53.2806 255 203 0
-33.4345 -7.80716 -51.7684 255 165 0
-31.2616 -7.13567 -51.599 255 238 0
-29.8656 -42.7809 -29.6555 0 194 255
-17.9766 -8.76501 -26.4478 128 0 0
-19.285 -6.92259 -26.8651 181 0 0
-21.3863 -10.7808 -26.9755 255 192 0
-28.4503 -16.714 -29.4905 23 255 232
-26.9788 -13.7095 -29.2479 166 255 89
-28.7573 -14.5987 -30.9614 255 237 0
-28.8655 -12.4277 -32.5336 255 236 0
-29.7049 -15.1063 -32.9573 215 255 40
-29.8484 -15.2545 -35.1214 187 255 68
-30.2191 -17.6398 -33.2091 158 255 97
-28.6133 -24.1487 -34.7616 0 115 255
-37.0653 9.94721 -57.969 6 255 249
-34.9254 11.0676 -57.4934 0 146 255
-30.1304 7.51196 -55.5597 88 255 167
-31.6272 7.39751 -56.8993 121 255 134
-30.2932 5.25623 -55.9444 109 255 146
-30.6645 2.83254 -55.8856 148 255 107
-29.1544 2.93059 -54.6435 90 255 165
-13.4202 -14.3172 -25.6298 175 255 80
-21.5511 -3.33667 -28.1398 255 34 0
-19.7191 0.602873 -27.8714 255 244 0
-22.5124 -1.60476 -28.9881 255 86 0
-25.9843 0.286942 -32.9302 255 219 0
-24.1557 1.73025 -30.9538 255 190 0
-24.8866 3.33747 -31.9917 255 242 0
-23.8002 6.54765 -31.2297 0 185 255
-25.5978 4.90893 -33.0206 0 254 255
-26.9302 3.84873 -35.2655 0 252 255
-28.0701 1.51489 -42.2212 255 241 0
-28.1524 3.40988 -40.7002 16 255 239
-28.2241 3.89411 -43.6241 18 255 237
-28.1649 4.68269 -46.5047 6 255 249
-28.1759 5.61052 -49.2231 0 234 255
-27.7689 3.01312 -47.8145 217 255 38
-27.0092 -3.52392 -47.5477 115 255 140
-27.161 -0.722788 -49.3679 109 255 146
-26.9819 -2.77786 -49.5835 47 255 208
-27.4509 -2.19724 -51.3271 27 255 228
-26.9067 -4.94238 -49.4474 0 253 255
-28.4366 -14.67 -39.4975 163 255 92
-27.8449 -11.9496 -41.5884 157 255 98
-27.4444 -14.0893 -41.5257 112 255 143
-26.2917 -15.0993 -44.262 0 155 255
-26.3361 -12.8205 -44.9618 0 191 255
-26.5975 -12.3148 -46.293 0 186 255
-27.1381 -9.55792 -48.2751 0 242 255
-27.4764 -11.9948 -47.3263 29 255 226
-28.9027 -11.9175 -48.0404 159 255 96
-27.9745 -14.5123 -46.1898 88 255 167
-28.607 -22.3626 -41.6887 140 255 115
-29.4151 -19.7741 -43.5011 188 255 67
-30.301 -22.5071 -42.0302 210 255 45
-32.1488 -22.8281 -42.1603 210 255 45
-31.2358 -25.2992 -40.5392 210 255 45
-38.1463 4.12706 -58.434 255 219 0
-40.7467 2.15455 -58.1579 255 180 0
-38.9382 1.09948 -57.9381 255 198 0
-38.9777 -6.06524 -54.4151 255 104 0
-40.6797 -5.01168 -55.5291 255 120 0
-41.4947 -8.11716 -53.7254 255 79 0
-43.9613 -10.5471 -52.7782 135 255 120
-42.1879 -11.2986 -51.6493 255 53 0
-42.6993 -14.59 -49.425 244 255 11
-40.4709 -12.2658 -50.3716 255 72 0
-35.056 -13.5888 -48.2208 255 159 0
-37.25 -14.9196 -47.6902 255 153 0
-35.7752 -16.5929 -46.3587 255 202 0
-36.3605 -19.6373 -44.5514 233 255 22
-34.4196 -18.4719 -45.023 255 250 0
-40.9407 -26.0339 -42.1558 21 255 234
-39.3667 -26.8666 -41.3499 196 255 59
-39.6485 -23.419 -43.058 244 255 11
-36.91 -37.4721 -36.5845 0 148 255
-36.5439 -34.1877 -37.5503 148 255 107
-37.9347 -33.8863 -38.1999 0 211 255
-26.6487 -32.7928 -33.6494 0 51 255
-27.035 -30.239 -35.7334 10 255 245
-27.7106 -33.0364 -34.2893 0 237 255
-31.4713 -36.9228 -33.873 246 255 9
-30.6612 -33.6737 -35.3506 234 255 21
-32.244 -33.9782 -35.8544 226 255 29
-33.0272 -31.1041 -37.6864 192 255 63
-33.7581 -34.2047 -36.3788 191 255 64
-29.6092 -19.5233 -29.6069 0 156 255
-30.4165 -19.9415 -31.3592 0 194 255
-30.2093 9.53505 -54.7369 0 102 255
-29.066 7.18041 -53.8112 0 229 255
-26.3996 -6.56264 -31.2857 255 154 0
-24.9142 -3.34151 -30.5826 255 139 0
-26.7555 -4.58521 -32.6031 255 179 0
-27.0225 -2.60066 -33.9517 255 205 0
-27.2466 -0.611069 -35.2955 255 230 0
-27.4774 1.37969 -36.6072 255 255 0
-27.922 -0.981041 -37.936 255 231 0
-28.0881 -0.876537 -40.7231 255 233 0
-27.9111 -0.389023 -43.5302 255 248 0
-27.6139 0.356262 -46.2457 226 255 29
-27.6829 -2.32592 -44.5568 232 255 23
-27.4002 -4.31058 -45.2603 185 255 70
-27.0873 -6.35034 -45.6303 127 255 128
-27.5083 -18.962 -39.0792 90 255 165
-27.0154 -16.2351 -41.2344 59 255 196
-26.6204 -18.3981 -40.7426 0 250 255
-26.2123 -17.87 -42.1853 0 156 255
-26.4168 -17.4458 -43.3745 0 159 255
-27.2502 -17.1778 -44.2849 15 255 240
-26.736 -19.8684 -42.3193 0 204 255
-27.2566 -22.3793 -41.1141 19 255 236
-27.9634 -24.9943 -39.7805 94 255 161
-34.7907 1.3044 -57.1916 255 234 0
-37.2294 -0.118898 -57.2595 255 192 0
-35.6125 -1.53178 -56.1955 255 183 0
-36.4792 -4.41086 -54.7985 255 137 0
-37.338 -7.34561 -53.0734 255 105 0
-38.1365 -10.3589 -51.1154 255 94 0
-35.7623 -8.87557 -51.5969 255 121 0
-34.2591 -10.6571 -50.0533 255 148 0
-32.8461 -12.6723 -48.4775 255 185 0
-28.4776 -36.0514 -32.7601 0 229 255
-29.232 -39.2996 -31.1971 6 255 249
-30.6908 -39.8718 -31.7884 255 250 0
-32.0863 -40.3758 -32.4602 248 255 7
-17.2553 -2.78052 -26.7883 223 255 32
-20.4769 -5.11063 -27.4269 236 0 0
-23.4346 -7.03564 -28.5114 255 58 0
-24.4618 -12.4342 -27.9049 134 255 121
-25.2761 -10.4897 -28.9046 255 97 0
-25.9161 -8.53143 -30.0403 255 128 0
-27.7428 -9.58613 -31.9603 255 186 0
-28.8136 -10.2041 -34.1754 255 231 0
-29.1371 -10.4101 -36.5654 249 255 6
-28.8426 -10.2531 -39.0072 227 255 28
-29.3665 -12.7902 -37.065 211 255 44
-29.3406 -15.0869 -37.3358 179 255 76
-29.0832 -17.313 -37.387 156 255 99
-30.3899 -20.0423 -33.2887 0 185 255
-29.7059 -19.8673 -35.2822 7 255 248
-28.6387 -19.4804 -37.2391 137 255 118
-28.0688 -21.6038 -36.9145 108 255 147
-27.4487 -23.7043 -36.4291 0 200 255
-26.8623 -25.813 -35.7883 0 96 255
-42.0034 6.27679 -57.751 98 255 157
-39.4476 8.32795 -58.0473 56 255 199
-37.4999 7.1006 -58.4387 255 234 0
-35.7087 5.68938 -58.3276 240 255 15
-33.1683 9.34006 -57.4336 9 255 246
-33.51 6.79036 -57.8204 179 255 76
-34.0702 4.09013 -57.7401 226 255 29
-32.5725 2.29347 -56.7361 217 255 38
-31.2035 0.291258 -55.3973 200 255 55
-29.9593 -1.91612 -53.8125 166 255 89
-14.4587 -6.40663 -26.2582 255 222 0
-16.5573 -10.6256 -26.1431 255 91 0
-11.3656 -10.1575 -25.9805 255 187 0
-15.0349 -12.4853 -25.8952 255 201 0
-16.7266 3.24307 -27.2351 0 213 255
-23.3736 0.083826 -29.9395 255 137 0
-21.8648 3.7052 -29.4461 171 255 84
-20.467 7.49612 -29.1756 0 145 255
-27.7647 3.3642 -37.8677 6 255 249
-28.4347 6.49963 -51.6827 0 198 255
-28.1834 4.66352 -52.5593 106 255 149
-27.4284 1.21073 -48.7781 169 255 86
-27.5508 2.01793 -51.0558 108 255 147
-28.1096 2.63131 -53.0244 73 255 182
-28.2052 0.437967 -53.0791 61 255 194
-28.4566 -1.88511 -52.7452 77 255 178
-28.8497 -4.31467 -52.0612 116 255 139
-28.1606 -9.80716 -41.393 197 255 58
-27.3774 -9.16866 -43.6384 143 255 112
-26.7778 -8.44795 -45.6821 62 255 193
-26.6648 -13.4408 -43.3615 23 255 232
-26.5125 -10.6043 -45.4468 0 250 255
-26.5905 -7.75849 -47.4796 0 240 255
-26.9529 -7.20523 -48.9966 0 230 255
-27.8986 -6.87553 -50.2033 53 255 202
-29.372 -6.83636 -51.076 168 255 87
-30.0099 -9.44272 -49.8444 222 255 33
-30.7449 -12.1293 -48.4236 255 247 0
-31.5497 -14.8891 -46.8731 255 228 0
-28.6275 -17.1069 -44.9021 145 255 110
-30.3986 -17.2696 -45.2228 235 255 20
-32.3861 -17.7066 -45.2562 255 239 0
-33.2069 -20.5487 -43.6413 225 255 30
-33.9637 -23.3543 -42.1046 144 255 111
-35.5751 -24.1597 -41.873 35 255 220
-34.6312 -26.0268 -40.7326 42 255 213
-42.6571 3.07277 -57.8788 255 128 0
-43.4365 -0.1717 -57.5223 167 255 88
-44.2672 -3.42281 -56.6761 0 234 255
-39.8056 -1.94716 -56.9574 255 163 0
-42.4437 -4.14617 -56.3133 175 255 80
-42.9736 -18.0139 -47.1801 23 255 232
-41.2532 -18.9222 -46.0289 184 255 71
-38.821 -13.4722 -49.0336 255 108 0
-39.3361 -16.6952 -46.9385 255 147 0
-39.6276 -20.0193 -44.9255 255 204 0
-38.1179 -21.2758 -43.8784 223 255 32
-36.752 -22.6564 -42.8727 129 255 126
-36.8802 -25.5495 -41.3743 17 255 238
-38.7807 -30.3526 -39.7585 26 255 229
-37.9285 -27.6753 -40.6181 100 255 155
-36.6151 -28.3273 -39.9931 11 255 244
-31.4857 -47.2371 -28.9855 0 113 255
-32.4483 -44.0275 -31.1365 88 255 167
-33.3768 -40.7689 -33.2119 223 255 32
-34.5879 -41.0157 -34.0197 0 236 255
-34.2912 -37.5046 -35.1577 194 255 61
-35.1781 -34.2918 -36.9413 156 255 99
-35.9861 -31.2055 -38.5507 95 255 160
-35.3022 -28.5562 -39.5788 28 255 227
-26.3926 -27.9718 -34.9878 0 17 255
-26.1652 -27.7466 -36.1219 0 56 255
-26.5309 -27.6317 -37.0526 0 178 255
-27.4545 -27.6309 -37.7875 49 255 206
-28.8149 -27.7327 -38.3483 158 255 97
-29.1024 -33.3442 -34.8413 194 255 61
-29.7435 -30.6176 -36.8568 205 255 50
-30.4435 -27.9166 -38.7664 211 255 44
-32.1642 -28.1545 -39.0787 200 255 55
-33.822 -28.4011 -39.3281 131 255 124
-44.3856 5.49427 -56.8902 0 0 154
-45.7056 4.20789 -56.4829 0 0 154
-34.9341 12.2169 -56.9526 0 0 140
-35.9105 11.8133 -57.274 0 0 140
-41.0955 -24.2324 -43.0812 0 0 209
-41.7914 -25.6463 -42.595 0 0 178
-41.9462 -23.8447 -43.5204 0 0 178
-37.6149 -37.3368 -36.9428 0 0 143
-36.9984 -39.2341 -36.1201 0 0 143
-38.1272 -35.5439 -37.7504 0 0 166
-37.4223 -35.6792 -37.3922 0 0 191
-37.6149 -37.3368 -36.9428 0 0 166
-26.9166 -34.2099 -32.9245 0 0 134
-26.442 -34.0331 -32.6091 0 0 134
-27.4476 -34.3317 -33.2445 0 0 154
-27.1797 -32.9146 -33.9693 0 0 172
-26.9166 -34.2099 -32.9245 0 0 154
-29.4108 -20.569 -28.8468 0 0 144
-28.7644 -19.1459 -28.8731 0 0 144
-30.0001 -20.8387 -29.6007 0 0 139
-29.4108 -20.569 -28.8468 0 0 139
-29.777 9.2503 -53.7496 0 0 138
-30.3765 10.3962 -54.118 0 0 138
-29.2053 8.07298 -53.2868 0 0 158
-29.6377 8.35773 -54.2741 0 0 179
-29.777 9.2503 -53.7496 0 0 158
-46.7152 -0.847789 -56.5007 0 0 189
-47.7113 -0.53199 -56.0285 0 0 189
-46.3613 0.862086 -56.5941 0 0 225
-45.7546 -1.12614 -56.8112 0 0 150
-46.7152 -0.847789 -56.5007 0 0 150
-28.8372 -40.6709 -30.1403 0 0 143
-28.5252 -39.0035 -30.928 0 0 143
-16.576 -3.6744 -26.6263 0 0 247
-15.6151 -1.42963 -26.6684 0 0 204
-14.9358 -2.32351 -26.5064 0 0 204
-25.3839 -14.0748 -27.9898 0 0 152
-23.9639 -13.3967 -27.4768 0 0 152
-30.538 -21.2116 -32.3139 0 0 160
-30.4032 -19.9919 -32.3239 0 0 181
-30.5513 -21.1612 -31.3491 0 0 160
-29.4779 -20.9544 -35.19 0 0 181
-29.9656 -21.0962 -34.2457 0 0 160
-29.7376 -22.1833 -34.1536 0 0 160
-27.6631 -24.9598 -35.356 0 0 159
-28.031 -23.9265 -35.5954 0 0 179
-28.2454 -25.182 -34.5223 0 0 159
-27.3699 -26.0141 -35.0356 0 0 154
-27.1555 -24.7586 -36.1087 0 0 172
-27.6631 -24.9598 -35.356 0 0 154
-39.2818 9.76727 -57.6715 0 0 148
-40.4948 8.84742 -57.605 0 0 148
-32.3288 9.51323 -56.8667 0 0 180
-33.1309 10.4942 -57.0156 0 0 159
-32.2913 10.6673 -56.4486 0 0 159
-13.7025 -7.34241 -26.1892 0 3 255
-12.7435 -5.06718 -26.2823 0 0 211
-11.9872 -6.00296 -26.2133 0 0 211
-10.5455 -11.0833 -25.8685 0 7 255
-9.63981 -8.84906 -26.035 0 0 214
-8.81972 -9.77489 -25.9231 0 0 214
-16.1317 -14.4173 -25.7261 0 0 210
-14.2276 -13.4012 -25.7625 0 1 255
-15.3244 -15.3332 -25.5934 0 0 210
-16.8918 -13.5029 -25.9315 0 0 162
-16.1317 -14.4173 -25.7261 0 0 162
-17.6282 1.09425 -27.2459 0 0 237
-16.0518 2.43603 -27.029 0 0 197
-16.9534 0.2872 -27.0398 0 0 197
-19.4247 3.47367 -28.1974 0 0 190
-18.8706 2.68054 -27.8268 0 0 190
-20.2732 1.396 -28.242 0 0 226
-20.0467 4.18166 -28.5269 0 0 152
-19.4247 3.47367 -28.1974 0 0 152
-22.243 6.94465 -30.1379 0 0 176
-21.0522 8.11486 -29.5601 0 0 176
-21.6578 6.32591 -29.7535 0 0 206
-23.296 8.22331 -30.9701 0 0 143
-24.2715 7.21809 -31.6699 0 0 143
-28.154 4.36948 -39.8804 0 0 144
-28.319 4.49374 -41.3274 0 0 144
-44.1663 -7.00045 -55.0418 0 0 182
-43.7582 -5.41347 -55.8391 0 0 182
-42.8517 -5.73315 -55.516 0 0 214
-44.5193 -8.64492 -54.1844 0 0 151
-44.1663 -7.00045 -55.0418 0 0 151
-45.3997 -13.595 -51.1178 0 0 190
-45.1383 -11.9361 -52.2032 0 0 190
-44.2226 -12.206 -51.6927 0 0 226
-45.5521 -15.3228 -50.0149 0 0 154
-45.3997 -13.595 -51.1178 0 0 154
-44.6268 -15.5848 -49.4723 0 0 155
-45.5521 -15.3228 -50.0149 0 0 155
-40.6915 -31.3024 -40.0201 0 0 146
-41.1608 -29.3744 -40.8467 0 0 146
-39.874 -31.5703 -39.6708 0 0 145
-40.6915 -31.3024 -40.0201 0 0 145
-39.5513 -30.0299 -40.112 0 0 194
-39.1035 -31.8931 -39.3172 0 0 169
-39.874 -31.5703 -39.6708 0 0 169
-31.4813 -49.2093 -28.367 0 0 146
-30.964 -48.8015 -27.9074 0 0 146
-33.0084 -44.2419 -31.5805 0 0 198
-32.4949 -45.9421 -30.5249 0 0 171
-33.055 -46.1566 -30.9689 0 0 171
-35.0911 -39.2965 -34.9414 0 0 189
-35.1911 -41.0543 -34.4332 0 0 165
-35.6943 -39.335 -35.3548 0 0 165
-26.4393 -29.1839 -33.935 0 0 133
-26.7645 -28.126 -34.3239 0 0 133
-26.2018 -30.2054 -34.492 0 0 128
-26.1753 -31.4137 -33.9209 0 0 128
-26.2295 -28.9627 -35.5436 0 0 148
-26.1375 -28.9893 -35.0703 0 0 138
-26.2018 -30.2054 -34.492 0 0 138
-47.0528 2.86208 -55.993 0 0 156
-48.3765 1.45079 -55.4312 0 0 156
-46.0103 2.5237 -56.6118 0 0 232
-47.0528 2.86208 -55.993 0 0 194
-45.7056 4.20789 -56.4829 0 0 194
-29.4057 -44.2009 -28.5956 0 0 145
-29.154 -42.4115 -29.3695 0 0 145
-30.0765 -44.6301 -28.9209 0 0 146
-29.4057 -44.2009 -28.5956 0 0 146
-30.7535 -44.9682 -29.2623 0 0 174
-30.5426 -43.119 -29.9969 0 0 202
-30.0765 -44.6301 -28.9209 0 0 174
-27.7146 -15.2118 -29.3692 0 0 206
-26.6423 -14.7125 -28.6612 0 0 176
-27.3781 -16.2147 -28.7826 0 0 176
-29.5056 -23.2711 -34.0433 0 0 139
-29.7376 -22.1833 -34.1536 0 0 139
-29.1873 -24.3247 -33.8752 0 0 160
-28.9316 -23.0951 -34.9298 0 0 181
-29.5056 -23.2711 -34.0433 0 0 160
-28.8368 -25.3684 -33.7011 0 0 139
-29.1873 -24.3247 -33.8752 0 0 139
-28.2454 -25.182 -34.5223 0 0 138
-28.8368 -25.3684 -33.7011 0 0 138
-36.9804 11.2531 -57.5118 0 0 144
-38.0906 10.5769 -57.6323 0 0 144
-35.9954 10.5074 -57.7312 0 0 194
-36.9804 11.2531 -57.5118 0 0 169
-35.9105 11.8133 -57.274 0 0 169
-11.2184 -6.95369 -26.1758 0 0 165
-11.9872 -6.00296 -26.2133 0 0 165
-12.5741 -15.2013 -25.446 0 0 212
-11.5728 -13.1631 -25.6932 0 5 255
-10.7267 -14.0472 -25.5094 0 0 212
-14.5069 -16.2167 -25.3713 0 0 164
-12.5741 -15.2013 -25.446 0 0 164
-15.3244 -15.3332 -25.5934 0 0 163
-14.5069 -16.2167 -25.3713 0 0 163
-25.1703 6.39873 -32.5654 0 0 167
-24.2715 7.21809 -31.6699 0 0 167
-24.699 5.72829 -32.1251 0 0 192
-25.9601 5.67758 -33.5185 0 0 142
-25.1703 6.39873 -32.5654 0 0 142
-26.6263 5.14748 -34.641 0 0 165
-25.9601 5.67758 -33.5185 0 0 165
-26.264 4.37883 -34.1431 0 0 189
-27.1952 4.72328 -35.8172 0 0 142
-26.6263 5.14748 -34.641 0 0 142
-28.3548 4.73585 -42.7894 0 0 169
-28.319 4.49374 -41.3274 0 0 169
-28.1883 3.65199 -42.1622 0 0 195
-28.4085 5.0627 -44.2636 0 0 145
-28.3548 4.73585 -42.7894 0 0 145
-28.3789 5.45699 -45.7039 0 0 170
-28.4085 5.0627 -44.2636 0 0 170
-28.1945 4.2884 -45.0644 0 0 196
-28.4111 5.90916 -47.1345 0 0 144
-28.3789 5.45699 -45.7039 0 0 144
-28.1704 5.14661 -47.8639 0 0 194
-28.4166 6.37308 -48.4937 0 0 168
-28.4111 5.90916 -47.1345 0 0 168
-41.4702 -27.5378 -41.6918 0 0 147
-41.7914 -25.6463 -42.595 0 0 147
-40.6313 -27.8705 -41.3107 0 0 204
-41.1608 -29.3744 -40.8467 0 0 175
-41.4702 -27.5378 -41.6918 0 0 175
-33.5458 -46.3824 -31.4734 0 0 144
-33.055 -46.1566 -30.9689 0 0 144
-36.3521 -39.2825 -35.7156 0 0 142
-36.9984 -39.2341 -36.1201 0 0 142
-36.2522 -37.5247 -36.2238 0 0 191
-35.6943 -39.335 -35.3548 0 0 166
-36.3521 -39.2825 -35.7156 0 0 166
-26.3527 -32.7207 -33.263 0 0 130
-26.442 -34.0331 -32.6091 0 0 130
-26.4713 -31.4858 -34.3073 0 0 156
-26.1753 -31.4137 -33.9209 0 0 143
-26.3527 -32.7207 -33.263 0 0 143
-21.8022 -13.5084 -26.7347 0 0 157
-21.2144 -14.4562 -26.3702 0 0 157
-28.185 -17.7413 -28.8149 0 0 148
-27.3781 -16.2147 -28.7826 0 0 148
-29.0298 -18.1186 -29.5487 0 0 195
-28.185 -17.7413 -28.8149 0 0 169
-28.7644 -19.1459 -28.8731 0 0 169
-30.4037 -21.0478 -30.4768 0 0 163
-30.0128 -19.7324 -30.4831 0 0 186
-30.0001 -20.8387 -29.6007 0 0 163
-30.5513 -21.1612 -31.3491 0 0 137
-30.4037 -21.0478 -30.4768 0 0 137
-31.5565 10.689 -55.7824 0 0 137
-32.2913 10.6673 -56.4486 0 0 137
-30.9165 10.6133 -55.001 0 0 137
-30.3765 10.3962 -54.118 0 0 137
-30.8493 9.61072 -55.5183 0 0 177
-31.5565 10.689 -55.7824 0 0 157
-30.9165 10.6133 -55.001 0 0 157
-8.0156 -10.7132 -25.7778 0 0 165
-8.81972 -9.77489 -25.9231 0 0 165
-8.8828 -12.8985 -25.5595 0 0 165
-8.0156 -10.7132 -25.7778 0 0 165
-10.7267 -14.0472 -25.5094 0 0 165
-8.8828 -12.8985 -25.5595 0 0 165
-48.688 -0.279762 -55.4812 0 0 157
-48.3765 1.45079 -55.4312 0 0 157
-48.688 -0.279762 -55.4812 0 0 153
-47.7113 -0.53199 -56.0285 0 0 153
-42.1075 -22.0027 -44.5161 0 0 149
-41.9462 -23.8447 -43.5204 0 0 149
-28.148 -37.3794 -31.7095 0 0 140
-27.8311 -35.8393 -32.4799 0 0 140
-28.8548 -37.6755 -31.9786 0 0 192
-28.148 -37.3794 -31.7095 0 0 167
-28.5252 -39.0035 -30.928 0 0 167
-29.5488 -41.0403 -30.4263 0 0 199
-28.8372 -40.6709 -30.1403 0 0 171
-29.154 -42.4115 -29.3695 0 0 171
-16.3161 -0.575767 -26.8056 0 0 160
-15.6151 -1.42963 -26.6684 0 0 160
-17.8925 -1.91755 -27.0225 0 0 240
-16.9534 0.2872 -27.0398 0 0 199
-16.3161 -0.575767 -26.8056 0 0 199
-22.4262 -12.57 -27.0121 0 0 195
-20.7623 -11.7192 -26.6982 0 0 234
-21.8022 -13.5084 -26.7347 0 0 195
-22.924 -11.6075 -27.4402 0 0 230
-22.4262 -12.57 -27.0121 0 0 193
-23.9639 -13.3967 -27.4768 0 0 193
-25.7203 -13.0719 -28.5764 0 0 219
-25.3839 -14.0748 -27.9898 0 0 185
-26.6423 -14.7125 -28.6612 0 0 185
-30.3076 -21.1838 -33.249 0 0 137
-30.538 -21.2116 -32.3139 0 0 137
-30.0479 -19.9548 -34.2854 0 0 182
-30.3076 -21.1838 -33.249 0 0 161
-29.9656 -21.0962 -34.2457 0 0 161
-41.7727 7.82183 -57.4569 0 0 152
-43.0558 6.69791 -57.2149 0 0 152
-40.7255 7.30237 -57.8992 0 0 218
-41.7727 7.82183 -57.4569 0 0 184
-40.4948 8.84742 -57.605 0 0 184
-38.2564 9.13758 -58.0081 0 0 207
-39.2818 9.76727 -57.6715 0 0 177
-38.0906 10.5769 -57.6323 0 0 177
-34.0094 11.3579 -57.0455 0 0 139
-34.9341 12.2169 -56.9526 0 0 139
-34.0469 10.2038 -57.4635 0 0 181
-34.0094 11.3579 -57.0455 0 0 160
-33.1309 10.4942 -57.0156 0 0 160
-14.2104 -3.21899 -26.4276 0 0 162
-14.9358 -2.32351 -26.5064 0 0 162
-13.4914 -4.13816 -26.3246 0 0 164
-12.7435 -5.06718 -26.2823 0 0 164
-15.1778 -5.48746 -26.3612 0 0 254
-14.2104 -3.21899 -26.4276 0 0 208
-13.4914 -4.13816 -26.3246 0 0 208
-10.428 -7.89333 -26.1059 0 0 166
-9.63981 -8.84906 -26.035 0 0 166
-12.1559 -9.21783 -26.0504 0 6 255
-11.2184 -6.95369 -26.1758 0 0 213
-10.428 -7.89333 -26.1059 0 0 213
-17.6529 -12.573 -26.0554 0 0 208
-15.7961 -11.5554 -26.0191 0 0 253
-16.8918 -13.5029 -25.9315 0 0 208
-19.4434 -13.589 -26.1943 0 0 204
-18.3478 -11.6415 -26.282 0 0 248
-17.6529 -12.573 -26.0554 0 0 204
-21.2144 -14.4562 -26.3702 0 0 159
-19.4434 -13.589 -26.1943 0 0 159
-15.2199 4.75403 -27.136 0 0 158
-16.0518 2.43603 -27.029 0 0 158
-15.93 5.49032 -27.3288 0 0 157
-15.2199 4.75403 -27.136 0 0 157
-17.3744 4.00065 -27.5086 0 0 192
-18.2229 1.92297 -27.5532 0 0 230
-18.8706 2.68054 -27.8268 0 0 192
-15.93 5.49032 -27.3288 0 0 156
-17.3744 4.00065 -27.5086 0 0 156
-20.5654 4.93971 -28.9437 0 0 185
-20.0467 4.18166 -28.5269 0 0 185
-21.346 2.94716 -29.0294 0 0 218
-19.8666 6.83517 -28.8084 0 0 182
-20.5654 4.93971 -28.9437 0 0 182
-21.1659 5.60066 -29.3109 0 0 214
-19.1818 8.89967 -28.8478 0 0 151
-19.8666 6.83517 -28.8084 0 0 151
-19.8569 9.45387 -29.1711 0 0 149
-19.1818 8.89967 -28.8478 0 0 149
-19.8569 9.45387 -29.1711 0 0 148
-21.0522 8.11486 -29.5601 0 0 148
-22.7188 7.64062 -30.5871 0 0 174
-22.243 6.94465 -30.1379 0 0 174
-23.3244 5.85167 -30.7805 0 0 203
-22.7188 7.64062 -30.5871 0 0 144
-23.296 8.22331 -30.9701 0 0 144
-27.6124 4.48101 -37.1183 0 0 166
-27.1952 4.72328 -35.8172 0 0 166
-27.3475 3.60646 -36.5666 0 0 190
-27.9601 4.34664 -38.4641 0 0 168
-27.9586 3.38704 -39.284 0 0 193
-28.154 4.36948 -39.8804 0 0 168
-27.6124 4.48101 -37.1183 0 0 143
-27.9601 4.34664 -38.4641 0 0 143
-28.5173 6.85992 -49.8195 0 0 143
-28.4166 6.37308 -48.4937 0 0 143
-28.6467 7.30448 -51.0493 0 0 165
-28.5173 6.85992 -49.8195 0 0 165
-28.3053 6.05508 -50.4529 0 0 188
-28.8896 7.73259 -52.2225 0 0 140
-28.6467 7.30448 -51.0493 0 0 140
-28.7503 6.84002 -52.747 0 0 182
-29.2053 8.07298 -53.2868 0 0 160
-28.8896 7.73259 -52.2225 0 0 160
-43.3332 5.07315 -57.4263 0 0 226
-44.3856 5.49427 -56.8902 0 0 190
-43.0558 6.69791 -57.2149 0 0 190
-44.7903 -1.48513 -57.0393 0 0 183
-45.7546 -1.12614 -56.8112 0 0 183
-44.4008 0.187294 -57.2943 0 0 215
-45.2057 -3.11069 -56.6162 0 0 179
-44.7903 -1.48513 -57.0393 0 0 179
-43.8518 -1.79726 -57.0992 0 0 209
-45.5952 -4.78568 -56.1256 0 0 149
-45.2057 -3.11069 -56.6162 0 0 149
-44.67 -5.05178 -56.0205 0 0 181
-43.3554 -3.78449 -56.4947 0 0 212
-43.7582 -5.41347 -55.8391 0 0 181
-45.5952 -4.78568 -56.1256 0 0 149
-44.67 -5.05178 -56.0205 0 0 149
-44.87 -10.2584 -53.2141 0 0 186
-44.5193 -8.64492 -54.1844 0 0 186
-43.6105 -8.93362 -53.7485 0 0 221
-44.87 -10.2584 -53.2141 0 0 152
-45.1383 -11.9361 -52.2032 0 0 152
-43.7345 -15.9473 -48.8812 0 0 190
-44.6268 -15.5848 -49.4723 0 0 190
-43.5916 -14.2275 -50.0161 0 0 226
-43.8716 -17.6593 -47.7588 0 0 190
-43.7345 -15.9473 -48.8812 0 0 190
-42.8364 -16.302 -48.3025 0 0 226
-43.8719 -19.4479 -46.6379 0 0 153
-43.8716 -17.6593 -47.7588 0 0 153
-42.9692 -19.7943 -46.1028 0 0 153
-43.8719 -19.4479 -46.6379 0 0 153
-42.1089 -20.2484 -45.5272 0 0 184
-42.9692 -19.7943 -46.1028 0 0 184
-42.1134 -18.468 -46.6045 0 0 218
-41.2517 -20.6765 -45.0177 0 0 214
-42.1075 -22.0027 -44.5161 0 0 182
-42.1089 -20.2484 -45.5272 0 0 182
-38.6805 -33.66 -38.5379 0 0 143
-38.1272 -35.5439 -37.7504 0 0 143
-38.3577 -32.1195 -38.9792 0 0 191
-38.6805 -33.66 -38.5379 0 0 166
-39.1035 -31.8931 -39.3172 0 0 166
-30.8866 -46.8582 -28.5859 0 0 146
-30.964 -48.8015 -27.9074 0 0 146
-31.3526 -45.3471 -29.6619 0 0 201
-30.7535 -44.9682 -29.2623 0 0 173
-30.8866 -46.8582 -28.5859 0 0 173
-32.0136 -47.5469 -29.4494 0 0 145
-31.4813 -49.2093 -28.367 0 0 145
-31.967 -45.6323 -30.061 0 0 198
-32.0136 -47.5469 -29.4494 0 0 171
-32.4949 -45.9421 -30.5249 0 0 171
-34.1114 -44.5867 -32.4903 0 0 143
-33.5458 -46.3824 -31.4734 0 0 143
-34.6211 -42.8664 -33.4879 0 0 143
-35.1911 -41.0543 -34.4332 0 0 143
-34.0782 -42.736 -33.0221 0 0 193
-34.1114 -44.5867 -32.4903 0 0 168
-34.6211 -42.8664 -33.4879 0 0 168
-26.9993 -27.0466 -34.7242 0 0 136
-27.3699 -26.0141 -35.0356 0 0 136
-26.6274 -26.8924 -35.3881 0 0 163
-26.9993 -27.0466 -34.7242 0 0 148
-26.7645 -28.126 -34.3239 0 0 148
-26.2512 -29.1019 -34.5033 0 0 129
-26.4393 -29.1839 -33.935 0 0 129
-26.2789 -27.8592 -35.5549 0 0 151
-26.2512 -29.1019 -34.5033 0 0 140
-26.1375 -28.9893 -35.0703 0 0 140
-28.0941 -34.5439 -33.5247 0 0 183
-27.4476 -34.3317 -33.2445 0 0 161
-27.8311 -35.8393 -32.4799 0 0 161
3 1 82 80
3 1 84 82
3 1 86 84
3 3 89 87
3 3 91 89
3 321 93 322
3 2 96 94
3 2 98 96
3 4 102 100
3 6 105 103
3 6 107 105
3 6 109 107
3 323 112 324
3 9 115 113
3 9 117 115
3 5 121 119
3 10 124 122
3 10 126 124
3 10 127 126
3 11 130 128
3 11 131 130
3 11 133 131
3 12 136 134
3 12 138 136
3 7 141 139
3 13 144 142
3 13 146 144
3 13 148 146
3 15 151 149
3 15 153 151
3 8 156 154
3 16 159 157
3 16 161 159
3 16 163 161
3 14 166 164
3 14 168 166
3 17 325 327
3 325 169 326
3 325 326 327
3 17 171 169
3 328 172 329
3 330 174 331
3 332 331 172
3 330 331 332
3 333 175 334
3 335 177 336
3 337 336 175
3 335 336 337
3 18 180 178
3 18 182 180
3 338 183 339
3 341 340 183
3 342 185 343
3 344 186 345
3 346 345 185
3 344 345 346
3 21 189 187
3 23 190 81
3 23 191 190
3 23 193 191
3 25 194 83
3 25 195 194
3 25 197 195
3 27 198 85
3 27 199 198
3 28 202 200
3 30 203 88
3 30 204 203
3 30 206 204
3 32 207 90
3 32 208 207
3 33 347 349
3 349 348 92
3 347 348 349
3 33 350 351
3 34 211 209
3 36 212 95
3 36 213 212
3 36 215 213
3 38 216 97
3 38 217 216
3 352 219 353
3 40 220 99
3 40 221 220
3 41 354 356
3 354 222 355
3 354 355 356
3 43 223 101
3 43 224 223
3 357 225 358
3 44 226 104
3 44 227 226
3 44 228 227
3 45 229 106
3 45 230 229
3 45 232 230
3 47 233 108
3 47 234 233
3 359 235 360
3 361 360 184
3 359 360 361
3 48 362 364
3 362 236 363
3 362 363 364
3 48 237 236
3 48 238 237
3 365 239 366
3 367 366 110
3 365 366 367
3 368 240 369
3 370 369 239
3 368 369 370
3 371 242 372
3 50 243 111
3 50 244 243
3 19 373 375
3 373 245 374
3 373 374 375
3 51 246 114
3 51 247 246
3 51 248 247
3 52 249 116
3 52 250 249
3 53 376 378
3 376 251 377
3 376 377 378
3 53 252 251
3 20 379 381
3 379 253 380
3 379 380 381
3 382 254 383
3 384 383 118
3 382 383 384
3 386 385 254
3 42 387 389
3 387 255 388
3 387 388 389
3 54 390 392
3 392 391 120
3 390 391 392
3 54 393 394
3 22 256 188
3 55 257 123
3 55 258 257
3 55 395 397
3 397 396 258
3 395 396 397
3 399 398 125
3 24 259 192
3 401 400 129
3 56 260 132
3 56 261 260
3 26 262 196
3 57 263 135
3 57 264 263
3 57 265 264
3 58 266 137
3 58 267 266
3 46 268 231
3 59 269 140
3 59 270 269
3 29 271 201
3 60 272 143
3 60 273 272
3 60 274 273
3 61 275 145
3 61 276 275
3 61 277 276
3 62 278 147
3 62 279 278
3 31 280 205
3 63 281 150
3 63 282 281
3 63 283 282
3 65 284 152
3 65 286 284
3 49 287 241
3 66 288 155
3 66 289 288
3 35 290 210
3 67 291 158
3 67 402 404
3 404 403 291
3 402 403 404
3 67 405 406
3 68 407 409
3 409 408 160
3 407 408 409
3 68 410 411
3 68 412 413
3 69 292 162
3 69 293 292
3 37 294 214
3 70 295 165
3 70 296 295
3 70 297 296
3 64 298 167
3 64 285 298
3 72 414 415
3 72 416 417
3 72 418 420
3 418 300 419
3 418 419 420
3 71 301 170
3 71 299 301
3 421 303 422
3 74 423 425
3 423 304 424
3 423 424 425
3 74 305 304
3 75 426 428
3 426 306 427
3 426 427 428
3 75 307 306
3 75 308 307
3 73 309 173
3 73 302 309
3 429 311 430
3 77 431 432
3 77 433 435
3 433 312 434
3 433 434 435
3 77 313 312
3 78 314 176
3 78 315 314
3 39 316 218
3 79 317 179
3 79 318 317
3 79 319 318
3 76 320 181
3 76 310 320
3 80 81 21
3 82 81 80
3 82 23 81
3 82 83 23
3 84 83 82
3 84 25 83
3 84 85 25
3 86 85 84
3 86 27 85
3 87 88 28
3 89 88 87
3 89 30 88
3 89 90 30
3 91 90 89
3 91 32 90
3 436 92 437
3 93 438 440
3 438 92 439
3 438 439 440
3 93 33 92
3 94 95 34
3 96 95 94
3 96 36 95
3 96 97 36
3 98 97 96
3 98 38 97
3 441 99 442
3 443 99 444
3 445 40 446
3 447 446 99
3 445 446 447
3 100 101 41
3 102 101 100
3 102 43 101
3 103 448 450
3 448 104 449
3 448 449 450
3 105 104 103
3 105 44 104
3 105 106 44
3 107 106 105
3 107 45 106
3 107 108 45
3 109 108 107
3 109 47 108
3 451 48 452
3 453 110 454
3 455 454 48
3 453 454 455
3 456 110 457
3 459 458 110
3 460 111 461
3 112 462 464
3 462 111 463
3 462 463 464
3 112 50 111
3 113 114 19
3 115 114 113
3 115 51 114
3 115 116 51
3 117 116 115
3 117 52 116
3 465 53 466
3 467 118 468
3 469 468 20
3 467 468 469
3 470 118 471
3 473 472 118
3 119 120 42
3 121 120 119
3 121 54 120
3 122 123 22
3 124 123 122
3 124 55 123
3 124 125 55
3 126 125 124
3 126 474 476
3 476 475 125
3 474 475 476
3 126 477 478
3 127 479 481
3 481 480 126
3 479 480 481
3 127 482 483
3 128 129 24
3 130 129 128
3 130 484 486
3 486 485 129
3 484 485 486
3 130 487 488
3 131 489 491
3 491 490 130
3 489 490 491
3 131 492 493
3 131 494 496
3 494 132 495
3 494 495 496
3 133 132 131
3 133 56 132
3 134 135 26
3 136 135 134
3 136 57 135
3 136 137 57
3 138 137 136
3 138 58 137
3 139 140 46
3 141 140 139
3 141 59 140
3 142 143 29
3 144 143 142
3 144 60 143
3 144 145 60
3 146 145 144
3 146 61 145
3 146 147 61
3 148 147 146
3 148 62 147
3 149 150 31
3 151 150 149
3 151 63 150
3 151 152 63
3 153 152 151
3 153 65 152
3 154 155 49
3 156 155 154
3 156 66 155
3 157 158 35
3 159 158 157
3 159 67 158
3 159 160 67
3 161 160 159
3 161 68 160
3 161 162 68
3 163 162 161
3 163 69 162
3 164 165 37
3 166 165 164
3 166 70 165
3 166 167 70
3 168 167 166
3 168 64 167
3 169 497 498
3 169 499 501
3 499 72 500
3 499 500 501
3 169 170 72
3 171 170 169
3 171 71 170
3 502 74 503
3 172 504 505
3 172 506 508
3 506 75 507
3 506 507 508
3 172 173 75
3 174 173 172
3 174 73 173
3 175 509 510
3 175 511 513
3 511 77 512
3 511 512 513
3 175 176 77
3 177 176 175
3 177 78 176
3 178 179 39
3 180 179 178
3 180 79 179
3 180 181 79
3 182 181 180
3 182 76 181
3 515 514 4
3 516 103 517
3 183 518 520
3 518 103 519
3 518 519 520
3 183 6 103
3 183 184 6
3 521 184 522
3 523 522 183
3 521 522 523
3 525 524 184
3 526 19 527
3 185 528 529
3 185 530 532
3 530 19 531
3 530 531 532
3 185 113 19
3 186 113 185
3 186 9 113
3 533 20 534
3 535 20 536
3 538 537 20
3 187 188 5
3 189 188 187
3 189 22 188
3 81 189 21
3 190 189 81
3 190 22 189
3 190 122 22
3 191 122 190
3 191 10 122
3 191 192 10
3 193 192 191
3 193 24 192
3 83 193 23
3 194 193 83
3 194 24 193
3 194 128 24
3 195 128 194
3 195 11 128
3 195 196 11
3 197 196 195
3 197 26 196
3 85 197 25
3 198 197 85
3 198 26 197
3 198 134 26
3 199 134 198
3 199 12 134
3 200 201 7
3 202 201 200
3 202 29 201
3 88 202 28
3 203 202 88
3 203 29 202
3 203 142 29
3 204 142 203
3 204 13 142
3 204 205 13
3 206 205 204
3 206 31 205
3 90 206 30
3 207 206 90
3 207 31 206
3 207 149 31
3 208 149 207
3 208 15 149
3 92 539 540
3 542 541 92
3 209 210 8
3 211 210 209
3 211 35 210
3 95 211 34
3 212 211 95
3 212 35 211
3 212 157 35
3 213 157 212
3 213 16 157
3 213 214 16
3 215 214 213
3 215 37 214
3 97 215 36
3 216 215 97
3 216 37 215
3 216 164 37
3 217 164 216
3 217 14 164
3 543 17 544
3 545 218 546
3 219 547 549
3 547 218 548
3 547 548 549
3 219 39 218
3 99 550 552
3 550 219 551
3 550 551 552
3 220 219 99
3 220 39 219
3 220 178 39
3 221 178 220
3 221 18 178
3 222 553 554
3 222 555 557
3 555 42 556
3 555 556 557
3 101 222 41
3 223 222 101
3 223 42 222
3 223 119 42
3 224 119 223
3 224 5 119
3 558 102 559
3 560 559 4
3 558 559 560
3 225 561 563
3 561 102 562
3 561 562 563
3 225 43 102
3 104 564 566
3 564 225 565
3 564 565 566
3 226 225 104
3 226 43 225
3 226 224 43
3 227 224 226
3 227 5 224
3 227 187 5
3 228 187 227
3 228 21 187
3 106 228 44
3 229 228 106
3 229 21 228
3 229 80 21
3 230 80 229
3 230 1 80
3 230 231 1
3 232 231 230
3 232 46 231
3 108 232 45
3 233 232 108
3 233 46 232
3 233 139 46
3 234 139 233
3 234 7 139
3 184 109 6
3 235 109 184
3 235 47 109
3 567 235 568
3 236 569 571
3 569 235 570
3 569 570 571
3 236 47 235
3 236 234 47
3 237 234 236
3 237 7 234
3 237 200 7
3 238 200 237
3 238 28 200
3 110 238 48
3 239 238 110
3 239 28 238
3 239 87 28
3 240 87 239
3 240 3 87
3 572 241 573
3 242 574 576
3 574 241 575
3 574 575 576
3 242 49 241
3 111 577 579
3 577 242 578
3 577 578 579
3 243 242 111
3 243 49 242
3 243 154 49
3 244 154 243
3 244 8 154
3 580 112 581
3 245 582 584
3 582 112 583
3 582 583 584
3 245 50 112
3 114 245 19
3 246 245 114
3 246 50 245
3 246 244 50
3 247 244 246
3 247 8 244
3 247 209 8
3 248 209 247
3 248 34 209
3 116 248 51
3 249 248 116
3 249 34 248
3 249 94 34
3 250 94 249
3 250 2 94
3 585 41 586
3 251 587 588
3 251 589 591
3 589 41 590
3 589 590 591
3 251 100 41
3 252 100 251
3 252 4 100
3 253 592 593
3 253 594 596
3 594 53 595
3 594 595 596
3 118 253 20
3 254 253 118
3 254 53 253
3 254 252 53
3 597 252 598
3 599 598 254
3 597 598 599
3 600 4 601
3 602 601 252
3 600 601 602
3 604 603 4
3 255 605 606
3 255 607 608
3 120 255 42
3 609 255 610
3 611 610 120
3 609 610 611
3 613 612 255
3 188 121 5
3 256 121 188
3 256 54 121
3 123 256 22
3 257 256 123
3 257 54 256
3 257 614 616
3 616 615 54
3 614 615 616
3 258 617 619
3 619 618 257
3 617 618 619
3 258 620 621
3 258 622 623
3 625 624 258
3 125 626 628
3 628 627 55
3 626 627 628
3 630 629 125
3 192 127 10
3 259 127 192
3 259 631 633
3 633 632 127
3 631 632 633
3 129 259 24
3 634 259 635
3 636 635 129
3 634 635 636
3 638 637 259
3 132 639 640
3 260 641 643
3 643 642 132
3 641 642 643
3 260 644 645
3 260 646 648
3 646 186 647
3 646 647 648
3 261 186 260
3 261 9 186
3 196 133 11
3 262 133 196
3 262 56 133
3 135 262 26
3 263 262 135
3 263 56 262
3 263 261 56
3 264 261 263
3 264 9 261
3 264 117 9
3 265 117 264
3 265 52 117
3 137 265 57
3 266 265 137
3 266 52 265
3 266 250 52
3 267 250 266
3 267 2 250
3 231 86 1
3 268 86 231
3 268 27 86
3 140 268 46
3 269 268 140
3 269 27 268
3 269 199 27
3 270 199 269
3 270 12 199
3 201 141 7
3 271 141 201
3 271 59 141
3 143 271 29
3 272 271 143
3 272 59 271
3 272 270 59
3 273 270 272
3 273 12 270
3 273 138 12
3 274 138 273
3 274 58 138
3 145 274 60
3 275 274 145
3 275 58 274
3 275 267 58
3 276 267 275
3 276 2 267
3 276 98 2
3 277 98 276
3 277 38 98
3 147 277 61
3 278 277 147
3 278 38 277
3 278 217 38
3 279 217 278
3 279 14 217
3 205 148 13
3 280 148 205
3 280 62 148
3 150 280 31
3 281 280 150
3 281 62 280
3 281 279 62
3 282 279 281
3 282 14 279
3 282 168 14
3 283 168 282
3 283 64 168
3 152 283 63
3 284 283 152
3 284 64 283
3 284 285 64
3 286 285 284
3 286 0 285
3 241 649 651
3 649 93 650
3 649 650 651
3 287 93 241
3 287 33 93
3 155 287 49
3 288 287 155
3 288 33 287
3 288 652 654
3 654 653 33
3 652 653 654
3 289 655 657
3 657 656 288
3 655 656 657
3 289 658 659
3 210 156 8
3 290 156 210
3 290 66 156
3 158 290 35
3 291 290 158
3 291 66 290
3 291 289 66
3 660 289 661
3 662 661 291
3 660 661 662
3 664 663 289
3 160 665 667
3 667 666 67
3 665 666 667
3 669 668 160
3 162 670 672
3 672 671 68
3 670 671 672
3 292 673 675
3 675 674 162
3 673 674 675
3 292 676 677
3 292 678 679
3 293 680 682
3 682 681 292
3 680 681 682
3 293 683 685
3 683 17 684
3 683 684 685
3 214 163 16
3 294 163 214
3 294 69 163
3 165 294 37
3 295 294 165
3 295 69 294
3 295 293 69
3 296 293 295
3 296 17 293
3 296 171 17
3 297 171 296
3 297 71 171
3 167 297 70
3 298 297 167
3 298 71 297
3 298 299 71
3 285 299 298
3 285 0 299
3 686 174 687
3 300 688 690
3 688 174 689
3 688 689 690
3 300 73 174
3 170 300 72
3 301 300 170
3 301 73 300
3 301 302 73
3 299 302 301
3 299 0 302
3 303 691 692
3 303 693 695
3 693 40 694
3 693 694 695
3 696 303 697
3 304 698 700
3 698 303 699
3 698 699 700
3 304 40 303
3 304 221 40
3 305 221 304
3 305 18 221
3 701 74 702
3 306 703 704
3 306 705 707
3 705 74 706
3 705 706 707
3 306 305 74
3 307 305 306
3 307 18 305
3 307 182 18
3 308 182 307
3 308 76 182
3 173 308 75
3 309 308 173
3 309 76 308
3 309 310 76
3 302 310 309
3 302 0 310
3 708 240 709
3 311 710 712
3 710 240 711
3 710 711 712
3 311 3 240
3 713 311 714
3 312 715 717
3 715 311 716
3 715 716 717
3 312 3 311
3 312 91 3
3 313 91 312
3 313 32 91
3 176 313 77
3 314 313 176
3 314 32 313
3 314 208 32
3 315 208 314
3 315 15 208
3 218 718 720
3 718 177 719
3 718 719 720
3 316 177 218
3 316 78 177
3 179 316 39
3 317 316 179
3 317 78 316
3 317 315 78
3 318 315 317
3 318 15 315
3 318 153 15
3 319 153 318
3 319 65 153
3 181 319 79
3 320 319 181
3 320 65 319
3 320 286 65
3 310 286 320
3 310 0 286
