ply
format ascii 1.0
element vertex 197
property float x
property float y
property float z
property uchar red
property uchar green
property uchar blue
element face 185
property list uchar int vertex_index
end_header
-0.828814 51.556 58.8051 255 99 0
0.134115 36.9598 62.484 255 251 0
-2.60154 37.128 70.0667 255 199 0
-0.293903 58.1243 52.1767 178 255 77
0.154806 56.7367 47.3172 197 255 58
0.174728 50.7959 54.4271 255 98 0
-0.067562 44.4438 60.9918 201 0 0
-3.65683 29.3374 74.658 50 255 205
-1.13674 30.4537 72.2563 255 181 0
-1.62934 44.5495 64.7616 255 176 0
-0.521433 37.6787 66.9794 255 84 0
0.021446 30.4247 68.3014 194 255 61
-0.522032 54.8985 55.5776 255 43 0
0.013277 54.5446 53.381 137 0 0
-0.14472 51.3621 56.7604 208 0 0
0.083525 47.6688 57.7782 128 0 0
-0.372078 48.0736 59.9851 255 22 0
-5.31441 28.3528 75.2576 0 140 255
0.144884 40.0529 59.3449 154 255 101
-4.14156 36.338 70.9998 62 255 193
-3.54658 40.2262 68.6136 52 255 203
-2.96479 44.0257 66.0666 46 255 209
-2.09936 40.8896 67.4973 255 194 0
-0.998306 41.1825 65.9726 255 140 0
-1.38002 37.5745 68.7238 255 181 0
-0.612364 26.9462 72.9156 0 232 255
-0.384563 30.5759 70.455 212 255 43
0.093485 60.5452 46.1591 30 255 225
0.094063 57.6114 49.8459 255 79 0
0.199713 53.8224 50.9395 255 196 0
0.203566 46.9454 55.3262 164 255 91
0.173243 43.8812 58.6382 255 102 0
0.09409 40.7236 61.8258 134 0 0
-4.73607 32.374 73.218 71 255 184
-3.12499 33.2723 72.4584 255 195 0
-1.79678 33.8579 71.2937 255 207 0
-2.23953 30.0415 73.6616 116 255 139
-1.4895 26.6773 74.5608 0 202 255
-1.05128 58.2118 54.2208 0 248 255
-1.43617 54.829 57.4478 74 255 181
-1.89452 51.3321 60.4909 56 255 199
-2.40937 47.7293 63.3606 47 255 208
-1.20204 48.1053 61.8646 255 144 0
-0.659592 44.6812 63.0566 255 86 0
-0.271427 41.1165 64.0631 255 18 0
-0.028212 37.4612 64.8753 205 0 0
-0.811745 34.1243 69.7197 255 139 0
-0.188906 34.0814 67.7627 255 18 0
0.092123 33.7557 65.4813 255 163 0
0.120201 30.0295 65.8689 0 241 255
0.081206 36.5924 61.1915 0 0 195
0.086591 38.1389 59.6219 0 0 195
0.139499 38.5064 60.9145 0 0 243
0.108688 35.0735 62.7224 0 0 146
0.081206 36.5924 61.1915 0 0 146
-0.34495 26.9523 71.9086 0 0 134
-0.408919 25.1535 73.0781 0 0 134
-0.09992 57.8679 51.0113 0 0 228
-0.030033 59.4149 49.2239 0 0 185
-0.224016 59.6713 50.3893 0 0 185
0.177193 50.3585 53.1613 0 0 199
0.189685 51.8718 51.4175 0 0 199
0.187221 52.3092 52.6833 0 0 249
0.189147 48.8706 54.8766 0 0 246
0.191611 48.4333 53.6109 0 0 197
0.177193 50.3585 53.1613 0 0 197
-1.67451 24.7469 75.5854 0 0 128
-2.09288 26.41 75.1838 0 0 128
-1.1788 24.9416 74.8365 0 0 129
-1.67451 24.7469 75.5854 0 0 129
0.097975 58.1275 45.4418 0 0 202
0.067315 60.0318 44.8628 0 0 202
0.124145 58.6409 46.7382 0 0 254
-1.61819 58.0223 55.0645 0 0 129
-1.39129 59.7257 53.4516 0 0 129
-1.81063 56.3309 56.678 0 0 160
-1.24373 56.5204 55.8343 0 0 190
-1.61819 58.0223 55.0645 0 0 160
-2.60691 51.0006 61.1342 0 0 129
-2.30813 52.8184 59.7131 0 0 129
-5.58603 26.3253 76.1823 0 0 134
-6.21305 27.7305 75.371 0 0 134
-4.74752 26.8491 75.9542 0 0 131
-5.58603 26.3253 76.1823 0 0 131
-3.91873 27.3414 75.6544 0 0 162
-4.48562 28.8451 74.9578 0 0 194
-4.74752 26.8491 75.9542 0 0 162
-3.17655 27.7401 75.2324 0 0 128
-3.91873 27.3414 75.6544 0 0 128
0.057248 56.1573 46.0013 0 0 153
0.12648 54.7702 47.8325 0 0 153
0.048873 39.6086 58.0315 0 0 149
0.132487 41.5528 57.7164 0 0 149
0.048873 39.6086 58.0315 0 0 148
0.086591 38.1389 59.6219 0 0 148
-4.7066 37.7697 70.1644 0 0 133
-5.02993 35.7794 71.2705 0 0 133
-4.40911 39.7138 68.9713 0 0 165
-4.7066 37.7697 70.1644 0 0 165
-3.84407 38.2821 69.8067 0 0 199
-4.0795 41.668 67.7894 0 0 132
-4.40911 39.7138 68.9713 0 0 132
-3.25568 42.126 67.3401 0 0 195
-3.78861 43.5678 66.5159 0 0 163
-4.0795 41.668 67.7894 0 0 163
-0.231049 28.7672 70.6783 0 0 170
-0.498464 28.7611 71.6853 0 0 205
-0.34495 26.9523 71.9086 0 0 170
-0.028045 28.6916 69.6015 0 0 174
-0.181558 30.5003 69.3782 0 0 211
-0.231049 28.7672 70.6783 0 0 174
0.080057 28.5795 68.44 0 0 139
-0.028045 28.6916 69.6015 0 0 139
-0.030322 60.8818 47.3805 0 0 144
-0.006813 62.352 45.5101 0 0 144
0.093774 59.0783 48.0025 0 0 235
-0.030322 60.8818 47.3805 0 0 190
-0.030033 59.4149 49.2239 0 0 190
0.148933 53.3131 49.6436 0 0 204
0.12648 54.7702 47.8325 0 0 204
0.17726 55.2795 49.1284 0 1 255
0.148933 53.3131 49.6436 0 0 151
0.189685 51.8718 51.4175 0 0 151
0.129269 46.4583 54.0259 0 0 151
0.191611 48.4333 53.6109 0 0 151
0.161828 44.999 55.7071 0 0 150
0.129269 46.4583 54.0259 0 0 150
0.146666 43.4669 57.363 0 0 197
0.161828 44.999 55.7071 0 0 197
0.188405 45.4133 56.9822 0 0 247
0.159064 41.9671 58.9915 0 0 244
0.132487 41.5528 57.7164 0 0 195
0.146666 43.4669 57.363 0 0 195
-5.92576 29.768 74.4269 0 0 134
-6.21305 27.7305 75.371 0 0 134
-5.63659 31.7786 73.4071 0 0 169
-5.92576 29.768 74.4269 0 0 169
-5.02524 30.3634 74.2378 0 0 203
-5.32718 33.7974 72.3796 0 0 134
-5.63659 31.7786 73.4071 0 0 134
-4.43882 34.356 72.1089 0 0 202
-5.02993 35.7794 71.2705 0 0 167
-5.32718 33.7974 72.3796 0 0 167
-2.4679 28.0921 74.7342 0 0 157
-2.94818 29.6894 74.1598 0 0 187
-3.17655 27.7401 75.2324 0 0 157
-1.86451 28.3594 74.1112 0 0 185
-2.4679 28.0921 74.7342 0 0 156
-2.09288 26.41 75.1838 0 0 156
-0.740237 25.076 74.0139 0 0 160
-1.05093 26.8117 73.7382 0 0 191
-1.1788 24.9416 74.8365 0 0 160
-0.408919 25.1535 73.0781 0 0 132
-0.740237 25.076 74.0139 0 0 132
0.053423 61.9337 44.2458 0 0 147
-0.006813 62.352 45.5101 0 0 147
0.053423 61.9337 44.2458 0 0 151
0.067315 60.0318 44.8628 0 0 151
0.097975 58.1275 45.4418 0 0 153
0.057248 56.1573 46.0013 0 0 153
-0.524728 59.7953 51.4898 0 0 137
-0.224016 59.6713 50.3893 0 0 137
-0.903417 59.839 52.5119 0 0 130
-1.39129 59.7257 53.4516 0 0 130
-0.672593 58.168 53.1988 0 0 206
-0.524728 59.7953 51.4898 0 0 170
-0.903417 59.839 52.5119 0 0 170
-2.07896 54.5669 58.1916 0 0 129
-1.81063 56.3309 56.678 0 0 129
-1.66534 53.0805 58.9694 0 0 189
-2.07896 54.5669 58.1916 0 0 159
-2.30813 52.8184 59.7131 0 0 159
-3.4604 45.4804 65.2583 0 0 131
-3.78861 43.5678 66.5159 0 0 131
-3.18269 47.3321 63.9053 0 0 161
-3.4604 45.4804 65.2583 0 0 161
-2.68708 45.8775 64.7136 0 0 192
-2.86434 49.1992 62.569 0 0 130
-3.18269 47.3321 63.9053 0 0 130
-2.15194 49.5307 61.9257 0 0 190
-2.60691 51.0006 61.1342 0 0 159
-2.86434 49.1992 62.569 0 0 159
0.087692 33.4715 64.221 0 0 190
0.108688 35.0735 62.7224 0 0 190
0.113119 35.3577 63.9827 0 0 236
0.101731 31.6084 64.4148 0 0 189
0.087692 33.4715 64.221 0 0 189
0.106162 31.8926 65.6751 0 0 233
0.048226 29.729 64.5596 0 0 146
0.101731 31.6084 64.4148 0 0 146
0.129435 28.3818 67.2238 0 0 184
0.070823 30.2271 67.0851 0 0 226
0.080057 28.5795 68.44 0 0 184
0.104399 28.1657 65.9495 0 0 144
0.129435 28.3818 67.2238 0 0 144
0.048226 29.729 64.5596 0 0 145
0.104399 28.1657 65.9495 0 0 145
3 0 14 12
3 0 16 14
3 1 50 52
3 52 51 18
3 50 51 52
3 1 53 54
3 2 20 19
3 2 22 20
3 2 24 22
3 56 55 25
3 3 57 59
3 57 28 58
3 57 58 59
3 5 29 13
3 5 60 62
3 62 61 29
3 60 61 62
3 5 63 65
3 63 30 64
3 63 64 65
3 6 31 15
3 6 32 31
3 7 33 17
3 7 34 33
3 7 36 34
3 66 37 67
3 69 68 37
3 4 70 72
3 72 71 27
3 70 71 72
3 73 38 74
3 75 39 76
3 77 76 38
3 75 76 77
3 78 40 79
3 9 41 21
3 9 42 41
3 9 43 42
3 10 44 23
3 10 45 44
3 8 46 35
3 11 47 26
3 11 48 47
3 11 49 48
3 12 13 3
3 14 13 12
3 14 5 13
3 14 15 5
3 16 15 14
3 16 6 15
3 80 17 81
3 82 17 83
3 84 7 85
3 86 85 17
3 84 85 86
3 88 87 7
3 90 89 4
3 18 91 92
3 94 93 18
3 19 95 96
3 20 97 99
3 99 98 19
3 97 98 99
3 20 100 101
3 20 102 104
3 102 21 103
3 102 103 104
3 22 21 20
3 22 9 21
3 22 23 9
3 24 23 22
3 24 10 23
3 25 26 8
3 105 26 106
3 107 106 25
3 105 106 107
3 108 11 109
3 110 109 26
3 108 109 110
3 112 111 11
3 113 27 114
3 28 115 117
3 115 27 116
3 115 116 117
3 28 4 27
3 13 28 3
3 29 28 13
3 29 4 28
3 29 118 120
3 120 119 4
3 118 119 120
3 122 121 29
3 30 123 124
3 30 125 126
3 15 30 5
3 31 30 15
3 31 127 129
3 129 128 30
3 127 128 129
3 31 130 132
3 130 18 131
3 130 131 132
3 32 18 31
3 32 1 18
3 17 133 134
3 33 135 137
3 137 136 17
3 135 136 137
3 33 138 139
3 33 140 142
3 140 19 141
3 140 141 142
3 34 19 33
3 34 2 19
3 34 35 2
3 36 35 34
3 36 8 35
3 143 36 144
3 145 144 7
3 143 144 145
3 37 146 148
3 146 36 147
3 146 147 148
3 37 8 36
3 37 25 8
3 149 25 150
3 151 150 37
3 149 150 151
3 153 152 25
3 27 154 155
3 157 156 27
3 159 158 4
3 160 3 161
3 38 162 163
3 38 164 166
3 164 3 165
3 164 165 166
3 38 12 3
3 39 12 38
3 39 0 12
3 167 39 168
3 40 169 171
3 169 39 170
3 169 170 171
3 40 0 39
3 21 172 173
3 41 174 176
3 176 175 21
3 174 175 176
3 41 177 178
3 41 179 181
3 179 40 180
3 179 180 181
3 42 40 41
3 42 0 40
3 42 16 0
3 43 16 42
3 43 6 16
3 23 43 9
3 44 43 23
3 44 6 43
3 44 32 6
3 45 32 44
3 45 1 32
3 35 24 2
3 46 24 35
3 46 10 24
3 26 46 8
3 47 46 26
3 47 10 46
3 47 45 10
3 48 45 47
3 48 1 45
3 48 182 184
3 184 183 1
3 182 183 184
3 49 185 187
3 187 186 48
3 185 186 187
3 49 188 189
3 190 49 191
3 192 191 11
3 190 191 192
3 193 49 194
3 196 195 49
