ply
format ascii 1.0
element vertex 300
property float x
property float y
property float z
property uchar red
property uchar green
property uchar blue
element face 314
property list uchar int vertex_index
end_header
-31.324 -1.92177 64.9727 255 77 0
-40.3178 -4.66053 64.3065 206 255 49
-34.3639 -10.457 71.6352 248 255 7
-25.2359 -8.86697 72.7109 255 27 0
-22.2929 1.82375 66.9049 255 242 0
-17.0735 -5.42823 75.8616 231 0 0
-37.5855 -11.6695 70.4553 0 175 255
-36.2113 -3.17352 64.7809 255 160 0
-39.7671 0.000277 62.2756 40 255 215
-35.0153 1.62894 62.7631 98 255 157
-30.1025 3.32743 63.299 17 255 238
-26.4919 -0.380018 65.5401 255 55 0
-20.8169 -7.50412 73.8737 255 14 0
-42.9127 -6.75897 62.8743 13 255 242
-40.1485 -9.11589 66.5933 130 255 125
-37.231 -7.47378 67.7906 237 255 18
-32.9433 -6.41067 68.1319 255 103 0
-28.0898 -5.42176 68.3852 255 29 0
-29.9773 -9.70608 72.1507 255 93 0
-18.9466 4.77984 69.1941 91 255 164
-23.466 -3.98423 69.2366 255 14 0
-19.5556 -1.81413 71.043 218 0 0
-16.4619 1.07551 73.7437 128 0 0
-33.8097 -2.5516 64.8667 255 108 0
-35.6018 -0.855715 63.5876 255 133 0
-33.1234 -0.151211 63.7285 255 98 0
-32.535 2.44013 63.0019 114 255 141
-30.6361 0.601339 63.9263 255 79 0
-28.2259 1.46033 64.2359 230 255 25
-28.8568 -1.21659 65.1767 255 63 0
-40.9755 -10.2193 65.5272 0 193 255
-39.7704 -11.3765 67.4962 0 182 255
-36.1636 -10.974 71.1699 28 255 227
-37.5144 -9.56391 69.2519 162 255 93
-35.7797 -8.94386 69.6967 248 255 7
-35.2138 -6.89671 68.023 255 181 0
-33.7193 -8.46204 69.9438 255 166 0
-31.4353 -8.05094 70.0911 255 89 0
-32.2669 -10.0583 71.9314 255 167 0
-41.8308 -5.62404 63.7414 158 255 97
-43.3757 -4.39844 62.1013 0 206 255
-41.9437 -3.31123 62.7706 50 255 205
-23.8764 3.65769 65.3504 30 255 225
-20.5136 3.21264 67.9393 186 255 69
-26.6333 -7.15003 70.4772 255 19 0
-25.7102 -4.78397 68.7047 255 20 0
-24.3052 -6.53494 70.8785 255 12 0
-18.8523 -6.55635 74.7664 255 0 0
-20.1147 -4.7821 72.3428 244 0 0
-18.3113 -3.6225 73.427 214 0 0
-17.9153 -0.448088 72.3028 173 0 0
-16.7026 -2.28897 74.7134 178 0 0
-15.2601 -0.812164 76.1424 238 255 17
-15.4701 -4.13895 77.1204 202 255 53
-38.596 -12.5752 69.442 0 109 255
-34.8122 -12.4306 73.008 0 138 255
-32.9473 -12.0149 73.5202 7 255 248
-38.4165 -3.85669 64.6253 255 230 0
-40.1166 -2.37988 63.1905 255 249 0
-37.9692 -1.57771 63.4349 255 185 0
-37.4587 0.835835 62.5395 73 255 182
-25.9581 2.47005 64.7001 131 255 124
-24.291 0.626822 66.1073 255 44 0
-23.8488 -10.5786 74.9738 141 255 114
-22.9559 -8.26928 73.194 255 20 0
-21.6103 -9.99483 75.5332 146 255 109
-19.5068 -9.24823 76.2616 150 255 105
-17.5644 -8.32779 77.1688 158 255 97
-15.7897 -7.23925 78.2383 55 255 200
-42.2392 -9.11168 63.5829 0 134 255
-41.4989 -7.91351 64.6968 140 255 115
-40.3334 -6.88935 65.4896 156 255 99
-38.8519 -10.3697 68.5314 120 255 135
-38.8969 -8.20173 67.3381 159 255 96
-38.7417 -6.04662 65.9818 220 255 35
-36.7771 -5.36182 66.2375 255 205 0
-34.5317 -4.78475 66.3478 255 130 0
-32.117 -4.24804 66.4134 255 78 0
-29.6457 -3.67914 66.53 255 51 0
-30.5322 -5.9432 68.2206 255 53 0
-29.0388 -7.63662 70.2389 255 41 0
-27.6019 -9.32969 72.3839 255 48 0
-30.8173 -11.6869 73.8961 63 255 192
-28.5272 -11.378 74.2144 105 255 150
-26.1762 -11.0261 74.5514 130 255 125
-15.1176 6.41287 74.5107 12 255 243
-44.3801 -5.6416 61.1353 0 68 255
-41.8388 -0.931046 61.9036 0 180 255
-27.2172 -3.01179 66.7789 255 41 0
-24.9109 -2.19441 67.2223 255 33 0
-22.7827 -1.19451 67.9006 255 18 0
-22.1185 -5.75235 71.4923 255 6 0
-21.4061 -2.99649 70.0139 251 0 0
-20.865 0.000662 68.8308 241 0 0
-19.1662 1.38584 70.0049 193 0 0
-17.6709 2.94041 71.3881 255 144 0
-16.3407 4.6308 72.9185 255 239 0
-15.1507 2.71768 75.2901 255 242 0
-39.497 -12.5292 67.8139 0 0 130
-40.0398 -11.97 66.8292 0 0 130
-22.1482 3.42857 66.5558 0 0 181
-22.9399 4.34554 65.7786 0 0 181
-23.0846 2.74072 66.1277 0 0 218
-21.4032 2.51819 67.4221 0 0 220
-21.2585 4.12302 67.073 0 0 182
-22.1482 3.42857 66.5558 0 0 182
-34.9205 -13.4031 73.4659 0 0 128
-35.5663 -12.7179 72.647 0 0 128
-34.1171 -13.1866 73.8392 0 0 128
-34.9205 -13.4031 73.4659 0 0 128
-35.9805 2.52022 62.3806 0 0 173
-37.2022 2.12366 62.2688 0 0 173
-36.237 1.23239 62.6513 0 0 206
-34.7607 2.96219 62.5447 0 0 141
-35.9805 2.52022 62.3806 0 0 141
-31.0931 4.27435 62.9798 0 0 177
-32.3093 3.8307 62.8313 0 0 177
-31.3188 2.88378 63.1504 0 0 212
-29.9226 4.7827 63.1603 0 0 143
-31.0931 4.27435 62.9798 0 0 143
-28.9435 3.83311 63.4939 0 0 143
-29.9226 4.7827 63.1603 0 0 143
-22.0174 -11.1444 76.3442 0 0 178
-22.7296 -10.2867 75.2535 0 0 213
-23.1366 -11.4362 76.0646 0 0 178
-18.8239 -10.1228 77.4062 0 0 143
-19.8636 -10.4856 77.0238 0 0 143
-17.8527 -9.66254 77.8598 0 0 180
-18.5356 -8.78801 76.7152 0 0 216
-18.8239 -10.1228 77.4062 0 0 180
-16.8857 -9.21874 78.3109 0 0 143
-17.8527 -9.66254 77.8598 0 0 143
-41.834 -10.2973 63.8743 0 0 132
-42.4279 -9.77986 62.8822 0 0 132
-31.1523 -12.655 74.5776 0 0 163
-31.8823 -11.8509 73.7082 0 0 190
-32.2172 -12.8189 74.3896 0 0 163
-27.7837 -12.224 75.1976 0 0 139
-28.9269 -12.3643 74.9784 0 0 139
-26.6082 -12.048 75.3661 0 0 174
-27.3517 -11.202 74.3829 0 0 207
-27.7837 -12.224 75.1976 0 0 174
-25.446 -11.8789 75.5927 0 0 141
-26.6082 -12.048 75.3661 0 0 141
-14.524 7.32396 75.2872 0 0 154
-14.5188 5.42117 75.6783 0 0 154
-43.6464 -6.20029 62.0048 0 0 179
-43.9778 -6.84503 61.4139 0 0 155
-43.2441 -7.40371 62.2835 0 0 155
-44.1553 -3.80144 61.3263 0 0 132
-43.4793 -3.1966 61.7258 0 0 132
-18.9101 6.54776 68.8623 0 0 148
-19.6443 5.686 68.2334 0 0 148
-18.2547 5.63918 69.9106 0 0 150
-18.9101 6.54776 68.8623 0 0 150
-14.598 -0.023893 76.8859 0 0 150
-14.6356 -1.76769 77.3095 0 0 150
-14.98 -6.62231 78.8322 0 0 145
-15.1058 -8.15427 79.3548 0 0 145
-40.6423 -11.3914 65.8447 0 0 131
-41.2021 -10.8511 64.8465 0 0 131
-40.3729 -10.7979 66.5117 0 0 178
-40.6423 -11.3914 65.8447 0 0 155
-40.0398 -11.97 66.8292 0 0 155
-42.7633 -2.653 62.0605 0 0 156
-43.4793 -3.1966 61.7258 0 0 156
-42.6597 -3.85484 62.4359 0 0 180
-40.6565 0.776751 61.7561 0 0 138
-39.5447 1.25758 61.9621 0 0 138
-23.7683 5.25583 65.1084 0 0 143
-24.752 4.58285 64.7762 0 0 143
-23.7683 5.25583 65.1084 0 0 143
-22.9399 4.34554 65.7786 0 0 143
-20.4278 4.9024 67.606 0 0 146
-21.2585 4.12302 67.073 0 0 146
-19.7301 3.99624 68.5667 0 0 226
-19.6443 5.686 68.2334 0 0 187
-20.4278 4.9024 67.606 0 0 187
-14.7406 -3.43108 77.7985 0 0 189
-14.6356 -1.76769 77.3095 0 0 189
-15.3651 -2.47556 76.6314 0 0 230
-38.3649 -13.6936 69.732 0 0 129
-38.9098 -13.1285 68.7868 0 0 129
-38.0087 -13.1851 70.3697 0 0 129
-38.3649 -13.6936 69.732 0 0 129
-37.5035 -12.7322 70.8763 0 0 148
-38.0907 -12.1223 69.9487 0 0 168
-38.0087 -13.1851 70.3697 0 0 148
-36.9529 -12.3373 71.3707 0 0 128
-37.5035 -12.7322 70.8763 0 0 128
-36.242 -11.9896 71.728 0 0 150
-36.8746 -11.3217 70.8126 0 0 171
-36.9529 -12.3373 71.3707 0 0 150
-35.4879 -11.7023 72.0889 0 0 173
-36.242 -11.9896 71.728 0 0 151
-35.5663 -12.7179 72.647 0 0 151
-33.1846 -12.9787 74.0953 0 0 155
-33.8798 -12.2228 73.2641 0 0 178
-34.1171 -13.1866 73.8392 0 0 155
-32.2172 -12.8189 74.3896 0 0 132
-33.1846 -12.9787 74.0953 0 0 132
-38.3905 1.67536 62.094 0 0 169
-39.5447 1.25758 61.9621 0 0 169
-38.6129 0.418056 62.4076 0 0 200
-38.3905 1.67536 62.094 0 0 140
-37.2022 2.12366 62.2688 0 0 140
-33.5206 3.36779 62.6641 0 0 176
-34.7607 2.96219 62.5447 0 0 176
-33.7751 2.03454 62.8825 0 0 210
-33.5206 3.36779 62.6641 0 0 142
-32.3093 3.8307 62.8313 0 0 142
-28.0052 2.89955 63.9624 0 0 178
-28.9435 3.83311 63.4939 0 0 178
-29.1642 2.39388 63.7675 0 0 213
-26.8713 3.40442 64.1945 0 0 177
-28.0052 2.89955 63.9624 0 0 177
-27.092 1.96519 64.468 0 0 212
-25.7929 3.98903 64.451 0 0 143
-26.8713 3.40442 64.1945 0 0 143
-24.9172 3.06387 65.0253 0 0 213
-24.752 4.58285 64.7762 0 0 178
-25.7929 3.98903 64.451 0 0 178
-20.9154 -10.8589 76.6596 0 0 143
-22.0174 -11.1444 76.3442 0 0 143
-20.5586 -9.62153 75.8974 0 0 214
-20.9154 -10.8589 76.6596 0 0 179
-19.8636 -10.4856 77.0238 0 0 179
-15.9983 -8.67447 78.8457 0 0 181
-16.677 -7.78352 77.7035 0 0 218
-16.8857 -9.21874 78.3109 0 0 181
-15.1058 -8.15427 79.3548 0 0 144
-15.9983 -8.67447 78.8457 0 0 144
-42.9074 -8.58007 62.6377 0 0 133
-42.4279 -9.77986 62.8822 0 0 133
-42.5759 -7.93532 63.2286 0 0 179
-43.2441 -7.40371 62.2835 0 0 155
-42.9074 -8.58007 62.6377 0 0 155
-41.6073 -9.66551 64.5551 0 0 181
-41.834 -10.2973 63.8743 0 0 156
-41.2021 -10.8511 64.8465 0 0 156
-39.1832 -11.9759 68.4691 0 0 176
-39.497 -12.5292 67.8139 0 0 153
-38.9098 -13.1285 68.7868 0 0 153
-30.072 -12.5188 74.8193 0 0 136
-31.1523 -12.655 74.5776 0 0 136
-29.6722 -11.5325 74.0552 0 0 200
-30.072 -12.5188 74.8193 0 0 169
-28.9269 -12.3643 74.9784 0 0 169
-24.2822 -11.6552 75.8039 0 0 177
-25.0125 -10.8023 74.7626 0 0 211
-25.446 -11.8789 75.5927 0 0 177
-23.1366 -11.4362 76.0646 0 0 142
-24.2822 -11.6552 75.8039 0 0 142
-15.1228 8.32102 74.1225 0 0 154
-15.715 7.37175 73.3406 0 0 154
-15.1228 8.32102 74.1225 0 0 154
-14.524 7.32396 75.2872 0 0 154
-44.6793 -6.32852 60.5011 0 0 132
-43.9778 -6.84503 61.4139 0 0 132
-45.1262 -5.09527 60.3009 0 0 132
-44.6793 -6.32852 60.5011 0 0 132
-44.6575 -4.42302 60.8432 0 0 155
-43.8779 -5.02002 61.6183 0 0 178
-44.1553 -3.80144 61.3263 0 0 155
-45.1262 -5.09527 60.3009 0 0 132
-44.6575 -4.42302 60.8432 0 0 132
-42.7108 -1.4629 61.627 0 0 160
-42.7633 -2.653 62.0605 0 0 160
-41.8912 -2.12114 62.3371 0 0 186
-41.6924 0.31109 61.5701 0 0 164
-40.8029 -0.465385 62.0896 0 0 193
-40.6565 0.776751 61.7561 0 0 164
-42.6823 -0.222953 61.3053 0 0 136
-41.6924 0.31109 61.5701 0 0 136
-42.7108 -1.4629 61.627 0 0 134
-42.6823 -0.222953 61.3053 0 0 134
-17.6169 4.71947 71.0076 0 0 194
-18.2547 5.63918 69.9106 0 0 194
-18.3087 3.86013 70.2911 0 0 237
-16.9518 5.56466 71.7729 0 0 195
-17.6169 4.71947 71.0076 0 0 195
-17.0058 3.78561 72.1533 0 0 239
-16.3266 6.48072 72.5445 0 0 153
-16.9518 5.56466 71.7729 0 0 153
-15.7291 5.52184 73.7146 0 0 245
-15.715 7.37175 73.3406 0 0 199
-16.3266 6.48072 72.5445 0 0 199
-14.5353 3.57358 76.068 0 0 198
-14.5188 5.42117 75.6783 0 0 198
-15.1341 4.56527 74.9004 0 0 243
-14.5433 1.74103 76.4598 0 0 194
-15.2054 0.952757 75.7163 0 0 237
-14.598 -0.023893 76.8859 0 0 194
-14.5353 3.57358 76.068 0 0 152
-14.5433 1.74103 76.4598 0 0 152
-14.8202 -5.07216 78.2732 0 0 184
-15.6299 -5.6891 77.6793 0 0 223
-14.98 -6.62231 78.8322 0 0 184
-14.7406 -3.43108 77.7985 0 0 148
-14.8202 -5.07216 78.2732 0 0 148
3 0 25 23
3 0 27 25
3 0 29 27
3 98 31 99
3 2 34 32
3 2 36 34
3 2 38 36
3 1 41 39
3 4 100 102
3 102 101 42
3 100 101 102
3 4 103 105
3 103 43 104
3 103 104 105
3 3 46 44
3 5 49 47
3 5 51 49
3 5 53 51
3 106 55 107
3 109 108 55
3 7 59 57
3 9 60 24
3 9 110 112
3 112 111 60
3 110 111 112
3 9 113 114
3 10 115 117
3 117 116 26
3 115 116 117
3 10 118 119
3 10 120 121
3 11 61 28
3 11 62 61
3 122 65 123
3 124 123 63
3 122 123 124
3 125 66 126
3 127 67 128
3 129 128 66
3 127 128 129
3 131 130 67
3 132 69 133
3 14 70 30
3 14 71 70
3 6 72 54
3 15 73 33
3 15 74 73
3 15 75 74
3 16 76 35
3 16 77 76
3 16 79 77
3 18 80 37
3 18 81 80
3 134 82 135
3 136 135 56
3 134 135 136
3 137 83 138
3 139 84 140
3 141 140 83
3 139 140 141
3 143 142 84
3 145 144 85
3 13 146 148
3 146 86 147
3 146 147 148
3 150 149 40
3 8 87 58
3 19 151 152
3 19 153 154
3 17 88 78
3 20 89 45
3 20 90 89
3 12 91 64
3 21 92 48
3 21 93 92
3 21 94 93
3 22 95 50
3 22 96 95
3 22 97 96
3 156 155 52
3 158 157 68
3 23 24 7
3 25 24 23
3 25 9 24
3 25 26 9
3 27 26 25
3 27 10 26
3 27 28 10
3 29 28 27
3 29 11 28
3 159 30 160
3 31 161 163
3 161 30 162
3 161 162 163
3 31 14 30
3 32 33 6
3 34 33 32
3 34 15 33
3 34 35 15
3 36 35 34
3 36 16 35
3 36 37 16
3 38 37 36
3 38 18 37
3 39 40 13
3 41 40 39
3 41 164 166
3 166 165 40
3 164 165 166
3 168 167 8
3 42 169 170
3 172 171 42
3 43 173 174
3 43 175 177
3 175 19 176
3 175 176 177
3 44 45 17
3 46 45 44
3 46 20 45
3 47 48 12
3 49 48 47
3 49 21 48
3 49 50 21
3 51 50 49
3 51 22 50
3 51 52 22
3 53 52 51
3 53 178 180
3 180 179 52
3 178 179 180
3 181 54 182
3 183 54 184
3 185 6 186
3 187 186 54
3 185 186 187
3 188 6 189
3 190 32 191
3 192 191 6
3 190 191 192
3 55 193 195
3 193 32 194
3 193 194 195
3 55 2 32
3 55 56 2
3 196 56 197
3 198 197 55
3 196 197 198
3 200 199 56
3 57 58 1
3 59 58 57
3 59 8 58
3 24 59 7
3 60 59 24
3 60 8 59
3 60 201 203
3 203 202 8
3 201 202 203
3 205 204 60
3 26 206 208
3 208 207 9
3 206 207 208
3 210 209 26
3 28 211 213
3 213 212 10
3 211 212 213
3 61 214 216
3 216 215 28
3 214 215 216
3 61 217 218
3 61 219 221
3 219 42 220
3 219 220 221
3 62 42 61
3 62 4 42
3 63 64 3
3 65 64 63
3 65 12 64
3 222 65 223
3 66 224 226
3 224 65 225
3 224 225 226
3 66 12 65
3 66 47 12
3 67 47 66
3 67 5 47
3 67 68 5
3 227 68 228
3 229 228 67
3 227 228 229
3 231 230 68
3 69 232 233
3 69 234 236
3 234 13 235
3 234 235 236
3 30 237 239
3 237 69 238
3 237 238 239
3 70 69 30
3 70 13 69
3 70 39 13
3 71 39 70
3 71 1 39
3 54 240 242
3 240 31 241
3 240 241 242
3 72 31 54
3 72 14 31
3 33 72 6
3 73 72 33
3 73 14 72
3 73 71 14
3 74 71 73
3 74 1 71
3 74 57 1
3 75 57 74
3 75 7 57
3 35 75 15
3 76 75 35
3 76 7 75
3 76 23 7
3 77 23 76
3 77 0 23
3 77 78 0
3 79 78 77
3 79 17 78
3 37 79 16
3 80 79 37
3 80 17 79
3 80 44 17
3 81 44 80
3 81 3 44
3 56 38 2
3 82 38 56
3 82 18 38
3 243 82 244
3 83 245 247
3 245 82 246
3 245 246 247
3 83 18 82
3 83 81 18
3 84 81 83
3 84 3 81
3 84 63 3
3 248 63 249
3 250 249 84
3 248 249 250
3 252 251 63
3 85 253 254
3 256 255 85
3 86 257 258
3 86 259 260
3 40 86 13
3 261 86 262
3 263 262 40
3 261 262 263
3 265 264 86
3 58 41 1
3 87 41 58
3 87 266 268
3 268 267 41
3 266 267 268
3 269 87 270
3 271 270 8
3 269 270 271
3 272 87 273
3 275 274 87
3 78 29 0
3 88 29 78
3 88 11 29
3 45 88 17
3 89 88 45
3 89 11 88
3 89 62 11
3 90 62 89
3 90 4 62
3 64 46 3
3 91 46 64
3 91 20 46
3 48 91 12
3 92 91 48
3 92 20 91
3 92 90 20
3 93 90 92
3 93 4 90
3 93 43 4
3 94 43 93
3 94 19 43
3 50 94 21
3 95 94 50
3 95 19 94
3 95 276 278
3 278 277 19
3 276 277 278
3 96 279 281
3 281 280 95
3 279 280 281
3 96 282 283
3 96 284 286
3 284 85 285
3 284 285 286
3 97 85 96
3 97 287 289
3 289 288 85
3 287 288 289
3 52 97 22
3 290 97 291
3 292 291 52
3 290 291 292
3 294 293 97
3 68 53 5
3 295 53 296
3 297 296 68
3 295 296 297
3 299 298 53
