ply
format ascii 1.0
element vertex 575
property float x
property float y
property float z
property uchar red
property uchar green
property uchar blue
element face 640
property list uchar int vertex_index
end_header
-14.3698 27.2391 -21.4726 154 255 101
-4.37558 21.2747 -22.2555 87 255 168
-6.24568 59.7389 -17.4011 11 255 244
-19.3464 24.2207 -17.0674 218 255 37
-23.7879 14.0834 -21.9124 0 212 255
-16.5081 13.7378 -21.6517 91 255 164
-7.98949 26.3549 -21.435 255 59 0
-13.1761 14.6216 -14.0842 0 153 255
-17.0005 35.4177 -20.6917 255 144 0
-21.0263 57.2012 -13.4974 0 239 255
-12.5578 48.3614 -21.3184 255 8 0
-9.28502 39.1595 -20.4291 245 255 10
-2.76249 35.6333 -26.4876 44 255 211
-15.9648 25.5869 -23.0807 105 255 150
-17.869 19.4464 -21.5 255 255 0
-14.6505 20.7276 -22.4032 96 255 159
-5.02377 22.8266 -24.8418 0 223 255
-8.34909 19.2204 -19.452 255 234 0
-6.32112 16.3811 -19.8701 0 64 255
-9.18554 55.4957 -20.3901 255 92 0
-8.02878 50.5939 -22.0549 229 255 26
-10.7851 44.1622 -22.2721 127 255 128
-5.40538 43.7876 -23.4656 255 208 0
-4.5915 37.6764 -26.5488 153 255 102
-3.1506 41.9348 -24.601 0 43 255
-6.21451 19.9446 -16.3141 181 255 74
-12.0364 64.0369 -6.45194 0 109 255
-10.7002 58.1169 -10.7931 254 255 1
-24.5861 23.5881 -16.2158 255 227 0
-26.7876 18.3164 -22.9202 0 123 255
-22.3013 18.9134 -18.7079 220 255 35
-19.8709 13.5067 -21.0872 0 254 255
-12.0301 28.2641 -18.1579 106 255 149
-14.6877 22.5033 -16.6103 152 255 103
-11.124 21.5132 -16.135 166 255 89
-27.3259 28.4018 -15.0908 0 222 255
-21.0994 28.1954 -13.0811 25 255 230
-19.3694 29.9924 -19.037 255 174 0
-14.4356 31.3066 -24.2355 55 255 200
-13.755 58.9205 -16.0073 230 255 25
-15.5492 52.7735 -15.5412 255 176 0
-14.4639 41.5767 -21.705 231 0 0
-12.3652 37.4709 -24.0781 78 255 177
-12.8867 33.8864 -19.7636 147 255 108
-8.21787 33.0057 -21.821 255 119 0
-4.4716 30.6845 -27.5552 133 255 122
-3.11804 28.0322 -25.9122 124 255 131
-5.22736 32.8029 -20.3763 255 203 0
-6.01872 26.1714 -19.0721 255 148 0
-6.58516 23.2556 -13.4405 27 255 228
-16.4979 16.1385 -16.5681 127 255 128
-14.3682 26.1868 -23.2631 0 172 255
-15.0518 23.2118 -23.253 0 202 255
-14.4749 24.0562 -22.071 110 255 145
-4.43 21.7004 -23.9217 0 136 255
-5.67998 19.4303 -22.5888 0 174 255
-5.31967 18.8321 -21.1727 0 190 255
-6.00082 53.5919 -22.8038 0 232 255
-5.07749 49.9632 -22.8267 28 255 227
-6.7266 47.1802 -21.6398 255 166 0
-4.27956 46.3196 -24.0551 0 226 255
-3.85946 43.1006 -25.0621 0 133 255
-6.83461 18.4406 -13.097 0 189 255
-6.59483 15.8687 -12.7482 0 146 255
-8.62173 64.2577 -8.49189 0 217 255
-21.5665 23.5163 -15.4691 174 255 81
-23.4578 21.3005 -17.5803 244 255 11
-20.5748 21.2322 -16.7867 215 255 40
-16.6602 16.1891 -22.7093 41 255 214
-18.354 15.9699 -21.5847 147 255 108
-18.1171 12.9339 -22.0708 0 240 255
-20.2272 11.5514 -19.5786 0 55 255
-18.9557 11.8217 -19.2236 0 106 255
-10.0361 27.5332 -19.2212 251 255 4
-11.4336 24.8965 -17.3094 141 255 114
-9.64556 24.1441 -18.7073 255 230 0
-8.32456 15.0082 -17.8499 0 145 255
-9.3912 16.438 -16.6486 7 255 248
-24.1819 28.0304 -13.1123 5 255 250
-19.8699 34.861 -18.2111 12 255 243
-19.577 32.1656 -16.6775 113 255 142
-18.7522 32.8294 -20.3261 255 175 0
-16.9991 30.6075 -22.48 255 189 0
-15.6828 33.6339 -23.1678 255 245 0
-8.22417 58.5625 -14.087 255 176 0
-11.8605 56.9539 -14.1279 255 250 0
-10.0362 58.8939 -17.1784 255 195 0
-11.0622 51.9203 -20.9127 255 28 0
-11.8648 54.1776 -17.6871 146 0 0
-13.4811 50.5006 -17.6191 128 0 0
-16.6644 49.2253 -14.8895 96 255 159
-14.6452 46.7969 -17.7195 255 105 0
-15.6854 43.3232 -17.9408 255 247 0
-13.4102 44.8872 -21.6566 255 11 0
-10.4514 42.0139 -20.2503 242 255 13
-11.5785 40.8084 -23.1592 126 255 129
-12.0121 39.0857 -20.6918 207 255 48
-12.9788 35.9373 -21.793 177 255 78
-11.1951 36.6702 -19.7708 143 255 112
-10.5942 33.8044 -19.7177 172 255 83
-8.57934 36.213 -21.2469 255 190 0
-3.45193 36.7425 -27.2641 0 141 255
-4.54605 34.3882 -27.3373 132 255 123
-3.39655 33.4088 -27.7529 0 167 255
-3.45989 29.1181 -27.2407 0 168 255
-2.81484 32.0405 -26.7034 103 255 152
-7.47034 30.8682 -17.1891 16 255 239
-5.34324 29.4811 -20.034 255 5 0
-7.58664 27.5805 -16.7335 121 255 134
-7.32795 24.586 -15.9747 133 255 122
-7.26721 25.8901 -14.0671 0 131 255
-6.45881 23.3992 -9.64806 0 14 255
-25.2483 16.2019 -23.0041 0 194 255
-25.3305 13.9934 -22.1776 0 4 255
-14.1057 19.0272 -14.5415 171 255 84
-15.5722 19.3621 -16.6774 255 242 0
-15.2157 15.5605 -14.548 0 249 255
-18.4417 25.0183 -20.6452 255 215 0
-18.6394 21.9696 -19.0961 255 205 0
-17.1434 22.7463 -22.44 207 255 48
-15.8849 19.9813 -23.0166 48 255 207
-15.2259 17.1896 -22.2258 83 255 172
-6.13774 24.5084 -24.1983 255 192 0
-7.97071 22.739 -20.9675 255 125 0
-6.73282 20.8338 -22.706 175 255 80
-7.16777 17.6043 -20.4372 0 212 255
-18.886 37.2301 -18.1317 95 255 160
-19.6229 59.0859 -12.842 0 158 255
-5.38513 58.3438 -19.4869 0 103 255
-7.79412 58.8402 -19.6005 213 255 42
-6.57944 56.4211 -21.5999 52 255 203
-8.77997 53.2308 -22.5669 235 255 20
-10.2341 49.6583 -23.2838 222 255 33
-11.1054 46.1767 -23.466 186 255 69
-9.72538 47.4845 -21.8136 163 255 92
-8.57775 44.6939 -20.5688 255 189 0
-7.28676 41.5086 -21.6786 255 121 0
-6.58734 38.444 -23.1208 255 106 0
-4.85491 40.7458 -25.1618 203 255 52
-3.56419 39.8833 -26.3596 0 159 255
-2.90758 38.7367 -25.6201 0 147 255
-23.0317 12.0067 -20.0204 0 44 255
-24.2538 12.1529 -20.0327 0 0 255
-5.49596 20.9208 -19.3994 207 255 48
-5.42189 18.257 -18.7984 0 221 255
-6.09046 17.1981 -15.8496 0 209 255
-11.178 61.7578 -8.38423 161 255 94
-8.24642 61.6832 -10.8525 202 255 53
-27.0889 23.9183 -19.0468 61 255 194
-25.8032 21.637 -20.0625 119 255 136
-24.6893 19.147 -20.9208 211 255 44
-23.3404 16.7497 -20.9523 133 255 122
-19.3094 18.6602 -18.8734 255 246 0
-20.6782 16.2684 -19.8451 145 255 110
-21.883 14.086 -20.7798 0 250 255
-21.6643 11.707 -19.6808 0 50 255
-14.0025 28.2547 -18.8715 107 255 148
-14.7584 25.1093 -18.866 192 255 63
-13.469 25.4354 -17.2094 86 255 169
-12.9512 22.1299 -15.5753 102 255 153
-12.2589 18.5343 -14.2741 0 254 255
-9.62965 20.6367 -17.6302 255 222 0
-10.6521 17.6024 -15.1985 0 233 255
-5.93607 15.5853 -17.7774 0 77 255
-29.0226 26.0053 -18.4357 0 236 255
-26.1399 26.0318 -15.8606 255 194 0
-23.0272 25.7173 -14.1001 203 255 52
-20.2839 26.2076 -14.9011 169 255 86
-19.9739 31.294 -13.3193 0 168 255
-19.3925 29.1343 -15.3318 242 255 13
-19.1757 27.0555 -17.8452 255 232 0
-18.0709 27.8208 -21.3951 255 198 0
-15.0879 28.2758 -23.756 72 255 183
-13.7731 29.1248 -23.6177 38 255 217
-15.8565 58.2748 -13.6588 9 255 246
-17.3821 58.5871 -15.0786 237 255 18
-11.3824 57.8936 -18.2542 255 168 0
-14.8976 56.6807 -16.1539 255 73 0
-18.191 55.067 -14.816 153 255 102
-17.1255 39.8872 -17.9112 226 255 29
-15.5891 38.3597 -21.4873 255 43 0
-11.9751 42.8437 -24.2329 205 255 50
-12.9469 39.4048 -24.3088 162 255 93
-14.1669 36.6598 -24.14 175 255 80
-13.3695 34.4828 -24.3449 57 255 198
-13.5045 32.5459 -22.8675 140 255 115
-14.0589 30.6981 -20.5043 193 255 62
-12.4782 31.1771 -18.9092 85 255 170
-10.1372 30.7508 -19.6743 217 255 38
-8.0182 29.7463 -21.9058 255 70 0
-6.12386 35.2485 -24.3259 255 81 0
-5.93495 31.808 -25.0596 255 60 0
-5.85815 28.135 -24.9776 255 74 0
-4.49089 26.4536 -26.4927 51 255 204
-3.78809 25.1944 -25.8252 0 134 255
-3.63315 24.4677 -24.347 105 255 150
-3.50658 37.4106 -23.5058 69 255 186
-5.45795 35.7036 -20.0297 64 255 191
-3.27303 34.2149 -24.3073 255 103 0
-3.46129 30.7802 -23.912 255 55 0
-3.89992 27.2665 -22.8722 255 94 0
-4.85072 24.0699 -21.3255 255 197 0
-6.41003 23.093 -18.021 223 255 32
-6.82065 21.7312 -14.9767 116 255 139
-6.93814 20.1788 -12.0492 0 194 255
-6.60427 24.5963 -11.8925 0 100 255
-6.63703 21.6745 -10.9212 0 163 255
-6.24079 18.6221 -9.50153 0 17 255
-15.2495 21.9524 -19.2998 255 227 0
-15.2921 18.6393 -19.8675 255 221 0
-16.2895 15.5362 -19.528 255 246 0
-17.5965 12.6671 -16.2639 0 161 255
-18.215 12.5385 -17.9469 0 206 255
-4.41346 49.118 -22.6842 0 0 131
-4.62818 51.0358 -22.438 0 0 131
-4.0145 47.2962 -23.2984 0 0 146
-4.67853 48.1414 -23.4409 0 0 161
-4.41346 49.118 -22.6842 0 0 146
-3.87834 45.7378 -23.7383 0 0 128
-4.0145 47.2962 -23.2984 0 0 128
-6.67368 16.2065 -11.6154 0 0 137
-6.70576 17.6199 -11.766 0 0 137
-8.77609 13.1791 -17.0943 0 0 131
-8.33977 12.3297 -16.8098 0 0 131
-22.7648 56.7413 -12.6458 0 0 146
-22.2028 58.076 -12.5148 0 0 146
-21.3507 55.3548 -13.0644 0 0 156
-22.7648 56.7413 -12.6458 0 0 156
-7.96412 29.7403 -15.6789 0 0 146
-8.42019 31.1419 -15.7094 0 0 146
-8.02227 28.0964 -15.4511 0 0 172
-7.52849 29.2243 -16.9613 0 0 199
-7.96412 29.7403 -15.6789 0 0 172
-7.86256 27.2512 -14.1179 0 0 162
-7.42693 26.7353 -15.4003 0 0 186
-8.02227 28.0964 -15.4511 0 0 162
-6.79655 15.0017 -18.9368 0 0 141
-7.21988 15.6133 -19.2203 0 0 141
-6.74444 16.9927 -20.1536 0 0 153
-20.211 38.198 -17.419 0 0 142
-19.9569 36.9389 -16.9256 0 0 142
-18.7487 57.6649 -12.0322 0 0 154
-20.6471 58.4548 -11.4965 0 0 154
-5.75251 55.9667 -21.4752 0 0 151
-5.98229 57.3824 -20.5434 0 0 168
-5.15536 56.9281 -20.4187 0 0 151
-23.7111 11.0728 -18.6783 0 0 128
-23.165 10.9698 -18.6341 0 0 128
-6.58688 14.2132 -12.5062 0 0 136
-6.4329 13.0535 -11.3216 0 0 136
-11.6072 62.8974 -7.41808 0 0 207
-13.0148 62.0215 -7.26864 0 0 177
-13.444 63.1611 -6.30249 0 0 177
-7.18022 62.5723 -10.7216 0 0 168
-8.43408 62.9704 -9.67219 0 0 194
-7.36787 63.8595 -9.54126 0 0 168
-7.00453 61.4333 -12.2243 0 0 145
-7.18022 62.5723 -10.7216 0 0 145
-21.1388 10.6385 -18.3108 0 0 128
-20.58 10.513 -18.1894 0 0 128
-10.4563 15.0937 -15.4903 0 0 168
-10.0217 17.0202 -15.9235 0 0 194
-9.82587 14.5115 -16.2153 0 0 168
-11.0957 15.6811 -14.9771 0 0 138
-10.4563 15.0937 -15.4903 0 0 138
-6.08446 15.0001 -16.3203 0 0 156
-5.67898 16.9212 -18.2879 0 0 176
-5.82737 16.336 -16.8308 0 0 156
-29.0341 28.2948 -16.2458 0 0 146
-28.149 29.302 -14.6689 0 0 146
-28.1743 27.2036 -16.7632 0 0 221
-29.8825 27.0965 -17.9182 0 0 186
-29.0341 28.2948 -16.2458 0 0 186
-19.9648 32.7944 -13.9567 0 0 144
-20.5475 32.2371 -12.3143 0 0 144
-12.241 56.985 -10.91 0 0 158
-12.0804 58.3641 -9.30034 0 0 158
-17.3669 52.1308 -14.7455 0 0 191
-18.6878 53.2776 -14.3829 0 0 191
-16.8701 53.9203 -15.1786 0 0 229
-18.4632 48.5956 -14.3128 0 0 157
-17.0494 47.2785 -14.801 0 0 157
-4.64249 37.9833 -21.3818 0 0 157
-3.66866 38.9863 -22.9703 0 0 157
-5.34266 34.2533 -20.203 0 0 213
-6.40449 34.7025 -18.5593 0 0 181
-6.28919 33.2521 -18.7326 0 0 181
-6.50135 25.469 -11.2893 0 0 129
-6.60445 26.0268 -12.1543 0 0 129
-6.37118 21.0542 -9.68061 0 0 151
-6.54792 22.5369 -10.2846 0 0 169
-6.28207 21.9165 -9.04403 0 0 151
-6.17306 19.528 -8.97076 0 0 151
-6.43891 20.1483 -10.2114 0 0 169
-6.37118 21.0542 -9.68061 0 0 151
-5.84003 17.8978 -8.45759 0 0 133
-6.17306 19.528 -8.97076 0 0 133
-27.6719 18.1741 -22.9467 0 0 131
-27.5455 19.5369 -22.4054 0 0 131
-24.6442 12.481 -19.5954 0 0 129
-24.8506 11.3183 -18.4967 0 0 129
-17.9829 10.4356 -16.189 0 0 136
-17.2906 10.0684 -16.1234 0 0 136
-18.2922 10.3713 -17.0305 0 0 164
-17.9058 12.6028 -17.1054 0 0 188
-17.9829 10.4356 -16.189 0 0 164
-18.9328 10.7577 -17.1501 0 0 134
-18.2922 10.3713 -17.0305 0 0 134
-5.08984 52.8501 -22.4265 0 0 135
-5.4632 54.5521 -22.0771 0 0 135
-5.53916 51.7776 -22.8152 0 0 169
-5.08984 52.8501 -22.4265 0 0 152
-4.62818 51.0358 -22.438 0 0 152
-3.66829 44.1283 -24.2418 0 0 140
-4.06951 44.7101 -24.5586 0 0 151
-3.87834 45.7378 -23.7383 0 0 140
-3.31386 43.5454 -24.0113 0 0 137
-3.50503 42.5177 -24.8316 0 0 148
-3.66829 44.1283 -24.2418 0 0 137
-6.55379 14.9206 -11.4409 0 0 152
-6.71472 17.1546 -12.9226 0 0 170
-6.67368 16.2065 -11.6154 0 0 152
-6.4329 13.0535 -11.3216 0 0 144
-6.55379 14.9206 -11.4409 0 0 144
-8.9104 64.8153 -7.02668 0 0 176
-10.3291 64.1473 -7.47191 0 0 206
-10.6177 64.7049 -6.0067 0 0 176
-7.73428 64.4319 -7.84749 0 0 135
-8.9104 64.8153 -7.02668 0 0 135
-7.36787 63.8595 -9.54126 0 0 138
-7.73428 64.4319 -7.84749 0 0 138
-19.9443 10.6482 -18.0119 0 0 144
-20.58 10.513 -18.1894 0 0 144
-19.5915 11.6866 -19.4011 0 0 158
-9.30942 13.894 -16.4936 0 0 166
-8.85788 15.7231 -17.2493 0 0 190
-8.77609 13.1791 -17.0943 0 0 166
-9.82587 14.5115 -16.2153 0 0 134
-9.30942 13.894 -16.4936 0 0 134
-26.4785 29.1974 -13.6053 0 0 144
-28.149 29.302 -14.6689 0 0 144
-24.9065 29.0117 -12.616 0 0 171
-25.7539 28.2161 -14.1016 0 0 198
-26.4785 29.1974 -13.6053 0 0 171
-23.2217 29.199 -12.3626 0 0 141
-24.9065 29.0117 -12.616 0 0 141
-21.6805 29.2815 -12.347 0 0 165
-22.6407 28.1129 -13.0967 0 0 189
-23.2217 29.199 -12.3626 0 0 165
-19.7234 33.5133 -17.4443 0 0 196
-19.7663 33.2302 -15.6358 0 0 169
-19.9128 34.5779 -16.4026 0 0 169
-16.0398 46.0643 -16.216 0 0 206
-17.0494 47.2785 -14.801 0 0 206
-15.6548 48.0111 -16.3045 0 0 250
-15.1653 45.06 -17.8301 0 0 240
-16.5599 44.3275 -16.3267 0 0 199
-16.0398 46.0643 -16.216 0 0 199
-7.41068 32.2847 -17.139 0 0 146
-8.42019 31.1419 -15.7094 0 0 146
-6.34885 31.8356 -18.7827 0 0 214
-6.28919 33.2521 -18.7326 0 0 182
-7.41068 32.2847 -17.139 0 0 182
-6.33278 24.3035 -8.96524 0 0 134
-6.42862 24.8705 -10.167 0 0 134
-6.19797 22.8451 -8.34538 0 0 135
-6.33278 24.3035 -8.96524 0 0 135
-6.28207 21.9165 -9.04403 0 0 135
-6.19797 22.8451 -8.34538 0 0 135
-26.0269 15.9657 -23.1546 0 0 140
-26.7965 17.0229 -23.1126 0 0 140
-26.018 17.2591 -22.9621 0 0 153
-26.068 14.8614 -22.7413 0 0 139
-26.0269 15.9657 -23.1546 0 0 139
-25.2894 15.0976 -22.5908 0 0 150
-25.6995 14.3931 -21.5561 0 0 128
-26.068 14.8614 -22.7413 0 0 128
-7.79827 14.3153 -17.9267 0 0 154
-7.74616 16.3062 -19.1435 0 0 173
-7.21988 15.6133 -19.2203 0 0 154
-8.33977 12.3297 -16.8098 0 0 137
-7.79827 14.3153 -17.9267 0 0 137
-20.4488 35.7544 -16.9654 0 0 142
-19.9128 34.5779 -16.4026 0 0 142
-19.378 36.0456 -18.1714 0 0 185
-20.4488 35.7544 -16.9654 0 0 162
-19.9569 36.9389 -16.9256 0 0 162
-21.5011 59.0183 -12.1871 0 0 142
-20.6471 58.4548 -11.4965 0 0 142
-20.3246 58.1435 -13.1697 0 0 192
-22.2028 58.076 -12.5148 0 0 166
-21.5011 59.0183 -12.1871 0 0 166
-6.29013 55.0065 -22.2019 0 0 161
-5.75251 55.9667 -21.4752 0 0 146
-5.4632 54.5521 -22.0771 0 0 146
-24.3222 11.1459 -18.6844 0 0 141
-23.6428 12.0798 -20.0265 0 0 153
-23.7111 11.0728 -18.6783 0 0 141
-24.8506 11.3183 -18.4967 0 0 128
-24.3222 11.1459 -18.6844 0 0 128
-13.778 12.6831 -14.8115 0 0 142
-12.873 12.1568 -15.0181 0 0 142
-6.16166 15.8065 -15.3564 0 0 160
-5.82737 16.336 -16.8308 0 0 160
-5.75617 17.7276 -17.324 0 0 181
-6.3347 14.8779 -14.0569 0 0 174
-6.34265 16.5334 -14.2989 0 0 203
-6.58688 14.2132 -12.5062 0 0 174
-6.16166 15.8065 -15.3564 0 0 132
-6.3347 14.8779 -14.0569 0 0 132
-12.3194 60.1845 -8.09593 0 0 161
-13.0148 62.0215 -7.26864 0 0 161
-10.9391 59.9373 -9.58864 0 0 247
-12.0804 58.3641 -9.30034 0 0 203
-12.3194 60.1845 -8.09593 0 0 203
-6.99341 59.873 -13.8415 0 0 194
-8.2353 60.1228 -12.4697 0 0 232
-7.00453 61.4333 -12.2243 0 0 194
-6.00416 60.4612 -15.4986 0 0 194
-7.23493 59.1507 -15.744 0 0 233
-6.99341 59.873 -13.8415 0 0 194
-5.43575 59.6076 -16.6404 0 0 136
-6.00416 60.4612 -15.4986 0 0 136
-5.00547 58.91 -17.6833 0 0 150
-5.81541 59.0414 -18.444 0 0 167
-5.43575 59.6076 -16.6404 0 0 150
-5.28989 57.4607 -18.5851 0 0 142
-5.00547 58.91 -17.6833 0 0 142
-5.15536 56.9281 -20.4187 0 0 141
-5.28989 57.4607 -18.5851 0 0 141
-27.6961 22.3379 -20.4687 0 0 145
-28.4667 23.3488 -19.783 0 0 145
-27.0533 21.1973 -20.9765 0 0 169
-27.6961 22.3379 -20.4687 0 0 169
-26.4461 22.7777 -19.5546 0 0 196
-26.2954 19.9767 -21.4913 0 0 203
-27.5455 19.5369 -22.4054 0 0 174
-27.0533 21.1973 -20.9765 0 0 174
-22.4812 10.8199 -18.4643 0 0 145
-23.165 10.9698 -18.6341 0 0 145
-22.348 11.8569 -19.8506 0 0 159
-21.8574 10.7163 -18.3619 0 0 145
-20.9458 11.6292 -19.6297 0 0 159
-21.1388 10.6385 -18.3108 0 0 145
-22.4812 10.8199 -18.4643 0 0 129
-21.8574 10.7163 -18.3619 0 0 129
-13.5376 63.935 -5.59894 0 0 136
-13.444 63.1611 -6.30249 0 0 136
-11.7816 64.2845 -5.337 0 0 139
-13.5376 63.935 -5.59894 0 0 139
-10.6177 64.7049 -6.0067 0 0 135
-11.7816 64.2845 -5.337 0 0 135
-11.8991 16.1471 -14.5149 0 0 164
-11.4555 18.0684 -14.7363 0 0 187
-11.0957 15.6811 -14.9771 0 0 164
-12.3577 14.1907 -14.42 0 0 162
-12.7175 16.578 -14.1791 0 0 185
-11.8991 16.1471 -14.5149 0 0 162
-12.873 12.1568 -15.0181 0 0 140
-12.3577 14.1907 -14.42 0 0 140
-6.34176 13.1127 -15.7332 0 0 145
-6.08446 15.0001 -16.3203 0 0 145
-6.28397 13.8907 -16.9901 0 0 135
-6.34176 13.1127 -15.7332 0 0 135
-6.47649 14.2886 -18.0364 0 0 154
-6.12859 15.9832 -18.8237 0 0 173
-6.28397 13.8907 -16.9901 0 0 154
-6.79655 15.0017 -18.9368 0 0 131
-6.47649 14.2886 -18.0364 0 0 131
-30.6144 25.2916 -18.8955 0 0 148
-29.8825 27.0965 -17.9182 0 0 148
-29.4335 24.3923 -19.4774 0 0 148
-30.6144 25.2916 -18.8955 0 0 148
-28.0558 24.9618 -18.7412 0 0 200
-28.4667 23.3488 -19.783 0 0 172
-29.4335 24.3923 -19.4774 0 0 172
-21.1177 30.8308 -12.4661 0 0 139
-20.5475 32.2371 -12.3143 0 0 139
-20.5367 29.7447 -13.2002 0 0 187
-21.6805 29.2815 -12.347 0 0 163
-21.1177 30.8308 -12.4661 0 0 163
-19.7755 31.7298 -14.9984 0 0 196
-19.9648 32.7944 -13.9567 0 0 170
-19.7663 33.2302 -15.6358 0 0 170
-12.8212 56.4035 -12.5774 0 0 189
-12.241 56.985 -10.91 0 0 189
-11.2803 57.5354 -12.4605 0 0 226
-14.8192 57.064 -12.3428 0 0 200
-12.8212 56.4035 -12.5774 0 0 200
-13.8585 57.6143 -13.8933 0 0 242
-16.8655 57.2593 -12.4405 0 0 157
-14.8192 57.064 -12.3428 0 0 157
-17.7397 58.6803 -13.2504 0 0 227
-18.7487 57.6649 -12.0322 0 0 190
-16.8655 57.2593 -12.4405 0 0 190
-19.933 54.2878 -13.7237 0 0 197
-21.3507 55.3548 -13.0644 0 0 197
-19.6086 56.1341 -14.1567 0 0 238
-19.933 54.2878 -13.7237 0 0 154
-18.6878 53.2776 -14.3829 0 0 154
-17.9245 50.3567 -14.4196 0 0 190
-17.3669 52.1308 -14.7455 0 0 190
-16.1068 50.9994 -15.2153 0 0 226
-17.9245 50.3567 -14.4196 0 0 151
-18.4632 48.5956 -14.3128 0 0 151
-17.4467 42.6876 -16.7909 0 0 160
-16.5599 44.3275 -16.3267 0 0 160
-18.1668 40.9696 -16.7761 0 0 195
-17.4467 42.6876 -16.7909 0 0 195
-16.4054 41.6052 -17.926 0 0 234
-19.3307 39.5265 -17.3087 0 0 158
-18.1668 40.9696 -16.7761 0 0 158
-18.0058 38.5587 -18.0215 0 0 217
-20.211 38.198 -17.419 0 0 184
-19.3307 39.5265 -17.3087 0 0 184
-3.73267 42.7699 -22.9216 0 0 144
-3.31386 43.5454 -24.0113 0 0 144
-3.49067 41.2483 -23.518 0 0 142
-3.73267 42.7699 -22.9216 0 0 142
-3.36916 39.6493 -24.0275 0 0 168
-3.02909 40.3357 -25.1106 0 0 193
-3.49067 41.2483 -23.518 0 0 168
-3.20708 38.0737 -24.5629 0 0 191
-3.36916 39.6493 -24.0275 0 0 166
-3.66866 38.9863 -22.9703 0 0 166
-6.44647 36.1226 -18.295 0 0 149
-6.40449 34.7025 -18.5593 0 0 149
-5.61817 37.1298 -19.6438 0 0 148
-6.44647 36.1226 -18.295 0 0 148
-4.48226 36.5571 -21.7678 0 0 229
-4.64249 37.9833 -21.3818 0 0 192
-5.61817 37.1298 -19.6438 0 0 192
-6.75752 18.489 -11.2421 0 0 154
-6.70576 17.6199 -11.766 0 0 154
-6.88638 19.3097 -12.5731 0 0 173
-6.93592 26.6737 -13.2416 0 0 135
-7.86256 27.2512 -14.1179 0 0 135
-6.93574 25.2432 -12.9798 0 0 168
-6.93592 26.6737 -13.2416 0 0 151
-6.60445 26.0268 -12.1543 0 0 151
-6.53154 23.9977 -10.7703 0 0 164
-6.50135 25.469 -11.2893 0 0 148
-6.42862 24.8705 -10.167 0 0 148
-6.40885 17.7107 -9.96828 0 0 154
-6.75752 18.489 -11.2421 0 0 154
-6.58947 19.4005 -10.7754 0 0 173
-5.89759 16.8536 -8.89523 0 0 134
-6.40885 17.7107 -9.96828 0 0 134
-5.89759 16.8536 -8.89523 0 0 134
-5.84003 17.8978 -8.45759 0 0 134
-27.6719 18.1741 -22.9467 0 0 130
-26.7965 17.0229 -23.1126 0 0 130
-25.1825 13.4013 -20.6679 0 0 140
-24.7921 13.0731 -21.1051 0 0 152
-24.6442 12.481 -19.5954 0 0 140
-25.6995 14.3931 -21.5561 0 0 130
-25.1825 13.4013 -20.6679 0 0 130
-14.7978 13.1526 -15.0434 0 0 175
-14.1959 15.091 -14.3161 0 0 204
-13.778 12.6831 -14.8115 0 0 175
-15.6942 13.6623 -14.9531 0 0 140
-14.7978 13.1526 -15.0434 0 0 140
-16.3352 13.9513 -15.9632 0 0 174
-15.8568 15.8495 -15.5581 0 0 203
-15.6942 13.6623 -14.9531 0 0 174
-16.8846 12.2156 -15.811 0 0 140
-17.2906 10.0684 -16.1234 0 0 140
-17.0472 14.4028 -16.416 0 0 176
-16.3352 13.9513 -15.9632 0 0 156
-16.8846 12.2156 -15.811 0 0 156
-19.3031 10.3993 -17.7885 0 0 155
-18.5854 12.1801 -18.5852 0 0 175
-18.9328 10.7577 -17.1501 0 0 155
-19.9443 10.6482 -18.0119 0 0 133
-19.3031 10.3993 -17.7885 0 0 133
3 0 53 51
3 1 56 54
3 213 58 214
3 215 60 216
3 217 216 58
3 215 216 217
3 219 218 60
3 221 220 62
3 3 67 65
3 5 70 68
3 5 72 70
3 6 75 73
3 223 222 76
3 8 81 79
3 8 83 81
3 9 224 225
3 9 226 227
3 2 86 84
3 10 89 87
3 10 91 89
3 10 93 91
3 11 96 94
3 11 98 96
3 11 100 98
3 12 103 101
3 12 105 103
3 228 106 229
3 230 108 231
3 232 231 106
3 230 231 232
3 233 110 234
3 235 234 108
3 233 234 235
3 4 113 112
3 7 116 114
3 13 119 117
3 15 120 52
3 15 121 120
3 16 124 122
3 18 125 55
3 18 236 238
3 238 237 125
3 236 237 238
3 239 126 240
3 241 127 242
3 243 130 244
3 245 244 128
3 243 244 245
3 20 131 57
3 20 132 131
3 20 134 132
3 22 135 59
3 22 136 135
3 22 138 136
3 24 139 61
3 24 140 139
3 247 246 141
3 25 145 143
3 249 248 63
3 26 250 252
3 250 146 251
3 250 251 252
3 253 147 254
3 255 254 64
3 253 254 255
3 257 256 147
3 28 149 148
3 30 150 66
3 30 151 150
3 14 152 118
3 31 153 69
3 31 154 153
3 31 155 154
3 259 258 71
3 32 158 156
3 34 159 74
3 34 160 159
3 17 161 123
3 260 162 261
3 262 261 77
3 260 261 262
3 264 263 162
3 265 163 266
3 267 266 144
3 265 266 267
3 35 268 269
3 35 270 272
3 270 164 271
3 270 271 272
3 35 165 164
3 36 166 78
3 36 167 166
3 273 168 274
3 37 169 80
3 37 170 169
3 37 171 170
3 38 172 82
3 38 173 172
3 27 275 276
3 39 174 85
3 39 175 174
3 19 176 129
3 40 177 88
3 40 178 177
3 40 277 279
3 279 278 178
3 277 278 279
3 281 280 90
3 41 179 92
3 41 180 179
3 21 181 133
3 42 182 95
3 42 183 182
3 42 184 183
3 43 185 97
3 43 186 185
3 43 187 186
3 44 188 99
3 44 189 188
3 23 190 137
3 45 191 102
3 45 192 191
3 45 193 192
3 46 194 104
3 46 195 194
3 282 196 283
3 47 284 286
3 284 197 285
3 284 285 286
3 47 198 197
3 47 199 198
3 48 200 107
3 48 201 200
3 48 202 201
3 49 203 109
3 49 204 203
3 287 205 288
3 289 206 290
3 291 290 111
3 289 290 291
3 292 207 293
3 294 293 206
3 292 293 294
3 296 295 207
3 29 297 298
3 300 299 142
3 33 208 157
3 50 209 115
3 50 210 209
3 301 211 302
3 303 212 304
3 305 304 211
3 303 304 305
3 307 306 212
3 51 52 13
3 53 52 51
3 53 15 52
3 54 55 16
3 56 55 54
3 56 18 55
3 308 57 309
3 58 310 312
3 310 57 311
3 310 311 312
3 58 20 57
3 58 59 20
3 60 59 58
3 60 22 59
3 60 61 22
3 313 61 314
3 315 314 60
3 313 314 315
3 316 24 317
3 318 317 61
3 316 317 318
3 62 63 25
3 319 63 320
3 321 320 62
3 319 320 321
3 323 322 63
3 324 64 325
3 326 325 26
3 324 325 326
3 327 64 328
3 330 329 64
3 65 66 28
3 67 66 65
3 67 30 66
3 68 69 14
3 70 69 68
3 70 31 69
3 70 71 31
3 72 71 70
3 72 331 333
3 333 332 71
3 331 332 333
3 73 74 32
3 75 74 73
3 75 34 74
3 76 77 17
3 334 77 335
3 336 335 76
3 334 335 336
3 338 337 77
3 339 35 340
3 341 78 342
3 343 342 35
3 341 342 343
3 344 78 345
3 346 36 347
3 348 347 78
3 346 347 348
3 79 349 351
3 349 80 350
3 349 350 351
3 81 80 79
3 81 37 80
3 81 82 37
3 83 82 81
3 83 38 82
3 84 85 27
3 86 85 84
3 86 39 85
3 87 88 19
3 89 88 87
3 89 40 88
3 89 90 40
3 91 90 89
3 91 352 354
3 354 353 90
3 352 353 354
3 91 355 357
3 355 92 356
3 355 356 357
3 93 92 91
3 93 41 92
3 94 95 21
3 96 95 94
3 96 42 95
3 96 97 42
3 98 97 96
3 98 43 97
3 98 99 43
3 100 99 98
3 100 44 99
3 101 102 23
3 103 102 101
3 103 45 102
3 103 104 45
3 105 104 103
3 105 46 104
3 106 358 359
3 106 360 362
3 360 47 361
3 360 361 362
3 106 107 47
3 108 107 106
3 108 48 107
3 108 109 48
3 110 109 108
3 110 49 109
3 363 111 364
3 365 111 366
3 368 367 111
3 112 369 371
3 371 370 29
3 369 370 371
3 113 372 374
3 374 373 112
3 372 373 374
3 113 375 376
3 114 115 33
3 116 115 114
3 116 50 115
3 117 118 3
3 119 118 117
3 119 14 118
3 52 119 13
3 120 119 52
3 120 14 119
3 120 68 14
3 121 68 120
3 121 5 68
3 122 123 6
3 124 123 122
3 124 17 123
3 55 124 16
3 125 124 55
3 125 17 124
3 125 76 17
3 377 76 378
3 379 378 125
3 377 378 379
3 381 380 76
3 382 79 383
3 126 384 386
3 384 79 385
3 384 385 386
3 126 8 79
3 127 387 388
3 127 389 391
3 389 9 390
3 389 390 391
3 128 129 2
3 130 129 128
3 130 19 129
3 57 392 394
3 392 130 393
3 392 393 394
3 131 130 57
3 131 19 130
3 131 87 19
3 132 87 131
3 132 10 87
3 132 133 10
3 134 133 132
3 134 21 133
3 59 134 20
3 135 134 59
3 135 21 134
3 135 94 21
3 136 94 135
3 136 11 94
3 136 137 11
3 138 137 136
3 138 23 137
3 61 138 22
3 139 138 61
3 139 23 138
3 139 101 23
3 140 101 139
3 140 12 101
3 141 142 4
3 395 142 396
3 397 396 141
3 395 396 397
3 399 398 142
3 401 400 7
3 143 144 1
3 145 144 143
3 145 402 404
3 404 403 144
3 402 403 404
3 63 145 25
3 405 145 406
3 407 406 63
3 405 406 407
3 409 408 145
3 146 410 411
3 146 412 414
3 412 27 413
3 412 413 414
3 64 146 26
3 147 146 64
3 147 27 146
3 147 84 27
3 415 84 416
3 417 416 147
3 415 416 417
3 418 2 419
3 420 419 84
3 418 419 420
3 421 2 422
3 423 128 424
3 425 424 2
3 423 424 425
3 426 128 427
3 429 428 128
3 148 430 431
3 149 432 434
3 434 433 148
3 432 433 434
3 149 435 437
3 435 29 436
3 435 436 437
3 66 149 28
3 150 149 66
3 150 29 149
3 150 112 29
3 151 112 150
3 151 4 112
3 118 67 3
3 152 67 118
3 152 30 67
3 69 152 14
3 153 152 69
3 153 30 152
3 153 151 30
3 154 151 153
3 154 4 151
3 154 141 4
3 155 141 154
3 155 438 440
3 440 439 141
3 438 439 440
3 71 155 31
3 441 155 442
3 443 442 71
3 441 442 443
3 445 444 155
3 446 26 447
3 448 26 449
3 451 450 26
3 156 157 0
3 158 157 156
3 158 33 157
3 74 158 32
3 159 158 74
3 159 33 158
3 159 114 33
3 160 114 159
3 160 7 114
3 123 75 6
3 161 75 123
3 161 34 75
3 77 161 17
3 162 161 77
3 162 34 161
3 162 160 34
3 452 160 453
3 454 453 162
3 452 453 454
3 455 7 456
3 457 456 160
3 455 456 457
3 459 458 7
3 144 56 1
3 163 56 144
3 163 18 56
3 460 163 461
3 462 163 463
3 464 18 465
3 466 465 163
3 464 465 466
3 468 467 18
3 164 469 470
3 164 471 472
3 164 473 475
3 473 148 474
3 473 474 475
3 165 148 164
3 165 28 148
3 78 165 35
3 166 165 78
3 166 28 165
3 166 65 28
3 167 65 166
3 167 3 65
3 168 476 477
3 168 478 480
3 478 36 479
3 478 479 480
3 80 481 483
3 481 168 482
3 481 482 483
3 169 168 80
3 169 36 168
3 169 167 36
3 170 167 169
3 170 3 167
3 170 117 3
3 171 117 170
3 171 13 117
3 82 171 37
3 172 171 82
3 172 13 171
3 172 51 13
3 173 51 172
3 173 0 51
3 85 484 486
3 486 485 27
3 484 485 486
3 174 487 489
3 489 488 85
3 487 488 489
3 174 490 491
3 174 492 494
3 492 127 493
3 492 493 494
3 175 127 174
3 175 9 127
3 129 86 2
3 176 86 129
3 176 39 86
3 88 176 19
3 177 176 88
3 177 39 176
3 177 175 39
3 178 175 177
3 178 9 175
3 178 495 497
3 497 496 9
3 495 496 497
3 499 498 178
3 90 500 502
3 502 501 40
3 500 501 502
3 504 503 90
3 92 505 506
3 179 507 509
3 509 508 92
3 507 508 509
3 179 510 511
3 179 512 514
3 512 126 513
3 512 513 514
3 180 126 179
3 180 8 126
3 133 93 10
3 181 93 133
3 181 41 93
3 95 181 21
3 182 181 95
3 182 41 181
3 182 180 41
3 183 180 182
3 183 8 180
3 183 83 8
3 184 83 183
3 184 38 83
3 97 184 42
3 185 184 97
3 185 38 184
3 185 173 38
3 186 173 185
3 186 0 173
3 186 156 0
3 187 156 186
3 187 32 156
3 99 187 43
3 188 187 99
3 188 32 187
3 188 73 32
3 189 73 188
3 189 6 73
3 137 100 11
3 190 100 137
3 190 44 100
3 102 190 23
3 191 190 102
3 191 44 190
3 191 189 44
3 192 189 191
3 192 6 189
3 192 122 6
3 193 122 192
3 193 16 122
3 104 193 45
3 194 193 104
3 194 16 193
3 194 54 16
3 195 54 194
3 195 1 54
3 515 24 516
3 517 24 518
3 519 140 520
3 521 520 24
3 519 520 521
3 196 522 524
3 522 140 523
3 522 523 524
3 196 12 140
3 197 525 526
3 197 527 528
3 197 529 531
3 529 196 530
3 529 530 531
3 198 196 197
3 198 12 196
3 198 105 12
3 199 105 198
3 199 46 105
3 107 199 47
3 200 199 107
3 200 46 199
3 200 195 46
3 201 195 200
3 201 1 195
3 201 143 1
3 202 143 201
3 202 25 143
3 109 202 48
3 203 202 109
3 203 25 202
3 203 62 25
3 204 62 203
3 204 532 534
3 534 533 62
3 532 533 534
3 535 110 536
3 205 537 539
3 537 110 538
3 537 538 539
3 205 49 110
3 111 540 542
3 540 205 541
3 540 541 542
3 206 205 111
3 206 49 205
3 206 204 49
3 207 204 206
3 207 543 545
3 545 544 204
3 543 544 545
3 207 546 547
3 549 548 207
3 551 550 29
3 142 113 4
3 552 113 553
3 554 553 142
3 552 553 554
3 556 555 113
3 157 53 0
3 208 53 157
3 208 15 53
3 115 208 33
3 209 208 115
3 209 15 208
3 209 121 15
3 210 121 209
3 210 5 121
3 557 116 558
3 559 558 7
3 557 558 559
3 560 116 561
3 562 50 563
3 564 563 116
3 562 563 564
3 211 565 566
3 211 567 569
3 567 50 568
3 567 568 569
3 211 210 50
3 212 210 211
3 212 5 210
3 212 72 5
3 570 72 571
3 572 571 212
3 570 571 572
3 574 573 72
