ply
format ascii 1.0
element vertex 382
property float x
property float y
property float z
property uchar red
property uchar green
property uchar blue
element face 408
property list uchar int vertex_index
end_header
-57.9281 -26.5213 26.6017 202 255 53
-51.6768 -40.7305 30.2514 255 234 0
-57.4208 -37.5178 34.9232 177 255 78
-61.4256 -32.8461 26.2953 255 46 0
-59.1436 -27.3012 18.3575 140 255 115
-57.8863 -46.4475 30.6603 0 154 255
-55.7025 -48.3361 22.6486 205 255 50
-51.0006 -32.8208 24.022 218 255 37
-59.6978 -28.4571 29.3696 0 167 255
-62.7844 -31.5798 30.0963 176 255 79
-62.3771 -29.3534 26.0875 207 255 48
-54.6344 -38.859 32.5753 238 255 17
-57.0254 -42.1049 34.3613 142 255 113
-54.1255 -44.2375 31.3198 255 239 0
-56.4645 -47.8657 27.2702 52 255 203
-51.9233 -46.0651 27.7993 255 136 0
-56.3651 -30.3505 19.9802 216 255 39
-58.8666 -35.7684 38.0118 0 235 255
-60.9413 -33.8237 34.2764 176 255 79
-58.4461 -34.7567 30.9873 255 145 0
-54.9501 -36.1497 28.829 255 198 0
-57.493 -23.0202 25.4302 0 188 255
-60.2506 -27.0381 22.4131 255 213 0
-58.2597 -24.1905 21.8114 0 244 255
-57.6497 -40.8821 37.4103 0 80 255
-62.0618 -30.224 21.4446 230 255 25
-56.8203 -33.0788 24.2624 128 0 0
-50.666 -37.0721 27.4819 255 58 0
-46.1626 -38.3593 25.8943 33 255 222
-48.3362 -42.8114 26.9326 255 142 0
-50.9019 -45.7965 22.6904 255 25 0
-56.1509 -45.0509 18.2982 255 255 0
-61.502 -43.8313 15.9967 0 36 255
-58.8189 -27.5872 28.0737 146 255 109
-61.2246 -28.7418 27.9166 142 255 113
-60.5089 -27.8991 26.4397 246 255 9
-53.4083 -39.8468 31.2517 223 255 32
-54.1965 -41.5071 32.5351 238 255 17
-52.5883 -42.4696 31.1696 255 240 0
-52.8952 -45.09 29.5911 255 229 0
-51.2365 -43.4973 29.5941 255 172 0
-60.8192 -32.7823 35.644 0 108 255
-61.7615 -31.6434 33.7307 0 184 255
-62.5961 -32.3835 28.1789 255 227 0
-61.3432 -33.4491 30.542 255 174 0
-59.8745 -33.616 28.8171 255 74 0
-56.5442 -35.1702 29.7377 255 196 0
-57.9961 -34.057 27.7336 255 23 0
-58.2902 -21.5419 25.026 0 63 255
-58.0614 -23.6837 23.6756 12 255 243
-58.241 -22.1741 23.5062 0 78 255
-56.1677 -22.8676 21.7107 0 37 255
-58.2519 -36.8185 36.3355 154 255 101
-57.6571 -38.246 37.9364 39 255 216
-57.5945 -39.3701 36.4256 84 255 171
-57.2581 -44.4608 32.6663 91 255 164
-58.2088 -43.5566 34.4858 0 105 255
-56.0073 -48.5145 25.1214 124 255 131
-60.4045 -27.1083 19.9501 191 255 64
-62.0424 -28.5977 21.4535 228 255 27
-60.741 -28.9533 19.359 217 255 38
-53.9539 -31.6578 21.9125 230 255 25
-57.0881 -31.583 22.075 164 0 0
-54.0556 -32.8436 24.0966 138 0 0
-53.4914 -34.7262 26.1711 193 0 0
-50.686 -34.7643 25.8685 179 0 0
-47.1326 -40.769 26.4391 191 255 64
-47.3382 -43.3925 24.7041 90 255 165
-49.1195 -44.8902 24.9988 255 95 0
-48.8267 -44.6047 22.3484 119 255 136
-54.1145 -43.8537 18.0589 70 255 185
-58.6639 -44.338 16.6919 0 181 255
-61.8753 -30.6837 31.7615 0 196 255
-61.7548 -29.8185 29.5849 14 255 241
-62.8787 -30.4467 27.8673 155 255 100
-63.1701 -31.2613 25.7788 238 255 17
-55.9965 -38.117 33.7572 231 255 24
-56.7808 -40.1031 35.1016 113 255 142
-55.5013 -40.707 33.9243 185 255 70
-55.4446 -43.2394 32.9252 255 248 0
-55.9085 -45.5093 30.8249 239 255 16
-56.9097 -47.1945 29.1286 0 223 255
-54.8265 -46.3281 29.3276 241 255 14
-53.9697 -47.0088 27.4939 255 184 0
-53.5165 -47.5172 25.2866 255 45 0
-56.8014 -27.487 17.518 0 144 255
-58.0762 -29.0397 18.3457 148 255 107
-59.6666 -34.7999 36.1614 11 255 244
-59.0003 -35.5905 34.5593 187 255 68
-62.2403 -32.7795 32.2468 204 255 51
-60.0157 -34.5399 32.6928 255 223 0
-57.7197 -36.039 32.939 255 249 0
-56.0924 -36.4456 31.6777 255 234 0
-54.6314 -37.3769 30.5596 231 255 24
-52.9925 -38.4895 29.6326 255 253 0
-57.3605 -24.8162 25.7957 92 255 163
-59.2652 -26.7189 24.7856 255 241 0
-58.3105 -25.279 24.0155 133 255 122
-59.0153 -25.5857 21.8205 117 255 138
-59.0225 -25.634 19.8009 62 255 193
-57.5271 -22.5798 22.3225 0 98 255
-57.4815 -24.3603 20.5144 0 176 255
-57.6341 -25.9709 18.9152 0 166 255
-57.6632 -27.1967 29.6977 0 105 255
-56.5586 -26.1934 28.1 37 255 218
-55.2886 -23.2671 28.1608 0 53 255
-56.2474 -23.8854 27.0339 1 255 254
-56.7875 -22.0371 26.7338 0 78 255
-57.9529 -37.0126 39.9559 0 120 255
-57.9271 -41.533 35.8681 0 177 255
-61.6192 -28.2764 24.0792 255 192 0
-62.8249 -29.8746 23.4778 199 255 56
-62.3697 -31.7665 23.5649 255 135 0
-59.6084 -30.2574 20.4348 255 61 0
-60.0895 -31.7501 22.4014 229 0 0
-59.4325 -33.2176 24.9217 129 0 0
-55.8423 -34.6791 26.7668 224 0 0
-52.9328 -36.6821 28.0042 255 132 0
-50.9396 -39.0208 28.7854 255 181 0
-48.1626 -35.1635 25.7106 173 255 82
-48.3599 -37.6997 26.7193 255 51 0
-48.9332 -39.9097 27.7207 255 146 0
-49.9252 -41.7815 28.6696 255 150 0
-49.9113 -44.4977 27.5416 255 89 0
-51.1311 -46.4211 25.34 255 28 0
-53.1142 -47.0806 22.6445 211 0 0
-51.2306 -44.5808 20.0946 175 255 80
-53.427 -45.7168 20.3101 244 0 0
-55.696 -46.9143 20.1115 255 215 0
-58.0942 -46.5863 18.3509 25 255 230
-61.0537 -30.871 33.365 0 0 132
-61.1124 -31.249 34.2597 0 0 132
-58.8287 -20.9816 23.9892 0 0 152
-58.2656 -21.858 24.2661 0 0 171
-58.8533 -20.6655 24.749 0 0 152
-58.2858 -46.078 31.5986 0 0 158
-57.9717 -45.0846 32.6016 0 0 158
-57.5722 -45.4542 31.6633 0 0 181
-58.5933 -47.0397 30.8123 0 0 135
-58.2858 -46.078 31.5986 0 0 135
-58.5241 -47.2356 29.8979 0 0 132
-58.5933 -47.0397 30.8123 0 0 132
-56.9845 -48.7642 22.6878 0 0 186
-57.1369 -48.8534 23.9242 0 0 186
-55.8549 -48.4253 23.885 0 0 222
-56.8649 -48.3183 21.593 0 0 147
-56.9845 -48.7642 22.6878 0 0 147
-47.1117 -43.3209 23.4439 0 0 149
-46.5427 -42.36 24.686 0 0 149
-47.8559 -43.9271 22.266 0 0 178
-48.0825 -43.9986 23.5262 0 0 210
-47.1117 -43.3209 23.4439 0 0 178
-60.7263 -29.1378 29.4773 0 0 177
-60.8518 -29.6762 30.207 0 0 156
-59.8233 -28.9956 30.0993 0 0 156
-56.0534 -28.388 17.5584 0 0 137
-55.5094 -27.6081 17.5139 0 0 137
-57.2427 -21.6446 22.6277 0 0 130
-57.9189 -21.4549 22.9346 0 0 130
-56.7581 -24.5584 20.4242 0 0 150
-56.8246 -23.6139 21.1126 0 0 168
-56.1012 -23.812 21.0224 0 0 150
-56.8344 -25.3637 19.6246 0 0 150
-57.5578 -25.1656 19.7148 0 0 168
-56.7581 -24.5584 20.4242 0 0 150
-56.5821 -26.1702 18.8327 0 0 138
-56.8344 -25.3637 19.6246 0 0 138
-56.7161 -26.3085 29.5965 0 0 133
-57.2412 -26.845 30.3398 0 0 133
-56.1638 -25.8069 28.7976 0 0 155
-57.1109 -26.6951 28.8989 0 0 176
-56.7161 -26.3085 29.5965 0 0 155
-55.6673 -22.1071 27.881 0 0 134
-55.2574 -21.7699 28.4493 0 0 134
-56.1467 -22.4162 27.3176 0 0 157
-55.768 -23.5763 27.5973 0 0 179
-55.6673 -22.1071 27.881 0 0 157
-56.4168 -21.4921 27.1676 0 0 143
-56.5175 -22.9613 26.8838 0 0 158
-56.1467 -22.4162 27.3176 0 0 143
-58.4097 -36.3905 38.9838 0 0 184
-58.3929 -35.8387 39.7324 0 0 161
-58.8497 -35.2166 38.7604 0 0 161
-57.2776 -40.272 38.3363 0 0 164
-57.2813 -38.954 38.5994 0 0 164
-57.6534 -39.564 37.6733 0 0 190
-57.4471 -41.6682 37.7495 0 0 136
-57.2776 -40.272 38.3363 0 0 136
-58.1656 -43.2902 35.4377 0 0 131
-58.2915 -44.3446 34.6785 0 0 131
-57.7105 -48.2212 27.3386 0 0 170
-57.9331 -47.8856 28.2678 0 0 170
-56.6871 -47.5301 28.1994 0 0 198
-45.8251 -37.1599 25.4794 0 0 149
-45.2277 -38.728 25.1553 0 0 149
-47.1626 -36.7614 25.8025 0 0 236
-46.8251 -35.5619 25.3875 0 0 195
-45.8251 -37.1599 25.4794 0 0 195
-51.5163 -43.8118 18.955 0 0 150
-50.1115 -44.1239 19.987 0 0 150
-61.0093 -45.0542 16.6256 0 0 191
-59.5902 -45.3076 16.9732 0 0 191
-60.0829 -44.0846 16.3443 0 0 230
-61.9888 -44.9275 16.0856 0 0 142
-61.0093 -45.0542 16.6256 0 0 142
-62.2966 -43.9782 15.4197 0 0 137
-61.9888 -44.9275 16.0856 0 0 137
-60.6412 -31.8184 35.2164 0 0 132
-60.2435 -32.3591 36.11 0 0 132
-61.2904 -32.2128 34.6874 0 0 176
-60.6412 -31.8184 35.2164 0 0 155
-61.1124 -31.249 34.2597 0 0 155
-55.7654 -21.6184 22.0432 0 0 137
-56.563 -21.7885 22.3217 0 0 137
-55.3488 -22.9156 21.6865 0 0 137
-55.7654 -21.6184 22.0432 0 0 137
-56.1012 -23.812 21.0224 0 0 134
-55.3488 -22.9156 21.6865 0 0 134
-58.447 -44.6325 33.5114 0 0 160
-57.7334 -44.0087 33.5761 0 0 183
-57.9717 -45.0846 32.6016 0 0 160
-58.2915 -44.3446 34.6785 0 0 135
-58.447 -44.6325 33.5114 0 0 135
-57.3324 -48.843 25.1461 0 0 181
-57.561 -48.5186 26.2205 0 0 181
-56.2359 -48.1901 26.1958 0 0 215
-57.3324 -48.843 25.1461 0 0 150
-57.1369 -48.8534 23.9242 0 0 150
-45.9549 -39.8435 25.2811 0 0 149
-45.2277 -38.728 25.1553 0 0 149
-46.4399 -41.0483 25.5535 0 0 180
-46.6476 -39.5642 26.1667 0 0 213
-45.9549 -39.8435 25.2811 0 0 180
-47.2354 -42.0807 25.5716 0 0 210
-46.4399 -41.0483 25.5535 0 0 178
-46.5427 -42.36 24.686 0 0 178
-54.5536 -42.9346 16.9981 0 0 153
-52.9582 -43.4482 17.9371 0 0 153
-55.5765 -43.4477 17.1429 0 0 150
-54.5536 -42.9346 16.9981 0 0 150
-56.5947 -44.0464 17.2625 0 0 191
-55.1327 -44.4523 18.1785 0 0 229
-55.5765 -43.4477 17.1429 0 0 191
-57.8512 -43.6899 16.4594 0 0 179
-57.4074 -44.6945 17.495 0 0 213
-56.5947 -44.0464 17.2625 0 0 179
-59.3799 -43.2133 15.9694 0 0 148
-57.8512 -43.6899 16.4594 0 0 148
-60.799 -42.9599 15.6218 0 0 184
-60.0829 -44.0846 16.3443 0 0 220
-59.3799 -43.2133 15.9694 0 0 184
-61.8924 -42.8556 15.3077 0 0 140
-60.799 -42.9599 15.6218 0 0 140
-60.912 -30.1089 31.2953 0 0 137
-61.1105 -30.3911 32.3804 0 0 137
-61.815 -30.2511 30.6732 0 0 190
-60.912 -30.1089 31.2953 0 0 164
-60.8518 -29.6762 30.207 0 0 164
-56.6908 -29.1643 17.9722 0 0 168
-57.4388 -28.2633 17.9318 0 0 195
-56.0534 -28.388 17.5584 0 0 168
-55.8352 -29.8197 18.7894 0 0 187
-57.2207 -29.6951 19.1629 0 0 224
-56.6908 -29.1643 17.9722 0 0 187
-54.9124 -30.5527 19.6985 0 0 154
-55.8352 -29.8197 18.7894 0 0 154
-53.7068 -31.2064 20.6647 0 0 197
-55.1595 -31.0042 20.9464 0 0 239
-54.9124 -30.5527 19.6985 0 0 197
-52.4507 -31.8827 21.7978 0 0 157
-53.7068 -31.2064 20.6647 0 0 157
-50.9741 -32.4642 22.8525 0 0 195
-52.4772 -32.2393 22.9672 0 0 235
-52.4507 -31.8827 21.7978 0 0 195
-59.237 -34.8193 37.7845 0 0 133
-58.8497 -35.2166 38.7604 0 0 133
-60.2133 -33.3262 36.6006 0 0 133
-60.2435 -32.3591 36.11 0 0 133
-59.637 -34.335 36.8593 0 0 155
-60.2133 -33.3262 36.6006 0 0 155
-60.2429 -33.7911 35.9027 0 0 176
-59.2666 -35.2842 37.0866 0 0 168
-59.237 -34.8193 37.7845 0 0 150
-59.637 -34.335 36.8593 0 0 150
-61.8184 -31.1635 32.7461 0 0 179
-61.0537 -30.871 33.365 0 0 157
-61.1105 -30.3911 32.3804 0 0 157
-58.2758 -21.2521 23.5264 0 0 128
-58.8287 -20.9816 23.9892 0 0 128
-57.8841 -22.377 22.9144 0 0 155
-58.2758 -21.2521 23.5264 0 0 141
-57.9189 -21.4549 22.9346 0 0 141
-56.8474 -22.7237 22.0166 0 0 164
-57.2427 -21.6446 22.6277 0 0 147
-56.563 -21.7885 22.3217 0 0 147
-56.1658 -26.9282 18.1341 0 0 157
-57.2177 -26.729 18.2166 0 0 179
-56.5821 -26.1702 18.8327 0 0 157
-55.5094 -27.6081 17.5139 0 0 138
-56.1658 -26.9282 18.1341 0 0 138
-59.0516 -28.3099 30.1085 0 0 131
-59.8233 -28.9956 30.0993 0 0 131
-58.0343 -27.6797 30.2726 0 0 129
-57.2412 -26.845 30.3398 0 0 129
-58.6805 -27.8269 29.5337 0 0 167
-59.0516 -28.3099 30.1085 0 0 149
-58.0343 -27.6797 30.2726 0 0 149
-55.0186 -22.9697 28.7142 0 0 132
-55.2574 -21.7699 28.4493 0 0 132
-55.5288 -24.3437 28.828 0 0 132
-55.0186 -22.9697 28.7142 0 0 132
-55.9236 -24.7303 28.1304 0 0 188
-56.1638 -25.8069 28.7976 0 0 163
-55.5288 -24.3437 28.828 0 0 163
-57.1284 -20.5602 27.0295 0 0 133
-56.4168 -21.4921 27.1676 0 0 133
-57.4294 -21.2192 26.5763 0 0 132
-57.1284 -20.5602 27.0295 0 0 132
-57.7821 -21.7108 25.9245 0 0 154
-57.1403 -22.5286 26.082 0 0 174
-57.4294 -21.2192 26.5763 0 0 154
-58.1807 -20.9716 25.7224 0 0 146
-57.8916 -22.2811 25.2281 0 0 162
-57.7821 -21.7108 25.9245 0 0 146
-59.0379 -20.1082 25.362 0 0 138
-58.1807 -20.9716 25.7224 0 0 138
-58.8533 -20.6655 24.749 0 0 131
-59.0379 -20.1082 25.362 0 0 131
-57.9777 -36.4469 40.9076 0 0 142
-58.3929 -35.8387 39.7324 0 0 142
-57.5506 -37.7599 40.8131 0 0 141
-57.9777 -36.4469 40.9076 0 0 141
-57.4292 -38.3373 39.6091 0 0 167
-57.805 -37.6293 38.9461 0 0 194
-57.2813 -38.954 38.5994 0 0 167
-57.5506 -37.7599 40.8131 0 0 146
-57.4292 -38.3373 39.6091 0 0 146
-58.0248 -42.2783 36.1289 0 0 148
-58.0679 -42.5448 35.177 0 0 165
-58.1656 -43.2902 35.4377 0 0 148
-57.8861 -41.9529 36.9 0 0 143
-57.7884 -41.2075 36.6392 0 0 157
-58.0248 -42.2783 36.1289 0 0 143
-57.4471 -41.6682 37.7495 0 0 132
-57.8861 -41.9529 36.9 0 0 132
-58.0358 -47.6091 29.1321 0 0 162
-58.5241 -47.2356 29.8979 0 0 162
-57.398 -46.821 29.8944 0 0 186
-58.0358 -47.6091 29.1321 0 0 137
-57.9331 -47.8856 28.2678 0 0 137
-57.7105 -48.2212 27.3386 0 0 146
-57.561 -48.5186 26.2205 0 0 146
-49.5528 -33.1069 23.9213 0 0 153
-50.9741 -32.4642 22.8525 0 0 153
-48.1338 -34.2782 24.7656 0 0 154
-46.8251 -35.5619 25.3875 0 0 154
-49.5816 -33.9921 24.8663 0 0 238
-49.5528 -33.1069 23.9213 0 0 197
-48.1338 -34.2782 24.7656 0 0 197
-48.9095 -44.1359 21.1139 0 0 147
-47.8559 -43.9271 22.266 0 0 147
-50.0287 -44.5927 21.2215 0 0 217
-48.9095 -44.1359 21.1139 0 0 182
-50.1115 -44.1239 19.987 0 0 182
-52.6725 -44.2172 19.0767 0 0 226
-51.5163 -43.8118 18.955 0 0 189
-52.9582 -43.4482 17.9371 0 0 189
-56.8616 -47.6073 20.3245 0 0 194
-56.8649 -48.3183 21.593 0 0 194
-55.6992 -47.6252 21.38 0 0 234
-58.0607 -47.4433 19.4442 0 0 189
-56.8616 -47.6073 20.3245 0 0 189
-56.8951 -46.7503 19.2312 0 0 227
-59.1281 -47.3443 18.7798 0 0 147
-58.0607 -47.4433 19.4442 0 0 147
-59.3054 -46.4317 17.8027 0 0 185
-58.3791 -45.4621 17.5214 0 0 221
-59.5902 -45.3076 16.9732 0 0 185
-59.1281 -47.3443 18.7798 0 0 148
-59.3054 -46.4317 17.8027 0 0 148
-62.2966 -43.9782 15.4197 0 0 138
-61.8924 -42.8556 15.3077 0 0 138
3 0 35 33
3 1 38 36
3 1 40 38
3 130 42 131
3 3 45 43
3 3 47 45
3 132 50 133
3 134 133 48
3 132 133 134
3 2 54 52
3 5 135 137
3 137 136 55
3 135 136 137
3 5 138 139
3 5 140 141
3 6 142 144
3 144 143 57
3 142 143 144
3 6 145 146
3 4 60 58
3 7 63 61
3 7 65 63
3 147 67 148
3 149 69 150
3 151 150 67
3 149 150 151
3 8 152 154
3 152 73 153
3 152 153 154
3 10 74 34
3 10 75 74
3 11 78 76
3 13 79 37
3 13 80 79
3 13 82 80
3 15 83 39
3 15 84 83
3 156 155 85
3 18 87 41
3 18 88 87
3 9 89 72
3 19 90 44
3 19 91 90
3 19 92 91
3 20 93 46
3 20 94 93
3 21 97 95
3 23 98 49
3 23 99 98
3 157 100 158
3 159 101 160
3 161 160 51
3 159 160 161
3 162 102 163
3 164 163 101
3 162 163 164
3 166 165 102
3 167 103 168
3 169 104 170
3 171 170 103
3 169 170 171
3 172 105 173
3 174 106 175
3 176 175 105
3 174 175 176
3 177 107 178
3 179 178 106
3 177 178 179
3 17 180 182
3 180 108 181
3 180 181 182
3 24 183 185
3 185 184 53
3 183 184 185
3 24 186 187
3 12 109 77
3 189 188 56
3 14 190 192
3 192 191 81
3 190 191 192
3 22 110 96
3 25 111 59
3 25 112 111
3 16 113 86
3 26 114 62
3 26 115 114
3 26 116 115
3 27 117 64
3 27 118 117
3 28 193 194
3 28 195 197
3 195 119 196
3 195 196 197
3 28 120 119
3 29 121 66
3 29 122 121
3 29 123 122
3 30 124 68
3 30 125 124
3 198 126 199
3 31 127 70
3 31 128 127
3 31 129 128
3 32 200 202
3 202 201 71
3 200 201 202
3 32 203 204
3 32 205 206
3 33 34 8
3 35 34 33
3 35 10 34
3 36 37 11
3 38 37 36
3 38 13 37
3 38 39 13
3 40 39 38
3 40 15 39
3 207 41 208
3 42 209 211
3 209 41 210
3 209 210 211
3 42 18 41
3 43 44 9
3 45 44 43
3 45 19 44
3 45 46 19
3 47 46 45
3 47 20 46
3 48 49 21
3 50 49 48
3 50 23 49
3 212 51 213
3 214 51 215
3 217 216 51
3 52 53 17
3 54 53 52
3 54 24 53
3 55 56 12
3 218 56 219
3 220 219 55
3 218 219 220
3 222 221 56
3 57 223 225
3 225 224 14
3 223 224 225
3 227 226 57
3 58 59 22
3 60 59 58
3 60 25 59
3 61 62 16
3 63 62 61
3 63 26 62
3 63 64 26
3 65 64 63
3 65 27 64
3 228 28 229
3 230 66 231
3 232 231 28
3 230 231 232
3 67 233 235
3 233 66 234
3 233 234 235
3 67 29 66
3 67 68 29
3 69 68 67
3 69 30 68
3 236 70 237
3 238 70 239
3 240 31 241
3 242 241 70
3 240 241 242
3 243 71 244
3 245 244 31
3 243 244 245
3 246 71 247
3 248 32 249
3 250 249 71
3 248 249 250
3 252 251 32
3 253 72 254
3 73 255 257
3 255 72 256
3 255 256 257
3 73 9 72
3 34 73 8
3 74 73 34
3 74 9 73
3 74 43 9
3 75 43 74
3 75 3 43
3 76 77 2
3 78 77 76
3 78 12 77
3 37 78 11
3 79 78 37
3 79 12 78
3 79 55 12
3 80 55 79
3 80 5 55
3 80 81 5
3 82 81 80
3 82 14 81
3 39 82 13
3 83 82 39
3 83 14 82
3 83 57 14
3 84 57 83
3 84 6 57
3 85 86 4
3 258 86 259
3 260 259 85
3 258 259 260
3 261 16 262
3 263 262 86
3 261 262 263
3 264 16 265
3 266 61 267
3 268 267 16
3 266 267 268
3 269 61 270
3 271 7 272
3 273 272 61
3 271 272 273
3 274 17 275
3 41 276 277
3 87 278 280
3 280 279 41
3 278 279 280
3 87 281 283
3 281 17 282
3 281 282 283
3 87 52 17
3 88 52 87
3 88 2 52
3 72 284 286
3 284 42 285
3 284 285 286
3 89 42 72
3 89 18 42
3 44 89 9
3 90 89 44
3 90 18 89
3 90 88 18
3 91 88 90
3 91 2 88
3 91 76 2
3 92 76 91
3 92 11 76
3 46 92 19
3 93 92 46
3 93 11 92
3 93 36 11
3 94 36 93
3 94 1 36
3 95 96 0
3 97 96 95
3 97 22 96
3 49 97 21
3 98 97 49
3 98 22 97
3 98 58 22
3 99 58 98
3 99 4 58
3 287 50 288
3 100 289 291
3 289 50 290
3 289 290 291
3 100 23 50
3 51 292 294
3 292 100 293
3 292 293 294
3 101 100 51
3 101 23 100
3 101 99 23
3 102 99 101
3 102 4 99
3 102 85 4
3 295 85 296
3 297 296 102
3 295 296 297
3 299 298 85
3 300 8 301
3 103 302 303
3 103 304 306
3 304 8 305
3 304 305 306
3 103 33 8
3 104 33 103
3 104 0 33
3 105 307 308
3 105 309 310
3 105 311 313
3 311 104 312
3 311 312 313
3 106 104 105
3 106 0 104
3 106 95 0
3 107 95 106
3 107 21 95
3 314 107 315
3 316 107 317
3 318 21 319
3 320 319 107
3 318 319 320
3 321 48 322
3 323 322 21
3 321 322 323
3 324 48 325
3 327 326 48
3 108 328 329
3 108 330 331
3 53 108 17
3 332 108 333
3 334 333 53
3 332 333 334
3 336 335 108
3 77 54 2
3 109 54 77
3 109 24 54
3 56 109 12
3 337 109 338
3 339 338 56
3 337 338 339
3 340 24 341
3 342 341 109
3 340 341 342
3 344 343 24
3 81 345 347
3 347 346 5
3 345 346 347
3 349 348 81
3 351 350 14
3 96 35 0
3 110 35 96
3 110 10 35
3 59 110 22
3 111 110 59
3 111 10 110
3 111 75 10
3 112 75 111
3 112 3 75
3 86 60 4
3 113 60 86
3 113 25 60
3 62 113 16
3 114 113 62
3 114 25 113
3 114 112 25
3 115 112 114
3 115 3 112
3 115 47 3
3 116 47 115
3 116 20 47
3 64 116 26
3 117 116 64
3 117 20 116
3 117 94 20
3 118 94 117
3 118 1 94
3 352 7 353
3 119 354 355
3 119 356 358
3 356 7 357
3 356 357 358
3 119 65 7
3 120 65 119
3 120 27 65
3 66 120 28
3 121 120 66
3 121 27 120
3 121 118 27
3 122 118 121
3 122 1 118
3 122 40 1
3 123 40 122
3 123 15 40
3 68 123 29
3 124 123 68
3 124 15 123
3 124 84 15
3 125 84 124
3 125 6 84
3 359 69 360
3 126 361 363
3 361 69 362
3 361 362 363
3 126 30 69
3 70 364 366
3 364 126 365
3 364 365 366
3 127 126 70
3 127 30 126
3 127 125 30
3 128 125 127
3 128 6 125
3 128 367 369
3 369 368 6
3 367 368 369
3 129 370 372
3 372 371 128
3 370 371 372
3 129 373 374
3 71 129 31
3 375 129 376
3 377 376 71
3 375 376 377
3 379 378 129
3 381 380 32
