ply
format ascii 1.0
element vertex 208
property float x
property float y
property float z
property uchar red
property uchar green
property uchar blue
element face 186
property list uchar int vertex_index
end_header
-1.18479 40.4504 -33.0027 15 255 240
-8.14499 24.717 -29.6749 128 0 0
-2.80316 57.7367 -34.1808 255 43 0
-4.82817 64.9244 -32.5948 82 255 173
-4.41563 42.0847 -33.2162 221 0 0
-7.72314 34.1388 -31.6423 179 0 0
-4.2911 32.7066 -31.413 183 0 0
-5.01349 22.3623 -29.2373 0 245 255
-5.37838 50.347 -33.8912 255 185 0
-1.62847 49.6056 -34.2841 116 255 139
-11.5407 26.1727 -30.2036 205 255 50
-15.92 18.7269 -29.3942 0 188 255
-2.70083 41.4177 -33.1994 255 17 0
-4.25019 37.5341 -32.4145 209 0 0
-2.64099 36.6377 -32.279 255 220 0
-3.70108 61.4482 -33.5655 255 232 0
-4.8942 57.8386 -33.7599 206 255 49
-6.19424 54.0864 -33.6689 104 255 151
-4.03042 54.1136 -34.1736 225 0 0
-3.38606 50.1455 -34.2034 255 9 0
-2.11767 53.7921 -34.4205 230 255 25
-7.80436 29.5413 -30.6949 157 0 0
-9.56206 30.1273 -30.8754 255 172 0
-9.81579 25.5523 -29.9271 160 0 0
-14.3245 17.9566 -28.9297 68 255 187
-3.79553 68.3137 -31.8386 0 196 255
-2.65672 64.8674 -32.9943 146 255 109
-1.73954 61.1762 -33.815 102 255 153
-1.02595 57.2571 -34.2751 0 231 255
-8.7553 19.7286 -28.6951 126 255 129
-10.3544 20.7975 -28.9768 240 255 15
-6.29644 42.4483 -33.1006 255 185 0
-7.89403 38.4724 -32.403 206 255 49
-6.01023 38.1429 -32.4459 190 0 0
-5.95195 33.557 -31.5492 172 0 0
-6.12524 28.7114 -30.514 143 0 0
-2.76499 31.5902 -31.1971 74 255 181
-4.54241 27.6309 -30.3174 255 148 0
-6.53904 23.6528 -29.4522 255 125 0
-6.81266 46.4737 -33.4313 88 255 167
-4.78927 46.3523 -33.7294 215 0 0
-2.94672 45.9184 -33.8643 255 23 0
-1.32134 45.1625 -33.7948 115 255 140
-9.58596 34.4701 -31.7016 81 255 174
-11.9927 21.6641 -29.3147 255 176 0
-13.6653 22.3469 -29.6863 187 255 68
-3.36361 69.8775 -31.2385 0 0 138
-4.48391 69.8977 -31.1114 0 0 138
-1.76892 64.6286 -32.9941 0 0 131
-2.22858 66.4569 -32.4834 0 0 131
-1.31033 62.783 -33.4044 0 0 163
-2.19813 63.0218 -33.4047 0 0 194
-1.76892 64.6286 -32.9941 0 0 163
-0.946514 60.8404 -33.7451 0 0 129
-1.31033 62.783 -33.4044 0 0 129
-9.96984 17.8331 -28.4136 0 0 145
-9.20016 17.1944 -28.2728 0 0 145
-2.08048 30.9096 -31.0199 0 0 138
-1.98791 33.5286 -31.5911 0 0 138
-4.77795 24.9966 -29.7773 0 0 228
-3.80934 26.971 -30.1899 0 0 185
-4.04488 24.3367 -29.6499 0 0 185
-6.10945 20.4077 -28.8531 0 0 189
-6.87223 21.053 -28.9606 0 0 189
-5.77627 23.0075 -29.3448 0 0 234
-6.08402 64.7555 -32.2227 0 0 146
-5.51367 66.5365 -31.9503 0 0 146
-6.47207 50.2903 -33.6389 0 0 185
-6.88 52.16 -33.5278 0 0 185
-5.78631 52.2167 -33.7801 0 0 228
-6.09552 48.4104 -33.6613 0 0 228
-7.18921 48.3537 -33.409 0 0 185
-6.47207 50.2903 -33.6389 0 0 185
-0.762427 55.1845 -34.3187 0 0 128
-0.312693 56.8313 -34.1358 0 0 128
-11.4641 28.3337 -30.6244 0 0 181
-10.4748 30.311 -30.9603 0 0 181
-10.5514 28.15 -30.5395 0 0 222
-12.4277 26.39 -30.341 0 0 139
-11.4641 28.3337 -30.6244 0 0 139
-12.3692 19.3488 -28.9061 0 0 184
-11.1735 21.2308 -29.1457 0 0 227
-11.5501 18.9155 -28.7372 0 0 184
-15.6454 20.8013 -29.725 0 0 176
-14.518 22.6113 -29.8711 0 0 176
-14.7927 20.5369 -29.5402 0 0 214
-16.7266 19.0496 -29.6222 0 0 136
-15.6454 20.8013 -29.725 0 0 136
-4.29856 21.6123 -29.1107 0 0 143
-4.04488 24.3367 -29.6499 0 0 143
-5.36525 19.6713 -28.7542 0 0 144
-4.29856 21.6123 -29.1107 0 0 144
-4.84693 61.3891 -33.2697 0 0 185
-5.41047 63.1272 -32.7843 0 0 185
-4.26462 63.1863 -33.0801 0 0 228
-5.44348 59.5844 -33.3669 0 0 185
-4.84693 61.3891 -33.2697 0 0 185
-4.29764 59.6434 -33.6627 0 0 228
-6.0721 57.7131 -33.411 0 0 144
-5.44348 59.5844 -33.3669 0 0 144
-5.54422 55.9625 -33.7144 0 0 234
-6.72212 55.8369 -33.3655 0 0 189
-6.0721 57.7131 -33.411 0 0 189
-14.8045 15.7323 -28.6238 0 0 140
-13.5351 17.495 -28.7136 0 0 140
-15.5471 16.2342 -28.8911 0 0 139
-14.8045 15.7323 -28.6238 0 0 139
-16.3448 16.6194 -29.1233 0 0 176
-15.1223 18.3417 -29.1619 0 0 215
-15.5471 16.2342 -28.8911 0 0 176
-17.088 17.0596 -29.4025 0 0 136
-16.3448 16.6194 -29.1233 0 0 136
-1.19781 37.9587 -32.4939 0 0 133
-0.539155 39.829 -32.7825 0 0 133
-4.99735 68.2312 -31.5722 0 0 142
-4.48391 69.8977 -31.1114 0 0 142
-4.31185 66.619 -32.2167 0 0 228
-5.51367 66.5365 -31.9503 0 0 185
-4.99735 68.2312 -31.5722 0 0 185
-2.79798 68.18 -31.9055 0 0 134
-3.36361 69.8775 -31.2385 0 0 134
-3.22613 66.5905 -32.4165 0 0 204
-2.79798 68.18 -31.9055 0 0 169
-2.22858 66.4569 -32.4834 0 0 169
-0.589722 58.8808 -33.9751 0 0 158
-1.38274 59.2166 -34.045 0 0 188
-0.946514 60.8404 -33.7451 0 0 158
-0.312693 56.8313 -34.1358 0 0 128
-0.589722 58.8808 -33.9751 0 0 128
-10.7694 18.3675 -28.5544 0 0 188
-9.55483 20.263 -28.836 0 0 232
-9.96984 17.8331 -28.4136 0 0 188
-11.5501 18.9155 -28.7372 0 0 143
-10.7694 18.3675 -28.5544 0 0 143
-7.09523 40.4603 -32.7518 0 0 224
-8.10424 40.5011 -32.6403 0 0 183
-7.30544 42.489 -32.9892 0 0 183
-1.92591 36.0523 -32.132 0 0 173
-1.91289 38.544 -32.6408 0 0 210
-1.19781 37.9587 -32.4939 0 0 173
-2.70299 34.114 -31.738 0 0 213
-1.92591 36.0523 -32.132 0 0 175
-1.98791 33.5286 -31.5911 0 0 175
-2.92063 28.9507 -30.6298 0 0 139
-2.08048 30.9096 -31.0199 0 0 139
-3.6537 29.6106 -30.7572 0 0 225
-2.92063 28.9507 -30.6298 0 0 183
-3.80934 26.971 -30.1899 0 0 183
-7.98035 19.0909 -28.582 0 0 191
-7.64717 21.6907 -29.0737 0 0 236
-6.87223 21.053 -28.9606 0 0 191
-9.20016 17.1944 -28.2728 0 0 145
-7.98035 19.0909 -28.582 0 0 145
-6.10945 20.4077 -28.8531 0 0 146
-5.36525 19.6713 -28.7542 0 0 146
-6.08402 64.7555 -32.2227 0 0 146
-5.41047 63.1272 -32.7843 0 0 146
-7.37981 53.9169 -33.31 0 0 145
-6.72212 55.8369 -33.3655 0 0 145
-7.37981 53.9169 -33.31 0 0 145
-6.88 52.16 -33.5278 0 0 145
-7.89956 46.3956 -33.2135 0 0 142
-7.18921 48.3537 -33.409 0 0 142
-7.56356 44.5018 -33.1545 0 0 142
-7.89956 46.3956 -33.2135 0 0 142
-6.55455 44.461 -33.266 0 0 223
-7.30544 42.489 -32.9892 0 0 182
-7.56356 44.5018 -33.1545 0 0 182
-1.30829 53.452 -34.3914 0 0 163
-1.57181 55.5246 -34.3478 0 0 195
-0.762427 55.1845 -34.3187 0 0 163
-1.06369 51.3587 -34.3232 0 0 164
-1.87307 51.6988 -34.3523 0 0 197
-1.30829 53.452 -34.3914 0 0 164
-0.885826 49.1684 -34.1831 0 0 131
-1.06369 51.3587 -34.3232 0 0 131
-0.732262 46.9469 -33.9385 0 0 164
-1.4749 47.384 -34.0395 0 0 196
-0.885826 49.1684 -34.1831 0 0 164
-0.633325 44.6315 -33.629 0 0 131
-0.732262 46.9469 -33.9385 0 0 131
-0.565049 42.2754 -33.233 0 0 164
-1.25307 42.8065 -33.3988 0 0 197
-0.633325 44.6315 -33.629 0 0 164
-0.539155 39.829 -32.7825 0 0 132
-0.565049 42.2754 -33.233 0 0 132
-8.88829 38.513 -32.3476 0 0 140
-8.10424 40.5011 -32.6403 0 0 140
-9.73425 36.5118 -31.9968 0 0 182
-8.88829 38.513 -32.3476 0 0 182
-8.73999 36.4712 -32.0523 0 0 223
-10.558 34.5292 -31.7087 0 0 140
-9.73425 36.5118 -31.9968 0 0 140
-10.4868 32.4824 -31.3734 0 0 181
-9.57401 32.2987 -31.2885 0 0 221
-10.4748 30.311 -30.9603 0 0 181
-10.558 34.5292 -31.7087 0 0 140
-10.4868 32.4824 -31.3734 0 0 140
-13.1586 19.8104 -29.1222 0 0 224
-12.3692 19.3488 -28.9061 0 0 183
-13.5351 17.495 -28.7136 0 0 183
-13.49 24.4771 -30.0824 0 0 179
-12.4277 26.39 -30.341 0 0 179
-12.603 24.2598 -29.945 0 0 219
-13.49 24.4771 -30.0824 0 0 138
-14.518 22.6113 -29.8711 0 0 138
-16.7266 19.0496 -29.6222 0 0 135
-17.088 17.0596 -29.4025 0 0 135
3 0 14 12
3 2 16 15
3 2 18 16
3 2 20 18
3 1 23 21
3 46 25 47
3 48 26 49
3 50 27 51
3 52 51 26
3 50 51 52
3 54 53 27
3 56 55 29
3 4 33 31
3 6 34 13
3 6 35 34
3 57 36 58
3 7 59 61
3 59 37 60
3 59 60 61
3 7 38 37
3 7 62 64
3 64 63 38
3 62 63 64
3 3 65 66
3 8 67 69
3 69 68 17
3 67 68 69
3 8 70 72
3 70 39 71
3 70 71 72
3 8 40 39
3 9 41 19
3 9 42 41
3 74 73 28
3 5 43 32
3 10 75 77
3 77 76 22
3 75 76 77
3 10 78 79
3 80 44 81
3 82 81 30
3 80 81 82
3 11 45 24
3 11 83 85
3 85 84 45
3 83 84 85
3 11 86 87
3 12 13 4
3 14 13 12
3 14 6 13
3 88 7 89
3 91 90 7
3 15 92 94
3 94 93 3
3 92 93 94
3 16 95 97
3 97 96 15
3 95 96 97
3 16 98 99
3 16 100 102
3 100 17 101
3 100 101 102
3 18 17 16
3 18 8 17
3 18 19 8
3 20 19 18
3 20 9 19
3 21 22 5
3 23 22 21
3 23 10 22
3 103 24 104
3 105 24 106
3 107 11 108
3 109 108 24
3 107 108 109
3 111 110 11
3 113 112 0
3 25 114 115
3 25 116 118
3 116 3 117
3 116 117 118
3 119 25 120
3 26 121 123
3 121 25 122
3 121 122 123
3 26 3 25
3 26 15 3
3 27 15 26
3 27 2 15
3 27 28 2
3 124 28 125
3 126 125 27
3 124 125 126
3 128 127 28
3 29 30 1
3 129 30 130
3 131 130 29
3 129 130 131
3 133 132 30
3 31 134 136
3 134 32 135
3 134 135 136
3 33 32 31
3 33 5 32
3 13 33 4
3 34 33 13
3 34 5 33
3 34 21 5
3 35 21 34
3 35 1 21
3 137 14 138
3 139 138 0
3 137 138 139
3 36 140 142
3 140 14 141
3 140 141 142
3 36 6 14
3 143 36 144
3 37 145 147
3 145 36 146
3 145 146 147
3 37 6 36
3 37 35 6
3 38 35 37
3 38 1 35
3 38 29 1
3 148 29 149
3 150 149 38
3 148 149 150
3 152 151 29
3 154 153 7
3 156 155 3
3 17 157 158
3 160 159 17
3 39 161 162
3 39 163 164
3 39 165 167
3 165 31 166
3 165 166 167
3 40 31 39
3 40 4 31
3 19 40 8
3 41 40 19
3 41 4 40
3 41 12 4
3 42 12 41
3 42 0 12
3 28 20 2
3 168 20 169
3 170 169 28
3 168 169 170
3 171 9 172
3 173 172 20
3 171 172 173
3 174 9 175
3 176 42 177
3 178 177 9
3 176 177 178
3 179 42 180
3 181 0 182
3 183 182 42
3 181 182 183
3 185 184 0
3 32 186 187
3 43 188 190
3 190 189 32
3 188 189 190
3 43 191 192
3 22 43 5
3 193 43 194
3 195 194 22
3 193 194 195
3 197 196 43
3 30 23 1
3 44 23 30
3 44 10 23
3 24 198 200
3 198 44 199
3 198 199 200
3 45 44 24
3 45 10 44
3 45 201 203
3 203 202 10
3 201 202 203
3 205 204 45
3 207 206 11
