ply
format ascii 1.0
element vertex 369
property float x
property float y
property float z
property uchar red
property uchar green
property uchar blue
element face 417
property list uchar int vertex_index
end_header
48.9401 26.2096 4.66001 255 136 0
35.8948 30.6043 -2.08187 226 0 0
39.4475 22.7456 9.98631 110 255 145
51.7928 32.941 -1.65038 255 228 0
41.0277 30.4191 1.94515 149 0 0
31.2653 25.4068 8.35302 105 255 150
51.7618 30.5035 5.18394 255 203 0
54.8688 23.6925 12.0723 58 255 197
42.3368 37.9464 2.03641 58 255 197
43.8474 24.7673 7.04751 255 112 0
42.9841 19.9076 9.32449 0 227 255
47.4428 22.3214 8.17693 206 255 49
51.16 28.6058 0.852534 255 243 0
47.6553 30.3355 -1.07629 230 0 0
44.6452 27.5771 3.5777 255 54 0
39.446 26.6161 6.65242 255 61 0
46.1878 32.7344 7.08816 255 31 0
49.0659 29.3594 9.22824 255 41 0
41.3183 36.027 5.61161 201 255 54
47.5963 35.2643 4.54185 255 70 0
43.9691 31.3598 -7.30713 74 255 181
47.969 37.7882 -3.4808 192 0 0
50.6768 32.7591 -5.6949 241 255 14
45.0441 32.4951 -3.94398 156 0 0
38.3178 32.1334 -0.21062 212 0 0
32.2563 30.2275 3.92727 255 250 0
35.6429 29.227 5.52387 231 0 0
34.931 24.6053 9.89123 247 255 8
53.1618 27.3409 3.8324 38 255 217
52.9246 24.5908 7.64368 255 210 0
53.8377 27.2471 8.08016 183 255 72
52.1769 26.326 13.3797 222 0 0
42.3605 39.6838 -1.44813 130 255 125
47.6847 35.4774 0.350357 210 0 0
52.3324 31.5115 1.69918 214 255 41
50.8842 21.0261 10.9599 172 255 83
46.3336 25.5836 5.71796 255 126 0
45.7676 23.7018 7.84299 255 113 0
48.1192 24.6674 6.99054 255 29 0
50.2017 27.1688 2.70839 255 210 0
48.0803 28.3671 2.11135 253 0 0
46.8842 26.8328 3.92409 255 141 0
44.1293 26.3586 5.17677 255 184 0
43.009 33.3979 8.16878 149 255 106
44.7227 32.0951 9.48522 149 255 106
40.4094 34.68 7.27672 66 255 189
43.8358 34.3684 6.5222 255 55 0
40.0063 30.747 -4.58124 255 156 0
39.2683 29.9957 -5.55305 78 255 177
34.7597 30.0014 -2.9189 54 255 201
32.372 30.2245 -0.193311 144 255 111
50.4971 35.6343 -2.72182 255 95 0
50.4369 35.287 -4.85697 255 69 0
51.523 33.2346 -3.74939 255 190 0
44.2721 30.4812 0.272496 128 0 0
46.248 31.5287 -2.24 168 0 0
42.8814 31.8069 -0.916652 130 0 0
41.7883 32.4499 -2.5474 162 0 0
39.7102 31.714 0.963839 198 0 0
36.7312 31.2544 2.91015 252 0 0
38.2974 30.0844 3.63179 211 0 0
39.3918 24.91 8.50759 255 89 0
37.113 25.9644 8.30617 255 37 0
37.1813 23.7866 10.0007 127 255 128
53.2327 28.7771 4.29884 101 255 154
53.9089 27.3888 5.99573 41 255 214
52.9968 28.8227 6.30332 235 255 20
48.0061 28.6356 11.2901 168 255 87
50.6026 27.6758 11.0574 223 0 0
49.6908 27.061 13.5767 231 255 24
51.5303 25.7496 16.3971 96 255 159
42.68 38.9106 0.38651 107 255 148
45.1323 37.439 -0.882577 255 11 0
44.777 36.6374 1.13452 255 61 0
49.7825 32.6138 4.38116 255 114 0
50.3439 34.0804 3.37827 255 100 0
52.082 30.9509 3.32537 255 246 0
53.0459 29.2292 2.53634 44 255 211
54.4376 23.9022 9.34054 255 239 0
52.3273 22.4658 8.72186 255 37 0
53.8064 22.1785 11.0861 160 255 95
31.5049 28.0001 6.35139 128 255 127
41.605 23.8391 8.57133 255 113 0
41.337 21.3012 9.95556 86 255 169
43.4057 22.6066 8.91703 255 131 0
45.1232 21.1113 8.80448 69 255 186
51.9396 30.2963 -0.740035 186 255 69
50.9664 30.7155 -2.19013 255 168 0
49.1336 29.3348 -0.159724 255 74 0
45.7547 29.2019 1.34939 177 0 0
42.5036 28.7172 2.86272 173 0 0
39.8436 28.4208 4.41043 224 0 0
41.9144 27.1208 4.98506 255 99 0
41.7021 25.7125 6.87091 255 134 0
49.1304 31.6861 6.1021 255 87 0
50.5119 30.0661 7.13899 255 98 0
47.7651 31.212 8.45375 255 43 0
46.3552 30.5321 10.2961 97 255 158
42.0095 37.2548 3.7011 139 255 116
44.7953 36.6712 3.18779 255 86 0
44.7142 35.6561 5.21948 255 23 0
46.9804 33.6197 5.51407 255 104 0
31.3741 22.7164 9.98766 0 249 255
44.12 37.8433 -4.38483 255 245 0
47.1962 36.5688 -5.48888 255 231 0
49.6856 34.5792 -6.53836 35 255 220
50.0873 32.8243 -7.45041 0 251 255
49.6785 31.4888 -3.57569 255 88 0
48.1874 32.0215 -4.88857 255 75 0
47.6138 32.4502 -6.93967 153 255 102
44.4941 32.3318 -6.06229 255 176 0
40.8893 32.0105 -3.89447 160 0 0
37.0638 31.5807 -1.29025 194 0 0
33.7121 31.0586 0.965527 255 3 0
35.1801 31.5703 1.93614 255 23 0
33.9055 30.1144 4.85051 255 21 0
33.2173 27.7274 7.19234 255 55 0
37.4175 27.8856 6.07642 233 0 0
35.0026 26.9308 7.8762 255 23 0
32.9263 25.2692 9.32912 255 93 0
32.9936 22.6274 11.052 7 255 248
51.4193 26.5826 3.89808 188 255 67
51.0108 25.5777 6.13336 255 79 0
53.0491 26.2593 5.82471 153 255 102
54.2715 25.8705 7.75658 93 255 162
54.5542 25.648 9.94849 252 255 3
51.7822 28.3593 8.4852 255 62 0
52.9698 26.8092 10.4931 255 90 0
53.9435 25.333 12.971 211 255 44
53.6977 24.7142 16.0102 35 255 220
41.552 39.4825 -3.36534 82 255 173
45.191 38.5263 -2.43434 255 15 0
48.1062 36.6576 -1.86251 255 32 0
50.3005 34.6141 -0.614932 255 70 0
47.5494 35.5068 2.51242 255 36 0
50.5727 33.9913 1.50678 255 78 0
52.2564 32.0214 0.112709 209 255 46
52.5498 29.7499 0.855419 52 255 203
52.2969 27.817 2.33269 65 255 190
50.3321 23.3721 7.81326 255 37 0
49.283 21.1601 8.87454 174 255 81
30.839 29.6285 2.55513 45 255 210
42.5173 32.9672 9.22631 0 0 143
41.4171 33.5191 8.71894 0 0 143
40.1173 34.1602 8.27291 0 0 145
38.8799 35.0129 7.89647 0 0 145
41.4171 33.5191 8.71894 0 0 184
41.7092 34.0389 7.72275 0 0 223
40.1173 34.1602 8.27291 0 0 184
39.3274 21.3525 10.3368 0 0 138
38.4587 22.0317 10.5272 0 0 138
38.4587 22.0317 10.5272 0 0 173
37.3256 22.5522 10.5344 0 0 173
38.3144 23.2661 9.9935 0 0 207
48.2795 27.1761 13.6158 0 0 194
48.8484 27.8483 12.4334 0 0 238
47.4371 27.9634 12.4725 0 0 194
49.2731 26.5665 14.8861 0 0 151
48.2795 27.1761 13.6158 0 0 151
41.6655 39.1706 1.94391 0 0 138
41.1669 38.6337 2.67496 0 0 138
42.5084 38.4285 1.21146 0 0 191
41.8371 39.6527 1.11896 0 0 162
41.6655 39.1706 1.94391 0 0 162
30.6575 25.222 7.61503 0 0 176
30.7773 26.5186 6.61421 0 0 176
31.3851 26.7034 7.35221 0 0 211
46.9339 20.9422 8.55251 0 0 167
45.7741 20.3372 8.86628 0 0 167
46.283 21.7164 8.4907 0 0 197
45.1008 30.7505 10.7795 0 0 165
45.539 31.3136 9.89068 0 0 194
44.2845 31.532 10.3741 0 0 165
45.8509 29.8552 11.1327 0 0 137
45.1008 30.7505 10.7795 0 0 137
40.2005 37.1239 5.11774 0 0 148
39.794 36.4201 6.02569 0 0 148
41.6639 36.6409 4.65635 0 0 228
40.5461 37.7378 4.16248 0 0 188
40.2005 37.1239 5.11774 0 0 188
45.3176 31.4056 -8.82096 0 0 139
45.7106 31.6621 -8.25784 0 0 139
31.0458 21.0466 9.85733 0 0 140
31.5269 21.3187 10.6703 0 0 140
41.8584 19.2701 9.46174 0 0 168
41.0349 19.9668 9.77727 0 0 168
42.1605 20.6044 9.64002 0 0 199
52.179 24.8346 17.3782 0 0 140
51.0982 25.4058 17.5332 0 0 140
40.9641 40.6235 -1.61807 0 0 136
41.4565 40.4774 -0.791842 0 0 136
41.9562 39.5832 -2.40673 0 0 219
40.5599 40.5229 -2.57668 0 0 181
40.9641 40.6235 -1.61807 0 0 181
49.3177 19.9628 10.8512 0 0 203
48.5171 20.0297 9.80857 0 0 203
50.0836 21.0931 9.91721 0 0 252
43.3741 32.3158 9.88453 0 0 173
43.8659 32.7465 8.827 0 0 206
42.5173 32.9672 9.22631 0 0 173
44.2845 31.532 10.3741 0 0 138
43.3741 32.3158 9.88453 0 0 138
39.3395 35.7466 6.85825 0 0 151
38.8799 35.0129 7.89647 0 0 151
40.8638 35.3535 6.44417 0 0 224
39.794 36.4201 6.02569 0 0 185
39.3395 35.7466 6.85825 0 0 185
41.6183 30.6087 -6.31949 0 0 180
43.5997 30.9151 -7.68244 0 0 180
41.9877 31.0534 -5.94419 0 0 217
41.2493 30.233 -6.8054 0 0 182
41.6183 30.6087 -6.31949 0 0 182
39.6373 30.3714 -5.06715 0 0 220
40.9809 29.7313 -7.29127 0 0 146
41.2493 30.233 -6.8054 0 0 146
38.7882 29.707 -5.95369 0 0 144
40.9809 29.7313 -7.29127 0 0 144
36.5339 29.7098 -4.63661 0 0 184
38.7882 29.707 -5.95369 0 0 184
37.014 29.9986 -4.23598 0 0 223
34.1718 29.737 -3.49769 0 0 155
36.5339 29.7098 -4.63661 0 0 155
32.9991 29.6985 -2.234 0 0 140
34.1718 29.737 -3.49769 0 0 140
31.8053 29.81 -0.871211 0 0 185
32.9991 29.6985 -2.234 0 0 185
33.5659 30.1129 -1.55611 0 0 225
31.0661 29.3507 0.426125 0 0 140
31.8053 29.81 -0.871211 0 0 140
42.5834 18.6341 8.77751 0 0 137
43.6958 19.1482 8.79975 0 0 137
36.211 22.95 10.68 0 0 178
35.0859 23.3594 10.6252 0 0 178
36.0561 24.196 9.94595 0 0 214
36.211 22.95 10.68 0 0 140
37.3256 22.5522 10.5344 0 0 140
50.1929 25.9108 16.2963 0 0 194
50.6106 26.4053 14.9869 0 0 239
49.2731 26.5665 14.8861 0 0 194
51.0982 25.4058 17.5332 0 0 143
50.1929 25.9108 16.2963 0 0 143
41.6163 40.0908 0.125477 0 0 139
41.8371 39.6527 1.11896 0 0 139
42.5203 39.2972 -0.530809 0 0 200
41.4565 40.4774 -0.791842 0 0 168
41.6163 40.0908 0.125477 0 0 168
30.849 27.8204 5.66617 0 0 178
31.2247 28.9342 4.45411 0 0 178
31.8806 29.1138 5.13933 0 0 214
30.849 27.8204 5.66617 0 0 140
30.7773 26.5186 6.61421 0 0 140
44.7654 19.75 8.53974 0 0 169
43.6958 19.1482 8.79975 0 0 169
44.0536 20.5095 9.06448 0 0 201
44.7654 19.75 8.53974 0 0 133
45.7741 20.3372 8.86628 0 0 133
46.6763 28.907 11.6297 0 0 173
47.1807 29.5838 10.7931 0 0 206
45.8509 29.8552 11.1327 0 0 173
47.4371 27.9634 12.4725 0 0 147
46.6763 28.907 11.6297 0 0 147
41.0032 38.2878 3.50731 0 0 137
40.5461 37.7378 4.16248 0 0 137
42.1731 37.6006 2.86875 0 0 194
41.1669 38.6337 2.67496 0 0 164
41.0032 38.2878 3.50731 0 0 164
54.7583 22.7572 13.1487 0 0 137
54.9323 23.5884 13.6468 0 0 137
45.3176 31.4056 -8.82096 0 0 138
43.5997 30.9151 -7.68244 0 0 138
30.8233 22.4591 9.17832 0 0 177
30.7688 23.8043 8.361 0 0 177
31.3197 24.0616 9.17034 0 0 212
30.8233 22.4591 9.17832 0 0 142
31.0458 21.0466 9.85733 0 0 142
40.2721 20.6303 10.3214 0 0 173
39.3274 21.3525 10.3368 0 0 173
40.3923 22.0234 9.97094 0 0 206
40.2721 20.6303 10.3214 0 0 138
41.0349 19.9668 9.77727 0 0 138
41.8584 19.2701 9.46174 0 0 139
42.5834 18.6341 8.77751 0 0 139
43.9646 37.8034 -5.64534 0 0 156
42.7741 39.0105 -4.98046 0 0 156
45.5027 37.1661 -6.19736 0 0 205
43.9646 37.8034 -5.64534 0 0 205
45.6581 37.206 -4.93685 0 0 255
46.7968 36.2304 -6.67606 0 0 154
45.5027 37.1661 -6.19736 0 0 154
48.0415 35.2357 -7.2008 0 0 203
46.7968 36.2304 -6.67606 0 0 203
48.4409 35.574 -6.01362 0 0 251
49.2314 34.5936 -7.62568 0 0 144
48.0415 35.2357 -7.2008 0 0 144
49.4323 33.7161 -8.0817 0 0 157
49.2314 34.5936 -7.62568 0 0 157
49.8864 33.7017 -6.99439 0 0 183
49.7515 32.996 -8.48447 0 0 128
49.4323 33.7161 -8.0817 0 0 128
48.5147 32.8089 -8.2291 0 0 170
49.7515 32.996 -8.48447 0 0 170
48.8505 32.6372 -7.19504 0 0 201
47.5329 32.2073 -8.07411 0 0 137
48.5147 32.8089 -8.2291 0 0 137
45.9731 32.1481 -7.63542 0 0 190
47.5329 32.2073 -8.07411 0 0 190
46.0539 32.391 -6.50098 0 0 232
44.2316 31.8458 -6.68471 0 0 220
45.7106 31.6621 -8.25784 0 0 182
45.9731 32.1481 -7.63542 0 0 182
32.3366 21.2742 11.2025 0 0 170
31.5269 21.3187 10.6703 0 0 170
32.1839 22.6719 10.5198 0 0 202
34.1172 22.3704 11.2056 0 0 178
33.9623 23.6164 10.4716 0 0 214
35.0859 23.3594 10.6252 0 0 178
33.2607 21.2589 11.6353 0 0 142
34.1172 22.3704 11.2056 0 0 142
32.3366 21.2742 11.2025 0 0 139
33.2607 21.2589 11.6353 0 0 139
54.4697 24.4086 14.0962 0 0 176
54.9323 23.5884 13.6468 0 0 176
54.4061 24.5128 12.5216 0 0 211
54.3468 24.0993 15.6158 0 0 171
54.4697 24.4086 14.0962 0 0 171
53.8206 25.0236 14.4906 0 0 204
54.1666 23.691 16.7931 0 0 133
54.3468 24.0993 15.6158 0 0 133
53.2627 24.3169 17.1847 0 0 175
52.614 25.2319 16.2036 0 0 210
52.179 24.8346 17.3782 0 0 175
54.1666 23.691 16.7931 0 0 138
53.2627 24.3169 17.1847 0 0 138
40.5874 40.9518 -3.60007 0 0 146
40.5599 40.5229 -2.57668 0 0 146
41.4901 39.8301 -4.47072 0 0 149
40.5874 40.9518 -3.60007 0 0 149
42.836 38.6629 -3.87508 0 0 232
42.7741 39.0105 -4.98046 0 0 190
41.4901 39.8301 -4.47072 0 0 190
47.854 20.3615 8.90131 0 0 182
46.9339 20.9422 8.55251 0 0 182
48.3629 21.7407 8.52574 0 0 220
47.854 20.3615 8.90131 0 0 147
48.5171 20.0297 9.80857 0 0 147
54.2271 22.0002 12.6556 0 0 173
54.3376 22.9355 11.5792 0 0 207
54.7583 22.7572 13.1487 0 0 173
53.2301 21.1921 12.3968 0 0 152
54.2271 22.0002 12.6556 0 0 152
51.7691 20.6159 12.3337 0 0 215
52.3453 21.6023 11.023 0 14 255
53.2301 21.1921 12.3968 0 0 215
50.3262 19.445 11.8396 0 0 171
51.7691 20.6159 12.3337 0 0 171
49.3177 19.9628 10.8512 0 0 165
50.3262 19.445 11.8396 0 0 165
30.2996 29.0527 1.80035 0 0 183
31.0661 29.3507 0.426125 0 0 183
31.6055 29.9265 1.18091 0 0 221
30.5161 28.6346 3.76804 0 0 180
31.5476 29.928 3.2412 0 0 217
31.2247 28.9342 4.45411 0 0 180
30.1144 28.0892 2.91997 0 0 144
30.5161 28.6346 3.76804 0 0 144
30.2996 29.0527 1.80035 0 0 143
30.1144 28.0892 2.91997 0 0 143
30.6575 25.222 7.61503 0 0 140
30.7688 23.8043 8.361 0 0 140
3 0 38 36
3 0 41 39
3 0 36 41
3 143 142 43
3 144 45 145
3 146 43 147
3 148 147 45
3 146 147 148
3 1 48 47
3 1 49 48
3 1 50 49
3 2 149 150
3 3 53 51
3 4 56 54
3 4 58 56
3 4 60 58
3 2 63 61
3 2 151 153
3 153 152 63
3 151 152 153
3 6 66 64
3 154 69 155
3 156 155 67
3 154 155 156
3 158 157 69
3 8 159 160
3 8 161 163
3 161 71 162
3 161 162 163
3 8 73 71
3 6 76 74
3 6 64 76
3 7 80 78
3 5 164 166
3 166 165 81
3 164 165 166
3 9 84 82
3 11 85 37
3 11 167 169
3 169 168 85
3 167 168 169
3 12 88 86
3 14 89 40
3 14 90 89
3 14 92 90
3 9 93 42
3 9 82 93
3 16 96 94
3 170 97 171
3 172 171 44
3 170 171 172
3 174 173 97
3 18 175 176
3 18 177 179
3 177 98 178
3 177 178 179
3 18 100 98
3 16 101 46
3 16 94 101
3 20 180 181
3 183 182 102
3 10 184 186
3 186 185 83
3 184 185 186
3 21 104 103
3 22 105 52
3 22 106 105
3 13 107 87
3 23 108 55
3 23 109 108
3 23 110 109
3 24 111 57
3 24 112 111
3 24 114 112
3 26 115 59
3 26 116 115
3 15 117 91
3 27 118 62
3 27 119 118
3 27 120 119
3 28 123 121
3 30 124 65
3 30 125 124
3 17 126 95
3 31 127 68
3 31 128 127
3 31 129 128
3 188 187 70
3 32 189 190
3 32 191 193
3 191 130 192
3 191 192 193
3 32 131 130
3 33 132 72
3 33 133 132
3 19 134 99
3 34 135 75
3 34 136 135
3 34 137 136
3 28 138 77
3 28 121 138
3 29 139 122
3 35 140 79
3 35 194 196
3 196 195 140
3 194 195 196
3 25 141 113
3 36 37 9
3 38 37 36
3 38 11 37
3 39 40 12
3 41 40 39
3 41 14 40
3 41 42 14
3 36 42 41
3 36 9 42
3 43 44 16
3 197 44 198
3 199 198 43
3 197 198 199
3 201 200 44
3 45 202 203
3 45 204 206
3 204 18 205
3 204 205 206
3 45 46 18
3 43 46 45
3 43 16 46
3 47 207 209
3 209 208 20
3 207 208 209
3 48 210 212
3 212 211 47
3 210 211 212
3 48 213 214
3 48 215 216
3 49 217 219
3 219 218 48
3 217 218 219
3 49 220 221
3 49 222 223
3 50 224 226
3 226 225 49
3 224 225 226
3 50 227 228
3 230 229 10
3 51 52 21
3 53 52 51
3 53 22 52
3 54 55 13
3 56 55 54
3 56 23 55
3 56 57 23
3 58 57 56
3 58 24 57
3 58 59 24
3 60 59 58
3 60 26 59
3 61 62 15
3 63 62 61
3 63 27 62
3 63 231 233
3 233 232 27
3 231 232 233
3 235 234 63
3 64 65 28
3 66 65 64
3 66 30 65
3 67 68 17
3 69 68 67
3 69 31 68
3 69 70 31
3 236 70 237
3 238 237 69
3 236 237 238
3 240 239 70
3 71 241 242
3 71 243 245
3 243 32 244
3 243 244 245
3 71 72 32
3 73 72 71
3 73 33 72
3 74 75 19
3 76 75 74
3 76 34 75
3 76 77 34
3 64 77 76
3 64 28 77
3 78 79 29
3 80 79 78
3 80 35 79
3 81 246 248
3 248 247 25
3 246 247 248
3 250 249 81
3 82 83 2
3 84 83 82
3 84 10 83
3 37 84 9
3 85 84 37
3 85 10 84
3 85 251 253
3 253 252 10
3 251 252 253
3 255 254 85
3 86 87 3
3 88 87 86
3 88 13 87
3 40 88 12
3 89 88 40
3 89 13 88
3 89 54 13
3 90 54 89
3 90 4 54
3 90 91 4
3 92 91 90
3 92 15 91
3 42 92 14
3 93 92 42
3 93 15 92
3 93 61 15
3 82 61 93
3 82 2 61
3 94 95 6
3 96 95 94
3 96 17 95
3 44 96 16
3 97 96 44
3 97 17 96
3 97 67 17
3 256 67 257
3 258 257 97
3 256 257 258
3 260 259 67
3 98 261 262
3 98 263 265
3 263 8 264
3 263 264 265
3 98 99 8
3 100 99 98
3 100 19 99
3 46 100 18
3 101 100 46
3 101 19 100
3 101 74 19
3 94 74 101
3 94 6 74
3 267 266 7
3 269 268 20
3 102 270 272
3 272 271 5
3 270 271 272
3 274 273 102
3 83 275 277
3 277 276 2
3 275 276 277
3 279 278 83
3 281 280 10
3 103 282 283
3 104 284 286
3 286 285 103
3 284 285 286
3 104 287 288
3 52 104 21
3 105 104 52
3 105 289 291
3 291 290 104
3 289 290 291
3 105 292 293
3 106 294 296
3 296 295 105
3 294 295 296
3 106 297 298
3 87 53 3
3 107 53 87
3 107 22 53
3 55 107 13
3 108 107 55
3 108 22 107
3 108 106 22
3 109 106 108
3 109 299 301
3 301 300 106
3 299 300 301
3 109 302 303
3 110 304 306
3 306 305 109
3 304 305 306
3 110 307 309
3 307 20 308
3 307 308 309
3 57 110 23
3 111 110 57
3 111 20 110
3 111 47 20
3 112 47 111
3 112 1 47
3 112 113 1
3 114 113 112
3 114 25 113
3 59 114 24
3 115 114 59
3 115 25 114
3 115 81 25
3 116 81 115
3 116 5 81
3 91 60 4
3 117 60 91
3 117 26 60
3 62 117 15
3 118 117 62
3 118 26 117
3 118 116 26
3 119 116 118
3 119 5 116
3 119 102 5
3 120 102 119
3 120 310 312
3 312 311 102
3 310 311 312
3 313 120 314
3 315 314 27
3 313 314 315
3 316 120 317
3 319 318 120
3 121 122 0
3 123 122 121
3 123 29 122
3 65 123 28
3 124 123 65
3 124 29 123
3 124 78 29
3 125 78 124
3 125 7 78
3 95 66 6
3 126 66 95
3 126 30 66
3 68 126 17
3 127 126 68
3 127 30 126
3 127 125 30
3 128 125 127
3 128 7 125
3 128 320 322
3 322 321 7
3 320 321 322
3 129 323 325
3 325 324 128
3 323 324 325
3 129 326 327
3 70 129 31
3 328 129 329
3 330 329 70
3 328 329 330
3 332 331 129
3 130 333 334
3 130 335 336
3 130 337 339
3 337 103 338
3 337 338 339
3 131 103 130
3 131 21 103
3 72 131 32
3 132 131 72
3 132 21 131
3 132 51 21
3 133 51 132
3 133 3 51
3 99 73 8
3 134 73 99
3 134 33 73
3 75 134 19
3 135 134 75
3 135 33 134
3 135 133 33
3 136 133 135
3 136 3 133
3 136 86 3
3 137 86 136
3 137 12 86
3 77 137 34
3 138 137 77
3 138 12 137
3 138 39 12
3 121 39 138
3 121 0 39
3 122 38 0
3 139 38 122
3 139 11 38
3 79 139 29
3 140 139 79
3 140 11 139
3 140 340 342
3 342 341 11
3 340 341 342
3 344 343 140
3 345 80 346
3 347 346 7
3 345 346 347
3 348 80 349
3 350 35 351
3 352 351 80
3 350 351 352
3 353 35 354
3 356 355 35
3 113 50 1
3 141 50 113
3 141 357 359
3 359 358 50
3 357 358 359
3 360 141 361
3 362 361 25
3 360 361 362
3 363 141 364
3 366 365 141
3 368 367 5
