ply
format ascii 1.0
element vertex 167
property float x
property float y
property float z
property uchar red
property uchar green
property uchar blue
element face 160
property list uchar int vertex_index
end_header
31.0498 11.23 -37.0304 216 0 0
38.4015 15.0966 -32.3602 219 255 36
31.3229 6.7105 -32.6207 255 222 0
33.2212 16.5063 -36.3827 143 255 112
34.4369 11.3408 -33.8312 128 0 0
28.0197 12.412 -36.4709 204 255 51
27.259 6.02061 -34.9822 237 255 18
27.6556 7.64619 -39.6036 0 196 255
38.7464 18.1938 -34.6097 0 216 255
36.7411 13.644 -37.9533 255 16 0
38.8573 8.31804 -29.6084 0 247 255
31.6269 14.77 -37.3849 255 228 0
30.0884 14.7467 -36.4171 184 255 71
28.771 12.7149 -37.6196 201 255 54
27.2787 10.3911 -38.0143 136 255 119
29.0765 9.29733 -38.4751 255 202 0
29.6196 6.86609 -40.4946 0 154 255
31.198 7.21584 -38.236 169 255 86
39.842 16.2861 -36.0295 3 255 252
37.5078 16.6048 -37.2159 255 177 0
39.548 13.8281 -38.1524 109 255 146
38.9013 10.9324 -37.8867 42 255 213
38.9034 11.5236 -31.2388 194 255 61
32.6468 9.24227 -33.4645 175 0 0
35.5316 7.81585 -32.4753 255 236 0
33.7703 5.79217 -31.643 25 255 230
30.4695 3.73667 -31.0818 20 255 235
27.1735 2.13705 -32.2774 0 171 255
35.6075 16.6544 -34.7594 255 123 0
36.4259 13.3693 -33.6902 128 0 0
32.9245 14.8229 -34.9894 255 9 0
30.6182 12.8269 -34.7527 225 0 0
29.3471 10.2518 -34.4599 252 0 0
28.9685 6.95523 -33.7747 255 19 0
27.3285 9.55346 -36.0894 255 192 0
26.6223 7.65205 -37.5397 0 251 255
38.1413 17.8903 -33.3543 0 250 255
36.1552 17.7675 -35.9519 128 255 127
34.6745 16.1114 -37.4752 255 215 0
33.7875 12.867 -37.3743 197 0 0
33.2875 8.82166 -36.4523 255 247 0
36.0878 10.3734 -36.7847 235 255 20
37.3742 9.76928 -32.428 255 6 0
37.4985 6.62107 -30.3114 0 244 255
28.807 3.11348 -31.976 150 255 105
40.7444 14.8661 -36.4739 0 0 155
40.4834 15.5228 -34.793 0 0 155
40.5974 13.6371 -37.5354 0 0 177
39.695 15.0571 -37.0909 0 0 209
40.7444 14.8661 -36.4739 0 0 177
40.4529 12.4579 -38.2949 0 0 141
40.5974 13.6371 -37.5354 0 0 141
38.6525 13.3101 -31.7995 0 0 233
39.4644 12.2279 -30.2933 0 0 193
39.2134 14.0144 -30.8539 0 0 193
31.8318 5.21481 -31.3013 0 0 183
33.0555 4.75565 -30.8124 0 0 183
32.5466 6.25133 -32.1318 0 0 218
30.8962 5.22358 -31.8513 0 0 207
31.4051 3.7279 -30.5318 0 0 176
31.8318 5.21481 -31.3013 0 0 176
27.3035 6.66706 -39.0539 0 0 151
26.7868 6.66998 -38.0219 0 0 151
27.1389 7.64912 -38.5716 0 0 170
27.9667 6.76618 -39.9153 0 0 130
27.3035 6.66706 -39.0539 0 0 130
29.7816 5.91854 -41.0339 0 0 128
30.5757 6.07346 -40.9648 0 0 128
39.4946 18.1398 -32.9331 0 0 131
39.8174 17.8779 -33.4903 0 0 131
38.4439 18.042 -33.982 0 0 163
39.192 17.988 -32.3054 0 0 147
39.4946 18.1398 -32.9331 0 0 147
38.4071 9.2614 -37.1527 0 0 152
39.7113 9.4657 -37.762 0 0 152
39.3695 7.31192 -28.3039 0 0 142
39.5376 8.86165 -29.0222 0 0 142
38.5374 7.0488 -28.5045 0 0 138
39.3695 7.31192 -28.3039 0 0 138
36.6542 5.79617 -30.1623 0 0 175
36.5151 7.21846 -31.3933 0 0 207
35.6708 6.39356 -31.2442 0 0 175
37.1521 5.56277 -28.8033 0 0 142
36.6542 5.79617 -30.1623 0 0 142
27.6209 1.41375 -30.2245 0 0 146
26.9784 0.814419 -30.5065 0 0 146
33.2548 6.97444 -37.6654 0 0 157
34.2556 7.50243 -36.4966 0 0 157
31.3649 6.24833 -39.8355 0 0 174
30.5757 6.07346 -40.9648 0 0 174
30.4088 7.04097 -39.3653 0 0 205
40.3652 16.924 -34.2001 0 0 153
40.4834 15.5228 -34.793 0 0 153
39.2942 17.2399 -35.3196 0 0 217
39.8174 17.8779 -33.4903 0 0 182
40.3652 16.924 -34.2001 0 0 182
40.1296 11.0101 -38.1621 0 0 173
39.2247 12.3803 -38.0195 0 0 203
40.4529 12.4579 -38.2949 0 0 173
39.7113 9.4657 -37.762 0 0 145
40.1296 11.0101 -38.1621 0 0 145
39.5607 10.4645 -29.8374 0 0 151
39.4644 12.2279 -30.2933 0 0 151
38.8804 9.92084 -30.4236 0 0 205
39.5376 8.86165 -29.0222 0 0 174
39.5607 10.4645 -29.8374 0 0 174
34.7901 5.38172 -30.8281 0 0 177
35.6708 6.39356 -31.2442 0 0 177
34.651 6.80401 -32.0591 0 0 209
33.9427 4.64486 -30.106 0 0 143
34.7901 5.38172 -30.8281 0 0 143
33.9427 4.64486 -30.106 0 0 141
33.0555 4.75565 -30.8124 0 0 141
30.9257 2.84543 -29.1959 0 0 143
31.4051 3.7279 -30.5318 0 0 143
30.1171 2.56828 -29.504 0 0 143
30.9257 2.84543 -29.1959 0 0 143
26.792 3.25757 -34.0984 0 0 188
27.2163 4.07883 -33.6298 0 0 226
26.8347 5.19935 -35.4508 0 0 188
26.4723 1.63592 -32.4506 0 0 145
26.792 3.25757 -34.0984 0 0 145
26.9784 0.814419 -30.5065 0 0 144
26.4723 1.63592 -32.4506 0 0 144
26.5164 6.01507 -36.7296 0 0 166
26.8347 5.19935 -35.4508 0 0 166
26.9406 6.83633 -36.261 0 0 193
26.5164 6.01507 -36.7296 0 0 140
26.7868 6.66998 -38.0219 0 0 140
28.9487 6.37612 -40.3608 0 0 140
27.9667 6.76618 -39.9153 0 0 140
28.6376 7.25614 -40.0491 0 0 153
28.9487 6.37612 -40.3608 0 0 128
29.7816 5.91854 -41.0339 0 0 128
39.0572 15.7214 -31.2652 0 0 154
39.2134 14.0144 -30.8539 0 0 154
38.9271 17.1182 -31.7623 0 0 139
39.192 17.988 -32.3054 0 0 139
38.2714 16.4935 -32.8573 0 0 218
39.0572 15.7214 -31.2652 0 0 183
38.9271 17.1182 -31.7623 0 0 183
35.6557 8.27829 -36.6628 0 0 200
34.2556 7.50243 -36.4966 0 0 200
34.6876 9.59752 -36.6185 0 0 244
37.0003 8.98187 -36.6017 0 0 195
37.4946 10.6529 -37.3357 0 0 236
38.4071 9.2614 -37.1527 0 0 195
35.6557 8.27829 -36.6628 0 0 155
37.0003 8.98187 -36.6017 0 0 155
37.858 6.20032 -28.856 0 0 171
38.5374 7.0488 -28.5045 0 0 171
38.1779 7.46955 -29.9599 0 0 200
37.858 6.20032 -28.856 0 0 138
37.1521 5.56277 -28.8033 0 0 138
29.2859 2.25668 -29.9512 0 0 179
30.1171 2.56828 -29.504 0 0 179
29.6382 3.42508 -31.5289 0 0 212
28.4377 1.90197 -30.0738 0 0 184
27.9902 2.62526 -32.1267 0 0 219
27.6209 1.41375 -30.2245 0 0 184
29.2859 2.25668 -29.9512 0 0 147
28.4377 1.90197 -30.0738 0 0 147
32.2101 6.17153 -38.5572 0 0 192
32.2427 8.01875 -37.3442 0 0 232
33.2548 6.97444 -37.6654 0 0 192
31.3649 6.24833 -39.8355 0 0 150
32.2101 6.17153 -38.5572 0 0 150
3 0 13 11
3 0 15 13
3 0 17 15
3 45 18 46
3 47 20 48
3 49 48 18
3 47 48 49
3 51 50 20
3 1 52 54
3 52 22 53
3 52 53 54
3 2 25 23
3 2 55 57
3 57 56 25
3 55 56 57
3 2 58 60
3 58 26 59
3 58 59 60
3 3 30 28
3 5 31 12
3 5 32 31
3 5 34 32
3 7 35 14
3 7 61 63
3 63 62 35
3 61 62 63
3 7 64 65
3 67 66 16
3 8 68 69
3 8 70 72
3 70 36 71
3 70 71 72
3 8 37 36
3 9 38 19
3 9 39 38
3 9 41 39
3 74 73 21
3 10 75 76
3 10 77 78
3 4 42 29
3 79 43 80
3 81 80 24
3 79 80 81
3 83 82 43
3 6 44 33
3 85 84 27
3 87 86 40
3 11 12 3
3 13 12 11
3 13 5 12
3 13 14 5
3 15 14 13
3 15 7 14
3 15 16 7
3 17 16 15
3 17 88 90
3 90 89 16
3 88 89 90
3 18 91 92
3 18 93 95
3 93 8 94
3 93 94 95
3 18 19 8
3 20 19 18
3 20 9 19
3 20 21 9
3 96 21 97
3 98 97 20
3 96 97 98
3 100 99 21
3 22 101 102
3 22 103 105
3 103 10 104
3 103 104 105
3 23 24 4
3 25 24 23
3 25 106 108
3 108 107 24
3 106 107 108
3 25 109 110
3 112 111 25
3 26 113 114
3 26 115 116
3 117 27 118
3 119 118 6
3 117 118 119
3 120 27 121
3 123 122 27
3 28 29 1
3 30 29 28
3 30 4 29
3 12 30 3
3 31 30 12
3 31 4 30
3 31 23 4
3 32 23 31
3 32 2 23
3 32 33 2
3 34 33 32
3 34 6 33
3 14 34 5
3 35 34 14
3 35 6 34
3 35 124 126
3 126 125 6
3 124 125 126
3 128 127 35
3 16 129 131
3 131 130 7
3 129 130 131
3 133 132 16
3 134 1 135
3 36 136 137
3 36 138 140
3 138 1 139
3 138 139 140
3 36 28 1
3 37 28 36
3 37 3 28
3 19 37 8
3 38 37 19
3 38 3 37
3 38 11 3
3 39 11 38
3 39 0 11
3 39 40 0
3 41 40 39
3 41 141 143
3 143 142 40
3 141 142 143
3 21 41 9
3 144 41 145
3 146 145 21
3 144 145 146
3 148 147 41
3 29 22 1
3 42 22 29
3 42 10 22
3 24 42 4
3 43 42 24
3 43 10 42
3 43 149 151
3 151 150 10
3 149 150 151
3 153 152 43
3 33 26 2
3 44 26 33
3 44 154 156
3 156 155 26
3 154 155 156
3 27 44 6
3 157 44 158
3 159 158 27
3 157 158 159
3 161 160 44
3 40 17 0
3 162 17 163
3 164 163 40
3 162 163 164
3 166 165 17
