ply
format ascii 1.0
element vertex 281
property float x
property float y
property float z
property uchar red
property uchar green
property uchar blue
element face 251
property list uchar int vertex_index
end_header
-31.8056 60.9139 21.9859 0 207 255
-32.4505 67.3272 12.8621 226 255 29
-31.1362 59.7875 30.1205 255 11 0
-32.4717 57.825 20.0552 255 158 0
-33.0266 60.6744 15.1706 255 4 0
-32.0687 63.9954 17.9488 255 149 0
-31.9319 55.9441 24.6441 22 255 233
-30.8534 58.3327 35.2182 92 255 163
-34.3403 56.3298 12.5798 18 255 237
-33.6683 63.5698 9.51097 255 207 0
-29.8784 46.5208 48.8058 107 255 148
-31.4484 60.4522 25.6448 255 234 0
-31.4523 65.7022 21.4836 255 155 0
-31.0703 65.8945 25.7694 0 255 255
-31.5956 70.1303 16.4976 31 255 224
-32.0598 59.6795 21.1484 181 255 74
-32.2823 60.8467 18.9716 255 192 0
-31.9191 62.2627 20.2159 167 255 88
-31.8674 58.6944 23.1554 155 255 100
-32.1976 56.7593 22.3416 125 255 130
-30.476 52.9006 42.3029 0 111 255
-30.7062 54.1119 39.6295 0 111 255
-30.9016 54.8247 37.0175 0 234 255
-32.7665 63.8324 14.0069 205 0 0
-33.3635 61.8974 12.5372 128 0 0
-33.0351 65.3812 11.2224 255 101 0
-33.2777 67.0448 8.30939 17 255 238
-29.2169 53.348 47.8713 0 208 255
-28.7751 47.9816 51.7361 0 200 255
-29.4244 45.1329 51.1894 93 255 162
-29.3572 49.3169 49.4791 255 173 0
-29.7929 50.6548 47.2069 85 255 170
-31.2894 60.28 27.6712 255 107 0
-31.2603 63.1498 25.6948 255 150 0
-31.0935 62.9682 28.0209 243 255 12
-31.1985 56.3656 31.8979 184 255 71
-31.3323 57.1888 29.5275 129 255 126
-31.4994 57.6107 27.2525 146 255 109
-31.2607 68.52 21.1621 5 255 250
-31.5212 67.9403 19.0433 208 255 47
-32.9409 56.0942 18.8985 108 255 147
-33.2682 57.3087 16.5382 159 255 96
-32.7344 59.308 17.641 255 110 0
-32.5035 62.3737 16.5951 255 90 0
-32.2583 65.5582 15.5369 255 15 0
-32.6368 54.6919 21.3212 0 249 255
-30.9962 59.1066 32.6671 255 192 0
-30.951 62.376 30.5551 48 255 207
-31.0531 55.6224 34.4622 218 255 37
-33.6531 58.4394 13.9579 255 141 0
-33.9997 59.9945 11.087 255 218 0
-30.1675 51.8108 44.8265 0 103 255
-31.6314 60.7447 23.5594 143 255 112
-31.6447 62.9542 21.7916 161 255 94
-31.4335 63.1436 23.6895 255 222 0
-31.2421 65.888 23.6337 174 255 81
-31.7358 55.0991 26.7699 0 212 255
-31.6632 58.2311 25.1575 246 255 9
-31.7287 64.8479 19.7098 255 192 0
-31.8295 67.0593 17.2265 255 59 0
-31.9913 68.8465 14.544 184 255 71
-30.5729 55.4423 39.9923 0 0 183
-30.5911 53.5063 40.9662 0 0 227
-30.4578 54.8367 41.329 0 0 183
-30.6867 55.8761 38.7378 0 0 135
-30.5729 55.4423 39.9923 0 0 135
-32.561 68.1571 11.4266 0 0 188
-32.8533 67.1841 10.6068 0 0 188
-32.7428 66.3542 12.0422 0 0 235
-28.8509 54.6295 48.0974 0 0 136
-28.9205 52.5251 49.0718 0 0 136
-28.9907 50.5096 49.8757 0 0 171
-29.0662 48.6492 50.6076 0 0 209
-28.6997 49.8419 51.0042 0 0 171
-28.9205 52.5251 49.0718 0 0 178
-29.2871 51.3324 48.6752 0 0 220
-28.9907 50.5096 49.8757 0 0 178
-31.2789 69.7629 19.8288 0 0 132
-31.1573 69.8943 21.0507 0 0 132
-32.1158 54.8266 24.2142 0 0 128
-31.9819 54.3403 25.3631 0 0 128
-30.827 60.1571 34.0899 0 0 178
-30.8984 60.544 32.8143 0 0 178
-30.9248 58.7197 33.9427 0 0 220
-34.7483 55.0202 11.8771 0 0 144
-34.5256 54.4553 13.2359 0 0 144
-34.5635 56.844 11.1529 0 0 145
-34.7483 55.0202 11.8771 0 0 145
-34.0345 62.3458 8.79969 0 0 196
-34.2002 60.5582 9.58768 0 0 196
-33.834 61.7821 10.299 0 0 247
-33.8276 64.2583 7.97227 0 0 148
-34.0345 62.3458 8.79969 0 0 148
-33.4082 67.745 6.79661 0 0 142
-33.1003 68.7937 7.57684 0 0 142
-29.914 44.4706 49.5172 0 0 183
-29.687 43.7766 50.709 0 0 183
-29.6514 45.8268 49.9976 0 0 228
-30.0903 45.1379 48.2809 0 0 140
-29.914 44.4706 49.5172 0 0 140
-30.0576 47.194 47.5854 0 0 140
-30.0903 45.1379 48.2809 0 0 140
-29.9423 53.212 45.1372 0 0 178
-29.9802 51.2328 46.0167 0 0 220
-29.755 52.634 46.3274 0 0 178
-30.1586 53.6955 43.8583 0 0 138
-29.9423 53.212 45.1372 0 0 138
-31.059 67.3033 24.6364 0 0 161
-31.1448 67.3001 23.5686 0 0 161
-31.1562 65.8912 24.7016 0 0 194
-30.9261 64.0391 29.38 0 0 135
-30.8447 63.9127 30.5872 0 0 135
-31.6442 54.7787 27.8588 0 0 128
-31.7672 53.465 27.5815 0 0 128
-30.7398 59.7773 35.436 0 0 138
-30.7603 57.9865 36.5321 0 0 138
-30.615 51.4918 41.8112 0 0 142
-30.5055 50.8522 43.1123 0 0 142
-30.7301 52.0975 40.4745 0 0 191
-30.615 51.4918 41.8112 0 0 191
-30.5911 53.5063 40.9662 0 0 240
-30.8183 52.5693 39.245 0 0 140
-30.7301 52.0975 40.4745 0 0 140
-30.8039 54.4683 38.3235 0 0 237
-30.916 52.9257 37.939 0 0 189
-30.8183 52.5693 39.245 0 0 189
-30.7844 56.2325 37.4317 0 0 182
-30.8039 54.4683 38.3235 0 0 226
-30.6867 55.8761 38.7378 0 0 182
-30.7603 57.9865 36.5321 0 0 182
-30.8775 56.5787 36.1179 0 0 227
-30.7844 56.2325 37.4317 0 0 182
-34.1477 55.5997 13.9521 0 0 142
-34.5256 54.4553 13.2359 0 0 142
-32.9746 68.0159 9.15029 0 0 190
-33.1564 66.213 9.76589 0 0 238
-32.8533 67.1841 10.6068 0 0 190
-33.1003 68.7937 7.57684 0 0 143
-32.9746 68.0159 9.15029 0 0 143
-29.1585 55.2926 46.9563 0 0 135
-29.467 53.9806 46.6596 0 0 135
-29.1585 55.2926 46.9563 0 0 133
-28.8509 54.6295 48.0974 0 0 133
-29.0998 46.5572 51.4627 0 0 214
-29.159 44.4831 52.2477 0 0 174
-28.8343 45.9074 52.5211 0 0 174
-29.467 53.9806 46.6596 0 0 179
-29.755 52.634 46.3274 0 0 179
-29.5049 52.0014 47.5391 0 0 222
-31.2928 55.0381 31.596 0 0 133
-31.217 54.6339 32.8162 0 0 133
-31.3598 55.4497 30.4109 0 0 169
-31.2928 55.0381 31.596 0 0 169
-31.2654 56.7772 30.7127 0 0 207
-31.4425 55.8235 29.2376 0 0 132
-31.3598 55.4497 30.4109 0 0 132
-31.4159 57.3997 28.39 0 0 201
-31.526 56.0345 28.1001 0 0 166
-31.4425 55.8235 29.2376 0 0 166
-31.4092 69.473 18.7694 0 0 170
-31.391 68.2302 20.1027 0 0 208
-31.2789 69.7629 19.8288 0 0 170
-31.4463 70.568 17.4965 0 0 168
-31.5584 69.0353 17.7705 0 0 204
-31.4092 69.473 18.7694 0 0 168
-33.1046 56.7014 17.7184 0 0 211
-33.4002 55.5125 17.2189 0 0 172
-33.2365 54.9053 18.3991 0 0 172
-32.2487 55.2342 23.063 0 0 160
-32.1158 54.8266 24.2142 0 0 160
-32.0648 56.3517 23.4929 0 0 192
-32.4682 54.2005 22.5528 0 0 163
-32.2487 55.2342 23.063 0 0 163
-32.4172 55.7256 21.8314 0 0 197
-32.6859 53.0721 22.1106 0 0 130
-32.4682 54.2005 22.5528 0 0 130
-32.8887 53.5322 20.8888 0 0 131
-32.6859 53.0721 22.1106 0 0 131
-33.0407 54.2334 19.6775 0 0 172
-32.8887 53.5322 20.8888 0 0 172
-32.7888 55.393 20.1099 0 0 211
-33.2365 54.9053 18.3991 0 0 136
-33.0407 54.2334 19.6775 0 0 136
-28.4423 47.2804 52.7589 0 0 133
-28.8343 45.9074 52.5211 0 0 133
-28.3266 49.2405 52.0306 0 0 132
-28.4423 47.2804 52.7589 0 0 132
-28.6997 49.8419 51.0042 0 0 131
-28.3266 49.2405 52.0306 0 0 131
-30.8758 62.1787 31.7583 0 0 172
-30.9736 60.7413 31.6111 0 0 211
-30.8984 60.544 32.8143 0 0 172
-30.8447 63.9127 30.5872 0 0 135
-30.8758 62.1787 31.7583 0 0 135
-30.827 60.1571 34.0899 0 0 139
-30.7398 59.7773 35.436 0 0 139
-30.9975 53.2788 36.693 0 0 139
-30.916 52.9257 37.939 0 0 139
-31.0733 53.6776 35.4154 0 0 187
-30.9975 53.2788 36.693 0 0 187
-30.9773 55.2236 35.7399 0 0 234
-31.1443 54.2623 34.0984 0 0 138
-31.0733 53.6776 35.4154 0 0 138
-31.1258 55.994 33.18 0 0 219
-31.217 54.6339 32.8162 0 0 177
-31.1443 54.2623 34.0984 0 0 177
-33.6116 56.0891 15.9312 0 0 138
-33.4002 55.5125 17.2189 0 0 138
-33.8041 56.6545 14.6411 0 0 182
-33.6116 56.0891 15.9312 0 0 182
-33.4607 57.874 15.248 0 0 226
-33.9967 57.3846 13.2689 0 0 228
-34.1477 55.5997 13.9521 0 0 184
-33.8041 56.6545 14.6411 0 0 184
-34.3932 58.6763 10.4064 0 0 196
-34.5635 56.844 11.1529 0 0 196
-34.17 58.1622 11.8334 0 0 248
-34.3932 58.6763 10.4064 0 0 148
-34.2002 60.5582 9.58768 0 0 148
-33.6323 65.9958 7.37148 0 0 197
-33.8276 64.2583 7.97227 0 0 197
-33.473 65.3073 8.91018 0 0 248
-33.6323 65.9958 7.37148 0 0 145
-33.4082 67.745 6.79661 0 0 145
-29.4827 43.1573 51.8207 0 0 133
-29.159 44.4831 52.2477 0 0 133
-29.4827 43.1573 51.8207 0 0 135
-29.687 43.7766 50.709 0 0 135
-30.0149 49.261 46.786 0 0 184
-30.0576 47.194 47.5854 0 0 184
-29.8356 48.5878 48.0063 0 0 229
-30.2022 49.839 45.5958 0 0 180
-30.0149 49.261 46.786 0 0 180
-29.9802 51.2328 46.0167 0 0 223
-30.3513 50.3073 44.3741 0 0 140
-30.2022 49.839 45.5958 0 0 140
-30.3218 52.3557 43.5647 0 0 238
-30.5055 50.8522 43.1123 0 0 190
-30.3513 50.3073 44.3741 0 0 190
-30.3128 54.2404 42.5966 0 0 177
-30.3218 52.3557 43.5647 0 0 219
-30.1586 53.6955 43.8583 0 0 177
-30.4578 54.8367 41.329 0 0 136
-30.3128 54.2404 42.5966 0 0 136
-31.1542 68.6161 22.3328 0 0 168
-31.2514 67.204 22.3979 0 0 205
-31.1448 67.3001 23.5686 0 0 168
-31.1573 69.8943 21.0507 0 0 130
-31.1542 68.6161 22.3328 0 0 130
-30.9974 64.3353 28.1129 0 0 172
-31.0223 62.6721 29.288 0 0 211
-30.9261 64.0391 29.38 0 0 172
-30.9858 65.7984 26.9872 0 0 168
-31.0819 64.4314 26.8952 0 0 205
-30.9974 64.3353 28.1129 0 0 168
-30.9685 67.2724 25.8078 0 0 131
-30.9858 65.7984 26.9872 0 0 131
-31.059 67.3033 24.6364 0 0 130
-30.9685 67.2724 25.8078 0 0 130
-31.8838 53.9178 26.426 0 0 128
-31.7672 53.465 27.5815 0 0 128
-31.8338 55.5216 25.707 0 0 188
-31.9819 54.3403 25.3631 0 0 157
-31.8838 53.9178 26.426 0 0 157
-31.6176 56.3549 27.0112 0 0 190
-31.6442 54.7787 27.8588 0 0 158
-31.526 56.0345 28.1001 0 0 158
-31.4799 71.6083 16.129 0 0 131
-31.4463 70.568 17.4965 0 0 131
-31.6531 71.1002 15.1059 0 0 132
-31.4799 71.6083 16.129 0 0 132
-31.8509 70.4583 14.1291 0 0 176
-31.7934 69.4884 15.5208 0 0 218
-31.6531 71.1002 15.1059 0 0 176
-32.0643 69.8694 13.0963 0 0 137
-31.8509 70.4583 14.1291 0 0 137
-32.294 69.1098 12.2554 0 0 182
-32.2209 68.0868 13.703 0 0 226
-32.0643 69.8694 13.0963 0 0 182
-32.561 68.1571 11.4266 0 0 140
-32.294 69.1098 12.2554 0 0 140
3 0 17 15
3 0 15 18
3 61 21 62
3 63 62 20
3 61 62 63
3 65 64 21
3 1 25 23
3 1 66 68
3 68 67 25
3 66 67 68
3 70 69 27
3 71 30 72
3 73 72 28
3 71 72 73
3 74 27 75
3 76 75 30
3 74 75 76
3 2 34 32
3 2 36 35
3 2 32 36
3 78 77 38
3 3 42 40
3 5 43 16
3 5 44 43
3 6 79 80
3 3 45 19
3 3 40 45
3 7 81 83
3 83 82 46
3 81 82 83
3 7 48 22
3 7 46 48
3 8 84 85
3 8 86 87
3 4 49 41
3 9 50 24
3 9 88 90
3 90 89 50
3 88 89 90
3 9 91 92
3 94 93 26
3 10 95 97
3 97 96 29
3 95 96 97
3 10 98 99
3 10 100 101
3 102 51 103
3 104 103 31
3 102 103 104
3 106 105 51
3 11 54 52
3 13 55 33
3 13 107 109
3 109 108 55
3 107 108 109
3 111 110 47
3 112 56 113
3 11 57 37
3 11 52 57
3 12 58 53
3 14 59 39
3 14 60 59
3 15 16 3
3 17 16 15
3 17 5 16
3 18 19 6
3 15 19 18
3 15 3 19
3 115 114 7
3 20 116 117
3 21 118 120
3 120 119 20
3 118 119 120
3 21 121 122
3 21 123 125
3 123 22 124
3 123 124 125
3 126 22 127
3 128 127 21
3 126 127 128
3 129 7 130
3 131 130 22
3 129 130 131
3 132 8 133
3 23 24 4
3 25 24 23
3 25 9 24
3 25 26 9
3 134 26 135
3 136 135 25
3 134 135 136
3 138 137 26
3 27 139 140
3 142 141 27
3 28 143 145
3 143 29 144
3 143 144 145
3 30 29 28
3 30 10 29
3 30 31 10
3 27 31 30
3 27 146 148
3 148 147 31
3 146 147 148
3 32 33 11
3 34 33 32
3 34 13 33
3 35 149 150
3 36 151 153
3 153 152 35
3 151 152 153
3 36 154 155
3 36 156 158
3 156 37 157
3 156 157 158
3 32 37 36
3 32 11 37
3 38 39 12
3 159 39 160
3 161 160 38
3 159 160 161
3 162 14 163
3 164 163 39
3 162 163 164
3 40 165 167
3 165 41 166
3 165 166 167
3 42 41 40
3 42 4 41
3 16 42 3
3 43 42 16
3 43 4 42
3 43 23 4
3 44 23 43
3 44 1 23
3 19 168 170
3 170 169 6
3 168 169 170
3 45 171 173
3 173 172 19
3 171 172 173
3 45 174 175
3 45 176 177
3 40 178 180
3 180 179 45
3 178 179 180
3 40 181 182
3 183 28 184
3 185 28 186
3 188 187 28
3 46 47 2
3 189 47 190
3 191 190 46
3 189 190 191
3 193 192 47
3 195 194 7
3 22 196 197
3 48 198 200
3 200 199 22
3 198 199 200
3 48 201 202
3 48 203 205
3 203 35 204
3 203 204 205
3 46 35 48
3 46 2 35
3 41 206 207
3 49 208 210
3 210 209 41
3 208 209 210
3 49 211 213
3 211 8 212
3 211 212 213
3 24 49 4
3 50 49 24
3 50 8 49
3 50 214 216
3 216 215 8
3 214 215 216
3 218 217 50
3 26 219 221
3 221 220 9
3 219 220 221
3 223 222 26
3 29 224 225
3 227 226 29
3 31 228 230
3 230 229 10
3 228 229 230
3 51 231 233
3 233 232 31
3 231 232 233
3 51 234 235
3 51 236 238
3 236 20 237
3 236 237 238
3 239 20 240
3 241 240 51
3 239 240 241
3 243 242 20
3 52 53 0
3 54 53 52
3 54 12 53
3 33 54 11
3 55 54 33
3 55 12 54
3 55 38 12
3 244 38 245
3 246 245 55
3 244 245 246
3 248 247 38
3 47 34 2
3 249 34 250
3 251 250 47
3 249 250 251
3 252 13 253
3 254 253 34
3 252 253 254
3 255 13 256
3 258 257 13
3 56 259 260
3 56 261 263
3 261 6 262
3 261 262 263
3 37 264 266
3 264 56 265
3 264 265 266
3 57 56 37
3 57 6 56
3 57 18 6
3 52 18 57
3 52 0 18
3 53 17 0
3 58 17 53
3 58 5 17
3 39 58 12
3 59 58 39
3 59 5 58
3 59 44 5
3 60 44 59
3 60 1 44
3 267 14 268
3 269 14 270
3 271 60 272
3 273 272 14
3 271 272 273
3 274 60 275
3 276 1 277
3 278 277 60
3 276 277 278
3 280 279 1
