ply
format ascii 1.0
element vertex 317
property float x
property float y
property float z
property uchar red
property uchar green
property uchar blue
element face 252
property list uchar int vertex_index
end_header
15.3612 75.8391 -29.2869 255 45 0
24.7438 59.8974 -9.63504 0 205 255
4.98932 65.5892 -42.9564 65 255 190
9.96938 72.4934 -36.6171 199 255 56
4.26538 55.0678 -46.3168 11 255 244
2.54786 50.8151 -49.4169 0 216 255
4.1165 72.2611 -42.8465 143 255 112
12.7492 74.5162 -32.9574 255 184 0
17.6895 76.1541 -25.569 0 251 255
12.7843 80.1595 -32.5359 58 255 197
9.86864 78.5637 -36.3668 242 255 13
6.90083 75.8408 -39.8285 254 255 1
7.43912 69.3083 -39.8379 213 255 42
23.4316 67.2955 -13.1025 0 128 255
24.1706 61.0213 -11.3717 0 224 255
4.00571 63.4628 -44.2827 39 255 216
4.47874 60.4991 -44.4481 0 174 255
5.5135 62.4479 -42.9238 32 255 223
15.4332 78.5923 -29.0053 139 255 116
14.2151 78.0304 -30.8705 255 223 0
11.3404 73.5044 -34.8385 214 255 41
11.405 76.5929 -34.7195 155 0 0
10.006 75.527 -36.4923 156 0 0
8.30195 77.4557 -38.21 255 243 0
8.6122 74.1895 -38.1899 155 0 0
7.32979 72.6562 -39.7138 142 0 0
8.75499 70.8759 -38.1668 214 255 41
20.2595 70.2344 -20.6016 0 39 255
2.61752 55.9824 -47.3864 120 255 135
1.7049 53.4879 -48.8586 0 244 255
3.35583 53.1221 -47.8713 186 255 69
4.18092 50.4223 -48.4864 0 126 255
25.1708 58.9189 -7.91771 0 111 255
25.0179 56.9213 -9.05599 0 105 255
4.61222 68.9339 -42.8528 240 255 15
15.046 73.0289 -29.5107 117 255 138
14.1003 75.1301 -31.0935 255 8 0
13.8341 72.3733 -31.2159 34 255 221
16.665 78.5421 -27.0357 8 255 247
16.5741 75.9737 -27.4174 255 55 0
17.4416 73.4904 -25.8841 20 255 235
16.1783 73.2617 -27.8346 132 255 123
23.1496 65.3544 -14.1318 0 121 255
23.8325 64.1053 -12.2702 0 227 255
24.3775 63.2239 -10.3753 0 225 255
3.53296 58.2391 -45.9465 0 178 255
12.8362 77.4384 -32.8193 204 0 0
11.401 79.5824 -34.4064 216 255 39
5.51138 74.1837 -41.3557 255 239 0
5.99536 70.9034 -41.2716 128 0 0
6.15123 67.663 -41.4539 210 255 45
24.5749 58.832 -10.1444 0 0 162
24.2883 59.3939 -11.0128 0 0 162
24.4572 60.4593 -10.5034 0 0 194
4.49752 64.526 -43.6195 0 0 222
3.6419 65.1178 -44.3206 0 0 182
4.13371 66.181 -43.6574 0 0 182
20.7019 69.9929 -19.7348 0 0 131
20.4057 71.4765 -20.4086 0 0 131
4.9295 50.1411 -47.965 0 0 130
4.59099 51.4056 -47.6154 0 0 130
4.6444 49.105 -48.8977 0 0 132
4.9295 50.1411 -47.965 0 0 132
25.356 57.3103 -7.64518 0 0 132
25.3382 58.2544 -6.99719 0 0 132
3.4546 71.1479 -43.5513 0 0 146
3.14461 72.8155 -43.5389 0 0 146
4.36436 70.5975 -42.8496 0 0 233
3.70246 69.4843 -43.5545 0 0 189
3.4546 71.1479 -43.5513 0 0 189
14.2068 71.2146 -30.4326 0 0 173
14.4401 72.7011 -30.3633 0 0 210
14.8128 71.5423 -29.58 0 0 173
17.1772 77.3481 -26.3023 0 0 200
17.2621 78.4447 -25.983 0 0 167
17.7743 77.2507 -25.2496 0 0 167
17.208 72.1027 -25.9835 0 0 134
17.7485 72.1641 -25.1499 0 0 134
16.5763 71.9884 -26.9587 0 0 178
16.81 73.376 -26.8593 0 0 217
17.208 72.1027 -25.9835 0 0 178
15.9865 71.9029 -27.8563 0 0 136
16.5763 71.9884 -26.9587 0 0 136
1.75507 50.9237 -49.787 0 0 159
1.33359 52.2601 -49.5079 0 0 159
2.12638 52.1515 -49.1377 0 0 188
22.9714 66.7555 -14.5757 0 0 129
22.7792 65.6291 -14.9777 0 0 129
23.882 65.2162 -11.7402 0 0 166
23.6321 65.7004 -12.6863 0 0 199
23.6815 66.8113 -12.1563 0 0 166
24.1545 64.7754 -10.7927 0 0 165
24.105 63.6646 -11.3227 0 0 198
23.882 65.2162 -11.7402 0 0 165
24.8308 55.7057 -9.50101 0 0 128
25.1584 55.3153 -8.78816 0 0 128
3.18195 59.7727 -45.8595 0 0 138
2.67701 58.5984 -46.5348 0 0 138
4.7479 58.9632 -44.5867 0 0 138
5.22063 59.9362 -43.7568 0 0 138
12.6541 81.5421 -32.3218 0 0 138
13.4144 80.5041 -31.5785 0 0 138
11.9538 81.3105 -33.3033 0 0 141
12.6541 81.5421 -32.3218 0 0 141
9.74236 79.9928 -36.233 0 0 187
10.5085 80.5022 -35.2528 0 0 187
10.6348 79.0731 -35.3866 0 0 231
9.00197 79.5526 -37.1111 0 0 140
9.74236 79.9928 -36.233 0 0 140
6.7108 77.4663 -39.763 0 0 189
7.41135 78.2738 -38.9538 0 0 189
7.60139 76.6482 -39.0193 0 0 233
5.93603 76.7598 -40.5757 0 0 147
6.7108 77.4663 -39.763 0 0 147
6.20611 75.0122 -40.5921 0 0 244
5.2413 75.9313 -41.3393 0 0 196
5.93603 76.7598 -40.5757 0 0 196
4.63322 53.7283 -46.5306 0 0 133
4.98665 54.7937 -45.6579 0 0 133
3.8766 73.939 -42.8025 0 0 147
3.14461 72.8155 -43.5389 0 0 147
18.2503 75.933 -24.5652 0 0 133
17.7743 77.2507 -25.2496 0 0 133
2.26632 49.6529 -50.0983 0 0 128
3.05001 49.6041 -49.7224 0 0 128
23.1645 68.76 -13.6101 0 0 130
23.1124 67.7261 -14.0611 0 0 130
23.4185 68.3088 -12.5615 0 0 133
23.1645 68.76 -13.6101 0 0 133
23.6815 66.8113 -12.1563 0 0 131
23.4185 68.3088 -12.5615 0 0 131
23.9158 59.9123 -11.8244 0 0 133
23.8077 61.5502 -12.272 0 0 133
23.9158 59.9123 -11.8244 0 0 131
24.2883 59.3939 -11.0128 0 0 131
3.13361 63.9764 -44.9335 0 0 141
3.6419 65.1178 -44.3206 0 0 141
3.41832 62.3846 -45.0276 0 0 141
3.13361 63.9764 -44.9335 0 0 141
4.24223 61.981 -44.3654 0 0 212
3.65483 60.9027 -45.1103 0 0 175
3.41832 62.3846 -45.0276 0 0 175
5.73801 60.9106 -42.9946 0 0 174
5.22063 59.9362 -43.7568 0 0 174
4.99612 61.4735 -43.6859 0 0 211
14.7388 79.7205 -29.8132 0 0 137
15.4334 79.7509 -28.7331 0 0 137
14.1298 79.4396 -30.7458 0 0 176
14.7388 79.7205 -29.8132 0 0 176
14.8241 78.3114 -29.9379 0 0 215
13.4997 79.095 -31.7032 0 0 218
13.4144 80.5041 -31.5785 0 0 178
14.1298 79.4396 -30.7458 0 0 178
19.9336 71.6813 -21.3525 0 0 133
20.4057 71.4765 -20.4086 0 0 133
19.7206 70.4955 -21.5834 0 0 135
19.9336 71.6813 -21.3525 0 0 135
20.4749 68.7894 -19.9249 0 0 130
20.7019 69.9929 -19.7348 0 0 130
19.9697 69.0885 -20.8288 0 0 132
20.4749 68.7894 -19.9249 0 0 132
19.7206 70.4955 -21.5834 0 0 134
19.9697 69.0885 -20.8288 0 0 134
2.16121 54.7352 -48.1225 0 0 211
1.29021 54.9969 -48.6322 0 0 174
1.74652 56.2441 -47.8961 0 0 174
4.17845 52.7555 -47.3079 0 0 165
3.81061 54.0949 -47.0941 0 0 198
4.63322 53.7283 -46.5306 0 0 165
3.76838 51.7722 -48.1789 0 0 202
4.17845 52.7555 -47.3079 0 0 168
4.59099 51.4056 -47.6154 0 0 168
3.86654 49.4077 -49.2572 0 0 158
3.05001 49.6041 -49.7224 0 0 158
3.36439 50.6187 -48.9516 0 0 187
3.86654 49.4077 -49.2572 0 0 129
4.6444 49.105 -48.8977 0 0 129
25.2795 56.3115 -8.21433 0 0 160
25.0944 57.9201 -8.48685 0 0 190
25.356 57.3103 -7.64518 0 0 160
25.1584 55.3153 -8.78816 0 0 130
25.2795 56.3115 -8.21433 0 0 130
3.94516 67.8533 -43.6057 0 0 144
3.70246 69.4843 -43.5545 0 0 144
4.80077 67.2616 -42.9046 0 0 232
4.13371 66.181 -43.6574 0 0 188
3.94516 67.8533 -43.6057 0 0 188
13.6261 70.8348 -31.2636 0 0 137
14.2068 71.2146 -30.4326 0 0 137
13.1649 71.9428 -32.1457 0 0 142
13.6261 70.8348 -31.2636 0 0 142
12.6225 73.0143 -33.0165 0 0 182
13.2916 73.4448 -32.0866 0 0 222
13.1649 71.9428 -32.1457 0 0 182
11.9181 72.5084 -33.957 0 0 183
12.0448 74.0103 -33.898 0 0 225
12.6225 73.0143 -33.0165 0 0 183
11.2911 72.0418 -34.8262 0 0 138
11.9181 72.5084 -33.957 0 0 138
10.6056 71.5363 -35.7155 0 0 180
10.6549 72.9989 -35.7278 0 0 220
11.2911 72.0418 -34.8262 0 0 180
10.0274 70.8486 -36.507 0 0 142
10.6056 71.5363 -35.7155 0 0 142
16.6527 79.7236 -26.694 0 0 136
17.2621 78.4447 -25.983 0 0 136
16.0493 79.7258 -27.7483 0 0 136
16.6527 79.7236 -26.694 0 0 136
16.0491 78.5672 -28.0205 0 0 200
15.4334 79.7509 -28.7331 0 0 167
16.0493 79.7258 -27.7483 0 0 167
18.1055 74.7918 -24.8246 0 0 134
18.2503 75.933 -24.5652 0 0 134
17.9816 73.4599 -24.9822 0 0 134
17.7485 72.1641 -25.1499 0 0 134
17.5656 74.8222 -25.7265 0 0 203
18.1055 74.7918 -24.8246 0 0 169
17.9816 73.4599 -24.9822 0 0 169
15.4204 71.7864 -28.6944 0 0 167
15.6122 73.1453 -28.6726 0 0 200
15.9865 71.9029 -27.8563 0 0 167
14.8128 71.5423 -29.58 0 0 138
15.4204 71.7864 -28.6944 0 0 138
0.851094 53.7199 -49.2399 0 0 134
1.29021 54.9969 -48.6322 0 0 134
0.851094 53.7199 -49.2399 0 0 133
1.33359 52.2601 -49.5079 0 0 133
1.75507 50.9237 -49.787 0 0 128
2.26632 49.6529 -50.0983 0 0 128
22.9108 64.1941 -14.4781 0 0 129
22.7792 65.6291 -14.9777 0 0 129
23.2972 63.7167 -13.652 0 0 131
22.9108 64.1941 -14.4781 0 0 131
23.2906 66.325 -13.6171 0 0 189
22.9714 66.7555 -14.5757 0 0 159
23.1124 67.7261 -14.0611 0 0 159
23.6387 63.0922 -12.7212 0 0 164
23.2972 63.7167 -13.652 0 0 164
23.4911 64.7298 -13.201 0 0 196
24.0016 62.5633 -11.8209 0 0 191
23.8077 61.5502 -12.272 0 0 161
23.6387 63.0922 -12.7212 0 0 161
24.3678 64.0829 -9.7775 0 0 132
24.1545 64.7754 -10.7927 0 0 132
24.5818 62.5959 -9.45273 0 0 129
24.3678 64.0829 -9.7775 0 0 129
24.765 60.9327 -9.08258 0 0 165
24.5606 61.5606 -10.0052 0 0 197
24.5818 62.5959 -9.45273 0 0 165
24.9785 60.4434 -8.22392 0 0 158
24.9573 59.4082 -8.77637 0 0 187
24.765 60.9327 -9.08258 0 0 158
25.1199 59.795 -7.27379 0 0 131
24.9785 60.4434 -8.22392 0 0 131
25.3382 58.2544 -6.99719 0 0 131
25.1199 59.795 -7.27379 0 0 131
24.7119 57.3439 -9.8549 0 0 156
24.5749 58.832 -10.1444 0 0 156
24.8808 58.4093 -9.34551 0 0 183
24.7119 57.3439 -9.8549 0 0 131
24.8308 55.7057 -9.50101 0 0 131
2.21929 57.4701 -47.2548 0 0 136
1.74652 56.2441 -47.8961 0 0 136
3.07524 57.1107 -46.6664 0 0 210
2.21929 57.4701 -47.2548 0 0 173
2.67701 58.5984 -46.5348 0 0 173
4.00585 59.3691 -45.1973 0 0 215
3.18195 59.7727 -45.8595 0 0 177
3.65483 60.9027 -45.1103 0 0 177
4.27501 57.8332 -45.3359 0 0 171
4.00585 59.3691 -45.1973 0 0 207
4.7479 58.9632 -44.5867 0 0 171
4.64122 56.2475 -45.5211 0 0 174
3.89917 56.6534 -46.1316 0 0 211
4.27501 57.8332 -45.3359 0 0 174
4.98665 54.7937 -45.6579 0 0 135
4.64122 56.2475 -45.5211 0 0 135
11.2621 81.022 -34.2386 0 0 182
11.9538 81.3105 -33.3033 0 0 182
12.0927 79.871 -33.4712 0 0 223
11.2621 81.022 -34.2386 0 0 144
10.5085 80.5022 -35.2528 0 0 144
8.21862 78.9986 -38.0327 0 0 190
9.00197 79.5526 -37.1111 0 0 190
9.08529 78.0097 -37.2884 0 0 235
8.21862 78.9986 -38.0327 0 0 145
7.41135 78.2738 -38.9538 0 0 145
4.57405 74.9003 -42.0571 0 0 147
5.2413 75.9313 -41.3393 0 0 147
4.81394 73.2224 -42.1011 0 0 236
3.8766 73.939 -42.8025 0 0 191
4.57405 74.9003 -42.0571 0 0 191
9.42017 70.0398 -37.2819 0 0 184
9.36218 71.6846 -37.3919 0 0 226
10.0274 70.8486 -36.507 0 0 184
8.77894 69.3726 -38.1694 0 0 141
9.42017 70.0398 -37.2819 0 0 141
8.12101 68.5888 -39.005 0 0 179
8.09705 70.0921 -39.0023 0 0 218
8.77894 69.3726 -38.1694 0 0 179
7.56335 67.74 -39.7931 0 0 139
8.12101 68.5888 -39.005 0 0 139
6.9194 66.9174 -40.6012 0 0 184
6.79518 68.4857 -40.6459 0 0 226
7.56335 67.74 -39.7931 0 0 184
6.32728 66.0151 -41.4513 0 0 144
6.9194 66.9174 -40.6012 0 0 144
5.74632 64.9782 -42.2025 0 0 183
5.57028 66.6261 -42.2051 0 0 224
6.32728 66.0151 -41.4513 0 0 183
6.00841 63.4076 -42.1862 0 0 177
5.25141 64.0186 -42.9401 0 0 215
5.74632 64.9782 -42.2025 0 0 177
6.23105 61.8274 -42.1469 0 0 138
6.00841 63.4076 -42.1862 0 0 138
5.73801 60.9106 -42.9946 0 0 139
6.23105 61.8274 -42.1469 0 0 139
3 1 51 53
3 53 52 14
3 51 52 53
3 2 54 56
3 54 15 55
3 54 55 56
3 2 17 15
3 0 19 18
3 3 22 20
3 3 24 22
3 3 26 24
3 57 27 58
3 4 30 28
3 59 31 60
3 62 61 31
3 64 63 32
3 6 65 66
3 6 67 69
3 67 34 68
3 67 68 69
3 70 37 71
3 72 71 35
3 70 71 72
3 8 73 75
3 73 38 74
3 73 74 75
3 8 39 38
3 76 40 77
3 78 41 79
3 80 79 40
3 78 79 80
3 82 81 41
3 5 83 85
3 85 84 29
3 83 84 85
3 86 42 87
3 88 43 89
3 90 89 13
3 88 89 90
3 91 44 92
3 93 92 43
3 91 92 93
3 95 94 33
3 96 45 97
3 99 98 16
3 9 100 101
3 9 102 103
3 7 46 36
3 10 47 21
3 10 104 106
3 106 105 47
3 104 105 106
3 10 107 108
3 11 109 111
3 111 110 23
3 109 110 111
3 11 112 113
3 11 114 116
3 114 48 115
3 114 115 116
3 12 49 25
3 12 50 49
3 118 117 4
3 119 6 120
3 121 8 122
3 124 123 5
3 125 13 126
3 127 13 128
3 130 129 13
3 14 131 132
3 134 133 14
3 15 135 136
3 15 137 138
3 15 139 141
3 139 16 140
3 139 140 141
3 17 16 15
3 17 142 144
3 144 143 16
3 142 143 144
3 18 145 146
3 19 147 149
3 149 148 18
3 147 148 149
3 19 150 152
3 150 9 151
3 150 151 152
3 20 21 7
3 22 21 20
3 22 10 21
3 22 23 10
3 24 23 22
3 24 11 23
3 24 25 11
3 26 25 24
3 26 12 25
3 27 153 154
3 27 155 156
3 157 27 158
3 159 27 160
3 162 161 27
3 28 163 165
3 163 29 164
3 163 164 165
3 30 29 28
3 30 5 29
3 166 30 167
3 168 167 4
3 166 167 168
3 31 169 171
3 169 30 170
3 169 170 171
3 31 5 30
3 31 172 174
3 174 173 5
3 172 173 174
3 176 175 31
3 32 33 1
3 177 33 178
3 179 178 32
3 177 178 179
3 181 180 33
3 34 182 183
3 34 184 186
3 184 2 185
3 184 185 186
3 35 36 0
3 37 36 35
3 37 7 36
3 187 37 188
3 189 37 190
3 191 7 192
3 193 192 37
3 191 192 193
3 194 20 195
3 196 195 7
3 194 195 196
3 197 20 198
3 199 3 200
3 201 200 20
3 199 200 201
3 203 202 3
3 38 204 205
3 38 206 207
3 38 208 210
3 208 18 209
3 208 209 210
3 39 18 38
3 39 0 18
3 211 8 212
3 40 213 214
3 40 215 217
3 215 8 216
3 215 216 217
3 40 39 8
3 41 39 40
3 41 0 39
3 41 35 0
3 218 35 219
3 220 219 41
3 218 219 220
3 222 221 35
3 29 223 224
3 226 225 29
3 228 227 5
3 42 229 230
3 42 231 232
3 13 233 235
3 233 42 234
3 233 234 235
3 43 42 13
3 43 236 238
3 238 237 42
3 236 237 238
3 43 239 241
3 239 14 240
3 239 240 241
3 44 14 43
3 44 1 14
3 242 44 243
3 244 44 245
3 246 1 247
3 248 247 44
3 246 247 248
3 249 32 250
3 251 250 1
3 249 250 251
3 252 32 253
3 255 254 32
3 33 256 258
3 258 257 1
3 256 257 258
3 260 259 33
3 261 28 262
3 45 263 265
3 263 28 264
3 263 264 265
3 45 4 28
3 16 266 268
3 266 45 267
3 266 267 268
3 269 45 270
3 271 270 16
3 269 270 271
3 272 4 273
3 274 273 45
3 272 273 274
3 276 275 4
3 36 19 0
3 46 19 36
3 46 9 19
3 21 46 7
3 47 46 21
3 47 9 46
3 47 277 279
3 279 278 9
3 277 278 279
3 281 280 47
3 23 282 284
3 284 283 10
3 282 283 284
3 286 285 23
3 48 287 288
3 48 289 291
3 289 6 290
3 289 290 291
3 25 48 11
3 49 48 25
3 49 6 48
3 49 34 6
3 50 34 49
3 50 2 34
3 292 26 293
3 294 293 3
3 292 293 294
3 295 26 296
3 297 12 298
3 299 298 26
3 297 298 299
3 300 12 301
3 302 50 303
3 304 303 12
3 302 303 304
3 305 50 306
3 307 2 308
3 309 308 50
3 307 308 309
3 310 17 311
3 312 311 2
3 310 311 312
3 313 17 314
3 316 315 17
