ply
format ascii 1.0
element vertex 445
property float x
property float y
property float z
property uchar red
property uchar green
property uchar blue
element face 404
property list uchar int vertex_index
end_header
-30.2563 -47.58 43.3117 0 182 255
-28.6025 -65.9205 36.2299 206 255 49
-27.1048 -67.4781 16.0687 255 214 0
-28.7875 -61.9281 45.8824 255 5 0
-28.0387 -67.5005 26.2133 100 255 155
-25.5305 -71.1829 40.8193 255 54 0
-30.3625 -51.3685 42.1451 0 185 255
-30.3042 -49.54 45.8686 115 255 140
-30.2249 -54.2323 44.9069 255 122 0
-27.2547 -70.7363 33.5022 211 0 0
-27.1862 -71.533 28.5427 255 166 0
-28.7949 -64.1164 41.2091 255 28 0
-27.3657 -66.7266 43.6381 255 29 0
-27.4506 -68.8361 38.6521 255 15 0
-25.6696 -73.5119 35.6898 28 255 227
-29.7661 -38.3961 37.5209 188 255 67
-29.6113 -32.6279 36.4291 0 105 255
-29.709 -56.8766 47.7337 241 255 14
-29.7175 -59.2921 43.1951 255 18 0
-26.4427 -67.0085 10.7656 17 255 238
-27.0112 -72.0243 23.3375 255 244 0
-27.6403 -67.6979 21.2582 255 255 0
-27.1566 -63.751 48.7069 117 255 138
-25.2629 -68.3 45.8369 131 255 124
-29.9797 -43.9394 42.5806 97 255 158
-30.3333 -49.2422 42.7792 0 221 255
-30.2638 -47.7176 41.9659 0 150 255
-30.2906 -48.4145 44.3958 125 255 130
-30.3536 -50.4411 43.9782 254 255 1
-27.9524 -68.3731 35.0053 208 0 0
-27.8679 -68.9012 32.5274 255 168 0
-28.4749 -66.5517 33.7507 93 255 162
-28.7096 -65.1112 38.7937 255 229 0
-28.1504 -66.5504 40.0273 255 29 0
-28.1072 -67.4024 37.5649 255 4 0
-27.3806 -69.7887 36.1603 238 0 0
-26.9403 -69.7199 17.0684 255 226 0
-26.6429 -69.8091 14.3718 164 255 91
-29.9852 -54.358 48.4051 13 255 242
-30.218 -55.1881 42.6657 126 255 129
-30.0372 -56.6539 44.1073 255 45 0
-29.9933 -57.7457 41.8909 154 255 101
-29.6871 -60.1612 40.7775 168 255 87
-27.6708 -69.5366 27.4955 255 154 0
-27.127 -71.757 26.0339 242 255 13
-27.5326 -69.7398 24.8676 136 0 0
-27.3378 -69.9854 22.2104 128 0 0
-27.8392 -67.747 23.7633 243 255 12
-28.7768 -60.339 48.3487 255 249 0
-27.9708 -61.3483 49.7853 37 255 218
-28.0665 -62.8792 47.4374 255 11 0
-26.5379 -68.935 42.2847 255 47 0
-26.4431 -67.4812 44.9385 255 62 0
-25.4894 -69.7678 43.2839 255 56 0
-24.1927 -70.396 44.1928 16 255 239
-24.2911 -71.9002 41.8121 129 255 126
-24.4935 -73.2931 39.1886 24 255 231
-29.7978 -41.6808 42.0156 0 229 255
-29.991 -43.6903 40.715 60 255 195
-29.821 -41.306 40.1678 0 254 255
-30.2621 -50.6598 47.4087 0 238 255
-30.1974 -53.1614 46.965 188 255 67
-30.3177 -51.8694 45.4193 255 156 0
-30.3299 -52.8218 43.5058 163 255 92
-26.5347 -72.9592 32.1469 196 255 59
-26.5565 -73.4931 29.4777 85 255 170
-27.2135 -71.239 31.0064 175 0 0
-27.802 -69.1645 29.9826 232 255 23
-28.8211 -63.1301 43.4165 255 29 0
-28.1362 -64.2972 44.9342 254 0 0
-28.1561 -65.5379 42.4732 255 20 0
-27.4162 -67.9207 41.0938 255 35 0
-26.5525 -70.2238 39.7064 255 30 0
-25.6204 -72.3987 38.2799 241 255 14
-26.5707 -71.2448 37.2435 255 18 0
-26.5539 -72.1475 34.8113 255 221 0
-29.664 -38.8183 39.5433 153 255 102
-29.5243 -36.1009 38.9162 70 255 185
-29.6653 -35.5387 36.9438 0 218 255
-29.2592 -57.9424 49.2514 7 255 248
-29.3078 -59.3673 46.9843 255 53 0
-30.0343 -55.5623 46.2523 255 92 0
-29.7367 -58.1098 45.5275 255 29 0
-29.3302 -60.6175 44.6338 255 30 0
-29.3262 -61.6373 42.2928 255 29 0
-29.2511 -62.646 39.911 175 255 80
-26.7869 -67.3123 13.4677 173 255 82
-26.9179 -64.9115 12.3498 22 255 233
-26.8749 -72.1776 20.5977 120 255 135
-27.1651 -69.9172 19.7639 255 126 0
-27.3863 -67.6655 18.7019 255 245 0
-27.2828 -65.2626 46.2735 255 56 0
-26.3203 -66.0043 47.342 102 255 153
-30.1683 -46.4561 44.446 0 216 255
-30.1432 -45.9894 42.9392 115 255 140
-30.0101 -44.4534 44.2602 0 144 255
-30.202 -47.2175 46.0045 0 164 255
-30.1454 -45.8473 41.2377 0 252 255
-29.884 -40.9814 38.2304 32 255 223
-29.8722 -32.1473 34.5661 0 110 255
-30.0651 -53.0064 48.7012 0 0 138
-29.948 -53.6313 49.4499 0 0 138
-30.0882 -56.8342 41.2056 0 0 177
-30.1056 -56.4669 42.2783 0 0 214
-30.2006 -55.5554 41.593 0 0 177
-29.9727 -58.066 40.7249 0 0 141
-30.0882 -56.8342 41.2056 0 0 141
-29.7152 -40.2501 40.8457 0 0 169
-29.8094 -41.4934 41.0917 0 0 203
-29.7036 -40.4375 41.7695 0 0 169
-30.3552 -51.5866 41.164 0 0 131
-30.3396 -52.4508 41.7425 0 0 131
-30.3396 -52.4508 41.7425 0 0 164
-30.3234 -53.1774 42.4229 0 0 164
-30.3462 -52.0952 42.8255 0 0 195
-28.0802 -68.0346 30.5862 0 0 187
-27.8349 -69.0328 31.255 0 0 229
-28.1131 -67.903 31.8586 0 0 187
-28.006 -68.194 29.3341 0 0 143
-28.0802 -68.0346 30.5862 0 0 143
-29.4195 -34.9932 39.6036 0 0 139
-29.4881 -36.3773 39.8722 0 0 139
-29.6383 -34.0833 36.6864 0 0 225
-29.5434 -34.388 37.6627 0 0 184
-29.5164 -32.9326 37.4054 0 0 184
-29.7476 -33.9578 35.6973 0 0 188
-29.7746 -35.4132 35.9546 0 0 188
-29.6383 -34.0833 36.6864 0 0 231
-29.4841 -57.4095 48.4926 0 0 207
-29.4407 -56.7342 49.6349 0 0 172
-29.6656 -56.2013 48.8761 0 0 172
-29.4268 -61.8063 39.1634 0 0 181
-29.4691 -61.4036 40.3443 0 0 222
-29.6448 -60.564 39.5967 0 0 181
-29.2074 -63.0234 38.6783 0 0 142
-29.4268 -61.8063 39.1634 0 0 142
-27.2069 -63.7773 13.1791 0 0 152
-27.1093 -64.9824 13.7327 0 0 152
-26.8795 -72.694 27.7412 0 0 186
-26.5646 -73.674 28.2087 0 0 186
-26.8713 -72.5131 29.0102 0 0 228
-26.7867 -73.0846 23.8896 0 0 195
-26.8446 -72.9509 25.2378 0 0 195
-27.0691 -71.8907 24.6857 0 0 242
-26.7796 -73.1475 22.5236 0 0 147
-26.7867 -73.0846 23.8896 0 0 147
-26.943 -72.1009 21.9676 0 0 239
-26.7114 -73.2242 21.1536 0 0 193
-26.7796 -73.1475 22.5236 0 0 193
-27.0664 -62.9363 49.9005 0 0 175
-27.4736 -61.7349 50.4397 0 0 175
-27.5637 -62.5497 49.2461 0 0 212
-26.6288 -64.1029 49.2118 0 0 135
-27.0664 -62.9363 49.9005 0 0 135
-25.1644 -67.4798 47.0622 0 0 175
-25.6931 -66.3319 47.8148 0 0 175
-25.7916 -67.1522 46.5895 0 0 211
-24.6035 -68.564 46.2192 0 0 136
-25.1644 -67.4798 47.0622 0 0 136
-23.4747 -70.5204 44.6185 0 0 139
-23.5379 -71.4116 43.3385 0 0 139
-25.1416 -74.0439 36.1453 0 0 174
-25.117 -73.4873 37.4404 0 0 174
-25.645 -72.9553 36.9849 0 0 211
-30.0284 -44.7054 45.102 0 0 151
-30.0892 -45.4547 44.3531 0 0 176
-30.1075 -45.7068 45.1949 0 0 151
-30.1243 -46.0875 45.9742 0 0 130
-30.1529 -46.5622 46.8086 0 0 130
-30.1075 -45.7068 45.1949 0 0 154
-30.1851 -46.8368 45.2253 0 0 181
-30.1243 -46.0875 45.9742 0 0 154
-30.078 -44.7544 40.0316 0 0 134
-30.008 -43.5761 39.7944 0 0 134
-30.0549 -31.8435 33.5495 0 0 147
-29.9056 -30.6377 34.3326 0 0 147
-30.007 -33.3414 33.8252 0 0 146
-30.0549 -31.8435 33.5495 0 0 146
-26.4048 -68.2426 11.2709 0 0 200
-26.5769 -68.3945 12.6219 0 0 200
-26.6148 -67.1604 12.1166 0 0 249
-30.3346 -49.4353 41.9008 0 0 154
-30.3492 -50.4984 41.5838 0 0 154
-30.3479 -50.3054 42.4621 0 0 181
-30.2999 -48.673 41.4942 0 0 147
-30.3346 -49.4353 41.9008 0 0 147
-30.2986 -48.4799 42.3726 0 0 170
-30.2655 -47.776 41.0357 0 0 128
-30.2999 -48.673 41.4942 0 0 128
-28.4166 -66.7282 32.4703 0 0 189
-28.1131 -67.903 31.8586 0 0 189
-28.1714 -67.7264 33.139 0 0 233
-29.4956 -31.4375 37.1303 0 0 143
-29.5164 -32.9326 37.4054 0 0 143
-26.738 -70.9095 16.2392 0 0 149
-26.8369 -70.9149 17.5441 0 0 149
-26.5893 -70.9541 14.8909 0 0 198
-26.738 -70.9095 16.2392 0 0 198
-26.7916 -69.7645 15.7201 0 0 246
-26.4764 -70.8402 13.5429 0 0 147
-26.5893 -70.9541 14.8909 0 0 147
-29.8037 -54.942 49.2117 0 0 138
-29.948 -53.6313 49.4499 0 0 138
-29.8471 -55.6173 48.0694 0 0 214
-29.6656 -56.2013 48.8761 0 0 176
-29.8037 -54.942 49.2117 0 0 176
-29.8196 -59.2737 40.1682 0 0 177
-29.8402 -58.9534 41.3342 0 0 215
-29.9727 -58.066 40.7249 0 0 177
-29.6448 -60.564 39.5967 0 0 141
-29.8196 -59.2737 40.1682 0 0 141
-28.3738 -60.8436 49.067 0 0 217
-28.3088 -60.1008 50.2586 0 0 178
-28.7118 -59.5962 49.5403 0 0 178
-23.5871 -72.1637 42.1482 0 0 171
-23.5379 -71.4116 43.3385 0 0 171
-24.2419 -71.1481 43.0025 0 0 205
-23.7415 -72.8896 40.9227 0 0 136
-23.5871 -72.1637 42.1482 0 0 136
-23.8427 -73.586 39.611 0 0 172
-23.7415 -72.8896 40.9227 0 0 172
-24.3923 -72.5967 40.5004 0 0 208
-23.9229 -74.3428 38.29 0 0 138
-23.8427 -73.586 39.611 0 0 138
-25.2182 -74.5548 34.9151 0 0 136
-25.6917 -73.9756 34.43 0 0 136
-29.9229 -42.3839 39.5208 0 0 167
-30.008 -43.5761 39.7944 0 0 167
-29.906 -42.4981 40.4414 0 0 199
-29.8806 -39.5783 36.839 0 0 142
-29.8446 -38.2126 36.5097 0 0 142
-26.2522 -68.1991 9.99591 0 0 148
-26.279 -66.8999 9.55829 0 0 148
-30.3552 -51.5866 41.164 0 0 131
-30.3492 -50.4984 41.5838 0 0 131
-30.2298 -51.9106 47.1868 0 0 202
-30.1712 -52.4081 47.9812 0 0 169
-30.2035 -51.1572 48.203 0 0 169
-30.2674 -54.3606 42.0028 0 0 170
-30.274 -54.005 43.0857 0 0 205
-30.3234 -53.1774 42.4229 0 0 170
-30.2006 -55.5554 41.593 0 0 136
-30.2674 -54.3606 42.0028 0 0 136
-26.5456 -73.2262 30.8123 0 0 225
-26.181 -74.3218 30.0427 0 0 184
-26.1701 -74.0548 31.3773 0 0 184
-27.9404 -68.3801 28.0905 0 0 184
-27.7364 -69.3505 28.739 0 0 226
-28.006 -68.194 29.3341 0 0 184
-28.1243 -67.362 27.4494 0 0 185
-27.8547 -68.5186 26.8544 0 0 227
-27.9404 -68.3801 28.0905 0 0 185
-26.1338 -73.2934 33.9908 0 0 175
-25.6917 -73.9756 34.43 0 0 175
-26.1117 -72.8297 35.2505 0 0 213
-26.1242 -73.6993 32.6586 0 0 182
-26.1338 -73.2934 33.9908 0 0 182
-26.5443 -72.5534 33.4791 0 0 222
-26.1701 -74.0548 31.3773 0 0 139
-26.1242 -73.6993 32.6586 0 0 139
-29.5579 -37.736 40.1857 0 0 138
-29.6367 -39.0062 40.5334 0 0 138
-29.5942 -37.4596 39.2298 0 0 213
-29.5579 -37.736 40.1857 0 0 175
-29.4881 -36.3773 39.8722 0 0 175
-29.4729 -34.6691 38.649 0 0 140
-29.4195 -34.9932 39.6036 0 0 140
-29.5948 -35.8198 37.93 0 0 224
-29.4729 -34.6691 38.649 0 0 183
-29.5434 -34.388 37.6627 0 0 183
-29.7942 -36.7839 36.2211 0 0 187
-29.8446 -38.2126 36.5097 0 0 187
-29.7157 -36.9674 37.2324 0 0 229
-29.7942 -36.7839 36.2211 0 0 142
-29.7746 -35.4132 35.9546 0 0 142
-28.8245 -64.9576 35.6029 0 0 144
-28.8831 -64.6606 36.8377 0 0 144
-29.1885 -57.2605 50.3645 0 0 136
-29.4407 -56.7342 49.6349 0 0 136
-28.9529 -58.3979 49.9917 0 0 134
-29.1885 -57.2605 50.3645 0 0 134
-29.018 -59.1407 48.8 0 0 208
-28.7118 -59.5962 49.5403 0 0 172
-28.9529 -58.3979 49.9917 0 0 172
-30.0913 -53.7597 47.685 0 0 207
-30.0651 -53.0064 48.7012 0 0 172
-30.1712 -52.4081 47.9812 0 0 172
-28.9367 -64.256 38.1196 0 0 183
-28.9804 -63.8786 39.3523 0 0 224
-29.2074 -63.0234 38.6783 0 0 183
-28.8831 -64.6606 36.8377 0 0 187
-28.6561 -65.5158 37.5118 0 0 230
-28.9367 -64.256 38.1196 0 0 187
-27.0438 -66.1828 14.2917 0 0 197
-26.9459 -67.3952 14.7682 0 0 244
-27.2028 -66.2657 15.5922 0 0 197
-26.8524 -66.1119 12.9088 0 0 252
-27.0438 -66.1828 14.2917 0 0 202
-27.1093 -64.9824 13.7327 0 0 202
-27.0281 -63.6794 11.9176 0 0 148
-27.2069 -63.7773 13.1791 0 0 148
-26.7462 -64.7208 11.0797 0 0 147
-27.0281 -63.6794 11.9176 0 0 147
-26.5086 -65.7693 10.2875 0 0 193
-26.6803 -65.96 11.5577 0 0 239
-26.7462 -64.7208 11.0797 0 0 193
-26.279 -66.8999 9.55829 0 0 146
-26.5086 -65.7693 10.2875 0 0 146
-26.2589 -74.5359 28.7033 0 0 142
-26.181 -74.3218 30.0427 0 0 142
-26.2589 -74.5359 28.7033 0 0 139
-26.5646 -73.674 28.2087 0 0 139
-26.8499 -72.806 26.4868 0 0 187
-26.8795 -72.694 27.7412 0 0 187
-27.1566 -71.645 27.2883 0 0 231
-26.8499 -72.806 26.4868 0 0 145
-26.8446 -72.9509 25.2378 0 0 145
-26.6727 -73.3343 19.8702 0 0 145
-26.7114 -73.2242 21.1536 0 0 145
-26.8042 -72.1437 19.3087 0 0 148
-26.6727 -73.3343 19.8702 0 0 148
-26.9493 -71.0135 18.8918 0 0 190
-26.8042 -72.1437 19.3087 0 0 190
-27.02 -71.0474 20.1808 0 0 235
-27.0527 -69.8186 18.4162 0 0 246
-26.8369 -70.9149 17.5441 0 0 198
-26.9493 -71.0135 18.8918 0 0 198
-28.7606 -65.2731 34.3633 0 0 188
-28.5387 -66.2361 34.9903 0 0 232
-28.8245 -64.9576 35.6029 0 0 188
-28.6763 -65.5835 33.1829 0 0 142
-28.7606 -65.2731 34.3633 0 0 142
-28.4166 -66.7282 32.4703 0 0 143
-28.6763 -65.5835 33.1829 0 0 143
-28.2933 -66.3529 26.9388 0 0 142
-28.1243 -67.362 27.4494 0 0 142
-28.2004 -66.3846 25.6425 0 0 147
-28.2933 -66.3529 26.9388 0 0 147
-28.1007 -66.5079 24.4175 0 0 190
-27.9389 -67.6238 24.9883 0 0 235
-28.2004 -66.3846 25.6425 0 0 190
-27.9947 -66.4913 23.1546 0 0 150
-28.1007 -66.5079 24.4175 0 0 150
-27.8953 -66.4667 21.902 0 0 198
-27.7398 -67.7225 22.5108 0 0 246
-27.9947 -66.4913 23.1546 0 0 198
-27.752 -66.5644 20.6527 0 0 147
-27.8953 -66.4667 21.902 0 0 147
-27.6249 -66.5481 19.3745 0 0 191
-27.5133 -67.6817 19.98 0 0 235
-27.752 -66.5644 20.6527 0 0 191
-27.4979 -66.4274 18.1492 0 0 146
-27.6249 -66.5481 19.3745 0 0 146
-27.3572 -66.3337 16.8326 0 0 199
-27.2455 -67.5718 17.3853 0 0 248
-27.4979 -66.4274 18.1492 0 0 199
-27.2028 -66.2657 15.5922 0 0 147
-27.3572 -66.3337 16.8326 0 0 147
-27.8887 -60.5582 50.9264 0 0 138
-28.3088 -60.1008 50.2586 0 0 138
-27.8887 -60.5582 50.9264 0 0 137
-27.4736 -61.7349 50.4397 0 0 137
-26.2107 -65.2296 48.5294 0 0 168
-26.6288 -64.1029 49.2118 0 0 168
-26.7385 -64.8777 48.0245 0 0 201
-26.2107 -65.2296 48.5294 0 0 136
-25.6931 -66.3319 47.8148 0 0 136
-24.0684 -69.612 45.3972 0 0 169
-24.6035 -68.564 46.2192 0 0 169
-24.7278 -69.348 45.0149 0 0 203
-24.0684 -69.612 45.3972 0 0 135
-23.4747 -70.5204 44.6185 0 0 135
-24.5535 -73.9345 37.8947 0 0 173
-25.057 -72.8459 38.7343 0 0 210
-25.117 -73.4873 37.4404 0 0 173
-23.9229 -74.3428 38.29 0 0 138
-24.5535 -73.9345 37.8947 0 0 138
-25.1416 -74.0439 36.1453 0 0 135
-25.2182 -74.5548 34.9151 0 0 135
-29.9425 -43.632 44.9289 0 0 128
-30.0284 -44.7054 45.102 0 0 128
-29.9133 -43.3006 44.0379 0 0 130
-29.9425 -43.632 44.9289 0 0 130
-29.8981 -43.0436 43.1981 0 0 157
-29.9949 -44.1964 43.4204 0 0 185
-29.9133 -43.3006 44.0379 0 0 157
-29.8071 -41.9143 42.9155 0 0 159
-29.8887 -42.8101 42.2981 0 0 189
-29.8981 -43.0436 43.1981 0 0 159
-29.7055 -40.6904 42.7085 0 0 133
-29.8071 -41.9143 42.9155 0 0 133
-29.7036 -40.4375 41.7695 0 0 135
-29.7055 -40.6904 42.7085 0 0 135
-30.2171 -49.9363 48.3794 0 0 134
-30.2035 -51.1572 48.203 0 0 134
-30.239 -49.4277 47.5388 0 0 135
-30.2171 -49.9363 48.3794 0 0 135
-30.2601 -48.8679 46.7687 0 0 164
-30.2832 -50.0999 46.6386 0 0 195
-30.239 -49.4277 47.5388 0 0 164
-30.209 -47.7066 46.8367 0 0 130
-30.1529 -46.5622 46.8086 0 0 130
-30.2531 -48.3788 45.9365 0 0 193
-30.2601 -48.8679 46.7687 0 0 162
-30.209 -47.7066 46.8367 0 0 162
-30.2063 -46.8408 40.6715 0 0 156
-30.2655 -47.776 41.0357 0 0 156
-30.2046 -46.7824 41.6018 0 0 183
-30.1552 -45.8329 40.2929 0 0 163
-30.0682 -44.7688 40.9764 0 0 194
-30.078 -44.7544 40.0316 0 0 163
-30.2063 -46.8408 40.6715 0 0 130
-30.1552 -45.8329 40.2929 0 0 130
-29.7425 -40.0621 39.8556 0 0 209
-29.7152 -40.2501 40.8457 0 0 173
-29.6367 -39.0062 40.5334 0 0 173
-29.9545 -42.2216 38.5521 0 0 172
-29.9229 -42.3839 39.5208 0 0 172
-29.8525 -41.1437 39.1991 0 0 207
-29.9396 -40.8709 37.1937 0 0 181
-29.825 -39.6887 37.8757 0 0 221
-29.8806 -39.5783 36.839 0 0 181
-29.9811 -42.0837 37.5663 0 0 138
-29.9396 -40.8709 37.1937 0 0 138
-29.9545 -42.2216 38.5521 0 0 137
-29.9811 -42.0837 37.5663 0 0 137
-29.6142 -31.0094 36.1857 0 0 145
-29.4956 -31.4375 37.1303 0 0 145
-29.7447 -30.769 35.2542 0 0 143
-29.9056 -30.6377 34.3326 0 0 143
-29.7417 -32.3876 35.4976 0 0 235
-29.6142 -31.0094 36.1857 0 0 191
-29.7447 -30.769 35.2542 0 0 191
-29.8781 -33.7175 34.7658 0 0 188
-29.7476 -33.9578 35.6973 0 0 188
-29.7417 -32.3876 35.4976 0 0 232
-29.8781 -33.7175 34.7658 0 0 144
-30.007 -33.3414 33.8252 0 0 144
-26.5049 -69.6429 13.074 0 0 197
-26.7149 -68.5607 13.9197 0 0 244
-26.5769 -68.3945 12.6219 0 0 197
-26.4764 -70.8402 13.5429 0 0 147
-26.5049 -69.6429 13.074 0 0 147
-26.4048 -68.2426 11.2709 0 0 149
-26.2522 -68.1991 9.99591 0 0 149
3 0 26 25
3 0 25 27
3 1 31 29
3 1 34 32
3 1 29 34
3 2 37 36
3 100 38 101
3 102 41 103
3 104 103 39
3 102 103 104
3 106 105 41
3 4 45 43
3 4 47 45
3 3 50 48
3 5 53 51
3 5 55 53
3 5 56 55
3 107 59 108
3 109 108 57
3 107 108 109
3 6 110 111
3 7 62 60
3 6 63 28
3 6 112 114
3 114 113 63
3 112 113 114
3 9 66 64
3 115 67 116
3 117 116 30
3 115 116 117
3 119 118 67
3 11 70 68
3 13 71 33
3 13 72 71
3 13 74 72
3 9 75 35
3 9 64 75
3 120 77 121
3 16 122 124
3 122 78 123
3 122 123 124
3 16 125 127
3 127 126 78
3 125 126 127
3 17 128 130
3 128 79 129
3 128 129 130
3 17 80 79
3 8 81 61
3 18 82 40
3 18 83 82
3 18 84 83
3 131 85 132
3 133 132 42
3 131 132 133
3 135 134 85
3 136 87 137
3 10 138 140
3 140 139 65
3 138 139 140
3 20 141 143
3 143 142 44
3 141 142 143
3 20 144 145
3 20 146 148
3 146 88 147
3 146 147 148
3 21 89 46
3 21 90 89
3 22 149 151
3 151 150 49
3 149 150 151
3 22 152 153
3 12 91 69
3 23 92 52
3 23 154 156
3 156 155 92
3 154 155 156
3 23 157 158
3 160 159 54
3 14 161 163
3 163 162 73
3 161 162 163
3 164 95 165
3 166 165 93
3 164 165 166
3 167 96 168
3 169 93 170
3 171 170 96
3 169 170 171
3 24 97 94
3 173 172 58
3 15 98 76
3 174 99 175
3 177 176 99
3 19 178 180
3 180 179 86
3 178 179 180
3 25 181 183
3 183 182 6
3 181 182 183
3 26 184 186
3 186 185 25
3 184 185 186
3 26 187 188
3 27 28 7
3 25 28 27
3 25 6 28
3 29 30 9
3 31 30 29
3 31 189 191
3 191 190 30
3 189 190 191
3 32 33 11
3 34 33 32
3 34 13 33
3 34 35 13
3 29 35 34
3 29 9 35
3 192 16 193
3 36 194 195
3 37 196 198
3 198 197 36
3 196 197 198
3 37 199 200
3 38 201 202
3 38 203 205
3 203 17 204
3 203 204 205
3 39 40 8
3 41 40 39
3 41 18 40
3 41 42 18
3 206 42 207
3 208 207 41
3 206 207 208
3 210 209 42
3 43 44 10
3 45 44 43
3 45 20 44
3 45 46 20
3 47 46 45
3 47 21 46
3 48 211 213
3 211 49 212
3 211 212 213
3 50 49 48
3 50 22 49
3 51 52 12
3 53 52 51
3 53 23 52
3 53 54 23
3 55 54 53
3 55 214 216
3 216 215 54
3 214 215 216
3 55 217 218
3 56 219 221
3 221 220 55
3 219 220 221
3 56 222 223
3 225 224 14
3 57 58 24
3 59 58 57
3 59 226 228
3 228 227 58
3 226 227 228
3 230 229 15
3 232 231 19
3 234 233 6
3 60 235 237
3 235 61 236
3 235 236 237
3 62 61 60
3 62 8 61
3 28 62 7
3 63 62 28
3 63 8 62
3 63 39 8
3 238 39 239
3 240 239 63
3 238 239 240
3 242 241 39
3 64 243 245
3 243 65 244
3 243 244 245
3 66 65 64
3 66 10 65
3 30 66 9
3 67 66 30
3 67 10 66
3 67 43 10
3 246 43 247
3 248 247 67
3 246 247 248
3 249 4 250
3 251 250 43
3 249 250 251
3 68 69 3
3 70 69 68
3 70 12 69
3 33 70 11
3 71 70 33
3 71 12 70
3 71 51 12
3 72 51 71
3 72 5 51
3 72 73 5
3 74 73 72
3 74 14 73
3 35 74 13
3 75 74 35
3 75 14 74
3 75 252 254
3 254 253 14
3 252 253 254
3 64 255 257
3 257 256 75
3 255 256 257
3 64 258 259
3 260 76 261
3 77 262 264
3 262 76 263
3 262 263 264
3 77 15 76
3 265 77 266
3 78 267 269
3 267 77 268
3 267 268 269
3 78 15 77
3 78 270 272
3 272 271 15
3 270 271 272
3 274 273 78
3 276 275 1
3 79 277 278
3 79 279 280
3 79 281 283
3 281 48 282
3 281 282 283
3 80 48 79
3 80 3 48
3 61 284 286
3 284 38 285
3 284 285 286
3 81 38 61
3 81 17 38
3 40 81 8
3 82 81 40
3 82 17 81
3 82 80 17
3 83 80 82
3 83 3 80
3 83 68 3
3 84 68 83
3 84 11 68
3 42 84 18
3 85 84 42
3 85 11 84
3 85 32 11
3 287 32 288
3 289 288 85
3 287 288 289
3 290 1 291
3 292 291 32
3 290 291 292
3 293 86 294
3 295 294 2
3 293 294 295
3 87 296 298
3 296 86 297
3 296 297 298
3 87 19 86
3 299 87 300
3 301 87 302
3 303 19 304
3 305 304 87
3 303 304 305
3 307 306 19
3 65 308 309
3 311 310 65
3 44 312 314
3 314 313 10
3 312 313 314
3 316 315 44
3 88 317 318
3 88 319 320
3 46 88 20
3 89 88 46
3 89 321 323
3 323 322 88
3 321 322 323
3 89 324 326
3 324 36 325
3 324 325 326
3 90 36 89
3 90 2 36
3 327 31 328
3 329 328 1
3 327 328 329
3 330 31 331
3 333 332 31
3 334 4 335
3 336 4 337
3 338 47 339
3 340 339 4
3 338 339 340
3 341 47 342
3 343 21 344
3 345 344 47
3 343 344 345
3 346 21 347
3 348 90 349
3 350 349 21
3 348 349 350
3 351 90 352
3 353 2 354
3 355 354 90
3 353 354 355
3 357 356 2
3 49 358 359
3 361 360 49
3 69 50 3
3 91 50 69
3 91 22 50
3 52 91 12
3 92 91 52
3 92 22 91
3 92 362 364
3 364 363 22
3 362 363 364
3 366 365 92
3 54 367 369
3 369 368 23
3 367 368 369
3 371 370 54
3 73 56 5
3 372 56 373
3 374 373 73
3 372 373 374
3 376 375 56
3 378 377 14
3 93 94 0
3 95 94 93
3 95 24 94
3 379 95 380
3 381 95 382
3 383 24 384
3 385 384 95
3 383 384 385
3 386 57 387
3 388 387 24
3 386 387 388
3 389 57 390
3 392 391 57
3 393 60 394
3 395 60 396
3 397 7 398
3 399 398 60
3 397 398 399
3 96 400 401
3 96 402 404
3 402 7 403
3 402 403 404
3 96 27 7
3 93 27 96
3 93 0 27
3 94 26 0
3 97 26 94
3 97 405 407
3 407 406 26
3 405 406 407
3 58 97 24
3 408 97 409
3 410 409 58
3 408 409 410
3 412 411 97
3 76 413 415
3 413 59 414
3 413 414 415
3 98 59 76
3 98 416 418
3 418 417 59
3 416 417 418
3 419 98 420
3 421 420 15
3 419 420 421
3 422 98 423
3 425 424 98
3 426 16 427
3 99 428 429
3 99 430 432
3 430 16 431
3 430 431 432
3 99 433 435
3 435 434 16
3 433 434 435
3 437 436 99
3 86 37 2
3 438 37 439
3 440 439 86
3 438 439 440
3 442 441 37
3 444 443 19
