ply
format ascii 1.0
element vertex 164
property float x
property float y
property float z
property uchar red
property uchar green
property uchar blue
element face 150
property list uchar int vertex_index
end_header
16.4324 -64.1752 54.938 0 95 255
10.8907 -62.0183 53.3518 168 0 0
7.93627 -53.1291 58.8114 7 255 248
15.5682 -66.695 51.5229 0 205 255
9.36756 -64.8546 48.3503 255 228 0
15.8083 -61.019 57.7046 117 255 138
13.9997 -63.364 54.5109 255 169 0
12.6079 -59.5951 57.2574 255 31 0
9.4506 -57.7885 56.2339 128 0 0
12.589 -66.0239 50.2141 188 255 67
16.0471 -65.3411 53.4525 0 198 255
17.3241 -63.5553 55.7226 0 30 255
15.1916 -59.0579 59.1383 76 255 179
14.2494 -60.4014 57.5594 255 120 0
13.6518 -58.3281 59.0245 138 255 117
9.61756 -54.2408 59.4792 127 255 128
10.261 -56.5204 58.1413 255 157 0
8.59485 -55.5613 57.4197 255 115 0
7.73364 -56.9628 55.2024 154 255 101
16.7943 -59.8797 58.9005 0 119 255
12.5184 -62.8688 53.9097 255 38 0
13.2633 -64.6921 52.4444 255 41 0
11.6566 -64.0667 51.764 205 0 0
9.29346 -61.4197 52.3394 255 127 0
10.1261 -63.4799 50.8885 128 0 0
8.55142 -62.7002 50.0185 255 252 0
7.75123 -63.8368 47.6718 4 255 251
16.1152 -62.8054 56.19 0 228 255
15.3801 -63.893 54.7812 153 255 102
14.8458 -62.2232 56.1926 255 244 0
13.3094 -61.5885 55.8579 255 116 0
11.7848 -60.859 55.3941 253 0 0
12.02 -57.4177 58.7583 202 255 53
11.0311 -58.7722 56.7724 199 0 0
10.0739 -59.9779 54.697 139 0 0
8.48388 -59.1543 53.8555 255 225 0
14.7345 -65.1576 52.9606 255 187 0
14.1294 -66.5845 50.7536 124 255 131
11.02 -65.4366 49.4372 228 255 27
16.2398 -64.7582 54.1952 0 0 159
16.6559 -65.2378 53.745 0 0 141
16.8485 -64.6548 54.4878 0 0 141
16.8485 -64.6548 54.4878 0 0 140
17.2944 -64.3449 54.88 0 0 140
16.8783 -63.8653 55.3303 0 0 157
14.1709 -57.5994 59.8402 0 0 175
14.4217 -58.693 59.0814 0 0 210
14.9408 -57.9643 59.8971 0 0 175
7.49281 -53.8801 57.7058 0 0 196
7.8221 -55.0963 57.0099 0 0 196
8.26556 -54.3452 58.1156 0 0 242
14.9408 -57.9643 59.8971 0 0 138
15.7293 -58.4233 59.7853 0 0 138
16.0384 -67.4157 50.7675 0 0 135
16.2534 -66.659 51.8384 0 0 135
15.3002 -67.4117 50.4098 0 0 137
16.0384 -67.4157 50.7675 0 0 137
8.1542 -61.6356 50.7567 0 0 191
8.92244 -62.0599 51.179 0 0 233
8.52522 -60.9953 51.9172 0 0 191
7.04024 -63.5065 47.1708 0 0 147
7.38595 -62.8195 48.4282 0 0 147
7.45382 -64.6348 46.3038 0 0 152
7.04024 -63.5065 47.1708 0 0 152
11.6728 -56.3059 59.4146 0 0 145
12.5477 -56.7516 59.6269 0 0 145
7.31087 -57.5977 54.068 0 0 152
6.92134 -56.4466 54.7404 0 0 152
16.4618 -61.4467 57.4835 0 0 159
16.9548 -60.877 58.0814 0 0 159
16.3013 -60.4493 58.3026 0 0 186
15.9617 -61.9122 56.9473 0 0 178
16.6152 -62.3399 56.7262 0 0 154
16.4618 -61.4467 57.4835 0 0 154
13.0141 -66.9716 49.3252 0 0 183
13.7843 -67.2519 49.595 0 0 183
13.3592 -66.3042 50.4839 0 0 221
16.4928 -65.9821 52.8032 0 0 129
16.6559 -65.2378 53.745 0 0 129
15.8077 -66.018 52.4877 0 0 184
16.2534 -66.659 51.8384 0 0 158
16.4928 -65.9821 52.8032 0 0 158
17.8718 -64.0033 55.2604 0 0 130
17.869 -63.0459 56.2033 0 0 130
17.8718 -64.0033 55.2604 0 0 128
17.2944 -64.3449 54.88 0 0 128
9.93929 -55.3806 58.8103 0 0 234
10.7933 -55.8573 59.1062 0 0 191
10.4716 -54.7175 59.7751 0 0 191
7.3915 -55.797 55.9013 0 0 194
8.16425 -56.262 56.3111 0 0 238
7.8221 -55.0963 57.0099 0 0 194
6.92134 -56.4466 54.7404 0 0 153
7.3915 -55.797 55.9013 0 0 153
16.5307 -58.8342 59.6664 0 0 138
17.364 -59.2604 59.4217 0 0 138
15.993 -59.4688 59.0194 0 0 203
16.5307 -58.8342 59.6664 0 0 171
15.7293 -58.4233 59.7853 0 0 171
9.82454 -65.8456 47.5871 0 0 150
9.00662 -65.5067 47.0891 0 0 150
10.1488 -53.5609 60.408 0 0 147
10.4716 -54.7175 59.7751 0 0 147
9.30544 -53.0714 60.0973 0 0 148
10.1488 -53.5609 60.408 0 0 148
8.46479 -52.5155 59.7635 0 0 192
8.77692 -53.6849 59.1453 0 0 235
9.30544 -53.0714 60.0973 0 0 192
7.78604 -62.2512 49.6015 0 0 148
8.1542 -61.6356 50.7567 0 0 148
8.15132 -63.2685 48.8452 0 0 231
7.78604 -62.2512 49.6015 0 0 189
7.38595 -62.8195 48.4282 0 0 189
8.19845 -64.9978 46.7499 0 0 204
9.00662 -65.5067 47.0891 0 0 204
8.55939 -64.3457 48.011 0 0 253
8.19845 -64.9978 46.7499 0 0 154
7.45382 -64.6348 46.3038 0 0 154
13.3636 -57.2068 59.76 0 0 142
14.1709 -57.5994 59.8402 0 0 142
12.8359 -57.8729 58.8914 0 0 221
13.3636 -57.2068 59.76 0 0 182
12.5477 -56.7516 59.6269 0 0 182
11.1405 -56.969 58.4498 0 0 234
11.6728 -56.3059 59.4146 0 0 191
10.7933 -55.8573 59.1062 0 0 191
8.12043 -59.8627 52.6752 0 0 195
8.52522 -60.9953 51.9172 0 0 195
8.88867 -60.287 53.0975 0 0 240
7.68598 -58.6934 53.3946 0 0 194
8.10876 -58.0585 54.529 0 0 238
7.31087 -57.5977 54.068 0 0 194
8.12043 -59.8627 52.6752 0 0 152
7.68598 -58.6934 53.3946 0 0 152
7.59302 -51.9357 59.381 0 0 150
8.46479 -52.5155 59.7635 0 0 150
7.13043 -52.6394 58.3549 0 0 150
7.59302 -51.9357 59.381 0 0 150
7.49281 -53.8801 57.7058 0 0 153
7.13043 -52.6394 58.3549 0 0 153
17.4831 -60.2797 58.6109 0 0 134
17.364 -59.2604 59.4217 0 0 134
17.4831 -60.2797 58.6109 0 0 133
16.9548 -60.877 58.0814 0 0 133
17.2197 -62.7148 56.4925 0 0 129
17.869 -63.0459 56.2033 0 0 129
16.7197 -63.1803 55.9563 0 0 172
17.2197 -62.7148 56.4925 0 0 150
16.6152 -62.3399 56.7262 0 0 150
14.5808 -67.3564 50.0251 0 0 170
15.3002 -67.4117 50.4098 0 0 170
14.8488 -66.6398 51.1383 0 0 202
14.5808 -67.3564 50.0251 0 0 141
13.7843 -67.2519 49.595 0 0 141
10.6508 -66.1365 48.1306 0 0 198
10.1938 -65.1456 48.8937 0 0 244
9.82454 -65.8456 47.5871 0 0 198
11.4414 -66.3797 48.63 0 0 148
10.6508 -66.1365 48.1306 0 0 148
12.2259 -66.6733 49.0185 0 0 186
11.8045 -65.7303 49.8257 0 0 226
11.4414 -66.3797 48.63 0 0 186
13.0141 -66.9716 49.3252 0 0 146
12.2259 -66.6733 49.0185 0 0 146
3 0 39 41
3 39 10 40
3 39 40 41
3 0 42 44
3 44 43 11
3 42 43 44
3 45 14 46
3 47 46 12
3 45 46 47
3 2 17 15
3 2 48 50
3 50 49 17
3 48 49 50
3 51 12 52
3 1 22 20
3 3 53 54
3 3 55 56
3 57 25 58
3 59 58 23
3 57 58 59
3 60 26 61
3 63 62 26
3 5 29 27
3 7 30 13
3 7 31 30
3 64 32 65
3 8 33 16
3 8 34 33
3 8 35 34
3 67 66 18
3 5 68 70
3 70 69 19
3 68 69 70
3 5 71 73
3 71 27 72
3 71 72 73
3 6 36 28
3 9 37 21
3 9 74 76
3 76 75 37
3 74 75 76
3 4 38 24
3 10 77 78
3 10 79 81
3 79 3 80
3 79 80 81
3 11 82 83
3 85 84 11
3 12 13 5
3 14 13 12
3 14 7 13
3 15 86 88
3 86 16 87
3 86 87 88
3 17 16 15
3 17 8 16
3 17 18 8
3 89 18 90
3 91 90 17
3 89 90 91
3 93 92 18
3 94 19 95
3 12 96 98
3 96 19 97
3 96 97 98
3 12 5 19
3 20 21 6
3 22 21 20
3 22 9 21
3 100 99 4
3 101 15 102
3 103 15 104
3 105 2 106
3 107 106 15
3 105 106 107
3 23 24 1
3 25 24 23
3 25 4 24
3 108 25 109
3 26 110 112
3 110 25 111
3 110 111 112
3 26 4 25
3 26 113 115
3 115 114 4
3 113 114 115
3 117 116 26
3 27 28 0
3 29 28 27
3 29 6 28
3 13 29 5
3 30 29 13
3 30 6 29
3 30 20 6
3 31 20 30
3 31 1 20
3 118 14 119
3 32 120 122
3 120 14 121
3 120 121 122
3 32 7 14
3 16 123 125
3 123 32 124
3 123 124 125
3 33 32 16
3 33 7 32
3 33 31 7
3 34 31 33
3 34 1 31
3 34 23 1
3 35 23 34
3 35 126 128
3 128 127 23
3 126 127 128
3 18 35 8
3 129 35 130
3 131 130 18
3 129 130 131
3 133 132 35
3 134 2 135
3 136 2 137
3 139 138 2
3 19 140 141
3 143 142 19
3 144 11 145
3 27 146 148
3 146 11 147
3 146 147 148
3 27 0 11
3 28 10 0
3 36 10 28
3 36 3 10
3 21 36 6
3 37 36 21
3 37 3 36
3 37 149 151
3 151 150 3
3 149 150 151
3 153 152 37
3 24 22 1
3 38 22 24
3 38 9 22
3 154 38 155
3 156 155 4
3 154 155 156
3 157 38 158
3 159 9 160
3 161 160 38
3 159 160 161
3 163 162 9
