ply
format ascii 1.0
element vertex 167
property float x
property float y
property float z
property uchar red
property uchar green
property uchar blue
element face 160
property list uchar int vertex_index
end_header
30.0626 16.5533 43.1952 0 180 255
30.967 24.2705 37.7479 255 38 0
30.3859 19.8773 40.824 255 206 0
30.5776 16.9016 37.9718 166 255 89
30.0072 13.6341 40.9813 16 255 239
31.7141 28.2512 34.3188 128 0 0
31.4295 20.7332 34.7587 185 255 70
30.3455 21.5617 44.0193 127 255 128
31.2395 31.352 37.5414 255 166 0
30.6961 26.3346 41.1863 255 34 0
30.1789 17.839 42.1345 124 255 131
30.2093 16.7627 40.7513 230 255 25
30.0295 15.3829 42.179 0 217 255
31.3239 26.2124 36.0361 221 0 0
31.6168 24.4558 34.4113 201 0 0
31.1594 22.5206 36.2499 255 6 0
30.3482 13.3577 38.1489 0 227 255
31.5478 33.6706 35.6512 102 255 153
30.7513 30.7956 43.1237 0 234 255
30.8274 29.7802 41.291 255 186 0
30.6365 27.185 43.0098 255 228 0
30.4983 23.8687 42.7009 255 107 0
30.4782 24.5062 44.5084 9 255 246
30.6516 21.978 39.3047 255 99 0
30.7823 20.4524 37.8411 255 90 0
30.4603 18.4756 39.3387 255 176 0
30.2544 15.1118 39.4513 255 201 0
30.0291 11.7285 39.652 0 218 255
32.1944 30.5859 32.2956 166 255 89
32.0804 26.395 32.6895 252 255 3
31.9635 22.4495 32.9274 88 255 167
30.9702 18.8181 36.4298 123 255 132
30.0507 16.4278 44.4525 0 147 255
29.9324 14.3767 43.5784 0 80 255
30.197 18.9108 45.0715 0 166 255
30.1878 18.666 43.5379 142 255 113
31.8463 32.3867 33.8964 255 245 0
31.4558 29.9946 35.8532 170 0 0
31.1025 27.7391 37.7411 242 0 0
31.0613 32.5835 39.4206 122 255 133
30.9446 28.8758 39.4602 211 0 0
30.8131 25.5047 39.3752 255 61 0
30.563 23.1783 40.8847 255 119 0
30.3487 20.8038 42.3205 255 217 0
30.4162 12.3398 37.5041 0 0 137
30.2129 11.4639 38.2706 0 0 137
30.6158 27.5459 43.9585 0 0 187
30.6939 28.9903 43.0667 0 0 229
30.6732 29.3512 44.0154 0 0 187
30.5366 26.2065 44.7077 0 0 179
30.5573 25.8456 43.7591 0 0 218
30.6158 27.5459 43.9585 0 0 179
31.6035 19.6232 34.0018 0 0 189
31.8705 20.4814 33.0862 0 0 189
31.6965 21.5913 33.843 0 0 232
29.9788 15.1297 44.7677 0 0 128
30.0551 16.3457 45.2492 0 0 128
30.1283 17.5872 45.5587 0 0 132
30.2021 18.9025 45.9613 0 0 132
30.0551 16.3457 45.2492 0 0 153
30.1238 17.6693 44.762 0 0 179
30.1283 17.5872 45.5587 0 0 153
31.8686 34.2401 33.7691 0 0 190
32.0518 33.4777 32.898 0 0 190
32.0741 35.3311 32.7708 0 0 146
30.9961 33.0502 40.3256 0 0 147
31.0944 34.5476 39.4031 0 0 147
29.8929 13.425 43.0198 0 0 129
29.8489 12.897 43.8426 0 0 129
30.5469 14.2411 37.3877 0 0 167
30.6616 16.013 37.2992 0 0 167
30.4629 15.1296 38.0603 0 0 200
30.5469 14.2411 37.3877 0 0 137
30.4162 12.3398 37.5041 0 0 137
31.5792 35.5725 35.4898 0 0 146
31.7193 34.882 34.6465 0 0 146
31.4356 34.3859 36.5327 0 0 147
31.5792 35.5725 35.4898 0 0 147
31.2814 33.2266 37.4778 0 0 188
31.3936 32.5113 36.5963 0 0 231
31.4356 34.3859 36.5327 0 0 188
30.7893 30.2879 42.2073 0 0 232
30.8792 31.6486 41.2608 0 0 189
30.8411 32.1562 42.1771 0 0 189
30.0534 10.6493 39.0222 0 0 169
30.2129 11.4639 38.2706 0 0 169
30.1887 12.5431 38.9004 0 0 203
30.7798 32.6796 43.1987 0 0 197
30.8411 32.1562 42.1771 0 0 197
30.8696 34.0403 42.2522 0 0 150
30.7093 31.0697 44.1388 0 0 150
30.7798 32.6796 43.1987 0 0 150
30.6732 29.3512 44.0154 0 0 145
30.7093 31.0697 44.1388 0 0 145
32.4092 29.5598 31.5142 0 0 199
32.667 30.5837 30.4619 0 0 151
32.4522 31.6098 31.2433 0 0 199
32.3522 27.4644 31.7111 0 0 198
32.4092 29.5598 31.5142 0 0 198
32.1374 28.4904 32.4926 0 0 246
32.3023 25.4046 31.9085 0 0 149
32.3522 27.4644 31.7111 0 0 149
32.2439 23.4318 32.0274 0 0 189
32.3023 25.4046 31.9085 0 0 189
32.0219 24.4222 32.8085 0 0 232
32.1761 21.453 32.1952 0 0 144
32.2439 23.4318 32.0274 0 0 144
32.1761 21.453 32.1952 0 0 144
31.8705 20.4814 33.0862 0 0 144
30.8579 16.9713 36.5282 0 0 170
30.7739 17.8598 37.2008 0 0 204
30.6616 16.013 37.2992 0 0 170
31.0883 17.8398 35.7418 0 0 137
30.8579 16.9713 36.5282 0 0 137
31.318 18.7973 34.9062 0 0 178
31.1998 19.7756 35.5943 0 0 216
31.0883 17.8398 35.7418 0 0 178
31.6035 19.6232 34.0018 0 0 145
31.318 18.7973 34.9062 0 0 145
29.9196 14.1042 44.3306 0 0 147
29.9915 15.4022 44.0155 0 0 169
29.9788 15.1297 44.7677 0 0 147
29.8489 12.897 43.8426 0 0 128
29.9196 14.1042 44.3306 0 0 128
30.4771 24.9149 45.4509 0 0 140
30.5366 26.2065 44.7077 0 0 140
30.4114 23.1781 45.1476 0 0 140
30.4771 24.9149 45.4509 0 0 140
30.345 21.7059 44.9031 0 0 166
30.4118 23.0339 44.2638 0 0 197
30.4114 23.1781 45.1476 0 0 166
30.2708 20.3804 45.4292 0 0 135
30.2021 18.9025 45.9613 0 0 135
30.2712 20.2362 44.5454 0 0 196
30.345 21.7059 44.9031 0 0 165
30.2708 20.3804 45.4292 0 0 165
32.2259 32.5773 32.0977 0 0 151
32.4522 31.6098 31.2433 0 0 151
32.0203 31.4863 33.096 0 0 238
32.2259 32.5773 32.0977 0 0 193
32.0518 33.4777 32.898 0 0 193
31.697 33.0286 34.7738 0 0 232
31.8686 34.2401 33.7691 0 0 189
31.7193 34.882 34.6465 0 0 189
31.1923 33.8423 38.4174 0 0 151
31.0944 34.5476 39.4031 0 0 151
31.1504 31.9678 38.481 0 0 238
31.2814 33.2266 37.4778 0 0 193
31.1923 33.8423 38.4174 0 0 193
30.9443 31.1818 40.3558 0 0 231
30.9961 33.0502 40.3256 0 0 188
30.8792 31.6486 41.2608 0 0 188
29.9415 13.9281 42.3201 0 0 150
29.981 14.8798 42.8787 0 0 173
29.8929 13.425 43.0198 0 0 150
29.9303 13.0537 41.7213 0 0 152
30.0183 14.5085 41.5802 0 0 177
29.9415 13.9281 42.3201 0 0 152
29.9021 11.9893 41.0938 0 0 131
29.9303 13.0537 41.7213 0 0 131
29.9131 11.0365 40.4291 0 0 163
30.0182 12.6813 40.3166 0 0 193
29.9021 11.9893 41.0938 0 0 163
29.9019 9.97826 39.809 0 0 134
29.9131 11.0365 40.4291 0 0 134
30.0534 10.6493 39.0222 0 0 134
29.9019 9.97826 39.809 0 0 134
3 0 12 10
3 1 15 13
3 45 44 16
3 46 20 47
3 48 47 18
3 46 47 48
3 49 22 50
3 51 50 20
3 49 50 51
3 2 25 23
3 4 26 11
3 4 27 26
3 5 29 28
3 6 30 14
3 6 52 54
3 54 53 30
3 52 53 54
3 3 31 24
3 56 55 32
3 57 34 58
3 59 32 60
3 61 60 34
3 59 60 61
3 62 36 63
3 62 63 64
3 8 37 17
3 8 38 37
3 65 39 66
3 9 40 19
3 9 41 40
3 9 42 41
3 7 43 21
3 7 35 43
3 68 67 33
3 10 11 2
3 12 11 10
3 12 4 11
3 13 14 5
3 15 14 13
3 15 6 14
3 16 69 71
3 71 70 3
3 69 70 71
3 73 72 16
3 74 17 75
3 76 17 77
3 78 8 79
3 80 79 17
3 78 79 80
3 18 81 83
3 81 19 82
3 81 82 83
3 20 19 18
3 20 9 19
3 20 21 9
3 22 21 20
3 22 7 21
3 23 24 1
3 25 24 23
3 25 3 24
3 11 25 2
3 26 25 11
3 26 3 25
3 26 16 3
3 27 16 26
3 27 84 86
3 86 85 16
3 84 85 86
3 87 18 88
3 87 88 89
3 90 18 91
3 93 92 18
3 28 94 96
3 94 95 96
3 29 97 99
3 99 98 28
3 97 98 99
3 29 100 101
3 14 29 5
3 30 29 14
3 30 102 104
3 104 103 29
3 102 103 104
3 30 105 106
3 108 107 30
3 24 15 1
3 31 15 24
3 31 6 15
3 109 31 110
3 111 110 3
3 109 110 111
3 112 31 113
3 114 6 115
3 116 115 31
3 114 115 116
3 118 117 6
3 32 33 0
3 119 33 120
3 121 120 32
3 119 120 121
3 123 122 33
3 124 22 125
3 126 22 127
3 128 7 129
3 130 129 22
3 128 129 130
3 34 131 132
3 34 133 135
3 133 7 134
3 133 134 135
3 34 35 7
3 32 35 34
3 32 0 35
3 136 28 137
3 36 138 140
3 138 28 139
3 138 139 140
3 36 5 28
3 17 141 143
3 141 36 142
3 141 142 143
3 37 36 17
3 37 5 36
3 37 13 5
3 38 13 37
3 38 1 13
3 39 144 145
3 39 146 148
3 146 8 147
3 146 147 148
3 19 149 151
3 149 39 150
3 149 150 151
3 40 39 19
3 40 8 39
3 40 38 8
3 41 38 40
3 41 1 38
3 41 23 1
3 42 23 41
3 42 2 23
3 21 42 9
3 43 42 21
3 43 2 42
3 43 10 2
3 35 10 43
3 35 0 10
3 33 12 0
3 152 12 153
3 154 153 33
3 152 153 154
3 155 4 156
3 157 156 12
3 155 156 157
3 158 4 159
3 160 27 161
3 162 161 4
3 160 161 162
3 163 27 164
3 166 165 27
