ply
format ascii 1.0
element vertex 137
property float x
property float y
property float z
property uchar red
property uchar green
property uchar blue
element face 112
property list uchar int vertex_index
end_header
30.4501 -45.6201 3.77163 224 255 31
28.2614 -50.6996 -0.606791 79 255 176
30.5812 -46.5073 8.18615 255 254 0
29.2379 -53.6647 12.5208 0 227 255
29.0354 -52.6214 8.06868 159 0 0
28.7469 -51.5457 3.78075 229 255 26
30.2611 -45.3612 1.60872 96 255 159
29.1493 -47.8322 -0.594887 86 255 169
29.3738 -48.2338 1.57425 165 0 0
30.4998 -47.2506 10.2946 120 255 135
29.3114 -54.091 14.7002 0 97 255
28.3446 -55.6175 7.82391 212 255 43
28.2183 -54.8716 5.83185 72 255 183
28.9161 -52.0183 5.88665 255 175 0
28.981 -47.1775 -2.68129 0 76 255
30.5276 -46.0771 5.87074 249 255 6
28.5707 -55.9923 10.1383 107 255 148
29.1467 -53.1223 10.2117 255 146 0
29.7981 -50.1774 10.2451 246 255 9
29.7436 -49.6465 7.91572 128 0 0
29.7092 -49.0055 5.87694 142 0 0
29.5535 -48.6089 3.65003 148 0 0
28.4868 -51.2036 1.52924 217 255 38
30.3556 -45.4907 2.69018 0 0 219
30.7929 -44.0316 2.68307 0 0 176
30.8874 -44.1611 3.76452 0 0 176
30.4956 -47.4015 11.388 0 0 133
30.8304 -45.9349 11.3795 0 0 133
27.7803 -56.0375 4.76612 0 0 133
27.9045 -56.3523 5.82169 0 0 133
28.1009 -54.6613 4.78353 0 0 129
27.7803 -56.0375 4.76612 0 0 129
29.5226 -46.0755 -1.60673 0 0 132
29.4688 -45.7114 -2.59847 0 0 132
28.1536 -50.4173 -1.62749 0 0 171
28.5975 -48.9836 -1.62154 0 0 171
28.7054 -49.2659 -0.600839 0 0 211
27.7517 -51.7591 -1.58604 0 0 128
28.1536 -50.4173 -1.62749 0 0 128
30.992 -44.9923 8.22426 0 0 134
30.9434 -45.2737 9.27751 0 0 134
30.5544 -46.2922 7.02844 0 0 232
30.9653 -44.7772 7.06656 0 0 185
30.992 -44.9923 8.22426 0 0 185
29.5195 -52.4478 13.6353 0 0 173
29.5562 -52.6609 14.725 0 0 173
29.2747 -53.8778 13.6105 0 0 214
29.5267 -52.1834 12.5164 0 0 134
29.5195 -52.4478 13.6353 0 0 134
28.215 -57.1349 9.04934 0 0 134
28.3189 -57.487 10.1488 0 0 134
30.7438 -43.7948 1.59282 0 0 137
30.7929 -44.0316 2.68307 0 0 137
30.1626 -45.1673 0.538276 0 0 136
30.7438 -43.7948 1.59282 0 0 136
29.7052 -46.5967 0.506916 0 0 217
29.6068 -46.4028 -0.563527 0 0 175
30.1626 -45.1673 0.538276 0 0 175
30.9027 -45.6453 10.3318 0 0 181
31.2334 -44.3296 11.4167 0 0 136
30.8304 -45.9349 11.3795 0 0 181
30.5405 -46.879 9.2404 0 0 227
30.9434 -45.2737 9.27751 0 0 182
30.9027 -45.6453 10.3318 0 0 182
29.0736 -55.679 14.7339 0 0 136
29.31 -54.4782 15.8091 0 0 136
29.0209 -55.3185 13.5841 0 0 138
29.0736 -55.679 14.7339 0 0 138
28.9842 -55.1054 12.4944 0 0 173
29.2747 -53.8778 13.6105 0 0 215
29.0209 -55.3185 13.5841 0 0 173
27.9676 -56.7252 6.81772 0 0 128
28.102 -56.9475 7.89213 0 0 128
28.2815 -55.2446 6.82788 0 0 209
27.9676 -56.7252 6.81772 0 0 169
27.9045 -56.3523 5.82169 0 0 169
28.4498 -53.2347 4.81092 0 0 171
28.5672 -53.445 5.85925 0 0 212
28.1009 -54.6613 4.78353 0 0 171
28.3652 -52.9983 3.75798 0 0 173
28.8315 -51.782 4.8337 0 0 215
28.4498 -53.2347 4.81092 0 0 173
28.2417 -52.7319 2.6666 0 0 134
28.3652 -52.9983 3.75798 0 0 134
28.8432 -47.0076 -3.63704 0 0 130
29.4688 -45.7114 -2.59847 0 0 130
28.3746 -48.4673 -3.6276 0 0 129
28.8432 -47.0076 -3.63704 0 0 129
29.0652 -47.5048 -1.63809 0 0 214
29.5226 -46.0755 -1.60673 0 0 173
29.6068 -46.4028 -0.563527 0 0 173
28.5134 -48.6563 -2.66474 0 0 175
29.0652 -47.5048 -1.63809 0 0 217
28.5975 -48.9836 -1.62154 0 0 175
28.3746 -48.4673 -3.6276 0 0 130
28.5134 -48.6563 -2.66474 0 0 130
30.9507 -44.2667 4.92748 0 0 137
30.8874 -44.1611 3.76452 0 0 137
30.9895 -44.4952 5.97703 0 0 138
30.9653 -44.7772 7.06656 0 0 138
30.4889 -45.8486 4.82119 0 0 227
30.9507 -44.2667 4.92748 0 0 181
30.9895 -44.4952 5.97703 0 0 181
29.529 -52.9736 15.842 0 0 135
29.31 -54.4782 15.8091 0 0 135
29.529 -52.9736 15.842 0 0 133
29.5562 -52.6609 14.725 0 0 133
28.6505 -56.2692 11.3032 0 0 136
28.3189 -57.487 10.1488 0 0 136
28.9043 -54.8285 11.3295 0 0 224
28.9842 -55.1054 12.4944 0 0 179
28.6505 -56.2692 11.3032 0 0 179
28.4577 -55.8049 8.98112 0 0 212
28.215 -57.1349 9.04934 0 0 171
28.102 -56.9475 7.89213 0 0 171
29.4811 -51.9122 11.3618 0 0 181
29.5267 -52.1834 12.5164 0 0 181
29.1923 -53.3935 11.3662 0 0 226
29.8068 -50.4398 11.3785 0 0 179
29.4811 -51.9122 11.3618 0 0 179
29.4724 -51.6499 10.2284 0 0 223
30.1448 -48.8649 11.3632 0 0 185
30.1535 -49.1272 12.4966 0 0 138
29.8068 -50.4398 11.3785 0 0 185
30.149 -48.714 10.2699 0 0 218
30.4956 -47.4015 11.388 0 0 176
30.1448 -48.8649 11.3632 0 0 176
28.1116 -52.5609 1.54084 0 0 173
28.6168 -51.3746 2.655 0 0 215
28.2417 -52.7319 2.6666 0 0 173
27.9904 -52.3164 0.543196 0 0 128
28.1116 -52.5609 1.54084 0 0 128
27.8777 -52.0644 -0.524819 0 0 169
28.3741 -50.9516 0.461224 0 0 208
27.9904 -52.3164 0.543196 0 0 169
27.7517 -51.7591 -1.58604 0 0 130
27.8777 -52.0644 -0.524819 0 0 130
3 0 23 25
3 23 6 24
3 23 24 25
3 0 8 6
3 26 9 27
3 28 12 29
3 31 30 12
3 32 14 33
3 1 34 36
3 36 35 7
3 34 35 36
3 1 37 38
3 2 39 40
3 2 41 43
3 41 15 42
3 41 42 43
3 3 44 46
3 46 45 10
3 44 45 46
3 3 47 48
3 49 16 50
3 4 17 11
3 4 18 17
3 4 19 18
3 5 20 13
3 5 21 20
3 5 22 21
3 6 51 52
3 6 53 54
3 6 55 57
3 55 7 56
3 55 56 57
3 8 7 6
3 8 1 7
3 9 58 60
3 58 59 60
3 9 61 63
3 61 2 62
3 61 62 63
3 64 10 65
3 66 10 67
3 68 3 69
3 70 69 10
3 68 69 70
3 71 11 72
3 12 73 75
3 73 11 74
3 73 74 75
3 12 4 11
3 12 13 4
3 76 13 77
3 78 77 12
3 76 77 78
3 79 5 80
3 81 80 13
3 79 80 81
3 83 82 5
3 14 84 85
3 14 86 87
3 7 88 90
3 88 14 89
3 88 89 90
3 91 14 92
3 93 92 7
3 91 92 93
3 95 94 14
3 96 0 97
3 15 98 99
3 15 100 102
3 100 0 101
3 100 101 102
3 10 103 104
3 106 105 10
3 16 107 108
3 16 109 111
3 109 3 110
3 109 110 111
3 11 112 114
3 112 16 113
3 112 113 114
3 17 16 11
3 17 3 16
3 17 115 117
3 117 116 3
3 115 116 117
3 18 118 120
3 120 119 17
3 118 119 120
3 18 121 123
3 121 122 123
3 18 124 126
3 124 9 125
3 124 125 126
3 19 9 18
3 19 2 9
3 13 19 4
3 20 19 13
3 20 2 19
3 20 15 2
3 21 15 20
3 21 0 15
3 21 8 0
3 22 8 21
3 22 1 8
3 127 22 128
3 129 128 5
3 127 128 129
3 130 22 131
3 132 1 133
3 134 133 22
3 132 133 134
3 136 135 1
