ply
format ascii 1.0
element vertex 219
property float x
property float y
property float z
property uchar red
property uchar green
property uchar blue
element face 194
property list uchar int vertex_index
end_header
-12.4251 54.1219 -24.8736 230 255 25
-15.8525 64.3794 -23.0192 108 255 147
-12.4871 66.2736 -29.8894 229 255 26
-10.6888 65.9551 -33.3536 85 255 170
-18.4844 52.7338 -15.2151 255 206 0
-16.9015 55.5295 -17.8166 198 0 0
-15.3538 57.4914 -20.6609 173 0 0
-13.9583 59.4154 -23.8494 136 0 0
-14.1226 65.4019 -26.4033 205 255 50
-12.566 60.5633 -27.1996 184 0 0
-11.1765 61.0946 -30.6502 217 255 38
-11.9001 54.9106 -26.5709 72 255 183
-18.8027 56.3396 -15.9276 69 255 186
-17.6657 54.0148 -16.4377 188 0 0
-17.9778 57.4802 -17.237 197 255 58
-16.3466 59.9454 -20.2779 225 255 30
-15.6319 60.9965 -21.7923 255 140 0
-14.6388 58.5332 -22.2495 144 0 0
-14.8911 61.9341 -23.4149 136 0 0
-13.3291 65.9815 -28.1372 214 255 41
-13.352 62.9979 -26.7053 179 0 0
-12.6065 63.5448 -28.4606 165 0 0
-11.9177 60.8688 -28.7988 255 177 0
-11.7989 63.627 -30.2061 135 0 0
-10.1612 63.3025 -33.6904 65 255 190
-9.37353 62.7146 -35.2704 0 55 255
-11.6042 66.2728 -31.6363 238 255 17
-13.0488 53.6295 -23.1924 94 255 161
-18.9966 47.5298 -13.518 0 188 255
-19.254 51.1451 -14.0832 60 255 195
-18.1264 48.9595 -14.5755 168 255 87
-17.3722 50.3982 -15.6676 190 255 65
-16.5512 51.7954 -16.9643 206 255 49
-15.871 53.1598 -18.248 188 255 67
-17.2324 59.0042 -18.7109 215 255 40
-16.1614 56.6578 -19.1778 188 0 0
-15.1528 54.1699 -19.6106 192 255 63
-14.4597 55.0755 -21.0578 197 255 58
-13.8011 55.9782 -22.604 255 161 0
-13.1426 56.7889 -24.2718 128 0 0
-14.9895 65.0611 -24.737 230 255 25
-14.1236 62.5517 -25.0412 168 0 0
-13.2368 59.9961 -25.5201 141 0 0
-12.4784 57.3366 -25.9937 156 0 0
-11.9068 57.9675 -27.6544 187 255 68
-10.9603 63.5806 -32.0241 173 0 0
-10.452 60.8046 -32.3256 66 255 189
-12.175 52.9083 -25.2125 0 0 136
-12.4188 52.4909 -24.3628 0 0 136
-12.1626 54.5162 -25.7223 0 0 218
-11.9124 53.3027 -26.0611 0 0 177
-12.175 52.9083 -25.2125 0 0 177
-18.9038 57.9638 -16.3242 0 0 135
-19.3241 57.2669 -15.6012 0 0 135
-18.4914 58.5341 -16.9789 0 0 170
-18.3902 56.9099 -16.5823 0 0 208
-18.9038 57.9638 -16.3242 0 0 170
-15.7422 62.688 -22.4057 0 0 229
-16.1335 62.1272 -21.5566 0 0 185
-16.2438 63.8187 -22.1701 0 0 185
-12.9081 66.1276 -29.0133 0 0 226
-13.2292 67.4294 -28.9369 0 0 182
-12.8082 67.5754 -29.8131 0 0 182
-9.08889 63.6501 -35.9962 0 0 135
-9.54202 64.1019 -35.213 0 0 135
-8.99631 62.3561 -36.0209 0 0 130
-9.08889 63.6501 -35.9962 0 0 130
-13.3514 53.1304 -22.3714 0 0 137
-12.9956 51.9705 -22.7405 0 0 137
-19.585 48.6098 -13.2466 0 0 135
-19.4524 46.7695 -13.0311 0 0 135
-18.8692 51.9395 -14.6492 0 0 205
-19.3986 52.8902 -14.3708 0 0 169
-19.0138 53.6845 -14.9367 0 0 169
-17.3446 60.6311 -19.2176 0 0 136
-17.7512 60.0353 -18.4402 0 0 136
-14.5319 66.6473 -26.2593 0 0 139
-14.0786 66.8438 -27.134 0 0 139
-14.5561 65.2315 -25.5701 0 0 220
-14.9654 66.4769 -25.4262 0 0 178
-14.5319 66.6473 -26.2593 0 0 178
-11.2534 59.7657 -29.9902 0 0 179
-11.6241 59.6528 -29.0645 0 0 179
-11.5471 60.9817 -29.7245 0 0 221
-10.9257 59.7154 -30.8637 0 0 137
-11.2534 59.7657 -29.9902 0 0 137
-10.1106 60.7973 -33.156 0 0 170
-10.3066 62.0535 -33.008 0 0 207
-9.96528 62.0463 -33.8383 0 0 170
-10.2496 59.6379 -32.5733 0 0 130
-10.1106 60.7973 -33.156 0 0 130
-11.6871 53.5538 -26.8751 0 0 136
-11.9124 53.3027 -26.0611 0 0 136
-11.641 55.1771 -27.4125 0 0 138
-11.6871 53.5538 -26.8751 0 0 138
-19.173 55.4874 -15.293 0 0 134
-19.3241 57.2669 -15.6012 0 0 134
-18.6435 54.5367 -15.5714 0 0 213
-19.0138 53.6845 -14.9367 0 0 174
-19.173 55.4874 -15.293 0 0 174
-16.4909 61.6017 -20.7994 0 0 139
-16.9017 61.1018 -20.0011 0 0 139
-15.9893 60.4709 -21.0351 0 0 216
-16.4909 61.6017 -20.7994 0 0 176
-16.1335 62.1272 -21.5566 0 0 176
-13.6819 67.1336 -28.001 0 0 138
-13.2292 67.4294 -28.9369 0 0 138
-13.7258 65.6917 -27.2703 0 0 215
-14.0786 66.8438 -27.134 0 0 175
-13.6819 67.1336 -28.001 0 0 175
-9.93587 64.3959 -34.423 0 0 182
-10.425 64.6288 -33.522 0 0 225
-10.1997 65.7222 -34.2546 0 0 182
-9.76739 63.0086 -34.4804 0 0 214
-9.93587 64.3959 -34.423 0 0 174
-9.54202 64.1019 -35.213 0 0 174
-9.57142 61.7524 -34.6284 0 0 165
-9.96528 62.0463 -33.8383 0 0 165
-9.76739 63.0086 -34.4804 0 0 199
-9.23413 61.476 -35.3913 0 0 128
-9.57142 61.7524 -34.6284 0 0 128
-9.23413 61.476 -35.3913 0 0 128
-8.99631 62.3561 -36.0209 0 0 128
-16.324 65.3262 -22.7112 0 0 135
-16.2438 63.8187 -22.1701 0 0 135
-12.338 67.6029 -30.681 0 0 139
-12.8082 67.5754 -29.8131 0 0 139
-11.8966 67.6025 -31.5545 0 0 182
-12.0457 66.2732 -30.7629 0 0 226
-12.338 67.6029 -30.681 0 0 182
-11.4134 67.5028 -32.4052 0 0 138
-11.8966 67.6025 -31.5545 0 0 138
-10.9557 67.344 -33.2638 0 0 183
-11.1465 66.114 -32.4949 0 0 227
-11.4134 67.5028 -32.4052 0 0 183
-10.4641 67.055 -34.0725 0 0 137
-10.9557 67.344 -33.2638 0 0 137
-10.1997 65.7222 -34.2546 0 0 138
-10.4641 67.055 -34.0725 0 0 138
-12.7307 52.2447 -23.5222 0 0 137
-12.9956 51.9705 -22.7405 0 0 137
-12.737 53.8757 -24.033 0 0 230
-12.4188 52.4909 -24.3628 0 0 185
-12.7307 52.2447 -23.5222 0 0 185
-18.864 45.6928 -13.2695 0 0 134
-19.4524 46.7695 -13.0311 0 0 134
-18.4602 46.484 -13.7359 0 0 131
-18.864 45.6928 -13.2695 0 0 131
-19.8273 52.2281 -13.7808 0 0 135
-19.3986 52.8902 -14.3708 0 0 135
-19.7137 50.4175 -13.5292 0 0 136
-19.8273 52.2281 -13.7808 0 0 136
-19.1253 49.3375 -13.8006 0 0 218
-19.585 48.6098 -13.2466 0 0 177
-19.7137 50.4175 -13.5292 0 0 177
-18.0251 47.1988 -14.2646 0 0 169
-18.4602 46.484 -13.7359 0 0 169
-18.5615 48.2446 -14.0467 0 0 206
-17.6055 47.8346 -14.7815 0 0 131
-18.0251 47.1988 -14.2646 0 0 131
-17.2284 48.5539 -15.3276 0 0 169
-17.6055 47.8346 -14.7815 0 0 169
-17.7493 49.6788 -15.1215 0 0 207
-16.8288 49.2435 -15.9156 0 0 135
-17.2284 48.5539 -15.3276 0 0 135
-16.4183 49.942 -16.5639 0 0 180
-16.8288 49.2435 -15.9156 0 0 180
-16.9617 51.0968 -16.3159 0 0 222
-16.0715 50.6122 -17.1689 0 0 133
-16.4183 49.942 -16.5639 0 0 133
-15.7313 51.2944 -17.8107 0 0 173
-16.0715 50.6122 -17.1689 0 0 173
-16.2111 52.4776 -17.6061 0 0 212
-15.3858 51.8844 -18.476 0 0 136
-15.7313 51.2944 -17.8107 0 0 136
-18.1239 59.2734 -17.7033 0 0 137
-18.4914 58.5341 -16.9789 0 0 137
-17.6051 58.2422 -17.974 0 0 221
-18.1239 59.2734 -17.7033 0 0 179
-17.7512 60.0353 -18.4402 0 0 179
-16.7895 59.4748 -19.4944 0 0 227
-17.3446 60.6311 -19.2176 0 0 183
-16.9017 61.1018 -20.0011 0 0 183
-15.0267 52.3895 -19.1573 0 0 177
-15.3858 51.8844 -18.476 0 0 177
-15.5119 53.6648 -18.9293 0 0 218
-14.7028 52.9268 -19.859 0 0 135
-15.0267 52.3895 -19.1573 0 0 135
-14.3563 53.3796 -20.5826 0 0 176
-14.7028 52.9268 -19.859 0 0 176
-14.8062 54.6227 -20.3342 0 0 216
-14.0568 53.8534 -21.3042 0 0 134
-14.3563 53.3796 -20.5826 0 0 134
-13.7275 54.3047 -22.0773 0 0 176
-14.0568 53.8534 -21.3042 0 0 176
-14.1304 55.5268 -21.8309 0 0 217
-13.4249 54.8038 -22.8982 0 0 220
-13.3514 53.1304 -22.3714 0 0 178
-13.7275 54.3047 -22.0773 0 0 178
-15.8882 65.8586 -23.6315 0 0 137
-16.324 65.3262 -22.7112 0 0 137
-15.4568 66.1994 -24.4904 0 0 140
-14.9654 66.4769 -25.4262 0 0 140
-15.421 64.7203 -23.8781 0 0 222
-15.8882 65.8586 -23.6315 0 0 180
-15.4568 66.1994 -24.4904 0 0 180
-11.6444 56.7055 -27.9543 0 0 176
-11.641 55.1771 -27.4125 0 0 176
-11.9034 56.439 -27.1126 0 0 216
-11.6186 58.2021 -28.4923 0 0 173
-11.9122 59.4181 -28.2266 0 0 211
-11.6241 59.6528 -29.0645 0 0 173
-11.6444 56.7055 -27.9543 0 0 135
-11.6186 58.2021 -28.4923 0 0 135
-10.5634 59.5704 -31.7014 0 0 176
-10.9257 59.7154 -30.8637 0 0 176
-10.8142 60.9496 -31.4879 0 0 217
-10.5634 59.5704 -31.7014 0 0 132
-10.2496 59.6379 -32.5733 0 0 132
3 0 47 48
3 0 49 51
3 49 11 50
3 49 50 51
3 52 12 53
3 54 14 55
3 56 55 12
3 54 55 56
3 1 57 59
3 57 16 58
3 57 58 59
3 1 18 16
3 2 60 62
3 60 19 61
3 60 61 62
3 2 21 19
3 2 23 21
3 63 25 64
3 66 65 25
3 67 27 68
3 69 28 70
3 4 71 73
3 71 29 72
3 71 72 73
3 4 30 29
3 4 31 30
3 5 32 13
3 5 33 32
3 74 34 75
3 6 35 15
3 6 36 35
3 6 37 36
3 7 38 17
3 7 39 38
3 8 76 77
3 8 78 80
3 78 40 79
3 78 79 80
3 8 41 40
3 9 42 20
3 9 43 42
3 9 44 43
3 10 81 83
3 83 82 22
3 81 82 83
3 10 84 85
3 3 45 26
3 86 46 87
3 88 87 24
3 86 87 88
3 90 89 46
3 11 91 92
3 11 93 94
3 12 95 96
3 12 97 99
3 97 4 98
3 97 98 99
3 12 13 4
3 14 13 12
3 14 5 13
3 100 15 101
3 16 102 104
3 102 15 103
3 102 103 104
3 16 6 15
3 16 17 6
3 18 17 16
3 18 7 17
3 19 105 106
3 19 107 109
3 107 8 108
3 107 108 109
3 19 20 8
3 21 20 19
3 21 9 20
3 21 22 9
3 23 22 21
3 23 10 22
3 110 24 111
3 112 111 3
3 110 111 112
3 25 113 115
3 113 24 114
3 113 114 115
3 25 116 118
3 118 117 24
3 116 117 118
3 25 119 120
3 122 121 25
3 123 1 124
3 125 2 126
3 127 26 128
3 129 128 2
3 127 128 129
3 130 26 131
3 132 3 133
3 134 133 26
3 132 133 134
3 135 3 136
3 138 137 3
3 27 139 140
3 27 141 143
3 141 0 142
3 141 142 143
3 28 144 145
3 28 146 147
3 29 148 149
3 29 150 151
3 29 152 154
3 152 28 153
3 152 153 154
3 30 28 29
3 30 155 157
3 157 156 28
3 155 156 157
3 30 158 159
3 31 160 162
3 162 161 30
3 160 161 162
3 31 163 164
3 13 31 4
3 32 31 13
3 32 165 167
3 167 166 31
3 165 166 167
3 32 168 169
3 33 170 172
3 172 171 32
3 170 171 172
3 33 173 174
3 175 14 176
3 34 177 179
3 177 14 178
3 177 178 179
3 34 5 14
3 15 180 182
3 180 34 181
3 180 181 182
3 35 34 15
3 35 5 34
3 35 33 5
3 36 33 35
3 36 183 185
3 185 184 33
3 183 184 185
3 36 186 187
3 37 188 190
3 190 189 36
3 188 189 190
3 37 191 192
3 17 37 6
3 38 37 17
3 38 193 195
3 195 194 37
3 193 194 195
3 38 196 198
3 196 27 197
3 196 197 198
3 39 27 38
3 39 0 27
3 199 1 200
3 40 201 202
3 40 203 205
3 203 1 204
3 203 204 205
3 40 18 1
3 41 18 40
3 41 7 18
3 20 41 8
3 42 41 20
3 42 7 41
3 42 39 7
3 43 39 42
3 43 0 39
3 43 11 0
3 44 11 43
3 44 206 208
3 208 207 11
3 206 207 208
3 22 44 9
3 209 44 210
3 211 210 22
3 209 210 211
3 213 212 44
3 26 23 2
3 45 23 26
3 45 10 23
3 24 45 3
3 46 45 24
3 46 10 45
3 46 214 216
3 216 215 10
3 214 215 216
3 218 217 46
