ply
format ascii 1.0
element vertex 189
property float x
property float y
property float z
property uchar red
property uchar green
property uchar blue
element face 151
property list uchar int vertex_index
end_header
-23.3335 7.99477 -22.3084 67 255 188
-24.3773 15.4304 -31.1441 0 242 255
-20.1051 -0.186176 -9.31356 0 34 255
-19.7884 2.47199 -11.942 0 1 255
-19.886 5.47772 -15.0391 68 255 187
-20.3105 8.56114 -18.5454 117 255 138
-20.6564 12.2351 -22.5159 202 255 53
-21.0974 15.7037 -26.687 255 149 0
-21.372 19.2821 -31.2272 125 255 130
-19.8239 3.83295 -13.3978 0 102 255
-20.4846 10.297 -20.4155 178 255 77
-19.824 17.9146 -26.8303 119 255 136
-21.3599 17.4029 -28.9693 128 0 0
-19.9944 19.6577 -29.1577 116 255 139
-23.5974 9.8631 -24.3715 75 255 180
-20.8773 -1.29403 -10.2444 0 53 255
-19.8542 1.18888 -10.5971 0 50 255
-20.9028 3.20596 -14.7371 0 217 255
-21.214 4.71208 -16.5457 104 255 151
-20.0427 7.11546 -16.7925 94 255 161
-21.4098 6.40806 -18.332 111 255 144
-21.7245 8.13864 -20.3326 255 238 0
-21.9689 9.9949 -22.3789 202 0 0
-22.2537 11.8293 -24.5149 255 180 0
-20.8833 13.8992 -24.4944 211 255 44
-22.5076 13.6345 -26.6633 233 255 22
-22.7167 15.4494 -28.8895 255 141 0
-22.9154 17.329 -31.3278 255 251 0
-19.2245 19.0844 -26.9249 0 0 152
-19.1459 18.2569 -25.8134 0 0 152
-19.3097 19.956 -28.0886 0 0 197
-19.9092 18.7861 -27.994 0 0 241
-19.2245 19.0844 -26.9249 0 0 197
-19.321 20.8108 -29.1688 0 0 153
-19.3097 19.956 -28.0886 0 0 153
-24.1805 8.01831 -23.3035 0 0 148
-23.9281 7.0866 -22.1716 0 0 148
-23.4655 8.92893 -23.34 0 0 226
-24.3124 8.95248 -24.3351 0 0 187
-24.1805 8.01831 -23.3035 0 0 187
-25.1597 15.6331 -32.3787 0 0 154
-25.0876 14.5987 -31.0772 0 0 154
-24.4054 16.42 -32.3721 0 0 195
-25.1878 16.6227 -33.6066 0 0 152
-25.1597 15.6331 -32.3787 0 0 195
-20.592 -1.39609 -9.12017 0 0 145
-20.7635 -1.9637 -8.54271 0 0 128
-20.2766 -0.753791 -8.7361 0 0 145
-20.4912 -0.740105 -9.779 0 0 173
-20.9781 -1.95002 -9.5856 0 0 152
-20.592 -1.39609 -9.12017 0 0 152
-19.8213 1.83044 -11.2696 0 0 181
-19.3968 2.48646 -10.7505 0 0 158
-19.3639 3.12802 -11.4229 0 0 158
-20.2837 1.32847 -11.8113 0 0 154
-20.3166 0.686911 -11.1389 0 0 154
-19.8213 1.83044 -11.2696 0 0 177
-20.3408 2.00841 -12.5772 0 0 137
-20.2837 1.32847 -11.8113 0 0 137
-20.1766 7.8383 -17.6689 0 0 209
-19.5176 8.25497 -16.835 0 0 176
-19.6514 8.97782 -17.7114 0 0 176
-20.9904 14.8014 -25.5907 0 0 230
-20.2902 14.9944 -24.5732 0 0 190
-20.3972 15.8967 -25.6694 0 0 190
-22.1509 19.238 -32.4559 0 0 202
-22.9225 18.2615 -32.5062 0 0 202
-22.1437 18.3055 -31.2775 0 0 247
-21.3797 20.2149 -32.4711 0 0 157
-22.1509 19.238 -32.4559 0 0 157
-23.1219 7.08004 -21.2204 0 0 146
-23.9281 7.0866 -22.1716 0 0 146
-24.233 14.529 -29.9585 0 0 150
-25.0876 14.5987 -31.0772 0 0 150
-19.8394 0.577412 -8.96851 0 0 129
-20.2766 -0.753791 -8.7361 0 0 129
-19.3439 3.70385 -12.1219 0 0 133
-19.3639 3.12802 -11.4229 0 0 133
-19.3616 4.38433 -12.8498 0 0 159
-19.8062 3.15247 -12.6699 0 0 184
-19.3439 3.70385 -12.1219 0 0 159
-19.3026 5.15296 -13.5126 0 0 135
-19.3616 4.38433 -12.8498 0 0 135
-19.3336 5.97534 -14.3332 0 0 175
-19.8549 4.65534 -14.2185 0 0 207
-19.3026 5.15296 -13.5126 0 0 175
-19.7048 9.79917 -18.5771 0 0 146
-19.6514 8.97782 -17.7114 0 0 146
-19.7918 10.6671 -19.5121 0 0 188
-20.3975 9.42908 -19.4804 0 0 226
-19.7048 9.79917 -18.5771 0 0 188
-19.9175 11.4442 -20.485 0 0 147
-19.7918 10.6671 -19.5121 0 0 147
-20.0034 12.4133 -21.5353 0 0 189
-20.5705 11.2661 -21.4657 0 0 228
-19.9175 11.4442 -20.485 0 0 189
-19.7605 17.0021 -25.7411 0 0 154
-19.1459 18.2569 -25.8134 0 0 154
-20.4607 16.8091 -26.7586 0 0 232
-20.3972 15.8967 -25.6694 0 0 192
-19.7605 17.0021 -25.7411 0 0 192
-19.9938 20.5136 -30.2383 0 0 189
-20.6826 20.3258 -31.273 0 0 189
-20.6832 19.4699 -30.1925 0 0 229
-19.3204 21.6667 -30.2494 0 0 152
-19.9938 20.5136 -30.2383 0 0 195
-19.321 20.8108 -29.1688 0 0 195
-24.4779 9.92338 -25.4509 0 0 152
-24.3124 8.95248 -24.3351 0 0 152
-23.7679 10.7545 -25.4518 0 0 149
-24.4779 9.92338 -25.4509 0 0 149
-21.3999 -2.36587 -10.1135 0 0 130
-20.9781 -1.95002 -9.5856 0 0 130
-21.3794 -1.65362 -10.8438 0 0 134
-21.3999 -2.36587 -10.1135 0 0 134
-19.6669 1.10731 -9.51666 0 0 128
-19.8394 0.577412 -8.96851 0 0 128
-19.5414 1.79484 -10.1584 0 0 130
-19.3968 2.48646 -10.7505 0 0 130
-19.9796 0.501353 -9.95532 0 0 172
-19.6669 1.10731 -9.51666 0 0 151
-19.5414 1.79484 -10.1584 0 0 151
-20.8282 -0.554547 -10.9626 0 0 159
-20.3657 -0.052576 -10.4208 0 0 184
-20.3166 0.686911 -11.1389 0 0 159
-21.3794 -1.65362 -10.8438 0 0 134
-20.8282 -0.554547 -10.9626 0 0 134
-20.3585 2.68889 -13.3051 0 0 162
-20.3408 2.00841 -12.5772 0 0 162
-19.8062 3.15247 -12.6699 0 0 188
-20.898 2.37539 -13.9748 0 0 165
-20.3585 2.68889 -13.3051 0 0 165
-20.3634 3.51946 -14.0674 0 0 192
-21.5063 2.11858 -14.6691 0 0 138
-20.898 2.37539 -13.9748 0 0 138
-21.6382 2.9099 -15.5366 0 0 143
-21.5063 2.11858 -14.6691 0 0 143
-21.7938 3.66297 -16.4409 0 0 175
-21.6382 2.9099 -15.5366 0 0 175
-21.0584 3.95902 -15.6414 0 0 208
-21.9569 4.54305 -17.4168 0 0 146
-21.7938 3.66297 -16.4409 0 0 146
-19.384 6.66461 -15.1239 0 0 168
-19.3336 5.97534 -14.3332 0 0 168
-18.8317 7.16224 -14.4181 0 0 139
-19.4624 7.48348 -16.0006 0 0 141
-19.5176 8.25497 -16.835 0 0 141
-19.9644 6.29659 -15.9158 0 0 207
-19.384 6.66461 -15.1239 0 0 175
-19.4624 7.48348 -16.0006 0 0 175
-22.0548 5.39104 -18.31 0 0 178
-21.9569 4.54305 -17.4168 0 0 178
-21.3119 5.56007 -17.4389 0 0 212
-22.1601 6.28669 -19.2322 0 0 145
-22.0548 5.39104 -18.31 0 0 145
-22.3174 7.15198 -20.2325 0 0 180
-22.1601 6.28669 -19.2322 0 0 180
-21.5672 7.27335 -19.3323 0 0 215
-22.529 8.0667 -21.3205 0 0 226
-23.1219 7.08004 -21.2204 0 0 187
-22.3174 7.15198 -20.2325 0 0 187
-23.096 11.7377 -25.5234 0 0 190
-23.7679 10.7545 -25.4518 0 0 190
-22.9255 10.8462 -24.4432 0 0 230
-20.0574 13.3068 -22.5026 0 0 147
-20.0034 12.4133 -21.5353 0 0 147
-20.1709 14.1389 -23.4919 0 0 150
-20.2902 14.9944 -24.5732 0 0 150
-20.7699 13.0672 -23.5052 0 0 223
-20.0574 13.3068 -22.5026 0 0 185
-20.1709 14.1389 -23.4919 0 0 185
-23.223 12.6403 -26.5977 0 0 192
-23.096 11.7377 -25.5234 0 0 192
-22.3807 12.7319 -25.5891 0 0 232
-23.2982 13.631 -27.7181 0 0 152
-23.223 12.6403 -26.5977 0 0 152
-23.4028 14.5385 -28.8312 0 0 188
-23.2982 13.631 -27.7181 0 0 188
-22.6122 14.542 -27.7764 0 0 227
-23.547 15.4399 -30.0168 0 0 235
-24.233 14.529 -29.9585 0 0 193
-23.4028 14.5385 -28.8312 0 0 193
-23.6745 17.3693 -32.4639 0 0 197
-24.4054 16.42 -32.3721 0 0 197
-23.6463 16.3797 -31.236 0 0 241
-23.6745 17.3693 -32.4639 0 0 152
-22.9225 18.2615 -32.5062 0 0 152
-21.3797 20.2149 -32.4711 0 0 155
-20.6826 20.3258 -31.273 0 0 155
3 28 11 29
3 30 13 31
3 32 31 11
3 30 31 32
3 34 33 13
3 0 35 36
3 0 37 39
3 37 14 38
3 37 38 39
3 1 40 41
3 1 42 44
3 42 43 44
3 2 45 47
3 45 46 47
3 2 48 50
3 48 15 49
3 48 49 50
3 3 51 53
3 51 16 52
3 51 52 53
3 3 54 56
3 56 55 16
3 54 55 56
3 3 57 58
3 4 17 9
3 4 18 17
3 5 59 61
3 59 19 60
3 59 60 61
3 5 20 19
3 5 21 20
3 6 22 10
3 6 23 22
3 7 62 64
3 62 24 63
3 62 63 64
3 7 25 24
3 7 26 25
3 8 27 12
3 8 65 67
3 67 66 27
3 65 66 67
3 8 68 69
3 70 0 71
3 72 1 73
3 74 2 75
3 76 3 77
3 78 9 79
3 80 79 3
3 78 79 80
3 81 9 82
3 83 4 84
3 85 84 9
3 83 84 85
3 86 5 87
3 88 10 89
3 90 89 5
3 88 89 90
3 91 10 92
3 93 6 94
3 95 94 10
3 93 94 95
3 11 96 97
3 11 98 100
3 98 7 99
3 98 99 100
3 11 12 7
3 13 12 11
3 13 8 12
3 13 101 103
3 103 102 8
3 101 102 103
3 106 105 13
3 104 105 106
3 14 107 108
3 14 109 110
3 15 111 112
3 15 113 114
3 115 2 116
3 16 117 118
3 16 119 121
3 119 2 120
3 119 120 121
3 16 15 2
3 122 15 123
3 124 123 16
3 122 123 124
3 126 125 15
3 9 127 129
3 129 128 3
3 127 128 129
3 17 130 132
3 132 131 9
3 130 131 132
3 17 133 134
3 17 135 136
3 18 137 139
3 139 138 17
3 137 138 139
3 18 140 141
3 142 4 143
3 142 143 144
3 19 145 146
3 19 147 149
3 147 4 148
3 147 148 149
3 19 18 4
3 20 18 19
3 20 150 152
3 152 151 18
3 150 151 152
3 20 153 154
3 21 155 157
3 157 156 20
3 155 156 157
3 21 158 160
3 158 0 159
3 158 159 160
3 10 21 5
3 22 21 10
3 22 0 21
3 22 14 0
3 23 14 22
3 23 161 163
3 163 162 14
3 161 162 163
3 164 6 165
3 24 166 167
3 24 168 170
3 168 6 169
3 168 169 170
3 24 23 6
3 25 23 24
3 25 171 173
3 173 172 23
3 171 172 173
3 25 174 175
3 26 176 178
3 178 177 25
3 176 177 178
3 26 179 181
3 179 1 180
3 179 180 181
3 12 26 7
3 27 26 12
3 27 1 26
3 27 182 184
3 184 183 1
3 182 183 184
3 186 185 27
3 188 187 8
