ply
format ascii 1.0
element vertex 218
property float x
property float y
property float z
property uchar red
property uchar green
property uchar blue
element face 210
property list uchar int vertex_index
end_header
-8.73667 93.1613 -27.0751 203 255 52
-10.4816 85.3926 -33.2293 255 79 0
-3.70389 82.725 -41.2633 32 255 223
-1.48554 93.4306 -36.8704 255 166 0
-9.89859 89.5082 -30.7242 255 35 0
-6.40297 89.5942 -35.379 255 13 0
-5.4125 93.887 -32.055 154 0 0
-13.4719 84.8287 -28.69 0 220 255
-10.5479 80.5118 -34.9704 187 255 68
-7.38343 79.2834 -38.8651 255 106 0
-7.17483 84.7257 -37.4737 255 40 0
-2.7261 88.3567 -39.5678 207 255 48
-13.3092 80.7547 -30.8969 0 218 255
-3.75002 97.4485 -27.9597 255 161 0
-0.051842 97.706 -33.1012 251 255 4
-9.51215 91.3563 -28.9062 255 218 0
-7.77494 91.8173 -31.36 218 0 0
-7.14331 93.6678 -29.5689 194 0 0
-11.3646 89.2695 -28.196 20 255 235
-10.5076 83.1424 -34.2557 255 94 0
-8.98012 82.5955 -36.3275 255 68 0
-8.74971 85.2672 -35.4988 255 51 0
-4.08027 91.5176 -36.203 216 0 0
-4.65144 89.1196 -37.484 252 0 0
-2.30256 91.0076 -38.1935 184 255 71
-12.0273 85.3559 -30.9249 255 123 0
-13.4825 82.9549 -29.8255 61 255 194
-12.1108 83.1213 -32.0011 255 134 0
-11.9231 80.9134 -32.9876 70 255 185
-4.628 97.886 -23.1781 0 252 255
-5.59032 80.9948 -40.2081 233 255 22
-5.78726 78.2673 -40.5737 92 255 163
-2.0425 97.6954 -30.5288 247 255 8
-10.2231 87.5887 -32.0792 255 75 0
-8.60888 87.6268 -34.2548 255 30 0
-8.07681 89.9028 -33.0682 255 20 0
-5.91828 91.8319 -33.9027 205 0 0
-3.46289 93.8249 -34.5486 146 0 0
-11.8273 87.3089 -29.6473 213 255 42
-10.3576 78.0543 -35.5817 0 233 255
-8.82352 77.3891 -37.5486 79 255 176
-8.94288 80.0848 -37.0207 255 102 0
-7.20315 82.1178 -38.3895 255 49 0
-5.33971 83.9584 -39.5158 255 37 0
-6.78022 87.2778 -36.5708 255 28 0
-5.01459 86.5434 -38.6654 247 0 0
-3.21518 85.4681 -40.6321 165 255 90
-7.84529 94.7119 -25.1178 71 255 184
-6.26274 95.4005 -27.6624 203 0 0
-5.59884 96.6714 -25.4483 255 160 0
-2.83735 98.7962 -25.8057 117 255 138
-7.34441 76.4716 -39.2791 82 255 173
-5.88798 75.2679 -40.8633 0 139 255
-4.65816 95.7812 -30.0642 165 0 0
-2.8501 95.8782 -32.5773 128 0 0
-0.983322 95.6506 -34.9659 143 0 0
1.75701 97.1976 -35.5415 109 255 146
1.0037 95.0311 -37.3473 112 255 143
-9.86448 91.9762 -26.7303 0 0 138
-9.47885 92.7677 -25.8048 0 0 138
-9.12441 92.2588 -27.9906 0 0 220
-10.2522 91.0737 -27.6458 0 0 179
-9.86448 91.9762 -26.7303 0 0 179
-0.654705 92.9159 -37.9531 0 0 177
-1.06321 91.7044 -38.6146 0 0 177
-1.89405 92.2191 -37.5319 0 0 216
-3.79295 81.2602 -41.5745 0 0 171
-4.73616 80.3951 -41.0469 0 0 171
-4.64711 81.8599 -40.7357 0 0 207
-1.79809 87.7037 -40.5573 0 0 183
-2.04263 86.2594 -41.0895 0 0 183
-2.97064 86.9124 -40.0999 0 0 225
-14.1196 83.6229 -28.1765 0 0 128
-14.0877 84.5635 -27.5697 0 0 128
-13.9754 80.5066 -29.8138 0 0 164
-14.0621 81.6067 -29.2781 0 0 164
-13.3958 81.8548 -30.3612 0 0 197
-13.7947 79.5211 -30.2788 0 0 128
-13.9754 80.5066 -29.8138 0 0 128
-13.1688 79.5517 -31.3 0 0 129
-13.7947 79.5211 -30.2788 0 0 129
-11.1315 79.4802 -34.3244 0 0 159
-11.819 79.681 -33.333 0 0 159
-11.2355 80.7126 -33.979 0 0 189
-10.4528 79.283 -35.2761 0 0 186
-11.0363 78.2515 -34.63 0 0 157
-11.1315 79.4802 -34.3244 0 0 157
-6.43581 96.1805 -24.0995 0 0 178
-6.72206 95.6916 -25.283 0 0 218
-7.55904 95.2008 -23.9343 0 0 178
-2.36049 99.3692 -24.5718 0 0 191
-3.73267 98.3411 -24.4919 0 0 238
-3.25582 98.9141 -23.258 0 0 191
-1.5639 99.6832 -25.8618 0 0 140
-2.36049 99.3692 -24.5718 0 0 140
-7.55904 95.2008 -23.9343 0 0 139
-8.67896 94.1387 -23.7658 0 0 139
-5.08303 76.1135 -41.4706 0 0 165
-5.83762 76.7676 -40.7185 0 0 198
-5.03267 77.6132 -41.3258 0 0 165
-5.10736 74.5795 -41.6418 0 0 133
-5.08303 76.1135 -41.4706 0 0 133
2.79013 96.8799 -36.6542 0 0 185
3.11773 97.9384 -35.6516 0 0 185
4.15084 97.6208 -36.7644 0 0 141
2.41347 95.7967 -37.5571 0 0 185
1.38035 96.1143 -36.4444 0 0 229
2.79013 96.8799 -36.6542 0 0 185
1.93216 94.5036 -38.445 0 0 145
2.41347 95.7967 -37.5571 0 0 145
-11.1784 90.0303 -27.2907 0 0 134
-12.1267 88.819 -26.9827 0 0 134
-10.4384 90.3129 -28.5511 0 0 200
-11.1784 90.0303 -27.2907 0 0 166
-10.2522 91.0737 -27.6458 0 0 166
-1.36298 90.4424 -39.2637 0 0 180
-1.57475 89.117 -39.9509 0 0 180
-2.51433 89.6822 -38.8806 0 0 221
-1.36298 90.4424 -39.2637 0 0 139
-1.06321 91.7044 -38.6146 0 0 139
-5.42236 97.3291 -21.8187 0 0 144
-5.9504 96.7878 -22.9644 0 0 144
-4.12528 98.3711 -21.9828 0 0 143
-5.42236 97.3291 -21.8187 0 0 143
-2.7531 99.3993 -22.0627 0 0 143
-3.25582 98.9141 -23.258 0 0 188
-4.12528 98.3711 -21.9828 0 0 188
-4.83463 79.0313 -41.2298 0 0 167
-5.68879 79.631 -40.3909 0 0 202
-4.73616 80.3951 -41.0469 0 0 167
-5.03267 77.6132 -41.3258 0 0 132
-4.83463 79.0313 -41.2298 0 0 132
-1.57656 98.4978 -29.4376 0 0 184
-2.89626 97.5719 -29.2442 0 0 227
-2.43033 98.3743 -28.153 0 0 184
-0.657814 98.5789 -30.7224 0 0 142
-1.57656 98.4978 -29.4376 0 0 142
0.337515 98.5842 -32.0086 0 0 189
-1.04717 97.7007 -31.815 0 0 235
-0.657814 98.5789 -30.7224 0 0 189
-13.3714 85.766 -27.9823 0 0 129
-14.0877 84.5635 -27.5697 0 0 129
-12.3178 87.9864 -27.7353 0 0 134
-12.1267 88.819 -26.9827 0 0 134
-12.5492 87.0061 -28.461 0 0 171
-12.3178 87.9864 -27.7353 0 0 171
-11.596 88.2892 -28.9217 0 0 208
-12.6496 86.0688 -29.1687 0 0 201
-13.3714 85.766 -27.9823 0 0 166
-12.5492 87.0061 -28.461 0 0 166
-2.78352 82.0197 -42.1121 0 0 139
-2.53293 83.4869 -41.8251 0 0 139
-9.59056 77.7217 -36.5651 0 0 194
-9.4406 76.445 -36.8093 0 0 162
-10.2076 76.7776 -35.8258 0 0 162
-2.28857 84.8585 -41.5095 0 0 175
-2.53293 83.4869 -41.8251 0 0 175
-3.45954 84.0965 -40.9477 0 0 214
-2.28857 84.8585 -41.5095 0 0 137
-2.04263 86.2594 -41.0895 0 0 137
-1.79809 87.7037 -40.5573 0 0 139
-1.57475 89.117 -39.9509 0 0 139
-14.1249 82.686 -28.7443 0 0 156
-14.1196 83.6229 -28.1765 0 0 156
-13.4772 83.8918 -29.2578 0 0 185
-14.1249 82.686 -28.7443 0 0 130
-14.0621 81.6067 -29.2781 0 0 130
-12.4757 79.6311 -32.3454 0 0 164
-13.1688 79.5517 -31.3 0 0 164
-12.6161 80.834 -31.9423 0 0 197
-12.4757 79.6311 -32.3454 0 0 130
-11.819 79.681 -33.333 0 0 130
-10.8828 76.9697 -34.8804 0 0 129
-11.0363 78.2515 -34.63 0 0 129
-10.2076 76.7776 -35.8258 0 0 129
-10.8828 76.9697 -34.8804 0 0 129
-5.11342 97.2787 -24.3132 0 0 234
-6.43581 96.1805 -24.0995 0 0 189
-5.9504 96.7878 -22.9644 0 0 189
-1.97399 99.0482 -27.0761 0 0 181
-2.43033 98.3743 -28.153 0 0 181
-3.29368 98.1224 -26.8827 0 0 222
-1.97399 99.0482 -27.0761 0 0 140
-1.5639 99.6832 -25.8618 0 0 140
-9.03316 93.543 -24.8261 0 0 183
-9.86684 92.9698 -23.4741 0 0 140
-8.67896 94.1387 -23.7658 0 0 183
-8.29098 93.9366 -26.0965 0 0 221
-9.47885 92.7677 -25.8048 0 0 180
-9.03316 93.543 -24.8261 0 0 180
-8.77849 76.0406 -37.6694 0 0 128
-9.4406 76.445 -36.8093 0 0 128
-8.03894 75.5819 -38.5346 0 0 161
-8.77849 76.0406 -37.6694 0 0 161
-8.08396 76.9304 -38.4138 0 0 193
-7.34615 75.0259 -39.3691 0 0 131
-8.03894 75.5819 -38.5346 0 0 131
-6.61794 74.424 -40.1612 0 0 163
-7.34615 75.0259 -39.3691 0 0 163
-6.6162 75.8698 -40.0712 0 0 195
-5.91982 73.9062 -40.938 0 0 128
-6.61794 74.424 -40.1612 0 0 128
-5.91982 73.9062 -40.938 0 0 130
-5.10736 74.5795 -41.6418 0 0 130
-3.79295 81.2602 -41.5745 0 0 136
-2.78352 82.0197 -42.1121 0 0 136
1.27331 98.4631 -33.2811 0 0 141
0.337515 98.5842 -32.0086 0 0 141
2.17774 98.2089 -34.5012 0 0 141
3.11773 97.9384 -35.6516 0 0 141
0.852584 97.4518 -34.3214 0 0 227
1.27331 98.4631 -33.2811 0 0 184
2.17774 98.2089 -34.5012 0 0 184
0.589916 93.7162 -38.1915 0 0 183
-0.654705 92.9159 -37.9531 0 0 183
-0.240921 94.2309 -37.1088 0 0 226
0.589916 93.7162 -38.1915 0 0 144
1.93216 94.5036 -38.445 0 0 144
3 0 17 15
3 0 58 59
3 0 60 62
3 60 15 61
3 60 61 62
3 1 21 19
3 3 24 22
3 3 63 65
3 65 64 24
3 63 64 65
3 1 27 25
3 1 19 27
3 2 66 68
3 68 67 30
3 66 67 68
3 4 35 33
3 6 36 16
3 6 37 36
3 4 38 18
3 4 33 38
3 8 41 39
3 10 42 20
3 10 43 42
3 5 44 34
3 11 45 23
3 11 46 45
3 11 69 71
3 71 70 46
3 69 70 71
3 7 72 73
3 12 74 76
3 76 75 26
3 74 75 76
3 12 77 78
3 12 79 80
3 8 81 83
3 83 82 28
3 81 82 83
3 8 84 86
3 84 39 85
3 84 85 86
3 87 49 88
3 89 88 47
3 87 88 89
3 90 50 91
3 92 91 29
3 90 91 92
3 94 93 50
3 95 47 96
3 9 51 40
3 97 52 98
3 99 98 31
3 97 98 99
3 101 100 52
3 13 53 48
3 14 54 32
3 14 55 54
3 102 56 103
3 102 103 104
3 105 57 106
3 107 106 56
3 105 106 107
3 109 108 57
3 15 16 4
3 17 16 15
3 17 6 16
3 110 18 111
3 15 112 114
3 112 18 113
3 112 113 114
3 15 4 18
3 19 20 8
3 21 20 19
3 21 10 20
3 22 23 5
3 24 23 22
3 24 11 23
3 24 115 117
3 117 116 11
3 115 116 117
3 119 118 24
3 25 26 7
3 27 26 25
3 27 12 26
3 27 28 12
3 19 28 27
3 19 8 28
3 120 29 121
3 122 29 123
3 126 125 29
3 124 125 126
3 30 31 9
3 127 31 128
3 129 128 30
3 127 128 129
3 131 130 31
3 132 32 133
3 134 133 13
3 132 133 134
3 135 32 136
3 137 14 138
3 139 138 32
3 137 138 139
3 33 34 1
3 35 34 33
3 35 5 34
3 16 35 4
3 36 35 16
3 36 5 35
3 36 22 5
3 37 22 36
3 37 3 22
3 140 7 141
3 18 142 143
3 38 144 146
3 146 145 18
3 144 145 146
3 38 147 149
3 147 7 148
3 147 148 149
3 38 25 7
3 33 25 38
3 33 1 25
3 151 150 2
3 39 152 154
3 152 40 153
3 152 153 154
3 41 40 39
3 41 9 40
3 20 41 8
3 42 41 20
3 42 9 41
3 42 30 9
3 43 30 42
3 43 2 30
3 34 21 1
3 44 21 34
3 44 10 21
3 23 44 5
3 45 44 23
3 45 10 44
3 45 43 10
3 46 43 45
3 46 2 43
3 46 155 157
3 157 156 2
3 155 156 157
3 159 158 46
3 161 160 11
3 26 162 164
3 164 163 7
3 162 163 164
3 166 165 26
3 28 167 169
3 169 168 12
3 167 168 169
3 171 170 28
3 39 172 173
3 39 174 175
3 47 48 0
3 49 48 47
3 49 13 48
3 29 176 178
3 176 49 177
3 176 177 178
3 50 49 29
3 50 13 49
3 50 179 181
3 181 180 13
3 179 180 181
3 183 182 50
3 47 184 186
3 184 185 186
3 47 187 189
3 187 0 188
3 187 188 189
3 40 190 191
3 51 192 194
3 194 193 40
3 192 193 194
3 51 195 196
3 31 51 9
3 52 51 31
3 52 197 199
3 199 198 51
3 197 198 199
3 52 200 201
3 203 202 52
3 205 204 2
3 48 17 0
3 53 17 48
3 53 6 17
3 32 53 13
3 54 53 32
3 54 6 53
3 54 37 6
3 55 37 54
3 55 3 37
3 206 14 207
3 56 208 209
3 56 210 212
3 210 14 211
3 210 211 212
3 56 55 14
3 57 55 56
3 57 3 55
3 57 213 215
3 215 214 3
3 213 214 215
3 217 216 57
