ply
format ascii 1.0
element vertex 167
property float x
property float y
property float z
property uchar red
property uchar green
property uchar blue
element face 146
property list uchar int vertex_index
end_header
-1.92954 45.2421 45.4384 255 188 0
-9.64012 38.5568 43.5941 152 255 103
5.76894 52.7869 46.534 94 255 161
-5.9264 41.6236 44.7074 153 255 102
1.89961 48.9045 45.999 255 142 0
-6.76534 35.3254 46.9705 251 0 0
-2.85163 38.5789 47.9368 255 219 0
1.01459 41.8865 48.7521 184 255 71
4.94045 45.6132 49.4863 246 255 9
-3.88463 43.4201 45.1252 184 255 71
-1.55773 48.4654 44.0945 86 255 169
0.408483 50.5251 44.2664 93 255 162
0.069624 47.0786 45.7638 183 0 0
-11.4996 36.8906 42.8902 30 255 225
-7.11304 32.1935 48.012 22 255 233
-5.26734 33.7147 48.5601 158 255 97
-4.74219 36.9605 47.5221 242 0 0
-3.25273 35.4713 49.0335 41 255 214
2.94189 43.6332 49.1393 212 255 43
-7.77784 40.2968 44.1149 165 255 90
3.91534 50.5993 46.4334 227 255 28
-11.7545 33.9145 43.9586 0 163 255
-10.0175 35.4383 44.6863 249 255 6
-8.59934 33.7404 46.4071 146 255 109
-8.2701 37.0117 45.2587 251 0 0
-6.29335 38.5079 45.8935 239 0 0
-4.41467 40.2615 46.2611 239 0 0
-2.38323 41.8106 46.7635 212 0 0
-0.471351 43.6794 47.0395 214 0 0
-0.85981 40.2524 48.3658 189 255 66
1.41974 45.1047 47.5211 182 0 0
3.37764 47.1419 47.7754 128 0 0
5.38012 49.212 48.062 136 0 0
6.80977 47.2365 49.9432 116 255 139
7.22499 51.0762 48.3648 119 255 136
-2.73048 46.0301 44.5707 0 0 179
-3.70803 45.119 44.4141 0 0 179
-2.90708 44.3311 45.2818 0 0 221
-1.74364 46.8538 44.7665 0 0 216
-2.54458 47.6417 43.8988 0 0 175
-2.73048 46.0301 44.5707 0 0 175
-10.3576 39.2526 42.7054 0 0 169
-11.2873 38.4195 42.3534 0 0 169
-10.5699 37.7237 43.2422 0 0 207
6.01377 54.4675 45.8011 0 0 134
5.05642 53.5735 45.6517 0 0 134
6.73231 53.7971 46.6467 0 0 134
6.01377 54.4675 45.8011 0 0 134
-4.48072 33.0425 49.2966 0 0 130
-5.4295 32.1596 49.0712 0 0 130
-3.47341 33.9208 49.5333 0 0 169
-4.26004 34.593 48.7968 0 0 207
-4.48072 33.0425 49.2966 0 0 169
-2.49473 34.5826 49.8384 0 0 131
-3.47341 33.9208 49.5333 0 0 131
-6.58079 42.4918 43.8636 0 0 165
-7.50651 41.8284 43.5673 0 0 165
-6.85212 40.9602 44.4112 0 0 201
2.17916 50.6738 45.2821 0 0 182
1.4336 51.4842 44.4158 0 0 182
1.15405 49.7148 45.1327 0 0 226
2.90747 49.7519 46.2162 0 0 228
3.18703 51.5213 45.4993 0 0 183
2.17916 50.6738 45.2821 0 0 183
-11.1024 33.1845 44.767 0 0 128
-11.9648 32.3957 44.3824 0 0 128
-10.2339 33.9463 45.1309 0 0 161
-10.886 34.6764 44.3224 0 0 195
-11.1024 33.1845 44.767 0 0 161
7.70252 48.1831 50.0885 0 0 136
7.4772 46.264 50.8405 0 0 136
7.91013 50.103 49.2993 0 0 182
7.01738 49.1564 49.154 0 0 226
7.70252 48.1831 50.0885 0 0 182
8.16975 52.0112 48.5272 0 0 139
7.91013 50.103 49.2993 0 0 139
-4.59647 44.1701 44.3245 0 0 173
-5.61735 43.2718 44.1156 0 0 173
-4.90552 42.5218 44.9163 0 0 214
-4.59647 44.1701 44.3245 0 0 131
-3.70803 45.119 44.4141 0 0 131
-2.31044 49.3016 43.1944 0 0 135
-2.54458 47.6417 43.8988 0 0 135
-1.36296 50.1234 43.3596 0 0 134
-2.31044 49.3016 43.1944 0 0 134
-0.574624 49.4953 44.1804 0 0 217
-0.379858 51.1532 43.4456 0 0 176
-1.36296 50.1234 43.3596 0 0 176
-12.1388 37.6112 42.0005 0 0 128
-12.3708 36.1232 42.471 0 0 128
-12.1388 37.6112 42.0005 0 0 129
-11.2873 38.4195 42.3534 0 0 129
-6.35234 31.399 48.7971 0 0 128
-7.26043 30.7052 48.4769 0 0 128
-6.19019 32.9541 48.286 0 0 203
-6.35234 31.399 48.7971 0 0 166
-5.4295 32.1596 49.0712 0 0 166
-2.23402 36.2417 49.3025 0 0 173
-2.03347 37.7956 48.7541 0 0 173
-3.05218 37.0251 48.4851 0 0 212
-2.23402 36.2417 49.3025 0 0 134
-2.49473 34.5826 49.8384 0 0 134
2.78457 41.9014 49.8201 0 0 179
1.97824 42.7599 48.9457 0 0 223
1.82092 41.028 49.6265 0 0 179
3.66335 42.7892 49.9734 0 0 132
2.78457 41.9014 49.8201 0 0 132
4.66263 43.7791 50.147 0 0 182
3.94117 44.6232 49.3128 0 0 226
3.66335 42.7892 49.9734 0 0 182
-8.45957 41.0112 43.291 0 0 168
-9.39071 40.1412 43.0307 0 0 168
-8.70898 39.4268 43.8545 0 0 205
-8.45957 41.0112 43.291 0 0 130
-7.50651 41.8284 43.5673 0 0 130
-6.58079 42.4918 43.8636 0 0 132
-5.61735 43.2718 44.1156 0 0 132
0.630769 52.2046 43.5214 0 0 135
-0.379858 51.1532 43.4456 0 0 135
0.630769 52.2046 43.5214 0 0 137
1.4336 51.4842 44.4158 0 0 137
4.12962 52.4796 45.6014 0 0 138
3.18703 51.5213 45.4993 0 0 138
4.84214 51.6931 46.4837 0 0 226
5.05642 53.5735 45.6517 0 0 182
4.12962 52.4796 45.6014 0 0 182
-10.3576 39.2526 42.7054 0 0 133
-9.39071 40.1412 43.0307 0 0 133
-12.6389 33.1919 43.4841 0 0 130
-11.9648 32.3957 44.3824 0 0 130
-12.4983 34.6352 43.0052 0 0 130
-12.6389 33.1919 43.4841 0 0 130
-11.627 35.4025 43.4244 0 0 205
-12.3708 36.1232 42.471 0 0 168
-12.4983 34.6352 43.0052 0 0 168
-8.05889 31.526 47.6282 0 0 130
-7.26043 30.7052 48.4769 0 0 130
-8.80204 32.2994 46.8258 0 0 163
-8.05889 31.526 47.6282 0 0 163
-7.85619 32.967 47.2096 0 0 198
-9.52483 33.0974 45.9913 0 0 128
-8.80204 32.2994 46.8258 0 0 128
-9.30843 34.5893 45.5467 0 0 202
-10.2339 33.9463 45.1309 0 0 166
-9.52483 33.0974 45.9913 0 0 166
-1.03756 38.6323 48.9687 0 0 175
-1.85572 39.4157 48.1513 0 0 215
-2.03347 37.7956 48.7541 0 0 175
-0.084396 39.3808 49.2089 0 0 132
-1.03756 38.6323 48.9687 0 0 132
0.852801 40.1978 49.402 0 0 174
0.077388 41.0694 48.5589 0 0 215
-0.084396 39.3808 49.2089 0 0 174
1.82092 41.028 49.6265 0 0 135
0.852801 40.1978 49.402 0 0 135
5.60335 44.5561 50.4013 0 0 136
4.66263 43.7791 50.147 0 0 136
6.53801 45.3678 50.6297 0 0 137
7.4772 46.264 50.8405 0 0 137
5.87511 46.4249 49.7148 0 0 224
5.60335 44.5561 50.4013 0 0 181
6.53801 45.3678 50.6297 0 0 181
7.46034 52.9417 47.5621 0 0 184
6.73231 53.7971 46.6467 0 0 184
6.49696 51.9316 47.4494 0 0 230
7.46034 52.9417 47.5621 0 0 139
8.16975 52.0112 48.5272 0 0 139
3 0 35 37
3 37 36 9
3 35 36 37
3 0 38 40
3 38 10 39
3 38 39 40
3 0 12 10
3 1 41 43
3 43 42 13
3 41 42 43
3 2 44 45
3 2 46 47
3 48 15 49
3 50 17 51
3 52 51 15
3 50 51 52
3 54 53 17
3 3 55 57
3 57 56 19
3 55 56 57
3 4 58 60
3 60 59 11
3 58 59 60
3 4 61 63
3 61 20 62
3 61 62 63
3 64 21 65
3 66 22 67
3 68 67 21
3 66 67 68
3 5 23 14
3 5 24 23
3 5 25 24
3 6 26 16
3 6 27 26
3 6 29 27
3 7 30 28
3 8 31 18
3 8 32 31
3 69 33 70
3 71 34 72
3 73 72 33
3 71 72 73
3 75 74 34
3 9 76 78
3 78 77 3
3 76 77 78
3 80 79 9
3 10 81 82
3 10 83 84
3 10 85 87
3 85 11 86
3 85 86 87
3 12 11 10
3 12 4 11
3 13 88 89
3 91 90 13
3 92 14 93
3 15 94 96
3 94 14 95
3 94 95 96
3 15 5 14
3 15 16 5
3 17 16 15
3 17 6 16
3 17 97 99
3 99 98 6
3 97 98 99
3 101 100 17
3 102 18 103
3 104 103 7
3 102 103 104
3 105 18 106
3 107 8 108
3 109 108 18
3 107 108 109
3 19 110 112
3 112 111 1
3 110 111 112
3 114 113 19
3 116 115 3
3 11 117 118
3 120 119 11
3 20 121 122
3 20 123 125
3 123 2 124
3 123 124 125
3 127 126 1
3 21 128 129
3 21 130 131
3 21 132 134
3 132 13 133
3 132 133 134
3 22 13 21
3 22 1 13
3 14 135 136
3 23 137 139
3 139 138 14
3 137 138 139
3 23 140 141
3 23 142 144
3 142 22 143
3 142 143 144
3 24 22 23
3 24 1 22
3 24 19 1
3 25 19 24
3 25 3 19
3 16 25 5
3 26 25 16
3 26 3 25
3 26 9 3
3 27 9 26
3 27 0 9
3 27 28 0
3 29 28 27
3 29 7 28
3 145 29 146
3 147 146 6
3 145 146 147
3 148 29 149
3 150 7 151
3 152 151 29
3 150 151 152
3 154 153 7
3 28 12 0
3 30 12 28
3 30 4 12
3 18 30 7
3 31 30 18
3 31 4 30
3 31 20 4
3 32 20 31
3 32 2 20
3 155 8 156
3 33 157 158
3 33 159 161
3 159 8 160
3 159 160 161
3 33 32 8
3 34 32 33
3 34 2 32
3 34 162 164
3 164 163 2
3 162 163 164
3 166 165 34
