ply
format ascii 1.0
element vertex 108
property float x
property float y
property float z
property uchar red
property uchar green
property uchar blue
element face 84
property list uchar int vertex_index
end_header
-31.9606 28.6059 -5.78777 0 56 255
-26.8163 27.3964 -8.04261 128 0 0
-24.0715 29.7121 -9.03752 146 255 109
-29.2222 31.0457 -7.11981 174 255 81
-26.7738 30.5369 -8.19441 234 255 21
-25.4804 28.7406 -8.53835 255 117 0
-29.5913 28.0872 -7.07804 192 255 63
-30.6402 29.8007 -6.46002 0 189 255
-26.888 24.2155 -7.75043 130 255 125
-25.4479 25.2727 -8.24427 255 248 0
-24.1597 26.3127 -8.69645 255 233 0
-22.7228 27.4764 -9.22236 0 254 255
-21.5416 28.8837 -9.74062 0 108 255
-28.2349 26.293 -7.52893 237 255 18
-28.181 29.2772 -7.65054 181 0 0
-27.9441 32.4661 -7.66715 82 255 173
-26.0739 31.2587 -8.46741 0 0 140
-26.6821 32.206 -8.22234 0 0 140
-31.4729 27.7161 -6.13076 0 0 133
-32.1669 27.202 -5.79199 0 0 133
-31.3004 29.2033 -6.1239 0 0 211
-30.8127 28.3135 -6.46689 0 0 173
-31.4729 27.7161 -6.13076 0 0 173
-23.461 30.3705 -9.28546 0 0 185
-22.7866 29.2526 -9.37788 0 0 185
-23.3971 28.5942 -9.12994 0 0 230
-29.0019 25.7426 -7.23478 0 0 142
-28.3544 24.6853 -7.35575 0 0 142
-20.9463 29.4733 -10.0191 0 0 139
-21.561 30.6474 -9.92141 0 0 139
-25.4272 30.3606 -8.63938 0 0 184
-26.1271 29.6387 -8.36638 0 0 228
-26.0739 31.2587 -8.46741 0 0 184
-24.7227 30.8464 -8.88897 0 0 185
-24.7759 29.2263 -8.78794 0 0 229
-25.4272 30.3606 -8.63938 0 0 185
-24.0923 31.5503 -9.15096 0 0 143
-24.7227 30.8464 -8.88897 0 0 143
-30.2882 27.4568 -6.77589 0 0 135
-29.68 26.6397 -7.00933 0 0 135
-30.1157 28.944 -6.76903 0 0 214
-30.2882 27.4568 -6.77589 0 0 174
-30.8127 28.3135 -6.46689 0 0 174
-32.5872 28.0186 -5.43618 0 0 130
-32.1669 27.202 -5.79199 0 0 130
-26.199 23.1405 -7.79962 0 0 142
-26.9473 22.6096 -7.53675 0 0 142
-25.4789 23.6691 -8.04654 0 0 185
-26.199 23.1405 -7.79962 0 0 185
-26.1679 24.7441 -7.99735 0 0 231
-24.7682 24.1203 -8.28336 0 0 140
-25.4789 23.6691 -8.04654 0 0 140
-24.1241 24.6403 -8.50945 0 0 182
-24.7682 24.1203 -8.28336 0 0 182
-24.8038 25.7927 -8.47036 0 0 225
-23.4493 25.2832 -8.76772 0 0 141
-24.1241 24.6403 -8.50945 0 0 141
-22.7309 25.865 -9.03068 0 0 187
-23.4493 25.2832 -8.76772 0 0 187
-23.4413 26.8945 -8.9594 0 0 233
-22.0608 26.3645 -9.28697 0 0 138
-22.7309 25.865 -9.03068 0 0 138
-22.1322 28.18 -9.48149 0 0 230
-21.4702 27.0681 -9.5461 0 0 185
-22.0608 26.3645 -9.28697 0 0 185
-22.196 29.9563 -9.63701 0 0 183
-22.1322 28.18 -9.48149 0 0 227
-22.7866 29.2526 -9.37788 0 0 183
-21.561 30.6474 -9.92141 0 0 141
-22.196 29.9563 -9.63701 0 0 141
-23.461 30.3705 -9.28546 0 0 141
-24.0923 31.5503 -9.15096 0 0 141
-27.681 23.6465 -7.46649 0 0 145
-26.9473 22.6096 -7.53675 0 0 145
-27.5615 25.2543 -7.63968 0 0 240
-27.681 23.6465 -7.46649 0 0 192
-28.3544 24.6853 -7.35575 0 0 192
-28.9131 27.1901 -7.30349 0 0 225
-29.0019 25.7426 -7.23478 0 0 181
-29.68 26.6397 -7.00933 0 0 181
-27.2672 33.1706 -7.95871 0 0 184
-26.6821 32.206 -8.22234 0 0 184
-27.359 31.5015 -7.93078 0 0 228
-20.8893 27.6584 -9.81682 0 0 140
-21.4702 27.0681 -9.5461 0 0 140
-20.8893 27.6584 -9.81682 0 0 141
-20.9463 29.4733 -10.0191 0 0 141
-32.3122 29.3183 -5.33814 0 0 128
-32.5872 28.0186 -5.43618 0 0 128
-31.6851 30.0484 -5.691 0 0 131
-32.3122 29.3183 -5.33814 0 0 131
-31.0249 30.6458 -6.02712 0 0 169
-31.3004 29.2033 -6.1239 0 0 206
-31.6851 30.0484 -5.691 0 0 169
-30.4013 31.2103 -6.3889 0 0 131
-31.0249 30.6458 -6.02712 0 0 131
-29.6923 31.8328 -6.7188 0 0 171
-29.9312 30.4232 -6.78992 0 0 210
-30.4013 31.2103 -6.3889 0 0 171
-29.0833 32.6175 -7.00802 0 0 134
-29.6923 31.8328 -6.7188 0 0 134
-28.4442 33.3276 -7.28169 0 0 175
-28.5832 31.7559 -7.39348 0 0 215
-29.0833 32.6175 -7.00802 0 0 175
-27.8218 34.0558 -7.58994 0 0 136
-28.4442 33.3276 -7.28169 0 0 136
-27.2672 33.1706 -7.95871 0 0 138
-27.8218 34.0558 -7.58994 0 0 138
3 17 16 4
3 0 18 19
3 0 20 22
3 20 7 21
3 20 21 22
3 1 9 8
3 2 10 5
3 2 11 10
3 2 23 25
3 25 24 11
3 23 24 25
3 26 13 27
3 3 14 6
3 3 15 14
3 29 28 12
3 4 5 1
3 30 5 31
3 32 31 4
3 30 31 32
3 33 2 34
3 35 34 5
3 33 34 35
3 37 36 2
3 38 6 39
3 7 40 42
3 40 6 41
3 40 41 42
3 7 3 6
3 43 0 44
3 8 45 46
3 9 47 49
3 49 48 8
3 47 48 49
3 9 50 51
3 5 9 1
3 10 9 5
3 10 52 54
3 54 53 9
3 52 53 54
3 10 55 56
3 11 57 59
3 59 58 10
3 57 58 59
3 11 60 61
3 11 62 64
3 62 12 63
3 62 63 64
3 65 12 66
3 67 66 11
3 65 66 67
3 69 68 12
3 71 70 2
3 72 8 73
3 13 74 76
3 74 8 75
3 74 75 76
3 13 1 8
3 6 77 79
3 77 13 78
3 77 78 79
3 14 13 6
3 14 1 13
3 14 4 1
3 15 4 14
3 15 80 82
3 82 81 4
3 80 81 82
3 12 83 84
3 86 85 12
3 87 0 88
3 89 0 90
3 91 7 92
3 93 92 0
3 91 92 93
3 94 7 95
3 96 3 97
3 98 97 7
3 96 97 98
3 99 3 100
3 101 15 102
3 103 102 3
3 101 102 103
3 104 15 105
3 107 106 15
