ply
format ascii 1.0
element vertex 224
property float x
property float y
property float z
property uchar red
property uchar green
property uchar blue
element face 203
property list uchar int vertex_index
end_header
-35.9218 -44.4918 -14.0468 153 0 0
-32.6339 -50.569 -3.97009 113 255 142
-36.8374 -41.8161 -6.94433 82 255 173
-39.0993 -34.4813 -16.3209 37 255 218
-34.2116 -47.8324 -9.15944 140 0 0
-31.8624 -52.531 -7.57927 134 255 121
-33.8322 -49.3209 -12.6085 205 255 50
-39.7797 -29.7878 -17.0488 150 255 105
-34.9072 -46.2253 -5.61102 82 255 173
-36.2989 -43.2076 -10.486 202 0 0
-37.7326 -39.5696 -15.1907 190 255 65
-38.0037 -38.4106 -11.7151 176 0 0
-39.03 -33.6804 -12.626 255 246 0
-39.2795 -28.9889 -13.305 139 255 116
-35.0838 -46.1774 -11.6085 140 0 0
-33.9475 -48.6687 -10.916 170 0 0
-34.8599 -46.9929 -13.2316 181 0 0
-34.7444 -47.7422 -14.9887 97 255 158
-35.7249 -45.3283 -15.5864 255 167 0
-36.5675 -43.5628 -17.8935 0 223 255
-36.7523 -42.6693 -16.3977 255 172 0
-39.876 -27.3616 -17.312 39 255 216
-35.6351 -44.6938 -8.15999 255 196 0
-36.5888 -42.4492 -8.74929 255 193 0
-37.2101 -40.8492 -11.118 188 0 0
-37.4447 -40.1206 -9.31388 188 0 0
-38.948 -33.1416 -10.8805 43 255 212
-39.2771 -31.2438 -13.1302 255 20 0
-39.0303 -30.8614 -11.1833 35 255 220
-37.6573 -39.3976 -7.53497 76 255 179
-33.3718 -49.3198 -6.54156 133 0 0
-32.209 -51.5488 -5.87681 255 244 0
-33.1101 -50.0593 -8.36566 128 0 0
-32.8622 -50.923 -10.0742 230 255 25
-34.6161 -48.6638 -16.6566 0 116 255
-39.5251 -32.0329 -16.6735 140 255 115
-33.8309 -48.3497 -5.02701 208 255 47
-34.5729 -46.9473 -7.39726 182 0 0
-35.2516 -45.6093 -9.72365 177 0 0
-36.1183 -43.7682 -12.301 147 0 0
-36.9158 -41.9326 -14.728 171 0 0
-37.0198 -41.4628 -12.8026 209 0 0
-37.8585 -39.0261 -13.5787 255 184 0
-38.5625 -36.5319 -14.1222 255 206 0
-38.1477 -37.7441 -9.94874 184 255 71
-38.624 -35.9846 -12.3067 255 215 0
-39.0712 -34.1776 -14.5248 255 18 0
-39.3934 -31.9233 -14.7811 255 31 0
-39.5829 -29.4416 -15.2404 255 12 0
-39.524 -27.1773 -15.3152 35 255 220
-37.6075 -40.2016 -16.9861 66 255 189
-40.0112 -26.3538 -18.319 0 0 129
-39.8275 -26.2342 -17.3765 0 0 129
-36.375 -42.9419 -6.61584 0 0 135
-36.5707 -42.5126 -5.69963 0 0 135
-36.7131 -42.1326 -7.84681 0 0 215
-36.2507 -43.2585 -7.51832 0 0 174
-36.375 -42.9419 -6.61584 0 0 174
-38.8605 -32.9825 -9.92441 0 0 129
-38.7733 -34.0661 -9.68368 0 0 129
-38.9016 -31.8423 -10.0758 0 0 168
-38.9892 -32.0015 -11.0319 0 0 205
-38.8605 -32.9825 -9.92441 0 0 168
-32.0425 -51.64 -3.59901 0 0 137
-32.245 -51.2174 -2.66468 0 0 137
-39.0767 -34.7454 -17.123 0 0 130
-38.7948 -35.7563 -16.0701 0 0 130
-33.2356 -50.6027 -12.1579 0 0 185
-32.7506 -51.4037 -10.8907 0 0 185
-33.3472 -50.1219 -11.3414 0 0 232
-33.7444 -49.7914 -13.4159 0 0 138
-33.2356 -50.6027 -12.1579 0 0 138
-35.1488 -47.3235 -17.0359 0 0 186
-34.6803 -48.203 -15.8226 0 0 232
-35.213 -46.8627 -16.2019 0 0 186
-35.1002 -47.7531 -17.8319 0 0 137
-35.1488 -47.3235 -17.0359 0 0 137
-36.9998 -42.5329 -19.0433 0 0 137
-37.0556 -42.1413 -18.2565 0 0 137
-39.8451 -29.9216 -17.9428 0 0 162
-39.7178 -31.0441 -17.7551 0 0 162
-39.6524 -30.9104 -16.8612 0 0 197
-34.5416 -46.9577 -4.30023 0 0 136
-35.0947 -45.8555 -4.70464 0 0 136
-34.369 -47.2875 -5.31902 0 0 226
-34.0035 -48.0199 -4.00822 0 0 181
-34.5416 -46.9577 -4.30023 0 0 181
-38.1991 -37.4147 -9.0862 0 0 169
-37.9025 -38.5708 -8.74185 0 0 208
-37.9539 -38.2414 -7.87931 0 0 169
-38.827 -34.8325 -12.4664 0 0 207
-38.6276 -35.7474 -11.3706 0 0 169
-38.8306 -34.5953 -11.5302 0 0 169
-31.4125 -53.1974 -6.24311 0 0 185
-31.5859 -52.7063 -5.39188 0 0 185
-32.0357 -52.0399 -6.72804 0 0 231
-35.7032 -45.6558 -16.5008 0 0 179
-35.213 -46.8627 -16.2019 0 0 179
-35.2347 -46.5352 -15.2876 0 0 223
-36.1462 -44.4455 -16.74 0 0 220
-36.1245 -44.773 -17.6543 0 0 177
-35.7032 -45.6558 -16.5008 0 0 177
-37.148 -41.6946 -17.5086 0 0 179
-37.0556 -42.1413 -18.2565 0 0 179
-36.6599 -43.1161 -17.1456 0 0 223
-39.9977 -27.4666 -18.248 0 0 170
-39.9495 -28.6797 -18.1163 0 0 170
-39.8278 -28.5747 -17.1804 0 0 209
-39.9977 -27.4666 -18.248 0 0 128
-40.0112 -26.3538 -18.319 0 0 128
-35.4099 -45.1465 -5.94919 0 0 133
-35.0947 -45.8555 -4.70464 0 0 133
-35.7738 -44.3808 -7.22367 0 0 175
-35.2711 -45.4596 -6.8855 0 0 217
-35.4099 -45.1465 -5.94919 0 0 175
-36.112 -43.5715 -8.45463 0 0 218
-35.7738 -44.3808 -7.22367 0 0 176
-36.2507 -43.2585 -7.51832 0 0 176
-38.7897 -34.3259 -10.6575 0 0 134
-38.7733 -34.0661 -9.68368 0 0 134
-38.989 -33.411 -11.7532 0 0 204
-38.8306 -34.5953 -11.5302 0 0 167
-38.7897 -34.3259 -10.6575 0 0 167
-31.2884 -53.6525 -7.19411 0 0 137
-31.7927 -52.9115 -8.50587 0 0 137
-38.0594 -38.6048 -16.3435 0 0 133
-38.1114 -38.3004 -15.505 0 0 133
-36.9788 -41.4424 -6.01268 0 0 133
-36.5707 -42.5126 -5.69963 0 0 133
-37.3888 -40.2331 -6.308 0 0 180
-37.2473 -40.6068 -7.23965 0 0 224
-36.9788 -41.4424 -6.01268 0 0 180
-37.7381 -39.0674 -6.65776 0 0 132
-37.3888 -40.2331 -6.308 0 0 132
-37.9539 -38.2414 -7.87931 0 0 132
-37.7381 -39.0674 -6.65776 0 0 132
-32.2926 -52.1075 -9.75334 0 0 183
-31.7927 -52.9115 -8.50587 0 0 183
-32.3623 -51.727 -8.82674 0 0 228
-32.2926 -52.1075 -9.75334 0 0 134
-32.7506 -51.4037 -10.8907 0 0 134
-34.2005 -49.002 -14.606 0 0 180
-33.7444 -49.7914 -13.4159 0 0 180
-34.2883 -48.5315 -13.7986 0 0 223
-34.1363 -49.4629 -15.4399 0 0 182
-34.2005 -49.002 -14.606 0 0 182
-34.6803 -48.203 -15.8226 0 0 226
-34.0576 -50.0134 -16.3024 0 0 142
-34.1363 -49.4629 -15.4399 0 0 142
-34.5849 -49.1007 -17.5055 0 0 140
-34.0576 -50.0134 -16.3024 0 0 140
-34.5849 -49.1007 -17.5055 0 0 139
-35.1002 -47.7531 -17.8319 0 0 139
-36.5769 -43.8226 -18.8136 0 0 134
-36.1245 -44.773 -17.6543 0 0 134
-36.5769 -43.8226 -18.8136 0 0 137
-36.9998 -42.5329 -19.0433 0 0 137
-39.5343 -32.3116 -17.5398 0 0 168
-39.3214 -33.5359 -17.3634 0 0 168
-39.3122 -33.2571 -16.4972 0 0 206
-39.5343 -32.3116 -17.5398 0 0 132
-39.7178 -31.0441 -17.7551 0 0 132
-39.8451 -29.9216 -17.9428 0 0 131
-39.9495 -28.6797 -18.1163 0 0 131
-32.8589 -50.1363 -3.11149 0 0 136
-32.245 -51.2174 -2.66468 0 0 136
-33.4574 -49.0267 -3.63994 0 0 136
-34.0035 -48.0199 -4.00822 0 0 136
-33.2324 -49.4594 -4.49855 0 0 228
-32.8589 -50.1363 -3.11149 0 0 183
-33.4574 -49.0267 -3.63994 0 0 183
-38.1744 -38.0287 -14.699 0 0 170
-38.1114 -38.3004 -15.505 0 0 170
-37.7955 -39.2978 -14.3847 0 0 209
-38.5264 -36.7816 -14.9707 0 0 171
-38.1744 -38.0287 -14.699 0 0 171
-38.2105 -37.779 -13.8505 0 0 210
-38.8309 -35.5066 -15.2215 0 0 211
-38.7948 -35.7563 -16.0701 0 0 172
-38.5264 -36.7816 -14.9707 0 0 172
-38.3895 -36.6272 -10.1916 0 0 128
-38.1991 -37.4147 -9.0862 0 0 128
-38.3858 -36.8644 -11.1277 0 0 206
-38.3895 -36.6272 -10.1916 0 0 168
-38.6276 -35.7474 -11.3706 0 0 168
-39.6515 -26.142 -16.3781 0 0 170
-39.8275 -26.2342 -17.3765 0 0 170
-39.7 -27.2694 -16.3136 0 0 208
-38.8691 -30.693 -10.2313 0 0 131
-38.9016 -31.8423 -10.0758 0 0 131
-38.9647 -29.7772 -11.3188 0 0 128
-38.8691 -30.693 -10.2313 0 0 128
-39.0893 -28.8409 -12.3796 0 0 163
-39.1549 -29.9251 -12.2442 0 0 198
-38.9647 -29.7772 -11.3188 0 0 163
-39.195 -27.9092 -13.4453 0 0 128
-39.0893 -28.8409 -12.3796 0 0 128
-39.3173 -27.0034 -14.4504 0 0 159
-39.4018 -28.0831 -14.3101 0 0 192
-39.195 -27.9092 -13.4453 0 0 159
-39.4089 -25.9929 -15.4621 0 0 129
-39.3173 -27.0034 -14.4504 0 0 129
-39.6515 -26.142 -16.3781 0 0 131
-39.4089 -25.9929 -15.4621 0 0 131
-31.8301 -52.1299 -4.55237 0 0 184
-32.0425 -51.64 -3.59901 0 0 184
-32.4215 -51.0589 -4.92345 0 0 230
-31.2069 -53.2874 -4.06743 0 0 140
-31.8301 -52.1299 -4.55237 0 0 187
-31.5859 -52.7063 -5.39188 0 0 187
-31.4125 -53.1974 -6.24311 0 0 139
-31.2884 -53.6525 -7.19411 0 0 139
-37.5756 -40.4607 -17.8028 0 0 169
-37.148 -41.6946 -17.5086 0 0 169
-37.1799 -41.4355 -16.6919 0 0 208
-37.9968 -38.9208 -17.2412 0 0 179
-37.67 -39.8856 -16.0884 0 0 222
-38.0594 -38.6048 -16.3435 0 0 179
-37.9754 -39.1404 -18.0655 0 0 131
-37.9968 -38.9208 -17.2412 0 0 131
-37.5756 -40.4607 -17.8028 0 0 133
-37.9754 -39.1404 -18.0655 0 0 133
-39.0767 -34.7454 -17.123 0 0 128
-39.3214 -33.5359 -17.3634 0 0 128
3 0 16 14
3 0 18 16
3 0 20 18
3 52 51 21
3 2 53 54
3 2 55 57
3 55 23 56
3 55 56 57
3 2 25 23
3 58 26 59
3 60 28 61
3 62 61 26
3 60 61 62
3 1 63 64
3 3 65 66
3 4 32 30
3 6 33 15
3 6 67 69
3 69 68 33
3 67 68 69
3 6 70 71
3 72 34 73
3 74 73 17
3 72 73 74
3 76 75 34
3 78 77 19
3 7 79 81
3 81 80 35
3 79 80 81
3 8 82 83
3 8 84 86
3 84 36 85
3 84 85 86
3 8 37 36
3 9 38 22
3 9 39 38
3 9 41 39
3 11 42 24
3 11 43 42
3 87 44 88
3 89 88 29
3 87 88 89
3 12 90 92
3 90 45 91
3 90 91 92
3 12 46 45
3 12 47 46
3 13 48 27
3 13 49 48
3 5 93 95
3 95 94 31
3 93 94 95
3 10 50 40
3 14 15 4
3 16 15 14
3 16 6 15
3 16 17 6
3 18 17 16
3 18 96 98
3 98 97 17
3 96 97 98
3 18 99 101
3 99 19 100
3 99 100 101
3 20 19 18
3 20 102 104
3 104 103 19
3 102 103 104
3 21 105 107
3 107 106 7
3 105 106 107
3 109 108 21
3 110 8 111
3 112 22 113
3 114 113 8
3 112 113 114
3 23 115 117
3 115 22 116
3 115 116 117
3 23 9 22
3 23 24 9
3 25 24 23
3 25 11 24
3 26 118 119
3 26 120 122
3 120 12 121
3 120 121 122
3 26 27 12
3 28 27 26
3 28 13 27
3 124 123 5
3 126 125 10
3 127 2 128
3 129 29 130
3 131 130 2
3 129 130 131
3 132 29 133
3 135 134 29
3 30 31 1
3 32 31 30
3 32 5 31
3 15 32 4
3 33 32 15
3 33 5 32
3 33 136 138
3 138 137 5
3 136 137 138
3 140 139 33
3 17 141 143
3 143 142 6
3 141 142 143
3 34 144 146
3 146 145 17
3 144 145 146
3 34 147 148
3 34 149 150
3 152 151 34
3 19 153 154
3 156 155 19
3 35 157 159
3 159 158 3
3 157 158 159
3 161 160 35
3 163 162 7
3 164 1 165
3 36 166 167
3 36 168 170
3 168 1 169
3 168 169 170
3 36 30 1
3 37 30 36
3 37 4 30
3 22 37 8
3 38 37 22
3 38 4 37
3 38 14 4
3 39 14 38
3 39 0 14
3 39 40 0
3 41 40 39
3 41 10 40
3 24 41 9
3 42 41 24
3 42 10 41
3 42 171 173
3 173 172 10
3 171 172 173
3 43 174 176
3 176 175 42
3 174 175 176
3 43 177 179
3 177 3 178
3 177 178 179
3 29 25 2
3 44 25 29
3 44 11 25
3 180 44 181
3 45 182 184
3 182 44 183
3 182 183 184
3 45 11 44
3 45 43 11
3 46 43 45
3 46 3 43
3 46 35 3
3 47 35 46
3 47 7 35
3 27 47 12
3 48 47 27
3 48 7 47
3 48 21 7
3 49 21 48
3 49 185 187
3 187 186 21
3 185 186 187
3 188 28 189
3 190 28 191
3 192 13 193
3 194 193 28
3 192 193 194
3 195 13 196
3 197 49 198
3 199 198 13
3 197 198 199
3 200 49 201
3 203 202 49
3 31 204 206
3 206 205 1
3 204 205 206
3 209 208 31
3 207 208 209
3 211 210 5
3 40 20 0
3 50 20 40
3 50 212 214
3 214 213 20
3 212 213 214
3 215 50 216
3 217 216 10
3 215 216 217
3 218 50 219
3 221 220 50
3 223 222 3
