ply
format ascii 1.0
element vertex 271
property float x
property float y
property float z
property uchar red
property uchar green
property uchar blue
element face 255
property list uchar int vertex_index
end_header
-8.81607 78.9679 13.5942 182 0 0
-13.479 80.5687 3.90679 128 0 0
-3.82166 75.8305 22.9466 212 0 0
-11.2198 79.8036 8.98071 255 156 0
-2.19604 67.8835 31.4911 85 255 170
-4.84604 70.1068 27.3088 235 0 0
-1.04635 74.2163 27.0719 86 255 169
-5.13607 83.0637 13.3828 240 0 0
-7.49259 84.2656 8.70595 167 0 0
-16.426 75.6714 4.09934 192 255 63
-15.5163 80.8152 -0.942544 213 255 42
-9.79437 85.2882 3.64147 255 154 0
-9.81838 73.4333 18.3201 33 255 222
-8.42773 65.7626 27.3302 58 255 197
-7.43575 71.8039 22.9929 255 179 0
-6.45128 77.5028 18.2962 193 0 0
-2.62517 81.4362 18.2069 179 255 76
-10.5437 76.7553 13.6886 67 255 188
-10.0377 79.3839 11.3448 255 170 0
-1.6572 71.0496 29.3424 223 255 32
-3.29536 84.8985 13.2948 51 255 204
-4.42632 85.5983 11.0031 157 255 98
-13.9602 77.8785 6.55336 255 159 0
-15.4641 75.5394 6.37201 62 255 193
-15.0167 78.169 4.02198 181 0 0
-16.0539 78.2523 1.57366 168 0 0
-14.51 80.7931 1.43834 162 0 0
-6.75682 86.8388 6.0962 234 255 21
-8.72799 84.7159 6.23451 144 0 0
-7.93691 87.2444 3.65193 100 255 155
-7.11731 64.9377 29.4387 48 255 207
-4.33488 72.9378 25.236 218 0 0
-6.24294 70.7906 25.2825 197 0 0
-5.59591 73.8822 23.0358 173 0 0
-6.94325 74.6718 20.7192 171 0 0
-5.09135 76.8348 20.5795 187 0 0
-4.61036 79.5668 18.138 207 0 0
-3.35939 78.6978 20.4514 227 0 0
-12.7799 77.7984 8.84324 79 255 176
-12.3066 80.4308 6.30075 139 0 0
-4.08308 65.8544 31.5123 67 255 188
-5.36655 67.1003 29.3743 255 232 0
-3.59381 68.9592 29.4397 202 0 0
-3.00191 72.1188 27.2421 192 0 0
-2.44871 75.1233 24.9665 255 197 0
-1.97734 77.9343 22.6309 185 255 70
-18.7205 73.088 1.5304 0 75 255
-6.92476 81.0566 13.6069 194 0 0
-8.21726 81.6467 11.1415 151 0 0
-6.30389 83.6552 11.1453 234 0 0
-5.67048 86.0131 8.81445 182 255 73
-17.4613 75.6205 1.66104 78 255 177
-17.0555 78.1293 -0.772265 88 255 167
-9.45093 82.142 8.70469 142 0 0
-10.5825 82.5822 6.30748 136 0 0
-11.6499 83.0696 3.74589 140 0 0
-10.9183 85.4988 1.28922 86 255 169
-12.7786 83.2324 1.32807 255 147 0
-13.8792 83.2549 -1.07785 86 255 169
-9.34631 76.2207 16.0005 255 215 0
-6.6647 67.8726 27.4442 236 0 0
-7.96808 68.7349 25.2433 185 255 70
-8.67343 72.7233 20.5671 168 255 87
-8.26061 75.3906 18.3442 240 0 0
-7.63207 78.2118 16.0429 213 0 0
-5.8675 80.2458 15.8907 227 0 0
-4.00596 82.1858 15.7977 255 193 0
-1.48588 80.6449 20.265 47 255 208
-2.8907 86.1512 12.1388 0 0 130
-2.32584 85.6984 13.4028 0 0 130
-6.89102 88.3276 3.55321 0 0 180
-7.34687 87.0416 4.87406 0 0 226
-6.30098 88.1247 4.77534 0 0 180
-6.4563 64.453 30.4525 0 0 128
-7.32859 63.4276 30.4132 0 0 128
-11.9998 78.801 8.91197 0 0 207
-12.2758 77.4614 10.0987 0 0 168
-11.4957 78.464 10.1674 0 0 168
-0.824449 75.6514 25.9111 0 0 170
-1.52563 76.1049 24.8584 0 0 170
-1.74753 74.6698 26.0192 0 0 210
-19.1892 72.9623 0.313936 0 0 132
-18.5503 74.3446 0.357825 0 0 132
-4.65926 87.076 8.65392 0 0 172
-5.0484 85.8057 9.90875 0 0 214
-4.03718 86.8686 9.74822 0 0 172
-5.23582 87.3627 7.45097 0 0 134
-4.65926 87.076 8.65392 0 0 134
-16.6313 74.3164 5.22175 0 0 169
-16.1503 74.2504 6.35808 0 0 169
-15.9451 75.6054 5.23567 0 0 208
-17.0686 74.4388 4.05225 0 0 128
-16.6313 74.3164 5.22175 0 0 128
-16.9437 75.646 2.88019 0 0 209
-17.5862 74.4134 2.8331 0 0 169
-17.0686 74.4388 4.05225 0 0 169
-16.0289 80.722 -2.16264 0 0 179
-16.7985 79.379 -2.0775 0 0 179
-16.2859 79.4723 -0.857405 0 0 223
-11.5338 85.5102 0.031531 0 0 135
-10.5713 86.6425 -0.05174 0 0 135
-12.464 84.377 0.050956 0 0 177
-11.8484 84.3656 1.30864 0 0 221
-11.5338 85.5102 0.031531 0 0 177
-13.0143 84.3883 -1.152 0 0 172
-13.3289 83.2436 0.125109 0 0 212
-12.464 84.377 0.050956 0 0 172
-10.4107 73.7092 17.1799 0 0 130
-10.6191 72.3001 18.3092 0 0 130
-9.58235 74.827 17.1603 0 0 210
-10.1746 75.1029 16.0201 0 0 170
-10.4107 73.7092 17.1799 0 0 170
-9.23821 64.7693 27.1978 0 0 129
-8.66368 64.2449 28.3241 0 0 129
-8.99089 66.2791 26.1929 0 0 129
-9.23821 64.7693 27.1978 0 0 129
-8.26465 70.8039 22.9308 0 0 171
-8.53082 69.2695 24.056 0 0 171
-7.70192 70.2694 24.1181 0 0 212
-8.05459 72.2636 21.78 0 0 213
-8.88349 71.2636 21.7179 0 0 172
-8.26465 70.8039 22.9308 0 0 172
-2.38294 82.7113 16.9774 0 0 171
-3.07334 83.0861 15.7728 0 0 171
-3.31557 81.811 17.0023 0 0 212
-0.782434 80.2695 21.3354 0 0 170
-1.73161 79.2896 21.448 0 0 210
-1.02816 78.9141 22.5183 0 0 170
-11.1577 76.9399 12.5214 0 0 129
-11.3636 75.6614 13.6274 0 0 129
-10.9047 78.2542 11.3495 0 0 172
-11.1577 76.9399 12.5214 0 0 172
-10.2907 78.0696 12.5167 0 0 214
-10.6288 79.5937 10.1627 0 0 215
-11.4957 78.464 10.1674 0 0 173
-10.9047 78.2542 11.3495 0 0 173
-0.936311 70.4058 30.4562 0 0 178
-1.92662 69.4665 30.4168 0 0 223
-1.20573 68.8227 31.5306 0 0 178
-0.725386 72.0418 29.2542 0 0 134
-0.936311 70.4058 30.4562 0 0 134
-0.41996 73.6252 28.119 0 0 171
-1.35177 72.6329 28.2072 0 0 212
-0.725386 72.0418 29.2542 0 0 171
-0.086716 75.2216 26.9541 0 0 131
-0.41996 73.6252 28.119 0 0 131
-3.45618 86.5011 10.9929 0 0 167
-3.86084 85.2484 12.1489 0 0 205
-2.8907 86.1512 12.1388 0 0 167
-4.03718 86.8686 9.74822 0 0 131
-3.45618 86.5011 10.9929 0 0 131
-14.7121 76.709 6.46269 0 0 210
-14.9073 75.4591 7.58834 0 0 170
-14.1554 76.6287 7.67902 0 0 170
-10.0399 72.0021 19.4438 0 0 130
-10.6191 72.3001 18.3092 0 0 130
-8.00847 63.8325 29.3783 0 0 130
-7.32859 63.4276 30.4132 0 0 130
-7.77252 65.3502 28.3845 0 0 212
-8.66368 64.2449 28.3241 0 0 171
-8.00847 63.8325 29.3783 0 0 171
-13.0455 76.3729 10.0332 0 0 131
-12.2758 77.4614 10.0987 0 0 131
-13.5652 76.5886 8.82396 0 0 132
-13.0455 76.3729 10.0332 0 0 132
-13.37 77.8385 7.6983 0 0 209
-14.1554 76.6287 7.67902 0 0 170
-13.5652 76.5886 8.82396 0 0 170
-4.72482 66.4774 30.4433 0 0 207
-5.58092 65.5343 30.4203 0 0 168
-4.93919 64.9114 31.4893 0 0 168
-1.28994 77.5104 23.6906 0 0 169
-2.21302 76.5288 23.7987 0 0 209
-1.52563 76.1049 24.8584 0 0 169
-1.02816 78.9141 22.5183 0 0 130
-1.28994 77.5104 23.6906 0 0 130
-0.824449 75.6514 25.9111 0 0 131
-0.086716 75.2216 26.9541 0 0 131
-19.2628 71.8461 1.47224 0 0 128
-18.8237 71.8463 2.68534 0 0 128
-19.2628 71.8461 1.47224 0 0 128
-19.1892 72.9623 0.313936 0 0 128
-5.77899 87.7755 6.09185 0 0 181
-6.21365 86.4259 7.45533 0 0 226
-5.23582 87.3627 7.45097 0 0 181
-6.30098 88.1247 4.77534 0 0 133
-5.77899 87.7755 6.09185 0 0 133
-4.29519 64.2563 32.5265 0 0 129
-4.93919 64.9114 31.4893 0 0 129
-3.35617 65.2631 32.5466 0 0 132
-4.29519 64.2563 32.5265 0 0 132
-2.41264 66.2776 32.5361 0 0 175
-3.13956 66.8689 31.5017 0 0 218
-3.35617 65.2631 32.5466 0 0 175
-1.4569 67.3471 32.4816 0 0 132
-2.41264 66.2776 32.5361 0 0 132
-1.20573 68.8227 31.5306 0 0 130
-1.4569 67.3471 32.4816 0 0 130
-15.6275 74.2497 7.4956 0 0 130
-14.9073 75.4591 7.58834 0 0 130
-15.6275 74.2497 7.4956 0 0 129
-16.1503 74.2504 6.35808 0 0 129
-18.2158 73.1471 2.76778 0 0 131
-18.8237 71.8463 2.68534 0 0 131
-18.0909 74.3542 1.59572 0 0 211
-18.2158 73.1471 2.76778 0 0 171
-17.5862 74.4134 2.8331 0 0 171
-17.9207 75.6109 0.423145 0 0 171
-18.5503 74.3446 0.357825 0 0 171
-18.0909 74.3542 1.59572 0 0 211
-17.7178 76.8653 -0.793508 0 0 172
-17.9207 75.6109 0.423145 0 0 172
-17.2584 76.8749 0.444388 0 0 213
-17.5223 78.0757 -2.04477 0 0 132
-17.7178 76.8653 -0.793508 0 0 132
-17.5223 78.0757 -2.04477 0 0 134
-16.7985 79.379 -2.0775 0 0 134
-7.51627 88.4427 2.33985 0 0 135
-6.89102 88.3276 3.55321 0 0 135
-8.49267 87.4731 2.32656 0 0 177
-7.51627 88.4427 2.33985 0 0 177
-8.07202 88.6714 1.01448 0 0 133
-9.42139 86.495 2.32133 0 0 175
-8.86564 86.2663 3.6467 0 0 218
-8.49267 87.4731 2.32656 0 0 175
-9.98335 86.6003 1.14521 0 0 132
-10.5713 86.6425 -0.05174 0 0 132
-10.3563 85.3935 2.46535 0 0 215
-9.42139 86.495 2.32133 0 0 173
-9.98335 86.6003 1.14521 0 0 173
-13.5358 84.4393 -2.45082 0 0 133
-13.0143 84.3883 -1.152 0 0 133
-14.4066 83.1932 -2.26692 0 0 133
-13.5358 84.4393 -2.45082 0 0 133
-15.2252 81.9734 -2.19927 0 0 172
-14.6978 82.0351 -1.0102 0 0 213
-14.4066 83.1932 -2.26692 0 0 172
-16.0289 80.722 -2.16264 0 0 132
-15.2252 81.9734 -2.19927 0 0 132
-10.7733 75.3702 14.8641 0 0 132
-11.3636 75.6614 13.6274 0 0 132
-9.94499 76.488 14.8445 0 0 212
-10.7733 75.3702 14.8641 0 0 171
-10.1746 75.1029 16.0201 0 0 171
-6.24193 66.019 29.4065 0 0 210
-6.4563 64.453 30.4525 0 0 170
-5.58092 65.5343 30.4203 0 0 170
-8.76107 67.7652 25.1494 0 0 166
-8.99089 66.2791 26.1929 0 0 166
-8.19791 67.2488 26.2867 0 0 204
-8.76107 67.7652 25.1494 0 0 129
-8.53082 69.2695 24.056 0 0 129
-9.46742 71.6471 20.5673 0 0 130
-8.88349 71.2636 21.7179 0 0 130
-9.24591 73.0783 19.4436 0 0 206
-10.0399 72.0021 19.4438 0 0 167
-9.46742 71.6471 20.5673 0 0 167
-2.71803 84.4425 14.5214 0 0 172
-3.65066 83.5421 14.5463 0 0 212
-3.07334 83.0861 15.7728 0 0 172
-2.32584 85.6984 13.4028 0 0 129
-2.71803 84.4425 14.5214 0 0 129
-0.489382 81.6183 20.1773 0 0 131
-0.782434 80.2695 21.3354 0 0 131
-1.15567 82.0065 19.0771 0 0 131
-0.489382 81.6183 20.1773 0 0 131
-1.72532 82.4022 18.048 0 0 163
-2.05552 81.0406 19.236 0 0 199
-1.15567 82.0065 19.0771 0 0 163
-2.38294 82.7113 16.9774 0 0 128
-1.72532 82.4022 18.048 0 0 128
3 0 18 17
3 69 68 20
3 1 24 22
3 1 26 24
3 70 29 71
3 72 71 27
3 70 71 72
3 73 30 74
3 2 33 31
3 2 35 33
3 2 37 35
3 3 75 77
3 75 38 76
3 75 76 77
3 3 39 38
3 4 42 40
3 6 43 19
3 6 44 43
3 6 78 80
3 80 79 44
3 78 79 80
3 82 81 46
3 7 49 47
3 83 50 84
3 85 84 21
3 83 84 85
3 87 86 50
3 9 88 90
3 90 89 23
3 88 89 90
3 9 91 92
3 9 93 95
3 93 51 94
3 93 94 95
3 10 52 25
3 10 96 98
3 98 97 52
3 96 97 98
3 8 53 48
3 11 54 28
3 11 55 54
3 99 56 100
3 101 57 102
3 103 102 56
3 101 102 103
3 104 58 105
3 106 105 57
3 104 105 106
3 12 107 108
3 12 109 111
3 109 59 110
3 109 110 111
3 13 112 113
3 13 114 115
3 5 60 41
3 14 61 32
3 14 116 118
3 118 117 61
3 116 117 118
3 14 119 121
3 119 62 120
3 119 120 121
3 15 63 34
3 15 64 63
3 15 65 64
3 16 66 36
3 16 122 124
3 124 123 66
3 122 123 124
3 125 67 126
3 127 126 45
3 125 126 127
3 17 128 129
3 18 130 132
3 132 131 17
3 130 131 132
3 18 133 135
3 133 3 134
3 133 134 135
3 136 19 137
3 138 137 4
3 136 137 138
3 139 19 140
3 141 6 142
3 143 142 19
3 141 142 143
3 145 144 6
3 20 21 7
3 146 21 147
3 148 147 20
3 146 147 148
3 150 149 21
3 22 151 153
3 151 23 152
3 151 152 153
3 24 23 22
3 24 9 23
3 24 25 9
3 26 25 24
3 26 10 25
3 27 28 8
3 29 28 27
3 29 11 28
3 154 12 155
3 30 156 157
3 30 158 160
3 158 13 159
3 158 159 160
3 31 32 5
3 33 32 31
3 33 14 32
3 33 34 14
3 35 34 33
3 35 15 34
3 35 36 15
3 37 36 35
3 37 16 36
3 38 161 162
3 38 163 164
3 38 165 167
3 165 22 166
3 165 166 167
3 39 22 38
3 39 1 22
3 40 168 170
3 168 41 169
3 168 169 170
3 42 41 40
3 42 5 41
3 19 42 4
3 43 42 19
3 43 5 42
3 43 31 5
3 44 31 43
3 44 2 31
3 44 45 2
3 171 45 172
3 173 172 44
3 171 172 173
3 175 174 45
3 177 176 6
3 46 178 179
3 181 180 46
3 47 48 0
3 49 48 47
3 49 8 48
3 21 49 7
3 50 49 21
3 50 8 49
3 50 27 8
3 182 27 183
3 184 183 50
3 182 183 184
3 186 185 27
3 187 40 188
3 189 40 190
3 191 4 192
3 193 192 40
3 191 192 193
3 194 4 195
3 197 196 4
3 23 198 199
3 201 200 23
3 202 46 203
3 51 204 206
3 204 46 205
3 204 205 206
3 51 207 209
3 209 208 46
3 207 208 209
3 25 51 9
3 52 51 25
3 52 210 212
3 212 211 51
3 210 211 212
3 52 213 214
3 216 215 52
3 48 18 0
3 53 18 48
3 53 3 18
3 28 53 8
3 54 53 28
3 54 3 53
3 54 39 3
3 55 39 54
3 55 1 39
3 217 29 218
3 219 29 220
3 219 220 221
3 222 11 223
3 224 223 29
3 222 223 224
3 56 225 226
3 56 227 229
3 227 11 228
3 227 228 229
3 56 55 11
3 57 55 56
3 57 1 55
3 57 26 1
3 58 26 57
3 58 10 26
3 230 58 231
3 232 58 233
3 234 10 235
3 236 235 58
3 234 235 236
3 238 237 10
3 239 17 240
3 59 241 243
3 241 17 242
3 241 242 243
3 59 0 17
3 41 244 246
3 244 30 245
3 244 245 246
3 60 30 41
3 60 13 30
3 32 60 5
3 61 60 32
3 61 13 60
3 61 247 249
3 249 248 13
3 247 248 249
3 251 250 61
3 62 252 253
3 62 254 256
3 254 12 255
3 254 255 256
3 34 62 14
3 63 62 34
3 63 12 62
3 63 59 12
3 64 59 63
3 64 0 59
3 64 47 0
3 65 47 64
3 65 7 47
3 36 65 15
3 66 65 36
3 66 7 65
3 66 20 7
3 257 20 258
3 259 258 66
3 257 258 259
3 261 260 20
3 45 37 2
3 67 37 45
3 67 16 37
3 262 67 263
3 264 67 265
3 266 16 267
3 268 267 67
3 266 267 268
3 270 269 16
