ply
format ascii 1.0
element vertex 238
property float x
property float y
property float z
property uchar red
property uchar green
property uchar blue
element face 231
property list uchar int vertex_index
end_header
24.9405 -52.9978 59.1361 255 75 0
20.7328 -60.0398 58.1812 255 203 0
25.2633 -62.509 51.2166 255 18 0
27.279 -44.0738 57.5273 255 141 0
18.4139 -62.5365 56.684 0 208 255
20.8794 -64.2235 54.2852 116 255 139
26.3658 -48.8053 58.5479 255 8 0
27.568 -48.8781 54.171 255 151 0
26.6756 -53.469 55.069 169 0 0
23.1307 -56.8673 58.8814 255 133 0
25.2661 -57.6326 55.4389 255 38 0
23.3526 -61.4722 54.9732 255 123 0
23.075 -65.9339 50.7498 0 255 255
26.8592 -58.3164 51.0484 76 255 179
26.0331 -43.8947 61.7748 73 255 182
24.457 -48.1861 62.5239 15 255 240
22.5195 -52.2249 62.3708 0 255 255
25.7069 -50.8393 59.0016 255 44 0
26.5291 -51.0527 56.9137 222 0 0
25.859 -53.2225 57.2933 252 0 0
21.9668 -58.5421 58.6263 255 152 0
23.2176 -59.2227 57.0237 255 121 0
22.0721 -60.7674 56.7601 255 156 0
20.7248 -66.3104 52.0797 0 114 255
21.9822 -65.084 52.6693 156 255 99
27.6894 -44.0201 55.2512 146 255 109
27.6916 -51.3005 52.4156 117 255 138
25.29 -60.0843 53.3971 250 0 0
26.1307 -58.0634 53.28 228 0 0
26.1472 -60.4675 51.2065 255 209 0
19.5609 -61.4646 57.4245 245 255 10
20.8547 -62.1852 56.2742 255 223 0
19.6372 -63.5383 55.4844 0 254 255
26.8626 -46.5262 58.1463 201 0 0
27.4316 -46.5495 55.7972 128 0 0
27.0587 -48.7735 56.3976 197 0 0
27.1834 -51.3328 54.6351 158 0 0
27.3403 -53.7672 52.5941 237 255 18
25.1361 -64.9952 48.8581 39 255 216
26.0446 -62.8375 49.1785 64 255 191
24.0082 -54.9601 59.2133 255 106 0
25.1394 -55.2585 57.3618 255 49 0
24.2829 -57.303 57.2335 255 91 0
24.3199 -59.6121 55.3774 255 80 0
24.3331 -62.0778 53.1753 255 77 0
22.107 -62.8984 54.8028 255 167 0
23.2127 -63.7268 52.9639 255 113 0
24.2829 -64.3201 51.0031 229 255 26
27.8655 -46.4933 53.3364 147 255 108
26.0538 -55.7291 55.2067 226 0 0
26.82 -55.9067 53.0045 255 175 0
27.13 -41.664 59.2652 87 255 168
26.5939 -41.5237 61.3526 70 255 185
26.7446 -44.0359 59.6876 209 0 0
26.2076 -46.3934 60.1561 255 220 0
25.5124 -48.5117 60.6368 251 255 4
24.7512 -50.5427 60.8513 255 74 0
23.5737 -50.2796 62.4879 106 255 149
23.8535 -52.6064 60.8552 255 100 0
22.8291 -54.5651 60.7031 173 255 82
21.8084 -56.2156 60.4039 69 255 186
20.6201 -57.7471 59.9893 50 255 205
19.4097 -59.2761 59.2612 24 255 231
18.1719 -60.6797 58.3213 0 230 255
17.1152 -61.8744 57.2624 0 52 255
21.29 -66.7437 51.2343 0 0 138
20.6081 -67.2777 50.9567 0 0 138
27.4842 -44.0469 56.3892 0 0 239
27.6388 -42.7799 56.0244 0 0 196
27.4336 -42.8068 57.1625 0 0 196
27.904 -51.2085 51.183 0 0 156
27.763 -52.4871 51.3772 0 0 156
25.5309 -65.114 47.8673 0 0 143
25.025 -66.0805 47.8169 0 0 143
23.5808 -66.2175 49.8157 0 0 175
24.1847 -65.4106 49.9423 0 0 175
23.679 -65.127 50.8765 0 0 209
27.1398 -57.2242 50.8652 0 0 190
27.1202 -56.0194 51.8432 0 0 190
26.8396 -57.1115 52.0265 0 0 231
26.4475 -61.7523 49.0978 0 0 152
26.3919 -63.0418 47.974 0 0 152
27.1129 -40.3786 59.9703 0 0 150
27.3146 -40.5188 58.8153 0 0 150
26.3135 -42.7092 61.5637 0 0 226
26.2318 -41.4449 62.3566 0 0 186
25.9514 -42.6304 62.5677 0 0 186
24.9847 -48.3489 61.5804 0 0 219
25.425 -47.3055 61.4056 0 0 182
24.8972 -47.1426 62.3491 0 0 182
23.0466 -51.2522 62.4293 0 0 206
22.9345 -50.0316 63.1885 0 0 173
22.4074 -51.0042 63.13 0 0 173
21.0272 -55.929 60.9937 0 0 140
21.6305 -55.0984 61.2319 0 0 140
20.433 -56.6948 60.7865 0 0 168
21.2142 -56.9814 60.1966 0 0 198
21.0272 -55.929 60.9937 0 0 168
18.6717 -58.9586 59.6021 0 0 135
19.235 -58.2359 60.0658 0 0 135
18.0528 -59.6604 59.1321 0 0 163
18.7908 -59.9779 58.7913 0 0 190
18.6717 -58.9586 59.6021 0 0 163
16.4618 -61.4467 57.4835 0 0 131
16.9548 -60.877 58.0814 0 0 131
16.6152 -62.3399 56.7262 0 0 129
16.4618 -61.4467 57.4835 0 0 129
17.8718 -64.0033 55.2604 0 0 130
18.4166 -63.4939 55.7411 0 0 152
17.869 -63.0459 56.2033 0 0 152
21.9187 -66.1305 51.5291 0 0 169
21.3535 -65.6972 52.3745 0 0 199
21.29 -66.7437 51.2343 0 0 169
22.4652 -66.5555 50.5694 0 0 171
22.5286 -65.509 51.7096 0 0 202
21.9187 -66.1305 51.5291 0 0 171
23.0089 -66.996 49.5739 0 0 140
22.4652 -66.5555 50.5694 0 0 140
27.7918 -42.7446 54.7969 0 0 155
27.6388 -42.7799 56.0244 0 0 155
27.8467 -43.9476 54.0424 0 0 154
27.7918 -42.7446 54.7969 0 0 154
27.8389 -50.0668 52.0907 0 0 198
27.7771 -48.8556 52.9684 0 0 198
27.6298 -50.0893 53.2933 0 0 243
27.8389 -50.0668 52.0907 0 0 154
27.904 -51.2085 51.183 0 0 154
25.581 -43.8066 62.729 0 0 147
25.9514 -42.6304 62.5677 0 0 147
25.6853 -44.997 61.9746 0 0 145
25.581 -43.8066 62.729 0 0 145
24.3319 -47.0384 63.2594 0 0 144
24.8972 -47.1426 62.3491 0 0 144
21.7816 -51.9276 63.012 0 0 142
22.4074 -51.0042 63.13 0 0 142
21.986 -53.103 62.2154 0 0 140
21.7816 -51.9276 63.012 0 0 140
19.0283 -63.9948 55.1413 0 0 158
19.0255 -63.0374 56.0842 0 0 182
18.4166 -63.4939 55.7411 0 0 158
19.6331 -64.4954 54.4793 0 0 134
19.0283 -63.9948 55.1413 0 0 134
20.2542 -64.8381 53.8796 0 0 162
20.2583 -63.8809 54.8848 0 0 189
19.6331 -64.4954 54.4793 0 0 162
20.1769 -65.8815 52.7769 0 0 164
20.8021 -65.267 53.1824 0 0 192
20.2542 -64.8381 53.8796 0 0 164
20.0578 -66.8154 51.7037 0 0 135
20.1769 -65.8815 52.7769 0 0 135
20.6081 -67.2777 50.9567 0 0 136
20.0578 -66.8154 51.7037 0 0 136
27.5874 -53.7204 51.4664 0 0 194
27.763 -52.4871 51.3772 0 0 194
27.5159 -52.5339 52.5049 0 0 237
25.9852 -64.0351 48.0275 0 0 184
25.5904 -63.9164 49.0183 0 0 222
25.5309 -65.114 47.8673 0 0 184
26.3919 -63.0418 47.974 0 0 149
25.9852 -64.0351 48.0275 0 0 149
24.6113 -65.7482 48.8698 0 0 174
24.7095 -64.6577 49.9306 0 0 207
24.1847 -65.4106 49.9423 0 0 174
25.025 -66.0805 47.8169 0 0 140
24.6113 -65.7482 48.8698 0 0 140
23.5808 -66.2175 49.8157 0 0 141
23.0089 -66.996 49.5739 0 0 141
27.9348 -45.1842 53.085 0 0 203
27.8467 -43.9476 54.0424 0 0 203
27.7775 -45.2567 54.2938 0 0 250
27.9259 -47.6632 52.5511 0 0 195
27.7168 -47.6857 53.7537 0 0 238
27.7771 -48.8556 52.9684 0 0 195
28.0193 -46.3815 52.1429 0 0 153
27.9259 -47.6632 52.5511 0 0 153
27.9348 -45.1842 53.085 0 0 154
28.0193 -46.3815 52.1429 0 0 154
27.3803 -54.9496 51.638 0 0 188
27.0801 -54.837 52.7993 0 0 228
27.1202 -56.0194 51.8432 0 0 188
27.5874 -53.7204 51.4664 0 0 151
27.3803 -54.9496 51.638 0 0 151
26.4988 -60.5673 50.1118 0 0 188
26.0959 -61.6525 50.1925 0 0 228
26.4475 -61.7523 49.0978 0 0 188
26.8548 -59.4918 50.0328 0 0 186
26.5032 -59.392 51.1275 0 0 226
26.4988 -60.5673 50.1118 0 0 186
27.1374 -58.4028 49.9577 0 0 146
26.8548 -59.4918 50.0328 0 0 146
27.1398 -57.2242 50.8652 0 0 146
27.1374 -58.4028 49.9577 0 0 146
27.3591 -41.6019 58.0314 0 0 150
27.3146 -40.5188 58.8153 0 0 150
27.2045 -42.8689 58.3963 0 0 249
27.4336 -42.8068 57.1625 0 0 202
27.3591 -41.6019 58.0314 0 0 202
26.5568 -40.3841 62.0385 0 0 144
26.2318 -41.4449 62.3566 0 0 144
26.8449 -40.3084 61.014 0 0 146
26.5568 -40.3841 62.0385 0 0 146
26.862 -41.5939 60.3089 0 0 229
27.1129 -40.3786 59.9703 0 0 189
26.8449 -40.3084 61.014 0 0 189
25.7726 -46.2463 61.1652 0 0 185
26.1204 -45.1441 60.9654 0 0 224
25.6853 -44.997 61.9746 0 0 185
25.86 -47.4526 60.3964 0 0 220
25.7726 -46.2463 61.1652 0 0 183
25.425 -47.3055 61.4056 0 0 183
23.8841 -48.0276 63.2714 0 0 139
24.3319 -47.0384 63.2594 0 0 139
23.4424 -49.0743 63.2534 0 0 140
22.9345 -50.0316 63.1885 0 0 140
24.0153 -49.2328 62.5059 0 0 206
23.8841 -48.0276 63.2714 0 0 173
23.4424 -49.0743 63.2534 0 0 173
22.1408 -54.2732 61.3815 0 0 171
22.6743 -53.395 61.537 0 0 203
21.986 -53.103 62.2154 0 0 171
22.3187 -55.3904 60.5535 0 0 197
22.1408 -54.2732 61.3815 0 0 168
21.6305 -55.0984 61.2319 0 0 168
19.8402 -57.4714 60.4299 0 0 137
20.433 -56.6948 60.7865 0 0 137
20.0149 -58.5116 59.6253 0 0 195
19.8402 -57.4714 60.4299 0 0 166
19.235 -58.2359 60.0658 0 0 166
17.4831 -60.2797 58.6109 0 0 133
18.0528 -59.6604 59.1321 0 0 133
17.6436 -61.2771 57.7918 0 0 181
17.4831 -60.2797 58.6109 0 0 157
16.9548 -60.877 58.0814 0 0 157
17.2197 -62.7148 56.4925 0 0 150
17.869 -63.0459 56.2033 0 0 150
17.7645 -62.2054 56.9732 0 0 171
17.2197 -62.7148 56.4925 0 0 128
16.6152 -62.3399 56.7262 0 0 128
3 0 19 17
3 1 22 20
3 66 65 23
3 3 67 69
3 67 25 68
3 67 68 69
3 71 70 26
3 2 29 27
3 4 32 30
3 6 35 33
3 8 36 18
3 8 37 36
3 73 72 38
3 9 42 40
3 11 43 21
3 11 44 43
3 5 45 31
3 12 46 24
3 12 47 46
3 12 74 76
3 76 75 47
3 74 75 76
3 7 48 34
3 10 49 41
3 13 50 28
3 13 77 79
3 79 78 50
3 77 78 79
3 81 80 39
3 82 51 83
3 14 84 86
3 84 52 85
3 84 85 86
3 14 53 52
3 14 54 53
3 15 87 89
3 87 55 88
3 87 88 89
3 15 56 55
3 16 90 92
3 90 57 91
3 90 91 92
3 16 58 57
3 16 59 58
3 93 60 94
3 95 61 96
3 97 96 60
3 95 96 97
3 98 62 99
3 100 63 101
3 102 101 62
3 100 101 102
3 103 64 104
3 106 105 64
3 109 108 4
3 107 108 109
3 17 18 6
3 19 18 17
3 19 8 18
3 20 21 9
3 22 21 20
3 22 11 21
3 23 24 5
3 110 24 111
3 112 111 23
3 110 111 112
3 113 12 114
3 115 114 24
3 113 114 115
3 117 116 12
3 25 118 119
3 25 120 121
3 26 122 124
3 124 123 7
3 122 123 124
3 126 125 26
3 27 28 10
3 29 28 27
3 29 13 28
3 127 14 128
3 130 129 14
3 131 15 132
3 133 16 134
3 136 135 16
3 30 31 1
3 32 31 30
3 32 5 31
3 137 32 138
3 139 138 4
3 137 138 139
3 140 32 141
3 142 5 143
3 144 143 32
3 142 143 144
3 145 23 146
3 147 146 5
3 145 146 147
3 148 23 149
3 151 150 23
3 33 34 3
3 35 34 33
3 35 7 34
3 18 35 6
3 36 35 18
3 36 7 35
3 36 26 7
3 37 26 36
3 37 152 154
3 154 153 26
3 152 153 154
3 38 39 2
3 155 39 156
3 157 156 38
3 155 156 157
3 159 158 39
3 40 41 0
3 42 41 40
3 42 10 41
3 21 42 9
3 43 42 21
3 43 10 42
3 43 27 10
3 44 27 43
3 44 2 27
3 31 22 1
3 45 22 31
3 45 11 22
3 24 45 5
3 46 45 24
3 46 11 45
3 46 44 11
3 47 44 46
3 47 2 44
3 47 38 2
3 160 38 161
3 162 161 47
3 160 161 162
3 164 163 38
3 166 165 12
3 34 25 3
3 48 25 34
3 48 167 169
3 169 168 25
3 167 168 169
3 170 48 171
3 172 171 7
3 170 171 172
3 173 48 174
3 176 175 48
3 41 19 0
3 49 19 41
3 49 8 19
3 28 49 10
3 50 49 28
3 50 8 49
3 50 37 8
3 177 37 178
3 179 178 50
3 177 178 179
3 181 180 37
3 39 29 2
3 182 29 183
3 184 183 39
3 182 183 184
3 185 13 186
3 187 186 29
3 185 186 187
3 188 13 189
3 191 190 13
3 51 192 193
3 51 194 196
3 194 3 195
3 194 195 196
3 52 197 198
3 52 199 200
3 52 201 203
3 201 51 202
3 201 202 203
3 53 51 52
3 53 3 51
3 53 33 3
3 54 33 53
3 54 6 33
3 204 54 205
3 206 205 14
3 204 205 206
3 55 207 209
3 207 54 208
3 207 208 209
3 55 6 54
3 55 17 6
3 56 17 55
3 56 0 17
3 210 15 211
3 57 212 213
3 57 214 216
3 214 15 215
3 214 215 216
3 57 56 15
3 58 56 57
3 58 0 56
3 58 40 0
3 59 40 58
3 59 9 40
3 217 59 218
3 219 218 16
3 217 218 219
3 60 220 222
3 220 59 221
3 220 221 222
3 60 9 59
3 60 20 9
3 61 20 60
3 61 1 20
3 223 61 224
3 62 225 227
3 225 61 226
3 225 226 227
3 62 1 61
3 62 30 1
3 63 30 62
3 63 4 30
3 228 63 229
3 64 230 232
3 230 63 231
3 230 231 232
3 64 4 63
3 64 233 235
3 235 234 4
3 233 234 235
3 237 236 64
