ply
format ascii 1.0
element vertex 328
property float x
property float y
property float z
property uchar red
property uchar green
property uchar blue
element face 338
property list uchar int vertex_index
end_header
26.9449 -89.0237 2.69054 183 0 0
26.5217 -78.316 3.66198 152 0 0
26.8545 -81.102 13.1719 204 255 51
24.8474 -74.5505 -4.77473 136 255 119
26.9343 -95.8533 -8.39301 239 0 0
24.8399 -90.4519 12.0271 118 255 137
24.6246 -98.4614 0.070719 253 255 2
23.1422 -104.366 -12.5201 144 255 111
24.3244 -69.6299 -4.58888 0 128 255
26.8987 -83.8606 3.4148 148 0 0
26.4789 -81.8943 -1.07921 172 0 0
27.0269 -87.1962 -1.7253 167 0 0
27.1639 -90.7026 -7.05521 221 255 34
27.0589 -92.6738 -2.75568 161 0 0
22.0529 -101.781 -1.9054 45 255 210
24.2343 -101.703 -6.16291 255 38 0
26.8985 -79.9663 8.43553 241 255 14
26.8107 -85.0555 8.10035 183 0 0
25.7922 -76.572 -0.732241 227 0 0
26.1786 -86.0716 12.7711 211 0 0
26.1974 -90.2359 7.30037 222 0 0
24.8258 -94.4903 6.16917 155 255 100
26.2958 -94.0037 1.61565 236 0 0
26.1659 -97.6148 -4.31425 216 0 0
25.6658 -100.558 -10.1543 228 0 0
26.9792 -86.4254 3.10706 137 0 0
26.9487 -85.5603 0.765136 155 0 0
27.0642 -88.3281 0.404296 145 0 0
27.1397 -90.0794 -2.12468 136 0 0
27.0022 -90.9988 0.08448 193 0 0
21.6878 -103.301 -4.96105 59 255 196
26.9261 -80.5694 10.9148 216 255 39
26.892 -82.4629 8.35268 165 0 0
26.7889 -83.2312 10.645 207 0 0
24.5153 -72.1017 -4.75457 85 255 170
26.3113 -75.5743 3.76084 216 255 39
25.9219 -74.7366 1.50375 180 255 75
26.1822 -77.3701 1.39245 197 0 0
26.5326 -83.5835 -3.49844 233 255 22
26.1148 -80.8465 -3.3057 181 255 74
27.1624 -93.3102 -7.78912 255 190 0
27.0485 -94.7852 -10.3819 56 255 199
26.752 -97.1002 -11.2674 183 255 72
24.9328 -88.3938 14.7079 26 255 229
25.6616 -86.3154 15.152 255 234 0
25.6192 -88.504 12.2183 255 28 0
26.1657 -88.1854 10.099 249 0 0
25.5886 -90.4212 9.72554 255 66 0
24.7862 -96.5436 3.03619 142 255 113
25.623 -94.4182 3.8893 240 0 0
25.5714 -96.3283 1.01523 255 17 0
26.2479 -95.8712 -1.17542 238 0 0
25.5367 -97.9801 -1.93459 255 4 0
23.734 -103.189 -9.28792 255 13 0
25.044 -101.222 -8.11306 255 8 0
24.5415 -102.648 -11.3756 247 0 0
25.1831 -101.762 -13.3199 180 255 75
23.9313 -103.661 -14.3993 26 255 229
24.7637 -70.5098 -2.80172 0 236 255
25.0064 -72.8906 -2.6688 232 255 23
26.7326 -81.1407 3.50395 140 0 0
26.4597 -79.9696 1.30796 164 0 0
26.7301 -82.7461 1.15153 159 0 0
26.7941 -84.5407 -1.23773 184 0 0
26.8956 -86.3969 -3.8609 255 150 0
26.9624 -87.9514 -6.5464 108 255 147
27.1263 -89.1075 -4.30654 128 0 0
27.1884 -91.813 -5.01773 152 0 0
27.0271 -94.4211 -5.61073 173 0 0
23.5083 -100.173 -0.812577 137 255 118
24.5472 -100.053 -3.00026 255 37 0
23.286 -101.731 -3.79181 255 17 0
22.9042 -103.242 -6.95697 255 242 0
22.2842 -104.643 -10.2749 42 255 213
26.6184 -76.4303 6.01126 99 255 156
26.7576 -79.1241 5.99312 255 123 0
26.8702 -81.8776 5.82285 130 0 0
26.9146 -84.4889 5.81558 151 0 0
26.8563 -87.1739 5.4841 165 0 0
25.4796 -73.9955 -0.738328 162 255 93
25.3272 -75.6603 -2.90343 247 0 0
26.1178 -79.2306 -1.03931 212 0 0
25.7248 -78.3612 -3.11774 255 221 0
25.2565 -77.2837 -5.13819 49 255 206
26.6553 -81.6493 15.6407 91 255 164
25.7745 -84.297 17.7066 0 175 255
26.2293 -84.1349 15.3045 255 214 0
26.5999 -83.5399 12.9543 198 0 0
26.5607 -85.7349 10.363 208 0 0
26.5806 -87.69 7.87978 194 0 0
26.6754 -89.537 5.06452 194 0 0
24.8845 -92.4269 9.0759 118 255 137
25.6216 -92.3425 6.94354 255 28 0
26.2518 -92.1149 4.53564 211 0 0
26.7203 -91.5319 2.36549 222 0 0
26.7475 -93.3998 -0.384517 225 0 0
26.7332 -95.1558 -3.28244 169 0 0
26.6371 -96.8745 -6.46164 220 0 0
25.2998 -99.7798 -5.04614 255 24 0
25.9657 -99.1759 -7.17921 255 7 0
26.4559 -98.2819 -9.25821 230 0 0
26.1463 -99.5073 -12.1647 197 255 58
26.8903 -80.8357 12.0434 0 0 223
26.9889 -79.4499 12.0677 0 0 181
26.9531 -79.7162 13.1963 0 0 181
24.5974 -74.0545 -5.77086 0 0 164
24.4313 -72.8301 -5.76078 0 0 164
24.6814 -73.3261 -4.76465 0 0 198
24.7857 -75.235 -5.90308 0 0 131
24.5974 -74.0545 -5.77086 0 0 131
26.3545 -83.0325 -4.53928 0 0 139
26.5818 -84.4393 -4.73088 0 0 139
24.7054 -97.5025 1.55346 0 0 205
24.2308 -97.4595 2.6504 0 0 169
24.1499 -98.4184 1.16767 0 0 169
22.7877 -104.77 -14.0154 0 0 166
23.1823 -104.417 -14.955 0 0 166
23.5367 -104.014 -13.4597 0 0 201
25.0017 -70.9477 -1.78533 0 0 131
24.9483 -69.7053 -1.7694 0 0 131
25.123 -72.1381 -1.71887 0 0 161
24.885 -71.7002 -2.73526 0 0 194
25.0017 -70.9477 -1.78533 0 0 161
22.1477 -100.938 -0.338191 0 0 135
21.3814 -101.583 -0.83909 0 0 135
22.7806 -100.977 -1.35899 0 0 214
22.8754 -100.134 0.20822 0 0 175
22.1477 -100.938 -0.338191 0 0 175
22.0361 -103.971 -7.55101 0 0 177
22.296 -103.272 -5.95901 0 0 217
21.4279 -104.001 -6.55305 0 0 177
21.7261 -104.672 -9.20998 0 0 179
22.5942 -103.942 -8.61593 0 0 220
22.0361 -103.971 -7.55101 0 0 179
21.391 -105.259 -10.8325 0 0 136
21.7261 -104.672 -9.20998 0 0 136
26.7134 -75.4731 7.21169 0 0 140
26.5559 -75.0904 5.99397 0 0 140
26.8777 -78.585 8.44605 0 0 140
26.946 -78.9677 9.61332 0 0 140
26.828 -79.5452 7.21433 0 0 233
26.8073 -78.1639 7.22484 0 0 187
26.8777 -78.585 8.44605 0 0 187
24.0937 -69.1134 -5.53089 0 0 128
24.2874 -68.4397 -4.57671 0 0 128
25.7246 -79.1508 -4.2466 0 0 169
25.9198 -79.6038 -3.21172 0 0 206
25.9196 -80.3934 -4.34058 0 0 169
25.4904 -78.612 -5.25683 0 0 174
25.4906 -77.8224 -4.12796 0 0 213
25.7246 -79.1508 -4.2466 0 0 174
25.246 -77.9803 -6.2214 0 0 134
25.4904 -78.612 -5.25683 0 0 134
27.0757 -90.0297 -8.01967 0 0 177
26.9749 -88.6541 -7.76526 0 0 177
27.0631 -89.327 -6.80081 0 0 218
26.505 -81.8129 16.8297 0 0 138
26.7338 -80.5609 16.9326 0 0 138
25.3879 -85.3649 17.557 0 0 132
25.5111 -84.2766 18.8203 0 0 132
24.3424 -94.4674 7.2407 0 0 134
24.3046 -95.484 5.7169 0 0 134
24.8552 -93.4586 7.62254 0 0 209
24.3717 -93.4357 8.69407 0 0 171
24.3424 -94.4674 7.2407 0 0 171
25.3639 -101.277 -14.26 0 0 134
24.8021 -102.277 -14.8835 0 0 134
21.1535 -102.386 -2.33659 0 0 176
21.3814 -101.583 -0.83909 0 0 176
20.4821 -102.188 -1.27028 0 0 136
20.971 -103.146 -3.86441 0 0 179
21.8703 -102.541 -3.43322 0 0 220
21.1535 -102.386 -2.33659 0 0 179
20.805 -103.857 -5.44383 0 0 137
20.971 -103.146 -3.86441 0 0 137
21.4279 -104.001 -6.55305 0 0 136
20.805 -103.857 -5.44383 0 0 136
26.9598 -79.2693 10.853 0 0 139
26.9889 -79.4499 12.0677 0 0 139
26.9123 -80.2678 9.67517 0 0 225
26.946 -78.9677 9.61332 0 0 182
26.9598 -79.2693 10.853 0 0 182
24.2778 -71.5806 -5.66617 0 0 161
24.1823 -70.3447 -5.58333 0 0 161
24.4198 -70.8658 -4.67172 0 0 193
24.2778 -71.5806 -5.66617 0 0 129
24.4313 -72.8301 -5.76078 0 0 129
26.1166 -75.1555 2.63229 0 0 219
26.0152 -73.7974 2.55153 0 0 178
26.2099 -74.2162 3.68007 0 0 178
26.1456 -81.664 -4.44291 0 0 177
26.3237 -82.215 -3.40207 0 0 217
26.3545 -83.0325 -4.53928 0 0 177
25.9196 -80.3934 -4.34058 0 0 134
26.1456 -81.664 -4.44291 0 0 134
27.1448 -92.699 -8.69275 0 0 172
27.1455 -91.3952 -8.3258 0 0 172
27.1632 -92.0064 -7.42217 0 0 209
27.0878 -93.4364 -9.98912 0 0 175
27.1448 -92.699 -8.69275 0 0 175
27.1055 -94.0477 -9.08548 0 0 214
27.0202 -94.1564 -11.4182 0 0 141
27.0878 -93.4364 -9.98912 0 0 141
26.9232 -95.4423 -11.8641 0 0 140
27.0202 -94.1564 -11.4182 0 0 140
26.7749 -96.5999 -12.3068 0 0 174
26.9232 -95.4423 -11.8641 0 0 174
26.9003 -95.9427 -10.8246 0 0 212
26.5361 -97.8177 -12.7911 0 0 138
26.7749 -96.5999 -12.3068 0 0 138
25.2972 -87.3546 14.9299 0 0 203
25.3315 -86.3741 16.2797 0 0 167
24.9671 -87.4133 16.0576 0 0 167
24.2848 -96.5106 4.15041 0 0 134
24.2308 -97.4595 2.6504 0 0 134
24.806 -95.517 4.60268 0 0 213
24.3046 -95.484 5.7169 0 0 174
24.2848 -96.5106 4.15041 0 0 174
24.1762 -103.226 -15.4232 0 0 173
24.8021 -102.277 -14.8835 0 0 173
24.5572 -102.712 -13.8596 0 0 212
23.4687 -104.074 -15.9234 0 0 134
24.1762 -103.226 -15.4232 0 0 134
22.7197 -104.83 -16.4792 0 0 131
23.4687 -104.074 -15.9234 0 0 165
23.1823 -104.417 -14.955 0 0 165
26.9201 -80.0638 14.4128 0 0 142
26.9531 -79.7162 13.1963 0 0 142
24.5129 -68.7672 -3.60427 0 0 128
24.2874 -68.4397 -4.57671 0 0 128
24.7325 -69.2071 -2.71069 0 0 131
24.9483 -69.7053 -1.7694 0 0 131
24.544 -70.0699 -3.6953 0 0 196
24.5129 -68.7672 -3.60427 0 0 163
24.7325 -69.2071 -2.71069 0 0 163
26.7633 -85.846 -4.91211 0 0 182
26.5818 -84.4393 -4.73088 0 0 182
26.7141 -84.9902 -3.67967 0 0 225
26.929 -87.1741 -5.20365 0 0 223
26.7967 -86.6232 -6.25486 0 0 181
26.7633 -85.846 -4.91211 0 0 181
24.5277 -88.3622 15.7698 0 0 129
24.9671 -87.4133 16.0576 0 0 129
24.4305 -89.3958 14.4398 0 0 132
24.5277 -88.3622 15.7698 0 0 132
24.3841 -90.4248 13.0994 0 0 168
24.8863 -89.4229 13.3675 0 0 204
24.4305 -89.3958 14.4398 0 0 168
23.5918 -99.2741 0.726018 0 0 136
22.8754 -100.134 0.20822 0 0 136
24.0664 -99.3171 -0.370929 0 0 202
24.1499 -98.4184 1.16767 0 0 167
23.5918 -99.2741 0.726018 0 0 167
21.8535 -105.208 -11.9259 0 0 176
22.2825 -105.069 -13.0485 0 0 176
22.7132 -104.505 -11.3975 0 0 216
21.8535 -105.208 -11.9259 0 0 135
21.391 -105.259 -10.8325 0 0 135
26.4024 -74.6625 4.86876 0 0 139
26.2099 -74.2162 3.68007 0 0 139
26.4648 -76.0023 4.88605 0 0 218
26.4024 -74.6625 4.86876 0 0 178
26.5559 -75.0904 5.99397 0 0 178
26.7377 -76.817 7.23391 0 0 141
26.7134 -75.4731 7.21169 0 0 141
26.688 -77.7772 6.00219 0 0 230
26.7377 -76.817 7.23391 0 0 185
26.8073 -78.1639 7.22484 0 0 185
23.9516 -69.8282 -6.52534 0 0 129
24.0937 -69.1134 -5.53089 0 0 162
24.1823 -70.3447 -5.58333 0 0 162
25.8105 -73.4807 1.43749 0 0 134
26.0152 -73.7974 2.55153 0 0 134
25.5893 -73.1101 0.316456 0 0 172
25.8105 -73.4807 1.43749 0 0 172
25.7008 -74.3661 0.382709 0 0 210
25.3597 -72.6906 -0.753631 0 0 135
25.5893 -73.1101 0.316456 0 0 135
25.243 -73.443 -1.70356 0 0 200
25.123 -72.1381 -1.71887 0 0 165
25.3597 -72.6906 -0.753631 0 0 165
24.9902 -76.6017 -6.08481 0 0 175
24.7857 -75.235 -5.90308 0 0 175
25.0519 -75.9171 -4.95646 0 0 214
24.9902 -76.6017 -6.08481 0 0 135
25.246 -77.9803 -6.2214 0 0 135
26.8204 -87.3193 -7.52209 0 0 137
26.7967 -86.6232 -6.25486 0 0 137
26.8204 -87.3193 -7.52209 0 0 136
26.9749 -88.6541 -7.76526 0 0 136
27.0757 -90.0297 -8.01967 0 0 137
27.1455 -91.3952 -8.3258 0 0 137
26.8205 -80.3374 15.6472 0 0 142
26.7338 -80.5609 16.9326 0 0 142
26.7549 -81.3756 14.4063 0 0 228
26.9201 -80.0638 14.4128 0 0 184
26.8205 -80.3374 15.6472 0 0 184
25.8655 -83.1913 19.0358 0 0 167
25.6021 -83.1709 20.1495 0 0 132
25.5111 -84.2766 18.8203 0 0 167
26.0645 -83.1367 17.8626 0 0 135
25.8655 -83.1913 19.0358 0 0 135
25.7181 -85.3062 16.4293 0 0 205
25.3879 -85.3649 17.557 0 0 169
25.3315 -86.3741 16.2797 0 0 169
26.292 -83.0557 16.6616 0 0 176
26.0645 -83.1367 17.8626 0 0 176
26.0019 -84.2159 16.5055 0 0 215
26.4423 -82.8921 15.4726 0 0 220
26.505 -81.8129 16.8297 0 0 179
26.292 -83.0557 16.6616 0 0 179
24.3832 -91.4048 11.6616 0 0 131
24.3841 -90.4248 13.0994 0 0 131
24.4055 -92.3923 10.186 0 0 135
24.3717 -93.4357 8.69407 0 0 135
24.8622 -91.4394 10.5515 0 0 204
24.3832 -91.4048 11.6616 0 0 168
24.4055 -92.3923 10.186 0 0 168
26.2333 -99.0212 -13.2398 0 0 180
26.5361 -97.8177 -12.7911 0 0 180
26.4492 -98.3038 -11.7161 0 0 222
25.8455 -100.149 -13.6824 0 0 174
25.6647 -100.635 -12.7423 0 0 213
25.3639 -101.277 -14.26 0 0 174
26.2333 -99.0212 -13.2398 0 0 137
25.8455 -100.149 -13.6824 0 0 137
22.7877 -104.77 -14.0154 0 0 134
22.2825 -105.069 -13.0485 0 0 134
3 0 27 25
3 0 29 27
3 2 102 104
3 102 31 103
3 102 103 104
3 2 33 31
3 3 105 107
3 107 106 34
3 105 106 107
3 3 108 109
3 1 37 35
3 111 110 38
3 4 41 40
3 4 42 41
3 5 45 43
3 5 47 45
3 6 112 114
3 112 48 113
3 112 113 114
3 6 50 48
3 6 52 50
3 7 55 53
3 7 57 55
3 7 115 117
3 117 116 57
3 115 116 117
3 118 58 119
3 120 59 121
3 122 121 58
3 120 121 122
3 9 62 60
3 11 63 26
3 11 64 63
3 11 66 64
3 13 67 28
3 13 68 67
3 14 123 124
3 14 125 127
3 125 69 126
3 125 126 127
3 14 71 69
3 128 72 129
3 130 129 30
3 128 129 130
3 131 73 132
3 133 132 72
3 131 132 133
3 135 134 73
3 136 74 137
3 16 138 139
3 16 140 142
3 140 75 141
3 140 141 142
3 16 76 75
3 17 77 32
3 17 78 77
3 8 143 144
3 18 79 36
3 18 80 79
3 10 81 61
3 145 82 146
3 147 146 39
3 145 146 147
3 148 83 149
3 150 149 82
3 148 149 150
3 152 151 83
3 12 153 155
3 155 154 65
3 153 154 155
3 156 84 157
3 158 85 159
3 19 86 44
3 19 87 86
3 19 88 87
3 20 89 46
3 20 90 89
3 21 160 161
3 21 162 164
3 162 91 163
3 162 163 164
3 21 92 91
3 22 93 49
3 22 94 93
3 22 95 94
3 23 96 51
3 23 97 96
3 15 98 70
3 24 99 54
3 24 100 99
3 24 101 100
3 166 165 56
3 25 26 9
3 27 26 25
3 27 11 26
3 27 28 11
3 29 28 27
3 29 13 28
3 167 14 168
3 167 168 169
3 170 30 171
3 172 171 14
3 170 171 172
3 173 30 174
3 176 175 30
3 31 177 178
3 31 179 181
3 179 16 180
3 179 180 181
3 31 32 16
3 33 32 31
3 33 17 32
3 34 182 184
3 184 183 8
3 182 183 184
3 186 185 34
3 35 187 189
3 187 36 188
3 187 188 189
3 37 36 35
3 37 18 36
3 38 39 10
3 190 39 191
3 192 191 38
3 190 191 192
3 194 193 39
3 40 195 197
3 197 196 12
3 195 196 197
3 41 198 200
3 200 199 40
3 198 199 200
3 41 201 202
3 41 203 204
3 42 205 207
3 207 206 41
3 205 206 207
3 42 208 209
3 43 210 212
3 210 44 211
3 210 211 212
3 45 44 43
3 45 19 44
3 45 46 19
3 47 46 45
3 47 20 46
3 48 213 214
3 48 215 217
3 215 21 216
3 215 216 217
3 48 49 21
3 50 49 48
3 50 22 49
3 50 51 22
3 52 51 50
3 52 23 51
3 53 54 15
3 55 54 53
3 55 24 54
3 55 56 24
3 57 56 55
3 57 218 220
3 220 219 56
3 218 219 220
3 57 221 222
3 225 224 57
3 223 224 225
3 226 2 227
3 228 8 229
3 58 230 231
3 58 232 234
3 232 8 233
3 232 233 234
3 58 34 8
3 59 34 58
3 59 3 34
3 60 61 1
3 62 61 60
3 62 10 61
3 26 62 9
3 63 62 26
3 63 10 62
3 63 38 10
3 64 38 63
3 64 235 237
3 237 236 38
3 235 236 237
3 64 238 240
3 238 65 239
3 238 239 240
3 66 65 64
3 66 12 65
3 28 66 11
3 67 66 28
3 67 12 66
3 67 40 12
3 68 40 67
3 68 4 40
3 241 43 242
3 243 43 244
3 245 5 246
3 247 246 43
3 245 246 247
3 69 248 249
3 69 250 252
3 250 6 251
3 250 251 252
3 69 70 6
3 71 70 69
3 71 15 70
3 30 71 14
3 72 71 30
3 72 15 71
3 72 53 15
3 73 53 72
3 73 7 53
3 73 253 255
3 255 254 7
3 253 254 255
3 257 256 73
3 258 35 259
3 74 260 262
3 260 35 261
3 260 261 262
3 74 1 35
3 263 74 264
3 75 265 267
3 265 74 266
3 265 266 267
3 75 1 74
3 75 60 1
3 76 60 75
3 76 9 60
3 32 76 16
3 77 76 32
3 77 9 76
3 77 25 9
3 78 25 77
3 78 0 25
3 270 269 8
3 268 269 270
3 36 271 272
3 79 273 275
3 275 274 36
3 273 274 275
3 79 276 277
3 79 278 280
3 278 59 279
3 278 279 280
3 80 59 79
3 80 3 59
3 61 37 1
3 81 37 61
3 81 18 37
3 39 81 10
3 82 81 39
3 82 18 81
3 82 80 18
3 83 80 82
3 83 3 80
3 83 281 283
3 283 282 3
3 281 282 283
3 285 284 83
3 65 286 287
3 289 288 65
3 291 290 12
3 84 292 293
3 84 294 296
3 294 2 295
3 294 295 296
3 85 297 299
3 297 298 299
3 85 300 301
3 44 302 304
3 302 85 303
3 302 303 304
3 86 85 44
3 86 305 307
3 307 306 85
3 305 306 307
3 86 308 310
3 308 84 309
3 308 309 310
3 87 84 86
3 87 2 84
3 87 33 2
3 88 33 87
3 88 17 33
3 46 88 19
3 89 88 46
3 89 17 88
3 89 78 17
3 90 78 89
3 90 0 78
3 311 5 312
3 91 313 314
3 91 315 317
3 315 5 316
3 315 316 317
3 91 47 5
3 92 47 91
3 92 20 47
3 49 92 21
3 93 92 49
3 93 20 92
3 93 90 20
3 94 90 93
3 94 0 90
3 94 29 0
3 95 29 94
3 95 13 29
3 51 95 22
3 96 95 51
3 96 13 95
3 96 68 13
3 97 68 96
3 97 4 68
3 70 52 6
3 98 52 70
3 98 23 52
3 54 98 15
3 99 98 54
3 99 23 98
3 99 97 23
3 100 97 99
3 100 4 97
3 100 42 4
3 101 42 100
3 101 318 320
3 320 319 42
3 318 319 320
3 56 101 24
3 321 101 322
3 323 322 56
3 321 322 323
3 325 324 101
3 327 326 7
