ply
format ascii 1.0
element vertex 173
property float x
property float y
property float z
property uchar red
property uchar green
property uchar blue
element face 158
property list uchar int vertex_index
end_header
15.0287 -93.2453 5.34538 224 255 31
8.1371 -94.4886 -6.3789 0 243 255
12.3351 -101.93 3.66822 0 90 255
16.79 -98.3636 -9.20994 1 255 254
13.7361 -98.4226 4.72303 255 27 0
15.3915 -100.638 -3.05269 255 240 0
18.0557 -95.3112 -1.84794 164 0 0
14.2089 -91.3962 -2.30415 255 157 0
5.34136 -91.2738 -5.88785 0 150 255
8.4866 -95.9803 7.62439 0 114 255
13.7571 -94.9296 -7.07373 121 255 134
14.7955 -95.9175 5.57143 255 43 0
16.6191 -96.9854 2.02133 128 0 0
17.072 -94.1385 1.92286 216 0 0
14.8668 -102.565 -0.020944 0 113 255
16.3806 -99.4669 -6.27501 255 223 0
16.2959 -101.151 -6.75541 0 194 255
16.7147 -100.208 -9.71162 0 97 255
10.93 -93.0498 -4.61572 255 222 0
13.7787 -93.1891 -4.63078 255 135 0
10.5336 -95.0874 -6.48627 36 255 219
12.3726 -100.506 3.80845 133 255 122
13.8847 -101.541 0.141094 160 255 95
15.0084 -99.6189 1.04825 245 0 0
17.0885 -98.3476 -2.17334 146 0 0
17.777 -97.0358 -5.89126 255 26 0
14.2192 -91.1904 4.92436 0 169 255
16.2148 -91.6656 1.4858 255 115 0
14.5934 -90.3669 1.52479 14 255 241
12.1244 -90.9768 -1.68224 65 255 190
8.92126 -92.3432 -3.69717 111 255 144
7.61783 -91.3902 -2.4948 0 203 255
6.47298 -93.0552 -6.25307 9 255 246
10.7118 -99.488 7.04239 0 222 255
11.717 -97.2609 7.49757 150 255 105
11.9214 -94.9639 7.09398 51 255 204
15.6389 -101.925 -3.56272 0 186 255
17.7113 -101.362 -6.7134 0 49 255
16.7459 -92.6473 -2.13694 255 39 0
16.7796 -94.1799 -5.21799 255 29 0
16.501 -95.789 -8.66344 104 255 151
13.6009 -102.248 1.82364 0 0 178
14.2827 -102.508 1.9163 0 0 157
13.0169 -102.19 3.76088 0 0 157
16.9386 -98.726 -10.7385 0 0 153
16.901 -99.6482 -10.9893 0 0 153
16.7523 -99.2858 -9.46078 0 0 172
14.0726 -90.2621 3.31071 0 0 146
14.4063 -90.7786 3.22458 0 0 162
13.8855 -90.6739 5.01049 0 0 146
11.1454 -90.7436 -0.832605 0 0 147
12.4743 -90.3233 0.17476 0 0 147
9.54381 -91.4267 -1.84007 0 0 189
10.5229 -91.66 -2.68971 0 0 226
11.1454 -90.7436 -0.832605 0 0 189
6.47959 -91.332 -4.19132 0 0 209
7.15576 -90.2925 -2.98183 0 0 178
6.01753 -90.2343 -4.67835 0 0 178
5.33491 -91.7715 -7.76371 0 0 170
5.90072 -92.6622 -7.94632 0 0 170
5.90717 -92.1645 -6.07046 0 0 197
9.87602 -99.3409 8.80293 0 0 138
10.7143 -100.306 7.06027 0 0 138
10.1018 -96.6206 7.56098 0 0 197
10.3868 -97.3129 8.50673 0 0 170
8.77158 -96.6726 8.57014 0 0 170
17.8689 -101.18 -8.29306 0 0 147
17.0036 -101.257 -6.7344 0 0 164
17.1612 -101.075 -8.31407 0 0 147
19.0535 -101.068 -8.01138 0 0 142
17.8689 -101.18 -8.29306 0 0 142
4.7928 -89.6003 -5.7773 0 0 153
6.01753 -90.2343 -4.67835 0 0 153
4.92995 -90.538 -7.36731 0 0 153
4.7928 -89.6003 -5.7773 0 0 153
7.52555 -95.7084 8.7608 0 0 139
8.77158 -96.6726 8.57014 0 0 139
15.8844 -102.382 0.191745 0 0 145
14.2827 -102.508 1.9163 0 0 145
16.1744 -102.154 -1.70113 0 0 144
15.8844 -102.382 0.191745 0 0 144
17.3706 -100.603 -9.79217 0 0 149
17.1612 -101.075 -8.31407 0 0 149
16.5053 -100.68 -8.23351 0 0 166
17.7809 -100.276 -11.162 0 0 131
17.3706 -100.603 -9.79217 0 0 131
17.7809 -100.276 -11.162 0 0 137
16.901 -99.6482 -10.9893 0 0 137
8.30548 -94.8536 -7.68395 0 0 137
7.35453 -94.2248 -7.73083 0 0 137
13.7088 -90.0183 1.77828 0 0 137
14.0726 -90.2621 3.31071 0 0 137
13.3589 -90.6719 -0.078722 0 0 197
13.7088 -90.0183 1.77828 0 0 170
12.4743 -90.3233 0.17476 0 0 170
8.49405 -90.0464 -1.48009 0 0 149
7.15576 -90.2925 -2.98183 0 0 149
8.8921 -90.9502 -1.23888 0 0 141
8.49405 -90.0464 -1.48009 0 0 141
8.26954 -91.8667 -3.09598 0 0 194
9.54381 -91.4267 -1.84007 0 0 168
8.8921 -90.9502 -1.23888 0 0 168
6.52247 -93.5081 -7.66791 0 0 160
7.35453 -94.2248 -7.73083 0 0 160
7.30504 -93.7719 -6.31598 0 0 182
6.52247 -93.5081 -7.66791 0 0 138
5.90072 -92.6622 -7.94632 0 0 138
5.33491 -91.7715 -7.76371 0 0 147
4.92995 -90.538 -7.36731 0 0 147
11.9854 -101.984 5.48994 0 0 134
13.0169 -102.19 3.76088 0 0 134
11.5259 -101.528 5.37318 0 0 132
11.9854 -101.984 5.48994 0 0 132
11.5447 -100.816 5.4433 0 0 153
12.3539 -101.218 3.73833 0 0 171
11.5259 -101.528 5.37318 0 0 153
11.5422 -99.997 5.42542 0 0 179
11.5447 -100.816 5.4433 0 0 157
10.7143 -100.306 7.06027 0 0 157
9.88416 -98.4264 8.27914 0 0 142
9.87602 -99.3409 8.80293 0 0 142
11.2144 -98.3745 7.26998 0 0 201
9.88416 -98.4264 8.27914 0 0 172
10.3868 -97.3129 8.50673 0 0 172
6.92186 -94.8468 7.63666 0 0 147
7.52555 -95.7084 8.7608 0 0 147
8.22166 -95.0477 6.86906 0 0 142
6.92186 -94.8468 7.63666 0 0 142
9.93903 -94.5395 6.60386 0 0 178
10.204 -95.4721 7.35919 0 0 209
8.22166 -95.0477 6.86906 0 0 178
11.6784 -93.8691 6.66164 0 0 147
9.93903 -94.5395 6.60386 0 0 147
13.232 -93.0098 5.78734 0 0 177
13.475 -94.1046 6.21968 0 0 208
11.6784 -93.8691 6.66164 0 0 177
12.8273 -91.9824 5.57683 0 0 169
14.624 -92.2179 5.13487 0 0 196
13.232 -93.0098 5.78734 0 0 169
12.606 -91.0684 5.68591 0 0 138
12.8273 -91.9824 5.57683 0 0 138
13.8855 -90.6739 5.01049 0 0 128
12.606 -91.0684 5.68591 0 0 128
16.5605 -101.834 -3.47201 0 0 163
16.1744 -102.154 -1.70113 0 0 163
15.2528 -102.245 -1.79183 0 0 187
17.5967 -101.552 -5.04736 0 0 159
16.5605 -101.834 -3.47201 0 0 159
16.6751 -101.644 -5.13806 0 0 182
18.6242 -100.644 -6.47607 0 0 143
17.5967 -101.552 -5.04736 0 0 143
18.6242 -100.644 -6.47607 0 0 142
19.0535 -101.068 -8.01138 0 0 142
9.50374 -95.153 -7.73764 0 0 162
9.33536 -94.788 -6.43258 0 0 185
8.30548 -94.8536 -7.68395 0 0 162
10.8649 -95.6494 -7.746 0 0 142
9.50374 -95.153 -7.73764 0 0 142
12.4767 -95.5705 -8.03973 0 0 176
12.1454 -95.0085 -6.78 0 0 207
10.8649 -95.6494 -7.746 0 0 176
13.6756 -95.6877 -8.49704 0 0 143
12.4767 -95.5705 -8.03973 0 0 143
15.0475 -96.1173 -9.29189 0 0 180
15.129 -95.3593 -7.86859 0 0 212
13.6756 -95.6877 -8.49704 0 0 180
16.1226 -96.4462 -9.99483 0 0 142
15.0475 -96.1173 -9.29189 0 0 142
16.2671 -97.7335 -10.2681 0 0 162
16.6455 -97.0763 -8.93669 0 0 186
16.1226 -96.4462 -9.99483 0 0 162
16.9386 -98.726 -10.7385 0 0 138
16.2671 -97.7335 -10.2681 0 0 138
3 0 13 11
3 2 41 43
3 41 14 42
3 41 42 43
3 3 17 15
3 3 44 46
3 46 45 17
3 44 45 46
3 1 20 18
3 4 23 21
3 6 24 12
3 6 25 24
3 47 28 48
3 49 48 26
3 47 48 49
3 50 29 51
3 52 30 53
3 54 53 29
3 52 53 54
3 8 55 57
3 55 31 56
3 55 56 57
3 8 32 31
3 8 58 60
3 60 59 32
3 58 59 60
3 61 33 62
3 9 63 65
3 63 34 64
3 63 64 65
3 9 35 34
3 5 36 22
3 66 37 67
3 68 67 16
3 66 67 68
3 70 69 37
3 7 38 27
3 10 39 19
3 10 40 39
3 11 12 4
3 13 12 11
3 13 6 12
3 71 8 72
3 74 73 8
3 75 9 76
3 14 77 78
3 14 79 80
3 15 16 5
3 17 16 15
3 17 81 83
3 83 82 16
3 81 82 83
3 17 84 85
3 87 86 17
3 18 19 7
3 20 19 18
3 20 10 19
3 21 22 2
3 23 22 21
3 23 5 22
3 12 23 4
3 24 23 12
3 24 5 23
3 24 15 5
3 25 15 24
3 25 3 15
3 89 88 1
3 26 27 0
3 28 27 26
3 28 7 27
3 90 28 91
3 29 92 94
3 92 28 93
3 92 93 94
3 29 7 28
3 29 18 7
3 30 18 29
3 30 1 18
3 31 95 96
3 31 97 98
3 31 99 101
3 99 30 100
3 99 100 101
3 32 30 31
3 32 1 30
3 32 102 104
3 104 103 1
3 102 103 104
3 106 105 32
3 108 107 8
3 109 2 110
3 111 2 112
3 113 21 114
3 115 114 2
3 113 114 115
3 33 116 118
3 116 21 117
3 116 117 118
3 33 4 21
3 119 33 120
3 34 121 123
3 121 33 122
3 121 122 123
3 34 4 33
3 34 11 4
3 35 11 34
3 35 0 11
3 124 9 125
3 126 9 127
3 128 35 129
3 130 129 9
3 128 129 130
3 131 35 132
3 133 0 134
3 135 134 35
3 133 134 135
3 136 26 137
3 138 137 0
3 136 137 138
3 139 26 140
3 142 141 26
3 22 14 2
3 36 14 22
3 36 143 145
3 145 144 14
3 143 144 145
3 16 36 5
3 37 36 16
3 37 146 148
3 148 147 36
3 146 147 148
3 37 149 150
3 152 151 37
3 27 13 0
3 38 13 27
3 38 6 13
3 19 38 7
3 39 38 19
3 39 6 38
3 39 25 6
3 40 25 39
3 40 3 25
3 153 20 154
3 155 154 1
3 153 154 155
3 156 20 157
3 158 10 159
3 160 159 20
3 158 159 160
3 161 10 162
3 163 40 164
3 165 164 10
3 163 164 165
3 166 40 167
3 168 3 169
3 170 169 40
3 168 169 170
3 172 171 3
