ply
format ascii 1.0
element vertex 166
property float x
property float y
property float z
property uchar red
property uchar green
property uchar blue
element face 137
property list uchar int vertex_index
end_header
58.9359 -40.8814 -4.96806 106 255 149
62.6754 -26.1489 -12.1401 255 12 0
59.8253 -33.6094 -9.29092 128 0 0
62.3007 -37.675 -6.23864 255 227 0
59.4877 -21.4529 -14.0835 243 255 12
57.3875 -29.6024 -10.9992 128 255 127
64.5898 -29.9836 -10.1355 0 249 255
64.7691 -42.6077 -3.42721 0 178 255
56.902 -38.5262 -5.61698 111 255 144
58.7221 -36.9182 -6.20868 255 168 0
60.7285 -39.423 -5.67045 169 0 0
58.3282 -25.8112 -13.0009 255 78 0
56.6897 -23.6106 -13.5558 255 112 0
61.2375 -23.6637 -13.3581 172 0 0
62.743 -34.001 -8.15944 165 255 90
62.2949 -31.6768 -9.64276 255 179 0
64.824 -23.9759 -12.5882 0 212 255
56.4004 -33.0765 -9.70072 129 255 126
57.5615 -35.1503 -8.0503 250 255 5
60.734 -35.6154 -7.32331 242 0 0
63.64 -36.158 -6.95413 0 221 255
55.1026 -21.7735 -14.1422 57 255 198
60.0889 -27.9237 -11.8131 255 81 0
58.901 -31.3514 -10.3335 255 145 0
61.559 -29.552 -10.6647 201 0 0
64.1573 -27.9193 -10.9378 161 255 94
63.3075 -43.7903 -2.0002 0 156 255
62.4044 -41.8383 -4.08899 248 255 7
63.8113 -40.3985 -4.86805 107 255 148
57.9189 -39.7038 -5.29252 0 0 242
55.9314 -39.2809 -5.30125 0 0 199
56.9484 -40.4585 -4.97678 0 0 199
63.7761 -33.2127 -8.52812 0 0 140
63.785 -34.4167 -8.0822 0 0 140
56.4423 -35.7255 -7.29058 0 0 155
55.7591 -34.9376 -8.26642 0 0 155
58.582 -20.4468 -14.5139 0 0 221
56.3894 -20.6071 -14.5433 0 0 221
57.2951 -21.6132 -14.1128 0 20 255
64.2667 -22.7152 -12.9612 0 0 135
65.1868 -23.2075 -13.1677 0 0 135
56.5524 -28.683 -11.5669 0 0 159
55.2981 -29.5451 -10.9767 0 0 159
58.7382 -28.7631 -11.4061 0 2 255
57.9031 -27.8437 -11.9739 0 0 208
56.5524 -28.683 -11.5669 0 0 208
65.2719 -29.3954 -10.7171 0 0 154
65.0557 -28.3632 -11.1182 0 0 154
64.3735 -28.9515 -10.5367 0 0 175
64.0383 -43.199 -2.71371 0 0 179
64.0135 -44.34 -1.97724 0 0 156
64.7443 -43.7487 -2.69075 0 0 156
55.0198 -38.1564 -5.53566 0 0 151
55.9314 -39.2809 -5.30125 0 0 151
56.1126 -37.4134 -6.07392 0 0 155
55.0198 -38.1564 -5.53566 0 0 155
57.8121 -37.7222 -5.91283 0 0 226
57.0227 -36.6094 -6.36977 0 0 188
56.1126 -37.4134 -6.07392 0 0 188
57.5089 -24.7109 -13.2784 0 25 255
55.2694 -24.7357 -13.1334 0 0 224
56.0886 -25.8359 -12.856 0 0 224
56.1025 -30.4021 -10.5021 0 0 155
55.2981 -29.5451 -10.9767 0 0 155
63.552 -32.0505 -9.26977 0 0 181
62.5189 -32.8389 -8.9011 0 0 217
63.7761 -33.2127 -8.52812 0 0 181
64.6995 -31.204 -9.51616 0 0 184
63.4423 -30.8302 -9.88914 0 0 220
63.552 -32.0505 -9.26977 0 0 184
65.2792 -30.6964 -10.3154 0 0 135
64.6995 -31.204 -9.51616 0 0 135
64.9133 -43.3102 -3.72568 0 0 130
64.7443 -43.7487 -2.69075 0 0 130
65.1234 -41.9976 -4.15299 0 0 128
64.9133 -43.3102 -3.72568 0 0 128
65.2051 -25.1968 -12.2105 0 0 189
63.7497 -25.0624 -12.3642 0 0 228
64.1308 -26.2833 -11.9864 0 0 189
65.4278 -24.6559 -13.0264 0 0 133
65.2051 -25.1968 -12.2105 0 0 133
65.1868 -23.2075 -13.1677 0 0 133
65.4278 -24.6559 -13.0264 0 0 133
55.1786 -33.9008 -9.09162 0 0 155
54.363 -32.9648 -9.41845 0 0 155
56.981 -34.1134 -8.87551 0 0 255
55.1786 -33.9008 -9.09162 0 0 207
55.7591 -34.9376 -8.26642 0 0 207
58.1418 -36.0342 -7.12949 0 0 240
56.4423 -35.7255 -7.29058 0 0 197
57.0227 -36.6094 -6.36977 0 0 197
64.2335 -35.4952 -7.47954 0 0 160
63.785 -34.4167 -8.0822 0 0 160
63.1915 -35.0795 -7.55679 0 0 184
57.9728 -41.453 -4.55853 0 0 149
56.9484 -40.4585 -4.97678 0 0 149
54.5408 -23.7136 -13.3026 0 0 162
55.2694 -24.7357 -13.1334 0 0 162
53.7472 -22.795 -13.5958 0 0 208
54.5408 -23.7136 -13.3026 0 0 208
55.8961 -22.6921 -13.849 0 1 255
53.1659 -21.7667 -14.3304 0 0 163
53.7472 -22.795 -13.5958 0 0 163
54.3901 -20.7781 -14.9315 0 0 163
53.1659 -21.7667 -14.3304 0 0 163
54.3901 -20.7781 -14.9315 0 0 166
56.3894 -20.6071 -14.5433 0 0 166
62.4735 -22.5591 -13.3461 0 0 209
63.0307 -23.8198 -12.9731 0 3 255
64.2667 -22.7152 -12.9612 0 0 209
61.5986 -21.4537 -13.7088 0 0 216
60.3626 -22.5583 -13.7208 0 13 255
62.4735 -22.5591 -13.3461 0 0 216
60.7654 -20.1974 -14.1023 0 0 170
61.5986 -21.4537 -13.7088 0 0 170
58.582 -20.4468 -14.5139 0 0 166
60.7654 -20.1974 -14.1023 0 0 166
57.0227 -26.7874 -12.5678 0 0 161
56.0886 -25.8359 -12.856 0 0 161
59.2086 -26.8675 -12.407 0 20 255
57.0227 -26.7874 -12.5678 0 0 220
57.9031 -27.8437 -11.9739 0 0 220
55.609 -32.1392 -9.85286 0 0 152
54.363 -32.9648 -9.41845 0 0 152
56.8593 -31.2766 -10.1692 0 0 194
55.609 -32.1392 -9.85286 0 0 194
57.6507 -32.2139 -10.0171 0 0 236
58.1442 -30.4769 -10.6663 0 0 236
56.1025 -30.4021 -10.5021 0 0 194
56.8593 -31.2766 -10.1692 0 0 194
64.8718 -27.1685 -11.3853 0 0 172
64.1308 -26.2833 -11.9864 0 0 172
63.4163 -27.0341 -11.539 0 0 203
64.8718 -27.1685 -11.3853 0 0 134
65.0557 -28.3632 -11.1182 0 0 134
65.2719 -29.3954 -10.7171 0 0 134
65.2792 -30.6964 -10.3154 0 0 134
59.6236 -42.0097 -4.07924 0 0 151
57.9728 -41.453 -4.55853 0 0 151
63.561 -44.823 -0.850621 0 0 136
64.0135 -44.34 -1.97724 0 0 136
62.2592 -44.3394 -1.30141 0 0 151
63.561 -44.823 -0.850621 0 0 151
61.8094 -43.4641 -2.59531 0 0 155
62.2592 -44.3394 -1.30141 0 0 155
61.3578 -42.4881 -3.6397 0 0 192
61.8094 -43.4641 -2.59531 0 0 192
62.856 -42.8143 -3.04459 0 0 232
60.6701 -41.3599 -4.52852 0 0 244
59.6236 -42.0097 -4.07924 0 0 200
61.3578 -42.4881 -3.6397 0 0 200
64.6445 -40.893 -4.87341 0 0 153
64.2902 -41.5031 -4.14763 0 0 175
65.1234 -41.9976 -4.15299 0 0 153
64.3193 -39.5738 -5.41695 0 0 134
64.6445 -40.893 -4.87341 0 0 134
63.564 -38.212 -6.10224 0 0 177
63.056 -39.0368 -5.55334 0 0 211
64.3193 -39.5738 -5.41695 0 0 177
64.2337 -37.4536 -6.45999 0 0 173
62.9703 -36.9165 -6.59638 0 0 204
63.564 -38.212 -6.10224 0 0 173
64.3649 -36.8449 -7.11363 0 0 130
64.2337 -37.4536 -6.45999 0 0 130
64.2335 -35.4952 -7.47954 0 0 133
64.3649 -36.8449 -7.11363 0 0 133
3 0 29 31
3 29 8 30
3 29 30 31
3 0 10 8
3 1 13 11
3 33 32 14
3 34 18 35
3 3 19 9
3 3 20 19
3 4 21 12
3 4 36 38
3 38 37 21
3 36 37 38
3 40 39 16
3 5 41 42
3 5 43 45
3 43 22 44
3 43 44 45
3 2 23 17
3 6 24 15
3 6 25 24
3 6 46 48
3 48 47 25
3 46 47 48
3 7 49 51
3 49 26 50
3 49 50 51
3 7 27 26
3 7 28 27
3 8 52 53
3 8 54 55
3 8 56 58
3 56 9 57
3 56 57 58
3 10 9 8
3 10 3 9
3 11 59 61
3 59 12 60
3 59 60 61
3 13 12 11
3 13 4 12
3 62 5 63
3 14 15 2
3 64 15 65
3 66 65 14
3 64 65 66
3 67 6 68
3 69 68 15
3 67 68 69
3 71 70 6
3 72 7 73
3 75 74 7
3 76 16 77
3 78 77 1
3 76 77 78
3 79 16 80
3 82 81 16
3 83 17 84
3 18 85 87
3 85 17 86
3 85 86 87
3 18 2 17
3 9 88 90
3 88 18 89
3 88 89 90
3 19 18 9
3 19 2 18
3 19 14 2
3 20 14 19
3 20 91 93
3 93 92 14
3 91 92 93
3 94 0 95
3 12 96 97
3 21 98 100
3 100 99 12
3 98 99 100
3 21 101 102
3 21 103 104
3 106 105 21
3 16 13 1
3 107 13 108
3 109 108 16
3 107 108 109
3 110 4 111
3 112 111 13
3 110 111 112
3 113 4 114
3 116 115 4
3 117 11 118
3 22 119 121
3 119 11 120
3 119 120 121
3 22 1 11
3 17 122 123
3 23 124 126
3 126 125 17
3 124 125 126
3 23 127 129
3 127 5 128
3 127 128 129
3 15 23 2
3 24 23 15
3 24 5 23
3 24 22 5
3 25 22 24
3 25 1 22
3 25 130 132
3 132 131 1
3 130 131 132
3 134 133 25
3 136 135 6
3 137 0 138
3 26 139 140
3 26 141 142
3 26 143 144
3 27 145 147
3 147 146 26
3 145 146 147
3 27 148 150
3 148 0 149
3 148 149 150
3 27 10 0
3 28 10 27
3 28 3 10
3 151 28 152
3 153 152 7
3 151 152 153
3 154 28 155
3 156 3 157
3 158 157 28
3 156 157 158
3 159 20 160
3 161 160 3
3 159 160 161
3 162 20 163
3 165 164 20
