ply
format ascii 1.0
element vertex 457
property float x
property float y
property float z
property uchar red
property uchar green
property uchar blue
element face 411
property list uchar int vertex_index
end_header
11.5547 2.1925 39.7874 228 255 27
5.14771 10.2413 35.5621 239 0 0
9.39855 2.63575 67.212 0 245 255
7.35794 6.91492 60.8356 11 255 244
14.5028 -2.49716 68.0922 78 255 177
4.89742 -2.29095 39.7594 0 177 255
11.3249 11.958 43.3167 196 255 59
18.4913 -0.37766 66.343 0 225 255
7.41097 0.167195 40.5713 155 255 100
9.89249 10.6106 47.3207 94 255 161
12.0265 8.12426 37.7734 255 60 0
8.28815 6.3471 38.165 251 0 0
8.74089 11.8943 35.3527 255 214 0
5.75733 15.489 32.529 0 154 255
8.8553 -2.64006 67.3603 255 138 0
6.50723 -0.88789 65.3346 255 137 0
6.94239 0.81694 61.6364 128 0 0
7.70694 2.86417 56.6947 148 255 107
7.756 3.33863 52.4675 188 255 67
10.4945 -5.69672 68.7537 0 177 255
12.0212 0.143233 67.0267 177 255 78
5.18814 -8.25551 39.898 0 55 255
4.61391 4.19711 38.3218 165 0 0
8.99605 4.58345 48.4981 122 255 133
11.5681 5.95324 45.2226 165 0 0
13.6081 6.97684 41.3003 255 14 0
13.1041 12.7884 39.6744 28 255 227
9.58991 1.11668 39.8754 170 255 85
12.4625 10.7631 36.5942 112 255 143
10.5866 9.76538 36.3541 255 45 0
10.8239 12.3437 35.038 36 255 219
8.85718 0.018414 68.1368 255 192 0
7.43712 -1.5058 66.6438 255 139 0
7.21841 0.935308 67.7128 167 255 88
6.31879 2.86521 64.0013 255 207 0
6.93216 4.07571 61.4417 255 28 0
7.68568 2.12315 59.3914 255 99 0
7.24441 4.86009 58.5498 255 128 0
7.07619 5.20479 56.1248 141 255 114
12.4196 -4.10031 68.8885 36 255 219
11.5105 -2.50021 68.766 255 210 0
13.4091 -1.10381 67.8288 255 128 0
4.96612 -5.30373 40.0223 0 69 255
6.57923 8.57947 37.4865 226 0 0
6.23061 5.41166 38.7391 191 0 0
4.8929 7.30716 37.0215 189 0 0
7.52787 6.53573 51.507 220 255 35
8.05253 3.77702 50.2545 200 255 55
8.33211 7.08754 49.5545 253 255 2
10.1831 11.4039 45.3404 187 255 68
10.1958 8.31523 46.0875 228 0 0
11.7355 8.96141 44.3129 157 0 0
12.9262 6.51288 43.3816 210 0 0
12.9439 9.57959 42.4816 236 0 0
13.48 9.9624 40.505 255 42 0
12.4149 12.4346 41.5986 145 255 110
16.8657 -3.39147 66.2936 0 145 255
16.5403 -1.31679 67.0139 178 255 77
15.3335 0.055147 66.237 192 255 63
17.4497 1.22607 65.2965 0 241 255
5.76481 -0.894868 40.8169 72 255 183
5.222 11.1353 32.7477 82 255 173
4.87813 8.41291 34.223 229 255 26
9.79471 9.70303 49.1418 0 250 255
11.7183 5.139 38.8012 255 61 0
9.94315 4.11997 38.7294 255 27 0
10.0426 7.17701 37.7345 255 60 0
8.54557 9.12529 36.825 255 12 0
6.73118 11.4301 35.9102 255 30 0
6.72191 14.2387 34.6857 110 255 145
5.54 12.943 34.064 220 255 35
9.25017 -5.89338 66.0092 32 255 223
8.72897 -4.21854 64.8547 163 255 92
7.87008 -3.14019 63.8421 99 255 156
7.47771 -2.52678 62.4921 70 255 185
6.18445 1.69221 66.1739 178 255 77
6.32718 -0.262497 63.4402 255 11 0
7.41805 -1.95821 60.9324 112 255 143
7.83212 -0.829351 59.3641 73 255 182
7.61418 3.09666 54.6009 121 255 134
6.93149 5.72898 53.6659 189 255 66
9.98389 -4.04607 67.9455 125 255 130
10.3032 -1.09719 68.2856 255 226 0
10.7582 1.46847 66.8325 57 255 198
14.006 1.18215 65.2246 28 255 227
5.29582 -11.0345 39.7087 0 42 255
8.00421 3.20384 39.3119 180 0 0
5.81696 2.19704 40.0526 255 15 0
4.55266 0.950882 39.357 255 224 0
4.85949 5.54673 35.4948 255 228 0
4.78817 2.36927 36.5907 196 255 59
12.6702 1.41046 41.2756 12 255 243
9.20988 7.63505 47.8492 255 109 0
10.0125 5.26044 46.9966 255 219 0
11.6184 2.84386 46.1059 77 255 178
12.6157 3.47555 44.2526 178 255 77
13.2235 3.93681 42.2318 255 237 0
12.9399 4.50204 40.2004 255 70 0
13.2463 7.38181 39.3157 255 63 0
13.3489 10.343 38.4475 228 255 27
10.5723 1.65459 39.8314 0 0 207
10.2483 0.310356 40.4808 0 0 173
11.2307 0.848265 40.4368 0 0 173
11.717 12.8314 35.26 0 0 173
11.6432 11.5534 35.8161 0 0 207
12.5364 12.0411 36.0381 0 0 173
7.14505 5.49532 61.1386 0 0 245
6.89062 5.0619 62.5008 0 0 199
7.10351 6.4815 62.1977 0 0 199
7.53445 7.14667 59.5842 0 0 186
7.47768 6.11925 58.4413 0 0 186
7.30118 5.8875 59.6927 0 0 226
13.7198 -4.17035 68.301 0 0 141
14.6636 -3.48975 67.6824 0 0 141
13.4612 -3.29873 68.4904 0 0 199
12.6782 -4.97192 68.6992 0 0 168
13.7198 -4.17035 68.301 0 0 168
4.93177 -3.79734 39.8909 0 0 188
5.47109 -4.56215 40.459 0 0 161
5.43673 -3.05576 40.3276 0 0 161
4.75495 -3.08421 38.6408 0 0 197
4.7893 -4.5906 38.7722 0 0 197
4.93177 -3.79734 39.8909 0 0 243
8.86891 8.01719 50.3689 0 0 178
7.92999 6.81163 50.5307 0 0 215
8.46679 7.74129 51.3452 0 0 178
17.6785 -1.88456 66.3183 0 0 196
17.7456 -3.11355 66.0377 0 0 166
18.5584 -1.60665 66.0624 0 0 166
7.39169 -1.2454 40.9123 0 0 134
8.16422 -0.746057 40.8482 0 0 134
6.58789 -0.363837 40.6941 0 0 196
6.56861 -1.77643 41.0351 0 0 166
7.39169 -1.2454 40.9123 0 0 166
5.19626 10.1473 32.0644 0 0 147
5.19154 11.5178 31.3438 0 0 147
6.23962 14.8638 33.6073 0 0 195
6.79797 15.4861 33.9324 0 0 165
6.31568 16.1113 32.854 0 0 165
5.65483 14.6108 31.8515 0 0 184
5.54616 13.3378 32.619 0 0 184
5.64867 14.216 33.2965 0 0 223
6.4459 3.37501 66.0511 0 0 143
6.97803 2.77927 66.7113 0 0 143
8.17377 1.61217 57.0985 0 0 190
8.16313 1.24166 58.4468 0 0 190
7.69631 2.49366 58.0431 0 0 233
8.4115 1.95146 56.0769 0 0 140
8.17377 1.61217 57.0985 0 0 140
7.66056 2.98041 55.6478 0 0 203
8.36512 2.06771 55.03 0 0 170
8.4115 1.95146 56.0769 0 0 170
7.49882 6.69187 54.7838 0 0 187
7.00384 5.46688 54.8953 0 0 228
7.57117 6.42977 56.0132 0 0 187
7.7628 6.99871 53.5666 0 0 151
7.49882 6.69187 54.7838 0 0 151
9.72749 -7.09393 68.65 0 0 128
10.6689 -6.44114 68.9071 0 0 128
9.76257 -6.48478 68.0733 0 0 132
9.72749 -7.09393 68.65 0 0 132
10.2392 -4.8714 68.3496 0 0 197
9.50725 -5.65946 67.6692 0 0 166
9.76257 -6.48478 68.0733 0 0 166
15.09 1.80851 64.6393 0 0 176
14.6697 0.618649 65.7308 0 0 211
15.7537 1.24501 65.1455 0 0 176
5.95922 -8.936 40.141 0 0 134
5.72603 -7.55124 40.4632 0 0 134
5.24198 -9.64499 39.8033 0 0 190
6.01305 -10.3255 40.0464 0 0 162
5.95922 -8.936 40.141 0 0 162
4.76258 -9.00719 38.9888 0 0 174
4.81642 -10.3967 38.8941 0 0 174
5.24198 -9.64499 39.8033 0 0 208
4.89565 5.95682 34.0133 0 0 200
4.86881 6.97982 34.8589 0 0 247
4.90496 7.38991 33.3774 0 0 200
4.55306 1.47585 35.3564 0 0 160
4.75518 2.97619 35.0434 0 0 160
4.7675 0.75505 36.903 0 0 164
4.55306 1.47585 35.3564 0 0 164
12.8024 1.1665 42.2429 0 0 137
12.2119 0.102727 41.9019 0 0 137
8.77342 2.41981 51.9455 0 0 141
8.57506 2.30574 52.9781 0 0 141
9.52788 3.15881 49.0184 0 0 184
9.05611 2.75559 49.8966 0 0 184
8.52429 4.18024 49.3763 0 0 223
9.76772 3.43194 48.1991 0 0 138
9.52788 3.15881 49.0184 0 0 138
13.2466 12.9009 38.5899 0 0 177
13.369 11.6782 37.9765 0 0 177
13.2265 11.5657 39.0609 0 0 213
19.411 -0.003792 66.0548 0 0 138
18.5584 -1.60665 66.0624 0 0 138
18.966 1.01108 65.8814 0 0 135
19.411 -0.003792 66.0548 0 0 135
9.25369 -0.271312 40.5002 0 0 140
10.2483 0.310356 40.4808 0 0 140
8.50044 0.64194 40.2234 0 0 218
8.16422 -0.746057 40.8482 0 0 180
9.25369 -0.271312 40.5002 0 0 180
5.77007 16.8014 31.8086 0 0 136
6.31568 16.1113 32.854 0 0 136
5.71354 15.8945 31.0885 0 0 146
5.77007 16.8014 31.8086 0 0 146
6.58393 4.45664 63.7806 0 0 151
6.51307 3.96151 64.9648 0 0 151
6.62548 3.47046 62.7215 0 0 254
6.58393 4.45664 63.7806 0 0 204
6.89062 5.0619 62.5008 0 0 204
7.39357 6.2916 57.2288 0 0 184
7.1603 5.03244 57.3373 0 0 223
7.47768 6.11925 58.4413 0 0 184
7.57117 6.42977 56.0132 0 0 146
7.39357 6.2916 57.2288 0 0 146
11.6314 -5.64293 68.9745 0 0 135
12.6782 -4.97192 68.6992 0 0 135
11.4571 -4.89851 68.8211 0 0 173
10.6689 -6.44114 68.9071 0 0 150
11.6314 -5.64293 68.9745 0 0 150
5.61502 -6.07535 40.5253 0 0 134
5.47109 -4.56215 40.459 0 0 134
5.07713 -6.77962 39.9601 0 0 195
5.72603 -7.55124 40.4632 0 0 165
5.61502 -6.07535 40.5253 0 0 165
4.80487 -6.01614 38.8755 0 0 191
4.91588 -7.49203 38.8133 0 0 191
5.07713 -6.77962 39.9601 0 0 234
4.80487 -6.01614 38.8755 0 0 149
4.7893 -4.5906 38.7722 0 0 149
8.58508 3.25104 67.2304 0 0 143
9.70715 4.08014 66.6812 0 0 143
7.26308 8.05194 61.6676 0 0 155
7.10351 6.4815 62.1977 0 0 155
7.51569 8.26575 60.47 0 0 145
7.26308 8.05194 61.6676 0 0 145
16.729 -4.38841 65.4576 0 0 137
17.7456 -3.11355 66.0377 0 0 137
15.8691 -4.76515 66.0171 0 0 142
16.729 -4.38841 65.4576 0 0 142
15.8451 -3.9369 66.7832 0 0 141
15.8691 -4.76515 66.0171 0 0 141
15.6824 -2.89957 67.1433 0 0 175
15.8451 -3.9369 66.7832 0 0 175
16.703 -2.35413 66.6538 0 0 210
15.5216 -1.90698 67.5531 0 0 211
14.6636 -3.48975 67.6824 0 0 176
15.6824 -2.89957 67.1433 0 0 176
16.8118 1.83048 64.6753 0 0 176
15.7537 1.24501 65.1455 0 0 176
16.3916 0.64061 65.7667 0 0 212
18.4452 1.81295 65.3582 0 0 169
17.9705 0.424206 65.8197 0 0 201
18.966 1.01108 65.8814 0 0 169
17.7738 2.61495 64.8064 0 0 140
18.4452 1.81295 65.3582 0 0 140
16.8118 1.83048 64.6753 0 0 139
17.7738 2.61495 64.8064 0 0 139
5.87043 -2.35772 40.8564 0 0 134
6.56861 -1.77643 41.0351 0 0 134
5.33111 -1.59291 40.2882 0 0 187
5.43673 -3.05576 40.3276 0 0 160
5.87043 -2.35772 40.8564 0 0 160
5.02433 8.78612 32.802 0 0 190
5.05006 9.77411 33.4853 0 0 233
5.19626 10.1473 32.0644 0 0 190
4.90496 7.38991 33.3774 0 0 151
5.02433 8.78612 32.802 0 0 151
10.1876 10.7991 49.8999 0 0 144
9.60021 9.32494 50.1626 0 0 144
9.98239 11.1284 48.6985 0 0 147
10.1876 10.7991 49.8999 0 0 147
10.0313 11.5822 47.788 0 0 162
9.8436 10.1568 48.2313 0 0 190
9.98239 11.1284 48.6985 0 0 162
9.77837 11.9633 46.7834 0 0 136
10.0313 11.5822 47.788 0 0 136
9.92367 12.3599 45.7933 0 0 165
10.0378 11.0072 46.3306 0 0 194
9.77837 11.9633 46.7834 0 0 165
9.95524 12.7093 44.8262 0 0 134
9.92367 12.3599 45.7933 0 0 134
10.5261 12.9864 43.8143 0 0 183
10.754 11.6809 44.3286 0 0 221
9.95524 12.7093 44.8262 0 0 183
10.9703 13.2868 42.8735 0 0 141
10.5261 12.9864 43.8143 0 0 141
10.8963 13.7189 34.4249 0 0 142
11.717 12.8314 35.26 0 0 142
9.82465 13.4353 34.6505 0 0 146
10.8963 13.7189 34.4249 0 0 146
8.78316 13.2106 34.8078 0 0 180
9.78237 12.119 35.1954 0 0 218
9.82465 13.4353 34.6505 0 0 180
7.77367 14.3828 34.4743 0 0 144
6.79797 15.4861 33.9324 0 0 144
7.7314 13.0665 35.0192 0 0 220
8.78316 13.2106 34.8078 0 0 182
7.77367 14.3828 34.4743 0 0 182
5.38716 12.434 31.9609 0 0 186
5.381 12.0391 33.4058 0 0 226
5.54616 13.3378 32.619 0 0 186
5.19154 11.5178 31.3438 0 0 145
5.38716 12.434 31.9609 0 0 145
5.65483 14.6108 31.8515 0 0 145
5.71354 15.8945 31.0885 0 0 145
8.98372 -6.9318 65.005 0 0 147
8.65185 -7.49114 65.9105 0 0 147
8.72312 -6.09437 64.4277 0 0 183
8.98372 -6.9318 65.005 0 0 183
8.98957 -5.05596 65.432 0 0 222
8.88824 -5.46416 63.6276 0 0 151
8.72312 -6.09437 64.4277 0 0 151
8.4588 -4.92499 63.1213 0 0 181
8.88824 -5.46416 63.6276 0 0 181
8.29952 -3.67937 64.3484 0 0 219
8.28345 -4.40534 62.4723 0 0 146
8.4588 -4.92499 63.1213 0 0 146
8.08726 -4.09863 61.7973 0 0 176
8.28345 -4.40534 62.4723 0 0 176
7.6739 -2.83349 63.1671 0 0 211
7.92428 -3.77534 61.1481 0 0 140
8.08726 -4.09863 61.7973 0 0 140
7.49501 2.40082 67.4808 0 0 176
8.30848 1.78553 67.4624 0 0 211
8.58508 3.25104 67.2304 0 0 176
6.70143 1.31376 66.9434 0 0 211
7.49501 2.40082 67.4808 0 0 176
6.97803 2.77927 66.7113 0 0 176
6.25162 2.27871 65.0876 0 0 241
6.4459 3.37501 66.0511 0 0 196
6.51307 3.96151 64.9648 0 0 196
7.89445 -3.49106 60.3682 0 0 177
7.92428 -3.77534 61.1481 0 0 177
7.44788 -2.24249 61.7123 0 0 213
7.76187 -3.06826 59.759 0 0 137
7.89445 -3.49106 60.3682 0 0 137
7.96891 -2.50383 58.9748 0 0 186
7.76187 -3.06826 59.759 0 0 186
7.62509 -1.39378 60.1482 0 0 226
8.22681 -1.93551 58.3238 0 0 141
7.96891 -2.50383 58.9748 0 0 141
8.23636 -0.234592 58.4332 0 0 183
7.7589 0.646901 59.3777 0 0 221
8.16313 1.24166 58.4468 0 0 183
8.22681 -1.93551 58.3238 0 0 151
8.23636 -0.234592 58.4332 0 0 151
8.50415 2.18476 54.0448 0 0 138
8.36512 2.06771 55.03 0 0 138
7.68509 3.21765 53.5342 0 0 211
8.57506 2.30574 52.9781 0 0 176
8.50415 2.18476 54.0448 0 0 176
8.06099 7.40208 52.4872 0 0 186
7.22968 6.13236 52.5864 0 0 226
7.7628 6.99871 53.5666 0 0 186
8.46679 7.74129 51.3452 0 0 148
8.06099 7.40208 52.4872 0 0 148
7.53445 7.14667 59.5842 0 0 147
7.51569 8.26575 60.47 0 0 147
9.1404 -6.58311 66.7011 0 0 138
8.65185 -7.49114 65.9105 0 0 138
9.61703 -4.96973 66.9774 0 0 209
9.1404 -6.58311 66.7011 0 0 175
9.50725 -5.65946 67.6692 0 0 175
14.3164 2.41922 64.2193 0 0 143
15.09 1.80851 64.6393 0 0 143
13.2936 1.85896 65.0738 0 0 141
14.3164 2.41922 64.2193 0 0 141
12.3012 1.3395 65.9748 0 0 177
13.0136 0.662692 66.1257 0 0 213
13.2936 1.85896 65.0738 0 0 177
11.6698 2.00211 65.8777 0 0 172
11.3897 0.80585 66.9296 0 0 205
12.3012 1.3395 65.9748 0 0 172
11.0223 2.73474 66.0968 0 0 140
11.6698 2.00211 65.8777 0 0 140
10.3424 3.31838 66.2866 0 0 171
10.0784 2.05211 67.0222 0 0 204
11.0223 2.73474 66.0968 0 0 171
9.70715 4.08014 66.6812 0 0 144
10.3424 3.31838 66.2866 0 0 144
6.21047 -11.7282 39.7438 0 0 136
6.01305 -10.3255 40.0464 0 0 136
5.43954 -12.6116 39.7626 0 0 140
6.21047 -11.7282 39.7438 0 0 140
4.80042 -11.9207 39.1992 0 0 137
5.43954 -12.6116 39.7626 0 0 137
4.80042 -11.9207 39.1992 0 0 138
4.81642 -10.3967 38.8941 0 0 138
4.76258 -9.00719 38.9888 0 0 146
4.91588 -7.49203 38.8133 0 0 146
4.79084 4.56492 34.4955 0 0 153
4.89565 5.95682 34.0133 0 0 153
4.82383 3.958 36.0428 0 12 255
4.79084 4.56492 34.4955 0 0 213
4.75518 2.97619 35.0434 0 0 213
4.64975 0.045855 38.2861 0 0 208
4.67041 1.66008 37.9738 0 4 255
4.7675 0.75505 36.903 0 0 208
4.82212 -1.57506 38.4873 0 0 203
4.72504 -0.670034 39.5582 0 0 252
4.64975 0.045855 38.2861 0 0 203
4.75495 -3.08421 38.6408 0 0 152
4.82212 -1.57506 38.4873 0 0 152
11.7884 0.457242 41.1809 0 0 135
12.2119 0.102727 41.9019 0 0 135
12.1124 1.80148 40.5315 0 0 204
11.2307 0.848265 40.4368 0 0 171
11.7884 0.457242 41.1809 0 0 171
8.92168 2.639 50.839 0 0 186
8.77342 2.41981 51.9455 0 0 186
7.90426 3.55783 51.361 0 0 226
8.92168 2.639 50.839 0 0 140
9.05611 2.75559 49.8966 0 0 140
9.06341 8.39528 49.3481 0 0 215
8.86891 8.01719 50.3689 0 0 179
9.60021 9.32494 50.1626 0 0 179
10.276 3.77044 47.4483 0 0 174
9.76772 3.43194 48.1991 0 0 174
9.50429 4.92195 47.7474 0 0 208
11.0789 2.56215 47.003 0 0 185
10.276 3.77044 47.4483 0 0 185
10.8155 4.05215 46.5513 0 0 225
11.7293 1.42001 46.5087 0 0 142
11.0789 2.56215 47.003 0 0 142
12.1112 1.65573 45.6527 0 0 138
11.7293 1.42001 46.5087 0 0 138
12.6098 1.97158 44.7261 0 0 180
12.1112 1.65573 45.6527 0 0 180
12.1171 3.15971 45.1793 0 0 217
12.7752 2.19905 43.7315 0 0 141
12.6098 1.97158 44.7261 0 0 141
13.0791 2.42967 42.7211 0 0 180
12.7752 2.19905 43.7315 0 0 180
12.9196 3.70618 43.2422 0 0 217
12.9468 2.67363 41.7537 0 0 210
12.8024 1.1665 42.2429 0 0 175
13.0791 2.42967 42.7211 0 0 175
12.9258 11.8882 37.0498 0 0 172
12.9057 10.5531 37.5208 0 0 205
13.369 11.6782 37.9765 0 0 172
12.5364 12.0411 36.0381 0 0 139
12.9258 11.8882 37.0498 0 0 139
11.5152 13.5251 42.0144 0 0 178
11.8699 12.1963 42.4576 0 0 214
10.9703 13.2868 42.8735 0 0 178
12.1267 13.7928 41.1718 0 0 143
11.5152 13.5251 42.0144 0 0 143
12.4713 13.9697 40.2097 0 0 177
12.7595 12.6115 40.6365 0 0 212
12.1267 13.7928 41.1718 0 0 177
12.9767 14.1601 39.1904 0 0 144
12.4713 13.9697 40.2097 0 0 144
13.2466 12.9009 38.5899 0 0 143
12.9767 14.1601 39.1904 0 0 143
3 0 100 102
3 100 27 101
3 100 101 102
3 103 30 104
3 105 104 28
3 103 104 105
3 2 33 31
3 3 106 108
3 106 35 107
3 106 107 108
3 3 37 35
3 3 109 111
3 111 110 37
3 109 110 111
3 4 112 113
3 4 114 116
3 114 39 115
3 114 115 116
3 4 41 39
3 5 117 119
3 117 42 118
3 117 118 119
3 5 120 122
3 122 121 42
3 120 121 122
3 1 45 43
3 123 48 124
3 125 124 46
3 123 124 125
3 6 51 49
3 6 53 51
3 6 55 53
3 7 126 128
3 126 56 127
3 126 127 128
3 7 57 56
3 7 59 57
3 8 129 130
3 8 131 133
3 131 60 132
3 131 132 133
3 135 134 61
3 10 66 64
3 12 67 29
3 12 68 67
3 13 136 138
3 136 69 137
3 136 137 138
3 13 70 69
3 13 139 141
3 141 140 70
3 139 140 141
3 14 72 71
3 15 73 32
3 15 74 73
3 142 75 143
3 16 76 34
3 16 77 76
3 16 78 77
3 17 144 146
3 146 145 36
3 144 145 146
3 17 147 148
3 17 149 151
3 149 79 150
3 149 150 151
3 152 80 153
3 154 153 38
3 152 153 154
3 156 155 80
3 19 157 158
3 19 159 160
3 19 161 163
3 161 81 162
3 161 162 163
3 20 82 40
3 20 83 82
3 164 84 165
3 166 165 58
3 164 165 166
3 21 167 168
3 21 169 171
3 169 85 170
3 169 170 171
3 21 172 174
3 174 173 85
3 172 173 174
3 11 86 65
3 22 87 44
3 22 88 87
3 175 89 176
3 177 176 62
3 175 176 177
3 178 90 179
3 181 180 90
3 182 91 183
3 18 184 185
3 23 186 188
3 188 187 47
3 186 187 188
3 23 189 190
3 9 92 63
3 24 93 50
3 24 94 93
3 24 95 94
3 25 96 52
3 25 97 96
3 25 98 97
3 26 99 54
3 26 191 193
3 193 192 99
3 191 192 193
3 194 7 195
3 197 196 7
3 27 198 199
3 27 200 202
3 200 8 201
3 200 201 202
3 28 29 10
3 30 29 28
3 30 12 29
3 203 13 204
3 206 205 13
3 31 32 14
3 33 32 31
3 33 15 32
3 207 34 208
3 35 209 211
3 209 34 210
3 209 210 211
3 35 16 34
3 35 36 16
3 37 36 35
3 37 17 36
3 37 38 17
3 212 38 213
3 214 213 37
3 212 213 214
3 216 215 38
3 39 217 218
3 39 219 221
3 219 19 220
3 219 220 221
3 39 40 19
3 41 40 39
3 41 20 40
3 42 222 223
3 42 224 226
3 224 21 225
3 224 225 226
3 42 227 229
3 229 228 21
3 227 228 229
3 231 230 42
3 43 44 11
3 45 44 43
3 45 22 44
3 46 47 18
3 48 47 46
3 48 23 47
3 49 50 9
3 51 50 49
3 51 24 50
3 51 52 24
3 53 52 51
3 53 25 52
3 53 54 25
3 55 54 53
3 55 26 54
3 233 232 2
3 234 3 235
3 237 236 3
3 56 238 239
3 56 240 241
3 56 242 243
3 57 244 246
3 246 245 56
3 244 245 246
3 57 247 249
3 247 4 248
3 247 248 249
3 57 58 4
3 59 58 57
3 59 250 252
3 252 251 58
3 250 251 252
3 253 59 254
3 255 254 7
3 253 254 255
3 256 59 257
3 259 258 59
3 60 260 261
3 60 262 264
3 262 5 263
3 262 263 264
3 61 62 1
3 265 62 266
3 267 266 61
3 265 266 267
3 269 268 62
3 270 63 271
3 272 63 273
3 274 9 275
3 276 275 63
3 274 275 276
3 277 9 278
3 279 49 280
3 281 280 9
3 279 280 281
3 282 49 283
3 284 6 285
3 286 285 49
3 284 285 286
3 288 287 6
3 64 65 0
3 66 65 64
3 66 11 65
3 29 66 10
3 67 66 29
3 67 11 66
3 67 43 11
3 68 43 67
3 68 1 43
3 289 30 290
3 291 30 292
3 293 12 294
3 295 294 30
3 293 294 295
3 69 296 297
3 69 298 300
3 298 12 299
3 298 299 300
3 69 68 12
3 70 68 69
3 70 1 68
3 70 61 1
3 301 61 302
3 303 302 70
3 301 302 303
3 305 304 61
3 307 306 13
3 71 308 309
3 72 310 312
3 312 311 71
3 310 311 312
3 72 313 314
3 32 72 14
3 73 72 32
3 73 315 317
3 317 316 72
3 315 316 317
3 73 318 319
3 74 320 322
3 322 321 73
3 320 321 322
3 74 323 324
3 325 33 326
3 327 326 2
3 325 326 327
3 75 328 330
3 328 33 329
3 328 329 330
3 75 15 33
3 34 331 333
3 331 75 332
3 331 332 333
3 76 75 34
3 76 15 75
3 76 74 15
3 77 74 76
3 77 334 336
3 336 335 74
3 334 335 336
3 77 337 338
3 78 339 341
3 341 340 77
3 339 340 341
3 78 342 343
3 36 78 16
3 344 78 345
3 346 345 36
3 344 345 346
3 348 347 78
3 79 349 350
3 79 351 353
3 351 18 352
3 351 352 353
3 38 79 17
3 80 79 38
3 80 18 79
3 80 46 18
3 354 46 355
3 356 355 80
3 354 355 356
3 358 357 46
3 360 359 3
3 361 71 362
3 81 363 365
3 363 71 364
3 363 364 365
3 81 14 71
3 40 81 19
3 82 81 40
3 82 14 81
3 82 31 14
3 83 31 82
3 83 2 31
3 58 41 4
3 84 41 58
3 84 20 41
3 366 84 367
3 368 84 369
3 370 20 371
3 372 371 84
3 370 371 372
3 373 83 374
3 375 374 20
3 373 374 375
3 376 83 377
3 378 2 379
3 380 379 83
3 378 379 380
3 382 381 2
3 85 383 384
3 85 385 386
3 85 387 388
3 390 389 85
3 392 391 21
3 65 27 0
3 86 27 65
3 86 8 27
3 44 86 11
3 87 86 44
3 87 8 86
3 87 60 8
3 88 60 87
3 88 5 60
3 62 45 1
3 89 45 62
3 89 22 45
3 393 89 394
3 90 395 397
3 395 89 396
3 395 396 397
3 90 22 89
3 90 88 22
3 398 88 399
3 400 399 90
3 398 399 400
3 401 5 402
3 403 402 88
3 401 402 403
3 405 404 5
3 91 406 407
3 91 408 410
3 408 0 409
3 408 409 410
3 47 411 413
3 413 412 18
3 411 412 413
3 415 414 47
3 63 416 418
3 416 48 417
3 416 417 418
3 92 48 63
3 92 23 48
3 50 92 9
3 93 92 50
3 93 23 92
3 93 419 421
3 421 420 23
3 419 420 421
3 94 422 424
3 424 423 93
3 422 423 424
3 94 425 426
3 94 427 428
3 95 429 431
3 431 430 94
3 429 430 431
3 95 432 433
3 52 95 24
3 96 95 52
3 96 434 436
3 436 435 95
3 434 435 436
3 96 437 439
3 437 91 438
3 437 438 439
3 97 91 96
3 97 0 91
3 97 64 0
3 98 64 97
3 98 10 64
3 54 98 25
3 99 98 54
3 99 10 98
3 99 28 10
3 440 28 441
3 442 441 99
3 440 441 442
3 444 443 28
3 445 55 446
3 447 446 6
3 445 446 447
3 448 55 449
3 450 26 451
3 452 451 55
3 450 451 452
3 453 26 454
3 456 455 26
