ply
format ascii 1.0
element vertex 233
property float x
property float y
property float z
property uchar red
property uchar green
property uchar blue
element face 233
property list uchar int vertex_index
end_header
32.71 32.6337 30.191 167 0 0
30.967 24.2705 37.7479 255 185 0
32.2031 16.4922 31.7758 255 92 0
30.3859 19.8773 40.824 0 237 255
30.5776 16.9016 37.9718 3 255 252
33.8413 36.3915 25.7095 246 255 9
33.82 28.3201 27.0486 154 0 0
31.7141 28.2512 34.3188 255 48 0
32.5243 24.4142 31.1274 255 28 0
31.4295 20.7332 34.7587 255 116 0
30.9683 12.9947 35.2666 0 234 255
33.5692 19.9213 28.2305 60 255 195
30.3485 22.1446 47.6335 0 50 255
30.3455 21.5617 44.0193 0 234 255
32.7037 40.7755 29.1052 255 249 0
31.8908 36.0934 33.6418 255 27 0
31.2395 31.352 37.5414 255 72 0
30.6961 26.3346 41.1863 255 182 0
33.2821 34.6605 27.906 128 0 0
33.8337 32.4423 26.4575 157 0 0
33.2201 30.4252 28.6394 163 0 0
31.3239 26.2124 36.0361 255 126 0
31.6168 24.4558 34.4113 255 110 0
31.1594 22.5206 36.2499 255 159 0
30.7456 15.1245 36.6266 33 255 222
32.3888 20.4565 31.4631 255 63 0
33.0503 22.5103 29.5837 255 15 0
32.8534 18.3575 30.0856 255 253 0
31.901 39.946 33.3061 200 255 55
31.6107 37.4744 35.3284 155 255 100
31.5478 33.6706 35.6512 255 57 0
31.3234 35.1012 37.4142 155 255 100
30.8274 29.7802 41.291 101 255 154
30.6365 27.185 43.0098 66 255 189
30.4983 23.8687 42.7009 255 242 0
30.4782 24.5062 44.5084 21 255 234
30.6516 21.978 39.3047 255 236 0
30.7823 20.4524 37.8411 255 229 0
30.4603 18.4756 39.3387 0 248 255
34.494 34.1541 24.1361 132 255 123
34.4562 29.9536 25.0275 245 255 10
34.4261 25.5113 25.6866 111 255 144
31.9341 12.5595 32.1699 0 252 255
32.5986 13.8919 30.5296 20 255 235
32.1944 30.5859 32.2956 220 0 0
32.624 28.5337 30.7328 218 0 0
32.0804 26.395 32.6895 255 25 0
31.9635 22.4495 32.9274 255 80 0
31.7774 18.5133 33.2449 255 86 0
30.9702 18.8181 36.4298 255 208 0
31.2065 16.8615 35.0538 255 139 0
31.5609 14.8209 33.5301 199 255 56
33.1287 26.3851 29.226 221 0 0
33.7131 24.0946 27.6993 255 188 0
30.3445 21.8501 45.7869 0 103 255
33.2179 38.8248 27.4033 255 235 0
32.7221 36.6181 29.716 131 0 0
32.2627 42.3967 30.9013 118 255 137
32.2678 38.3442 31.5087 172 0 0
32.2574 34.5687 31.8997 238 0 0
31.8463 32.3867 33.8964 255 28 0
31.4558 29.9946 35.8532 255 84 0
31.1025 27.7391 37.7411 255 143 0
31.0613 32.5835 39.4206 148 255 107
30.9446 28.8758 39.4602 255 117 0
30.8131 25.5047 39.3752 255 205 0
30.563 23.1783 40.8847 255 252 0
30.3487 20.8038 42.3205 0 232 255
31.4868 38.1185 36.2783 0 0 147
31.6048 39.4775 35.2498 0 0 147
31.3432 36.9319 37.3212 0 0 182
31.467 36.2878 36.3713 0 0 219
31.4868 38.1185 36.2783 0 0 182
30.6158 27.5459 43.9585 0 0 142
30.6939 28.9903 43.0667 0 0 142
30.5366 26.2065 44.7077 0 0 171
30.5573 25.8456 43.7591 0 0 203
30.6158 27.5459 43.9585 0 0 171
34.1677 35.2728 24.9228 0 0 241
34.4656 36.2009 23.7296 0 0 196
34.1393 37.3196 24.5163 0 0 196
32.1359 11.2196 31.5097 0 0 141
31.7805 10.6089 32.3557 0 0 141
31.1335 12.0077 34.545 0 0 172
31.4298 12.9208 33.6767 0 0 172
31.2646 13.9078 34.3984 0 0 205
33.9311 20.6452 27.2881 0 0 186
34.0031 22.7319 27.0225 0 0 186
33.6411 22.008 27.9649 0 0 225
32.9619 14.8391 29.6663 0 0 143
32.8512 12.7513 29.8348 0 0 143
30.3927 23.774 48.0156 0 0 142
30.3378 22.1387 48.6727 0 0 142
30.4123 23.7341 47.0135 0 0 140
30.3927 23.774 48.0156 0 0 140
30.3465 21.9973 46.7102 0 0 204
30.4103 23.5869 46.0902 0 0 171
30.4123 23.7341 47.0135 0 0 171
32.9608 39.8002 28.2543 0 0 250
33.2033 40.942 26.9562 0 0 202
32.9462 41.9174 27.8072 0 0 202
32.0837 43.156 31.8013 0 0 194
32.2419 44.4207 30.5562 0 0 194
32.0629 45.1799 31.4563 0 0 151
30.9961 33.0502 40.3256 0 0 144
31.0944 34.5476 39.4031 0 0 144
30.2666 20.1138 43.7786 0 0 154
30.2682 19.7349 42.9292 0 0 154
30.3471 21.1827 43.1699 0 0 178
30.2976 18.32 40.7876 0 0 129
30.2824 18.8582 41.4792 0 0 129
30.5469 14.2411 37.3877 0 0 160
30.6616 16.013 37.2992 0 0 187
30.4629 15.1296 38.0603 0 0 160
30.6149 13.2232 36.7429 0 0 135
30.5469 14.2411 37.3877 0 0 135
30.7263 12.1583 36.063 0 0 167
30.857 14.0596 35.9466 0 0 198
30.6149 13.2232 36.7429 0 0 167
30.846 11.1459 35.3486 0 0 137
30.7263 12.1583 36.063 0 0 137
30.2861 20.5593 48.2358 0 0 141
30.3378 22.1387 48.6727 0 0 141
30.2779 20.5194 47.2423 0 0 140
30.2861 20.5593 48.2358 0 0 140
32.6849 42.6359 28.7623 0 0 150
32.9462 41.9174 27.8072 0 0 150
31.7499 40.7132 34.2387 0 0 150
31.9029 41.9306 33.0037 0 0 150
31.7559 38.7102 34.3172 0 0 228
31.7499 40.7132 34.2387 0 0 188
31.6048 39.4775 35.2498 0 0 188
30.7893 30.2879 42.2073 0 0 143
30.8792 31.6486 41.2608 0 0 143
30.7319 28.4826 42.1504 0 0 208
30.7893 30.2879 42.2073 0 0 174
30.6939 28.9903 43.0667 0 0 174
30.3348 17.6192 40.045 0 0 154
30.4231 19.1765 40.0814 0 0 177
30.2976 18.32 40.7876 0 0 154
30.3574 16.7937 39.395 0 0 131
30.3348 17.6192 40.045 0 0 131
30.416 16.0067 38.7116 0 0 157
30.519 17.6886 38.6553 0 0 182
30.3574 16.7937 39.395 0 0 157
30.4629 15.1296 38.0603 0 0 133
30.416 16.0067 38.7116 0 0 133
34.8315 35.023 22.9159 0 0 201
34.8031 37.0698 22.5094 0 0 154
34.4656 36.2009 23.7296 0 0 201
34.8247 32.8806 23.447 0 0 154
34.8315 35.023 22.9159 0 0 154
34.8058 30.7804 23.8927 0 0 195
34.8247 32.8806 23.447 0 0 195
34.4751 32.0538 24.5818 0 0 240
34.7873 28.6825 24.3193 0 0 151
34.8058 30.7804 23.8927 0 0 151
34.7722 26.4614 24.6488 0 0 195
34.7873 28.6825 24.3193 0 0 195
34.4411 27.7325 25.3571 0 0 239
34.7558 24.2346 24.9576 0 0 151
34.7722 26.4614 24.6488 0 0 151
32.4682 11.8859 30.6895 0 0 175
32.2664 13.2257 31.3498 0 0 209
32.1359 11.2196 31.5097 0 0 175
32.8512 12.7513 29.8348 0 0 142
32.4682 11.8859 30.6895 0 0 142
31.6164 11.79 32.9966 0 0 171
31.7475 13.6902 32.85 0 0 203
31.4298 12.9208 33.6767 0 0 171
31.7805 10.6089 32.3557 0 0 139
31.6164 11.79 32.9966 0 0 139
31.1335 12.0077 34.545 0 0 137
30.846 11.1459 35.3486 0 0 137
34.3596 23.4402 26.0161 0 0 189
34.0696 24.803 26.693 0 0 229
34.0031 22.7319 27.0225 0 0 189
34.7558 24.2346 24.9576 0 0 150
34.3596 23.4402 26.0161 0 0 150
33.0893 17.0719 29.4443 0 0 183
32.726 16.1247 30.3076 0 0 222
32.9619 14.8391 29.6663 0 0 183
33.4472 17.8538 28.5168 0 0 182
33.2113 19.1394 29.1581 0 0 219
33.0893 17.0719 29.4443 0 0 182
33.8453 18.5927 27.559 0 0 146
33.4472 17.8538 28.5168 0 0 146
34.2073 19.3166 26.6166 0 0 145
33.9311 20.6452 27.2881 0 0 184
33.8453 18.5927 27.559 0 0 184
30.4771 24.9149 45.4509 0 0 138
30.5366 26.2065 44.7077 0 0 138
30.4114 23.1781 45.1476 0 0 201
30.4771 24.9149 45.4509 0 0 169
30.4103 23.5869 46.0902 0 0 169
30.2759 20.3721 46.319 0 0 167
30.3465 21.9973 46.7102 0 0 196
30.2779 20.5194 47.2423 0 0 167
30.2708 20.3804 45.4292 0 0 134
30.2759 20.3721 46.319 0 0 134
30.2712 20.2362 44.5454 0 0 158
30.345 21.7059 44.9031 0 0 184
30.2708 20.3804 45.4292 0 0 158
30.2666 20.1138 43.7786 0 0 129
30.2712 20.2362 44.5454 0 0 129
33.7945 38.4817 25.3745 0 0 154
34.1393 37.3196 24.5163 0 0 154
33.4828 39.6984 26.2214 0 0 152
33.2033 40.942 26.9562 0 0 152
33.5296 37.6081 26.5564 0 0 247
33.7945 38.4817 25.3745 0 0 200
33.4828 39.6984 26.2214 0 0 200
32.4643 43.4465 29.6603 0 0 152
32.2419 44.4207 30.5562 0 0 152
32.4832 41.5861 30.0032 0 0 230
32.6849 42.6359 28.7623 0 0 189
32.4643 43.4465 29.6603 0 0 189
32.0819 41.1714 32.1037 0 0 234
32.0837 43.156 31.8013 0 0 192
31.9029 41.9306 33.0037 0 0 192
31.2255 35.8064 38.3999 0 0 146
31.3432 36.9319 37.3212 0 0 146
31.1923 33.8423 38.4174 0 0 228
31.2255 35.8064 38.3999 0 0 188
31.0944 34.5476 39.4031 0 0 188
30.9443 31.1818 40.3558 0 0 213
30.9961 33.0502 40.3256 0 0 178
30.8792 31.6486 41.2608 0 0 178
30.2638 19.3214 42.2275 0 0 151
30.2824 18.8582 41.4792 0 0 151
30.3673 20.3406 41.5723 0 0 173
30.2638 19.3214 42.2275 0 0 128
30.2682 19.7349 42.9292 0 0 128
3 0 20 18
3 1 23 21
3 2 27 25
3 68 29 69
3 70 31 71
3 72 71 29
3 70 71 72
3 73 33 74
3 75 35 76
3 77 76 33
3 75 76 77
3 3 38 36
3 5 78 80
3 78 39 79
3 78 79 80
3 6 40 19
3 6 41 40
3 82 81 42
3 7 46 44
3 9 47 22
3 9 48 47
3 4 49 37
3 10 50 24
3 10 51 50
3 10 83 85
3 85 84 51
3 83 84 85
3 8 52 45
3 11 53 26
3 11 86 88
3 88 87 53
3 86 87 88
3 90 89 43
3 12 91 92
3 12 93 94
3 12 95 97
3 95 54 96
3 95 96 97
3 14 98 100
3 98 55 99
3 98 99 100
3 14 56 55
3 101 57 102
3 101 102 103
3 15 58 28
3 15 59 58
3 15 60 59
3 16 61 30
3 16 62 61
3 104 63 105
3 17 64 32
3 17 65 64
3 17 66 65
3 13 67 34
3 13 106 108
3 108 107 67
3 106 107 108
3 110 109 3
3 18 19 5
3 20 19 18
3 20 6 19
3 21 22 7
3 23 22 21
3 23 9 22
3 111 24 112
3 113 112 4
3 111 112 113
3 114 24 115
3 116 10 117
3 118 117 24
3 116 117 118
3 120 119 10
3 25 26 8
3 27 26 25
3 27 11 26
3 121 12 122
3 124 123 12
3 125 14 126
3 127 28 128
3 29 129 131
3 129 28 130
3 129 130 131
3 29 15 28
3 29 30 15
3 31 30 29
3 31 16 30
3 132 32 133
3 33 134 136
3 134 32 135
3 134 135 136
3 33 17 32
3 33 34 17
3 35 34 33
3 35 13 34
3 36 37 1
3 38 37 36
3 38 4 37
3 137 38 138
3 139 138 3
3 137 138 139
3 140 38 141
3 142 4 143
3 144 143 38
3 142 143 144
3 146 145 4
3 39 147 149
3 147 148 149
3 39 150 151
3 19 39 5
3 40 39 19
3 40 152 154
3 154 153 39
3 152 153 154
3 40 155 156
3 41 157 159
3 159 158 40
3 157 158 159
3 41 160 161
3 42 43 2
3 162 43 163
3 164 163 42
3 162 163 164
3 166 165 43
3 44 45 0
3 46 45 44
3 46 8 45
3 22 46 7
3 47 46 22
3 47 8 46
3 47 25 8
3 48 25 47
3 48 2 25
3 37 23 1
3 49 23 37
3 49 9 23
3 24 49 4
3 50 49 24
3 50 9 49
3 50 48 9
3 51 48 50
3 51 2 48
3 51 42 2
3 167 42 168
3 169 168 51
3 167 168 169
3 171 170 42
3 173 172 10
3 45 20 0
3 52 20 45
3 52 6 20
3 26 52 8
3 53 52 26
3 53 6 52
3 53 41 6
3 174 41 175
3 176 175 53
3 174 175 176
3 178 177 41
3 43 27 2
3 179 27 180
3 181 180 43
3 179 180 181
3 182 11 183
3 184 183 27
3 182 183 184
3 185 11 186
3 189 188 11
3 187 188 189
3 190 35 191
3 54 192 194
3 192 35 193
3 192 193 194
3 54 13 35
3 195 54 196
3 197 196 12
3 195 196 197
3 198 54 199
3 200 13 201
3 202 201 54
3 200 201 202
3 204 203 13
3 205 5 206
3 55 207 208
3 55 209 211
3 209 5 210
3 209 210 211
3 55 18 5
3 56 18 55
3 56 0 18
3 57 212 213
3 57 214 216
3 214 14 215
3 214 215 216
3 28 217 219
3 217 57 218
3 217 218 219
3 58 57 28
3 58 14 57
3 58 56 14
3 59 56 58
3 59 0 56
3 59 44 0
3 60 44 59
3 60 7 44
3 30 60 15
3 61 60 30
3 61 7 60
3 61 21 7
3 62 21 61
3 62 1 21
3 220 31 221
3 63 222 224
3 222 31 223
3 222 223 224
3 63 16 31
3 32 225 227
3 225 63 226
3 225 226 227
3 64 63 32
3 64 16 63
3 64 62 16
3 65 62 64
3 65 1 62
3 65 36 1
3 66 36 65
3 66 3 36
3 34 66 17
3 67 66 34
3 67 3 66
3 67 228 230
3 230 229 3
3 228 229 230
3 232 231 67
