ply
format ascii 1.0
element vertex 163
property float x
property float y
property float z
property uchar red
property uchar green
property uchar blue
element face 151
property list uchar int vertex_index
end_header
-11.2011 -34.6864 -54.8783 167 0 0
-9.22049 -20.6723 -59.135 147 255 108
-4.26432 -33.9639 -52.1707 131 255 124
-7.59644 -42.3513 -51.5073 228 255 27
-4.12061 -41.7414 -50.164 213 255 42
-7.47174 -34.7046 -53.4896 255 14 0
-7.05142 -27.3583 -55.6432 238 255 17
-10.3473 -27.4112 -57.0045 243 0 0
-11.6537 -42.2634 -52.7955 233 255 22
-14.1499 -27.223 -58.221 192 255 63
-9.50133 -38.5899 -53.1731 164 0 0
-7.71568 -38.3885 -52.5605 211 0 0
-9.30738 -34.8039 -54.1936 211 0 0
-9.04359 -31.3358 -55.1709 254 0 0
-10.8951 -30.9951 -55.9657 222 0 0
-13.3802 -23.8222 -59.2963 54 255 201
-4.25498 -37.8802 -51.1392 225 0 0
-2.41209 -41.3938 -49.3829 78 255 177
-2.68388 -37.3369 -50.4313 54 255 201
-8.2827 -24.0073 -57.4263 255 109 0
-6.68112 -23.8533 -56.7264 0 248 255
-7.76779 -20.6657 -58.5008 44 255 211
-8.60975 -17.5561 -60.1754 0 96 255
-5.8778 -42.0279 -50.8902 211 255 44
-6.00068 -38.075 -51.916 226 0 0
-5.82244 -34.3857 -52.8407 255 45 0
-5.68868 -30.9419 -53.7964 125 255 130
-7.36434 -31.0272 -54.5662 255 39 0
-8.66122 -27.6418 -56.2628 255 38 0
-9.90476 -23.8409 -58.1584 255 84 0
-9.61633 -42.3176 -52.2127 237 255 18
-11.4119 -38.5825 -53.7715 128 0 0
-13.6041 -42.1336 -53.2398 0 226 255
-13.4473 -38.4713 -54.3017 244 255 11
-13.1105 -34.4679 -55.4824 255 142 0
-14.5909 -30.858 -57.0258 83 255 172
-12.6912 -30.7734 -56.5965 216 0 0
-12.1946 -27.2863 -57.6706 246 0 0
-11.6459 -23.797 -58.7924 247 255 8
-10.8926 -20.7029 -59.7529 0 242 255
-3.54194 -33.7708 -51.8082 0 0 173
-2.75172 -35.4573 -50.9385 0 0 173
-3.4741 -35.6504 -51.301 0 0 207
-4.18609 -32.1806 -52.6389 0 0 136
-3.54194 -33.7708 -51.8082 0 0 136
-6.73712 -42.1896 -51.1987 0 0 231
-5.80206 -44.1109 -50.4074 0 0 188
-6.66137 -44.2726 -50.7159 0 0 188
-10.635 -42.2905 -52.5041 0 0 235
-9.63674 -44.1968 -51.7511 0 0 191
-10.6554 -44.1696 -52.0425 0 0 191
-14.6002 -42.0876 -53.3921 0 0 146
-13.6782 -44.0322 -52.7105 0 0 146
-14.2277 -36.6228 -55.0395 0 0 146
-14.4861 -38.3702 -54.5119 0 0 146
-14.0594 -34.6211 -55.6299 0 0 189
-13.2789 -36.4696 -54.8921 0 0 232
-14.2277 -36.6228 -55.0395 0 0 189
-14.3704 -29.0405 -57.6234 0 0 228
-15.339 -28.8583 -57.883 0 0 187
-15.1185 -27.0409 -58.4806 0 0 187
-12.15 -21.9605 -59.6678 0 0 180
-12.5131 -23.8096 -59.0443 0 0 218
-13.0171 -21.9731 -59.9197 0 0 180
-11.7733 -20.4135 -60.148 0 0 174
-11.2693 -22.25 -59.2727 0 0 209
-12.15 -21.9605 -59.6678 0 0 174
-3.13894 -43.5939 -49.3157 0 0 146
-4.07105 -43.6366 -49.7491 0 0 146
-1.49183 -43.0111 -48.5801 0 0 142
-1.65365 -41.0519 -49.0256 0 0 142
-6.26238 -27.3178 -55.2574 0 0 176
-5.58101 -29.1096 -54.334 0 0 176
-6.37005 -29.1501 -54.7198 0 0 211
-5.92114 -23.8026 -56.3313 0 0 134
-6.46834 -22.29 -57.2208 0 0 134
-11.6959 -44.1944 -52.2879 0 0 149
-10.6554 -44.1696 -52.0425 0 0 149
-14.7506 -25.3926 -59.0358 0 0 142
-15.1185 -27.0409 -58.4806 0 0 142
-14.3658 -23.6922 -59.5734 0 0 184
-13.7651 -25.5226 -58.7586 0 0 224
-14.7506 -25.3926 -59.0358 0 0 184
-13.9436 -21.9733 -60.1561 0 0 145
-14.3658 -23.6922 -59.5734 0 0 145
-13.0171 -21.9731 -59.9197 0 0 144
-13.9436 -21.9733 -60.1561 0 0 144
-1.78954 -39.0234 -49.5498 0 0 183
-1.65365 -41.0519 -49.0256 0 0 183
-2.54798 -39.3653 -49.9071 0 0 223
-1.96292 -37.0531 -50.061 0 0 141
-1.78954 -39.0234 -49.5498 0 0 141
-1.96292 -37.0531 -50.061 0 0 139
-2.75172 -35.4573 -50.9385 0 0 139
-7.01168 -20.6961 -58.108 0 0 164
-6.46834 -22.29 -57.2208 0 0 164
-7.22445 -22.2595 -57.6136 0 0 194
-7.47705 -19.2491 -58.9493 0 0 131
-7.01168 -20.6961 -58.108 0 0 131
-7.89803 -17.6943 -59.7866 0 0 156
-7.47705 -19.2491 -58.9493 0 0 156
-8.18877 -19.1109 -59.3381 0 0 183
-8.28739 -16.2957 -60.5827 0 0 151
-7.57566 -16.4339 -60.1939 0 0 128
-7.89803 -17.6943 -59.7866 0 0 151
-4.94965 -43.7798 -50.1122 0 0 146
-5.80206 -44.1109 -50.4074 0 0 146
-4.9992 -41.8846 -50.5271 0 0 223
-4.07105 -43.6366 -49.7491 0 0 183
-4.94965 -43.7798 -50.1122 0 0 183
-7.64315 -44.2501 -51.0862 0 0 147
-6.66137 -44.2726 -50.7159 0 0 147
-8.6531 -44.2332 -51.4389 0 0 146
-9.63674 -44.1968 -51.7511 0 0 146
-8.60639 -42.3345 -51.86 0 0 237
-7.64315 -44.2501 -51.0862 0 0 192
-8.6531 -44.2332 -51.4389 0 0 192
-12.6711 -44.1295 -52.5101 0 0 147
-13.6782 -44.0322 -52.7105 0 0 147
-12.6289 -42.1985 -53.0176 0 0 231
-11.6959 -44.1944 -52.2879 0 0 189
-12.6711 -44.1295 -52.5101 0 0 189
-14.5645 -40.2013 -53.9809 0 0 146
-14.6002 -42.0876 -53.3921 0 0 146
-13.5257 -40.3024 -53.7708 0 0 233
-14.5645 -40.2013 -53.9809 0 0 190
-14.4861 -38.3702 -54.5119 0 0 190
-15.5428 -30.6916 -57.2477 0 0 145
-15.339 -28.8583 -57.883 0 0 145
-14.7996 -32.8161 -56.4016 0 0 147
-15.5428 -30.6916 -57.2477 0 0 147
-13.8507 -32.6629 -56.2541 0 0 230
-14.0594 -34.6211 -55.6299 0 0 188
-14.7996 -32.8161 -56.4016 0 0 188
-11.3482 -18.9272 -60.6323 0 0 138
-11.7733 -20.4135 -60.148 0 0 138
-10.5431 -19.1394 -60.2752 0 0 136
-11.3482 -18.9272 -60.6323 0 0 136
-9.70699 -19.1241 -59.9662 0 0 168
-10.0565 -20.6876 -59.4439 0 0 199
-10.5431 -19.1394 -60.2752 0 0 168
-9.40162 -17.566 -60.4864 0 0 164
-8.91512 -19.1142 -59.6552 0 0 195
-9.70699 -19.1241 -59.9662 0 0 164
-9.00278 -16.056 -60.9907 0 0 133
-9.40162 -17.566 -60.4864 0 0 133
-8.28739 -16.2957 -60.5827 0 0 128
-9.00278 -16.056 -60.9907 0 0 128
-2.28468 -43.4201 -48.9251 0 0 189
-3.13894 -43.5939 -49.3157 0 0 189
-3.26635 -41.5676 -49.7735 0 0 231
-2.28468 -43.4201 -48.9251 0 0 144
-1.49183 -43.0111 -48.5801 0 0 144
-4.89827 -30.6696 -53.4517 0 0 173
-4.18609 -32.1806 -52.6389 0 0 173
-4.9765 -32.4529 -52.9835 0 0 208
-4.89827 -30.6696 -53.4517 0 0 140
-5.58101 -29.1096 -54.334 0 0 140
-6.07723 -25.5654 -55.799 0 0 173
-6.26238 -27.3178 -55.2574 0 0 173
-6.86627 -25.6058 -56.1848 0 0 208
-6.07723 -25.5654 -55.799 0 0 138
-5.92114 -23.8026 -56.3313 0 0 138
3 0 12 10
3 0 14 12
3 2 18 16
3 2 40 42
3 42 41 18
3 40 41 42
3 2 43 44
3 1 21 19
3 1 22 21
3 3 45 47
3 45 23 46
3 45 46 47
3 5 24 11
3 5 25 24
3 5 27 25
3 7 28 13
3 7 29 28
3 8 48 50
3 48 30 49
3 48 49 50
3 8 31 30
3 51 32 52
3 53 33 54
3 55 34 56
3 57 56 33
3 55 56 57
3 9 58 60
3 58 35 59
3 58 59 60
3 9 36 35
3 9 37 36
3 61 38 62
3 63 62 15
3 61 62 63
3 64 39 65
3 66 65 38
3 64 65 66
3 4 67 68
3 70 69 17
3 6 71 73
3 73 72 26
3 71 72 73
3 75 74 20
3 10 11 3
3 12 11 10
3 12 5 11
3 12 13 5
3 14 13 12
3 14 7 13
3 76 8 77
3 78 9 79
3 80 15 81
3 82 81 9
3 80 81 82
3 83 15 84
3 86 85 15
3 16 17 4
3 18 17 16
3 18 87 89
3 89 88 17
3 87 88 89
3 18 90 91
3 93 92 18
3 19 20 6
3 21 20 19
3 21 94 96
3 96 95 20
3 94 95 96
3 21 97 98
3 22 99 101
3 101 100 21
3 99 100 101
3 22 102 104
3 102 103 104
3 23 105 106
3 23 107 109
3 107 4 108
3 107 108 109
3 11 23 3
3 24 23 11
3 24 4 23
3 24 16 4
3 25 16 24
3 25 2 16
3 25 26 2
3 27 26 25
3 27 6 26
3 13 27 5
3 28 27 13
3 28 6 27
3 28 19 6
3 29 19 28
3 29 1 19
3 110 3 111
3 30 112 113
3 30 114 116
3 114 3 115
3 114 115 116
3 30 10 3
3 31 10 30
3 31 0 10
3 32 117 118
3 32 119 121
3 119 8 120
3 119 120 121
3 122 32 123
3 33 124 126
3 124 32 125
3 124 125 126
3 33 8 32
3 33 31 8
3 34 31 33
3 34 0 31
3 35 127 128
3 35 129 130
3 35 131 133
3 131 34 132
3 131 132 133
3 36 34 35
3 36 0 34
3 36 14 0
3 37 14 36
3 37 7 14
3 15 37 9
3 38 37 15
3 38 7 37
3 38 29 7
3 39 29 38
3 39 1 29
3 134 39 135
3 136 39 137
3 138 1 139
3 140 139 39
3 138 139 140
3 141 22 142
3 143 142 1
3 141 142 143
3 144 22 145
3 147 146 22
3 17 148 150
3 150 149 4
3 148 149 150
3 152 151 17
3 26 153 155
3 155 154 2
3 153 154 155
3 157 156 26
3 20 158 160
3 160 159 6
3 158 159 160
3 162 161 20
