ply
format ascii 1.0
element vertex 155
property float x
property float y
property float z
property uchar red
property uchar green
property uchar blue
element face 143
property list uchar int vertex_index
end_header
13.4641 60.6845 47.2245 206 255 49
7.78851 67.3321 39.1351 0 232 255
5.76894 52.7869 46.534 252 0 0
2.91859 55.8812 43.0098 255 219 0
10.6469 64.4219 43.0728 233 255 22
6.69182 59.8502 43.2418 201 0 0
9.50228 56.7022 46.944 149 0 0
4.94045 45.6132 49.4863 62 255 193
8.59528 49.1298 50.2337 191 255 64
12.3493 52.986 50.8099 217 0 0
12.0124 62.4126 45.2515 222 255 33
4.34391 54.36 44.7694 241 0 0
4.87154 57.9185 43.1452 233 0 0
6.25861 56.1481 45.0682 255 6 0
8.05255 58.374 45.0265 206 0 0
7.69569 54.8072 46.7594 233 0 0
10.4244 51.0051 50.5459 255 182 0
11.872 49.3223 52.319 68 255 187
1.28194 57.4109 41.0604 0 199 255
2.45871 52.4432 44.5652 58 255 197
3.91534 50.5993 46.4334 255 218 0
9.15748 65.6203 41.2671 235 255 20
3.25082 59.1821 41.3197 182 255 73
5.16831 61.3166 41.3156 199 255 56
7.10322 63.5818 41.2068 255 130 0
8.64747 61.9828 43.2791 139 0 0
10.1592 60.5299 45.1812 128 0 0
11.5596 58.6915 47.1887 165 0 0
3.37764 47.1419 47.7754 57 255 198
5.38012 49.212 48.062 234 0 0
6.80977 47.2365 49.9432 185 255 70
7.22499 51.0762 48.3648 203 0 0
9.11451 52.9462 48.6896 180 0 0
11.0686 54.9927 48.921 169 0 0
12.8883 56.7734 49.1288 226 0 0
13.7546 50.9933 52.6806 71 255 184
14.1632 54.8269 50.9601 178 255 77
14.7135 58.6552 49.1533 62 255 193
13.7246 62.5883 46.1864 0 0 176
12.9987 63.4523 45.1999 0 0 176
12.7382 61.5486 46.238 0 0 220
14.4089 61.6467 47.1776 0 0 131
13.7246 62.5883 46.1864 0 0 131
7.99304 69.064 38.0039 0 0 133
6.99836 67.9955 38.1027 0 0 133
11.7276 47.3726 53.1396 0 0 132
10.951 48.243 52.2241 0 0 132
2.17916 50.6738 45.2821 0 0 129
1.4336 51.4842 44.4158 0 0 129
2.90747 49.7519 46.2162 0 0 171
3.18703 51.5213 45.4993 0 0 212
2.17916 50.6738 45.2821 0 0 171
10.8958 66.1371 42.0664 0 0 170
10.1511 66.7363 41.1635 0 0 170
9.90218 65.0211 42.17 0 0 210
4.15904 46.3776 48.6308 0 0 209
3.15976 45.3876 48.4573 0 0 169
3.94117 44.6232 49.3128 0 0 169
7.70252 48.1831 50.0885 0 0 208
7.4772 46.264 50.8405 0 0 168
8.36995 47.2107 50.9858 0 0 168
14.4558 49.9846 53.5676 0 0 130
13.5318 49.0478 53.4779 0 0 130
15.1153 55.7596 50.9669 0 0 130
14.9388 53.9146 51.8582 0 0 130
15.3904 57.6737 50.0634 0 0 170
14.4384 56.7411 50.0567 0 0 211
15.1153 55.7596 50.9669 0 0 170
15.6615 59.6788 49.0374 0 0 131
15.3904 57.6737 50.0634 0 0 131
12.3123 64.3671 44.1663 0 0 180
11.6296 65.3718 43.077 0 0 180
11.3296 63.4173 44.1622 0 0 225
12.3123 64.3671 44.1663 0 0 134
12.9987 63.4523 45.1999 0 0 134
4.66263 43.7791 50.147 0 0 129
3.94117 44.6232 49.3128 0 0 129
9.31263 48.1467 51.1815 0 0 131
8.36995 47.2107 50.9858 0 0 131
10.2272 49.0844 51.3376 0 0 172
9.50984 50.0674 50.3898 0 0 214
9.31263 48.1467 51.1815 0 0 172
11.1482 50.1637 51.4324 0 0 213
10.2272 49.0844 51.3376 0 0 171
10.951 48.243 52.2241 0 0 171
0.298293 56.3642 41.0206 0 0 128
0.566712 58.108 40.1654 0 0 128
1.0675 55.6475 41.9184 0 0 130
0.298293 56.3642 41.0206 0 0 130
1.88582 54.8826 42.8931 0 0 176
2.10026 56.646 42.0351 0 0 220
1.0675 55.6475 41.9184 0 0 176
1.65589 53.1636 43.6708 0 0 129
1.4336 51.4842 44.4158 0 0 129
2.68865 54.1622 43.7875 0 0 212
1.88582 54.8826 42.8931 0 0 171
1.65589 53.1636 43.6708 0 0 171
9.41955 67.4097 40.1817 0 0 172
8.73507 68.2656 39.1157 0 0 172
8.47299 66.4762 40.2011 0 0 213
9.41955 67.4097 40.1817 0 0 132
10.1511 66.7363 41.1635 0 0 132
10.8958 66.1371 42.0664 0 0 130
11.6296 65.3718 43.077 0 0 130
6.76276 66.1779 39.2194 0 0 135
6.99836 67.9955 38.1027 0 0 135
1.57281 59.1542 40.1967 0 0 129
0.566712 58.108 40.1654 0 0 129
2.55725 60.0398 40.3264 0 0 170
1.57281 59.1542 40.1967 0 0 170
2.26638 58.2965 41.1901 0 0 210
3.4752 61.0097 40.3323 0 0 129
2.55725 60.0398 40.3264 0 0 129
4.43395 62.077 40.3303 0 0 174
3.4752 61.0097 40.3323 0 0 174
4.20957 60.2494 41.3177 0 0 216
5.45266 63.1702 40.3096 0 0 133
4.43395 62.077 40.3303 0 0 133
6.42011 64.3028 40.2552 0 0 172
5.45266 63.1702 40.3096 0 0 172
6.13577 62.4492 41.2612 0 0 214
7.44586 65.4569 40.171 0 0 219
6.76276 66.1779 39.2194 0 0 176
6.42011 64.3028 40.2552 0 0 176
7.99304 69.064 38.0039 0 0 131
8.73507 68.2656 39.1157 0 0 131
2.39869 46.1233 47.6482 0 0 128
3.15976 45.3876 48.4573 0 0 128
2.63863 48.0232 46.8872 0 0 131
2.39869 46.1233 47.6482 0 0 131
3.64649 48.8706 47.1044 0 0 207
2.90747 49.7519 46.2162 0 0 168
2.63863 48.0232 46.8872 0 0 168
5.60335 44.5561 50.4013 0 0 128
4.66263 43.7791 50.147 0 0 128
6.53801 45.3678 50.6297 0 0 129
7.4772 46.264 50.8405 0 0 129
5.87511 46.4249 49.7148 0 0 209
5.60335 44.5561 50.4013 0 0 169
6.53801 45.3678 50.6297 0 0 169
12.5905 48.2123 53.2971 0 0 130
11.7276 47.3726 53.1396 0 0 130
12.8133 50.1578 52.4998 0 0 217
12.5905 48.2123 53.2971 0 0 174
13.5318 49.0478 53.4779 0 0 174
14.7345 51.9978 52.7185 0 0 132
14.4558 49.9846 53.5676 0 0 132
13.9589 52.9101 51.8204 0 0 218
14.7345 51.9978 52.7185 0 0 175
14.9388 53.9146 51.8582 0 0 175
15.0336 60.632 48.142 0 0 172
14.4089 61.6467 47.1776 0 0 172
14.0888 59.6699 48.1889 0 0 213
15.0336 60.632 48.142 0 0 129
15.6615 59.6788 49.0374 0 0 129
3 0 38 40
3 40 39 10
3 38 39 40
3 0 41 42
3 2 13 11
3 2 15 13
3 1 43 44
3 45 17 46
3 47 19 48
3 49 20 50
3 51 50 19
3 49 50 51
3 4 52 54
3 54 53 21
3 52 53 54
3 3 22 18
3 5 23 12
3 5 24 23
3 5 25 24
3 6 26 14
3 6 27 26
3 7 55 57
3 55 28 56
3 55 56 57
3 7 29 28
3 8 58 60
3 58 30 59
3 58 59 60
3 8 31 30
3 8 32 31
3 9 33 16
3 9 34 33
3 61 35 62
3 63 36 64
3 65 37 66
3 67 66 36
3 65 66 67
3 69 68 37
3 10 70 72
3 72 71 4
3 70 71 72
3 74 73 10
3 11 12 3
3 13 12 11
3 13 5 12
3 13 14 5
3 15 14 13
3 15 6 14
3 75 7 76
3 77 8 78
3 79 16 80
3 81 80 8
3 79 80 81
3 17 82 84
3 82 16 83
3 82 83 84
3 17 9 16
3 85 18 86
3 87 18 88
3 89 3 90
3 91 90 18
3 89 90 91
3 19 92 93
3 19 94 96
3 94 3 95
3 94 95 96
3 19 11 3
3 20 11 19
3 20 2 11
3 21 97 99
3 99 98 1
3 97 98 99
3 101 100 21
3 103 102 4
3 104 1 105
3 18 106 107
3 22 108 110
3 110 109 18
3 108 109 110
3 22 111 112
3 12 22 3
3 23 22 12
3 23 113 115
3 115 114 22
3 113 114 115
3 23 116 117
3 24 118 120
3 120 119 23
3 118 119 120
3 24 121 123
3 121 1 122
3 121 122 123
3 24 21 1
3 25 21 24
3 25 4 21
3 14 25 5
3 26 25 14
3 26 4 25
3 26 10 4
3 27 10 26
3 27 0 10
3 125 124 1
3 28 126 127
3 28 128 129
3 28 130 132
3 130 20 131
3 130 131 132
3 29 20 28
3 29 2 20
3 133 7 134
3 30 135 136
3 30 137 139
3 137 7 138
3 137 138 139
3 30 29 7
3 31 29 30
3 31 2 29
3 31 15 2
3 32 15 31
3 32 6 15
3 16 32 8
3 33 32 16
3 33 6 32
3 33 27 6
3 34 27 33
3 34 0 27
3 140 17 141
3 35 142 144
3 142 17 143
3 142 143 144
3 35 9 17
3 145 35 146
3 36 147 149
3 147 35 148
3 147 148 149
3 36 9 35
3 36 34 9
3 37 34 36
3 37 0 34
3 37 150 152
3 152 151 0
3 150 151 152
3 154 153 37
