ply
format ascii 1.0
element vertex 179
property float x
property float y
property float z
property uchar red
property uchar green
property uchar blue
element face 168
property list uchar int vertex_index
end_header
21.6785 -61.2162 -22.4491 255 122 0
23.4006 -51.765 -18.6039 34 255 221
20.6398 -48.6367 -25.3083 255 169 0
22.237 -56.4017 -20.6412 255 52 0
22.29 -50.2417 -21.9047 209 0 0
21.1342 -54.8927 -24.0177 226 0 0
19.4762 -53.0694 -27.375 162 0 0
20.5443 -59.824 -25.8245 241 0 0
21.5531 -65.9762 -24.1192 255 232 0
20.2658 -64.835 -27.6014 54 255 201
21.8805 -58.9558 -21.583 255 68 0
21.7598 -55.8102 -22.29 252 0 0
21.3863 -58.1641 -23.3146 255 33 0
20.7674 -57.4063 -24.9922 255 9 0
21.197 -60.4454 -24.0818 255 57 0
21.5175 -49.3433 -23.6497 210 0 0
22.2468 -47.1435 -22.622 206 255 49
21.3353 -46.2827 -24.352 77 255 178
19.5657 -47.3803 -27.075 128 255 127
19.1451 -55.4302 -28.1882 202 255 53
18.3974 -51.85 -29.0697 102 255 153
21.6193 -68.5852 -24.9012 82 255 173
20.9475 -65.36 -25.9541 219 0 0
20.9554 -67.9514 -26.7649 69 255 186
22.7668 -54.0275 -19.5688 255 61 0
22.8971 -51.0021 -20.2687 255 226 0
22.2501 -53.4186 -21.2879 255 7 0
21.6423 -52.533 -22.9841 220 0 0
20.902 -51.7963 -24.6498 203 0 0
19.987 -50.8111 -26.3822 128 0 0
20.3835 -54.1835 -25.696 201 0 0
20.0248 -56.5288 -26.6098 235 0 0
19.7424 -58.8831 -27.501 187 255 68
23.5495 -55.0402 -16.1353 0 44 255
23.1864 -54.6255 -17.8403 4 255 251
22.6432 -56.7378 -18.9361 108 255 147
22.2624 -59.2877 -19.8429 115 255 140
22.0281 -61.6691 -20.8253 76 255 179
23.0786 -47.737 -20.8541 89 255 166
18.9061 -49.6404 -28.1276 250 255 5
21.963 -64.0516 -21.5582 93 255 162
21.9749 -66.4216 -22.3807 15 255 240
21.5734 -63.4784 -23.2829 255 76 0
21.061 -62.9613 -24.9696 251 0 0
20.3479 -62.2057 -26.7552 255 208 0
23.5777 -50.1542 -18.8395 0 0 139
23.8492 -50.5878 -17.9502 0 0 139
20.4862 -46.9977 -25.6566 0 0 181
20.8339 -45.8208 -25.1785 0 0 181
20.9876 -47.4597 -24.8301 0 0 223
20.1027 -48.0085 -26.1916 0 0 227
19.9491 -46.3696 -26.54 0 0 183
20.4862 -46.9977 -25.6566 0 0 183
18.611 -54.8535 -29.0142 0 0 136
18.9424 -56.4866 -28.6934 0 0 136
21.6355 -69.7834 -25.3614 0 0 136
21.9361 -70.205 -24.4392 0 0 136
21.3035 -69.4665 -26.2933 0 0 176
21.2874 -68.2683 -25.8331 0 0 216
21.6355 -69.7834 -25.3614 0 0 176
23.2508 -56.2014 -16.6606 0 0 128
23.3865 -56.3479 -15.8236 0 0 128
23.0693 -55.994 -17.5131 0 0 164
23.368 -54.8328 -16.9878 0 0 199
23.2508 -56.2014 -16.6606 0 0 164
22.7977 -57.0502 -18.061 0 0 164
22.9148 -55.6817 -18.3882 0 0 198
23.0693 -55.994 -17.5131 0 0 164
22.2792 -60.6021 -19.475 0 0 128
22.4015 -59.4609 -18.9974 0 0 128
22.1621 -61.7928 -19.9662 0 0 162
22.1453 -60.4784 -20.3341 0 0 195
22.2792 -60.6021 -19.475 0 0 162
22.7001 -45.9623 -22.0647 0 0 139
22.2465 -45.5673 -22.9193 0 0 139
18.0783 -50.1725 -29.4087 0 0 137
17.8278 -51.2551 -29.8617 0 0 137
22.1188 -65.5433 -21.1292 0 0 169
22.0916 -64.2001 -20.7108 0 0 169
22.2473 -65.6917 -20.2818 0 0 132
21.764 -66.1989 -23.25 0 0 212
22.0356 -67.7727 -22.7588 0 0 174
21.8247 -67.55 -23.6281 0 0 174
19.8942 -63.0384 -27.9958 0 0 180
19.9352 -61.7237 -27.5727 0 0 180
20.3069 -63.5203 -27.1783 0 0 222
21.7908 -45.1369 -23.7844 0 0 182
22.2465 -45.5673 -22.9193 0 0 182
21.791 -46.7131 -23.487 0 0 225
21.2493 -44.7256 -24.6748 0 0 141
21.7908 -45.1369 -23.7844 0 0 141
21.2493 -44.7256 -24.6748 0 0 137
20.8339 -45.8208 -25.1785 0 0 137
19.3552 -45.8216 -27.405 0 0 138
19.9491 -46.3696 -26.54 0 0 138
18.9516 -46.8486 -27.955 0 0 140
19.3552 -45.8216 -27.405 0 0 140
18.2372 -53.0634 -29.4549 0 0 182
18.7712 -53.6401 -28.629 0 0 225
18.611 -54.8535 -29.0142 0 0 182
17.8278 -51.2551 -29.8617 0 0 139
18.2372 -53.0634 -29.4549 0 0 139
21.8578 -68.8545 -24.0191 0 0 136
21.9361 -70.205 -24.4392 0 0 136
21.5862 -67.2807 -24.5102 0 0 213
21.8247 -67.55 -23.6281 0 0 174
21.8578 -68.8545 -24.0191 0 0 174
19.2411 -58.2131 -28.3497 0 0 180
18.9424 -56.4866 -28.6934 0 0 180
19.4438 -57.1566 -27.8446 0 0 222
23.644 -52.0323 -17.7057 0 0 135
23.8492 -50.5878 -17.9502 0 0 135
23.7061 -55.2059 -15.3178 0 0 159
23.5432 -56.5135 -15.006 0 0 128
23.3865 -56.3479 -15.8236 0 0 159
23.9356 -53.8667 -15.5815 0 0 129
23.7061 -55.2059 -15.3178 0 0 129
23.7184 -53.6699 -16.4715 0 0 132
23.9356 -53.8667 -15.5815 0 0 132
23.5368 -53.4625 -17.324 0 0 165
23.7184 -53.6699 -16.4715 0 0 165
23.368 -54.8328 -16.9878 0 0 200
23.2935 -53.1953 -18.2221 0 0 209
23.644 -52.0323 -17.7057 0 0 171
23.5368 -53.4625 -17.324 0 0 171
22.5919 -58.186 -18.544 0 0 131
22.7977 -57.0502 -18.061 0 0 131
22.4528 -58.0127 -19.3895 0 0 202
22.5919 -58.186 -18.544 0 0 167
22.4015 -59.4609 -18.9974 0 0 167
23.3259 -49.7727 -19.6719 0 0 177
23.5777 -50.1542 -18.8395 0 0 177
23.1489 -51.3836 -19.4363 0 0 218
23.4167 -48.1402 -19.9646 0 0 184
23.3259 -49.7727 -19.6719 0 0 184
22.9879 -49.3695 -20.5614 0 0 228
23.5579 -46.6035 -20.2343 0 0 138
23.4167 -48.1402 -19.9646 0 0 138
23.116 -46.259 -21.1807 0 0 178
22.6627 -47.4402 -21.738 0 0 219
22.7001 -45.9623 -22.0647 0 0 178
23.5579 -46.6035 -20.2343 0 0 140
23.116 -46.259 -21.1807 0 0 140
18.6218 -47.9787 -28.4813 0 0 188
18.9516 -46.8486 -27.955 0 0 188
19.2359 -48.5104 -27.6013 0 0 235
18.3326 -49.0677 -28.9376 0 0 180
18.6518 -50.7452 -28.5987 0 0 222
18.0783 -50.1725 -29.4087 0 0 180
18.6218 -47.9787 -28.4813 0 0 137
18.3326 -49.0677 -28.9376 0 0 137
22.1241 -63.0088 -20.3443 0 0 129
22.1621 -61.7928 -19.9662 0 0 129
21.9956 -62.8604 -21.1917 0 0 193
22.1241 -63.0088 -20.3443 0 0 160
22.0916 -64.2001 -20.7108 0 0 160
22.1929 -67.9035 -21.897 0 0 133
22.0356 -67.7727 -22.7588 0 0 133
22.1247 -66.7283 -21.5404 0 0 129
22.1929 -67.9035 -21.897 0 0 129
21.969 -65.2366 -21.9694 0 0 198
22.1188 -65.5433 -21.1292 0 0 164
22.1247 -66.7283 -21.5404 0 0 164
19.6325 -60.0625 -27.9456 0 0 174
20.0452 -60.5444 -27.1281 0 0 213
19.9352 -61.7237 -27.5727 0 0 174
19.2411 -58.2131 -28.3497 0 0 140
19.6325 -60.0625 -27.9456 0 0 140
20.9218 -69.1162 -27.2407 0 0 136
21.3035 -69.4665 -26.2933 0 0 136
20.526 -67.474 -27.669 0 0 138
20.9218 -69.1162 -27.2407 0 0 138
20.1811 -65.9158 -28.0873 0 0 175
20.6106 -66.3932 -27.1832 0 0 214
20.526 -67.474 -27.669 0 0 175
19.8207 -64.3151 -28.4215 0 0 134
20.1811 -65.9158 -28.0873 0 0 134
19.8942 -63.0384 -27.9958 0 0 138
19.8207 -64.3151 -28.4215 0 0 138
3 0 12 10
3 0 14 12
3 1 45 46
3 2 17 15
3 2 47 49
3 49 48 17
3 47 48 49
3 2 50 52
3 50 18 51
3 50 51 52
3 54 53 19
3 55 21 56
3 57 23 58
3 59 58 21
3 57 58 59
3 3 26 24
3 5 27 11
3 5 28 27
3 5 30 28
3 7 31 13
3 7 32 31
3 60 33 61
3 62 34 63
3 64 63 33
3 62 63 64
3 65 35 66
3 67 66 34
3 65 66 67
3 68 36 69
3 70 37 71
3 72 71 36
3 70 71 72
3 4 38 25
3 74 73 16
3 6 39 29
3 76 75 20
3 77 40 78
3 77 78 79
3 8 80 82
3 80 41 81
3 80 81 82
3 8 42 41
3 8 43 42
3 9 44 22
3 9 83 85
3 85 84 44
3 83 84 85
3 10 11 3
3 12 11 10
3 12 5 11
3 12 13 5
3 14 13 12
3 14 7 13
3 15 16 4
3 17 16 15
3 17 86 88
3 88 87 16
3 86 87 88
3 17 89 90
3 92 91 17
3 18 93 94
3 18 95 96
3 19 20 6
3 97 20 98
3 99 98 19
3 97 98 99
3 101 100 20
3 21 102 103
3 21 104 106
3 104 8 105
3 104 105 106
3 21 22 8
3 23 22 21
3 23 9 22
3 24 25 1
3 26 25 24
3 26 4 25
3 11 26 3
3 27 26 11
3 27 4 26
3 27 15 4
3 28 15 27
3 28 2 15
3 28 29 2
3 30 29 28
3 30 6 29
3 13 30 5
3 31 30 13
3 31 6 30
3 31 19 6
3 32 19 31
3 32 107 109
3 109 108 19
3 107 108 109
3 110 1 111
3 33 112 114
3 112 113 114
3 33 115 116
3 33 117 118
3 34 119 121
3 121 120 33
3 119 120 121
3 34 122 124
3 122 1 123
3 122 123 124
3 34 24 1
3 35 24 34
3 35 3 24
3 125 35 126
3 36 127 129
3 127 35 128
3 127 128 129
3 36 3 35
3 36 10 3
3 37 10 36
3 37 0 10
3 25 130 132
3 132 131 1
3 130 131 132
3 38 133 135
3 135 134 25
3 133 134 135
3 38 136 137
3 16 38 4
3 138 38 139
3 140 139 16
3 138 139 140
3 142 141 38
3 29 18 2
3 39 18 29
3 39 143 145
3 145 144 18
3 143 144 145
3 20 39 6
3 146 39 147
3 148 147 20
3 146 147 148
3 150 149 39
3 151 37 152
3 40 153 155
3 153 37 154
3 153 154 155
3 40 0 37
3 41 156 157
3 41 158 159
3 41 160 162
3 160 40 161
3 160 161 162
3 42 40 41
3 42 0 40
3 42 14 0
3 43 14 42
3 43 7 14
3 22 43 8
3 44 43 22
3 44 7 43
3 44 32 7
3 163 32 164
3 165 164 44
3 163 164 165
3 167 166 32
3 168 23 169
3 170 23 171
3 172 9 173
3 174 173 23
3 172 173 174
3 175 9 176
3 178 177 9
