ply
format ascii 1.0
element vertex 182
property float x
property float y
property float z
property uchar red
property uchar green
property uchar blue
element face 176
property list uchar int vertex_index
end_header
-18.6114 -81.7998 -32.4982 63 255 192
-20.0032 -73.4591 -39.4268 160 0 0
-23.554 -71.0208 -36.7514 214 0 0
-24.2122 -66.2391 -40.1918 255 173 0
-20.2908 -68.0453 -42.7176 170 0 0
-14.9463 -84.8454 -35.3643 159 255 96
-22.8057 -75.1102 -32.7808 255 207 0
-19.3687 -78.0884 -35.9956 214 0 0
-15.4507 -80.5798 -38.7311 229 0 0
-15.6228 -75.7456 -41.7565 169 0 0
-16.0372 -69.8747 -44.3817 142 0 0
-26.0148 -64.9667 -38.8782 74 255 181
-24.4862 -63.3275 -41.9954 119 255 136
-16.8167 -83.4248 -33.9673 165 255 90
-24.0762 -73.8762 -31.04 0 184 255
-24.7111 -71.8184 -33.0773 191 255 64
-21.8721 -72.1396 -38.2316 207 0 0
-21.5416 -74.4161 -36.4558 194 0 0
-19.6234 -75.9513 -37.7847 191 0 0
-17.4501 -79.4448 -37.4099 219 0 0
-17.6206 -77.2429 -39.0823 199 0 0
-15.7076 -78.035 -40.3148 194 0 0
-17.8911 -74.5904 -40.699 163 0 0
-20.4539 -65.0173 -44.2317 201 255 54
-18.2769 -68.9639 -43.6024 180 0 0
-18.2646 -66.0981 -44.9656 213 255 42
-16.0892 -66.8849 -45.5962 242 255 13
-25.186 -69.6792 -35.1701 211 255 44
-25.4922 -67.6136 -37.08 177 255 78
-23.9555 -68.619 -38.5283 228 0 0
-22.1351 -69.6816 -39.9418 175 0 0
-20.0215 -71.0151 -41.1354 128 0 0
-22.3318 -67.0492 -41.5993 133 0 0
-22.3263 -64.4777 -43.1895 210 255 45
-12.857 -86.1584 -36.7429 45 255 210
-20.8138 -78.3624 -32.6253 203 255 52
-23.1742 -73.2355 -34.7686 187 0 0
-21.2093 -76.4684 -34.5673 205 0 0
-19.0394 -79.9527 -34.3056 213 0 0
-17.0569 -81.5943 -35.7876 234 0 0
-15.0362 -82.994 -37.1355 238 0 0
-13.0153 -84.0523 -38.3916 159 255 96
-13.2976 -81.7986 -39.78 194 255 61
-13.2151 -79.5177 -41.2296 216 255 39
-13.4652 -76.7237 -42.5345 211 255 44
-17.9686 -71.8981 -42.2584 154 0 0
-15.8077 -72.7846 -43.1679 163 0 0
-13.4123 -74.0073 -43.7731 242 255 13
-13.5647 -70.8549 -44.9583 255 244 0
-13.6372 -67.7651 -46.0363 0 238 255
-17.5547 -83.4476 -32.3191 0 0 133
-18.3917 -82.6621 -31.4932 0 0 133
-17.7141 -82.6123 -33.2328 0 0 206
-16.6573 -84.2601 -33.0536 0 0 168
-17.5547 -83.4476 -32.3191 0 0 168
-25.6184 -70.1934 -33.2144 0 0 130
-25.2696 -71.2839 -32.2055 0 0 130
-19.3485 -64.1954 -45.2694 0 0 173
-19.3592 -65.5577 -44.5986 0 0 213
-20.4432 -63.655 -44.9024 0 0 173
-18.325 -64.4092 -45.666 0 0 136
-19.3485 -64.1954 -45.2694 0 0 136
-26.4739 -65.8625 -37.2094 0 0 133
-26.2845 -66.952 -36.26 0 0 133
-23.3896 -62.5456 -43.4649 0 0 186
-23.4063 -63.9026 -42.5924 0 0 233
-24.4696 -61.9705 -42.8678 0 0 186
-22.4392 -62.968 -43.9421 0 0 133
-23.3896 -62.5456 -43.4649 0 0 133
-13.7877 -86.4833 -35.1806 0 0 131
-14.8642 -85.661 -34.4871 0 0 131
-13.9016 -85.5019 -36.0536 0 0 212
-12.743 -87.1398 -35.8699 0 0 172
-13.7877 -86.4833 -35.1806 0 0 172
-22.5107 -76.0841 -31.7899 0 0 168
-23.1459 -75.4671 -30.9195 0 0 168
-23.441 -74.4932 -31.9104 0 0 206
-21.8098 -76.7363 -32.703 0 0 213
-21.5147 -77.7102 -31.7122 0 0 173
-22.5107 -76.0841 -31.7899 0 0 173
-14.8194 -65.7712 -46.4165 0 0 184
-14.8632 -67.325 -45.8163 0 0 230
-16.0453 -65.3311 -46.1964 0 0 184
-13.7477 -66.0217 -46.5806 0 0 135
-14.8194 -65.7712 -46.4165 0 0 135
-26.9854 -63.1162 -39.1221 0 0 135
-26.7352 -64.539 -38.1085 0 0 135
-26.1381 -63.6255 -39.8462 0 0 136
-26.9854 -63.1162 -39.1221 0 0 136
-25.2368 -64.2617 -40.503 0 0 182
-25.1135 -65.6029 -39.535 0 0 228
-26.1381 -63.6255 -39.8462 0 0 182
-25.3738 -62.8059 -41.4047 0 0 178
-24.3492 -64.7833 -41.0936 0 0 222
-25.2368 -64.2617 -40.503 0 0 178
-25.5057 -61.3923 -42.2852 0 0 134
-25.3738 -62.8059 -41.4047 0 0 134
-24.4696 -61.9705 -42.8678 0 0 138
-25.5057 -61.3923 -42.2852 0 0 138
-15.7994 -84.9507 -33.7886 0 0 128
-16.6573 -84.2601 -33.0536 0 0 128
-15.8815 -84.1351 -34.6658 0 0 198
-14.8642 -85.661 -34.4871 0 0 163
-15.7994 -84.9507 -33.7886 0 0 163
-24.9522 -72.3128 -31.1869 0 0 129
-24.6592 -73.172 -30.1733 0 0 129
-24.3936 -72.8473 -32.0586 0 0 203
-24.9522 -72.3128 -31.1869 0 0 166
-25.2696 -71.2839 -32.2055 0 0 166
-17.2373 -64.8026 -45.9813 0 0 184
-17.1769 -66.4915 -45.2809 0 0 230
-18.325 -64.4092 -45.666 0 0 184
-16.0453 -65.3311 -46.1964 0 0 137
-17.2373 -64.8026 -45.9813 0 0 137
-19.3616 -81.1235 -31.61 0 0 131
-18.3917 -82.6621 -31.4932 0 0 131
-26.1314 -67.9848 -35.3051 0 0 134
-25.8558 -69.1239 -34.2608 0 0 134
-25.3391 -68.6464 -36.1251 0 0 212
-26.1314 -67.9848 -35.3051 0 0 172
-26.2845 -66.952 -36.26 0 0 172
-25.7535 -66.2901 -37.9791 0 0 211
-26.4739 -65.8625 -37.2094 0 0 171
-26.7352 -64.539 -38.1085 0 0 171
-21.5031 -63.2378 -44.4632 0 0 172
-21.3901 -64.7475 -43.7106 0 0 212
-22.4392 -62.968 -43.9421 0 0 172
-20.4432 -63.655 -44.9024 0 0 131
-21.5031 -63.2378 -44.4632 0 0 131
-11.6867 -87.7358 -36.5361 0 0 131
-12.743 -87.1398 -35.8699 0 0 131
-11.694 -86.8588 -37.299 0 0 128
-11.6867 -87.7358 -36.5361 0 0 128
-23.7649 -74.7659 -30.012 0 0 130
-24.6592 -73.172 -30.1733 0 0 130
-23.7649 -74.7659 -30.012 0 0 131
-23.1459 -75.4671 -30.9195 0 0 131
-20.4628 -79.4048 -31.6735 0 0 133
-21.5147 -77.7102 -31.7122 0 0 133
-19.7126 -80.0811 -32.5618 0 0 218
-19.3616 -81.1235 -31.61 0 0 176
-20.4628 -79.4048 -31.6735 0 0 176
-24.9486 -70.7488 -34.1237 0 0 214
-25.6184 -70.1934 -33.2144 0 0 174
-25.8558 -69.1239 -34.2608 0 0 174
-11.7732 -85.8058 -38.1233 0 0 175
-11.694 -86.8588 -37.299 0 0 175
-12.9361 -85.1053 -37.5673 0 0 217
-11.8596 -84.7195 -38.8556 0 0 131
-11.7732 -85.8058 -38.1233 0 0 131
-12.0008 -83.5926 -39.5497 0 0 169
-11.8596 -84.7195 -38.8556 0 0 169
-13.1565 -82.9254 -39.0858 0 0 207
-12.013 -82.5066 -40.2167 0 0 133
-12.0008 -83.5926 -39.5497 0 0 133
-11.9717 -81.3662 -40.9415 0 0 179
-12.013 -82.5066 -40.2167 0 0 179
-13.2563 -80.6581 -40.5048 0 0 222
-11.9875 -80.0615 -41.6147 0 0 135
-11.9717 -81.3662 -40.9415 0 0 135
-12.1125 -78.6645 -42.2671 0 0 180
-11.9875 -80.0615 -41.6147 0 0 180
-13.3401 -78.1207 -41.882 0 0 225
-12.2332 -77.2071 -42.8603 0 0 136
-12.1125 -78.6645 -42.2671 0 0 136
-12.2068 -75.8489 -43.4796 0 0 178
-12.2332 -77.2071 -42.8603 0 0 178
-13.4387 -75.3655 -43.1538 0 0 220
-12.2154 -74.376 -44.0398 0 0 135
-12.2068 -75.8489 -43.4796 0 0 135
-12.2916 -72.7998 -44.6324 0 0 182
-12.2154 -74.376 -44.0398 0 0 182
-13.4885 -72.4311 -44.3657 0 0 227
-12.3438 -71.1713 -45.166 0 0 138
-12.2916 -72.7998 -44.6324 0 0 138
-12.3801 -69.6263 -45.705 0 0 180
-12.3438 -71.1713 -45.166 0 0 180
-13.601 -69.31 -45.4973 0 0 224
-12.4706 -67.9736 -46.1875 0 0 136
-12.3801 -69.6263 -45.705 0 0 136
-12.4706 -67.9736 -46.1875 0 0 138
-13.7477 -66.0217 -46.5806 0 0 138
3 0 50 51
3 0 52 54
3 52 13 53
3 52 53 54
3 55 15 56
3 1 18 16
3 1 20 18
3 1 22 20
3 57 25 58
3 59 58 23
3 57 58 59
3 61 60 25
3 62 28 63
3 3 29 11
3 3 30 29
3 3 32 30
3 64 33 65
3 66 65 12
3 64 65 66
3 68 67 33
3 5 69 70
3 5 71 73
3 71 34 72
3 71 72 73
3 6 74 76
3 76 75 14
3 74 75 76
3 6 77 79
3 77 35 78
3 77 78 79
3 2 36 27
3 7 37 17
3 7 38 37
3 7 39 38
3 8 40 19
3 8 41 40
3 8 42 41
3 9 43 21
3 9 44 43
3 4 45 31
3 10 46 24
3 10 47 46
3 10 48 47
3 80 49 81
3 82 81 26
3 80 81 82
3 84 83 49
3 85 11 86
3 87 11 88
3 89 3 90
3 91 90 11
3 89 90 91
3 92 12 93
3 94 93 3
3 92 93 94
3 95 12 96
3 98 97 12
3 13 99 100
3 13 101 103
3 101 5 102
3 101 102 103
3 104 14 105
3 15 106 108
3 106 14 107
3 106 107 108
3 15 6 14
3 16 17 2
3 18 17 16
3 18 7 17
3 18 19 7
3 20 19 18
3 20 8 19
3 20 21 8
3 22 21 20
3 22 9 21
3 23 24 4
3 25 24 23
3 25 10 24
3 25 26 10
3 109 26 110
3 111 110 25
3 109 110 111
3 113 112 26
3 114 0 115
3 116 27 117
3 28 118 120
3 118 27 119
3 118 119 120
3 28 2 27
3 11 121 123
3 121 28 122
3 121 122 123
3 29 28 11
3 29 2 28
3 29 16 2
3 30 16 29
3 30 1 16
3 30 31 1
3 32 31 30
3 32 4 31
3 12 32 3
3 33 32 12
3 33 4 32
3 33 23 4
3 124 23 125
3 126 125 33
3 124 125 126
3 128 127 23
3 34 129 130
3 34 131 132
3 14 133 134
3 136 135 14
3 35 137 138
3 35 139 141
3 139 0 140
3 139 140 141
3 27 142 144
3 142 15 143
3 142 143 144
3 36 15 27
3 36 6 15
3 17 36 2
3 37 36 17
3 37 6 36
3 37 35 6
3 38 35 37
3 38 0 35
3 38 13 0
3 39 13 38
3 39 5 13
3 19 39 7
3 40 39 19
3 40 5 39
3 40 34 5
3 41 34 40
3 41 145 147
3 147 146 34
3 145 146 147
3 41 148 149
3 42 150 152
3 152 151 41
3 150 151 152
3 42 153 154
3 21 42 8
3 43 42 21
3 43 155 157
3 157 156 42
3 155 156 157
3 43 158 159
3 44 160 162
3 162 161 43
3 160 161 162
3 44 163 164
3 31 22 1
3 45 22 31
3 45 9 22
3 24 45 4
3 46 45 24
3 46 9 45
3 46 44 9
3 47 44 46
3 47 165 167
3 167 166 44
3 165 166 167
3 47 168 169
3 48 170 172
3 172 171 47
3 170 171 172
3 48 173 174
3 26 48 10
3 49 48 26
3 49 175 177
3 177 176 48
3 175 176 177
3 49 178 179
3 181 180 49
