ply
format ascii 1.0
element vertex 108
property float x
property float y
property float z
property uchar red
property uchar green
property uchar blue
element face 91
property list uchar int vertex_index
end_header
-46.5353 61.3985 -9.49849 117 255 138
-40.7232 69.7895 -6.42649 125 255 130
-44.5374 64.3976 -5.60647 128 0 0
-43.1223 66.8374 -10.8427 208 0 0
-44.8741 63.0184 -14.2223 69 255 186
-39.757 71.0011 -9.06834 114 255 141
-41.9621 68.4446 -8.73622 139 0 0
-40.9763 69.4654 -11.2448 214 255 41
-42.0915 67.6422 -13.1983 58 255 197
-45.6492 62.9683 -7.69653 255 194 0
-46.1668 61.5767 -4.99189 96 255 159
-47.0856 59.7354 -10.9566 0 214 255
-45.2997 60.9239 -15.4048 0 105 255
-43.3141 65.645 -3.28955 137 255 118
-42.7274 67.16 -6.07047 255 121 0
-43.9242 65.743 -8.29658 165 0 0
-44.981 64.125 -10.2785 255 5 0
-45.7977 62.3545 -11.9579 255 119 0
-44.1217 65.01 -12.6887 251 255 4
-45.0055 62.834 -2.8167 126 255 129
-46.2797 60.4851 -13.2855 40 255 215
-39.7622 70.7037 -11.3967 0 0 188
-40.3666 70.2332 -10.1566 0 0 231
-39.1526 71.4716 -10.3085 0 0 188
-40.3552 69.8241 -12.4003 0 0 142
-39.7622 70.7037 -11.3967 0 0 142
-46.8305 60.794 -8.19733 0 0 177
-46.3875 61.5789 -7.29635 0 0 177
-46.0923 62.1834 -8.59751 0 0 215
-47.1457 60.0559 -8.98438 0 0 135
-46.8305 60.794 -8.19733 0 0 135
-46.8104 60.567 -10.2276 0 0 199
-47.4208 59.2244 -9.71346 0 0 166
-47.1457 60.0559 -8.98438 0 0 166
-41.7253 68.4748 -6.24848 0 0 238
-42.1053 67.7503 -4.86528 0 0 193
-41.1032 69.0651 -5.04329 0 0 193
-42.5617 66.6122 -14.0383 0 0 139
-41.4443 67.879 -14.2601 0 0 139
-46.3701 60.7788 -3.60017 0 0 142
-46.8858 60.1692 -4.59544 0 0 142
-45.8256 59.7456 -14.817 0 0 128
-45.3181 59.8539 -15.8107 0 0 128
-40.9128 68.9125 -13.377 0 0 183
-41.5339 68.5538 -12.2216 0 0 223
-40.3552 69.8241 -12.4003 0 0 183
-41.4443 67.879 -14.2601 0 0 140
-40.9128 68.9125 -13.377 0 0 140
-46.6463 60.8831 -5.94403 0 0 179
-45.908 62.2725 -6.34421 0 0 218
-46.3875 61.5789 -7.29635 0 0 179
-46.8858 60.1692 -4.59544 0 0 141
-46.6463 60.8831 -5.94403 0 0 141
-47.5189 58.4621 -10.311 0 0 129
-47.4208 59.2244 -9.71346 0 0 129
-47.148 58.8798 -11.4929 0 0 129
-47.5189 58.4621 -10.311 0 0 129
-44.5127 62.1374 -15.8247 0 0 161
-45.0869 61.9712 -14.8136 0 0 191
-44.2999 63.1847 -15.2334 0 0 161
-44.7036 60.9713 -16.3386 0 0 131
-44.5127 62.1374 -15.8247 0 0 131
-45.3181 59.8539 -15.8107 0 0 128
-44.7036 60.9713 -16.3386 0 0 128
-42.3987 66.9928 -3.47482 0 0 148
-42.6978 66.1628 -2.04771 0 0 148
-43.0208 66.4025 -4.68001 0 0 238
-42.3987 66.9928 -3.47482 0 0 192
-42.1053 67.7503 -4.86528 0 0 192
-43.5768 65.2961 -13.7835 0 0 175
-43.1066 66.3261 -12.9435 0 0 212
-42.5617 66.6122 -14.0383 0 0 175
-43.953 64.3003 -14.5503 0 0 170
-44.4979 64.0142 -13.4555 0 0 204
-43.5768 65.2961 -13.7835 0 0 170
-44.2999 63.1847 -15.2334 0 0 135
-43.953 64.3003 -14.5503 0 0 135
-43.5418 64.7861 -1.86102 0 0 148
-42.6978 66.1628 -2.04771 0 0 148
-44.3874 63.3806 -1.62459 0 0 194
-43.5418 64.7861 -1.86102 0 0 194
-44.1598 64.2395 -3.05312 0 0 240
-45.1893 61.9569 -1.39168 0 0 148
-44.3874 63.3806 -1.62459 0 0 148
-45.7895 61.4074 -2.51258 0 0 188
-45.5861 62.2053 -3.90429 0 0 232
-46.3701 60.7788 -3.60017 0 0 188
-45.1893 61.9569 -1.39168 0 0 146
-45.7895 61.4074 -2.51258 0 0 146
-46.745 59.2547 -12.6573 0 0 155
-47.148 58.8798 -11.4929 0 0 155
-46.6826 60.1103 -12.1211 0 0 182
-46.3156 59.5263 -13.7573 0 0 154
-45.7897 60.7045 -14.3452 0 0 180
-45.8256 59.7456 -14.817 0 0 154
-46.745 59.2547 -12.6573 0 0 128
-46.3156 59.5263 -13.7573 0 0 128
-40.099 70.3194 -5.19781 0 0 146
-41.1032 69.0651 -5.04329 0 0 146
-39.6099 71.0052 -6.57416 0 0 147
-40.099 70.3194 -5.19781 0 0 147
-39.1268 71.611 -7.89508 0 0 189
-40.2401 70.3953 -7.74742 0 0 233
-39.6099 71.0052 -6.57416 0 0 189
-38.5257 72.1788 -9.20758 0 0 146
-39.1268 71.611 -7.89508 0 0 146
-39.1526 71.4716 -10.3085 0 0 144
-38.5257 72.1788 -9.20758 0 0 144
3 21 7 22
3 23 22 5
3 21 22 23
3 25 24 7
3 0 26 28
3 28 27 9
3 26 27 28
3 0 29 30
3 0 31 33
3 31 11 32
3 31 32 33
3 1 34 36
3 34 14 35
3 34 35 36
3 3 15 6
3 3 16 15
3 3 18 16
3 38 37 8
3 2 19 13
3 40 39 10
3 4 20 17
3 42 41 12
3 5 6 1
3 7 6 5
3 7 3 6
3 7 8 3
3 43 8 44
3 45 44 7
3 43 44 45
3 47 46 8
3 9 10 2
3 48 10 49
3 50 49 9
3 48 49 50
3 52 51 10
3 11 53 54
3 11 55 56
3 57 12 58
3 59 58 4
3 57 58 59
3 60 12 61
3 63 62 12
3 64 13 65
3 14 66 68
3 66 13 67
3 66 67 68
3 14 2 13
3 6 14 1
3 15 14 6
3 15 2 14
3 15 9 2
3 16 9 15
3 16 0 9
3 16 17 0
3 18 17 16
3 18 4 17
3 8 18 3
3 69 18 70
3 71 70 8
3 69 70 71
3 72 4 73
3 74 73 18
3 72 73 74
3 76 75 4
3 13 77 78
3 19 79 81
3 81 80 13
3 79 80 81
3 19 82 83
3 10 19 2
3 84 19 85
3 86 85 10
3 84 85 86
3 88 87 19
3 17 11 0
3 20 11 17
3 20 89 91
3 91 90 11
3 89 90 91
3 12 20 4
3 92 20 93
3 94 93 12
3 92 93 94
3 96 95 20
3 97 1 98
3 99 1 100
3 101 5 102
3 103 102 1
3 101 102 103
3 104 5 105
3 107 106 5
