ply
format ascii 1.0
element vertex 869
property float x
property float y
property float z
element face 1160
property list uchar int vertex_index
end_header
53.0616 37.7237 -23.9621
53.824 38.695 -25.5729
53.4183 37.835 -24.5199
51.6985 37.6032 -21.913
52.955 38.0801 -23.0937
52.0648 37.3848 -22.356
53.5514 38.4448 -24.217
52.5706 37.4625 -23.0876
53.7946 39.3623 -26.153
53.8177 39.0952 -25.4943
53.7397 39.529 -26.7517
53.5815 39.9554 -26.8905
52.8522 40.2735 -28.0524
52.1208 40.6196 -28.7253
52.2875 40.2541 -28.9944
51.8577 40.4343 -29.2322
51.7399 40.2036 -29.9695
51.4207 40.3236 -30.0349
51.0567 40.3315 -31.0482
50.9147 40.5722 -32.2406
51.7599 38.4342 -21.0701
52.9573 38.3379 -21.8565
52.1319 38.0794 -21.6612
51.3035 37.9317 -21.447
54.1649 39.382 -23.4976
53.3464 38.5291 -22.8178
52.5072 37.8809 -22.1273
54.4118 40.1193 -24.8047
53.9089 38.9643 -24.0284
54.2853 40.7444 -25.6013
54.1242 40.1031 -25.6674
53.4578 40.779 -27.1145
52.9197 41.5552 -27.7763
53.0587 40.5022 -27.5696
52.5145 41.1027 -28.2502
51.5526 40.8949 -29.3634
51.1773 40.9828 -29.7313
51.2124 40.4929 -30.073
51.0298 40.8011 -30.0561
50.9924 40.3691 -30.837
50.877 40.5426 -30.6796
50.8439 40.7543 -32.0142
50.868 40.5158 -31.1956
51.6792 39.888 -19.3097
51.2622 39.7462 -19.263
51.8402 39.7054 -19.6692
51.2554 39.2627 -20.0521
53.8747 40.27 -21.1652
53.5351 39.7832 -20.9062
52.4075 39.18 -20.4532
51.3484 38.7821 -20.5932
45.0342 42.8339 -22.413
44.8247 42.722 -22.2918
54.3973 40.7696 -22.0857
54.158 40.3052 -21.6714
53.4741 39.0863 -21.4904
52.524 38.6186 -21.3458
47.5447 43.8154 -23.7773
47.1876 43.456 -23.4741
46.3094 43.1267 -23.0149
45.4019 42.8599 -22.6403
44.5706 42.7554 -22.2418
54.4698 40.8574 -22.5891
54.3579 39.8987 -22.7503
53.6386 38.9927 -22.4714
47.7072 43.7829 -23.9673
47.1442 43.302 -23.6578
46.3939 43.1115 -23.2057
45.6145 42.9822 -22.5797
44.7522 42.9018 -22.1305
54.5659 41.1883 -23.7005
54.5469 40.5509 -24.2026
47.854 43.8835 -24.327
47.4429 43.5384 -23.9552
46.7627 43.2748 -23.309
46.1027 43.1827 -22.8123
54.4301 41.6662 -24.7355
54.2776 41.5634 -25.5553
54.1302 41.328 -26.1591
53.7818 42.2816 -26.4672
53.5275 42.0596 -26.9635
53.1357 41.9511 -27.5653
52.8548 42.8144 -27.5813
52.6064 42.4632 -28.1046
51.8294 42.1372 -29.0792
51.4198 41.2284 -29.6093
51.4728 42.1315 -29.6892
51.2274 41.4378 -29.9669
50.876 41.0547 -30.6965
50.7948 40.8607 -31.3706
51.8541 40.5997 -18.404
51.48 40.1412 -18.8362
52.7031 40.7424 -19.3052
52.1465 40.2593 -19.0397
51.5717 40.0133 -19.0261
53.7218 41.2407 -20.3895
53.1947 40.7966 -19.8166
52.509 39.7678 -19.8624
46.4167 43.7723 -22.5152
46.0103 43.633 -22.3091
45.1502 43.3817 -21.965
44.2164 43.2363 -21.7656
43.2837 43.257 -21.6272
42.3952 43.3444 -21.6078
41.6584 43.4351 -21.6397
54.3062 41.4448 -21.5953
54.0087 40.924 -20.9894
53.076 39.7457 -20.1912
52.6302 39.5313 -20.1676
47.6613 44.1493 -23.3698
46.8799 43.8727 -22.8995
45.9182 43.2686 -22.4057
45.0323 42.9048 -22.1734
44.0638 42.9411 -21.9776
43.0889 43.0651 -21.6994
42.2327 43.1585 -21.6428
41.444 43.3396 -21.6885
54.41 41.3043 -22.0373
54.2342 40.7708 -21.5273
48.9427 44.7927 -24.5665
48 44.2599 -23.9299
46.6617 43.434 -22.9909
45.7219 43.01 -22.5987
45.2897 42.9299 -22.4352
43.8108 42.922 -21.9553
42.886 42.9188 -21.7303
42.0051 43.238 -21.6985
41.2336 43.4645 -21.6769
54.4758 42.0031 -23.3262
50.4893 44.8877 -25.432
49.6222 44.8751 -25.0804
48.5968 44.3738 -24.7275
45.3555 43.0147 -22.3047
44.3052 43.0989 -21.9811
43.024 43.215 -21.6688
42.1457 43.4378 -21.6798
54.327 42.4501 -24.4728
50.8219 44.8181 -25.782
49.9539 44.7839 -25.7477
48.7596 44.3134 -25.0607
47.8765 43.8607 -24.3921
46.9915 43.4162 -23.5403
45.9264 43.257 -22.5046
44.8202 43.3258 -21.9139
54.0849 42.7455 -25.4621
53.4625 43.2443 -26.3119
51.916 44.4239 -26.5581
50.5375 44.6482 -26.3585
49.3982 44.4326 -25.5745
48.2318 43.9006 -24.7694
47.1375 43.6457 -23.6478
46.5897 43.5934 -22.8275
53.1604 43.2566 -26.8742
52.3052 43.8013 -27.1575
51.0812 44.45 -26.8163
49.8457 44.4215 -25.8406
49.0225 44.1431 -25.3345
52.1541 43.5276 -27.5824
51.6585 43.6922 -27.7466
51.6178 43.5707 -28.4314
51.5853 43.0411 -29.5619
51.3845 42.2216 -30.1543
51.2903 41.8795 -30.9065
50.9621 41.479 -31.4986
52.7605 41.8306 -18.4747
52.2901 41.0611 -18.3218
53.6585 42.852 -19.8436
52.9765 41.43 -19.162
52.447 41.1074 -18.7465
45.8777 44.4342 -21.9034
44.8614 44.1474 -21.4062
43.9592 43.9171 -21.0659
42.9611 43.9374 -21.4019
42.084 43.9555 -21.5281
41.6116 43.9703 -21.5757
54.1067 43.2598 -21.5719
53.9678 42.1756 -20.4936
53.4764 41.7439 -19.7543
48.9617 45.2599 -23.0428
47.572 44.7507 -22.8484
46.5321 44.0486 -22.3517
45.4324 43.8395 -21.9117
44.4546 43.6803 -21.6886
43.5313 43.5686 -21.543
42.6063 43.6101 -21.5373
41.6445 43.7348 -21.6376
40.6922 43.7628 -21.6518
39.8108 44.1749 -21.7271
39.4851 44.2693 -21.7224
54.3279 42.2325 -21.8341
54.1908 42.1102 -21.1919
51.4997 45.5974 -23.5973
50.202 45.4795 -23.5596
48.135 44.6752 -23.487
47.2063 44.2742 -22.8742
40.8626 43.5881 -21.6982
40.013 43.9726 -21.7252
39.2707 44.3759 -21.7919
54.335 42.8307 -22.9405
52.8275 44.9875 -24.2279
51.7246 45.4071 -24.2333
49.4967 44.9961 -24.3858
48.4862 44.6065 -23.9383
41.4796 43.5109 -21.6419
40.678 43.7732 -21.6683
39.5207 44.1878 -21.7801
39.0563 44.4872 -21.8667
54.0542 43.463 -24.1192
53.0235 44.6919 -24.7486
51.0847 45.0085 -25.2615
50.0485 44.9036 -24.934
43.8648 43.3279 -21.6865
42.8667 43.5979 -21.5442
41.5139 43.8265 -21.6625
40.3991 44.155 -21.7029
39.6576 44.3537 -21.8445
53.6868 43.6395 -25.1522
52.7334 44.5392 -25.7361
51.9117 44.6549 -26.1203
45.6665 43.5835 -22.1517
44.293 43.709 -21.6493
43.1618 44.0342 -21.4784
53.3815 43.7274 -25.8987
52.6427 44.2806 -26.3157
52.1471 44.4646 -26.4134
48.0036 43.9114 -24.6585
47.5534 43.9552 -23.6408
46.6033 43.9204 -22.6373
50.8079 44.4452 -26.7244
50.0442 44.4294 -26.0538
48.698 44.4931 -25.1607
48.1412 44.3727 -24.0404
51.0626 44.4108 -27.1664
50.16 44.6171 -26.0992
53.145 44.0522 -17.7227
53.2751 44.1808 -18.7316
53.0967 42.951 -18.0781
52.4433 41.9818 -17.821
53.3781 44.3112 -19.8751
53.3658 42.8758 -18.9683
49.2635 46.2375 -22.4083
47.7452 45.7757 -22.2885
46.4949 45.2555 -21.9474
45.3603 44.8605 -21.4417
44.3795 44.5691 -20.9366
43.4603 44.4019 -20.8763
42.445 44.3831 -21.4039
41.4338 44.3228 -21.5708
40.4291 44.6053 -21.6502
39.4952 44.8181 -21.643
38.9653 44.9707 -21.5869
53.7253 44.2295 -22.0905
53.366 44.7659 -21.4162
51.4069 46.0683 -22.4183
49.7407 45.8773 -22.7185
48.244 45.5062 -22.7813
47.0029 44.874 -22.3631
41.3659 43.9919 -21.5853
40.9124 44.0924 -21.6628
40.0287 44.3272 -21.7142
38.9576 44.731 -21.6678
37.935 45.2615 -21.6644
37.5437 45.5641 -21.6864
54.0097 43.8608 -22.6401
53.1066 44.905 -22.7228
51.8345 45.7747 -22.978
50.3513 45.7993 -22.9855
38.74 44.8254 -21.6935
38.2899 45.083 -21.4976
37.676 45.3502 -21.6144
53.8098 44.0078 -23.6288
53.0933 44.8577 -23.6174
52.2755 45.4197 -23.4834
39.192 44.4678 -21.9145
38.7668 44.8186 -21.9295
38.2172 45.1013 -21.7521
37.8995 45.2281 -21.6882
53.5659 44.1967 -24.1876
53.2749 44.56 -24.1095
42.1665 44.1545 -21.6025
41.1468 44.5081 -21.6201
40.092 44.5786 -21.6914
39.3439 44.6715 -21.9187
38.984 44.7156 -21.9325
45.6535 44.3128 -21.938
43.969 44.4976 -21.6087
42.6595 44.5736 -21.4694
41.8714 44.5644 -21.451
46.681 44.2083 -22.4196
53.0428 45.306 -18.1372
48.3618 47.2994 -22.0887
47.8529 47.1315 -22.0218
46.8642 46.7211 -21.6498
45.6936 46.347 -21.2171
44.672 45.9159 -20.7971
52.8914 45.5921 -19.621
52.2263 46.3398 -20.7585
50.7764 46.7072 -21.6445
48.8493 46.8404 -21.9268
47.2499 46.1804 -21.9186
46.042 45.7479 -21.6546
44.9507 45.3654 -20.9696
43.9492 45.18 -20.6206
42.9695 44.9608 -20.8763
41.8842 45.0032 -21.3381
40.8816 45.1077 -21.5711
39.9162 45.2468 -21.7531
38.9679 45.3878 -21.6885
38.2149 45.6917 -21.8023
37.6481 45.9258 -21.8201
52.8424 45.4783 -20.6843
52.0271 46.138 -21.6327
50.6366 46.275 -22.2136
38.599 45.1765 -21.7259
38.124 45.418 -21.6813
37.4153 45.8228 -21.7831
37.0793 46.0638 -21.7357
37.2155 45.8753 -21.7285
36.8417 46.1232 -21.6845
38.6021 45.085 -21.6998
38.3338 45.3285 -21.7172
37.5062 45.73 -21.7824
36.7202 46.3208 -21.726
41.1176 44.8642 -21.5649
40.6048 44.9993 -21.6567
39.606 45.0759 -21.794
38.7758 45.2266 -21.8024
37.9733 45.8373 -21.8282
37.3637 46.1486 -21.9114
44.8952 45.3402 -21.5787
43.3656 45.3413 -21.5522
41.7216 45.1652 -21.4816
40.8191 45.5775 -21.6781
52.4011 46.8716 -19.001
51.2613 47.861 -20.1076
49.9893 48.0697 -20.908
48.6551 47.8233 -21.7243
47.4967 47.7216 -21.7327
46.4151 47.4431 -21.33
45.1741 46.9595 -21.1018
43.8859 46.2392 -20.6101
43.1509 46.3842 -20.7369
52.3619 46.4783 -20.0121
51.7049 47.0471 -20.5632
50.4121 47.4334 -21.2769
49.4813 47.5325 -21.5382
43.3411 45.4786 -20.7361
42.6077 45.831 -21.0856
41.4282 45.8136 -21.6119
40.3898 45.8736 -21.7191
39.3818 45.9904 -21.7414
38.4554 46.1333 -21.9023
37.6651 46.3374 -21.9403
36.9623 46.5353 -21.8738
36.4132 46.9489 -21.8958
36.9526 46.2672 -21.7968
36.4097 46.7475 -21.7364
35.7595 47.242 -21.7189
36.4436 46.5523 -21.6058
35.9425 47.0707 -21.749
36.9481 46.3483 -21.8396
36.414 46.7926 -21.8883
36.1512 46.9332 -21.7605
39.9583 45.5986 -21.769
39.1247 45.7226 -21.7743
38.3339 46.1957 -21.9802
37.5283 46.4392 -21.973
36.9886 46.5904 -21.9142
36.6921 46.6494 -21.9206
42.8435 46.2951 -21.4248
41.556 46.2231 -21.6453
40.4427 46.2126 -21.8413
39.4566 46.2022 -21.8072
38.8796 46.1882 -21.8498
50.5479 48.6533 -19.7317
49.4317 48.8445 -20.6209
48.25 48.8194 -21.2981
47.0991 48.5115 -21.3823
46.0084 48.1716 -21.154
44.7387 47.6037 -20.9466
43.5272 47.184 -20.6542
42.6925 47.2225 -20.8524
42.7252 46.5952 -20.8779
41.9769 46.6992 -21.3469
40.9107 46.6331 -21.7142
39.8675 46.6796 -21.8556
38.8199 46.7717 -21.9539
37.8659 46.9251 -21.8954
37.0389 47.1199 -21.9678
36.3202 47.3663 -21.9256
35.8125 47.7236 -21.8722
36.0852 47.2438 -21.8555
35.6425 47.5721 -21.7875
35.2701 47.9451 -21.7094
35.4336 47.6963 -21.7353
35.1576 48.1662 -21.6981
36.1775 47.3709 -21.9257
35.8488 47.4709 -21.8738
38.189 46.7216 -22.0134
37.7169 47.0251 -22.0929
36.9924 47.0894 -22.0276
36.5552 47.039 -21.9524
41.1537 47.0761 -21.7004
39.9382 46.9428 -21.9588
38.7479 46.8152 -21.9842
38.1307 47.0119 -22.1516
48.9713 49.7497 -19.8149
47.9077 49.5441 -20.6441
46.8853 49.4208 -21.2704
45.7181 48.9733 -21.1941
44.4794 48.4486 -21.0708
43.2519 48.1028 -20.8251
42.2584 47.7078 -21.2651
41.4626 47.4957 -21.657
40.4536 47.5482 -21.7893
39.2785 47.6031 -21.7655
38.1912 47.6976 -21.7502
37.2169 47.8306 -21.8669
36.3983 48.024 -21.9993
35.7816 48.2414 -21.888
35.3503 48.3555 -21.7934
35.1001 48.3807 -21.7033
34.8461 48.4249 -21.5704
35.3713 48.0564 -21.7593
34.9273 48.66 -21.691
35.9032 47.7494 -21.9438
35.4433 48.3285 -21.8322
34.891 48.9842 -21.7039
37.5992 47.451 -22.305
37.1618 47.7516 -22.2213
36.2082 47.9559 -21.9672
35.5019 48.7276 -21.8949
39.4085 47.807 -22.4202
38.0684 47.7425 -22.6412
37.3054 48.4787 -22.4782
47.8371 51.1898 -18.5643
47.3853 51.2841 -19.1057
48.4345 50.174 -19.6044
47.816 50.3504 -19.8433
46.8288 50.5127 -20.2916
45.4306 49.7065 -21.263
38.6337 48.6454 -21.7401
37.5236 48.7222 -21.7567
36.5346 48.8512 -21.8703
35.7389 49.025 -21.9565
35.18 49.185 -21.7137
34.6542 49.2517 -21.6143
34.2642 49.6565 -21.4872
34.7403 48.8129 -21.6194
34.375 49.2837 -21.5623
34.1367 49.7875 -21.5499
34.4672 49.5139 -21.6077
34.2571 49.5781 -21.5485
35.0146 49.2047 -21.7221
34.7058 49.3562 -21.6544
36.5375 48.8653 -22.1635
35.747 49.0139 -21.9612
35.28 49.3172 -21.7905
52.7503 37.2619 -23.8403
52.6188 37.3471 -23.5416
53.2352 37.5375 -24.3888
52.9287 37.3175 -24.1192
52.9287 37.3175 -24.1192
53.2399 37.7793 -24.241
52.7503 37.2619 -23.8403
53.6635 38.0814 -25.1476
53.6211 38.265 -25.0464
53.4607 37.6514 -24.6211
53.4607 37.6514 -24.6211
53.2352 37.5375 -24.3888
53.8793 38.7546 -25.8008
53.6635 38.0814 -25.1476
51.7071 37.1747 -22.4358
51.5906 37.2821 -22.27
52.3733 37.2165 -23.1044
51.96 37.2135 -22.8016
51.96 37.2135 -22.8016
52.3177 37.4237 -22.7218
51.7071 37.1747 -22.4358
52.8161 37.5931 -23.5249
52.3733 37.2165 -23.1044
52.6188 37.3471 -23.5416
53.8793 38.7546 -25.8008
53.8371 39.1716 -26.3901
53.7818 39.112 -26.1623
53.5515 39.6962 -27.194
53.8371 39.1716 -26.3901
51.1091 37.7411 -21.5957
50.9751 37.909 -21.3433
50.9751 37.909 -21.3433
51.1078 38.118 -21.1949
51.3067 37.5768 -21.8287
51.4075 37.3912 -22.0486
51.4075 37.3912 -22.0486
51.5906 37.2821 -22.27
51.8817 37.494 -22.1345
51.501 37.7674 -21.68
51.1091 37.7411 -21.5957
51.3067 37.5768 -21.8287
53.5515 39.6962 -27.194
53.1077 40.0685 -27.8444
53.2959 39.9013 -27.4021
52.4688 40.1603 -28.9454
52.8254 40.0587 -28.3153
52.8254 40.0587 -28.3153
52.5698 40.2638 -28.5234
53.1077 40.0685 -27.8444
52.0501 40.176 -29.9775
52.195 40.135 -29.433
52.195 40.135 -29.433
52.0137 40.2288 -29.4819
52.4688 40.1603 -28.9454
51.5958 40.2327 -30.526
52.0501 40.176 -29.9775
51.5958 40.2327 -30.526
51.2542 40.2967 -31.0654
51.3983 40.2676 -30.5088
51.182 40.5157 -32.3362
51.1832 40.4171 -31.6616
51.1832 40.4171 -31.6616
50.9857 40.4519 -31.6444
51.2542 40.2967 -31.0654
50.8624 40.6022 -32.9856
51.182 40.5157 -32.3362
50.8624 40.6022 -32.9856
50.7889 40.8082 -32.995
50.7889 40.8082 -32.995
50.7536 40.8993 -32.8818
50.8793 40.6633 -32.1274
50.8474 39.4874 -19.5037
50.8732 39.642 -19.1875
50.8732 39.642 -19.1875
51.1318 39.8517 -19.0529
50.9414 38.9863 -20.2143
50.844 39.2456 -19.8982
50.844 39.2456 -19.8982
51.2588 39.5044 -19.6575
50.8474 39.4874 -19.5037
51.1303 38.5431 -20.768
50.988 38.746 -20.4849
50.988 38.746 -20.4849
51.3019 39.0224 -20.3227
50.9414 38.9863 -20.2143
51.336 38.3692 -21.0065
51.1078 38.118 -21.1949
51.5317 38.183 -21.2586
51.5542 38.6081 -20.8317
51.1303 38.5431 -20.768
51.336 38.3692 -21.0065
50.8648 41.1625 -32.2184
50.8403 41.2157 -31.8966
50.8194 40.8075 -31.6924
50.7536 40.8993 -32.8818
50.7725 41.2529 -32.8963
50.7725 41.2529 -32.8963
50.8648 41.1625 -32.2184
51.4147 40.2325 -18.6511
51.2407 40.0492 -18.8395
51.1318 39.8517 -19.0529
51.3711 39.9437 -19.0496
51.2407 40.0492 -18.8395
51.1396 42.097 -31.8571
50.9239 41.5248 -31.9606
50.9239 41.5248 -31.9606
50.8785 41.1698 -31.4346
50.8403 41.2157 -31.8966
51.6018 40.4617 -18.435
51.8118 40.7493 -18.2172
51.667 40.3704 -18.6201
51.6018 40.4617 -18.435
51.4147 40.2325 -18.6511
51.8118 40.7493 -18.2172
52.0581 40.8629 -18.0739
52.2761 41.0936 -18.0328
52.0581 40.8629 -18.0739
52.0721 40.8304 -18.3629
51.1825 44.3195 -27.8563
51.3402 43.9908 -27.7989
51.4601 43.8995 -28.4888
51.6015 43.3059 -28.9967
51.4439 43.6347 -29.054
51.4601 43.8995 -28.4888
51.4439 43.6347 -29.054
51.5624 43.6964 -29.9019
51.4849 42.6314 -29.8581
51.4805 42.5994 -30.4892
51.5809 43.0091 -30.193
51.4335 42.4283 -30.8653
51.4805 42.5994 -30.4892
51.3374 42.0505 -30.5304
51.5809 43.0091 -30.193
51.5624 43.6964 -29.9019
51.4335 42.4283 -30.8653
51.3038 42.2973 -31.5611
51.1396 42.097 -31.8571
51.3038 42.2973 -31.5611
51.1262 41.6792 -31.2025
52.2761 41.0936 -18.0328
52.3667 41.5214 -18.0714
52.3527 41.5539 -17.7824
52.3527 41.5539 -17.7824
52.2979 42.0083 -17.5035
47.5137 44.1817 -23.4256
47.0387 44.1644 -22.9239
47.0784 43.9378 -23.1391
46.6422 44.0644 -22.5285
47.0387 44.1644 -22.9239
47.0775 44.3083 -22.815
47.8473 44.1639 -23.8406
47.8076 44.3905 -23.6254
47.5137 44.1817 -23.4256
47.8076 44.3905 -23.6254
48.1575 44.4622 -23.9494
49.0208 44.6324 -25.3354
49.429 44.5551 -25.6299
49.7518 44.6944 -25.8047
48.7709 44.6228 -24.8552
48.4925 44.5626 -24.2951
48.4196 44.4329 -24.6005
48.1575 44.4622 -23.9494
48.4925 44.5626 -24.2951
49.0208 44.6324 -25.3354
48.7709 44.6228 -24.8552
50.8903 44.6171 -27.2425
50.439 44.7202 -26.7089
50.6113 44.514 -26.6328
50.1002 44.8562 -26.1386
50.439 44.7202 -26.7089
51.1825 44.3195 -27.8563
50.8903 44.6171 -27.2425
50.1002 44.8562 -26.1386
49.7518 44.6944 -25.8047
52.8901 43.5599 -17.4212
52.866 43.0092 -17.599
53.1209 43.5016 -17.9004
52.9867 44.3578 -17.1465
52.8901 43.5599 -17.4212
53.0939 44.6791 -17.9299
52.9356 44.9847 -17.3537
52.9867 44.3578 -17.1465
52.2979 42.0083 -17.5035
52.5393 42.5247 -17.4704
52.5393 42.5247 -17.4704
52.77 42.4664 -17.9496
52.866 43.0092 -17.599
46.2275 44.5288 -22.1514
46.1672 44.2605 -22.1788
46.7413 44.4766 -22.3923
46.7413 44.4766 -22.3923
47.0775 44.3083 -22.815
45.9098 44.8644 -21.9237
46.2275 44.5288 -22.1514
45.9098 44.8644 -21.9237
45.5307 45.3781 -21.7441
45.2744 44.8265 -21.7583
52.9356 44.9847 -17.3537
52.8125 45.7948 -17.6572
52.4916 46.5776 -18.0892
52.8125 45.7948 -17.6572
52.722 46.0888 -18.5691
45.3804 45.8908 -21.4431
45.5307 45.3781 -21.7441
44.6438 45.8852 -21.5461
45.3804 45.8908 -21.4431
44.6438 45.8852 -21.5461
43.8789 45.8858 -21.5328
44.1304 45.3408 -21.5655
43.1045 45.8182 -21.4885
43.8789 45.8858 -21.5328
43.6179 46.3627 -21.4691
52.4916 46.5776 -18.0892
52.2719 47.124 -18.2731
51.8312 47.3663 -19.5543
51.3636 48.0216 -19.2946
51.9335 47.5269 -18.7413
51.9335 47.5269 -18.7413
52.2719 47.124 -18.2731
50.9046 48.2571 -19.9196
51.0069 48.4177 -19.1067
51.3636 48.0216 -19.2946
43.4058 46.8942 -21.4474
43.6179 46.3627 -21.4691
43.4058 46.8942 -21.4474
42.6611 46.7774 -21.4322
42.6611 46.7774 -21.4322
42.0174 46.7414 -21.5425
42.1998 46.2591 -21.535
42.0174 46.7414 -21.5425
41.8162 47.1679 -21.57
41.3549 46.6496 -21.6728
51.0069 48.4177 -19.1067
50.6228 48.8299 -19.1397
50.6228 48.8299 -19.1397
50.2594 49.0231 -19.481
49.9898 48.7489 -20.1763
49.7013 49.1188 -19.9256
50.2594 49.0231 -19.481
49.4711 49.5714 -19.5226
49.7013 49.1188 -19.9256
49.2015 49.2971 -20.2179
41.6346 47.6276 -21.737
41.8162 47.1679 -21.57
41.6346 47.6276 -21.737
40.938 47.5023 -21.9601
40.938 47.5023 -21.9601
40.3302 47.4357 -22.0893
40.546 47.0094 -21.8296
40.3302 47.4357 -22.0893
40.0654 47.8678 -22.32
39.6734 47.3749 -22.1895
49.2753 49.8563 -19.1351
49.4711 49.5714 -19.5226
49.2753 49.8563 -19.1351
48.9258 50.2161 -18.7413
48.6573 50.4283 -18.6361
48.9258 50.2161 -18.7413
48.7029 49.9619 -19.7096
44.7752 49.4816 -21.2527
44.955 49.0775 -21.1669
44.2996 48.8526 -21.1566
43.8657 48.2757 -20.9479
43.6859 48.6798 -21.0338
44.2996 48.8526 -21.1566
43.6859 48.6798 -21.0338
42.9491 48.5157 -20.9728
42.7552 47.9053 -21.0451
42.4524 48.3182 -21.1928
42.9491 48.5157 -20.9728
42.4524 48.3182 -21.1928
42.0713 47.9118 -21.3436
41.8605 47.6017 -21.461
41.6734 47.8058 -21.5396
42.0713 47.9118 -21.3436
41.6734 47.8058 -21.5396
41.377 48.0939 -21.5821
40.9581 47.5219 -21.7232
40.8725 48.1201 -21.6483
41.377 48.0939 -21.5821
40.8725 48.1201 -21.6483
40.1574 48.0908 -21.7403
39.8661 47.5756 -21.7774
39.5699 48.1183 -21.7284
40.1574 48.0908 -21.7403
39.2475 48.6394 -21.7157
39.5699 48.1183 -21.7284
38.9561 48.1242 -21.7528
36.8373 49.0935 -22.2812
36.9215 48.672 -22.3209
37.2213 48.9003 -22.4386
39.8487 48.3535 -22.5734
40.0654 47.8678 -22.32
39.2129 48.3329 -22.6464
39.8487 48.3535 -22.5734
39.2129 48.3329 -22.6464
38.5428 48.3007 -22.7569
38.7385 47.7747 -22.5307
37.9995 48.362 -22.7406
38.5428 48.3007 -22.7569
37.9995 48.362 -22.7406
37.618 48.7301 -22.6591
37.6869 48.1106 -22.5597
37.2213 48.9003 -22.4386
37.618 48.7301 -22.6591
48.6573 50.4283 -18.6361
48.1252 50.2622 -19.7239
48.3481 50.5165 -18.7556
48.3481 50.5165 -18.7556
47.8265 50.7701 -19.2038
48.3587 50.9362 -18.1161
48.3587 50.9362 -18.1161
47.865 51.4377 -17.3427
47.6112 51.237 -18.835
47.4509 51.5104 -18.5317
47.6769 51.4633 -18.261
47.6769 51.4633 -18.261
47.865 51.4377 -17.3427
47.107 50.8984 -19.6986
46.9503 50.9855 -19.8057
47.2285 51.3713 -19.2127
47.2285 51.3713 -19.2127
47.4509 51.5104 -18.5317
46.1297 50.1096 -20.7773
45.8275 50.3167 -20.8888
46.5266 50.7199 -20.4031
46.5266 50.7199 -20.4031
46.9503 50.9855 -19.8057
44.7752 49.4816 -21.2527
45.2639 50.0519 -21.3531
45.2639 50.0519 -21.3531
45.8275 50.3167 -20.8888
39.2475 48.6394 -21.7157
38.9101 49.1905 -21.8143
38.0786 48.6838 -21.7484
37.7348 49.2437 -21.7852
38.2898 49.2053 -21.7769
38.2898 49.2053 -21.7769
38.9101 49.1905 -21.8143
37.0291 48.7867 -21.8135
36.6591 49.3484 -21.8513
37.1536 49.2839 -21.7945
37.1536 49.2839 -21.7945
37.7348 49.2437 -21.7852
36.1367 48.9381 -21.9134
35.7578 49.5044 -21.9322
36.1556 49.4175 -21.889
36.1556 49.4175 -21.889
36.6591 49.3484 -21.8513
35.4595 49.105 -21.8351
35.0979 49.6659 -21.7724
35.3774 49.5858 -21.8937
35.3774 49.5858 -21.8937
35.7578 49.5044 -21.9322
34.9171 49.2184 -21.664
34.5476 49.7696 -21.59
34.8105 49.7363 -21.6397
34.8105 49.7363 -21.6397
35.0979 49.6659 -21.7724
34.4592 49.4541 -21.5507
34.1251 50.0357 -21.4348
34.3201 49.8333 -21.4984
34.3201 49.8333 -21.4984
34.5476 49.7696 -21.59
34.3196 49.4701 -21.5247
34.2575 49.5779 -21.5193
34.202 49.7642 -21.4817
34.202 49.7642 -21.4817
34.1251 50.0357 -21.4348
34.2559 49.5356 -21.5561
34.0406 49.9922 -21.5061
34.1598 49.7403 -21.5123
34.1598 49.7403 -21.5123
34.2575 49.5779 -21.5193
34.1969 49.6828 -21.5492
34.1581 49.8467 -21.5319
34.098 49.9514 -21.5326
34.098 49.9514 -21.5326
34.0406 49.9922 -21.5061
34.3042 49.9835 -21.5338
34.2632 49.8146 -21.5615
34.2632 49.8146 -21.5615
34.1581 49.8467 -21.5319
34.3621 49.546 -21.5781
34.5865 49.435 -21.6311
34.6105 49.626 -21.6824
34.4913 49.7049 -21.659
34.4913 49.7049 -21.659
34.3042 49.9835 -21.5338
34.9323 49.6477 -21.7688
34.765 49.5503 -21.7162
34.765 49.5503 -21.7162
34.6105 49.626 -21.6824
34.8602 49.2804 -21.6883
35.1473 49.261 -21.7563
35.065 49.704 -21.803
34.9323 49.6477 -21.7688
35.065 49.704 -21.803
35.3103 49.5421 -21.878
36.5482 49.4371 -22.1809
36.2025 49.3486 -22.1071
36.2025 49.3486 -22.1071
35.8073 49.4229 -22.0059
36.1423 48.9396 -22.0624
36.8373 49.0935 -22.2812
36.5482 49.4371 -22.1809
35.8073 49.4229 -22.0059
35.5438 49.3905 -21.9633
35.5438 49.3905 -21.9633
35.3103 49.5421 -21.878
35.5135 49.1656 -21.8759
3 458 0 459
3 461 460 2
3 462 2 463
3 464 463 0
3 462 463 464
3 465 1 466
3 467 466 2
3 465 466 467
3 468 2 469
3 471 470 1
3 472 5 473
3 475 474 7
3 476 7 477
3 478 477 5
3 476 477 478
3 0 6 7
3 0 479 481
3 479 7 480
3 479 480 481
3 0 2 9
3 0 9 6
3 1 8 9
3 1 9 2
3 1 482 484
3 484 483 10
3 482 483 484
3 1 10 8
3 486 485 10
3 488 487 23
3 489 23 490
3 3 491 492
3 3 493 495
3 495 494 5
3 493 494 495
3 3 22 23
3 3 496 498
3 496 23 497
3 496 497 498
3 3 5 26
3 3 26 22
3 4 5 7
3 4 7 6
3 4 25 26
3 4 26 5
3 4 6 28
3 4 28 25
3 6 9 30
3 6 30 28
3 8 10 11
3 8 11 9
3 9 11 31
3 9 31 30
3 10 499 501
3 501 500 12
3 499 500 501
3 10 12 11
3 11 12 33
3 11 33 31
3 503 502 14
3 504 14 505
3 506 505 12
3 504 505 506
3 12 14 15
3 12 15 13
3 12 13 34
3 12 34 33
3 13 15 35
3 13 35 34
3 508 507 16
3 509 16 510
3 511 510 14
3 509 510 511
3 14 16 17
3 14 17 15
3 15 17 37
3 15 37 35
3 513 512 16
3 16 514 516
3 516 515 18
3 514 515 516
3 16 18 17
3 17 18 39
3 17 39 37
3 518 517 19
3 519 19 520
3 521 520 18
3 519 520 521
3 18 19 41
3 18 41 39
3 523 522 19
3 19 524 525
3 19 526 528
3 528 527 41
3 526 527 528
3 530 529 44
3 531 44 532
3 534 533 46
3 535 46 536
3 537 536 44
3 535 536 537
3 539 538 50
3 540 50 541
3 542 541 46
3 540 541 542
3 20 543 545
3 545 544 23
3 543 544 545
3 20 23 22
3 20 49 50
3 20 546 548
3 546 50 547
3 546 547 548
3 20 22 56
3 20 56 49
3 21 22 26
3 21 26 25
3 21 55 56
3 21 56 22
3 21 25 64
3 21 64 55
3 24 25 28
3 24 28 27
3 24 63 64
3 24 64 25
3 24 27 71
3 24 71 63
3 27 28 30
3 27 30 29
3 27 29 77
3 27 77 71
3 29 30 78
3 29 78 77
3 30 31 80
3 30 80 78
3 31 33 34
3 31 34 32
3 31 32 81
3 31 81 80
3 32 34 83
3 32 83 81
3 34 35 84
3 34 84 83
3 35 37 38
3 35 38 36
3 35 36 85
3 35 85 84
3 36 38 87
3 36 87 85
3 37 39 40
3 37 40 38
3 38 40 88
3 38 88 87
3 39 41 42
3 39 42 40
3 40 42 89
3 40 89 88
3 41 549 551
3 551 550 89
3 549 550 551
3 41 89 42
3 41 552 553
3 41 554 555
3 91 556 557
3 558 44 559
3 560 559 91
3 558 559 560
3 94 91 44
3 43 44 45
3 46 45 44
3 43 93 44
3 94 44 93
3 43 45 93
3 97 93 45
3 45 46 49
3 50 49 46
3 45 49 97
3 108 97 49
3 47 48 54
3 55 54 48
3 47 106 48
3 107 48 106
3 47 54 106
3 118 106 54
3 48 49 55
3 56 55 49
3 48 107 49
3 108 49 107
3 51 60 52
3 61 52 60
3 51 52 112
3 113 112 52
3 51 112 60
3 123 60 112
3 52 61 113
3 124 113 61
3 53 54 62
3 63 62 54
3 53 117 54
3 118 54 117
3 53 62 117
3 128 117 62
3 54 55 63
3 64 63 55
3 57 65 58
3 66 58 65
3 57 58 120
3 121 120 58
3 57 120 65
3 131 65 120
3 58 66 59
3 67 59 66
3 58 59 121
3 122 121 59
3 59 67 60
3 68 60 67
3 59 60 122
3 123 122 60
3 60 68 61
3 69 61 68
3 61 69 124
3 133 124 69
3 62 63 70
3 71 70 63
3 62 70 128
3 136 128 70
3 65 72 66
3 73 66 72
3 65 131 72
3 139 72 131
3 66 73 67
3 74 67 73
3 67 74 68
3 75 68 74
3 68 132 69
3 133 69 132
3 68 75 132
3 142 132 75
3 70 71 76
3 77 76 71
3 70 76 136
3 144 136 76
3 72 139 73
3 140 73 139
3 73 140 74
3 141 74 140
3 74 141 75
3 142 75 141
3 76 77 144
3 145 144 77
3 77 78 79
3 80 79 78
3 77 79 145
3 152 145 79
3 79 80 152
3 153 152 80
3 80 81 82
3 83 82 81
3 80 82 153
3 157 153 82
3 82 83 157
3 158 157 83
3 83 84 158
3 159 158 84
3 84 85 87
3 84 87 86
3 84 86 160
3 84 160 159
3 86 87 161
3 86 161 160
3 87 88 162
3 87 162 161
3 88 89 163
3 88 163 162
3 562 561 163
3 563 163 564
3 565 564 89
3 563 564 565
3 567 566 90
3 91 568 570
3 568 90 569
3 568 569 570
3 571 90 572
3 165 573 575
3 575 574 90
3 573 574 575
3 90 91 93
3 94 93 91
3 90 93 165
3 168 165 93
3 92 93 96
3 97 96 93
3 92 167 93
3 168 93 167
3 92 96 167
3 177 167 96
3 95 96 106
3 107 106 96
3 95 176 96
3 177 96 176
3 95 106 176
3 190 176 106
3 96 97 107
3 108 107 97
3 98 110 99
3 111 99 110
3 98 99 180
3 181 180 99
3 98 180 110
3 194 110 180
3 99 111 100
3 112 100 111
3 99 100 181
3 182 181 100
3 100 112 101
3 113 101 112
3 100 101 182
3 183 182 101
3 101 113 102
3 114 102 113
3 101 102 183
3 184 183 102
3 102 114 103
3 115 103 114
3 102 103 184
3 185 184 103
3 103 115 104
3 116 104 115
3 103 104 185
3 186 185 104
3 104 116 186
3 195 186 116
3 105 106 117
3 118 117 106
3 105 189 106
3 190 106 189
3 105 117 189
3 198 189 117
3 109 120 110
3 121 110 120
3 109 110 193
3 194 193 110
3 109 193 120
3 202 120 193
3 110 121 111
3 122 111 121
3 111 122 112
3 123 112 122
3 113 124 114
3 125 114 124
3 114 125 115
3 126 115 125
3 115 126 116
3 127 116 126
3 116 127 195
3 204 195 127
3 117 128 198
3 207 198 128
3 119 130 120
3 131 120 130
3 119 120 201
3 202 201 120
3 119 201 130
3 210 130 201
3 124 133 125
3 134 125 133
3 125 134 126
3 135 126 134
3 126 203 127
3 204 127 203
3 126 135 203
3 213 203 135
3 128 136 207
3 216 207 136
3 129 137 130
3 138 130 137
3 129 130 209
3 210 209 130
3 129 209 137
3 218 137 209
3 130 138 131
3 139 131 138
3 132 142 133
3 143 133 142
3 133 211 134
3 212 134 211
3 133 143 211
3 220 211 143
3 134 212 135
3 213 135 212
3 136 144 216
3 222 216 144
3 137 146 138
3 147 138 146
3 137 218 146
3 224 146 218
3 138 147 139
3 148 139 147
3 139 148 140
3 149 140 148
3 140 149 141
3 150 141 149
3 141 150 142
3 151 142 150
3 142 219 143
3 220 143 219
3 142 151 219
3 227 219 151
3 144 145 222
3 223 222 145
3 145 152 146
3 153 146 152
3 145 146 223
3 224 223 146
3 146 153 147
3 154 147 153
3 147 154 148
3 155 148 154
3 148 155 149
3 156 149 155
3 149 225 150
3 226 150 225
3 149 156 225
3 230 225 156
3 150 226 151
3 227 151 226
3 153 157 154
3 158 154 157
3 154 228 155
3 229 155 228
3 154 158 228
3 232 228 158
3 155 229 156
3 230 156 229
3 158 159 232
3 576 232 577
3 578 577 159
3 576 577 578
3 159 579 581
3 579 160 580
3 579 580 581
3 583 582 160
3 160 584 586
3 584 161 585
3 584 585 586
3 162 587 589
3 589 588 161
3 587 588 589
3 160 590 591
3 592 162 593
3 163 594 596
3 596 595 162
3 594 595 596
3 597 165 598
3 599 598 237
3 597 598 599
3 600 237 601
3 164 165 168
3 164 168 167
3 164 236 237
3 164 237 165
3 164 167 239
3 164 239 236
3 166 167 177
3 166 177 176
3 166 238 239
3 166 239 167
3 166 176 252
3 166 252 238
3 169 180 181
3 169 181 170
3 169 170 243
3 169 243 242
3 169 242 256
3 169 256 180
3 170 181 182
3 170 182 171
3 170 171 244
3 170 244 243
3 171 182 183
3 171 183 172
3 171 172 245
3 171 245 244
3 172 183 184
3 172 184 173
3 172 173 246
3 172 246 245
3 173 184 185
3 173 185 174
3 173 174 247
3 173 247 246
3 174 185 257
3 174 257 247
3 175 176 190
3 175 190 189
3 175 251 252
3 175 252 176
3 175 189 263
3 175 263 251
3 178 192 193
3 178 193 179
3 178 179 255
3 178 255 254
3 178 254 266
3 178 266 192
3 179 193 194
3 179 194 180
3 179 180 256
3 179 256 255
3 185 186 258
3 185 258 257
3 186 195 196
3 186 196 187
3 186 187 259
3 186 259 258
3 187 196 188
3 197 188 196
3 187 188 260
3 187 260 259
3 188 197 260
3 267 260 197
3 189 198 263
3 270 263 198
3 191 200 192
3 201 192 200
3 191 192 265
3 266 265 192
3 191 265 272
3 191 272 200
3 192 201 193
3 202 193 201
3 195 204 196
3 205 196 204
3 196 205 197
3 206 197 205
3 197 206 267
3 274 267 206
3 198 207 270
3 277 270 207
3 199 208 200
3 209 200 208
3 199 200 271
3 272 271 200
3 199 271 278
3 199 278 208
3 200 209 201
3 210 201 209
3 203 213 204
3 214 204 213
3 204 214 205
3 215 205 214
3 205 273 274
3 205 274 206
3 205 215 273
3 282 273 215
3 207 216 208
3 217 208 216
3 207 208 277
3 278 277 208
3 208 217 209
3 218 209 217
3 211 220 212
3 221 212 220
3 212 279 213
3 280 213 279
3 212 221 279
3 286 279 221
3 213 280 214
3 281 214 280
3 214 281 215
3 282 215 281
3 216 222 217
3 223 217 222
3 217 223 218
3 224 218 223
3 219 284 220
3 285 220 284
3 219 227 284
3 288 284 227
3 220 285 221
3 286 221 285
3 225 230 226
3 231 226 230
3 226 602 604
3 604 603 227
3 602 603 604
3 288 605 607
3 605 227 606
3 605 606 607
3 226 608 610
3 608 231 609
3 608 609 610
3 612 611 231
3 228 232 229
3 233 229 232
3 229 233 230
3 613 230 614
3 615 614 233
3 613 614 615
3 230 616 618
3 618 617 231
3 616 617 618
3 619 231 620
3 230 621 622
3 232 623 625
3 625 624 233
3 623 624 625
3 626 233 627
3 232 628 629
3 233 630 631
3 234 632 634
3 634 633 236
3 632 633 634
3 234 236 235
3 234 635 636
3 234 235 289
3 234 637 639
3 637 289 638
3 637 638 639
3 641 640 237
3 642 237 643
3 644 643 236
3 642 643 644
3 235 236 239
3 235 239 238
3 235 238 295
3 235 295 289
3 238 252 310
3 238 310 295
3 240 254 255
3 240 255 241
3 240 241 298
3 240 298 297
3 240 297 312
3 240 312 254
3 241 255 256
3 241 256 242
3 241 242 299
3 241 299 298
3 242 243 300
3 242 300 299
3 243 244 301
3 243 301 300
3 244 245 302
3 244 302 301
3 245 246 303
3 245 303 302
3 246 247 304
3 246 304 303
3 247 257 258
3 247 258 248
3 247 248 305
3 247 305 304
3 248 258 259
3 248 259 249
3 248 249 306
3 248 306 305
3 249 259 260
3 249 260 250
3 249 250 307
3 249 307 306
3 250 260 313
3 250 313 307
3 251 263 264
3 251 264 252
3 252 264 265
3 252 265 253
3 252 253 311
3 252 311 310
3 253 265 266
3 253 266 254
3 253 254 312
3 253 312 311
3 260 267 268
3 260 268 261
3 260 261 314
3 260 314 313
3 261 268 269
3 261 269 262
3 261 262 315
3 261 315 314
3 262 269 317
3 262 317 315
3 263 270 271
3 263 271 264
3 264 271 272
3 264 272 265
3 267 274 275
3 267 275 268
3 268 275 276
3 268 276 269
3 269 276 321
3 269 321 317
3 270 277 278
3 270 278 271
3 273 282 283
3 273 283 274
3 274 319 320
3 274 320 275
3 274 283 326
3 274 326 319
3 275 320 321
3 275 321 276
3 279 286 287
3 279 287 280
3 280 323 324
3 280 324 281
3 280 287 331
3 280 331 323
3 281 324 325
3 281 325 282
3 282 325 326
3 282 326 283
3 645 284 646
3 647 646 288
3 645 646 647
3 648 288 649
3 651 650 284
3 284 652 654
3 654 653 329
3 652 653 654
3 284 329 285
3 285 329 330
3 285 330 286
3 286 330 331
3 286 331 287
3 655 289 656
3 333 657 659
3 659 658 289
3 657 658 659
3 289 295 333
3 342 333 295
3 290 298 291
3 299 291 298
3 290 291 336
3 337 336 291
3 290 336 298
3 345 298 336
3 291 299 292
3 300 292 299
3 291 292 337
3 338 337 292
3 292 300 293
3 301 293 300
3 292 293 338
3 339 338 293
3 293 301 294
3 302 294 301
3 293 294 339
3 340 339 294
3 294 302 340
3 346 340 302
3 295 310 296
3 311 296 310
3 295 296 342
3 343 342 296
3 296 311 297
3 312 297 311
3 296 297 343
3 344 343 297
3 297 298 344
3 345 344 298
3 302 303 346
3 347 346 303
3 303 304 347
3 348 347 304
3 304 305 348
3 349 348 305
3 305 306 349
3 350 349 306
3 306 307 350
3 351 350 307
3 307 313 308
3 314 308 313
3 307 308 351
3 352 351 308
3 308 314 309
3 315 309 314
3 308 309 352
3 353 352 309
3 309 315 353
3 355 353 315
3 315 317 316
3 318 316 317
3 315 316 355
3 356 355 316
3 316 318 356
3 358 356 318
3 317 321 318
3 322 318 321
3 318 322 358
3 361 358 322
3 319 326 320
3 327 320 326
3 320 327 321
3 328 321 327
3 321 360 322
3 361 322 360
3 321 328 360
3 367 360 328
3 323 331 324
3 332 324 331
3 324 363 325
3 364 325 363
3 324 332 363
3 371 363 332
3 325 364 326
3 365 326 364
3 326 365 327
3 366 327 365
3 327 366 328
3 367 328 366
3 661 660 329
3 662 329 663
3 329 664 666
3 666 665 330
3 664 665 666
3 369 667 669
3 667 330 668
3 667 668 669
3 330 369 331
3 370 331 369
3 331 370 332
3 371 332 370
3 670 333 671
3 333 342 343
3 333 343 334
3 333 672 674
3 672 334 673
3 672 673 674
3 333 675 676
3 334 343 344
3 334 344 335
3 334 335 374
3 334 677 679
3 677 374 678
3 677 678 679
3 335 344 345
3 335 345 336
3 335 336 375
3 335 375 374
3 336 337 376
3 336 376 375
3 337 338 377
3 337 377 376
3 338 339 378
3 338 378 377
3 339 340 379
3 339 379 378
3 340 346 347
3 340 347 341
3 340 341 380
3 340 380 379
3 341 347 382
3 341 382 380
3 347 348 383
3 347 383 382
3 348 349 384
3 348 384 383
3 349 350 385
3 349 385 384
3 350 351 386
3 350 386 385
3 351 352 387
3 351 387 386
3 352 353 388
3 352 388 387
3 353 355 356
3 353 356 354
3 353 354 389
3 353 389 388
3 354 356 391
3 354 391 389
3 356 358 359
3 356 359 357
3 356 357 392
3 356 392 391
3 357 359 394
3 357 394 392
3 358 361 362
3 358 362 359
3 359 362 397
3 359 397 394
3 360 367 368
3 360 368 361
3 361 396 397
3 361 397 362
3 361 368 401
3 361 401 396
3 363 371 372
3 363 372 364
3 364 372 373
3 364 373 365
3 365 398 399
3 365 399 366
3 365 373 404
3 365 404 398
3 366 399 400
3 366 400 367
3 367 400 401
3 367 401 368
3 681 680 369
3 369 682 683
3 369 684 686
3 686 685 370
3 684 685 686
3 370 687 689
3 689 688 402
3 687 688 689
3 370 402 371
3 371 402 403
3 371 403 372
3 372 403 404
3 372 404 373
3 690 374 691
3 693 692 374
3 374 694 696
3 694 375 695
3 694 695 696
3 406 697 699
3 699 698 375
3 697 698 699
3 375 376 406
3 407 406 376
3 376 377 407
3 408 407 377
3 377 378 408
3 409 408 378
3 378 379 409
3 410 409 379
3 379 380 410
3 411 410 380
3 380 382 381
3 383 381 382
3 380 381 411
3 412 411 381
3 381 383 412
3 413 412 383
3 383 384 413
3 414 413 384
3 384 385 414
3 415 414 385
3 385 386 415
3 416 415 386
3 386 387 416
3 417 416 387
3 387 388 417
3 418 417 388
3 388 389 418
3 419 418 389
3 389 391 390
3 392 390 391
3 389 390 419
3 420 419 390
3 390 392 420
3 421 420 392
3 392 394 393
3 395 393 394
3 392 393 421
3 422 421 393
3 393 395 422
3 424 422 395
3 394 423 395
3 424 395 423
3 394 397 423
3 426 423 397
3 396 425 397
3 426 397 425
3 396 401 430
3 396 430 425
3 398 404 405
3 398 405 399
3 399 428 429
3 399 429 400
3 399 405 433
3 399 433 428
3 400 429 430
3 400 430 401
3 701 700 402
3 402 702 703
3 402 704 706
3 706 705 403
3 704 705 706
3 403 707 709
3 709 708 432
3 707 708 709
3 403 432 404
3 404 432 433
3 404 433 405
3 406 710 711
3 712 406 713
3 437 714 716
3 716 715 406
3 714 715 716
3 406 407 437
3 438 437 407
3 407 408 438
3 439 438 408
3 408 409 439
3 440 439 409
3 409 410 440
3 717 440 718
3 719 718 410
3 717 718 719
3 410 720 722
3 720 411 721
3 720 721 722
3 724 723 411
3 411 725 727
3 725 412 726
3 725 726 727
3 729 728 412
3 412 730 732
3 730 413 731
3 730 731 732
3 734 733 413
3 413 735 737
3 735 414 736
3 735 736 737
3 739 738 414
3 414 740 742
3 740 415 741
3 740 741 742
3 441 743 745
3 745 744 415
3 743 744 745
3 415 416 441
3 442 441 416
3 416 417 442
3 443 442 417
3 417 418 443
3 444 443 418
3 418 419 444
3 445 444 419
3 419 420 445
3 446 445 420
3 420 421 446
3 448 446 421
3 421 422 448
3 449 448 422
3 422 424 449
3 451 449 424
3 423 426 424
3 427 424 426
3 424 427 451
3 454 451 427
3 425 430 426
3 431 426 430
3 426 453 427
3 454 427 453
3 426 431 453
3 457 453 431
3 428 433 429
3 434 429 433
3 429 455 430
3 456 430 455
3 429 434 455
3 746 455 747
3 748 747 434
3 746 747 748
3 430 456 431
3 457 431 456
3 750 749 432
3 751 432 752
3 432 753 755
3 755 754 433
3 753 754 755
3 756 433 757
3 433 758 760
3 760 759 434
3 758 759 760
3 761 434 762
3 763 437 764
3 765 764 438
3 763 764 765
3 766 438 767
3 768 767 435
3 766 767 768
3 769 435 770
3 435 438 439
3 435 439 436
3 435 771 773
3 771 436 772
3 771 772 773
3 435 774 775
3 436 776 778
3 776 439 777
3 776 777 778
3 436 779 780
3 439 781 783
3 781 440 782
3 781 782 783
3 439 784 785
3 440 786 787
3 440 788 789
3 790 441 791
3 441 792 794
3 792 442 793
3 792 793 794
3 441 795 796
3 442 797 799
3 797 443 798
3 797 798 799
3 442 800 801
3 443 802 804
3 802 444 803
3 802 803 804
3 443 805 806
3 444 807 809
3 807 445 808
3 807 808 809
3 444 810 811
3 445 812 814
3 812 446 813
3 812 813 814
3 445 815 816
3 446 448 449
3 446 449 447
3 446 817 819
3 817 447 818
3 817 818 819
3 446 820 821
3 447 822 824
3 822 449 823
3 822 823 824
3 447 825 826
3 449 451 452
3 449 452 450
3 449 827 829
3 827 450 828
3 827 828 829
3 449 830 831
3 450 832 834
3 832 452 833
3 832 833 834
3 450 835 836
3 451 837 838
3 451 839 841
3 841 840 452
3 839 840 841
3 451 842 844
3 842 454 843
3 842 843 844
3 451 845 846
3 453 847 848
3 453 849 851
3 851 850 454
3 849 850 851
3 453 852 854
3 852 457 853
3 852 853 854
3 856 855 457
3 455 857 858
3 455 859 861
3 861 860 456
3 859 860 861
3 455 862 863
3 456 864 865
3 456 866 868
3 868 867 457
3 866 867 868
