ply
format ascii 1.0
element vertex 160
property float x
property float y
property float z
property uchar red
property uchar green
property uchar blue
element face 151
property list uchar int vertex_index
end_header
7.21131 19.7205 47.2448 255 182 0
6.9224 30.7727 50.8711 255 94 0
8.12059 32.4486 38.7256 148 255 107
8.12808 27.4643 38.1294 0 126 255
8.30582 26.4614 42.9332 255 27 0
7.56475 19.2435 52.3514 152 255 103
8.30346 25.4251 49.2149 165 0 0
6.78842 24.4867 54.4069 184 255 71
8.24098 31.9297 44.7305 195 0 0
7.15434 20.158 44.7648 64 255 191
7.13308 24.0934 42.3928 181 255 74
7.42494 23.1401 44.9959 255 19 0
8.7319 17.3935 48.327 10 255 245
8.09986 17.5324 46.0447 0 157 255
7.29743 19.1023 54.9384 0 200 255
6.94702 21.7388 53.2726 255 159 0
6.70942 21.4013 55.7935 0 210 255
8.27324 29.9316 38.3928 75 255 180
7.77005 32.6384 36.2402 0 113 255
7.68864 28.3275 50.1605 248 0 0
8.44927 28.8241 47.0623 157 0 0
7.55243 31.3191 47.9226 246 0 0
7.66351 24.5033 40.0272 0 161 255
7.81501 27.1217 40.1837 255 228 0
8.5587 29.6356 40.7621 255 125 0
6.59729 33.1117 51.5277 0 221 255
6.8773 33.9062 48.6234 138 255 117
7.67627 19.5725 49.6842 255 182 0
7.77145 22.4433 47.825 253 0 0
7.55089 22.1552 50.6687 255 76 0
7.48743 24.9023 51.9715 255 44 0
7.03385 27.7368 52.9995 255 95 0
6.53821 27.1956 55.5045 0 211 255
6.52703 30.2296 53.7409 55 255 200
9.23448 17.3887 50.7823 0 216 255
8.78775 25.9292 45.9958 128 0 0
8.81331 29.1901 43.7112 199 0 0
8.58295 32.3399 41.5198 255 32 0
7.30197 34.5304 45.4934 188 255 67
7.91763 34.8955 42.3729 175 255 80
8.29653 35.0841 39.2674 22 255 233
6.89102 20.1814 56.748 0 0 168
7.00343 20.2518 55.366 0 0 197
7.18502 19.0319 56.3204 0 0 168
7.18502 19.0319 56.3204 0 0 140
7.86035 17.9638 55.4848 0 0 140
8.0447 33.8588 37.6131 0 0 168
7.86943 33.9537 36.3704 0 0 168
7.94532 32.5435 37.4829 0 0 197
7.72849 22.9044 41.2589 0 0 135
8.21743 23.3482 40.2991 0 0 135
6.75996 35.8977 50.4851 0 0 136
6.53282 34.7473 50.419 0 0 161
6.82443 34.2621 51.5938 0 0 161
6.76058 28.3806 55.7864 0 0 156
6.84022 26.8288 56.4682 0 0 156
7.06259 28.0137 56.7501 0 0 133
6.75499 29.8975 54.9047 0 0 163
6.53262 28.7126 54.6227 0 0 190
6.76058 28.3806 55.7864 0 0 163
6.8495 31.2173 53.856 0 0 132
6.75499 29.8975 54.9047 0 0 132
8.39962 18.3161 51.5669 0 0 202
9.03635 17.2075 52.1478 0 0 171
8.20148 18.1349 52.9324 0 0 171
8.43663 27.7091 37.2056 0 0 130
8.28478 26.2507 38.2211 0 0 130
6.99914 35.7615 45.8706 0 0 184
7.08963 34.2183 47.0584 0 0 221
6.78681 35.4494 47.4356 0 0 184
8.21909 36.403 41.2662 0 0 149
7.69613 36.2209 42.7999 0 0 149
8.40854 36.4974 39.7134 0 0 189
8.10708 34.9898 40.8202 0 0 229
8.21909 36.403 41.2662 0 0 189
8.37367 36.4942 38.1487 0 0 149
8.40854 36.4974 39.7134 0 0 149
7.14371 22.1257 43.5788 0 0 200
7.46328 22.6995 42.4417 0 0 170
7.47391 20.7318 43.6277 0 0 170
9.0084 16.2996 47.7203 0 0 136
9.42384 16.1588 48.8604 0 0 136
8.69238 16.3691 46.5791 0 0 160
9.0084 16.2996 47.7203 0 0 160
8.41588 17.4629 47.1859 0 0 185
8.47092 16.6292 45.5819 0 0 130
8.69238 16.3691 46.5791 0 0 130
8.10836 17.8352 45.036 0 0 129
8.47092 16.6292 45.5819 0 0 129
7.6356 19.148 44.396 0 0 153
8.10836 17.8352 45.036 0 0 153
7.6271 18.8452 45.4047 0 0 175
7.47391 20.7318 43.6277 0 0 137
7.6356 19.148 44.396 0 0 137
8.06782 18.0643 54.2258 0 0 138
7.86035 17.9638 55.4848 0 0 138
7.43109 19.1729 53.6449 0 0 197
8.20148 18.1349 52.9324 0 0 168
8.06782 18.0643 54.2258 0 0 168
8.35041 29.9814 37.2346 0 0 160
8.27783 28.7478 37.1029 0 0 160
8.20066 28.6979 38.2611 0 0 185
8.09882 31.3348 36.1584 0 0 164
8.35041 29.9814 37.2346 0 0 164
8.02164 31.285 37.3165 0 0 192
7.87842 32.6827 34.9977 0 0 139
8.09882 31.3348 36.1584 0 0 139
7.94315 34.0519 35.0804 0 0 140
7.87842 32.6827 34.9977 0 0 140
7.94315 34.0519 35.0804 0 0 140
7.86943 33.9537 36.3704 0 0 140
8.05249 24.7702 39.17 0 0 131
8.21743 23.3482 40.2991 0 0 131
7.89579 25.9838 39.0783 0 0 170
8.28478 26.2507 38.2211 0 0 150
8.05249 24.7702 39.17 0 0 150
7.3983 24.2983 41.21 0 0 201
7.72849 22.9044 41.2589 0 0 171
7.46328 22.6995 42.4417 0 0 171
6.67283 35.1446 48.9669 0 0 179
6.7373 33.5089 50.0755 0 0 213
6.53282 34.7473 50.419 0 0 179
6.78681 35.4494 47.4356 0 0 145
6.67283 35.1446 48.9669 0 0 145
6.70369 21.1987 57.1664 0 0 136
6.89102 20.1814 56.748 0 0 136
6.69551 22.7056 56.2776 0 0 143
6.70369 21.1987 57.1664 0 0 143
6.73501 24.2483 55.5842 0 0 168
6.74892 22.944 55.1002 0 0 196
6.69551 22.7056 56.2776 0 0 168
6.60991 25.6028 56.133 0 0 134
6.84022 26.8288 56.4682 0 0 134
6.66332 25.8412 54.9557 0 0 201
6.73501 24.2483 55.5842 0 0 170
6.60991 25.6028 56.133 0 0 170
6.88463 32.6584 52.7493 0 0 158
6.56216 31.6707 52.6343 0 0 182
6.8495 31.2173 53.856 0 0 158
6.82443 34.2621 51.5938 0 0 136
6.88463 32.6584 52.7493 0 0 136
9.70364 16.0098 51.4271 0 0 144
9.03635 17.2075 52.1478 0 0 144
9.67513 16.1564 50.0881 0 0 142
9.70364 16.0098 51.4271 0 0 142
8.98319 17.3911 49.5547 0 0 199
9.42384 16.1588 48.8604 0 0 169
9.67513 16.1564 50.0881 0 0 169
8.43663 27.7091 37.2056 0 0 128
8.27783 28.7478 37.1029 0 0 128
7.3883 36.0384 44.3601 0 0 146
6.99914 35.7615 45.8706 0 0 146
7.6098 34.7129 43.9332 0 0 225
7.3883 36.0384 44.3601 0 0 187
7.69613 36.2209 42.7999 0 0 187
8.13267 35.1765 37.884 0 0 175
8.0447 33.8588 37.6131 0 0 175
8.20856 33.7664 38.9965 0 0 208
8.13267 35.1765 37.884 0 0 143
8.37367 36.4942 38.1487 0 0 143
3 0 11 9
3 0 13 12
3 0 9 13
3 41 16 42
3 43 42 14
3 41 42 43
3 44 14 45
3 2 18 17
3 2 46 48
3 48 47 18
3 46 47 48
3 1 21 19
3 49 22 50
3 4 23 10
3 4 24 23
3 53 52 25
3 51 52 53
3 5 29 27
3 7 30 15
3 7 31 30
3 54 32 55
3 54 55 56
3 57 33 58
3 59 58 32
3 57 58 59
3 61 60 33
3 5 62 64
3 62 34 63
3 62 63 64
3 5 27 34
3 3 65 66
3 6 35 28
3 8 36 20
3 8 37 36
3 67 38 68
3 69 68 26
3 67 68 69
3 70 39 71
3 72 40 73
3 74 73 39
3 72 73 74
3 76 75 40
3 9 77 79
3 77 10 78
3 77 78 79
3 11 10 9
3 11 4 10
3 12 80 81
3 13 82 84
3 84 83 12
3 82 83 84
3 13 85 86
3 13 87 88
3 9 89 91
3 91 90 13
3 89 90 91
3 9 92 93
3 14 15 5
3 16 15 14
3 16 7 15
3 14 94 95
3 14 96 98
3 96 5 97
3 96 97 98
3 17 99 101
3 101 100 3
3 99 100 101
3 18 102 104
3 104 103 17
3 102 103 104
3 18 105 106
3 18 107 108
3 110 109 18
3 19 20 6
3 21 20 19
3 21 8 20
3 22 111 112
3 22 113 115
3 113 3 114
3 113 114 115
3 10 116 118
3 116 22 117
3 116 117 118
3 23 22 10
3 23 3 22
3 23 17 3
3 24 17 23
3 24 2 17
3 25 26 1
3 119 26 120
3 121 120 25
3 119 120 121
3 123 122 26
3 27 28 0
3 29 28 27
3 29 6 28
3 15 29 5
3 30 29 15
3 30 6 29
3 30 19 6
3 31 19 30
3 31 1 19
3 124 16 125
3 126 16 127
3 128 7 129
3 130 129 16
3 128 129 130
3 32 131 132
3 32 133 135
3 133 7 134
3 133 134 135
3 32 31 7
3 33 31 32
3 33 1 31
3 33 25 1
3 136 25 137
3 138 137 33
3 136 137 138
3 140 139 25
3 34 141 142
3 34 143 144
3 34 145 147
3 145 12 146
3 145 146 147
3 27 12 34
3 27 0 12
3 149 148 3
3 28 11 0
3 35 11 28
3 35 4 11
3 20 35 6
3 36 35 20
3 36 4 35
3 36 24 4
3 37 24 36
3 37 2 24
3 26 21 1
3 38 21 26
3 38 8 21
3 150 38 151
3 39 152 154
3 152 38 153
3 152 153 154
3 39 8 38
3 39 37 8
3 40 37 39
3 40 2 37
3 40 155 157
3 157 156 2
3 155 156 157
3 159 158 40
