ply
format ascii 1.0
element vertex 266
property float x
property float y
property float z
property uchar red
property uchar green
property uchar blue
element face 272
property list uchar int vertex_index
end_header
13.2354 -77.6152 3.93584 255 140 0
13.6071 -69.851 4.85563 255 138 0
3.98367 -84.9495 9.13007 0 67 255
7.46768 -76.7487 13.2681 255 38 0
17.1299 -69.5867 10.7574 75 255 180
15.3187 -82.6077 3.52182 173 255 82
6.94264 -81.8241 1.223 235 255 20
8.62959 -64.5235 6.06234 255 154 0
5.51722 -80.0973 10.0891 255 242 0
3.05018 -73.5191 14.4761 0 165 255
13.6669 -64.9471 8.91605 11 255 244
11.6831 -73.6447 6.71654 249 255 6
4.68785 -75.5824 6.2755 255 147 0
5.18889 -69.4519 8.56547 255 244 0
8.80518 -87.0368 8.27088 63 255 192
12.716 -82.8972 10.4209 253 255 2
14.3512 -79.526 11.1873 161 255 94
6.24959 -67.2902 12.2392 135 255 120
11.3395 -71.9537 14.7964 168 0 0
15.0908 -75.8512 11.0878 178 255 77
18.1675 -73.2717 7.58846 0 218 255
3.05508 -77.4734 0.357184 0 130 255
14.5678 -80.0663 3.73557 255 140 0
11.5399 -81.9335 1.16836 153 255 102
10.5679 -79.7038 2.66065 171 0 0
12.4373 -71.468 6.24979 255 223 0
8.42621 -71.5654 7.54623 255 126 0
9.16159 -69.0977 6.9645 255 108 0
8.39985 -62.2231 5.65461 0 150 255
5.57677 -63.9252 7.15441 0 207 255
5.87998 -85.6045 7.64202 21 255 234
6.57537 -78.4911 11.5145 255 185 0
9.18473 -81.8132 10.5847 255 196 0
10.4313 -80.3202 12.154 255 188 0
13.9645 -81.1358 10.8535 186 255 69
11.2598 -78.6329 13.6318 255 156 0
15.0899 -67.3054 9.75226 135 255 120
11.9351 -67.9657 11.7984 194 0 0
14.2583 -70.2376 13.1013 247 0 0
14.0519 -74.3566 14.2126 255 101 0
16.39 -72.7205 12.1294 255 197 0
16.4074 -74.4198 9.76181 151 255 104
18.4185 -72.0023 9.78805 0 220 255
3.05781 -73.3379 6.48492 0 170 255
3.15888 -76.4442 4.00839 136 255 119
15.0813 -84.8013 4.16353 0 211 255
15.5603 -68.4984 3.27655 126 255 129
10.6111 -67.2277 5.37152 255 48 0
13.0599 -65.7942 3.51746 144 255 111
11.8292 -63.3547 3.83391 0 235 255
4.28419 -82.1775 9.29928 86 255 169
3.80389 -79.3668 12.716 0 173 255
3.38017 -77.0522 12.324 45 255 210
4.44753 -74.8302 12.6875 255 222 0
11.7998 -75.4333 4.88894 255 228 0
8.73116 -76.7358 4.55166 229 0 0
7.89249 -74.3015 6.44582 255 114 0
4.67417 -72.5391 7.78032 248 255 7
3.162 -70.1571 7.81776 0 153 255
6.38775 -66.666 7.9485 255 184 0
3.85456 -66.7811 8.01925 0 175 255
12.2173 -87.5405 8.33552 0 212 255
7.61709 -83.4732 8.96388 255 169 0
10.6569 -84.7582 9.85728 255 187 0
14.188 -85.2706 8.43022 128 255 127
15.4881 -83.2103 7.70975 255 247 0
15.7711 -81.0025 7.56953 221 255 34
15.4994 -79.0703 7.43472 208 255 47
3.68593 -70.1352 13.5397 38 255 217
5.82497 -71.7987 13.5276 255 14 0
10.0944 -65.7086 10.4325 179 255 76
8.53103 -69.4218 13.2258 128 0 0
8.81565 -74.2803 14.8239 173 0 0
12.2962 -76.5173 14.6565 255 114 0
14.6543 -77.8248 11.311 210 255 45
14.7435 -77.1522 7.33639 186 255 69
14.0581 -75.5352 7.83988 121 255 134
14.9548 -73.5839 7.2462 176 255 79
16.3674 -72.257 5.30223 109 255 146
18.3148 -70.8035 3.79654 0 231 255
5.62317 -78.8398 3.64022 160 0 0
3.51461 -79.9679 1.37542 131 255 124
7.25784 -62.1789 5.44499 0 0 130
8.35696 -61.3845 4.83686 0 0 130
4.05903 -86.1764 9.14019 0 0 138
5.0184 -84.6859 10.4083 0 0 138
4.48439 -86.5993 7.9832 0 0 132
4.05903 -86.1764 9.14019 0 0 132
4.93183 -85.277 8.38604 0 0 180
5.43254 -86.9268 7.23918 0 0 157
4.48439 -86.5993 7.9832 0 0 157
3.20298 -73.8767 5.01855 0 0 136
3.17521 -72.2553 6.08104 0 0 136
13.7827 -83.465 1.7666 0 0 182
13.6641 -84.5618 2.08745 0 0 182
15.2 -83.7045 3.84267 0 0 217
7.50508 -82.8557 0.102156 0 0 199
9.80372 -82.9104 0.074839 0 0 199
9.24128 -81.8788 1.19568 0 0 242
5.65697 -82.4871 0.026498 0 0 147
7.50508 -82.8557 0.102156 0 0 147
15.7508 -66.4449 2.7423 0 0 189
14.3101 -67.1463 3.39701 0 0 227
17.001 -67.797 2.62184 0 0 189
13.6162 -62.6762 2.8918 0 0 150
14.1903 -63.9473 2.83184 0 0 150
11.6412 -62.2373 3.79673 0 0 142
13.6162 -62.6762 2.8918 0 0 142
4.87521 -78.9711 14.3998 0 0 147
4.31811 -80.5904 12.6076 0 0 147
3.21517 -75.2856 13.4001 0 0 203
3.54771 -76.6779 13.8774 0 0 173
3.38272 -74.9113 14.9535 0 0 173
4.19426 -65.7223 6.99106 0 0 146
4.71567 -65.3532 7.58683 0 0 162
5.05537 -64.2943 6.55865 0 0 146
3.73621 -67.3214 7.13775 0 0 132
4.19426 -65.7223 6.99106 0 0 132
9.8927 -88.2204 7.68979 0 0 139
8.4091 -88.1585 7.4041 0 0 139
10.5112 -87.2886 8.3032 0 0 189
11.5988 -88.4722 7.72211 0 0 163
9.8927 -88.2204 7.68979 0 0 163
4.96776 -68.7127 12.8895 0 0 180
4.50119 -68.5761 13.7771 0 0 158
5.78301 -67.1537 13.1268 0 0 158
11.8807 -65.3279 9.67427 0 0 207
11.6257 -64.9394 11.0523 0 0 176
13.4119 -64.5586 10.294 0 0 176
20.4151 -70.4524 4.13497 0 0 141
19.2234 -71.3058 4.75936 0 0 141
19.6295 -69.9344 3.24847 0 0 140
20.4151 -70.4524 4.13497 0 0 140
3.13223 -79.0832 -1.15935 0 0 181
3.36199 -80.3305 -0.650238 0 0 181
3.28484 -78.7206 0.8663 0 0 215
3.09952 -73.3044 15.996 0 0 141
3.38272 -74.9113 14.9535 0 0 141
5.8463 -63.0299 6.19489 0 0 152
6.98831 -63.0742 6.40451 0 0 171
7.25784 -62.1789 5.44499 0 0 152
5.05537 -64.2943 6.55865 0 0 128
5.8463 -63.0299 6.19489 0 0 128
6.9465 -87.4424 7.08967 0 0 142
5.43254 -86.9268 7.23918 0 0 142
7.34258 -86.3207 7.95645 0 0 204
8.4091 -88.1585 7.4041 0 0 174
6.9465 -87.4424 7.08967 0 0 174
7.76005 -66.2672 12.4409 0 0 136
5.78301 -67.1537 13.1268 0 0 136
3.25352 -75.4299 3.78028 0 0 153
3.10834 -74.8911 5.24665 0 0 174
3.20298 -73.8767 5.01855 0 0 153
3.20161 -75.9445 1.95468 0 0 162
3.10698 -76.9588 2.18279 0 0 187
3.25352 -75.4299 3.78028 0 0 162
13.7352 -85.5096 2.71226 0 0 144
14.6148 -85.7683 4.74521 0 0 144
13.7352 -85.5096 2.71226 0 0 142
13.6641 -84.5618 2.08745 0 0 142
11.8934 -83.128 0.589869 0 0 189
13.7827 -83.465 1.7666 0 0 189
13.4293 -82.2706 2.34509 0 0 227
11.8934 -83.128 0.589869 0 0 149
9.80372 -82.9104 0.074839 0 0 149
14.8056 -65.167 2.67362 0 0 152
15.7508 -66.4449 2.7423 0 0 152
12.4445 -64.5744 3.67569 0 0 216
14.8056 -65.167 2.67362 0 0 182
14.1903 -63.9473 2.83184 0 0 182
9.92652 -61.6715 4.70709 0 0 165
10.1145 -62.7889 4.74426 0 0 191
11.6412 -62.2373 3.79673 0 0 165
8.35696 -61.3845 4.83686 0 0 136
9.92652 -61.6715 4.70709 0 0 136
4.408 -83.3818 10.8147 0 0 144
5.0184 -84.6859 10.4083 0 0 144
4.55826 -81.9958 10.8993 0 0 169
4.13393 -83.5635 9.21468 0 0 196
4.408 -83.3818 10.8147 0 0 169
4.04404 -80.7721 11.0077 0 0 193
4.55826 -81.9958 10.8993 0 0 167
4.31811 -80.5904 12.6076 0 0 167
3.75957 -77.8351 14.0734 0 0 151
4.87521 -78.9711 14.3998 0 0 151
3.59203 -78.2095 12.52 0 0 184
3.75957 -77.8351 14.0734 0 0 161
3.54771 -76.6779 13.8774 0 0 161
15.0133 -64.7036 10.0529 0 0 141
13.4119 -64.5586 10.294 0 0 141
15.3406 -64.7825 8.51606 0 0 174
15.0133 -64.7036 10.0529 0 0 174
16.687 -64.539 9.65294 0 0 144
16.0521 -65.9617 8.93417 0 0 171
14.3784 -66.1262 9.33416 0 0 200
15.3406 -64.7825 8.51606 0 0 171
16.5964 -67.1398 8.94151 0 0 140
16.0521 -65.9617 8.93417 0 0 140
17.6164 -68.2805 9.44408 0 0 178
16.1099 -68.446 10.2548 0 0 210
16.5964 -67.1398 8.94151 0 0 178
18.3099 -69.3938 9.96383 0 0 138
17.6164 -68.2805 9.44408 0 0 138
3.2273 -70.6649 6.74746 0 0 147
3.17521 -72.2553 6.08104 0 0 147
3.1099 -71.7475 7.15134 0 0 164
3.38993 -69.0094 7.03701 0 0 149
3.50828 -68.4691 7.9185 0 0 167
3.73621 -67.3214 7.13775 0 0 149
3.2273 -70.6649 6.74746 0 0 133
3.38993 -69.0094 7.03701 0 0 133
12.6856 -88.2105 6.81844 0 0 135
11.5988 -88.4722 7.72211 0 0 135
13.1828 -87.138 6.8312 0 0 138
12.6856 -88.2105 6.81844 0 0 138
14.1681 -86.003 6.87855 0 0 173
13.1828 -87.138 6.8312 0 0 173
13.2027 -86.4055 8.38287 0 0 203
14.6347 -85.0359 6.29687 0 0 191
14.6148 -85.7683 4.74521 0 0 165
14.1681 -86.003 6.87855 0 0 165
3.08307 -71.6708 15.1468 0 0 146
3.09952 -73.3044 15.996 0 0 146
3.40095 -69.9789 14.6786 0 0 165
4.21621 -68.4199 14.9159 0 0 139
4.50119 -68.5761 13.7771 0 0 165
3.36806 -71.8271 14.0079 0 0 190
3.08307 -71.6708 15.1468 0 0 165
3.40095 -69.9789 14.6786 0 0 165
9.68248 -65.4764 11.5376 0 0 140
11.6257 -64.9394 11.0523 0 0 140
8.17201 -66.4994 11.3358 0 0 195
7.76005 -66.2672 12.4409 0 0 168
9.68248 -65.4764 11.5376 0 0 168
18.9542 -70.6016 9.47915 0 0 160
17.7742 -70.7945 10.2727 0 0 183
18.3099 -69.3938 9.96383 0 0 160
19.4152 -71.4873 8.89118 0 0 133
18.9542 -70.6016 9.47915 0 0 133
19.2897 -72.122 7.79138 0 0 157
18.293 -72.637 8.68825 0 0 178
19.4152 -71.4873 8.89118 0 0 157
19.1497 -72.5399 6.65532 0 0 135
19.2897 -72.122 7.79138 0 0 135
18.2497 -72.0326 5.51221 0 0 170
17.2674 -72.7644 6.44534 0 0 199
19.1497 -72.5399 6.65532 0 0 170
17.3411 -71.5303 4.54939 0 0 188
18.2497 -72.0326 5.51221 0 0 163
19.2234 -71.3058 4.75936 0 0 163
18.2523 -68.7818 2.98847 0 0 186
16.9375 -69.6509 3.53654 0 0 223
19.6295 -69.9344 3.24847 0 0 186
17.001 -67.797 2.62184 0 0 146
18.2523 -68.7818 2.98847 0 0 146
3.94295 -81.559 0.102708 0 0 196
5.65697 -82.4871 0.026498 0 0 196
5.22863 -80.896 1.29921 0 0 237
3.94295 -81.559 0.102708 0 0 150
3.36199 -80.3305 -0.650238 0 0 150
4.01514 -76.9773 0.400966 0 0 140
3.20161 -75.9445 1.95468 0 0 140
3.7829 -78.1143 -1.49085 0 0 141
4.01514 -76.9773 0.400966 0 0 141
3.13223 -79.0832 -1.15935 0 0 144
3.7829 -78.1143 -1.49085 0 0 144
3 0 24 22
3 1 27 25
3 83 82 28
3 2 84 85
3 2 86 87
3 2 88 90
3 88 30 89
3 88 89 90
3 3 33 31
3 3 35 33
3 4 38 36
3 4 40 38
3 4 42 40
3 92 91 43
3 5 93 95
3 95 94 45
3 93 94 95
3 6 96 98
3 98 97 23
3 96 97 98
3 6 99 100
3 101 48 102
3 103 102 46
3 101 102 103
3 104 49 105
3 107 106 49
3 108 51 109
3 9 110 112
3 110 52 111
3 110 111 112
3 9 53 52
3 11 56 54
3 13 57 26
3 13 58 57
3 7 59 47
3 113 60 114
3 115 114 29
3 113 114 115
3 117 116 60
3 14 118 119
3 14 120 122
3 120 61 121
3 120 121 122
3 8 62 50
3 15 63 32
3 15 64 63
3 15 65 64
3 16 66 34
3 16 67 66
3 17 123 125
3 123 68 124
3 123 124 125
3 17 69 68
3 10 126 128
3 126 70 127
3 126 127 128
3 18 71 37
3 18 72 71
3 18 73 72
3 19 74 39
3 19 75 74
3 19 76 75
3 20 77 41
3 20 78 77
3 129 79 130
3 132 131 79
3 12 80 55
3 21 81 44
3 21 133 135
3 135 134 81
3 133 134 135
3 22 23 5
3 24 23 22
3 24 6 23
3 136 9 137
3 25 26 11
3 27 26 25
3 27 13 26
3 28 29 7
3 138 29 139
3 140 139 28
3 138 139 140
3 142 141 29
3 30 143 144
3 30 145 147
3 145 14 146
3 145 146 147
3 31 32 8
3 33 32 31
3 33 15 32
3 33 34 15
3 35 34 33
3 35 16 34
3 148 17 149
3 36 37 10
3 38 37 36
3 38 18 37
3 38 39 18
3 40 39 38
3 40 19 39
3 40 41 19
3 42 41 40
3 42 20 41
3 43 44 12
3 150 44 151
3 152 151 43
3 150 151 152
3 153 21 154
3 155 154 44
3 153 154 155
3 45 156 157
3 159 158 45
3 23 160 162
3 162 161 5
3 160 161 162
3 164 163 23
3 46 47 1
3 48 47 46
3 48 7 47
3 165 48 166
3 49 167 169
3 167 48 168
3 167 168 169
3 49 7 48
3 49 28 7
3 170 28 171
3 172 171 49
3 170 171 172
3 174 173 28
3 175 2 176
3 177 50 178
3 179 178 2
3 177 178 179
3 51 180 182
3 180 50 181
3 180 181 182
3 51 8 50
3 183 51 184
3 52 185 187
3 185 51 186
3 185 186 187
3 52 8 51
3 52 31 8
3 53 31 52
3 53 3 31
3 188 10 189
3 190 10 191
3 190 191 192
3 193 36 194
3 195 194 10
3 193 194 195
3 196 36 197
3 198 4 199
3 200 199 36
3 198 199 200
3 202 201 4
3 54 55 0
3 56 55 54
3 56 12 55
3 26 56 11
3 57 56 26
3 57 12 56
3 57 43 12
3 58 43 57
3 58 203 205
3 205 204 43
3 203 204 205
3 47 27 1
3 59 27 47
3 59 13 27
3 29 59 7
3 60 59 29
3 60 13 59
3 60 58 13
3 206 58 207
3 208 207 60
3 206 207 208
3 210 209 58
3 61 211 212
3 61 213 214
3 50 30 2
3 62 30 50
3 62 14 30
3 32 62 8
3 63 62 32
3 63 14 62
3 63 61 14
3 64 61 63
3 64 215 217
3 217 216 61
3 215 216 217
3 64 218 220
3 218 45 219
3 218 219 220
3 65 45 64
3 65 5 45
3 34 65 15
3 66 65 34
3 66 5 65
3 66 22 5
3 67 22 66
3 67 0 22
3 221 9 222
3 68 223 225
3 223 224 225
3 68 226 228
3 226 9 227
3 226 227 228
3 68 53 9
3 69 53 68
3 69 3 53
3 70 229 230
3 70 231 233
3 231 17 232
3 231 232 233
3 37 70 10
3 71 70 37
3 71 17 70
3 71 69 17
3 72 69 71
3 72 3 69
3 72 35 3
3 73 35 72
3 73 16 35
3 39 73 18
3 74 73 39
3 74 16 73
3 74 67 16
3 75 67 74
3 75 0 67
3 75 54 0
3 76 54 75
3 76 11 54
3 41 76 19
3 77 76 41
3 77 11 76
3 77 25 11
3 78 25 77
3 78 1 25
3 234 42 235
3 236 235 4
3 234 235 236
3 237 42 238
3 239 20 240
3 241 240 42
3 239 240 241
3 242 20 243
3 244 78 245
3 246 245 20
3 244 245 246
3 79 247 249
3 247 78 248
3 247 248 249
3 79 1 78
3 79 46 1
3 250 46 251
3 252 251 79
3 250 251 252
3 254 253 46
3 55 24 0
3 80 24 55
3 80 6 24
3 44 80 12
3 81 80 44
3 81 6 80
3 81 255 257
3 257 256 6
3 255 256 257
3 259 258 81
3 260 21 261
3 262 21 263
3 265 264 21
