ply
format ascii 1.0
element vertex 197
property float x
property float y
property float z
property uchar red
property uchar green
property uchar blue
element face 195
property list uchar int vertex_index
end_header
37.2514 -12.7123 1.76212 175 255 80
37.8085 -9.84209 -11.003 167 0 0
39.6779 -16.7001 -9.1838 252 0 0
37.8334 -8.90014 0.554125 42 255 213
35.9505 -11.7771 -4.62277 211 0 0
36.2014 -15.9069 -4.15512 208 0 0
44.043 -11.0084 -14.2333 225 255 30
44.4397 -19.7885 -4.96821 106 255 149
36.0618 -7.40571 -5.04393 201 0 0
38.4836 -13.3784 -10.4392 216 0 0
45.3717 -12.9189 -11.5871 227 255 28
35.9726 -18.7936 -1.01677 144 0 0
39.2164 -20.0052 -6.19864 255 70 0
44.895 -16.5321 -8.3109 237 255 18
37.7914 -10.8604 1.04829 193 255 62
36.5716 -12.459 -1.59356 232 0 0
36.2991 -14.5383 -1.23167 182 0 0
37.1925 -3.29665 -2.55928 98 255 157
37.0177 -5.86668 -2.50738 204 255 51
36.8907 -14.8971 -7.37904 204 0 0
36.425 -12.8693 -7.55107 186 0 0
39.1176 -15.0803 -9.96618 212 0 0
41.7954 -14.2599 -11.8089 243 0 0
42.6032 -15.4432 -10.8065 213 0 0
36.4103 -6.66343 -7.91155 255 145 0
36.8001 -4.6551 -8.02501 1 255 254
37.7535 -7.94504 -11.2058 245 255 10
36.819 -21.5353 -2.39642 154 255 101
37.0354 -20.1394 -4.0214 250 0 0
38.972 -21.589 -4.58879 222 255 33
44.6195 -18.2411 -6.67326 233 255 22
36.9405 -8.25279 -2.32466 190 255 65
36.7949 -10.3887 -1.90735 255 214 0
36.0712 -13.8812 -4.39309 216 0 0
37.445 -16.8315 -7.11334 246 0 0
40.3106 -11.4579 -13.2411 224 0 0
39.8911 -9.88052 -13.9281 197 255 58
43.3716 -9.83151 -15.3467 94 255 161
41.5242 -21.9729 -4.28193 62 255 193
36.377 -5.14206 -5.27942 192 255 63
36.1966 -8.79151 -7.82405 170 0 0
35.9344 -9.5919 -4.82534 226 0 0
36.1137 -10.8782 -7.6939 185 0 0
38.0146 -11.6232 -10.7374 208 0 0
40.9655 -12.9237 -12.5996 237 0 0
44.7031 -12.0405 -12.948 220 255 35
38.2359 -12.8703 3.67214 84 255 171
36.1242 -15.6926 0.402545 128 0 0
36.1128 -15.3994 2.84099 255 229 0
35.5956 -18.8085 1.10606 116 255 139
36.1292 -17.3992 -2.6987 177 0 0
37.2449 -18.4851 -5.64635 251 0 0
39.4571 -18.3892 -7.71061 255 64 0
41.7693 -20.4094 -5.9634 242 0 0
41.9447 -18.8619 -7.57766 248 0 0
42.2773 -17.2097 -9.197 223 0 0
45.1372 -14.7741 -9.93113 237 255 18
37.4693 -5.00667 -1.31078 0 0 143
37.649 -3.70911 -1.37731 0 0 143
38.801 -22.2778 -3.74782 0 0 165
37.8955 -21.5621 -3.4926 0 0 197
37.7245 -22.251 -2.65163 0 0 165
37.3142 -9.64443 -0.676615 0 0 227
37.3316 -8.50269 -0.920837 0 0 185
37.8508 -7.7584 0.309902 0 0 185
46.5764 -11.0574 -11.8142 0 0 193
46.2421 -10.6182 -12.4946 0 0 193
45.0374 -12.4797 -12.2675 0 0 240
36.8982 -3.53876 -8.12744 0 0 154
37.2967 -5.42657 -9.79013 0 0 154
39.7484 -9.0979 -14.1957 0 0 139
41.2982 -9.2351 -15.1366 0 0 139
37.5027 -14.2685 4.18717 0 0 180
37.1743 -14.1348 3.25657 0 0 220
38.5642 -13.004 4.60275 0 0 180
35.3527 -18.6882 2.18813 0 0 150
36.021 -17.0271 3.08453 0 0 150
35.8074 -20.3949 0.448647 0 0 142
35.3527 -18.6882 2.18813 0 0 142
45.3314 -9.25762 -14.6165 0 0 147
45.5904 -9.75049 -13.872 0 0 147
37.7364 -2.42409 -1.40325 0 0 145
38.0782 -1.16911 -1.6478 0 0 145
37.1051 -4.58167 -2.53333 0 0 222
37.7364 -2.42409 -1.40325 0 0 182
37.649 -3.70911 -1.37731 0 0 182
36.6052 -5.65927 -7.96828 0 0 215
36.7062 -3.69117 -6.59893 0 0 177
36.5112 -4.69534 -6.54219 0 0 177
37.7734 -7.07154 -11.3805 0 0 187
37.2967 -5.42657 -9.79013 0 0 187
37.2768 -6.30007 -9.61541 0 0 230
45.938 -17.4832 -6.03965 0 0 195
44.5296 -19.0148 -5.82074 0 0 242
45.8481 -18.2569 -5.18713 0 0 195
46.021 -16.5761 -6.87283 0 0 151
45.938 -17.4832 -6.03965 0 0 151
46.1587 -15.7216 -7.69165 0 0 195
44.7573 -17.3866 -7.49208 0 0 242
46.021 -16.5761 -6.87283 0 0 195
46.1992 -14.8148 -8.5129 0 0 150
46.1587 -15.7216 -7.69165 0 0 150
37.4044 -7.43472 -1.12949 0 0 142
37.4307 -6.19972 -1.21942 0 0 142
36.8677 -9.32076 -2.11601 0 0 214
37.4044 -7.43472 -1.12949 0 0 176
37.3316 -8.50269 -0.920837 0 0 176
43.0384 -9.2106 -15.8459 0 0 181
41.2982 -9.2351 -15.1366 0 0 181
41.6313 -9.85602 -14.6374 0 0 221
44.9957 -8.6692 -15.1731 0 0 188
43.7073 -10.4199 -14.79 0 0 232
45.3314 -9.25762 -14.6165 0 0 188
44.6935 -8.18279 -15.8834 0 0 146
44.9957 -8.6692 -15.1731 0 0 146
43.0384 -9.2106 -15.8459 0 0 142
44.6935 -8.18279 -15.8834 0 0 142
41.394 -22.6526 -3.39904 0 0 138
40.0771 -22.4698 -3.59439 0 0 138
42.8546 -21.6448 -3.76308 0 0 142
41.394 -22.6526 -3.39904 0 0 142
44.3124 -20.5526 -4.10622 0 0 185
42.9819 -20.8807 -4.62507 0 0 227
42.8546 -21.6448 -3.76308 0 0 185
45.7036 -19.1094 -4.33097 0 0 146
44.3124 -20.5526 -4.10622 0 0 146
45.8481 -18.2569 -5.18713 0 0 148
45.7036 -19.1094 -4.33097 0 0 148
37.2828 -2.00873 -2.53783 0 0 137
38.0782 -1.16911 -1.6478 0 0 137
36.875 -2.93143 -3.8979 0 0 190
37.2828 -2.00873 -2.53783 0 0 190
36.7847 -4.21935 -3.91935 0 0 234
36.4946 -3.93465 -5.22613 0 0 140
36.875 -2.93143 -3.8979 0 0 140
36.3936 -5.90275 -6.59549 0 0 217
36.5112 -4.69534 -6.54219 0 0 178
36.4946 -3.93465 -5.22613 0 0 178
36.9791 -7.05974 -2.41602 0 0 219
37.4693 -5.00667 -1.31078 0 0 180
37.4307 -6.19972 -1.21942 0 0 180
45.9205 -10.2666 -13.2294 0 0 190
45.5904 -9.75049 -13.872 0 0 190
44.3731 -11.5244 -13.5907 0 0 234
45.9205 -10.2666 -13.2294 0 0 147
46.2421 -10.6182 -12.4946 0 0 147
36.7937 -2.48797 -6.60958 0 0 144
36.7062 -3.69117 -6.59893 0 0 144
36.7937 -2.48797 -6.60958 0 0 146
36.8982 -3.53876 -8.12744 0 0 146
38.6796 -8.13016 -12.8345 0 0 179
38.8223 -8.91278 -12.5669 0 0 218
39.7484 -9.0979 -14.1957 0 0 179
37.7734 -7.07154 -11.3805 0 0 142
38.6796 -8.13016 -12.8345 0 0 142
38.4742 -11.5796 3.55809 0 0 171
37.7436 -12.7913 2.71713 0 0 206
37.982 -11.5005 2.60309 0 0 171
38.1418 -11.8123 4.3536 0 0 128
38.4742 -11.5796 3.55809 0 0 128
38.5642 -13.004 4.60275 0 0 130
38.1418 -11.8123 4.3536 0 0 130
37.7945 -7.35833 1.49963 0 0 137
37.8508 -7.7584 0.309902 0 0 137
37.8749 -8.57161 1.7012 0 0 137
37.7945 -7.35833 1.49963 0 0 137
37.8539 -9.55176 1.94828 0 0 161
37.8124 -9.88029 0.801209 0 0 191
37.8749 -8.57161 1.7012 0 0 161
38.252 -10.5746 2.24617 0 0 137
37.8539 -9.55176 1.94828 0 0 137
37.982 -11.5005 2.60309 0 0 168
37.5214 -11.7863 1.40521 0 0 201
38.252 -10.5746 2.24617 0 0 168
36.2796 -15.3225 3.952 0 0 144
37.5027 -14.2685 4.18717 0 0 144
35.8542 -17.104 1.97352 0 0 239
36.2796 -15.3225 3.952 0 0 193
36.021 -17.0271 3.08453 0 0 193
36.4191 -21.7583 -1.30259 0 0 200
36.2073 -20.1719 -0.645178 0 0 250
35.8074 -20.3949 0.448647 0 0 200
37.7245 -22.251 -2.65163 0 0 133
36.4191 -21.7583 -1.30259 0 0 133
40.2481 -21.7809 -4.43536 0 0 207
38.801 -22.2778 -3.74782 0 0 172
40.0771 -22.4698 -3.59439 0 0 172
46.3203 -13.9359 -9.32301 0 0 192
45.0161 -15.6531 -9.12101 0 0 238
46.1992 -14.8148 -8.5129 0 0 192
46.3982 -12.9778 -10.156 0 0 149
46.3203 -13.9359 -9.32301 0 0 149
46.5154 -12.0502 -10.984 0 0 195
45.2545 -13.8465 -10.7591 0 0 242
46.3982 -12.9778 -10.156 0 0 195
46.5764 -11.0574 -11.8142 0 0 150
46.5154 -12.0502 -10.984 0 0 150
3 0 16 14
3 57 18 58
3 2 21 19
3 2 23 21
3 1 26 24
3 59 29 60
3 61 60 27
3 59 60 61
3 3 62 64
3 62 32 63
3 62 63 64
3 5 33 15
3 5 34 33
3 6 37 35
3 8 39 17
3 8 40 39
3 4 41 31
3 9 42 20
3 9 43 42
3 9 44 43
3 10 45 22
3 10 65 67
3 67 66 45
3 65 66 67
3 69 68 25
3 71 70 36
3 72 48 73
3 74 73 46
3 72 73 74
3 75 49 76
3 78 77 49
3 11 50 47
3 12 51 28
3 12 52 51
3 7 53 38
3 13 54 30
3 13 55 54
3 13 56 55
3 14 15 3
3 16 15 14
3 16 5 15
3 80 79 6
3 81 17 82
3 18 83 85
3 83 17 84
3 83 84 85
3 18 8 17
3 19 20 4
3 21 20 19
3 21 9 20
3 21 22 9
3 23 22 21
3 23 10 22
3 24 86 88
3 86 25 87
3 86 87 88
3 26 25 24
3 26 89 91
3 91 90 25
3 89 90 91
3 27 28 11
3 29 28 27
3 29 12 28
3 92 30 93
3 94 93 7
3 92 93 94
3 95 30 96
3 97 13 98
3 99 98 30
3 97 98 99
3 101 100 13
3 102 31 103
3 32 104 106
3 104 31 105
3 104 105 106
3 32 4 31
3 15 32 3
3 33 32 15
3 33 4 32
3 33 19 4
3 34 19 33
3 34 2 19
3 35 36 1
3 37 36 35
3 37 107 109
3 109 108 36
3 107 108 109
3 110 37 111
3 112 111 6
3 110 111 112
3 113 37 114
3 116 115 37
3 117 38 118
3 119 38 120
3 121 7 122
3 123 122 38
3 121 122 123
3 124 7 125
3 127 126 7
3 17 128 129
3 39 130 132
3 132 131 17
3 130 131 132
3 39 133 134
3 39 135 137
3 135 24 136
3 135 136 137
3 40 24 39
3 40 1 24
3 31 138 140
3 138 18 139
3 138 139 140
3 41 18 31
3 41 8 18
3 20 41 4
3 42 41 20
3 42 8 41
3 42 40 8
3 43 40 42
3 43 1 40
3 43 35 1
3 44 35 43
3 44 6 35
3 22 44 9
3 45 44 22
3 45 6 44
3 45 141 143
3 143 142 6
3 141 142 143
3 145 144 45
3 25 146 147
3 149 148 25
3 36 26 1
3 150 26 151
3 152 151 36
3 150 151 152
3 154 153 26
3 155 46 156
3 157 156 0
3 155 156 157
3 158 46 159
3 161 160 46
3 162 3 163
3 164 3 165
3 166 14 167
3 168 167 3
3 166 167 168
3 169 14 170
3 171 0 172
3 173 172 14
3 171 172 173
3 46 47 0
3 48 47 46
3 48 11 47
3 174 48 175
3 49 176 178
3 176 48 177
3 176 177 178
3 49 11 48
3 49 27 11
3 179 27 180
3 181 180 49
3 179 180 181
3 183 182 27
3 47 16 0
3 50 16 47
3 50 5 16
3 28 50 11
3 51 50 28
3 51 5 50
3 51 34 5
3 52 34 51
3 52 2 34
3 38 184 186
3 184 29 185
3 184 185 186
3 53 29 38
3 53 12 29
3 30 53 7
3 54 53 30
3 54 12 53
3 54 52 12
3 55 52 54
3 55 2 52
3 55 23 2
3 56 23 55
3 56 10 23
3 187 56 188
3 189 188 13
3 187 188 189
3 190 56 191
3 192 10 193
3 194 193 56
3 192 193 194
3 196 195 10
