ply
format ascii 1.0
element vertex 187
property float x
property float y
property float z
property uchar red
property uchar green
property uchar blue
element face 172
property list uchar int vertex_index
end_header
45.8016 16.6608 -23.5612 0 215 255
52.6042 12.0708 -16.3954 55 255 200
51.7718 1.75504 -19.428 105 255 150
47.2532 14.3296 -25.2511 255 159 0
49.8978 7.94561 -17.2208 255 240 0
56.1901 5.00117 -12.36 31 255 224
45.1545 9.29997 -24.1723 214 255 41
47.5854 9.25443 -20.9646 255 254 0
49.5439 14.9422 -20.0846 44 255 211
50.4761 10.8247 -21.7619 128 0 0
53.77 7.67921 -17.2883 217 0 0
49.9342 5.11416 -23.4579 0 248 255
46.4958 10.7111 -26.294 255 183 0
44.395 11.912 -28.5463 77 255 178
44.9965 13.7241 -23.7831 255 177 0
43.3516 13.9714 -25.778 255 249 0
51.1457 11.8341 -16.4964 255 188 0
49.8168 13.058 -18.3035 255 139 0
51.3165 13.7047 -18.2827 44 255 211
50.5777 13.7862 -20.7301 255 247 0
52.1181 12.078 -18.9058 255 185 0
54.0636 3.16421 -15.7612 249 255 6
54.7917 6.24408 -14.7104 236 0 0
52.9987 4.45595 -18.398 142 0 0
52.1021 6.11303 -20.6638 253 0 0
50.9561 3.35019 -21.7097 174 255 81
46.8294 16.485 -24.334 0 189 255
50.8822 7.11688 -15.2832 112 255 143
52.2653 10.5409 -14.368 1 255 254
43.6263 9.85866 -25.8775 90 255 165
41.5236 13.6903 -27.6149 0 233 255
46.336 9.36015 -22.6589 220 255 35
46.5378 14.0162 -21.9218 255 40 0
48.8171 8.94993 -19.2356 255 227 0
48.1272 13.7234 -20.0789 255 103 0
47.6147 16.0438 -21.7709 77 255 178
48.8194 15.3336 -22.3968 202 255 53
48.8966 12.6564 -23.5091 195 0 0
48.1463 9.16887 -24.5394 255 222 0
53.7437 10.4296 -13.8934 0 150 255
55.989 7.47895 -11.8827 0 187 255
54.8253 8.86059 -14.0615 135 255 120
53.6678 10.4086 -16.4891 255 206 0
52.4433 9.11034 -19.4893 194 0 0
50.2965 7.39492 -22.325 255 171 0
45.6188 9.64533 -28.1377 0 0 161
46.4038 8.99549 -26.901 0 0 161
44.7313 16.8652 -24.7781 0 0 196
44.3287 15.3969 -24.8891 0 0 196
45.399 15.1924 -23.6722 0 0 239
46.1666 14.8511 -26.4659 0 0 180
45.9547 15.9288 -26.0073 0 0 180
47.0413 15.4073 -24.7926 0 0 215
43.3752 12.5637 -29.6157 0 0 165
43.8903 10.8741 -30.5288 0 0 165
51.2515 6.72944 -14.347 0 0 155
50.6623 4.53844 -15.0219 0 0 155
51.943 8.44146 -13.8894 0 0 181
51.5737 8.82889 -14.8256 0 0 217
51.2515 6.72944 -14.347 0 0 181
44.3904 9.57932 -25.0249 0 0 233
44.1957 7.54377 -25.0342 0 0 192
44.9598 7.26442 -24.1816 0 0 192
41.4927 15.4574 -27.9166 0 0 191
42.4376 13.8308 -26.6964 0 0 231
42.4067 15.598 -26.9981 0 0 191
40.6183 15.0182 -28.8926 0 0 153
41.4927 15.4574 -27.9166 0 0 153
46.9607 9.30729 -21.8117 0 0 237
46.692 6.99676 -22.0982 0 0 195
47.3167 6.9439 -21.251 0 0 195
49.3575 8.44777 -18.2282 0 9 255
48.8738 6.14012 -18.7087 0 0 213
49.4141 5.63796 -17.7013 0 0 213
54.2402 9.61614 -12.8278 0 0 129
53.4204 9.60839 -13.038 0 0 129
56.0896 6.24006 -12.1214 0 0 196
56.6294 6.76526 -10.8362 0 0 168
56.73 5.52637 -11.0748 0 0 168
49.1099 5.61122 -24.285 0 0 167
49.2911 6.7516 -23.7185 0 0 167
50.1153 6.25454 -22.8914 0 0 195
44.5684 10.2458 -29.2639 0 0 213
45.4454 11.3115 -27.4201 0 10 255
45.6188 9.64533 -28.1377 0 0 213
43.8903 10.8741 -30.5288 0 0 160
44.5684 10.2458 -29.2639 0 0 160
43.5063 15.5205 -25.8865 0 0 180
44.174 13.8477 -24.7806 0 0 215
44.3287 15.3969 -24.8891 0 0 180
42.4067 15.598 -26.9981 0 0 153
43.5063 15.5205 -25.8865 0 0 153
47.7962 6.72293 -20.4644 0 0 149
47.3167 6.9439 -21.251 0 0 149
45.7917 16.9251 -25.5225 0 0 147
45.2778 17.013 -25.1361 0 0 147
46.3155 16.5729 -23.9476 0 0 165
45.7917 16.9251 -25.5225 0 0 142
45.9547 15.9288 -26.0073 0 0 142
44.7375 13.6424 -28.1134 0 0 218
46.1666 14.8511 -26.4659 0 0 218
45.8241 13.1208 -26.8987 0 16 255
44.7375 13.6424 -28.1134 0 0 161
43.3752 12.5637 -29.6157 0 0 161
49.8026 5.30865 -16.8568 0 0 151
49.4141 5.63796 -17.7013 0 0 151
50.2948 4.89428 -15.8881 0 0 152
50.6623 4.53844 -15.0219 0 0 152
50.39 7.53124 -16.252 0 0 253
49.8026 5.30865 -16.8568 0 0 206
50.2948 4.89428 -15.8881 0 0 206
56.8338 4.33216 -11.3587 0 0 138
56.73 5.52637 -11.0748 0 0 138
55.6872 3.55075 -12.7745 0 0 148
56.8338 4.33216 -11.3587 0 0 148
54.624 2.63227 -14.4752 0 0 193
55.1269 4.08269 -14.0606 0 0 234
55.6872 3.55075 -12.7745 0 0 193
53.3562 1.73966 -16.2712 0 0 154
54.624 2.63227 -14.4752 0 0 154
52.2102 1.03508 -18.1046 0 0 201
52.9177 2.45962 -17.5946 0 0 246
53.3562 1.73966 -16.2712 0 0 201
43.4871 7.93791 -25.7073 0 0 143
44.1957 7.54377 -25.0342 0 0 143
42.8121 9.87072 -26.5705 0 0 146
43.4871 7.93791 -25.7073 0 0 146
41.7608 11.7865 -27.4391 0 0 181
42.8121 9.87072 -26.5705 0 0 181
42.575 11.7745 -26.7462 0 0 216
40.7745 13.3112 -28.4813 0 0 150
41.7608 11.7865 -27.4391 0 0 150
40.7745 13.3112 -28.4813 0 0 147
40.6183 15.0182 -28.8926 0 0 147
44.7313 16.8652 -24.7781 0 0 129
45.2778 17.013 -25.1361 0 0 129
45.5503 7.11859 -23.5473 0 0 142
44.9598 7.26442 -24.1816 0 0 142
46.141 7.14868 -22.7906 0 0 145
46.692 6.99676 -22.0982 0 0 145
45.7452 9.33006 -23.4156 0 0 220
45.5503 7.11859 -23.5473 0 0 184
46.141 7.14868 -22.7906 0 0 184
48.4121 6.57067 -19.5999 0 0 156
48.8738 6.14012 -18.7087 0 0 156
48.2013 9.10218 -20.1001 0 0 245
47.7962 6.72293 -20.4644 0 0 200
48.4121 6.57067 -19.5999 0 0 200
47.2291 8.2244 -26.0238 0 0 197
46.4038 8.99549 -26.901 0 0 197
47.321 9.93997 -25.4167 0 0 240
52.6812 9.66405 -13.2753 0 0 150
51.943 8.44146 -13.8894 0 0 150
53.0045 10.4853 -14.1307 0 0 160
52.6812 9.66405 -13.2753 0 0 144
53.4204 9.60839 -13.038 0 0 144
55.9589 7.45896 -10.8135 0 0 129
56.6294 6.76526 -10.8362 0 0 129
55.3628 8.14082 -11.8224 0 0 128
55.9589 7.45896 -10.8135 0 0 128
54.7809 8.83164 -12.9118 0 0 147
55.3628 8.14082 -11.8224 0 0 147
55.4071 8.16977 -12.9721 0 0 165
54.2845 9.64509 -13.9775 0 0 167
54.2402 9.61614 -12.8278 0 0 148
54.7809 8.83164 -12.9118 0 0 148
48.216 7.63858 -24.8258 0 0 198
49.2214 8.2819 -23.4322 0 0 242
49.2911 6.7516 -23.7185 0 0 198
47.2291 8.2244 -26.0238 0 0 154
48.216 7.63858 -24.8258 0 0 154
50.686 0.415657 -19.9286 0 0 159
52.2102 1.03508 -18.1046 0 0 159
50.5905 1.29879 -21.2005 0 0 158
50.686 0.415657 -19.9286 0 0 158
50.1827 2.09637 -22.3414 0 0 191
51.364 2.55261 -20.5689 0 0 231
50.5905 1.29879 -21.2005 0 0 191
50.1279 2.93247 -23.4885 0 0 150
50.1827 2.09637 -22.3414 0 0 150
49.617 3.81446 -24.3626 0 0 185
50.4452 4.23218 -22.5838 0 0 222
50.1279 2.93247 -23.4885 0 0 185
49.6906 4.68985 -25.1603 0 0 143
49.617 3.81446 -24.3626 0 0 143
49.1099 5.61122 -24.285 0 0 141
49.6906 4.68985 -25.1603 0 0 141
3 46 45 12
3 0 47 49
3 49 48 14
3 47 48 49
3 1 18 16
3 1 20 18
3 2 23 21
3 2 25 23
3 3 50 52
3 52 51 26
3 50 51 52
3 54 53 13
3 55 27 56
3 57 28 58
3 59 58 27
3 57 58 59
3 6 60 62
3 60 29 61
3 60 61 62
3 63 30 64
3 65 64 15
3 63 64 65
3 67 66 30
3 7 68 70
3 68 31 69
3 68 69 70
3 7 32 31
3 4 71 73
3 71 33 72
3 71 72 73
3 8 34 17
3 8 35 34
3 8 36 35
3 9 37 19
3 9 38 37
3 74 39 75
3 5 76 78
3 76 40 77
3 76 77 78
3 10 41 22
3 10 42 41
3 10 43 42
3 11 44 24
3 11 79 81
3 81 80 44
3 79 80 81
3 12 13 3
3 82 13 83
3 84 83 12
3 82 83 84
3 86 85 13
3 14 15 6
3 87 15 88
3 89 88 14
3 87 88 89
3 91 90 15
3 92 7 93
3 16 17 4
3 18 17 16
3 18 8 17
3 18 19 8
3 20 19 18
3 20 9 19
3 21 22 5
3 23 22 21
3 23 10 22
3 23 24 10
3 25 24 23
3 25 11 24
3 26 94 96
3 96 95 0
3 94 95 96
3 98 97 26
3 13 99 101
3 101 100 3
3 99 100 101
3 103 102 13
3 104 4 105
3 27 106 107
3 27 108 110
3 108 4 109
3 108 109 110
3 27 16 4
3 28 16 27
3 28 1 16
3 111 5 112
3 113 5 114
3 115 21 116
3 117 116 5
3 115 116 117
3 118 21 119
3 120 2 121
3 122 121 21
3 120 121 122
3 29 123 124
3 29 125 126
3 15 29 6
3 30 29 15
3 30 127 129
3 129 128 29
3 127 128 129
3 30 130 131
3 133 132 30
3 135 134 0
3 136 6 137
3 31 138 139
3 31 140 142
3 140 6 141
3 140 141 142
3 31 14 6
3 32 14 31
3 32 0 14
3 33 143 144
3 33 145 147
3 145 7 146
3 145 146 147
3 17 33 4
3 34 33 17
3 34 7 33
3 34 32 7
3 35 32 34
3 35 0 32
3 35 26 0
3 36 26 35
3 36 3 26
3 19 36 8
3 37 36 19
3 37 3 36
3 37 12 3
3 38 12 37
3 38 148 150
3 150 149 12
3 148 149 150
3 151 28 152
3 39 153 155
3 153 28 154
3 153 154 155
3 39 1 28
3 40 156 157
3 40 158 159
3 22 40 5
3 41 40 22
3 41 160 162
3 162 161 40
3 160 161 162
3 41 163 165
3 163 39 164
3 163 164 165
3 42 39 41
3 42 1 39
3 42 20 1
3 43 20 42
3 43 9 20
3 24 43 10
3 44 43 24
3 44 9 43
3 44 38 9
3 166 38 167
3 168 167 44
3 166 167 168
3 170 169 38
3 171 2 172
3 173 2 174
3 175 25 176
3 177 176 2
3 175 176 177
3 178 25 179
3 180 11 181
3 182 181 25
3 180 181 182
3 183 11 184
3 186 185 11
