ply
format ascii 1.0
element vertex 160
property float x
property float y
property float z
property uchar red
property uchar green
property uchar blue
element face 145
property list uchar int vertex_index
end_header
29.5188 -31.2616 69.2785 0 10 255
31.529 -29.9847 56.0111 201 0 0
30.9769 -30.1064 64.1899 227 255 28
35.9444 -30.4483 64.7571 255 196 0
23.9654 -27.142 50.2951 0 90 255
31.9753 -28.688 49.1933 27 255 228
37.2028 -29.3753 57.7531 215 255 40
40.5386 -29.6557 63.8107 0 55 255
30.4409 -25.3595 47.7874 0 74 255
27.615 -27.8293 49.1125 120 255 135
26.9456 -29.6056 55.3105 84 255 171
30.4912 -30.1383 67.5272 0 198 255
32.7174 -30.7384 67.3579 42 255 213
31.5868 -31.9812 68.478 0 71 255
31.6359 -29.41 52.2642 255 54 0
34.4313 -29.09 53.4485 204 255 51
34.3067 -29.8877 56.8609 134 0 0
37.1652 -31.7505 65.8404 0 94 255
38.3762 -30.1588 64.3047 75 255 180
29.0012 -24.2865 48.9698 0 114 255
28.7404 -26.5267 47.7838 24 255 231
26.9807 -25.4726 48.5348 0 195 255
25.2205 -28.9301 51.8923 0 218 255
31.2393 -30.3635 59.9041 193 0 0
33.9366 -30.532 60.7049 128 0 0
33.3833 -30.339 64.6311 255 89 0
35.0261 -31.4039 66.8301 0 186 255
25.235 -24.7939 49.57 0 95 255
36.6839 -30.0925 61.1455 227 0 0
39.0755 -28.8378 61.7147 71 255 184
30.7118 -27.3414 47.3971 0 111 255
29.7184 -28.489 48.9561 156 255 99
29.3258 -29.3112 51.8277 255 170 0
25.7011 -27.14 49.6006 83 255 172
27.1843 -28.9284 51.7246 255 248 0
29.137 -29.7466 55.5532 255 65 0
29.0194 -30.1188 59.5283 152 255 103
28.8104 -32.0596 69.1573 0 0 128
29.6835 -32.1522 68.7841 0 0 128
29.6835 -32.1522 68.7841 0 0 146
30.7175 -32.512 68.3838 0 0 146
30.5528 -31.6214 68.8783 0 0 161
38.2465 -31.8406 65.1511 0 0 138
37.3089 -32.8065 65.0195 0 0 138
28.3161 -23.8522 49.6366 0 0 146
29.9031 -23.7653 50.7301 0 0 146
27.3059 -24.4452 49.4191 0 0 153
27.9909 -24.8795 48.7523 0 0 172
28.3161 -23.8522 49.6366 0 0 153
34.2961 -32.1139 67.0689 0 0 149
33.8718 -31.0712 67.094 0 0 167
33.1418 -31.7811 67.3328 0 0 149
35.248 -32.4486 66.3798 0 0 132
34.2961 -32.1139 67.0689 0 0 132
33.2885 -28.4601 49.6803 0 0 140
32.4031 -28.1519 48.2522 0 0 140
37.2169 -28.7998 56.2087 0 0 195
35.8311 -28.6571 54.0564 0 0 195
35.8171 -29.2326 55.6008 0 0 235
38.4417 -28.7033 58.2888 0 0 153
37.2169 -28.7998 56.2087 0 0 153
40.8276 -28.6096 63.0094 0 0 161
40.0961 -28.2007 61.9615 0 0 161
39.8071 -29.2468 62.7627 0 0 185
41.4777 -29.425 63.3645 0 0 132
40.8276 -28.6096 63.0094 0 0 132
31.6539 -24.861 48.2511 0 0 138
31.1652 -24.6224 49.1997 0 0 138
31.2332 -25.6927 47.2798 0 0 134
31.6539 -24.861 48.2511 0 0 134
30.5763 -26.3504 47.5922 0 0 155
31.3687 -26.6836 47.0846 0 0 142
31.2332 -25.6927 47.2798 0 0 142
32.5764 -32.4025 67.8929 0 0 148
33.1418 -31.7811 67.3328 0 0 148
32.1521 -31.3598 67.918 0 0 165
31.634 -32.8588 67.6528 0 0 133
32.5764 -32.4025 67.8929 0 0 133
31.634 -32.8588 67.6528 0 0 132
30.7175 -32.512 68.3838 0 0 132
38.852 -31.0448 64.3833 0 0 152
37.7707 -30.9546 65.0725 0 0 171
38.2465 -31.8406 65.1511 0 0 152
39.9332 -30.7932 64.1363 0 0 150
39.4574 -29.9072 64.0577 0 0 167
38.852 -31.0448 64.3833 0 0 150
40.8672 -30.7609 63.3487 0 0 136
39.9332 -30.7932 64.1363 0 0 136
30.4453 -24.0859 49.7909 0 0 144
29.9031 -23.7653 50.7301 0 0 144
29.721 -24.823 48.3786 0 0 198
31.1652 -24.6224 49.1997 0 0 170
30.4453 -24.0859 49.7909 0 0 170
24.2998 -29.2034 52.0532 0 0 156
24.5929 -28.036 51.0937 0 0 176
23.6722 -28.3094 51.2546 0 0 156
25.0973 -29.5054 53.5612 0 0 140
24.2998 -29.2034 52.0532 0 0 140
25.9599 -29.8432 55.2703 0 0 171
26.0831 -29.2679 53.6014 0 0 200
25.0973 -29.5054 53.5612 0 0 171
26.9383 -29.9138 57.3495 0 0 147
25.9599 -29.8432 55.2703 0 0 147
36.3175 -32.6219 65.8849 0 0 153
36.0957 -31.5772 66.3352 0 0 173
35.248 -32.4486 66.3798 0 0 153
37.3089 -32.8065 65.0195 0 0 137
36.3175 -32.6219 65.8849 0 0 137
25.679 -23.7722 50.6697 0 0 138
26.433 -24.1059 49.9367 0 0 138
24.4367 -24.7265 50.2491 0 0 139
25.679 -23.7722 50.6697 0 0 139
23.8018 -25.9005 50.6116 0 0 155
24.6002 -25.968 49.9326 0 0 176
24.4367 -24.7265 50.2491 0 0 155
23.137 -27.293 50.8266 0 0 134
23.8018 -25.9005 50.6116 0 0 134
22.8438 -28.4604 51.7861 0 0 133
23.6722 -28.3094 51.2546 0 0 153
23.137 -27.293 50.8266 0 0 153
34.5165 -28.6611 51.8079 0 0 189
33.2885 -28.4601 49.6803 0 0 189
33.2033 -28.889 51.3209 0 0 226
34.5165 -28.6611 51.8079 0 0 156
35.8311 -28.6571 54.0564 0 0 156
39.378 -28.4346 60.2696 0 0 188
38.4417 -28.7033 58.2888 0 0 188
38.1392 -29.1065 59.7339 0 0 225
39.378 -28.4346 60.2696 0 0 144
40.0961 -28.2007 61.9615 0 0 144
41.4777 -29.425 63.3645 0 0 135
40.8672 -30.7609 63.3487 0 0 135
28.5443 -31.1116 69.4857 0 0 129
29.0298 -30.6696 68.5784 0 0 129
31.7714 -27.4785 47.354 0 0 128
31.3687 -26.6836 47.0846 0 0 128
31.3436 -28.0147 48.2952 0 0 170
32.4031 -28.1519 48.2522 0 0 151
31.7714 -27.4785 47.354 0 0 151
26.1079 -25.1333 49.0524 0 0 181
27.3059 -24.4452 49.4191 0 0 159
26.433 -24.1059 49.9367 0 0 159
27.9752 -30.1704 59.4584 0 0 183
27.9825 -29.8622 57.4194 0 0 218
26.9383 -29.9138 57.3495 0 0 183
28.9391 -30.1253 61.7548 0 0 151
27.9752 -30.1704 59.4584 0 0 151
29.9178 -30.1191 64.0856 0 0 190
29.9981 -30.1126 61.8591 0 0 228
28.9391 -30.1253 61.7548 0 0 190
29.675 -30.1351 65.7543 0 0 171
30.7341 -30.1223 65.8586 0 0 200
29.9178 -30.1191 64.0856 0 0 171
29.516 -30.108 67.7028 0 0 144
29.675 -30.1351 65.7543 0 0 144
29.0298 -30.6696 68.5784 0 0 145
30.005 -30.6999 68.4029 0 0 160
29.516 -30.108 67.7028 0 0 145
28.8104 -32.0596 69.1573 0 0 129
28.5443 -31.1116 69.4857 0 0 129
3 0 37 38
3 0 13 11
3 0 39 41
3 41 40 13
3 39 40 41
3 1 16 14
3 43 42 17
3 44 19 45
3 46 21 47
3 48 47 19
3 46 47 48
3 2 25 23
3 49 26 50
3 51 50 12
3 49 50 51
3 53 52 26
3 5 54 55
3 6 56 58
3 58 57 15
3 56 57 58
3 6 59 60
3 3 28 24
3 7 29 18
3 7 61 63
3 63 62 29
3 61 62 63
3 7 64 65
3 8 66 67
3 8 68 69
3 8 70 72
3 70 30 71
3 70 71 72
3 9 31 20
3 9 32 31
3 4 33 27
3 10 34 22
3 10 35 34
3 10 36 35
3 11 12 2
3 13 12 11
3 13 73 75
3 75 74 12
3 73 74 75
3 13 76 77
3 79 78 13
3 14 15 5
3 16 15 14
3 16 6 15
3 17 18 3
3 80 18 81
3 82 81 17
3 80 81 82
3 83 7 84
3 85 84 18
3 83 84 85
3 87 86 7
3 19 88 89
3 19 90 92
3 90 8 91
3 90 91 92
3 19 20 8
3 21 20 19
3 21 9 20
3 93 22 94
3 95 94 4
3 93 94 95
3 96 22 97
3 98 10 99
3 100 99 22
3 98 99 100
3 102 101 10
3 23 24 1
3 25 24 23
3 25 3 24
3 12 25 2
3 26 25 12
3 26 3 25
3 26 17 3
3 103 17 104
3 105 104 26
3 103 104 105
3 107 106 17
3 108 27 109
3 110 27 111
3 112 4 113
3 114 113 27
3 112 113 114
3 115 4 116
3 119 118 4
3 117 118 119
3 15 120 122
3 122 121 5
3 120 121 122
3 124 123 15
3 24 16 1
3 28 16 24
3 28 6 16
3 18 28 3
3 29 28 18
3 29 6 28
3 29 125 127
3 127 126 6
3 125 126 127
3 129 128 29
3 131 130 7
3 133 132 0
3 30 134 135
3 30 136 138
3 136 5 137
3 136 137 138
3 20 30 8
3 31 30 20
3 31 5 30
3 31 14 5
3 32 14 31
3 32 1 14
3 27 139 141
3 139 21 140
3 139 140 141
3 33 21 27
3 33 9 21
3 22 33 4
3 34 33 22
3 34 9 33
3 34 32 9
3 35 32 34
3 35 1 32
3 35 23 1
3 36 23 35
3 36 2 23
3 142 36 143
3 144 143 10
3 142 143 144
3 145 36 146
3 147 2 148
3 149 148 36
3 147 148 149
3 150 11 151
3 152 151 2
3 150 151 152
3 153 11 154
3 155 0 156
3 157 156 11
3 155 156 157
3 159 158 0
