ply
format ascii 1.0
element vertex 159
property float x
property float y
property float z
property uchar red
property uchar green
property uchar blue
element face 149
property list uchar int vertex_index
end_header
27.7319 58.2437 -9.78935 70 255 185
19.5726 52.2353 -13.9881 78 255 177
30.8151 46.481 -11.5792 148 0 0
23.8629 56.4766 -13.0532 201 0 0
25.0885 48.7739 -11.4906 201 0 0
29.7902 53.6771 -11.1705 128 0 0
20.5417 59.3248 -11.6745 35 255 220
20.7119 44.6596 -11.962 52 255 203
26.2228 42.1154 -10.4857 255 234 0
34.1513 56.4022 -8.66257 0 127 255
35.7921 52.2368 -9.30938 221 255 34
25.9553 58.0259 -11.7592 255 217 0
26.5997 54.7572 -11.9132 182 0 0
29.1092 57.0531 -10.9158 255 103 0
25.7409 56.655 -8.67482 54 255 201
22.4145 57.1086 -9.50409 129 255 126
24.461 58.9535 -10.8772 255 199 0
22.6059 59.2097 -12.6352 96 255 159
20.0175 48.4063 -12.4308 200 255 55
28.0603 47.6774 -10.3887 203 0 0
25.5733 45.57 -10.0358 219 0 0
28.5827 44.2648 -11.0403 167 0 0
28.8186 40.741 -12.5289 75 255 180
31.1931 42.8646 -13.2126 255 253 0
35.6498 55.2629 -9.67156 64 255 191
21.5457 54.3402 -13.5814 255 134 0
22.1643 50.5416 -12.3572 181 0 0
24.578 52.2723 -12.6824 152 0 0
27.3094 51.1937 -11.3618 183 0 0
30.3105 50.1603 -10.7693 139 0 0
20.2596 57.864 -13.7797 59 255 196
22.6684 46.8045 -11.1222 215 0 0
23.307 43.2577 -10.483 255 250 0
24.4385 40.1655 -11.294 0 119 255
31.2871 57.1387 -9.19657 0 230 255
32.7028 55.8132 -10.6964 255 128 0
33.2544 52.854 -11.1874 184 0 0
33.3957 49.503 -11.1121 134 0 0
35.9229 48.607 -9.37452 132 255 123
33.699 46.1313 -12.1047 243 255 12
19.795 50.3208 -13.2095 0 0 230
18.8863 49.0947 -13.4877 0 0 188
18.6638 51.0092 -14.2663 0 0 188
17.9825 52.6032 -14.6753 0 0 143
18.9185 53.7419 -14.2138 0 0 143
18.6638 51.0092 -14.2663 0 0 145
17.9825 52.6032 -14.6753 0 0 145
19.1325 57.7523 -10.9371 0 0 229
20.0689 56.6442 -9.85188 0 0 229
21.4781 58.2167 -10.5893 0 37 255
18.3755 58.7837 -12.1772 0 0 165
19.1325 57.7523 -10.9371 0 0 165
19.5611 59.6178 -12.6652 0 0 139
18.3755 58.7837 -12.1772 0 0 139
20.4132 43.7309 -13.1546 0 0 141
19.8181 45.3545 -13.0668 0 0 141
21.3761 43.0075 -12.145 0 0 142
20.4132 43.7309 -13.1546 0 0 142
26.6069 40.6062 -11.1726 0 0 166
25.7148 39.6313 -11.5768 0 0 166
25.3307 41.1405 -10.8899 0 0 196
29.0502 39.6119 -11.2811 0 0 135
29.9437 40.4941 -11.6074 0 0 135
35.9197 47.0295 -9.78174 0 0 193
37.5715 47.8659 -9.8441 0 0 193
37.5682 46.2884 -10.2513 0 0 149
34.8077 45.7917 -11.1469 0 0 184
34.811 47.3691 -10.7396 0 0 223
35.9197 47.0295 -9.78174 0 0 184
33.6386 44.4298 -11.5517 0 0 145
34.8077 45.7917 -11.1469 0 0 145
24.0777 56.8818 -9.08945 0 0 245
22.6636 55.6731 -8.43623 0 0 198
24.3268 55.4462 -8.0216 0 0 198
19.4709 47.2278 -13.3012 0 0 146
18.8863 49.0947 -13.4877 0 0 146
20.3647 46.533 -12.1964 0 0 221
19.8181 45.3545 -13.0668 0 0 182
19.4709 47.2278 -13.3012 0 0 182
31.1309 41.5558 -11.9493 0 0 178
29.9437 40.4941 -11.6074 0 0 178
30.0059 41.8028 -12.8707 0 0 215
36.1908 55.4413 -8.5993 0 0 146
34.9005 55.8325 -9.16706 0 0 167
35.4416 56.011 -8.0948 0 0 146
37.0283 54.6227 -8.94748 0 0 129
36.1908 55.4413 -8.5993 0 0 129
37.0994 53.1097 -8.76639 0 0 178
35.7209 53.7499 -9.49047 0 0 215
37.0283 54.6227 -8.94748 0 0 178
20.9078 56.1474 -8.58968 0 0 154
22.6636 55.6731 -8.43623 0 0 154
20.9078 56.1474 -8.58968 0 0 156
20.0689 56.6442 -9.85188 0 0 156
20.5932 59.5602 -13.1455 0 0 154
19.5611 59.6178 -12.6652 0 0 154
21.5738 59.2673 -12.1549 0 0 179
19.42 58.8873 -13.7178 0 0 167
20.5932 59.5602 -13.1455 0 0 167
21.4328 58.5368 -13.2075 0 0 198
18.7062 58.0592 -14.491 0 0 133
19.42 58.8873 -13.7178 0 0 133
19.262 56.5563 -14.1096 0 0 144
18.7062 58.0592 -14.491 0 0 144
19.905 54.7944 -14.0105 0 0 192
19.262 56.5563 -14.1096 0 0 192
20.9027 56.1021 -13.6806 0 0 235
20.5591 53.2878 -13.7848 0 0 213
18.9185 53.7419 -14.2138 0 0 177
19.905 54.7944 -14.0105 0 0 177
22.6737 42.3066 -11.4055 0 0 178
21.3761 43.0075 -12.145 0 0 178
22.0094 43.9586 -11.2225 0 0 215
23.2394 40.7605 -11.811 0 0 169
22.6737 42.3066 -11.4055 0 0 169
23.8728 41.7116 -10.8885 0 0 202
24.0316 39.3533 -12.1869 0 0 134
23.2394 40.7605 -11.811 0 0 134
25.0089 38.8551 -11.4986 0 0 130
24.0316 39.3533 -12.1869 0 0 130
25.0089 38.8551 -11.4986 0 0 128
25.7148 39.6313 -11.5768 0 0 128
27.9049 39.919 -12.1942 0 0 172
26.6069 40.6062 -11.1726 0 0 172
27.5207 41.4282 -11.5073 0 0 205
27.9049 39.919 -12.1942 0 0 135
29.0502 39.6119 -11.2811 0 0 135
30.0876 56.6256 -8.70089 0 0 170
29.5095 57.6912 -9.49296 0 0 202
28.31 57.1781 -8.99728 0 0 170
31.5525 56.4224 -8.40171 0 0 129
30.0876 56.6256 -8.70089 0 0 129
32.9845 56.0542 -8.13471 0 0 151
32.7192 56.7704 -8.92957 0 0 174
31.5525 56.4224 -8.40171 0 0 151
34.2632 55.6876 -7.67118 0 0 129
32.9845 56.0542 -8.13471 0 0 129
35.5535 55.2964 -7.10342 0 0 129
35.4416 56.011 -8.0948 0 0 153
34.2632 55.6876 -7.67118 0 0 153
25.9611 55.0649 -8.01904 0 0 149
24.3268 55.4462 -8.0216 0 0 149
27.3145 56.3837 -8.44002 0 0 148
25.9611 55.0649 -8.01904 0 0 148
28.31 57.1781 -8.99728 0 0 166
26.7364 57.4493 -9.23208 0 0 196
27.3145 56.3837 -8.44002 0 0 166
37.4287 51.3767 -8.97 0 0 149
37.0994 53.1097 -8.76639 0 0 149
37.4941 49.5617 -9.00258 0 0 154
37.5715 47.8659 -9.8441 0 0 154
35.8575 50.4219 -9.34195 0 0 249
37.4287 51.3767 -8.97 0 0 201
37.4941 49.5617 -9.00258 0 0 201
32.3857 42.7965 -12.1056 0 0 197
32.446 44.4979 -12.6587 0 0 242
33.6386 44.4298 -11.5517 0 0 197
31.1309 41.5558 -11.9493 0 0 147
32.3857 42.7965 -12.1056 0 0 147
3 0 13 11
3 0 16 14
3 0 11 16
3 1 40 42
3 40 18 41
3 40 41 42
3 2 21 19
3 2 23 21
3 1 43 44
3 1 45 46
3 3 27 25
3 5 28 12
3 5 29 28
3 6 47 49
3 49 48 15
3 47 48 49
3 6 50 51
3 6 52 53
3 3 30 17
3 3 25 30
3 7 54 55
3 7 56 57
3 4 31 26
3 8 32 20
3 8 33 32
3 8 58 60
3 60 59 33
3 58 59 60
3 62 61 22
3 9 35 34
3 10 36 24
3 10 37 36
3 63 38 64
3 63 64 65
3 66 39 67
3 68 67 38
3 66 67 68
3 70 69 39
3 11 12 3
3 13 12 11
3 13 5 12
3 14 71 73
3 71 15 72
3 71 72 73
3 16 15 14
3 16 6 15
3 16 17 6
3 11 17 16
3 11 3 17
3 18 74 75
3 18 76 78
3 76 7 77
3 76 77 78
3 19 20 4
3 21 20 19
3 21 8 20
3 21 22 8
3 23 22 21
3 23 79 81
3 81 80 22
3 79 80 81
3 82 24 83
3 84 83 9
3 82 83 84
3 85 24 86
3 87 10 88
3 89 88 24
3 87 88 89
3 25 26 1
3 27 26 25
3 27 4 26
3 12 27 3
3 28 27 12
3 28 4 27
3 28 19 4
3 29 19 28
3 29 2 19
3 15 90 91
3 93 92 15
3 17 94 96
3 96 95 6
3 94 95 96
3 30 97 99
3 99 98 17
3 97 98 99
3 30 100 101
3 30 102 103
3 25 104 106
3 106 105 30
3 104 105 106
3 25 107 109
3 107 1 108
3 107 108 109
3 26 18 1
3 31 18 26
3 31 7 18
3 20 31 4
3 32 31 20
3 32 7 31
3 32 110 112
3 112 111 7
3 110 111 112
3 33 113 115
3 115 114 32
3 113 114 115
3 33 116 117
3 33 118 119
3 121 120 33
3 22 122 124
3 124 123 8
3 122 123 124
3 126 125 22
3 127 34 128
3 129 128 0
3 127 128 129
3 130 34 131
3 132 9 133
3 134 133 34
3 132 133 134
3 135 9 136
3 139 138 9
3 137 138 139
3 140 14 141
3 142 14 143
3 144 0 145
3 146 145 14
3 144 145 146
3 34 13 0
3 35 13 34
3 35 5 13
3 24 35 9
3 36 35 24
3 36 5 35
3 36 29 5
3 37 29 36
3 37 2 29
3 147 10 148
3 38 149 150
3 38 151 153
3 151 10 152
3 151 152 153
3 38 37 10
3 39 37 38
3 39 2 37
3 39 23 2
3 154 23 155
3 156 155 39
3 154 155 156
3 158 157 23
