ply
format ascii 1.0
element vertex 208
property float x
property float y
property float z
property uchar red
property uchar green
property uchar blue
element face 205
property list uchar int vertex_index
end_header
-14.3698 27.2391 -21.4726 255 78 0
-16.5081 13.7378 -21.6517 45 255 210
-7.98949 26.3549 -21.435 255 161 0
-13.1761 14.6216 -14.0842 255 2 0
-15.9648 25.5869 -23.0807 107 255 148
-14.6505 20.7276 -22.4032 255 167 0
-12.0301 28.2641 -18.1579 255 151 0
-14.6877 22.5033 -16.6103 255 82 0
-11.124 21.5132 -16.135 255 60 0
-10.2606 12.585 -15.7821 205 255 50
-14.4356 31.3066 -24.2355 112 255 143
-12.8867 33.8864 -19.7636 106 255 149
-8.21787 33.0057 -21.821 156 255 99
-16.4979 16.1385 -16.5681 151 0 0
-18.3693 8.20421 -16.1141 0 234 255
-14.3682 26.1868 -23.2631 70 255 185
-15.0518 23.2118 -23.253 116 255 139
-14.4749 24.0562 -22.071 255 146 0
-10.0361 27.5332 -19.2212 186 0 0
-11.4336 24.8965 -17.3094 255 98 0
-9.64556 24.1441 -18.7073 141 0 0
-9.3912 16.438 -16.6486 148 255 107
-9.22763 11.3501 -16.3387 0 114 255
-16.9991 30.6075 -22.48 235 255 20
-15.6828 33.6339 -23.1678 0 216 255
-10.5942 33.8044 -19.7177 127 255 128
-14.1057 19.0272 -14.5415 255 53 0
-15.5722 19.3621 -16.6774 159 0 0
-15.2157 15.5605 -14.548 204 0 0
-16.9848 7.46981 -15.9829 0 245 255
-17.1434 22.7463 -22.44 0 250 255
-15.8849 19.9813 -23.0166 0 229 255
-15.2259 17.1896 -22.2258 191 255 64
-7.97071 22.739 -20.9675 190 255 65
-12.5698 9.69191 -15.952 128 255 127
-14.3799 10.7446 -15.5389 189 255 66
-14.0025 28.2547 -18.8715 255 150 0
-14.7584 25.1093 -18.866 255 20 0
-13.469 25.4354 -17.2094 255 182 0
-12.9512 22.1299 -15.5753 255 157 0
-12.2589 18.5343 -14.2741 255 102 0
-9.62965 20.6367 -17.6302 255 150 0
-10.6521 17.6024 -15.1985 255 19 0
-11.5393 13.7598 -14.7558 255 90 0
-11.3983 8.45882 -15.8418 0 234 255
-18.0709 27.8208 -21.3951 131 255 124
-15.0879 28.2758 -23.756 255 204 0
-13.7731 29.1248 -23.6177 255 255 0
-13.5045 32.5459 -22.8675 121 255 134
-14.0589 30.6981 -20.5043 255 19 0
-12.4782 31.1771 -18.9092 255 184 0
-10.1372 30.7508 -19.6743 237 0 0
-8.0182 29.7463 -21.9058 255 181 0
-15.2495 21.9524 -19.2998 136 0 0
-15.2921 18.6393 -19.8675 128 0 0
-16.2895 15.5362 -19.528 166 0 0
-16.1726 11.7641 -15.3582 255 255 0
-17.5965 12.6671 -16.2639 255 55 0
-18.215 12.5385 -17.9469 144 255 111
-17.3126 13.3359 -21.8612 0 0 128
-16.5841 14.9635 -22.1805 0 0 128
-17.7319 12.7798 -20.4376 0 0 132
-17.3126 13.3359 -21.8612 0 0 132
-8.79131 10.5007 -16.0542 0 0 129
-8.77609 13.1791 -17.0943 0 0 129
-9.50427 8.20361 -15.0721 0 0 137
-8.79131 10.5007 -16.0542 0 0 137
-16.3417 34.5258 -21.9298 0 0 153
-17.2175 33.2317 -21.7469 0 0 153
-16.5541 24.1666 -22.7603 0 0 231
-17.7926 23.8823 -21.5426 0 0 189
-17.2032 25.3026 -21.863 0 0 189
-13.3957 7.72318 -15.4026 0 0 140
-12.7919 7.14887 -14.9432 0 0 140
-8.98937 19.9285 -18.5411 0 0 196
-8.80018 21.6879 -19.2988 0 0 241
-8.1599 20.9797 -20.2097 0 0 196
-18.7201 28.9066 -20.216 0 0 152
-18.6233 27.4382 -19.6201 0 0 152
-13.1956 33.2161 -21.3156 0 0 231
-13.2417 34.2416 -22.3303 0 0 189
-12.9328 34.9118 -20.7783 0 0 189
-15.8678 9.2174 -15.4632 0 0 183
-15.2762 11.2544 -15.4485 0 0 221
-14.9715 8.70764 -15.5535 0 0 183
-19.0099 8.59057 -16.2337 0 0 162
-18.9328 10.7577 -17.1501 0 0 162
-18.2922 10.3713 -17.0305 0 0 189
-8.85788 15.7231 -17.2493 0 0 146
-8.87014 17.8292 -18.0503 0 0 146
-9.30942 13.894 -16.4936 0 0 219
-8.85788 15.7231 -17.2493 0 0 181
-8.77609 13.1791 -17.0943 0 0 181
-9.85171 9.08075 -15.6415 0 0 174
-10.3682 9.6982 -15.3632 0 0 174
-9.74409 11.9675 -16.0604 0 0 208
-9.85171 9.08075 -15.6415 0 0 135
-9.50427 8.20361 -15.0721 0 0 135
-17.8756 31.7184 -21.4031 0 0 205
-18.1842 30.3 -20.7585 0 0 205
-19.0608 31.4109 -19.6815 0 0 156
-16.341 32.1207 -22.8239 0 8 255
-17.8756 31.7184 -21.4031 0 0 211
-17.2175 33.2317 -21.7469 0 0 211
-12.0409 35.2783 -19.7672 0 0 140
-12.9328 34.9118 -20.7783 0 0 140
-10.8946 35.2373 -19.7443 0 0 165
-11.7404 33.8454 -19.7407 0 0 194
-12.0409 35.2783 -19.7672 0 0 165
-9.58675 35.0087 -20.4823 0 0 144
-10.8946 35.2373 -19.7443 0 0 144
-8.39861 34.6093 -21.534 0 0 193
-9.40602 33.405 -20.7694 0 0 237
-9.58675 35.0087 -20.4823 0 0 193
-17.243 5.41134 -14.6811 0 0 139
-16.2739 7.07024 -15.7755 0 0 139
-17.8605 5.84546 -14.9631 0 0 136
-17.243 5.41134 -14.6811 0 0 136
-18.5528 6.21266 -15.0287 0 0 166
-17.677 7.83701 -16.0485 0 0 196
-17.8605 5.84546 -14.9631 0 0 166
-19.2312 6.55459 -15.1251 0 0 135
-18.5528 6.21266 -15.0287 0 0 135
-17.8914 22.358 -20.7681 0 0 152
-17.7926 23.8823 -21.5426 0 0 152
-17.5062 21.0964 -21.97 0 0 157
-17.8914 22.358 -20.7681 0 0 157
-16.877 19.7139 -22.2583 0 0 175
-17.5062 21.0964 -21.97 0 0 175
-16.5142 21.3638 -22.7283 0 0 210
-16.2725 18.0852 -22.863 0 0 147
-16.877 19.7139 -22.2583 0 0 147
-15.943 16.6893 -22.4676 0 0 153
-16.2725 18.0852 -22.863 0 0 153
-15.5554 18.5854 -22.6212 0 0 176
-15.867 15.4637 -21.9387 0 0 167
-16.5841 14.9635 -22.1805 0 0 147
-15.943 16.6893 -22.4676 0 0 147
-7.05422 23.6237 -22.5829 0 0 221
-7.9801 24.547 -21.2013 0 23 255
-7.06361 25.4317 -22.8167 0 0 221
-7.35176 21.7864 -21.8367 0 0 155
-7.05422 23.6237 -22.5829 0 0 155
-8.1599 20.9797 -20.2097 0 0 153
-7.35176 21.7864 -21.8367 0 0 153
-14.3007 8.24953 -15.1961 0 0 190
-13.4748 10.2183 -15.7455 0 0 233
-13.3957 7.72318 -15.4026 0 0 190
-14.9715 8.70764 -15.5535 0 0 139
-14.3007 8.24953 -15.1961 0 0 139
-9.51043 18.5373 -17.1394 0 0 248
-8.98937 19.9285 -18.5411 0 0 200
-8.87014 17.8292 -18.0503 0 0 200
-12.2062 6.53232 -14.8881 0 0 171
-12.7919 7.14887 -14.9432 0 0 171
-11.984 9.07537 -15.8969 0 0 203
-10.9371 7.63512 -15.393 0 0 168
-10.8294 10.5219 -15.8119 0 0 199
-10.3682 9.6982 -15.3632 0 0 168
-11.8638 5.77816 -14.3561 0 0 139
-10.9371 7.63512 -15.393 0 0 139
-12.2062 6.53232 -14.8881 0 0 133
-11.8638 5.77816 -14.3561 0 0 133
-18.2563 26.4196 -21.0202 0 0 150
-18.6233 27.4382 -19.6201 0 0 150
-17.0178 26.7038 -22.2379 0 0 232
-17.2032 25.3026 -21.863 0 0 190
-18.2563 26.4196 -21.0202 0 0 190
-17.535 29.2141 -21.9376 0 0 252
-18.7201 28.9066 -20.216 0 0 203
-18.1842 30.3 -20.7585 0 0 203
-14.9249 35.1469 -23.6539 0 0 159
-16.3417 34.5258 -21.9298 0 0 159
-14.5262 34.0583 -23.7563 0 0 135
-14.9249 35.1469 -23.6539 0 0 135
-13.9026 32.8947 -24.2902 0 0 173
-15.0592 32.4703 -23.7017 0 0 207
-14.5262 34.0583 -23.7563 0 0 173
-13.437 33.5143 -23.6062 0 0 138
-13.2417 34.2416 -22.3303 0 0 138
-13.9701 31.9262 -23.5515 0 0 174
-13.9026 32.8947 -24.2902 0 0 151
-13.437 33.5143 -23.6062 0 0 151
-7.17087 34.1271 -23.0735 0 0 160
-8.39861 34.6093 -21.534 0 0 160
-7.07641 32.4068 -23.4403 0 0 164
-7.17087 34.1271 -23.0735 0 0 164
-6.97658 30.7771 -23.4827 0 0 220
-8.11804 31.376 -21.8634 0 22 255
-7.07641 32.4068 -23.4403 0 0 220
-6.93818 28.9407 -23.4417 0 0 231
-6.97658 30.7771 -23.4827 0 0 231
-5.89655 29.9715 -25.0186 0 0 168
-6.92382 27.245 -23.2063 0 0 226
-8.00385 28.0506 -21.6704 0 32 255
-6.93818 28.9407 -23.4417 0 0 226
-7.06361 25.4317 -22.8167 0 0 167
-6.92382 27.245 -23.2063 0 0 167
-16.5787 9.61697 -15.6705 0 0 203
-15.8678 9.2174 -15.4632 0 0 170
-16.2739 7.07024 -15.7755 0 0 170
-18.5854 12.1801 -18.5852 0 0 164
-17.7319 12.7798 -20.4376 0 0 164
-17.3615 13.1382 -19.7993 0 0 193
-18.5854 12.1801 -18.5852 0 0 136
-18.9328 10.7577 -17.1501 0 0 136
-19.0099 8.59057 -16.2337 0 0 135
-19.2312 6.55459 -15.1251 0 0 135
3 0 17 15
3 1 59 60
3 1 61 62
3 2 20 18
3 63 22 64
3 66 65 22
3 67 24 68
3 3 28 26
3 4 69 71
3 69 30 70
3 69 70 71
3 5 31 16
3 5 32 31
3 73 72 34
3 6 38 36
3 8 39 19
3 8 40 39
3 74 41 75
3 76 75 33
3 74 75 76
3 9 42 21
3 9 43 42
3 9 44 43
3 77 45 78
3 10 46 23
3 10 47 46
3 11 79 81
3 79 48 80
3 79 80 81
3 11 49 48
3 11 50 49
3 12 51 25
3 12 52 51
3 7 53 37
3 13 54 27
3 13 55 54
3 82 56 83
3 84 83 35
3 82 83 84
3 14 57 29
3 14 58 57
3 14 85 87
3 87 86 58
3 85 86 87
3 15 16 4
3 17 16 15
3 17 5 16
3 18 19 6
3 20 19 18
3 20 8 19
3 88 21 89
3 22 90 92
3 90 21 91
3 90 91 92
3 22 9 21
3 22 93 95
3 95 94 9
3 93 94 95
3 97 96 22
3 98 23 99
3 98 99 100
3 24 101 103
3 101 23 102
3 101 102 103
3 24 10 23
3 104 11 105
3 106 25 107
3 108 107 11
3 106 107 108
3 109 25 110
3 111 12 112
3 113 112 25
3 111 112 113
3 26 27 7
3 28 27 26
3 28 13 27
3 114 29 115
3 116 29 117
3 118 14 119
3 120 119 29
3 118 119 120
3 122 121 14
3 30 123 124
3 30 125 126
3 16 30 4
3 31 30 16
3 31 127 129
3 129 128 30
3 127 128 129
3 31 130 131
3 32 132 134
3 134 133 31
3 132 133 134
3 32 135 137
3 135 1 136
3 135 136 137
3 138 33 139
3 140 139 2
3 138 139 140
3 141 33 142
3 144 143 33
3 34 35 3
3 145 35 146
3 147 146 34
3 145 146 147
3 149 148 35
3 36 37 0
3 38 37 36
3 38 7 37
3 19 38 6
3 39 38 19
3 39 7 38
3 39 26 7
3 40 26 39
3 40 3 26
3 33 20 2
3 41 20 33
3 41 8 20
3 21 150 152
3 150 41 151
3 150 151 152
3 42 41 21
3 42 8 41
3 42 40 8
3 43 40 42
3 43 3 40
3 43 34 3
3 44 34 43
3 44 153 155
3 155 154 34
3 153 154 155
3 156 44 157
3 158 157 9
3 156 157 158
3 159 44 160
3 162 161 44
3 45 163 164
3 45 165 167
3 165 4 166
3 165 166 167
3 23 168 170
3 168 45 169
3 168 169 170
3 46 45 23
3 46 4 45
3 46 15 4
3 47 15 46
3 47 0 15
3 171 24 172
3 173 24 174
3 175 10 176
3 177 176 24
3 175 176 177
3 48 178 179
3 48 180 182
3 180 10 181
3 180 181 182
3 48 47 10
3 49 47 48
3 49 0 47
3 49 36 0
3 50 36 49
3 50 6 36
3 25 50 11
3 51 50 25
3 51 6 50
3 51 18 6
3 52 18 51
3 52 2 18
3 183 12 184
3 185 12 186
3 187 52 188
3 189 188 12
3 187 188 189
3 190 52 191
3 190 191 192
3 193 2 194
3 195 194 52
3 193 194 195
3 197 196 2
3 37 17 0
3 53 17 37
3 53 5 17
3 27 53 7
3 54 53 27
3 54 5 53
3 54 32 5
3 55 32 54
3 55 1 32
3 35 28 3
3 56 28 35
3 56 13 28
3 29 198 200
3 198 56 199
3 198 199 200
3 57 56 29
3 57 13 56
3 57 55 13
3 58 55 57
3 58 1 55
3 58 201 203
3 203 202 1
3 201 202 203
3 205 204 58
3 207 206 14
