ply
format ascii 1.0
element vertex 201
property float x
property float y
property float z
property uchar red
property uchar green
property uchar blue
element face 206
property list uchar int vertex_index
end_header
-16.1729 -66.8947 59.4082 244 255 11
-10.1056 -70.5136 53.3122 255 50 0
-14.6557 -74.4284 45.623 0 219 255
-15.8665 -66.4905 48.3849 255 100 0
-12.8289 -68.5485 56.6466 255 15 0
-12.78 -68.8298 49.7789 173 0 0
-16.1646 -66.9458 53.9602 255 6 0
-13.8629 -64.1741 61.2953 121 255 134
-10.2366 -66.706 59.4546 94 255 161
-12.0344 -73.5446 48.9463 255 252 0
-15.3081 -70.6838 46.9459 228 255 27
-16.8587 -67.3723 43.8978 28 255 227
-18.3313 -62.4755 62.1783 0 180 255
-18.858 -65.2986 58.2461 104 255 151
-19.695 -65.5923 53.7638 253 255 2
-19.2473 -64.208 49.0545 153 255 102
-14.3996 -67.7744 58.2689 255 38 0
-14.5524 -68.0236 55.2044 191 0 0
-16.2684 -67.1685 56.764 255 84 0
-14.9313 -65.8363 60.7298 255 70 0
-13.0478 -67.2795 59.8907 255 63 0
-9.16771 -71.9879 52.2647 204 255 51
-10.0879 -73.936 50.2044 53 255 202
-10.758 -72.0017 50.5568 255 83 0
-14.2943 -67.6965 48.8885 255 44 0
-13.9817 -70.059 47.826 255 207 0
-15.3742 -68.6669 47.0917 255 255 0
-16.1774 -69.1919 45.4033 139 255 116
-16.5378 -67.1751 46.4012 255 156 0
-9.82484 -68.9585 56.9553 255 57 0
-8.70964 -67.4269 57.9659 0 245 255
-8.55286 -69.8941 55.2331 230 255 25
-7.50953 -70.3747 53.4884 0 166 255
-12.8434 -75.3788 46.7835 0 158 255
-20.065 -63.9835 57.3171 0 202 255
-19.117 -65.5367 55.876 225 255 30
-20.5018 -64.4708 55.1437 0 211 255
-21.4729 -64.5914 51.5499 0 207 255
-11.2799 -69.428 54.9985 255 1 0
-11.4529 -69.9851 51.4494 207 0 0
-12.672 -68.6876 53.4585 140 0 0
-14.2608 -67.4984 51.9551 128 0 0
-15.8705 -66.3068 51.1366 223 0 0
-11.9618 -65.5474 60.4024 97 255 158
-11.447 -68.1988 58.5049 255 53 0
-11.2709 -75.0263 48.3372 0 223 255
-13.2283 -73.9028 47.6524 196 255 59
-12.4048 -71.3273 48.8417 255 81 0
-13.8773 -72.2667 48.006 187 255 68
-14.71 -72.5157 46.4477 103 255 152
-15.6481 -71.1517 44.6061 3 255 252
-17.1786 -64.7762 61.0202 255 181 0
-17.6702 -66.3642 58.9618 255 224 0
-18.6209 -64.6026 60.5669 8 255 247
-16.2305 -63.2663 61.9663 87 255 168
-17.8428 -66.4517 56.292 255 200 0
-18.0599 -66.2783 53.8347 255 139 0
-17.7665 -65.4006 51.4191 255 64 0
-21.4199 -64.8613 53.6485 0 228 255
-19.6415 -64.9076 51.4571 255 136 0
-17.3706 -65.2277 48.7215 255 48 0
-17.4117 -65.4751 45.9458 157 255 98
-14.9639 -75.3021 45.7232 0 0 169
-14.0577 -75.7773 46.3034 0 0 169
-13.7496 -74.9036 46.2033 0 0 198
-20.8676 -63.6432 55.7641 0 0 162
-20.2834 -64.2272 56.2304 0 0 188
-20.6493 -63.3996 56.8508 0 0 162
-12.9124 -64.8608 60.8489 0 0 211
-12.7506 -63.8813 60.5734 0 0 177
-13.7011 -63.1947 61.0199 0 0 177
-16.6278 -68.5241 43.3181 0 0 189
-16.2872 -69.4338 44.0709 0 0 189
-16.5181 -68.2821 44.6505 0 0 229
-17.1761 -67.5764 42.4876 0 0 155
-16.6278 -68.5241 43.3181 0 0 155
-10.2895 -65.5698 59.2735 0 0 140
-11.0804 -65.0708 59.786 0 0 140
-8.84381 -66.3559 57.8295 0 0 144
-8.13978 -67.6833 57.0024 0 0 144
-7.51373 -71.7865 51.2819 0 0 144
-7.21532 -70.5468 52.519 0 0 178
-7.80794 -71.6144 52.2513 0 0 178
-17.2809 -62.8709 62.0723 0 0 182
-16.815 -62.2203 61.9423 0 0 158
-17.8655 -61.8249 62.0483 0 0 158
-22.1413 -64.3371 53.3553 0 0 128
-21.6388 -64.1343 53.9846 0 0 128
-9.6278 -72.9619 51.2345 0 0 201
-9.09712 -73.395 50.6093 0 0 171
-8.63703 -72.421 51.6394 0 0 171
-8.06139 -68.9169 55.636 0 0 180
-8.13978 -67.6833 57.0024 0 0 180
-8.63125 -68.6605 56.5995 0 0 215
-8.0312 -70.1344 54.3607 0 0 206
-7.53972 -69.1572 54.7636 0 0 174
-8.06139 -68.9169 55.636 0 0 174
-8.63703 -72.421 51.6394 0 0 174
-7.80794 -71.6144 52.2513 0 0 174
-8.33862 -71.1813 52.8765 0 0 206
-12.9422 -75.9417 46.4096 0 0 130
-11.8174 -75.646 46.9124 0 0 130
-12.9422 -75.9417 46.4096 0 0 131
-14.0577 -75.7773 46.3034 0 0 131
-19.5137 -61.4966 62.4377 0 0 130
-19.0573 -62.477 62.1623 0 0 150
-18.7878 -61.495 62.4537 0 0 150
-18.7878 -61.495 62.4537 0 0 132
-17.8655 -61.8249 62.0483 0 0 132
-22.4103 -64.3148 51.4807 0 0 132
-22.1678 -64.2021 52.306 0 0 132
-21.1942 -64.0735 50.3027 0 0 147
-22.4103 -64.3148 51.4807 0 0 147
-20.0813 -63.8818 49.055 0 0 177
-20.3601 -64.3997 50.3022 0 0 211
-21.1942 -64.0735 50.3027 0 0 177
-18.8986 -63.9671 47.5367 0 0 148
-20.0813 -63.8818 49.055 0 0 148
-11.943 -64.4915 60.2599 0 0 136
-12.7506 -63.8813 60.5734 0 0 136
-11.0992 -66.1267 59.9285 0 0 200
-11.0804 -65.0708 59.786 0 0 170
-11.943 -64.4915 60.2599 0 0 170
-15.731 -74.9221 44.9745 0 0 147
-15.196 -73.9128 44.6417 0 0 147
-9.66672 -74.4409 49.4936 0 0 141
-9.09712 -73.395 50.6093 0 0 141
-10.2582 -74.9861 48.56 0 0 163
-9.66672 -74.4409 49.4936 0 0 163
-10.6794 -74.4811 49.2708 0 0 190
-11.0311 -75.4698 47.6892 0 0 133
-10.2582 -74.9861 48.56 0 0 133
-12.0572 -75.2026 47.5603 0 0 178
-11.8174 -75.646 46.9124 0 0 155
-11.0311 -75.4698 47.6892 0 0 155
-15.2231 -72.9565 45.0541 0 0 180
-15.196 -73.9128 44.6417 0 0 180
-14.6829 -73.472 46.0354 0 0 215
-15.6921 -72.2745 44.1333 0 0 191
-15.2231 -72.9565 45.0541 0 0 191
-15.179 -71.8337 45.5269 0 0 231
-16.1295 -71.5821 43.2062 0 0 150
-15.6921 -72.2745 44.1333 0 0 150
-16.0225 -70.4138 43.6723 0 0 180
-15.9128 -70.1718 45.0047 0 0 215
-16.2872 -69.4338 44.0709 0 0 180
-16.1295 -71.5821 43.2062 0 0 152
-16.0225 -70.4138 43.6723 0 0 152
-9.52604 -65.9303 58.5291 0 0 179
-10.2895 -65.5698 59.2735 0 0 179
-9.47311 -67.0665 58.7103 0 0 213
-9.66022 -64.8593 58.3927 0 0 139
-9.52604 -65.9303 58.5291 0 0 168
-8.84381 -66.3559 57.8295 0 0 168
-7.21875 -69.2223 53.7668 0 0 144
-7.53972 -69.1572 54.7636 0 0 144
-7.21875 -69.2223 53.7668 0 0 143
-7.21532 -70.5468 52.519 0 0 143
-14.9639 -75.3021 45.7232 0 0 139
-15.731 -74.9221 44.9745 0 0 139
-19.2021 -63.5406 61.3566 0 0 163
-18.4761 -63.5391 61.3726 0 0 189
-19.0573 -62.477 62.1623 0 0 163
-19.2992 -64.2016 60.2099 0 0 141
-19.2021 -63.5406 61.3566 0 0 141
-19.4178 -64.5496 59.0495 0 0 164
-18.7394 -64.9506 59.4065 0 0 191
-19.2992 -64.2016 60.2099 0 0 164
-20.0213 -63.8921 58.585 0 0 173
-19.4615 -64.6411 57.7816 0 0 204
-19.4178 -64.5496 59.0495 0 0 173
-20.682 -63.266 58.2402 0 0 142
-20.0213 -63.8921 58.585 0 0 142
-20.6493 -63.3996 56.8508 0 0 143
-20.682 -63.266 58.2402 0 0 143
-14.6353 -62.9702 61.3362 0 0 138
-13.7011 -63.1947 61.0199 0 0 138
-15.8191 -62.5163 61.6717 0 0 161
-16.4036 -61.4703 61.6477 0 0 135
-16.815 -62.2203 61.9423 0 0 161
-15.0467 -63.7202 61.6308 0 0 205
-14.6353 -62.9702 61.3362 0 0 173
-15.8191 -62.5163 61.6717 0 0 173
-21.1798 -63.9391 54.7322 0 0 136
-20.8676 -63.6432 55.7641 0 0 136
-20.9608 -64.666 54.3961 0 0 166
-21.1798 -63.9391 54.7322 0 0 147
-21.6388 -64.1343 53.9846 0 0 147
-21.4464 -64.7263 52.5992 0 0 184
-22.1413 -64.3371 53.3553 0 0 160
-22.1678 -64.2021 52.306 0 0 160
-17.9808 -64.6007 45.9824 0 0 200
-18.3295 -64.8415 47.5001 0 0 244
-18.8986 -63.9671 47.5367 0 0 200
-17.5698 -65.5445 44.6689 0 0 147
-17.9808 -64.6007 45.9824 0 0 147
-17.2933 -66.4931 43.6449 0 0 179
-17.1352 -66.4237 44.9218 0 0 213
-17.5698 -65.5445 44.6689 0 0 179
-17.1761 -67.5764 42.4876 0 0 149
-17.2933 -66.4931 43.6449 0 0 149
3 0 18 16
3 0 16 19
3 1 23 21
3 3 26 24
3 3 28 26
3 1 31 29
3 1 21 31
3 2 62 64
3 64 63 33
3 62 63 64
3 65 36 66
3 67 66 34
3 65 66 67
3 4 40 38
3 6 41 17
3 6 42 41
3 7 68 70
3 68 43 69
3 68 69 70
3 4 44 20
3 4 38 44
3 9 45 22
3 9 46 45
3 5 47 39
3 10 48 25
3 10 49 48
3 10 50 49
3 11 71 73
3 73 72 27
3 71 72 73
3 11 74 75
3 8 76 77
3 79 78 30
3 82 81 32
3 80 81 82
3 12 53 51
3 12 83 85
3 83 54 84
3 83 84 85
3 12 51 54
3 13 55 52
3 14 56 35
3 14 57 56
3 86 58 87
3 15 59 37
3 15 60 59
3 15 61 60
3 16 17 4
3 18 17 16
3 18 6 17
3 19 20 7
3 16 20 19
3 16 4 20
3 21 88 90
3 88 22 89
3 88 89 90
3 23 22 21
3 23 9 22
3 24 25 5
3 26 25 24
3 26 10 25
3 26 27 10
3 28 27 26
3 28 11 27
3 29 30 8
3 31 30 29
3 31 91 93
3 93 92 30
3 91 92 93
3 31 94 96
3 94 32 95
3 94 95 96
3 21 32 31
3 21 97 99
3 99 98 32
3 97 98 99
3 33 100 101
3 103 102 33
3 106 105 12
3 104 105 106
3 107 12 108
3 34 35 13
3 36 35 34
3 36 14 35
3 109 37 110
3 111 37 112
3 113 15 114
3 115 114 37
3 113 114 115
3 117 116 15
3 38 39 1
3 40 39 38
3 40 5 39
3 17 40 4
3 41 40 17
3 41 5 40
3 41 24 5
3 42 24 41
3 42 3 24
3 43 118 119
3 43 120 122
3 120 8 121
3 120 121 122
3 20 43 7
3 44 43 20
3 44 8 43
3 44 29 8
3 38 29 44
3 38 1 29
3 124 123 2
3 22 125 126
3 45 127 129
3 129 128 22
3 127 128 129
3 45 130 131
3 45 132 134
3 132 33 133
3 132 133 134
3 46 33 45
3 46 2 33
3 39 23 1
3 47 23 39
3 47 9 23
3 25 47 5
3 48 47 25
3 48 9 47
3 48 46 9
3 49 46 48
3 49 2 46
3 49 135 137
3 137 136 2
3 135 136 137
3 50 138 140
3 140 139 49
3 138 139 140
3 50 141 142
3 27 50 10
3 143 50 144
3 145 144 27
3 143 144 145
3 147 146 50
3 30 148 150
3 150 149 8
3 148 149 150
3 153 152 30
3 151 152 153
3 32 154 155
3 157 156 32
3 159 158 2
3 51 52 0
3 53 52 51
3 53 13 52
3 160 53 161
3 162 161 12
3 160 161 162
3 163 53 164
3 165 13 166
3 167 166 53
3 165 166 167
3 168 34 169
3 170 169 13
3 168 169 170
3 171 34 172
3 174 173 34
3 175 7 176
3 54 177 179
3 177 178 179
3 54 180 182
3 180 7 181
3 180 181 182
3 54 19 7
3 51 19 54
3 51 0 19
3 52 18 0
3 55 18 52
3 55 6 18
3 35 55 13
3 56 55 35
3 56 6 55
3 56 42 6
3 57 42 56
3 57 3 42
3 183 36 184
3 58 185 187
3 185 36 186
3 185 186 187
3 58 14 36
3 37 188 190
3 188 58 189
3 188 189 190
3 59 58 37
3 59 14 58
3 59 57 14
3 60 57 59
3 60 3 57
3 60 28 3
3 61 28 60
3 61 11 28
3 191 61 192
3 193 192 15
3 191 192 193
3 194 61 195
3 196 11 197
3 198 197 61
3 196 197 198
3 200 199 11
