ply
format ascii 1.0
element vertex 205
property float x
property float y
property float z
property uchar red
property uchar green
property uchar blue
element face 192
property list uchar int vertex_index
end_header
-44.1553 -54.0186 21.9689 144 255 111
-41.663 -65.3685 17.7661 255 62 0
-39.6874 -57.6909 14.5252 225 0 0
-37.5392 -58.4997 20.1515 255 180 0
-38.947 -54.2072 18.4901 164 0 0
-48.303 -52.2856 20.979 229 255 26
-42.8496 -51.4419 18.0489 171 0 0
-38.8463 -62.2656 21.6282 56 255 199
-39.8697 -61.5858 16.1016 255 36 0
-43.8586 -60.9686 12.1236 206 255 49
-40.733 -53.5968 13.0976 255 124 0
-44.9394 -57.8217 11.6731 162 255 93
-42.2431 -54.7953 22.9522 71 255 184
-39.4182 -54.9403 21.3887 255 111 0
-41.1977 -53.6023 20.6378 188 0 0
-43.1898 -66.817 18.4918 68 255 187
-42.1326 -66.5312 16.2013 0 143 255
-42.0502 -65.0594 15.0612 89 255 166
-51.0056 -52.5443 19.7566 5 255 250
-48.1147 -51.1831 18.6459 255 174 0
-38.236 -58.1062 17.2756 190 0 0
-38.5165 -60.1001 17.9801 244 0 0
-39.7493 -59.6453 15.3476 255 22 0
-41.4766 -60.9812 13.6406 255 81 0
-41.8247 -59.2446 13.2041 255 85 0
-42.9061 -50.5939 15.6076 229 255 26
-41.0612 -52.0932 15.6599 170 0 0
-41.9255 -51.5106 12.9561 118 255 137
-47.645 -59.8263 11.8347 43 255 212
-43.4365 -67.2768 20.9899 0 172 255
-41.6182 -65.8752 20.3793 172 255 83
-38.0377 -56.8865 22.2549 129 255 126
-37.7904 -56.2004 19.2352 128 0 0
-38.3828 -55.8765 16.2825 171 0 0
-46.1445 -52.9401 21.7416 133 255 122
-43.2339 -52.5807 20.2916 240 0 0
-45.4067 -51.5476 19.9169 130 0 0
-45.2449 -50.5052 17.4201 255 220 0
-40.1099 -63.8753 19.7242 255 207 0
-37.8977 -60.5397 20.9265 185 255 70
-39.1612 -62.0719 18.7651 255 18 0
-40.3867 -63.4479 17.0506 255 0 0
-41.6 -62.9699 14.507 255 255 0
-43.3443 -62.7265 12.6054 0 231 255
-40.7221 -52.6705 18.2245 196 0 0
-39.3972 -53.8222 15.8006 177 0 0
-39.9485 -55.7057 13.6645 169 0 0
-42.2862 -55.7907 11.5498 255 255 0
-42.1334 -57.5811 12.7087 255 21 0
-44.7037 -59.3242 12.1913 255 92 0
-46.8662 -61.5567 11.7491 33 255 222
-51.0178 -51.92 18.5711 0 0 160
-52.315 -52.7243 19.0633 0 0 160
-42.7839 -50.5977 12.94 0 0 199
-42.4158 -51.0523 14.2819 0 0 243
-43.2742 -50.1394 14.2658 0 0 199
-42.7326 -66.6263 21.921 0 0 149
-43.654 -67.4179 22.2616 0 0 149
-41.8235 -65.9256 21.6157 0 0 183
-42.5274 -66.576 20.6846 0 0 218
-42.7326 -66.6263 21.921 0 0 183
-39.299 -56.4257 23.1411 0 0 158
-38.469 -57.2602 23.6238 0 0 158
-46.6818 -50.3375 16.8814 0 0 206
-46.6798 -50.8442 18.033 0 0 254
-48.1167 -50.6765 17.4943 0 0 206
-45.3271 -49.9644 16.2112 0 0 160
-46.6818 -50.3375 16.8814 0 0 160
-39.5699 -63.16 21.9647 0 0 152
-38.7586 -62.6157 23.0065 0 0 152
-39.4781 -63.0704 20.6762 0 0 224
-40.2016 -63.9648 21.0127 0 0 186
-39.5699 -63.16 21.9647 0 0 186
-37.7184 -59.5197 20.539 0 0 227
-37.6895 -59.7544 22.0399 0 0 188
-37.5102 -58.7344 21.6524 0 0 188
-44.629 -61.9954 11.8599 0 0 167
-44.3718 -62.8744 12.1008 0 0 167
-43.6014 -61.8476 12.3645 0 0 195
-43.6128 -56.8062 11.6114 0 4 255
-43.6033 -55.916 10.7127 0 0 210
-44.9299 -56.9315 10.7744 0 0 210
-48.2732 -61.9594 11.533 0 0 184
-47.2556 -60.6915 11.7919 0 0 221
-48.6627 -61.0942 11.5758 0 0 184
-47.1988 -62.6614 11.3266 0 0 151
-48.2732 -61.9594 11.533 0 0 151
-40.8307 -54.8678 22.1704 0 0 244
-39.9892 -55.4525 22.708 0 0 199
-41.4017 -55.38 23.4897 0 0 199
-42.6674 -67.2703 17.9913 0 0 133
-43.5898 -67.6459 18.9216 0 0 133
-42.1388 -67.1274 16.846 0 0 150
-42.6674 -67.2703 17.9913 0 0 150
-42.6612 -66.6741 17.3465 0 0 170
-41.5976 -66.8223 15.6414 0 0 129
-42.1388 -67.1274 16.846 0 0 129
-41.88 -66.1102 15.0339 0 0 132
-41.5976 -66.8223 15.6414 0 0 132
-41.8388 -65.3743 14.4638 0 0 145
-41.88 -66.1102 15.0339 0 0 145
-42.0914 -65.7953 15.6312 0 0 162
-42.1228 -64.7071 13.9144 0 0 128
-41.8388 -65.3743 14.4638 0 0 128
-49.5723 -51.2394 18.0157 0 0 216
-49.5602 -51.8637 19.2013 0 14 255
-51.0178 -51.92 18.5711 0 0 216
-48.1167 -50.6765 17.4943 0 0 160
-49.5723 -51.2394 18.0157 0 0 160
-38.2827 -61.694 22.7147 0 0 147
-38.7586 -62.6157 23.0065 0 0 147
-46.3576 -57.8974 11.1198 0 0 160
-44.9299 -56.9315 10.7744 0 0 160
-47.7104 -58.8997 11.2005 0 0 199
-46.2922 -58.824 11.7539 0 0 243
-46.3576 -57.8974 11.1198 0 0 199
-49.0437 -59.8826 11.4828 0 0 153
-47.7104 -58.8997 11.2005 0 0 153
-48.6627 -61.0942 11.5758 0 0 157
-49.0437 -59.8826 11.4828 0 0 157
-44.3407 -68.0779 21.2914 0 0 149
-43.654 -67.4179 22.2616 0 0 149
-43.7132 -67.8757 20.1707 0 0 143
-44.3407 -68.0779 21.2914 0 0 143
-43.3132 -67.0469 19.7408 0 0 193
-43.5898 -67.6459 18.9216 0 0 165
-43.7132 -67.8757 20.1707 0 0 165
-37.7595 -57.9278 22.7041 0 0 150
-38.469 -57.2602 23.6238 0 0 150
-37.7885 -57.6931 21.2032 0 0 230
-37.5102 -58.7344 21.6524 0 0 190
-37.7595 -57.9278 22.7041 0 0 190
-38.728 -55.9134 21.8218 0 0 254
-39.299 -56.4257 23.1411 0 0 206
-39.9892 -55.4525 22.708 0 0 206
-44.1577 -50.0087 15.305 0 0 200
-44.0755 -50.5496 16.5139 0 0 245
-45.3271 -49.9644 16.2112 0 0 200
-44.5258 -49.5542 13.9631 0 0 156
-43.2742 -50.1394 14.2658 0 0 202
-44.1577 -50.0087 15.305 0 0 202
-42.6095 -55.3817 23.8282 0 0 142
-41.4017 -55.38 23.4897 0 0 142
-43.4494 -55.0732 23.1972 0 0 141
-42.6095 -55.3817 23.8282 0 0 141
-44.4055 -54.6849 22.7056 0 0 169
-43.1992 -54.407 22.4605 0 0 198
-43.4494 -55.0732 23.1972 0 0 169
-45.3984 -54.2134 22.4933 0 0 140
-44.4055 -54.6849 22.7056 0 0 140
-46.393 -53.6741 22.3797 0 0 170
-45.1499 -53.4794 21.8553 0 0 199
-45.3984 -54.2134 22.4933 0 0 170
-47.3287 -53.2111 22.0391 0 0 138
-46.393 -53.6741 22.3797 0 0 138
-48.4079 -52.8839 21.6578 0 0 165
-47.2238 -52.6128 21.3603 0 0 192
-47.3287 -53.2111 22.0391 0 0 165
-49.6106 -52.939 21.1052 0 0 142
-48.4079 -52.8839 21.6578 0 0 142
-50.9619 -53.0683 20.494 0 0 178
-49.6543 -52.4149 20.3678 0 0 211
-49.6106 -52.939 21.1052 0 0 178
-52.294 -53.3561 19.8853 0 0 145
-50.9619 -53.0683 20.494 0 0 145
-53.6034 -53.5361 19.192 0 0 149
-52.315 -52.7243 19.0633 0 0 188
-52.294 -53.3561 19.8853 0 0 188
-40.9558 -64.9648 21.3403 0 0 152
-41.8235 -65.9256 21.6157 0 0 152
-40.8641 -64.8752 20.0517 0 0 235
-40.9558 -64.9648 21.3403 0 0 194
-40.2016 -63.9648 21.0127 0 0 194
-37.8084 -60.831 22.3638 0 0 149
-37.6895 -59.7544 22.0399 0 0 149
-38.372 -61.4027 21.2773 0 0 218
-38.2827 -61.694 22.7147 0 0 182
-37.8084 -60.831 22.3638 0 0 182
-41.8976 -63.6624 13.6373 0 0 171
-42.1228 -64.7071 13.9144 0 0 171
-41.8251 -64.0146 14.7841 0 0 201
-42.7698 -63.5407 12.6865 0 0 169
-41.8976 -63.6624 13.6373 0 0 169
-42.4721 -62.8482 13.5562 0 0 198
-43.2939 -63.2451 11.8382 0 0 133
-42.7698 -63.5407 12.6865 0 0 133
-43.2939 -63.2451 11.8382 0 0 137
-44.3718 -62.8744 12.1008 0 0 137
-42.6302 -51.4518 11.7007 0 0 155
-42.7839 -50.5977 12.94 0 0 155
-42.2265 -52.5352 11.6843 0 0 154
-42.6302 -51.4518 11.7007 0 0 154
-41.6302 -53.5782 11.7551 0 0 207
-41.3293 -52.5537 13.0269 0 0 255
-42.2265 -52.5352 11.6843 0 0 207
-42.4068 -54.6752 10.9811 0 0 161
-43.6033 -55.916 10.7127 0 0 161
-41.5096 -54.6938 12.3237 0 0 255
-41.6302 -53.5782 11.7551 0 0 207
-42.4068 -54.6752 10.9811 0 0 207
-46.1328 -62.2895 11.6727 0 0 182
-44.629 -61.9954 11.8599 0 0 182
-45.3624 -61.2627 11.9363 0 0 217
-46.1328 -62.2895 11.6727 0 0 140
-47.1988 -62.6614 11.3266 0 0 140
3 0 14 12
3 1 16 15
3 1 17 16
3 52 51 18
3 2 22 20
3 2 24 22
3 53 27 54
3 55 54 25
3 53 54 55
3 56 29 57
3 58 30 59
3 60 59 29
3 58 59 60
3 61 31 62
3 4 32 13
3 4 33 32
3 5 36 34
3 63 37 64
3 65 64 19
3 63 64 65
3 67 66 37
3 7 68 69
3 7 70 72
3 70 38 71
3 70 71 72
3 3 73 75
3 73 39 74
3 73 74 75
3 8 40 21
3 8 41 40
3 8 42 41
3 9 43 23
3 9 76 78
3 78 77 43
3 76 77 78
3 6 44 35
3 10 45 26
3 10 46 45
3 11 79 81
3 79 47 80
3 79 80 81
3 11 48 47
3 11 49 48
3 82 50 83
3 84 83 28
3 82 83 84
3 86 85 50
3 12 87 89
3 87 13 88
3 87 88 89
3 14 13 12
3 14 4 13
3 15 90 91
3 16 92 94
3 94 93 15
3 92 93 94
3 16 95 96
3 16 97 98
3 17 99 101
3 101 100 16
3 99 100 101
3 17 102 103
3 18 19 5
3 104 19 105
3 106 105 18
3 104 105 106
3 108 107 19
3 109 7 110
3 20 21 3
3 22 21 20
3 22 8 21
3 22 23 8
3 24 23 22
3 24 9 23
3 25 26 6
3 27 26 25
3 27 10 26
3 111 11 112
3 113 28 114
3 115 114 11
3 113 114 115
3 116 28 117
3 119 118 28
3 29 120 121
3 29 122 123
3 29 124 126
3 124 15 125
3 124 125 126
3 30 15 29
3 30 1 15
3 31 127 128
3 31 129 131
3 129 3 130
3 129 130 131
3 13 132 134
3 132 31 133
3 132 133 134
3 32 31 13
3 32 3 31
3 32 20 3
3 33 20 32
3 33 2 20
3 34 35 0
3 36 35 34
3 36 6 35
3 19 36 5
3 37 36 19
3 37 6 36
3 37 25 6
3 135 25 136
3 137 136 37
3 135 136 137
3 140 139 25
3 138 139 140
3 141 12 142
3 143 12 144
3 145 0 146
3 147 146 12
3 145 146 147
3 148 0 149
3 150 34 151
3 152 151 0
3 150 151 152
3 153 34 154
3 155 5 156
3 157 156 34
3 155 156 157
3 158 5 159
3 160 18 161
3 162 161 5
3 160 161 162
3 163 18 164
3 167 166 18
3 165 166 167
3 168 30 169
3 38 170 172
3 170 30 171
3 170 171 172
3 38 1 30
3 39 173 174
3 39 175 177
3 175 7 176
3 175 176 177
3 21 39 3
3 40 39 21
3 40 7 39
3 40 38 7
3 41 38 40
3 41 1 38
3 41 17 1
3 42 17 41
3 42 178 180
3 180 179 17
3 178 179 180
3 23 42 8
3 43 42 23
3 43 181 183
3 183 182 42
3 181 182 183
3 43 184 185
3 187 186 43
3 35 14 0
3 44 14 35
3 44 4 14
3 26 44 6
3 45 44 26
3 45 4 44
3 45 33 4
3 46 33 45
3 46 2 33
3 188 27 189
3 190 27 191
3 192 10 193
3 194 193 27
3 192 193 194
3 47 195 196
3 47 197 199
3 197 10 198
3 197 198 199
3 47 46 10
3 48 46 47
3 48 2 46
3 48 24 2
3 49 24 48
3 49 9 24
3 28 49 11
3 50 49 28
3 50 9 49
3 50 200 202
3 202 201 9
3 200 201 202
3 204 203 50
