ply
format ascii 1.0
element vertex 181
property float x
property float y
property float z
property uchar red
property uchar green
property uchar blue
element face 166
property list uchar int vertex_index
end_header
-5.76853 16.687 23.4347 59 255 196
-5.06897 3.93304 29.1953 128 0 0
-4.07333 -0.46828 34.0376 255 240 0
-4.39635 6.27692 32.6095 98 255 157
-5.73088 -2.86871 30.8013 255 99 0
-3.12505 -8.53109 29.6469 0 174 255
-6.2358 14.9717 26.7937 125 255 130
-5.02059 10.5947 26.5475 161 255 94
-6.44961 8.72714 29.3623 255 205 0
-6.26261 2.1655 31.5534 255 243 0
-5.9897 -4.73616 32.8648 255 198 0
-3.5109 14.8644 23.4811 42 255 213
-6.06558 -6.23101 31.2402 16 255 239
-4.48765 -5.61026 30.3695 119 255 136
-4.94617 13.9482 28.7512 108 255 147
-6.49131 11.8431 28.0654 255 124 0
-5.27788 10.8268 29.7185 255 243 0
-4.27785 2.9895 33.4341 81 255 174
-4.99727 4.31443 31.9318 255 143 0
-4.95587 1.00715 32.5735 255 126 0
-6.28421 -1.19493 32.3043 255 225 0
-4.74273 -2.44558 33.1081 255 87 0
-4.90735 7.38516 27.9897 255 180 0
-2.61197 4.80163 28.1848 255 230 0
-4.45901 9.5418 31.7544 45 255 210
-5.39615 0.552377 30.0928 222 0 0
-3.11074 1.31373 29.2036 255 103 0
-3.76793 -2.17764 29.96 255 177 0
-6.66188 15.8381 24.9381 57 255 198
-5.44712 13.694 25.0378 255 227 0
-6.55039 12.7386 26.358 255 189 0
-6.23389 9.63174 27.7673 255 213 0
-6.0928 6.3993 29.128 255 249 0
-5.19602 7.62997 30.7718 255 92 0
-6.20158 5.48039 30.5515 255 241 0
-6.27416 3.15997 30.2619 227 255 28
-6.4655 -0.250922 31.0922 198 255 57
-6.5144 -3.653 31.7924 155 255 100
-6.48218 -7.08839 32.1638 0 196 255
-4.36144 -2.08031 36.376 13 255 242
-3.94999 -4.026 34.5784 183 255 72
-4.32469 -6.00437 33.384 124 255 131
-5.60593 -8.24497 32.9661 0 225 255
-4.63971 15.7757 23.4579 0 0 226
-3.93 16.2562 22.7757 0 0 186
-5.05881 17.1675 22.7525 0 0 186
-5.61427 -7.63627 30.8414 0 0 139
-6.24796 -7.93172 31.2757 0 0 139
-4.90877 11.8428 30.431 0 0 193
-5.11203 12.3875 29.2348 0 0 236
-4.74291 13.4035 29.9473 0 0 193
-2.4984 -6.78184 29.5355 0 0 222
-3.1797 -5.32143 29.8968 0 0 222
-3.80635 -7.07068 30.0082 0 26 255
-2.00202 -8.35007 29.101 0 0 160
-2.4984 -6.78184 29.5355 0 0 160
-4.33519 -2.89614 37.4996 0 0 148
-4.3892 -1.1476 37.0915 0 0 148
-3.81117 -5.69557 34.7221 0 0 153
-4.0692 -4.79401 35.7122 0 0 153
-3.99852 -6.68476 34.1249 0 0 169
-4.13734 -5.01519 33.9812 0 0 201
-3.81117 -5.69557 34.7221 0 0 169
-5.33768 -10.0199 32.8781 0 0 181
-4.73736 -8.877 33.1923 0 0 181
-4.46912 -10.6519 33.1044 0 0 144
-6.05148 -9.42939 32.6203 0 0 138
-5.33768 -10.0199 32.8781 0 0 138
-3.92318 11.1249 25.8683 0 0 217
-4.13645 12.6746 25.1135 0 0 217
-5.23385 12.1444 25.7926 0 18 255
-1.94699 1.64409 28.5828 0 0 163
-2.14162 -0.100158 29.0685 0 0 163
-2.57562 15.2521 22.7835 0 0 155
-3.93 16.2562 22.7757 0 0 155
-2.32857 13.6998 23.4581 0 0 156
-2.57562 15.2521 22.7835 0 0 156
-4.8253 -7.32589 30.4061 0 0 181
-5.27662 -5.92064 30.8048 0 0 219
-5.61427 -7.63627 30.8414 0 0 181
-4.144 -8.78631 30.0448 0 0 199
-3.80635 -7.07068 30.0082 0 0 245
-4.8253 -7.32589 30.4061 0 0 199
-3.77065 7.85538 27.4069 0 0 216
-3.82727 9.46014 26.6857 0 0 216
-4.96397 8.98993 27.2686 0 15 255
-2.62296 6.56361 27.5044 0 0 223
-3.77065 7.85538 27.4069 0 0 223
-3.75966 6.0934 28.0873 0 26 255
-1.67744 5.18394 27.4123 0 0 160
-2.62296 6.56361 27.5044 0 0 160
-4.76997 10.4128 32.4921 0 0 147
-4.49933 11.2003 31.4489 0 0 147
-4.58695 8.83029 32.8218 0 0 145
-4.76997 10.4128 32.4921 0 0 145
-4.55562 7.19785 33.2494 0 0 181
-4.42768 7.90936 32.182 0 0 219
-4.58695 8.83029 32.8218 0 0 181
-4.43328 5.54747 33.6899 0 0 144
-4.55562 7.19785 33.2494 0 0 144
-4.37403 3.90376 34.1022 0 0 183
-4.3371 4.63321 33.0218 0 0 221
-4.43328 5.54747 33.6899 0 0 183
-4.33525 2.23582 34.5107 0 0 145
-4.37403 3.90376 34.1022 0 0 145
-4.23299 0.506928 34.8124 0 0 191
-4.17559 1.26061 33.7359 0 0 234
-4.33525 2.23582 34.5107 0 0 191
-2.47022 -1.84584 29.4467 0 0 225
-2.14162 -0.100158 29.0685 0 0 225
-3.43933 -0.431958 29.5818 0 30 255
-2.81985 -3.60512 29.692 0 0 223
-4.12779 -3.89395 30.1647 0 27 255
-3.1797 -5.32143 29.8968 0 0 223
-2.47022 -1.84584 29.4467 0 0 166
-2.81985 -3.60512 29.692 0 0 166
-4.86844 10.1843 30.7364 0 0 232
-4.90877 11.8428 30.431 0 0 190
-4.49933 11.2003 31.4489 0 0 190
-6.45626 -8.36041 31.7375 0 0 149
-6.24796 -7.93172 31.2757 0 0 149
-6.27388 -6.6597 31.702 0 0 170
-4.37705 -0.299087 35.9816 0 0 149
-4.3892 -1.1476 37.0915 0 0 149
-4.21739 -1.27429 35.2068 0 0 244
-4.23299 0.506928 34.8124 0 0 198
-4.37705 -0.299087 35.9816 0 0 198
-4.27493 -3.82116 36.6111 0 0 152
-4.33519 -2.89614 37.4996 0 0 152
-4.15571 -3.05316 35.4772 0 0 247
-4.27493 -3.82116 36.6111 0 0 200
-4.0692 -4.79401 35.7122 0 0 200
-4.09674 -7.7567 33.4013 0 0 141
-3.99852 -6.68476 34.1249 0 0 141
-4.96531 -7.12467 33.175 0 0 217
-4.09674 -7.7567 33.4013 0 0 180
-4.73736 -8.877 33.1923 0 0 180
-6.48961 -8.8511 32.2191 0 0 159
-6.04406 -7.66668 32.5649 0 0 186
-6.05148 -9.42939 32.6203 0 0 159
-6.45626 -8.36041 31.7375 0 0 128
-6.48961 -8.8511 32.2191 0 0 128
-5.98752 18.1604 22.5602 0 0 145
-5.05881 17.1675 22.7525 0 0 145
-6.31255 17.6657 23.6551 0 0 143
-5.98752 18.1604 22.5602 0 0 143
-6.75923 17.2413 24.4068 0 0 163
-6.2152 16.2626 24.1864 0 0 192
-6.31255 17.6657 23.6551 0 0 163
-6.21976 16.8351 25.3903 0 0 142
-6.75923 17.2413 24.4068 0 0 142
-6.00672 16.4019 26.3181 0 0 170
-6.44884 15.4049 25.8659 0 0 201
-6.21976 16.8351 25.3903 0 0 170
-5.52127 16.0371 27.4953 0 0 152
-6.00672 16.4019 26.3181 0 0 152
-4.87645 15.5253 28.474 0 0 197
-5.59099 14.46 27.7725 0 0 243
-5.52127 16.0371 27.4953 0 0 197
-5.08412 14.8861 29.726 0 0 153
-4.87645 15.5253 28.474 0 0 153
-4.74291 13.4035 29.9473 0 0 150
-5.08412 14.8861 29.726 0 0 150
-3.16834 13.2598 24.3351 0 0 219
-4.47901 14.2792 24.2595 0 21 255
-4.13645 12.6746 25.1135 0 0 219
-2.32857 13.6998 23.4581 0 0 160
-3.16834 13.2598 24.3351 0 0 160
-3.92318 11.1249 25.8683 0 0 163
-3.82727 9.46014 26.6857 0 0 163
-1.69761 3.38804 28.0734 0 0 219
-2.86135 3.05768 28.6942 0 21 255
-1.94699 1.64409 28.5828 0 0 219
-1.67744 5.18394 27.4123 0 0 161
-1.69761 3.38804 28.0734 0 0 161
-3.67287 -10.3702 29.6097 0 0 155
-4.144 -8.78631 30.0448 0 0 155
-2.51115 -10.2252 29.1557 0 0 164
-3.67287 -10.3702 29.6097 0 0 164
-2.00202 -8.35007 29.101 0 0 165
-2.51115 -10.2252 29.1557 0 0 165
3 0 43 45
3 43 11 44
3 43 44 45
3 47 46 12
3 48 16 49
3 50 49 14
3 48 49 50
3 2 19 17
3 2 21 19
3 1 23 22
3 4 27 25
3 5 51 53
3 53 52 13
3 51 52 53
3 5 54 55
3 6 30 28
3 8 31 15
3 8 32 31
3 3 33 24
3 9 34 18
3 9 35 34
3 9 36 35
3 10 37 20
3 10 38 37
3 56 39 57
3 58 40 59
3 60 41 61
3 62 61 40
3 60 61 62
3 63 42 64
3 63 64 65
3 67 66 42
3 7 68 70
3 70 69 29
3 68 69 70
3 72 71 26
3 11 73 74
3 11 75 76
3 12 13 4
3 77 13 78
3 79 78 12
3 77 78 79
3 80 5 81
3 82 81 13
3 80 81 82
3 14 15 6
3 16 15 14
3 16 8 15
3 17 18 3
3 19 18 17
3 19 9 18
3 19 20 9
3 21 20 19
3 21 10 20
3 22 83 85
3 85 84 7
3 83 84 85
3 23 86 88
3 88 87 22
3 86 87 88
3 23 89 90
3 91 24 92
3 93 24 94
3 95 3 96
3 97 96 24
3 95 96 97
3 98 3 99
3 100 17 101
3 102 101 3
3 100 101 102
3 103 17 104
3 105 2 106
3 107 106 17
3 105 106 107
3 25 26 1
3 27 26 25
3 27 108 110
3 110 109 26
3 108 109 110
3 13 27 4
3 111 27 112
3 113 112 13
3 111 112 113
3 115 114 27
3 28 29 0
3 30 29 28
3 30 7 29
3 15 30 6
3 31 30 15
3 31 7 30
3 31 22 7
3 32 22 31
3 32 1 22
3 24 116 118
3 116 16 117
3 116 117 118
3 33 16 24
3 33 8 16
3 18 33 3
3 34 33 18
3 34 8 33
3 34 32 8
3 35 32 34
3 35 1 32
3 35 25 1
3 36 25 35
3 36 4 25
3 20 36 9
3 37 36 20
3 37 4 36
3 37 12 4
3 38 12 37
3 38 119 121
3 121 120 12
3 119 120 121
3 39 122 123
3 39 124 126
3 124 2 125
3 124 125 126
3 127 39 128
3 40 129 131
3 129 39 130
3 129 130 131
3 40 2 39
3 40 21 2
3 41 21 40
3 41 10 21
3 132 41 133
3 42 134 136
3 134 41 135
3 134 135 136
3 42 10 41
3 42 38 10
3 137 38 138
3 139 138 42
3 137 138 139
3 141 140 38
3 142 0 143
3 144 0 145
3 146 28 147
3 148 147 0
3 146 147 148
3 149 28 150
3 151 6 152
3 153 152 28
3 151 152 153
3 154 6 155
3 156 14 157
3 158 157 6
3 156 157 158
3 159 14 160
3 162 161 14
3 29 11 0
3 163 11 164
3 165 164 29
3 163 164 165
3 167 166 11
3 169 168 7
3 26 23 1
3 170 23 171
3 172 171 26
3 170 171 172
3 174 173 23
3 175 5 176
3 177 5 178
3 180 179 5
