ply
format ascii 1.0
element vertex 185
property float x
property float y
property float z
property uchar red
property uchar green
property uchar blue
element face 173
property list uchar int vertex_index
end_header
-52.9709 -6.02534 38.7083 255 18 0
-39.6908 -13.5216 33.8138 149 255 106
-48.1622 -10.4151 44.1618 250 0 0
-55.308 -3.94636 36.1643 157 255 98
-46.0001 -9.99959 36.6631 198 0 0
-49.8228 -8.22282 48.5295 0 144 255
-50.3663 -7.92627 41.8286 205 0 0
-53.87 -3.65625 42.9017 0 175 255
-52.3258 -5.60389 46.3719 255 237 0
-37.2895 -16.0208 35.7789 0 213 255
-43.4842 -12.1485 38.683 255 100 0
-54.2141 -5.04723 37.3845 255 170 0
-55.6669 -2.68624 37.7879 0 116 255
-55.1851 -3.72783 39.184 8 255 247
-49.3271 -8.07567 37.7624 128 0 0
-47.4321 -8.68764 35.1717 255 238 0
-50.9139 -6.86682 36.1798 255 149 0
-52.1073 -5.72881 34.8867 168 255 87
-49.4601 -9.06262 43.3695 230 0 0
-51.9245 -7.01761 44.4999 255 116 0
-50.9168 -8.39662 45.9625 255 174 0
-50.1711 -4.8874 47.9238 0 157 255
-44.1701 -12.5709 41.8746 193 255 62
-42.0275 -13.2957 39.336 200 255 55
-45.7057 -11.2514 41.3188 244 0 0
-47.0191 -10.1273 40.4211 226 0 0
-56.2188 -2.71166 34.9946 0 127 255
-42.5597 -11.4709 35.4333 238 0 0
-40.9543 -11.8814 32.5781 105 255 150
-44.027 -10.0263 34.1241 255 250 0
-53.3083 -4.53851 33.6562 53 255 202
-46.5432 -11.6111 44.8629 80 255 175
-49.7265 -9.6019 46.9021 139 255 116
-51.6358 -7.05305 40.1645 231 0 0
-54.1726 -5.07232 40.9985 172 255 83
-53.0196 -5.96971 42.6741 255 130 0
-53.1207 -4.52316 44.7 107 255 148
-51.8406 -2.4867 45.8788 0 187 255
-51.2698 -6.92732 47.6818 217 255 38
-51.1678 -3.40095 47.1796 0 251 255
-38.5377 -14.9129 34.7684 70 255 185
-38.5995 -14.6741 38.0137 0 225 255
-40.0735 -13.899 37.0717 255 175 0
-41.404 -12.6755 36.3938 255 128 0
-44.7877 -11.1 37.7727 255 63 0
-48.1715 -9.13438 39.2457 211 0 0
-39.8199 -14.2592 32.6976 0 0 145
-39.1576 -15.1366 33.3702 0 0 145
-55.6727 -2.75173 36.3765 0 0 149
-56.1282 -2.13438 35.7916 0 0 149
-55.7634 -3.32901 35.5795 0 0 169
-54.692 -2.07869 37.3185 0 0 128
-54.8103 -2.41265 38.2132 0 0 128
-46.4232 -8.69133 33.7566 0 0 156
-48.1107 -7.98064 34.2809 0 0 156
-47.3016 -11.0683 46.2947 0 0 145
-45.6994 -11.8763 45.3581 0 0 145
-45.6994 -11.8763 45.3581 0 0 150
-44.5121 -12.4494 43.8817 0 0 150
-41.0792 -12.654 31.3801 0 0 146
-41.689 -11.2055 31.7764 0 0 146
-50.2063 -2.14901 47.142 0 0 171
-50.6694 -4.14418 47.5517 0 0 203
-49.708 -2.89224 47.5141 0 0 171
-50.4983 -1.68936 46.5804 0 0 134
-50.2063 -2.14901 47.142 0 0 134
-37.3515 -17.025 34.9154 0 0 136
-36.7093 -17.454 35.5605 0 0 136
-37.9136 -15.4668 35.2737 0 0 192
-37.9756 -16.471 34.4102 0 0 164
-37.3515 -17.025 34.9154 0 0 164
-39.5003 -14.3454 39.1639 0 0 139
-37.8635 -14.8288 38.6327 0 0 139
-54.0603 -3.27093 41.8199 0 0 158
-54.2116 -3.97897 40.8683 0 0 158
-54.0213 -4.36428 41.9501 0 0 183
-54.5694 -2.93344 38.9113 0 0 143
-54.8103 -2.41265 38.2132 0 0 143
-55.426 -3.20704 38.486 0 0 161
-49.8516 -7.07023 34.7849 0 0 208
-48.1107 -7.98064 34.2809 0 0 208
-49.173 -7.77723 35.6758 0 4 255
-51.5106 -6.29781 35.5333 0 0 228
-50.4483 -6.50122 34.1384 0 0 188
-49.8516 -7.07023 34.7849 0 0 188
-49.5964 -5.74527 48.0705 0 0 143
-49.997 -6.55511 48.2267 0 0 161
-49.4222 -7.41298 48.3733 0 0 143
-49.3154 -3.72099 47.5891 0 0 139
-49.5964 -5.74527 48.0705 0 0 139
-48.8522 -1.72583 47.1794 0 0 134
-49.708 -2.89224 47.5141 0 0 160
-49.3154 -3.72099 47.5891 0 0 160
-36.6149 -16.327 36.3687 0 0 136
-36.7093 -17.454 35.5605 0 0 136
-43.0988 -12.9333 40.6053 0 0 218
-41.2143 -13.6562 39.825 0 0 181
-42.2856 -13.2938 41.0943 0 0 181
-52.9425 -2.8545 42.3331 0 0 138
-53.0436 -2.89043 43.508 0 0 138
-56.3654 -1.47142 35.1695 0 0 131
-56.5913 -2.08182 34.2718 0 0 131
-56.3654 -1.47142 35.1695 0 0 128
-56.1282 -2.13438 35.7916 0 0 128
-55.8522 -2.12167 37.1883 0 0 146
-55.6727 -2.75173 36.3765 0 0 146
-55.4874 -3.3163 36.9761 0 0 165
-55.8522 -2.12167 37.1883 0 0 128
-54.692 -2.07869 37.3185 0 0 128
-43.2253 -10.2779 32.5494 0 0 205
-41.689 -11.2055 31.7764 0 0 205
-42.4907 -10.9539 33.3511 0 0 253
-44.7206 -9.36065 33.2327 0 0 204
-45.7295 -9.35696 34.6479 0 0 252
-46.4232 -8.69133 33.7566 0 0 204
-43.2253 -10.2779 32.5494 0 0 156
-44.7206 -9.36065 33.2327 0 0 156
-50.9926 -5.94374 33.4108 0 0 150
-50.4483 -6.50122 34.1384 0 0 150
-51.5931 -5.34859 32.7955 0 0 192
-50.9926 -5.94374 33.4108 0 0 192
-52.7078 -5.13366 34.2715 0 0 235
-52.0849 -4.80487 32.0901 0 0 151
-51.5931 -5.34859 32.7955 0 0 151
-53.8471 -3.93596 32.9853 0 0 153
-52.0849 -4.80487 32.0901 0 0 153
-55.3024 -3.02254 33.6545 0 0 183
-53.8471 -3.93596 32.9853 0 0 183
-54.7636 -3.62509 34.3254 0 0 220
-56.5913 -2.08182 34.2718 0 0 143
-55.3024 -3.02254 33.6545 0 0 143
-48.8933 -10.0637 47.3142 0 0 184
-48.1349 -10.6065 45.8825 0 0 222
-47.3016 -11.0683 46.2947 0 0 184
-48.9414 -9.37413 48.128 0 0 156
-49.7746 -8.91236 47.7158 0 0 180
-48.8933 -10.0637 47.3142 0 0 156
-48.9498 -8.69552 48.8944 0 0 131
-48.9414 -9.37413 48.128 0 0 131
-49.4222 -7.41298 48.3733 0 0 129
-48.9498 -8.69552 48.8944 0 0 129
-43.3255 -12.9292 42.3876 0 0 146
-42.2856 -13.2938 41.0943 0 0 146
-45.3566 -12.091 43.3688 0 0 240
-43.3255 -12.9292 42.3876 0 0 196
-44.5121 -12.4494 43.8817 0 0 196
-40.4516 -13.4391 32.0797 0 0 178
-39.8199 -14.2592 32.6976 0 0 178
-40.3226 -12.7015 33.196 0 0 213
-40.4516 -13.4391 32.0797 0 0 145
-41.0792 -12.654 31.3801 0 0 145
-52.6689 -3.32389 44.4071 0 0 162
-53.0436 -2.89043 43.508 0 0 162
-53.4954 -4.0897 43.8009 0 0 190
-52.0289 -2.30566 44.9965 0 0 157
-52.6689 -3.32389 44.4071 0 0 157
-52.4807 -3.50493 45.2894 0 0 182
-50.8107 -1.31709 45.1981 0 0 139
-52.0289 -2.30566 44.9965 0 0 139
-50.8347 -1.23223 45.93 0 0 167
-51.5042 -2.94383 46.5292 0 0 197
-50.4983 -1.68936 46.5804 0 0 167
-49.8048 -0.062626 45.2494 0 0 133
-50.8107 -1.31709 45.1981 0 0 159
-50.8347 -1.23223 45.93 0 0 159
-38.581 -15.8322 33.8475 0 0 137
-37.9756 -16.471 34.4102 0 0 137
-39.1142 -14.2172 34.2911 0 0 194
-39.1576 -15.1366 33.3702 0 0 165
-38.581 -15.8322 33.8475 0 0 165
-37.2699 -15.6537 37.4861 0 0 140
-37.8635 -14.8288 38.6327 0 0 140
-37.9445 -15.3475 36.8963 0 0 198
-36.6149 -16.327 36.3687 0 0 168
-37.2699 -15.6537 37.4861 0 0 168
-40.3135 -13.9849 38.6749 0 0 205
-39.5003 -14.3454 39.1639 0 0 173
-41.2143 -13.6562 39.825 0 0 173
-54.7178 -3.30672 39.961 0 0 153
-54.6789 -4.40008 40.0912 0 0 176
-54.2116 -3.97897 40.8683 0 0 153
-54.5694 -2.93344 38.9113 0 0 128
-54.7178 -3.30672 39.961 0 0 128
-54.0603 -3.27093 41.8199 0 0 138
-52.9425 -2.8545 42.3331 0 0 138
3 0 13 11
3 0 16 14
3 0 11 16
3 1 46 47
3 2 20 18
3 2 24 22
3 2 18 24
3 3 48 50
3 50 49 26
3 48 49 50
3 52 51 12
3 4 29 27
3 54 53 15
3 3 30 17
3 3 26 30
3 56 55 31
3 57 31 58
3 60 59 28
3 6 35 33
3 8 36 19
3 8 37 36
3 5 38 32
3 61 39 62
3 63 62 21
3 61 62 63
3 65 64 39
3 9 66 67
3 9 68 70
3 68 40 69
3 68 69 70
3 71 41 72
3 10 42 23
3 10 43 42
3 10 44 43
3 6 45 25
3 6 33 45
3 7 73 75
3 75 74 34
3 73 74 75
3 11 12 3
3 13 12 11
3 13 76 78
3 78 77 12
3 76 77 78
3 14 15 4
3 16 15 14
3 16 79 81
3 81 80 15
3 79 80 81
3 16 82 84
3 82 17 83
3 82 83 84
3 11 17 16
3 11 3 17
3 18 19 6
3 20 19 18
3 20 8 19
3 85 21 86
3 87 86 5
3 85 86 87
3 88 21 89
3 92 91 21
3 90 91 92
3 93 9 94
3 22 95 97
3 95 23 96
3 95 96 97
3 24 23 22
3 24 10 23
3 24 25 10
3 18 25 24
3 18 6 25
3 99 98 7
3 26 100 101
3 103 102 26
3 12 104 106
3 106 105 3
3 104 105 106
3 108 107 12
3 27 28 1
3 29 28 27
3 29 109 111
3 111 110 28
3 109 110 111
3 15 29 4
3 112 29 113
3 114 113 15
3 112 113 114
3 116 115 29
3 17 117 118
3 30 119 121
3 121 120 17
3 119 120 121
3 30 122 123
3 30 124 125
3 26 126 128
3 128 127 30
3 126 127 128
3 26 129 130
3 31 32 2
3 131 32 132
3 133 132 31
3 131 132 133
3 134 5 135
3 136 135 32
3 134 135 136
3 137 5 138
3 140 139 5
3 141 22 142
3 31 143 145
3 143 22 144
3 143 144 145
3 31 2 22
3 28 146 148
3 148 147 1
3 146 147 148
3 150 149 28
3 33 34 0
3 35 34 33
3 35 7 34
3 19 35 6
3 36 35 19
3 36 7 35
3 36 151 153
3 153 152 7
3 151 152 153
3 37 154 156
3 156 155 36
3 154 155 156
3 37 157 158
3 32 20 2
3 38 20 32
3 38 8 20
3 21 38 5
3 39 38 21
3 39 8 38
3 39 37 8
3 159 37 160
3 161 160 39
3 159 160 161
3 164 163 37
3 162 163 164
3 40 165 166
3 40 167 169
3 167 1 168
3 167 168 169
3 41 170 171
3 41 172 174
3 172 9 173
3 172 173 174
3 23 175 177
3 175 41 176
3 175 176 177
3 42 41 23
3 42 9 41
3 42 40 9
3 43 40 42
3 43 1 40
3 43 27 1
3 44 27 43
3 44 4 27
3 25 44 10
3 45 44 25
3 45 4 44
3 45 14 4
3 33 14 45
3 33 0 14
3 34 13 0
3 178 13 179
3 180 179 34
3 178 179 180
3 182 181 13
3 184 183 7
