ply
format ascii 1.0
element vertex 152
property float x
property float y
property float z
property uchar red
property uchar green
property uchar blue
element face 143
property list uchar int vertex_index
end_header
-55.9898 -11.84 31.0502 222 255 33
-45.5358 -8.77841 27.2541 255 86 0
-51.2734 -8.44586 21.3008 0 211 255
-42.4237 -10.5295 30.9748 89 255 166
-48.7892 -7.27364 33.39 124 255 131
-50.8614 -5.07122 30.5241 130 255 125
-51.955 -14.7305 32.5386 164 255 91
-59.6938 -9.43126 29.2842 23 255 232
-44.9096 -14.1155 28.4215 140 255 115
-49.0125 -12.9272 26.6238 255 40 0
-52.968 -12.0689 25.3493 255 47 0
-48.204 -8.40166 24.0959 129 255 126
-57.2403 -11.1107 23.9432 35 255 220
-53.9612 -13.4106 31.8471 255 221 0
-57.9475 -10.4334 30.3322 159 255 96
-43.9364 -9.49427 29.1079 211 0 0
-42.7499 -12.2143 28.7439 102 255 153
-44.4843 -11.4331 27.2511 255 113 0
-46.8759 -13.4514 27.4727 255 5 0
-46.4105 -11.0825 25.8222 255 170 0
-48.0818 -10.9512 24.7523 255 216 0
-46.8238 -8.48345 25.6601 255 182 0
-51.7323 -10.7505 22.8549 255 130 0
-55.0639 -11.6416 24.7221 255 26 0
-53.7372 -10.7647 21.9944 119 255 136
-45.4142 -8.69502 32.3414 255 203 0
-46.7283 -7.54674 30.3243 138 0 0
-47.6912 -6.77211 28.5608 228 0 0
-49.878 -6.15867 31.9349 215 255 40
-48.1849 -15.0861 30.1163 236 255 19
-50.2991 -14.0829 29.5453 128 0 0
-52.4357 -12.8924 28.964 185 0 0
-54.3708 -11.8137 28.3827 246 0 0
-50.9747 -12.4969 26.0014 255 78 0
-49.8743 -10.8934 23.7641 255 175 0
-49.7019 -8.36459 22.6112 40 255 215
-48.7189 -6.30494 26.6825 174 255 81
-56.3027 -10.8343 27.6279 245 0 0
-58.095 -10.0397 26.4379 160 255 95
-56.704 -11.8366 32.7233 0 0 205
-55.6897 -12.6219 33.1218 0 0 205
-54.9755 -12.6253 31.4487 0 1 255
-57.5127 -11.1881 32.041 0 0 148
-56.704 -11.8366 32.7233 0 0 148
-56.9687 -11.1367 30.6912 0 0 218
-58.4916 -10.4848 31.682 0 0 179
-57.5127 -11.1881 32.041 0 0 179
-47.1017 -7.98433 32.8657 0 0 243
-46.4232 -8.69133 33.7566 0 0 196
-48.1107 -7.98064 34.2809 0 0 196
-53.0986 -14.7385 34.6017 0 0 159
-51.1744 -15.3935 33.0263 0 0 159
-60.7905 -9.59065 29.6252 0 0 128
-60.2019 -9.65301 30.512 0 0 128
-60.4692 -9.10577 28.5372 0 0 128
-60.7905 -9.59065 29.6252 0 0 128
-41.8139 -11.978 30.5784 0 0 176
-41.0792 -12.654 31.3801 0 0 139
-41.689 -11.2055 31.7764 0 0 176
-44.078 -14.6525 29.0133 0 0 170
-42.9981 -13.7019 29.1745 0 0 170
-43.8298 -13.1649 28.5827 0 0 203
-45.7071 -15.1643 29.7356 0 0 145
-44.078 -14.6525 29.0133 0 0 145
-46.5472 -14.6008 29.2689 0 0 229
-47.3448 -15.6496 30.5829 0 0 187
-45.7071 -15.1643 29.7356 0 0 187
-58.6714 -10.1159 24.6357 0 0 176
-59.0988 -9.58042 25.883 0 0 176
-57.6677 -10.5752 25.1905 0 0 213
-49.8516 -7.07023 34.7849 0 0 151
-48.1107 -7.98064 34.2809 0 0 151
-50.4483 -6.50122 34.1384 0 0 141
-49.8516 -7.07023 34.7849 0 0 141
-54.7894 -13.3086 33.6689 0 0 207
-53.7863 -13.9686 34.0146 0 0 207
-52.9581 -14.0706 32.1929 0 4 255
-54.7894 -13.3086 33.6689 0 0 155
-55.6897 -12.6219 33.1218 0 0 155
-59.3288 -10.1541 31.0359 0 0 135
-58.4916 -10.4848 31.682 0 0 135
-58.8207 -9.93235 29.8082 0 0 197
-60.2019 -9.65301 30.512 0 0 165
-59.3288 -10.1541 31.0359 0 0 165
-51.2918 -4.70135 29.6092 0 0 151
-52.6237 -4.20231 31.4193 0 0 151
-43.2253 -10.2779 32.5494 0 0 149
-41.689 -11.2055 31.7764 0 0 149
-44.7206 -9.36065 33.2327 0 0 149
-46.4232 -8.69133 33.7566 0 0 149
-43.919 -9.61228 31.6581 0 0 243
-43.2253 -10.2779 32.5494 0 0 196
-44.7206 -9.36065 33.2327 0 0 196
-50.9926 -5.94374 33.4108 0 0 185
-49.3336 -6.71615 32.6625 0 0 225
-50.4483 -6.50122 34.1384 0 0 185
-51.5931 -5.34859 32.7955 0 0 143
-50.9926 -5.94374 33.4108 0 0 143
-52.0849 -4.80487 32.0901 0 0 187
-50.3697 -5.61494 31.2295 0 0 229
-51.5931 -5.34859 32.7955 0 0 187
-52.6237 -4.20231 31.4193 0 0 147
-52.0849 -4.80487 32.0901 0 0 147
-53.0986 -14.7385 34.6017 0 0 161
-53.7863 -13.9686 34.0146 0 0 161
-52.0782 -8.50044 20.7496 0 0 131
-51.6279 -7.08544 21.4376 0 0 131
-41.977 -12.8204 29.463 0 0 172
-41.8139 -11.978 30.5784 0 0 172
-42.5868 -11.3719 29.8594 0 0 207
-41.977 -12.8204 29.463 0 0 136
-42.9981 -13.7019 29.1745 0 0 136
-49.2893 -15.5713 31.8152 0 0 151
-47.3448 -15.6496 30.5829 0 0 151
-50.0699 -14.9083 31.3274 0 0 250
-51.1744 -15.3935 33.0263 0 0 201
-49.2893 -15.5713 31.8152 0 0 201
-50.2206 -5.31821 27.6884 0 0 195
-49.7902 -5.68808 28.6033 0 0 242
-51.2918 -4.70135 29.6092 0 0 195
-49.2369 -6.17398 25.7925 0 0 147
-50.2206 -5.31821 27.6884 0 0 147
-48.9794 -7.22234 24.4992 0 0 166
-48.4615 -7.3533 25.3892 0 0 198
-49.2369 -6.17398 25.7925 0 0 166
-49.7284 -7.2038 23.7569 0 0 166
-48.953 -8.38313 23.3536 0 0 198
-48.9794 -7.22234 24.4992 0 0 166
-50.304 -7.13788 22.8606 0 0 133
-49.7284 -7.2038 23.7569 0 0 133
-51.0897 -7.17852 22.2053 0 0 161
-50.4877 -8.40523 21.956 0 0 191
-50.304 -7.13788 22.8606 0 0 161
-51.6279 -7.08544 21.4376 0 0 130
-51.0897 -7.17852 22.2053 0 0 130
-59.6698 -9.41 27.114 0 0 180
-60.4692 -9.10577 28.5372 0 0 180
-58.8944 -9.73549 27.8611 0 0 218
-59.6698 -9.41 27.114 0 0 138
-59.0988 -9.58042 25.883 0 0 138
-53.3101 -9.65987 21.0964 0 0 163
-52.5053 -9.60529 21.6476 0 0 194
-52.0782 -8.50044 20.7496 0 0 163
-54.7039 -10.7506 21.6137 0 0 135
-53.3101 -9.65987 21.0964 0 0 135
-56.4555 -10.9236 22.5881 0 0 171
-55.4887 -10.9377 22.9688 0 0 205
-54.7039 -10.7506 21.6137 0 0 171
-58.2239 -10.7626 23.4246 0 0 141
-56.4555 -10.9236 22.5881 0 0 141
-58.6714 -10.1159 24.6357 0 0 138
-58.2239 -10.7626 23.4246 0 0 138
3 0 39 41
3 41 40 13
3 39 40 41
3 0 42 43
3 0 44 46
3 44 14 45
3 44 45 46
3 1 17 15
3 1 19 17
3 1 21 19
3 2 24 22
3 4 47 49
3 47 25 48
3 47 48 49
3 4 26 25
3 4 28 26
3 6 50 51
3 7 52 53
3 7 54 55
3 3 56 58
3 56 57 58
3 8 59 61
3 61 60 16
3 59 60 61
3 8 62 63
3 8 64 66
3 64 29 65
3 64 65 66
3 9 30 18
3 9 31 30
3 9 33 31
3 11 34 20
3 11 35 34
3 5 36 27
3 10 37 32
3 12 38 23
3 12 67 69
3 69 68 38
3 67 68 69
3 70 4 71
3 73 72 4
3 13 74 76
3 76 75 6
3 74 75 76
3 78 77 13
3 14 79 80
3 14 81 83
3 81 7 82
3 81 82 83
3 15 16 3
3 17 16 15
3 17 8 16
3 17 18 8
3 19 18 17
3 19 9 18
3 19 20 9
3 21 20 19
3 21 11 20
3 85 84 5
3 22 23 10
3 24 23 22
3 24 12 23
3 86 3 87
3 25 88 89
3 25 90 92
3 90 3 91
3 90 91 92
3 25 15 3
3 26 15 25
3 26 1 15
3 26 27 1
3 28 27 26
3 28 5 27
3 93 28 94
3 95 94 4
3 93 94 95
3 96 28 97
3 98 5 99
3 100 99 28
3 98 99 100
3 102 101 5
3 104 103 6
3 106 105 2
3 16 107 109
3 109 108 3
3 107 108 109
3 111 110 16
3 29 112 113
3 29 114 116
3 114 6 115
3 114 115 116
3 18 29 8
3 30 29 18
3 30 6 29
3 30 13 6
3 31 13 30
3 31 0 13
3 31 32 0
3 33 32 31
3 33 10 32
3 20 33 9
3 34 33 20
3 34 10 33
3 34 22 10
3 35 22 34
3 35 2 22
3 27 21 1
3 36 21 27
3 36 11 21
3 117 36 118
3 119 118 5
3 117 118 119
3 120 36 121
3 122 11 123
3 124 123 36
3 122 123 124
3 125 35 126
3 127 126 11
3 125 126 127
3 128 35 129
3 130 2 131
3 132 131 35
3 130 131 132
3 134 133 2
3 32 14 0
3 37 14 32
3 37 7 14
3 23 37 10
3 38 37 23
3 38 7 37
3 38 135 137
3 137 136 7
3 135 136 137
3 139 138 38
3 140 24 141
3 142 141 2
3 140 141 142
3 143 24 144
3 145 12 146
3 147 146 24
3 145 146 147
3 148 12 149
3 151 150 12
