ply
format ascii 1.0
element vertex 124
property float x
property float y
property float z
property uchar red
property uchar green
property uchar blue
element face 108
property list uchar int vertex_index
end_header
-14.7507 -40.8012 -2.386 0 179 255
-16.012 -47.0798 -7.24639 255 203 0
-14.7709 -41.7825 -5.97022 255 104 0
-12.7758 -42.3539 -0.549208 0 122 255
-17.0324 -47.4868 -1.47008 62 255 193
-15.8527 -44.6109 -3.78819 128 0 0
-17.2471 -49.9344 -5.58266 255 231 0
-16.8884 -44.3506 -7.00608 255 130 0
-14.5064 -40.2828 -7.18069 90 255 165
-16.0557 -42.7933 -8.15152 118 255 137
-16.586 -46.065 -2.65034 255 37 0
-19.7693 -48.0422 -4.0567 122 255 133
-18.9599 -46.7453 -5.22175 255 157 0
-15.3155 -49.3931 -7.3332 33 255 222
-16.872 -45.7808 -8.63155 29 255 226
-13.3535 -40.2498 -4.21176 136 255 119
-14.3074 -39.1333 -5.13478 0 240 255
-13.5687 -41.4534 -1.52175 0 185 255
-12.4923 -44.1877 -1.67441 199 255 56
-12.4149 -42.7055 -2.60085 255 115 0
-12.6893 -41.4198 -3.44251 255 210 0
-15.1902 -43.1344 -4.80531 255 10 0
-17.9053 -45.5641 -6.16159 253 0 0
-16.1472 -48.4506 -6.23249 255 102 0
-14.0583 -51.3967 -4.18501 54 255 201
-14.0493 -49.9689 -5.54719 27 255 228
-16.6905 -41.5226 -1.88056 0 0 144
-15.7678 -41.5155 -1.42549 0 0 144
-19.9273 -50.0261 -3.96034 0 0 141
-20.1023 -48.5842 -3.39245 0 0 141
-19.243 -49.5882 -4.4468 0 0 146
-19.9273 -50.0261 -3.96034 0 0 146
-16.5622 -49.193 -8.05194 0 0 162
-15.6394 -50.891 -7.38814 0 0 162
-15.0442 -39.2353 -6.65119 0 0 131
-14.6554 -39.6129 -7.71919 0 0 131
-16.4047 -43.6357 -9.04718 0 0 153
-17.5389 -45.2292 -9.04433 0 0 153
-14.1932 -42.4172 -0.009889 0 0 133
-13.7043 -42.6366 0.52811 0 0 133
-13.1723 -41.9036 -1.03548 0 0 194
-14.5896 -41.9669 -0.496161 0 0 164
-14.1932 -42.4172 -0.009889 0 0 164
-16.981 -48.0723 -0.798468 0 0 204
-18.8518 -49.388 -0.671444 0 0 154
-18.9032 -48.8025 -1.34306 0 0 204
-14.8021 -46.5023 -1.02055 0 0 162
-16.981 -48.0723 -0.798468 0 0 162
-14.7623 -45.8372 -1.57224 0 13 255
-12.532 -44.8527 -1.12272 0 0 213
-14.8021 -46.5023 -1.02055 0 0 213
-13.2299 -52.1567 -4.11009 0 0 128
-13.1593 -52.8252 -3.4234 0 0 128
-13.2254 -51.4428 -4.79118 0 0 154
-14.0538 -50.6828 -4.8661 0 0 178
-13.2299 -52.1567 -4.11009 0 0 154
-13.8332 -51.1044 -5.61046 0 0 134
-13.2254 -51.4428 -4.79118 0 0 134
-15.4301 -40.8681 -8.2046 0 0 171
-14.6554 -39.6129 -7.71919 0 0 171
-15.281 -41.5381 -7.66611 0 0 204
-12.4665 -42.8369 -0.046956 0 0 131
-13.7043 -42.6366 0.52811 0 0 131
-18.7338 -48.3064 -2.09914 0 0 152
-18.9032 -48.8025 -1.34306 0 0 152
-18.5106 -47.5956 -2.68927 0 0 198
-16.8092 -46.7759 -2.06021 0 0 245
-18.7338 -48.3064 -2.09914 0 0 198
-18.1777 -47.0536 -3.35352 0 0 241
-18.5106 -47.5956 -2.68927 0 0 195
-20.1023 -48.5842 -3.39245 0 0 195
-18.8383 -48.9397 -5.02933 0 0 183
-19.3646 -47.3937 -4.63922 0 0 223
-19.243 -49.5882 -4.4468 0 0 183
-17.9819 -50.5343 -5.20978 0 0 200
-18.1035 -48.3398 -5.4022 0 0 248
-18.8383 -48.9397 -5.02933 0 0 200
-17.3404 -47.3868 -8.70111 0 0 230
-16.0938 -47.587 -7.98237 0 38 255
-16.5622 -49.193 -8.05194 0 0 230
-17.5389 -45.2292 -9.04433 0 0 144
-17.3404 -47.3868 -8.70111 0 0 144
-14.9691 -40.3537 -3.79747 0 0 169
-15.6677 -40.6295 -2.88459 0 0 169
-14.0521 -40.5255 -3.29888 0 0 202
-15.446 -39.7955 -4.25898 0 0 175
-14.9691 -40.3537 -3.79747 0 0 175
-13.8305 -39.6915 -4.67327 0 0 210
-16.3639 -39.6817 -4.8033 0 0 147
-15.446 -39.7955 -4.25898 0 0 147
-14.9447 -38.6605 -5.62824 0 0 160
-14.4069 -39.7081 -6.15774 0 0 187
-15.0442 -39.2353 -6.65119 0 0 160
-16.3639 -39.6817 -4.8033 0 0 151
-14.9447 -38.6605 -5.62824 0 0 151
-15.9966 -42.1419 -8.80716 0 0 166
-16.4638 -44.2871 -8.39153 0 0 197
-16.4047 -43.6357 -9.04718 0 0 166
-15.4301 -40.8681 -8.2046 0 0 139
-15.9966 -42.1419 -8.80716 0 0 139
-15.1768 -41.8416 -0.993371 0 0 136
-14.5896 -41.9669 -0.496161 0 0 136
-14.1597 -41.1273 -1.95388 0 0 203
-15.7678 -41.5155 -1.42549 0 0 170
-15.1768 -41.8416 -0.993371 0 0 170
-12.3247 -43.7538 -0.609555 0 0 129
-12.532 -44.8527 -1.12272 0 0 129
-12.6341 -43.2708 -1.11181 0 0 167
-12.4665 -42.8369 -0.046956 0 0 146
-12.3247 -43.7538 -0.609555 0 0 146
-16.2807 -51.5976 -4.61214 0 0 159
-17.9819 -50.5343 -5.20978 0 0 159
-14.6863 -52.3287 -3.91331 0 0 154
-13.1593 -52.8252 -3.4234 0 0 154
-15.6527 -50.6655 -4.88384 0 20 255
-16.2807 -51.5976 -4.61214 0 0 218
-14.6863 -52.3287 -3.91331 0 0 218
-14.4663 -50.8165 -6.50347 0 0 169
-14.6824 -49.681 -6.44019 0 0 202
-13.8332 -51.1044 -5.61046 0 0 169
-15.6394 -50.891 -7.38814 0 0 162
-14.4663 -50.8165 -6.50347 0 0 162
-16.6905 -41.5226 -1.88056 0 0 150
-15.6677 -40.6295 -2.88459 0 0 150
3 0 26 27
3 1 9 7
3 28 11 29
3 31 30 11
3 33 32 13
3 2 16 15
3 35 34 8
3 37 36 14
3 3 38 39
3 3 40 42
3 40 17 41
3 40 41 42
3 4 43 45
3 43 44 45
3 4 46 47
3 4 48 50
3 48 18 49
3 48 49 50
3 5 19 10
3 5 20 19
3 5 21 20
3 6 22 12
3 6 23 22
3 51 24 52
3 53 25 54
3 55 54 24
3 53 54 55
3 57 56 25
3 7 8 2
3 9 8 7
3 9 58 60
3 60 59 8
3 58 59 60
3 61 3 62
3 63 4 64
3 65 10 66
3 67 66 4
3 65 66 67
3 11 68 70
3 68 10 69
3 68 69 70
3 11 5 10
3 11 12 5
3 71 12 72
3 73 72 11
3 71 72 73
3 74 6 75
3 76 75 12
3 74 75 76
3 13 14 1
3 77 14 78
3 79 78 13
3 77 78 79
3 81 80 14
3 15 82 84
3 84 83 0
3 82 83 84
3 16 85 87
3 87 86 15
3 85 86 87
3 16 88 89
3 8 16 2
3 90 16 91
3 92 91 8
3 90 91 92
3 94 93 16
3 14 9 1
3 95 9 96
3 97 96 14
3 95 96 97
3 99 98 9
3 17 100 101
3 17 102 104
3 102 0 103
3 102 103 104
3 18 105 106
3 18 107 109
3 107 3 108
3 107 108 109
3 10 18 4
3 19 18 10
3 19 3 18
3 19 17 3
3 20 17 19
3 20 0 17
3 20 15 0
3 21 15 20
3 21 2 15
3 12 21 5
3 22 21 12
3 22 2 21
3 22 7 2
3 23 7 22
3 23 1 7
3 110 6 111
3 24 112 113
3 24 114 116
3 114 6 115
3 114 115 116
3 24 23 6
3 25 23 24
3 25 1 23
3 25 13 1
3 117 13 118
3 119 118 25
3 117 118 119
3 121 120 13
3 123 122 0
