ply
format ascii 1.0
element vertex 202
property float x
property float y
property float z
property uchar red
property uchar green
property uchar blue
element face 191
property list uchar int vertex_index
end_header
-12.1558 -85.5808 63.1314 38 255 217
-17.1163 -78.4054 70.4407 255 111 0
-18.7969 -81.1424 58.932 181 0 0
-20.6134 -76.2558 68.7957 239 255 16
-17.9448 -79.8821 65.1375 233 0 0
-13.5775 -80.2619 71.5307 84 255 171
-15.8898 -76.4379 74.388 104 255 151
-19.6833 -74.4667 73.3854 255 164 0
-23.2218 -72.3522 71.6561 0 147 255
-14.5129 -82.0326 66.8925 255 63 0
-15.5292 -83.4908 61.0335 161 0 0
-16.8807 -84.9333 54.4636 255 235 0
-20.8979 -76.9903 66.0605 44 255 211
-14.0121 -77.3311 74.588 0 159 255
-18.938 -73.3627 75.1603 43 255 212
-20.8482 -72.3559 74.5364 0 218 255
-21.5049 -73.4187 72.6105 178 255 77
-15.3216 -79.3939 71.0585 255 180 0
-14.0606 -81.1915 69.4008 255 172 0
-15.8012 -80.2472 68.7183 255 86 0
-18.3435 -80.5136 62.116 196 0 0
-16.687 -81.666 63.1117 194 0 0
-17.1875 -82.3044 59.9758 152 0 0
-16.1559 -84.1856 57.8127 255 125 0
-17.7712 -82.9679 56.6945 128 0 0
-11.6145 -84.594 65.909 0 253 255
-18.8966 -77.3457 69.6856 255 72 0
-17.5538 -79.1933 67.9342 255 36 0
-19.2659 -78.0919 67.0488 255 17 0
-19.5915 -78.7594 64.1628 255 213 0
-19.9327 -79.3988 61.0958 191 255 64
-12.9836 -79.2572 73.2348 0 140 255
-14.742 -78.4239 73.0178 248 255 7
-16.5772 -77.4914 72.601 255 187 0
-16.9845 -74.3275 75.5924 0 196 255
-17.7966 -75.479 73.9805 255 197 0
-18.4237 -76.4824 72.0103 255 138 0
-20.2284 -75.4255 71.2561 255 108 0
-21.9475 -74.3471 70.3408 105 255 150
-12.4018 -81.9475 69.9833 0 178 255
-12.8158 -82.9104 67.6735 178 255 77
-13.2853 -83.7985 65.0142 255 42 0
-16.2391 -80.9953 66.0473 255 2 0
-14.9896 -82.7894 64.0797 228 0 0
-13.8431 -84.6163 62.0913 255 194 0
-14.5055 -85.3988 58.9713 111 255 144
-20.341 -80.0708 57.9111 187 255 68
-20.8547 -80.8413 54.665 0 196 255
-19.3405 -81.8318 55.6398 255 172 0
-18.4559 -83.7211 53.314 255 250 0
-17.701 -85.7967 51.0251 15 255 240
-11.6589 -86.4894 62.2088 0 0 179
-10.8306 -86.8381 62.7095 0 0 143
-11.3276 -85.9295 63.6321 0 0 179
-12.495 -86.0433 61.6361 0 0 146
-11.6589 -86.4894 62.2088 0 0 146
-21.3579 -71.2536 74.9917 0 0 137
-20.4012 -71.7531 75.3285 0 0 137
-21.7616 -71.8378 74.1303 0 0 138
-21.3579 -71.2536 74.9917 0 0 138
-11.4101 -84.0602 67.1534 0 0 137
-10.8168 -84.8318 66.3346 0 0 137
-20.3707 -78.2174 63.6423 0 0 183
-20.2447 -77.8748 65.1117 0 0 221
-21.0239 -77.3329 64.5912 0 0 183
-20.5413 -78.5372 62.1088 0 0 185
-19.7621 -79.0791 62.6293 0 0 224
-20.3707 -78.2174 63.6423 0 0 185
-12.5982 -78.7108 73.8876 0 0 129
-12.1807 -79.6279 73.2132 0 0 129
-17.4825 -73.2209 76.0981 0 0 136
-16.4842 -73.6813 76.2411 0 0 136
-23.3835 -72.8098 70.4592 0 0 175
-22.7464 -73.8072 69.8015 0 0 175
-22.5846 -73.3496 70.9984 0 0 208
-12.9897 -81.1047 70.757 0 0 179
-12.1916 -81.4501 70.9124 0 0 155
-12.7794 -80.6073 71.6862 0 0 155
-16.0776 -85.566 55.0834 0 0 198
-15.7152 -85.1922 56.7579 0 0 198
-16.5183 -84.5594 56.1382 0 0 244
-16.5092 -86.0046 53.3934 0 0 154
-16.0776 -85.566 55.0834 0 0 154
-21.0743 -79.6019 57.415 0 0 145
-20.8879 -79.2197 58.9817 0 0 145
-20.4253 -81.7449 53.4763 0 0 146
-21.175 -81.309 53.0362 0 0 146
-19.6682 -82.2401 53.9637 0 0 188
-20.0976 -81.3366 55.1524 0 0 228
-20.4253 -81.7449 53.4763 0 0 188
-19.2259 -83.1848 52.8008 0 0 191
-18.8982 -82.7765 54.4769 0 0 233
-19.6682 -82.2401 53.9637 0 0 191
-18.1513 -86.3157 49.2799 0 0 154
-18.473 -85.2125 50.4509 0 0 154
-17.3862 -86.9426 49.9441 0 0 156
-18.1513 -86.3157 49.2799 0 0 156
-21.5633 -76.0788 66.915 0 0 181
-20.7557 -76.623 67.4281 0 0 217
-21.4211 -75.7115 68.2826 0 0 181
-21.659 -76.4556 65.5134 0 0 144
-21.5633 -76.0788 66.915 0 0 144
-21.0239 -77.3329 64.5912 0 0 145
-21.659 -76.4556 65.5134 0 0 145
-13.5626 -76.7182 75.2024 0 0 156
-13.1124 -77.7478 74.5642 0 0 156
-12.663 -77.1349 75.1786 0 0 132
-14.5207 -76.2864 75.2039 0 0 134
-13.5626 -76.7182 75.2024 0 0 134
-15.4596 -75.8397 75.1039 0 0 161
-14.951 -76.8845 74.488 0 0 188
-14.5207 -76.2864 75.2039 0 0 161
-19.4461 -72.2565 75.6404 0 0 137
-18.4593 -72.7384 75.8821 0 0 137
-19.8931 -72.8593 74.8484 0 0 197
-19.4461 -72.2565 75.6404 0 0 167
-20.4012 -71.7531 75.3285 0 0 167
-22.09 -72.3692 73.1673 0 0 170
-21.1765 -72.8873 73.5735 0 0 201
-21.7616 -71.8378 74.1303 0 0 170
-22.9484 -71.8359 72.6901 0 0 171
-22.3633 -72.8854 72.1333 0 0 203
-22.09 -72.3692 73.1673 0 0 171
-11.0569 -85.4361 65.0209 0 0 139
-10.8168 -84.8318 66.3346 0 0 139
-11.8852 -85.0874 64.5202 0 0 210
-11.3276 -85.9295 63.6321 0 0 176
-11.0569 -85.4361 65.0209 0 0 176
-12.4824 -80.1049 72.5382 0 0 128
-12.1807 -79.6279 73.2132 0 0 128
-13.2805 -79.7595 72.3828 0 0 175
-12.7794 -80.6073 71.6862 0 0 153
-12.4824 -80.1049 72.5382 0 0 153
-13.4979 -78.2941 73.9114 0 0 178
-12.5982 -78.7108 73.8876 0 0 154
-13.1124 -77.7478 74.5642 0 0 154
-16.0069 -74.7846 75.706 0 0 136
-16.4842 -73.6813 76.2411 0 0 136
-16.4372 -75.3827 74.9902 0 0 191
-15.4596 -75.8397 75.1039 0 0 163
-16.0069 -74.7846 75.706 0 0 163
-17.9613 -73.8451 75.3763 0 0 194
-17.4825 -73.2209 76.0981 0 0 166
-18.4593 -72.7384 75.8821 0 0 166
-22.0881 -74.7572 69.0551 0 0 178
-21.4211 -75.7115 68.2826 0 0 178
-21.2805 -75.3014 69.5683 0 0 213
-22.0881 -74.7572 69.0551 0 0 143
-22.7464 -73.8072 69.8015 0 0 143
-23.8017 -71.3092 72.1888 0 0 139
-22.9484 -71.8359 72.6901 0 0 139
-24.0109 -71.8165 71.0876 0 0 140
-23.8017 -71.3092 72.1888 0 0 140
-24.1727 -72.2741 69.8907 0 0 141
-23.3835 -72.8098 70.4592 0 0 175
-24.0109 -71.8165 71.0876 0 0 175
-11.6592 -82.1768 70.2363 0 0 129
-12.1916 -81.4501 70.9124 0 0 129
-11.8038 -82.737 69.1905 0 0 132
-11.6592 -82.1768 70.2363 0 0 132
-12.0108 -83.2184 68.0356 0 0 164
-11.8038 -82.737 69.1905 0 0 164
-12.6088 -82.4289 68.8284 0 0 192
-12.2152 -83.7522 66.7913 0 0 199
-11.4101 -84.0602 67.1534 0 0 168
-12.0108 -83.2184 68.0356 0 0 168
-13.3386 -85.5611 61.116 0 0 186
-12.495 -86.0433 61.6361 0 0 186
-12.9995 -85.0985 62.6113 0 0 226
-13.6699 -85.9523 59.556 0 0 191
-13.3386 -85.5611 61.116 0 0 191
-14.1743 -85.0075 60.5313 0 0 232
-14.0731 -86.4061 57.9809 0 0 150
-13.6699 -85.9523 59.556 0 0 150
-14.8899 -85.7988 57.3372 0 0 197
-15.3307 -84.7922 58.392 0 0 241
-15.7152 -85.1922 56.7579 0 0 197
-14.0731 -86.4061 57.9809 0 0 152
-14.8899 -85.7988 57.3372 0 0 152
-20.6838 -78.8837 60.5741 0 0 146
-20.5413 -78.5372 62.1088 0 0 146
-20.1369 -79.7348 59.5035 0 0 223
-20.6838 -78.8837 60.5741 0 0 185
-20.8879 -79.2197 58.9817 0 0 185
-21.5803 -80.4381 54.2224 0 0 144
-21.175 -81.309 53.0362 0 0 144
-21.3311 -79.9872 55.7919 0 0 143
-21.5803 -80.4381 54.2224 0 0 143
-20.5978 -80.4561 56.2881 0 0 220
-21.0743 -79.6019 57.415 0 0 183
-21.3311 -79.9872 55.7919 0 0 183
-18.8504 -84.1746 51.5954 0 0 151
-19.2259 -83.1848 52.8008 0 0 151
-18.0784 -84.7589 52.1695 0 0 243
-18.8504 -84.1746 51.5954 0 0 198
-18.473 -85.2125 50.4509 0 0 198
-16.9193 -86.4363 51.6741 0 0 202
-16.5092 -86.0046 53.3934 0 0 202
-17.2909 -85.365 52.7443 0 0 248
-16.6045 -87.5822 50.5932 0 0 156
-16.9193 -86.4363 51.6741 0 0 204
-17.3862 -86.9426 49.9441 0 0 204
3 0 51 53
3 51 52 53
3 0 54 55
3 56 15 57
3 59 58 15
3 1 19 17
3 2 22 20
3 2 24 22
3 60 25 61
3 3 28 26
3 62 29 63
3 64 63 12
3 62 63 64
3 65 30 66
3 67 66 29
3 65 66 67
3 68 31 69
3 6 32 13
3 6 33 32
3 70 34 71
3 7 35 14
3 7 36 35
3 7 37 36
3 8 38 16
3 8 72 74
3 74 73 38
3 72 73 74
3 5 75 77
3 75 39 76
3 75 76 77
3 9 40 18
3 9 41 40
3 4 42 27
3 10 43 21
3 10 44 43
3 10 45 44
3 11 78 80
3 80 79 23
3 78 79 80
3 11 81 82
3 83 46 84
3 85 47 86
3 87 48 88
3 89 88 47
3 87 88 89
3 90 49 91
3 92 91 48
3 90 91 92
3 93 50 94
3 96 95 50
3 97 12 98
3 99 98 3
3 97 98 99
3 100 12 101
3 103 102 12
3 104 13 105
3 104 105 106
3 107 13 108
3 109 6 110
3 111 110 13
3 109 110 111
3 112 14 113
3 15 114 116
3 114 14 115
3 114 115 116
3 15 7 14
3 15 16 7
3 117 16 118
3 119 118 15
3 117 118 119
3 120 8 121
3 122 121 16
3 120 121 122
3 17 18 5
3 19 18 17
3 19 9 18
3 20 21 4
3 22 21 20
3 22 10 21
3 22 23 10
3 24 23 22
3 24 11 23
3 25 123 124
3 25 125 127
3 125 0 126
3 125 126 127
3 26 27 1
3 28 27 26
3 28 4 27
3 12 28 3
3 29 28 12
3 29 4 28
3 29 20 4
3 30 20 29
3 30 2 20
3 31 128 129
3 31 130 132
3 130 5 131
3 130 131 132
3 13 133 135
3 133 31 134
3 133 134 135
3 32 31 13
3 32 5 31
3 32 17 5
3 33 17 32
3 33 1 17
3 34 136 137
3 34 138 140
3 138 6 139
3 138 139 140
3 14 141 143
3 141 34 142
3 141 142 143
3 35 34 14
3 35 6 34
3 35 33 6
3 36 33 35
3 36 1 33
3 36 26 1
3 37 26 36
3 37 3 26
3 16 37 7
3 38 37 16
3 38 3 37
3 38 144 146
3 146 145 3
3 144 145 146
3 148 147 38
3 149 8 150
3 151 8 152
3 155 154 8
3 153 154 155
3 39 156 157
3 39 158 159
3 18 39 5
3 40 39 18
3 40 160 162
3 162 161 39
3 160 161 162
3 40 163 165
3 163 25 164
3 163 164 165
3 41 25 40
3 41 0 25
3 27 19 1
3 42 19 27
3 42 9 19
3 21 42 4
3 43 42 21
3 43 9 42
3 43 41 9
3 44 41 43
3 44 0 41
3 44 166 168
3 168 167 0
3 166 167 168
3 45 169 171
3 171 170 44
3 169 170 171
3 45 172 173
3 23 45 10
3 174 45 175
3 176 175 23
3 174 175 176
3 178 177 45
3 179 30 180
3 46 181 183
3 181 30 182
3 181 182 183
3 46 2 30
3 47 184 185
3 47 186 187
3 47 188 190
3 188 46 189
3 188 189 190
3 48 46 47
3 48 2 46
3 48 24 2
3 49 24 48
3 49 11 24
3 191 49 192
3 50 193 195
3 193 49 194
3 193 194 195
3 50 11 49
3 50 196 198
3 198 197 11
3 196 197 198
3 201 200 50
3 199 200 201
