ply
format ascii 1.0
element vertex 135
property float x
property float y
property float z
property uchar red
property uchar green
property uchar blue
element face 107
property list uchar int vertex_index
end_header
65.6892 6.59234 24.9181 106 255 149
59.4625 8.45846 34.7112 255 247 0
65.3956 8.09199 21.1295 0 100 255
56.5186 4.82172 42.874 0 224 255
62.6232 8.09366 29.7266 121 255 134
59.1933 5.11679 37.9562 223 255 32
62.0174 5.10633 33.129 98 255 157
65.6567 7.43907 23.0356 0 229 255
61.0332 8.38708 32.2185 255 255 0
57.8418 4.97284 40.4093 226 255 29
57.9359 8.39204 37.1904 135 255 120
64.1579 8.5291 25.3941 255 253 0
62.5276 9.26959 27.8708 137 255 118
64.1931 7.51013 27.2723 255 255 0
56.6925 6.60925 41.3363 108 255 147
58.0756 6.7508 38.8671 255 140 0
59.4998 6.86665 36.3972 128 0 0
60.584 5.18574 35.5252 225 255 30
60.9662 6.87681 33.9306 130 0 0
62.466 6.70044 31.4795 239 255 16
66.3662 5.95768 23.8332 0 0 173
66.3499 6.38104 22.8919 0 0 173
65.6729 7.01571 23.9769 0 0 217
66.2775 5.52378 24.7613 0 0 128
66.3662 5.95768 23.8332 0 0 128
59.302 9.16624 33.8055 0 0 134
58.4753 9.17099 35.0477 0 0 134
60.2479 8.42277 33.4648 0 0 230
60.0874 9.13055 32.5591 0 0 182
59.302 9.16624 33.8055 0 0 182
57.201 8.33423 38.4232 0 0 136
56.9213 9.10496 37.5168 0 0 136
65.9951 7.29136 20.0948 0 0 130
65.1717 8.34347 20.178 0 0 130
63.1975 9.38217 25.6601 0 0 132
64.0362 8.93443 24.4244 0 0 132
62.5754 8.68162 28.7987 0 0 225
61.6819 9.48329 29.1297 0 0 178
61.7296 8.89533 30.0576 0 0 178
56.6055 5.71549 42.1051 0 0 218
56.0174 6.55863 42.5679 0 0 174
55.9304 5.66487 43.3368 0 0 174
61.3007 5.14603 34.3271 0 0 216
60.9247 4.26514 35.1057 0 0 173
61.6414 4.22543 33.9076 0 0 173
66.3009 6.71524 21.9643 0 0 174
66.1704 7.04169 21.0113 0 0 174
65.5262 7.76553 22.0826 0 0 218
66.3009 6.71524 21.9643 0 0 128
66.3499 6.38104 22.8919 0 0 128
60.9347 9.04204 31.3036 0 0 133
60.0874 9.13055 32.5591 0 0 133
61.8282 8.24037 30.9725 0 0 227
61.7296 8.89533 30.0576 0 0 180
60.9347 9.04204 31.3036 0 0 180
57.5251 4.02524 41.1149 0 0 173
57.1802 4.89728 41.6416 0 0 216
56.8635 3.94968 42.3473 0 0 173
58.1803 4.10457 39.9029 0 0 128
57.5251 4.02524 41.1149 0 0 128
58.8561 4.17654 38.6764 0 0 172
58.5175 5.04482 39.1828 0 0 215
58.1803 4.10457 39.9029 0 0 172
62.3655 4.13768 32.7812 0 0 129
61.6414 4.22543 33.9076 0 0 129
62.7513 4.95856 31.9594 0 0 129
62.3655 4.13768 32.7812 0 0 129
57.712 9.13777 36.2873 0 0 185
56.6974 9.8507 36.6137 0 0 135
56.9213 9.10496 37.5168 0 0 185
58.6992 8.42525 35.9508 0 0 234
58.4753 9.17099 35.0477 0 0 184
57.712 9.13777 36.2873 0 0 184
65.9951 7.29136 20.0948 0 0 128
66.1704 7.04169 21.0113 0 0 128
55.8635 4.76828 44.1049 0 0 129
55.9304 5.66487 43.3368 0 0 129
56.2193 3.87333 43.5714 0 0 174
55.8635 4.76828 44.1049 0 0 174
55.5642 3.81989 44.8023 0 0 129
56.8635 3.94968 42.3473 0 0 128
56.2193 3.87333 43.5714 0 0 128
64.4554 9.03683 21.3052 0 0 131
65.1717 8.34347 20.178 0 0 131
64.6551 8.71587 22.2921 0 0 133
64.4554 9.03683 21.3052 0 0 133
64.7856 8.38941 23.2452 0 0 175
65.5262 7.76553 22.0826 0 0 220
64.6551 8.71587 22.2921 0 0 175
64.9073 7.98409 24.2148 0 0 225
64.7856 8.38941 23.2452 0 0 178
64.0362 8.93443 24.4244 0 0 178
61.4874 10.0383 28.1619 0 0 135
61.6819 9.48329 29.1297 0 0 135
62.3823 9.75241 26.8984 0 0 134
61.4874 10.0383 28.1619 0 0 134
63.3428 8.89934 26.6324 0 0 230
63.1975 9.38217 25.6601 0 0 182
62.3823 9.75241 26.8984 0 0 182
55.8742 7.4 41.7241 0 0 132
56.0174 6.55863 42.5679 0 0 132
56.5793 7.44284 40.4961 0 0 132
55.8742 7.4 41.7241 0 0 132
57.2709 7.51362 39.2616 0 0 178
56.5793 7.44284 40.4961 0 0 178
57.3841 6.68003 40.1017 0 0 224
58.0058 7.57142 38.0287 0 0 223
57.201 8.33423 38.4232 0 0 177
57.2709 7.51362 39.2616 0 0 177
59.5304 4.23154 37.4848 0 0 128
58.8561 4.17654 38.6764 0 0 128
60.2258 4.26602 36.2693 0 0 171
60.5665 3.34542 35.8498 0 0 128
60.9247 4.26514 35.1057 0 0 171
59.8887 5.15127 36.7407 0 0 216
59.5304 4.23154 37.4848 0 0 172
60.2258 4.26602 36.2693 0 0 172
62.9756 5.75562 31.1347 0 0 173
62.2417 5.90338 32.3043 0 0 216
62.7513 4.95856 31.9594 0 0 173
63.2217 6.48403 30.2759 0 0 129
62.9756 5.75562 31.1347 0 0 129
63.3003 7.18064 29.3994 0 0 174
62.5446 7.39705 30.6031 0 0 219
63.2217 6.48403 30.2759 0 0 174
64.0853 6.88887 28.1723 0 0 174
63.4081 7.8019 28.4994 0 0 218
63.3003 7.18064 29.3994 0 0 174
64.8279 6.51908 27.015 0 0 129
64.0853 6.88887 28.1723 0 0 129
65.5759 6.06018 25.8379 0 0 173
64.9412 7.05124 26.0952 0 0 216
64.8279 6.51908 27.015 0 0 173
66.2775 5.52378 24.7613 0 0 129
65.5759 6.06018 25.8379 0 0 129
3 0 20 22
3 22 21 7
3 20 21 22
3 0 23 24
3 1 25 26
3 1 27 29
3 27 8 28
3 27 28 29
3 30 10 31
3 2 32 33
3 34 11 35
3 4 36 38
3 36 12 37
3 36 37 38
3 4 13 12
3 3 39 41
3 39 14 40
3 39 40 41
3 5 15 9
3 5 16 15
3 6 42 44
3 42 17 43
3 42 43 44
3 6 18 17
3 6 19 18
3 7 45 47
3 47 46 2
3 45 46 47
3 49 48 7
3 8 50 51
3 8 52 54
3 52 4 53
3 52 53 54
3 55 9 56
3 57 56 3
3 55 56 57
3 58 9 59
3 60 5 61
3 62 61 9
3 60 61 62
3 63 6 64
3 66 65 6
3 10 67 69
3 67 68 69
3 10 70 72
3 70 1 71
3 70 71 72
3 74 73 2
3 75 3 76
3 77 3 78
3 77 78 79
3 81 80 3
3 82 2 83
3 84 2 85
3 86 7 87
3 88 87 2
3 86 87 88
3 11 89 91
3 89 7 90
3 89 90 91
3 11 0 7
3 12 92 93
3 12 94 95
3 12 96 98
3 96 11 97
3 96 97 98
3 13 11 12
3 13 0 11
3 14 99 100
3 14 101 102
3 9 14 3
3 15 14 9
3 15 103 105
3 105 104 14
3 103 104 105
3 15 106 108
3 106 10 107
3 106 107 108
3 16 10 15
3 16 1 10
3 109 5 110
3 17 111 113
3 111 112 113
3 17 114 116
3 114 5 115
3 114 115 116
3 17 16 5
3 18 16 17
3 18 1 16
3 18 8 1
3 19 8 18
3 19 4 8
3 117 19 118
3 119 118 6
3 117 118 119
3 120 19 121
3 122 4 123
3 124 123 19
3 122 123 124
3 125 13 126
3 127 126 4
3 125 126 127
3 128 13 129
3 130 0 131
3 132 131 13
3 130 131 132
3 134 133 0
