ply
format ascii 1.0
element vertex 179
property float x
property float y
property float z
property uchar red
property uchar green
property uchar blue
element face 169
property list uchar int vertex_index
end_header
-62.4144 -33.4236 -14.542 189 255 66
-65.4442 -32.5656 -21.8185 128 0 0
-63.0016 -22.4891 -19.995 119 255 136
-62.4998 -28.1264 -17.5672 255 132 0
-63.3305 -23.8384 -15.9527 0 209 255
-65.9089 -26.0367 -25.0411 151 0 0
-67.951 -31.7799 -25.0907 90 255 165
-67.9027 -24.9199 -28.465 70 255 185
-64.8699 -38.7369 -18.229 106 255 149
-63.1051 -33.2216 -18.3002 255 20 0
-63.6301 -27.2159 -21.4195 244 0 0
-64.0946 -20.9655 -24.1151 255 198 0
-63.1937 -26.2431 -14.9755 0 198 255
-65.9708 -22.7132 -26.5599 255 161 0
-67.0325 -25.4452 -26.7653 178 0 0
-66.9203 -22.048 -28.3586 84 255 171
-62.4708 -36.0596 -14.7182 100 255 155
-62.9399 -36.0647 -16.5674 137 255 118
-62.489 -33.3915 -16.4401 255 96 0
-62.7222 -25.3433 -18.8538 255 111 0
-62.8495 -27.7198 -19.5112 255 70 0
-63.1271 -24.7594 -20.8509 255 47 0
-63.898 -24.1087 -22.8138 233 0 0
-63.3959 -21.7462 -22.071 155 255 100
-65.148 -35.7119 -20.0746 133 0 0
-66.2171 -38.5832 -19.8833 119 255 136
-66.5126 -35.4261 -21.7271 254 255 1
-62.6944 -30.9009 -14.2164 0 237 255
-62.3885 -30.8234 -16.1273 255 133 0
-62.6409 -28.4134 -15.6346 157 255 98
-62.7495 -25.8444 -16.8719 255 167 0
-62.9817 -23.1869 -17.9325 84 255 171
-65.7159 -29.33 -23.468 135 0 0
-66.7802 -32.1627 -23.4756 255 135 0
-66.9711 -28.8254 -25.1463 154 0 0
-68.011 -28.3647 -26.7907 202 255 53
-63.8879 -35.9394 -18.3565 255 187 0
-64.1493 -32.9344 -20.0963 184 0 0
-62.6219 -30.6047 -18.0414 255 86 0
-63.3478 -30.2627 -19.9179 255 2 0
-64.4397 -29.825 -21.7293 175 0 0
-64.7097 -26.6424 -23.2643 176 0 0
-64.9032 -23.4151 -24.7173 180 0 0
-64.9701 -20.1661 -26.1058 210 255 45
-62.5729 -35.9158 -12.8332 0 152 255
-64.1732 -17.806 -25.3374 0 213 255
-66.3913 -20.7143 -28.201 0 0 185
-66.4456 -22.3806 -27.4592 0 0 226
-65.9166 -21.0469 -27.3016 0 0 185
-66.7638 -20.3507 -29.1513 0 0 144
-66.3913 -20.7143 -28.201 0 0 144
-62.9457 -28.4842 -14.7013 0 0 166
-62.6676 -29.6571 -14.9255 0 0 198
-62.9725 -29.728 -13.9921 0 0 166
-68.2929 -26.4601 -28.4494 0 0 179
-68.347 -28.1824 -27.6122 0 0 179
-67.9568 -26.6423 -27.6278 0 0 217
-68.1448 -24.7157 -29.3187 0 0 141
-68.2929 -26.4601 -28.4494 0 0 141
-65.3984 -40.1706 -18.0847 0 0 145
-64.7503 -40.1748 -17.2583 0 0 145
-66.7219 -40.0633 -19.7177 0 0 146
-66.8656 -38.4917 -20.6876 0 0 146
-67.8599 -33.4578 -24.212 0 0 188
-67.2746 -33.6492 -23.4045 0 0 188
-67.3656 -31.9713 -24.2831 0 0 230
-62.7038 -37.1025 -11.9317 0 0 136
-62.5664 -37.2537 -12.8651 0 0 136
-64.1397 -16.2261 -25.9134 0 0 144
-63.9312 -16.727 -24.7733 0 0 144
-64.5253 -17.3593 -26.3898 0 0 144
-64.1397 -16.2261 -25.9134 0 0 144
-63.5788 -26.3663 -14.1104 0 0 130
-63.2222 -27.3991 -14.3717 0 0 130
-63.5737 -25.3408 -14.5662 0 0 128
-63.5788 -26.3663 -14.1104 0 0 128
-63.6421 -24.1384 -15.0548 0 0 158
-63.2621 -25.0408 -15.4641 0 0 186
-63.5737 -25.3408 -14.5662 0 0 158
-67.2564 -21.7592 -29.2497 0 0 183
-67.7476 -23.1952 -29.3029 0 0 183
-67.4115 -23.484 -28.4118 0 0 223
-67.2564 -21.7592 -29.2497 0 0 142
-66.7638 -20.3507 -29.1513 0 0 142
-62.7054 -36.0621 -15.6428 0 0 207
-62.903 -37.4162 -15.6496 0 0 172
-62.6684 -37.4136 -14.725 0 0 172
-67.0133 -36.9132 -21.6095 0 0 190
-66.8656 -38.4917 -20.6876 0 0 190
-66.3649 -37.0047 -20.8052 0 0 233
-68.3422 -33.3383 -25.0059 0 0 142
-68.3687 -31.6257 -25.8927 0 0 142
-62.9173 -27.3283 -15.305 0 0 191
-62.9457 -28.4842 -14.7013 0 0 162
-63.2222 -27.3991 -14.3717 0 0 162
-68.3987 -29.9181 -26.7427 0 0 181
-68.3687 -31.6257 -25.8927 0 0 181
-67.981 -30.0723 -25.9407 0 0 220
-68.3987 -29.9181 -26.7427 0 0 141
-68.347 -28.1824 -27.6122 0 0 141
-68.1448 -24.7157 -29.3187 0 0 140
-67.7476 -23.1952 -29.3029 0 0 140
-64.278 -38.7737 -17.3709 0 0 144
-64.7503 -40.1748 -17.2583 0 0 144
-63.313 -37.4376 -16.5401 0 0 140
-62.903 -37.4162 -15.6496 0 0 140
-63.787 -37.375 -17.4347 0 0 180
-63.313 -37.4376 -16.5401 0 0 180
-63.4139 -36.0021 -17.4619 0 0 218
-64.3789 -37.3381 -18.2927 0 0 226
-64.278 -38.7737 -17.3709 0 0 185
-63.787 -37.375 -17.4347 0 0 185
-65.4162 -19.7734 -27.0746 0 0 187
-65.9166 -21.0469 -27.3016 0 0 187
-65.4705 -21.4396 -26.3329 0 0 229
-66.072 -40.0938 -18.9119 0 0 190
-65.3984 -40.1706 -18.0847 0 0 190
-65.5435 -38.66 -19.0562 0 0 234
-66.072 -40.0938 -18.9119 0 0 146
-66.7219 -40.0633 -19.7177 0 0 146
-67.1407 -35.281 -22.5302 0 0 189
-66.6464 -33.7944 -22.6013 0 0 232
-67.2746 -33.6492 -23.4045 0 0 189
-67.0133 -36.9132 -21.6095 0 0 146
-67.1407 -35.281 -22.5302 0 0 146
-67.8599 -33.4578 -24.212 0 0 143
-68.3422 -33.3383 -25.0059 0 0 143
-62.5154 -37.3256 -13.8075 0 0 136
-62.6684 -37.4136 -14.725 0 0 136
-62.5219 -35.9877 -13.7757 0 0 204
-62.5154 -37.3256 -13.8075 0 0 170
-62.5664 -37.2537 -12.8651 0 0 170
-62.9071 -35.7816 -11.888 0 0 173
-62.7038 -37.1025 -11.9317 0 0 173
-63.0379 -36.9684 -10.9864 0 0 138
-62.7393 -34.6149 -12.7368 0 0 137
-62.9071 -35.7816 -11.888 0 0 137
-62.6601 -33.3688 -13.5912 0 0 171
-62.4937 -34.6697 -13.6876 0 0 205
-62.7393 -34.6149 -12.7368 0 0 171
-62.8 -32.1074 -13.4284 0 0 168
-62.5544 -32.1622 -14.3792 0 0 201
-62.6601 -33.3688 -13.5912 0 0 168
-63.0966 -30.8646 -13.2814 0 0 137
-62.8 -32.1074 -13.4284 0 0 137
-62.9725 -29.728 -13.9921 0 0 134
-63.0966 -30.8646 -13.2814 0 0 134
-63.7498 -23.0177 -15.3724 0 0 129
-63.6421 -24.1384 -15.0548 0 0 129
-63.4583 -22.5767 -16.3485 0 0 134
-63.7498 -23.0177 -15.3724 0 0 134
-63.2839 -22.251 -17.3383 0 0 165
-63.1561 -23.5126 -16.9426 0 0 196
-63.4583 -22.5767 -16.3485 0 0 165
-63.1235 -21.8197 -18.3864 0 0 137
-63.2839 -22.251 -17.3383 0 0 137
-63.1335 -21.4708 -19.4176 0 0 170
-62.9916 -22.838 -18.9637 0 0 204
-63.1235 -21.8197 -18.3864 0 0 170
-63.1366 -21.0372 -20.5011 0 0 139
-63.1335 -21.4708 -19.4176 0 0 139
-63.3337 -20.6657 -21.5391 0 0 174
-63.1987 -22.1177 -21.033 0 0 210
-63.1366 -21.0372 -20.5011 0 0 174
-63.4969 -20.2243 -22.6286 0 0 141
-63.3337 -20.6657 -21.5391 0 0 141
-63.8463 -19.834 -23.6506 0 0 179
-63.7452 -21.3558 -23.0931 0 0 217
-63.4969 -20.2243 -22.6286 0 0 179
-63.8856 -18.2543 -24.2618 0 0 142
-63.9312 -16.727 -24.7733 0 0 142
-64.1339 -19.3858 -24.7263 0 0 223
-63.8463 -19.834 -23.6506 0 0 183
-63.8856 -18.2543 -24.2618 0 0 183
-64.9238 -18.5393 -26.774 0 0 186
-64.5717 -18.9861 -25.7216 0 0 228
-64.5253 -17.3593 -26.3898 0 0 186
-65.4162 -19.7734 -27.0746 0 0 144
-64.9238 -18.5393 -26.774 0 0 144
3 46 15 47
3 48 47 13
3 46 47 48
3 50 49 15
3 0 18 16
3 2 21 19
3 2 23 21
3 1 26 24
3 51 29 52
3 53 52 27
3 51 52 53
3 4 30 12
3 4 31 30
3 5 34 32
3 7 35 14
3 7 54 56
3 56 55 35
3 54 55 56
3 7 57 58
3 9 36 17
3 9 37 36
3 3 38 28
3 10 39 20
3 10 40 39
3 10 41 40
3 11 42 22
3 11 43 42
3 8 59 60
3 62 61 25
3 6 63 65
3 65 64 33
3 63 64 65
3 66 44 67
3 68 45 69
3 71 70 45
3 72 12 73
3 74 12 75
3 76 4 77
3 78 77 12
3 76 77 78
3 13 14 5
3 15 14 13
3 15 7 14
3 15 79 81
3 81 80 7
3 79 80 81
3 83 82 15
3 16 84 86
3 84 17 85
3 84 85 86
3 18 17 16
3 18 9 17
3 19 20 3
3 21 20 19
3 21 10 20
3 21 22 10
3 23 22 21
3 23 11 22
3 24 25 8
3 26 25 24
3 26 87 89
3 89 88 25
3 87 88 89
3 91 90 6
3 27 28 0
3 29 28 27
3 29 3 28
3 12 92 94
3 92 29 93
3 92 93 94
3 30 29 12
3 30 3 29
3 30 19 3
3 31 19 30
3 31 2 19
3 32 33 1
3 34 33 32
3 34 6 33
3 14 34 5
3 35 34 14
3 35 6 34
3 35 95 97
3 97 96 6
3 95 96 97
3 99 98 35
3 101 100 7
3 102 8 103
3 17 104 105
3 36 106 108
3 108 107 17
3 106 107 108
3 36 109 111
3 109 8 110
3 109 110 111
3 36 24 8
3 37 24 36
3 37 1 24
3 28 18 0
3 38 18 28
3 38 9 18
3 20 38 3
3 39 38 20
3 39 9 38
3 39 37 9
3 40 37 39
3 40 1 37
3 40 32 1
3 41 32 40
3 41 5 32
3 22 41 10
3 42 41 22
3 42 5 41
3 42 13 5
3 43 13 42
3 43 112 114
3 114 113 13
3 112 113 114
3 25 115 117
3 117 116 8
3 115 116 117
3 119 118 25
3 33 26 1
3 120 26 121
3 122 121 33
3 120 121 122
3 124 123 26
3 126 125 6
3 127 16 128
3 44 129 131
3 129 16 130
3 129 130 131
3 44 0 16
3 132 44 133
3 132 133 134
3 135 44 136
3 137 0 138
3 139 138 44
3 137 138 139
3 140 27 141
3 142 141 0
3 140 141 142
3 143 27 144
3 146 145 27
3 147 4 148
3 149 4 150
3 151 31 152
3 153 152 4
3 151 152 153
3 154 31 155
3 156 2 157
3 158 157 31
3 156 157 158
3 159 2 160
3 161 23 162
3 163 162 2
3 161 162 163
3 164 23 165
3 166 11 167
3 168 167 23
3 166 167 168
3 45 169 170
3 45 171 173
3 171 11 172
3 171 172 173
3 45 43 11
3 174 43 175
3 176 175 45
3 174 175 176
3 178 177 43
