ply
format ascii 1.0
element vertex 143
property float x
property float y
property float z
property uchar red
property uchar green
property uchar blue
element face 134
property list uchar int vertex_index
end_header
57.305 -53.7412 4.07722 0 177 255
59.8047 -50.2435 8.66901 238 0 0
62.8378 -46.3178 6.68576 131 255 124
63.412 -48.8771 11.2898 139 255 116
56.9941 -55.9292 7.25938 233 255 22
60.1204 -52.6761 13.1887 89 255 166
57.6175 -54.263 10.2912 255 137 0
57.5929 -52.02 6.15119 234 255 21
59.3613 -48.0211 4.32212 119 255 136
57.455 -52.2465 3.2665 0 132 255
57.7381 -53.6083 2.66213 0 159 255
56.7993 -57.1842 9.24423 37 255 218
57.1426 -57.9646 7.53498 0 205 255
57.6146 -55.4594 12.4855 4 255 251
56.9522 -56.3252 10.8935 62 255 193
57.0507 -55.1201 8.79265 255 228 0
61.2491 -48.272 7.70045 150 0 0
60.9307 -47.0876 5.47763 209 255 46
59.5879 -49.0917 6.47637 255 25 0
58.3503 -50.0428 5.29633 255 178 0
58.4609 -51.0927 7.39337 255 127 0
63.171 -47.5903 8.9665 255 237 0
61.5105 -49.504 9.96365 128 0 0
57.1535 -54.7263 5.4716 95 255 160
57.6013 -55.1732 4.02086 0 231 255
57.4101 -56.5847 5.66441 0 239 255
61.703 -50.7565 12.2671 249 255 6
59.9859 -51.4504 10.906 203 0 0
58.6706 -53.4345 11.7551 255 253 0
58.5765 -52.2381 9.54451 255 72 0
57.6037 -53.0965 8.17657 255 204 0
57.1332 -53.9645 6.81477 189 255 66
57.2351 -52.9552 4.99617 78 255 177
58.288 -49.1129 3.23301 0 205 255
57.6353 -51.1011 4.19714 42 255 213
58.4022 -55.2918 2.3422 0 105 255
56.7991 -58.2383 9.4028 0 0 136
56.6828 -57.8039 10.3009 0 0 136
56.7592 -57.3744 11.1256 0 0 136
56.8941 -56.9238 11.9906 0 0 136
56.6828 -57.8039 10.3009 0 0 165
56.8758 -56.7547 10.0689 0 0 196
56.7592 -57.3744 11.1256 0 0 165
63.2915 -48.2337 10.1281 0 0 242
64.1634 -47.3121 9.63125 0 0 196
64.284 -47.9555 10.7929 0 0 196
57.5299 -58.2802 6.64557 0 0 137
57.3138 -59.0161 7.6203 0 0 137
60.9117 -51.7163 12.7279 0 0 234
61.7651 -51.3767 13.4391 0 0 191
60.9738 -52.3365 13.8999 0 0 191
62.6305 -45.6989 5.56879 0 0 150
63.662 -45.3471 6.18 0 0 150
59.97 -46.9934 3.80814 0 0 182
60.7547 -46.5266 4.3859 0 0 182
60.146 -47.5544 4.89987 0 0 221
59.2612 -47.5288 3.25898 0 0 140
59.97 -46.9934 3.80814 0 0 140
58.8247 -48.567 3.77757 0 0 202
58.7245 -48.0747 2.71443 0 0 169
59.2612 -47.5288 3.25898 0 0 169
58.3124 -56.1516 3.15076 0 0 159
58.0018 -55.2325 3.18153 0 0 187
57.912 -56.0923 3.99009 0 0 159
57.6709 -52.0076 2.36428 0 0 128
57.6256 -51.3008 2.76133 0 0 128
57.8125 -52.6885 2.06209 0 0 149
57.6709 -52.0076 2.36428 0 0 149
57.5966 -52.9274 2.96432 0 0 171
58.1135 -53.5005 1.77446 0 0 130
57.8125 -52.6885 2.06209 0 0 130
64.3665 -48.6106 11.9838 0 0 150
64.284 -47.9555 10.7929 0 0 150
56.9707 -58.6285 8.54817 0 0 165
56.9709 -57.5744 8.3896 0 0 196
56.7991 -58.2383 9.4028 0 0 165
57.3138 -59.0161 7.6203 0 0 137
56.9707 -58.6285 8.54817 0 0 137
60.1663 -53.2806 14.3529 0 0 190
60.9738 -52.3365 13.8999 0 0 190
61.0197 -52.9411 15.0641 0 0 147
57.2253 -56.4909 12.7866 0 0 139
57.6069 -56.0507 13.6165 0 0 139
57.2834 -55.8923 11.6895 0 0 203
57.2253 -56.4909 12.7866 0 0 170
56.8941 -56.9238 11.9906 0 0 170
63.8579 -46.0107 7.32242 0 0 151
63.662 -45.3471 6.18 0 0 151
64.0245 -46.647 8.46279 0 0 151
64.1634 -47.3121 9.63125 0 0 151
63.0044 -46.954 7.82613 0 0 243
63.8579 -46.0107 7.32242 0 0 197
64.0245 -46.647 8.46279 0 0 197
57.8164 -56.798 4.81187 0 0 159
57.912 -56.0923 3.99009 0 0 159
57.5057 -55.8789 4.84263 0 0 186
57.6637 -57.5902 5.71029 0 0 166
57.2764 -57.2747 6.59969 0 0 197
57.5299 -58.2802 6.64557 0 0 166
57.8164 -56.798 4.81187 0 0 134
57.6637 -57.5902 5.71029 0 0 134
63.4864 -49.5138 12.4714 0 0 195
64.3665 -48.6106 11.9838 0 0 195
64.4408 -49.2474 13.1654 0 0 150
62.6319 -50.4535 12.96 0 0 149
61.7651 -51.3767 13.4391 0 0 149
62.5575 -49.8168 11.7784 0 0 241
63.4864 -49.5138 12.4714 0 0 195
62.6319 -50.4535 12.96 0 0 195
59.4287 -53.6572 13.6055 0 0 145
60.1663 -53.2806 14.3529 0 0 145
58.1758 -55.0489 13.2539 0 0 141
57.6069 -56.0507 13.6165 0 0 141
58.7038 -54.0365 12.8888 0 0 177
58.1758 -55.0489 13.2539 0 0 177
58.1426 -54.447 12.1203 0 0 214
59.3955 -53.0553 12.4719 0 0 222
59.4287 -53.6572 13.6055 0 0 183
58.7038 -54.0365 12.8888 0 0 183
61.677 -46.0838 4.96472 0 0 192
62.6305 -45.6989 5.56879 0 0 192
61.8842 -46.7027 6.08169 0 0 236
61.677 -46.0838 4.96472 0 0 146
60.7547 -46.5266 4.3859 0 0 146
58.3037 -48.6996 2.20464 0 0 135
58.7245 -48.0747 2.71443 0 0 135
58.042 -49.734 2.74458 0 0 132
58.3037 -48.6996 2.20464 0 0 132
57.7157 -50.7281 3.22665 0 0 156
58.042 -49.734 2.74458 0 0 156
57.9616 -50.107 3.71508 0 0 182
57.5452 -51.6738 3.73182 0 0 174
57.6256 -51.3008 2.76133 0 0 150
57.7157 -50.7281 3.22665 0 0 150
58.4455 -54.3422 1.61449 0 0 159
58.1135 -53.5005 1.77446 0 0 159
58.0701 -54.45 2.50216 0 0 186
58.8705 -56.2511 2.23733 0 0 137
58.3124 -56.1516 3.15076 0 0 137
58.9384 -55.2569 1.41669 0 0 139
58.8705 -56.2511 2.23733 0 0 139
58.4455 -54.3422 1.61449 0 0 137
58.9384 -55.2569 1.41669 0 0 137
3 0 10 9
3 37 36 11
3 38 14 39
3 40 11 41
3 42 41 14
3 40 41 42
3 1 18 16
3 1 20 18
3 3 43 45
3 43 21 44
3 43 44 45
3 3 22 21
3 4 25 23
3 47 46 12
3 5 48 50
3 48 26 49
3 48 49 50
3 5 27 26
3 6 28 13
3 6 29 28
3 6 30 29
3 4 31 15
3 4 23 31
3 2 51 52
3 8 53 55
3 55 54 17
3 53 54 55
3 8 56 57
3 8 58 60
3 58 33 59
3 58 59 60
3 7 34 19
3 7 32 34
3 61 35 62
3 63 62 24
3 61 62 63
3 9 64 65
3 10 66 68
3 68 67 9
3 66 67 68
3 10 69 70
3 71 3 72
3 11 12 4
3 73 12 74
3 75 74 11
3 73 74 75
3 77 76 12
3 78 5 79
3 78 79 80
3 81 13 82
3 14 83 85
3 83 13 84
3 83 84 85
3 14 6 13
3 14 15 6
3 11 15 14
3 11 4 15
3 16 17 2
3 18 17 16
3 18 8 17
3 18 19 8
3 20 19 18
3 20 7 19
3 86 2 87
3 21 88 89
3 21 90 92
3 90 2 91
3 90 91 92
3 21 16 2
3 22 16 21
3 22 1 16
3 23 24 0
3 25 24 23
3 25 93 95
3 95 94 24
3 93 94 95
3 12 25 4
3 96 25 97
3 98 97 12
3 96 97 98
3 100 99 25
3 101 3 102
3 101 102 103
3 26 104 105
3 26 106 108
3 106 3 107
3 106 107 108
3 26 22 3
3 27 22 26
3 27 1 22
3 109 5 110
3 13 111 112
3 28 113 115
3 115 114 13
3 113 114 115
3 28 116 118
3 116 5 117
3 116 117 118
3 28 27 5
3 29 27 28
3 29 1 27
3 29 20 1
3 30 20 29
3 30 7 20
3 15 30 6
3 31 30 15
3 31 7 30
3 31 32 7
3 23 32 31
3 23 0 32
3 17 119 121
3 121 120 2
3 119 120 121
3 123 122 17
3 33 124 125
3 33 126 127
3 19 33 8
3 34 33 19
3 34 128 130
3 130 129 33
3 128 129 130
3 34 131 133
3 131 9 132
3 131 132 133
3 32 9 34
3 32 0 9
3 24 10 0
3 35 10 24
3 35 134 136
3 136 135 10
3 134 135 136
3 137 35 138
3 139 35 140
3 142 141 35
