ply
format ascii 1.0
element vertex 169
property float x
property float y
property float z
property uchar red
property uchar green
property uchar blue
element face 160
property list uchar int vertex_index
end_header
-31.324 -1.92177 64.9727 196 0 0
-34.3639 -10.457 71.6352 0 242 255
-25.2359 -8.86697 72.7109 111 255 144
-22.2929 1.82375 66.9049 238 255 17
-36.2113 -3.17352 64.7809 255 255 0
-30.1025 3.32743 63.299 82 255 173
-25.6277 5.50802 64.202 87 255 168
-26.4919 -0.380018 65.5401 171 0 0
-37.231 -7.47378 67.7906 0 233 255
-32.9433 -6.41067 68.1319 227 0 0
-28.0898 -5.42176 68.3852 139 0 0
-29.9773 -9.70608 72.1507 198 255 57
-23.466 -3.98423 69.2366 246 255 9
-33.8097 -2.5516 64.8667 232 0 0
-35.6018 -0.855715 63.5876 49 255 206
-33.1234 -0.151211 63.7285 188 255 67
-30.6361 0.601339 63.9263 255 186 0
-28.2259 1.46033 64.2359 187 0 0
-28.8568 -1.21659 65.1767 180 0 0
-35.7797 -8.94386 69.6967 86 255 169
-35.2138 -6.89671 68.023 255 63 0
-33.7193 -8.46204 69.9438 255 45 0
-31.4353 -8.05094 70.0911 210 0 0
-32.2669 -10.0583 71.9314 146 255 109
-23.8764 3.65769 65.3504 255 161 0
-22.0035 5.03339 66.2067 0 235 255
-26.6333 -7.15003 70.4772 128 0 0
-25.7102 -4.78397 68.7047 129 0 0
-24.3052 -6.53494 70.8785 249 255 6
-38.4165 -3.85669 64.6253 0 151 255
-27.7845 4.33878 63.6888 209 255 46
-25.9581 2.47005 64.7001 178 0 0
-24.291 0.626822 66.1073 157 0 0
-36.7771 -5.36182 66.2375 224 255 31
-34.5317 -4.78475 66.3478 255 3 0
-32.117 -4.24804 66.4134 197 0 0
-29.6457 -3.67914 66.53 166 0 0
-30.5322 -5.9432 68.2206 168 0 0
-29.0388 -7.63662 70.2389 153 0 0
-27.6019 -9.32969 72.3839 229 255 26
-27.2172 -3.01179 66.7789 153 0 0
-24.9109 -2.19441 67.2223 145 0 0
-22.7827 -1.19451 67.9006 241 255 14
-35.0718 -9.70042 70.6659 0 0 189
-35.9717 -9.95891 70.4333 0 0 159
-35.2637 -10.7155 71.4025 0 0 159
-21.4032 2.51819 67.4221 0 0 187
-21.2585 4.12302 67.073 0 0 187
-22.1482 3.42857 66.5558 0 0 231
-37.0902 -2.37561 64.1079 0 0 169
-38.1928 -2.7172 64.0301 0 0 169
-37.3139 -3.51511 64.7031 0 0 203
-36.5303 -0.00994 63.0635 0 0 137
-35.3086 0.386613 63.1753 0 0 137
-31.0931 4.27435 62.9798 0 0 140
-31.3188 2.88378 63.1504 0 0 140
-29.9226 4.7827 63.1603 0 0 140
-31.0931 4.27435 62.9798 0 0 140
-28.9435 3.83311 63.4939 0 0 223
-28.7636 5.28837 63.3552 0 0 181
-29.9226 4.7827 63.1603 0 0 181
-38.064 -7.83776 67.5644 0 0 128
-37.3727 -8.51885 68.5213 0 0 128
-37.9864 -6.7602 66.8862 0 0 128
-38.064 -7.83776 67.5644 0 0 128
-37.0041 -6.4178 67.0141 0 0 197
-37.7594 -5.70422 66.1097 0 0 164
-37.9864 -6.7602 66.8862 0 0 164
-25.554 7.09759 64.0605 0 0 182
-26.5057 8.03573 63.6752 0 0 141
-26.5794 6.44616 63.8167 0 0 182
-34.0693 0.738865 63.2458 0 0 177
-35.3086 0.386613 63.1753 0 0 177
-34.3626 -0.503463 63.658 0 0 215
-32.8292 1.14446 63.3652 0 0 139
-34.0693 0.738865 63.2458 0 0 139
-31.5855 1.52074 63.4641 0 0 179
-32.8292 1.14446 63.3652 0 0 179
-31.8797 0.225064 63.8274 0 0 219
-30.3693 1.96439 63.6126 0 0 222
-31.3188 2.88378 63.1504 0 0 181
-31.5855 1.52074 63.4641 0 0 181
-36.6471 -9.25388 69.4743 0 0 128
-35.9717 -9.95891 70.4333 0 0 128
-36.5054 -8.20882 68.7437 0 0 188
-37.3727 -8.51885 68.5213 0 0 158
-36.6471 -9.25388 69.4743 0 0 158
-23.7683 5.25583 65.1084 0 0 183
-24.6439 6.181 64.5342 0 0 183
-24.752 4.58285 64.7762 0 0 225
-22.8318 5.94369 65.5365 0 0 183
-23.7683 5.25583 65.1084 0 0 183
-22.9399 4.34554 65.7786 0 0 225
-21.9479 6.70748 65.9554 0 0 185
-22.7762 7.61777 65.2853 0 0 142
-22.8318 5.94369 65.5365 0 0 185
-21.1728 5.81277 66.7397 0 0 143
-21.9479 6.70748 65.9554 0 0 143
-21.1728 5.81277 66.7397 0 0 144
-21.2585 4.12302 67.073 0 0 144
-34.588 -11.4438 72.3216 0 0 128
-35.2637 -10.7155 71.4025 0 0 128
-33.6556 -11.2359 72.5777 0 0 129
-34.588 -11.4438 72.3216 0 0 129
-39.2666 -3.11829 63.9079 0 0 161
-40.2172 -3.52021 63.7485 0 0 130
-39.3672 -4.25861 64.4659 0 0 161
-39.2666 -3.11829 63.9079 0 0 133
-38.1928 -2.7172 64.0301 0 0 133
-36.7855 -1.21671 63.5112 0 0 174
-37.0902 -2.37561 64.1079 0 0 174
-35.9066 -2.01462 64.1842 0 0 211
-36.7855 -1.21671 63.5112 0 0 136
-36.5303 -0.00994 63.0635 0 0 136
-27.6578 5.86154 63.5602 0 0 141
-28.7636 5.28837 63.3552 0 0 141
-26.7061 4.9234 63.9454 0 0 223
-26.5794 6.44616 63.8167 0 0 181
-27.6578 5.86154 63.5602 0 0 181
-24.0959 -8.56812 72.9525 0 0 142
-24.5424 -9.72277 73.8424 0 0 142
-38.5791 -4.95166 65.3036 0 0 131
-39.3672 -4.25861 64.4659 0 0 131
-37.5968 -4.60926 65.4314 0 0 196
-38.5791 -4.95166 65.3036 0 0 163
-37.7594 -5.70422 66.1097 0 0 163
-32.6071 -11.0366 72.7258 0 0 166
-33.3154 -10.2576 71.7833 0 0 200
-33.6556 -11.2359 72.5777 0 0 166
-31.5421 -10.8726 72.9137 0 0 133
-32.6071 -11.0366 72.7258 0 0 133
-30.3973 -10.6965 73.0234 0 0 175
-31.1221 -9.88217 72.041 0 0 213
-31.5421 -10.8726 72.9137 0 0 175
-29.2522 -10.542 73.1825 0 0 137
-30.3973 -10.6965 73.0234 0 0 137
-28.0645 -10.3538 73.2991 0 0 181
-28.7896 -9.51788 72.2673 0 0 222
-29.2522 -10.542 73.1825 0 0 181
-26.8891 -10.1779 73.4677 0 0 140
-28.0645 -10.3538 73.2991 0 0 140
-25.7061 -9.94653 73.6312 0 0 184
-26.4189 -9.09833 72.5474 0 0 226
-26.8891 -10.1779 73.4677 0 0 184
-24.5424 -9.72277 73.8424 0 0 141
-25.7061 -9.94653 73.6312 0 0 141
-24.5703 7.77057 64.3927 0 0 140
-25.554 7.09759 64.0605 0 0 181
-24.6439 6.181 64.5342 0 0 181
-23.6305 -7.40211 72.0363 0 0 187
-24.7706 -7.70096 71.7947 0 0 231
-24.0959 -8.56812 72.9525 0 0 187
-23.2118 -6.14365 71.1854 0 0 143
-23.6305 -7.40211 72.0363 0 0 143
-22.7923 -4.86829 70.3645 0 0 187
-23.8856 -5.25959 70.0576 0 0 231
-23.2118 -6.14365 71.1854 0 0 187
-22.436 -3.49036 69.6253 0 0 144
-22.7923 -4.86829 70.3645 0 0 144
-22.0944 -2.0955 68.9573 0 0 186
-23.1243 -2.58937 68.5686 0 0 230
-22.436 -3.49036 69.6253 0 0 186
-21.8239 -0.596923 68.3657 0 0 144
-22.0944 -2.0955 68.9573 0 0 144
-21.579 0.912205 67.8679 0 0 186
-22.5378 0.31462 67.4028 0 0 230
-21.8239 -0.596923 68.3657 0 0 186
-21.4032 2.51819 67.4221 0 0 144
-21.579 0.912205 67.8679 0 0 144
3 0 15 13
3 0 16 15
3 0 18 16
3 1 43 45
3 43 19 44
3 43 44 45
3 1 21 19
3 1 23 21
3 3 25 24
3 3 46 48
3 48 47 25
3 46 47 48
3 2 28 26
3 4 49 51
3 51 50 29
3 49 50 51
3 53 52 14
3 5 54 55
3 5 56 57
3 5 58 60
3 58 30 59
3 58 59 60
3 7 31 17
3 7 32 31
3 8 61 62
3 8 63 64
3 8 65 67
3 65 33 66
3 65 66 67
3 9 34 20
3 9 35 34
3 9 37 35
3 11 38 22
3 11 39 38
3 6 68 70
3 68 69 70
3 10 40 36
3 12 41 27
3 12 42 41
3 13 14 4
3 15 14 13
3 15 71 73
3 73 72 14
3 71 72 73
3 15 74 75
3 16 76 78
3 78 77 15
3 76 77 78
3 16 79 81
3 79 5 80
3 79 80 81
3 16 17 5
3 18 17 16
3 18 7 17
3 19 82 83
3 19 84 86
3 84 8 85
3 84 85 86
3 19 20 8
3 21 20 19
3 21 9 20
3 21 22 9
3 23 22 21
3 23 11 22
3 24 87 89
3 89 88 6
3 87 88 89
3 25 90 92
3 92 91 24
3 90 91 92
3 25 93 95
3 93 94 95
3 25 96 97
3 99 98 25
3 26 27 10
3 28 27 26
3 28 12 27
3 100 1 101
3 103 102 1
3 29 104 106
3 104 105 106
3 108 107 29
3 14 109 111
3 111 110 4
3 109 110 111
3 113 112 14
3 30 114 115
3 30 116 118
3 116 6 117
3 116 117 118
3 17 30 5
3 31 30 17
3 31 6 30
3 31 24 6
3 32 24 31
3 32 3 24
3 120 119 2
3 121 29 122
3 33 123 125
3 123 29 124
3 123 124 125
3 33 4 29
3 20 33 8
3 34 33 20
3 34 4 33
3 34 13 4
3 35 13 34
3 35 0 13
3 35 36 0
3 37 36 35
3 37 10 36
3 22 37 9
3 38 37 22
3 38 10 37
3 38 26 10
3 39 26 38
3 39 2 26
3 126 23 127
3 128 127 1
3 126 127 128
3 129 23 130
3 131 11 132
3 133 132 23
3 131 132 133
3 134 11 135
3 136 39 137
3 138 137 11
3 136 137 138
3 139 39 140
3 141 2 142
3 143 142 39
3 141 142 143
3 145 144 2
3 148 147 6
3 146 147 148
3 36 18 0
3 40 18 36
3 40 7 18
3 27 40 10
3 41 40 27
3 41 7 40
3 41 32 7
3 42 32 41
3 42 3 32
3 149 28 150
3 151 150 2
3 149 150 151
3 152 28 153
3 154 12 155
3 156 155 28
3 154 155 156
3 157 12 158
3 159 42 160
3 161 160 12
3 159 160 161
3 162 42 163
3 164 3 165
3 166 165 42
3 164 165 166
3 168 167 3
