ply
format ascii 1.0
element vertex 217
property float x
property float y
property float z
property uchar red
property uchar green
property uchar blue
element face 208
property list uchar int vertex_index
end_header
-66.6906 -57.0178 17.0051 255 103 0
-65.07 -61.2991 27.0805 255 48 0
-64.958 -54.8749 25.1957 190 255 65
-64.3642 -60.3437 18.0447 255 143 0
-67.4895 -53.4169 12.2567 192 255 63
-62.5155 -64.1219 28.2085 227 255 28
-63.4368 -62.7127 23.0934 138 0 0
-65.8736 -59.7276 21.9819 255 93 0
-65.6134 -58.8098 31.2714 121 255 134
-65.9754 -58.2334 26.1631 255 96 0
-66.3922 -56.4434 21.0815 255 87 0
-64.8601 -52.9783 20.1467 110 255 145
-67.0015 -53.4727 16.1389 207 255 48
-67.7372 -49.6531 11.4564 0 238 255
-65.7512 -58.7169 17.4896 246 0 0
-64.8256 -58.8268 15.5734 109 255 146
-66.1865 -57.0952 15.0529 255 236 0
-66.5976 -55.2969 12.6791 45 255 210
-67.0998 -55.3037 14.5961 255 101 0
-63.9557 -62.729 27.6043 216 0 0
-62.9774 -63.5339 25.6465 255 155 0
-64.4127 -62.1247 25.0445 239 0 0
-64.8609 -61.2555 22.4985 250 0 0
-65.4737 -60.6587 24.5222 255 76 0
-65.142 -55.3556 27.7175 58 255 197
-65.6945 -57.0451 28.2456 240 255 15
-65.6962 -56.5857 25.7027 255 29 0
-66.1637 -57.4967 23.6127 255 95 0
-65.7445 -55.8105 23.1606 255 5 0
-66.0697 -53.3338 18.1391 183 255 72
-67.3643 -51.6422 13.7585 89 255 166
-62.6239 -61.9041 18.6872 163 255 92
-67.8373 -51.4122 9.99584 0 243 255
-62.0436 -64.5013 30.7761 0 235 255
-63.4797 -63.0934 30.1715 207 255 48
-64.6477 -61.6703 29.6473 255 243 0
-61.709 -64.1247 23.7817 145 255 110
-62.1563 -63.1194 21.2264 255 219 0
-63.899 -61.6471 20.5559 128 0 0
-65.3068 -60.1148 19.976 252 0 0
-66.2789 -58.5064 19.4717 255 101 0
-65.0969 -60.3373 31.7377 29 255 226
-65.4455 -60.2 29.1746 255 72 0
-65.7001 -57.2117 30.7782 20 255 235
-65.8029 -58.6612 28.7195 255 87 0
-65.7628 -59.805 26.6107 255 103 0
-66.0731 -59.1168 24.0552 255 122 0
-66.3966 -58.1205 21.5198 255 132 0
-66.7447 -56.8246 19.0184 255 137 0
-64.8554 -54.0807 22.667 214 255 41
-65.8658 -54.7192 20.6338 232 0 0
-66.6724 -55.0898 18.5849 255 79 0
-67.1173 -55.26 16.5655 255 141 0
-67.5028 -53.4742 14.1754 255 147 0
-67.8812 -51.5228 11.8598 255 156 0
-68.2277 -49.4601 9.62704 0 222 255
-68.5175 -47.3323 7.4808 0 30 255
-63.735 -60.4192 17.1108 0 0 193
-62.8648 -61.1994 17.432 0 0 193
-63.4941 -61.1239 18.3659 0 0 240
-64.2069 -58.8736 14.6422 0 0 147
-65.0472 -57.981 14.365 0 0 147
-67.2267 -53.3955 11.3178 0 0 171
-66.7808 -54.3355 11.529 0 0 171
-67.0436 -54.3569 12.4679 0 0 208
-67.6634 -52.4145 11.1263 0 0 211
-67.4006 -52.3931 10.1874 0 0 173
-67.2267 -53.3955 11.3178 0 0 173
-61.7991 -64.6027 32.0611 0 0 189
-61.2484 -65.2151 31.1296 0 0 189
-61.0039 -65.3165 32.4146 0 0 144
-63.8351 -62.4518 31.1935 0 0 139
-63.2273 -63.1742 31.4563 0 0 139
-64.4191 -61.7402 30.9314 0 0 179
-64.0637 -62.3819 29.9094 0 0 219
-63.8351 -62.4518 31.1935 0 0 179
-61.8981 -64.5204 27.2766 0 0 143
-61.6903 -64.8178 28.5603 0 0 143
-65.3551 -59.5735 31.5045 0 0 207
-65.2342 -59.5315 32.7736 0 0 171
-65.4924 -58.7677 32.5404 0 0 171
-65.5322 -56.3753 30.4997 0 0 136
-65.6348 -56.336 31.7386 0 0 136
-64.2139 -52.6563 21.127 0 0 145
-64.153 -52.1151 19.873 0 0 145
-64.8578 -53.5295 21.4069 0 0 236
-64.2115 -53.2076 22.3872 0 0 190
-64.2139 -52.6563 21.127 0 0 190
-68.4623 -46.363 7.29916 0 0 129
-68.3054 -47.4443 8.36108 0 0 129
-68.6231 -46.2528 6.45035 0 0 128
-68.4623 -46.363 7.29916 0 0 128
-65.7277 -57.1152 14.1047 0 0 182
-65.0472 -57.981 14.365 0 0 182
-65.5061 -57.961 15.3132 0 0 224
-66.3921 -56.196 13.866 0 0 227
-65.9332 -56.2161 12.9178 0 0 184
-65.7277 -57.1152 14.1047 0 0 184
-65.6401 -57.9686 32.2815 0 0 172
-65.4924 -58.7677 32.5404 0 0 172
-65.5191 -57.9266 33.5505 0 0 135
-65.4183 -56.2003 27.9815 0 0 213
-65.5293 -56.292 29.2334 0 0 175
-65.2531 -55.4472 28.9693 0 0 175
-64.9193 -52.2853 18.9 0 0 147
-64.153 -52.1151 19.873 0 0 147
-65.5241 -52.4631 17.8961 0 0 185
-65.4649 -53.156 19.1429 0 0 228
-64.9193 -52.2853 18.9 0 0 185
-66.2097 -52.5138 16.9166 0 0 143
-65.5241 -52.4631 17.8961 0 0 143
-66.6756 -52.5832 15.9165 0 0 174
-66.5356 -53.4032 17.139 0 0 212
-66.2097 -52.5138 16.9166 0 0 174
-66.857 -51.668 14.7263 0 0 173
-67.1829 -52.5574 14.9487 0 0 211
-66.6756 -52.5832 15.9165 0 0 173
-67.0255 -50.7453 13.5372 0 0 136
-66.857 -51.668 14.7263 0 0 136
-67.2119 -49.7508 12.3861 0 0 172
-67.5508 -50.6476 12.6075 0 0 209
-67.0255 -50.7453 13.5372 0 0 172
-61.8786 -62.0087 17.7795 0 0 201
-60.888 -62.7674 18.1477 0 0 150
-61.6333 -62.6628 19.0554 0 0 201
-61.8786 -62.0087 17.7795 0 0 151
-62.8648 -61.1994 17.432 0 0 151
-63.9657 -59.6607 15.8752 0 0 194
-63.735 -60.4192 17.1108 0 0 194
-64.5949 -59.5852 16.8091 0 0 242
-63.9657 -59.6607 15.8752 0 0 146
-64.2069 -58.8736 14.6422 0 0 146
-66.1357 -55.3061 11.743 0 0 141
-65.9332 -56.2161 12.9178 0 0 141
-66.1357 -55.3061 11.743 0 0 142
-66.7808 -54.3355 11.529 0 0 142
-67.5499 -51.3938 9.07728 0 0 135
-67.4006 -52.3931 10.1874 0 0 135
-67.9784 -50.3753 8.90698 0 0 136
-67.5499 -51.3938 9.07728 0 0 136
-61.4543 -65.0074 29.8441 0 0 143
-61.2484 -65.2151 31.1296 0 0 143
-62.2796 -64.3116 29.4923 0 0 234
-61.6903 -64.8178 28.5603 0 0 189
-61.4543 -65.0074 29.8441 0 0 189
-62.5093 -63.8782 31.7586 0 0 142
-61.7991 -64.6027 32.0611 0 0 142
-62.7617 -63.7974 30.4738 0 0 228
-62.5093 -63.8782 31.7586 0 0 185
-63.2273 -63.1742 31.4563 0 0 185
-64.8982 -54.5761 28.6431 0 0 139
-65.2531 -55.4472 28.9693 0 0 139
-64.6741 -54.4806 27.4114 0 0 140
-64.8982 -54.5761 28.6431 0 0 140
-64.5821 -54.2403 26.1505 0 0 181
-65.05 -55.1153 26.4566 0 0 223
-64.6741 -54.4806 27.4114 0 0 181
-62.129 -64.2264 25.9956 0 0 189
-61.8981 -64.5204 27.2766 0 0 189
-62.7464 -63.8279 26.9275 0 0 234
-61.4948 -64.5218 25.0633 0 0 188
-62.129 -64.2264 25.9956 0 0 188
-62.3432 -63.8293 24.7141 0 0 233
-60.7538 -64.8266 24.1761 0 0 147
-61.4948 -64.5218 25.0633 0 0 147
-60.9529 -64.3439 22.8876 0 0 148
-60.7538 -64.8266 24.1761 0 0 148
-61.1765 -63.8412 21.61 0 0 198
-60.9529 -64.3439 22.8876 0 0 198
-61.9326 -63.6221 22.5041 0 0 248
-61.3995 -63.2704 20.325 0 0 149
-61.1765 -63.8412 21.61 0 0 149
-62.3901 -62.5117 19.9568 0 0 252
-61.6333 -62.6628 19.0554 0 0 201
-61.3995 -63.2704 20.325 0 0 201
-64.8949 -60.3013 33.0143 0 0 136
-65.2342 -59.5315 32.7736 0 0 136
-64.6437 -61.0738 31.9765 0 0 137
-64.8949 -60.3013 33.0143 0 0 137
-64.8723 -61.0038 30.6925 0 0 212
-64.4191 -61.7402 30.9314 0 0 174
-64.6437 -61.0738 31.9765 0 0 174
-65.6835 -57.1696 32.0349 0 0 136
-65.6348 -56.336 31.7386 0 0 136
-65.6568 -58.0107 31.0248 0 0 206
-65.6401 -57.9686 32.2815 0 0 170
-65.6835 -57.1696 32.0349 0 0 170
-65.6973 -57.1284 29.5119 0 0 210
-65.5322 -56.3753 30.4997 0 0 173
-65.5293 -56.292 29.2334 0 0 173
-64.3935 -53.9983 24.9052 0 0 141
-64.5821 -54.2403 26.1505 0 0 141
-64.3422 -53.6012 23.6408 0 0 143
-64.2115 -53.2076 22.3872 0 0 143
-64.9067 -54.4778 23.9314 0 0 228
-64.3935 -53.9983 24.9052 0 0 185
-64.3422 -53.6012 23.6408 0 0 185
-68.1736 -49.3993 8.72258 0 0 162
-67.9784 -50.3753 8.90698 0 0 162
-68.0325 -50.4362 9.81144 0 0 193
-67.3955 -48.7508 11.2378 0 0 136
-67.2119 -49.7508 12.3861 0 0 136
-67.9153 -48.6047 10.3489 0 0 134
-67.3955 -48.7508 11.2378 0 0 134
-68.1605 -48.5082 9.43421 0 0 161
-67.9825 -49.5566 10.5417 0 0 193
-67.9153 -48.6047 10.3489 0 0 161
-68.3726 -48.3962 8.55392 0 0 188
-68.1605 -48.5082 9.43421 0 0 158
-68.3054 -47.4443 8.36108 0 0 158
-68.3185 -48.3354 7.64946 0 0 163
-68.1736 -49.3993 8.72258 0 0 163
-68.3726 -48.3962 8.55392 0 0 196
-68.4159 -47.2826 6.60192 0 0 130
-68.3185 -48.3354 7.64946 0 0 130
-68.4159 -47.2826 6.60192 0 0 131
-68.6231 -46.2528 6.45035 0 0 131
3 0 16 14
3 0 18 16
3 1 21 19
3 1 23 21
3 2 26 24
3 2 28 26
3 3 57 59
3 59 58 31
3 57 58 59
3 61 60 15
3 4 62 64
3 64 63 17
3 62 63 64
3 4 65 67
3 65 32 66
3 65 66 67
3 68 33 69
3 68 69 70
3 71 34 72
3 73 35 74
3 75 74 34
3 73 74 75
3 5 76 77
3 6 36 20
3 6 37 36
3 6 38 37
3 7 39 22
3 7 40 39
3 8 78 80
3 78 41 79
3 78 79 80
3 8 42 41
3 81 43 82
3 9 44 25
3 9 45 44
3 9 46 45
3 10 47 27
3 10 48 47
3 11 83 84
3 11 85 87
3 85 49 86
3 85 86 87
3 11 50 49
3 12 51 29
3 12 52 51
3 12 53 52
3 13 54 30
3 13 55 54
3 88 56 89
3 91 90 56
3 14 15 3
3 16 15 14
3 16 92 94
3 94 93 15
3 92 93 94
3 16 95 97
3 95 17 96
3 95 96 97
3 18 17 16
3 18 4 17
3 19 20 5
3 21 20 19
3 21 6 20
3 21 22 6
3 23 22 21
3 23 7 22
3 98 8 99
3 98 99 100
3 24 101 103
3 101 25 102
3 101 102 103
3 26 25 24
3 26 9 25
3 26 27 9
3 28 27 26
3 28 10 27
3 104 11 105
3 106 29 107
3 108 107 11
3 106 107 108
3 109 29 110
3 111 12 112
3 113 112 29
3 111 112 113
3 114 30 115
3 116 115 12
3 114 115 116
3 117 30 118
3 119 13 120
3 121 120 30
3 119 120 121
3 31 122 124
3 122 123 124
3 126 125 31
3 15 127 129
3 129 128 3
3 127 128 129
3 131 130 15
3 17 132 133
3 135 134 17
3 32 136 137
3 32 138 139
3 33 140 141
3 33 142 144
3 142 5 143
3 142 143 144
3 145 33 146
3 34 147 149
3 147 33 148
3 147 148 149
3 34 5 33
3 34 19 5
3 35 19 34
3 35 1 19
3 150 24 151
3 152 24 153
3 154 2 155
3 156 155 24
3 154 155 156
3 20 157 159
3 159 158 5
3 157 158 159
3 36 160 162
3 162 161 20
3 160 161 162
3 36 163 164
3 36 165 166
3 37 167 169
3 169 168 36
3 167 168 169
3 37 170 171
3 37 172 174
3 172 31 173
3 172 173 174
3 38 31 37
3 38 3 31
3 22 38 6
3 39 38 22
3 39 3 38
3 39 14 3
3 40 14 39
3 40 0 14
3 41 175 176
3 41 177 178
3 41 179 181
3 179 35 180
3 179 180 181
3 42 35 41
3 42 1 35
3 43 182 183
3 43 184 186
3 184 8 185
3 184 185 186
3 25 187 189
3 187 43 188
3 187 188 189
3 44 43 25
3 44 8 43
3 44 42 8
3 45 42 44
3 45 1 42
3 45 23 1
3 46 23 45
3 46 7 23
3 27 46 9
3 47 46 27
3 47 7 46
3 47 40 7
3 48 40 47
3 48 0 40
3 190 2 191
3 49 192 193
3 49 194 196
3 194 2 195
3 194 195 196
3 49 28 2
3 50 28 49
3 50 10 28
3 29 50 11
3 51 50 29
3 51 10 50
3 51 48 10
3 52 48 51
3 52 0 48
3 52 18 0
3 53 18 52
3 53 4 18
3 30 53 12
3 54 53 30
3 54 4 53
3 54 32 4
3 55 32 54
3 55 197 199
3 199 198 32
3 197 198 199
3 200 13 201
3 202 13 203
3 204 55 205
3 206 205 13
3 204 205 206
3 56 207 209
3 207 55 208
3 207 208 209
3 56 210 212
3 212 211 55
3 210 211 212
3 56 213 214
3 216 215 56
