ply
format ascii 1.0
element vertex 160
property float x
property float y
property float z
property uchar red
property uchar green
property uchar blue
element face 145
property list uchar int vertex_index
end_header
-17.0084 -44.0075 84.2028 0 242 255
-10.0601 -39.568 86.5206 228 0 0
-13.476 -41.7486 85.9477 255 203 0
-9.56576 -43.6031 88.089 240 0 0
-16.0125 -34.8415 81.5774 66 255 189
-7.31468 -36.7526 86.8392 202 255 53
-6.2472 -41.1117 88.4245 143 255 112
-6.29655 -45.5732 89.3322 0 149 255
-9.52602 -32.3934 85.2539 142 255 113
-11.469 -35.7502 84.3362 188 0 0
-14.4181 -38.1668 84.0765 179 255 76
-15.2551 -42.8313 85.2542 219 255 36
-13.2416 -43.7464 86.4284 255 174 0
-15.0227 -44.9207 85.4098 120 255 135
-8.57044 -38.2827 86.6504 218 0 0
-6.63154 -38.9286 87.6726 170 255 85
-8.0737 -40.3338 87.5847 250 0 0
-9.61323 -45.7829 88.4279 59 255 196
-7.83989 -44.592 88.8703 253 255 2
-11.6278 -32.1616 83.8501 135 255 120
-10.3595 -34.2083 84.6962 128 0 0
-12.523 -33.8452 83.2821 255 160 0
-15.1307 -36.4947 82.8472 183 255 72
-11.7207 -40.6911 86.3324 231 0 0
-9.70434 -41.5405 87.4318 240 0 0
-11.4509 -42.6457 87.0838 218 0 0
-11.3568 -44.7378 87.515 198 255 57
-14.7646 -33.4976 81.8316 79 255 176
-7.83871 -42.4276 88.3544 255 20 0
-6.14915 -43.32 89.0038 121 255 134
-8.28747 -34.5736 86.0111 243 255 12
-9.33483 -36.2469 85.6547 179 0 0
-10.6472 -37.6495 85.4515 210 0 0
-13.6991 -35.2781 82.9586 205 0 0
-12.8394 -37.0491 84.1615 216 0 0
-12.1814 -38.8399 85.3253 226 0 0
-13.8674 -39.9021 85.1433 175 255 80
-17.8625 -44.6612 83.5127 0 0 143
-16.8885 -45.1119 84.1262 0 0 143
-16.8885 -45.1119 84.1262 0 0 191
-15.8956 -45.5685 84.7297 0 0 191
-16.0156 -44.4641 84.8063 0 0 239
-8.82015 -46.3147 88.7501 0 0 135
-9.70404 -46.9359 88.4256 0 0 135
-12.7147 -32.043 83.1113 0 0 143
-12.3715 -31.1382 83.5024 0 0 143
-13.1623 -32.8848 82.8273 0 0 184
-12.0754 -33.0034 83.5661 0 0 228
-12.7147 -32.043 83.1113 0 0 184
-12.2553 -45.3277 87.0421 0 0 182
-12.2992 -44.2421 86.9717 0 0 225
-13.1978 -44.832 86.4987 0 0 182
-11.3826 -45.8604 87.5593 0 0 139
-12.2553 -45.3277 87.0421 0 0 139
-6.37427 -37.0002 87.3194 0 0 137
-6.82102 -35.8393 86.9929 0 0 137
-5.55339 -40.3369 88.4234 0 0 170
-5.74556 -39.2453 88.0474 0 0 170
-6.43937 -40.0202 88.0486 0 0 207
-5.42921 -41.4904 88.6838 0 0 131
-5.55339 -40.3369 88.4234 0 0 131
-5.48083 -44.8756 89.3096 0 0 162
-5.40713 -43.749 89.1454 0 0 162
-6.22285 -44.4466 89.168 0 0 195
-5.62926 -46.0371 89.3613 0 0 128
-5.48083 -44.8756 89.3096 0 0 128
-9.23555 -31.3514 85.5948 0 0 145
-10.2612 -31.3091 84.927 0 0 145
-8.51889 -32.5 85.8854 0 0 144
-9.23555 -31.3514 85.5948 0 0 144
-8.90675 -33.4835 85.6325 0 0 234
-7.89961 -33.5901 86.264 0 0 188
-8.51889 -32.5 85.8854 0 0 188
-14.0883 -45.4192 85.9894 0 0 183
-13.1978 -44.832 86.4987 0 0 183
-14.1322 -44.3335 85.9191 0 0 227
-14.9738 -46.0607 85.3359 0 0 143
-14.0883 -45.4192 85.9894 0 0 143
-14.9738 -46.0607 85.3359 0 0 143
-15.8956 -45.5685 84.7297 0 0 143
-7.93348 -45.7193 88.9713 0 0 171
-8.72656 -45.1875 88.6491 0 0 209
-8.82015 -46.3147 88.7501 0 0 171
-7.16181 -46.2099 89.2023 0 0 167
-7.06822 -45.0826 89.1012 0 0 203
-7.93348 -45.7193 88.9713 0 0 167
-6.45734 -46.7288 89.3449 0 0 130
-7.16181 -46.2099 89.2023 0 0 130
-11.3121 -31.1933 84.2251 0 0 144
-12.3715 -31.1382 83.5024 0 0 144
-10.5769 -32.2775 84.552 0 0 242
-10.2612 -31.3091 84.927 0 0 193
-11.3121 -31.1933 84.2251 0 0 193
-16.3197 -36.2438 82.201 0 0 176
-15.5716 -35.6681 82.2123 0 0 216
-16.7607 -35.4172 81.5661 0 0 176
-15.9431 -37.0262 82.8395 0 0 135
-16.3197 -36.2438 82.201 0 0 135
-15.5868 -37.8622 83.4541 0 0 175
-14.7744 -37.3307 83.4618 0 0 215
-15.9431 -37.0262 82.8395 0 0 175
-15.2732 -38.6764 84.0049 0 0 134
-15.5868 -37.8622 83.4541 0 0 134
-10.5108 -46.383 88.0157 0 0 179
-10.485 -45.2603 87.9715 0 0 221
-11.3826 -45.8604 87.5593 0 0 179
-9.70404 -46.9359 88.4256 0 0 137
-10.5108 -46.383 88.0157 0 0 137
-15.4013 -32.5958 81.3519 0 0 138
-14.2831 -32.7111 82.1021 0 0 138
-15.9201 -33.3363 81.1105 0 0 137
-15.4013 -32.5958 81.3519 0 0 137
-16.544 -34.0082 80.9834 0 0 175
-15.3886 -34.1696 81.7045 0 0 215
-15.9201 -33.3363 81.1105 0 0 175
-17.2063 -34.6435 80.9032 0 0 135
-16.544 -34.0082 80.9834 0 0 135
-17.9544 -35.2191 80.892 0 0 135
-16.7607 -35.4172 81.5661 0 0 174
-17.2063 -34.6435 80.9032 0 0 174
-6.0327 -38.0882 87.7361 0 0 175
-6.37427 -37.0002 87.3194 0 0 175
-6.97311 -37.8406 87.2559 0 0 215
-6.0327 -38.0882 87.7361 0 0 134
-5.74556 -39.2453 88.0474 0 0 134
-5.38018 -42.5945 88.9734 0 0 166
-5.42921 -41.4904 88.6838 0 0 166
-6.19817 -42.2159 88.7141 0 0 201
-5.38018 -42.5945 88.9734 0 0 129
-5.40713 -43.749 89.1454 0 0 129
-5.62926 -46.0371 89.3613 0 0 128
-6.45734 -46.7288 89.3449 0 0 128
-18.0567 -43.5951 83.6048 0 0 138
-17.1976 -43.0053 84.1324 0 0 138
-7.30741 -34.7497 86.5788 0 0 141
-7.89961 -33.5901 86.264 0 0 141
-7.80108 -35.6631 86.4252 0 0 224
-6.82102 -35.8393 86.9929 0 0 181
-7.30741 -34.7497 86.5788 0 0 181
-13.6438 -33.6714 82.5568 0 0 225
-13.1623 -32.8848 82.8273 0 0 182
-14.2831 -32.7111 82.1021 0 0 182
-14.9979 -39.5441 84.5383 0 0 174
-14.1428 -39.0345 84.6099 0 0 213
-15.2732 -38.6764 84.0049 0 0 174
-14.7466 -40.4155 84.9514 0 0 134
-14.9979 -39.5441 84.5383 0 0 134
-14.5509 -41.3388 85.3536 0 0 174
-13.6717 -40.8253 85.5455 0 0 213
-14.7466 -40.4155 84.9514 0 0 174
-15.4404 -41.8801 85.0069 0 0 176
-14.3655 -42.2899 85.6009 0 0 216
-14.5509 -41.3388 85.3536 0 0 176
-16.3209 -42.4171 84.6581 0 0 136
-15.4404 -41.8801 85.0069 0 0 136
-17.1976 -43.0053 84.1324 0 0 182
-16.1317 -43.4194 84.7285 0 0 225
-16.3209 -42.4171 84.6581 0 0 182
-17.8625 -44.6612 83.5127 0 0 143
-18.0567 -43.5951 83.6048 0 0 143
3 0 37 38
3 0 13 11
3 0 39 41
3 41 40 13
3 39 40 41
3 1 16 14
3 43 42 17
3 44 19 45
3 46 21 47
3 48 47 19
3 46 47 48
3 2 25 23
3 49 26 50
3 51 50 12
3 49 50 51
3 53 52 26
3 5 54 55
3 6 56 58
3 58 57 15
3 56 57 58
3 6 59 60
3 3 28 24
3 7 29 18
3 7 61 63
3 63 62 29
3 61 62 63
3 7 64 65
3 8 66 67
3 8 68 69
3 8 70 72
3 70 30 71
3 70 71 72
3 9 31 20
3 9 32 31
3 4 33 27
3 10 34 22
3 10 35 34
3 10 36 35
3 11 12 2
3 13 12 11
3 13 73 75
3 75 74 12
3 73 74 75
3 13 76 77
3 79 78 13
3 14 15 5
3 16 15 14
3 16 6 15
3 17 18 3
3 80 18 81
3 82 81 17
3 80 81 82
3 83 7 84
3 85 84 18
3 83 84 85
3 87 86 7
3 19 88 89
3 19 90 92
3 90 8 91
3 90 91 92
3 19 20 8
3 21 20 19
3 21 9 20
3 93 22 94
3 95 94 4
3 93 94 95
3 96 22 97
3 98 10 99
3 100 99 22
3 98 99 100
3 102 101 10
3 23 24 1
3 25 24 23
3 25 3 24
3 12 25 2
3 26 25 12
3 26 3 25
3 26 17 3
3 103 17 104
3 105 104 26
3 103 104 105
3 107 106 17
3 108 27 109
3 110 27 111
3 112 4 113
3 114 113 27
3 112 113 114
3 115 4 116
3 119 118 4
3 117 118 119
3 15 120 122
3 122 121 5
3 120 121 122
3 124 123 15
3 24 16 1
3 28 16 24
3 28 6 16
3 18 28 3
3 29 28 18
3 29 6 28
3 29 125 127
3 127 126 6
3 125 126 127
3 129 128 29
3 131 130 7
3 133 132 0
3 30 134 135
3 30 136 138
3 136 5 137
3 136 137 138
3 20 30 8
3 31 30 20
3 31 5 30
3 31 14 5
3 32 14 31
3 32 1 14
3 27 139 141
3 139 21 140
3 139 140 141
3 33 21 27
3 33 9 21
3 22 33 4
3 34 33 22
3 34 9 33
3 34 32 9
3 35 32 34
3 35 1 32
3 35 23 1
3 36 23 35
3 36 2 23
3 142 36 143
3 144 143 10
3 142 143 144
3 145 36 146
3 147 2 148
3 149 148 36
3 147 148 149
3 150 11 151
3 152 151 2
3 150 151 152
3 153 11 154
3 155 0 156
3 157 156 11
3 155 156 157
3 159 158 0
