ply
format ascii 1.0
element vertex 210
property float x
property float y
property float z
property uchar red
property uchar green
property uchar blue
element face 205
property list uchar int vertex_index
end_header
-60.3681 9.49254 6.87295 221 255 34
-60.767 12.3502 13.3126 230 0 0
-56.8539 18.7418 9.83771 172 255 83
-63.0999 7.22542 8.6435 0 212 255
-56.9065 15.5389 16.1395 255 247 0
-58.443 15.3775 11.302 255 35 0
-58.1328 6.24668 6.85848 149 255 106
-57.5973 12.0739 5.77882 249 255 6
-63.6495 8.83491 11.3383 36 255 219
-63.3936 9.37897 15.529 192 255 63
-59.5709 12.4325 18.2415 255 83 0
-61.171 11.4894 9.22692 255 217 0
-58.805 14.3196 7.51298 222 255 33
-56.7799 17.4117 6.54045 0 196 255
-54.9116 11.7732 5.83419 0 179 255
-55.9314 17.2498 15.2264 116 255 139
-60.9441 6.89804 7.21174 112 255 143
-59.7742 5.17893 7.30321 17 255 238
-59.4281 8.0196 6.56212 255 170 0
-57.9092 9.21744 6.10905 255 128 0
-58.9712 10.7503 6.22215 230 255 25
-61.0562 10.9332 19.3417 142 255 113
-57.2639 13.7887 19.7084 33 255 222
-62.3592 10.6364 12.1948 255 91 0
-62.4263 10.1615 10.2644 255 215 0
-61.0951 12.0412 11.1089 255 97 0
-57.5505 17.0167 10.49 255 81 0
-58.8041 14.9824 9.21011 255 166 0
-57.8593 16.5667 8.49104 255 219 0
-57.7538 15.8389 6.92608 176 255 79
-57.0474 18.2193 7.9538 84 255 171
-62.4168 5.87305 8.02591 0 169 255
-61.7626 8.31373 7.69752 205 255 50
-58.926 13.971 14.6465 144 0 0
-59.5293 13.8291 12.256 252 0 0
-57.7849 15.5481 13.6524 176 0 0
-56.8815 17.2294 12.7798 255 206 0
-56.2364 19.0166 12.0468 45 255 210
-56.4972 7.38297 6.61217 66 255 189
-56.4041 10.474 5.86818 199 255 56
-56.2485 13.4476 5.55427 111 255 144
-63.6131 9.19418 13.2973 120 255 135
-62.0836 10.8902 14.42 225 0 0
-63.0091 9.43438 17.9284 110 255 145
-61.637 10.9782 16.8324 130 0 0
-60.2413 12.467 15.723 128 0 0
-58.1492 13.9464 17.1576 255 88 0
-63.4898 8.20926 9.76113 0 225 255
-62.2433 9.40107 8.73573 209 255 46
-60.9426 10.6486 7.78224 212 255 43
-59.8914 13.4772 10.0957 255 123 0
-59.9489 12.8691 8.29146 255 245 0
-59.6517 11.9672 6.96708 193 255 62
-58.406 13.356 6.33807 170 255 85
-57.2121 14.8038 5.92047 163 255 92
-56.0536 16.2938 5.71466 0 141 255
-56.316 20.5304 9.33761 0 124 255
-54.1658 12.4379 5.90733 0 0 144
-54.9108 13.3145 5.68499 0 0 144
-62.7584 6.54923 8.33471 0 0 179
-63.0975 5.42436 8.49513 0 0 155
-63.4391 6.10055 8.80393 0 0 155
-56.0743 18.1585 13.6085 0 0 191
-56.4064 17.2396 14.0031 0 0 233
-55.5992 18.1688 14.8318 0 0 191
-55.7517 19.0521 13.242 0 0 188
-56.559 18.123 12.4133 0 0 228
-56.0743 18.1585 13.6085 0 0 188
-58.2014 4.71798 7.40162 0 0 188
-59.0222 4.1841 7.62399 0 0 188
-58.9535 5.7128 7.08084 0 0 228
-57.3254 5.22322 7.28222 0 0 150
-58.2014 4.71798 7.40162 0 0 150
-57.315 6.81482 6.73532 0 0 236
-56.5076 5.79137 7.15906 0 0 193
-57.3254 5.22322 7.28222 0 0 193
-63.5034 9.28657 14.4131 0 0 217
-64.2026 8.41305 13.8382 0 0 180
-64.0929 8.50544 14.954 0 0 180
-62.7464 9.40541 19.1704 0 0 194
-63.6359 8.60443 18.4545 0 0 194
-63.3732 8.57547 19.6966 0 0 150
-56.5762 14.5887 19.1897 0 0 156
-56.0356 14.4575 20.4493 0 0 156
-63.5696 8.52208 10.5497 0 0 179
-64.044 7.61701 10.2689 0 0 155
-64.1239 7.92984 11.0575 0 0 155
-56.0929 21.4422 9.14882 0 0 138
-55.9447 21.6712 10.1431 0 0 138
-56.0988 21.1361 8.27432 0 0 134
-56.3218 20.2242 8.46312 0 0 162
-56.0929 21.4422 9.14882 0 0 162
-63.694 6.73696 9.14059 0 0 129
-63.4391 6.10055 8.80393 0 0 129
-54.091 10.7844 6.25932 0 0 150
-54.8945 10.1719 6.19777 0 0 150
-53.3452 11.449 6.33246 0 0 149
-54.091 10.7844 6.25932 0 0 192
-54.1658 12.4379 5.90733 0 0 192
-55.3616 17.1851 16.4757 0 0 198
-56.4189 16.3944 15.6829 0 0 243
-55.8492 16.3296 16.9322 0 0 198
-54.9871 18.1246 16.0589 0 0 152
-55.3616 17.1851 16.4757 0 0 152
-54.6549 19.0436 15.6643 0 0 151
-55.5992 18.1688 14.8318 0 0 195
-54.9871 18.1246 16.0589 0 0 195
-60.3592 6.03848 7.25748 0 0 204
-60.5838 4.68968 7.61855 0 0 172
-61.1688 5.54923 7.57281 0 0 172
-64.0053 8.56391 16.0684 0 0 144
-64.0929 8.50544 14.954 0 0 144
-60.7166 10.8511 20.6123 0 0 153
-61.77 10.1548 19.8771 0 0 153
-59.9307 11.6027 20.0688 0 0 155
-60.7166 10.8511 20.6123 0 0 155
-59.188 12.3524 19.5187 0 0 202
-60.3136 11.6829 18.7916 0 0 249
-59.9307 11.6027 20.0688 0 0 202
-58.0345 13.0304 20.2521 0 0 204
-58.4174 13.1106 18.9749 0 0 252
-59.188 12.3524 19.5187 0 0 204
-56.7964 13.6539 20.9787 0 0 206
-58.0345 13.0304 20.2521 0 0 206
-57.567 12.8956 21.5224 0 0 157
-56.0356 14.4575 20.4493 0 0 157
-56.7964 13.6539 20.9787 0 0 157
-62.6785 4.60583 8.37822 0 0 134
-63.0975 5.42436 8.49513 0 0 134
-61.9051 5.03674 7.9799 0 0 137
-62.6785 4.60583 8.37822 0 0 137
-61.6804 6.38554 7.61882 0 0 198
-61.1688 5.54923 7.57281 0 0 167
-61.9051 5.03674 7.9799 0 0 167
-59.8996 3.7181 7.83488 0 0 145
-60.5838 4.68968 7.61855 0 0 145
-59.1475 2.72328 8.15565 0 0 148
-59.8996 3.7181 7.83488 0 0 188
-59.0222 4.1841 7.62399 0 0 188
-55.6424 6.32674 7.12823 0 0 153
-56.5076 5.79137 7.15906 0 0 153
-55.6873 7.97677 6.58676 0 0 153
-55.6424 6.32674 7.12823 0 0 153
-55.6407 9.52228 6.21477 0 0 187
-55.6873 7.97677 6.58676 0 0 187
-56.4507 8.92848 6.24017 0 0 226
-55.6578 11.1236 5.85119 0 0 225
-54.8945 10.1719 6.19777 0 0 185
-55.6407 9.52228 6.21477 0 0 185
-55.5793 14.1517 5.54502 0 0 172
-54.9108 13.3145 5.68499 0 0 172
-55.5801 12.6104 5.69423 0 0 204
-64.2152 8.12246 11.8658 0 0 132
-64.1239 7.92984 11.0575 0 0 132
-64.197 8.3021 12.8453 0 0 139
-64.2026 8.41305 13.8382 0 0 139
-63.6313 9.01455 12.3178 0 0 199
-64.2152 8.12246 11.8658 0 0 168
-64.197 8.3021 12.8453 0 0 168
-63.8131 8.59161 17.2681 0 0 148
-63.6359 8.60443 18.4545 0 0 148
-63.2014 9.40667 16.7287 0 0 230
-64.0053 8.56391 16.0684 0 0 189
-63.8131 8.59161 17.2681 0 0 189
-62.0327 10.1838 18.635 0 0 240
-62.7464 9.40541 19.1704 0 0 196
-61.77 10.1548 19.8771 0 0 196
-57.0189 14.6676 17.9143 0 0 203
-57.7065 13.8675 18.433 0 0 251
-56.5762 14.5887 19.1897 0 0 203
-56.3976 15.4638 17.4052 0 0 200
-57.5279 14.7426 16.6485 0 0 247
-57.0189 14.6676 17.9143 0 0 200
-55.8492 16.3296 16.9322 0 0 154
-56.3976 15.4638 17.4052 0 0 154
-63.8889 7.22888 9.6994 0 0 128
-64.044 7.61701 10.2689 0 0 128
-63.2948 7.71734 9.20232 0 0 171
-63.694 6.73696 9.14059 0 0 150
-63.8889 7.22888 9.6994 0 0 150
-55.4818 15.5748 5.62522 0 0 162
-55.5793 14.1517 5.54502 0 0 162
-56.151 14.8707 5.63447 0 0 190
-55.5704 20.025 12.906 0 0 148
-55.7517 19.0521 13.242 0 0 148
-56.0295 19.9525 11.7466 0 0 146
-55.5704 20.025 12.906 0 0 146
-56.3383 19.8151 10.6421 0 0 179
-56.5452 18.8792 10.9423 0 0 215
-56.0295 19.9525 11.7466 0 0 179
-56.0693 20.7093 10.392 0 0 141
-55.9447 21.6712 10.1431 0 0 141
-56.5849 19.6361 9.58766 0 0 206
-56.3383 19.8151 10.6421 0 0 173
-56.0693 20.7093 10.392 0 0 173
-56.6876 19.0686 7.77121 0 0 161
-56.6817 19.3748 8.6457 0 0 188
-56.3218 20.2242 8.46312 0 0 161
-56.5538 18.6648 7.06454 0 0 154
-56.9136 17.8155 7.24712 0 0 178
-56.6876 19.0686 7.77121 0 0 154
-56.3126 18.2149 6.44077 0 0 130
-56.5538 18.6648 7.06454 0 0 130
-55.9494 17.656 6.02788 0 0 150
-56.4167 16.8527 6.12756 0 0 172
-56.3126 18.2149 6.44077 0 0 150
-55.4765 17.0519 5.70589 0 0 131
-55.9494 17.656 6.02788 0 0 131
-55.4818 15.5748 5.62522 0 0 134
-55.4765 17.0519 5.70589 0 0 134
3 58 57 14
3 0 18 16
3 0 20 18
3 1 25 23
3 2 28 26
3 2 30 28
3 3 59 61
3 59 31 60
3 59 60 61
3 3 32 31
3 4 35 33
3 62 36 63
3 64 63 15
3 62 63 64
3 65 37 66
3 67 66 36
3 65 66 67
3 6 68 70
3 70 69 17
3 68 69 70
3 6 71 72
3 6 73 75
3 73 38 74
3 73 74 75
3 7 39 19
3 7 40 39
3 9 76 78
3 76 41 77
3 76 77 78
3 9 42 41
3 79 43 80
3 79 80 81
3 10 44 21
3 10 45 44
3 10 46 45
3 83 82 22
3 8 84 86
3 84 47 85
3 84 85 86
3 11 48 24
3 11 49 48
3 5 50 34
3 12 51 27
3 12 52 51
3 12 53 52
3 13 54 29
3 13 55 54
3 87 56 88
3 91 90 56
3 89 90 91
3 92 3 93
3 14 94 95
3 98 97 14
3 96 97 98
3 99 15 100
3 101 100 4
3 99 100 101
3 102 15 103
3 106 105 15
3 104 105 106
3 16 107 109
3 107 17 108
3 107 108 109
3 18 17 16
3 18 6 17
3 18 19 6
3 20 19 18
3 20 7 19
3 110 9 111
3 112 21 113
3 114 21 115
3 116 10 117
3 118 117 21
3 116 117 118
3 119 22 120
3 121 120 10
3 119 120 121
3 122 22 123
3 122 123 124
3 126 125 22
3 23 24 8
3 25 24 23
3 25 11 24
3 26 27 5
3 28 27 26
3 28 12 27
3 28 29 12
3 30 29 28
3 30 13 29
3 31 127 128
3 31 129 130
3 31 131 133
3 131 16 132
3 131 132 133
3 32 16 31
3 32 0 16
3 33 34 1
3 35 34 33
3 35 5 34
3 15 35 4
3 36 35 15
3 36 5 35
3 36 26 5
3 37 26 36
3 37 2 26
3 17 134 135
3 138 137 17
3 136 137 138
3 38 139 140
3 38 141 142
3 19 38 6
3 39 38 19
3 39 143 145
3 145 144 38
3 143 144 145
3 39 146 148
3 146 14 147
3 146 147 148
3 40 14 39
3 40 149 151
3 151 150 14
3 149 150 151
3 152 8 153
3 41 154 155
3 41 156 158
3 156 8 157
3 156 157 158
3 41 23 8
3 42 23 41
3 42 1 23
3 43 159 160
3 43 161 163
3 161 9 162
3 161 162 163
3 21 164 166
3 164 43 165
3 164 165 166
3 44 43 21
3 44 9 43
3 44 42 9
3 45 42 44
3 45 1 42
3 45 33 1
3 46 33 45
3 46 4 33
3 22 46 10
3 167 46 168
3 169 168 22
3 167 168 169
3 170 4 171
3 172 171 46
3 170 171 172
3 174 173 4
3 47 175 176
3 47 177 179
3 177 3 178
3 177 178 179
3 24 47 8
3 48 47 24
3 48 3 47
3 48 32 3
3 49 32 48
3 49 0 32
3 34 25 1
3 50 25 34
3 50 11 25
3 27 50 5
3 51 50 27
3 51 11 50
3 51 49 11
3 52 49 51
3 52 0 49
3 52 20 0
3 53 20 52
3 53 7 20
3 29 53 12
3 54 53 29
3 54 7 53
3 54 40 7
3 55 40 54
3 55 180 182
3 182 181 40
3 180 181 182
3 183 37 184
3 185 37 186
3 187 2 188
3 189 188 37
3 187 188 189
3 56 190 191
3 56 192 194
3 192 2 193
3 192 193 194
3 56 30 2
3 195 30 196
3 197 196 56
3 195 196 197
3 198 13 199
3 200 199 30
3 198 199 200
3 201 13 202
3 203 55 204
3 205 204 13
3 203 204 205
3 206 55 207
3 209 208 55
