ply
format ascii 1.0
element vertex 190
property float x
property float y
property float z
property uchar red
property uchar green
property uchar blue
element face 183
property list uchar int vertex_index
end_header
-23.6157 -42.5891 -21.2388 255 57 0
-18.3313 -53.3253 -18.1797 255 219 0
-24.0476 -45.1862 -24.3209 255 165 0
-26.3173 -34.9257 -28.787 107 255 148
-26.705 -38.7691 -22.2929 146 255 109
-25.3961 -38.9971 -24.9019 255 78 0
-25.9098 -40.5829 -28.0959 128 0 0
-17.8155 -50.5258 -16.8372 82 255 173
-20.6702 -47.2449 -19.8863 255 72 0
-23.0687 -43.5692 -23.2011 255 196 0
-21.4657 -49.4348 -21.0309 237 255 18
-24.766 -39.4996 -26.8517 246 255 9
-25.7567 -35.0296 -30.8134 0 163 255
-22.431 -44.2047 -19.4874 142 255 113
-24.0974 -42.2315 -19.9728 149 255 106
-25.664 -40.3801 -20.4391 26 255 229
-25.2006 -40.6269 -21.7909 255 29 0
-26.0848 -38.8885 -23.652 255 14 0
-24.6108 -40.8534 -23.0431 255 73 0
-16.6869 -55.1223 -16.8528 30 255 225
-17.9134 -51.8373 -17.6348 255 147 0
-19.2764 -48.9353 -18.3357 251 0 0
-19.4291 -50.0929 -19.0705 199 0 0
-20.8696 -48.2524 -20.5718 255 6 0
-19.9456 -51.4268 -19.5616 255 246 0
-27.1473 -35.0154 -27.5102 61 255 194
-23.3394 -44.2962 -23.8499 255 101 0
-24.0113 -41.5842 -24.9836 255 237 0
-24.3144 -42.1809 -25.6456 255 126 0
-26.6017 -38.1468 -30.1224 122 255 133
-25.7377 -37.6688 -29.5235 183 255 72
-27.5034 -37.0123 -24.1813 50 255 205
-26.735 -37.0171 -25.5575 255 229 0
-25.9633 -37.0205 -26.8165 255 77 0
-25.1318 -46.201 -24.6909 219 255 36
-25.0672 -42.9297 -26.1534 131 0 0
-26.1881 -43.7903 -26.5826 255 145 0
-27.0714 -41.2909 -28.5847 216 255 39
-19.3952 -47.9474 -17.3454 61 255 194
-20.7942 -46.4091 -18.9498 248 255 7
-22.0768 -44.764 -20.6092 255 96 0
-23.2038 -43.0114 -22.3307 255 144 0
-21.9469 -45.4559 -21.5042 255 141 0
-22.1848 -46.3197 -22.1601 255 60 0
-22.8433 -47.3541 -22.613 214 255 41
-24.1477 -41.1508 -24.1191 255 180 0
-24.8933 -39.1814 -25.9768 255 205 0
-25.4396 -37.103 -27.9028 255 225 0
-25.1084 -39.972 -27.5417 255 136 0
-25.3398 -37.3145 -28.7991 229 255 26
-25.8011 -34.9164 -29.8922 6 255 249
-26.8244 -33.9069 -29.1498 0 0 179
-27.2393 -33.9518 -28.5113 0 0 179
-26.7323 -34.9706 -28.1486 0 0 217
-26.3982 -33.8209 -29.7991 0 0 142
-26.8244 -33.9069 -29.1498 0 0 142
-26.4185 -36.7101 -30.8456 0 0 144
-26.8931 -36.8869 -31.1611 0 0 144
-26.8449 -38.6556 -21.607 0 0 172
-26.3243 -39.4611 -20.6801 0 0 172
-26.1845 -39.5746 -21.366 0 0 206
-27.3456 -37.8403 -22.5342 0 0 138
-26.8449 -38.6556 -21.607 0 0 138
-27.1042 -37.8907 -23.2371 0 0 211
-27.7448 -36.9619 -23.4784 0 0 175
-27.3456 -37.8403 -22.5342 0 0 175
-26.3249 -45.5372 -25.8173 0 0 222
-25.6599 -44.9957 -25.6368 0 26 255
-25.7968 -46.7425 -24.8715 0 0 222
-27.7569 -41.6665 -28.834 0 0 163
-27.3029 -42.9989 -27.8013 0 0 163
-27.4449 -39.9992 -29.6218 0 0 162
-27.7569 -41.6665 -28.834 0 0 162
-17.0808 -51.2705 -16.1063 0 0 148
-17.1002 -52.0036 -16.5388 0 0 148
-17.8718 -49.9529 -16.3126 0 0 186
-17.1371 -50.6977 -15.5817 0 0 145
-17.0808 -51.2705 -16.1063 0 0 186
-18.6053 -49.2366 -17.0913 0 0 229
-18.6617 -48.6637 -16.5667 0 0 187
-17.8718 -49.9529 -16.3126 0 0 187
-25.8827 -33.827 -31.3746 0 0 153
-25.9049 -33.7704 -30.914 0 0 153
-25.7789 -34.973 -30.3528 0 0 177
-22.6152 -43.9541 -18.8429 0 0 142
-21.7589 -44.9532 -18.6374 0 0 142
-23.4484 -42.9675 -19.0855 0 0 179
-22.6152 -43.9541 -18.8429 0 0 179
-23.2642 -43.2181 -19.7301 0 0 217
-24.2491 -42.0383 -19.2962 0 0 140
-23.4484 -42.9675 -19.0855 0 0 140
-24.8807 -41.3058 -20.206 0 0 213
-25.0324 -41.1126 -19.5294 0 0 177
-24.2491 -42.0383 -19.2962 0 0 177
-16.5359 -54.3018 -16.5466 0 0 150
-15.8874 -55.9665 -16.2006 0 0 150
-17.1492 -52.6593 -16.9376 0 0 197
-16.5359 -54.3018 -16.5466 0 0 197
-17.3001 -53.4798 -17.2438 0 0 244
-17.8644 -51.1816 -17.236 0 0 228
-17.1002 -52.0036 -16.5388 0 0 186
-17.1492 -52.6593 -16.9376 0 0 186
-27.7407 -34.0455 -27.7945 0 0 144
-27.5971 -35.064 -26.8091 0 0 144
-27.7407 -34.0455 -27.7945 0 0 147
-27.2393 -33.9518 -28.5113 0 0 147
-25.9865 -36.4711 -30.5461 0 0 180
-26.1697 -37.9078 -29.823 0 0 218
-26.4185 -36.7101 -30.8456 0 0 180
-25.996 -35.1515 -31.1911 0 0 160
-25.7472 -36.3492 -30.1685 0 0 188
-25.9865 -36.4711 -30.5461 0 0 160
-25.9067 -33.8391 -31.845 0 0 132
-25.996 -35.1515 -31.1911 0 0 132
-16.1126 -56.9369 -16.431 0 0 157
-15.8874 -55.9665 -16.2006 0 0 157
-16.9999 -56.0181 -17.0493 0 0 158
-16.1126 -56.9369 -16.431 0 0 158
-17.8221 -55.1195 -17.7128 0 0 210
-17.5091 -54.2238 -17.5162 0 8 255
-16.9999 -56.0181 -17.0493 0 0 210
-18.7182 -54.1434 -18.3485 0 0 158
-17.8221 -55.1195 -17.7128 0 0 158
-25.7032 -40.198 -19.7655 0 0 137
-25.0324 -41.1126 -19.5294 0 0 137
-26.3635 -39.2789 -20.0065 0 0 137
-25.7032 -40.198 -19.7655 0 0 171
-26.3243 -39.4611 -20.6801 0 0 171
-28.1155 -36.0695 -24.4201 0 0 139
-27.7448 -36.9619 -23.4784 0 0 139
-27.7751 -36.0624 -25.1447 0 0 142
-28.1155 -36.0695 -24.4201 0 0 142
-27.3909 -36.0648 -25.8328 0 0 182
-27.7751 -36.0624 -25.1447 0 0 182
-27.1192 -37.0147 -24.8694 0 0 220
-26.9412 -36.0162 -26.5339 0 0 227
-27.5971 -35.064 -26.8091 0 0 186
-27.3909 -36.0648 -25.8328 0 0 186
-26.8613 -44.2486 -26.8003 0 0 164
-26.3249 -45.5372 -25.8173 0 0 164
-26.6297 -42.5406 -27.5836 0 24 255
-26.8613 -44.2486 -26.8003 0 0 220
-27.3029 -42.9989 -27.8013 0 0 220
-27.21 -38.4271 -30.3907 0 0 205
-26.8365 -39.7188 -29.3536 0 1 255
-27.4449 -39.9992 -29.6218 0 0 205
-26.8931 -36.8869 -31.1611 0 0 153
-27.21 -38.4271 -30.3907 0 0 153
-19.5089 -47.5149 -16.7413 0 0 144
-18.6617 -48.6637 -16.5667 0 0 144
-20.241 -46.8245 -17.5664 0 0 144
-19.5089 -47.5149 -16.7413 0 0 144
-20.9405 -46.0554 -18.3687 0 0 179
-20.241 -46.8245 -17.5664 0 0 179
-20.0947 -47.1783 -18.1476 0 0 217
-21.6126 -45.3069 -19.2186 0 0 217
-21.7589 -44.9532 -18.6374 0 0 179
-20.9405 -46.0554 -18.3687 0 0 179
-19.5253 -53.1942 -19.0395 0 0 209
-19.1384 -52.3761 -18.8707 0 7 255
-18.7182 -54.1434 -18.3485 0 0 209
-20.3909 -52.1667 -19.714 0 0 157
-19.5253 -53.1942 -19.0395 0 0 157
-21.151 -51.1706 -20.4487 0 0 207
-20.7056 -50.4308 -20.2963 0 4 255
-20.3909 -52.1667 -19.714 0 0 207
-21.9547 -50.0967 -21.181 0 0 156
-21.151 -51.1706 -20.4487 0 0 156
-22.6435 -49.0563 -21.972 0 0 205
-22.1545 -48.3944 -21.822 0 0 255
-21.9547 -50.0967 -21.181 0 0 205
-23.3632 -47.9387 -22.7749 0 0 155
-22.6435 -49.0563 -21.972 0 0 155
-23.9654 -46.8547 -23.6288 0 0 203
-23.4454 -46.2702 -23.4669 0 0 252
-23.3632 -47.9387 -22.7749 0 0 203
-24.5075 -47.3621 -23.8139 0 0 204
-24.5897 -45.6936 -24.5059 0 0 255
-23.9654 -46.8547 -23.6288 0 0 204
-25.1618 -47.9858 -23.9588 0 0 163
-24.5075 -47.3621 -23.8139 0 0 163
-25.7968 -46.7425 -24.8715 0 0 164
-25.1618 -47.9858 -23.9588 0 0 164
-26.14 -33.8162 -30.3517 0 0 165
-26.3982 -33.8209 -29.7991 0 0 165
-26.0592 -34.9211 -29.3396 0 0 196
-26.14 -33.8162 -30.3517 0 0 134
-25.9049 -33.7704 -30.914 0 0 134
-25.8827 -33.827 -31.3746 0 0 128
-25.9067 -33.8391 -31.845 0 0 128
3 0 14 13
3 0 16 14
3 0 18 16
3 1 20 19
3 1 22 20
3 1 24 22
3 3 51 53
3 53 52 25
3 51 52 53
3 3 54 55
3 2 28 26
3 57 56 29
3 4 58 60
3 60 59 15
3 58 59 60
3 4 61 62
3 4 63 65
3 63 31 64
3 63 64 65
3 5 32 17
3 5 33 32
3 66 36 67
3 68 67 34
3 66 67 68
3 69 37 70
3 72 71 37
3 7 73 74
3 7 75 77
3 75 76 77
3 7 78 80
3 78 38 79
3 78 79 80
3 8 39 21
3 8 40 39
3 8 42 40
3 10 43 23
3 10 44 43
3 9 45 41
3 11 46 27
3 11 47 46
3 6 48 35
3 12 49 30
3 12 50 49
3 12 81 83
3 83 82 50
3 81 82 83
3 13 84 85
3 14 86 88
3 88 87 13
3 86 87 88
3 14 89 90
3 14 91 93
3 91 15 92
3 91 92 93
3 16 15 14
3 16 4 15
3 16 17 4
3 18 17 16
3 18 5 17
3 19 94 95
3 20 96 98
3 98 97 19
3 96 97 98
3 20 99 101
3 99 7 100
3 99 100 101
3 20 21 7
3 22 21 20
3 22 8 21
3 22 23 8
3 24 23 22
3 24 10 23
3 25 102 103
3 105 104 25
3 26 27 9
3 28 27 26
3 28 11 27
3 29 30 6
3 106 30 107
3 108 107 29
3 106 107 108
3 109 12 110
3 111 110 30
3 109 110 111
3 113 112 12
3 114 19 115
3 116 19 117
3 118 1 119
3 120 119 19
3 118 119 120
3 122 121 1
3 15 123 124
3 127 126 15
3 125 126 127
3 31 128 129
3 31 130 131
3 17 31 4
3 32 31 17
3 32 132 134
3 134 133 31
3 132 133 134
3 32 135 137
3 135 25 136
3 135 136 137
3 33 25 32
3 33 3 25
3 34 35 2
3 36 35 34
3 36 6 35
3 138 36 139
3 37 140 142
3 140 36 141
3 140 141 142
3 37 6 36
3 37 29 6
3 143 29 144
3 145 144 37
3 143 144 145
3 147 146 29
3 38 148 149
3 38 150 151
3 21 38 7
3 39 38 21
3 39 152 154
3 154 153 38
3 152 153 154
3 39 155 157
3 155 13 156
3 155 156 157
3 40 13 39
3 40 0 13
3 40 41 0
3 42 41 40
3 42 9 41
3 23 42 8
3 43 42 23
3 43 9 42
3 43 26 9
3 44 26 43
3 44 2 26
3 158 24 159
3 160 159 1
3 158 159 160
3 161 24 162
3 163 10 164
3 165 164 24
3 163 164 165
3 166 10 167
3 168 44 169
3 170 169 10
3 168 169 170
3 171 44 172
3 173 2 174
3 175 174 44
3 173 174 175
3 176 34 177
3 178 177 2
3 176 177 178
3 179 34 180
3 182 181 34
3 41 18 0
3 45 18 41
3 45 5 18
3 27 45 9
3 46 45 27
3 46 5 45
3 46 33 5
3 47 33 46
3 47 3 33
3 35 28 2
3 48 28 35
3 48 11 28
3 30 48 6
3 49 48 30
3 49 11 48
3 49 47 11
3 50 47 49
3 50 3 47
3 50 183 185
3 185 184 3
3 183 184 185
3 187 186 50
3 189 188 12
