ply
format ascii 1.0
element vertex 203
property float x
property float y
property float z
property uchar red
property uchar green
property uchar blue
element face 196
property list uchar int vertex_index
end_header
5.99688 -7.70426 36.0952 0 121 255
9.66156 -4.00893 16.9658 113 255 142
7.1582 -22.9756 29.8975 113 255 142
8.67116 -4.79581 27.4875 209 0 0
7.7518 3.30463 30.2931 255 17 0
7.32996 -5.97555 32.0721 255 67 0
8.53265 -22.2816 25.3791 255 233 0
9.67485 4.95928 19.9912 117 255 138
6.61987 -15.126 33.2145 87 255 168
7.82448 12.4594 27.8543 54 255 201
8.97076 4.46999 25.3506 172 0 0
9.52573 -4.13044 22.371 143 0 0
8.05864 -14.0434 28.9837 255 14 0
9.16929 -13.2975 24.1743 192 0 0
9.4758 -12.8801 18.974 95 255 160
9.50441 -4.18467 14.2341 0 104 255
6.8855 -2.15408 33.4369 109 255 146
6.63513 -6.76832 34.146 185 255 70
7.14481 11.6173 30.3135 34 255 221
8.26125 -0.666613 28.9535 236 0 0
8.40728 3.97133 27.8864 217 0 0
8.85963 -0.149702 26.4983 187 0 0
9.32381 0.218237 23.9196 151 0 0
9.18427 -4.39902 24.9836 169 0 0
6.89872 -19.0247 31.6165 102 255 153
7.33981 -14.5375 31.1724 255 73 0
7.6402 -18.5686 29.5058 255 52 0
8.97982 -21.9715 22.932 60 255 195
8.89111 -17.8326 24.8491 224 0 0
9.24161 -17.5412 22.3416 196 255 59
9.43496 -13.043 21.604 255 168 0
7.14796 7.06844 31.5194 137 255 118
7.05973 2.46909 32.5625 124 255 131
7.58228 -1.3337 31.2671 255 39 0
8.03131 -5.32009 29.8545 255 6 0
7.38579 -26.9125 28.0464 13 255 242
7.89597 -22.6141 27.7086 255 42 0
8.08728 -26.6037 25.7762 28 255 227
9.75336 0.49432 18.5212 250 255 5
6.32244 -11.3369 34.7034 70 255 185
7.83305 7.90985 29.1523 255 0 0
8.46872 8.56809 26.6594 255 194 0
9.0076 9.04229 24.0541 95 255 160
9.39986 4.80022 22.7084 255 145 0
9.62284 0.435059 21.2487 128 0 0
9.68023 -3.99638 19.6866 130 0 0
7.00454 -10.5857 32.7159 255 101 0
7.7215 -9.95633 30.5907 255 37 0
8.40385 -9.43911 28.3147 236 0 0
8.3339 -18.1747 27.2467 255 3 0
8.69379 -13.6319 26.6453 223 0 0
8.97599 -9.02683 25.8927 193 0 0
9.3774 -8.71768 23.3483 164 0 0
9.57684 -8.51685 20.7174 149 0 0
9.57627 -8.43686 18.0383 234 255 21
9.58299 -4.0968 15.6 0 0 231
9.62022 -1.89971 15.0016 0 0 186
9.6988 -1.81184 16.3674 0 0 186
9.5333 -6.2527 16.1535 0 0 185
9.45472 -6.34057 14.7876 0 0 185
9.58299 -4.0968 15.6 0 0 228
6.31601 -7.23629 35.1206 0 0 193
6.42973 -4.9495 34.8109 0 0 161
6.11061 -5.41747 35.7854 0 0 161
6.79916 11.0999 31.4851 0 0 133
6.74801 13.3348 30.857 0 0 133
9.20951 -19.6155 21.3736 0 0 178
9.11071 -19.7564 22.6368 0 0 218
9.07862 -21.8306 21.6688 0 0 178
9.29534 -17.4256 21.0529 0 0 138
9.20951 -19.6155 21.3736 0 0 138
6.72184 1.96665 33.6315 0 0 132
6.76145 4.25721 33.1614 0 0 132
7.82179 -28.6845 25.9155 0 0 169
7.73653 -26.7581 26.9113 0 0 204
7.47104 -28.8389 27.0506 0 0 169
9.73747 4.95026 18.6119 0 0 143
9.68001 7.19538 19.3004 0 0 143
9.7141 2.7268 19.2562 0 0 231
9.77672 2.71778 17.8769 0 0 187
9.73747 4.95026 18.6119 0 0 187
7.77621 14.6984 27.1341 0 0 137
7.4369 14.2777 28.4063 0 0 137
8.13596 12.7825 26.5695 0 0 138
7.77621 14.6984 27.1341 0 0 138
9.39304 -12.8544 17.6466 0 0 183
9.44328 -10.6328 17.1787 0 0 183
9.52604 -10.6585 18.5061 0 0 226
9.55543 -2.04533 13.6235 0 0 142
9.62022 -1.89971 15.0016 0 0 142
9.37841 -4.36315 12.8683 0 0 142
9.55543 -2.04533 13.6235 0 0 142
9.30623 -6.45115 13.4378 0 0 141
9.37841 -4.36315 12.8683 0 0 141
9.30623 -6.45115 13.4378 0 0 141
9.45472 -6.34057 14.7876 0 0 141
6.55492 -2.64238 34.4563 0 0 131
6.63473 -0.344934 34.0687 0 0 131
6.76032 -4.4612 33.7915 0 0 197
6.55492 -2.64238 34.4563 0 0 164
6.42973 -4.9495 34.8109 0 0 164
9.54595 7.14516 20.676 0 0 142
9.68001 7.19538 19.3004 0 0 142
7.09706 13.8567 29.6359 0 0 135
6.74801 13.3348 30.857 0 0 135
7.48464 12.0383 29.0839 0 0 211
7.4369 14.2777 28.4063 0 0 173
7.09706 13.8567 29.6359 0 0 173
9.39202 -15.1764 20.684 0 0 181
9.33829 -15.2921 21.9728 0 0 222
9.29534 -17.4256 21.0529 0 0 181
9.41244 -15.095 19.3691 0 0 181
9.45538 -12.9615 20.289 0 0 223
9.39202 -15.1764 20.684 0 0 181
9.34541 -15.0194 18.0647 0 0 140
9.41244 -15.095 19.3691 0 0 140
6.80557 6.55688 32.6398 0 0 133
6.80074 8.82548 32.0881 0 0 133
7.10384 4.76876 32.041 0 0 204
6.80557 6.55688 32.6398 0 0 168
6.76145 4.25721 33.1614 0 0 168
6.97261 0.157507 32.9997 0 0 201
6.72184 1.96665 33.6315 0 0 167
6.63473 -0.344934 34.0687 0 0 167
8.13527 -28.5353 24.7424 0 0 134
7.82179 -28.6845 25.9155 0 0 134
8.35943 -26.4481 24.5798 0 0 135
8.13527 -28.5353 24.7424 0 0 135
8.58212 -24.287 24.3813 0 0 174
8.30996 -24.4426 25.5777 0 0 212
8.35943 -26.4481 24.5798 0 0 174
8.8057 -24.132 23.1577 0 0 175
8.75623 -22.1265 24.1556 0 0 213
8.58212 -24.287 24.3813 0 0 175
8.95782 -23.9754 21.9176 0 0 137
8.8057 -24.132 23.1577 0 0 137
9.07862 -21.8306 21.6688 0 0 137
8.95782 -23.9754 21.9176 0 0 137
9.7447 0.439783 17.1451 0 0 143
9.77672 2.71778 17.8769 0 0 143
9.70746 -1.7573 17.7435 0 0 230
9.6988 -1.81184 16.3674 0 0 186
9.7447 0.439783 17.1451 0 0 186
6.01975 -11.7781 35.6406 0 0 159
6.15966 -9.5206 35.3993 0 0 189
5.85697 -9.96178 36.3365 0 0 159
6.14341 -13.5798 34.917 0 0 128
6.01975 -11.7781 35.6406 0 0 128
6.29213 -15.4743 34.1726 0 0 161
6.47116 -13.2315 33.959 0 0 193
6.14341 -13.5798 34.917 0 0 161
6.40665 -17.3427 33.4024 0 0 129
6.29213 -15.4743 34.1726 0 0 129
6.54607 -19.2921 32.6034 0 0 163
6.7593 -17.0753 32.4155 0 0 196
6.40665 -17.3427 33.4024 0 0 163
6.65697 -21.2034 31.7803 0 0 130
6.54607 -19.2921 32.6034 0 0 130
6.78671 -23.1789 30.9208 0 0 165
7.02846 -21.0002 30.757 0 0 199
6.65697 -21.2034 31.7803 0 0 165
6.89329 -25.1036 30.0376 0 0 131
6.78671 -23.1789 30.9208 0 0 131
7.00708 -27.0721 29.112 0 0 167
7.272 -24.9441 28.9719 0 0 201
6.89329 -25.1036 30.0376 0 0 167
7.10163 -28.9771 28.1613 0 0 132
7.00708 -27.0721 29.112 0 0 132
7.47104 -28.8389 27.0506 0 0 133
7.10163 -28.9771 28.1613 0 0 133
5.81107 -5.98402 36.7493 0 0 129
6.11061 -5.41747 35.7854 0 0 129
5.71373 -8.24507 37.0191 0 0 128
5.81107 -5.98402 36.7493 0 0 128
5.57382 -10.5026 37.2603 0 0 128
5.85697 -9.96178 36.3365 0 0 157
5.71373 -8.24507 37.0191 0 0 157
7.14638 9.34288 30.9164 0 0 206
6.79916 11.0999 31.4851 0 0 170
6.80074 8.82548 32.0881 0 0 170
8.45807 10.8368 25.9721 0 0 179
8.13596 12.7825 26.5695 0 0 179
8.1466 10.5137 27.2568 0 0 219
8.72752 11.0739 24.6694 0 0 181
8.45807 10.8368 25.9721 0 0 181
8.73816 8.80519 25.3568 0 0 222
8.99072 11.298 23.3376 0 0 140
8.72752 11.0739 24.6694 0 0 140
9.21232 9.18667 22.7074 0 0 141
8.99072 11.298 23.3376 0 0 141
9.40845 7.06564 22.0345 0 0 184
9.21232 9.18667 22.7074 0 0 184
9.20373 6.92125 23.3812 0 0 228
9.53736 4.87975 21.3498 0 0 230
9.54595 7.14516 20.676 0 0 186
9.40845 7.06564 22.0345 0 0 186
9.49065 -8.46666 16.6897 0 0 185
9.5333 -6.2527 16.1535 0 0 185
9.61891 -6.22289 17.5021 0 0 228
9.49065 -8.46666 16.6897 0 0 141
9.44328 -10.6328 17.1787 0 0 141
9.39304 -12.8544 17.6466 0 0 140
9.34541 -15.0194 18.0647 0 0 140
3 1 55 57
3 55 15 56
3 55 56 57
3 1 58 60
3 60 59 15
3 58 59 60
3 0 61 63
3 61 17 62
3 61 62 63
3 64 18 65
3 3 21 19
3 3 23 21
3 2 26 24
3 66 29 67
3 68 67 27
3 66 67 68
3 70 69 29
3 71 32 72
3 5 33 16
3 5 34 33
3 73 37 74
3 75 74 35
3 73 74 75
3 7 76 77
3 7 78 80
3 78 38 79
3 78 79 80
3 9 81 82
3 9 83 84
3 4 40 31
3 10 41 20
3 10 42 41
3 10 43 42
3 11 44 22
3 11 45 44
3 8 46 39
3 12 47 25
3 12 48 47
3 6 49 36
3 13 50 28
3 13 51 50
3 13 52 51
3 14 53 30
3 14 54 53
3 14 85 87
3 87 86 54
3 85 86 87
3 15 88 89
3 15 90 91
3 15 92 93
3 95 94 15
3 96 16 97
3 17 98 100
3 98 16 99
3 98 99 100
3 17 5 16
3 101 7 102
3 18 103 104
3 18 105 107
3 105 9 106
3 105 106 107
3 19 20 4
3 21 20 19
3 21 10 20
3 21 22 10
3 23 22 21
3 23 11 22
3 24 25 8
3 26 25 24
3 26 12 25
3 27 28 6
3 29 28 27
3 29 13 28
3 29 30 13
3 108 30 109
3 110 109 29
3 108 109 110
3 111 14 112
3 113 112 30
3 111 112 113
3 115 114 14
3 116 31 117
3 32 118 120
3 118 31 119
3 118 119 120
3 32 4 31
3 16 121 123
3 121 32 122
3 121 122 123
3 33 32 16
3 33 4 32
3 33 19 4
3 34 19 33
3 34 3 19
3 35 36 2
3 37 36 35
3 37 6 36
3 124 37 125
3 126 37 127
3 128 6 129
3 130 129 37
3 128 129 130
3 131 27 132
3 133 132 6
3 131 132 133
3 134 27 135
3 137 136 27
3 38 138 139
3 38 140 142
3 140 1 141
3 140 141 142
3 143 39 144
3 145 144 0
3 143 144 145
3 146 39 147
3 148 8 149
3 150 149 39
3 148 149 150
3 151 8 152
3 153 24 154
3 155 154 8
3 153 154 155
3 156 24 157
3 158 2 159
3 160 159 24
3 158 159 160
3 161 2 162
3 163 35 164
3 165 164 2
3 163 164 165
3 166 35 167
3 169 168 35
3 170 0 171
3 172 0 173
3 176 175 0
3 174 175 176
3 31 177 179
3 177 18 178
3 177 178 179
3 40 18 31
3 40 9 18
3 20 40 4
3 41 40 20
3 41 9 40
3 41 180 182
3 182 181 9
3 180 181 182
3 42 183 185
3 185 184 41
3 183 184 185
3 42 186 187
3 42 188 189
3 43 190 192
3 192 191 42
3 190 191 192
3 43 193 195
3 193 7 194
3 193 194 195
3 22 43 10
3 44 43 22
3 44 7 43
3 44 38 7
3 45 38 44
3 45 1 38
3 39 17 0
3 46 17 39
3 46 5 17
3 25 46 8
3 47 46 25
3 47 5 46
3 47 34 5
3 48 34 47
3 48 3 34
3 36 26 2
3 49 26 36
3 49 12 26
3 28 49 6
3 50 49 28
3 50 12 49
3 50 48 12
3 51 48 50
3 51 3 48
3 51 23 3
3 52 23 51
3 52 11 23
3 30 52 13
3 53 52 30
3 53 11 52
3 53 45 11
3 54 45 53
3 54 1 45
3 54 196 198
3 198 197 1
3 196 197 198
3 200 199 54
3 202 201 14
