ply
format ascii 1.0
element vertex 273
property float x
property float y
property float z
property uchar red
property uchar green
property uchar blue
element face 283
property list uchar int vertex_index
end_header
-65.1493 5.46753 10.5346 0 134 255
-62.0297 -1.38901 10.2315 255 2 0
-67.6004 -2.67157 14.5566 255 229 0
-62.8024 -12.2027 16.166 131 0 0
-65.692 5.96016 17.6502 255 73 0
-68.1187 -2.29065 22.0406 255 106 0
-64.3451 2.63432 9.67919 179 255 76
-61.3934 4.20043 7.93389 0 227 255
-66.4556 1.89158 12.1331 169 255 86
-65.2938 -2.33965 11.9535 255 167 0
-58.3722 -11.9242 15.2672 47 255 208
-64.7772 5.88473 22.3721 44 255 211
-66.4591 -2.31184 26.2799 14 255 241
-66.0428 1.87277 24.1936 138 255 117
-67.2715 1.95028 19.7161 255 76 0
-58.3376 0.084536 9.27175 121 255 134
-68.3658 -7.25249 17.4966 0 208 255
-66.0065 -7.36266 14.8421 255 86 0
-62.4736 -6.9638 13.1348 145 0 0
-65.7938 5.77568 13.4207 238 255 17
-68.5695 -2.54153 18.0136 255 174 0
-67.4479 1.83441 15.5532 255 186 0
-64.9318 4.27133 9.99402 24 255 231
-63.7783 4.97567 8.96436 0 169 255
-64.288 6.2485 9.63768 0 91 255
-65.787 3.91583 11.1839 41 255 214
-65.5332 2.14498 10.7965 140 255 115
-65.5389 3.92823 23.2796 146 255 109
-60.3409 -3.66637 11.1028 255 130 0
-58.3593 -3.02188 10.7433 152 255 103
-60.2054 -0.706182 9.66245 175 0 0
-68.0347 -4.99299 15.9706 255 210 0
-67.3639 -7.36646 16.0533 161 255 94
-67.0229 -4.99953 14.5434 255 179 0
-63.7491 -1.94035 10.9898 255 89 0
-64.0745 -4.60841 12.3848 255 28 0
-62.2688 -4.20112 11.643 188 0 0
-60.4507 -6.57783 12.6114 255 234 0
-64.7629 -12.1874 16.951 190 255 65
-62.9442 -14.6524 17.6335 242 255 13
-65.8504 5.89067 15.4353 255 152 0
-64.7922 7.63191 14.3791 55 255 200
-64.6171 7.74885 16.6079 116 255 139
-67.419 -2.24437 24.1531 255 87 0
-67.5444 -4.285 25.4727 3 255 252
-68.3345 -4.35537 23.4006 94 255 161
-68.8114 -4.51288 21.3703 77 255 178
-68.9345 -4.70606 19.4243 57 255 198
-68.514 -2.40636 19.9792 255 136 0
-66.5808 4.01448 18.6741 255 72 0
-67.5037 1.89512 17.5697 255 120 0
-66.759 3.9646 16.4875 255 131 0
-66.6846 3.89984 14.4601 255 221 0
-63.3749 0.724457 9.74606 255 170 0
-61.7451 1.42621 8.96811 255 90 0
-62.9403 3.33862 8.73053 99 255 156
-67.0694 -0.347055 13.271 242 255 13
-66.5964 -2.57935 13.14 255 216 0
-66.0948 -0.169222 11.8749 233 255 22
-64.8465 0.185015 10.7076 255 241 0
-60.6442 -12.1121 15.6147 255 73 0
-60.7528 -14.6996 17.0361 255 233 0
-65.3272 5.96599 19.9831 255 255 0
-64.2627 7.77449 18.9806 39 255 216
-66.3301 -0.225706 25.1742 128 255 127
-67.1774 -0.149385 22.9874 255 67 0
-67.7753 -0.172426 20.823 255 88 0
-66.7735 1.95626 21.9389 255 52 0
-66.1652 4.01386 20.9553 255 41 0
-60.0249 2.25728 8.36655 160 255 95
-66.2596 -9.7626 16.4001 128 255 127
-64.5804 -9.76111 15.4063 230 0 0
-65.683 -4.87531 13.3475 255 115 0
-64.352 -7.22842 13.8718 246 0 0
-62.6495 -9.63854 14.6555 128 0 0
-60.5481 -9.40169 14.1295 255 72 0
-60.8921 -17.1703 18.3694 0 255 255
-65.5357 5.6279 11.719 67 255 188
-64.5982 7.02476 10.7766 0 113 255
-64.7809 7.41001 12.3933 0 221 255
-68.6777 -4.88217 17.6095 127 255 128
-68.265 -2.64557 16.1915 255 210 0
-68.0846 -0.251707 18.721 255 123 0
-68.0762 -0.339624 16.7291 255 172 0
-67.7364 -0.387587 14.8977 255 225 0
-67.0966 1.81459 13.7243 244 255 11
-66.3573 3.86052 12.6671 170 255 85
-63.0975 5.42436 8.49513 0 0 130
-63.4391 6.10055 8.80393 0 0 130
-58.3967 -13.2912 15.9584 0 0 206
-59.5327 -13.3851 16.1322 0 0 206
-59.5082 -12.0182 15.441 0 0 255
-64.2628 6.79403 21.8981 0 0 183
-64.5378 6.83466 20.7036 0 0 183
-65.0522 5.92536 21.1776 0 0 220
-66.1865 0.82353 24.6839 0 0 217
-65.7242 0.720301 25.8107 0 0 181
-65.5805 1.76954 25.3203 0 0 181
-57.3583 -1.10044 9.90798 0 0 203
-57.3691 -2.65365 10.6438 0 0 203
-58.3484 -1.46867 10.0075 0 0 251
-57.405 0.523262 9.1612 0 0 156
-57.3583 -1.10044 9.90798 0 0 156
-67.9906 -8.44862 17.568 0 0 139
-68.4798 -8.33732 18.303 0 0 139
-59.4041 -7.8195 13.2048 0 0 157
-59.4049 -6.33087 12.4429 0 0 157
-59.7079 -17.2165 18.147 0 0 203
-60.8224 -15.9349 17.7028 0 0 250
-59.6383 -15.9811 17.4804 0 0 203
-64.2026 8.41305 13.8382 0 0 141
-64.0929 8.50544 14.954 0 0 141
-63.6359 8.60443 18.4545 0 0 147
-63.3732 8.57547 19.6966 0 0 147
-66.4742 -3.32898 26.9163 0 0 143
-65.8728 -2.41953 27.3374 0 0 143
-67.5681 -5.26875 26.2149 0 0 141
-67.9981 -5.31383 25.1918 0 0 141
-64.044 7.61701 10.2689 0 0 130
-64.1239 7.92984 11.0575 0 0 130
-63.694 6.73696 9.14059 0 0 147
-63.4391 6.10055 8.80393 0 0 147
-64.0331 5.61208 9.30102 0 0 167
-56.0492 -13.091 15.7568 0 0 160
-57.2024 -13.2294 15.8494 0 0 211
-57.219 -11.7858 15.1746 0 0 211
-63.9385 6.70293 23.1297 0 0 146
-64.4238 5.78831 23.5728 0 0 146
-65.389 2.7999 24.9014 0 0 144
-65.5805 1.76954 25.3203 0 0 144
-65.137 3.82764 24.4444 0 0 182
-65.7908 2.9005 23.7366 0 0 219
-65.389 2.7999 24.9014 0 0 182
-64.8046 4.81006 24.0265 0 0 145
-65.137 3.82764 24.4444 0 0 145
-64.4238 5.78831 23.5728 0 0 183
-65.158 4.90648 22.8258 0 0 221
-64.8046 4.81006 24.0265 0 0 183
-59.3501 -3.34412 10.923 0 0 251
-58.3592 -4.55289 11.5089 0 0 203
-59.35 -4.87514 11.6886 0 0 203
-60.5838 4.68968 7.61855 0 0 137
-61.1688 5.54923 7.57281 0 0 137
-59.35 -4.87514 11.6886 0 0 203
-59.4049 -6.33087 12.4429 0 0 203
-60.3958 -5.1221 11.8571 0 0 251
-64.8371 -13.3483 17.7103 0 0 145
-65.6042 -12.1242 17.4679 0 0 145
-63.9277 -14.5808 18.0516 0 0 190
-64.8371 -13.3483 17.7103 0 0 190
-63.8536 -13.4199 17.2922 0 0 230
-63.0189 -15.8261 18.3311 0 0 148
-63.9277 -14.5808 18.0516 0 0 148
-64.0053 8.56391 16.0684 0 0 175
-64.0929 8.50544 14.954 0 0 175
-64.7046 7.69038 15.4935 0 0 208
-68.3932 -5.34902 24.1558 0 0 174
-67.9981 -5.31383 25.1918 0 0 174
-67.9395 -4.32019 24.4366 0 0 207
-68.6656 -5.44791 23.15 0 0 140
-68.3932 -5.34902 24.1558 0 0 140
-68.904 -5.52666 22.1348 0 0 172
-68.6656 -5.44791 23.15 0 0 172
-68.5729 -4.43413 22.3855 0 0 205
-68.9965 -5.65333 21.1664 0 0 139
-68.904 -5.52666 22.1348 0 0 139
-68.8729 -4.60947 20.3973 0 0 201
-69.0581 -5.74992 20.1933 0 0 170
-68.9965 -5.65333 21.1664 0 0 170
-62.6785 4.60583 8.37822 0 0 157
-63.3593 4.15714 8.84745 0 0 181
-63.0975 5.42436 8.49513 0 0 157
-61.9051 5.03674 7.9799 0 0 161
-62.1668 3.76952 8.33221 0 0 188
-62.6785 4.60583 8.37822 0 0 161
-61.1688 5.54923 7.57281 0 0 135
-61.9051 5.03674 7.9799 0 0 135
-59.587 -14.6789 16.8428 0 0 205
-60.6985 -13.4058 16.3254 0 0 253
-59.5327 -13.3851 16.1322 0 0 205
-59.6383 -15.9811 17.4804 0 0 156
-59.587 -14.6789 16.8428 0 0 156
-58.3967 -13.2912 15.9584 0 0 159
-57.2024 -13.2294 15.8494 0 0 159
-64.0055 7.73891 20.2024 0 0 184
-64.795 6.87024 19.4818 0 0 222
-64.5378 6.83466 20.7036 0 0 184
-63.3732 8.57547 19.6966 0 0 147
-64.0055 7.73891 20.2024 0 0 147
-64.2628 6.79403 21.8981 0 0 147
-63.9385 6.70293 23.1297 0 0 147
-65.8682 -1.37385 26.817 0 0 143
-65.8728 -2.41953 27.3374 0 0 143
-65.8037 -0.330779 26.2641 0 0 144
-65.7242 0.720301 25.8107 0 0 144
-66.3946 -1.26877 25.7271 0 0 214
-65.8682 -1.37385 26.817 0 0 179
-65.8037 -0.330779 26.2641 0 0 179
-57.3112 -4.25896 11.4186 0 0 158
-58.3592 -4.55289 11.5089 0 0 158
-57.3112 -4.25896 11.4186 0 0 158
-57.3691 -2.65365 10.6438 0 0 158
-59.8996 3.7181 7.83488 0 0 176
-60.7092 3.22886 8.15022 0 0 209
-60.5838 4.68968 7.61855 0 0 176
-59.1475 2.72328 8.15565 0 0 145
-59.8996 3.7181 7.83488 0 0 145
-58.3038 1.63691 8.60825 0 0 190
-59.1813 1.17091 8.81915 0 0 231
-59.1475 2.72328 8.15565 0 0 190
-57.405 0.523262 9.1612 0 0 152
-58.3038 1.63691 8.60825 0 0 152
-67.4896 -8.5056 16.8464 0 0 169
-67.9906 -8.44862 17.568 0 0 169
-67.8648 -7.30948 16.775 0 0 199
-66.9375 -9.70367 17.0198 0 0 174
-67.4896 -8.5056 16.8464 0 0 174
-66.8117 -8.56453 16.2267 0 0 207
-66.3525 -10.9118 17.1924 0 0 142
-66.9375 -9.70367 17.0198 0 0 142
-65.5112 -10.975 16.6756 0 0 219
-65.6042 -12.1242 17.4679 0 0 182
-66.3525 -10.9118 17.1924 0 0 182
-59.4528 -9.23143 13.9639 0 0 206
-60.4994 -7.98976 13.3704 0 0 255
-59.4041 -7.8195 13.2048 0 0 206
-58.3649 -10.4927 14.5328 0 0 207
-59.4602 -10.663 14.6983 0 1 255
-59.4528 -9.23143 13.9639 0 0 207
-57.219 -11.7858 15.1746 0 0 160
-58.3649 -10.4927 14.5328 0 0 160
-61.9928 -17.085 18.6991 0 0 196
-63.0189 -15.8261 18.3311 0 0 196
-61.9181 -15.9114 18.0014 0 0 239
-59.7964 -18.46 18.7247 0 0 154
-59.7079 -17.2165 18.147 0 0 154
-60.9877 -18.3559 18.9835 0 0 154
-59.7964 -18.46 18.7247 0 0 154
-61.9928 -17.085 18.6991 0 0 151
-60.9877 -18.3559 18.9835 0 0 151
-64.2152 8.12246 11.8658 0 0 154
-64.1239 7.92984 11.0575 0 0 154
-64.6896 7.21739 11.5849 0 0 176
-64.197 8.3021 12.8453 0 0 165
-64.7866 7.52096 13.3862 0 0 194
-64.2026 8.41305 13.8382 0 0 165
-64.2152 8.12246 11.8658 0 0 136
-64.197 8.3021 12.8453 0 0 136
-63.8131 8.59161 17.2681 0 0 181
-64.4399 7.76167 17.7942 0 0 218
-63.6359 8.60443 18.4545 0 0 181
-64.0053 8.56391 16.0684 0 0 145
-63.8131 8.59161 17.2681 0 0 145
-67.0169 -4.31556 26.5126 0 0 177
-66.4742 -3.32898 26.9163 0 0 177
-67.0018 -3.29842 25.8763 0 0 211
-67.0169 -4.31556 26.5126 0 0 142
-67.5681 -5.26875 26.2149 0 0 142
-68.6707 -7.15024 18.3214 0 0 138
-68.4798 -8.33732 18.303 0 0 138
-68.955 -5.87703 19.2852 0 0 138
-69.0581 -5.74992 20.1933 0 0 138
-68.8266 -5.96508 18.3778 0 0 168
-68.955 -5.87703 19.2852 0 0 168
-68.8061 -4.79411 18.5169 0 0 197
-68.5217 -6.06733 17.553 0 0 195
-68.6707 -7.15024 18.3214 0 0 166
-68.8266 -5.96508 18.3778 0 0 166
-63.8889 7.22888 9.6994 0 0 145
-64.4431 6.63663 10.2071 0 0 164
-64.044 7.61701 10.2689 0 0 145
-63.694 6.73696 9.14059 0 0 128
-63.8889 7.22888 9.6994 0 0 128
3 0 24 22
3 0 22 25
3 1 30 28
3 2 33 31
3 1 36 34
3 1 28 36
3 3 39 38
3 4 42 40
3 5 45 43
3 5 46 45
3 5 48 46
3 4 51 49
3 4 40 51
3 6 55 53
3 88 87 23
3 8 58 56
3 6 59 26
3 6 53 59
3 10 89 91
3 91 90 60
3 89 90 91
3 11 92 94
3 94 93 62
3 92 93 94
3 13 95 97
3 95 64 96
3 95 96 97
3 13 65 64
3 13 67 65
3 11 68 27
3 11 62 68
3 15 98 100
3 100 99 29
3 98 99 100
3 15 101 102
3 7 69 54
3 16 103 104
3 17 70 32
3 17 71 70
3 9 72 57
3 18 73 35
3 18 74 73
3 18 75 74
3 106 105 37
3 107 76 108
3 109 108 61
3 107 108 109
3 19 79 77
3 111 110 41
3 113 112 63
3 12 114 115
3 117 116 44
3 20 80 47
3 20 81 80
3 14 82 66
3 21 83 50
3 21 84 83
3 21 85 84
3 19 86 52
3 19 77 86
3 119 118 78
3 22 23 6
3 24 23 22
3 24 120 122
3 122 121 23
3 120 121 122
3 25 26 8
3 22 26 25
3 22 6 26
3 125 124 10
3 123 124 125
3 127 126 11
3 128 13 129
3 130 27 131
3 132 131 13
3 130 131 132
3 133 27 134
3 135 11 136
3 137 136 27
3 135 136 137
3 28 138 140
3 138 29 139
3 138 139 140
3 30 29 28
3 30 15 29
3 142 141 7
3 31 32 16
3 33 32 31
3 33 17 32
3 34 35 9
3 36 35 34
3 36 18 35
3 36 37 18
3 28 37 36
3 28 143 145
3 145 144 37
3 143 144 145
3 38 146 147
3 39 148 150
3 150 149 38
3 148 149 150
3 39 151 152
3 40 41 19
3 42 41 40
3 42 153 155
3 155 154 41
3 153 154 155
3 43 44 12
3 45 44 43
3 45 156 158
3 158 157 44
3 156 157 158
3 45 159 160
3 46 161 163
3 163 162 45
3 161 162 163
3 46 164 165
3 46 166 168
3 166 47 167
3 166 167 168
3 48 47 46
3 48 20 47
3 49 50 14
3 51 50 49
3 51 21 50
3 51 52 21
3 40 52 51
3 40 19 52
3 53 54 1
3 55 54 53
3 55 7 54
3 23 55 6
3 169 55 170
3 171 170 23
3 169 170 171
3 172 7 173
3 174 173 55
3 172 173 174
3 176 175 7
3 56 57 2
3 58 57 56
3 58 9 57
3 26 58 8
3 59 58 26
3 59 9 58
3 59 34 9
3 53 34 59
3 53 1 34
3 60 61 3
3 177 61 178
3 179 178 60
3 177 178 179
3 181 180 61
3 183 182 10
3 62 63 4
3 184 63 185
3 186 185 62
3 184 185 186
3 188 187 63
3 190 189 11
3 191 12 192
3 64 193 194
3 64 195 197
3 195 12 196
3 195 196 197
3 64 43 12
3 65 43 64
3 65 5 43
3 65 66 5
3 67 66 65
3 67 14 66
3 27 67 13
3 68 67 27
3 68 14 67
3 68 49 14
3 62 49 68
3 62 4 49
3 29 198 199
3 201 200 29
3 54 30 1
3 69 30 54
3 69 15 30
3 202 69 203
3 204 203 7
3 202 203 204
3 205 69 206
3 207 15 208
3 209 208 69
3 207 208 209
3 211 210 15
3 32 212 214
3 214 213 16
3 212 213 214
3 70 215 217
3 217 216 32
3 215 216 217
3 70 218 219
3 70 220 222
3 220 38 221
3 220 221 222
3 71 38 70
3 71 3 38
3 57 33 2
3 72 33 57
3 72 17 33
3 35 72 9
3 73 72 35
3 73 17 72
3 73 71 17
3 74 71 73
3 74 3 71
3 74 60 3
3 75 60 74
3 75 10 60
3 37 75 18
3 223 75 224
3 225 224 37
3 223 224 225
3 226 10 227
3 228 227 75
3 226 227 228
3 230 229 10
3 61 39 3
3 76 39 61
3 76 231 233
3 233 232 39
3 231 232 233
3 234 76 235
3 236 76 237
3 239 238 76
3 77 78 0
3 79 78 77
3 79 240 242
3 242 241 78
3 240 241 242
3 41 79 19
3 243 79 244
3 245 244 41
3 243 244 245
3 247 246 79
3 63 42 4
3 248 42 249
3 250 249 63
3 248 249 250
3 252 251 42
3 44 253 255
3 255 254 12
3 253 254 255
3 257 256 44
3 258 16 259
3 47 260 261
3 80 262 264
3 264 263 47
3 262 263 264
3 80 265 267
3 265 16 266
3 265 266 267
3 80 31 16
3 81 31 80
3 81 2 31
3 66 48 5
3 82 48 66
3 82 20 48
3 50 82 14
3 83 82 50
3 83 20 82
3 83 81 20
3 84 81 83
3 84 2 81
3 84 56 2
3 85 56 84
3 85 8 56
3 52 85 21
3 86 85 52
3 86 8 85
3 86 25 8
3 77 25 86
3 77 0 25
3 78 24 0
3 268 24 269
3 270 269 78
3 268 269 270
3 272 271 24
