ply
format ascii 1.0
element vertex 154
property float x
property float y
property float z
property uchar red
property uchar green
property uchar blue
element face 146
property list uchar int vertex_index
end_header
22.4241 -32.6245 76.7716 165 0 0
16.3848 -38.399 83.4433 236 0 0
12.9766 -32.6023 81.9696 94 255 161
17.5819 -32.6812 79.1382 255 184 0
11.6811 -38.8068 85.7412 195 255 60
24.238 -35.3136 78.3906 159 0 0
21.2367 -38.1017 81.3432 150 255 105
19.1888 -35.4942 80.2704 165 0 0
14.301 -35.691 82.5167 180 0 0
9.69701 -35.8352 85.0705 82 255 173
23.2656 -34.0052 77.5395 128 0 0
21.7001 -35.4027 79.292 158 0 0
20.754 -34.0763 78.5157 150 0 0
15.2423 -32.6662 80.5044 208 255 47
15.8587 -34.1925 80.7986 182 0 0
13.5038 -34.2229 82.1065 181 0 0
11.9547 -35.7785 83.7723 183 0 0
11.2315 -34.2131 83.4931 212 255 43
24.197 -31.1084 75.1303 80 255 175
24.8986 -32.5629 75.7637 237 255 18
25.8015 -33.9193 76.6504 251 255 4
18.7993 -38.2357 82.3671 255 229 0
17.4978 -39.7724 83.56 41 255 214
21.8183 -31.1354 76.3157 196 255 59
19.9806 -32.664 77.8929 186 0 0
19.4706 -31.1294 77.6233 76 255 179
14.0066 -38.5919 84.5742 216 0 0
15.1682 -39.9852 84.7161 170 255 85
12.8721 -40.2345 85.8976 64 255 191
25.2253 -36.5929 79.0723 172 255 83
23.6844 -37.9891 80.3535 23 255 232
22.7104 -36.6914 79.9793 232 0 0
20.2073 -36.7965 80.9273 214 0 0
17.7301 -36.9189 81.9407 202 0 0
18.2804 -34.1398 79.5991 171 0 0
16.7177 -35.592 81.344 173 0 0
15.2918 -37.0604 83.032 194 0 0
12.9076 -37.2145 84.1956 190 0 0
10.5955 -37.3673 85.4037 204 255 51
26.7877 -35.2125 77.5392 91 255 164
20.4931 -30.3238 76.9714 0 0 175
20.6444 -31.1324 76.9695 0 0 216
21.6669 -30.3269 76.3176 0 0 175
21.6669 -30.3269 76.3176 0 0 134
22.8007 -30.3345 75.626 0 0 134
9.03699 -36.6665 85.8368 0 0 175
9.48622 -37.4325 86.0034 0 0 175
10.1462 -36.6013 85.2371 0 0 216
21.7197 -38.778 81.346 0 0 165
22.9435 -38.7217 80.8511 0 0 165
22.4605 -38.0454 80.8484 0 0 200
15.7496 -40.7194 84.5994 0 0 132
14.6339 -40.8534 85.2184 0 0 132
11.1545 -39.659 86.4058 0 0 134
10.5551 -38.9175 86.3215 0 0 134
25.395 -31.0765 74.5944 0 0 134
25.1286 -30.307 74.3975 0 0 134
25.7458 -31.8038 74.9111 0 0 177
25.395 -31.0765 74.5944 0 0 177
24.5478 -31.8356 75.447 0 0 219
26.1443 -32.5154 75.3072 0 0 137
25.7458 -31.8038 74.9111 0 0 137
25.35 -33.2411 76.207 0 0 227
26.5957 -33.1936 75.7505 0 0 182
26.1443 -32.5154 75.3072 0 0 182
19.323 -38.9166 82.4037 0 0 167
20.5417 -38.8496 81.8918 0 0 167
20.018 -38.1687 81.8552 0 0 204
18.6723 -39.6849 83.0002 0 0 167
19.323 -38.9166 82.4037 0 0 167
18.1486 -39.0041 82.9635 0 0 204
18.0379 -40.4999 83.4109 0 0 131
18.6723 -39.6849 83.0002 0 0 131
19.3717 -30.2925 77.7179 0 0 135
20.4931 -30.3238 76.9714 0 0 135
18.3196 -31.106 78.3377 0 0 136
19.3717 -30.2925 77.7179 0 0 136
17.3753 -31.882 79.0952 0 0 176
18.5262 -31.9053 78.3808 0 0 217
18.3196 -31.106 78.3377 0 0 176
16.2055 -31.8744 79.7783 0 0 176
16.4121 -32.6737 79.8213 0 0 217
17.3753 -31.882 79.0952 0 0 176
15.0847 -31.8232 80.5448 0 0 136
16.2055 -31.8744 79.7783 0 0 136
13.9519 -31.7912 81.2774 0 0 178
14.1095 -32.6342 81.237 0 0 221
15.0847 -31.8232 80.5448 0 0 178
23.9901 -30.321 75.0333 0 0 133
25.1286 -30.307 74.3975 0 0 133
23.0076 -31.1219 75.723 0 0 214
23.9901 -30.321 75.0333 0 0 174
22.8007 -30.3345 75.626 0 0 174
13.4858 -40.978 85.8091 0 0 173
14.6339 -40.8534 85.2184 0 0 173
14.0202 -40.1098 85.3069 0 0 213
11.75 -40.3728 86.484 0 0 173
12.2766 -39.5206 85.8194 0 0 213
11.1545 -39.659 86.4058 0 0 173
12.386 -41.1312 86.4234 0 0 134
11.75 -40.3728 86.484 0 0 134
12.9998 -41.8748 86.3349 0 0 133
13.4858 -40.978 85.8091 0 0 173
12.386 -41.1312 86.4234 0 0 173
24.4548 -37.291 79.7129 0 0 201
24.9059 -37.9356 79.8613 0 0 165
25.6764 -37.2375 79.2208 0 0 165
10.0123 -38.1978 86.1527 0 0 175
10.5551 -38.9175 86.3215 0 0 175
11.1383 -38.0871 85.5725 0 0 215
10.0123 -38.1978 86.1527 0 0 135
9.48622 -37.4325 86.0034 0 0 135
12.8685 -31.7021 82.0773 0 0 138
13.9519 -31.7912 81.2774 0 0 138
11.8882 -32.5355 82.7289 0 0 138
12.8685 -31.7021 82.0773 0 0 138
11.0157 -33.3409 83.4907 0 0 180
12.1041 -33.4077 82.7313 0 0 224
11.8882 -32.5355 82.7289 0 0 180
10.1454 -34.177 84.1982 0 0 136
11.0157 -33.3409 83.4907 0 0 136
9.3781 -34.9881 84.9869 0 0 178
10.4643 -35.0242 84.2818 0 0 221
10.1454 -34.177 84.1982 0 0 178
8.62295 -35.836 85.708 0 0 176
9.3781 -34.9881 84.9869 0 0 176
8.30405 -34.9889 85.6244 0 0 134
9.03699 -36.6665 85.8368 0 0 135
8.62295 -35.836 85.708 0 0 135
27.0737 -33.8596 76.2362 0 0 139
26.5957 -33.1936 75.7505 0 0 139
27.5668 -34.5062 76.6806 0 0 181
27.0737 -33.8596 76.2362 0 0 181
26.2946 -34.5659 77.0948 0 0 225
28.0592 -35.1436 77.1225 0 0 137
27.5668 -34.5062 76.6806 0 0 137
27.2616 -35.8467 77.8569 0 0 133
28.0592 -35.1436 77.1225 0 0 133
26.4805 -36.5369 78.6235 0 0 173
27.2616 -35.8467 77.8569 0 0 173
26.0065 -35.9027 78.3058 0 0 213
25.6764 -37.2375 79.2208 0 0 129
26.4805 -36.5369 78.6235 0 0 129
24.1187 -38.66 80.3082 0 0 128
24.9059 -37.9356 79.8613 0 0 128
24.1187 -38.66 80.3082 0 0 128
22.9435 -38.7217 80.8511 0 0 128
21.7197 -38.778 81.346 0 0 129
20.5417 -38.8496 81.8918 0 0 129
16.9144 -40.613 84.0213 0 0 171
16.333 -39.8788 84.138 0 0 210
15.7496 -40.7194 84.5994 0 0 171
18.0379 -40.4999 83.4109 0 0 131
16.9144 -40.613 84.0213 0 0 131
3 0 12 10
3 2 15 13
3 2 17 15
3 0 19 18
3 0 10 19
3 1 22 21
3 40 25 41
3 42 41 23
3 40 41 42
3 43 23 44
3 4 28 26
3 5 31 29
3 7 32 11
3 7 33 32
3 3 34 24
3 8 35 14
3 8 36 35
3 8 37 36
3 9 38 16
3 9 45 47
3 47 46 38
3 45 46 47
3 5 39 20
3 5 29 39
3 6 48 50
3 50 49 30
3 48 49 50
3 52 51 27
3 54 53 4
3 10 11 5
3 12 11 10
3 12 7 11
3 13 14 3
3 15 14 13
3 15 8 14
3 15 16 8
3 17 16 15
3 17 9 16
3 18 55 56
3 19 57 59
3 59 58 18
3 57 58 59
3 19 60 61
3 19 62 64
3 62 20 63
3 62 63 64
3 10 20 19
3 10 5 20
3 21 65 67
3 67 66 6
3 65 66 67
3 22 68 70
3 70 69 21
3 68 69 70
3 22 71 72
3 23 24 0
3 25 24 23
3 25 3 24
3 73 25 74
3 75 25 76
3 77 3 78
3 79 78 25
3 77 78 79
3 80 13 81
3 82 81 3
3 80 81 82
3 83 13 84
3 85 2 86
3 87 86 13
3 85 86 87
3 88 18 89
3 23 90 92
3 90 18 91
3 90 91 92
3 23 0 18
3 26 27 1
3 28 27 26
3 28 93 95
3 95 94 27
3 93 94 95
3 96 28 97
3 98 97 4
3 96 97 98
3 99 28 100
3 103 102 28
3 101 102 103
3 29 104 106
3 104 30 105
3 104 105 106
3 31 30 29
3 31 6 30
3 11 31 5
3 32 31 11
3 32 6 31
3 32 21 6
3 33 21 32
3 33 1 21
3 24 12 0
3 34 12 24
3 34 7 12
3 14 34 3
3 35 34 14
3 35 7 34
3 35 33 7
3 36 33 35
3 36 1 33
3 36 26 1
3 37 26 36
3 37 4 26
3 16 37 8
3 38 37 16
3 38 4 37
3 38 107 109
3 109 108 4
3 107 108 109
3 111 110 38
3 112 2 113
3 114 2 115
3 116 17 117
3 118 117 2
3 116 117 118
3 119 17 120
3 121 9 122
3 123 122 17
3 121 122 123
3 124 9 125
3 124 125 126
3 128 127 9
3 20 129 130
3 39 131 133
3 133 132 20
3 131 132 133
3 39 134 135
3 39 136 137
3 29 138 140
3 140 139 39
3 138 139 140
3 29 141 142
3 30 143 144
3 146 145 30
3 148 147 6
3 27 22 1
3 149 22 150
3 151 150 27
3 149 150 151
3 153 152 22
