ply
format ascii 1.0
element vertex 193
property float x
property float y
property float z
property uchar red
property uchar green
property uchar blue
element face 180
property list uchar int vertex_index
end_header
-5.23409 -8.9135 86.4135 255 126 0
0.137815 -20.2259 86.174 6 255 249
-11.3789 -12.8732 84.2819 255 162 0
-4.65131 -21.8456 88.4707 0 249 255
-2.24742 -14.2704 87.0317 50 255 205
-8.38766 -4.1138 84.3902 201 0 0
-8.66024 3.16618 82.9577 100 255 155
-8.09505 -10.8539 85.7895 237 0 0
-4.81795 -15.5516 87.6944 255 122 0
-8.0197 -17.0605 86.999 161 255 94
-11.2395 -6.65117 82.6348 255 248 0
-1.8141 -20.9062 88.1694 255 202 0
0.434307 -26.852 87.2258 0 129 255
-3.95996 -8.09773 86.2041 0 224 255
-3.6929 -11.5151 86.9057 152 255 103
-6.81623 -6.45311 85.5694 255 45 0
-7.02124 -2.94139 84.877 255 242 0
-5.47553 -5.45576 85.7177 95 255 160
-9.68129 -11.8806 85.1026 189 0 0
-8.02544 -14.0201 86.4523 249 0 0
-9.72401 -14.9036 85.789 191 255 64
-12.9512 -10.9385 82.4997 110 255 145
-11.2737 -9.85166 83.4611 255 143 0
-9.70425 -8.70503 84.3548 160 0 0
-4.69708 -18.7428 88.1784 255 116 0
-3.25281 -18.1439 88.117 255 174 0
-3.13264 -21.3581 88.5213 150 255 105
-0.952711 -17.1795 86.785 71 255 184
-9.90437 -1.87311 82.8949 255 123 0
-10.0167 1.77204 82.1785 133 255 122
-8.5482 -0.537775 83.6918 176 0 0
-7.18292 0.687534 84.1612 57 255 198
-13.1944 -13.7851 83.407 0 221 255
-6.61359 -9.8471 86.2542 255 53 0
-5.00361 -12.2764 87.0852 255 126 0
-6.45024 -13.1273 86.9114 255 55 0
-6.34726 -16.3 87.4847 255 55 0
-6.31071 -19.3696 87.8957 128 255 127
-11.269 -3.26795 81.8517 150 255 105
-9.78715 -5.36887 83.6124 128 0 0
-8.22361 -7.55323 85.0887 221 0 0
-3.44673 -14.8617 87.5595 255 176 0
-1.99939 -17.6124 87.6607 255 190 0
-0.719557 -20.5214 87.3862 255 163 0
-1.71768 -24.137 88.5177 0 198 255
-0.564131 -23.8213 87.861 137 255 118
0.335148 -23.5629 86.7552 84 255 171
0.447994 -20.1268 85.37 0 0 139
0.009117 -18.5441 85.8359 0 0 139
0.55582 -21.8008 85.7016 0 0 138
0.447994 -20.1268 85.37 0 0 138
-1.73888 -14.0374 86.5622 0 0 131
-2.38735 -12.575 86.6808 0 0 131
-1.60007 -15.7249 86.9084 0 0 194
-1.09152 -15.492 86.4388 0 0 163
-1.73888 -14.0374 86.5622 0 0 163
-6.43328 -0.604769 84.5826 0 0 171
-7.10208 -1.12693 84.5191 0 0 206
-6.35245 -2.41923 84.9405 0 0 171
-6.49807 1.22628 84.2055 0 0 136
-6.43328 -0.604769 84.5826 0 0 136
-13.3332 -15.1259 83.7801 0 0 140
-14.162 -14.1841 82.9724 0 0 140
-14.162 -14.1841 82.9724 0 0 183
-13.9737 -12.8529 82.4776 0 0 183
-14.9413 -13.2519 82.043 0 0 142
-9.37108 4.35771 82.1853 0 0 190
-10.0493 3.66064 81.7957 0 0 190
-9.33845 2.46911 82.5681 0 0 235
-11.9581 -5.6579 81.648 0 0 146
-12.0068 -7.27681 82.0957 0 0 146
-11.2543 -4.95956 82.2433 0 0 244
-11.9729 -3.96629 81.2565 0 0 196
-11.9581 -5.6579 81.648 0 0 196
-1.72763 -25.704 88.6038 0 0 129
-2.41084 -24.3118 88.6231 0 0 129
-0.064912 -25.3366 87.5434 0 0 188
-0.54192 -25.4357 88.0269 0 0 159
-0.042701 -26.9511 87.7093 0 0 159
0.772073 -26.7723 86.5192 0 0 169
0.722494 -25.1278 86.2839 0 0 169
0.384728 -25.2074 86.9905 0 0 204
-3.24362 -9.48866 86.267 0 0 131
-3.38032 -7.76354 85.8984 0 0 131
-3.11009 -11.1973 86.6178 0 0 161
-3.24362 -9.48866 86.267 0 0 161
-3.82643 -9.8064 86.5549 0 0 192
-2.97016 -12.8927 86.9687 0 0 191
-2.38735 -12.575 86.6808 0 0 161
-3.11009 -11.1973 86.6178 0 0 161
-5.57959 -3.67641 85.3608 0 0 170
-6.35245 -2.41923 84.9405 0 0 170
-6.24839 -4.19857 85.2974 0 0 205
-4.84104 -5.02765 85.599 0 0 132
-5.57959 -3.67641 85.3608 0 0 132
-4.08326 -6.34864 85.8422 0 0 164
-4.84104 -5.02765 85.599 0 0 164
-4.71774 -6.77674 85.9609 0 0 196
-3.38032 -7.76354 85.8984 0 0 131
-4.08326 -6.34864 85.8422 0 0 131
-7.97108 5.70616 82.7587 0 0 141
-8.67225 5.07521 82.5468 0 0 183
-7.95907 3.79714 83.1696 0 0 183
-12.8626 -9.42049 82.0282 0 0 145
-13.6865 -10.0039 81.4855 0 0 145
-12.0239 -8.87705 82.5089 0 0 188
-12.8626 -9.42049 82.0282 0 0 188
-12.1124 -10.3951 82.9804 0 0 232
-11.2566 -8.25141 83.0479 0 0 237
-12.0068 -7.27681 82.0957 0 0 191
-12.0239 -8.87705 82.5089 0 0 191
0.414359 -28.4509 87.4094 0 0 129
-0.042701 -26.9511 87.7093 0 0 129
0.778421 -28.3981 86.7738 0 0 131
0.414359 -28.4509 87.4094 0 0 131
-0.536146 -17.0209 86.1414 0 0 134
-1.09152 -15.492 86.4388 0 0 134
-0.407448 -18.7027 86.4795 0 0 203
0.009117 -18.5441 85.8359 0 0 169
-0.536146 -17.0209 86.1414 0 0 169
-9.96051 -0.050534 82.5367 0 0 243
-10.6762 1.03064 81.644 0 0 196
-10.6201 -0.791934 82.0022 0 0 196
-7.22041 2.55781 83.7713 0 0 181
-7.95907 3.79714 83.1696 0 0 181
-7.92158 1.92686 83.5595 0 0 222
-7.22041 2.55781 83.7713 0 0 137
-6.49807 1.22628 84.2055 0 0 137
-12.368 -14.7581 84.2039 0 0 183
-11.4602 -14.3021 84.6413 0 0 183
-12.2867 -13.3292 83.8444 0 0 224
-12.368 -14.7581 84.2039 0 0 140
-13.3332 -15.1259 83.7801 0 0 140
-13.8521 -11.4297 82.024 0 0 144
-13.6865 -10.0039 81.4855 0 0 144
-13.0728 -12.3618 82.9534 0 0 229
-13.8521 -11.4297 82.024 0 0 186
-13.9737 -12.8529 82.4776 0 0 186
-3.87765 -23.1661 88.5996 0 0 132
-4.67124 -23.3438 88.499 0 0 132
-10.7094 2.88662 81.2726 0 0 148
-10.6762 1.03064 81.644 0 0 148
-10.7094 2.88662 81.2726 0 0 149
-10.0493 3.66064 81.7957 0 0 149
-9.38309 6.26673 81.7744 0 0 145
-9.37108 4.35771 82.1853 0 0 191
-8.67225 5.07521 82.5468 0 0 191
-10.6328 -15.3174 85.3949 0 0 181
-10.5515 -13.8884 85.0354 0 0 221
-11.4602 -14.3021 84.6413 0 0 181
-9.77221 -16.346 86.051 0 0 140
-10.6328 -15.3174 85.3949 0 0 140
-8.92005 -17.4244 86.6561 0 0 177
-8.87186 -15.9821 86.394 0 0 216
-9.77221 -16.346 86.051 0 0 177
-8.04487 -18.5219 87.1677 0 0 138
-8.92005 -17.4244 86.6561 0 0 138
-7.19037 -19.6764 87.616 0 0 174
-7.1652 -18.2151 87.4474 0 0 211
-8.04487 -18.5219 87.1677 0 0 174
-6.32557 -20.8515 87.9832 0 0 137
-7.19037 -19.6764 87.616 0 0 137
-5.49587 -22.0895 88.2707 0 0 170
-5.48101 -20.6076 88.1832 0 0 205
-6.32557 -20.8515 87.9832 0 0 170
-5.5158 -23.5877 88.2991 0 0 135
-4.67124 -23.3438 88.499 0 0 170
-5.49587 -22.0895 88.2707 0 0 170
-11.9599 -2.24824 80.8463 0 0 148
-11.9729 -3.96629 81.2565 0 0 148
-11.3024 -1.48935 81.4806 0 0 150
-11.9599 -2.24824 80.8463 0 0 150
-10.5867 -2.57053 82.3733 0 0 240
-10.6201 -0.791934 82.0022 0 0 193
-11.3024 -1.48935 81.4806 0 0 193
-3.11831 -22.9223 88.6249 0 0 164
-3.89197 -21.6019 88.496 0 0 197
-3.87765 -23.1661 88.5996 0 0 164
-2.42516 -22.7476 88.5195 0 0 189
-3.11831 -22.9223 88.6249 0 0 159
-2.41084 -24.3118 88.6231 0 0 159
-1.11869 -25.5936 88.3552 0 0 128
-1.72763 -25.704 88.6038 0 0 128
-1.14091 -23.9791 88.1894 0 0 186
-1.11869 -25.5936 88.3552 0 0 158
-0.54192 -25.4357 88.0269 0 0 158
0.654486 -23.4693 85.9922 0 0 174
0.55582 -21.8008 85.7016 0 0 174
0.236482 -21.8944 86.4646 0 0 211
0.654486 -23.4693 85.9922 0 0 136
0.722494 -25.1278 86.2839 0 0 136
0.772073 -26.7723 86.5192 0 0 134
0.778421 -28.3981 86.7738 0 0 134
3 0 14 13
3 0 17 15
3 0 13 17
3 1 47 48
3 1 49 50
3 2 20 18
3 2 22 21
3 2 18 22
3 3 26 24
3 4 51 52
3 4 53 55
3 53 27 54
3 53 54 55
3 5 30 28
3 56 31 57
3 58 57 16
3 56 57 58
3 60 59 31
3 62 61 32
3 63 32 64
3 63 64 65
3 6 66 68
3 68 67 29
3 66 67 68
3 7 35 33
3 9 36 19
3 9 37 36
3 10 69 70
3 10 71 73
3 71 38 72
3 71 72 73
3 10 39 38
3 7 40 23
3 7 33 40
3 8 41 34
3 11 42 25
3 11 43 42
3 74 44 75
3 12 76 78
3 76 45 77
3 76 77 78
3 12 46 45
3 12 79 81
3 81 80 46
3 79 80 81
3 13 82 83
3 14 84 86
3 86 85 13
3 84 85 86
3 14 87 89
3 87 4 88
3 87 88 89
3 15 16 5
3 17 16 15
3 17 90 92
3 92 91 16
3 90 91 92
3 17 93 94
3 13 95 97
3 97 96 17
3 95 96 97
3 13 98 99
3 102 101 6
3 100 101 102
3 18 19 7
3 20 19 18
3 20 9 19
3 21 103 104
3 22 105 107
3 107 106 21
3 105 106 107
3 22 108 110
3 108 10 109
3 108 109 110
3 22 23 10
3 18 23 22
3 18 7 23
3 24 25 8
3 26 25 24
3 26 11 25
3 111 12 112
3 114 113 12
3 27 115 116
3 27 117 119
3 117 1 118
3 117 118 119
3 28 120 122
3 120 29 121
3 120 121 122
3 30 29 28
3 30 6 29
3 16 30 5
3 31 30 16
3 31 6 30
3 31 123 125
3 125 124 6
3 123 124 125
3 127 126 31
3 32 128 130
3 130 129 2
3 128 129 130
3 132 131 32
3 133 21 134
3 32 135 137
3 135 21 136
3 135 136 137
3 32 2 21
3 139 138 3
3 29 140 141
3 143 142 29
3 146 145 6
3 144 145 146
3 33 34 0
3 35 34 33
3 35 8 34
3 19 35 7
3 36 35 19
3 36 8 35
3 36 24 8
3 37 24 36
3 37 3 24
3 147 20 148
3 149 148 2
3 147 148 149
3 150 20 151
3 152 9 153
3 154 153 20
3 152 153 154
3 155 9 156
3 157 37 158
3 159 158 9
3 157 158 159
3 160 37 161
3 162 3 163
3 164 163 37
3 162 163 164
3 167 166 3
3 165 166 167
3 38 168 169
3 38 170 171
3 38 172 174
3 172 28 173
3 172 173 174
3 39 28 38
3 39 5 28
3 23 39 10
3 40 39 23
3 40 5 39
3 40 15 5
3 33 15 40
3 33 0 15
3 34 14 0
3 41 14 34
3 41 4 14
3 25 41 8
3 42 41 25
3 42 4 41
3 42 27 4
3 43 27 42
3 43 1 27
3 175 26 176
3 177 176 3
3 175 176 177
3 44 178 180
3 178 26 179
3 178 179 180
3 44 11 26
3 181 44 182
3 45 183 185
3 183 44 184
3 183 184 185
3 45 11 44
3 45 43 11
3 46 43 45
3 46 1 43
3 46 186 188
3 188 187 1
3 186 187 188
3 190 189 46
3 192 191 12
