ply
format ascii 1.0
element vertex 140
property float x
property float y
property float z
property uchar red
property uchar green
property uchar blue
element face 127
property list uchar int vertex_index
end_header
1.60513 -65.4313 43.0219 144 0 0
1.29145 -65.4542 51.8182 154 255 101
1.06546 -70.6936 44.5864 255 153 0
1.0691 -70.7048 40.0586 100 255 155
1.10598 -65.3436 38.6056 115 255 140
0.780293 -70.457 49.1336 255 180 0
1.63502 -65.5116 47.4391 195 0 0
2.05778 -60.2812 46.1453 187 255 68
1.53974 -59.9287 41.9727 233 255 22
1.38193 -68.0944 43.7443 145 0 0
1.10146 -70.7178 42.3191 232 255 23
1.30819 -68.081 41.4991 136 0 0
1.14254 -68.0562 39.2591 239 255 16
1.4085 -65.3824 40.8122 128 0 0
0.805676 -67.6996 52.6872 40 255 215
0.561226 -70.2025 51.4031 62 255 193
1.0385 -67.9014 50.4737 227 0 0
1.23168 -68.0239 48.2372 187 0 0
1.49504 -65.5076 49.6378 233 0 0
2.12629 -60.4798 48.224 50 255 205
1.08991 -59.8026 39.8754 0 238 255
0.732916 -73.2191 45.538 92 255 163
0.557554 -73.0643 47.829 90 255 165
0.955332 -70.6139 46.8589 163 0 0
1.35366 -68.0818 45.9916 161 0 0
1.67903 -65.4801 45.232 167 0 0
1.73719 -63.1083 51.0266 37 255 218
1.87394 -63.0316 48.8885 255 217 0
1.92682 -62.9293 46.7406 208 0 0
1.86507 -62.8161 44.5869 176 0 0
1.86597 -60.0919 44.0623 210 255 45
1.67043 -62.7096 42.4294 146 0 0
1.3446 -62.6242 40.2697 255 133 0
0.964794 -71.9897 43.9221 0 0 178
0.798524 -73.2524 44.3979 0 0 178
0.899186 -71.9564 45.0622 0 0 221
1.01184 -71.9955 40.5229 0 0 177
1.02802 -72.002 41.6531 0 0 177
1.08528 -70.7113 41.1888 0 0 220
1.04487 -71.9709 39.3917 0 0 135
1.01184 -71.9955 40.5229 0 0 135
1.02976 -70.6852 38.9322 0 0 134
1.04487 -71.9709 39.3917 0 0 134
1.0102 -66.6845 37.8158 0 0 181
1.02849 -68.0408 38.1425 0 0 181
1.12426 -66.6999 38.9323 0 0 225
0.92089 -65.3293 37.5047 0 0 136
1.0102 -66.6845 37.8158 0 0 136
0.563432 -71.6276 49.6318 0 0 175
0.453898 -71.5004 50.7665 0 0 175
0.670759 -70.3298 50.2683 0 0 216
0.668924 -71.7606 48.4813 0 0 218
0.452063 -72.9313 48.9795 0 0 176
0.563432 -71.6276 49.6318 0 0 176
1.91722 -61.8901 50.6639 0 0 129
1.86963 -61.9785 51.7017 0 0 129
1.98559 -61.8517 49.5949 0 0 168
1.80557 -63.07 49.9576 0 0 206
1.91722 -61.8901 50.6639 0 0 168
1.70285 -60.0103 43.0175 0 0 220
1.76588 -58.6975 43.8609 0 0 177
1.60277 -58.6158 42.8161 0 0 177
1.00151 -61.1841 38.9924 0 0 137
0.820569 -59.7589 38.8231 0 0 137
0.683451 -68.9511 52.0451 0 0 208
0.444302 -70.0186 52.5277 0 0 169
0.566527 -68.7672 53.1698 0 0 169
2.23112 -59.3143 48.9319 0 0 130
2.11177 -60.5758 49.2626 0 0 130
2.17319 -59.1662 47.9351 0 0 129
2.23112 -59.3143 48.9319 0 0 129
2.13894 -59.0669 46.8958 0 0 170
2.09204 -60.3805 47.1847 0 0 209
2.17319 -59.1662 47.9351 0 0 170
1.37462 -58.505 41.8109 0 0 135
1.60277 -58.6158 42.8161 0 0 135
1.14971 -58.4419 40.7622 0 0 181
1.31482 -59.8656 40.924 0 0 225
1.37462 -58.505 41.8109 0 0 181
0.872205 -58.3551 39.7485 0 0 136
1.14971 -58.4419 40.7622 0 0 136
0.820569 -59.7589 38.8231 0 0 138
0.872205 -58.3551 39.7485 0 0 138
0.687745 -67.5552 53.7689 0 0 129
0.566527 -68.7672 53.1698 0 0 129
0.933167 -66.5232 53.3234 0 0 128
0.687745 -67.5552 53.7689 0 0 128
1.17605 -65.4005 52.8889 0 0 165
1.04856 -66.5769 52.2527 0 0 202
0.933167 -66.5232 53.3234 0 0 165
0.703172 -74.4964 44.9199 0 0 134
0.595661 -74.438 46.0644 0 0 134
0.703172 -74.4964 44.9199 0 0 134
0.798524 -73.2524 44.3979 0 0 134
0.982796 -72.0017 42.7884 0 0 178
0.964794 -71.9897 43.9221 0 0 178
1.08346 -70.7057 43.4527 0 0 221
0.982796 -72.0017 42.7884 0 0 135
1.02802 -72.002 41.6531 0 0 135
1.06648 -69.3609 38.5324 0 0 179
1.02976 -70.6852 38.9322 0 0 179
1.10582 -69.3805 39.6588 0 0 222
1.06648 -69.3609 38.5324 0 0 135
1.02849 -68.0408 38.1425 0 0 135
0.339709 -71.3015 51.9191 0 0 132
0.444302 -70.0186 52.5277 0 0 132
0.339709 -71.3015 51.9191 0 0 133
0.453898 -71.5004 50.7665 0 0 133
0.392418 -74.2411 48.3642 0 0 134
0.452063 -72.9313 48.9795 0 0 134
0.50798 -74.3606 47.21 0 0 134
0.392418 -74.2411 48.3642 0 0 134
0.645235 -73.1417 46.6835 0 0 219
0.595661 -74.438 46.0644 0 0 177
0.50798 -74.3606 47.21 0 0 177
1.42154 -64.3042 52.4813 0 0 128
1.17605 -65.4005 52.8889 0 0 128
1.64441 -63.1313 52.0855 0 0 128
1.86963 -61.9785 51.7017 0 0 128
1.51432 -64.2813 51.4224 0 0 202
1.42154 -64.3042 52.4813 0 0 165
1.64441 -63.1313 52.0855 0 0 165
2.00012 -61.7557 48.5563 0 0 206
1.98559 -61.8517 49.5949 0 0 168
2.11177 -60.5758 49.2626 0 0 168
2.03008 -58.9232 45.9008 0 0 131
2.13894 -59.0669 46.8958 0 0 131
1.93417 -58.8285 44.8593 0 0 133
1.76588 -58.6975 43.8609 0 0 133
1.96187 -60.1865 45.1038 0 0 215
2.03008 -58.9232 45.9008 0 0 174
1.93417 -58.8285 44.8593 0 0 174
1.12886 -62.5949 39.1895 0 0 183
1.21726 -61.2134 40.0725 0 0 228
1.00151 -61.1841 38.9924 0 0 183
1.00955 -63.9546 38.3575 0 0 181
1.22529 -63.9839 39.4376 0 0 226
1.12886 -62.5949 39.1895 0 0 181
0.92089 -65.3293 37.5047 0 0 137
1.00955 -63.9546 38.3575 0 0 137
3 0 11 9
3 0 13 11
3 1 16 14
3 1 18 16
3 2 33 35
3 35 34 21
3 33 34 35
3 3 36 38
3 38 37 10
3 36 37 38
3 3 39 40
3 3 41 42
3 4 43 45
3 45 44 12
3 43 44 45
3 4 46 47
3 5 48 50
3 50 49 15
3 48 49 50
3 5 51 53
3 51 22 52
3 51 52 53
3 5 23 22
3 6 24 17
3 6 25 24
3 54 26 55
3 56 27 57
3 58 57 26
3 56 57 58
3 7 28 19
3 7 29 28
3 8 59 61
3 59 30 60
3 59 60 61
3 8 31 30
3 8 32 31
3 63 62 20
3 9 10 2
3 11 10 9
3 11 3 10
3 11 12 3
3 13 12 11
3 13 4 12
3 14 64 66
3 64 15 65
3 64 65 66
3 16 15 14
3 16 5 15
3 16 17 5
3 18 17 16
3 18 6 17
3 67 19 68
3 69 19 70
3 71 7 72
3 73 72 19
3 71 72 73
3 74 8 75
3 76 20 77
3 78 77 8
3 76 77 78
3 79 20 80
3 82 81 20
3 83 14 84
3 85 14 86
3 87 1 88
3 89 88 14
3 87 88 89
3 21 90 91
3 93 92 21
3 10 94 96
3 96 95 2
3 94 95 96
3 98 97 10
3 12 99 101
3 101 100 3
3 99 100 101
3 103 102 12
3 15 104 105
3 107 106 15
3 22 108 109
3 22 110 111
3 22 112 114
3 112 21 113
3 112 113 114
3 23 21 22
3 23 2 21
3 17 23 5
3 24 23 17
3 24 2 23
3 24 9 2
3 25 9 24
3 25 0 9
3 115 1 116
3 26 117 118
3 26 119 121
3 119 1 120
3 119 120 121
3 26 18 1
3 27 18 26
3 27 6 18
3 19 122 124
3 122 27 123
3 122 123 124
3 28 27 19
3 28 6 27
3 28 25 6
3 29 25 28
3 29 0 25
3 125 7 126
3 30 127 128
3 30 129 131
3 129 7 130
3 129 130 131
3 30 29 7
3 31 29 30
3 31 0 29
3 31 13 0
3 32 13 31
3 32 4 13
3 20 32 8
3 132 32 133
3 134 133 20
3 132 133 134
3 135 4 136
3 137 136 32
3 135 136 137
3 139 138 4
