ply
format ascii 1.0
element vertex 187
property float x
property float y
property float z
property uchar red
property uchar green
property uchar blue
element face 172
property list uchar int vertex_index
end_header
-20.1382 -12.6575 -26.4209 178 255 77
-13.8648 -19.7872 -24.5538 159 0 0
-21.82 -31.7383 -20.0565 3 255 252
-24.3315 -19.5793 -26.1062 200 255 55
-9.72544 -12.0091 -25.7566 255 255 0
-14.4433 -28.6707 -19.995 75 255 180
-15.8968 -4.56828 -26.4642 196 255 59
-12.9463 -8.2782 -26.1203 245 255 10
-17.2285 -16.3493 -25.5569 179 0 0
-21.5712 -23.146 -24.4112 255 34 0
-18.1915 -26.2392 -22.5201 235 0 0
-25.12 -28.9306 -22.773 0 225 255
-26.1529 -22.6575 -25.7733 64 255 191
-27.1535 -20.754 -26.9073 0 111 255
-17.9766 -8.76501 -26.4478 255 191 0
-19.285 -6.92259 -26.8651 168 255 87
-11.728 -16.0854 -25.2623 130 0 0
-13.4202 -14.3172 -25.6298 128 0 0
-15.5936 -18.1162 -25.1128 162 0 0
-19.4415 -19.8915 -25.0635 228 0 0
-17.8028 -21.5845 -24.4044 206 0 0
-18.3004 -30.3072 -19.9574 160 255 95
-16.3459 -27.5481 -21.3555 218 0 0
-20.1558 -29.0884 -21.3031 255 38 0
-21.9014 -27.6972 -22.5151 255 70 0
-23.5508 -30.4173 -21.4526 90 255 165
-22.2906 -16.2549 -26.3195 147 255 108
-8.04017 -13.7878 -25.3625 116 255 139
-9.97978 -17.7467 -24.7084 236 255 19
-17.2553 -2.78052 -26.7883 53 255 202
-20.4769 -5.11063 -27.4269 0 174 255
-14.4587 -6.40663 -26.2582 224 255 31
-16.5573 -10.6256 -26.1431 173 0 0
-11.3656 -10.1575 -25.9805 255 254 0
-15.0349 -12.4853 -25.8952 142 0 0
-18.7486 -14.5205 -25.9678 210 0 0
-20.9442 -18.1061 -25.6778 255 7 0
-23.0416 -21.4097 -25.2511 255 71 0
-24.9294 -24.4624 -24.698 92 255 163
-12.0697 -21.324 -23.8032 222 255 33
-12.3585 -25.8041 -21.4738 85 255 170
-14.2275 -24.5713 -22.6654 255 182 0
-16.0542 -23.1549 -23.6267 193 0 0
-19.9446 -24.7641 -23.5217 255 4 0
-23.5032 -26.1491 -23.6303 215 255 40
-27.3559 -23.1368 -26.2221 0 0 130
-26.9011 -24.0856 -25.5559 0 0 130
-20.7623 -11.7192 -26.6982 0 0 179
-19.6814 -9.7729 -26.7117 0 0 179
-19.0574 -10.7113 -26.4343 0 0 218
-24.8772 -18.6275 -26.57 0 0 171
-23.8568 -16.9653 -26.6767 0 0 171
-23.311 -17.9171 -26.2129 0 0 205
-27.5365 -19.7613 -27.5233 0 0 128
-28.1829 -21.1843 -27.497 0 0 128
-7.18648 -14.6138 -25.041 0 0 145
-6.36034 -12.4955 -25.3217 0 0 145
-8.15629 -16.5932 -24.7139 0 0 188
-9.00997 -15.7673 -25.0355 0 0 231
-7.18648 -14.6138 -25.041 0 0 188
-16.576 -3.6744 -26.6263 0 0 223
-15.6151 -1.42963 -26.6684 0 0 183
-14.9358 -2.32351 -26.5064 0 0 183
-21.4813 -7.00731 -27.5477 0 0 174
-19.8809 -6.01661 -27.146 0 0 210
-20.8853 -7.91329 -27.2668 0 0 174
-21.9558 -6.07313 -27.9692 0 0 137
-21.4813 -7.00731 -27.5477 0 0 137
-13.7025 -7.34241 -26.1892 0 0 233
-12.7435 -5.06718 -26.2823 0 0 190
-11.9872 -6.00296 -26.2133 0 0 190
-10.5455 -11.0833 -25.8685 0 0 236
-9.63981 -8.84906 -26.035 0 0 192
-8.81972 -9.77489 -25.9231 0 0 192
-11.156 -22.0056 -23.3016 0 0 144
-10.1375 -20.2887 -23.8495 0 0 144
-13.4009 -27.2374 -20.7344 0 0 225
-11.4213 -26.3156 -20.7507 0 0 184
-12.4638 -27.7489 -20.0113 0 0 184
-25.8078 -28.1107 -23.4134 0 0 165
-24.9994 -26.72 -23.842 0 0 165
-24.3116 -27.5398 -23.2016 0 0 197
-27.8562 -22.185 -26.7891 0 0 156
-26.6532 -21.7058 -26.3403 0 0 183
-27.3559 -23.1368 -26.2221 0 0 156
-28.1829 -21.1843 -27.497 0 0 128
-27.8562 -22.185 -26.7891 0 0 128
-20.3356 -8.85169 -26.9203 0 0 178
-18.6308 -7.8438 -26.6565 0 0 216
-19.6814 -9.7729 -26.7117 0 0 178
-20.8853 -7.91329 -27.2668 0 0 139
-20.3356 -8.85169 -26.9203 0 0 139
-11.2184 -6.95369 -26.1758 0 0 147
-11.9872 -6.00296 -26.2133 0 0 147
-22.8783 -15.3071 -26.6841 0 0 176
-21.8022 -13.5084 -26.7347 0 0 176
-21.2144 -14.4562 -26.3702 0 0 212
-22.8783 -15.3071 -26.6841 0 0 136
-23.8568 -16.9653 -26.6767 0 0 136
-26.2882 -19.2148 -26.9705 0 0 164
-24.8772 -18.6275 -26.57 0 0 164
-25.7425 -20.1666 -26.5068 0 0 194
-26.2882 -19.2148 -26.9705 0 0 132
-27.5365 -19.7613 -27.5233 0 0 132
-8.0156 -10.7132 -25.7778 0 0 147
-8.81972 -9.77489 -25.9231 0 0 147
-7.17296 -11.6026 -25.5808 0 0 146
-6.36034 -12.4955 -25.3217 0 0 146
-8.8828 -12.8985 -25.5595 0 0 234
-8.0156 -10.7132 -25.7778 0 0 190
-7.17296 -11.6026 -25.5808 0 0 190
-13.4807 -29.1305 -19.2103 0 0 144
-12.4638 -27.7489 -20.0113 0 0 144
-15.4063 -30.0061 -19.2261 0 0 142
-13.4807 -29.1305 -19.2103 0 0 142
-17.3348 -30.8243 -19.2073 0 0 182
-16.3719 -29.4889 -19.9762 0 0 222
-15.4063 -30.0061 -19.2261 0 0 182
-19.1305 -31.596 -19.2589 0 0 139
-17.3348 -30.8243 -19.2073 0 0 139
-20.8903 -32.3115 -19.3084 0 0 175
-20.0602 -31.0227 -20.007 0 0 211
-19.1305 -31.596 -19.2589 0 0 175
-16.3161 -0.575767 -26.8056 0 0 142
-15.6151 -1.42963 -26.6684 0 0 142
-17.8925 -1.91755 -27.0225 0 0 140
-16.3161 -0.575767 -26.8056 0 0 140
-19.5034 -3.08261 -27.3418 0 0 176
-17.8925 -1.91755 -27.0225 0 0 176
-18.8661 -3.94557 -27.1076 0 0 213
-21.014 -4.22365 -27.7834 0 0 138
-19.5034 -3.08261 -27.3418 0 0 138
-21.014 -4.22365 -27.7834 0 0 136
-21.9558 -6.07313 -27.9692 0 0 136
-20.7623 -11.7192 -26.6982 0 0 138
-21.8022 -13.5084 -26.7347 0 0 138
-14.2104 -3.21899 -26.4276 0 0 144
-14.9358 -2.32351 -26.5064 0 0 144
-13.4914 -4.13816 -26.3246 0 0 146
-12.7435 -5.06718 -26.2823 0 0 146
-15.1778 -5.48746 -26.3612 0 0 229
-14.2104 -3.21899 -26.4276 0 0 187
-13.4914 -4.13816 -26.3246 0 0 187
-10.428 -7.89333 -26.1059 0 0 147
-9.63981 -8.84906 -26.035 0 0 147
-12.1559 -9.21783 -26.0504 0 0 236
-11.2184 -6.95369 -26.1758 0 0 191
-10.428 -7.89333 -26.1059 0 0 191
-26.2893 -24.988 -25.0183 0 0 160
-26.9011 -24.0856 -25.5559 0 0 160
-25.5412 -23.56 -25.2357 0 0 189
-9.09251 -18.5 -24.3021 0 0 145
-8.15629 -16.5932 -24.7139 0 0 145
-11.0247 -19.5354 -24.2558 0 0 229
-9.09251 -18.5 -24.3021 0 0 187
-10.1375 -20.2887 -23.8495 0 0 187
-10.3895 -24.8216 -21.4902 0 0 144
-11.4213 -26.3156 -20.7507 0 0 144
-11.3004 -24.2456 -22.1369 0 0 144
-10.3895 -24.8216 -21.4902 0 0 144
-12.2348 -23.6292 -22.7327 0 0 186
-11.3004 -24.2456 -22.1369 0 0 186
-13.293 -25.1877 -22.0696 0 0 227
-13.1486 -22.9476 -23.2343 0 0 227
-11.156 -22.0056 -23.3016 0 0 185
-12.2348 -23.6292 -22.7327 0 0 185
-25.7125 -25.8766 -24.3759 0 0 164
-24.2163 -25.3058 -24.1642 0 0 195
-24.9994 -26.72 -23.842 0 0 164
-26.2893 -24.988 -25.0183 0 0 132
-25.7125 -25.8766 -24.3759 0 0 132
-22.4425 -32.9732 -19.4571 0 0 134
-20.8903 -32.3115 -19.3084 0 0 134
-23.299 -32.341 -20.2305 0 0 133
-22.4425 -32.9732 -19.4571 0 0 133
-24.1644 -31.6805 -20.9285 0 0 163
-22.6854 -31.0778 -20.7546 0 0 193
-23.299 -32.341 -20.2305 0 0 163
-24.9318 -30.9633 -21.6758 0 0 131
-24.1644 -31.6805 -20.9285 0 0 131
-25.7164 -30.22 -22.336 0 0 159
-24.3354 -29.6739 -22.1128 0 0 188
-24.9318 -30.9633 -21.6758 0 0 159
-26.3791 -29.4215 -23.0692 0 0 129
-25.7164 -30.22 -22.336 0 0 129
-25.8078 -28.1107 -23.4134 0 0 129
-26.3791 -29.4215 -23.0692 0 0 129
3 46 45 12
3 0 47 49
3 49 48 14
3 47 48 49
3 1 18 16
3 1 20 18
3 2 23 21
3 2 25 23
3 3 50 52
3 52 51 26
3 50 51 52
3 54 53 13
3 55 27 56
3 57 28 58
3 59 58 27
3 57 58 59
3 6 60 62
3 60 29 61
3 60 61 62
3 63 30 64
3 65 64 15
3 63 64 65
3 67 66 30
3 7 68 70
3 68 31 69
3 68 69 70
3 7 32 31
3 4 71 73
3 71 33 72
3 71 72 73
3 8 34 17
3 8 35 34
3 8 36 35
3 9 37 19
3 9 38 37
3 74 39 75
3 5 76 78
3 76 40 77
3 76 77 78
3 10 41 22
3 10 42 41
3 10 43 42
3 11 44 24
3 11 79 81
3 81 80 44
3 79 80 81
3 12 13 3
3 82 13 83
3 84 83 12
3 82 83 84
3 86 85 13
3 14 15 6
3 87 15 88
3 89 88 14
3 87 88 89
3 91 90 15
3 92 7 93
3 16 17 4
3 18 17 16
3 18 8 17
3 18 19 8
3 20 19 18
3 20 9 19
3 21 22 5
3 23 22 21
3 23 10 22
3 23 24 10
3 25 24 23
3 25 11 24
3 26 94 96
3 96 95 0
3 94 95 96
3 98 97 26
3 13 99 101
3 101 100 3
3 99 100 101
3 103 102 13
3 104 4 105
3 27 106 107
3 27 108 110
3 108 4 109
3 108 109 110
3 27 16 4
3 28 16 27
3 28 1 16
3 111 5 112
3 113 5 114
3 115 21 116
3 117 116 5
3 115 116 117
3 118 21 119
3 120 2 121
3 122 121 21
3 120 121 122
3 29 123 124
3 29 125 126
3 15 29 6
3 30 29 15
3 30 127 129
3 129 128 29
3 127 128 129
3 30 130 131
3 133 132 30
3 135 134 0
3 136 6 137
3 31 138 139
3 31 140 142
3 140 6 141
3 140 141 142
3 31 14 6
3 32 14 31
3 32 0 14
3 33 143 144
3 33 145 147
3 145 7 146
3 145 146 147
3 17 33 4
3 34 33 17
3 34 7 33
3 34 32 7
3 35 32 34
3 35 0 32
3 35 26 0
3 36 26 35
3 36 3 26
3 19 36 8
3 37 36 19
3 37 3 36
3 37 12 3
3 38 12 37
3 38 148 150
3 150 149 12
3 148 149 150
3 151 28 152
3 39 153 155
3 153 28 154
3 153 154 155
3 39 1 28
3 40 156 157
3 40 158 159
3 22 40 5
3 41 40 22
3 41 160 162
3 162 161 40
3 160 161 162
3 41 163 165
3 163 39 164
3 163 164 165
3 42 39 41
3 42 1 39
3 42 20 1
3 43 20 42
3 43 9 20
3 24 43 10
3 44 43 24
3 44 9 43
3 44 38 9
3 166 38 167
3 168 167 44
3 166 167 168
3 170 169 38
3 171 2 172
3 173 2 174
3 175 25 176
3 177 176 2
3 175 176 177
3 178 25 179
3 180 11 181
3 182 181 25
3 180 181 182
3 183 11 184
3 186 185 11
