ply
format ascii 1.0
element vertex 768
property float x
property float y
property float z
property uchar red
property uchar green
property uchar blue
element face 934
property list uchar int vertex_index
end_header
-32.4063 35.8717 -16.9486 0 78 255
-41.6567 53.1752 -19.8039 24 255 231
-26.7533 38.9596 -28.7413 200 255 55
-34.5224 37.264 -2.09417 216 255 39
-34.1065 25.1271 -14.4809 113 255 142
-32.3966 26.7758 -22.019 146 255 109
-42.3215 63.3216 -17.9933 183 255 72
-48.3543 55.3605 1.32252 255 195 0
-46.5353 61.3985 -9.49849 230 255 25
-46.0106 54.5835 -12.9671 39 255 216
-34.6742 20.2354 1.40888 255 102 0
-22.6119 27.3979 -30.7743 0 207 255
-36.2859 44.2482 -18.43 67 255 188
-31.8885 37.4944 -23.8523 28 255 227
-34.4866 47.5154 -24.4806 128 255 127
-24.5196 51.8694 -27.0922 255 174 0
-42.0234 45.9516 -3.46904 0 237 255
-39.1864 47.4536 -11.3377 159 255 96
-33.4147 37.7721 -10.1625 161 255 94
-34.2524 23.2263 -6.41653 255 47 0
-28.7691 27.5745 -28.1436 0 132 255
-32.675 31.6079 -15.2992 99 255 156
-33.4721 25.9759 -18.3144 49 255 206
-32.1464 31.8914 -18.9704 67 255 188
-40.7972 68.1158 -15.3218 255 228 0
-44.5374 64.3976 -5.60647 86 255 169
-43.1223 66.8374 -10.8427 255 182 0
-44.8741 63.0184 -14.2223 179 255 76
-39.3113 48.5769 -19.3519 39 255 216
-36.5342 45.8336 -22.0905 13 255 242
-38.3921 50.7359 -22.2465 63 255 192
-18.4349 54.1884 -28.8707 131 255 124
-46.3057 48.6864 -4.32094 0 54 255
-44.1366 54.5397 -16.769 27 255 228
-43.0634 51.1424 -12.519 111 255 144
-41.4251 50.4444 -16.1967 80 255 175
-37.9263 46.345 -15.0851 125 255 130
-33.9979 29.3851 0.493006 255 205 0
-34.2754 21.9193 -2.36523 255 35 0
-33.4249 30.7114 -3.3639 255 168 0
-33.2232 31.3937 -7.45005 255 202 0
-33.8402 37.9548 -6.10052 216 255 39
-30.0779 38.149 -26.7959 60 255 195
-29.9521 32.8224 -26.1035 51 255 204
-27.5188 33.1584 -28.6197 83 255 172
-42.6932 58.167 -19.444 90 255 165
-39.1312 56.2324 -21.7917 198 255 57
-45.9766 57.1083 5.77137 117 255 138
-45.3732 61.0798 0.033335 110 255 145
-47.6049 58.7617 -4.199 255 232 0
-48.61 56.0985 -7.18949 76 255 179
-47.6009 53.3356 -8.59048 37 255 218
-47.2103 58.0242 -12.0291 63 255 192
-45.3364 58.784 -16.2166 54 255 201
-36.0453 10.6497 1.01258 41 255 214
-35.6093 18.1713 4.64221 255 220 0
-35.1762 27.4086 3.79108 229 255 26
-35.7758 35.6338 1.48946 0 229 255
-22.3113 39.9523 -30.0353 255 164 0
-24.0584 33.5171 -30.1752 186 255 69
-19.9307 33.9503 -31.0573 17 255 238
-33.6571 39.9045 -17.46 4 255 251
-32.4094 36.803 -20.1863 4 255 251
-34.1722 41.316 -21.3311 23 255 232
-33.2821 42.3678 -24.5685 24 255 231
-30.4044 43.6131 -26.7073 180 255 75
-34.8135 53.2787 -23.7627 28 255 227
-30.1937 49.5677 -25.8545 178 255 77
-25.8525 45.149 -28.1025 255 118 0
-20.4626 46.8544 -29.4611 247 0 0
-37.6473 42.3149 -2.37361 196 255 59
-44.5937 50.5128 -8.45194 134 255 121
-40.4343 47.3335 -7.35976 183 255 72
-36.4375 43.2843 -6.26594 181 255 74
-35.6011 43.0961 -10.2911 159 255 96
-34.7575 41.9094 -14.1138 96 255 159
-32.925 36.9576 -13.9547 38 255 217
-35.9098 12.5454 -2.85307 195 255 60
-36.0735 14.3022 -6.95135 197 255 58
-36.3234 15.9898 -11.09 50 255 205
-34.3061 24.2493 -10.5042 255 123 0
-33.0488 31.5942 -11.4867 214 255 41
-31.3765 32.4077 -22.7146 73 255 182
-30.866 27.3426 -25.4219 0 218 255
-25.9974 27.545 -29.9129 0 153 255
-32.4012 34.1201 -16.1177 0 220 255
-32.4244 31.6926 -17.1293 67 255 188
-32.2197 34.1604 -17.7899 0 216 255
-39.7342 70.1828 -13.5557 141 255 114
-38.2112 70.5557 -15.6375 48 255 207
-37.0704 72.5727 -13.8355 0 135 255
-41.9621 68.4446 -8.73622 0 240 255
-40.9763 69.4654 -11.2448 66 255 189
-42.0915 67.6422 -13.1983 255 212 0
-40.6219 50.8269 -19.6592 22 255 233
-39.1915 49.6221 -20.995 18 255 237
-40.122 52.0689 -21.0757 38 255 217
-42.9897 54.0121 -18.3802 22 255 233
-42.9371 52.4763 -16.591 48 255 207
-41.8648 51.7924 -18.2014 34 255 221
-40.4467 49.6381 -17.8372 60 255 195
-34.0852 33.5302 -0.583759 255 255 0
-33.646 30.1329 -1.38634 255 179 0
-33.7066 34.1558 -2.50979 255 239 0
-33.4532 34.5763 -4.51846 255 237 0
-34.1261 37.728 -4.06838 222 255 33
-28.5923 38.53 -27.8821 120 255 135
-28.6859 35.7456 -27.7701 75 255 180
-27.117 36.0236 -28.773 129 255 126
-35.1599 21.4421 -14.6236 0 232 255
-32.988 26.392 -20.1865 178 255 77
-34.0741 23.2619 -20.323 0 162 255
-33.4401 23.7875 -22.121 0 216 255
-32.6841 24.2303 -23.8382 0 191 255
-42.6734 60.7516 -18.8682 136 255 119
-40.9856 60.1253 -20.2055 27 255 228
-40.6469 62.9175 -19.4669 0 237 255
-45.6492 62.9683 -7.69653 255 190 0
-46.1668 61.5767 -4.99189 255 164 0
-47.1257 60.1895 -6.89617 255 255 0
-48.3246 57.4558 -5.87728 172 255 83
-47.756 58.7134 -8.47027 154 255 101
-47.9521 57.1887 -9.66535 70 255 185
-47.0856 59.7354 -10.9566 137 255 118
-43.7257 63.351 -16.2445 168 255 87
-45.2997 60.9239 -15.4048 108 255 147
-44.1075 61.0188 -17.2724 110 255 145
-44.1266 58.6516 -17.9574 63 255 192
-36.0609 13.3839 4.64915 0 215 255
-36.2914 17.0207 5.99116 0 177 255
-36.013 26.2137 5.13981 0 233 255
-36.1967 30.5075 4.25606 0 154 255
-35.3218 31.6872 2.83926 61 255 194
-19.8878 40.4954 -30.5948 98 255 157
-20.9606 37.0499 -30.6873 131 255 124
-34.8496 42.0891 -17.9203 50 255 205
-34.0222 40.7128 -19.4151 23 255 232
-35.2778 42.8875 -19.9347 40 255 215
-35.8205 46.6321 -23.4503 38 255 217
-34.9403 44.1904 -23.3568 14 255 241
-33.9669 44.8793 -24.6244 59 255 196
-32.0913 42.9521 -25.77 82 255 173
-32.4302 45.6521 -25.5976 158 255 97
-36.9125 57.9095 -22.3291 0 207 255
-37.0439 54.8623 -22.7864 78 255 177
-27.4633 50.7013 -26.4329 156 255 99
-27.9526 47.4507 -26.9795 255 112 0
-25.2412 48.4403 -27.6057 255 18 0
-23.2068 45.9912 -28.7507 255 41 0
-22.3788 49.4571 -28.3139 207 0 0
-47.2035 56.2837 3.44652 255 119 0
-47.4831 54.2371 6.24861 0 251 255
-48.6729 53.4385 4.07984 59 255 196
-40.6767 43.2802 -1.11176 0 166 255
-38.4736 41.4134 -0.59617 0 236 255
-39.7562 44.2832 -2.88273 210 255 45
-46.8223 54.1082 -10.8284 40 255 215
-46.3106 51.9425 -8.68912 83 255 172
-45.5175 52.5651 -10.8276 80 255 175
-41.1692 49.3541 -11.967 142 255 113
-41.8568 49.342 -9.98851 155 255 100
-39.7861 47.5563 -9.36028 171 255 84
-38.3292 45.4504 -6.74948 183 255 72
-37.7775 45.571 -8.75342 174 255 81
-35.9955 43.3295 -8.28481 174 255 81
-37.278 45.3841 -10.7437 163 255 92
-37.1689 45.4048 -16.8128 98 255 157
-36.2271 44.1888 -14.5395 120 255 135
-35.589 43.2431 -16.2917 86 255 169
-34.2414 41.0095 -15.8626 50 255 205
-35.3052 15.4439 1.34187 255 58 0
-35.9315 11.6176 -0.878531 177 255 78
-35.1114 16.3763 -0.508573 255 13 0
-34.233 22.6159 -4.3729 255 31 0
-35.0298 18.0405 -4.46665 233 0 0
-35.0935 18.7848 -6.51477 245 0 0
-36.2057 15.1497 -9.02602 183 255 72
-35.1806 19.4853 -8.5728 255 18 0
-35.2487 20.1547 -10.6195 237 255 18
-34.2917 23.7649 -8.46768 255 79 0
-33.1516 34.8536 -8.61138 228 255 27
-33.1528 31.5388 -9.48833 255 243 0
-33.0133 34.7642 -10.6207 181 255 74
-32.8397 34.5723 -12.5617 119 255 136
-33.189 37.4254 -12.1129 109 255 146
-32.2709 37.1715 -22.0629 27 255 228
-31.8418 34.7354 -21.4397 43 255 212
-31.4623 35.006 -23.2894 46 255 209
-29.2529 30.2459 -27.146 52 255 203
-30.2454 30.1064 -25.6898 65 255 190
-29.8973 27.4991 -26.8913 0 139 255
-23.1719 30.5291 -30.5758 171 255 84
-24.981 30.4704 -30.0581 122 255 133
-24.3682 27.4781 -30.4433 0 178 255
-33.256 28.5642 -14.7186 204 255 51
-33.8464 25.5513 -16.4135 0 250 255
-32.9837 28.7998 -16.623 165 255 90
-32.635 29.0734 -18.5094 141 255 114
-32.2092 29.3739 -20.3906 125 255 130
-41.6788 65.8031 -16.809 232 255 23
-40.044 65.646 -18.4648 5 255 250
-39.2175 68.2216 -17.1872 26 255 229
-43.9242 65.743 -8.29658 163 255 92
-44.981 64.125 -10.2785 255 221 0
-45.7977 62.3545 -11.9579 203 255 52
-44.1217 65.01 -12.6887 255 253 0
-43.0319 65.5822 -14.8784 233 255 22
-37.8226 46.3976 -18.9259 60 255 195
-36.6551 45.0695 -20.3979 36 255 219
-38.0036 47.2995 -20.7618 22 255 233
-37.5804 48.2157 -22.2473 23 255 232
-36.4965 49.2112 -23.3685 95 255 160
-23.7058 55.4241 -26.6183 129 255 126
-21.4798 53.0422 -27.901 128 0 0
-20.5235 56.7275 -27.5432 145 255 110
-49.2606 54.3552 -0.538904 0 255 255
-49.6648 52.5636 2.14028 0 181 255
-45.1296 54.7322 -14.9594 34 255 221
-44.7183 52.8719 -12.8841 72 255 183
-43.8734 52.8426 -14.8153 62 255 193
-42.2816 50.9559 -14.4213 97 255 158
-40.4707 49.0374 -13.8679 128 255 127
-38.5841 47.0398 -13.2548 145 255 110
-39.7093 48.4148 -15.6662 110 255 145
-38.8375 47.5223 -17.3516 87 255 168
-34.2155 24.9186 1.14485 255 153 0
-34.4142 21.127 -0.426435 255 60 0
-33.9029 25.7524 -0.701424 255 116 0
-33.7191 26.4529 -2.65252 255 98 0
-33.6341 27.0238 -4.66984 255 99 0
-33.6079 27.4772 -6.71762 255 120 0
-33.2987 31.1263 -5.39781 255 176 0
-33.2838 34.8015 -6.56561 255 251 0
-33.6189 37.9602 -8.14553 197 255 58
-31.1743 37.81 -25.4493 32 255 223
-30.8453 35.2523 -25.0072 41 255 214
-29.9301 35.4928 -26.5145 46 255 209
-28.8726 32.9935 -27.4881 56 255 199
-28.0457 30.3429 -28.3649 56 255 199
-42.3555 55.628 -19.7449 49 255 206
-40.7395 54.6497 -20.9849 82 255 173
-41.0248 57.3486 -20.7029 137 255 118
-39.0544 59.1647 -21.3337 0 252 255
-44.4821 59.9861 5.36742 0 172 255
-45.6846 59.1618 2.90783 220 255 35
-46.9078 58.2077 0.615873 255 127 0
-45.0055 62.834 -2.8167 100 255 155
-46.5735 59.9808 -2.20845 255 142 0
-48.0051 57.1435 -1.44785 255 212 0
-48.819 55.9942 -3.22156 54 255 201
-49.2086 54.7884 -4.64776 0 163 255
-49.0736 53.5525 -5.68162 0 122 255
-48.3715 52.3029 -6.30076 0 123 255
-48.3781 54.7196 -8.0979 27 255 228
-47.6465 55.6479 -10.4519 30 255 225
-46.8549 56.3004 -12.6961 30 255 225
-46.2797 60.4851 -13.2855 120 255 135
-46.3515 58.5674 -14.2291 57 255 198
-45.9691 56.6416 -14.7804 29 255 226
-44.9488 56.6457 -16.6616 27 255 228
-43.7542 56.3037 -18.3152 32 255 223
-35.6195 14.4444 3.06882 190 255 65
-35.0704 19.2474 3.10779 255 158 0
-36.0641 21.6931 5.70088 0 244 255
-35.2925 22.8751 4.37562 255 253 0
-34.6761 23.9558 2.84836 255 201 0
-34.5043 28.4724 2.23174 255 242 0
-34.6185 32.7025 1.21377 232 255 23
-35.0651 36.5615 -0.225835 206 255 49
-24.6302 39.4362 -29.4358 255 230 0
-25.2615 36.3337 -29.557 197 255 58
-23.1835 36.6772 -30.1766 255 248 0
-22.0458 33.7248 -30.6782 240 255 15
-21.2389 30.5949 -30.9242 218 255 37
-19.2375 30.6651 -31.1385 0 179 255
-20.7695 27.311 -30.9403 0 157 255
-32.8207 37.7447 -17.1157 0 178 255
-32.4149 36.3592 -18.3828 0 188 255
-33.0318 38.5286 -18.8886 0 238 255
-33.1445 39.08 -20.7849 16 255 239
-33.0204 39.5199 -22.6314 20 255 235
-35.3528 43.5507 -21.7788 19 255 236
-33.9603 41.8393 -23.0781 13 255 242
-32.5425 39.9273 -24.3016 18 255 237
-31.6347 40.3566 -25.7206 41 255 214
-30.2735 40.8389 -26.8674 104 255 151
-28.4879 41.3856 -27.7727 195 255 60
-38.9143 53.4111 -22.0935 126 255 129
-36.9097 51.9543 -23.1379 175 255 80
-34.7757 50.3112 -24.1769 221 255 34
-32.5056 51.5098 -24.7774 54 255 201
-32.5778 48.4976 -25.2456 255 253 0
-30.3905 46.5137 -26.3474 255 229 0
-28.2904 44.3499 -27.4525 255 218 0
-26.3493 41.9935 -28.5052 255 219 0
-23.9551 42.6518 -29.1489 255 136 0
-21.4095 43.3449 -29.7777 255 76 0
-18.8074 44.0531 -30.4336 147 255 108
-19.4691 50.4738 -29.1459 255 166 0
-17.7089 47.7123 -30.2522 69 255 186
-36.5575 39.1878 -0.259959 45 255 210
-35.8604 39.986 -2.07427 192 255 63
-47.1251 51.0377 -6.51531 0 217 255
-45.417 49.7318 -6.37268 0 253 255
-43.3779 48.3378 -5.95661 35 255 220
-43.8196 50.9918 -10.5159 123 255 132
-42.5811 48.9977 -7.97012 168 255 87
-41.1717 46.7906 -5.38072 198 255 57
-38.9784 45.0166 -4.77674 195 255 60
-36.9756 42.9452 -4.27936 187 255 68
-35.3197 40.5233 -4.01082 192 255 63
-34.9066 40.7904 -6.02058 190 255 65
-34.5784 40.7949 -8.05563 179 255 76
-34.2856 40.5594 -10.0721 155 255 100
-36.7779 44.9125 -12.6824 146 255 109
-35.2028 42.6122 -12.2456 134 255 121
-33.9816 40.1151 -12.0302 117 255 138
-33.6348 39.4934 -13.8903 64 255 191
-33.2393 38.712 -15.6063 0 251 255
-32.6393 36.4114 -15.624 0 192 255
-35.0262 17.2405 -2.45476 241 0 0
-35.9647 13.4375 -4.88584 202 255 53
-35.2545 20.8044 -12.6396 98 255 157
-34.2545 24.6977 -12.5111 255 172 0
-33.5951 27.8318 -8.76561 255 157 0
-33.5523 28.1121 -10.7905 255 204 0
-33.4452 28.3459 -12.7768 254 255 1
-32.8894 31.5997 -13.4262 155 255 100
-32.6262 34.3288 -14.403 45 255 210
-32.0646 34.4371 -19.5665 15 255 240
-31.8146 32.1525 -20.8468 76 255 179
-31.6895 29.6646 -22.2499 108 255 147
-30.7737 32.6309 -24.4931 61 255 194
-31.0466 29.9132 -24.0378 87 255 168
-31.6933 27.0993 -23.7802 113 255 142
-31.8131 24.5665 -25.4377 0 106 255
-25.9017 33.3298 -29.5044 130 255 125
-26.617 30.4126 -29.3317 81 255 174
-27.4693 27.5835 -29.1521 0 136 255
-37.8093 72.2574 -12.6921 0 0 174
-38.4023 71.3778 -13.6956 0 0 206
-39.1412 71.0625 -12.5522 0 0 174
-39.7622 70.7037 -11.3967 0 0 143
-40.3666 70.2332 -10.1566 0 0 143
-39.1412 71.0625 -12.5522 0 0 172
-40.3552 69.8241 -12.4003 0 0 203
-39.7622 70.7037 -11.3967 0 0 172
-34.5223 23.5984 -15.5239 0 0 171
-35.049 21.7559 -15.5953 0 0 171
-34.6332 23.2846 -14.5522 0 0 201
-36.7022 16.4167 6.56644 0 0 136
-36.4618 14.6471 6.02839 0 0 136
-36.9529 31.8583 4.28073 0 0 135
-36.7147 29.8497 4.84723 0 0 135
-36.4283 32.5066 3.63316 0 0 136
-36.9529 31.8583 4.28073 0 0 136
-19.2792 38.9678 -30.8618 0 0 144
-18.664 40.7705 -30.8674 0 0 144
-34.407 58.0262 -23.0065 0 0 145
-35.7624 57.1568 -22.8032 0 0 179
-35.557 58.7789 -22.5324 0 0 179
-25.9915 51.2853 -26.7626 0 0 229
-27.1502 52.3998 -26.159 0 0 190
-25.6783 52.9839 -26.4886 0 0 190
-41.3501 44.6159 -2.2904 0 0 190
-41.8374 44.067 -1.38855 0 0 164
-42.5107 45.4027 -2.56719 0 0 164
-29.2472 26.2269 -28.1279 0 0 148
-29.8113 26.1892 -27.5018 0 0 148
-29.3332 27.5368 -27.5174 0 0 166
-37.3056 70.5528 -16.5578 0 0 141
-36.7616 71.7038 -15.7735 0 0 141
-23.2628 57.25 -26.4101 0 0 202
-24.9024 56.5222 -25.9982 0 0 202
-24.4594 58.3481 -25.79 0 0 156
-21.6717 57.9017 -26.8725 0 0 201
-22.1147 56.0758 -27.0808 0 0 247
-23.2628 57.25 -26.4101 0 0 201
-49.7737 52.9896 -0.023479 0 0 133
-49.5125 53.8218 -1.30819 0 0 133
-45.7795 47.4478 -3.21751 0 0 135
-46.7832 48.0522 -3.32586 0 0 135
-45.2865 48.0405 -4.15658 0 0 134
-45.7795 47.4478 -3.21751 0 0 134
-34.0242 24.3286 -18.3911 0 0 164
-34.2113 24.1163 -17.4407 0 0 164
-33.6593 25.7636 -17.3639 0 0 191
-34.7242 21.6768 -20.5783 0 0 137
-34.4029 22.027 -21.4641 0 0 137
-38.8824 60.6566 -21.0169 0 0 166
-40.02 59.645 -20.7696 0 0 193
-39.848 61.1369 -20.4528 0 0 166
-37.7993 60.1047 -21.5472 0 0 140
-38.8824 60.6566 -21.0169 0 0 140
-39.0878 65.3751 -19.1639 0 0 140
-38.6974 66.7917 -18.63 0 0 140
-43.7391 61.4018 5.19759 0 0 146
-43.9467 60.3258 6.6526 0 0 146
-45.5289 60.1208 1.47058 0 0 216
-44.9138 60.5968 2.68634 0 0 181
-44.7581 61.5558 1.24909 0 0 181
-44.7715 63.6158 -4.21158 0 0 213
-44.1598 64.2395 -3.05312 0 0 179
-43.9258 65.0213 -4.44801 0 0 179
-36.5345 23.3027 5.97909 0 0 134
-36.5238 21.0618 6.2544 0 0 134
-19.0613 28.939 -31.0549 0 0 139
-18.2284 30.6949 -31.1906 0 0 139
-19.8272 27.2619 -30.9558 0 0 162
-20.0035 28.9881 -31.0394 0 0 188
-19.0613 28.939 -31.0549 0 0 162
-20.6994 25.6074 -30.8677 0 0 136
-19.8272 27.2619 -30.9558 0 0 136
-31.3497 50.5387 -25.3159 0 0 215
-31.1593 52.1463 -25.0404 0 0 180
-30.0034 51.1752 -25.5789 0 0 180
-16.359 48.1214 -30.6751 0 0 150
-17.149 49.5853 -30.171 0 0 150
-16.9661 46.2306 -30.6857 0 0 150
-16.359 48.1214 -30.6751 0 0 150
-46.123 56.0293 7.1788 0 0 145
-45.3994 57.4647 7.00481 0 0 145
-47.6164 53.1669 7.61653 0 0 143
-48.2253 52.8207 6.51957 0 0 143
-49.8509 51.6039 3.4635 0 0 135
-50.2207 51.1917 2.58764 0 0 135
-36.4355 8.80445 -0.222027 0 0 150
-36.4453 8.30046 0.754476 0 0 150
-36.3944 10.2493 -3.16552 0 0 189
-36.4053 9.78547 -2.17825 0 0 189
-35.9207 12.0815 -1.8658 0 0 229
-36.4515 10.7416 -4.20013 0 0 152
-36.3944 10.2493 -3.16552 0 0 152
-36.6121 12.1113 -7.29728 0 0 190
-36.5577 11.6789 -6.26453 0 0 190
-36.0191 13.8699 -5.91859 0 0 230
-36.7004 12.6059 -8.34861 0 0 152
-36.6121 12.1113 -7.29728 0 0 152
-36.9072 13.9517 -11.4637 0 0 186
-36.8483 13.5317 -10.4317 0 0 186
-36.2645 15.5698 -10.058 0 0 224
-36.9635 14.4629 -12.4965 0 0 149
-36.9072 13.9517 -11.4637 0 0 149
-36.3541 16.4096 -12.1089 0 0 147
-36.9635 14.4629 -12.4965 0 0 147
-36.1912 72.7123 -14.8725 0 0 174
-36.7616 71.7038 -15.7735 0 0 174
-37.6408 71.5642 -14.7365 0 0 206
-40.8596 69.7229 -8.90228 0 0 144
-41.3427 69.1171 -7.58136 0 0 144
-41.4692 68.955 -9.99053 0 0 206
-40.8596 69.7229 -8.90228 0 0 175
-40.3666 70.2332 -10.1566 0 0 175
-47.1401 49.288 -4.33434 0 0 132
-46.7832 48.0522 -3.32586 0 0 132
-35.6706 19.9732 -15.854 0 0 143
-35.7544 19.5558 -14.876 0 0 143
-35.6706 19.9732 -15.854 0 0 141
-35.049 21.7559 -15.5953 0 0 141
-34.0859 22.2898 -22.3632 0 0 161
-34.4029 22.027 -21.4641 0 0 161
-33.7571 23.5247 -21.222 0 0 187
-33.693 22.588 -23.2015 0 0 135
-34.0859 22.2898 -22.3632 0 0 135
-33.315 22.8094 -24.0601 0 0 158
-33.693 22.588 -23.2015 0 0 158
-33.0621 24.0089 -22.9796 0 0 181
-32.8599 23.0413 -24.8355 0 0 133
-33.315 22.8094 -24.0601 0 0 133
-39.6787 62.533 -20.0835 0 0 163
-39.848 61.1369 -20.4528 0 0 163
-40.8163 61.5214 -19.8362 0 0 190
-44.5713 62.5035 -0.199575 0 0 146
-44.7581 61.5558 1.24909 0 0 146
-36.3466 12.8287 5.35738 0 0 140
-36.3241 10.9911 4.55313 0 0 140
-36.1761 15.2023 5.32016 0 0 195
-36.3466 12.8287 5.35738 0 0 167
-36.4618 14.6471 6.02839 0 0 167
-36.6229 27.7028 5.2891 0 0 134
-36.509 25.563 5.69856 0 0 134
-36.1048 28.3606 4.69794 0 0 185
-36.6229 27.7028 5.2891 0 0 160
-36.7147 29.8497 4.84723 0 0 160
-35.9909 33.0964 2.92475 0 0 159
-35.7593 31.0973 3.54766 0 0 183
-36.4283 32.5066 3.63316 0 0 159
-36.2178 35.0698 2.24986 0 0 161
-35.5488 33.6605 2.16436 0 0 186
-35.9909 33.0964 2.92475 0 0 161
-19.8156 37.245 -30.9081 0 0 172
-20.4242 38.7726 -30.6411 0 0 202
-19.2792 38.9678 -30.8618 0 0 172
-19.3007 35.6952 -31.0931 0 0 172
-20.4456 35.5001 -30.8723 0 0 202
-19.8156 37.245 -30.9081 0 0 172
-35.8281 55.6332 -23.0318 0 0 172
-36.9782 56.3859 -22.5577 0 0 202
-35.7624 57.1568 -22.8032 0 0 172
-34.7129 54.8414 -23.52 0 0 172
-35.9287 54.0705 -23.2745 0 0 203
-35.8281 55.6332 -23.0318 0 0 172
-28.6382 51.742 -25.8682 0 0 150
-27.1502 52.3998 -26.159 0 0 150
-28.8285 50.1345 -26.1437 0 0 217
-30.0034 51.1752 -25.5789 0 0 181
-28.6382 51.742 -25.8682 0 0 181
-17.512 52.8234 -29.4803 0 0 155
-16.9419 54.7291 -29.4142 0 0 155
-48.8202 52.4214 5.43519 0 0 174
-48.2253 52.8207 6.51957 0 0 174
-48.078 53.8378 5.16423 0 0 206
-41.2073 42.664 -0.305623 0 0 137
-41.8374 44.067 -1.38855 0 0 137
-40.0677 41.7773 -0.049845 0 0 137
-41.2073 42.664 -0.305623 0 0 137
-39.5752 42.3468 -0.853967 0 0 187
-38.9662 40.8439 0.207953 0 0 162
-40.0677 41.7773 -0.049845 0 0 162
-30.3628 26.141 -26.8838 0 0 150
-30.8472 26.0628 -26.1491 0 0 150
-30.3817 27.4208 -26.1566 0 0 169
-30.3628 26.141 -26.8838 0 0 129
-29.8113 26.1892 -27.5018 0 0 129
-38.2841 68.0795 -17.9912 0 0 169
-38.6974 66.7917 -18.63 0 0 169
-39.6308 66.9338 -17.826 0 0 198
-37.8088 69.3857 -17.3327 0 0 171
-38.7144 69.3887 -16.4123 0 0 202
-37.3056 70.5528 -16.5578 0 0 171
-38.2841 68.0795 -17.9912 0 0 141
-37.8088 69.3857 -17.3327 0 0 141
-43.6324 65.7788 -5.83847 0 0 145
-43.9258 65.0213 -4.44801 0 0 145
-42.3448 67.8023 -7.40335 0 0 144
-41.3427 69.1171 -7.58136 0 0 144
-43.3258 66.4515 -7.18352 0 0 177
-42.3448 67.8023 -7.40335 0 0 177
-42.9432 67.0938 -8.5164 0 0 210
-44.2308 65.0703 -6.95152 0 0 209
-43.6324 65.7788 -5.83847 0 0 176
-43.3258 66.4515 -7.18352 0 0 176
-25.2714 54.7612 -26.2516 0 0 154
-24.9024 56.5222 -25.9982 0 0 154
-24.1127 53.6467 -26.8552 0 0 239
-25.6783 52.9839 -26.4886 0 0 197
-25.2714 54.7612 -26.2516 0 0 197
-20.0227 58.6028 -27.3872 0 0 158
-21.6717 57.9017 -26.8725 0 0 158
-18.9453 57.3502 -28.0909 0 0 204
-20.0227 58.6028 -27.3872 0 0 204
-18.4444 59.2254 -27.9348 0 0 157
-17.9009 56.0806 -28.7546 0 0 204
-19.4792 55.458 -28.207 0 0 250
-18.9453 57.3502 -28.0909 0 0 204
-16.9419 54.7291 -29.4142 0 0 155
-17.9009 56.0806 -28.7546 0 0 155
-49.9758 52.0938 1.31611 0 0 158
-49.4627 53.4594 0.80069 0 0 182
-49.7737 52.9896 -0.023479 0 0 158
-50.2207 51.1917 2.58764 0 0 134
-49.9758 52.0938 1.31611 0 0 134
-43.1454 46.6731 -3.73063 0 0 136
-42.5107 45.4027 -2.56719 0 0 136
-23.3339 25.8956 -30.7383 0 0 132
-22.4911 25.7785 -30.7996 0 0 132
-34.3923 23.8105 -16.4902 0 0 168
-34.5223 23.5984 -15.5239 0 0 168
-33.9764 25.3392 -15.4472 0 0 196
-34.3923 23.8105 -16.4902 0 0 139
-34.2113 24.1163 -17.4407 0 0 139
-34.3252 22.9716 -19.3954 0 0 164
-34.0242 24.3286 -18.3911 0 0 164
-33.7731 24.6189 -19.3187 0 0 190
-34.3252 22.9716 -19.3954 0 0 138
-34.7242 21.6768 -20.5783 0 0 138
-36.7283 59.4771 -22.0449 0 0 172
-37.9835 58.5371 -21.8314 0 0 203
-37.7993 60.1047 -21.5472 0 0 172
-35.557 58.7789 -22.5324 0 0 144
-36.7283 59.4771 -22.0449 0 0 144
-39.3893 64.0108 -19.665 0 0 167
-40.3455 64.2818 -18.9659 0 0 194
-39.0878 65.3751 -19.1639 0 0 167
-39.6787 62.533 -20.0835 0 0 140
-39.3893 64.0108 -19.665 0 0 140
-44.6521 58.9036 6.80283 0 0 180
-44.1167 59.2433 8.08801 0 0 146
-43.9467 60.3258 6.6526 0 0 180
-45.2294 58.5472 5.56939 0 0 216
-45.3994 57.4647 7.00481 0 0 181
-44.6521 58.9036 6.80283 0 0 181
-44.3126 61.0089 3.91613 0 0 146
-43.7391 61.4018 5.19759 0 0 146
-45.0834 59.5739 4.13762 0 0 217
-44.3126 61.0089 3.91613 0 0 181
-44.9138 60.5968 2.68634 0 0 181
-44.3874 63.3806 -1.62459 0 0 145
-44.1598 64.2395 -3.05312 0 0 145
-45.1893 61.9569 -1.39168 0 0 215
-44.5713 62.5035 -0.199575 0 0 180
-44.3874 63.3806 -1.62459 0 0 180
-49.2917 54.6412 -2.64951 0 0 157
-49.5125 53.8218 -1.30819 0 0 157
-49.0398 55.1747 -1.88023 0 0 180
-49.4865 54.0384 -3.36262 0 0 155
-49.2917 54.6412 -2.64951 0 0 155
-49.0138 55.3913 -3.93466 0 0 177
-49.4774 53.4846 -3.94482 0 0 129
-49.4865 54.0384 -3.36262 0 0 129
-49.4099 52.8666 -4.46174 0 0 147
-49.4774 53.4846 -3.94482 0 0 147
-49.1411 54.1705 -5.16469 0 0 165
-49.11 52.3001 -4.84058 0 0 128
-49.4099 52.8666 -4.46174 0 0 128
-48.7225 52.9277 -5.99119 0 0 162
-48.7589 51.6753 -5.15015 0 0 145
-49.11 52.3001 -4.84058 0 0 145
-36.1534 10.1456 1.90502 0 0 147
-36.4453 8.30046 0.754476 0 0 147
-36.1612 11.5127 3.7233 0 0 144
-36.3241 10.9911 4.55313 0 0 144
-35.9405 12.043 2.93314 0 0 175
-36.1612 11.5127 3.7233 0 0 175
-35.8402 13.9141 3.85899 0 0 207
-35.8324 12.547 2.0407 0 0 218
-36.1534 10.1456 1.90502 0 0 182
-35.9405 12.043 2.93314 0 0 182
-36.6374 18.7256 6.39955 0 0 135
-36.7022 16.4167 6.56644 0 0 135
-36.1777 19.3569 5.84602 0 0 186
-36.6374 18.7256 6.39955 0 0 161
-36.5238 21.0618 6.2544 0 0 161
-36.0385 23.9534 5.42035 0 0 185
-36.5345 23.3027 5.97909 0 0 160
-36.509 25.563 5.69856 0 0 160
-18.8541 34.0657 -31.1995 0 0 140
-19.3007 35.6952 -31.0931 0 0 140
-18.5075 32.4231 -31.2401 0 0 139
-18.2284 30.6949 -31.1906 0 0 139
-19.5841 32.3077 -31.0979 0 0 198
-18.8541 34.0657 -31.1995 0 0 169
-18.5075 32.4231 -31.2401 0 0 169
-21.5699 25.735 -30.8826 0 0 158
-22.4911 25.7785 -30.7996 0 0 158
-21.6907 27.3545 -30.8573 0 0 182
-21.5699 25.735 -30.8826 0 0 134
-20.6994 25.6074 -30.8677 0 0 134
-33.5173 53.9828 -24.008 0 0 144
-34.7129 54.8414 -23.52 0 0 144
-32.3633 53.0983 -24.5154 0 0 145
-31.1593 52.1463 -25.0404 0 0 145
-33.6596 52.3942 -24.27 0 0 210
-33.5173 53.9828 -24.008 0 0 177
-32.3633 53.0983 -24.5154 0 0 177
-18.1238 42.5494 -30.7868 0 0 178
-18.664 40.7705 -30.8674 0 0 178
-19.3476 42.2742 -30.5142 0 0 211
-18.0292 50.966 -29.6179 0 0 195
-18.952 52.3311 -29.0083 0 0 237
-17.512 52.8234 -29.4803 0 0 195
-18.589 49.093 -29.6991 0 0 236
-18.0292 50.966 -29.6179 0 0 194
-17.149 49.5853 -30.171 0 0 194
-17.5154 44.4009 -30.7764 0 0 184
-18.2582 45.8827 -30.3429 0 0 220
-16.9661 46.2306 -30.6857 0 0 184
-18.1238 42.5494 -30.7868 0 0 147
-17.5154 44.4009 -30.7764 0 0 147
-36.4556 73.3976 -12.825 0 0 142
-37.8093 72.2574 -12.6921 0 0 142
-35.5959 73.675 -13.9693 0 0 144
-36.4556 73.3976 -12.825 0 0 144
-36.1912 72.7123 -14.8725 0 0 142
-35.5959 73.675 -13.9693 0 0 142
-46.8762 54.5937 7.41742 0 0 179
-46.123 56.0293 7.1788 0 0 179
-46.7298 55.6727 6.00999 0 0 212
-46.8762 54.5937 7.41742 0 0 144
-47.6164 53.1669 7.61653 0 0 144
-49.3549 52.0413 4.43328 0 0 167
-49.1689 53.0011 3.11006 0 0 195
-49.8509 51.6039 3.4635 0 0 167
-48.8202 52.4214 5.43519 0 0 140
-49.3549 52.0413 4.43328 0 0 140
-36.5995 36.8932 1.43816 0 0 135
-36.2178 35.0698 2.24986 0 0 135
-37.9485 39.783 0.395339 0 0 136
-38.9662 40.8439 0.207953 0 0 136
-36.9904 38.6702 0.563445 0 0 160
-37.9485 39.783 0.395339 0 0 160
-37.5156 40.3006 -0.428064 0 0 185
-36.1666 37.4108 0.614751 0 0 186
-36.5995 36.8932 1.43816 0 0 161
-36.9904 38.6702 0.563445 0 0 161
-48.173 51.0963 -5.32425 0 0 129
-48.7589 51.6753 -5.15015 0 0 129
-47.5498 50.4637 -5.43152 0 0 148
-48.173 51.0963 -5.32425 0 0 148
-47.7483 51.6703 -6.40803 0 0 166
-46.7154 49.862 -5.41812 0 0 175
-47.1401 49.288 -4.33434 0 0 153
-47.5498 50.4637 -5.43152 0 0 153
-44.8422 48.5632 -5.18246 0 0 159
-45.2865 48.0405 -4.15658 0 0 159
-45.8613 49.2091 -5.34681 0 0 183
-43.8226 47.8662 -4.97442 0 0 158
-44.8422 48.5632 -5.18246 0 0 158
-44.3974 49.0348 -6.16465 0 0 181
-42.7007 47.1447 -4.71283 0 0 187
-43.1454 46.6731 -3.73063 0 0 162
-43.8226 47.8662 -4.97442 0 0 162
-36.3786 9.28842 -1.16759 0 0 187
-36.4355 8.80445 -0.222027 0 0 187
-35.9884 11.1336 0.067026 0 0 225
-36.3786 9.28842 -1.16759 0 0 151
-36.4053 9.78547 -2.17825 0 0 151
-36.4789 11.1877 -5.21652 0 0 191
-36.4515 10.7416 -4.20013 0 0 191
-35.9373 12.9914 -3.86946 0 0 231
-36.4789 11.1877 -5.21652 0 0 152
-36.5577 11.6789 -6.26453 0 0 152
-36.7665 13.0297 -9.38595 0 0 189
-36.7004 12.6059 -8.34861 0 0 189
-36.1396 14.726 -7.98869 0 0 228
-36.7665 13.0297 -9.38595 0 0 151
-36.8483 13.5317 -10.4317 0 0 151
-35.8168 18.492 -11.8737 0 0 184
-36.3541 16.4096 -12.1089 0 0 184
-35.7861 18.0723 -10.8547 0 0 221
-35.8197 18.8169 -12.8837 0 0 180
-35.8168 18.492 -11.8737 0 0 180
-35.2516 20.4796 -11.6296 0 0 215
-35.8017 19.237 -13.884 0 0 145
-35.8197 18.8169 -12.8837 0 0 145
-35.2072 21.1233 -13.6316 0 0 209
-35.7544 19.5558 -14.876 0 0 176
-35.8017 19.237 -13.884 0 0 176
-32.4244 23.2094 -25.6353 0 0 154
-32.8599 23.0413 -24.8355 0 0 154
-32.2486 24.3984 -24.6379 0 0 175
-31.3207 24.6748 -26.157 0 0 150
-31.3396 25.9546 -25.4298 0 0 170
-30.8472 26.0628 -26.1491 0 0 150
-31.9157 23.3652 -26.3295 0 0 130
-31.3207 24.6748 -26.157 0 0 130
-32.4244 23.2094 -25.6353 0 0 131
-31.9157 23.3652 -26.3295 0 0 131
-24.212 25.9357 -30.5728 0 0 155
-23.49 27.438 -30.6088 0 0 176
-23.3339 25.8956 -30.7383 0 0 155
-25.0109 26.0396 -30.4196 0 0 130
-24.212 25.9357 -30.5728 0 0 130
-25.8255 26.0731 -30.1544 0 0 151
-25.1828 27.5115 -30.1781 0 0 171
-25.0109 26.0396 -30.4196 0 0 151
-26.568 26.1557 -29.8937 0 0 129
-25.8255 26.0731 -30.1544 0 0 129
-27.304 26.175 -29.5133 0 0 148
-26.7334 27.5642 -29.5325 0 0 167
-26.568 26.1557 -29.8937 0 0 148
-27.9831 26.2253 -29.1339 0 0 128
-27.304 26.175 -29.5133 0 0 128
-28.633 26.2208 -28.6297 0 0 147
-28.1192 27.579 -28.6478 0 0 165
-27.9831 26.2253 -29.1339 0 0 147
-29.2472 26.2269 -28.1279 0 0 128
-28.633 26.2208 -28.6297 0 0 128
3 0 87 85
3 339 90 340
3 341 340 88
3 339 340 341
3 342 92 343
3 344 88 345
3 346 345 92
3 344 345 346
3 1 96 94
3 1 99 97
3 1 94 99
3 3 103 101
3 3 105 103
3 2 108 106
3 4 347 349
3 349 348 109
3 347 348 349
3 5 112 110
3 5 113 112
3 6 116 114
3 8 119 117
3 8 121 119
3 8 123 121
3 6 126 124
3 6 114 126
3 350 129 351
3 352 131 353
3 355 354 131
3 357 356 133
3 12 137 135
3 14 140 138
3 14 142 140
3 360 359 143
3 358 359 360
3 15 361 363
3 361 145 362
3 361 362 363
3 15 147 145
3 15 149 147
3 7 152 150
3 16 364 366
3 364 153 365
3 364 365 366
3 16 155 153
3 9 158 156
3 17 161 159
3 17 163 161
3 17 165 163
3 12 168 166
3 12 135 168
3 10 172 170
3 19 175 173
3 19 177 175
3 19 179 177
3 18 182 180
3 18 184 182
3 13 187 185
3 20 190 188
3 20 367 369
3 369 368 190
3 367 368 369
3 11 193 191
3 21 196 194
3 23 197 86
3 23 198 197
3 24 201 199
3 371 370 89
3 26 202 91
3 26 203 202
3 26 205 203
3 24 206 93
3 24 199 206
3 28 209 207
3 30 210 95
3 30 211 210
3 372 212 373
3 372 373 374
3 375 214 376
3 377 376 212
3 375 376 377
3 379 378 215
3 32 380 381
3 32 382 383
3 33 219 217
3 35 220 98
3 35 221 220
3 35 223 221
3 28 224 100
3 28 207 224
3 37 227 225
3 39 228 102
3 39 229 228
3 39 231 229
3 41 232 104
3 41 233 232
3 42 236 234
3 44 237 107
3 44 238 237
3 22 384 386
3 386 385 195
3 384 385 386
3 388 387 111
3 45 241 239
3 389 242 390
3 391 390 115
3 389 390 391
3 393 392 242
3 395 394 200
3 396 243 397
3 48 398 400
3 398 244 399
3 398 399 400
3 48 245 244
3 25 401 403
3 401 246 402
3 401 402 403
3 49 247 118
3 49 248 247
3 49 249 248
3 50 250 120
3 50 251 250
3 50 253 251
3 52 254 122
3 52 255 254
3 27 256 204
3 53 257 125
3 53 258 257
3 53 259 258
3 45 260 127
3 45 239 260
3 55 261 128
3 55 262 261
3 404 263 405
3 56 264 130
3 56 265 264
3 56 266 265
3 57 267 132
3 57 268 267
3 58 271 269
3 60 272 134
3 60 273 272
3 406 274 407
3 408 275 409
3 410 409 274
3 408 409 410
3 412 411 275
3 61 278 276
3 63 279 136
3 63 280 279
3 29 281 208
3 64 282 139
3 64 283 282
3 64 284 283
3 65 285 141
3 65 286 285
3 46 287 240
3 66 288 144
3 66 289 288
3 67 413 415
3 413 290 414
3 413 414 415
3 67 291 290
3 67 292 291
3 68 293 146
3 68 294 293
3 68 295 294
3 69 296 148
3 69 297 296
3 31 298 213
3 416 299 417
3 419 418 299
3 47 420 421
3 423 422 151
3 425 424 216
3 70 300 154
3 70 301 300
3 51 302 252
3 71 303 157
3 71 304 303
3 34 305 218
3 72 306 160
3 72 307 306
3 72 308 307
3 73 309 162
3 73 310 309
3 73 311 310
3 74 312 164
3 74 313 312
3 36 314 222
3 75 315 167
3 75 316 315
3 75 317 316
3 61 318 169
3 61 276 318
3 54 426 427
3 77 428 430
3 430 429 171
3 428 429 430
3 77 431 432
3 38 320 226
3 78 321 174
3 78 433 435
3 435 434 321
3 433 434 435
3 78 436 437
3 79 438 440
3 440 439 176
3 438 439 440
3 79 441 442
3 79 443 444
3 80 322 178
3 80 323 322
3 40 324 230
3 81 325 181
3 81 326 325
3 81 327 326
3 76 328 183
3 76 319 328
3 62 329 277
3 82 330 186
3 82 331 330
3 43 332 235
3 83 333 189
3 83 334 333
3 83 335 334
3 59 336 270
3 84 337 192
3 84 338 337
3 85 86 21
3 87 86 85
3 87 23 86
3 88 89 24
3 90 89 88
3 90 445 447
3 447 446 89
3 445 446 447
3 448 91 449
3 92 450 452
3 450 91 451
3 450 451 452
3 92 26 91
3 92 93 26
3 88 93 92
3 88 24 93
3 94 95 28
3 96 95 94
3 96 30 95
3 453 32 454
3 97 98 33
3 99 98 97
3 99 35 98
3 99 100 35
3 94 100 99
3 94 28 100
3 101 102 37
3 103 102 101
3 103 39 102
3 103 104 39
3 105 104 103
3 105 41 104
3 106 107 42
3 108 107 106
3 108 44 107
3 109 455 456
3 458 457 109
3 110 111 22
3 112 111 110
3 112 459 461
3 461 460 111
3 459 460 461
3 112 462 463
3 113 464 466
3 466 465 112
3 464 465 466
3 113 467 468
3 114 115 45
3 116 115 114
3 116 469 471
3 471 470 115
3 469 470 471
3 472 48 473
3 117 118 25
3 119 118 117
3 119 49 118
3 119 120 49
3 121 120 119
3 121 50 120
3 121 122 50
3 123 122 121
3 123 52 122
3 124 125 27
3 126 125 124
3 126 53 125
3 126 127 53
3 114 127 126
3 114 45 127
3 474 128 475
3 129 476 478
3 476 128 477
3 476 477 478
3 129 55 128
3 479 130 480
3 131 481 483
3 481 130 482
3 481 482 483
3 131 56 130
3 131 132 56
3 484 132 485
3 486 485 131
3 484 485 486
3 487 57 488
3 489 488 132
3 487 488 489
3 133 134 58
3 490 134 491
3 492 491 133
3 490 491 492
3 493 60 494
3 495 494 134
3 493 494 495
3 135 136 61
3 137 136 135
3 137 63 136
3 138 139 29
3 140 139 138
3 140 64 139
3 140 141 64
3 142 141 140
3 142 65 141
3 143 144 46
3 496 144 497
3 498 497 143
3 496 497 498
3 499 66 500
3 501 500 144
3 499 500 501
3 145 502 503
3 145 504 506
3 504 67 505
3 504 505 506
3 145 146 67
3 147 146 145
3 147 68 146
3 147 148 68
3 149 148 147
3 149 69 148
3 508 507 31
3 150 151 47
3 152 151 150
3 152 509 511
3 511 510 151
3 509 510 511
3 153 512 513
3 153 514 515
3 153 516 518
3 516 154 517
3 516 517 518
3 155 154 153
3 155 70 154
3 156 157 51
3 158 157 156
3 158 71 157
3 159 160 34
3 161 160 159
3 161 72 160
3 161 162 72
3 163 162 161
3 163 73 162
3 163 164 73
3 165 164 163
3 165 74 164
3 166 167 36
3 168 167 166
3 168 75 167
3 168 169 75
3 135 169 168
3 135 61 169
3 170 171 54
3 172 171 170
3 172 77 171
3 173 174 38
3 175 174 173
3 175 78 174
3 175 176 78
3 177 176 175
3 177 79 176
3 177 178 79
3 179 178 177
3 179 80 178
3 180 181 40
3 182 181 180
3 182 81 181
3 182 183 81
3 184 183 182
3 184 76 183
3 185 186 62
3 187 186 185
3 187 82 186
3 188 189 43
3 190 189 188
3 190 83 189
3 190 519 521
3 521 520 83
3 519 520 521
3 523 522 190
3 191 192 59
3 193 192 191
3 193 84 192
3 194 195 4
3 196 195 194
3 196 22 195
3 86 196 21
3 197 196 86
3 197 22 196
3 197 110 22
3 198 110 197
3 198 5 110
3 199 200 6
3 201 200 199
3 201 524 526
3 526 525 200
3 524 525 526
3 89 201 24
3 527 201 528
3 529 528 89
3 527 528 529
3 531 530 201
3 532 25 533
3 91 534 535
3 202 536 538
3 538 537 91
3 536 537 538
3 202 539 541
3 539 25 540
3 539 540 541
3 202 117 25
3 203 117 202
3 203 8 117
3 203 204 8
3 205 204 203
3 205 27 204
3 93 205 26
3 206 205 93
3 206 27 205
3 206 124 27
3 199 124 206
3 199 6 124
3 207 208 12
3 209 208 207
3 209 29 208
3 95 209 28
3 210 209 95
3 210 29 209
3 210 138 29
3 211 138 210
3 211 14 138
3 212 542 543
3 212 544 546
3 544 15 545
3 544 545 546
3 212 213 15
3 214 213 212
3 214 31 213
3 547 214 548
3 549 214 550
3 549 550 551
3 552 31 553
3 554 553 214
3 552 553 554
3 556 555 31
3 215 216 7
3 557 216 558
3 559 558 215
3 557 558 559
3 561 560 216
3 562 16 563
3 217 218 9
3 219 218 217
3 219 34 218
3 98 219 33
3 220 219 98
3 220 34 219
3 220 159 34
3 221 159 220
3 221 17 159
3 221 222 17
3 223 222 221
3 223 36 222
3 100 223 35
3 224 223 100
3 224 36 223
3 224 166 36
3 207 166 224
3 207 12 166
3 225 226 10
3 227 226 225
3 227 38 226
3 102 227 37
3 228 227 102
3 228 38 227
3 228 173 38
3 229 173 228
3 229 19 173
3 229 230 19
3 231 230 229
3 231 40 230
3 104 231 39
3 232 231 104
3 232 40 231
3 232 180 40
3 233 180 232
3 233 18 180
3 234 235 13
3 236 235 234
3 236 43 235
3 107 236 42
3 237 236 107
3 237 43 236
3 237 188 43
3 238 188 237
3 238 20 188
3 565 564 11
3 195 566 568
3 568 567 4
3 566 567 568
3 570 569 195
3 111 571 573
3 573 572 22
3 571 572 573
3 575 574 111
3 239 240 1
3 241 240 239
3 241 46 240
3 115 241 45
3 242 241 115
3 242 46 241
3 242 143 46
3 576 143 577
3 578 577 242
3 576 577 578
3 580 579 143
3 200 116 6
3 581 116 582
3 583 582 200
3 581 582 583
3 585 584 116
3 243 586 588
3 586 587 588
3 243 589 591
3 589 47 590
3 589 590 591
3 592 243 593
3 244 594 596
3 594 243 595
3 594 595 596
3 244 47 243
3 244 150 47
3 245 150 244
3 245 7 150
3 246 597 598
3 246 599 601
3 599 48 600
3 599 600 601
3 118 246 25
3 247 246 118
3 247 48 246
3 247 245 48
3 248 245 247
3 248 7 245
3 248 215 7
3 249 215 248
3 249 602 604
3 604 603 215
3 602 603 604
3 120 249 49
3 250 249 120
3 250 605 607
3 607 606 249
3 605 606 607
3 250 608 609
3 251 610 612
3 612 611 250
3 610 611 612
3 251 613 614
3 251 615 617
3 615 252 616
3 615 616 617
3 253 252 251
3 253 51 252
3 122 253 50
3 254 253 122
3 254 51 253
3 254 156 51
3 255 156 254
3 255 9 156
3 204 123 8
3 256 123 204
3 256 52 123
3 125 256 27
3 257 256 125
3 257 52 256
3 257 255 52
3 258 255 257
3 258 9 255
3 258 217 9
3 259 217 258
3 259 33 217
3 127 259 53
3 260 259 127
3 260 33 259
3 260 97 33
3 239 97 260
3 239 1 97
3 618 54 619
3 128 620 621
3 261 622 624
3 624 623 128
3 622 623 624
3 261 625 627
3 625 54 626
3 625 626 627
3 261 170 54
3 262 170 261
3 262 10 170
3 628 129 629
3 263 630 632
3 630 129 631
3 630 631 632
3 263 55 129
3 130 633 635
3 633 263 634
3 633 634 635
3 264 263 130
3 264 55 263
3 264 262 55
3 265 262 264
3 265 10 262
3 265 225 10
3 266 225 265
3 266 37 225
3 132 266 56
3 267 266 132
3 267 37 266
3 267 101 37
3 268 101 267
3 268 3 101
3 269 270 2
3 271 270 269
3 271 59 270
3 134 271 58
3 272 271 134
3 272 59 271
3 272 191 59
3 273 191 272
3 273 11 191
3 636 60 637
3 274 638 639
3 274 640 642
3 640 60 641
3 640 641 642
3 274 273 60
3 275 273 274
3 275 11 273
3 275 643 645
3 645 644 11
3 643 644 645
3 647 646 275
3 276 277 0
3 278 277 276
3 278 62 277
3 136 278 61
3 279 278 136
3 279 62 278
3 279 185 62
3 280 185 279
3 280 13 185
3 208 137 12
3 281 137 208
3 281 63 137
3 139 281 29
3 282 281 139
3 282 63 281
3 282 280 63
3 283 280 282
3 283 13 280
3 283 234 13
3 284 234 283
3 284 42 234
3 141 284 64
3 285 284 141
3 285 42 284
3 285 106 42
3 286 106 285
3 286 2 106
3 240 96 1
3 287 96 240
3 287 30 96
3 144 287 46
3 288 287 144
3 288 30 287
3 288 211 30
3 289 211 288
3 289 14 211
3 648 66 649
3 290 650 651
3 290 652 654
3 652 66 653
3 652 653 654
3 290 289 66
3 291 289 290
3 291 14 289
3 291 142 14
3 292 142 291
3 292 65 142
3 146 292 67
3 293 292 146
3 293 65 292
3 293 286 65
3 294 286 293
3 294 2 286
3 294 269 2
3 295 269 294
3 295 58 269
3 148 295 68
3 296 295 148
3 296 58 295
3 296 133 58
3 297 133 296
3 297 655 657
3 657 656 133
3 655 656 657
3 213 149 15
3 298 149 213
3 298 69 149
3 658 298 659
3 660 659 31
3 658 659 660
3 299 661 663
3 661 298 662
3 661 662 663
3 299 69 298
3 299 297 69
3 664 297 665
3 666 665 299
3 664 665 666
3 668 667 297
3 669 90 670
3 671 90 672
3 674 673 90
3 151 675 677
3 677 676 47
3 675 676 677
3 679 678 151
3 216 152 7
3 680 152 681
3 682 681 216
3 680 681 682
3 684 683 152
3 685 57 686
3 154 687 688
3 300 689 691
3 691 690 154
3 689 690 691
3 300 692 694
3 692 57 693
3 692 693 694
3 300 268 57
3 301 268 300
3 301 3 268
3 252 695 696
3 302 697 699
3 699 698 252
3 697 698 699
3 302 700 702
3 700 32 701
3 700 701 702
3 157 302 51
3 303 302 157
3 303 32 302
3 303 703 705
3 705 704 32
3 703 704 705
3 304 706 708
3 708 707 303
3 706 707 708
3 304 709 711
3 709 16 710
3 709 710 711
3 218 158 9
3 305 158 218
3 305 71 158
3 160 305 34
3 306 305 160
3 306 71 305
3 306 304 71
3 307 304 306
3 307 16 304
3 307 155 16
3 308 155 307
3 308 70 155
3 162 308 72
3 309 308 162
3 309 70 308
3 309 301 70
3 310 301 309
3 310 3 301
3 310 105 3
3 311 105 310
3 311 41 105
3 164 311 73
3 312 311 164
3 312 41 311
3 312 233 41
3 313 233 312
3 313 18 233
3 222 165 17
3 314 165 222
3 314 74 165
3 167 314 36
3 315 314 167
3 315 74 314
3 315 313 74
3 316 313 315
3 316 18 313
3 316 184 18
3 317 184 316
3 317 76 184
3 169 317 75
3 318 317 169
3 318 76 317
3 318 319 76
3 276 319 318
3 276 0 319
3 171 712 714
3 714 713 54
3 712 713 714
3 716 715 171
3 226 172 10
3 320 172 226
3 320 77 172
3 174 320 38
3 321 320 174
3 321 77 320
3 321 717 719
3 719 718 77
3 717 718 719
3 721 720 321
3 176 722 724
3 724 723 78
3 722 723 724
3 726 725 176
3 178 727 729
3 729 728 79
3 727 728 729
3 322 730 732
3 732 731 178
3 730 731 732
3 322 733 734
3 322 735 737
3 735 109 736
3 735 736 737
3 323 109 322
3 323 4 109
3 230 179 19
3 324 179 230
3 324 80 179
3 181 324 40
3 325 324 181
3 325 80 324
3 325 323 80
3 326 323 325
3 326 4 323
3 326 194 4
3 327 194 326
3 327 21 194
3 183 327 81
3 328 327 183
3 328 21 327
3 328 85 21
3 319 85 328
3 319 0 85
3 277 87 0
3 329 87 277
3 329 23 87
3 186 329 62
3 330 329 186
3 330 23 329
3 330 198 23
3 331 198 330
3 331 5 198
3 235 187 13
3 332 187 235
3 332 82 187
3 189 332 43
3 333 332 189
3 333 82 332
3 333 331 82
3 334 331 333
3 334 5 331
3 334 113 5
3 335 113 334
3 335 738 740
3 740 739 113
3 738 739 740
3 741 335 742
3 743 742 83
3 741 742 743
3 744 335 745
3 747 746 335
3 270 108 2
3 336 108 270
3 336 44 108
3 192 336 59
3 337 336 192
3 337 44 336
3 337 238 44
3 338 238 337
3 338 20 238
3 748 193 749
3 750 749 11
3 748 749 750
3 751 193 752
3 753 84 754
3 755 754 193
3 753 754 755
3 756 84 757
3 758 338 759
3 760 759 84
3 758 759 760
3 761 338 762
3 763 20 764
3 765 764 338
3 763 764 765
3 767 766 20
