ply
format ascii 1.0
element vertex 337
property float x
property float y
property float z
property uchar red
property uchar green
property uchar blue
element face 380
property list uchar int vertex_index
end_header
57.305 -53.7412 4.07722 0 122 255
65.9823 -49.1624 -11.0675 120 255 135
67.0549 -47.8749 14.1671 255 82 0
59.0264 -46.117 0.087723 250 255 5
59.8472 -42.3067 -8.2024 255 180 0
60.631 -52.6166 -3.02594 255 58 0
59.8047 -50.2435 8.66901 255 141 0
66.102 -42.4443 4.71163 255 6 0
57.7961 -50.3551 2.25615 107 255 148
58.6259 -49.0738 -1.75044 238 255 17
58.4889 -53.3927 0.88679 208 255 47
62.3288 -45.611 -9.92521 181 0 0
69.7074 -44.5549 12.474 15 255 240
69.5569 -41.7098 7.59755 46 255 209
66.832 -45.2241 9.32643 255 43 0
62.8378 -46.3178 6.68576 255 13 0
63.412 -48.8771 11.2898 255 5 0
60.9579 -41.5976 -1.94716 93 255 162
59.1019 -44.3169 -4.08778 247 255 8
60.1648 -47.5911 -5.85734 255 99 0
63.2596 -51.2152 -7.06098 162 0 0
56.9941 -55.9292 7.25938 0 169 255
58.2227 -57.0113 3.95932 58 255 197
63.6256 -51.3815 16.057 44 255 211
60.1204 -52.6761 13.1887 113 255 142
57.6175 -54.263 10.2912 0 252 255
57.5929 -52.02 6.15119 126 255 129
68.8463 -38.6143 3.07823 0 242 255
64.8838 -39.6642 0.405643 172 255 83
61.9489 -43.8853 2.26845 255 51 0
59.3613 -48.0211 4.32212 255 210 0
60.6618 -57.2038 0.215954 255 83 0
63.572 -56.5712 -3.74982 255 202 0
66.3517 -55.1337 -7.77708 76 255 179
57.455 -52.2465 3.2665 2 255 253
57.8869 -51.7687 1.46205 114 255 141
57.7381 -53.6083 2.66213 41 255 214
64.1544 -47.3491 -10.5623 255 126 0
63.5849 -44.4149 -11.9228 115 255 140
68.5335 -46.1879 13.2834 255 168 0
68.4963 -44.851 10.8217 255 148 0
67.0028 -46.5769 11.723 255 63 0
65.1559 -47.0339 10.296 255 4 0
65.3209 -48.3442 12.6779 255 18 0
59.9119 -43.8819 -0.96533 255 187 0
59.6789 -42.8717 -3.04852 112 255 143
58.995 -45.2247 -2.00685 241 255 14
59.3951 -50.782 -2.46572 255 170 0
59.3096 -48.3824 -3.80181 255 188 0
60.4157 -50.1451 -4.49698 255 69 0
61.5726 -49.3666 -6.53284 234 0 0
61.9095 -52.0018 -5.04197 225 0 0
59.6313 -40.7569 -7.14691 21 255 234
59.8943 -39.5965 -9.17415 0 207 255
61.8273 -51.997 14.6112 149 255 106
57.0507 -55.1201 8.79265 0 201 255
68.0327 -41.9989 6.08384 255 93 0
69.2772 -40.1846 5.28449 68 255 187
67.5877 -40.5216 3.83645 255 64 0
67.0021 -39.0293 1.68713 145 255 110
65.5463 -41.05 2.51644 250 0 0
63.4086 -41.784 1.29252 255 4 0
63.9899 -43.0677 3.44998 248 0 0
61.2491 -48.272 7.70045 255 68 0
60.9307 -47.0876 5.47763 255 93 0
59.5879 -49.0917 6.47637 255 176 0
58.3503 -50.0428 5.29633 208 255 47
58.4609 -51.0927 7.39337 250 255 5
59.0279 -59.0342 3.90218 0 219 255
59.3389 -57.2105 2.13246 255 181 0
60.3677 -59.2645 1.98313 102 255 153
63.3275 -59.0741 -1.97327 49 255 206
65.0091 -55.9453 -5.75979 202 255 53
58.3195 -48.2864 1.17627 180 255 75
58.4809 -47.5127 -0.889606 200 255 55
58.1212 -49.71 0.275711 164 255 91
58.5421 -51.3074 -0.465736 230 255 25
59.4733 -53.0721 -1.03586 255 168 0
60.8056 -43.9305 -9.13706 255 54 0
60.523 -41.1524 -10.2336 99 255 156
61.8297 -42.7594 -11.1552 185 255 70
69.6949 -43.1728 10.0001 28 255 227
68.3335 -43.4478 8.4174 255 122 0
66.5327 -43.8401 6.9854 255 23 0
64.4863 -44.3764 5.67424 245 0 0
64.878 -45.7037 7.95909 249 0 0
63.171 -47.5903 8.9665 255 6 0
61.5105 -49.504 9.96365 255 49 0
59.5714 -41.8402 -5.107 13 255 242
59.3779 -43.3546 -6.15342 255 234 0
58.797 -46.7339 -2.96328 238 255 17
59.2845 -45.9004 -5.03514 255 215 0
59.9536 -44.9741 -7.09546 255 141 0
61.1783 -46.6713 -7.90167 255 9 0
62.8318 -48.4331 -8.55738 161 0 0
64.6333 -50.2613 -9.07108 128 0 0
69.6128 -45.8363 15.006 0 178 255
68.4606 -47.4361 15.7952 61 255 194
57.1535 -54.7263 5.4716 11 255 244
57.6013 -55.1732 4.02086 48 255 207
57.4101 -56.5847 5.66441 0 173 255
67.002 -49.0934 16.657 6 255 249
65.3813 -49.6076 15.1019 255 252 0
63.5607 -50.1506 13.653 255 10 0
61.703 -50.7565 12.2671 255 38 0
59.9859 -51.4504 10.906 255 111 0
58.6706 -53.4345 11.7551 58 255 197
58.5765 -52.2381 9.54451 255 215 0
57.6037 -53.0965 8.17657 186 255 69
57.1332 -53.9645 6.81477 88 255 167
57.2351 -52.9552 4.99617 0 252 255
62.7743 -40.5224 -0.797897 150 255 105
61.4468 -42.7296 0.136585 255 79 0
60.2261 -44.9034 1.1476 255 155 0
62.4232 -45.0799 4.45182 255 28 0
60.5787 -45.9657 3.29417 255 123 0
59.161 -47.0365 2.19585 255 239 0
58.288 -49.1129 3.23301 182 255 73
57.6353 -51.1011 4.19714 89 255 166
58.4022 -55.2918 2.3422 195 255 60
59.4746 -55.222 0.491182 255 177 0
60.7349 -54.9793 -1.45369 255 66 0
61.8321 -59.2798 0.018824 141 255 114
62.0997 -56.992 -1.75325 255 10 0
62.1088 -54.554 -3.44394 238 0 0
63.531 -53.9381 -5.45196 185 0 0
64.9427 -53.1359 -7.4634 163 0 0
66.291 -52.1692 -9.47208 228 255 27
65.7388 -47.6495 -11.8061 0 0 194
64.8249 -46.7429 -11.5535 0 0 194
65.0683 -48.2557 -10.8149 0 0 239
66.6199 -48.56 -12.0588 0 0 148
65.7388 -47.6495 -11.8061 0 0 148
60.1038 -60.2033 2.91485 0 0 170
59.6978 -59.1493 2.94265 0 0 203
59.434 -60.0882 3.87438 0 0 170
63.2927 -42.9398 -12.5348 0 0 149
64.2442 -43.7589 -12.9078 0 0 149
69.7011 -43.8638 11.237 0 0 175
70.0872 -43.0806 10.8767 0 0 151
70.0934 -43.7716 12.1136 0 0 151
60.7442 -41.0325 -2.96913 0 0 138
61.5439 -40.4353 -2.38808 0 0 138
69.5209 -46.4167 16.298 0 0 151
69.8869 -45.6653 15.9558 0 0 151
69.795 -46.2457 17.2478 0 0 128
68.9448 -47.2166 16.6926 0 0 162
69.0367 -46.6362 15.4006 0 0 190
69.5209 -46.4167 16.298 0 0 162
60.4532 -39.7468 -10.7129 0 0 139
60.9631 -40.5175 -11.2396 0 0 139
66.9305 -49.6514 17.9265 0 0 136
67.6476 -48.8336 17.5068 0 0 136
64.4881 -51.0896 16.8136 0 0 141
63.6233 -51.9622 17.2814 0 0 141
64.5035 -50.4945 15.5795 0 0 217
65.3659 -50.2027 16.3361 0 0 179
64.4881 -51.0896 16.8136 0 0 179
58.1441 -53.8488 11.0232 0 0 191
58.1426 -54.447 12.1203 0 0 162
57.6161 -54.8612 11.3884 0 0 162
69.9827 -40.8653 7.24213 0 0 129
70.0303 -41.6316 8.43654 0 0 129
69.5101 -38.5115 3.84323 0 0 159
69.7256 -39.2967 4.94636 0 0 159
69.0618 -39.3995 4.18136 0 0 187
69.3167 -37.6752 2.76757 0 0 133
69.5101 -38.5115 3.84323 0 0 133
68.5554 -37.8143 2.03347 0 0 134
69.3167 -37.6752 2.76757 0 0 134
65.5878 -38.5979 0.022085 0 0 181
66.6469 -38.2804 0.662828 0 0 181
65.9429 -39.3467 1.04639 0 0 220
64.5148 -38.9759 -0.609418 0 0 142
65.5878 -38.5979 0.022085 0 0 142
63.829 -40.0933 -0.196127 0 0 221
63.46 -39.405 -1.21119 0 0 182
64.5148 -38.9759 -0.609418 0 0 182
62.3012 -60.3404 -0.058827 0 0 140
61.559 -60.3307 0.941946 0 0 140
64.5401 -45.2758 -12.2337 0 0 194
63.8697 -45.882 -11.2426 0 0 239
64.8249 -46.7429 -11.5535 0 0 194
64.2442 -43.7589 -12.9078 0 0 150
64.5401 -45.2758 -12.2337 0 0 150
59.8486 -39.4362 -7.5786 0 0 133
59.9237 -40.0357 -6.57723 0 0 133
59.9801 -38.856 -8.59222 0 0 161
59.8486 -39.4362 -7.5786 0 0 161
59.7628 -40.1767 -8.16053 0 0 190
60.009 -38.223 -9.59282 0 0 133
59.9801 -38.856 -8.59222 0 0 133
57.0683 -56.9469 7.39718 0 0 129
56.8967 -56.5567 8.2518 0 0 129
62.7596 -52.2883 16.5274 0 0 179
63.6233 -51.9622 17.2814 0 0 179
62.7573 -52.869 17.7518 0 0 142
61.8604 -52.5961 15.8045 0 0 179
62.7264 -51.6892 15.3341 0 0 216
62.7596 -52.2883 16.5274 0 0 179
61.0197 -52.9411 15.0641 0 0 140
61.8604 -52.5961 15.8045 0 0 140
60.1663 -53.2806 14.3529 0 0 176
60.9738 -52.3365 13.8999 0 0 211
61.0197 -52.9411 15.0641 0 0 176
57.2849 -55.2941 10.5924 0 0 131
57.6161 -54.8612 11.3884 0 0 131
57.0014 -55.7226 9.8431 0 0 155
57.3341 -54.6916 9.54193 0 0 180
57.2849 -55.2941 10.5924 0 0 155
56.925 -56.1522 9.01844 0 0 129
57.0014 -55.7226 9.8431 0 0 129
56.8967 -56.5567 8.2518 0 0 150
57.0224 -55.5247 8.02601 0 0 174
56.925 -56.1522 9.01844 0 0 150
63.7662 -60.1341 -2.06278 0 0 140
63.0489 -60.2375 -1.05488 0 0 140
64.0509 -58.8613 -2.97806 0 0 141
63.7662 -60.1341 -2.06278 0 0 141
64.1731 -57.6098 -3.86634 0 0 181
63.4498 -57.8227 -2.86155 0 0 220
64.0509 -58.8613 -2.97806 0 0 181
64.8916 -57.2969 -4.87132 0 0 183
64.2906 -56.2583 -4.7548 0 0 223
64.1731 -57.6098 -3.86634 0 0 183
65.5577 -56.9814 -5.88283 0 0 142
64.8916 -57.2969 -4.87132 0 0 142
66.229 -56.5755 -6.89148 0 0 182
65.6804 -55.5395 -6.76843 0 0 222
65.5577 -56.9814 -5.88283 0 0 182
61.6164 -41.321 -11.7004 0 0 178
60.9631 -40.5175 -11.2396 0 0 178
61.1764 -41.9559 -10.6944 0 0 215
62.4151 -42.112 -12.1509 0 0 189
62.7073 -43.5871 -11.539 0 0 232
63.2927 -42.9398 -12.5348 0 0 189
61.6164 -41.321 -11.7004 0 0 144
62.4151 -42.112 -12.1509 0 0 144
70.0993 -42.3631 9.6378 0 0 128
70.0872 -43.0806 10.8767 0 0 128
69.6259 -42.4413 8.79882 0 0 178
70.0303 -41.6316 8.43654 0 0 153
70.0993 -42.3631 9.6378 0 0 153
60.1047 -41.6696 -3.51981 0 0 167
60.7442 -41.0325 -2.96913 0 0 167
60.3184 -42.2346 -2.49784 0 0 199
60.0509 -41.1538 -4.54905 0 0 163
60.1047 -41.6696 -3.51981 0 0 163
59.6251 -42.3559 -4.07776 0 0 193
59.8937 -40.5774 -5.55727 0 0 134
60.0509 -41.1538 -4.54905 0 0 134
59.6013 -41.2985 -6.12695 0 0 190
59.9237 -40.0357 -6.57723 0 0 161
59.8937 -40.5774 -5.55727 0 0 161
70.0328 -44.4314 13.3874 0 0 128
70.0934 -43.7716 12.1136 0 0 128
69.9855 -45.0721 14.6534 0 0 128
69.8869 -45.6653 15.9558 0 0 128
69.6601 -45.1956 13.74 0 0 174
70.0328 -44.4314 13.3874 0 0 151
69.9855 -45.0721 14.6534 0 0 151
60.1388 -38.9689 -10.1832 0 0 166
60.2087 -40.3745 -9.70388 0 0 198
60.4532 -39.7468 -10.7129 0 0 166
60.2535 -37.5954 -10.6019 0 0 134
60.009 -38.223 -9.59282 0 0 164
60.1388 -38.9689 -10.1832 0 0 164
57.2764 -57.2747 6.59969 0 0 150
57.2021 -56.2569 6.4619 0 0 173
57.0683 -56.9469 7.39718 0 0 150
57.6637 -57.5902 5.71029 0 0 130
57.2764 -57.2747 6.59969 0 0 130
58.07 -57.8035 4.85774 0 0 154
57.8164 -56.798 4.81187 0 0 180
57.6637 -57.5902 5.71029 0 0 154
58.4726 -58.8149 4.82917 0 0 162
58.6253 -58.0228 3.93075 0 0 190
58.07 -57.8035 4.85774 0 0 162
58.7817 -59.8654 4.84982 0 0 134
58.4726 -58.8149 4.82917 0 0 134
59.434 -60.0882 3.87438 0 0 136
58.7817 -59.8654 4.84982 0 0 136
68.3769 -48.0049 17.0759 0 0 132
68.9448 -47.2166 16.6926 0 0 132
67.7313 -48.2647 16.2261 0 0 203
68.3769 -48.0049 17.0759 0 0 170
67.6476 -48.8336 17.5068 0 0 170
66.1762 -49.9456 17.1136 0 0 140
66.9305 -49.6514 17.9265 0 0 140
66.1917 -49.3505 15.8795 0 0 211
66.1762 -49.9456 17.1136 0 0 175
65.3659 -50.2027 16.3361 0 0 175
59.4287 -53.6572 13.6055 0 0 138
60.1663 -53.2806 14.3529 0 0 138
58.7038 -54.0365 12.8888 0 0 134
58.1426 -54.447 12.1203 0 0 134
59.3955 -53.0553 12.4719 0 0 202
59.4287 -53.6572 13.6055 0 0 170
58.7038 -54.0365 12.8888 0 0 170
69.8428 -40.1027 6.0856 0 0 156
69.9827 -40.8653 7.24213 0 0 156
69.4171 -40.9472 6.44102 0 0 182
69.8428 -40.1027 6.0856 0 0 131
69.7256 -39.2967 4.94636 0 0 131
67.6333 -38.0218 1.33792 0 0 174
68.5554 -37.8143 2.03347 0 0 174
67.9242 -38.8218 2.38268 0 0 209
67.6333 -38.0218 1.33792 0 0 140
66.6469 -38.2804 0.662828 0 0 140
62.4521 -39.8977 -1.81345 0 0 142
63.46 -39.405 -1.21119 0 0 142
61.8661 -41.06 -1.37253 0 0 212
61.5439 -40.4353 -2.38808 0 0 176
62.4521 -39.8977 -1.81345 0 0 176
60.8268 -60.3231 1.9241 0 0 173
60.1038 -60.2033 2.91485 0 0 173
60.563 -61.2619 2.85582 0 0 139
61.0999 -59.2721 1.00098 0 0 210
60.8268 -60.3231 1.9241 0 0 175
61.559 -60.3307 0.941946 0 0 175
62.5798 -59.1769 -0.977225 0 0 215
62.3012 -60.3404 -0.058827 0 0 178
63.0489 -60.2375 -1.05488 0 0 178
66.8119 -56.174 -7.90958 0 0 141
66.229 -56.5755 -6.89148 0 0 141
66.9512 -54.654 -8.78868 0 0 142
66.8119 -56.174 -7.90958 0 0 142
66.9209 -53.1718 -9.63618 0 0 183
66.3214 -53.6514 -8.62458 0 0 223
66.9512 -54.654 -8.78868 0 0 183
66.9094 -51.6234 -10.4745 0 0 144
66.9209 -53.1718 -9.63618 0 0 144
66.755 -50.12 -11.2722 0 0 188
66.1367 -50.6658 -10.2698 0 0 230
66.9094 -51.6234 -10.4745 0 0 188
66.6199 -48.56 -12.0588 0 0 147
66.755 -50.12 -11.2722 0 0 147
3 0 36 34
3 1 128 130
3 130 129 37
3 128 129 130
3 1 131 132
3 2 41 39
3 2 43 41
3 3 46 44
3 5 49 47
3 5 51 49
3 4 53 52
3 7 58 56
3 7 60 58
3 7 62 60
3 6 65 63
3 6 67 65
3 133 70 134
3 135 134 68
3 133 134 135
3 8 75 73
3 10 76 35
3 10 77 76
3 11 80 78
3 137 136 38
3 12 138 140
3 138 81 139
3 138 139 140
3 14 82 40
3 14 83 82
3 14 85 83
3 16 86 42
3 16 87 86
3 17 141 142
3 18 88 45
3 18 89 88
3 9 90 74
3 19 91 48
3 19 92 91
3 19 93 92
3 20 94 50
3 20 95 94
3 143 96 144
3 143 144 145
3 146 97 147
3 148 147 96
3 146 147 148
3 150 149 79
3 21 100 98
3 151 101 152
3 23 153 154
3 23 155 157
3 155 102 156
3 155 156 157
3 23 103 102
3 24 104 54
3 24 105 104
3 25 158 160
3 158 106 159
3 158 159 160
3 25 107 106
3 25 108 107
3 21 109 55
3 21 98 109
3 13 161 162
3 27 163 165
3 165 164 57
3 163 164 165
3 27 166 167
3 27 168 169
3 28 170 172
3 172 171 59
3 170 171 172
3 28 173 174
3 28 175 177
3 175 111 176
3 175 176 177
3 29 112 61
3 29 113 112
3 15 114 84
3 30 115 64
3 30 116 115
3 30 117 116
3 26 118 66
3 26 110 118
3 22 119 99
3 31 120 69
3 31 121 120
3 178 122 179
3 32 123 71
3 32 124 123
3 32 125 124
3 33 126 72
3 33 127 126
3 34 35 8
3 36 35 34
3 36 10 35
3 37 38 11
3 180 38 181
3 182 181 37
3 180 181 182
3 184 183 38
3 39 40 12
3 41 40 39
3 41 14 40
3 41 42 14
3 43 42 41
3 43 16 42
3 44 45 17
3 46 45 44
3 46 18 45
3 47 48 9
3 49 48 47
3 49 19 48
3 49 50 19
3 51 50 49
3 51 20 50
3 52 185 186
3 53 187 189
3 189 188 52
3 187 188 189
3 53 190 191
3 193 192 21
3 194 23 195
3 194 195 196
3 197 54 198
3 199 198 23
3 197 198 199
3 200 54 201
3 202 24 203
3 204 203 54
3 202 203 204
3 205 25 206
3 207 55 208
3 209 208 25
3 207 208 209
3 210 55 211
3 212 21 213
3 214 213 55
3 212 213 214
3 56 57 13
3 58 57 56
3 58 27 57
3 58 59 27
3 60 59 58
3 60 28 59
3 60 61 28
3 62 61 60
3 62 29 61
3 63 64 15
3 65 64 63
3 65 30 64
3 65 66 30
3 67 66 65
3 67 26 66
3 68 69 22
3 70 69 68
3 70 31 69
3 215 71 216
3 217 71 218
3 219 32 220
3 221 220 71
3 219 220 221
3 222 72 223
3 224 223 32
3 222 223 224
3 225 72 226
3 227 33 228
3 229 228 72
3 227 228 229
3 73 74 3
3 75 74 73
3 75 9 74
3 35 75 8
3 76 75 35
3 76 9 75
3 76 47 9
3 77 47 76
3 77 5 47
3 78 79 4
3 80 79 78
3 80 230 232
3 232 231 79
3 230 231 232
3 38 80 11
3 233 80 234
3 235 234 38
3 233 234 235
3 237 236 80
3 81 238 239
3 81 240 242
3 240 13 241
3 240 241 242
3 40 81 12
3 82 81 40
3 82 13 81
3 82 56 13
3 83 56 82
3 83 7 56
3 83 84 7
3 85 84 83
3 85 15 84
3 42 85 14
3 86 85 42
3 86 15 85
3 86 63 15
3 87 63 86
3 87 6 63
3 45 243 245
3 245 244 17
3 243 244 245
3 88 246 248
3 248 247 45
3 246 247 248
3 88 249 250
3 88 251 253
3 251 52 252
3 251 252 253
3 89 52 88
3 89 4 52
3 74 46 3
3 90 46 74
3 90 18 46
3 48 90 9
3 91 90 48
3 91 18 90
3 91 89 18
3 92 89 91
3 92 4 89
3 92 78 4
3 93 78 92
3 93 11 78
3 50 93 19
3 94 93 50
3 94 11 93
3 94 37 11
3 95 37 94
3 95 1 37
3 254 12 255
3 96 256 257
3 96 258 260
3 258 12 259
3 258 259 260
3 96 39 12
3 97 39 96
3 97 2 39
3 79 53 4
3 261 53 262
3 263 262 79
3 261 262 263
3 266 265 53
3 264 265 266
3 98 99 0
3 100 99 98
3 100 22 99
3 267 100 268
3 269 268 21
3 267 268 269
3 270 100 271
3 272 22 273
3 274 273 100
3 272 273 274
3 275 68 276
3 277 276 22
3 275 276 277
3 278 68 279
3 281 280 68
3 282 97 283
3 101 284 286
3 284 97 285
3 284 285 286
3 101 2 97
3 287 101 288
3 102 289 291
3 289 101 290
3 289 290 291
3 102 2 101
3 102 43 2
3 103 43 102
3 103 16 43
3 54 103 23
3 104 103 54
3 104 16 103
3 104 87 16
3 105 87 104
3 105 6 87
3 292 24 293
3 106 294 295
3 106 296 298
3 296 24 297
3 296 297 298
3 106 105 24
3 107 105 106
3 107 6 105
3 107 67 6
3 108 67 107
3 108 26 67
3 55 108 25
3 109 108 55
3 109 26 108
3 109 110 26
3 98 110 109
3 98 0 110
3 57 299 301
3 301 300 13
3 299 300 301
3 303 302 57
3 59 304 306
3 306 305 27
3 304 305 306
3 308 307 59
3 111 309 310
3 111 311 313
3 311 17 312
3 311 312 313
3 61 111 28
3 112 111 61
3 112 17 111
3 112 44 17
3 113 44 112
3 113 3 44
3 84 62 7
3 114 62 84
3 114 29 62
3 64 114 15
3 115 114 64
3 115 29 114
3 115 113 29
3 116 113 115
3 116 3 113
3 116 73 3
3 117 73 116
3 117 8 73
3 66 117 30
3 118 117 66
3 118 8 117
3 118 34 8
3 110 34 118
3 110 0 34
3 99 36 0
3 119 36 99
3 119 10 36
3 69 119 22
3 120 119 69
3 120 10 119
3 120 77 10
3 121 77 120
3 121 5 77
3 314 70 315
3 314 315 316
3 122 317 319
3 317 70 318
3 317 318 319
3 122 31 70
3 71 320 322
3 320 122 321
3 320 321 322
3 123 122 71
3 123 31 122
3 123 121 31
3 124 121 123
3 124 5 121
3 124 51 5
3 125 51 124
3 125 20 51
3 72 125 32
3 126 125 72
3 126 20 125
3 126 95 20
3 127 95 126
3 127 1 95
3 323 33 324
3 325 33 326
3 327 127 328
3 329 328 33
3 327 328 329
3 330 127 331
3 332 1 333
3 334 333 127
3 332 333 334
3 336 335 1
