ply
format ascii 1.0
element vertex 164
property float x
property float y
property float z
property uchar red
property uchar green
property uchar blue
element face 154
property list uchar int vertex_index
end_header
-53.8761 21.5098 16.5862 34 255 221
-52.5516 14.5226 8.12785 0 193 255
-47.0534 19.3295 10.6841 255 48 0
-52.6704 18.125 20.2842 0 165 255
-53.7668 17.5981 15.3598 239 255 16
-49.3304 15.5911 10.1909 128 0 0
-52.6095 20.8682 12.4022 241 255 14
-53.2366 24.5313 10.5041 255 250 0
-50.7302 22.6698 7.37302 60 255 195
-45.0758 22.2647 7.95728 0 154 255
-53.3486 20.0985 18.6481 0 209 255
-54.2509 17.9707 17.9817 176 255 79
-54.3362 19.6883 16.5251 135 255 120
-53.1925 19.4842 14.2089 226 255 29
-54.2149 21.1296 14.2407 162 255 93
-50.4576 14.1336 4.60746 0 214 255
-47.9173 17.3432 11.3519 225 0 0
-47.1337 14.799 7.15067 211 255 44
-45.7202 16.0206 8.80919 138 255 117
-44.7394 17.9838 9.46921 59 255 196
-51.4906 28.0336 7.53244 0 99 255
-51.6615 26.2875 9.59877 39 255 216
-52.5348 25.4923 7.61868 27 255 228
-52.792 23.3891 8.30203 170 255 85
-51.7458 24.4828 6.39742 0 100 255
-53.4354 16.4242 18.7759 0 174 255
-54.1746 16.0047 15.5711 0 227 255
-53.1876 15.7055 12.1998 166 255 89
-51.0977 14.975 8.61135 253 0 0
-51.6853 16.8347 13.0902 255 35 0
-50.7291 18.7981 12.8628 255 105 0
-50.0121 20.4387 11.6513 255 69 0
-48.7681 14.3612 5.4646 181 255 74
-52.4216 23.634 15.5538 0 214 255
-52.1582 25.134 12.7367 61 255 194
-53.682 23.2444 13.6482 255 247 0
-53.5989 22.5307 11.2758 218 255 37
-51.8208 21.8713 9.71093 255 199 0
-49.0205 21.3854 8.8757 255 120 0
-47.8773 22.6112 7.45541 0 239 255
-46.2286 20.7101 8.62894 255 218 0
-43.7324 19.8949 8.51266 0 172 255
-52.6179 13.9364 8.17754 0 0 131
-53.1604 14.5665 10.0204 0 0 131
-52.0495 13.9917 6.27663 0 0 131
-52.6179 13.9364 8.17754 0 0 131
-51.5046 14.3281 6.36766 0 0 182
-51.0025 13.7973 4.51643 0 0 157
-52.0495 13.9917 6.27663 0 0 157
-51.7692 27.5485 6.82701 0 0 128
-51.5541 28.9362 6.91864 0 0 128
-52.2914 26.2779 6.87013 0 0 147
-52.0127 26.763 7.57556 0 0 165
-51.7692 27.5485 6.82701 0 0 147
-51.8968 25.7731 6.2595 0 0 146
-52.1403 24.9875 7.00805 0 0 164
-52.2914 26.2779 6.87013 0 0 146
-53.0529 17.2746 19.53 0 0 205
-52.354 16.2395 20.216 0 0 173
-51.9715 17.0899 20.9702 0 0 173
-46.4747 14.4113 5.59682 0 0 139
-45.815 14.7928 6.29922 0 0 139
-51.3274 24.373 15.0115 0 0 143
-51.2285 23.7184 16.3223 0 0 143
-46.4766 22.438 7.70635 0 0 183
-47.1378 23.3669 7.21997 0 0 158
-45.737 23.1937 7.47091 0 0 158
-49.7365 13.4334 3.32707 0 0 129
-51.0025 13.7973 4.51643 0 0 129
-49.0202 13.7782 3.76279 0 0 136
-49.7365 13.4334 3.32707 0 0 136
-45.1082 15.4036 7.12848 0 0 182
-45.815 14.7928 6.29922 0 0 182
-46.427 15.4098 7.97993 0 0 219
-44.5204 15.9003 8.03609 0 0 141
-45.1082 15.4036 7.12848 0 0 141
-44.03 16.8819 8.3661 0 0 170
-44.5204 15.9003 8.03609 0 0 170
-45.2298 17.0022 9.1392 0 0 201
-43.5948 17.6194 8.88715 0 0 134
-44.03 16.8819 8.3661 0 0 134
-50.5113 29.5322 7.88507 0 0 141
-51.5541 28.9362 6.91864 0 0 141
-50.37 28.2335 8.29602 0 0 144
-50.5113 29.5322 7.88507 0 0 144
-51.5761 27.1605 8.5656 0 0 210
-50.4555 27.3604 9.32919 0 0 176
-50.37 28.2335 8.29602 0 0 176
-44.3217 23.084 7.75207 0 0 135
-45.737 23.1937 7.47091 0 0 135
-43.7885 21.9845 8.35139 0 0 136
-44.3217 23.084 7.75207 0 0 136
-52.4817 15.7927 18.9303 0 0 139
-52.354 16.2395 20.216 0 0 139
-53.3294 15.6409 17.1304 0 0 148
-52.4817 15.7927 18.9303 0 0 148
-53.699 15.4312 15.528 0 0 156
-53.3294 15.6409 17.1304 0 0 156
-53.805 16.2144 17.1735 0 0 179
-53.9719 15.3076 13.742 0 0 134
-53.699 15.4312 15.528 0 0 134
-53.4784 15.1579 12.0564 0 0 151
-53.9719 15.3076 13.742 0 0 151
-53.6811 15.8551 13.8854 0 0 171
-52.8696 15.114 10.1638 0 0 180
-53.1604 14.5665 10.0204 0 0 156
-53.4784 15.1579 12.0564 0 0 156
-51.3545 17.8163 20.9125 0 0 134
-51.9715 17.0899 20.9702 0 0 134
-51.8342 18.9139 19.8536 0 0 142
-51.3545 17.8163 20.9125 0 0 142
-52.1733 19.9006 19.0355 0 0 161
-53.0095 19.1117 19.4661 0 0 187
-51.8342 18.9139 19.8536 0 0 161
-52.6441 20.8996 18.1689 0 0 135
-52.1733 19.9006 19.0355 0 0 135
-52.9079 21.6053 17.138 0 0 155
-53.6124 20.8041 17.6172 0 0 177
-52.6441 20.8996 18.1689 0 0 155
-48.1755 13.892 4.19136 0 0 162
-49.0202 13.7782 3.76279 0 0 162
-49.6129 14.2474 5.03603 0 0 189
-47.2919 14.1925 4.75379 0 0 180
-47.9509 14.5801 6.30764 0 0 215
-46.4747 14.4113 5.59682 0 0 180
-48.1755 13.892 4.19136 0 0 139
-47.2919 14.1925 4.75379 0 0 139
-52.1806 22.6674 16.6217 0 0 143
-51.2285 23.7184 16.3223 0 0 143
-53.1489 22.5719 16.07 0 0 191
-52.9079 21.6053 17.138 0 0 164
-52.1806 22.6674 16.6217 0 0 164
-50.6655 26.3266 10.4092 0 0 144
-50.4555 27.3604 9.32919 0 0 144
-50.9138 25.7499 11.9781 0 0 181
-50.6655 26.3266 10.4092 0 0 181
-51.9099 25.7107 11.1677 0 0 218
-51.1957 25.1231 13.603 0 0 146
-50.9138 25.7499 11.9781 0 0 146
-52.2899 24.384 14.1452 0 0 208
-51.3274 24.373 15.0115 0 0 175
-51.1957 25.1231 13.603 0 0 175
-51.1459 25.3489 5.9938 0 0 128
-51.8968 25.7731 6.2595 0 0 128
-50.5192 24.3253 6.37789 0 0 133
-51.1459 25.3489 5.9938 0 0 133
-50.0114 23.4188 6.86569 0 0 154
-51.238 23.5763 6.88522 0 0 177
-50.5192 24.3253 6.37789 0 0 154
-48.585 23.3896 6.90688 0 0 133
-47.1378 23.3669 7.21997 0 0 133
-49.3038 22.6405 7.41422 0 0 184
-50.0114 23.4188 6.86569 0 0 159
-48.585 23.3896 6.90688 0 0 159
-43.0913 18.575 8.40888 0 0 165
-43.5948 17.6194 8.88715 0 0 165
-44.2359 18.9393 8.99093 0 0 193
-43.1168 20.7996 8.62908 0 0 162
-44.4041 21.0798 8.23497 0 0 188
-43.7885 21.9845 8.35139 0 0 162
-42.5336 19.5098 8.78862 0 0 134
-43.1168 20.7996 8.62908 0 0 134
-43.0913 18.575 8.40888 0 0 136
-42.5336 19.5098 8.78862 0 0 136
3 0 12 10
3 0 14 12
3 1 42 43
3 1 44 45
3 1 46 48
3 46 15 47
3 46 47 48
3 2 18 16
3 2 19 18
3 49 20 50
3 51 22 52
3 53 52 20
3 51 52 53
3 54 24 55
3 56 55 22
3 54 55 56
3 3 57 59
3 57 25 58
3 57 58 59
3 4 26 11
3 4 27 26
3 4 29 27
3 6 30 13
3 6 31 30
3 5 32 28
3 61 60 17
3 62 33 63
3 7 34 21
3 7 35 34
3 7 36 35
3 8 37 23
3 8 38 37
3 9 64 66
3 64 39 65
3 64 65 66
3 9 40 39
3 9 41 40
3 10 11 3
3 12 11 10
3 12 4 11
3 12 13 4
3 14 13 12
3 14 6 13
3 15 67 68
3 15 69 70
3 16 17 5
3 18 17 16
3 18 71 73
3 73 72 17
3 71 72 73
3 18 74 75
3 19 76 78
3 78 77 18
3 76 77 78
3 19 79 80
3 20 81 82
3 20 83 84
3 20 85 87
3 85 21 86
3 85 86 87
3 22 21 20
3 22 7 21
3 22 23 7
3 24 23 22
3 24 8 23
3 88 9 89
3 91 90 9
3 25 92 93
3 25 94 95
3 11 25 3
3 26 25 11
3 26 96 98
3 98 97 25
3 96 97 98
3 26 99 100
3 27 101 103
3 103 102 26
3 101 102 103
3 27 104 106
3 104 1 105
3 104 105 106
3 27 28 1
3 29 28 27
3 29 5 28
3 13 29 4
3 30 29 13
3 30 5 29
3 30 16 5
3 31 16 30
3 31 2 16
3 107 3 108
3 109 3 110
3 111 10 112
3 113 112 3
3 111 112 113
3 114 10 115
3 116 0 117
3 118 117 10
3 116 117 118
3 28 15 1
3 32 15 28
3 32 119 121
3 121 120 15
3 119 120 121
3 17 32 5
3 122 32 123
3 124 123 17
3 122 123 124
3 126 125 32
3 33 127 128
3 33 129 131
3 129 0 130
3 129 130 131
3 21 132 133
3 34 134 136
3 136 135 21
3 134 135 136
3 34 137 138
3 34 139 141
3 139 33 140
3 139 140 141
3 35 33 34
3 35 0 33
3 35 14 0
3 36 14 35
3 36 6 14
3 23 36 7
3 37 36 23
3 37 6 36
3 37 31 6
3 38 31 37
3 38 2 31
3 142 24 143
3 144 24 145
3 146 8 147
3 148 147 24
3 146 147 148
3 39 149 150
3 39 151 153
3 151 8 152
3 151 152 153
3 39 38 8
3 40 38 39
3 40 2 38
3 40 19 2
3 41 19 40
3 41 154 156
3 156 155 19
3 154 155 156
3 157 41 158
3 159 158 9
3 157 158 159
3 160 41 161
3 163 162 41
