ply
format ascii 1.0
element vertex 234
property float x
property float y
property float z
property uchar red
property uchar green
property uchar blue
element face 241
property list uchar int vertex_index
end_header
-35.2777 -41.3659 -10.7258 255 180 0
-24.076 -37.1753 -14.7995 141 255 114
-36.8452 -31.8971 -18.2238 255 173 0
-26.26 -30.5801 -20.5377 99 255 156
-30.5738 -39.3142 -11.583 255 87 0
-25.2532 -34.0803 -17.4885 241 255 14
-31.8397 -35.0128 -15.0299 255 59 0
-31.9912 -30.4449 -18.0326 255 119 0
-36.6833 -36.7832 -14.8867 255 189 0
-27.8787 -42.4229 -8.59156 0 251 255
-32.3962 -45.1749 -6.92715 67 255 188
-32.7922 -22.5103 -25.6148 0 218 255
-34.5953 -47.6854 -10.0495 77 255 178
-35.2549 -43.1555 -15.0758 196 0 0
-34.733 -38.0363 -19.7513 128 0 0
-34.9608 -32.0138 -23.4818 129 255 126
-36.9311 -26.9964 -21.2457 237 255 18
-27.2452 -27.2959 -23.9921 0 205 255
-32.2169 -25.9651 -21.4847 255 176 0
-33.1565 -40.0571 -10.6048 255 126 0
-31.4058 -37.2834 -13.3647 255 39 0
-34.1772 -37.8163 -12.5025 255 110 0
-34.6513 -35.5717 -14.2929 255 145 0
-36.2054 -39.2176 -12.813 255 194 0
-30.2729 -43.6076 -7.42523 78 255 177
-30.6844 -23.0456 -26.402 0 169 255
-33.0017 -46.1807 -14.7086 248 255 7
-32.4323 -43.3208 -16.9746 255 197 0
-35.0381 -40.5926 -17.4261 139 0 0
-31.9631 -40.4942 -19.2931 255 216 0
-35.6385 -29.6032 -25.2126 0 163 255
-21.0692 -34.1181 -17.2576 0 247 255
-25.6965 -32.3223 -18.9515 129 255 126
-26.8337 -28.9564 -22.271 67 255 188
-34.7683 -30.7555 -17.3262 255 177 0
-32.1224 -28.1119 -19.6709 255 134 0
-34.7139 -28.4674 -18.82 255 187 0
-34.6124 -25.9574 -20.4537 255 193 0
-36.8529 -29.428 -19.7669 255 181 0
-27.6069 -38.4288 -13.0427 255 38 0
-24.8189 -35.8398 -16.153 255 50 0
-28.3754 -36.6694 -14.7029 255 15 0
-28.6889 -34.5693 -16.1753 255 23 0
-28.9553 -32.3675 -17.5943 255 63 0
-29.2093 -30.3685 -19.1442 255 117 0
-31.9593 -32.6784 -16.5019 255 111 0
-34.7968 -33.1925 -15.879 255 164 0
-36.8935 -34.4484 -16.6694 255 187 0
-26.5871 -39.8459 -11.5298 132 255 123
-29.4276 -40.9393 -9.95 255 119 0
-31.904 -41.8137 -8.89 255 153 0
-34.0677 -43.2172 -8.63851 255 185 0
-34.2762 -22.2907 -24.9487 0 140 255
-34.2674 -46.3633 -8.11223 39 255 216
-35.4655 -44.4406 -10.2339 255 169 0
-33.4524 -48.5384 -12.2576 47 255 208
-35.122 -45.5212 -12.5425 255 34 0
-36.3353 -42.1874 -12.7614 255 144 0
-36.704 -40.0026 -15.0231 255 121 0
-36.8089 -37.6261 -17.217 255 77 0
-36.6535 -35.1123 -19.1553 255 40 0
-31.7469 -37.6448 -21.5097 103 255 152
-34.5615 -35.1795 -21.6257 255 159 0
-36.5805 -32.3154 -20.9401 255 59 0
-36.8006 -29.6141 -22.4807 255 189 0
-37.0035 -27.6846 -24.0482 0 225 255
-36.806 -25.1962 -22.2945 0 221 255
-21.7607 -32.8547 -18.554 0 243 255
-29.4306 -28.358 -20.9047 255 143 0
-29.6549 -26.5873 -22.8197 162 255 93
-30.0887 -24.8631 -24.6512 26 255 229
-32.2387 -24.1436 -23.5007 255 243 0
-34.5694 -23.9861 -22.3611 227 255 28
-29.4826 -23.2604 -26.6809 0 0 164
-30.2579 -22.136 -27.2086 0 0 164
-29.0561 -22.3509 -27.4875 0 0 139
-30.8137 -43.0505 -17.6216 0 0 168
-31.1208 -44.8018 -16.4612 0 0 168
-30.5791 -41.6372 -18.7809 0 0 208
-32.1977 -41.9075 -18.1339 0 0 255
-30.8137 -43.0505 -17.6216 0 0 208
-22.5726 -35.6467 -16.0285 0 0 209
-20.6902 -34.5891 -16.6351 0 0 177
-22.1937 -36.1177 -15.406 0 0 177
-24.7363 -30.4112 -20.8902 0 0 176
-24.4546 -31.2822 -20.0971 0 0 176
-25.9782 -31.4512 -19.7446 0 0 207
-25.1291 -29.6995 -21.6606 0 0 142
-24.7363 -30.4112 -20.8902 0 0 142
-26.5468 -29.7683 -21.4044 0 0 200
-25.416 -28.8876 -22.5272 0 0 171
-25.1291 -29.6995 -21.6606 0 0 171
-26.6006 -41.7405 -9.40888 0 0 148
-27.0506 -43.195 -8.01277 0 0 148
-27.2329 -41.1344 -10.0607 0 0 203
-25.9548 -40.452 -10.878 0 0 173
-26.6006 -41.7405 -9.40888 0 0 173
-33.3973 -21.4961 -26.4558 0 0 153
-33.1088 -20.7012 -27.4467 0 0 133
-32.5037 -21.7155 -26.6056 0 0 153
-33.5342 -22.4005 -25.2817 0 0 171
-34.1393 -21.3862 -26.1228 0 0 152
-33.3973 -21.4961 -26.4558 0 0 152
-34.4314 -47.0244 -9.08088 0 0 198
-33.9533 -47.9764 -8.0321 0 0 170
-34.1173 -48.6374 -9.00075 0 0 170
-32.186 -48.83 -13.062 0 0 154
-32.67 -50.1856 -12.0864 0 0 154
-31.1294 -37.3948 -22.2351 0 0 141
-30.5587 -38.8056 -21.0836 0 0 141
-34.7612 -33.5967 -22.5537 0 0 228
-33.5589 -34.812 -22.5875 0 0 190
-33.7585 -33.2292 -23.5156 0 0 190
-37.3471 -27.7352 -24.8887 0 0 152
-36.321 -28.6439 -24.6304 0 0 171
-36.6646 -28.6946 -25.4708 0 0 152
-37.5911 -26.7629 -24.6129 0 0 129
-37.3471 -27.7352 -24.8887 0 0 129
-26.1864 -26.3477 -24.8647 0 0 140
-25.901 -27.2712 -24.1198 0 0 140
-27.512 -26.3669 -24.7614 0 0 140
-26.1864 -26.3477 -24.8647 0 0 140
-28.1084 -43.9586 -7.44501 0 0 173
-27.0506 -43.195 -8.01277 0 0 173
-27.2804 -44.7307 -6.86622 0 0 143
-29.3056 -44.5509 -6.86184 0 0 183
-29.0758 -43.0152 -8.0084 0 0 218
-28.1084 -43.9586 -7.44501 0 0 183
-30.3316 -45.2906 -6.63274 0 0 144
-29.3056 -44.5509 -6.86184 0 0 144
-31.3932 -46.0743 -6.3837 0 0 177
-31.3345 -44.3912 -7.17619 0 0 209
-30.3316 -45.2906 -6.63274 0 0 177
-31.4498 -21.9831 -26.9992 0 0 138
-30.2579 -22.136 -27.2086 0 0 138
-31.7383 -22.778 -26.0084 0 0 184
-32.5037 -21.7155 -26.6056 0 0 161
-31.4498 -21.9831 -26.9992 0 0 161
-34.0144 -49.3222 -9.94491 0 0 142
-34.1173 -48.6374 -9.00075 0 0 142
-31.4055 -46.2318 -15.3282 0 0 160
-31.9607 -47.6511 -14.2875 0 0 160
-32.717 -44.7507 -15.8416 0 5 255
-31.4055 -46.2318 -15.3282 0 0 211
-31.1208 -44.8018 -16.4612 0 0 211
-34.5049 -31.806 -24.4447 0 0 144
-33.7585 -33.2292 -23.5156 0 0 144
-34.8437 -30.6007 -25.3101 0 0 158
-35.2996 -30.8085 -24.3472 0 0 181
-34.5049 -31.806 -24.4447 0 0 158
-36.1539 -29.8271 -25.5917 0 0 128
-34.8437 -30.6007 -25.3101 0 0 128
-36.6646 -28.6946 -25.4708 0 0 128
-36.1539 -29.8271 -25.5917 0 0 128
-20.1487 -32.6355 -16.5911 0 0 140
-20.6902 -34.5891 -16.6351 0 0 140
-20.375 -32.1958 -17.2339 0 0 163
-19.4545 -30.7131 -16.5674 0 0 139
-20.1487 -32.6355 -16.5911 0 0 163
-24.0861 -31.9659 -19.4032 0 0 178
-23.8645 -32.8449 -18.6717 0 0 178
-25.4748 -33.2013 -18.22 0 0 211
-24.0861 -31.9659 -19.4032 0 0 143
-24.4546 -31.2822 -20.0971 0 0 143
-25.6952 -28.1015 -23.2593 0 0 140
-25.416 -28.8876 -22.5272 0 0 140
-27.0394 -28.1262 -23.1315 0 0 194
-25.901 -27.2712 -24.1198 0 0 167
-25.6952 -28.1015 -23.2593 0 0 167
-23.6294 -37.7121 -14.1 0 0 150
-22.1937 -36.1177 -15.406 0 0 150
-24.8849 -39.0474 -12.4651 0 0 151
-25.9548 -40.452 -10.878 0 0 151
-25.3316 -38.5106 -13.1646 0 0 215
-23.6294 -37.7121 -14.1 0 0 181
-24.8849 -39.0474 -12.4651 0 0 181
-35.0465 -21.3692 -26.2291 0 0 136
-34.1393 -21.3862 -26.1228 0 0 136
-34.9115 -22.8929 -24.0341 0 0 144
-35.0465 -21.3692 -26.2291 0 0 144
-32.4472 -46.6892 -6.73826 0 0 142
-31.3932 -46.0743 -6.3837 0 0 142
-33.3828 -47.2834 -7.3308 0 0 141
-33.9533 -47.9764 -8.0321 0 0 141
-33.3318 -45.7691 -7.51969 0 0 199
-32.4472 -46.6892 -6.73826 0 0 170
-33.3828 -47.2834 -7.3308 0 0 170
-33.4429 -49.7487 -11.0489 0 0 150
-32.67 -50.1856 -12.0864 0 0 150
-34.0239 -48.1119 -11.1536 0 0 217
-34.0144 -49.3222 -9.94491 0 0 182
-33.4429 -49.7487 -11.0489 0 0 182
-33.227 -47.3595 -13.4831 0 0 234
-32.186 -48.83 -13.062 0 0 194
-31.9607 -47.6511 -14.2875 0 0 194
-30.6668 -40.2303 -19.9753 0 0 155
-30.5791 -41.6372 -18.7809 0 0 155
-31.855 -39.0695 -20.4014 0 0 230
-30.6668 -40.2303 -19.9753 0 0 192
-30.5587 -38.8056 -21.0836 0 0 192
-32.1515 -36.0446 -22.5295 0 0 141
-31.1294 -37.3948 -22.2351 0 0 141
-33.1542 -36.4121 -21.5677 0 0 238
-32.1515 -36.0446 -22.5295 0 0 197
-33.5589 -34.812 -22.5875 0 0 197
-37.4923 -25.5187 -23.7361 0 0 172
-36.9048 -26.4404 -23.1714 0 0 201
-37.5911 -26.7629 -24.6129 0 0 172
-36.1763 -24.3456 -22.7071 0 0 144
-37.4923 -25.5187 -23.7361 0 0 144
-20.7208 -31.564 -17.8821 0 0 171
-20.375 -32.1958 -17.2339 0 0 171
-21.4149 -33.4864 -17.9058 0 0 199
-22.1182 -32.2321 -19.2044 0 0 175
-23.5069 -33.4675 -18.0213 0 0 205
-23.8645 -32.8449 -18.6717 0 0 175
-20.997 -31.1298 -18.5751 0 0 140
-22.1182 -32.2321 -19.2044 0 0 140
-20.7208 -31.564 -17.8821 0 0 139
-20.997 -31.1298 -18.5751 0 0 139
-28.7168 -26.0126 -24.1752 0 0 169
-27.512 -26.3669 -24.7614 0 0 169
-28.45 -26.9416 -23.4059 0 0 197
-28.9337 -25.1505 -25.091 0 0 167
-28.7168 -26.0126 -24.1752 0 0 167
-29.8718 -25.7252 -23.7354 0 0 193
-29.1848 -24.1692 -25.8055 0 0 139
-28.9337 -25.1505 -25.091 0 0 139
-30.3866 -23.9543 -25.5266 0 0 192
-29.4826 -23.2604 -26.6809 0 0 166
-29.1848 -24.1692 -25.8055 0 0 166
-36.1763 -24.3456 -22.7071 0 0 135
-34.9115 -22.8929 -24.0341 0 0 135
-35.5411 -23.7434 -23.6216 0 0 145
3 0 21 19
3 0 23 21
3 73 25 74
3 73 74 75
3 76 27 77
3 78 29 79
3 80 79 27
3 78 79 80
3 1 81 83
3 81 31 82
3 81 82 83
3 3 84 86
3 86 85 32
3 84 85 86
3 3 87 88
3 3 89 91
3 89 33 90
3 89 90 91
3 2 36 34
3 2 38 36
3 4 41 39
3 6 42 20
3 6 43 42
3 6 45 43
3 8 46 22
3 8 47 46
3 9 92 93
3 9 94 96
3 94 48 95
3 94 95 96
3 9 49 48
3 10 50 24
3 10 51 50
3 11 97 99
3 97 98 99
3 11 100 102
3 100 52 101
3 100 101 102
3 12 103 105
3 103 53 104
3 103 104 105
3 12 54 53
3 106 55 107
3 13 56 26
3 13 57 56
3 13 58 57
3 14 59 28
3 14 60 59
3 108 61 109
3 15 110 112
3 110 62 111
3 110 111 112
3 15 63 62
3 15 64 63
3 113 65 114
3 115 114 30
3 113 114 115
3 117 116 65
3 5 67 40
3 17 118 119
3 17 120 121
3 7 68 44
3 18 69 35
3 18 70 69
3 18 71 70
3 16 72 37
3 16 66 72
3 19 20 4
3 21 20 19
3 21 6 20
3 21 22 6
3 23 22 21
3 23 8 22
3 122 9 123
3 122 123 124
3 125 24 126
3 127 126 9
3 125 126 127
3 128 24 129
3 130 10 131
3 132 131 24
3 130 131 132
3 25 133 134
3 25 135 137
3 135 11 136
3 135 136 137
3 138 12 139
3 140 26 141
3 27 142 144
3 142 26 143
3 142 143 144
3 27 13 26
3 27 28 13
3 29 28 27
3 29 14 28
3 145 15 146
3 147 30 148
3 149 148 15
3 147 148 149
3 150 30 151
3 153 152 30
3 31 154 155
3 31 156 158
3 156 157 158
3 32 159 161
3 161 160 5
3 159 160 161
3 163 162 32
3 33 164 165
3 33 166 168
3 166 17 167
3 166 167 168
3 34 35 7
3 36 35 34
3 36 18 35
3 36 37 18
3 38 37 36
3 38 16 37
3 39 40 1
3 41 40 39
3 41 5 40
3 20 41 4
3 42 41 20
3 42 5 41
3 42 32 5
3 43 32 42
3 43 3 32
3 43 44 3
3 45 44 43
3 45 7 44
3 22 45 6
3 46 45 22
3 46 7 45
3 46 34 7
3 47 34 46
3 47 2 34
3 169 1 170
3 48 171 172
3 48 173 175
3 173 1 174
3 173 174 175
3 48 39 1
3 49 39 48
3 49 4 39
3 24 49 9
3 50 49 24
3 50 4 49
3 50 19 4
3 51 19 50
3 51 0 19
3 52 176 177
3 52 178 179
3 180 10 181
3 53 182 183
3 53 184 186
3 184 10 185
3 184 185 186
3 53 51 10
3 54 51 53
3 54 0 51
3 55 187 188
3 55 189 191
3 189 12 190
3 189 190 191
3 26 192 194
3 192 55 193
3 192 193 194
3 56 55 26
3 56 12 55
3 56 54 12
3 57 54 56
3 57 0 54
3 57 23 0
3 58 23 57
3 58 8 23
3 28 58 13
3 59 58 28
3 59 8 58
3 59 47 8
3 60 47 59
3 60 2 47
3 195 29 196
3 61 197 199
3 197 29 198
3 197 198 199
3 61 14 29
3 200 61 201
3 62 202 204
3 202 61 203
3 202 203 204
3 62 14 61
3 62 60 14
3 63 60 62
3 63 2 60
3 63 38 2
3 64 38 63
3 64 16 38
3 30 64 15
3 65 64 30
3 65 16 64
3 65 66 16
3 205 66 206
3 207 206 65
3 205 206 207
3 209 208 66
3 40 31 1
3 67 31 40
3 67 210 212
3 212 211 31
3 210 211 212
3 213 67 214
3 215 214 5
3 213 214 215
3 216 67 217
3 219 218 67
3 44 33 3
3 68 33 44
3 68 17 33
3 35 68 7
3 69 68 35
3 69 17 68
3 69 220 222
3 222 221 17
3 220 221 222
3 70 223 225
3 225 224 69
3 223 224 225
3 70 226 227
3 70 228 230
3 228 25 229
3 228 229 230
3 71 25 70
3 71 11 25
3 37 71 18
3 72 71 37
3 72 11 71
3 72 52 11
3 66 52 72
3 66 231 233
3 233 232 52
3 231 232 233
