ply
format ascii 1.0
element vertex 147
property float x
property float y
property float z
property uchar red
property uchar green
property uchar blue
element face 134
property list uchar int vertex_index
end_header
-34.6713 51.8135 2.87787 68 255 187
-28.5545 52.1766 -5.29976 139 0 0
-22.7639 51.1072 0.819735 163 0 0
-29.276 48.8808 0.763165 221 0 0
-35.4867 55.015 -3.86314 59 255 196
-32.4267 52.0319 -1.50556 255 70 0
-25.0977 51.2491 -2.63873 196 0 0
-32.0684 54.7738 -8.64893 60 255 195
-36.1591 52.9687 1.82053 0 190 255
-35.244 53.2357 -0.3593 67 255 188
-33.658 51.9485 0.626584 255 126 0
-25.59 48.6021 0.349792 231 0 0
-27.0982 49.2306 -1.38731 128 0 0
-23.3454 50.4475 -1.0643 192 0 0
-21.743 52.8211 -2.08488 194 255 61
-21.1177 53.7307 -0.139241 185 255 70
-32.1576 53.4835 -4.40223 238 0 0
-33.9531 53.6558 -6.10626 255 212 0
-30.2845 53.1713 -6.86189 253 0 0
-33.1861 50.2807 3.97998 0 244 255
-32.0604 50.7156 1.87498 255 56 0
-30.6253 49.6136 3.31195 108 255 147
-27.9327 48.5582 2.29929 124 255 131
-25.0066 49.679 2.25055 199 255 56
-25.0746 53.011 -5.90436 255 176 0
-26.816 54.9348 -7.20607 255 228 0
-33.8278 53.659 -2.53219 222 255 33
-30.3958 52.6078 -3.28975 255 59 0
-30.781 50.4114 -0.725302 231 0 0
-28.9616 50.8414 -2.46877 239 0 0
-26.8893 52.0225 -3.88048 255 9 0
-22.9932 52.1371 -4.13346 215 255 40
-23.2544 52.8167 2.99053 255 226 0
-22.1228 56.2822 3.52686 9 255 246
-21.8158 55.099 1.44388 255 245 0
-36.0958 51.6669 3.07051 0 0 141
-35.2863 51.1277 3.72682 0 0 141
-35.4152 52.3911 2.3492 0 0 197
-36.8397 52.2445 2.54184 0 0 167
-36.0958 51.6669 3.07051 0 0 167
-31.4511 49.5639 4.56093 0 0 174
-31.9057 49.9471 3.64597 0 0 206
-32.7315 49.8975 4.89494 0 0 174
-27.1899 48.2238 3.03346 0 0 144
-28.7743 48.3542 3.46674 0 0 144
-25.7269 48.7843 3.00908 0 0 176
-26.4697 49.1186 2.27492 0 0 209
-27.1899 48.2238 3.03346 0 0 176
-32.7315 49.8975 4.89494 0 0 144
-33.9397 50.3915 5.51845 0 0 144
-24.2189 54.4768 -6.8495 0 0 183
-23.0643 53.2962 -5.96332 0 0 183
-20.869 53.5661 -2.84449 0 0 149
-20.7716 54.4693 -1.92875 0 0 149
-22.4363 53.0185 3.89923 0 0 153
-23.4229 51.3439 3.54509 0 0 153
-21.6797 57.6039 2.52206 0 0 160
-21.7811 58.0884 3.79445 0 0 160
-21.5262 57.0123 1.48057 0 0 202
-21.9693 55.6906 2.48537 0 0 248
-21.6797 57.6039 2.52206 0 0 202
-20.8432 56.3299 0.632717 0 0 159
-21.5262 57.0123 1.48057 0 0 159
-36.381 54.6533 -5.00395 0 0 143
-36.6962 54.3552 -3.91698 0 0 143
-33.5864 54.2432 -8.58903 0 0 200
-34.5287 53.6842 -7.3177 0 0 200
-33.0108 54.2148 -7.37759 0 0 245
-32.6199 54.565 -9.59327 0 0 144
-33.5864 54.2432 -8.58903 0 0 144
-27.7631 56.0191 -7.90434 0 0 171
-26.0777 56.6343 -8.00117 0 0 171
-35.7016 53.1022 0.730614 0 0 183
-36.3429 53.1875 -0.103086 0 0 158
-36.8005 53.054 0.986828 0 0 158
-20.4589 54.9241 -0.955937 0 0 189
-20.7716 54.4693 -1.92875 0 0 189
-21.4303 53.2759 -1.11206 0 0 229
-37.1808 52.4434 1.92707 0 0 128
-36.8397 52.2445 2.54184 0 0 128
-36.8005 53.054 0.986828 0 0 134
-37.1808 52.4434 1.92707 0 0 134
-30.1206 48.8819 3.97308 0 0 145
-31.4511 49.5639 4.56093 0 0 145
-29.279 49.0859 2.80562 0 0 213
-30.1206 48.8819 3.97308 0 0 178
-28.7743 48.3542 3.46674 0 0 178
-34.5437 50.3613 4.27788 0 0 151
-33.9397 50.3915 5.51845 0 0 151
-33.9287 51.0471 3.42892 0 0 204
-35.2863 51.1277 3.72682 0 0 172
-34.5437 50.3613 4.27788 0 0 172
-25.0896 55.4387 -7.50036 0 0 223
-25.9453 53.9729 -6.55522 0 24 255
-24.2189 54.4768 -6.8495 0 0 223
-26.0777 56.6343 -8.00117 0 0 172
-25.0896 55.4387 -7.50036 0 0 172
-36.0694 54.4955 -2.89409 0 0 140
-36.6962 54.3552 -3.91698 0 0 140
-35.948 53.6059 -1.14217 0 0 134
-36.3429 53.1875 -0.103086 0 0 134
-35.2399 53.8176 -2.22861 0 0 172
-35.948 53.6059 -1.14217 0 0 172
-34.5359 53.4474 -1.44574 0 0 204
-34.6573 54.337 -3.19767 0 0 210
-36.0694 54.4955 -2.89409 0 0 176
-35.2399 53.8176 -2.22861 0 0 176
-22.0236 52.8593 -5.07787 0 0 208
-23.0643 53.2962 -5.96332 0 0 208
-24.0339 52.574 -5.01891 0 3 255
-21.4941 53.2241 -3.86878 0 0 187
-22.3681 52.4791 -3.10917 0 0 225
-20.869 53.5661 -2.84449 0 0 187
-22.0236 52.8593 -5.07787 0 0 156
-21.4941 53.2241 -3.86878 0 0 156
-24.299 49.7751 3.1751 0 0 145
-25.7269 48.7843 3.00908 0 0 145
-24.1305 51.2479 2.62054 0 0 233
-24.299 49.7751 3.1751 0 0 192
-23.4229 51.3439 3.54509 0 0 192
-21.558 56.6552 4.66811 0 0 158
-21.7811 58.0884 3.79445 0 0 158
-21.8704 54.7512 4.1674 0 0 159
-21.558 56.6552 4.66811 0 0 159
-22.6886 54.5495 3.2587 0 0 246
-22.4363 53.0185 3.89923 0 0 200
-21.8704 54.7512 4.1674 0 0 200
-20.4942 55.6457 -0.158846 0 0 197
-21.4667 54.4148 0.652321 0 0 241
-20.8432 56.3299 0.632717 0 0 197
-20.4589 54.9241 -0.955937 0 0 147
-20.4942 55.6457 -0.158846 0 0 147
-35.6142 53.9737 -6.12551 0 0 204
-36.381 54.6533 -5.00395 0 0 204
-34.7199 54.3354 -4.9847 0 0 252
-35.6142 53.9737 -6.12551 0 0 155
-34.5287 53.6842 -7.3177 0 0 155
-29.4974 55.1373 -7.73224 0 0 248
-28.5503 54.0531 -7.03398 0 62 255
-27.7631 56.0191 -7.90434 0 0 248
-30.3893 55.9386 -8.62576 0 0 245
-31.1764 53.9725 -7.75541 0 57 255
-29.4974 55.1373 -7.73224 0 0 245
-31.262 55.8043 -9.73914 0 0 163
-30.3893 55.9386 -8.62576 0 0 163
-32.6199 54.565 -9.59327 0 0 151
-31.262 55.8043 -9.73914 0 0 151
3 0 10 8
3 2 13 11
3 2 15 13
3 0 35 36
3 0 37 39
3 37 8 38
3 37 38 39
3 1 18 16
3 40 21 41
3 42 41 19
3 40 41 42
3 43 22 44
3 45 23 46
3 47 46 22
3 45 46 47
3 48 19 49
3 51 50 24
3 5 26 9
3 5 27 26
3 3 28 20
3 6 29 12
3 6 30 29
3 6 31 30
3 53 52 14
3 54 32 55
3 56 33 57
3 58 34 59
3 60 59 33
3 58 59 60
3 62 61 34
3 4 63 64
3 7 65 67
3 67 66 17
3 65 66 67
3 7 68 69
3 71 70 25
3 8 72 74
3 72 9 73
3 72 73 74
3 10 9 8
3 10 5 9
3 11 12 3
3 13 12 11
3 13 6 12
3 13 14 6
3 15 14 13
3 15 75 77
3 77 76 14
3 75 76 77
3 8 78 79
3 8 80 81
3 16 17 4
3 18 17 16
3 18 7 17
3 19 20 0
3 21 20 19
3 21 3 20
3 82 21 83
3 22 84 86
3 84 21 85
3 84 85 86
3 22 3 21
3 22 11 3
3 23 11 22
3 23 2 11
3 19 87 88
3 19 89 91
3 89 0 90
3 89 90 91
3 24 25 1
3 92 25 93
3 94 93 24
3 92 93 94
3 96 95 25
3 97 4 98
3 9 99 100
3 26 101 103
3 103 102 9
3 101 102 103
3 26 104 106
3 104 4 105
3 104 105 106
3 26 16 4
3 27 16 26
3 27 1 16
3 20 10 0
3 28 10 20
3 28 5 10
3 12 28 3
3 29 28 12
3 29 5 28
3 29 27 5
3 30 27 29
3 30 1 27
3 30 24 1
3 31 24 30
3 31 107 109
3 109 108 24
3 107 108 109
3 14 31 6
3 110 31 111
3 112 111 14
3 110 111 112
3 114 113 31
3 115 23 116
3 32 117 119
3 117 23 118
3 117 118 119
3 32 2 23
3 33 120 121
3 33 122 123
3 33 124 126
3 124 32 125
3 124 125 126
3 34 32 33
3 34 2 32
3 34 15 2
3 127 15 128
3 129 128 34
3 127 128 129
3 131 130 15
3 17 132 134
3 134 133 4
3 132 133 134
3 136 135 17
3 25 18 1
3 137 18 138
3 139 138 25
3 137 138 139
3 140 7 141
3 142 141 18
3 140 141 142
3 143 7 144
3 146 145 7
