ply
format ascii 1.0
element vertex 165
property float x
property float y
property float z
property uchar red
property uchar green
property uchar blue
element face 160
property list uchar int vertex_index
end_header
-50.0413 -54.4436 40.7197 203 255 52
-48.1058 -54.1086 31.5326 254 255 1
-52.0782 -48.3602 38.2357 238 255 17
-50.6665 -52.1411 43.6729 25 255 230
-49.9712 -51.4496 39.2415 255 146 0
-51.7744 -49.297 43.2185 76 255 179
-49.0135 -53.182 43.6469 0 85 255
-49.3874 -57.819 38.3653 151 255 104
-49.8954 -58.29 33.9721 97 255 158
-48.6803 -54.1525 36.0286 202 0 0
-49.6841 -50.3569 34.7055 255 18 0
-53.7819 -49.1579 34.1278 59 255 196
-49.6921 -56.3035 42.5802 0 75 255
-50.5272 -50.8696 44.9015 0 146 255
-51.0705 -50.9136 43.4096 214 255 41
-51.4622 -49.4696 44.9926 0 141 255
-49.501 -51.3073 44.5415 0 65 255
-49.4749 -55.7418 39.5759 255 148 0
-48.816 -56.0022 37.2164 204 0 0
-49.3424 -54.2183 38.4245 255 114 0
-50.4711 -49.7504 38.7878 231 0 0
-49.6815 -50.8622 36.9254 255 79 0
-50.7659 -49.2766 36.2545 234 0 0
-51.4902 -49.3933 34.1215 255 12 0
-52.8685 -48.5592 36.0533 201 255 54
-50.4103 -54.0815 42.9412 29 255 226
-49.5933 -54.7626 43.1401 0 106 255
-50.2563 -55.5122 41.8967 99 255 156
-49.8188 -56.9418 40.6949 0 247 255
-48.9233 -56.423 32.6423 255 253 0
-50.4084 -53.3218 42.063 85 255 170
-49.8641 -52.9326 39.9536 255 251 0
-50.4627 -52.0164 41.5756 246 255 9
-50.6707 -50.304 41.2497 255 72 0
-51.5913 -48.7016 40.7958 197 255 58
-50.1535 -52.7406 44.0657 0 143 255
-48.8619 -52.0799 30.6848 112 255 143
-49.4446 -58.1412 36.1892 214 255 41
-48.6292 -56.3588 34.7679 141 0 0
-48.0989 -54.186 33.7393 128 0 0
-49.2949 -52.5418 37.6615 255 113 0
-48.8267 -52.1654 35.3194 224 0 0
-48.5295 -52.0072 32.9442 148 0 0
-50.2303 -50.4882 32.5944 255 203 0
-52.4023 -50.0545 32.3478 48 255 207
-50.7698 -49.1912 44.9456 0 0 148
-50.9947 -50.1696 44.947 0 0 169
-50.3024 -49.8912 44.9001 0 0 148
-50.3024 -49.8912 44.9001 0 0 133
-49.6974 -50.0866 44.4361 0 0 133
-48.9664 -55.2991 31.0638 0 0 206
-49.3752 -56.4563 31.6187 0 0 206
-48.5146 -55.2658 32.0874 0 2 255
-49.2351 -52.2585 29.6321 0 0 150
-49.9387 -51.5503 30.6145 0 0 150
-49.416 -57.9801 37.2772 0 0 224
-49.7731 -59.0483 36.7881 0 0 184
-49.7445 -58.8872 37.8762 0 0 184
-54.2543 -49.5966 33.1957 0 0 187
-53.5645 -50.0449 32.3057 0 0 187
-53.0921 -49.6062 33.2378 0 0 227
-48.3311 -53.3151 43.0414 0 0 131
-47.9798 -52.5914 43.0734 0 0 131
-49.0274 -55.7194 42.4424 0 0 146
-48.978 -54.9489 42.7224 0 0 146
-49.6427 -55.5331 42.8601 0 0 166
-48.9471 -56.566 42.2781 0 0 150
-48.2824 -55.9819 42.1403 0 0 128
-49.0274 -55.7194 42.4424 0 0 150
-49.5276 -57.1096 42.0452 0 0 128
-48.9471 -56.566 42.2781 0 0 128
-49.5218 -58.3548 38.9384 0 0 167
-49.7375 -57.9162 40.1032 0 0 167
-49.6031 -57.3804 39.5301 0 0 198
-49.7445 -58.8872 37.8762 0 0 137
-49.5218 -58.3548 38.9384 0 0 137
-50.6106 -59.1713 33.558 0 0 146
-50.2116 -59.1736 34.6278 0 0 146
-49.1843 -50.3054 44.2561 0 0 136
-48.5952 -50.5556 43.7456 0 0 136
-50.0141 -51.0885 44.7215 0 0 171
-49.1843 -50.3054 44.2561 0 0 149
-49.6974 -50.0866 44.4361 0 0 149
-49.9283 -57.3568 32.2094 0 0 204
-50.4143 -58.2903 32.8743 0 0 204
-49.4094 -57.3565 33.3072 0 0 253
-49.9283 -57.3568 32.2094 0 0 151
-49.3752 -56.4563 31.6187 0 0 151
-48.6498 -52.4566 43.7237 0 0 158
-47.9798 -52.5914 43.0734 0 0 158
-47.6161 -51.866 43.1503 0 0 132
-48.8936 -51.5192 44.171 0 0 133
-48.5952 -50.5556 43.7456 0 0 133
-49.2198 -52.2359 43.9331 0 0 147
-48.8936 -51.5192 44.171 0 0 147
-49.8272 -52.0239 44.3036 0 0 168
-49.5835 -52.9613 43.8563 0 0 160
-48.6498 -52.4566 43.7237 0 0 142
-49.2198 -52.2359 43.9331 0 0 142
-48.9039 -53.2203 30.0852 0 0 189
-48.5259 -54.2346 30.5091 0 0 189
-48.4839 -53.0943 31.1087 0 0 230
-48.9039 -53.2203 30.0852 0 0 146
-49.2351 -52.2585 29.6321 0 0 146
-49.9861 -59.0992 35.7364 0 0 144
-49.7731 -59.0483 36.7881 0 0 144
-49.67 -58.2156 35.0806 0 0 225
-50.2116 -59.1736 34.6278 0 0 185
-49.9861 -59.0992 35.7364 0 0 185
-50.6229 -50.7544 31.5693 0 0 196
-49.9387 -51.5503 30.6145 0 0 196
-49.5461 -51.284 31.6396 0 0 241
-51.7089 -50.5376 31.446 0 0 185
-50.6229 -50.7544 31.5693 0 0 185
-51.3163 -50.2713 32.4711 0 0 225
-52.8648 -50.4598 31.4827 0 0 145
-51.7089 -50.5376 31.446 0 0 145
-52.8648 -50.4598 31.4827 0 0 143
-53.5645 -50.0449 32.3057 0 0 143
-48.621 -54.1054 42.788 0 0 161
-48.3311 -53.3151 43.0414 0 0 161
-49.3034 -53.9723 43.3935 0 0 189
-48.621 -54.1054 42.788 0 0 130
-48.978 -54.9489 42.7224 0 0 130
-49.591 -57.4288 41.1025 0 0 149
-49.5276 -57.1096 42.0452 0 0 149
-49.7555 -56.6227 41.6375 0 0 170
-49.591 -57.4288 41.1025 0 0 131
-49.7375 -57.9162 40.1032 0 0 131
-51.1295 -59.1716 32.4602 0 0 147
-50.6106 -59.1713 33.558 0 0 189
-50.4143 -58.2903 32.8743 0 0 189
-48.9664 -55.2991 31.0638 0 0 154
-48.5259 -54.2346 30.5091 0 0 154
-51.0386 -48.3479 45.0827 0 0 128
-50.7698 -49.1912 44.9456 0 0 128
-51.713 -48.6812 45.184 0 0 128
-51.0386 -48.3479 45.0827 0 0 128
-51.8691 -48.5949 44.297 0 0 158
-51.6183 -49.3833 44.1056 0 0 184
-51.713 -48.6812 45.184 0 0 158
-52.2233 -48.6062 43.3757 0 0 134
-51.8691 -48.5949 44.297 0 0 134
-52.1317 -48.3085 42.1643 0 0 178
-51.6828 -48.9993 42.0072 0 0 214
-52.2233 -48.6062 43.3757 0 0 178
-52.4063 -48.1857 40.9145 0 0 148
-52.1317 -48.3085 42.1643 0 0 148
-52.6497 -48.015 39.6344 0 0 193
-51.8347 -48.5309 39.5158 0 0 236
-52.4063 -48.1857 40.9145 0 0 193
-53.0443 -48.1745 38.5516 0 0 147
-52.6497 -48.015 39.6344 0 0 147
-53.4395 -48.274 37.4604 0 0 188
-52.4734 -48.4597 37.1445 0 0 230
-53.0443 -48.1745 38.5516 0 0 188
-53.7964 -48.4634 36.391 0 0 144
-53.4395 -48.274 37.4604 0 0 144
-54.2531 -48.7628 35.4282 0 0 181
-53.3252 -48.8586 35.0905 0 0 218
-53.7964 -48.4634 36.391 0 0 181
-54.6436 -49.023 34.4431 0 0 140
-54.2531 -48.7628 35.4282 0 0 140
-54.2543 -49.5966 33.1957 0 0 142
-54.6436 -49.023 34.4431 0 0 142
3 45 15 46
3 47 46 13
3 45 46 47
3 48 13 49
3 0 19 17
3 2 22 20
3 2 24 22
3 0 27 25
3 0 17 27
3 1 50 52
3 52 51 29
3 50 51 52
3 3 32 30
3 5 33 14
3 5 34 33
3 3 35 16
3 3 30 35
3 54 53 36
3 7 55 57
3 55 37 56
3 55 56 57
3 9 38 18
3 9 39 38
3 4 40 31
3 10 41 21
3 10 42 41
3 10 43 42
3 11 44 23
3 11 58 60
3 60 59 44
3 58 59 60
3 6 61 62
3 12 63 65
3 65 64 26
3 63 64 65
3 12 66 68
3 66 67 68
3 12 69 70
3 7 71 73
3 73 72 28
3 71 72 73
3 7 74 75
3 8 76 77
3 13 14 3
3 15 14 13
3 15 5 14
3 78 16 79
3 13 80 82
3 80 16 81
3 80 81 82
3 13 3 16
3 17 18 7
3 19 18 17
3 19 9 18
3 20 21 4
3 22 21 20
3 22 10 21
3 22 23 10
3 24 23 22
3 24 11 23
3 25 26 6
3 27 26 25
3 27 12 26
3 27 28 12
3 17 28 27
3 17 7 28
3 29 83 85
3 85 84 8
3 83 84 85
3 87 86 29
3 30 31 0
3 32 31 30
3 32 4 31
3 14 32 3
3 33 32 14
3 33 4 32
3 33 20 4
3 34 20 33
3 34 2 20
3 88 6 89
3 88 89 90
3 16 91 92
3 35 93 95
3 95 94 16
3 93 94 95
3 35 96 98
3 96 6 97
3 96 97 98
3 35 25 6
3 30 25 35
3 30 0 25
3 36 99 101
3 101 100 1
3 99 100 101
3 103 102 36
3 37 104 105
3 37 106 108
3 106 8 107
3 106 107 108
3 18 37 7
3 38 37 18
3 38 8 37
3 38 29 8
3 39 29 38
3 39 1 29
3 31 19 0
3 40 19 31
3 40 9 19
3 21 40 4
3 41 40 21
3 41 9 40
3 41 39 9
3 42 39 41
3 42 1 39
3 42 36 1
3 43 36 42
3 43 109 111
3 111 110 36
3 109 110 111
3 23 43 10
3 44 43 23
3 44 112 114
3 114 113 43
3 112 113 114
3 44 115 116
3 118 117 44
3 26 119 121
3 121 120 6
3 119 120 121
3 123 122 26
3 28 124 126
3 126 125 12
3 124 125 126
3 128 127 28
3 131 130 8
3 129 130 131
3 133 132 1
3 134 15 135
3 136 15 137
3 138 5 139
3 140 139 15
3 138 139 140
3 141 5 142
3 143 34 144
3 145 144 5
3 143 144 145
3 146 34 147
3 148 2 149
3 150 149 34
3 148 149 150
3 151 2 152
3 153 24 154
3 155 154 2
3 153 154 155
3 156 24 157
3 158 11 159
3 160 159 24
3 158 159 160
3 161 11 162
3 164 163 11
