ply
format ascii 1.0
element vertex 190
property float x
property float y
property float z
property uchar red
property uchar green
property uchar blue
element face 182
property list uchar int vertex_index
end_header
-23.8036 -78.7042 16.999 189 0 0
-25.6465 -86.8545 13.1309 255 118 0
-23.2888 -82.5238 21.3202 255 241 0
-19.7643 -85.1116 17.0603 242 255 13
-20.4792 -89.3864 14.4658 156 255 99
-23.55 -82.6183 13.1042 255 56 0
-28.3784 -90.887 13.0061 247 255 8
-23.7953 -79.3981 26.2532 57 255 198
-25.3878 -74.9777 21.8629 232 255 23
-27.7855 -77.4816 14.1236 255 14 0
-29.4765 -81.6372 12.4153 255 107 0
-31.4699 -86.2988 12.3081 255 79 0
-23.191 -80.2693 19.1958 128 0 0
-21.3983 -83.6693 19.1194 255 232 0
-22.1482 -81.9253 16.7226 171 0 0
-21.5512 -83.7261 14.7419 224 0 0
-23.4763 -80.4075 14.796 255 25 0
-23.1894 -88.1508 13.7489 255 101 0
-21.9661 -91.2477 13.9957 0 245 255
-24.614 -89.8498 13.5984 132 255 123
-26.176 -91.7874 13.3581 46 255 209
-26.8139 -88.8602 13.2777 255 185 0
-24.6365 -77.2167 23.8913 255 217 0
-29.7314 -75.066 16.22 80 255 175
-30.3841 -77.864 14.5962 148 255 107
-28.5353 -79.7105 12.7794 255 109 0
-31.5767 -79.6862 14.0579 111 255 144
-33.2909 -84.1076 13.8472 154 255 101
-34.0609 -86.5234 13.4617 0 236 255
-32.3693 -88.6393 12.5267 13 255 242
-19.346 -87.1763 15.4003 211 255 44
-21.9697 -85.9992 13.7514 255 11 0
-24.4973 -84.8128 12.673 255 79 0
-27.6563 -93.9553 12.545 0 203 255
-29.3923 -92.5569 11.7721 0 162 255
-24.3171 -81.0442 23.5761 255 226 0
-24.684 -78.8988 21.4453 128 0 0
-24.9228 -76.9818 19.3968 188 0 0
-26.2204 -73.0154 20.575 63 255 192
-25.9112 -75.2919 17.906 255 137 0
-27.5915 -74.722 16.3624 215 255 40
-25.4595 -77.7774 14.9898 206 0 0
-25.6596 -79.8462 13.1737 255 72 0
-26.3848 -82.0304 12.3702 255 117 0
-27.4649 -83.9823 12.0719 255 77 0
-32.5395 -81.7629 14.0681 152 255 103
-30.4767 -83.7255 12.1311 255 31 0
-28.6061 -86.3627 12.4011 255 58 0
-29.6101 -88.7552 12.7053 255 209 0
-30.6551 -90.4626 12.3579 0 200 255
-31.5649 -78.2482 15.6387 0 0 152
-30.9248 -77.078 16.145 0 0 152
-32.1612 -79.1593 15.3696 0 0 173
-30.9804 -78.7751 14.327 0 0 205
-31.5649 -78.2482 15.6387 0 0 173
-35.1931 -86.7344 14.0978 0 0 138
-34.819 -85.7936 14.6631 0 0 138
-34.3767 -87.5681 13.0645 0 0 138
-35.1931 -86.7344 14.0978 0 0 138
-21.8509 -83.9647 21.4736 0 0 154
-22.906 -83.6586 22.4114 0 0 154
-19.1397 -85.6773 18.2624 0 0 194
-19.9567 -84.9561 19.292 0 0 194
-20.5813 -84.3904 18.0898 0 0 236
-18.7551 -86.805 17.212 0 0 154
-19.1397 -85.6773 18.2624 0 0 154
-19.5551 -86.1439 16.2303 0 0 221
-18.5459 -87.8374 16.382 0 0 183
-18.7551 -86.805 17.212 0 0 183
-20.1095 -90.9659 14.875 0 0 141
-19.4695 -90.0904 15.2586 0 0 141
-21.6196 -92.6133 14.5533 0 0 141
-22.8456 -91.9693 13.8443 0 0 141
-23.3737 -80.2983 27.7004 0 0 163
-23.4093 -78.4647 27.7375 0 0 163
-23.6275 -81.2334 26.1643 0 0 219
-23.206 -82.1335 27.6115 0 0 164
-23.3737 -80.2983 27.7004 0 0 219
-24.0562 -80.2211 24.9147 0 0 253
-23.8884 -82.0564 24.8258 0 0 205
-23.6275 -81.2334 26.1643 0 0 205
-26.911 -72.4286 19.989 0 0 142
-26.449 -71.3638 21.1197 0 0 142
-26.7564 -73.5668 18.6546 0 0 183
-26.0658 -74.1536 19.2405 0 0 220
-26.911 -72.4286 19.989 0 0 183
-33.8195 -82.3387 15.1712 0 0 147
-33.4151 -81.1822 15.3029 0 0 147
-31.7576 -90.173 11.9146 0 0 147
-31.5122 -89.551 12.4423 0 0 167
-32.6147 -89.2613 11.999 0 0 147
-30.8346 -90.7779 11.3922 0 0 131
-31.7576 -90.173 11.9146 0 0 131
-24.1696 -91.2703 13.6456 0 0 171
-22.8456 -91.9693 13.8443 0 0 171
-23.2901 -90.5488 13.797 0 0 202
-25.395 -90.8186 13.4782 0 0 200
-24.9506 -92.2391 13.5255 0 0 169
-24.1696 -91.2703 13.6456 0 0 169
-23.7378 -77.4945 26.4136 0 0 163
-23.4093 -78.4647 27.7375 0 0 163
-24.1584 -76.4038 25.2326 0 0 209
-24.2159 -78.3074 25.0722 0 4 255
-23.7378 -77.4945 26.4136 0 0 209
-24.5601 -75.2843 24.1358 0 0 208
-24.1584 -76.4038 25.2326 0 0 208
-24.082 -74.4714 25.4772 0 0 158
-24.9358 -74.1648 23.1216 0 0 201
-25.0121 -76.0972 22.8771 0 0 248
-24.5601 -75.2843 24.1358 0 0 201
-30.5985 -75.679 16.9569 0 0 195
-30.5289 -74.1524 17.7907 0 0 195
-31.396 -74.7654 18.5276 0 0 152
-30.0578 -76.465 15.4081 0 0 229
-30.5985 -75.679 16.9569 0 0 189
-30.9248 -77.078 16.145 0 0 189
-34.434 -84.5858 14.8559 0 0 142
-34.1952 -83.5111 15.0608 0 0 142
-33.6759 -85.3155 13.6544 0 0 218
-34.434 -84.5858 14.8559 0 0 182
-34.819 -85.7936 14.6631 0 0 182
-33.5309 -88.626 12.597 0 0 160
-33.2151 -87.5814 12.9942 0 0 185
-34.3767 -87.5681 13.0645 0 0 160
-32.6147 -89.2613 11.999 0 0 128
-33.5309 -88.626 12.597 0 0 128
-20.9056 -84.5374 20.3732 0 0 205
-21.8509 -83.9647 21.4736 0 0 205
-22.3435 -83.0965 20.2198 0 0 253
-20.9056 -84.5374 20.3732 0 0 154
-19.9567 -84.9561 19.292 0 0 154
-18.9029 -88.9853 15.7258 0 0 147
-18.5459 -87.8374 16.382 0 0 147
-19.9126 -88.2813 14.9331 0 0 222
-19.4695 -90.0904 15.2586 0 0 184
-18.9029 -88.9853 15.7258 0 0 184
-20.853 -91.8965 14.6399 0 0 175
-20.1095 -90.9659 14.875 0 0 175
-21.2226 -90.3171 14.2308 0 0 209
-20.853 -91.8965 14.6399 0 0 137
-21.6196 -92.6133 14.5533 0 0 137
-25.8046 -93.2007 13.2472 0 0 140
-24.9506 -92.2391 13.5255 0 0 140
-26.5447 -94.2847 12.8407 0 0 169
-25.8046 -93.2007 13.2472 0 0 169
-26.9161 -92.8714 12.9516 0 0 199
-26.9348 -95.1022 11.7443 0 0 141
-26.5447 -94.2847 12.8407 0 0 141
-27.742 -94.5031 11.3722 0 0 136
-26.9348 -95.1022 11.7443 0 0 136
-28.61 -93.8039 10.9857 0 0 168
-27.742 -94.5031 11.3722 0 0 168
-28.5243 -93.2561 12.1586 0 0 198
-29.3312 -92.7614 10.7234 0 0 136
-28.61 -93.8039 10.9857 0 0 136
-23.4202 -82.9187 23.5393 0 0 160
-23.8884 -82.0564 24.8258 0 0 160
-23.8029 -81.784 22.4481 0 0 245
-22.906 -83.6586 22.4114 0 0 200
-23.4202 -82.9187 23.5393 0 0 200
-25.362 -73.0751 22.3562 0 0 151
-24.9358 -74.1648 23.1216 0 0 151
-25.7782 -72.094 21.7122 0 0 143
-26.449 -71.3638 21.1197 0 0 143
-25.8041 -73.9965 21.2189 0 0 220
-25.362 -73.0751 22.3562 0 0 183
-25.7782 -72.094 21.7122 0 0 183
-29.6366 -73.5009 17.4412 0 0 152
-30.5289 -74.1524 17.7907 0 0 152
-28.5667 -73.3289 17.5124 0 0 191
-29.6366 -73.5009 17.4412 0 0 191
-28.6615 -74.894 16.2912 0 0 232
-27.5966 -73.2819 17.8827 0 0 149
-28.5667 -73.3289 17.5124 0 0 149
-26.7513 -75.0069 17.1342 0 0 246
-26.7564 -73.5668 18.6546 0 0 200
-27.5966 -73.2819 17.8827 0 0 200
-32.9337 -80.1439 15.2978 0 0 146
-32.1612 -79.1593 15.3696 0 0 146
-32.0581 -80.7245 14.063 0 0 217
-32.9337 -80.1439 15.2978 0 0 181
-33.4151 -81.1822 15.3029 0 0 181
-32.9152 -82.9353 13.9577 0 0 223
-33.8195 -82.3387 15.1712 0 0 185
-34.1952 -83.5111 15.0608 0 0 185
-30.2032 -91.8251 11.0993 0 0 155
-30.0237 -91.5098 12.065 0 0 179
-30.8346 -90.7779 11.3922 0 0 155
-29.3312 -92.7614 10.7234 0 0 134
-30.2032 -91.8251 11.0993 0 0 134
3 0 14 12
3 0 16 14
3 1 19 17
3 1 21 19
3 50 24 51
3 52 26 53
3 54 53 24
3 52 53 54
3 55 28 56
3 58 57 28
3 2 59 60
3 3 61 63
3 63 62 13
3 61 62 63
3 3 64 65
3 3 66 68
3 66 30 67
3 66 67 68
3 5 31 15
3 5 32 31
3 4 69 70
3 72 71 18
3 6 33 20
3 6 34 33
3 7 73 74
3 7 75 77
3 75 76 77
3 7 78 80
3 78 35 79
3 78 79 80
3 8 36 22
3 8 37 36
3 81 38 82
3 83 39 84
3 85 84 38
3 83 84 85
3 9 40 23
3 9 41 40
3 9 42 41
3 10 43 25
3 10 44 43
3 86 45 87
3 11 46 27
3 11 47 46
3 11 48 47
3 88 49 89
3 90 89 29
3 88 89 90
3 92 91 49
3 12 13 2
3 14 13 12
3 14 3 13
3 14 15 3
3 16 15 14
3 16 5 15
3 17 18 4
3 19 18 17
3 19 93 95
3 95 94 18
3 93 94 95
3 19 96 98
3 96 20 97
3 96 97 98
3 21 20 19
3 21 6 20
3 99 7 100
3 101 22 102
3 103 102 7
3 101 102 103
3 104 22 105
3 104 105 106
3 107 8 108
3 109 108 22
3 107 108 109
3 110 23 111
3 110 111 112
3 24 113 115
3 113 23 114
3 113 114 115
3 24 9 23
3 24 25 9
3 26 25 24
3 26 10 25
3 116 27 117
3 28 118 120
3 118 27 119
3 118 119 120
3 28 11 27
3 28 29 11
3 121 29 122
3 123 122 28
3 121 122 123
3 125 124 29
3 13 126 128
3 128 127 2
3 126 127 128
3 130 129 13
3 30 131 132
3 30 133 135
3 133 4 134
3 133 134 135
3 15 30 3
3 31 30 15
3 31 4 30
3 31 17 4
3 32 17 31
3 32 1 17
3 18 136 138
3 138 137 4
3 136 137 138
3 140 139 18
3 20 141 142
3 33 143 145
3 145 144 20
3 143 144 145
3 33 146 147
3 33 148 149
3 34 150 152
3 152 151 33
3 150 151 152
3 34 153 154
3 35 155 156
3 35 157 159
3 157 2 158
3 157 158 159
3 22 35 7
3 36 35 22
3 36 2 35
3 36 12 2
3 37 12 36
3 37 0 12
3 160 8 161
3 38 162 163
3 38 164 166
3 164 8 165
3 164 165 166
3 38 37 8
3 39 37 38
3 39 0 37
3 23 167 168
3 40 169 171
3 171 170 23
3 169 170 171
3 40 172 173
3 40 174 176
3 174 39 175
3 174 175 176
3 41 39 40
3 41 0 39
3 41 16 0
3 42 16 41
3 42 5 16
3 25 42 9
3 43 42 25
3 43 5 42
3 43 32 5
3 44 32 43
3 44 1 32
3 177 26 178
3 45 179 181
3 179 26 180
3 179 180 181
3 45 10 26
3 27 182 184
3 182 45 183
3 182 183 184
3 46 45 27
3 46 10 45
3 46 44 10
3 47 44 46
3 47 1 44
3 47 21 1
3 48 21 47
3 48 6 21
3 29 48 11
3 49 48 29
3 49 6 48
3 49 34 6
3 185 34 186
3 187 186 49
3 185 186 187
3 189 188 34
