ply
format ascii 1.0
element vertex 230
property float x
property float y
property float z
property uchar red
property uchar green
property uchar blue
element face 227
property list uchar int vertex_index
end_header
-29.8445 22.7793 -20.5192 169 255 86
-19.3464 24.2207 -17.0674 255 67 0
-23.7879 14.0834 -21.9124 84 255 171
-24.2095 32.041 -10.0744 236 255 19
-17.869 19.4464 -21.5 154 255 101
-19.9556 34.2948 -14.5941 147 255 108
-23.2982 9.93282 -17.2479 0 125 255
-25.4473 10.4836 -16.9607 0 59 255
-24.5861 23.5881 -16.2158 233 0 0
-26.7876 18.3164 -22.9202 250 255 5
-22.3013 18.9134 -18.7079 255 64 0
-19.8709 13.5067 -21.0872 142 255 113
-20.9328 9.47466 -16.8002 0 163 255
-27.3259 28.4018 -15.0908 173 0 0
-21.0994 28.1954 -13.0811 255 134 0
-19.3694 29.9924 -19.037 96 255 159
-26.0685 14.7927 -20.9347 0 104 255
-21.5665 23.5163 -15.4691 255 127 0
-23.4578 21.3005 -17.5803 255 31 0
-20.5748 21.2322 -16.7867 255 71 0
-16.6602 16.1891 -22.7093 0 169 255
-18.354 15.9699 -21.5847 255 165 0
-18.1171 12.9339 -22.0708 0 250 255
-20.2272 11.5514 -19.5786 35 255 220
-18.9557 11.8217 -19.2236 0 171 255
-27.6923 31.5786 -11.1468 52 255 203
-28.9721 30.2022 -14.2471 255 190 0
-25.6311 29.993 -12.1197 255 30 0
-24.1819 28.0304 -13.1123 255 46 0
-22.2616 30.3676 -11.6129 255 99 0
-19.577 32.1656 -16.6775 176 255 79
-25.2483 16.2019 -23.0041 155 255 100
-26.8055 15.7295 -23.3051 0 164 255
-25.3305 13.9934 -22.1776 1 255 254
-18.4417 25.0183 -20.6452 80 255 175
-18.6394 21.9696 -19.0961 255 207 0
-23.2771 34.7514 -9.71068 10 255 245
-21.1211 33.1803 -11.3094 255 74 0
-21.358 35.8942 -12.2802 14 255 241
-23.0317 12.0067 -20.0204 9 255 246
-24.2538 12.1529 -20.0327 0 247 255
-24.3905 10.139 -17.3361 0 105 255
-27.0889 23.9183 -19.0468 196 0 0
-28.3033 20.7575 -21.8905 196 255 59
-25.8032 21.637 -20.0625 229 0 0
-24.6893 19.147 -20.9208 255 76 0
-23.3404 16.7497 -20.9523 255 183 0
-19.3094 18.6602 -18.8734 255 4 0
-20.6782 16.2684 -19.8451 255 167 0
-21.883 14.086 -20.7798 137 255 118
-21.6643 11.707 -19.6808 30 255 225
-22.0505 9.72559 -17.043 0 134 255
-32.2061 24.5778 -19.3553 81 255 174
-32.4901 29.9126 -16.5849 0 213 255
-30.7424 28.1877 -17.4008 255 131 0
-29.0226 26.0053 -18.4357 128 0 0
-26.1399 26.0318 -15.8606 187 0 0
-23.0272 25.7173 -14.1001 255 87 0
-20.2839 26.2076 -14.9011 255 135 0
-19.9739 31.294 -13.3193 255 72 0
-19.3925 29.1343 -15.3318 255 35 0
-19.1757 27.0555 -17.8452 255 229 0
-28.5561 18.0318 -22.9733 0 89 255
-25.0346 12.8092 -19.1581 0 132 255
-19.6505 8.97693 -16.3534 0 77 255
-30.1333 21.4 -21.2822 0 0 140
-30.9914 22.2838 -20.6707 0 0 140
-17.3126 13.3359 -21.8612 0 0 151
-17.3886 14.5615 -22.3901 0 0 170
-16.5841 14.9635 -22.1805 0 0 151
-17.7319 12.7798 -20.4376 0 0 159
-18.5364 12.3778 -20.6472 0 0 182
-17.3126 13.3359 -21.8612 0 0 159
-25.9509 31.8098 -10.6106 0 0 225
-27.0994 32.6319 -10.0807 0 0 187
-25.3579 32.8631 -9.54453 0 0 187
-17.7926 23.8823 -21.5426 0 0 150
-17.2032 25.3026 -21.863 0 0 150
-23.4069 36.0331 -10.2746 0 0 180
-24.5494 35.5441 -9.13851 0 0 180
-24.6792 36.8258 -9.70238 0 0 146
-22.4474 36.6045 -11.5593 0 0 177
-22.3176 35.3228 -10.9954 0 0 209
-23.4069 36.0331 -10.2746 0 0 177
-21.8396 8.03083 -15.6256 0 0 151
-22.3984 8.1563 -15.747 0 0 151
-21.4917 9.60013 -16.9216 0 0 171
-33.0886 25.5899 -18.9979 0 0 142
-33.3201 23.8938 -19.4331 0 0 142
-31.8105 30.5733 -14.9226 0 0 152
-33.5548 29.6456 -15.947 0 0 152
-18.7201 28.9066 -20.216 0 0 196
-18.6233 27.4382 -19.6201 0 0 196
-19.2725 28.524 -18.4411 0 0 238
-26.8451 15.7424 -21.2777 0 0 153
-27.2136 16.2108 -22.4629 0 0 153
-26.437 15.2611 -22.1199 0 0 173
-25.7583 15.4574 -19.6788 0 0 142
-26.8451 15.7424 -21.2777 0 0 142
-19.0099 8.59057 -16.2337 0 0 137
-18.9328 10.7577 -17.1501 0 0 137
-24.2961 8.68267 -16.0381 0 0 133
-23.6861 8.50842 -15.9641 0 0 133
-28.895 32.1112 -10.6184 0 0 149
-27.0994 32.6319 -10.0807 0 0 149
-29.4116 31.4063 -12.2036 0 0 153
-28.895 32.1112 -10.6184 0 0 153
-28.3322 30.8904 -12.6969 0 0 225
-30.0515 30.7181 -13.7537 0 0 187
-29.4116 31.4063 -12.2036 0 0 187
-19.7234 33.5133 -17.4443 0 0 185
-19.7663 33.2302 -15.6358 0 0 221
-19.9128 34.5779 -16.4026 0 0 185
-19.1646 32.4975 -18.5018 0 0 151
-19.7234 33.5133 -17.4443 0 0 151
-19.0608 31.4109 -19.6815 0 0 192
-19.4732 31.079 -17.8572 0 0 231
-19.1646 32.4975 -18.5018 0 0 192
-18.1842 30.3 -20.7585 0 0 157
-19.0608 31.4109 -19.6815 0 0 157
-25.9718 10.705 -16.6673 0 0 131
-26.6029 9.13511 -16.018 0 0 131
-17.8914 22.358 -20.7681 0 0 195
-18.5406 23.494 -19.8707 0 0 236
-17.7926 23.8823 -21.5426 0 0 195
-17.5062 21.0964 -21.97 0 0 204
-18.2542 20.708 -20.2981 0 0 249
-17.8914 22.358 -20.7681 0 0 204
-16.877 19.7139 -22.2583 0 0 144
-17.5062 21.0964 -21.97 0 0 144
-16.2725 18.0852 -22.863 0 0 186
-17.2646 17.8177 -22.1047 0 0 223
-16.877 19.7139 -22.2583 0 0 186
-15.943 16.6893 -22.4676 0 0 134
-16.2725 18.0852 -22.863 0 0 134
-16.5841 14.9635 -22.1805 0 0 131
-15.943 16.6893 -22.4676 0 0 131
-24.8917 34.2183 -9.36266 0 0 146
-24.5494 35.5441 -9.13851 0 0 146
-23.7433 33.3962 -9.89255 0 0 213
-25.3579 32.8631 -9.54453 0 0 180
-24.8917 34.2183 -9.36266 0 0 180
-22.0359 37.0414 -12.9853 0 0 145
-22.4474 36.6045 -11.5593 0 0 145
-21.1929 36.271 -13.9999 0 0 183
-22.0359 37.0414 -12.9853 0 0 183
-21.8707 37.4181 -14.705 0 0 148
-20.4917 35.4712 -15.1568 0 0 181
-20.6568 35.0945 -13.4372 0 0 215
-21.1929 36.271 -13.9999 0 0 181
-19.9128 34.5779 -16.4026 0 0 148
-20.4917 35.4712 -15.1568 0 0 148
-24.8423 8.78575 -16.0823 0 0 147
-23.8444 10.0359 -17.292 0 0 164
-24.2961 8.68267 -16.0381 0 0 147
-25.5003 8.88715 -16.1771 0 0 133
-24.8423 8.78575 -16.0823 0 0 133
-26.0287 9.05948 -15.9894 0 0 146
-24.9189 10.3113 -17.1484 0 0 163
-25.5003 8.88715 -16.1771 0 0 146
-26.6029 9.13511 -16.018 0 0 129
-26.0287 9.05948 -15.9894 0 0 129
-23.0622 8.4048 -15.8617 0 0 153
-23.6861 8.50842 -15.9641 0 0 153
-22.6743 9.82921 -17.1454 0 0 173
-23.0622 8.4048 -15.8617 0 0 136
-22.3984 8.1563 -15.747 0 0 136
-32.1723 23.183 -20.0888 0 0 142
-33.3201 23.8938 -19.4331 0 0 142
-31.0253 23.6786 -19.9372 0 0 201
-30.9914 22.2838 -20.6707 0 0 172
-32.1723 23.183 -20.0888 0 0 172
-34.1234 28.5089 -17.0643 0 0 182
-35.1881 28.2419 -16.4263 0 0 147
-33.5548 29.6456 -15.947 0 0 182
-33.2306 28.2573 -17.6127 0 0 148
-34.1234 28.5089 -17.0643 0 0 148
-30.7311 30.0574 -15.416 0 0 231
-31.8105 30.5733 -14.9226 0 0 192
-30.0515 30.7181 -13.7537 0 0 192
-32.3567 27.3949 -18.0207 0 0 191
-33.2306 28.2573 -17.6127 0 0 191
-31.6163 29.0502 -16.9928 0 0 230
-31.4743 26.3828 -18.378 0 0 239
-33.0886 25.5899 -18.9979 0 0 197
-32.3567 27.3949 -18.0207 0 0 197
-18.2563 26.4196 -21.0202 0 0 192
-18.8087 26.0369 -19.2452 0 0 232
-18.6233 27.4382 -19.6201 0 0 192
-17.2032 25.3026 -21.863 0 0 150
-18.2563 26.4196 -21.0202 0 0 150
-18.7201 28.9066 -20.216 0 0 156
-18.1842 30.3 -20.7585 0 0 156
-29.3627 20.3891 -21.9679 0 0 164
-30.1333 21.4 -21.2822 0 0 164
-29.0739 21.7684 -21.2048 0 0 189
-29.4891 19.0262 -22.5093 0 0 161
-29.3627 20.3891 -21.9679 0 0 161
-28.4297 19.3947 -22.4319 0 0 186
-29.009 18.2378 -22.1651 0 0 128
-29.4891 19.0262 -22.5093 0 0 128
-28.0889 17.362 -22.297 0 0 149
-27.6808 16.8806 -23.1392 0 0 167
-27.2136 16.2108 -22.4629 0 0 149
-29.009 18.2378 -22.1651 0 0 128
-28.0889 17.362 -22.297 0 0 128
-25.7654 11.8678 -17.766 0 0 145
-25.241 11.6464 -18.0594 0 0 162
-25.9718 10.705 -16.6673 0 0 145
-25.0809 13.1915 -18.2665 0 0 137
-25.7654 11.8678 -17.766 0 0 137
-25.5979 14.1833 -19.1547 0 0 156
-25.5515 13.801 -20.0464 0 0 177
-25.0809 13.1915 -18.2665 0 0 156
-25.7583 15.4574 -19.6788 0 0 145
-25.5979 14.1833 -19.1547 0 0 145
-18.5854 12.1801 -18.5852 0 0 139
-17.7319 12.7798 -20.4376 0 0 139
-19.3031 10.3993 -17.7885 0 0 193
-18.5854 12.1801 -18.5852 0 0 166
-18.9328 10.7577 -17.1501 0 0 166
-19.8718 6.94095 -15.2447 0 0 138
-19.0099 8.59057 -16.2337 0 0 138
-20.5204 7.37317 -15.3198 0 0 139
-19.8718 6.94095 -15.2447 0 0 139
-21.1616 7.62204 -15.5432 0 0 162
-20.2917 9.22579 -16.5768 0 0 186
-20.5204 7.37317 -15.3198 0 0 162
-21.8396 8.03083 -15.6256 0 0 139
-21.1616 7.62204 -15.5432 0 0 139
3 0 65 66
3 1 19 17
3 67 22 68
3 69 68 20
3 67 68 69
3 70 24 71
3 72 71 22
3 70 71 72
3 3 73 75
3 73 25 74
3 73 74 75
3 3 27 25
3 3 29 27
3 2 33 31
3 77 76 34
3 78 36 79
3 78 79 80
3 81 38 82
3 83 82 36
3 81 82 83
3 6 41 39
3 8 44 42
3 10 45 18
3 10 46 45
3 4 47 35
3 11 48 21
3 11 49 48
3 11 50 49
3 12 51 23
3 12 84 86
3 86 85 51
3 84 85 86
3 87 52 88
3 89 53 90
3 13 54 26
3 13 55 54
3 13 56 55
3 14 57 28
3 14 58 57
3 5 59 37
3 15 60 30
3 15 61 60
3 15 91 93
3 93 92 61
3 91 92 93
3 9 62 43
3 16 94 96
3 96 95 32
3 94 95 96
3 16 97 98
3 7 63 40
3 99 64 100
3 102 101 6
3 17 18 8
3 19 18 17
3 19 10 18
3 20 21 4
3 22 21 20
3 22 11 21
3 22 23 11
3 24 23 22
3 24 12 23
3 25 103 104
3 25 105 106
3 25 107 109
3 107 26 108
3 107 108 109
3 27 26 25
3 27 13 26
3 27 28 13
3 29 28 27
3 29 14 28
3 110 30 111
3 112 111 5
3 110 111 112
3 113 30 114
3 115 15 116
3 117 116 30
3 115 116 117
3 119 118 15
3 31 32 9
3 33 32 31
3 33 16 32
3 121 120 7
3 34 35 1
3 122 35 123
3 124 123 34
3 122 123 124
3 125 4 126
3 127 126 35
3 125 126 127
3 128 4 129
3 130 20 131
3 132 131 4
3 130 131 132
3 133 20 134
3 136 135 20
3 36 137 138
3 36 139 141
3 139 3 140
3 139 140 141
3 36 37 3
3 38 37 36
3 38 5 37
3 142 38 143
3 144 38 145
3 144 145 146
3 147 5 148
3 149 148 38
3 147 148 149
3 151 150 5
3 39 40 2
3 41 40 39
3 41 7 40
3 152 41 153
3 154 153 6
3 152 153 154
3 155 41 156
3 157 7 158
3 159 158 41
3 157 158 159
3 161 160 7
3 42 43 0
3 44 43 42
3 44 9 43
3 18 44 8
3 45 44 18
3 45 9 44
3 45 31 9
3 46 31 45
3 46 2 31
3 35 19 1
3 47 19 35
3 47 10 19
3 21 47 4
3 48 47 21
3 48 10 47
3 48 46 10
3 49 46 48
3 49 2 46
3 49 39 2
3 50 39 49
3 50 6 39
3 23 50 11
3 51 50 23
3 51 6 50
3 51 162 164
3 164 163 6
3 162 163 164
3 166 165 51
3 52 167 168
3 52 169 171
3 169 0 170
3 169 170 171
3 53 172 174
3 172 173 174
3 53 175 176
3 26 177 179
3 177 53 178
3 177 178 179
3 54 53 26
3 54 180 182
3 182 181 53
3 180 181 182
3 54 183 185
3 183 52 184
3 183 184 185
3 55 52 54
3 55 0 52
3 55 42 0
3 56 42 55
3 56 8 42
3 28 56 13
3 57 56 28
3 57 8 56
3 57 17 8
3 58 17 57
3 58 1 17
3 37 29 3
3 59 29 37
3 59 14 29
3 30 59 5
3 60 59 30
3 60 14 59
3 60 58 14
3 61 58 60
3 61 1 58
3 61 34 1
3 186 34 187
3 188 187 61
3 186 187 188
3 190 189 34
3 192 191 15
3 43 193 195
3 195 194 0
3 193 194 195
3 62 196 198
3 198 197 43
3 196 197 198
3 62 199 200
3 32 62 9
3 201 62 202
3 203 202 32
3 201 202 203
3 205 204 62
3 40 33 2
3 63 33 40
3 63 16 33
3 206 63 207
3 208 207 7
3 206 207 208
3 209 63 210
3 211 16 212
3 213 212 63
3 211 212 213
3 215 214 16
3 216 24 217
3 64 218 220
3 218 24 219
3 218 219 220
3 64 12 24
3 221 64 222
3 223 64 224
3 225 12 226
3 227 226 64
3 225 226 227
3 229 228 12
