ply
format ascii 1.0
element vertex 126
property float x
property float y
property float z
property uchar red
property uchar green
property uchar blue
element face 111
property list uchar int vertex_index
end_header
-19.8717 -72.4901 43.4868 255 6 0
-18.3333 -64.5911 52.6492 177 255 78
-19.1393 -68.6715 48.2091 194 0 0
-15.5528 -67.6081 48.3383 250 255 5
-16.4032 -71.7967 43.707 205 255 50
-17.0854 -75.7894 38.8307 0 222 255
-22.5481 -68.9178 47.4003 250 255 5
-19.4013 -70.6893 45.7784 246 0 0
-17.725 -70.4124 45.842 205 0 0
-18.1339 -72.344 43.5407 221 0 0
-22.1014 -67.1129 49.7681 156 255 99
-23.6338 -67.0107 49.1387 0 163 255
-16.5125 -64.0654 52.6472 81 255 174
-18.6958 -66.6184 50.5095 186 0 0
-16.9381 -66.0804 50.6358 169 0 0
-17.3456 -68.3555 48.1845 128 0 0
-15.9293 -69.8252 45.9103 227 255 28
-20.1151 -74.3966 40.9218 39 255 216
-18.5819 -74.2154 41.1898 255 196 0
-20.1359 -64.8389 52.6036 55 255 200
-20.4732 -66.8771 50.3395 255 203 0
-20.8009 -68.9625 47.8526 239 0 0
-21.1518 -70.7311 45.5849 255 14 0
-22.7567 -70.6448 45.0443 25 255 230
-21.4585 -72.5723 43.0684 152 255 103
-15.0788 -65.5788 50.3876 92 255 163
-16.7411 -73.8524 41.2456 227 255 28
-24.206 -65.9686 49.9298 0 0 129
-23.5193 -66.0209 50.3685 0 0 129
-17.4229 -64.3282 52.6482 0 0 219
-17.2479 -63.2641 53.7025 0 0 177
-18.1583 -63.5269 53.7035 0 0 177
-15.4621 -71.5426 43.5806 0 0 182
-15.2252 -70.5569 44.6822 0 0 182
-16.1662 -70.811 44.8086 0 0 226
-19.4688 -75.2695 39.765 0 0 133
-20.3342 -75.2459 39.677 0 0 133
-20.9604 -64.9662 52.3777 0 0 128
-20.7775 -64.0161 53.4253 0 0 128
-21.1291 -65.9853 51.2456 0 0 168
-20.3046 -65.858 51.4716 0 0 206
-20.9604 -64.9662 52.3777 0 0 168
-22.8199 -71.536 43.7642 0 0 131
-23.4747 -70.5204 44.6185 0 0 131
-22.1708 -72.4998 42.7763 0 0 164
-22.1076 -71.6086 44.0563 0 0 200
-22.8199 -71.536 43.7642 0 0 164
-21.5858 -73.4586 41.7651 0 0 129
-22.1708 -72.4998 42.7763 0 0 129
-22.7531 -66.072 50.6832 0 0 133
-21.9432 -66.1032 50.9599 0 0 133
-22.8676 -67.0618 49.4534 0 0 208
-22.7531 -66.072 50.6832 0 0 170
-23.5193 -66.0209 50.3685 0 0 170
-16.3028 -63.0055 53.6404 0 0 136
-17.2479 -63.2641 53.7025 0 0 136
-15.5688 -63.7647 52.5276 0 0 137
-16.3028 -63.0055 53.6404 0 0 137
-14.6216 -67.3191 48.1685 0 0 140
-14.8927 -68.4127 47.0565 0 0 140
-16.2466 -75.6473 38.7215 0 0 135
-16.442 -76.6387 37.5032 0 0 135
-15.0809 -69.5213 45.8425 0 0 182
-14.8927 -68.4127 47.0565 0 0 182
-15.7411 -68.7167 47.1243 0 0 226
-15.0809 -69.5213 45.8425 0 0 135
-15.2252 -70.5569 44.6822 0 0 135
-18.7022 -75.1789 39.899 0 0 168
-19.3485 -74.306 41.0558 0 0 206
-19.4688 -75.2695 39.765 0 0 168
-17.9539 -75.9659 38.7194 0 0 178
-17.8336 -75.0024 40.0103 0 0 221
-18.7022 -75.1789 39.899 0 0 178
-17.3065 -76.7621 37.5716 0 0 135
-17.9539 -75.9659 38.7194 0 0 135
-16.442 -76.6387 37.5032 0 0 136
-17.3065 -76.7621 37.5716 0 0 136
-18.9799 -63.7593 53.6118 0 0 130
-18.1583 -63.5269 53.7035 0 0 130
-19.8812 -63.8832 53.589 0 0 130
-20.7775 -64.0161 53.4253 0 0 130
-19.2346 -64.715 52.6264 0 0 206
-18.9799 -63.7593 53.6118 0 0 168
-19.8812 -63.8832 53.589 0 0 168
-21.2873 -66.995 50.0538 0 0 207
-21.1291 -65.9853 51.2456 0 0 169
-21.9432 -66.1032 50.9599 0 0 169
-24.3498 -66.8351 48.7132 0 0 130
-24.206 -65.9686 49.9298 0 0 130
-23.789 -67.9194 47.8701 0 0 132
-24.3498 -66.8351 48.7132 0 0 132
-23.2461 -68.8729 47.0009 0 0 163
-23.091 -67.9642 48.2695 0 0 197
-23.789 -67.9194 47.8701 0 0 163
-23.3504 -69.7365 45.8229 0 0 128
-23.4747 -70.5204 44.6185 0 0 128
-22.6524 -69.7813 46.2223 0 0 192
-23.2461 -68.8729 47.0009 0 0 159
-23.3504 -69.7365 45.8229 0 0 159
-20.9141 -74.3707 40.6919 0 0 171
-20.7868 -73.4845 41.9951 0 0 210
-21.5858 -73.4586 41.7651 0 0 171
-20.3342 -75.2459 39.677 0 0 130
-20.9141 -74.3707 40.6919 0 0 130
-14.8519 -64.5214 51.3978 0 0 181
-15.5688 -63.7647 52.5276 0 0 181
-15.7957 -64.8221 51.5174 0 0 224
-14.3845 -66.3044 49.1932 0 0 180
-15.3158 -66.5934 49.363 0 0 223
-14.6216 -67.3191 48.1685 0 0 180
-14.1909 -65.2327 50.2664 0 0 137
-14.3845 -66.3044 49.1932 0 0 137
-13.964 -64.1753 51.2766 0 0 135
-14.8519 -64.5214 51.3978 0 0 177
-14.1909 -65.2327 50.2664 0 0 177
-16.0744 -74.6788 39.9289 0 0 175
-16.9132 -74.8209 40.0381 0 0 216
-16.2466 -75.6473 38.7215 0 0 175
-15.8548 -73.5916 41.2066 0 0 186
-16.0744 -74.6788 39.9289 0 0 186
-15.1882 -74.418 39.8899 0 0 140
-15.6858 -72.5638 42.4373 0 0 182
-16.5721 -72.8246 42.4763 0 0 227
-15.8548 -73.5916 41.2066 0 0 182
-15.4621 -71.5426 43.5806 0 0 139
-15.6858 -72.5638 42.4373 0 0 139
3 0 9 7
3 27 11 28
3 1 29 31
3 29 12 30
3 29 30 31
3 2 15 13
3 4 16 8
3 4 32 34
3 34 33 16
3 32 33 34
3 36 35 17
3 37 19 38
3 39 20 40
3 41 40 19
3 39 40 41
3 6 21 10
3 6 22 21
3 42 23 43
3 44 24 45
3 46 45 23
3 44 45 46
3 48 47 24
3 3 25 14
3 5 26 18
3 7 8 2
3 9 8 7
3 9 4 8
3 49 10 50
3 11 51 53
3 51 10 52
3 51 52 53
3 11 6 10
3 12 54 55
3 12 56 57
3 59 58 3
3 61 60 5
3 13 14 1
3 15 14 13
3 15 3 14
3 8 15 2
3 16 15 8
3 16 3 15
3 16 62 64
3 64 63 3
3 62 63 64
3 66 65 16
3 17 18 0
3 67 18 68
3 69 68 17
3 67 68 69
3 70 5 71
3 72 71 18
3 70 71 72
3 73 5 74
3 76 75 5
3 77 1 78
3 19 79 80
3 19 81 83
3 81 1 82
3 81 82 83
3 19 13 1
3 20 13 19
3 20 2 13
3 10 84 86
3 84 20 85
3 84 85 86
3 21 20 10
3 21 2 20
3 21 7 2
3 22 7 21
3 22 0 7
3 87 11 88
3 89 11 90
3 91 6 92
3 93 92 11
3 91 92 93
3 23 94 95
3 23 96 98
3 96 6 97
3 96 97 98
3 23 22 6
3 24 22 23
3 24 0 22
3 24 17 0
3 99 17 100
3 101 100 24
3 99 100 101
3 103 102 17
3 14 12 1
3 25 12 14
3 25 104 106
3 106 105 12
3 104 105 106
3 107 25 108
3 109 108 3
3 107 108 109
3 110 25 111
3 114 113 25
3 112 113 114
3 18 9 0
3 26 9 18
3 26 4 9
3 115 26 116
3 117 116 5
3 115 116 117
3 118 26 119
3 118 119 120
3 121 4 122
3 123 122 26
3 121 122 123
3 125 124 4
