ply
format ascii 1.0
element vertex 109
property float x
property float y
property float z
property uchar red
property uchar green
property uchar blue
element face 86
property list uchar int vertex_index
end_header
-32.944 -22.9322 24.613 128 0 0
-32.9562 -34.9747 17.3898 255 253 0
-33.2121 -28.9464 21.177 255 242 0
-32.2791 -23.2968 26.5142 98 255 157
-32.5034 -26.2818 24.9181 98 255 157
-33.1412 -25.9809 22.8934 255 102 0
-32.5631 -38.0061 15.4495 125 255 130
-33.13 -32.093 19.3845 255 255 0
-32.6885 -19.6477 26.2703 115 255 140
-33.4041 -19.4609 24.3293 250 255 5
-34.1553 -18.4285 22.5228 1 255 254
-33.6246 -22.282 22.767 255 112 0
-33.7978 -25.2778 20.9183 255 224 0
-33.7414 -28.5339 19.2201 255 236 0
-33.5817 -31.6095 17.3708 255 241 0
-33.2658 -34.7216 15.2715 255 238 0
-32.7648 -37.6788 13.2813 0 250 255
-32.6275 -36.6512 17.5275 0 0 130
-32.7589 -35.2349 18.4143 0 0 130
-32.7596 -36.4904 16.4196 0 0 229
-32.431 -38.1669 16.5573 0 0 181
-32.6275 -36.6512 17.5275 0 0 181
-32.943 -30.6979 21.263 0 0 131
-32.9249 -29.2094 22.1701 0 0 131
-33.1711 -30.5197 20.2807 0 0 220
-32.902 -32.2712 20.3667 0 0 175
-32.943 -30.6979 21.263 0 0 175
-32.5029 -18.1801 27.1185 0 0 130
-32.3404 -20.0632 27.1541 0 0 130
-33.6045 -17.4305 24.3469 0 0 134
-33.2301 -17.8648 25.2205 0 0 134
-34.2403 -20.0884 21.6354 0 0 134
-34.506 -18.3114 21.5192 0 0 134
-33.9749 -22.0152 21.7575 0 0 188
-33.89 -20.3553 22.6449 0 0 240
-34.2403 -20.0884 21.6354 0 0 188
-34.0615 -23.513 20.8332 0 0 180
-33.7112 -23.7799 21.8426 0 0 227
-33.9749 -22.0152 21.7575 0 0 180
-33.9888 -28.4182 18.1386 0 0 135
-34.0623 -26.774 19.0391 0 0 135
-33.909 -29.956 17.2139 0 0 179
-33.6616 -30.0717 18.2955 0 0 226
-33.9888 -28.4182 18.1386 0 0 179
-33.4041 -34.5352 14.1649 0 0 135
-33.6224 -33.0166 15.2043 0 0 135
-33.1536 -36.0138 13.1699 0 0 181
-33.0153 -36.2002 14.2764 0 0 229
-33.4041 -34.5352 14.1649 0 0 181
-32.0904 -25.0883 26.6283 0 0 128
-31.9538 -23.7361 27.4122 0 0 128
-32.2025 -26.5808 25.8302 0 0 171
-32.0904 -25.0883 26.6283 0 0 171
-32.3913 -24.7893 25.7161 0 0 214
-32.3003 -28.0336 25.0115 0 0 128
-32.2025 -26.5808 25.8302 0 0 128
-32.5705 -27.8771 24.0406 0 0 130
-32.3003 -28.0336 25.0115 0 0 130
-32.8895 -27.7266 23.0283 0 0 179
-32.5705 -27.8771 24.0406 0 0 179
-32.8223 -26.1313 23.9057 0 0 226
-33.1767 -27.4637 22.0352 0 0 220
-32.9249 -29.2094 22.1701 0 0 176
-32.8895 -27.7266 23.0283 0 0 176
-32.2184 -39.5946 15.6352 0 0 131
-32.431 -38.1669 16.5573 0 0 131
-32.276 -39.4918 14.5104 0 0 132
-32.2184 -39.5946 15.6352 0 0 132
-32.8458 -33.794 19.4116 0 0 130
-32.902 -32.2712 20.3667 0 0 130
-33.0431 -33.5338 18.3871 0 0 221
-32.7589 -35.2349 18.4143 0 0 176
-32.8458 -33.794 19.4116 0 0 176
-32.1357 -21.8878 27.276 0 0 129
-31.9538 -23.7361 27.4122 0 0 129
-32.4838 -21.4723 26.3923 0 0 213
-32.1357 -21.8878 27.276 0 0 170
-32.3404 -20.0632 27.1541 0 0 170
-32.8722 -17.9582 26.191 0 0 128
-32.5029 -18.1801 27.1185 0 0 128
-33.0463 -19.5543 25.2998 0 0 219
-32.8722 -17.9582 26.191 0 0 174
-33.2301 -17.8648 25.2205 0 0 174
-34.3769 -16.6907 22.4404 0 0 133
-34.506 -18.3114 21.5192 0 0 133
-33.9801 -16.9144 23.4436 0 0 133
-34.3769 -16.6907 22.4404 0 0 133
-33.7797 -18.9447 23.426 0 0 236
-33.6045 -17.4305 24.3469 0 0 186
-33.9801 -16.9144 23.4436 0 0 186
-34.0905 -25.146 19.8882 0 0 134
-34.0615 -23.513 20.8332 0 0 134
-33.7696 -26.9059 20.0692 0 0 229
-34.0905 -25.146 19.8882 0 0 181
-34.0623 -26.774 19.0391 0 0 181
-33.7804 -31.4606 16.254 0 0 133
-33.909 -29.956 17.2139 0 0 133
-33.4237 -33.1655 16.3211 0 0 235
-33.7804 -31.4606 16.254 0 0 185
-33.6224 -33.0166 15.2043 0 0 185
-32.3768 -39.3281 13.4263 0 0 178
-32.276 -39.4918 14.5104 0 0 178
-32.6639 -37.8424 14.3654 0 0 224
-32.8343 -37.5086 12.1866 0 0 133
-33.1536 -36.0138 13.1699 0 0 133
-32.4143 -39.1747 12.3198 0 0 133
-32.8343 -37.5086 12.1866 0 0 133
-32.3768 -39.3281 13.4263 0 0 133
-32.4143 -39.1747 12.3198 0 0 133
3 0 4 3
3 0 5 4
3 1 17 18
3 1 19 21
3 19 6 20
3 19 20 21
3 2 22 23
3 2 24 26
3 24 7 25
3 24 25 26
3 27 8 28
3 29 9 30
3 31 10 32
3 33 11 34
3 35 34 10
3 33 34 35
3 36 12 37
3 38 37 11
3 36 37 38
3 39 13 40
3 41 14 42
3 43 42 13
3 41 42 43
3 44 15 45
3 46 16 47
3 48 47 15
3 46 47 48
3 3 49 50
3 4 51 53
3 53 52 3
3 51 52 53
3 4 54 55
3 4 56 57
3 5 58 60
3 60 59 4
3 58 59 60
3 5 61 63
3 61 2 62
3 61 62 63
3 6 64 65
3 6 66 67
3 7 68 69
3 7 70 72
3 70 1 71
3 70 71 72
3 73 3 74
3 8 75 77
3 75 3 76
3 75 76 77
3 8 0 3
3 78 8 79
3 9 80 82
3 80 8 81
3 80 81 82
3 9 0 8
3 10 83 84
3 10 85 86
3 10 87 89
3 87 9 88
3 87 88 89
3 11 9 10
3 11 0 9
3 11 5 0
3 12 5 11
3 12 2 5
3 90 12 91
3 13 92 94
3 92 12 93
3 92 93 94
3 13 2 12
3 13 7 2
3 14 7 13
3 14 1 7
3 95 14 96
3 15 97 99
3 97 14 98
3 97 98 99
3 15 1 14
3 15 6 1
3 16 6 15
3 16 100 102
3 102 101 6
3 100 101 102
3 103 16 104
3 105 16 106
3 108 107 16
