ply
format ascii 1.0
element vertex 248
property float x
property float y
property float z
property uchar red
property uchar green
property uchar blue
element face 235
property list uchar int vertex_index
end_header
2.77292 53.2953 40.9425 255 149 0
4.63966 63.4736 33.202 128 0 0
9.64049 51.982 36.1046 254 0 0
14.5807 40.8547 37.1924 214 255 41
3.58537 58.4961 37.3355 158 0 0
7.24805 57.5251 34.9055 190 0 0
6.28276 52.7755 38.6828 163 0 0
13.8425 35.8811 40.5665 0 210 255
5.61551 68.1226 28.789 115 255 140
7.96978 62.2323 30.8474 201 255 54
10.3454 56.4174 32.3063 255 232 0
12.6475 50.9848 33.2036 255 194 0
5.35694 47.4664 42.241 57 255 198
8.90039 47.0573 39.7063 255 187 0
12.0498 46.3203 37.0072 217 0 0
15.0467 45.4566 33.669 255 224 0
0.939901 53.4498 42.0461 107 255 148
-0.363103 56.3559 41.2995 0 230 255
1.32895 56.3924 40.1749 255 141 0
1.81482 59.0501 38.2755 223 255 32
3.17322 55.902 39.1945 148 0 0
4.98613 55.705 37.9786 162 0 0
4.62051 53.0059 39.8171 177 0 0
2.81383 64.1144 34.2608 234 255 21
3.25652 66.5413 32.1775 110 255 145
5.04745 65.8847 31.0829 255 122 0
6.80817 65.1696 29.883 255 144 0
6.42356 62.8487 32.0078 162 0 0
8.44287 54.7379 35.5617 233 0 0
8.88486 56.9787 33.606 237 0 0
10.0267 54.0711 34.3192 255 24 0
11.4468 53.7902 32.7948 255 243 0
11.2248 51.5023 34.657 255 1 0
7.11653 47.2486 41.0675 189 255 66
12.8879 41.2603 38.9614 255 190 0
11.6786 43.8239 38.849 255 212 0
13.2738 43.5085 37.2684 206 0 0
13.5471 45.9224 35.4481 217 0 0
14.7633 43.3618 35.457 255 205 0
2.40475 61.5297 36.2963 215 255 40
4.08867 61.0867 35.2888 146 0 0
5.86405 60.6337 34.0921 152 0 0
5.43397 58.1307 36.1171 129 0 0
6.82141 55.1863 36.7931 172 0 0
8.05858 52.149 37.5393 205 0 0
12.5598 38.7536 40.5701 74 255 181
14.1514 38.4592 38.9917 217 255 38
7.42448 67.164 27.6415 0 223 255
7.55825 59.8279 33.0264 196 0 0
9.1326 59.2968 31.6813 190 255 65
11.8432 55.7895 30.7866 0 197 255
14.1933 50.223 31.4977 64 255 191
4.05995 50.4564 41.5926 190 255 65
5.78974 49.9523 40.6355 199 0 0
7.55462 49.8234 39.324 182 0 0
9.30605 49.5498 37.9221 220 0 0
10.0372 44.1121 40.2738 63 255 192
10.5299 46.5879 38.451 216 0 0
10.8762 49.1546 36.5646 212 0 0
12.4293 48.6373 35.0957 208 0 0
13.9554 48.1268 33.4015 209 0 0
15.3089 47.5265 31.7542 38 255 217
16.2272 42.788 33.6774 0 201 255
-1.09471 57.9363 40.8803 0 0 139
-0.159606 57.8677 40.298 0 0 139
13.2012 37.3173 40.5683 0 0 216
12.3842 37.4363 41.3418 0 0 174
13.0255 36.0001 41.34 0 0 174
4.99063 69.5395 28.2321 0 0 134
4.70283 68.4635 29.3862 0 0 134
5.88267 69.0897 27.7091 0 0 131
4.99063 69.5395 28.2321 0 0 131
6.52 67.6433 28.2153 0 0 220
6.78716 68.6105 27.1353 0 0 176
5.88267 69.0897 27.7091 0 0 176
8.25328 63.2057 29.7797 0 0 175
7.67247 64.6743 29.2975 0 0 175
7.38898 63.701 30.3652 0 0 218
8.78082 61.8677 30.1586 0 0 129
8.25328 63.2057 29.7797 0 0 129
10.493 57.5928 31.247 0 0 174
9.88662 59.0325 30.9346 0 0 174
9.73903 57.8571 31.9938 0 0 216
11.0943 56.1035 31.5464 0 0 220
11.2419 57.2788 30.4872 0 0 176
10.493 57.5928 31.247 0 0 176
12.8446 52.0131 32.1631 0 0 176
12.2443 53.4158 31.9587 0 0 176
12.0471 52.3875 32.9992 0 0 219
13.4204 50.6039 32.3506 0 0 219
13.6175 51.6322 31.3101 0 0 176
12.8446 52.0131 32.1631 0 0 176
10.6632 42.7223 40.4104 0 0 129
9.82887 42.867 41.0834 0 0 129
16.8123 41.4984 33.5947 0 0 131
16.0984 41.6608 34.5899 0 0 131
0.288399 54.9028 41.6728 0 0 225
-0.679387 54.9889 42.2307 0 0 180
-0.027885 53.5359 42.604 0 0 180
0.686418 57.8859 39.7357 0 0 177
-0.159606 57.8677 40.298 0 0 177
0.482921 56.3741 40.7372 0 0 220
1.57188 57.7212 39.2252 0 0 216
0.929357 59.2148 38.786 0 0 174
0.686418 57.8859 39.7357 0 0 174
13.5902 34.6162 41.368 0 0 130
13.0255 36.0001 41.34 0 0 130
2.17302 65.5662 33.7414 0 0 176
1.25501 65.8283 34.2626 0 0 133
1.89582 64.3765 34.7821 0 0 176
2.39437 66.7796 32.6997 0 0 173
2.17302 65.5662 33.7414 0 0 173
3.03517 65.3278 33.2192 0 0 214
2.6001 67.9796 31.633 0 0 131
2.39437 66.7796 32.6997 0 0 131
3.52333 67.6728 31.0805 0 0 134
2.6001 67.9796 31.633 0 0 134
4.4188 67.3445 30.5332 0 0 177
3.52333 67.6728 31.0805 0 0 177
4.15198 66.213 31.6302 0 0 221
5.33148 67.0036 29.936 0 0 227
4.70283 68.4635 29.3862 0 0 181
4.4188 67.3445 30.5332 0 0 181
6.9392 45.879 41.8912 0 0 174
6.23673 47.3575 41.6543 0 0 216
6.0594 45.9879 42.4779 0 0 174
7.7399 45.8765 41.2831 0 0 128
6.9392 45.879 41.8912 0 0 128
8.63183 45.7809 40.6024 0 0 173
8.00846 47.1529 40.3869 0 0 215
7.7399 45.8765 41.2831 0 0 173
12.2832 42.5421 38.9052 0 0 207
11.484 42.5782 39.698 0 0 168
12.0886 41.2964 39.7542 0 0 168
-1.29334 56.5528 41.7864 0 0 179
-1.60963 55.1859 42.7175 0 0 134
-0.679387 54.9889 42.2307 0 0 179
-1.29334 56.5528 41.7864 0 0 135
-1.09471 57.9363 40.8803 0 0 135
1.19951 60.5029 37.8097 0 0 131
0.929357 59.2148 38.786 0 0 131
1.49447 61.7427 36.8201 0 0 175
1.19951 60.5029 37.8097 0 0 175
2.10979 60.2899 37.2859 0 0 217
1.69128 63.0842 35.7998 0 0 135
1.49447 61.7427 36.8201 0 0 135
2.60929 62.822 35.2786 0 0 226
1.89582 64.3765 34.7821 0 0 180
1.69128 63.0842 35.7998 0 0 180
11.719 38.8044 41.3422 0 0 131
12.3842 37.4363 41.3418 0 0 131
11.9246 40.043 40.5585 0 0 129
11.719 38.8044 41.3422 0 0 129
12.7238 40.0069 39.7657 0 0 208
12.0886 41.2964 39.7542 0 0 168
11.9246 40.043 40.5585 0 0 168
7.61162 68.1672 26.5926 0 0 130
6.78716 68.6105 27.1353 0 0 130
8.19865 66.7779 27.0323 0 0 167
8.38579 67.7811 25.9834 0 0 128
7.61162 68.1672 26.5926 0 0 167
7.98063 65.6715 28.1768 0 0 178
7.11632 66.1668 28.7622 0 0 222
7.67247 64.6743 29.2975 0 0 178
8.19865 66.7779 27.0323 0 0 132
7.98063 65.6715 28.1768 0 0 132
9.36223 60.3999 30.5756 0 0 177
8.78082 61.8677 30.1586 0 0 177
8.55119 60.7646 31.2644 0 0 220
9.36223 60.3999 30.5756 0 0 130
9.88662 59.0325 30.9346 0 0 130
12.0025 56.8331 29.7473 0 0 132
11.2419 57.2788 30.4872 0 0 132
12.5659 55.5367 29.8879 0 0 130
12.0025 56.8331 29.7473 0 0 130
12.4425 54.4155 30.9545 0 0 173
11.645 54.7898 31.7907 0 0 215
12.2443 53.4158 31.9587 0 0 173
12.5659 55.5367 29.8879 0 0 133
12.4425 54.4155 30.9545 0 0 133
14.2852 51.2809 30.5163 0 0 129
13.6175 51.6322 31.3101 0 0 129
14.8694 49.9119 30.6013 0 0 130
14.2852 51.2809 30.5163 0 0 130
0.659123 52.1341 42.8937 0 0 133
-0.027885 53.5359 42.604 0 0 133
1.60877 51.9633 42.3939 0 0 133
0.659123 52.1341 42.8937 0 0 133
2.52528 51.8861 41.8421 0 0 178
1.85641 53.3725 41.4943 0 0 221
1.60877 51.9633 42.3939 0 0 178
3.16879 50.4667 42.1671 0 0 174
3.41644 51.8759 41.2676 0 0 216
2.52528 51.8861 41.8421 0 0 174
3.83967 49.0421 42.4509 0 0 132
3.16879 50.4667 42.1671 0 0 132
4.48817 47.5471 42.775 0 0 173
4.70844 48.9614 41.9168 0 0 215
3.83967 49.0421 42.4509 0 0 173
5.16427 46.0656 43.053 0 0 131
4.48817 47.5471 42.775 0 0 131
6.0594 45.9879 42.4779 0 0 132
5.16427 46.0656 43.053 0 0 132
9.20022 44.3083 40.8862 0 0 129
9.82887 42.867 41.0834 0 0 129
9.46878 45.5847 39.99 0 0 212
8.63183 45.7809 40.6024 0 0 171
9.20022 44.3083 40.8862 0 0 171
10.8579 43.968 39.5614 0 0 210
10.6632 42.7223 40.4104 0 0 170
11.484 42.5782 39.698 0 0 170
15.4272 48.5637 30.7296 0 0 170
14.8694 49.9119 30.6013 0 0 170
14.7511 48.8748 31.6259 0 0 211
14.3859 34.5968 40.5274 0 0 129
13.5902 34.6162 41.368 0 0 129
14.6591 35.8222 39.6506 0 0 131
14.3859 34.5968 40.5274 0 0 131
14.8135 37.1112 38.8631 0 0 177
13.9969 37.1702 39.7791 0 0 221
14.6591 35.8222 39.6506 0 0 177
14.9377 38.322 38.0865 0 0 131
14.8135 37.1112 38.8631 0 0 131
15.1524 39.5197 37.1868 0 0 174
14.366 39.6569 38.0921 0 0 216
14.9377 38.322 38.0865 0 0 174
15.2751 40.6942 36.3474 0 0 128
15.1524 39.5197 37.1868 0 0 128
15.3664 41.9477 35.4797 0 0 171
14.672 42.1082 36.3247 0 0 212
15.2751 40.6942 36.3474 0 0 171
15.4952 43.0749 34.5672 0 0 215
15.3664 41.9477 35.4797 0 0 174
16.0984 41.6608 34.5899 0 0 174
16.9515 42.5751 32.6124 0 0 133
16.8123 41.4984 33.5947 0 0 133
16.3089 43.8811 32.7696 0 0 133
16.9515 42.5751 32.6124 0 0 133
15.7187 45.2154 32.7654 0 0 168
15.637 44.1223 33.6732 0 0 207
16.3089 43.8811 32.7696 0 0 168
15.8498 46.2503 31.808 0 0 165
15.1778 46.4916 32.7116 0 0 203
15.7187 45.2154 32.7654 0 0 165
15.9549 47.2557 30.8333 0 0 128
15.8498 46.2503 31.808 0 0 128
15.4272 48.5637 30.7296 0 0 129
15.9549 47.2557 30.8333 0 0 129
3 0 18 16
3 0 20 18
3 0 22 20
3 1 24 23
3 1 25 24
3 1 27 25
3 2 30 28
3 2 32 30
3 3 36 34
3 3 38 36
3 64 63 17
3 4 39 19
3 4 40 39
3 4 42 40
3 6 43 21
3 6 44 43
3 7 65 67
3 65 45 66
3 65 66 67
3 7 46 45
3 8 68 69
3 8 70 71
3 8 72 74
3 72 47 73
3 72 73 74
3 9 75 77
3 77 76 26
3 75 76 77
3 9 78 79
3 5 48 41
3 10 49 29
3 10 80 82
3 82 81 49
3 80 81 82
3 10 83 85
3 83 50 84
3 83 84 85
3 11 86 88
3 88 87 31
3 86 87 88
3 11 89 91
3 89 51 90
3 89 90 91
3 12 53 52
3 13 54 33
3 13 55 54
3 92 56 93
3 14 57 35
3 14 58 57
3 14 59 58
3 15 60 37
3 15 61 60
3 94 62 95
3 16 96 98
3 96 17 97
3 96 97 98
3 18 17 16
3 18 99 101
3 101 100 17
3 99 100 101
3 18 102 104
3 102 19 103
3 102 103 104
3 20 19 18
3 20 4 19
3 20 21 4
3 22 21 20
3 22 6 21
3 105 7 106
3 23 107 109
3 107 108 109
3 24 110 112
3 112 111 23
3 110 111 112
3 24 113 114
3 24 115 116
3 25 117 119
3 119 118 24
3 117 118 119
3 25 120 122
3 120 8 121
3 120 121 122
3 25 26 8
3 27 26 25
3 27 9 26
3 28 29 5
3 30 29 28
3 30 10 29
3 30 31 10
3 32 31 30
3 32 11 31
3 123 33 124
3 125 124 12
3 123 124 125
3 126 33 127
3 128 13 129
3 130 129 33
3 128 129 130
3 34 131 133
3 131 35 132
3 131 132 133
3 36 35 34
3 36 14 35
3 36 37 14
3 38 37 36
3 38 15 37
3 17 134 136
3 134 135 136
3 138 137 17
3 19 139 140
3 39 141 143
3 143 142 19
3 141 142 143
3 39 144 145
3 39 146 148
3 146 23 147
3 146 147 148
3 40 23 39
3 40 1 23
3 40 41 1
3 42 41 40
3 42 5 41
3 21 42 4
3 43 42 21
3 43 5 42
3 43 28 5
3 44 28 43
3 44 2 28
3 45 149 150
3 45 151 152
3 45 153 155
3 153 34 154
3 153 154 155
3 46 34 45
3 46 3 34
3 47 156 157
3 47 158 160
3 158 159 160
3 26 47 8
3 161 47 162
3 163 162 26
3 161 162 163
3 165 164 47
3 41 27 1
3 48 27 41
3 48 9 27
3 29 48 5
3 49 48 29
3 49 9 48
3 49 166 168
3 168 167 9
3 166 167 168
3 170 169 49
3 50 171 172
3 50 173 174
3 31 50 10
3 175 50 176
3 177 176 31
3 175 176 177
3 179 178 50
3 51 180 181
3 51 182 183
3 184 16 185
3 186 16 187
3 188 0 189
3 190 189 16
3 188 189 190
3 191 52 192
3 193 192 0
3 191 192 193
3 194 52 195
3 196 12 197
3 198 197 52
3 196 197 198
3 199 12 200
3 202 201 12
3 52 22 0
3 53 22 52
3 53 6 22
3 33 53 12
3 54 53 33
3 54 6 53
3 54 44 6
3 55 44 54
3 55 2 44
3 56 203 204
3 56 205 207
3 205 13 206
3 205 206 207
3 35 208 210
3 208 56 209
3 208 209 210
3 57 56 35
3 57 13 56
3 57 55 13
3 58 55 57
3 58 2 55
3 58 32 2
3 59 32 58
3 59 11 32
3 37 59 14
3 60 59 37
3 60 11 59
3 60 51 11
3 61 51 60
3 61 211 213
3 213 212 51
3 211 212 213
3 214 7 215
3 216 7 217
3 218 46 219
3 220 219 7
3 218 219 220
3 221 46 222
3 223 3 224
3 225 224 46
3 223 224 225
3 226 3 227
3 228 38 229
3 230 229 3
3 228 229 230
3 62 231 233
3 231 38 232
3 231 232 233
3 62 15 38
3 234 62 235
3 236 62 237
3 238 15 239
3 240 239 62
3 238 239 240
3 241 61 242
3 243 242 15
3 241 242 243
3 244 61 245
3 247 246 61
