ply
format ascii 1.0
element vertex 231
property float x
property float y
property float z
property uchar red
property uchar green
property uchar blue
element face 210
property list uchar int vertex_index
end_header
6.13366 10.6707 54.3679 128 0 0
-0.85126 10.3976 59.4324 220 0 0
13.3818 11.5068 48.1805 112 255 143
-6.57824 7.03854 64.0279 80 255 175
-4.2389 10.5182 61.734 255 181 0
-3.29483 6.38207 61.9753 255 0 0
9.84403 11.0344 51.3777 145 0 0
7.41771 6.46936 54.2193 97 255 158
2.53293 10.4509 57.04 170 0 0
3.75078 6.1516 57.0513 230 255 25
0.175642 6.07508 59.6331 243 0 0
15.162 16.2271 45.4734 0 136 255
-6.16138 12.2975 62.5851 0 90 255
-6.65144 9.16206 63.6332 0 169 255
-5.64004 10.6259 62.6485 56 255 199
-5.26965 8.76338 62.8129 255 195 0
-4.72072 12.4414 61.5973 147 255 108
8.05403 10.8423 52.8597 130 0 0
8.6205 8.77475 52.8227 255 155 0
6.86553 8.59605 54.2377 157 0 0
5.5137 12.8274 54.3593 241 255 14
7.30642 12.9747 52.9872 255 253 0
9.04332 13.1419 51.5926 255 111 0
0.825066 10.4031 58.2595 209 0 0
1.45788 8.21583 58.2903 209 0 0
-0.256318 8.21816 59.499 224 0 0
-4.74854 4.42729 63.325 170 255 85
-3.01295 4.20266 62.1926 179 255 76
-1.50399 12.5396 59.378 185 255 70
0.285477 12.6443 58.1125 209 255 46
1.9779 12.7035 56.9164 223 255 32
12.6092 13.5245 48.4782 252 255 3
14.2945 13.8106 46.846 0 252 255
-6.42817 5.06048 64.3131 20 255 235
-2.58254 10.4354 60.622 255 52 0
-2.05515 8.35088 60.7194 253 0 0
-3.72209 8.58452 61.8102 255 89 0
-4.94853 6.67711 63.0315 255 63 0
-3.80099 14.6256 60.4066 0 192 255
-3.1813 12.421 60.5603 223 255 32
11.6083 11.2537 49.8315 255 159 0
10.4975 9.09107 51.213 100 255 155
10.073 15.4947 50.249 24 255 231
10.8898 13.2536 50.0436 255 116 0
4.32092 10.5409 55.7343 169 0 0
5.05117 8.44919 55.6375 171 0 0
3.28624 8.33751 56.9533 171 0 0
1.90684 6.14987 58.3884 255 189 0
0.549561 3.98103 59.7531 73 255 182
-1.55581 6.21871 60.814 238 0 0
-1.23238 4.10265 60.9814 179 255 76
3.77133 12.7238 55.6425 239 255 16
5.60857 6.40831 55.6208 224 255 31
-6.44665 11.519 62.9604 0 0 128
-6.86719 12.0339 63.0988 0 0 128
-7.25958 9.55739 63.9284 0 0 128
-6.69168 9.95125 63.4845 0 0 128
-6.69168 9.95125 63.4845 0 0 144
-6.14574 9.89396 63.1409 0 0 162
-6.18598 10.6831 62.9921 0 0 144
-6.18598 10.6831 62.9921 0 0 145
-5.90071 11.4617 62.6168 0 0 164
-6.44665 11.519 62.9604 0 0 145
-4.6667 3.36242 63.4475 0 0 146
-5.5532 3.63317 63.9857 0 0 146
13.6362 10.5072 48.1385 0 0 150
14.2262 11.6409 47.3464 0 0 150
14.2262 11.6409 47.3464 0 0 195
14.6826 12.7928 46.6792 0 0 195
13.8382 12.6587 47.5133 0 0 239
-7.31327 6.31374 64.6328 0 0 172
-7.23823 5.32471 64.7754 0 0 172
-6.50321 6.04951 64.1705 0 0 204
-4.61632 14.5747 60.962 0 0 145
-4.24898 15.6577 60.4104 0 0 145
8.33232 6.64952 53.4522 0 0 192
8.93371 7.80221 52.7539 0 0 192
8.0191 7.62206 53.521 0 0 234
7.69745 5.55473 54.1678 0 0 148
8.33232 6.64952 53.4522 0 0 148
9.18769 15.4861 50.9591 0 0 154
9.65615 16.6567 50.3237 0 0 154
-1.95731 3.16321 61.6377 0 0 181
-2.12267 4.15266 61.587 0 0 218
-2.84759 3.21322 62.2433 0 0 181
-1.04872 3.00672 61.0334 0 0 149
-1.95731 3.16321 61.6377 0 0 149
14.7555 17.3488 45.6186 0 0 154
14.3429 16.1403 46.2858 0 0 154
15.601 17.4606 44.7371 0 0 157
14.7555 17.3488 45.6186 0 0 157
16.0093 16.3271 44.576 0 0 158
15.601 17.4606 44.7371 0 0 158
-6.57669 13.1821 62.616 0 0 139
-6.86719 12.0339 63.0988 0 0 139
-5.79651 13.4107 62.0512 0 0 174
-6.21182 14.2954 62.0821 0 0 141
-6.57669 13.1821 62.616 0 0 174
-7.32589 8.48126 64.2009 0 0 169
-7.28929 7.4195 64.3983 0 0 169
-6.61484 8.1003 63.8306 0 0 199
-7.32589 8.48126 64.2009 0 0 136
-7.25958 9.55739 63.9284 0 0 136
-5.44105 12.3694 62.0912 0 0 206
-5.07618 13.4827 61.5573 0 0 173
-5.79651 13.4107 62.0512 0 0 173
6.01082 14.0113 53.725 0 0 154
5.1175 14.0197 54.3712 0 0 154
6.90718 14.085 53.039 0 0 197
6.01082 14.0113 53.725 0 0 197
6.41006 12.9011 53.6732 0 0 241
7.80441 14.2261 52.3282 0 0 154
6.90718 14.085 53.039 0 0 154
8.17487 13.0583 52.2899 0 0 246
8.67286 14.3096 51.6309 0 0 200
7.80441 14.2261 52.3282 0 0 200
-3.7989 3.25011 62.8813 0 0 184
-3.88075 4.31498 62.7588 0 0 222
-4.6667 3.36242 63.4475 0 0 184
-2.84759 3.21322 62.2433 0 0 147
-3.7989 3.25011 62.8813 0 0 147
-0.984134 13.6935 58.7269 0 0 149
-1.8322 13.6505 59.3182 0 0 149
-0.0894 13.7458 58.0942 0 0 194
-0.984134 13.6935 58.7269 0 0 194
-0.609258 12.592 58.7453 0 0 236
0.7613 13.829 57.4885 0 0 149
-0.0894 13.7458 58.0942 0 0 149
1.13169 12.6739 57.5144 0 0 234
1.60751 13.8586 56.8905 0 0 192
0.7613 13.829 57.4885 0 0 192
4.0639 5.13922 57.0087 0 0 151
3.08968 5.14229 57.7193 0 0 151
13.0665 14.789 47.7881 0 0 156
12.2193 14.6633 48.5839 0 0 156
13.9092 14.9321 46.972 0 0 203
13.0665 14.789 47.7881 0 0 203
13.4519 13.6675 47.6621 0 0 250
14.7283 15.0188 46.1597 0 0 246
14.3429 16.1403 46.2858 0 0 200
13.9092 14.9321 46.972 0 0 200
15.1453 13.9658 45.9701 0 0 202
15.579 15.174 45.2838 0 0 202
14.7283 15.0188 46.1597 0 0 248
15.1453 13.9658 45.9701 0 0 153
14.6826 12.7928 46.6792 0 0 153
-7.18795 4.24541 64.9329 0 0 144
-6.39302 3.94976 64.4798 0 0 144
-7.18795 4.24541 64.9329 0 0 144
-7.23823 5.32471 64.7754 0 0 144
-7.31327 6.31374 64.6328 0 0 141
-7.28929 7.4195 64.3983 0 0 141
-6.39302 3.94976 64.4798 0 0 184
-5.5532 3.63317 63.9857 0 0 184
-5.58836 4.74388 63.8191 0 0 222
-3.3875 15.8873 59.7714 0 0 150
-4.24898 15.6577 60.4104 0 0 150
-2.9807 14.6935 59.8324 0 0 151
-3.3875 15.8873 59.7714 0 0 151
-4.26086 13.5335 61.0019 0 0 217
-4.61632 14.5747 60.962 0 0 181
-5.07618 13.4827 61.5573 0 0 181
-2.67085 13.5912 59.9093 0 0 186
-2.9807 14.6935 59.8324 0 0 186
-3.49115 13.5233 60.4835 0 0 225
-2.34265 12.4803 59.9692 0 0 229
-1.8322 13.6505 59.3182 0 0 189
-2.67085 13.5912 59.9093 0 0 189
11.9106 10.2699 49.7564 0 0 193
12.7974 10.3964 48.931 0 0 193
12.4951 11.3803 49.006 0 0 235
11.3552 9.18854 50.4472 0 0 188
11.9106 10.2699 49.7564 0 0 188
11.0529 10.1724 50.5222 0 0 228
10.7511 8.03797 51.1959 0 0 151
11.3552 9.18854 50.4472 0 0 151
9.8722 7.96037 51.949 0 0 194
9.55898 8.93291 52.0178 0 0 237
8.93371 7.80221 52.7539 0 0 194
10.7511 8.03797 51.1959 0 0 151
9.8722 7.96037 51.949 0 0 151
10.5377 16.7994 49.5691 0 0 157
9.65615 16.6567 50.3237 0 0 157
10.9512 15.6484 49.4693 0 0 157
10.5377 16.7994 49.5691 0 0 157
9.55816 14.3183 50.9208 0 0 246
9.18769 15.4861 50.9591 0 0 200
8.67286 14.3096 51.6309 0 0 200
11.3596 14.5279 49.3665 0 0 203
10.9512 15.6484 49.4693 0 0 203
10.4814 14.3742 50.1463 0 0 251
11.7495 13.3891 49.2609 0 0 251
12.2193 14.6633 48.5839 0 0 203
11.3596 14.5279 49.3665 0 0 203
2.16771 5.14142 58.3879 0 0 188
3.08968 5.14229 57.7193 0 0 188
2.82881 6.15073 57.7199 0 0 227
1.48907 4.057 59.0702 0 0 190
2.16771 5.14142 58.3879 0 0 190
1.2282 5.06545 59.0708 0 0 231
0.782208 2.93671 59.7619 0 0 151
1.48907 4.057 59.0702 0 0 151
-0.157747 2.94591 60.4193 0 0 190
-0.341411 4.04184 60.3672 0 0 230
-1.04872 3.00672 61.0334 0 0 190
0.782208 2.93671 59.7619 0 0 150
-0.157747 2.94591 60.4193 0 0 150
2.44262 13.8629 56.3116 0 0 149
1.60751 13.8586 56.8905 0 0 149
3.33934 13.873 55.6746 0 0 196
2.44262 13.8629 56.3116 0 0 196
2.87462 12.7137 56.2794 0 0 240
4.24632 13.968 55.0128 0 0 155
3.33934 13.873 55.6746 0 0 155
4.64252 12.7756 55.0009 0 0 244
5.1175 14.0197 54.3712 0 0 199
4.24632 13.968 55.0128 0 0 199
13.6362 10.5072 48.1385 0 0 149
12.7974 10.3964 48.931 0 0 149
4.9928 5.26758 56.2934 0 0 193
4.67967 6.27996 56.336 0 0 235
4.0639 5.13922 57.0087 0 0 193
5.86194 5.34958 55.625 0 0 149
4.9928 5.26758 56.2934 0 0 149
6.7665 5.3801 54.9242 0 0 192
6.51314 6.43884 54.92 0 0 234
5.86194 5.34958 55.625 0 0 192
7.69745 5.55473 54.1678 0 0 148
6.7665 5.3801 54.9242 0 0 148
16.0093 16.3271 44.576 0 0 155
15.579 15.174 45.2838 0 0 155
3 53 12 54
3 56 55 13
3 57 13 58
3 59 58 14
3 57 58 59
3 60 14 61
3 62 61 12
3 60 61 62
3 0 19 17
3 0 21 20
3 0 17 21
3 1 25 23
3 64 63 26
3 1 29 28
3 1 23 29
3 2 65 66
3 2 32 31
3 2 67 69
3 69 68 32
3 67 68 69
3 3 70 72
3 72 71 33
3 70 71 72
3 4 36 34
3 3 37 15
3 3 33 37
3 73 38 74
3 4 39 16
3 4 34 39
3 6 41 40
3 7 75 77
3 77 76 18
3 75 76 77
3 7 78 79
3 80 42 81
3 6 43 22
3 6 40 43
3 8 46 44
3 10 47 24
3 10 48 47
3 5 49 35
3 82 50 83
3 84 83 27
3 82 83 84
3 86 85 50
3 8 51 30
3 8 44 51
3 9 52 45
3 11 87 88
3 11 89 90
3 11 91 92
3 12 93 94
3 12 95 97
3 95 96 97
3 13 98 100
3 100 99 3
3 98 99 100
3 102 101 13
3 14 15 4
3 13 15 14
3 13 3 15
3 12 103 105
3 103 16 104
3 103 104 105
3 14 16 12
3 14 4 16
3 17 18 6
3 19 18 17
3 19 7 18
3 20 106 107
3 21 108 110
3 110 109 20
3 108 109 110
3 21 111 112
3 21 113 115
3 113 22 114
3 113 114 115
3 17 22 21
3 17 6 22
3 23 24 8
3 25 24 23
3 25 10 24
3 26 27 5
3 116 27 117
3 118 117 26
3 116 117 118
3 120 119 27
3 28 121 122
3 29 123 125
3 125 124 28
3 123 124 125
3 29 126 127
3 29 128 130
3 128 30 129
3 128 129 130
3 23 30 29
3 23 8 30
3 132 131 9
3 31 133 134
3 32 135 137
3 137 136 31
3 135 136 137
3 32 138 140
3 138 11 139
3 138 139 140
3 32 141 143
3 143 142 11
3 141 142 143
3 145 144 32
3 33 146 147
3 149 148 33
3 151 150 3
3 34 35 1
3 36 35 34
3 36 5 35
3 15 36 4
3 37 36 15
3 37 5 36
3 37 26 5
3 33 26 37
3 33 152 154
3 154 153 26
3 152 153 154
3 38 155 156
3 38 157 158
3 16 159 161
3 159 38 160
3 159 160 161
3 39 38 16
3 39 162 164
3 164 163 38
3 162 163 164
3 39 165 167
3 165 28 166
3 165 166 167
3 34 28 39
3 34 1 28
3 40 168 170
3 170 169 2
3 168 169 170
3 41 171 173
3 173 172 40
3 171 172 173
3 41 174 175
3 18 41 6
3 176 41 177
3 178 177 18
3 176 177 178
3 180 179 41
3 42 181 182
3 42 183 184
3 22 185 187
3 185 42 186
3 185 186 187
3 43 42 22
3 43 188 190
3 190 189 42
3 188 189 190
3 43 191 193
3 191 31 192
3 191 192 193
3 40 31 43
3 40 2 31
3 44 45 0
3 46 45 44
3 46 9 45
3 24 46 8
3 47 46 24
3 47 9 46
3 47 194 196
3 196 195 9
3 194 195 196
3 48 197 199
3 199 198 47
3 197 198 199
3 48 200 201
3 35 25 1
3 49 25 35
3 49 10 25
3 27 49 5
3 50 49 27
3 50 10 49
3 50 48 10
3 202 48 203
3 204 203 50
3 202 203 204
3 206 205 48
3 30 207 208
3 51 209 211
3 211 210 30
3 209 210 211
3 51 212 213
3 51 214 216
3 214 20 215
3 214 215 216
3 44 20 51
3 44 0 20
3 218 217 2
3 45 19 0
3 52 19 45
3 52 7 19
3 219 52 220
3 221 220 9
3 219 220 221
3 222 52 223
3 224 7 225
3 226 225 52
3 224 225 226
3 228 227 7
3 230 229 11
