ply
format ascii 1.0
element vertex 158
property float x
property float y
property float z
property uchar red
property uchar green
property uchar blue
element face 128
property list uchar int vertex_index
end_header
17.9931 24.871 -9.89077 255 228 0
22.8414 22.7804 -7.35662 255 239 0
20.1953 23.9255 -8.57691 255 108 0
16.2337 26.1678 -11.5535 37 255 218
16.8066 19.1478 -10.2277 0 249 255
18.4722 18.1765 -8.68967 132 255 123
20.7402 17.1243 -7.33699 97 255 158
14.6972 23.9887 -13.9891 0 64 255
15.1731 23.8098 -12.8453 0 54 255
17.0472 25.5542 -10.6956 165 255 90
16.4145 22.4404 -10.9078 246 255 9
17.2513 22.1654 -10.0627 255 56 0
17.5635 18.6704 -9.42926 103 255 152
18.1603 21.5068 -9.30426 255 33 0
21.4935 23.3401 -7.94933 255 90 0
20.3962 20.4316 -7.96809 128 0 0
21.703 19.992 -7.36568 255 113 0
22.991 19.388 -6.7912 255 218 0
18.9205 27.8939 -9.83298 0 229 255
19.0406 24.4172 -9.20855 255 185 0
21.3405 26.8866 -8.54385 6 255 249
15.767 23.1294 -11.7998 0 155 255
19.1969 20.9281 -8.61337 205 0 0
19.5432 17.5982 -7.9799 179 255 76
24.1655 22.2549 -6.79373 174 255 81
24.4221 18.7026 -6.16378 40 255 215
14.8049 25.5673 -13.7696 0 0 135
14.5555 25.6462 -14.3425 0 0 135
15.0428 25.4778 -13.1977 0 0 173
14.9352 23.8992 -13.4172 0 0 212
14.8049 25.5673 -13.7696 0 0 173
17.5202 25.2126 -10.2932 0 0 223
17.47 27.1081 -10.641 0 0 181
17.9429 26.7665 -10.2385 0 0 181
19.4385 29.4594 -9.83524 0 0 141
18.9075 29.8112 -10.1836 0 0 141
19.5305 27.6842 -9.4939 0 0 142
19.4385 29.4594 -9.83524 0 0 142
21.9031 28.3552 -8.52949 0 0 142
21.2495 28.579 -8.84555 0 0 142
21.978 26.4803 -8.23143 0 0 145
21.9031 28.3552 -8.52949 0 0 145
16.1298 27.8936 -11.9523 0 0 136
16.5758 27.64 -11.4758 0 0 136
15.8754 26.3492 -12.0197 0 0 132
16.1298 27.8936 -11.9523 0 0 132
16.0004 24.6486 -11.6767 0 0 205
15.642 24.83 -12.1429 0 0 168
15.8754 26.3492 -12.0197 0 0 168
16.4645 19.3922 -10.6972 0 0 162
16.2684 21.0385 -11.0373 0 0 162
16.6106 20.7941 -10.5678 0 0 196
16.6883 17.8067 -10.4196 0 0 128
16.4645 19.3922 -10.6972 0 0 128
17.0167 17.5765 -9.94232 0 0 128
16.6883 17.8067 -10.4196 0 0 128
18.2355 16.7809 -8.75184 0 0 163
17.7811 17.0279 -9.12164 0 0 163
18.0178 18.4235 -9.05947 0 0 197
18.6919 16.5201 -8.37066 0 0 130
18.2355 16.7809 -8.75184 0 0 130
20.3206 15.7736 -7.36478 0 0 174
19.7221 16.0105 -7.68624 0 0 174
20.1417 17.3613 -7.65844 0 0 214
20.9085 15.4414 -7.02332 0 0 136
20.3206 15.7736 -7.36478 0 0 136
24.9076 21.9025 -6.46475 0 0 147
24.7803 23.632 -6.74476 0 0 147
25.0359 20.1263 -6.14978 0 0 202
24.2938 20.4788 -6.47876 0 0 255
24.9076 21.9025 -6.46475 0 0 202
14.5063 24.2384 -14.6333 0 0 135
14.5555 25.6462 -14.3425 0 0 135
14.7105 22.7224 -14.3077 0 0 132
14.5063 24.2384 -14.6333 0 0 132
14.8879 22.5008 -13.668 0 0 131
14.7105 22.7224 -14.3077 0 0 131
15.1258 22.4114 -13.0961 0 0 165
14.8879 22.5008 -13.668 0 0 165
14.9352 23.8992 -13.4172 0 0 199
15.3623 22.1353 -12.5178 0 0 132
15.1258 22.4114 -13.0961 0 0 132
16.9825 27.3333 -11.0468 0 0 137
17.47 27.1081 -10.641 0 0 137
16.6405 25.861 -11.1246 0 0 208
16.5758 27.64 -11.4758 0 0 171
16.9825 27.3333 -11.0468 0 0 171
21.8706 18.2421 -7.03389 0 0 187
21.3892 16.8083 -7.01954 0 0 187
21.2216 18.5582 -7.35133 0 0 233
22.5145 17.9401 -6.74665 0 0 186
21.8706 18.2421 -7.03389 0 0 186
22.347 19.69 -7.07844 0 0 231
23.1749 17.6632 -6.45002 0 0 141
22.5145 17.9401 -6.74665 0 0 141
18.4066 28.278 -10.2096 0 0 140
18.9075 29.8112 -10.1836 0 0 140
18.4568 26.3825 -9.86188 0 0 227
17.9429 26.7665 -10.2385 0 0 183
18.4066 28.278 -10.2096 0 0 183
19.5905 25.9459 -9.18168 0 0 187
18.9805 26.1556 -9.52076 0 0 233
19.5305 27.6842 -9.4939 0 0 187
20.1679 25.7 -8.86586 0 0 184
19.6179 24.1714 -8.89273 0 0 228
19.5905 25.9459 -9.18168 0 0 184
20.7405 27.1806 -8.84933 0 0 138
21.2495 28.579 -8.84555 0 0 138
20.7679 25.4061 -8.56038 0 0 231
20.1679 25.7 -8.86586 0 0 186
20.7405 27.1806 -8.84933 0 0 186
22.0545 24.707 -7.93417 0 0 188
21.417 25.1134 -8.24659 0 0 234
21.978 26.4803 -8.23143 0 0 188
22.7284 24.4272 -7.63782 0 0 186
22.1674 23.0603 -7.65297 0 0 231
22.0545 24.707 -7.93417 0 0 186
15.3451 25.1702 -12.6656 0 0 131
15.0428 25.4778 -13.1977 0 0 131
15.4701 23.4696 -12.3226 0 0 200
15.3451 25.1702 -12.6656 0 0 165
15.642 24.83 -12.1429 0 0 165
15.6593 21.7951 -11.9951 0 0 164
15.3623 22.1353 -12.5178 0 0 164
15.4701 23.4696 -12.3226 0 0 198
15.9447 21.383 -11.4832 0 0 161
16.0908 22.7849 -11.3538 0 0 193
16.2684 21.0385 -11.0373 0 0 161
15.6593 21.7951 -11.9951 0 0 129
15.9447 21.383 -11.4832 0 0 129
17.3952 17.3379 -9.54309 0 0 156
17.0167 17.5765 -9.94232 0 0 156
17.1851 18.9091 -9.82849 0 0 186
17.3952 17.3379 -9.54309 0 0 128
17.7811 17.0279 -9.12164 0 0 128
19.2274 16.2309 -8.01577 0 0 170
18.6919 16.5201 -8.37066 0 0 170
19.0077 17.8874 -8.33479 0 0 208
19.2274 16.2309 -8.01577 0 0 130
19.7221 16.0105 -7.68624 0 0 130
20.9085 15.4414 -7.02332 0 0 140
21.3892 16.8083 -7.01954 0 0 140
23.4307 24.2279 -7.34045 0 0 143
22.7284 24.4272 -7.63782 0 0 143
24.0928 23.9651 -7.05901 0 0 144
24.7803 23.632 -6.74476 0 0 144
23.5034 22.5177 -7.07518 0 0 235
23.4307 24.2279 -7.34045 0 0 188
24.0928 23.9651 -7.05901 0 0 188
23.8905 17.3205 -6.13631 0 0 193
23.1749 17.6632 -6.45002 0 0 193
23.7065 19.0453 -6.47749 0 0 242
25.1799 18.4253 -5.83868 0 0 148
25.0359 20.1263 -6.14978 0 0 148
24.5856 17.0601 -5.83432 0 0 146
25.1799 18.4253 -5.83868 0 0 146
23.8905 17.3205 -6.13631 0 0 142
24.5856 17.0601 -5.83432 0 0 142
3 26 7 27
3 28 8 29
3 30 29 7
3 28 29 30
3 0 31 33
3 31 9 32
3 31 32 33
3 0 11 9
3 0 13 11
3 1 16 14
3 1 17 16
3 34 18 35
3 37 36 18
3 38 20 39
3 41 40 20
3 3 42 43
3 3 44 45
3 3 46 48
3 46 21 47
3 46 47 48
3 4 49 51
3 51 50 10
3 49 50 51
3 4 52 53
3 4 54 55
3 5 56 58
3 58 57 12
3 56 57 58
3 5 59 60
3 2 22 19
3 6 23 15
3 6 61 63
3 63 62 23
3 61 62 63
3 6 64 65
3 66 24 67
3 68 25 69
3 70 69 24
3 68 69 70
3 7 71 72
3 7 73 74
3 7 75 76
3 8 77 79
3 79 78 7
3 77 78 79
3 8 80 81
3 9 82 83
3 9 84 86
3 84 3 85
3 84 85 86
3 9 10 3
3 11 10 9
3 11 4 10
3 11 12 4
3 13 12 11
3 13 5 12
3 14 15 2
3 16 15 14
3 16 6 15
3 16 87 89
3 89 88 6
3 87 88 89
3 17 90 92
3 92 91 16
3 90 91 92
3 17 93 94
3 18 95 96
3 18 97 99
3 97 0 98
3 97 98 99
3 18 19 0
3 100 19 101
3 102 101 18
3 100 101 102
3 103 2 104
3 105 104 19
3 103 104 105
3 20 106 107
3 20 108 110
3 108 2 109
3 108 109 110
3 20 14 2
3 111 14 112
3 113 112 20
3 111 112 113
3 114 1 115
3 116 115 14
3 114 115 116
3 117 8 118
3 21 119 121
3 119 8 120
3 119 120 121
3 21 122 124
3 124 123 8
3 122 123 124
3 10 21 3
3 125 21 126
3 127 126 10
3 125 126 127
3 129 128 21
3 12 130 132
3 132 131 4
3 130 131 132
3 134 133 12
3 19 13 0
3 22 13 19
3 22 5 13
3 15 22 2
3 23 22 15
3 23 5 22
3 23 135 137
3 137 136 5
3 135 136 137
3 139 138 23
3 141 140 6
3 142 1 143
3 24 144 145
3 24 146 148
3 146 1 147
3 146 147 148
3 24 17 1
3 25 17 24
3 25 149 151
3 151 150 17
3 149 150 151
3 152 25 153
3 154 25 155
3 157 156 25
