ply
format ascii 1.0
element vertex 301
property float x
property float y
property float z
property uchar red
property uchar green
property uchar blue
element face 298
property list uchar int vertex_index
end_header
-22.4161 42.8069 23.5589 255 114 0
-30.4117 47.6919 9.86476 128 255 127
-26.8062 46.6278 16.1816 88 255 167
-24.056 54.5539 9.89768 116 255 139
-30.0156 35.6964 22.4919 211 0 0
-22.6672 49.3243 23.3085 15 255 240
-23.5899 44.0585 18.273 255 146 0
-23.5773 50.2554 17.8542 69 255 186
-24.6547 37.2916 20.9837 255 103 0
-27.6673 40.4737 17.0595 255 144 0
-26.4471 47.8895 3.76762 156 255 99
-29.1478 46.1183 13.2864 178 255 77
-24.001 47.3595 8.41341 255 15 0
-24.8419 49.8645 13.8738 255 93 0
-34.9303 37.8775 27.1077 88 255 167
-32.7923 40.8718 20.3347 182 255 73
-31.0943 45.629 17.6617 12 255 243
-21.6181 53.2203 4.80793 129 255 126
-34.0792 33.3905 29.7578 0 129 255
-30.8845 33.2254 28.4726 90 255 165
-25.6013 33.3095 26.0108 255 43 0
-23.7664 38.7019 27.7721 197 0 0
-22.4532 46.1261 23.5958 255 233 0
-22.6173 44.3166 26.711 255 242 0
-22.9882 43.2873 20.8325 255 50 0
-22.6251 46.6128 20.8384 255 65 0
-22.9953 39.8048 21.834 255 20 0
-24.0252 40.6214 19.3182 255 120 0
-31.1751 48.6537 7.85965 17 255 238
-29.6159 48.1503 4.6342 0 234 255
-28.4067 46.7408 6.48634 255 74 0
-28.0915 46.4592 14.8606 42 255 213
-26.1369 46.607 12.972 255 232 0
-26.4065 48.2859 15.2935 122 255 133
-23.7579 52.8534 17.0801 0 134 255
-32.7602 36.5836 24.7792 242 0 0
-33.8238 39.043 23.6139 202 255 53
-31.2852 38.1715 21.2057 155 0 0
-26.844 43.2486 16.0893 255 205 0
-29.6991 42.6542 16.7341 255 153 0
-28.6181 45.7858 16.7853 165 255 90
-30.0574 47.1994 16.3954 0 222 255
-23.0782 50.8926 9.07247 176 0 0
-22.7092 49.9692 6.21336 255 30 0
-22.2358 53.7753 7.24656 255 181 0
-31.8798 33.2167 34.995 0 70 255
-33.386 31.8179 31.7983 0 143 255
-31.9161 33.0035 31.8776 0 137 255
-32.6101 33.9246 29.8903 0 245 255
-26.4959 33.1671 29.5646 0 243 255
-25.1175 34.93 29.2586 89 255 166
-23.9209 35.7027 26.3499 255 6 0
-24.8426 37.5005 29.991 106 255 149
-25.1186 40.6461 31.1128 13 255 242
-24.7215 45.2177 16.5654 255 244 0
-25.1799 48.2474 16.9559 142 255 113
-23.0434 47.2857 18.2124 255 165 0
-22.5583 49.8741 20.5095 112 255 143
-27.1137 35.9233 21.2021 255 74 0
-28.5431 37.85 19.3125 253 0 0
-25.9373 38.7559 18.7189 255 127 0
-25.0184 41.8051 17.0354 255 196 0
-30.6253 49.6136 3.31195 0 0 255
-25.0066 49.679 2.25055 0 97 255
-29.9832 46.7008 11.7315 144 255 111
-27.1548 46.0625 8.66887 255 69 0
-26.4347 45.8132 10.9671 255 157 0
-23.904 48.2568 11.1943 255 0 0
-23.7612 52.12 12.0596 255 174 0
-25.2368 50.6253 16.5349 156 255 99
-24.7514 53.0682 15.2789 53 255 202
-30.4703 40.5677 18.1506 255 42 0
-32.4656 43.0699 17.8883 90 255 165
-31.4748 47.8151 15.0467 0 163 255
-25.0204 47.147 5.85263 255 81 0
-23.5914 49.8712 4.09966 158 255 97
-20.9932 57.0283 5.80935 0 201 255
-34.9985 35.8869 28.8306 0 215 255
-33.0837 35.1673 27.1905 255 158 0
-30.7592 33.9984 25.1998 253 0 0
-28.3345 32.5574 26.7656 255 237 0
-27.5882 33.6561 23.4451 255 6 0
-24.7154 34.8468 22.9603 255 47 0
-22.959 37.3951 23.7537 231 0 0
-22.4375 40.3713 25.5399 128 0 0
-23.6758 42.098 28.992 255 251 0
-31.6537 48.928 10.8337 0 0 147
-31.5052 48.2791 11.7521 0 0 147
-30.7934 48.1728 8.8622 0 0 223
-32.0354 49.4089 9.83113 0 0 186
-31.6537 48.928 10.8337 0 0 186
-31.17 33.7084 34.7298 0 0 130
-31.111 33.5733 36.145 0 0 130
-31.1881 33.6018 33.1711 0 0 154
-31.8979 33.1101 33.4363 0 0 176
-31.17 33.7084 34.7298 0 0 154
-31.2641 33.2376 31.732 0 0 128
-31.1881 33.6018 33.1711 0 0 128
-25.1174 36.0668 30.8966 0 0 136
-25.4595 35.1004 30.7524 0 0 136
-24.9799 37.3521 31.2628 0 0 165
-24.9801 36.2152 29.6248 0 0 193
-25.1174 36.0668 30.8966 0 0 165
-24.5837 38.427 31.2503 0 0 134
-24.9799 37.3521 31.2628 0 0 134
-22.5923 49.9987 24.4042 0 0 141
-22.8967 50.8842 23.104 0 0 141
-22.8967 50.8842 23.104 0 0 180
-22.8423 51.1591 21.7045 0 0 180
-22.6127 49.5992 21.909 0 0 214
-31.4511 49.5639 4.56093 0 0 134
-31.9057 49.9471 3.64597 0 0 134
-27.1899 48.2238 3.03346 0 0 161
-28.7743 48.3542 3.46674 0 0 161
-28.0315 48.0199 4.20091 0 0 186
-25.7269 48.7843 3.00908 0 0 181
-26.4697 49.1186 2.27492 0 0 158
-27.1899 48.2238 3.03346 0 0 158
-24.1894 54.1438 15.6152 0 0 150
-24.2546 52.9608 16.1795 0 0 169
-23.6927 54.0364 16.5158 0 0 150
-24.5727 54.4123 14.2329 0 0 139
-24.1894 54.1438 15.6152 0 0 139
-35.5909 38.9514 26.5059 0 0 138
-35.9537 37.9907 27.8173 0 0 138
-33.8973 41.1201 21.4796 0 0 181
-34.413 40.2057 23.1192 0 0 181
-33.308 39.9574 21.9743 0 0 217
-33.7125 42.0912 20.0726 0 0 147
-33.8973 41.1201 21.4796 0 0 147
-32.4564 45.7092 17.7271 0 0 168
-33.1421 44.4296 17.8404 0 0 168
-31.7799 44.3494 17.775 0 0 197
-31.6657 46.9012 17.5985 0 0 138
-32.4564 45.7092 17.7271 0 0 138
-22.4363 53.0185 3.89923 0 0 173
-23.4229 51.3439 3.54509 0 0 173
-22.6047 51.5457 4.45379 0 0 204
-21.1523 58.7082 6.26107 0 0 154
-21.9119 57.3561 7.22127 0 0 154
-35.0268 32.9602 29.5123 0 0 156
-34.6802 32.1738 30.5326 0 0 156
-33.7326 32.6042 30.7781 0 0 178
-35.364 34.3922 29.2074 0 0 136
-35.0268 32.9602 29.5123 0 0 136
-34.5388 34.6387 29.2942 0 0 169
-35.8236 35.6403 28.7438 0 0 149
-35.364 34.3922 29.2074 0 0 149
-25 42.0881 31.5949 0 0 134
-24.2353 41.1459 31.7993 0 0 134
-22.554 46.8869 24.9868 0 0 185
-22.661 48.4861 24.8431 0 0 185
-22.5602 47.7252 23.4521 0 0 223
-22.636 45.9822 26.5444 0 0 189
-22.554 46.8869 24.9868 0 0 189
-22.5353 45.2213 25.1534 0 0 228
-23.3176 45.0601 28.2773 0 0 158
-22.636 45.9822 26.5444 0 0 158
-30.3955 48.402 6.24692 0 0 204
-30.9464 48.8323 5.22205 0 0 173
-31.726 49.084 6.83478 0 0 173
-32.3344 49.7701 8.65933 0 0 147
-32.0354 49.4089 9.83113 0 0 147
-31.726 49.084 6.83478 0 0 146
-32.3344 49.7701 8.65933 0 0 146
-23.4308 52.842 18.5253 0 0 172
-23.6676 51.5544 17.4672 0 0 203
-23.3405 51.543 18.9124 0 0 172
-23.4961 54.1494 17.8859 0 0 142
-23.4308 52.842 18.5253 0 0 142
-23.6927 54.0364 16.5158 0 0 138
-23.4961 54.1494 17.8859 0 0 138
-31.8706 32.9464 36.3555 0 0 132
-31.111 33.5733 36.145 0 0 132
-32.6632 32.2354 34.8975 0 0 139
-31.8706 32.9464 36.3555 0 0 139
-32.6329 32.5173 33.3966 0 0 202
-33.4163 31.536 33.2992 0 0 172
-32.6632 32.2354 34.8975 0 0 172
-31.6111 33.6982 30.7384 0 0 137
-32.2631 33.4641 30.8839 0 0 150
-31.2641 33.2376 31.732 0 0 137
-30.7483 33.3486 30.0295 0 0 159
-31.7473 33.575 29.1815 0 0 183
-31.6111 33.6982 30.7384 0 0 159
-26.1487 34.219 30.9054 0 0 136
-26.8642 33.7987 31.3201 0 0 136
-25.8067 34.0485 29.4116 0 0 193
-26.1487 34.219 30.9054 0 0 165
-25.4595 35.1004 30.7524 0 0 165
-24.7217 39.9999 31.8112 0 0 161
-24.9806 39.0733 30.5519 0 0 187
-24.5837 38.427 31.2503 0 0 161
-24.2353 41.1459 31.7993 0 0 129
-24.7217 39.9999 31.8112 0 0 129
-22.5923 49.9987 24.4042 0 0 142
-22.661 48.4861 24.8431 0 0 142
-22.831 51.3524 20.24 0 0 176
-23.3405 51.543 18.9124 0 0 176
-23.0678 50.0647 19.1819 0 0 209
-22.831 51.3524 20.24 0 0 145
-22.8423 51.1591 21.7045 0 0 145
-31.3429 50.1646 2.59347 0 0 132
-31.9057 49.9471 3.64597 0 0 132
-29.9507 49.2472 2.03756 0 0 138
-31.3429 50.1646 2.59347 0 0 138
-30.1206 48.8819 3.97308 0 0 187
-31.4511 49.5639 4.56093 0 0 162
-30.9464 48.8323 5.22205 0 0 162
-29.279 49.0859 2.80562 0 0 160
-30.1206 48.8819 3.97308 0 0 184
-28.7743 48.3542 3.46674 0 0 160
-29.9507 49.2472 2.03756 0 0 134
-29.279 49.0859 2.80562 0 0 134
-25.2983 49.1406 1.30017 0 0 137
-26.4697 49.1186 2.27492 0 0 137
-23.8852 50.3931 1.53514 0 0 138
-25.2983 49.1406 1.30017 0 0 138
-23.4434 56.1189 9.26543 0 0 155
-24.3798 56.4972 10.5053 0 0 155
-24.0775 53.9382 12.6233 0 0 199
-24.2563 52.5941 13.6692 0 0 243
-24.5727 54.4123 14.2329 0 0 199
-24.225 55.1551 11.5423 0 0 196
-23.9086 53.3369 10.9786 0 0 239
-24.0775 53.9382 12.6233 0 0 196
-24.3798 56.4972 10.5053 0 0 156
-24.225 55.1551 11.5423 0 0 156
-35.0377 39.5342 24.759 0 0 186
-35.5909 38.9514 26.5059 0 0 186
-34.3771 38.4602 25.3608 0 0 223
-35.0377 39.5342 24.759 0 0 148
-34.413 40.2057 23.1192 0 0 148
-33.5492 43.1903 18.8494 0 0 177
-33.7125 42.0912 20.0726 0 0 177
-32.6289 41.9708 19.1115 0 0 210
-33.5492 43.1903 18.8494 0 0 143
-33.1421 44.4296 17.8404 0 0 143
-31.1472 47.6864 16.9653 0 0 155
-31.6657 46.9012 17.5985 0 0 155
-30.5758 46.4142 17.0285 0 0 178
-31.8559 47.9943 16.2909 0 0 150
-31.1472 47.6864 16.9653 0 0 150
-30.7661 47.5073 15.721 0 0 170
-32.5969 48.7929 15.7897 0 0 136
-31.8559 47.9943 16.2909 0 0 136
-32.0368 48.3407 14.343 0 0 137
-32.5969 48.7929 15.7897 0 0 137
-31.291 47.7836 12.6854 0 0 172
-32.0368 48.3407 14.343 0 0 172
-30.729 47.258 13.3891 0 0 203
-30.1974 47.1964 10.7981 0 0 211
-31.5052 48.2791 11.7521 0 0 178
-31.291 47.7836 12.6854 0 0 178
-24.1305 51.2479 2.62054 0 0 169
-24.299 49.7751 3.1751 0 0 198
-23.4229 51.3439 3.54509 0 0 169
-23.8852 50.3931 1.53514 0 0 144
-24.1305 51.2479 2.62054 0 0 144
-22.5332 55.7296 7.93987 0 0 202
-23.1459 54.1646 8.57212 0 0 248
-23.4434 56.1189 9.26543 0 0 202
-21.6145 55.4018 6.52796 0 2 255
-22.5332 55.7296 7.93987 0 0 208
-21.9119 57.3561 7.22127 0 0 208
-21.2163 58.4615 4.93569 0 0 145
-21.1523 58.7082 6.26107 0 0 145
-21.558 56.6552 4.66811 0 0 145
-21.2163 58.4615 4.93569 0 0 145
-21.8704 54.7512 4.1674 0 0 181
-21.3056 55.1243 5.30864 0 0 216
-21.558 56.6552 4.66811 0 0 181
-22.4363 53.0185 3.89923 0 0 143
-21.8704 54.7512 4.1674 0 0 143
-34.4325 31.132 31.4807 0 0 142
-33.4163 31.536 33.2992 0 0 142
-34.4325 31.132 31.4807 0 0 140
-34.6802 32.1738 30.5326 0 0 140
-35.9878 36.9954 28.6788 0 0 129
-35.8236 35.6403 28.7438 0 0 129
-34.9644 36.8822 27.9692 0 0 185
-35.9537 37.9907 27.8173 0 0 160
-35.9878 36.9954 28.6788 0 0 160
-29.7145 33.087 29.4965 0 0 138
-30.7483 33.3486 30.0295 0 0 138
-27.5202 33.0578 30.0424 0 0 140
-26.8642 33.7987 31.3201 0 0 140
-28.4395 32.7529 28.643 0 0 172
-27.5202 33.0578 30.0424 0 0 172
-27.4152 32.8622 28.1651 0 0 202
-29.6095 32.8914 27.6191 0 0 224
-29.7145 33.087 29.4965 0 0 186
-28.4395 32.7529 28.643 0 0 186
-23.8469 43.9509 29.4178 0 0 201
-23.3176 45.0601 28.2773 0 0 201
-23.1466 43.2073 27.8515 0 0 246
-24.2786 42.814 30.5344 0 0 180
-24.3972 41.3721 30.0524 0 0 214
-25 42.0881 31.5949 0 0 180
-23.8469 43.9509 29.4178 0 0 154
-24.2786 42.814 30.5344 0 0 154
3 0 23 22
3 0 22 24
3 0 24 26
3 1 30 28
3 1 86 87
3 1 88 90
3 88 28 89
3 88 89 90
3 2 33 31
3 4 37 35
3 2 40 38
3 2 31 40
3 3 44 42
3 91 45 92
3 93 47 94
3 95 94 45
3 93 94 95
3 97 96 47
3 98 50 99
3 100 52 101
3 102 101 50
3 100 101 102
3 104 103 52
3 5 105 106
3 6 56 54
3 5 57 25
3 5 107 109
3 109 108 57
3 107 108 109
3 8 60 58
3 6 61 27
3 6 54 61
3 110 62 111
3 10 112 114
3 114 113 29
3 112 113 114
3 10 115 117
3 115 63 116
3 115 116 117
3 11 66 64
3 13 67 32
3 13 68 67
3 7 69 55
3 118 70 119
3 120 119 34
3 118 119 120
3 122 121 70
3 14 123 124
3 15 125 127
3 127 126 36
3 125 126 127
3 15 128 129
3 9 71 59
3 16 72 39
3 16 130 132
3 132 131 72
3 130 131 132
3 16 133 134
3 11 73 41
3 11 64 73
3 12 74 65
3 17 75 43
3 17 135 137
3 137 136 75
3 135 136 137
3 138 76 139
3 18 140 142
3 142 141 46
3 140 141 142
3 18 143 144
3 18 145 147
3 145 77 146
3 145 146 147
3 19 78 48
3 19 79 78
3 20 80 49
3 20 81 80
3 20 82 81
3 21 83 51
3 21 84 83
3 21 85 84
3 149 148 53
3 22 150 152
3 152 151 5
3 150 151 152
3 23 153 155
3 155 154 22
3 153 154 155
3 23 156 157
3 24 25 6
3 22 25 24
3 22 5 25
3 26 27 8
3 24 27 26
3 24 6 27
3 28 158 160
3 158 29 159
3 158 159 160
3 30 29 28
3 30 10 29
3 28 161 162
3 28 163 164
3 31 32 11
3 33 32 31
3 33 13 32
3 165 34 166
3 167 166 7
3 165 166 167
3 168 34 169
3 171 170 34
3 35 36 14
3 37 36 35
3 37 15 36
3 38 39 9
3 40 39 38
3 40 16 39
3 40 41 16
3 31 41 40
3 31 11 41
3 42 43 12
3 44 43 42
3 44 17 43
3 45 172 173
3 45 174 175
3 45 176 178
3 176 46 177
3 176 177 178
3 47 46 45
3 47 18 46
3 47 48 18
3 179 48 180
3 181 180 47
3 179 180 181
3 182 19 183
3 184 183 48
3 182 183 184
3 185 49 186
3 50 187 189
3 187 49 188
3 187 188 189
3 50 20 49
3 50 51 20
3 52 51 50
3 52 21 51
3 52 53 21
3 190 53 191
3 192 191 52
3 190 191 192
3 194 193 53
3 196 195 5
3 54 55 2
3 56 55 54
3 56 7 55
3 25 56 6
3 57 56 25
3 57 7 56
3 57 197 199
3 199 198 7
3 197 198 199
3 201 200 57
3 58 59 4
3 60 59 58
3 60 9 59
3 27 60 8
3 61 60 27
3 61 9 60
3 61 38 9
3 54 38 61
3 54 2 38
3 62 202 203
3 62 204 205
3 29 206 208
3 206 62 207
3 206 207 208
3 209 62 210
3 211 210 29
3 209 210 211
3 213 212 62
3 63 214 215
3 63 216 217
3 219 218 3
3 64 65 1
3 66 65 64
3 66 12 65
3 32 66 11
3 67 66 32
3 67 12 66
3 67 42 12
3 68 42 67
3 68 3 42
3 55 33 2
3 69 33 55
3 69 13 33
3 34 69 7
3 70 69 34
3 70 13 69
3 70 68 13
3 220 68 221
3 222 221 70
3 220 221 222
3 223 3 224
3 225 224 68
3 223 224 225
3 227 226 3
3 36 228 230
3 230 229 14
3 228 229 230
3 232 231 36
3 59 37 4
3 71 37 59
3 71 15 37
3 39 71 9
3 72 71 39
3 72 15 71
3 72 233 235
3 235 234 15
3 233 234 235
3 237 236 72
3 41 238 240
3 240 239 16
3 238 239 240
3 73 241 243
3 243 242 41
3 241 242 243
3 73 244 245
3 73 246 247
3 64 248 250
3 250 249 73
3 248 249 250
3 64 251 253
3 251 1 252
3 251 252 253
3 65 30 1
3 74 30 65
3 74 10 30
3 43 74 12
3 75 74 43
3 75 10 74
3 75 63 10
3 254 63 255
3 256 255 75
3 254 255 256
3 258 257 63
3 259 44 260
3 261 260 3
3 259 260 261
3 76 262 264
3 262 44 263
3 262 263 264
3 76 17 44
3 265 76 266
3 267 76 268
3 269 17 270
3 271 270 76
3 269 270 271
3 273 272 17
3 46 274 275
3 277 276 46
3 77 278 279
3 77 280 282
3 280 14 281
3 280 281 282
3 48 77 18
3 78 77 48
3 78 14 77
3 78 35 14
3 79 35 78
3 79 4 35
3 283 19 284
3 49 285 286
3 80 287 289
3 289 288 49
3 287 288 289
3 80 290 292
3 290 19 291
3 290 291 292
3 80 79 19
3 81 79 80
3 81 4 79
3 81 58 4
3 82 58 81
3 82 8 58
3 51 82 20
3 83 82 51
3 83 8 82
3 83 26 8
3 84 26 83
3 84 0 26
3 84 23 0
3 85 23 84
3 85 293 295
3 295 294 23
3 293 294 295
3 53 85 21
3 296 85 297
3 298 297 53
3 296 297 298
3 300 299 85
