ply
format ascii 1.0
element vertex 310
property float x
property float y
property float z
property uchar red
property uchar green
property uchar blue
element face 316
property list uchar int vertex_index
end_header
-3.9185 -76.238 21.0265 255 245 0
-4.14795 -73.0391 11.4447 255 53 0
-2.92437 -86.27 11.4891 255 240 0
-5.286 -82.7499 32.0805 255 190 0
-7.04285 -86.8 18.8349 236 255 19
-5.19134 -98.6939 8.47932 0 217 255
-8.89398 -73.4531 18.6065 10 255 245
-8.6934 -69.663 14.2485 179 255 76
-3.46749 -73.0298 16.0027 255 37 0
-3.57949 -80.3569 12.5645 255 253 0
-4.61403 -80.3917 17.5132 128 0 0
-11.7302 -81.9634 31.7613 242 255 13
-10.103 -85.0796 35.0924 0 99 255
-5.14343 -93.3696 14.1171 49 255 206
-8.99274 -68.3913 8.91435 158 255 97
-7.48 -81.6637 11.6068 0 183 255
-6.09263 -87.5894 10.0064 22 255 233
-6.70751 -91.5909 5.5657 55 255 200
-9.33772 -78.7913 27.2675 36 255 219
-4.6744 -79.6061 25.9359 255 225 0
-5.45625 -85.286 27.2533 163 0 0
-3.36574 -83.3535 21.975 232 255 23
-4.20273 -87.3789 16.2334 255 127 0
-3.55863 -93.3897 9.79278 252 0 0
-8.22512 -96.3713 6.54216 17 255 238
-5.97144 -74.3147 19.9615 167 255 88
-5.78562 -72.3085 17.7025 255 105 0
-3.51579 -74.2527 18.8011 255 162 0
-3.64594 -76.4815 16.7978 195 0 0
-3.36134 -77.5786 19.5905 255 69 0
-5.37048 -69.3878 12.5055 255 54 0
-8.42085 -68.1396 11.8088 211 255 44
-6.39548 -70.0677 10.6078 231 255 24
-6.29053 -74.4506 12.1372 69 255 186
-5.61088 -77.7874 11.4871 178 255 77
-3.83975 -83.3151 12.3876 181 255 74
-5.2536 -83.8769 11.5198 171 255 84
-4.2845 -86.8956 10.3367 214 255 41
-5.90109 -89.769 7.43912 9 255 246
-3.64112 -89.4407 8.38872 255 198 0
-8.09784 -82.2077 32.2725 255 17 0
-9.92066 -80.6452 29.5403 222 255 33
-6.59219 -80.4603 29.779 255 58 0
-6.37288 -79.4775 27.1204 107 255 148
-4.30929 -80.8276 28.9757 255 175 0
-7.83509 -88.3675 21.901 138 255 117
-6.3843 -88.1581 26.0972 237 255 18
-6.86601 -85.8406 23.3453 147 0 0
-4.65657 -83.6688 23.9225 255 133 0
-5.34232 -85.0199 20.8781 255 189 0
-3.72342 -85.0979 19.419 255 217 0
-5.26041 -87.4041 17.8462 238 255 17
-4.85769 -96.4614 11.0395 0 254 255
-3.80274 -93.6738 12.7309 255 150 0
-4.3384 -96.299 9.46493 184 255 71
-5.49057 -95.3989 7.73027 255 236 0
-6.03791 -97.8157 7.25792 102 255 153
-8.46217 -98.1799 5.35842 0 162 255
-6.09473 -99.3956 6.34349 0 101 255
-8.84878 -71.6636 16.6046 138 255 117
-5.70186 -70.9426 15.1862 255 17 0
-3.15594 -72.5151 13.2317 255 15 0
-3.43252 -76.8924 11.9552 255 121 0
-2.68932 -76.4762 14.0398 241 0 0
-3.85441 -80.081 14.7284 255 47 0
-4.24611 -83.3754 14.3904 255 91 0
-14.1418 -83.1121 33.7348 0 215 255
-10.3167 -83.6909 34.3376 208 255 47
-7.1904 -84.0049 34.0777 164 255 91
-6.14866 -90.0836 16.1788 57 255 198
-6.38038 -98.1549 9.02943 0 68 255
-6.09497 -100.193 7.60213 0 7 255
-6.54364 -76.5344 21.59 30 255 225
-11.4424 -67.8155 12.0216 38 255 217
-11.8565 -67.7604 8.64508 0 182 255
-5.35318 -80.8151 11.6956 231 255 24
-7.01511 -84.6226 11.5226 0 253 255
-6.67975 -78.5319 24.1814 1 255 254
-4.86219 -78.3665 22.9272 255 241 0
-7.59472 -85.4904 33.6686 0 87 255
-5.44381 -85.338 32.734 45 255 210
-5.49583 -86.9578 30.0319 142 255 113
-4.3807 -83.9032 30.2835 255 90 0
-4.32984 -82.482 26.7905 255 89 0
-4.15274 -81.4049 23.7503 255 235 0
-3.50897 -79.9599 21.6654 255 213 0
-3.34952 -82.0678 19.7738 255 44 0
-4.02539 -84.289 16.8624 253 0 0
-3.73006 -86.8355 13.472 236 0 0
-4.04189 -90.4223 16.0403 255 174 0
-3.21007 -90.4511 13.3348 153 0 0
-2.70714 -89.8184 10.0661 226 0 0
-4.57608 -92.8121 7.1225 255 87 0
-7.42759 -93.8808 6.1743 49 255 206
-8.87138 -72.5584 17.6055 0 0 214
-10.4172 -72.179 17.2132 0 0 180
-10.4398 -73.0737 18.2141 0 0 180
-15.3031 -83.4246 34.5176 0 0 189
-15.952 -82.118 33.7584 0 0 189
-17.1133 -82.4306 34.5412 0 0 151
-10.2098 -84.3853 34.715 0 0 173
-11.7591 -84.1682 35.0071 0 0 153
-11.6523 -84.8626 35.3844 0 0 153
-7.51513 -97.6681 8.9518 0 0 147
-6.53878 -96.628 10.063 0 0 147
-6.89912 -98.9963 8.56469 0 0 134
-7.51513 -97.6681 8.9518 0 0 134
-7.94922 -77.2446 21.7346 0 0 145
-7.81604 -76.0698 20.8722 0 0 145
-10.1668 -69.1891 14.335 0 0 148
-10.3483 -70.249 15.2514 0 0 148
-9.93441 -69.4776 9.07065 0 0 174
-11.3663 -69.1622 8.93602 0 0 174
-10.4246 -68.0759 8.77972 0 0 204
-8.68192 -82.303 11.7155 0 0 140
-7.65846 -80.3969 11.8517 0 0 140
-8.29885 -83.529 11.4029 0 0 142
-8.68192 -82.303 11.7155 0 0 142
-7.35241 -87.7346 9.60525 0 0 187
-7.81365 -86.2512 10.3633 0 0 187
-6.55387 -86.106 10.7645 0 0 224
-7.27797 -88.3807 8.30562 0 0 143
-7.35241 -87.7346 9.60525 0 0 143
-7.92856 -91.1046 5.27752 0 0 171
-7.52535 -90.1936 6.21423 0 0 171
-6.3043 -90.68 6.50241 0 0 201
-8.3921 -91.9894 5.42081 0 0 135
-7.92856 -91.1046 5.27752 0 0 135
-12.8781 -81.256 30.637 0 0 156
-13.8999 -81.7346 31.6572 0 0 156
-11.0233 -79.0785 27.2198 0 0 192
-11.3147 -80.0054 28.3562 0 0 192
-9.62919 -79.7183 28.4039 0 0 232
-10.7224 -78.3759 26.1466 0 0 148
-11.0233 -79.0785 27.2198 0 0 148
-9.35394 -78.8245 25.9933 0 0 143
-10.7224 -78.3759 26.1466 0 0 143
-7.15326 -86.3832 32.6352 0 0 134
-8.08615 -85.8076 32.5774 0 0 134
-6.0778 -86.307 32.1679 0 0 159
-6.51926 -85.4142 33.2013 0 0 182
-7.15326 -86.3832 32.6352 0 0 159
-9.6511 -95.5248 5.95144 0 0 185
-9.25233 -94.2796 5.76751 0 0 185
-7.82636 -95.126 6.35823 0 0 222
-9.89371 -96.4218 5.33691 0 0 145
-9.6511 -95.5248 5.95144 0 0 145
-10.1417 -97.9635 3.93647 0 0 150
-8.54587 -98.9534 4.44711 0 0 150
-6.5938 -100.568 6.16429 0 0 129
-6.83603 -100.893 6.85393 0 0 129
-11.7881 -85.6753 35.4985 0 0 134
-11.6523 -84.8626 35.3844 0 0 134
-7.45001 -71.0401 11.0488 0 0 198
-8.74864 -70.2019 10.2021 0 0 198
-7.69411 -69.2295 9.76107 0 0 240
-7.39753 -73.2315 11.8135 0 0 194
-7.45001 -71.0401 11.0488 0 0 194
-6.34301 -72.2591 11.3725 0 0 234
-7.44791 -75.4462 12.7693 0 0 158
-7.39753 -73.2315 11.8135 0 0 158
-7.06373 -76.7904 12.1169 0 0 153
-7.44791 -75.4462 12.7693 0 0 153
-6.7239 -78.4588 11.7918 0 0 185
-7.06373 -76.7904 12.1169 0 0 185
-5.95071 -76.119 11.8121 0 0 220
-6.54544 -79.7256 11.547 0 0 192
-7.65846 -80.3969 11.8517 0 0 166
-6.7239 -78.4588 11.7918 0 0 166
-7.1097 -88.2628 23.9991 0 0 233
-6.82719 -89.3057 25.3707 0 0 193
-7.55258 -89.4104 23.2726 0 0 193
-7.36215 -99.5612 4.93964 0 0 168
-8.54587 -98.9534 4.44711 0 0 168
-7.27845 -98.7878 5.85095 0 0 195
-10.426 -71.2493 16.4294 0 0 144
-10.4172 -72.179 17.2132 0 0 144
-8.77109 -70.6633 15.4266 0 0 233
-10.3483 -70.249 15.2514 0 0 193
-10.426 -71.2493 16.4294 0 0 193
-15.1057 -82.3089 32.6439 0 0 151
-15.952 -82.118 33.7584 0 0 151
-12.936 -82.5378 32.748 0 0 245
-13.8999 -81.7346 31.6572 0 0 201
-15.1057 -82.3089 32.6439 0 0 201
-13.6717 -83.8788 34.7056 0 0 143
-15.3031 -83.4246 34.5176 0 0 143
-12.2292 -83.4015 34.0362 0 0 218
-13.6717 -83.8788 34.7056 0 0 183
-11.7591 -84.1682 35.0071 0 0 183
-8.48746 -89.6246 21.0223 0 0 160
-7.55258 -89.4104 23.2726 0 0 160
-8.22277 -88.7939 19.4745 0 0 161
-8.48746 -89.6246 21.0223 0 0 161
-7.82664 -88.0101 17.9415 0 0 209
-7.43897 -87.5838 20.3679 0 3 255
-8.22277 -88.7939 19.4745 0 0 209
-7.37955 -89.6519 16.6134 0 0 188
-6.59575 -88.4418 17.5069 0 0 226
-7.82664 -88.0101 17.9415 0 0 188
-6.70483 -91.1148 15.0073 0 0 149
-7.37955 -89.6519 16.6134 0 0 149
-6.20221 -92.7578 13.9764 0 0 179
-5.64604 -91.7266 15.148 0 0 211
-6.70483 -91.1148 15.0073 0 0 179
-5.9203 -94.2354 12.6068 0 0 150
-6.20221 -92.7578 13.9764 0 0 150
-5.77744 -95.7813 11.068 0 0 183
-5.00056 -94.9155 12.5783 0 0 218
-5.9203 -94.2354 12.6068 0 0 183
-5.61904 -97.3082 10.0345 0 0 197
-5.77744 -95.7813 11.068 0 0 169
-6.53878 -96.628 10.063 0 0 169
-6.75642 -100.015 7.85104 0 0 138
-6.23768 -99.174 8.31578 0 0 151
-6.89912 -98.9963 8.56469 0 0 138
-7.49748 -100.715 7.10283 0 0 128
-6.83603 -100.893 6.85393 0 0 142
-6.75642 -100.015 7.85104 0 0 142
-10.2622 -74.2148 18.741 0 0 143
-10.4398 -73.0737 18.2141 0 0 143
-8.9912 -74.5292 19.3804 0 0 142
-10.2622 -74.2148 18.741 0 0 142
-7.52994 -74.96 20.0579 0 0 179
-7.43271 -73.8839 19.284 0 0 212
-8.9912 -74.5292 19.3804 0 0 179
-6.25754 -75.4246 20.7758 0 0 211
-7.52994 -74.96 20.0579 0 0 178
-7.81604 -76.0698 20.8722 0 0 178
-10.0306 -68.4274 13.1151 0 0 185
-10.1668 -69.1891 14.335 0 0 185
-8.55712 -68.9013 13.0287 0 0 221
-11.5414 -68.2653 13.2215 0 0 176
-10.0306 -68.4274 13.1151 0 0 176
-9.93163 -67.9776 11.9152 0 0 207
-13.0167 -67.9464 13.3469 0 0 144
-11.5414 -68.2653 13.2215 0 0 144
-12.9122 -67.5047 12.2525 0 0 142
-13.0167 -67.9464 13.3469 0 0 142
-13.1192 -67.4771 10.5643 0 0 196
-12.9122 -67.5047 12.2525 0 0 196
-11.6494 -67.788 10.3333 0 0 238
-13.2745 -67.7538 8.98881 0 0 150
-13.1192 -67.4771 10.5643 0 0 150
-12.5319 -68.5633 7.93341 0 0 168
-13.9499 -68.5567 8.27713 0 0 140
-13.2745 -67.7538 8.98881 0 0 168
-12.5319 -68.5633 7.93341 0 0 142
-11.3663 -69.1622 8.93602 0 0 142
-9.93441 -69.4776 9.07065 0 0 155
-8.74864 -70.2019 10.2021 0 0 155
-8.0664 -85.0085 11.3608 0 0 167
-8.29885 -83.529 11.4029 0 0 167
-7.24756 -83.1432 11.5647 0 0 193
-8.0664 -85.0085 11.3608 0 0 142
-7.81365 -86.2512 10.3633 0 0 142
-7.18219 -89.4705 7.02196 0 0 188
-7.27797 -88.3807 8.30562 0 0 188
-5.99686 -88.6792 8.72279 0 0 225
-7.18219 -89.4705 7.02196 0 0 137
-7.52535 -90.1936 6.21423 0 0 137
-11.9734 -80.5969 29.5266 0 0 199
-12.8781 -81.256 30.637 0 0 199
-10.8254 -81.3043 30.6508 0 0 243
-11.9734 -80.5969 29.5266 0 0 157
-11.3147 -80.0054 28.3562 0 0 157
-7.87152 -79.1676 25.9198 0 0 175
-9.35394 -78.8245 25.9933 0 0 175
-7.8553 -79.1344 27.194 0 0 207
-8.02495 -78.6948 24.4503 0 0 181
-7.87152 -79.1676 25.9198 0 0 181
-6.52631 -79.0047 25.6509 0 0 216
-8.01728 -78.2434 23.0303 0 0 145
-8.02495 -78.6948 24.4503 0 0 145
-6.6117 -77.5331 22.8857 0 0 229
-7.94922 -77.2446 21.7346 0 0 190
-8.01728 -78.2434 23.0303 0 0 190
-10.4706 -85.5187 34.4105 0 0 137
-11.7881 -85.6753 35.4985 0 0 137
-9.21641 -85.7241 33.6987 0 0 143
-8.08615 -85.8076 32.5774 0 0 143
-8.84887 -85.285 34.3805 0 0 175
-10.4706 -85.5187 34.4105 0 0 155
-9.21641 -85.7241 33.6987 0 0 155
-6.50804 -88.7682 27.3672 0 0 145
-6.82719 -89.3057 25.3707 0 0 145
-6.0638 -88.1681 29.3346 0 0 182
-6.50804 -88.7682 27.3672 0 0 182
-5.94007 -87.5579 28.0645 0 0 216
-6.10382 -87.1169 30.8168 0 0 137
-6.0638 -88.1681 29.3346 0 0 137
-5.46982 -86.1479 31.383 0 0 175
-6.0778 -86.307 32.1679 0 0 155
-6.10382 -87.1169 30.8168 0 0 155
-8.75214 -93.1343 5.72511 0 0 174
-8.3921 -91.9894 5.42081 0 0 174
-7.06755 -92.7359 5.87 0 0 205
-8.75214 -93.1343 5.72511 0 0 145
-9.25233 -94.2796 5.76751 0 0 145
-10.0122 -97.3261 4.74504 0 0 178
-9.89371 -96.4218 5.33691 0 0 178
-8.34365 -97.2756 5.95029 0 0 211
-11.6917 -97.1098 3.32309 0 0 144
-10.0122 -97.3261 4.74504 0 0 175
-10.1417 -97.9635 3.93647 0 0 175
-6.59367 -100.17 5.53497 0 0 142
-6.09485 -99.7943 6.97281 0 0 156
-6.5938 -100.568 6.16429 0 0 142
-7.36215 -99.5612 4.93964 0 0 135
-6.59367 -100.17 5.53497 0 0 135
3 0 27 25
3 0 29 27
3 1 32 30
3 1 33 32
3 1 34 33
3 2 37 35
3 2 39 37
3 3 42 40
3 3 44 42
3 4 47 45
3 4 49 47
3 4 51 49
3 5 54 52
3 5 56 54
3 5 58 56
3 6 94 96
3 94 59 95
3 94 95 96
3 8 60 26
3 8 61 60
3 8 63 61
3 10 64 28
3 10 65 64
3 97 66 98
3 97 98 99
3 12 100 102
3 100 67 101
3 100 101 102
3 12 68 67
3 103 70 104
3 106 105 70
3 107 72 108
3 7 109 110
3 14 73 31
3 14 74 73
3 14 111 113
3 113 112 74
3 111 112 113
3 15 114 115
3 15 116 117
3 9 75 62
3 16 76 36
3 16 118 120
3 120 119 76
3 118 119 120
3 16 121 122
3 17 123 125
3 125 124 38
3 123 124 125
3 17 126 127
3 11 128 129
3 18 130 132
3 132 131 41
3 130 131 132
3 18 133 134
3 18 135 136
3 19 77 43
3 19 78 77
3 137 79 138
3 139 80 140
3 141 140 79
3 139 140 141
3 20 81 46
3 20 82 81
3 20 83 82
3 21 84 48
3 21 85 84
3 21 86 85
3 22 87 50
3 22 88 87
3 13 89 69
3 23 90 53
3 23 91 90
3 23 92 91
3 24 93 55
3 24 142 144
3 144 143 93
3 142 143 144
3 24 145 146
3 148 147 57
3 150 149 71
3 25 26 6
3 27 26 25
3 27 8 26
3 27 28 8
3 29 28 27
3 29 10 28
3 151 12 152
3 30 31 7
3 32 31 30
3 32 14 31
3 32 153 155
3 155 154 14
3 153 154 155
3 33 156 158
3 158 157 32
3 156 157 158
3 33 159 160
3 33 161 162
3 34 163 165
3 165 164 33
3 163 164 165
3 34 166 168
3 166 15 167
3 166 167 168
3 35 36 9
3 37 36 35
3 37 16 36
3 37 38 16
3 39 38 37
3 39 17 38
3 40 41 11
3 42 41 40
3 42 18 41
3 42 43 18
3 44 43 42
3 44 19 43
3 45 169 171
3 169 46 170
3 169 170 171
3 47 46 45
3 47 20 46
3 47 48 20
3 49 48 47
3 49 21 48
3 49 50 21
3 51 50 49
3 51 22 50
3 52 53 13
3 54 53 52
3 54 23 53
3 54 55 23
3 56 55 54
3 56 24 55
3 56 57 24
3 58 57 56
3 58 172 174
3 174 173 57
3 172 173 174
3 59 175 176
3 59 177 179
3 177 7 178
3 177 178 179
3 26 59 6
3 60 59 26
3 60 7 59
3 60 30 7
3 61 30 60
3 61 1 30
3 61 62 1
3 63 62 61
3 63 9 62
3 28 63 8
3 64 63 28
3 64 9 63
3 64 35 9
3 65 35 64
3 65 2 35
3 66 180 181
3 66 182 184
3 182 11 183
3 182 183 184
3 185 66 186
3 67 187 189
3 187 66 188
3 187 188 189
3 67 11 66
3 67 40 11
3 68 40 67
3 68 3 40
3 190 45 191
3 192 45 193
3 194 4 195
3 196 195 45
3 194 195 196
3 197 69 198
3 199 198 4
3 197 198 199
3 200 69 201
3 202 13 203
3 204 203 69
3 202 203 204
3 205 13 206
3 207 52 208
3 209 208 13
3 207 208 209
3 70 210 212
3 210 52 211
3 210 211 212
3 70 5 52
3 70 71 5
3 213 71 214
3 215 214 70
3 213 214 215
3 218 217 71
3 216 217 218
3 219 6 220
3 221 6 222
3 223 25 224
3 225 224 6
3 223 224 225
3 72 226 228
3 226 25 227
3 226 227 228
3 72 0 25
3 31 229 231
3 231 230 7
3 229 230 231
3 73 232 234
3 234 233 31
3 232 233 234
3 73 235 236
3 73 237 238
3 74 239 241
3 241 240 73
3 239 240 241
3 74 242 243
3 74 244 246
3 244 245 246
3 248 247 74
3 250 249 14
3 62 34 1
3 75 34 62
3 75 15 34
3 36 75 9
3 76 75 36
3 76 15 75
3 76 251 253
3 253 252 15
3 251 252 253
3 255 254 76
3 38 256 258
3 258 257 16
3 256 257 258
3 260 259 38
3 41 261 263
3 263 262 11
3 261 262 263
3 265 264 41
3 43 266 268
3 268 267 18
3 266 267 268
3 77 269 271
3 271 270 43
3 269 270 271
3 77 272 273
3 77 274 276
3 274 72 275
3 274 275 276
3 78 72 77
3 78 0 72
3 277 12 278
3 79 279 280
3 79 281 283
3 281 12 282
3 281 282 283
3 79 68 12
3 80 68 79
3 80 3 68
3 46 284 285
3 81 286 288
3 288 287 46
3 286 287 288
3 81 289 290
3 81 291 293
3 291 80 292
3 291 292 293
3 82 80 81
3 82 3 80
3 82 44 3
3 83 44 82
3 83 19 44
3 48 83 20
3 84 83 48
3 84 19 83
3 84 78 19
3 85 78 84
3 85 0 78
3 85 29 0
3 86 29 85
3 86 10 29
3 50 86 21
3 87 86 50
3 87 10 86
3 87 65 10
3 88 65 87
3 88 2 65
3 69 51 4
3 89 51 69
3 89 22 51
3 53 89 13
3 90 89 53
3 90 22 89
3 90 88 22
3 91 88 90
3 91 2 88
3 91 39 2
3 92 39 91
3 92 17 39
3 55 92 23
3 93 92 55
3 93 17 92
3 93 294 296
3 296 295 17
3 294 295 296
3 298 297 93
3 57 299 301
3 301 300 24
3 299 300 301
3 304 303 57
3 302 303 304
3 71 58 5
3 305 58 306
3 307 306 71
3 305 306 307
3 309 308 58
