ply
format ascii 1.0
element vertex 262
property float x
property float y
property float z
property uchar red
property uchar green
property uchar blue
element face 248
property list uchar int vertex_index
end_header
-4.02899 -33.3918 30.6951 255 244 0
-5.26377 -50.5931 18.5833 255 14 0
-4.74884 -43.056 27.3925 255 49 0
-5.06037 -26.3353 37.205 210 255 45
-4.81845 -35.0157 40.9911 0 104 255
-5.51717 -28.3497 30.4373 64 255 191
-4.28688 -38.1508 29.0126 255 224 0
-4.47313 -47.1302 23.7046 255 31 0
-4.00099 -24.3223 32.753 0 224 255
-4.43818 -29.4496 33.6339 255 174 0
-5.49009 -30.6914 38.7747 0 229 255
-5.34058 -33.2935 35.7534 178 255 77
-5.11358 -38.6817 32.1737 88 255 167
-4.89302 -44.2586 30.8086 56 255 199
-4.42446 -49.445 28.0223 255 92 0
-6.66851 -51.737 22.1773 128 0 0
-4.47852 -30.8857 30.1707 255 189 0
-6.95691 -31.0303 30.1659 44 255 211
-5.38263 -33.5778 29.4693 148 255 107
-5.81736 -36.0333 28.861 42 255 213
-4.099 -35.6484 29.7594 240 255 15
-4.9458 -48.3289 19.1278 82 255 173
-5.45636 -50.5397 16.2594 12 255 243
-6.86801 -53.0746 15.8459 80 255 175
-6.51469 -40.8647 27.1013 97 255 158
-6.62563 -43.1079 25.8423 135 255 120
-6.34035 -45.1821 23.9019 129 255 126
-4.8437 -45.4465 25.8607 249 0 0
-4.61817 -25.3396 34.8348 138 255 117
-4.10311 -27.0677 33.0013 255 178 0
-4.83415 -28.0263 35.2883 255 159 0
-5.14444 -32.8205 40.0745 0 234 255
-4.95378 -32.0059 37.5227 255 255 0
-4.77965 -34.0319 38.5409 36 255 219
-4.90623 -41.4711 31.5738 58 255 197
-5.90357 -49.6963 29.194 13 255 242
-6.28512 -51.4089 26.5577 163 255 92
-4.80459 -50.9375 25.2137 249 0 0
-7.94822 -52.1595 23.524 233 255 22
-6.20469 -38.5232 28.1165 65 255 190
-4.48318 -40.5573 28.2634 255 153 0
-4.84625 -24.9601 39.4345 0 204 255
-5.75642 -46.8083 21.776 102 255 153
-4.26362 -48.6897 21.2309 255 76 0
-4.35969 -26.2226 31.2347 9 255 246
-3.98242 -28.8047 31.3191 255 245 0
-4.11366 -31.3365 31.8929 255 197 0
-5.85703 -26.2883 41.0215 0 65 255
-5.45824 -27.3054 39.6899 13 255 242
-5.40088 -28.6596 37.8673 110 255 145
-5.09124 -29.9608 36.3282 250 255 5
-4.97567 -31.4088 34.773 255 171 0
-4.84623 -33.242 32.9152 255 110 0
-5.46294 -35.5194 33.1886 135 255 120
-4.16968 -35.9874 31.5129 255 173 0
-4.04577 -38.5567 30.7598 255 235 0
-4.02141 -41.0733 30.018 255 204 0
-4.12062 -43.833 29.2671 255 127 0
-4.65932 -47.0023 29.7767 175 255 80
-4.29038 -46.4809 27.9195 255 40 0
-4.2364 -48.54 25.8909 255 10 0
-4.24543 -49.9711 23.1759 234 0 0
-5.8304 -51.1949 20.389 148 0 0
-8.46659 -55.1308 20.4765 139 255 116
-7.93742 -54.3338 18.924 255 226 0
-7.4587 -53.8039 17.2207 255 255 0
-4.83927 -25.8374 36.0199 0 0 233
-4.67822 -24.4017 36.0911 0 0 191
-4.89932 -24.8996 37.2762 0 0 191
-4.98145 -33.9181 40.5328 0 0 169
-5.63556 -33.3231 40.7465 0 0 149
-5.47256 -34.4207 41.2048 0 0 149
-7.81794 -52.0648 25.47 0 0 151
-7.35524 -51.4347 26.8956 0 0 151
-8.64948 -52.4401 23.9532 0 0 180
-7.11667 -51.7842 25.0409 0 0 217
-7.81794 -52.0648 25.47 0 0 180
-6.6894 -28.3326 30.4684 0 0 147
-5.94863 -26.9625 30.7047 0 0 147
-7.77689 -31.0454 29.9608 0 0 137
-7.35445 -32.4844 29.8144 0 0 137
-4.89133 -24.3241 40.1434 0 0 135
-4.48999 -23.4779 39.3981 0 0 135
-3.9729 -22.8746 32.6515 0 0 145
-4.15802 -23.3481 33.7446 0 0 145
-4.44314 -23.8845 32.0781 0 0 135
-3.9729 -22.8746 32.6515 0 0 135
-4.18034 -25.2724 31.9938 0 0 187
-4.62249 -24.8346 31.3189 0 0 161
-4.44314 -23.8845 32.0781 0 0 161
-6.28064 -27.4113 40.988 0 0 133
-6.9049 -26.6933 40.7859 0 0 133
-6.08125 -27.9199 40.3222 0 0 150
-5.65763 -26.7968 40.3557 0 0 172
-6.28064 -27.4113 40.988 0 0 150
-5.83174 -30.1128 39.3155 0 0 129
-5.98083 -31.1989 39.5894 0 0 129
-5.44548 -29.6755 38.321 0 0 172
-5.78714 -29.0969 38.8619 0 0 151
-5.83174 -30.1128 39.3155 0 0 151
-5.28826 -37.1005 32.6811 0 0 216
-6.24466 -36.6102 33.064 0 0 180
-6.06998 -38.1913 32.5566 0 0 180
-7.19839 -56.8862 20.2699 0 0 152
-8.67231 -55.5624 21.1997 0 0 152
-6.65993 -55.9079 17.8486 0 0 153
-6.78605 -56.1445 18.6957 0 0 153
-6.42056 -55.643 16.9969 0 0 200
-7.69806 -54.0688 18.0723 0 0 246
-6.65993 -55.9079 17.8486 0 0 200
-6.36926 -55.3003 16.1123 0 0 155
-6.42056 -55.643 16.9969 0 0 155
-6.56731 -33.7581 29.4661 0 0 188
-7.35445 -32.4844 29.8144 0 0 188
-6.16977 -32.304 29.8176 0 0 228
-5.6 -34.8055 29.1652 0 0 211
-6.78468 -34.9858 29.1619 0 0 177
-6.56731 -33.7581 29.4661 0 0 177
-5.54322 -48.5223 18.1777 0 0 148
-6.21685 -47.8818 19.7379 0 0 148
-5.7985 -49.6277 16.7435 0 0 163
-5.54322 -48.5223 18.1777 0 0 163
-5.20108 -49.4343 17.6936 0 0 190
-5.70008 -50.5119 15.2242 0 0 159
-6.04222 -49.5999 15.7083 0 0 134
-5.7985 -49.6277 16.7435 0 0 159
-5.96138 -51.9402 14.885 0 0 144
-5.70008 -50.5119 15.2242 0 0 144
-6.66721 -53.2076 14.6782 0 0 189
-5.96138 -51.9402 14.885 0 0 189
-6.16219 -51.8071 16.0526 0 0 230
-6.08641 -54.603 14.5515 0 0 191
-5.88561 -54.736 13.3838 0 0 149
-6.66721 -53.2076 14.6782 0 0 191
-7.52189 -41.0345 26.623 0 0 140
-7.40998 -39.8991 27.3085 0 0 140
-7.57735 -42.1561 25.9935 0 0 171
-7.52189 -41.0345 26.623 0 0 171
-6.57016 -41.9863 26.4718 0 0 203
-7.49167 -43.3059 25.2045 0 0 141
-7.57735 -42.1561 25.9935 0 0 141
-6.48299 -44.145 24.8721 0 0 207
-7.34903 -44.343 24.2343 0 0 174
-7.49167 -43.3059 25.2045 0 0 174
-4.46661 -23.8567 34.7854 0 0 154
-4.67822 -24.4017 36.0911 0 0 154
-4.30958 -24.8309 33.7939 0 0 219
-4.15802 -23.3481 33.7446 0 0 182
-4.46661 -23.8567 34.7854 0 0 182
-5.80801 -32.2635 40.2393 0 0 128
-5.63556 -33.3231 40.7465 0 0 128
-5.31726 -31.756 39.4246 0 0 174
-5.98083 -31.1989 39.5894 0 0 152
-5.80801 -32.2635 40.2393 0 0 152
-6.03217 -40.0388 32.0653 0 0 152
-6.06998 -38.1913 32.5566 0 0 152
-5.9285 -41.4335 31.7653 0 0 177
-5.0099 -40.0764 31.8737 0 0 212
-6.03217 -40.0388 32.0653 0 0 177
-5.81614 -42.9135 31.4285 0 0 145
-5.9285 -41.4335 31.7653 0 0 145
-5.80954 -44.3073 31.0459 0 0 173
-4.89963 -42.8648 31.1912 0 0 205
-5.81614 -42.9135 31.4285 0 0 173
-7.16447 -50.5784 28.2138 0 0 149
-7.05023 -49.5017 29.2262 0 0 149
-6.09435 -50.5526 27.8758 0 0 233
-7.16447 -50.5784 28.2138 0 0 191
-7.35524 -51.4347 26.8956 0 0 191
-7.40927 -29.6728 30.3328 0 0 183
-6.6894 -28.3326 30.4684 0 0 183
-6.23704 -29.69 30.3016 0 0 221
-7.40927 -29.6728 30.3328 0 0 136
-7.77689 -31.0454 29.9608 0 0 136
-6.9404 -36.2789 28.7226 0 0 143
-6.78468 -34.9858 29.1619 0 0 143
-7.13407 -37.5239 28.3503 0 0 174
-6.9404 -36.2789 28.7226 0 0 174
-6.01103 -37.2782 28.4887 0 0 207
-7.25498 -38.7284 27.8161 0 0 140
-7.13407 -37.5239 28.3503 0 0 140
-6.35969 -39.694 27.6089 0 0 201
-7.40998 -39.8991 27.3085 0 0 170
-7.25498 -38.7284 27.8161 0 0 170
-4.79226 -24.212 38.3909 0 0 145
-4.48999 -23.4779 39.3981 0 0 145
-4.95331 -25.6477 38.3197 0 0 218
-4.89932 -24.8996 37.2762 0 0 182
-4.79226 -24.212 38.3909 0 0 182
-5.27709 -35.6011 41.6514 0 0 129
-5.47256 -34.4207 41.2048 0 0 129
-7.25346 -45.4408 23.2734 0 0 142
-7.34903 -44.343 24.2343 0 0 142
-6.9615 -46.2538 22.2104 0 0 176
-7.25346 -45.4408 23.2734 0 0 176
-6.04838 -45.9952 22.8389 0 0 209
-6.62216 -47.1215 21.062 0 0 144
-6.9615 -46.2538 22.2104 0 0 144
-5.35111 -47.5686 20.4519 0 0 224
-6.21685 -47.8818 19.7379 0 0 185
-6.62216 -47.1215 21.062 0 0 185
-5.36989 -25.8989 31.1034 0 0 140
-4.62249 -24.8346 31.3189 0 0 140
-4.93843 -27.2861 30.836 0 0 202
-5.94863 -26.9625 30.7047 0 0 171
-5.36989 -25.8989 31.1034 0 0 171
-6.41637 -25.506 40.8323 0 0 134
-6.9049 -26.6933 40.7859 0 0 134
-5.39671 -24.9882 40.9369 0 0 134
-6.41637 -25.506 40.8323 0 0 134
-5.35164 -25.6242 40.228 0 0 185
-4.89133 -24.3241 40.1434 0 0 159
-5.39671 -24.9882 40.9369 0 0 159
-5.81582 -28.4198 39.7732 0 0 128
-6.08125 -27.9199 40.3222 0 0 128
-5.42956 -27.9825 38.7786 0 0 189
-5.81582 -28.4198 39.7732 0 0 162
-5.78714 -29.0969 38.8619 0 0 162
-5.2668 -36.317 40.6398 0 0 165
-5.27709 -35.6011 41.6514 0 0 165
-5.72543 -36.9024 41.3001 0 0 136
-5.34935 -35.5835 39.6951 0 0 146
-5.2668 -36.317 40.6398 0 0 146
-5.32995 -35.0916 38.47 0 0 179
-4.79905 -34.5238 39.766 0 0 215
-5.34935 -35.5835 39.6951 0 0 179
-5.48159 -34.5649 37.143 0 0 147
-5.32995 -35.0916 38.47 0 0 147
-5.76206 -34.1957 35.7493 0 0 176
-5.06012 -33.6627 37.1471 0 0 210
-5.48159 -34.5649 37.143 0 0 176
-5.82324 -35.3087 34.4668 0 0 151
-6.24466 -36.6102 33.064 0 0 151
-5.40176 -34.4064 34.471 0 0 203
-5.76206 -34.1957 35.7493 0 0 171
-5.82324 -35.3087 34.4668 0 0 171
-5.62846 -45.557 30.5701 0 0 138
-5.80954 -44.3073 31.0459 0 0 138
-6.13373 -48.2758 29.7628 0 0 148
-7.05023 -49.5017 29.2262 0 0 148
-5.51161 -46.9288 30.0542 0 0 170
-6.13373 -48.2758 29.7628 0 0 170
-5.28145 -48.3493 29.4854 0 0 201
-4.77617 -45.6304 30.2926 0 0 198
-5.62846 -45.557 30.5701 0 0 168
-5.51161 -46.9288 30.0542 0 0 168
-8.41313 -54.0767 22.7234 0 0 192
-8.64948 -52.4401 23.9532 0 0 192
-9.11439 -54.3573 23.1526 0 0 150
-8.20741 -53.6451 22.0003 0 0 236
-8.41313 -54.0767 22.7234 0 0 193
-8.67231 -55.5624 21.1997 0 0 193
-7.05064 -56.543 19.472 0 0 153
-7.19839 -56.8862 20.2699 0 0 153
-8.20201 -54.7323 19.7002 0 0 246
-7.05064 -56.543 19.472 0 0 200
-6.78605 -56.1445 18.6957 0 0 200
-6.07391 -54.9356 15.4249 0 0 189
-7.16336 -53.4392 16.5333 0 0 229
-6.36926 -55.3003 16.1123 0 0 189
-6.08641 -54.603 14.5515 0 0 153
-6.07391 -54.9356 15.4249 0 0 153
3 0 18 16
3 0 20 18
3 1 22 21
3 1 23 22
3 2 25 24
3 2 27 25
3 3 66 68
3 66 28 67
3 66 67 68
3 3 30 28
3 4 69 71
3 69 31 70
3 69 70 71
3 4 33 31
3 72 36 73
3 74 38 75
3 76 75 36
3 74 75 76
3 5 77 78
3 80 79 17
3 6 39 19
3 6 40 39
3 81 41 82
3 7 42 26
3 7 43 42
3 8 83 84
3 8 85 86
3 8 87 89
3 87 44 88
3 87 88 89
3 9 45 29
3 9 46 45
3 90 47 91
3 92 48 93
3 94 93 47
3 92 93 94
3 10 95 96
3 10 97 99
3 97 49 98
3 97 98 99
3 10 50 49
3 11 51 32
3 11 52 51
3 12 100 102
3 100 53 101
3 100 101 102
3 12 54 53
3 12 55 54
3 13 56 34
3 13 57 56
3 14 58 35
3 14 59 58
3 14 60 59
3 15 61 37
3 15 62 61
3 103 63 104
3 105 64 106
3 107 65 108
3 109 108 64
3 107 108 109
3 111 110 65
3 16 17 5
3 18 17 16
3 18 112 114
3 114 113 17
3 112 113 114
3 18 115 117
3 115 19 116
3 115 116 117
3 20 19 18
3 20 6 19
3 21 118 119
3 22 120 122
3 122 121 21
3 120 121 122
3 22 123 125
3 123 124 125
3 22 126 127
3 23 128 130
3 130 129 22
3 128 129 130
3 23 131 133
3 131 132 133
3 24 134 135
3 25 136 138
3 138 137 24
3 136 137 138
3 25 139 140
3 25 141 143
3 141 26 142
3 141 142 143
3 27 26 25
3 27 7 26
3 28 144 145
3 28 146 148
3 146 8 147
3 146 147 148
3 28 29 8
3 30 29 28
3 30 9 29
3 31 149 150
3 31 151 153
3 151 10 152
3 151 152 153
3 31 32 10
3 33 32 31
3 33 11 32
3 154 12 155
3 156 34 157
3 158 157 12
3 156 157 158
3 159 34 160
3 161 13 162
3 163 162 34
3 161 162 163
3 164 35 165
3 36 166 168
3 166 35 167
3 166 167 168
3 36 14 35
3 36 37 14
3 38 37 36
3 38 15 37
3 17 169 171
3 171 170 5
3 169 170 171
3 173 172 17
3 19 174 175
3 39 176 178
3 178 177 19
3 176 177 178
3 39 179 180
3 39 181 183
3 181 24 182
3 181 182 183
3 40 24 39
3 40 2 24
3 41 184 185
3 41 186 188
3 186 3 187
3 186 187 188
3 189 4 190
3 26 191 192
3 42 193 195
3 195 194 26
3 193 194 195
3 42 196 197
3 42 198 200
3 198 21 199
3 198 199 200
3 43 21 42
3 43 1 21
3 44 201 202
3 44 203 205
3 203 5 204
3 203 204 205
3 29 44 8
3 45 44 29
3 45 5 44
3 45 16 5
3 46 16 45
3 46 0 16
3 47 206 207
3 47 208 209
3 47 210 212
3 210 41 211
3 210 211 212
3 48 41 47
3 48 3 41
3 213 48 214
3 49 215 217
3 215 48 216
3 215 216 217
3 49 3 48
3 49 30 3
3 50 30 49
3 50 9 30
3 32 50 10
3 51 50 32
3 51 9 50
3 51 46 9
3 52 46 51
3 52 0 46
3 218 4 219
3 218 219 220
3 221 4 222
3 223 33 224
3 225 224 4
3 223 224 225
3 226 33 227
3 228 11 229
3 230 229 33
3 228 229 230
3 53 231 232
3 53 233 235
3 233 11 234
3 233 234 235
3 53 52 11
3 54 52 53
3 54 0 52
3 54 20 0
3 55 20 54
3 55 6 20
3 34 55 12
3 56 55 34
3 56 6 55
3 56 40 6
3 57 40 56
3 57 2 40
3 236 13 237
3 35 238 239
3 58 240 242
3 242 241 35
3 240 241 242
3 58 243 245
3 243 13 244
3 243 244 245
3 58 57 13
3 59 57 58
3 59 2 57
3 59 27 2
3 60 27 59
3 60 7 27
3 37 60 14
3 61 60 37
3 61 7 60
3 61 43 7
3 62 43 61
3 62 1 43
3 246 38 247
3 246 247 248
3 63 249 251
3 249 38 250
3 249 250 251
3 63 15 38
3 252 63 253
3 64 254 256
3 254 63 255
3 254 255 256
3 64 15 63
3 64 62 15
3 65 62 64
3 65 1 62
3 65 23 1
3 257 23 258
3 259 258 65
3 257 258 259
3 261 260 23
