ply
format ascii 1.0
element vertex 148
property float x
property float y
property float z
property uchar red
property uchar green
property uchar blue
element face 129
property list uchar int vertex_index
end_header
-48.1058 -54.1086 31.5326 128 0 0
-51.6636 -54.4936 24.8303 0 195 255
-51.0156 -51.0207 30.5442 192 0 0
-50.0803 -54.675 27.777 203 255 52
-52.8409 -51.4359 26.7712 255 252 0
-55.0817 -52.6452 23.1497 42 255 213
-49.6841 -50.3569 34.7055 155 255 100
-53.3273 -50.8651 30.6176 176 255 79
-51.8525 -51.3472 28.5943 232 0 0
-54.305 -51.1294 28.7174 66 255 189
-51.4902 -49.3933 34.1215 21 255 234
-48.9233 -56.423 32.6423 139 255 116
-49.8271 -56.4895 30.595 255 240 0
-51.0572 -54.7109 26.3828 0 252 255
-52.3833 -54.2536 23.252 0 127 255
-56.2012 -53.155 21.2807 0 105 255
-48.8619 -52.0799 30.6848 172 0 0
-48.9459 -54.3606 29.4855 196 0 0
-49.6083 -52.437 28.5794 249 0 0
-50.6966 -52.7301 27.0102 255 116 0
-51.9089 -52.935 25.51 255 208 0
-53.0945 -53.2724 24.0426 214 255 41
-53.9026 -51.9398 24.8741 87 255 168
-48.0989 -54.186 33.7393 231 255 24
-49.2949 -52.5418 37.6615 0 44 255
-48.8267 -52.1654 35.3194 74 255 181
-48.5295 -52.0072 32.9442 182 0 0
-50.2303 -50.4882 32.5944 236 0 0
-52.4023 -50.0545 32.3478 151 255 104
-50.8324 -56.5952 28.8752 64 255 191
-54.2555 -53.7253 22.3155 0 243 255
-55.0442 -51.0244 29.7807 0 0 188
-53.8161 -50.9973 29.6675 0 0 228
-54.5553 -50.8923 30.7308 0 0 188
-55.4943 -51.2599 28.892 0 0 145
-55.0442 -51.0244 29.7807 0 0 145
-51.6024 -55.3657 25.1387 0 0 152
-51.2992 -55.4744 25.9149 0 0 152
-51.3604 -54.6023 25.6065 0 0 175
-51.3 -54.9917 24.3515 0 0 128
-51.6024 -55.3657 25.1387 0 0 128
-52.0235 -54.3736 24.0412 0 0 171
-51.6598 -54.8717 23.5624 0 0 149
-51.3 -54.9917 24.3515 0 0 149
-48.3896 -54.1692 34.8839 0 0 149
-48.3641 -55.2724 34.2536 0 0 149
-49.633 -51.9957 38.4515 0 0 133
-49.5795 -52.7372 38.8075 0 0 133
-49.2554 -51.2611 35.0125 0 0 210
-49.2541 -51.5138 36.1224 0 0 175
-49.6828 -50.6095 35.8154 0 0 175
-53.0921 -49.6062 33.2378 0 0 179
-51.9463 -49.7239 33.2346 0 0 216
-52.6361 -49.2756 34.1247 0 0 179
-53.5645 -50.0449 32.3057 0 0 145
-53.0921 -49.6062 33.2378 0 0 145
-55.8227 -53.781 20.9945 0 0 132
-56.7606 -53.3887 20.4406 0 0 132
-54.7558 -51.1702 27.8069 0 0 180
-54.0238 -51.3235 26.8337 0 0 180
-53.5729 -51.2826 27.7443 0 0 217
-54.7558 -51.1702 27.8069 0 0 145
-55.4943 -51.2599 28.892 0 0 145
-50.225 -49.8168 35.48 0 0 139
-49.6828 -50.6095 35.8154 0 0 139
-51.1281 -49.335 35.188 0 0 174
-50.5872 -49.8751 34.4135 0 0 209
-50.225 -49.8168 35.48 0 0 174
-52.1794 -48.9762 35.0874 0 0 145
-51.1281 -49.335 35.188 0 0 145
-52.6361 -49.2756 34.1247 0 0 145
-52.1794 -48.9762 35.0874 0 0 145
-49.9283 -57.3568 32.2094 0 0 153
-49.4094 -57.3565 33.3072 0 0 153
-50.3801 -57.3901 31.1857 0 0 193
-49.9283 -57.3568 32.2094 0 0 193
-49.3752 -56.4563 31.6187 0 0 237
-50.8144 -57.5059 30.1669 0 0 150
-50.3801 -57.3901 31.1857 0 0 150
-51.314 -55.5537 26.7776 0 0 160
-50.8256 -55.5358 27.4748 0 0 160
-50.5688 -54.693 27.0799 0 0 187
-51.314 -55.5537 26.7776 0 0 130
-51.2992 -55.4744 25.9149 0 0 130
-51.5717 -54.5027 22.8559 0 0 129
-51.6598 -54.8717 23.5624 0 0 129
-52.8513 -54.4953 22.4834 0 0 135
-51.5717 -54.5027 22.8559 0 0 135
-56.6115 -52.5462 21.902 0 0 169
-55.6415 -52.9001 22.2152 0 0 200
-56.0518 -52.2913 22.8365 0 0 169
-57.0643 -52.7094 20.9258 0 0 136
-56.6115 -52.5462 21.902 0 0 136
-56.7606 -53.3887 20.4406 0 0 133
-57.0643 -52.7094 20.9258 0 0 133
-54.5546 -51.5754 25.8852 0 0 186
-53.3717 -51.6878 25.8226 0 0 227
-54.0238 -51.3235 26.8337 0 0 186
-55.0167 -51.6773 24.8286 0 0 146
-54.5546 -51.5754 25.8852 0 0 146
-55.6063 -52.03 23.9664 0 0 179
-54.4922 -52.2925 24.0119 0 0 216
-55.0167 -51.6773 24.8286 0 0 179
-56.0518 -52.2913 22.8365 0 0 144
-55.6063 -52.03 23.9664 0 0 144
-48.7763 -56.3909 33.7051 0 0 145
-49.4094 -57.3565 33.3072 0 0 145
-48.5111 -55.3045 33.1908 0 0 229
-48.7763 -56.3909 33.7051 0 0 188
-48.3641 -55.2724 34.2536 0 0 188
-49.3187 -53.3801 38.043 0 0 136
-49.5795 -52.7372 38.8075 0 0 136
-48.9876 -53.3472 36.845 0 0 140
-49.3187 -53.3801 38.043 0 0 140
-49.4882 -51.702 37.2934 0 0 136
-49.633 -51.9957 38.4515 0 0 136
-49.0608 -52.3536 36.4905 0 0 205
-49.4882 -51.702 37.2934 0 0 172
-49.2541 -51.5138 36.1224 0 0 172
-48.7535 -53.1589 35.674 0 0 181
-48.9876 -53.3472 36.845 0 0 181
-49.0608 -52.3536 36.4905 0 0 219
-48.4628 -53.1757 34.5294 0 0 225
-48.3896 -54.1692 34.8839 0 0 185
-48.7535 -53.1589 35.674 0 0 185
-54.027 -50.4502 31.4406 0 0 178
-52.8648 -50.4598 31.4827 0 0 215
-53.5645 -50.0449 32.3057 0 0 178
-54.5553 -50.8923 30.7308 0 0 141
-54.027 -50.4502 31.4406 0 0 141
-51.3171 -57.5587 29.307 0 0 183
-50.8144 -57.5059 30.1669 0 0 183
-50.3298 -56.5424 29.7351 0 0 221
-51.2016 -56.4959 28.0239 0 0 172
-50.4564 -55.6351 28.3261 0 0 206
-50.8256 -55.5358 27.4748 0 0 172
-51.3121 -57.5135 28.2413 0 0 137
-51.2016 -56.4959 28.0239 0 0 137
-51.3171 -57.5587 29.307 0 0 143
-51.3121 -57.5135 28.2413 0 0 143
-53.7874 -54.2311 22.0151 0 0 151
-52.8513 -54.4953 22.4834 0 0 151
-53.3194 -53.9894 22.7838 0 0 174
-54.8498 -54.0661 21.5119 0 0 159
-55.2283 -53.4401 21.7981 0 0 185
-55.8227 -53.781 20.9945 0 0 159
-53.7874 -54.2311 22.0151 0 0 132
-54.8498 -54.0661 21.5119 0 0 132
3 31 9 32
3 33 32 7
3 31 32 33
3 35 34 9
3 0 12 11
3 1 36 38
3 38 37 13
3 36 37 38
3 1 39 40
3 1 41 43
3 41 14 42
3 41 42 43
3 2 18 16
3 4 19 8
3 4 20 19
3 4 22 20
3 44 23 45
3 46 24 47
3 6 48 50
3 48 25 49
3 48 49 50
3 6 26 25
3 6 27 26
3 51 28 52
3 53 52 10
3 51 52 53
3 55 54 28
3 3 29 17
3 5 30 21
3 57 56 15
3 7 8 2
3 9 8 7
3 9 4 8
3 9 58 60
3 60 59 4
3 58 59 60
3 62 61 9
3 63 6 64
3 65 10 66
3 67 66 6
3 65 66 67
3 68 10 69
3 71 70 10
3 11 72 73
3 12 74 76
3 76 75 11
3 74 75 76
3 12 77 78
3 13 79 81
3 81 80 3
3 79 80 81
3 83 82 13
3 14 84 85
3 14 86 87
3 88 15 89
3 90 89 5
3 88 89 90
3 91 15 92
3 94 93 15
3 16 17 0
3 18 17 16
3 18 3 17
3 8 18 2
3 19 18 8
3 19 3 18
3 19 13 3
3 20 13 19
3 20 1 13
3 20 21 1
3 22 21 20
3 22 5 21
3 95 22 96
3 97 96 4
3 95 96 97
3 98 22 99
3 100 5 101
3 102 101 22
3 100 101 102
3 104 103 5
3 105 11 106
3 23 107 109
3 107 11 108
3 107 108 109
3 23 0 11
3 24 110 111
3 24 112 113
3 114 24 115
3 25 116 118
3 116 24 117
3 116 117 118
3 25 119 121
3 121 120 24
3 119 120 121
3 25 122 124
3 122 23 123
3 122 123 124
3 26 23 25
3 26 0 23
3 26 16 0
3 27 16 26
3 27 2 16
3 10 27 6
3 28 27 10
3 28 2 27
3 28 7 2
3 125 7 126
3 127 126 28
3 125 126 127
3 129 128 7
3 17 12 0
3 29 12 17
3 29 130 132
3 132 131 12
3 130 131 132
3 133 29 134
3 135 134 3
3 133 134 135
3 136 29 137
3 139 138 29
3 21 14 1
3 30 14 21
3 30 140 142
3 142 141 14
3 140 141 142
3 15 30 5
3 143 30 144
3 145 144 15
3 143 144 145
3 147 146 30
