ply
format ascii 1.0
element vertex 668
property float x
property float y
property float z
property uchar red
property uchar green
property uchar blue
element face 705
property list uchar int vertex_index
end_header
-7.30818 -73.3464 46.6864 255 209 0
-8.85643 -55.3657 59.8988 0 123 255
-9.68808 -63.2819 54.8133 255 109 0
-6.44114 -64.5236 38.988 245 0 0
-3.81908 -66.5215 30.1781 255 54 0
-4.98069 -65.4493 23.1942 100 255 155
-7.59084 -72.5809 39.765 255 239 0
-7.65977 -49.5187 59.2908 255 169 0
-7.3794 -48.6085 50.9335 228 255 27
-7.10226 -55.0453 52.9088 96 255 159
-7.67918 -63.132 47.0506 255 36 0
-10.2203 -51.4668 68.6831 0 214 255
-6.12251 -61.8719 17.4818 32 255 223
-7.66776 -58.3839 10.4839 0 252 255
-4.3895 -70.6596 35.6376 204 255 51
-4.786 -65.5651 34.5161 197 0 0
-7.11305 -73.5412 42.9608 193 255 62
-7.10302 -52.588 60.8175 152 255 103
-7.32717 -52.2499 56.3268 161 255 94
-7.5341 -55.3351 56.4735 38 255 217
-6.40422 -68.0815 51.9026 255 80 0
-9.05268 -63.4188 50.9305 236 0 0
-5.67129 -68.5219 47.7837 255 84 0
-5.27478 -69.1682 43.6801 255 107 0
-12.614 -48.6904 66.6907 128 0 0
-13.7436 -47.8899 70.8005 0 98 255
-6.0665 -52.2242 47.6926 161 255 94
-8.27931 -48.5493 46.9537 132 255 123
-5.91108 -63.6909 20.5214 33 255 222
-6.24224 -55.3183 8.85023 0 167 255
-5.30481 -56.1314 13.2571 132 255 123
-11.4709 -57.0131 56.2478 82 255 173
-11.1443 -62.226 57.7406 41 255 214
-7.56992 -67.9397 56.0389 0 210 255
-7.49744 -59.2988 41.5936 7 255 248
-7.09735 -59.3163 38.0433 255 210 0
-6.37008 -59.6009 34.0728 225 255 30
-6.84346 -61.1103 30.1383 172 255 83
-6.37645 -60.3553 26.839 120 255 135
-4.16723 -66.4642 26.4575 255 120 0
-6.7133 -48.7178 55.0085 154 255 101
-6.38081 -52.4397 52.018 150 255 105
-8.28525 -54.6266 48.8926 255 153 0
-11.0139 -57.2397 53.4604 255 221 0
-11.9476 -57.7536 49.5838 255 26 0
-10.5522 -58.8483 45.4094 255 97 0
-6.38613 -63.2338 43.2094 255 136 0
-5.00053 -69.8298 39.5179 255 177 0
-12.5181 -48.7406 61.8144 192 255 63
-7.72968 -50.9047 64.6274 255 224 0
-8.41018 -53.8611 64.5008 15 255 240
-6.40107 -59.5838 23.5462 168 255 87
-5.93019 -58.6416 20.0632 255 207 0
-5.38243 -57.4821 16.7732 175 255 80
-6.56408 -60.1581 14.0424 71 255 184
-5.34907 -69.8804 33.5404 38 255 217
-7.11462 -73.5488 44.7375 225 255 30
-8.88984 -74.9286 43.3737 0 225 255
-8.68024 -75.3097 45.092 0 246 255
-7.80756 -54.2283 60.5914 63 255 192
-7.6397 -54.0308 58.6426 75 255 180
-8.01664 -55.4588 58.3948 46 255 209
-6.47749 -70.9696 49.3953 255 105 0
-5.95081 -68.2263 49.8346 255 66 0
-6.2238 -71.2611 47.2333 255 158 0
-5.92777 -71.5107 45.2264 255 225 0
-7.05151 -53.6141 46.1378 0 220 255
-6.83377 -52.1686 45.4661 0 212 255
-12.7298 -59.0034 57.7131 0 123 255
-6.68092 -61.4473 40.6218 255 217 0
-6.5937 -59.2076 39.752 121 255 134
-6.95915 -61.9875 38.5698 255 75 0
-4.3287 -66.0938 32.4608 227 0 0
-5.44403 -62.2151 34.6047 255 6 0
-5.38116 -63.0462 32.4931 182 0 0
-6.69822 -60.5478 32.2146 178 255 77
-5.15928 -63.7219 30.0018 211 0 0
-4.6756 -63.6002 28.058 255 71 0
-3.83194 -66.6925 28.2586 255 127 0
-8.5749 -71.2865 38.7369 42 255 213
-11.2894 -71.5847 39.4716 0 252 255
-10.0702 -48.9425 57.9038 133 255 122
-9.2202 -48.4719 55.8542 56 255 199
-7.15697 -49.2021 57.1061 234 255 21
-6.87975 -53.8726 54.3342 51 255 204
-7.00535 -52.3061 54.1514 156 255 99
-6.10384 -53.8104 52.3218 74 255 181
-5.88882 -53.7687 50.2984 137 255 118
-7.62054 -54.8785 50.8997 240 255 15
-11.3381 -59.9518 55.4046 253 255 2
-11.0698 -57.1242 55.0203 156 255 99
-10.9999 -60.278 53.9563 255 149 0
-8.24529 -63.1251 49.024 255 9 0
-11.0799 -60.8146 50.2062 170 0 0
-10.3756 -60.9452 48.0957 204 0 0
-11.5488 -58.3408 47.4507 255 43 0
-9.13668 -61.0291 46.121 255 48 0
-8.27519 -61.1966 44.1601 255 170 0
-7.28994 -63.3771 44.9367 255 113 0
-5.69208 -71.6521 41.4914 221 255 34
-5.39437 -69.4788 41.6403 255 151 0
-5.47398 -71.6652 39.5103 221 255 34
-6.13487 -71.3645 37.7267 64 255 191
-14.4885 -46.7608 63.0787 71 255 184
-10.5861 -50.2146 68.1784 255 213 0
-9.74889 -50.2169 65.8452 255 16 0
-8.69303 -51.4449 66.8438 135 255 120
-7.45014 -52.4485 65.0474 125 255 130
-8.93107 -52.8601 66.6578 1 255 254
-7.17272 -47.0896 52.0012 0 222 255
-6.70387 -46.6863 49.7609 19 255 236
-7.11283 -46.3268 45.8045 0 112 255
-4.19724 -62.6641 24.8822 255 101 0
-6.39227 -59.8911 25.2304 151 255 104
-4.15497 -62.3935 23.2203 255 115 0
-6.01041 -62.7731 19.0616 30 255 225
-4.16933 -61.613 19.8857 255 185 0
-4.10354 -61.1134 18.1408 255 165 0
-5.63469 -57.9552 18.4675 177 255 78
-4.20355 -60.4874 16.3139 255 167 0
-4.309 -59.8935 14.4256 255 155 0
-6.21683 -61.0151 15.7548 33 255 222
-6.6327 -57.3018 9.33158 193 255 62
-8.19164 -56.2564 8.38678 0 162 255
-9.39291 -57.7087 9.5382 0 158 255
-4.37478 -67.747 37.2302 255 16 0
-5.5391 -65.1012 36.5709 174 0 0
-3.66874 -68.3313 35.0382 255 9 0
-3.47131 -68.8506 32.6498 255 235 0
-4.26904 -68.8385 30.5183 102 255 153
-5.32975 -68.4672 28.8969 43 255 212
-7.13618 -73.3425 41.1012 215 255 40
-10.2442 -72.9283 40.7381 59 255 196
-9.42533 -74.1271 41.9043 2 255 253
-6.47072 -50.8517 60.2777 171 255 84
-6.53557 -50.72 58.0775 134 255 121
-7.26473 -52.3631 58.5847 161 255 94
-7.51598 -54.0096 56.4349 73 255 182
-7.21633 -55.1868 54.6395 25 255 230
-7.93909 -65.7202 53.8344 255 82 0
-9.59942 -63.508 52.899 255 21 0
-7.20892 -65.5815 51.6809 255 42 0
-6.53315 -65.3375 49.6677 255 58 0
-6.15909 -65.4783 47.8031 255 50 0
-5.86742 -65.7253 45.7175 255 28 0
-5.51786 -68.8696 45.7465 255 78 0
-5.81564 -71.7268 43.3749 255 250 0
-14.6363 -46.6156 65.3415 222 255 33
-14.9867 -45.9818 67.4305 108 255 147
-13.0465 -48.4428 68.964 235 255 20
-11.8311 -49.8395 70.0204 5 255 250
-7.44928 -51.0515 49.4619 255 221 0
-7.81063 -48.535 48.9095 255 213 0
-7.74588 -50.9253 47.3274 255 234 0
-8.72948 -51.0096 45.5248 0 187 255
-5.36252 -64.6776 21.6651 67 255 188
-5.57715 -55.8726 10.8207 44 255 211
-5.26851 -58.0374 10.95 255 221 0
-7.61474 -73.2429 48.8079 82 255 173
-8.74219 -75.3417 46.9326 0 185 255
-9.70651 -56.2208 57.9604 0 190 255
-11.7556 -56.8031 57.4095 0 127 255
-12.0115 -59.6044 56.625 184 255 71
-10.1194 -62.8454 56.4386 255 160 0
-8.97799 -65.2849 57.6932 63 255 192
-8.27361 -65.5799 55.8771 255 152 0
-6.92798 -68.0698 54.0452 183 255 72
-6.92112 -70.7189 51.5497 107 255 148
-6.91797 -56.5791 38.8148 0 166 255
-7.64556 -56.8821 37.5368 18 255 237
-6.26539 -62.0986 36.4706 255 41 0
-6.56456 -59.5833 36.1585 255 150 0
-8.26977 -57.6427 35.7063 0 249 255
-6.55477 -60.8995 28.2542 115 255 140
-4.39447 -63.168 26.4965 255 123 0
-4.67048 -66.0241 24.7614 206 255 49
-6.52888 -67.9652 27.2965 99 255 156
-7.32772 -67.1929 25.7127 37 255 218
-8.15661 -47.7458 53.9669 0 226 255
-6.77364 -48.5492 52.9427 133 255 122
-6.81173 -50.3917 55.9756 133 255 122
-7.3388 -50.2394 53.8857 203 255 52
-7.67337 -50.7291 51.746 255 245 0
-5.96926 -52.2591 49.9712 148 255 107
-6.22657 -53.7142 48.2242 204 255 51
-9.11739 -54.5107 46.7662 187 255 68
-9.21906 -56.1966 56.4427 80 255 175
-8.89019 -56.1093 54.8854 105 255 150
-8.9612 -55.9399 53.1895 181 255 74
-11.2044 -60.535 52.2479 255 0 0
-11.5458 -57.3003 51.601 255 86 0
-9.60542 -55.6819 51.3903 255 216 0
-10.6445 -55.5594 49.392 255 126 0
-11.2555 -55.8775 47.272 255 110 0
-10.941 -56.6194 45.1502 92 255 163
-8.9025 -59.1844 43.4568 160 255 95
-7.28854 -61.2488 42.3276 242 255 13
-6.2414 -63.7105 41.2705 255 88 0
-5.58254 -66.0347 43.7873 255 35 0
-5.67482 -66.5747 41.6178 233 0 0
-5.47165 -67.1535 39.1743 254 0 0
-4.30105 -70.2749 37.5986 255 190 0
-7.10807 -70.5074 36.4075 0 213 255
-10.1736 -49.4098 60.5237 255 194 0
-12.5205 -48.9418 64.2249 131 0 0
-9.9506 -49.8983 63.1305 188 0 0
-7.5405 -50.1116 61.8757 255 133 0
-6.69784 -51.5632 62.7799 171 255 84
-7.45679 -53.3133 62.8331 135 255 120
-8.6077 -54.6437 62.0958 0 160 255
-12.1648 -51.0926 70.0401 0 41 255
-10.2763 -53.9543 65.6598 0 97 255
-6.71131 -46.4709 47.6879 34 255 221
-4.14998 -62.0283 21.5668 255 160 0
-6.15733 -59.3369 21.69 255 213 0
-8.87803 -55.994 21.9228 0 245 255
-5.27982 -56.7967 15.004 165 255 90
-4.64515 -59.0539 12.636 255 138 0
-7.23776 -59.1673 12.1759 81 255 174
-7.54695 -53.4846 45.2127 0 0 142
-8.35453 -54.2077 45.4617 0 0 142
-15.1019 -45.3505 63.692 0 0 147
-15.0744 -45.5423 62.7025 0 0 147
-9.47832 -58.5184 10.4756 0 0 167
-10.3409 -58.1808 10.0027 0 0 167
-8.53034 -58.0463 10.0111 0 0 193
-5.09147 -68.7018 32.165 0 0 187
-4.41019 -69.3655 33.0951 0 0 223
-6.03034 -69.2167 32.6103 0 0 187
-5.49033 -68.6958 31.0993 0 0 187
-3.87017 -68.8446 31.584 0 0 223
-5.09147 -68.7018 32.165 0 0 187
-6.01498 -68.1989 30.3353 0 0 147
-5.49033 -68.6958 31.0993 0 0 147
-10.3243 -74.8586 43.0582 0 0 143
-10.0114 -75.4514 43.7282 0 0 143
-15.2908 -44.2175 67.7989 0 0 150
-15.3097 -44.7041 66.856 0 0 150
-13.395 -48.1664 69.8822 0 0 224
-14.1288 -47.0382 69.1771 0 0 187
-14.4773 -46.7618 70.0954 0 0 187
-8.41667 -51.5608 44.5618 0 0 166
-7.78163 -51.5891 45.4954 0 0 192
-7.46882 -52.1403 44.5325 0 0 166
-9.29785 -50.9592 44.6445 0 0 138
-8.41667 -51.5608 44.5618 0 0 138
-5.44098 -56.002 12.0389 0 0 246
-6.02178 -54.6067 12.1656 0 0 202
-5.88561 -54.736 13.3838 0 0 202
-8.43014 -74.0944 48.7954 0 0 146
-7.86054 -73.0485 49.911 0 0 146
-11.9755 -56.685 57.8929 0 0 128
-11.0415 -56.4369 58.2953 0 0 128
-8.27395 -66.6123 56.866 0 0 201
-8.84381 -66.3559 57.8295 0 0 172
-8.13978 -67.6833 57.0024 0 0 172
-7.51373 -71.7865 51.2819 0 0 144
-7.21532 -70.5468 52.519 0 0 144
-7.86054 -73.0485 49.911 0 0 180
-7.26793 -71.9809 50.1788 0 0 212
-7.51373 -71.7865 51.2819 0 0 180
-7.74212 -58.215 41.2136 0 0 150
-8.55728 -58.2759 42.261 0 0 150
-7.48051 -58.7738 33.9088 0 0 179
-8.43036 -57.7947 34.7256 0 0 179
-7.31993 -58.6218 34.8895 0 0 212
-7.80389 -59.6367 30.9783 0 0 195
-7.73127 -59.3555 32.0165 0 0 195
-6.77084 -60.829 31.1765 0 0 235
-7.92734 -59.7534 30.0461 0 0 153
-7.80389 -59.6367 30.9783 0 0 153
-6.69911 -61.0049 29.1963 0 0 232
-7.78299 -59.648 29.1041 0 0 193
-7.92734 -59.7534 30.0461 0 0 193
-7.74592 -67.1869 28.0675 0 0 192
-5.92932 -68.2162 28.0967 0 0 232
-7.14636 -67.4379 28.8677 0 0 192
-9.16566 -65.7345 25.8857 0 0 156
-8.67665 -66.2091 26.5928 0 0 156
-7.80188 -66.7329 24.9062 0 0 162
-9.16566 -65.7345 25.8857 0 0 162
-12.0278 -72.6155 40.2295 0 0 149
-11.4651 -73.1279 41.1118 0 0 149
-9.73044 -75.8975 46.2542 0 0 134
-9.76678 -75.6274 46.9869 0 0 134
-8.38677 -70.2715 37.0386 0 0 175
-6.62147 -70.936 37.0671 0 0 206
-7.90017 -70.7001 37.6982 0 0 175
-8.90315 -69.6735 36.3798 0 0 148
-8.38677 -70.2715 37.0386 0 0 148
-12.4275 -48.5786 60.6327 0 0 150
-13.3888 -47.7701 61.3836 0 0 150
-11.3459 -49.0752 61.169 0 0 216
-11.2552 -48.9132 59.9873 0 0 182
-12.4275 -48.5786 60.6327 0 0 182
-13.1742 -50.7426 70.3512 0 0 133
-12.8641 -50.1741 70.7048 0 0 133
-11.2839 -53.8726 66.1004 0 0 142
-10.6302 -53.363 66.8555 0 0 142
-7.83688 -45.664 46.5172 0 0 138
-7.33362 -45.2757 45.7236 0 0 138
-7.93415 -59.0295 26.7474 0 0 155
-7.83319 -59.2403 27.5946 0 0 155
-7.87327 -58.3717 24.2599 0 0 194
-7.86887 -58.5254 25.102 0 0 194
-6.39667 -59.7374 24.3883 0 0 234
-7.77289 -58.0599 23.4927 0 0 153
-7.87327 -58.3717 24.2599 0 0 153
-7.19839 -56.8862 20.2699 0 0 202
-8.67231 -55.5624 21.1997 0 0 202
-7.40411 -57.3178 20.993 0 0 245
-6.65993 -55.9079 17.8486 0 0 204
-6.78605 -56.1445 18.6957 0 0 204
-5.50856 -57.7187 17.6203 0 0 250
-6.42056 -55.643 16.9969 0 0 160
-6.65993 -55.9079 17.8486 0 0 160
-5.33112 -57.1394 15.8886 0 0 254
-6.36926 -55.3003 16.1123 0 0 208
-6.42056 -55.643 16.9969 0 0 208
-6.76649 -54.7748 8.24409 0 0 143
-6.38698 -53.9675 9.1978 0 0 143
-8.94888 -55.6227 8.42305 0 0 142
-9.61601 -56.5072 8.90219 0 0 142
-6.69444 -69.649 34.2619 0 0 203
-4.86928 -70.27 34.589 0 0 247
-6.21465 -70.0386 35.3105 0 0 203
-7.28529 -68.8176 33.5068 0 0 159
-6.69444 -69.649 34.2619 0 0 159
-6.03034 -69.2167 32.6103 0 0 164
-7.28529 -68.8176 33.5068 0 0 164
-9.9066 -75.6419 44.5873 0 0 166
-10.0114 -75.4514 43.7282 0 0 166
-8.78504 -75.1191 44.2328 0 0 192
-14.5744 -46.4096 71.0264 0 0 150
-14.4773 -46.7618 70.0954 0 0 150
-7.43808 -52.7618 44.8769 0 0 151
-6.94264 -52.8913 45.8019 0 0 169
-7.54695 -53.4846 45.2127 0 0 151
-7.46882 -52.1403 44.5325 0 0 131
-7.43808 -52.7618 44.8769 0 0 131
-6.08641 -54.603 14.5515 0 0 155
-5.88561 -54.736 13.3838 0 0 155
-13.0627 -58.6435 58.1545 0 0 130
-12.4626 -57.7851 58.0447 0 0 130
-12.6223 -60.2232 58.3092 0 0 135
-13.0627 -58.6435 58.1545 0 0 135
-11.8295 -61.8345 58.323 0 0 176
-11.937 -60.6147 57.7269 0 0 208
-12.6223 -60.2232 58.3092 0 0 176
-8.06139 -68.9169 55.636 0 0 145
-8.13978 -67.6833 57.0024 0 0 145
-7.53972 -69.1572 54.7636 0 0 142
-8.06139 -68.9169 55.636 0 0 142
-10.4294 -70.8388 38.4839 0 0 144
-9.12018 -70.661 38.2033 0 0 144
-11.7867 -70.9879 38.8512 0 0 178
-10.4294 -70.8388 38.4839 0 0 178
-9.93213 -71.4356 39.1043 0 0 210
-13.0005 -71.6278 38.6372 0 0 146
-11.7867 -70.9879 38.8512 0 0 146
-9.64518 -48.7072 56.879 0 0 203
-10.6115 -48.3409 56.4874 0 0 173
-11.0365 -48.5762 57.5122 0 0 173
-9.12018 -70.661 38.2033 0 0 172
-7.90017 -70.7001 37.6982 0 0 172
-7.35489 -71.3255 38.2318 0 0 201
-14.374 -46.7802 62.0157 0 0 149
-15.0744 -45.5423 62.7025 0 0 149
-13.5033 -47.7507 62.4465 0 0 215
-13.3888 -47.7701 61.3836 0 0 182
-14.374 -46.7802 62.0157 0 0 182
-8.57395 -46.862 51.4118 0 0 154
-8.84428 -47.2938 52.4232 0 0 154
-8.33952 -46.6603 50.2917 0 0 196
-8.57395 -46.862 51.4118 0 0 196
-6.9383 -46.8879 50.881 0 0 238
-7.97571 -46.2675 49.3638 0 0 149
-8.33952 -46.6603 50.2917 0 0 149
-8.2692 -47.4415 45.5585 0 0 179
-7.69607 -47.4381 46.3791 0 0 211
-8.85244 -48.5528 46.133 0 0 179
-7.55652 -46.3162 45.0022 0 0 145
-8.2692 -47.4415 45.5585 0 0 145
-7.7773 -45.2651 44.9213 0 0 137
-7.33362 -45.2757 45.7236 0 0 160
-7.55652 -46.3162 45.0022 0 0 160
-10.2166 -57.2334 9.4779 0 0 163
-9.61601 -56.5072 8.90219 0 0 163
-8.79228 -56.9826 8.96249 0 0 188
-11.131 -57.9269 9.57666 0 0 138
-10.2166 -57.2334 9.4779 0 0 138
-12.079 -58.399 10.0412 0 0 137
-11.131 -57.9269 9.57666 0 0 161
-10.3409 -58.1808 10.0027 0 0 161
-6.54534 -68.0133 29.5246 0 0 180
-4.79939 -68.6529 29.7076 0 0 214
-6.01498 -68.1989 30.3353 0 0 180
-7.14636 -67.4379 28.8677 0 0 147
-6.54534 -68.0133 29.5246 0 0 147
-11.0557 -73.7273 41.695 0 0 170
-11.4651 -73.1279 41.1118 0 0 170
-9.83474 -73.5277 41.3212 0 0 198
-10.592 -74.4578 42.3236 0 0 167
-9.15758 -74.5278 42.639 0 0 193
-10.3243 -74.8586 43.0582 0 0 167
-11.0557 -73.7273 41.695 0 0 146
-10.592 -74.4578 42.3236 0 0 146
-15.1344 -45.0209 65.8115 0 0 151
-15.1758 -45.2778 64.8234 0 0 151
-14.8115 -46.2987 66.386 0 0 226
-15.1344 -45.0209 65.8115 0 0 189
-15.3097 -44.7041 66.856 0 0 189
-15.0989 -45.8077 68.4104 0 0 154
-15.2908 -44.2175 67.7989 0 0 154
-14.0166 -47.2123 68.1972 0 0 234
-15.0989 -45.8077 68.4104 0 0 194
-14.1288 -47.0382 69.1771 0 0 194
-9.07753 -49.7829 45.4186 0 0 173
-8.85244 -48.5528 46.133 0 0 173
-8.5044 -49.7795 46.2392 0 0 203
-9.07753 -49.7829 45.4186 0 0 145
-9.29785 -50.9592 44.6445 0 0 145
-7.30731 -64.8505 22.2374 0 0 198
-5.1716 -65.0634 22.4296 0 0 240
-7.1164 -65.2363 23.002 0 0 198
-7.74002 -64.1301 21.8026 0 0 158
-7.30731 -64.8505 22.2374 0 0 158
-8.0143 -63.6368 21.2307 0 0 198
-5.6368 -64.1843 21.0932 0 0 240
-7.74002 -64.1301 21.8026 0 0 198
-8.06112 -62.9578 20.7864 0 0 156
-8.0143 -63.6368 21.2307 0 0 156
-8.11078 -62.4989 20.0565 0 0 207
-5.96074 -63.232 19.7915 0 0 253
-8.06112 -62.9578 20.7864 0 0 207
-7.84155 -61.8702 19.3869 0 0 161
-8.11078 -62.4989 20.0565 0 0 161
-7.8976 -61.4196 18.597 0 0 202
-6.06646 -62.3225 18.2717 0 0 246
-7.84155 -61.8702 19.3869 0 0 202
-7.81458 -60.8545 17.8348 0 0 159
-7.8976 -61.4196 18.597 0 0 159
-6.30807 -54.2818 10.0914 0 0 145
-6.38698 -53.9675 9.1978 0 0 145
-5.97553 -54.559 11.0766 0 0 150
-6.02178 -54.6067 12.1656 0 0 150
-5.9097 -55.5954 9.83546 0 0 219
-6.30807 -54.2818 10.0914 0 0 184
-5.97553 -54.559 11.0766 0 0 184
-8.99387 -75.1438 47.8577 0 0 169
-8.17846 -74.2923 47.8702 0 0 196
-8.43014 -74.0944 48.7954 0 0 169
-9.76678 -75.6274 46.9869 0 0 138
-8.99387 -75.1438 47.8577 0 0 138
-10.017 -56.1457 58.5707 0 0 143
-9.28147 -55.7932 58.9296 0 0 158
-9.59192 -55.7182 59.5399 0 0 143
-10.731 -56.5119 57.685 0 0 167
-10.017 -56.1457 58.5707 0 0 149
-11.0415 -56.4369 58.2953 0 0 149
-12.2427 -57.9032 57.5613 0 0 161
-11.9755 -56.685 57.8929 0 0 145
-12.4626 -57.7851 58.0447 0 0 145
-10.7433 -63.3298 58.4165 0 0 145
-11.8295 -61.8345 58.323 0 0 145
-9.66022 -64.8593 58.3927 0 0 139
-8.84381 -66.3559 57.8295 0 0 139
-10.0611 -63.7554 57.7169 0 0 215
-10.7433 -63.3298 58.4165 0 0 181
-9.66022 -64.8593 58.3927 0 0 181
-7.21875 -69.2223 53.7668 0 0 173
-7.24895 -68.0048 55.042 0 0 203
-7.53972 -69.1572 54.7636 0 0 173
-6.92455 -69.3944 52.7974 0 0 199
-7.21875 -69.2223 53.7668 0 0 170
-7.21532 -70.5468 52.519 0 0 170
-7.29025 -58.1694 40.2928 0 0 169
-7.74212 -58.215 41.2136 0 0 169
-7.04557 -59.2532 40.6728 0 0 197
-7.45239 -56.8552 39.8242 0 0 183
-7.29025 -58.1694 40.2928 0 0 183
-6.75583 -57.8933 39.2834 0 0 218
-7.49682 -55.8557 39.5291 0 0 140
-7.45239 -56.8552 39.8242 0 0 140
-7.32353 -55.6077 38.5317 0 0 139
-7.49682 -55.8557 39.5291 0 0 139
-7.68733 -55.7591 37.8927 0 0 152
-7.32353 -55.6077 38.5317 0 0 152
-7.28177 -56.7306 38.1758 0 0 171
-8.4942 -56.0232 37.1796 0 0 142
-7.68733 -55.7591 37.8927 0 0 142
-8.80631 -56.4035 36.2643 0 0 175
-8.4942 -56.0232 37.1796 0 0 175
-7.95767 -57.2624 36.6215 0 0 205
-9.47766 -56.6962 35.5564 0 0 148
-8.80631 -56.4035 36.2643 0 0 148
-9.47766 -56.6962 35.5564 0 0 150
-8.43036 -57.7947 34.7256 0 0 150
-7.64458 -59.2473 32.9798 0 0 183
-7.48051 -58.7738 33.9088 0 0 183
-6.53415 -60.0743 33.1437 0 0 218
-7.64458 -59.2473 32.9798 0 0 150
-7.73127 -59.3555 32.0165 0 0 150
-7.92235 -59.5124 28.3023 0 0 151
-7.78299 -59.648 29.1041 0 0 151
-6.46561 -60.6274 27.5466 0 0 218
-7.83319 -59.2403 27.5946 0 0 183
-7.92235 -59.5124 28.3023 0 0 183
-8.27723 -66.5953 27.3847 0 0 152
-7.74592 -67.1869 28.0675 0 0 152
-6.9283 -67.579 26.5046 0 0 242
-8.27723 -66.5953 27.3847 0 0 200
-8.67665 -66.2091 26.5928 0 0 200
-6.47326 -66.1485 24.4306 0 0 189
-5.9991 -66.6085 25.237 0 0 227
-7.80188 -66.7329 24.9062 0 0 189
-6.62837 -65.8611 23.647 0 0 184
-4.82559 -65.7367 23.9778 0 0 219
-6.47326 -66.1485 24.4306 0 0 184
-7.1164 -65.2363 23.002 0 0 156
-6.62837 -65.8611 23.647 0 0 156
-12.5504 -71.9437 39.5963 0 0 178
-10.7668 -72.2565 40.1048 0 0 210
-12.0278 -72.6155 40.2295 0 0 178
-13.0005 -71.6278 38.6372 0 0 148
-12.5504 -71.9437 39.5963 0 0 148
-9.69947 -75.8816 45.334 0 0 164
-8.71122 -75.3257 46.0123 0 0 190
-9.73044 -75.8975 46.2542 0 0 164
-9.9066 -75.6419 44.5873 0 0 137
-9.69947 -75.8816 45.334 0 0 137
-10.2529 -48.2501 55.3771 0 0 146
-10.6115 -48.3409 56.4874 0 0 146
-9.72114 -47.887 54.4334 0 0 177
-10.2529 -48.2501 55.3771 0 0 177
-8.6884 -48.1088 54.9106 0 0 208
-9.33623 -47.6219 53.406 0 0 149
-9.72114 -47.887 54.4334 0 0 149
-7.66467 -47.4177 52.984 0 0 221
-8.84428 -47.2938 52.4232 0 0 185
-9.33623 -47.6219 53.406 0 0 185
-9.38747 -54.6559 45.7759 0 0 171
-8.35453 -54.2077 45.4617 0 0 171
-8.08445 -54.0624 46.452 0 0 200
-10.2993 -55.7103 44.9679 0 0 169
-9.38747 -54.6559 45.7759 0 0 169
-10.0292 -55.565 45.9582 0 0 196
-10.2791 -56.9362 44.0392 0 0 149
-10.2993 -55.7103 44.9679 0 0 149
-9.25981 -58.2187 43.1926 0 0 180
-10.2791 -56.9362 44.0392 0 0 180
-9.92177 -57.9019 44.3035 0 0 213
-8.19997 -59.2416 42.5252 0 0 202
-8.55728 -58.2759 42.261 0 0 173
-9.25981 -58.2187 43.1926 0 0 173
-7.57394 -69.9625 35.6955 0 0 179
-6.21465 -70.0386 35.3105 0 0 179
-5.74879 -70.5835 36.0226 0 0 211
-7.57394 -69.9625 35.6955 0 0 150
-8.90315 -69.6735 36.3798 0 0 150
-11.2035 -48.6796 58.6774 0 0 144
-11.0365 -48.5762 57.5122 0 0 144
-10.1219 -49.1761 59.2137 0 0 225
-11.2035 -48.6796 58.6774 0 0 188
-11.2552 -48.9132 59.9873 0 0 188
-14.5624 -46.6882 64.2101 0 0 233
-15.1019 -45.3505 63.692 0 0 193
-15.1758 -45.2778 64.8234 0 0 193
-14.3006 -47.4719 71.5111 0 0 142
-14.5744 -46.4096 71.0264 0 0 142
-13.6535 -48.5728 71.085 0 0 131
-14.3006 -47.4719 71.5111 0 0 131
-12.6972 -49.5476 70.695 0 0 154
-12.7874 -48.8647 70.4105 0 0 174
-13.6535 -48.5728 71.085 0 0 154
-11.998 -50.466 70.0302 0 0 166
-12.6972 -49.5476 70.695 0 0 149
-12.8641 -50.1741 70.7048 0 0 149
-12.5723 -51.687 69.44 0 0 139
-13.1742 -50.7426 70.3512 0 0 139
-11.5745 -51.9322 69.0456 0 0 138
-12.5723 -51.687 69.44 0 0 138
-10.6022 -52.1192 68.3672 0 0 160
-11.1926 -51.2797 69.3616 0 0 184
-11.5745 -51.9322 69.0456 0 0 160
-9.95759 -52.8159 67.3545 0 0 162
-9.5757 -52.1634 67.6704 0 0 185
-10.6022 -52.1192 68.3672 0 0 162
-9.60366 -53.4072 66.1588 0 0 199
-9.95759 -52.8159 67.3545 0 0 171
-10.6302 -53.363 66.8555 0 0 171
-11.0837 -54.1288 64.8513 0 0 142
-11.2839 -53.8726 66.1004 0 0 142
-10.1715 -54.2775 64.3981 0 0 141
-11.0837 -54.1288 64.8513 0 0 141
-9.2385 -54.2309 63.8186 0 0 170
-9.34322 -53.9077 65.0803 0 0 198
-10.1715 -54.2775 64.3981 0 0 170
-9.33726 -54.6222 62.6161 0 0 161
-8.50894 -54.2524 63.2983 0 0 184
-9.2385 -54.2309 63.8186 0 0 161
-9.39563 -54.9275 61.4789 0 0 135
-9.33726 -54.6222 62.6161 0 0 135
-9.52 -55.2885 60.3803 0 0 153
-8.73207 -55.0047 60.9973 0 0 173
-9.39563 -54.9275 61.4789 0 0 153
-9.59192 -55.7182 59.5399 0 0 130
-9.52 -55.2885 60.3803 0 0 130
-7.97943 -46.1598 48.3273 0 0 179
-7.97571 -46.2675 49.3638 0 0 179
-6.70759 -46.5786 48.7244 0 0 212
-7.63612 -45.736 47.4589 0 0 165
-6.91207 -46.3988 46.7462 0 0 190
-7.83688 -45.664 46.5172 0 0 165
-7.97943 -46.1598 48.3273 0 0 143
-7.63612 -45.736 47.4589 0 0 143
-7.94206 -58.7973 25.9431 0 0 193
-7.93415 -59.0295 26.7474 0 0 193
-6.38436 -60.1232 26.0347 0 0 232
-7.94206 -58.7973 25.9431 0 0 155
-7.86887 -58.5254 25.102 0 0 155
-7.65102 -57.9364 22.5646 0 0 205
-7.77289 -58.0599 23.4927 0 0 205
-6.2792 -59.4603 22.6181 0 0 251
-9.01137 -56.265 22.681 0 0 197
-7.65102 -57.9364 22.5646 0 0 197
-7.51768 -57.6654 21.8064 0 0 238
-9.11439 -54.3573 23.1526 0 0 152
-9.01137 -56.265 22.681 0 0 152
-8.41313 -54.0767 22.7234 0 0 156
-9.11439 -54.3573 23.1526 0 0 156
-8.41313 -54.0767 22.7234 0 0 157
-8.67231 -55.5624 21.1997 0 0 157
-7.05064 -56.543 19.472 0 0 204
-7.19839 -56.8862 20.2699 0 0 204
-5.78244 -58.2984 19.2654 0 0 249
-7.05064 -56.543 19.472 0 0 160
-6.78605 -56.1445 18.6957 0 0 160
-6.07391 -54.9356 15.4249 0 0 155
-6.36926 -55.3003 16.1123 0 0 155
-5.29231 -56.464 14.1306 0 0 250
-6.08641 -54.603 14.5515 0 0 204
-6.07391 -54.9356 15.4249 0 0 204
-7.86174 -60.4261 16.9713 0 0 205
-6.16967 -61.4435 16.6183 0 0 250
-7.81458 -60.8545 17.8348 0 0 205
-7.73559 -59.9292 16.1452 0 0 158
-7.86174 -60.4261 16.9713 0 0 158
-7.90921 -59.5007 15.2889 0 0 200
-6.39045 -60.5866 14.8986 0 0 242
-7.73559 -59.9292 16.1452 0 0 200
-8.1003 -59.1425 14.2198 0 0 163
-7.90921 -59.5007 15.2889 0 0 163
-8.43714 -58.6471 13.2866 0 0 202
-6.90092 -59.6627 13.1091 0 0 246
-8.1003 -59.1425 14.2198 0 0 202
-8.97233 -58.7759 12.1449 0 0 163
-8.43714 -58.6471 13.2866 0 0 163
-9.18733 -58.3842 11.2989 0 0 190
-7.45276 -58.7756 11.3299 0 0 228
-8.97233 -58.7759 12.1449 0 0 190
-9.47832 -58.5184 10.4756 0 0 150
-9.18733 -58.3842 11.2989 0 0 150
-7.74119 -55.2439 8.01236 0 0 161
-6.76649 -54.7748 8.24409 0 0 161
-7.21694 -55.7873 8.61851 0 0 185
-7.74119 -55.2439 8.01236 0 0 141
-8.94888 -55.6227 8.42305 0 0 141
3 0 58 56
3 1 61 59
3 0 64 62
3 0 56 64
3 220 219 66
3 3 71 69
3 4 74 72
3 4 76 74
3 4 78 76
3 6 80 79
3 7 83 81
3 9 86 84
3 9 88 86
3 2 91 89
3 10 94 92
3 10 96 94
3 10 98 96
3 6 101 99
3 6 79 101
3 221 103 222
3 11 106 104
3 11 108 106
3 8 110 109
3 5 114 112
3 12 117 115
3 12 119 117
3 12 121 119
3 13 124 122
3 13 223 225
3 225 224 124
3 223 224 225
3 14 127 125
3 226 128 227
3 228 227 55
3 226 227 228
3 229 129 230
3 231 230 128
3 229 230 231
3 233 232 129
3 16 133 131
3 235 234 57
3 17 136 134
3 19 137 60
3 19 138 137
3 20 141 139
3 22 142 63
3 22 143 142
3 22 145 143
3 16 146 65
3 16 131 146
3 236 148 237
3 25 238 240
3 238 149 239
3 238 239 240
3 25 150 149
3 26 153 151
3 241 154 242
3 243 242 67
3 241 242 243
3 245 244 154
3 30 246 248
3 246 156 247
3 246 247 248
3 30 157 156
3 250 249 158
3 251 161 252
3 32 162 68
3 32 163 162
3 33 253 255
3 253 164 254
3 253 254 255
3 33 165 164
3 33 166 165
3 256 167 257
3 258 158 259
3 260 259 167
3 258 259 260
3 34 261 262
3 35 168 70
3 35 169 168
3 15 170 126
3 36 171 73
3 36 172 171
3 36 263 265
3 265 264 172
3 263 264 265
3 37 266 268
3 268 267 75
3 266 267 268
3 37 269 270
3 37 271 273
3 271 173 272
3 271 272 273
3 39 174 77
3 39 175 174
3 274 176 275
3 276 275 130
3 274 275 276
3 277 177 278
3 280 279 177
3 282 281 132
3 284 283 159
3 40 178 82
3 40 179 178
3 18 180 135
3 41 181 85
3 41 182 181
3 41 183 182
3 42 184 87
3 42 185 184
3 31 186 160
3 43 187 90
3 43 188 187
3 21 189 140
3 44 190 93
3 44 191 190
3 44 192 191
3 45 193 95
3 45 194 193
3 45 195 194
3 46 196 97
3 46 197 196
3 23 198 144
3 47 199 100
3 47 200 199
3 47 201 200
3 285 202 286
3 287 286 102
3 285 286 287
3 289 288 202
3 48 290 291
3 48 292 294
3 292 203 293
3 292 293 294
3 24 204 147
3 49 205 105
3 49 206 205
3 49 207 206
3 50 208 107
3 50 209 208
3 295 210 296
3 297 211 298
3 27 212 152
3 300 299 111
3 38 301 302
3 51 303 305
3 305 304 113
3 303 304 305
3 51 306 307
3 28 213 155
3 52 214 116
3 52 215 214
3 52 308 310
3 310 309 215
3 308 309 310
3 53 311 313
3 313 312 118
3 311 312 313
3 53 314 315
3 53 316 318
3 316 216 317
3 316 317 318
3 54 217 120
3 54 218 217
3 29 319 320
3 322 321 123
3 323 55 324
3 325 324 14
3 323 324 325
3 326 55 327
3 329 328 55
3 56 57 16
3 58 57 56
3 58 330 332
3 332 331 57
3 330 331 332
3 59 60 17
3 61 60 59
3 61 19 60
3 62 63 20
3 64 63 62
3 64 22 63
3 64 65 22
3 56 65 64
3 56 16 65
3 333 25 334
3 66 67 26
3 335 67 336
3 337 336 66
3 335 336 337
3 339 338 67
3 340 30 341
3 342 68 343
3 344 68 345
3 346 32 347
3 348 347 68
3 346 347 348
3 349 33 350
3 352 351 33
3 69 70 34
3 71 70 69
3 71 35 70
3 72 73 15
3 74 73 72
3 74 36 73
3 74 75 36
3 76 75 74
3 76 37 75
3 76 77 37
3 78 77 76
3 78 39 77
3 79 353 354
3 80 355 357
3 357 356 79
3 355 356 357
3 80 358 359
3 81 360 362
3 360 82 361
3 360 361 362
3 83 82 81
3 83 40 82
3 84 85 18
3 86 85 84
3 86 41 85
3 86 87 41
3 88 87 86
3 88 42 87
3 89 90 31
3 91 90 89
3 91 43 90
3 92 93 21
3 94 93 92
3 94 44 93
3 94 95 44
3 96 95 94
3 96 45 95
3 96 97 45
3 98 97 96
3 98 46 97
3 99 100 23
3 101 100 99
3 101 47 100
3 101 102 47
3 79 102 101
3 79 363 365
3 365 364 102
3 363 364 365
3 103 366 367
3 103 368 370
3 368 48 369
3 368 369 370
3 104 105 24
3 106 105 104
3 106 49 105
3 106 107 49
3 108 107 106
3 108 50 107
3 109 371 372
3 110 373 375
3 375 374 109
3 373 374 375
3 110 376 377
3 378 111 379
3 380 379 27
3 378 379 380
3 381 111 382
3 385 384 111
3 383 384 385
3 112 113 38
3 114 113 112
3 114 51 113
3 115 116 28
3 117 116 115
3 117 52 116
3 117 118 52
3 119 118 117
3 119 53 118
3 119 120 53
3 121 120 119
3 121 54 120
3 122 123 29
3 124 123 122
3 124 386 388
3 388 387 123
3 386 387 388
3 124 389 390
3 393 392 124
3 391 392 393
3 125 126 3
3 127 126 125
3 127 15 126
3 55 127 14
3 128 127 55
3 128 15 127
3 128 72 15
3 129 72 128
3 129 4 72
3 129 130 4
3 394 130 395
3 396 395 129
3 394 395 396
3 398 397 130
3 131 132 6
3 133 132 131
3 133 399 401
3 401 400 132
3 399 400 401
3 57 133 16
3 402 133 403
3 404 403 57
3 402 403 404
3 406 405 133
3 134 135 7
3 136 135 134
3 136 18 135
3 60 136 17
3 137 136 60
3 137 18 136
3 137 84 18
3 138 84 137
3 138 9 84
3 139 140 2
3 141 140 139
3 141 21 140
3 63 141 20
3 142 141 63
3 142 21 141
3 142 92 21
3 143 92 142
3 143 10 92
3 143 144 10
3 145 144 143
3 145 23 144
3 65 145 22
3 146 145 65
3 146 23 145
3 146 99 23
3 131 99 146
3 131 6 99
3 407 147 408
3 148 409 411
3 409 147 410
3 409 410 411
3 148 24 147
3 412 148 413
3 149 414 416
3 414 148 415
3 414 415 416
3 149 24 148
3 149 104 24
3 150 104 149
3 150 11 104
3 151 152 8
3 153 152 151
3 153 27 152
3 67 153 26
3 154 153 67
3 154 27 153
3 154 417 419
3 419 418 27
3 417 418 419
3 421 420 154
3 422 155 423
3 424 423 5
3 422 423 424
3 425 155 426
3 427 28 428
3 429 428 155
3 427 428 429
3 430 28 431
3 432 115 433
3 434 433 28
3 432 433 434
3 435 115 436
3 437 12 438
3 439 438 115
3 437 438 439
3 441 440 12
3 442 29 443
3 156 444 445
3 156 446 448
3 446 29 447
3 446 447 448
3 156 122 29
3 157 122 156
3 157 13 122
3 158 159 0
3 449 159 450
3 451 450 158
3 449 450 451
3 453 452 159
3 454 160 455
3 456 455 1
3 454 455 456
3 161 457 459
3 457 160 458
3 457 458 459
3 161 31 160
3 68 460 462
3 460 161 461
3 460 461 462
3 162 161 68
3 162 31 161
3 162 89 31
3 163 89 162
3 163 2 89
3 463 32 464
3 164 465 466
3 164 467 469
3 467 32 468
3 467 468 469
3 164 163 32
3 165 163 164
3 165 2 163
3 165 139 2
3 166 139 165
3 166 20 139
3 470 166 471
3 472 471 33
3 470 471 472
3 167 473 475
3 473 166 474
3 473 474 475
3 167 20 166
3 167 62 20
3 158 62 167
3 158 0 62
3 70 476 478
3 478 477 34
3 476 477 478
3 168 479 481
3 481 480 70
3 479 480 481
3 168 482 483
3 168 484 485
3 169 486 488
3 488 487 168
3 486 487 488
3 169 489 490
3 126 71 3
3 170 71 126
3 170 35 71
3 73 170 15
3 171 170 73
3 171 35 170
3 171 169 35
3 172 169 171
3 172 491 493
3 493 492 169
3 491 492 493
3 172 494 495
3 497 496 172
3 75 498 500
3 500 499 36
3 498 499 500
3 502 501 75
3 173 503 504
3 173 505 507
3 505 38 506
3 505 506 507
3 77 173 37
3 174 173 77
3 174 38 173
3 174 112 38
3 175 112 174
3 175 5 112
3 130 78 4
3 176 78 130
3 176 39 78
3 508 176 509
3 177 510 512
3 510 176 511
3 510 511 512
3 177 39 176
3 177 175 39
3 513 175 514
3 515 514 177
3 513 514 515
3 516 5 517
3 518 517 175
3 516 517 518
3 520 519 5
3 132 80 6
3 521 80 522
3 523 522 132
3 521 522 523
3 525 524 80
3 159 58 0
3 526 58 527
3 528 527 159
3 526 527 528
3 530 529 58
3 82 531 532
3 178 533 535
3 535 534 82
3 533 534 535
3 178 536 537
3 178 538 540
3 538 109 539
3 538 539 540
3 179 109 178
3 179 8 109
3 135 83 7
3 180 83 135
3 180 40 83
3 85 180 18
3 181 180 85
3 181 40 180
3 181 179 40
3 182 179 181
3 182 8 179
3 182 151 8
3 183 151 182
3 183 26 151
3 87 183 41
3 184 183 87
3 184 26 183
3 184 66 26
3 185 66 184
3 185 541 543
3 543 542 66
3 541 542 543
3 160 61 1
3 186 61 160
3 186 19 61
3 90 186 31
3 187 186 90
3 187 19 186
3 187 138 19
3 188 138 187
3 188 9 138
3 140 91 2
3 189 91 140
3 189 43 91
3 93 189 21
3 190 189 93
3 190 43 189
3 190 188 43
3 191 188 190
3 191 9 188
3 191 88 9
3 192 88 191
3 192 42 88
3 95 192 44
3 193 192 95
3 193 42 192
3 193 185 42
3 194 185 193
3 194 544 546
3 546 545 185
3 544 545 546
3 194 547 548
3 195 549 551
3 551 550 194
3 549 550 551
3 195 552 554
3 552 34 553
3 552 553 554
3 97 195 45
3 196 195 97
3 196 34 195
3 196 69 34
3 197 69 196
3 197 3 69
3 144 98 10
3 198 98 144
3 198 46 98
3 100 198 23
3 199 198 100
3 199 46 198
3 199 197 46
3 200 197 199
3 200 3 197
3 200 125 3
3 201 125 200
3 201 14 125
3 102 201 47
3 202 201 102
3 202 14 201
3 202 555 557
3 557 556 14
3 555 556 557
3 559 558 202
3 560 81 561
3 203 562 564
3 562 81 563
3 562 563 564
3 203 7 81
3 147 565 567
3 565 103 566
3 565 566 567
3 204 103 147
3 204 48 103
3 105 204 24
3 205 204 105
3 205 48 204
3 205 203 48
3 206 203 205
3 206 7 203
3 206 134 7
3 207 134 206
3 207 17 134
3 107 207 49
3 208 207 107
3 208 17 207
3 208 59 17
3 209 59 208
3 209 1 59
3 568 25 569
3 570 25 571
3 572 150 573
3 574 573 25
3 572 573 574
3 210 575 577
3 575 150 576
3 575 576 577
3 210 11 150
3 578 210 579
3 580 210 581
3 582 11 583
3 584 583 210
3 582 583 584
3 585 108 586
3 587 586 11
3 585 586 587
3 211 588 590
3 588 108 589
3 588 589 590
3 211 50 108
3 591 211 592
3 593 211 594
3 595 50 596
3 597 596 211
3 595 596 597
3 598 209 599
3 600 599 50
3 598 599 600
3 601 209 602
3 603 1 604
3 605 604 209
3 603 604 605
3 607 606 1
3 152 110 8
3 212 110 152
3 212 608 610
3 610 609 110
3 608 609 610
3 111 212 27
3 611 212 612
3 613 612 111
3 611 612 613
3 615 614 212
3 113 616 618
3 618 617 38
3 616 617 618
3 620 619 113
3 155 114 5
3 213 114 155
3 213 51 114
3 116 213 28
3 214 213 116
3 214 51 213
3 214 621 623
3 623 622 51
3 621 622 623
3 215 624 626
3 626 625 214
3 624 625 626
3 215 627 628
3 215 629 630
3 632 631 215
3 118 633 635
3 635 634 52
3 633 634 635
3 637 636 118
3 216 638 639
3 216 640 642
3 640 30 641
3 640 641 642
3 120 216 53
3 217 216 120
3 217 30 216
3 217 157 30
3 218 157 217
3 218 13 157
3 643 121 644
3 645 644 12
3 643 644 645
3 646 121 647
3 648 54 649
3 650 649 121
3 648 649 650
3 651 54 652
3 653 218 654
3 655 654 54
3 653 654 655
3 656 218 657
3 658 13 659
3 660 659 218
3 658 659 660
3 662 661 13
3 123 663 665
3 665 664 29
3 663 664 665
3 667 666 123
