ply
format ascii 1.0
element vertex 249
property float x
property float y
property float z
property uchar red
property uchar green
property uchar blue
element face 254
property list uchar int vertex_index
end_header
-23.027 42.6059 -11.2143 255 132 0
-34.472 37.7581 -8.78378 255 167 0
-19.3464 24.2207 -17.0674 76 255 179
-24.2095 32.041 -10.0744 255 234 0
-28.3609 39.694 -9.95767 174 255 81
-29.1988 34.8817 -7.84319 255 202 0
-23.5367 37.3149 -10.8384 185 255 70
-19.9556 34.2948 -14.5941 255 219 0
-21.5359 39.1659 -16.7062 255 90 0
-32.5466 42.957 -11.3816 0 151 255
-28.2115 45.7091 -11.2293 255 187 0
-24.5861 23.5881 -16.2158 39 255 216
-22.3013 18.9134 -18.7079 0 192 255
-36.1711 31.5836 -10.9062 255 70 0
-31.1309 31.234 -13.2604 70 255 185
-27.3259 28.4018 -15.0908 72 255 183
-21.0994 28.1954 -13.0811 217 255 38
-19.3694 29.9924 -19.037 87 255 168
-22.1676 49.9841 -11.6082 192 255 63
-17.4343 45.3317 -14.7125 255 242 0
-25.6055 41.2544 -10.1083 187 255 68
-25.7723 38.6616 -9.7454 161 255 94
-23.6879 39.8409 -11.6309 181 255 74
-22.7137 38.1886 -13.6904 226 255 29
-23.2605 41.0185 -14.5923 255 86 0
-30.4855 43.2692 -13.0295 35 255 220
-21.5665 23.5163 -15.4691 223 255 32
-23.4578 21.3005 -17.5803 15 255 240
-20.5748 21.2322 -16.7867 255 242 0
-37.4435 36.4635 -10.4977 80 255 175
-38.5845 33.2467 -11.1531 105 255 150
-35.3517 34.6601 -9.03143 255 115 0
-26.5064 33.6851 -9.01464 255 216 0
-30.0976 32.6437 -10.0901 255 145 0
-27.6923 31.5786 -11.1468 255 186 0
-28.9721 30.2022 -14.2471 62 255 193
-25.6311 29.993 -12.1197 255 208 0
-24.1819 28.0304 -13.1123 255 222 0
-22.2616 30.3676 -11.6129 246 255 9
-19.8699 34.861 -18.2111 111 255 144
-19.577 32.1656 -16.6775 255 178 0
-18.7522 32.8294 -20.3261 0 238 255
-24.869 52.2413 -11.128 102 255 153
-15.6854 43.3232 -17.9408 153 255 102
-18.6394 21.9696 -19.0961 0 220 255
-31.1739 38.969 -8.52604 248 255 7
-31.9072 36.2389 -7.6194 255 193 0
-28.5486 37.6413 -7.94349 235 255 20
-25.8216 36.3368 -8.56634 232 255 23
-23.2771 34.7514 -9.71068 246 255 9
-21.1211 33.1803 -11.3094 255 244 0
-21.358 35.8942 -12.2802 250 255 5
-21.0277 36.6477 -15.7196 251 255 4
-18.886 37.2301 -18.1317 68 255 187
-36.3962 39.3546 -11.1116 0 217 255
-33.3489 40.5023 -10.0342 90 255 165
-30.5974 40.9169 -10.8139 181 255 74
-28.0412 42.1655 -11.2375 255 227 0
-25.2919 44.2741 -9.84229 255 82 0
-19.3094 18.6602 -18.8734 0 217 255
-39.5946 30.1741 -12.6808 0 241 255
-37.0375 28.9673 -13.5602 4 255 251
-32.6641 33.3533 -8.96193 255 111 0
-33.4973 30.9724 -11.917 225 255 30
-26.1399 26.0318 -15.8606 70 255 185
-23.0272 25.7173 -14.1001 255 255 0
-20.2839 26.2076 -14.9011 217 255 38
-19.9739 31.294 -13.3193 255 242 0
-19.3925 29.1343 -15.3318 255 212 0
-19.1757 27.0555 -17.8452 44 255 211
-28.2127 50.3538 -11.194 136 255 119
-25.2402 48.3199 -10.1041 151 0 0
-22.3782 46.1954 -10.9667 226 0 0
-20.2621 47.9658 -13.7362 220 255 35
-21.4314 44.3982 -14.2146 167 0 0
-19.208 42.052 -15.6411 128 0 0
-17.1255 39.8872 -17.9112 240 255 15
-17.8763 34.1236 -20.5089 0 0 164
-19.311 33.8452 -19.2686 0 0 195
-18.4352 35.1394 -19.4514 0 0 164
-17.2175 33.2317 -21.7469 0 0 135
-17.8763 34.1236 -20.5089 0 0 135
-37.6136 40.1023 -11.8347 0 0 128
-37.8557 38.7654 -11.8394 0 0 128
-34.1324 42.516 -11.3547 0 0 132
-33.8779 44.0176 -11.0752 0 0 132
-32.9478 41.7297 -10.7079 0 0 183
-34.5335 41.2886 -10.681 0 0 156
-34.1324 42.516 -11.3547 0 0 156
-25.1946 22.6125 -18.1391 0 0 136
-25.8375 23.7532 -17.6313 0 0 136
-23.4953 19.0302 -19.8144 0 0 163
-24.0735 20.2238 -19.2506 0 0 163
-22.8796 20.107 -18.1441 0 0 194
-22.8209 17.8316 -19.8301 0 0 128
-23.4953 19.0302 -19.8144 0 0 128
-18.5892 19.0533 -20.1867 0 0 165
-18.9744 20.3149 -18.9848 0 0 196
-18.2542 20.708 -20.2981 0 0 165
-32.8752 30.3063 -14.2847 0 0 171
-34.0584 30.1755 -13.613 0 0 171
-32.3141 31.1032 -12.5887 0 0 206
-31.8105 30.5733 -14.9226 0 0 133
-32.8752 30.3063 -14.2847 0 0 133
-29.0341 28.2948 -16.2458 0 0 168
-29.8573 29.195 -15.8239 0 0 168
-28.149 29.302 -14.6689 0 0 201
-28.1743 27.2036 -16.7632 0 0 140
-29.0341 28.2948 -16.2458 0 0 140
-26.7329 27.2168 -15.4757 0 0 205
-27.5813 26.0186 -17.1481 0 0 171
-28.1743 27.2036 -16.7632 0 0 171
-18.7201 28.9066 -20.216 0 0 169
-18.6233 27.4382 -19.6201 0 0 169
-19.2725 28.524 -18.4411 0 0 203
-28.0269 52.7084 -11.3976 0 0 144
-29.4702 51.6411 -11.5531 0 0 144
-18.8482 46.6488 -14.2243 0 0 236
-18.4632 48.5956 -14.3128 0 0 191
-17.0494 47.2785 -14.801 0 0 191
-15.7947 40.732 -19.8081 0 0 204
-16.4054 41.6052 -17.926 0 0 255
-15.0746 42.45 -19.8229 0 0 204
-16.3573 39.1235 -19.6993 0 0 148
-15.7947 40.732 -19.8081 0 0 148
-32.4859 44.5439 -11.4382 0 0 131
-33.8779 44.0176 -11.0752 0 0 131
-31.4553 44.7 -12.2622 0 0 156
-31.5161 43.1131 -12.2055 0 0 183
-32.4859 44.5439 -11.4382 0 0 156
-30.5157 45.462 -12.8253 0 0 134
-31.4553 44.7 -12.2622 0 0 134
-29.3787 46.682 -11.9252 0 0 182
-29.3485 44.4892 -12.1294 0 0 222
-30.5157 45.462 -12.8253 0 0 182
-38.014 34.8551 -10.8254 0 0 202
-39.3969 34.2861 -11.9935 0 0 168
-38.8264 35.8945 -11.6658 0 0 168
-17.8756 31.7184 -21.4031 0 0 174
-18.1842 30.3 -20.7585 0 0 174
-19.0608 31.4109 -19.6815 0 0 210
-17.8756 31.7184 -21.4031 0 0 140
-17.2175 33.2317 -21.7469 0 0 140
-24.6861 54.2614 -11.4611 0 0 145
-26.355 53.6521 -11.3645 0 0 145
-23.272 52.8749 -11.8797 0 0 146
-24.6861 54.2614 -11.4611 0 0 146
-21.9213 51.7463 -12.1197 0 0 178
-23.5183 51.1127 -11.3681 0 0 216
-23.272 52.8749 -11.8797 0 0 178
-16.0398 46.0643 -16.216 0 0 151
-17.0494 47.2785 -14.801 0 0 151
-15.1653 45.06 -17.8301 0 0 193
-16.5599 44.3275 -16.3267 0 0 239
-16.0398 46.0643 -16.216 0 0 193
-14.5478 44.1052 -19.7987 0 0 152
-15.1653 45.06 -17.8301 0 0 152
-15.0746 42.45 -19.8229 0 0 148
-14.5478 44.1052 -19.7987 0 0 148
-18.5406 23.494 -19.8707 0 0 167
-18.9929 23.0952 -18.0818 0 0 200
-18.8941 24.6195 -18.8563 0 0 167
-17.8914 22.358 -20.7681 0 0 135
-18.5406 23.494 -19.8707 0 0 135
-18.2542 20.708 -20.2981 0 0 138
-17.8914 22.358 -20.7681 0 0 138
-17.9433 36.3239 -19.4117 0 0 161
-18.4352 35.1394 -19.4514 0 0 161
-19.378 36.0456 -18.1714 0 0 190
-38.3794 37.3198 -11.5325 0 0 132
-38.8264 35.8945 -11.6658 0 0 132
-36.9198 37.909 -10.8047 0 0 193
-38.3794 37.3198 -11.5325 0 0 163
-37.8557 38.7654 -11.8394 0 0 163
-36.0572 40.7148 -11.2197 0 0 130
-37.6136 40.1023 -11.8347 0 0 130
-34.8725 39.9285 -10.5729 0 0 183
-36.0572 40.7148 -11.2197 0 0 156
-34.5335 41.2886 -10.681 0 0 156
-24.6305 21.4688 -18.8214 0 0 166
-25.1946 22.6125 -18.1391 0 0 166
-24.022 22.4443 -16.8981 0 0 199
-24.6305 21.4688 -18.8214 0 0 133
-24.0735 20.2238 -19.2506 0 0 133
-18.8317 17.315 -20.2291 0 0 135
-18.5892 19.0533 -20.1867 0 0 135
-19.9938 17.4643 -19.3592 0 0 129
-18.8317 17.315 -20.2291 0 0 129
-21.4898 17.5909 -19.2765 0 0 155
-20.8054 18.7868 -18.7906 0 0 181
-19.9938 17.4643 -19.3592 0 0 155
-22.8209 17.8316 -19.8301 0 0 130
-21.4898 17.5909 -19.2765 0 0 130
-40.0423 32.6781 -12.4334 0 0 137
-39.3969 34.2861 -11.9935 0 0 137
-40.5474 31.1418 -13.1972 0 0 168
-40.0423 32.6781 -12.4334 0 0 168
-39.0896 31.7104 -11.917 0 0 201
-41.0522 29.6287 -13.5827 0 0 131
-40.5474 31.1418 -13.1972 0 0 131
-39.9272 28.9531 -13.5871 0 0 128
-41.0522 29.6287 -13.5827 0 0 128
-38.6486 28.3497 -14.0268 0 0 159
-39.9272 28.9531 -13.5871 0 0 159
-38.3161 29.5707 -13.1205 0 0 188
-37.5181 27.9673 -14.7412 0 0 130
-38.6486 28.3497 -14.0268 0 0 130
-35.8285 29.1729 -14.4346 0 0 177
-35.2674 29.9699 -12.7386 0 0 215
-34.0584 30.1755 -13.613 0 0 177
-37.5181 27.9673 -14.7412 0 0 133
-35.8285 29.1729 -14.4346 0 0 133
-30.7311 30.0574 -15.416 0 0 165
-31.8105 30.5733 -14.9226 0 0 165
-30.0515 30.7181 -13.7537 0 0 197
-30.7311 30.0574 -15.416 0 0 135
-29.8573 29.195 -15.8239 0 0 135
-26.6144 24.9751 -17.4537 0 0 136
-27.5813 26.0186 -17.1481 0 0 136
-25.363 24.81 -16.0382 0 0 204
-25.8375 23.7532 -17.6313 0 0 170
-26.6144 24.9751 -17.4537 0 0 170
-18.8087 26.0369 -19.2452 0 0 166
-18.8941 24.6195 -18.8563 0 0 166
-19.2611 25.6381 -17.4563 0 0 198
-18.8087 26.0369 -19.2452 0 0 134
-18.6233 27.4382 -19.6201 0 0 134
-18.7201 28.9066 -20.216 0 0 137
-18.1842 30.3 -20.7585 0 0 137
-29.3793 49.0043 -11.9076 0 0 148
-29.4702 51.6411 -11.5531 0 0 148
-28.2121 48.0315 -11.2117 0 0 226
-29.3787 46.682 -11.9252 0 0 184
-29.3793 49.0043 -11.9076 0 0 184
-26.5408 51.2975 -11.161 0 0 250
-28.0269 52.7084 -11.3976 0 0 201
-26.355 53.6521 -11.3645 0 0 201
-20.6761 50.7362 -12.779 0 0 141
-21.9213 51.7463 -12.1197 0 0 141
-19.7233 49.727 -13.843 0 0 141
-18.4632 48.5956 -14.3128 0 0 141
-21.2148 48.975 -12.6722 0 0 220
-20.6761 50.7362 -12.779 0 0 180
-19.7233 49.727 -13.843 0 0 180
-17.2376 37.7949 -19.8095 0 0 188
-18.0058 38.5587 -18.0215 0 0 231
-16.3573 39.1235 -19.6993 0 0 188
-17.9433 36.3239 -19.4117 0 0 142
-17.2376 37.7949 -19.8095 0 0 142
3 0 22 20
3 0 24 22
3 2 28 26
3 1 31 29
3 3 34 32
3 3 36 34
3 3 38 36
3 77 41 78
3 79 78 39
3 77 78 79
3 81 80 41
3 4 47 45
3 6 48 21
3 6 49 48
3 6 51 49
3 8 52 23
3 8 53 52
3 82 54 83
3 9 84 85
3 9 86 88
3 86 55 87
3 86 87 88
3 9 56 55
3 10 57 25
3 10 58 57
3 11 89 90
3 12 91 93
3 93 92 27
3 91 92 93
3 12 94 95
3 96 59 97
3 98 97 44
3 96 97 98
3 13 60 30
3 13 61 60
3 5 62 46
3 14 63 33
3 14 99 101
3 101 100 63
3 99 100 101
3 14 102 103
3 15 104 106
3 106 105 35
3 104 105 106
3 15 107 108
3 15 109 111
3 109 64 110
3 109 110 111
3 16 65 37
3 16 66 65
3 7 67 50
3 17 68 40
3 17 69 68
3 17 112 114
3 114 113 69
3 112 113 114
3 115 70 116
3 18 71 42
3 18 72 71
3 19 117 119
3 117 73 118
3 117 118 119
3 19 74 73
3 19 75 74
3 120 76 121
3 122 121 43
3 120 121 122
3 124 123 76
3 20 21 4
3 22 21 20
3 22 6 21
3 22 23 6
3 24 23 22
3 24 8 23
3 125 9 126
3 127 25 128
3 129 128 9
3 127 128 129
3 130 25 131
3 132 10 133
3 134 133 25
3 132 133 134
3 26 27 11
3 28 27 26
3 28 12 27
3 29 135 137
3 135 30 136
3 135 136 137
3 31 30 29
3 31 13 30
3 32 33 5
3 34 33 32
3 34 14 33
3 34 35 14
3 36 35 34
3 36 15 35
3 36 37 15
3 38 37 36
3 38 16 37
3 39 40 7
3 41 40 39
3 41 17 40
3 41 138 140
3 140 139 17
3 138 139 140
3 142 141 41
3 143 42 144
3 145 42 146
3 147 18 148
3 149 148 42
3 147 148 149
3 150 19 151
3 152 43 153
3 154 153 19
3 152 153 154
3 155 43 156
3 158 157 43
3 159 44 160
3 161 160 2
3 159 160 161
3 162 44 163
3 165 164 44
3 45 46 1
3 47 46 45
3 47 5 46
3 21 47 4
3 48 47 21
3 48 5 47
3 48 32 5
3 49 32 48
3 49 3 32
3 49 50 3
3 51 50 49
3 51 7 50
3 23 51 6
3 52 51 23
3 52 7 51
3 52 39 7
3 53 39 52
3 53 166 168
3 168 167 39
3 166 167 168
3 169 29 170
3 54 171 173
3 171 29 172
3 171 172 173
3 54 1 29
3 174 54 175
3 55 176 178
3 176 54 177
3 176 177 178
3 55 1 54
3 55 45 1
3 56 45 55
3 56 4 45
3 25 56 9
3 57 56 25
3 57 4 56
3 57 20 4
3 58 20 57
3 58 0 20
3 27 179 181
3 181 180 11
3 179 180 181
3 183 182 27
3 44 28 2
3 59 28 44
3 59 12 28
3 184 59 185
3 186 59 187
3 188 12 189
3 190 189 59
3 188 189 190
3 192 191 12
3 30 193 194
3 60 195 197
3 197 196 30
3 195 196 197
3 60 198 199
3 60 200 201
3 61 202 204
3 204 203 60
3 202 203 204
3 61 205 206
3 46 31 1
3 62 31 46
3 62 13 31
3 33 62 5
3 63 62 33
3 63 13 62
3 63 61 13
3 207 61 208
3 209 208 63
3 207 208 209
3 211 210 61
3 35 212 214
3 214 213 14
3 212 213 214
3 216 215 35
3 64 217 218
3 64 219 221
3 219 11 220
3 219 220 221
3 37 64 15
3 65 64 37
3 65 11 64
3 65 26 11
3 66 26 65
3 66 2 26
3 50 38 3
3 67 38 50
3 67 16 38
3 40 67 7
3 68 67 40
3 68 16 67
3 68 66 16
3 69 66 68
3 69 2 66
3 69 222 224
3 224 223 2
3 222 223 224
3 226 225 69
3 228 227 17
3 70 229 230
3 70 231 233
3 231 10 232
3 231 232 233
3 42 234 236
3 234 70 235
3 234 235 236
3 71 70 42
3 71 10 70
3 71 58 10
3 72 58 71
3 72 0 58
3 237 18 238
3 73 239 240
3 73 241 243
3 241 18 242
3 241 242 243
3 73 72 18
3 74 72 73
3 74 0 72
3 74 24 0
3 75 24 74
3 75 8 24
3 43 75 19
3 76 75 43
3 76 8 75
3 76 53 8
3 244 53 245
3 246 245 76
3 244 245 246
3 248 247 53
