ply
format ascii 1.0
element vertex 397
property float x
property float y
property float z
property uchar red
property uchar green
property uchar blue
element face 438
property list uchar int vertex_index
end_header
14.5752 40.5552 -17.374 255 64 0
16.6379 14.1936 -11.0925 0 175 255
17.8501 39.3892 -12.9647 255 123 0
14.6362 53.064 -22.7162 192 0 0
13.6717 27.8957 -18.8141 83 255 172
14.9125 27.1459 -13.5501 255 229 0
17.9931 24.871 -9.89077 255 201 0
22.8414 22.7804 -7.35662 112 255 143
13.0852 39.9138 -23.3358 177 0 0
13.7095 33.954 -17.7913 255 114 0
14.0301 27.6824 -15.9704 255 204 0
14.634 33.833 -15.2472 255 184 0
19.9384 38.3636 -11.2712 14 255 241
17.8435 32.2919 -11.3128 255 141 0
19.9565 31.0248 -9.8375 255 88 0
20.1953 23.9255 -8.57691 255 105 0
22.4658 29.8238 -8.51513 143 255 112
14.6113 46.7444 -19.7877 255 32 0
13.5199 46.5377 -22.8408 202 0 0
13.5687 40.305 -20.1817 255 63 0
13.3061 34.0469 -20.8921 130 255 125
15.901 15.7058 -13.5466 0 147 255
16.2168 47.1565 -17.2194 255 46 0
16.0224 40.0506 -14.9473 255 102 0
17.9697 46.3191 -14.9277 127 255 128
16.313 53.5031 -19.8348 255 8 0
17.7899 12.8895 -9.06301 0 111 255
14.7238 21.456 -14.6264 65 255 190
15.5516 20.4609 -12.1904 206 255 49
16.0063 33.1338 -13.1005 255 207 0
16.2337 26.1678 -11.5535 255 238 0
16.8066 19.1478 -10.2277 188 255 67
18.4722 18.1765 -8.68967 241 255 14
20.7402 17.1243 -7.33699 66 255 189
13.3059 52.1352 -25.9369 139 0 0
12.793 45.592 -26.4168 223 255 32
13.0973 39.0262 -27.1949 115 255 140
14.0244 37.178 -17.5682 255 77 0
14.0818 33.7767 -16.4987 255 156 0
14.5578 37.0167 -16.252 255 116 0
19.9981 34.8488 -10.5182 210 255 45
21.1013 33.9931 -9.78811 20 255 235
21.1586 30.2715 -9.14726 208 255 47
14.5593 43.6372 -18.5824 255 84 0
14.0008 43.6336 -19.9786 255 60 0
14.0003 40.5406 -18.764 255 69 0
13.6148 37.2374 -19.006 255 64 0
16.2124 14.9881 -12.2592 0 203 255
17.163 50.2741 -17.2626 156 255 99
17.0764 46.8465 -16.0399 246 255 9
17.2294 56.5661 -19.9155 40 255 215
17.2342 53.5393 -18.5468 156 255 99
16.2089 50.3295 -18.5567 255 12 0
13.983 24.9385 -17.9116 0 199 255
14.4137 27.3037 -14.6959 255 197 0
14.3154 24.4881 -15.2775 255 253 0
14.6972 23.9887 -13.9891 255 248 0
15.0785 21.013 -13.3469 205 255 50
15.1731 23.8098 -12.8453 234 255 21
16.8932 39.7081 -13.8987 255 132 0
15.9429 36.4626 -13.9997 255 162 0
16.832 36.3957 -13.0627 255 133 0
17.8927 28.662 -10.5863 255 138 0
16.9179 29.1123 -11.3981 255 174 0
17.0472 25.5542 -10.6956 255 209 0
16.4145 22.4404 -10.9078 237 255 18
17.2513 22.1654 -10.0627 244 255 11
17.5635 18.6704 -9.42926 197 255 58
18.1603 21.5068 -9.30426 255 249 0
21.4935 23.3401 -7.94933 255 87 0
20.3962 20.4316 -7.96809 255 129 0
21.703 19.992 -7.36568 102 255 153
14.5308 56.0098 -24.3952 232 255 23
13.796 55.3552 -25.8592 255 154 0
13.9336 52.4875 -24.182 163 0 0
13.1917 43.1853 -23.1048 171 0 0
13.0861 46.0942 -24.6256 181 0 0
12.9522 42.7828 -24.9041 128 0 0
12.8428 42.2579 -26.7306 255 246 0
13.0335 39.3062 -25.1943 145 0 0
13.2987 36.3821 -25.7511 74 255 181
13.1748 36.7241 -23.8939 188 255 67
13.4483 31.0848 -19.8365 110 255 145
13.5726 30.7771 -18.2718 255 116 0
13.7933 27.6256 -17.288 255 182 0
13.8214 30.6693 -16.8656 255 166 0
14.2288 30.787 -15.532 255 180 0
14.7447 30.535 -14.346 255 211 0
18.8831 39.0781 -12.1187 217 255 38
17.8126 35.7999 -12.1049 255 94 0
18.8481 35.1381 -11.2495 255 99 0
18.8944 31.7285 -10.5342 255 122 0
18.9205 27.8939 -9.83298 255 118 0
19.0406 24.4172 -9.20855 255 160 0
20.1405 27.4745 -9.15481 255 113 0
21.3405 26.8866 -8.54385 255 89 0
22.6155 26.074 -7.91902 255 50 0
14.6752 50.0752 -21.1792 235 0 0
13.9961 49.674 -22.6885 211 0 0
14.0373 46.7639 -21.237 255 7 0
13.5466 43.5109 -21.4814 251 0 0
13.2841 40.1103 -21.602 255 7 0
13.1894 36.9504 -22.1259 255 234 0
13.3343 37.0242 -20.5015 255 62 0
13.4419 33.9435 -19.2477 255 78 0
15.2972 43.9427 -17.3201 255 73 0
15.2475 40.4698 -16.1447 255 88 0
16.0622 43.6974 -16.1197 255 64 0
16.9003 43.1267 -14.9433 255 80 0
17.8492 42.8448 -13.9379 255 97 0
18.9417 45.7583 -13.8744 21 255 234
18.9025 42.3334 -12.9313 103 255 152
15.3935 56.2844 -22.7609 220 255 35
16.3153 56.5613 -21.2866 189 255 66
15.4256 53.3169 -21.235 224 0 0
15.403 50.2272 -19.8097 255 6 0
15.3273 46.9263 -18.4804 255 39 0
17.1626 13.4969 -10.0195 0 177 255
14.1023 24.638 -16.5084 94 255 161
14.5174 21.757 -15.8908 0 162 255
15.2408 18.6458 -13.965 0 217 255
15.5707 17.9941 -12.8004 180 255 75
16.0354 17.1177 -11.6493 156 255 99
15.2051 37.0626 -15.1404 255 153 0
15.2783 33.5869 -14.1218 255 210 0
15.3557 30.2243 -13.2973 255 239 0
16.8361 32.6117 -12.17 255 138 0
16.0259 29.6194 -12.3511 255 220 0
15.517 26.5306 -12.4859 252 255 3
15.767 23.1294 -11.7998 215 255 40
16.1223 19.6366 -11.1667 181 255 74
16.57 16.4656 -10.6116 143 255 112
17.2268 16.0053 -9.65691 144 255 111
17.9988 15.3853 -8.81402 29 255 226
18.9116 14.8636 -8.05164 0 241 255
19.1969 20.9281 -8.61337 255 187 0
19.5432 17.5982 -7.9799 255 223 0
19.9011 14.4228 -7.39257 0 183 255
23.7819 29.1823 -7.8753 38 255 217
24.0201 25.6753 -7.32428 28 255 227
13.5137 57.972 -27.6536 0 237 255
13.1235 54.8246 -27.5368 229 255 26
12.7746 51.4948 -27.6859 127 255 128
13.4046 49.2318 -24.4002 183 0 0
12.9608 48.7012 -26.0684 255 173 0
21.6808 35.4353 -9.72894 0 0 144
21.0886 35.8519 -10.1298 0 0 144
21.6952 33.6614 -9.44723 0 0 142
21.6808 35.4353 -9.72894 0 0 142
16.7803 13.2574 -11.4461 0 0 149
16.5675 13.6547 -12.0294 0 0 149
16.4251 14.5909 -11.6759 0 0 170
17.6559 50.0754 -16.6312 0 0 145
17.6798 51.7774 -17.2632 0 0 145
17.7154 53.41 -17.9053 0 0 142
17.7383 54.9184 -18.5045 0 0 142
17.6798 51.7774 -17.2632 0 0 182
17.1986 51.9067 -17.9047 0 0 219
17.7154 53.41 -17.9053 0 0 182
13.8274 26.4171 -18.3628 0 0 198
13.988 25.0985 -18.6661 0 0 168
13.8323 26.5771 -19.1173 0 0 168
22.9162 21.0842 -7.07391 0 0 174
22.347 19.69 -7.07844 0 0 174
22.2722 21.3862 -7.36115 0 0 207
13.6872 27.9844 -19.5833 0 0 176
13.5755 29.5789 -20.0945 0 0 176
13.56 29.4902 -19.3253 0 0 210
13.8323 26.5771 -19.1173 0 0 138
13.6872 27.9844 -19.5833 0 0 138
16.2024 14.7299 -14.0072 0 0 131
15.8117 16.0048 -14.1898 0 0 131
19.5001 45.5128 -13.3558 0 0 146
19.5326 47.2972 -13.8323 0 0 146
19.4804 43.8003 -12.8842 0 0 180
18.9221 44.0459 -13.4029 0 0 217
19.5001 45.5128 -13.3558 0 0 180
19.4746 42.132 -12.469 0 0 142
19.4804 43.8003 -12.8842 0 0 142
15.8165 57.9321 -22.8196 0 0 151
15.3197 57.7046 -23.5931 0 0 151
17.791 11.8137 -9.31941 0 0 147
17.4774 12.1174 -9.79768 0 0 147
17.4763 13.1932 -9.54128 0 0 167
14.8879 20.2289 -14.9668 0 0 156
14.7847 20.3794 -15.599 0 0 156
14.6206 21.6065 -15.2586 0 0 181
14.9823 20.0509 -14.2957 0 0 185
15.1464 18.8238 -14.6361 0 0 159
14.8879 20.2289 -14.9668 0 0 159
20.9085 15.4414 -7.02332 0 0 168
20.4889 14.0907 -7.05112 0 0 168
20.3206 15.7736 -7.36478 0 0 199
24.4191 28.7671 -7.55289 0 0 141
24.354 30.4671 -7.76421 0 0 141
24.5382 27.0136 -7.27738 0 0 175
23.901 27.4288 -7.59979 0 0 209
24.4191 28.7671 -7.55289 0 0 175
13.9427 58.4174 -26.8594 0 0 150
13.7903 59.6408 -27.6905 0 0 150
12.6991 46.901 -27.1487 0 0 188
12.7829 48.4556 -26.9745 0 0 188
12.8769 47.1466 -26.2426 0 0 228
12.7004 45.3113 -27.3695 0 0 150
12.6991 46.901 -27.1487 0 0 150
12.9678 40.4117 -27.9322 0 0 195
12.8406 42.0276 -27.7001 0 0 195
12.97 40.6421 -26.9627 0 0 239
13.1725 38.9378 -28.2528 0 0 152
12.9678 40.4117 -27.9322 0 0 152
13.3013 37.6713 -27.4736 0 0 149
13.1725 38.9378 -28.2528 0 0 149
13.5311 35.009 -26.0802 0 0 148
13.3909 35.0315 -25.072 0 0 148
13.3162 33.9437 -21.751 0 0 183
13.2579 35.3954 -22.3679 0 0 183
13.2478 35.4986 -21.509 0 0 221
20.537 36.2797 -10.4949 0 0 175
19.9683 36.6062 -10.8947 0 0 208
20.5072 38.0371 -10.8714 0 0 175
20.5497 34.421 -10.1532 0 0 208
20.537 36.2797 -10.4949 0 0 175
21.0886 35.8519 -10.1298 0 0 175
21.7239 31.8006 -9.1268 0 0 178
21.1299 32.1323 -9.46769 0 0 214
21.6952 33.6614 -9.44723 0 0 178
22.3775 31.5768 -8.81073 0 0 179
21.8122 30.0476 -8.8312 0 0 215
21.7239 31.8006 -9.1268 0 0 179
16.4395 14.0114 -12.6813 0 0 154
16.2838 14.3703 -13.3249 0 0 154
16.0567 15.3469 -12.9029 0 0 178
16.4395 14.0114 -12.6813 0 0 131
16.5675 13.6547 -12.0294 0 0 131
17.6125 48.3615 -16.0198 0 0 184
17.1197 48.5603 -16.6512 0 0 222
17.6559 50.0754 -16.6312 0 0 184
18.0592 48.0978 -15.4637 0 0 178
17.523 46.5828 -15.4838 0 0 213
17.6125 48.3615 -16.0198 0 0 178
17.7359 56.4318 -19.1889 0 0 144
17.6815 57.8971 -19.8998 0 0 144
17.2318 55.0527 -19.2312 0 0 221
17.7359 56.4318 -19.1889 0 0 183
17.7383 54.9184 -18.5045 0 0 183
18.0848 11.4558 -8.83504 0 0 128
18.1564 12.6151 -8.64691 0 0 128
14.1812 23.79 -18.2973 0 0 135
13.988 25.0985 -18.6661 0 0 135
14.1748 23.6413 -17.5874 0 0 133
14.1812 23.79 -18.2973 0 0 133
21.8706 18.2421 -7.03389 0 0 176
21.3892 16.8083 -7.01954 0 0 176
21.2216 18.5582 -7.35133 0 0 210
21.8706 18.2421 -7.03389 0 0 141
22.347 19.69 -7.07844 0 0 141
14.1634 55.6825 -25.1272 0 0 233
14.0838 57.109 -25.9621 0 0 191
14.4512 57.4363 -25.2302 0 0 191
13.3289 35.2025 -24.1434 0 0 187
13.3909 35.0315 -25.072 0 0 187
13.2367 36.5531 -24.8225 0 0 227
13.474 30.9852 -20.6423 0 0 180
13.4029 32.4663 -21.1701 0 0 180
13.3772 32.5658 -20.3643 0 0 216
13.474 30.9852 -20.6423 0 0 142
13.5755 29.5789 -20.0945 0 0 142
16.2024 14.7299 -14.0072 0 0 133
16.2838 14.3703 -13.3249 0 0 133
18.5475 47.8416 -14.8915 0 0 145
18.0592 48.0978 -15.4637 0 0 145
19.0335 47.5612 -14.3649 0 0 144
19.5326 47.2972 -13.8323 0 0 144
18.4557 46.0387 -14.4011 0 0 215
18.5475 47.8416 -14.8915 0 0 179
19.0335 47.5612 -14.3649 0 0 179
19.4649 40.5044 -12.0627 0 0 175
18.8928 40.7057 -12.525 0 0 209
19.4746 42.132 -12.469 0 0 175
19.9925 40.1471 -11.6389 0 0 175
19.4107 38.7208 -11.695 0 0 208
19.4649 40.5044 -12.0627 0 0 175
20.5082 39.7686 -11.2143 0 0 141
19.9925 40.1471 -11.6389 0 0 141
20.5072 38.0371 -10.8714 0 0 141
20.5082 39.7686 -11.2143 0 0 141
14.8883 57.5673 -24.4103 0 0 150
14.4512 57.4363 -25.2302 0 0 150
14.9621 56.1471 -23.5781 0 0 233
14.8883 57.5673 -24.4103 0 0 191
15.3197 57.7046 -23.5931 0 0 191
17.2098 58.0842 -20.6524 0 0 144
17.6815 57.8971 -19.8998 0 0 144
16.7527 58.0819 -21.3379 0 0 182
17.2098 58.0842 -20.6524 0 0 182
16.7724 56.5637 -20.6011 0 0 219
16.2774 58.0705 -22.0825 0 0 147
16.7527 58.0819 -21.3379 0 0 147
15.8544 56.4229 -22.0238 0 0 233
15.8165 57.9321 -22.8196 0 0 191
16.2774 58.0705 -22.0825 0 0 191
17.2381 12.4891 -10.3318 0 0 148
16.9758 12.8375 -10.8682 0 0 148
16.9002 13.8453 -10.556 0 0 168
17.2381 12.4891 -10.3318 0 0 128
17.4774 12.1174 -9.79768 0 0 128
17.791 11.8137 -9.31941 0 0 128
18.0848 11.4558 -8.83504 0 0 128
14.2344 23.4911 -16.8858 0 0 158
14.1748 23.6413 -17.5874 0 0 158
14.0426 24.7882 -17.21 0 0 183
14.442 22.0506 -16.577 0 0 160
14.2344 23.4911 -16.8858 0 0 160
14.3098 23.1975 -16.1996 0 0 186
14.7105 20.7182 -16.3191 0 0 132
14.442 22.0506 -16.577 0 0 132
14.7105 20.7182 -16.3191 0 0 134
14.7847 20.3794 -15.599 0 0 134
15.4816 17.4748 -14.399 0 0 133
15.1464 18.8238 -14.6361 0 0 133
15.5709 17.1758 -13.7558 0 0 186
15.8117 16.0048 -14.1898 0 0 160
15.4816 17.4748 -14.399 0 0 160
18.2608 13.863 -8.52242 0 0 150
18.1564 12.6151 -8.64691 0 0 150
17.8944 14.1374 -8.93852 0 0 171
18.7172 13.6021 -8.14123 0 0 154
18.2608 13.863 -8.52242 0 0 154
18.4552 15.1245 -8.43283 0 0 177
19.1575 13.2108 -7.75008 0 0 131
18.7172 13.6021 -8.14123 0 0 131
19.6523 12.9904 -7.42055 0 0 160
19.1575 13.2108 -7.75008 0 0 160
19.4063 14.6432 -7.72211 0 0 186
20.1583 12.783 -7.06463 0 0 134
19.6523 12.9904 -7.42055 0 0 134
20.1583 12.783 -7.06463 0 0 136
20.4889 14.0907 -7.05112 0 0 136
20.9085 15.4414 -7.02332 0 0 140
21.3892 16.8083 -7.01954 0 0 140
23.0647 31.2422 -8.44079 0 0 145
22.3775 31.5768 -8.81073 0 0 145
23.7227 30.9214 -8.12087 0 0 142
24.354 30.4671 -7.76421 0 0 142
23.1239 29.503 -8.19521 0 0 214
23.0647 31.2422 -8.44079 0 0 179
23.7227 30.9214 -8.12087 0 0 179
24.7076 25.3422 -7.01004 0 0 142
24.5382 27.0136 -7.27738 0 0 142
24.0928 23.9651 -7.05901 0 0 143
24.7076 25.3422 -7.01004 0 0 143
23.5034 22.5177 -7.07518 0 0 177
23.4307 24.2279 -7.34045 0 0 211
24.0928 23.9651 -7.05901 0 0 177
22.9162 21.0842 -7.07391 0 0 142
23.5034 22.5177 -7.07518 0 0 142
13.3254 59.2666 -28.5557 0 0 154
13.7903 59.6408 -27.6905 0 0 154
13.1515 57.5567 -28.4555 0 0 152
13.3254 59.2666 -28.5557 0 0 152
13.6549 56.6636 -26.7564 0 0 245
13.9427 58.4174 -26.8594 0 0 199
14.0838 57.109 -25.9621 0 0 199
12.9564 55.983 -28.397 0 0 188
13.1515 57.5567 -28.4555 0 0 188
13.3186 56.3983 -27.5952 0 0 228
12.8014 54.4695 -28.4777 0 0 150
12.9564 55.983 -28.397 0 0 150
12.6269 52.8046 -28.5523 0 0 201
12.8014 54.4695 -28.4777 0 0 201
12.949 53.1597 -27.6113 0 0 248
12.5473 51.1722 -28.6319 0 0 152
12.6269 52.8046 -28.5523 0 0 152
12.6898 49.8524 -27.7833 0 0 194
12.8677 50.098 -26.8771 0 0 237
12.7829 48.4556 -26.9745 0 0 194
12.5473 51.1722 -28.6319 0 0 153
12.6898 49.8524 -27.7833 0 0 153
12.7253 43.6442 -27.5264 0 0 197
12.7004 45.3113 -27.3695 0 0 197
12.8179 43.925 -26.5737 0 0 242
12.7253 43.6442 -27.5264 0 0 152
12.8406 42.0276 -27.7001 0 0 152
13.402 36.3492 -26.7518 0 0 186
13.3013 37.6713 -27.4736 0 0 186
13.198 37.7041 -26.473 0 0 226
13.402 36.3492 -26.7518 0 0 147
13.5311 35.009 -26.0802 0 0 147
13.2505 35.2823 -23.2519 0 0 185
13.1821 36.8373 -23.0099 0 0 224
13.2579 35.3954 -22.3679 0 0 185
13.3289 35.2025 -24.1434 0 0 146
13.2505 35.2823 -23.2519 0 0 146
13.3162 33.9437 -21.751 0 0 146
13.4029 32.4663 -21.1701 0 0 146
16.7803 13.2574 -11.4461 0 0 128
16.9758 12.8375 -10.8682 0 0 128
3 0 39 37
3 145 41 146
3 148 147 41
3 0 45 43
3 0 37 45
3 1 149 151
3 151 150 47
3 149 150 151
3 153 152 48
3 154 51 155
3 156 48 157
3 158 157 51
3 156 157 158
3 4 159 161
3 159 53 160
3 159 160 161
3 5 56 54
3 5 58 56
3 2 61 59
3 6 64 62
3 6 66 64
3 6 68 66
3 7 71 69
3 7 162 164
3 164 163 71
3 162 163 164
3 3 74 72
3 8 77 75
3 8 79 77
3 8 81 79
3 4 165 167
3 167 166 82
3 165 166 167
3 4 168 169
3 9 85 83
3 11 86 38
3 11 87 86
3 12 90 88
3 14 91 40
3 14 92 91
3 14 94 92
3 16 95 42
3 16 96 95
3 17 99 97
3 19 100 44
3 19 101 100
3 19 103 101
3 9 104 46
3 9 83 104
3 21 170 171
3 22 107 105
3 24 108 49
3 24 109 108
3 172 110 173
3 174 111 175
3 176 175 110
3 174 175 176
3 178 177 111
3 179 112 180
3 25 113 50
3 25 114 113
3 25 115 114
3 22 116 52
3 22 105 116
3 26 181 183
3 183 182 117
3 181 182 183
3 10 118 84
3 27 119 55
3 27 184 186
3 186 185 119
3 184 185 186
3 27 187 189
3 187 120 188
3 187 188 189
3 28 121 57
3 28 122 121
3 23 123 106
3 29 124 60
3 29 125 124
3 13 126 89
3 30 127 63
3 30 128 127
3 30 129 128
3 31 130 65
3 31 131 130
3 31 132 131
3 32 133 67
3 32 134 133
3 15 135 93
3 33 136 70
3 33 137 136
3 33 190 192
3 192 191 137
3 190 191 192
3 193 138 194
3 195 139 196
3 197 196 138
3 195 196 197
3 198 140 199
3 34 141 73
3 34 142 141
3 18 143 98
3 35 144 76
3 35 200 202
3 202 201 144
3 200 201 202
3 35 203 204
3 36 205 207
3 207 206 78
3 205 206 207
3 36 208 209
3 36 210 211
3 213 212 80
3 20 214 216
3 216 215 102
3 214 215 216
3 37 38 9
3 39 38 37
3 39 11 38
3 217 40 218
3 219 218 12
3 217 218 219
3 41 220 222
3 220 40 221
3 220 221 222
3 41 14 40
3 41 42 14
3 223 42 224
3 225 224 41
3 223 224 225
3 226 16 227
3 228 227 42
3 226 227 228
3 43 44 17
3 45 44 43
3 45 19 44
3 45 46 19
3 37 46 45
3 37 9 46
3 47 229 231
3 231 230 21
3 229 230 231
3 233 232 47
3 48 49 22
3 234 49 235
3 236 235 48
3 234 235 236
3 237 24 238
3 239 238 49
3 237 238 239
3 240 50 241
3 51 242 244
3 242 50 243
3 242 243 244
3 51 25 50
3 51 52 25
3 48 52 51
3 48 22 52
3 246 245 26
3 53 247 248
3 53 249 250
3 54 55 10
3 56 55 54
3 56 27 55
3 56 57 27
3 58 57 56
3 58 28 57
3 59 60 23
3 61 60 59
3 61 29 60
3 62 63 13
3 64 63 62
3 64 30 63
3 64 65 30
3 66 65 64
3 66 31 65
3 66 67 31
3 68 67 66
3 68 32 67
3 69 70 15
3 71 70 69
3 71 33 70
3 71 251 253
3 253 252 33
3 251 252 253
3 255 254 71
3 72 256 258
3 256 73 257
3 256 257 258
3 74 73 72
3 74 34 73
3 75 76 18
3 77 76 75
3 77 35 76
3 77 78 35
3 79 78 77
3 79 36 78
3 79 80 36
3 81 80 79
3 81 259 261
3 261 260 80
3 259 260 261
3 82 262 264
3 264 263 20
3 262 263 264
3 266 265 82
3 83 84 4
3 85 84 83
3 85 10 84
3 38 85 9
3 86 85 38
3 86 10 85
3 86 54 10
3 87 54 86
3 87 5 54
3 88 89 2
3 90 89 88
3 90 13 89
3 40 90 12
3 91 90 40
3 91 13 90
3 91 62 13
3 92 62 91
3 92 6 62
3 92 93 6
3 94 93 92
3 94 15 93
3 42 94 14
3 95 94 42
3 95 15 94
3 95 69 15
3 96 69 95
3 96 7 69
3 97 98 3
3 99 98 97
3 99 18 98
3 44 99 17
3 100 99 44
3 100 18 99
3 100 75 18
3 101 75 100
3 101 8 75
3 101 102 8
3 103 102 101
3 103 20 102
3 46 103 19
3 104 103 46
3 104 20 103
3 104 82 20
3 83 82 104
3 83 4 82
3 268 267 21
3 105 106 0
3 107 106 105
3 107 23 106
3 49 107 22
3 108 107 49
3 108 23 107
3 108 59 23
3 109 59 108
3 109 2 59
3 269 24 270
3 110 271 272
3 110 273 275
3 273 24 274
3 273 274 275
3 110 109 24
3 111 109 110
3 111 2 109
3 111 88 2
3 276 88 277
3 278 277 111
3 276 277 278
3 279 12 280
3 281 280 88
3 279 280 281
3 282 12 283
3 285 284 12
3 286 72 287
3 112 288 290
3 288 72 289
3 288 289 290
3 112 3 72
3 50 291 292
3 113 293 295
3 295 294 50
3 293 294 295
3 113 296 297
3 113 298 300
3 298 112 299
3 298 299 300
3 114 112 113
3 114 3 112
3 114 97 3
3 115 97 114
3 115 17 97
3 52 115 25
3 116 115 52
3 116 17 115
3 116 43 17
3 105 43 116
3 105 0 43
3 117 301 303
3 303 302 1
3 301 302 303
3 305 304 117
3 307 306 26
3 84 53 4
3 118 53 84
3 118 308 310
3 310 309 53
3 308 309 310
3 55 118 10
3 119 118 55
3 119 311 313
3 313 312 118
3 311 312 313
3 119 314 315
3 317 316 119
3 120 318 319
3 120 320 322
3 320 21 321
3 320 321 322
3 57 120 27
3 121 120 57
3 121 21 120
3 121 47 21
3 122 47 121
3 122 1 47
3 106 39 0
3 123 39 106
3 123 11 39
3 60 123 23
3 124 123 60
3 124 11 123
3 124 87 11
3 125 87 124
3 125 5 87
3 89 61 2
3 126 61 89
3 126 29 61
3 63 126 13
3 127 126 63
3 127 29 126
3 127 125 29
3 128 125 127
3 128 5 125
3 128 58 5
3 129 58 128
3 129 28 58
3 65 129 30
3 130 129 65
3 130 28 129
3 130 122 28
3 131 122 130
3 131 1 122
3 131 117 1
3 132 117 131
3 132 26 117
3 67 132 31
3 133 132 67
3 133 26 132
3 133 323 325
3 325 324 26
3 323 324 325
3 134 326 328
3 328 327 133
3 326 327 328
3 134 329 330
3 93 68 6
3 135 68 93
3 135 32 68
3 70 135 15
3 136 135 70
3 136 32 135
3 136 134 32
3 137 134 136
3 137 331 333
3 333 332 134
3 331 332 333
3 137 334 335
3 337 336 137
3 339 338 33
3 340 16 341
3 138 342 343
3 138 344 346
3 344 16 345
3 344 345 346
3 138 96 16
3 139 96 138
3 139 7 96
3 347 139 348
3 349 139 350
3 351 7 352
3 353 352 139
3 351 352 353
3 355 354 7
3 140 356 357
3 140 358 359
3 73 360 362
3 360 140 361
3 360 361 362
3 141 140 73
3 141 363 365
3 365 364 140
3 363 364 365
3 141 366 367
3 142 368 370
3 370 369 141
3 368 369 370
3 142 371 372
3 98 74 3
3 143 74 98
3 143 34 74
3 76 143 18
3 144 143 76
3 144 34 143
3 144 142 34
3 373 142 374
3 375 374 144
3 373 374 375
3 377 376 142
3 78 378 380
3 380 379 35
3 378 379 380
3 382 381 78
3 80 383 385
3 385 384 36
3 383 384 385
3 387 386 80
3 102 81 8
3 388 81 389
3 390 389 102
3 388 389 390
3 392 391 81
3 394 393 20
3 396 395 1
