ply
format ascii 1.0
element vertex 110
property float x
property float y
property float z
property uchar red
property uchar green
property uchar blue
element face 95
property list uchar int vertex_index
end_header
14.725 85.7654 -26.7409 143 0 0
18.3943 83.4043 -17.1517 194 255 61
16.6145 86.074 -13.6495 0 225 255
13.1505 89.8644 -24.3305 255 254 0
15.2501 88.2201 -19.0187 235 255 20
16.8092 85.0164 -21.9525 216 0 0
12.769 88.1883 -28.1095 255 242 0
13.4998 85.7689 -29.079 121 255 134
17.5408 84.9059 -15.4974 235 255 20
15.891 87.3786 -16.2811 252 255 3
16.88 85.8996 -18.1502 161 0 0
16.1487 86.6434 -20.6107 196 0 0
17.7998 84.0357 -19.5569 221 0 0
18.2865 82.3559 -20.9952 172 255 83
19.1455 81.5503 -18.4299 52 255 203
16.3269 83.333 -25.5074 205 255 50
15.1981 83.343 -27.7401 91 255 164
11.9474 90.3181 -26.8366 126 255 129
14.0267 87.9137 -25.6369 128 0 0
14.3586 89.0418 -21.6454 243 255 12
15.1093 87.4608 -23.1448 172 0 0
15.8073 85.5411 -24.3958 183 0 0
17.391 82.957 -23.1868 190 255 65
16.4836 82.1191 -25.9298 0 0 131
17.0421 82.0294 -24.8236 0 0 131
12.549 90.0913 -25.5836 0 0 225
11.4555 91.2506 -26.1616 0 0 180
12.0571 91.0237 -24.9086 0 0 180
15.7071 87.3324 -14.0598 0 0 133
16.0075 86.7051 -12.8241 0 0 133
14.6645 88.983 -18.1702 0 0 182
14.9849 88.5622 -16.8014 0 0 182
15.5706 87.7994 -17.6499 0 0 228
14.2264 89.4796 -19.5582 0 0 139
14.6645 88.983 -18.1702 0 0 139
14.8044 88.631 -20.3321 0 0 232
13.7806 89.8904 -20.8715 0 0 184
14.2264 89.4796 -19.5582 0 0 184
18.5157 81.2867 -21.4902 0 0 128
18.9316 81.0429 -20.3379 0 0 128
14.5571 83.3079 -28.8322 0 0 131
15.3159 82.1263 -28.1005 0 0 131
12.1354 88.1043 -29.319 0 0 136
11.7389 89.2757 -28.7333 0 0 136
12.5008 86.8946 -29.8038 0 0 183
12.1354 88.1043 -29.319 0 0 183
13.1344 86.9786 -28.5942 0 0 230
12.8498 85.6021 -30.2225 0 0 136
12.5008 86.8946 -29.8038 0 0 136
12.6532 90.7195 -23.5691 0 0 137
12.0571 91.0237 -24.9086 0 0 137
19.3611 80.6401 -19.0552 0 0 170
18.9316 81.0429 -20.3379 0 0 170
18.716 81.9531 -19.7125 0 0 211
16.8699 85.4191 -12.3984 0 0 133
16.0075 86.7051 -12.8241 0 0 133
17.3881 84.8352 -13.288 0 0 131
16.8699 85.4191 -12.3984 0 0 131
17.8513 84.2512 -14.212 0 0 174
17.0776 85.4899 -14.5735 0 0 217
17.3881 84.8352 -13.288 0 0 174
18.2942 83.5786 -15.0336 0 0 132
17.8513 84.2512 -14.212 0 0 132
18.721 82.8278 -15.8607 0 0 176
17.9675 84.1551 -16.3246 0 0 220
18.2942 83.5786 -15.0336 0 0 176
19.1051 82.0089 -16.5683 0 0 132
18.721 82.8278 -15.8607 0 0 132
15.9192 82.1241 -27.0462 0 0 172
15.7625 83.338 -26.6238 0 0 213
16.4836 82.1191 -25.9298 0 0 172
15.3159 82.1263 -28.1005 0 0 129
15.9192 82.1241 -27.0462 0 0 129
10.8919 91.3209 -27.4585 0 0 134
11.4555 91.2506 -26.1616 0 0 134
11.3282 90.3406 -28.0968 0 0 133
10.8919 91.3209 -27.4585 0 0 133
12.3582 89.2532 -27.4731 0 0 227
11.7389 89.2757 -28.7333 0 0 181
11.3282 90.3406 -28.0968 0 0 181
15.3454 87.9847 -15.3756 0 0 181
15.7071 87.3324 -14.0598 0 0 181
16.2527 86.7263 -14.9653 0 0 226
15.3454 87.9847 -15.3756 0 0 136
14.9849 88.5622 -16.8014 0 0 136
13.2572 90.3082 -22.2265 0 0 139
13.7806 89.8904 -20.8715 0 0 139
13.7545 89.4531 -22.988 0 0 236
12.6532 90.7195 -23.5691 0 0 187
13.2572 90.3082 -22.2265 0 0 187
17.5742 81.8414 -23.6633 0 0 171
17.0421 82.0294 -24.8236 0 0 171
16.8589 83.145 -24.3471 0 0 212
18.068 81.5873 -22.586 0 0 166
17.8387 82.6565 -22.091 0 0 204
18.5157 81.2867 -21.4902 0 0 166
17.5742 81.8414 -23.6633 0 0 128
18.068 81.5873 -22.586 0 0 128
19.4807 81.0819 -17.2074 0 0 172
18.7699 82.4773 -17.7908 0 0 214
19.1051 82.0089 -16.5683 0 0 172
19.7556 80.213 -17.8099 0 0 128
19.4807 81.0819 -17.2074 0 0 128
19.3611 80.6401 -19.0552 0 0 129
19.7556 80.213 -17.8099 0 0 129
13.708 84.5209 -29.5016 0 0 176
14.349 84.5559 -28.4096 0 0 219
14.5571 83.3079 -28.8322 0 0 176
12.8498 85.6021 -30.2225 0 0 133
13.708 84.5209 -29.5016 0 0 133
3 0 7 6
3 1 10 8
3 1 12 10
3 1 14 12
3 24 23 15
3 3 25 27
3 25 17 26
3 25 26 27
3 3 18 17
3 2 28 29
3 4 30 32
3 32 31 9
3 30 31 32
3 4 33 34
3 4 35 37
3 35 19 36
3 35 36 37
3 5 20 11
3 5 21 20
3 5 22 21
3 39 38 13
3 41 40 16
3 6 42 43
3 7 44 46
3 46 45 6
3 44 45 46
3 7 47 48
3 49 3 50
3 8 9 2
3 10 9 8
3 10 4 9
3 10 11 4
3 12 11 10
3 12 5 11
3 12 13 5
3 14 13 12
3 14 51 53
3 53 52 13
3 51 52 53
3 54 2 55
3 56 2 57
3 58 8 59
3 60 59 2
3 58 59 60
3 61 8 62
3 63 1 64
3 65 64 8
3 63 64 65
3 67 66 1
3 15 16 0
3 68 16 69
3 70 69 15
3 68 69 70
3 72 71 16
3 17 73 74
3 17 75 76
3 17 77 79
3 77 6 78
3 77 78 79
3 18 6 17
3 18 0 6
3 9 80 82
3 82 81 2
3 80 81 82
3 84 83 9
3 19 85 86
3 19 87 89
3 87 3 88
3 87 88 89
3 11 19 4
3 20 19 11
3 20 3 19
3 20 18 3
3 21 18 20
3 21 0 18
3 21 15 0
3 22 15 21
3 22 90 92
3 92 91 15
3 90 91 92
3 13 22 5
3 93 22 94
3 95 94 13
3 93 94 95
3 97 96 22
3 98 14 99
3 100 99 1
3 98 99 100
3 101 14 102
3 104 103 14
3 16 7 0
3 105 7 106
3 107 106 16
3 105 106 107
3 109 108 7
