ply
format ascii 1.0
element vertex 754
property float x
property float y
property float z
property uchar red
property uchar green
property uchar blue
element face 781
property list uchar int vertex_index
end_header
-20.2543 0.383875 71.5135 255 9 0
6.13366 10.6707 54.3679 255 50 0
24.7451 29.7237 27.6374 228 255 27
35.7151 24.6285 10.6893 255 81 0
-12.8327 6.19735 67.8098 255 101 0
-6.35786 2.83905 64.6464 255 168 0
-13.3542 -3.72909 69.5292 204 255 51
1.01486 1.89239 59.7707 255 116 0
16.865 21.0903 42.5013 255 191 0
19.0469 30.5945 36.3847 249 255 6
22.9961 21.4428 34.7274 252 0 0
29.0445 21.1391 26.4074 63 255 192
34.4681 28.1664 3.42807 2 255 253
13.3818 11.5068 48.1805 27 255 228
8.3695 2.70604 54.1542 85 255 170
30.5284 28.0224 18.6405 204 0 0
-9.28218 8.7513 65.3393 108 255 147
-6.57824 7.03854 64.0279 234 255 21
-9.67254 4.16545 66.4629 255 153 0
-3.29483 6.38207 61.9753 255 155 0
18.4527 16.5026 41.9124 255 217 0
20.0021 21.1511 38.7759 237 0 0
-23.0947 2.96586 71.3447 22 255 233
-16.9085 -2.12698 70.889 255 42 0
-17.1223 -7.18471 71.4915 123 255 132
-20.5955 -5.63479 72.3605 255 101 0
9.84403 11.0344 51.3777 255 65 0
7.41771 6.46936 54.2193 255 95 0
-2.10429 -1.94912 62.4978 81 255 174
1.75875 -1.88836 59.8179 59 255 196
8.3024 15.4774 51.6692 248 0 0
11.8294 15.8022 48.6895 222 0 0
22.0153 30.0156 32.0652 255 246 0
27.5464 29.1423 23.1153 229 255 26
35.3037 26.6275 6.89985 209 255 46
-16.3273 3.52825 69.8387 255 27 0
-19.3782 6.57919 70.2176 55 255 200
-6.07841 -1.48011 65.0764 113 255 142
-9.71632 -0.519808 67.1867 255 67 0
-13.2185 1.24411 68.8339 255 93 0
2.53293 10.4509 57.04 217 255 38
3.75078 6.1516 57.0513 255 80 0
0.175642 6.07508 59.6331 255 146 0
-2.68223 2.22377 62.294 255 126 0
18.2205 25.7304 39.4867 255 164 0
21.1205 25.6861 35.6117 164 0 0
23.9945 25.7052 31.3402 189 0 0
27.008 25.2929 26.8873 178 0 0
25.9067 21.2958 30.7593 255 226 0
32.8583 31.3572 6.94203 7 255 248
33.3022 29.1422 10.4678 255 28 0
4.61888 2.09383 57.1393 255 136 0
5.51197 -1.49953 57.0498 54 255 201
15.162 16.2271 45.4734 229 0 0
30.6425 31.1237 14.7804 71 255 184
33.1947 26.7803 14.4968 255 11 0
29.8414 24.9035 22.6493 250 0 0
32.8443 23.8858 18.4351 247 0 0
35.6161 22.3631 14.5309 109 255 146
-7.86773 9.95272 64.2237 0 122 255
-6.65144 9.16206 63.6332 0 200 255
-8.00034 7.80046 64.7687 219 255 36
-5.26965 8.76338 62.8129 0 246 255
20.0195 16.8364 40.0112 59 255 196
-22.025 -1.56582 72.0671 255 246 0
-23.4541 -0.169577 71.884 27 255 228
-21.6806 1.81256 71.4977 255 43 0
-18.6323 -0.982736 71.3114 255 25 0
-18.8576 -3.74741 71.7261 255 62 0
-20.4081 -2.6326 71.9736 255 54 0
-22.171 -4.60377 72.4785 123 255 132
8.05403 10.8423 52.8597 255 52 0
8.6205 8.77475 52.8227 255 73 0
6.86553 8.59605 54.2377 255 74 0
5.5137 12.8274 54.3593 242 255 13
6.50794 15.1952 53.0908 175 255 80
7.30642 12.9747 52.9872 255 28 0
9.04332 13.1419 51.5926 255 19 0
23.4045 29.7483 29.9159 236 255 19
26.1406 29.3029 25.4965 233 255 22
35.598 25.6012 8.83093 255 108 0
36.4519 24.211 7.1147 0 252 255
36.6952 23.3695 8.98903 93 255 162
36.8274 22.3338 10.9964 106 255 149
-14.5436 4.99437 68.8453 255 112 0
-15.9956 6.24939 69.2164 121 255 134
-14.2747 7.67428 68.2036 121 255 134
-6.1202 0.700569 64.8132 255 127 0
-7.94352 -1.20194 66.214 216 255 39
-7.91494 1.11429 65.8853 255 108 0
-11.3374 5.07487 67.2392 255 145 0
-11.4616 2.72045 67.7028 255 99 0
-13.0693 3.70124 68.3764 255 137 0
-14.7964 2.31584 69.4082 255 78 0
0.825066 10.4031 58.2595 0 252 255
1.45788 8.21583 58.2903 255 117 0
-0.256318 8.21816 59.499 184 255 71
-4.74854 4.42729 63.325 255 154 0
-3.01295 4.20266 62.1926 255 148 0
-4.58486 2.29755 63.5701 255 155 0
-4.26692 0.305844 63.6522 255 131 0
17.6609 23.3505 40.9466 212 255 43
21.5151 21.2331 36.7967 245 0 0
20.6301 23.429 37.1875 197 0 0
22.0709 23.4454 35.2077 210 0 0
22.599 25.5593 33.5163 199 0 0
23.615 23.5799 32.9559 214 0 0
25.0475 23.4217 30.9464 205 0 0
24.4425 21.3492 32.7783 255 18 0
33.1629 30.2212 8.64065 233 255 22
31.9908 31.3703 10.7105 59 255 196
-11.5522 -4.44815 68.669 0 248 255
-18.8819 -9.1288 72.2377 6 255 249
8.91503 0.82031 54.048 0 228 255
2.42857 4.13298 58.3874 255 87 0
4.37703 4.12684 56.9661 255 105 0
2.88646 2.08488 58.4067 255 135 0
3.63645 -1.66428 58.4466 41 255 214
12.6092 13.5245 48.4782 255 17 0
13.5238 16.0536 47.0981 255 3 0
14.2945 13.8106 46.846 255 234 0
15.996 14.121 45.0941 167 255 88
17.5418 30.5897 38.4591 114 255 141
29.2134 30.2044 18.9535 88 255 167
30.5862 29.7019 16.6781 255 182 0
31.9225 28.9276 14.648 248 0 0
31.9568 27.3783 16.4887 244 0 0
28.0412 23.2184 26.6207 224 0 0
28.4333 25.0783 24.7828 240 0 0
29.4557 23.0804 24.5784 255 231 0
32.3922 22.4344 20.4845 156 255 99
33.8897 21.726 18.5948 40 255 215
34.3077 23.0496 16.5313 255 245 0
-10.9358 7.46941 66.5555 255 125 0
-12.3601 8.86075 67.0202 139 255 116
-10.5683 10.1175 65.772 0 252 255
-6.42817 5.06048 64.3131 255 212 0
-7.94772 3.43034 65.5527 255 164 0
-8.04829 5.58893 65.2377 255 234 0
-9.54677 6.38384 65.9845 255 208 0
-2.05515 8.35088 60.7194 76 255 179
-3.72209 8.58452 61.8102 37 255 218
-4.94853 6.67711 63.0315 255 208 0
17.6584 18.8482 42.2113 212 0 0
18.5125 21.06 40.6241 230 0 0
19.2395 18.8581 40.3863 227 0 0
20.8882 19.0772 38.3084 255 212 0
22.3968 19.2084 36.3371 163 255 92
23.8275 19.3938 34.3956 136 255 119
-15.1043 -2.95167 70.2597 255 85 0
-15.2016 -5.4274 70.5577 132 255 123
-17.0047 -4.59191 71.2079 255 68 0
-18.816 -6.41876 71.994 255 89 0
-20.5533 -8.15142 72.5887 188 255 67
-22.2787 -10.1539 73.0111 0 145 255
-22.2843 -7.49127 72.7982 82 255 173
11.6083 11.2537 49.8315 223 255 32
10.4975 9.09107 51.213 123 255 132
9.24693 6.82967 52.685 114 255 141
7.97719 4.64009 54.1164 196 255 59
-0.522384 -0.100053 61.1525 255 138 0
1.44299 0.059547 59.7541 255 162 0
-0.147586 -1.90429 61.151 72 255 183
7.45697 17.8295 51.766 75 255 180
9.2393 17.8187 50.3983 187 255 68
11.0025 18.1041 48.8892 206 255 49
10.073 15.4947 50.249 227 0 0
10.8898 13.2536 50.0436 255 16 0
20.5438 30.2757 34.2881 255 240 0
29.0601 28.6481 20.7954 255 160 0
34.9737 27.3637 5.02496 114 255 141
-18.2948 1.93771 70.774 237 0 0
-19.7863 3.4392 70.9084 255 17 0
-17.8932 4.97487 70.1241 255 218 0
-9.66907 -2.84775 67.4436 113 255 142
-11.5766 -2.28145 68.4487 255 78 0
-9.69521 1.86405 66.8427 255 78 0
-11.5299 0.169319 68.1125 255 44 0
-13.4197 -1.31405 69.2818 255 81 0
-15.0222 -0.33791 69.8964 255 66 0
-16.7079 0.600129 70.4447 255 12 0
4.32092 10.5409 55.7343 255 85 0
5.05117 8.44919 55.6375 255 86 0
3.28624 8.33751 56.9533 255 86 0
1.90684 6.14987 58.3884 255 112 0
0.549561 3.98103 59.7531 255 109 0
-1.55581 6.21871 60.814 255 141 0
-1.23238 4.10265 60.9814 255 138 0
-0.865054 1.9108 61.0855 255 101 0
-2.49681 -0.009341 62.4991 255 119 0
-4.10767 -1.74369 63.8201 87 255 168
3.77133 12.7238 55.6425 25 255 230
17.2524 28.0827 39.833 103 255 152
18.67 28.2587 37.9423 160 0 0
19.1865 23.3273 39.0947 204 0 0
19.6245 25.8611 37.6147 151 0 0
20.0985 28.1628 35.9892 139 0 0
21.5752 27.775 33.9761 128 0 0
23.0068 27.7259 31.7758 167 0 0
24.4855 27.6398 29.4551 170 0 0
25.8603 27.3939 27.3557 159 0 0
25.539 25.3932 29.1315 168 0 0
26.5354 23.2317 28.8552 196 0 0
27.4768 21.2072 28.5931 195 255 60
25.2764 19.3439 32.4887 21 255 234
33.3546 30.6687 3.37172 0 162 255
33.7163 29.9857 5.16967 210 255 45
34.1192 28.9706 6.83181 255 100 0
34.4433 27.863 8.61166 255 90 0
34.5031 26.9156 10.5758 255 44 0
-21.1783 4.79231 70.8961 135 255 120
5.60857 6.40831 55.6208 255 83 0
6.1153 4.29084 55.6292 255 102 0
6.55992 2.32341 55.6369 255 115 0
3.19841 0.034002 58.5066 255 185 0
5.06612 0.233964 57.1115 255 162 0
7.05194 0.558679 55.5583 255 160 0
7.39835 -1.1407 55.5644 0 214 255
15.2383 20.8404 44.2977 78 255 177
12.7922 18.2554 47.2827 175 255 80
14.3489 18.4706 45.7637 255 223 0
16.0401 18.6941 44.0007 212 0 0
16.8565 16.427 43.6785 231 0 0
17.6392 14.3038 43.3276 39 255 216
32.0187 30.1747 12.6289 255 210 0
33.2799 28.0015 12.5239 245 0 0
34.569 25.6566 12.5917 255 11 0
27.3637 27.2422 24.9515 167 0 0
28.7767 26.9288 22.8035 194 0 0
30.2729 26.3977 20.6739 240 0 0
30.9475 22.7753 22.507 172 255 83
31.3483 24.4362 20.5361 255 8 0
31.6403 26.0279 18.5534 253 0 0
33.1354 25.2895 16.4323 255 4 0
34.4444 24.4721 14.5844 255 33 0
35.7442 23.4629 12.6677 255 92 0
36.811 21.2647 12.9206 0 240 255
-7.72036 10.8615 63.9181 0 0 128
-7.29983 10.3466 63.7797 0 0 128
-7.29983 10.3466 63.7797 0 0 144
-7.25958 9.55739 63.9284 0 0 160
-6.69168 9.95125 63.4845 0 0 144
-6.69168 9.95125 63.4845 0 0 128
-6.14574 9.89396 63.1409 0 0 128
24.1391 30.8287 27.9112 0 0 199
23.4688 30.841 29.0505 0 0 199
24.0748 29.736 28.7766 0 0 243
24.8679 30.6311 26.7267 0 0 156
24.1391 30.8287 27.9112 0 0 156
25.4428 29.5133 26.567 0 0 233
25.5656 30.4207 25.6563 0 0 193
24.8679 30.6311 26.7267 0 0 193
-0.553789 9.30786 59.4657 0 0 177
0.284374 9.31061 58.8792 0 0 208
-0.013097 10.4003 58.846 0 0 177
-0.013097 10.4003 58.846 0 0 146
0.555271 11.5237 58.186 0 0 146
17.2629 22.2204 41.724 0 0 236
16.8349 23.3973 41.8653 0 0 195
16.437 22.2672 42.6427 0 0 195
31.2743 32.5983 10.827 0 0 154
31.8934 32.0175 9.75165 0 0 154
-13.34 -4.95367 69.6376 0 0 183
-12.439 -5.3132 69.2075 0 0 183
-12.4532 -4.08862 69.0991 0 0 217
-18.7633 -10.3382 72.2762 0 0 145
-19.7105 -10.0118 72.5099 0 0 145
13.6362 10.5072 48.1385 0 0 147
14.2262 11.6409 47.3464 0 0 147
9.28694 2.83395 53.3819 0 0 145
9.06594 3.75194 53.3963 0 0 145
8.64227 1.76318 54.1011 0 0 212
9.55971 1.89109 53.3288 0 0 179
9.28694 2.83395 53.3819 0 0 179
14.2262 11.6409 47.3464 0 0 184
14.6826 12.7928 46.6792 0 0 184
13.8382 12.6587 47.5133 0 0 220
18.5101 31.7782 36.5799 0 0 201
17.7576 31.7758 37.6171 0 0 201
18.2943 30.5921 37.4219 0 0 245
34.3748 20.7861 18.5986 0 0 145
33.6884 21 19.5342 0 0 145
34.6165 21.4151 17.5669 0 0 147
34.3748 20.7861 18.5986 0 0 147
34.6724 27.2099 2.6982 0 0 146
34.1521 28.5444 2.60166 0 0 146
-3.98049 9.55137 61.7721 0 0 140
-3.15232 9.50995 61.2161 0 0 140
21.2515 18.0272 38.1707 0 0 190
20.4539 17.9568 39.1598 0 0 229
20.8171 16.9068 39.0221 0 0 190
22.0058 18.0928 37.1851 0 0 189
21.6425 19.1428 37.3228 0 0 227
21.2515 18.0272 38.1707 0 0 189
22.787 18.1846 36.1777 0 0 151
22.0058 18.0928 37.1851 0 0 151
-23.9238 2.15303 71.4061 0 0 179
-24.1035 0.585311 71.6757 0 0 179
-23.2744 1.39814 71.6143 0 0 212
-23.6965 3.81232 71.1203 0 0 147
-23.9238 2.15303 71.4061 0 0 147
-22.9836 -5.45843 72.5979 0 0 147
-22.9397 -3.91266 72.4081 0 0 147
21.4197 31.1805 32.3677 0 0 200
20.6839 31.3105 33.4792 0 0 200
21.2796 30.1456 33.1766 0 0 243
27.6521 29.9663 22.1723 0 0 151
26.9708 30.1772 23.2836 0 0 151
28.3032 28.8952 21.9554 0 0 237
28.409 29.7191 21.0124 0 0 196
27.6521 29.9663 22.1723 0 0 196
35.7166 25.7248 6.11595 0 0 183
35.5516 26.0929 5.17851 0 0 183
35.1387 26.9956 5.9624 0 0 218
36.8093 23.2998 6.4527 0 0 143
36.9888 22.9796 7.3046 0 0 143
-16.6817 7.10018 69.2917 0 0 150
-15.7833 7.74135 68.822 0 0 150
-13.0295 9.6774 67.1679 0 0 149
-12.1277 10.2465 66.5789 0 0 149
-6.94884 -2.45488 65.7393 0 0 148
-5.92976 -2.525 65.1057 0 0 148
-5.92976 -2.525 65.1057 0 0 181
-4.94438 -2.65679 64.4775 0 0 181
-5.09304 -1.6119 64.4483 0 0 215
3.15213 11.5874 56.3412 0 0 219
2.87462 12.7137 56.2794 0 0 184
2.25542 11.5772 56.9782 0 0 184
17.7364 26.9066 39.6599 0 0 237
16.9539 26.9078 40.5979 0 0 196
17.4379 25.7317 40.4248 0 0 196
24.933 18.3248 33.3292 0 0 184
24.5519 19.3689 33.4421 0 0 220
24.2086 18.3498 34.2827 0 0 184
32.7411 32.0239 3.42725 0 0 147
33.0528 31.1545 2.57253 0 0 147
32.7172 31.827 6.02567 0 0 148
32.2196 32.5833 6.92773 0 0 148
33.2873 30.6715 6.05585 0 0 212
33.1462 31.1412 5.13949 0 0 179
32.7172 31.827 6.02567 0 0 179
-16.1855 -7.56077 71.1403 0 0 185
-15.2251 -6.68211 70.6734 0 0 185
-16.162 -6.30606 71.0246 0 0 221
-22.9965 -11.1526 73.0993 0 0 144
-23.0395 -9.66009 73.0003 0 0 144
14.387 20.8207 45.1406 0 0 154
14.7788 22.0319 44.4455 0 0 154
17.1501 13.1772 44.0888 0 0 186
16.8176 14.2124 44.2108 0 0 222
16.3286 13.0858 44.9721 0 0 186
17.9607 13.3254 43.1977 0 0 148
17.1501 13.1772 44.0888 0 0 148
30.0106 32.1773 14.9097 0 0 154
29.9289 31.4775 15.9622 0 0 154
30.6557 31.8067 13.7836 0 0 152
30.0106 32.1773 14.9097 0 0 152
31.3306 30.6492 13.7046 0 0 236
31.3438 31.3323 12.7078 0 0 195
30.6557 31.8067 13.7836 0 0 195
31.4892 21.762 22.4186 0 0 149
30.7236 21.9461 23.4176 0 0 149
-8.43292 10.525 64.4303 0 0 162
-9.14014 9.92428 64.9881 0 0 162
-8.57495 9.35201 64.7815 0 0 187
-8.43292 10.525 64.4303 0 0 133
-7.72036 10.8615 63.9181 0 0 133
-5.45485 9.69462 62.7307 0 0 135
-4.75428 9.6408 62.2734 0 0 135
-5.96054 8.96272 63.223 0 0 175
-5.45485 9.69462 62.7307 0 0 154
-6.14574 9.89396 63.1409 0 0 154
19.6286 15.6691 40.7609 0 0 187
19.2361 16.6695 40.9618 0 0 224
18.8452 15.5022 41.7115 0 0 187
20.4118 15.8593 39.8047 0 0 150
19.6286 15.6691 40.7609 0 0 150
20.8171 16.9068 39.0221 0 0 149
20.4118 15.8593 39.8047 0 0 149
-22.7396 -0.8677 71.9755 0 0 213
-23.5813 -1.69556 72.1109 0 0 180
-22.8667 -2.39369 72.2024 0 0 180
-22.8667 -2.39369 72.2024 0 0 182
-22.9397 -3.91266 72.4081 0 0 182
-22.098 -3.0848 72.2728 0 0 217
-2.01862 -2.91027 62.5628 0 0 144
-2.98923 -2.81245 63.1996 0 0 144
6.01082 14.0113 53.725 0 0 225
5.61462 15.2036 53.737 0 0 188
5.1175 14.0197 54.3712 0 0 188
22.7853 30.985 30.1749 0 0 202
22.0907 31.1186 31.2496 0 0 202
22.7099 29.882 30.9905 0 0 247
22.7853 30.985 30.1749 0 0 159
23.4688 30.841 29.0505 0 0 159
26.2679 30.2575 24.4743 0 0 157
25.5656 30.4207 25.6563 0 0 157
26.8435 29.2226 24.3059 0 0 240
26.9708 30.1772 23.2836 0 0 198
26.2679 30.2575 24.4743 0 0 198
37.1104 22.5589 8.24176 0 0 179
36.9888 22.9796 7.3046 0 0 179
36.5736 23.7902 8.05186 0 0 212
37.2071 22.2223 9.14891 0 0 143
37.1104 22.5589 8.24176 0 0 143
37.2732 21.7045 10.1526 0 0 180
37.2071 22.2223 9.14891 0 0 180
36.7613 22.8516 9.99269 0 0 214
37.3329 21.1999 11.1608 0 0 146
37.2732 21.7045 10.1526 0 0 146
-14.9228 8.4538 68.3155 0 0 183
-15.7833 7.74135 68.822 0 0 183
-15.1351 6.96183 68.71 0 0 218
1.40148 11.5533 57.5879 0 0 146
0.555271 11.5237 58.186 0 0 146
1.679 10.427 57.6497 0 0 215
2.25542 11.5772 56.9782 0 0 181
1.40148 11.5533 57.5879 0 0 181
17.1581 24.5417 41.1548 0 0 154
16.8349 23.3973 41.8653 0 0 154
17.9407 24.5405 40.2167 0 0 238
17.4379 25.7317 40.4248 0 0 196
17.1581 24.5417 41.1548 0 0 196
32.3271 32.011 7.86741 0 0 150
32.2196 32.5833 6.92773 0 0 150
32.4794 31.443 8.71672 0 0 183
33.0106 30.7892 7.79134 0 0 218
32.3271 32.011 7.86741 0 0 183
32.5768 30.7958 9.67558 0 0 233
32.4794 31.443 8.71672 0 0 193
31.8934 32.0175 9.75165 0 0 193
-20.1193 7.2287 70.2201 0 0 150
-19.1259 8.06885 69.8391 0 0 150
-11.4427 -5.55262 68.7088 0 0 145
-10.625 -4.73306 68.1778 0 0 145
-11.4427 -5.55262 68.7088 0 0 147
-12.439 -5.3132 69.2075 0 0 147
-17.9478 -9.3825 71.9357 0 0 180
-17.0681 -8.41045 71.5626 0 0 180
-18.0021 -8.15676 71.8646 0 0 214
-17.9478 -9.3825 71.9357 0 0 146
-18.7633 -10.3382 72.2762 0 0 146
9.81226 1.02458 53.2737 0 0 143
9.55971 1.89109 53.3288 0 0 143
9.14116 0.026009 53.9952 0 0 141
9.81226 1.02458 53.2737 0 0 141
2.82572 -2.71394 59.1713 0 0 175
2.6976 -1.77632 59.1322 0 0 206
1.88687 -2.82598 59.857 0 0 175
3.83097 -2.5537 58.4333 0 0 145
2.82572 -2.71394 59.1713 0 0 145
4.76873 -2.47132 57.7349 0 0 172
4.57421 -1.5819 57.7482 0 0 202
3.83097 -2.5537 58.4333 0 0 172
5.73764 -2.33081 57.0016 0 0 142
4.76873 -2.47132 57.7349 0 0 142
15.5333 12.948 45.8032 0 0 187
15.1453 13.9658 45.9701 0 0 224
14.6826 12.7928 46.6792 0 0 187
16.3286 13.0858 44.9721 0 0 148
15.5333 12.948 45.8032 0 0 148
17.0034 31.8309 38.6054 0 0 155
16.8128 30.6043 39.3608 0 0 155
17.0034 31.8309 38.6054 0 0 157
17.7576 31.7758 37.6171 0 0 157
29.2144 31.0179 18.0488 0 0 153
28.539 31.2943 19.1788 0 0 153
29.9008 30.7667 16.9111 0 0 193
29.2144 31.0179 18.0488 0 0 193
29.8998 29.9532 17.8158 0 0 233
30.6143 30.4128 15.7292 0 0 234
29.9289 31.4775 15.9622 0 0 194
29.9008 30.7667 16.9111 0 0 194
32.9396 21.3542 20.4791 0 0 149
32.2116 21.5915 21.4074 0 0 149
33.1409 22.0802 19.5396 0 0 222
32.9396 21.3542 20.4791 0 0 186
33.6884 21 19.5342 0 0 186
34.8255 22.0769 16.5351 0 0 184
34.0987 22.3878 17.563 0 0 219
34.6165 21.4151 17.5669 0 0 184
35.4797 21.7337 15.5349 0 0 180
34.9619 22.7064 15.5311 0 0 214
34.8255 22.0769 16.5351 0 0 180
36.1159 21.2983 14.6653 0 0 147
35.4797 21.7337 15.5349 0 0 147
-11.2318 10.8749 65.9548 0 0 184
-12.1277 10.2465 66.5789 0 0 184
-11.4642 9.48914 66.3961 0 0 220
-9.78319 10.6074 65.2045 0 0 169
-9.92523 9.43442 65.5557 0 0 197
-9.14014 9.92428 64.9881 0 0 169
-10.3454 11.3879 65.3384 0 0 142
-9.78319 10.6074 65.2045 0 0 142
-11.2318 10.8749 65.9548 0 0 146
-10.3454 11.3879 65.3384 0 0 146
-2.31885 9.39313 60.6707 0 0 144
-1.45321 9.37422 60.0759 0 0 144
-2.88862 8.4677 61.2648 0 0 200
-2.31885 9.39313 60.6707 0 0 171
-3.15232 9.50995 61.2161 0 0 171
-4.49587 8.67395 62.3115 0 0 188
-3.98049 9.55137 61.7721 0 0 163
-4.75428 9.6408 62.2734 0 0 163
23.5023 18.2773 35.2069 0 0 186
23.1122 19.3011 35.3664 0 0 222
22.787 18.1846 36.1777 0 0 186
24.2086 18.3498 34.2827 0 0 149
23.5023 18.2773 35.2069 0 0 149
-24.2882 -1.10042 71.9257 0 0 146
-23.5813 -1.69556 72.1109 0 0 146
-24.2882 -1.10042 71.9257 0 0 148
-24.1035 0.585311 71.6757 0 0 148
-20.5462 -9.52314 72.6854 0 0 179
-19.7105 -10.0118 72.5099 0 0 179
-19.7176 -8.64011 72.4132 0 0 212
-21.416 -9.15268 72.7999 0 0 215
-21.4089 -10.5244 72.8966 0 0 181
-20.5462 -9.52314 72.6854 0 0 181
-23.0422 -8.32876 72.8939 0 0 170
-23.0395 -9.66009 73.0003 0 0 170
-22.2815 -8.8226 72.9047 0 0 198
-23.0403 -6.90218 72.7577 0 0 177
-22.2276 -6.04753 72.6383 0 0 208
-22.9836 -5.45843 72.5979 0 0 177
-23.0422 -8.32876 72.8939 0 0 143
-23.0403 -6.90218 72.7577 0 0 143
11.9106 10.2699 49.7564 0 0 183
12.7974 10.3964 48.931 0 0 183
12.4951 11.3803 49.006 0 0 217
11.3552 9.18854 50.4472 0 0 179
11.9106 10.2699 49.7564 0 0 179
11.0529 10.1724 50.5222 0 0 212
10.7511 8.03797 51.1959 0 0 148
11.3552 9.18854 50.4472 0 0 148
10.1259 6.90727 51.932 0 0 183
10.7511 8.03797 51.1959 0 0 183
9.8722 7.96037 51.949 0 0 218
9.50466 5.81375 52.6618 0 0 147
10.1259 6.90727 51.932 0 0 147
8.86979 4.71896 53.3774 0 0 181
9.50466 5.81375 52.6618 0 0 181
8.61206 5.73488 53.4007 0 0 215
8.17334 3.67307 54.1353 0 0 209
9.06594 3.75194 53.3963 0 0 177
8.86979 4.71896 53.3774 0 0 177
-1.04027 -2.88786 61.8894 0 0 177
-1.12594 -1.92671 61.8244 0 0 210
-2.01862 -2.91027 62.5628 0 0 177
-0.074462 -2.84444 61.2261 0 0 144
-1.04027 -2.88786 61.8894 0 0 144
0.878703 -2.83647 60.5595 0 0 175
0.80558 -1.89632 60.4844 0 0 206
-0.074462 -2.84444 61.2261 0 0 175
1.88687 -2.82598 59.857 0 0 145
0.878703 -2.83647 60.5595 0 0 145
6.1435 16.4553 53.0557 0 0 153
5.61462 15.2036 53.737 0 0 153
6.61802 17.7725 52.3932 0 0 189
6.1435 16.4553 53.0557 0 0 189
6.98246 16.5124 52.4284 0 0 228
6.95254 19.0898 51.8185 0 0 151
6.61802 17.7725 52.3932 0 0 151
7.87835 19.1405 51.125 0 0 155
6.95254 19.0898 51.8185 0 0 155
8.76952 19.1351 50.4412 0 0 197
7.87835 19.1405 51.125 0 0 197
8.34814 17.8241 51.0822 0 0 240
9.62776 19.1109 49.777 0 0 154
8.76952 19.1351 50.4412 0 0 154
10.1209 17.9614 49.6437 0 0 233
10.5093 19.2536 49.0224 0 0 193
9.62776 19.1109 49.777 0 0 193
19.9558 31.5504 34.5273 0 0 204
19.2073 31.7099 35.5757 0 0 204
19.7953 30.4351 35.3364 0 0 249
19.9558 31.5504 34.5273 0 0 157
20.6839 31.3105 33.4792 0 0 157
21.4197 31.1805 32.3677 0 0 157
22.0907 31.1186 31.2496 0 0 157
28.4857 30.4973 20.0914 0 0 154
28.539 31.2943 19.1788 0 0 154
29.1368 29.4263 19.8745 0 0 233
28.4857 30.4973 20.0914 0 0 193
28.409 29.7191 21.0124 0 0 193
29.7721 21.128 25.3678 0 0 150
29.4798 20.1634 26.3566 0 0 150
35.2765 26.4486 4.29752 0 0 175
35.0237 26.8499 3.49908 0 0 175
34.7209 27.765 4.22652 0 0 207
35.2765 26.4486 4.29752 0 0 146
35.5516 26.0929 5.17851 0 0 146
36.2907 24.5165 6.22338 0 0 178
35.7166 25.7248 6.11595 0 0 178
35.8778 25.4193 7.00727 0 0 210
36.2907 24.5165 6.22338 0 0 144
36.8093 23.2998 6.4527 0 0 144
-17.6305 6.46292 69.7455 0 0 188
-16.9444 5.61213 69.6703 0 0 226
-16.6817 7.10018 69.2917 0 0 188
-18.373 7.26508 69.7922 0 0 191
-18.6357 5.77703 70.1708 0 0 230
-17.6305 6.46292 69.7455 0 0 191
-19.1259 8.06885 69.8391 0 0 152
-18.373 7.26508 69.7922 0 0 152
-13.9868 9.08417 67.7596 0 0 188
-13.3174 8.26752 67.6119 0 0 225
-13.0295 9.6774 67.1679 0 0 188
-14.9228 8.4538 68.3155 0 0 149
-13.9868 9.08417 67.7596 0 0 149
-7.8814 -2.3158 66.3081 0 0 182
-6.94884 -2.45488 65.7393 0 0 182
-7.01097 -1.34102 65.6452 0 0 216
-8.74417 -3.1387 66.9229 0 0 180
-7.8814 -2.3158 66.3081 0 0 180
-8.80629 -2.02484 66.8288 0 0 213
-9.6835 -3.93286 67.5651 0 0 146
-8.74417 -3.1387 66.9229 0 0 146
-10.6106 -3.64794 68.0563 0 0 211
-10.625 -4.73306 68.1778 0 0 178
-9.6835 -3.93286 67.5651 0 0 178
-1.15573 8.28452 60.1092 0 0 213
-0.553789 9.30786 59.4657 0 0 180
-1.45321 9.37422 60.0759 0 0 180
-3.99092 -2.70974 63.8607 0 0 178
-2.98923 -2.81245 63.1996 0 0 178
-3.10598 -1.8464 63.1589 0 0 210
-3.99092 -2.70974 63.8607 0 0 144
-4.94438 -2.65679 64.4775 0 0 144
3.33934 13.873 55.6746 0 0 149
2.87462 12.7137 56.2794 0 0 149
4.24632 13.968 55.0128 0 0 151
3.33934 13.873 55.6746 0 0 151
4.64252 12.7756 55.0009 0 0 225
5.1175 14.0197 54.3712 0 0 188
4.24632 13.968 55.0128 0 0 188
16.4442 28.1513 40.7532 0 0 156
16.9539 26.9078 40.5979 0 0 156
16.6681 29.3508 40.0477 0 0 157
16.4442 28.1513 40.7532 0 0 157
17.3971 29.3362 39.1461 0 0 240
16.8128 30.6043 39.3608 0 0 198
16.6681 29.3508 40.0477 0 0 198
25.6498 18.4112 32.3742 0 0 146
24.933 18.3248 33.3292 0 0 146
26.0057 19.3655 31.498 0 0 146
25.6498 18.4112 32.3742 0 0 146
26.3209 20.3415 30.6333 0 0 182
25.5915 20.3199 31.624 0 0 216
26.0057 19.3655 31.498 0 0 182
27.1059 20.2972 29.5502 0 0 186
26.6918 21.2515 29.6762 0 0 223
26.3209 20.3415 30.6333 0 0 186
27.9276 20.2823 28.446 0 0 150
27.1059 20.2972 29.5502 0 0 150
28.7115 20.2483 27.3532 0 0 185
28.2607 21.1732 27.5003 0 0 221
27.9276 20.2823 28.446 0 0 185
29.4798 20.1634 26.3566 0 0 148
28.7115 20.2483 27.3532 0 0 148
33.5953 29.7956 2.57348 0 0 146
33.0528 31.1545 2.57253 0 0 146
33.9113 29.4175 3.3999 0 0 208
34.1521 28.5444 2.60166 0 0 177
33.5953 29.7956 2.57348 0 0 177
32.9653 31.4827 4.24051 0 0 148
32.7411 32.0239 3.42725 0 0 148
33.5354 30.3272 4.2707 0 0 210
32.9653 31.4827 4.24051 0 0 177
33.1462 31.1412 5.13949 0 0 177
-21.0193 6.33526 70.5594 0 0 185
-20.2783 5.68575 70.5568 0 0 222
-20.1193 7.2287 70.2201 0 0 185
-21.8964 5.59396 70.7821 0 0 148
-21.0193 6.33526 70.5594 0 0 148
-22.8545 4.68073 71.0064 0 0 194
-22.1365 3.87908 71.1204 0 0 235
-21.8964 5.59396 70.7821 0 0 194
-23.6965 3.81232 71.1203 0 0 148
-22.8545 4.68073 71.0064 0 0 148
-14.2637 -5.80282 70.1519 0 0 184
-13.34 -4.95367 69.6376 0 0 184
-14.2779 -4.57824 70.0434 0 0 220
-14.2637 -5.80282 70.1519 0 0 150
-15.2251 -6.68211 70.6734 0 0 150
-16.1855 -7.56077 71.1403 0 0 147
-17.0681 -8.41045 71.5626 0 0 147
-22.1823 -11.4904 73.0746 0 0 145
-21.4089 -10.5244 72.8966 0 0 145
-22.1823 -11.4904 73.0746 0 0 143
-22.9965 -11.1526 73.0993 0 0 143
13.6362 10.5072 48.1385 0 0 146
12.7974 10.3964 48.931 0 0 146
8.38282 -0.954495 54.7534 0 0 172
9.14116 0.026009 53.9952 0 0 172
8.15669 -0.160194 54.8062 0 0 202
6.68083 -2.1514 56.2589 0 0 171
6.45516 -1.32011 56.3071 0 0 201
5.73764 -2.33081 57.0016 0 0 171
7.62754 -1.98338 55.5076 0 0 143
6.68083 -2.1514 56.2589 0 0 143
8.38282 -0.954495 54.7534 0 0 144
7.62754 -1.98338 55.5076 0 0 144
15.6236 22.1422 43.5408 0 0 156
14.7788 22.0319 44.4455 0 0 156
16.0516 20.9653 43.3995 0 0 239
16.437 22.2672 42.6427 0 0 197
15.6236 22.1422 43.5408 0 0 197
11.4021 19.3561 48.2476 0 0 153
10.5093 19.2536 49.0224 0 0 153
12.2969 19.4318 47.4444 0 0 196
11.4021 19.3561 48.2476 0 0 196
11.8973 18.1797 48.0859 0 0 237
13.164 19.5283 46.6331 0 0 154
12.2969 19.4318 47.4444 0 0 154
13.9423 19.6359 45.8736 0 0 187
13.164 19.5283 46.6331 0 0 187
13.5706 18.363 46.5232 0 0 225
14.7936 19.6555 45.0307 0 0 233
14.387 20.8207 45.1406 0 0 193
13.9423 19.6359 45.8736 0 0 193
18.4384 14.4028 42.4191 0 0 184
18.8452 15.5022 41.7115 0 0 184
18.0459 15.4032 42.62 0 0 220
18.4384 14.4028 42.4191 0 0 147
17.9607 13.3254 43.1977 0 0 147
18.5101 31.7782 36.5799 0 0 154
19.2073 31.7099 35.5757 0 0 154
31.3298 31.9301 11.7487 0 0 153
31.2743 32.5983 10.827 0 0 153
32.0048 30.7725 11.6697 0 0 229
31.3298 31.9301 11.7487 0 0 191
31.3438 31.3323 12.7078 0 0 191
29.9777 22.0987 24.4533 0 0 187
29.2501 22.1097 25.4929 0 0 224
29.7721 21.128 25.3678 0 0 187
30.2016 22.9278 23.5427 0 0 220
29.9777 22.0987 24.4533 0 0 184
30.7236 21.9461 23.4176 0 0 184
31.6698 22.6048 21.4957 0 0 222
31.4892 21.762 22.4186 0 0 185
32.2116 21.5915 21.4074 0 0 185
37.3247 20.6653 12.123 0 0 178
37.3329 21.1999 11.1608 0 0 178
36.8192 21.7992 11.9585 0 0 210
36.7133 20.7491 13.8601 0 0 175
36.2136 21.8139 13.7258 0 0 206
36.1159 21.2983 14.6653 0 0 175
37.2813 20.2008 13.0733 0 0 143
36.7133 20.7491 13.8601 0 0 143
37.3247 20.6653 12.123 0 0 143
37.2813 20.2008 13.0733 0 0 143
34.6724 27.2099 2.6982 0 0 145
35.0237 26.8499 3.49908 0 0 145
3 238 237 59
3 239 59 240
3 241 240 60
3 239 240 241
3 242 60 243
3 0 66 64
3 0 69 67
3 0 64 69
3 1 73 71
3 1 76 74
3 1 71 76
3 2 244 246
3 246 245 78
3 244 245 246
3 2 247 248
3 2 249 251
3 249 79 250
3 249 250 251
3 3 82 80
3 3 83 82
3 4 86 84
3 5 89 87
3 4 92 90
3 4 84 92
3 252 96 253
3 254 253 94
3 252 253 254
3 5 99 97
3 5 87 99
3 255 94 256
3 8 257 259
3 257 101 258
3 257 258 259
3 10 104 102
3 10 106 104
3 10 108 106
3 260 110 261
3 6 262 264
3 264 263 111
3 262 263 264
3 266 265 112
3 13 267 268
3 14 269 270
3 14 271 273
3 271 113 272
3 271 272 273
3 7 116 114
3 13 120 118
3 13 274 276
3 276 275 120
3 274 275 276
3 9 277 279
3 279 278 122
3 277 278 279
3 15 124 123
3 15 126 124
3 11 129 127
3 280 131 281
3 283 282 131
3 12 284 285
3 16 135 133
3 17 138 136
3 16 139 61
3 16 133 139
3 286 141 287
3 17 142 62
3 17 136 142
3 20 145 143
3 288 146 289
3 290 289 63
3 288 289 290
3 291 147 292
3 293 292 146
3 291 292 293
3 295 294 147
3 22 296 298
3 298 297 65
3 296 297 298
3 22 299 300
3 23 151 149
3 25 152 68
3 25 153 152
3 25 155 153
3 302 301 70
3 26 157 156
3 27 158 72
3 27 159 158
3 28 162 160
3 30 163 75
3 30 164 163
3 30 166 164
3 26 167 77
3 26 156 167
3 32 303 305
3 305 304 168
3 303 304 305
3 33 306 307
3 33 308 310
3 308 169 309
3 308 309 310
3 34 311 313
3 313 312 170
3 311 312 313
3 315 314 81
3 35 173 171
3 317 316 85
3 319 318 134
3 37 320 321
3 38 174 88
3 38 175 174
3 18 176 137
3 39 177 91
3 39 178 177
3 39 179 178
3 35 180 93
3 35 171 180
3 40 183 181
3 42 184 95
3 42 185 184
3 19 186 140
3 43 187 98
3 43 188 187
3 43 189 188
3 37 190 100
3 37 322 324
3 324 323 190
3 322 323 324
3 40 325 327
3 325 191 326
3 325 326 327
3 40 181 191
3 44 328 330
3 328 192 329
3 328 329 330
3 44 193 192
3 21 194 144
3 45 195 103
3 45 196 195
3 45 197 196
3 46 198 105
3 46 199 198
3 46 201 199
3 48 202 107
3 48 203 202
3 331 204 332
3 333 332 148
3 331 332 333
3 334 205 335
3 49 336 337
3 49 338 340
3 338 206 339
3 338 339 340
3 49 207 206
3 50 208 109
3 50 209 208
3 36 210 172
3 24 341 343
3 343 342 150
3 341 342 343
3 345 344 154
3 41 211 182
3 51 212 115
3 51 213 212
3 29 214 161
3 52 215 117
3 52 216 215
3 52 217 216
3 346 218 347
3 31 219 165
3 53 220 119
3 53 221 220
3 53 222 221
3 348 223 349
3 350 349 121
3 348 349 350
3 352 351 223
3 54 353 354
3 54 355 356
3 54 357 359
3 357 224 358
3 357 358 359
3 55 225 125
3 55 226 225
3 47 227 200
3 56 228 128
3 56 229 228
3 360 230 361
3 57 231 130
3 57 232 231
3 57 233 232
3 58 234 132
3 58 235 234
3 58 236 235
3 59 362 364
3 364 363 16
3 362 363 364
3 366 365 59
3 60 61 17
3 59 61 60
3 59 16 61
3 367 62 368
3 60 369 371
3 369 62 370
3 369 370 371
3 60 17 62
3 372 63 373
3 374 373 20
3 372 373 374
3 375 63 376
3 378 377 63
3 64 379 381
3 379 65 380
3 379 380 381
3 66 65 64
3 66 22 65
3 67 68 23
3 69 68 67
3 69 25 68
3 69 70 25
3 64 70 69
3 64 382 384
3 384 383 70
3 382 383 384
3 71 72 26
3 73 72 71
3 73 27 72
3 386 385 28
3 74 387 389
3 387 75 388
3 387 388 389
3 76 75 74
3 76 30 75
3 76 77 30
3 71 77 76
3 71 26 77
3 78 390 392
3 392 391 32
3 390 391 392
3 394 393 78
3 79 395 396
3 79 397 399
3 397 33 398
3 397 398 399
3 80 81 34
3 82 81 80
3 82 400 402
3 402 401 81
3 400 401 402
3 82 403 404
3 83 405 407
3 407 406 82
3 405 406 407
3 83 408 409
3 84 85 35
3 86 85 84
3 86 410 412
3 412 411 85
3 410 411 412
3 87 88 37
3 89 88 87
3 89 38 88
3 90 91 18
3 92 91 90
3 92 39 91
3 92 93 39
3 84 93 92
3 84 35 93
3 94 95 40
3 96 95 94
3 96 42 95
3 97 98 19
3 99 98 97
3 99 43 98
3 99 100 43
3 87 100 99
3 87 37 100
3 94 413 414
3 94 415 417
3 415 40 416
3 415 416 417
3 101 418 419
3 101 420 422
3 420 44 421
3 420 421 422
3 102 103 21
3 104 103 102
3 104 45 103
3 104 105 45
3 106 105 104
3 106 46 105
3 106 107 46
3 108 107 106
3 108 48 107
3 423 49 424
3 425 109 426
3 427 426 49
3 425 426 427
3 110 428 430
3 428 109 429
3 428 429 430
3 110 50 109
3 432 431 36
3 111 433 434
3 436 435 111
3 112 437 439
3 439 438 24
3 437 438 439
3 441 440 112
3 113 442 443
3 113 444 445
3 114 115 41
3 116 115 114
3 116 51 115
3 446 117 447
3 448 447 29
3 446 447 448
3 449 117 450
3 451 52 452
3 453 452 117
3 451 452 453
3 455 454 52
3 118 119 31
3 120 119 118
3 120 53 119
3 120 121 53
3 456 121 457
3 458 457 120
3 456 457 458
3 460 459 121
3 122 461 462
3 464 463 122
3 123 465 466
3 124 467 469
3 469 468 123
3 467 468 469
3 124 470 472
3 470 54 471
3 470 471 472
3 124 125 54
3 126 125 124
3 126 55 125
3 127 128 47
3 129 128 127
3 129 56 128
3 473 130 474
3 131 475 477
3 475 130 476
3 475 476 477
3 131 57 130
3 131 132 57
3 478 132 479
3 480 479 131
3 478 479 480
3 481 58 482
3 483 482 132
3 481 482 483
3 485 484 58
3 133 134 4
3 135 134 133
3 135 486 488
3 488 487 134
3 486 487 488
3 489 135 490
3 491 490 16
3 489 490 491
3 492 135 493
3 495 494 135
3 136 137 5
3 138 137 136
3 138 18 137
3 61 138 17
3 139 138 61
3 139 18 138
3 139 90 18
3 133 90 139
3 133 4 90
3 496 140 497
3 141 498 500
3 498 140 499
3 498 499 500
3 141 19 140
3 62 501 503
3 501 141 502
3 501 502 503
3 142 141 62
3 142 19 141
3 142 97 19
3 136 97 142
3 136 5 97
3 143 144 8
3 145 144 143
3 145 21 144
3 63 145 20
3 146 145 63
3 146 21 145
3 146 102 21
3 147 102 146
3 147 10 102
3 147 148 10
3 504 148 505
3 506 505 147
3 504 505 506
3 508 507 148
3 65 509 510
3 512 511 65
3 149 150 6
3 151 150 149
3 151 24 150
3 68 151 23
3 152 151 68
3 152 24 151
3 152 112 24
3 153 112 152
3 153 513 515
3 515 514 112
3 513 514 515
3 153 516 518
3 516 154 517
3 516 517 518
3 155 154 153
3 155 519 521
3 521 520 154
3 519 520 521
3 70 155 25
3 522 155 523
3 524 523 70
3 522 523 524
3 526 525 155
3 156 527 529
3 529 528 13
3 527 528 529
3 157 530 532
3 532 531 156
3 530 531 532
3 157 533 534
3 72 157 26
3 158 157 72
3 158 535 537
3 537 536 157
3 535 536 537
3 158 538 539
3 159 540 542
3 542 541 158
3 540 541 542
3 159 543 545
3 543 14 544
3 543 544 545
3 160 161 7
3 162 161 160
3 162 29 161
3 546 162 547
3 548 547 28
3 546 547 548
3 549 162 550
3 551 29 552
3 553 552 162
3 551 552 553
3 555 554 29
3 75 556 557
3 163 558 560
3 560 559 75
3 558 559 560
3 163 561 562
3 163 563 564
3 164 565 567
3 567 566 163
3 565 566 567
3 164 568 569
3 164 570 572
3 570 165 571
3 570 571 572
3 166 165 164
3 166 31 165
3 77 166 30
3 167 166 77
3 167 31 166
3 167 118 31
3 156 118 167
3 156 13 118
3 168 573 575
3 575 574 9
3 573 574 575
3 577 576 168
3 579 578 32
3 580 123 581
3 169 582 584
3 582 123 583
3 582 583 584
3 169 15 123
3 586 585 11
3 170 587 589
3 589 588 12
3 587 588 589
3 591 590 170
3 81 592 594
3 594 593 34
3 592 593 594
3 596 595 81
3 171 172 0
3 173 172 171
3 173 36 172
3 85 173 35
3 597 173 598
3 599 598 85
3 597 598 599
3 600 36 601
3 602 601 173
3 600 601 602
3 604 603 36
3 134 86 4
3 605 86 606
3 607 606 134
3 605 606 607
3 609 608 86
3 88 610 612
3 612 611 37
3 610 611 612
3 174 613 615
3 615 614 88
3 613 614 615
3 174 616 617
3 174 618 620
3 618 111 619
3 618 619 620
3 175 111 174
3 175 6 111
3 137 89 5
3 176 89 137
3 176 38 89
3 91 176 18
3 177 176 91
3 177 38 176
3 177 175 38
3 178 175 177
3 178 6 175
3 178 149 6
3 179 149 178
3 179 23 149
3 93 179 39
3 180 179 93
3 180 23 179
3 180 67 23
3 171 67 180
3 171 0 67
3 181 182 1
3 183 182 181
3 183 41 182
3 95 183 40
3 184 183 95
3 184 41 183
3 184 114 41
3 185 114 184
3 185 7 114
3 140 621 623
3 621 96 622
3 621 622 623
3 186 96 140
3 186 42 96
3 98 186 19
3 187 186 98
3 187 42 186
3 187 185 42
3 188 185 187
3 188 7 185
3 188 160 7
3 189 160 188
3 189 28 160
3 100 189 43
3 190 189 100
3 190 28 189
3 190 624 626
3 626 625 28
3 624 625 626
3 628 627 190
3 191 629 630
3 191 631 632
3 191 633 635
3 633 74 634
3 633 634 635
3 181 74 191
3 181 1 74
3 192 636 637
3 192 638 639
3 192 640 642
3 640 122 641
3 640 641 642
3 193 122 192
3 193 9 122
3 144 101 8
3 194 101 144
3 194 44 101
3 103 194 21
3 195 194 103
3 195 44 194
3 195 193 44
3 196 193 195
3 196 9 193
3 196 168 9
3 197 168 196
3 197 32 168
3 105 197 45
3 198 197 105
3 198 32 197
3 198 78 32
3 199 78 198
3 199 2 78
3 199 200 2
3 201 200 199
3 201 47 200
3 107 201 46
3 202 201 107
3 202 47 201
3 202 127 47
3 203 127 202
3 203 11 127
3 148 108 10
3 204 108 148
3 204 48 108
3 643 204 644
3 645 204 646
3 647 48 648
3 649 648 204
3 647 648 649
3 650 203 651
3 652 651 48
3 650 651 652
3 653 203 654
3 655 11 656
3 657 656 203
3 655 656 657
3 659 658 11
3 205 660 661
3 205 662 664
3 662 12 663
3 662 663 664
3 665 205 666
3 206 667 669
3 667 205 668
3 667 668 669
3 206 12 205
3 206 170 12
3 207 170 206
3 207 34 170
3 109 207 49
3 208 207 109
3 208 34 207
3 208 80 34
3 209 80 208
3 209 3 80
3 172 66 0
3 210 66 172
3 210 22 66
3 670 210 671
3 672 671 36
3 670 671 672
3 673 210 674
3 675 22 676
3 677 676 210
3 675 676 677
3 679 678 22
3 150 680 682
3 682 681 6
3 680 681 682
3 684 683 150
3 686 685 24
3 154 687 688
3 690 689 154
3 692 691 13
3 182 73 1
3 211 73 182
3 211 27 73
3 115 211 41
3 212 211 115
3 212 27 211
3 212 159 27
3 213 159 212
3 213 14 159
3 161 116 7
3 214 116 161
3 214 51 116
3 117 214 29
3 215 214 117
3 215 51 214
3 215 213 51
3 216 213 215
3 216 14 213
3 216 113 14
3 217 113 216
3 217 693 695
3 695 694 113
3 693 694 695
3 696 217 697
3 698 697 52
3 696 697 698
3 699 217 700
3 702 701 217
3 218 703 704
3 218 705 707
3 705 8 706
3 705 706 707
3 165 708 709
3 219 710 712
3 712 711 165
3 710 711 712
3 219 713 714
3 119 219 31
3 220 219 119
3 220 715 717
3 717 716 219
3 715 716 717
3 220 718 720
3 718 218 719
3 718 719 720
3 221 218 220
3 221 8 218
3 221 143 8
3 222 143 221
3 222 20 143
3 121 222 53
3 223 222 121
3 223 20 222
3 223 721 723
3 723 722 20
3 721 722 723
3 725 724 223
3 727 726 9
3 728 110 729
3 224 730 732
3 730 110 731
3 730 731 732
3 224 50 110
3 125 224 54
3 225 224 125
3 225 50 224
3 225 209 50
3 226 209 225
3 226 3 209
3 200 79 2
3 227 79 200
3 227 33 79
3 128 227 47
3 228 227 128
3 228 33 227
3 228 169 33
3 229 169 228
3 229 15 169
3 733 129 734
3 735 734 11
3 733 734 735
3 230 736 738
3 736 129 737
3 736 737 738
3 230 56 129
3 130 739 741
3 739 230 740
3 739 740 741
3 231 230 130
3 231 56 230
3 231 229 56
3 232 229 231
3 232 15 229
3 232 126 15
3 233 126 232
3 233 55 126
3 132 233 57
3 234 233 132
3 234 55 233
3 234 226 55
3 235 226 234
3 235 3 226
3 235 83 3
3 236 83 235
3 236 742 744
3 744 743 83
3 742 743 744
3 745 236 746
3 747 746 58
3 745 746 747
3 748 236 749
3 751 750 236
3 753 752 12
