ply
format ascii 1.0
element vertex 451
property float x
property float y
property float z
property uchar red
property uchar green
property uchar blue
element face 469
property list uchar int vertex_index
end_header
19.9963 78.1077 -6.72247 182 0 0
15.5455 49.6008 29.705 255 208 0
15.2422 81.8906 0.482383 255 11 0
19.5019 71.641 3.01927 211 255 44
14.1241 88.3633 -10.1489 127 255 128
25.6488 49.0741 4.82505 130 255 125
22.5405 60.2699 4.67613 211 0 0
21.1639 53.7106 13.1454 185 0 0
16.4052 57.4977 21.2162 73 255 182
20.4371 46.8825 21.4496 199 255 56
21.8161 75.3932 -10.2534 159 255 96
22.0042 72.6673 -5.43232 198 255 57
21.1269 65.9412 4.04398 235 0 0
20.2723 62.5399 8.60334 168 0 0
21.7556 57.059 8.98201 232 0 0
19.4831 59.1805 12.9021 235 0 0
17.3868 83.4563 -8.4769 171 0 0
19.5141 81.0035 -11.9513 181 0 0
21.0164 77.7573 -14.8427 46 255 209
15.8666 53.8249 25.4936 223 0 0
18.331 52.0216 21.6782 207 0 0
18.0744 48.393 25.6523 200 0 0
17.6771 80.4116 -3.30468 166 0 0
19.9141 75.0652 -1.80469 223 0 0
17.5472 77.074 1.72811 211 0 0
14.873 85.3046 -4.70372 133 0 0
25.8429 51.9262 1.16939 113 255 142
21.7305 69.4154 -0.605554 176 0 0
23.176 63.5495 0.362579 255 194 0
24.44 57.8933 0.902806 255 231 0
23.9735 54.6392 4.94329 255 9 0
23.4479 51.6131 8.9152 231 0 0
23.0506 48.4861 12.9247 162 255 93
18.8474 55.6168 17.2834 178 0 0
20.731 50.2271 17.3824 234 0 0
20.9583 76.9643 -8.64603 212 0 0
21.8984 74.2837 -7.80482 172 255 83
21.065 75.4017 -6.029 199 0 0
19.5754 65.3491 8.14059 219 255 36
19.0485 63.5974 10.6087 215 255 40
19.8518 60.7993 10.8319 206 0 0
18.6629 61.8074 12.788 180 255 75
18.7797 80.7815 -7.51591 165 0 0
18.5245 82.274 -10.1895 154 0 0
19.8541 79.5832 -9.38764 162 0 0
20.7909 78.1445 -11.0674 232 0 0
14.3771 52.3387 29.535 79 255 176
14.652 54.4059 27.3493 192 255 63
15.723 51.6361 27.663 194 0 0
16.9484 50.9918 25.7352 213 0 0
16.8309 48.9519 27.7954 218 0 0
16.4502 81.2281 -1.38284 171 0 0
17.7763 78.5736 -0.780977 181 0 0
16.4643 79.4852 1.14722 226 0 0
13.8019 84.2937 -0.177402 149 255 106
13.6639 85.7671 -2.57143 198 255 57
15.1472 83.5507 -2.02421 195 0 0
16.3822 82.945 -4.15883 163 0 0
25.7579 50.5424 2.93399 128 255 127
19.7844 73.4528 0.442926 214 0 0
20.8879 72.1956 -1.13332 195 0 0
20.612 70.5523 1.31946 169 0 0
21.8558 63.1607 4.33542 252 0 0
22.1302 64.8678 2.30941 236 0 0
22.8604 62.0086 2.52011 232 0 0
23.7829 60.8243 0.675362 161 255 94
23.5609 59.0372 2.76855 217 0 0
24.2561 56.1731 2.89594 230 0 0
23.2133 57.4093 4.95636 212 0 0
21.465 55.4192 10.9705 206 0 0
22.6524 54.2987 8.8037 216 0 0
22.296 52.7062 11.0567 197 0 0
23.3046 49.9857 10.7754 255 206 0
22.1194 50.9783 13.0459 211 0 0
17.9609 58.3144 17.112 203 255 52
17.6239 56.6142 19.2844 255 171 0
19.4043 49.4866 21.4672 209 0 0
19.5315 51.2969 19.4299 230 0 0
20.5885 48.6123 19.3272 206 0 0
21.7893 47.8033 16.9994 255 209 0
21.6699 46.0172 19.1709 87 255 168
14.0071 82.6009 2.11624 4 255 251
15.1854 80.3072 2.8943 135 255 120
25.5415 47.6886 6.62467 11 255 244
20.3592 68.7792 3.57808 255 186 0
19.9812 67.0418 5.91212 207 255 48
20.7581 64.2068 6.25478 199 0 0
21.4778 61.5224 6.46626 215 0 0
22.0858 58.759 6.92363 219 0 0
21.0013 59.8912 8.77708 204 0 0
20.6652 58.0134 10.9601 226 0 0
20.264 56.4985 13.1185 216 0 0
15.8625 85.9653 -9.41306 128 0 0
15.4006 87.3363 -11.9986 109 255 146
17.1253 84.7641 -11.1473 255 159 0
18.1618 83.5965 -12.9265 210 255 45
19.0476 82.2513 -14.5697 201 255 54
19.816 80.6135 -15.9849 67 255 188
20.3585 79.4844 -13.4424 223 0 0
21.4981 76.6009 -12.5742 146 255 109
14.7919 56.509 25.3297 53 255 202
16.1259 55.5771 23.4457 255 204 0
17.3161 54.7649 21.5653 180 0 0
17.1166 52.7726 23.7711 222 0 0
18.2123 50.2144 23.6357 230 0 0
19.2769 47.6181 23.5938 255 196 0
18.8543 79.3774 -5.05056 206 0 0
19.9949 76.6901 -4.30591 206 0 0
18.9284 77.6523 -2.54686 202 0 0
18.7833 76.0025 0.030918 233 0 0
18.6234 74.3296 2.35007 255 188 0
16.2662 77.9109 3.62228 169 255 86
17.3372 75.3842 4.16887 78 255 177
13.2351 87.539 -5.26787 114 255 141
14.6064 86.8054 -7.38399 255 109 0
16.2534 84.3753 -6.72672 159 0 0
17.6131 81.9363 -5.86429 210 0 0
25.9072 53.352 -0.747345 10 255 245
21.0044 73.871 -3.52326 174 0 0
21.9235 71.0471 -2.97116 255 179 0
22.7264 68.0619 -2.34466 184 255 71
21.4657 67.5928 1.8193 206 0 0
22.4497 66.5775 -0.03487 197 0 0
23.3838 65.2448 -1.84088 59 255 196
25.2015 56.4751 -0.761632 23 255 232
25.1789 54.7211 1.02974 255 25 0
24.9618 53.3103 3.04446 255 34 0
24.775 51.8138 4.95256 255 44 0
22.8785 55.9296 6.94733 243 0 0
23.761 53.0945 6.79543 255 12 0
24.5915 50.3647 6.81488 255 39 0
24.4621 48.8826 8.60764 147 255 108
18.2797 60.1053 14.9565 192 255 63
19.1653 57.4132 15.0493 207 0 0
20.0289 54.6649 15.205 209 0 0
18.5441 53.8245 19.5526 193 0 0
19.7255 52.9197 17.4662 222 0 0
20.838 52.1001 15.3782 206 0 0
21.8665 49.5719 15.0361 246 0 0
22.9139 46.9605 14.8704 49 255 206
15.3089 47.5265 31.7542 0 184 255
16.6009 46.9848 29.9124 175 255 80
17.8829 46.4867 27.7955 196 255 59
19.1835 45.6758 25.6741 77 255 178
18.472 64.1087 11.4807 0 0 133
18.6978 64.9293 10.3791 0 0 133
18.2792 63.2137 12.5704 0 0 174
18.8557 62.7024 11.6984 0 0 213
18.472 64.1087 11.4807 0 0 174
26.1323 48.4212 3.81714 0 0 170
26.1869 49.1553 2.87161 0 0 170
25.7034 49.8082 3.87952 0 0 207
13.7585 89.1362 -11.4621 0 0 142
13.1195 89.5705 -10.4826 0 0 142
15.9581 58.8206 21.0441 0 0 137
15.7739 57.873 22.202 0 0 137
16.5296 58.4669 20.1444 0 0 133
15.9581 58.8206 21.0441 0 0 133
17.0146 57.0559 20.2503 0 0 220
17.139 58.0252 19.1786 0 0 179
16.5296 58.4669 20.1444 0 0 179
14.0018 81.79 3.28379 0 0 129
13.3856 82.8745 2.9586 0 0 129
13.3856 82.8745 2.9586 0 0 128
13.3584 83.6152 1.84236 0 0 128
26.0895 46.3391 6.44077 0 0 131
25.5162 47.0032 7.46376 0 0 131
22.2489 73.9654 -9.70581 0 0 134
22.1057 74.6222 -10.9579 0 0 134
22.4085 71.9464 -6.20859 0 0 177
22.3556 72.7546 -7.39484 0 0 177
21.9513 73.4755 -6.61857 0 0 217
22.3986 71.1972 -4.9918 0 0 135
22.4085 71.9464 -6.20859 0 0 135
19.3812 67.5253 6.8797 0 0 139
19.5669 68.4517 5.69096 0 0 139
22.1057 74.6222 -10.9579 0 0 166
21.9467 75.2261 -12.1183 0 0 166
21.6571 75.997 -11.4138 0 0 202
15.6597 78.2623 4.48161 0 0 169
15.7258 79.109 3.25829 0 0 206
15.1193 79.4605 4.11762 0 0 169
17.2444 74.4604 5.32778 0 0 136
16.7091 75.7716 5.10189 0 0 136
17.8249 74.0393 4.46387 0 0 134
17.2444 74.4604 5.32778 0 0 134
26.2031 51.1939 0.256968 0 0 168
26.2353 51.9067 -0.701399 0 0 168
25.8751 52.6391 0.211022 0 0 203
23.5976 62.9521 -0.56005 0 0 174
23.7015 63.7997 -1.66178 0 0 174
23.2799 64.3972 -0.739151 0 0 213
24.51 58.6914 -0.067831 0 0 168
24.1815 60.1569 -0.181553 0 0 168
24.1115 59.3588 0.789084 0 0 204
24.8208 57.1842 0.070587 0 0 205
24.8908 57.9823 -0.900049 0 0 168
24.51 58.6914 -0.067831 0 0 168
23.6669 47.9737 11.7472 0 0 177
23.7939 48.7236 10.6726 0 0 177
23.1776 49.2359 11.8501 0 0 218
23.5947 47.2554 12.7296 0 0 134
23.6669 47.9737 11.7472 0 0 134
15.1002 87.9636 -13.2343 0 0 137
16.0075 86.7051 -12.8241 0 0 137
20.6911 78.3165 -16.0163 0 0 170
20.0909 79.7446 -16.5874 0 0 170
20.4162 79.1854 -15.4138 0 0 207
17.655 60.5974 15.9437 0 0 136
17.8858 61.43 14.7954 0 0 136
22.8668 46.1442 15.8754 0 0 170
22.3516 47.3819 15.9349 0 0 208
22.3045 46.5657 16.9399 0 0 170
23.4649 45.7395 14.7228 0 0 135
22.8668 46.1442 15.8754 0 0 135
15.1778 46.4916 32.7116 0 0 133
14.6322 47.8267 32.5778 0 0 133
17.1712 45.7044 29.8721 0 0 135
16.4958 45.9795 30.8871 0 0 135
17.8121 45.4553 28.8137 0 0 178
17.2419 46.7358 28.854 0 0 219
17.1712 45.7044 29.8721 0 0 178
19.7068 44.4244 25.6357 0 0 134
19.0793 44.8328 26.6729 0 0 134
19.7453 45.3588 24.6434 0 0 133
19.7068 44.4244 25.6357 0 0 133
18.9613 65.8051 9.14507 0 0 137
19.1783 66.6789 7.99393 0 0 137
19.312 64.4733 9.37464 0 0 222
18.9613 65.8051 9.14507 0 0 180
18.6978 64.9293 10.3791 0 0 180
14.5146 53.3723 28.4422 0 0 222
13.9703 54.8449 28.1693 0 0 180
13.8329 53.8114 29.2622 0 0 180
13.7329 85.0304 -1.37442 0 0 204
12.9999 86.0801 -1.67674 0 0 168
13.0689 85.3434 -0.479727 0 0 168
26.1968 49.8003 1.97422 0 0 167
26.2393 50.4923 1.09191 0 0 167
25.8004 51.2343 2.05169 0 0 203
26.1968 49.8003 1.97422 0 0 130
26.1869 49.1553 2.87161 0 0 130
21.1849 76.9251 -15.5574 0 0 132
21.4887 76.3754 -14.406 0 0 132
17.3075 58.8753 18.0923 0 0 137
17.4955 59.7019 17.0214 0 0 137
17.7924 57.4643 18.1982 0 0 223
17.3075 58.8753 18.0923 0 0 181
17.139 58.0252 19.1786 0 0 181
22.2448 45.6726 18.0256 0 0 177
22.3045 46.5657 16.9399 0 0 177
21.7296 46.9102 18.0851 0 0 217
14.591 80.6432 3.67282 0 0 163
14.5962 81.454 2.50527 0 0 197
14.0018 81.79 3.28379 0 0 163
15.1193 79.4605 4.11762 0 0 130
14.591 80.6432 3.67282 0 0 130
13.2558 84.4616 0.695542 0 0 130
13.0689 85.3434 -0.479727 0 0 130
13.9045 83.4473 0.969417 0 0 191
13.2558 84.4616 0.695542 0 0 159
13.3584 83.6152 1.84236 0 0 159
26.0686 47.0708 5.57731 0 0 167
26.1223 47.7636 4.6775 0 0 167
25.5952 48.3813 5.72486 0 0 203
26.0686 47.0708 5.57731 0 0 132
26.0895 46.3391 6.44077 0 0 132
22.2901 73.4107 -8.48151 0 0 174
22.2489 73.9654 -9.70581 0 0 174
21.8572 74.8384 -9.02911 0 0 213
22.2901 73.4107 -8.48151 0 0 133
22.3556 72.7546 -7.39484 0 0 133
19.756 69.3204 4.52394 0 0 183
19.9306 70.2101 3.29868 0 0 227
19.3273 70.7513 4.24453 0 0 183
20.1702 67.9105 4.7451 0 0 223
19.756 69.3204 4.52394 0 0 180
19.5669 68.4517 5.69096 0 0 180
19.7783 66.1955 7.02636 0 0 214
19.3812 67.5253 6.8797 0 0 175
19.1783 66.6789 7.99393 0 0 175
16.8699 85.4191 -12.3984 0 0 180
16.0075 86.7051 -12.8241 0 0 180
16.2629 86.0502 -11.573 0 0 222
17.3881 84.8352 -13.288 0 0 176
16.8699 85.4191 -12.3984 0 0 176
17.6435 84.1803 -12.0369 0 0 217
17.8513 84.2512 -14.212 0 0 137
17.3881 84.8352 -13.288 0 0 137
18.2942 83.5786 -15.0336 0 0 178
17.8513 84.2512 -14.212 0 0 178
18.6047 82.9239 -13.7481 0 0 220
18.721 82.8278 -15.8607 0 0 138
18.2942 83.5786 -15.0336 0 0 138
19.4318 81.4324 -15.2773 0 0 220
19.1051 82.0089 -16.5683 0 0 179
18.721 82.8278 -15.8607 0 0 179
21.7295 75.7972 -13.2717 0 0 166
21.4887 76.3754 -14.406 0 0 166
21.2573 77.1791 -13.7085 0 0 201
21.7295 75.7972 -13.2717 0 0 131
21.9467 75.2261 -12.1183 0 0 131
14.1039 55.7936 27.1823 0 0 134
13.9703 54.8449 28.1693 0 0 134
14.1738 56.8452 26.1725 0 0 172
14.1039 55.7936 27.1823 0 0 172
14.7219 55.4575 26.3395 0 0 210
14.3053 57.8418 25.1227 0 0 133
14.1738 56.8452 26.1725 0 0 133
14.9672 57.3787 24.2588 0 0 134
14.3053 57.8418 25.1227 0 0 134
15.6342 56.9128 23.3167 0 0 176
14.9672 57.3787 24.2588 0 0 176
15.4589 56.0431 24.3877 0 0 215
16.2656 56.5374 22.3309 0 0 219
15.7739 57.873 22.202 0 0 178
15.6342 56.9128 23.3167 0 0 178
16.1736 77.035 4.82859 0 0 133
15.6597 78.2623 4.48161 0 0 133
16.8017 76.6475 3.89557 0 0 215
16.1736 77.035 4.82859 0 0 175
16.7091 75.7716 5.10189 0 0 175
18.468 73.512 3.55448 0 0 179
17.9803 74.8569 3.25947 0 0 220
17.8249 74.0393 4.46387 0 0 179
18.9073 72.1677 3.88908 0 0 175
19.0627 72.9853 2.68467 0 0 215
18.468 73.512 3.55448 0 0 175
19.3273 70.7513 4.24453 0 0 138
18.9073 72.1677 3.88908 0 0 138
13.4703 88.7568 -9.14069 0 0 143
13.1195 89.5705 -10.4826 0 0 143
12.8071 86.8982 -2.89745 0 0 135
12.9999 86.0801 -1.67674 0 0 135
12.5927 87.7841 -4.24567 0 0 183
12.8071 86.8982 -2.89745 0 0 183
13.4495 86.653 -3.91965 0 0 227
12.3731 88.6127 -5.61157 0 0 138
12.5927 87.7841 -4.24567 0 0 138
13.0258 88.3446 -6.70017 0 0 141
12.3731 88.6127 -5.61157 0 0 141
13.7114 87.9778 -7.75823 0 0 192
13.0258 88.3446 -6.70017 0 0 192
13.9207 87.1722 -6.32593 0 0 240
14.3652 87.5843 -8.76645 0 0 233
13.4703 88.7568 -9.14069 0 0 187
13.7114 87.9778 -7.75823 0 0 187
13.7095 52.6901 30.3288 0 0 137
13.8329 53.8114 29.2622 0 0 137
14.2852 51.2809 30.5163 0 0 134
13.7095 52.6901 30.3288 0 0 134
14.8694 49.9119 30.6013 0 0 175
14.9613 50.9698 29.62 0 0 215
14.2852 51.2809 30.5163 0 0 175
26.1765 52.6152 -1.60172 0 0 130
25.8655 54.1438 -1.59457 0 0 130
26.1765 52.6152 -1.60172 0 0 129
26.2353 51.9067 -0.701399 0 0 129
26.2031 51.1939 0.256968 0 0 129
26.2393 50.4923 1.09191 0 0 129
26.1323 48.4212 3.81714 0 0 129
26.1223 47.7636 4.6775 0 0 129
22.3583 70.3872 -3.76122 0 0 176
22.3986 71.1972 -4.9918 0 0 176
21.9638 71.8572 -4.20174 0 0 216
22.7597 68.8945 -3.44797 0 0 172
22.3583 70.3872 -3.76122 0 0 172
22.3249 69.5545 -2.65791 0 0 210
23.1137 67.4812 -3.20704 0 0 133
22.7597 68.8945 -3.44797 0 0 133
23.4424 66.0727 -2.95515 0 0 170
23.1137 67.4812 -3.20704 0 0 170
23.0551 66.6534 -2.09277 0 0 207
23.7524 64.5667 -2.65562 0 0 134
23.4424 66.0727 -2.95515 0 0 134
23.7524 64.5667 -2.65562 0 0 131
23.7015 63.7997 -1.66178 0 0 131
23.901 61.5894 -0.403659 0 0 169
23.5976 62.9521 -0.56005 0 0 169
23.4795 62.1869 0.518971 0 0 206
23.901 61.5894 -0.403659 0 0 133
24.1815 60.1569 -0.181553 0 0 133
25.2411 57.1343 -1.73441 0 0 132
24.8908 57.9823 -0.900049 0 0 132
25.5126 55.7054 -1.60172 0 0 130
25.2411 57.1343 -1.73441 0 0 130
25.5544 54.9135 -0.754489 0 0 200
25.8655 54.1438 -1.59457 0 0 165
25.5126 55.7054 -1.60172 0 0 165
24.9765 47.6002 8.45524 0 0 162
25.5162 47.0032 7.46376 0 0 162
25.0018 48.2856 7.61616 0 0 196
24.3727 48.172 9.58871 0 0 170
23.8834 49.4342 9.69154 0 0 207
23.7939 48.7236 10.6726 0 0 170
24.9765 47.6002 8.45524 0 0 134
24.3727 48.172 9.58871 0 0 134
14.3968 88.6227 -12.3869 0 0 189
13.7585 89.1362 -11.4621 0 0 189
14.7623 87.8498 -11.0737 0 0 236
14.3968 88.6227 -12.3869 0 0 141
15.1002 87.9636 -13.2343 0 0 141
19.4807 81.0819 -17.2074 0 0 136
19.1051 82.0089 -16.5683 0 0 136
19.4807 81.0819 -17.2074 0 0 133
20.0909 79.7446 -16.5874 0 0 133
20.6911 78.3165 -16.0163 0 0 132
21.1849 76.9251 -15.5574 0 0 132
18.0774 62.281 13.7111 0 0 137
18.2792 63.2137 12.5704 0 0 137
18.4713 60.9564 13.8723 0 0 210
18.0774 62.281 13.7111 0 0 172
17.8858 61.43 14.7954 0 0 172
18.1203 59.2098 16.0342 0 0 220
17.655 60.5974 15.9437 0 0 179
17.4955 59.7019 17.0214 0 0 179
23.5264 46.4926 13.7025 0 0 173
23.5947 47.2554 12.7296 0 0 173
22.9822 47.7233 13.8975 0 0 212
23.5264 46.4926 13.7025 0 0 135
23.4649 45.7395 14.7228 0 0 135
14.7511 48.8748 31.6259 0 0 133
14.6322 47.8267 32.5778 0 0 133
15.4272 48.5637 30.7296 0 0 215
14.8694 49.9119 30.6013 0 0 175
14.7511 48.8748 31.6259 0 0 175
15.8498 46.2503 31.808 0 0 133
15.1778 46.4916 32.7116 0 0 133
15.9549 47.2557 30.8333 0 0 208
15.8498 46.2503 31.808 0 0 170
16.4958 45.9795 30.8871 0 0 170
18.429 45.2383 27.7336 0 0 136
17.8121 45.4553 28.8137 0 0 136
18.5332 46.0812 26.7348 0 0 212
18.429 45.2383 27.7336 0 0 173
19.0793 44.8328 26.6729 0 0 173
19.7921 46.3299 23.6032 0 0 174
19.2302 46.6469 24.6339 0 0 213
19.7453 45.3588 24.6434 0 0 174
20.3721 45.9622 22.5312 0 0 176
19.857 47.2503 22.5217 0 0 217
19.7921 46.3299 23.6032 0 0 176
20.9611 45.6409 21.3927 0 0 136
20.3721 45.9622 22.5312 0 0 136
21.5775 45.2082 20.2533 0 0 176
21.0535 46.4499 20.3103 0 0 217
20.9611 45.6409 21.3927 0 0 176
22.2076 44.7864 19.0928 0 0 136
21.5775 45.2082 20.2533 0 0 136
22.2448 45.6726 18.0256 0 0 136
22.2076 44.7864 19.0928 0 0 136
3 0 37 35
3 144 39 145
3 146 41 147
3 148 147 39
3 146 147 148
3 0 44 42
3 0 35 44
3 1 48 46
3 1 50 48
3 2 53 51
3 2 56 54
3 2 51 56
3 5 149 151
3 151 150 58
3 149 150 151
3 3 61 59
3 6 64 62
3 6 66 64
3 6 68 66
3 7 71 69
3 7 73 71
3 4 152 153
3 8 154 155
3 8 156 157
3 8 158 160
3 158 75 159
3 158 159 160
3 9 78 76
3 9 80 78
3 162 161 81
3 163 81 164
3 166 165 83
3 10 167 168
3 11 169 171
3 171 170 36
3 169 170 171
3 11 172 173
3 174 85 175
3 13 86 38
3 13 87 86
3 13 89 87
3 15 90 40
3 15 91 90
3 16 94 92
3 17 95 43
3 17 96 95
3 17 98 96
3 10 99 45
3 10 176 178
3 178 177 99
3 176 177 178
3 19 100 47
3 19 101 100
3 19 103 101
3 21 104 49
3 21 105 104
3 22 108 106
3 24 109 52
3 24 110 109
3 179 111 180
3 181 180 82
3 179 180 181
3 182 112 183
3 185 184 112
3 25 113 55
3 25 114 113
3 25 115 114
3 22 116 57
3 22 106 116
3 26 186 188
3 188 187 117
3 186 187 188
3 23 118 107
3 27 119 60
3 27 120 119
3 12 121 84
3 28 122 63
3 28 123 122
3 28 189 191
3 191 190 123
3 189 190 191
3 29 192 194
3 194 193 65
3 192 193 194
3 29 195 197
3 195 124 196
3 195 196 197
3 29 125 124
3 30 126 67
3 30 127 126
3 14 128 88
3 31 129 70
3 31 130 129
3 31 131 130
3 32 198 200
3 200 199 72
3 198 199 200
3 32 201 202
3 204 203 93
3 18 205 207
3 207 206 97
3 205 206 207
3 208 132 209
3 33 133 74
3 33 134 133
3 20 135 102
3 34 136 77
3 34 137 136
3 34 138 137
3 210 139 211
3 212 211 79
3 210 211 212
3 214 213 139
3 215 140 216
3 217 141 218
3 219 142 220
3 221 220 141
3 219 220 221
3 222 143 223
3 225 224 143
3 35 36 10
3 37 36 35
3 37 11 36
3 226 38 227
3 39 228 230
3 228 38 229
3 228 229 230
3 39 13 38
3 39 40 13
3 41 40 39
3 41 15 40
3 42 43 16
3 44 43 42
3 44 17 43
3 44 45 17
3 35 45 44
3 35 10 45
3 46 231 233
3 231 47 232
3 231 232 233
3 48 47 46
3 48 19 47
3 48 49 19
3 50 49 48
3 50 21 49
3 51 52 22
3 53 52 51
3 53 24 52
3 54 234 236
3 234 55 235
3 234 235 236
3 56 55 54
3 56 25 55
3 56 57 25
3 51 57 56
3 51 22 57
3 58 237 239
3 239 238 26
3 237 238 239
3 241 240 58
3 59 60 23
3 61 60 59
3 61 27 60
3 62 63 12
3 64 63 62
3 64 28 63
3 64 65 28
3 66 65 64
3 66 29 65
3 66 67 29
3 68 67 66
3 68 30 67
3 69 70 14
3 71 70 69
3 71 31 70
3 71 72 31
3 73 72 71
3 73 32 72
3 243 242 18
3 244 74 245
3 75 246 248
3 246 74 247
3 246 247 248
3 75 33 74
3 76 77 20
3 78 77 76
3 78 34 77
3 78 79 34
3 80 79 78
3 80 249 251
3 251 250 79
3 249 250 251
3 81 82 2
3 252 82 253
3 254 253 81
3 252 253 254
3 256 255 82
3 257 54 258
3 81 259 261
3 259 54 260
3 259 260 261
3 81 2 54
3 83 262 264
3 264 263 5
3 262 263 264
3 266 265 83
3 36 267 269
3 269 268 10
3 267 268 269
3 271 270 36
3 272 84 273
3 274 273 3
3 272 273 274
3 85 275 277
3 275 84 276
3 275 276 277
3 85 12 84
3 38 278 280
3 278 85 279
3 278 279 280
3 86 85 38
3 86 12 85
3 86 62 12
3 87 62 86
3 87 6 62
3 87 88 6
3 89 88 87
3 89 14 88
3 40 89 13
3 90 89 40
3 90 14 89
3 90 69 14
3 91 69 90
3 91 7 69
3 92 93 4
3 94 93 92
3 94 281 283
3 283 282 93
3 281 282 283
3 43 94 16
3 95 94 43
3 95 284 286
3 286 285 94
3 284 285 286
3 95 287 288
3 96 289 291
3 291 290 95
3 289 290 291
3 96 292 293
3 96 294 296
3 294 97 295
3 294 295 296
3 98 97 96
3 98 18 97
3 45 98 17
3 99 98 45
3 99 18 98
3 99 297 299
3 299 298 18
3 297 298 299
3 301 300 99
3 47 302 303
3 100 304 306
3 306 305 47
3 304 305 306
3 100 307 308
3 100 309 310
3 101 311 313
3 313 312 100
3 311 312 313
3 101 314 316
3 314 8 315
3 314 315 316
3 101 102 8
3 103 102 101
3 103 20 102
3 49 103 19
3 104 103 49
3 104 20 103
3 104 76 20
3 105 76 104
3 105 9 76
3 106 107 0
3 108 107 106
3 108 23 107
3 52 108 22
3 109 108 52
3 109 23 108
3 109 59 23
3 110 59 109
3 110 3 59
3 82 53 2
3 111 53 82
3 111 24 53
3 317 111 318
3 112 319 321
3 319 111 320
3 319 320 321
3 112 24 111
3 112 110 24
3 322 110 323
3 324 323 112
3 322 323 324
3 325 3 326
3 327 326 110
3 325 326 327
3 329 328 3
3 330 4 331
3 55 332 333
3 113 334 336
3 336 335 55
3 334 335 336
3 113 337 338
3 113 339 340
3 114 341 343
3 343 342 113
3 341 342 343
3 114 344 346
3 344 4 345
3 344 345 346
3 114 92 4
3 115 92 114
3 115 16 92
3 57 115 25
3 116 115 57
3 116 16 115
3 116 42 16
3 106 42 116
3 106 0 42
3 347 46 348
3 349 46 350
3 351 1 352
3 353 352 46
3 351 352 353
3 117 354 355
3 357 356 117
3 359 358 26
3 361 360 5
3 107 37 0
3 118 37 107
3 118 11 37
3 60 118 23
3 119 118 60
3 119 11 118
3 119 362 364
3 364 363 11
3 362 363 364
3 120 365 367
3 367 366 119
3 365 366 367
3 120 368 369
3 84 61 3
3 121 61 84
3 121 27 61
3 63 121 12
3 122 121 63
3 122 27 121
3 122 120 27
3 123 120 122
3 123 370 372
3 372 371 120
3 370 371 372
3 123 373 374
3 376 375 123
3 65 377 379
3 379 378 28
3 377 378 379
3 381 380 65
3 124 382 383
3 124 384 385
3 124 386 388
3 386 117 387
3 386 387 388
3 125 117 124
3 125 26 117
3 67 125 29
3 126 125 67
3 126 26 125
3 126 58 26
3 127 58 126
3 127 5 58
3 88 68 6
3 128 68 88
3 128 30 68
3 70 128 14
3 129 128 70
3 129 30 128
3 129 127 30
3 130 127 129
3 130 5 127
3 130 83 5
3 131 83 130
3 131 389 391
3 391 390 83
3 389 390 391
3 72 131 31
3 392 131 393
3 394 393 72
3 392 393 394
3 396 395 131
3 93 397 399
3 399 398 4
3 397 398 399
3 401 400 93
3 97 402 403
3 405 404 97
3 407 406 18
3 408 41 409
3 132 410 412
3 410 41 411
3 410 411 412
3 132 15 41
3 74 413 415
3 413 132 414
3 413 414 415
3 133 132 74
3 133 15 132
3 133 91 15
3 134 91 133
3 134 7 91
3 102 75 8
3 135 75 102
3 135 33 75
3 77 135 20
3 136 135 77
3 136 33 135
3 136 134 33
3 137 134 136
3 137 7 134
3 137 73 7
3 138 73 137
3 138 32 73
3 79 138 34
3 139 138 79
3 139 32 138
3 139 416 418
3 418 417 32
3 416 417 418
3 420 419 139
3 140 421 422
3 140 423 425
3 423 1 424
3 423 424 425
3 426 140 427
3 141 428 430
3 428 140 429
3 428 429 430
3 141 1 140
3 141 50 1
3 142 50 141
3 142 21 50
3 431 142 432
3 143 433 435
3 433 142 434
3 433 434 435
3 143 21 142
3 143 105 21
3 436 105 437
3 438 437 143
3 436 437 438
3 439 9 440
3 441 440 105
3 439 440 441
3 442 9 443
3 444 80 445
3 446 445 9
3 444 445 446
3 447 80 448
3 450 449 80
