ply
format ascii 1.0
element vertex 950
property float x
property float y
property float z
property uchar red
property uchar green
property uchar blue
element face 1211
property list uchar int vertex_index
end_header
-20.952 -61.9603 8.05956 0 178 255
-16.0336 -45.6496 55.4908 255 252 0
-11.7366 -67.4951 34.8727 255 246 0
-7.30818 -73.3464 46.6864 0 172 255
-8.85643 -55.3657 59.8988 0 85 255
-9.65755 -54.8012 44.7856 133 255 122
-20.492 -61.9815 22.1374 255 146 0
-9.92399 -39.2861 42.4042 0 148 255
-11.9181 -55.8569 29.6366 255 237 0
-9.68808 -63.2819 54.8133 186 255 69
-26.1414 -65.3495 2.98876 0 193 255
-16.5995 -63.8373 28.9583 255 132 0
-14.7667 -44.5272 46.206 249 255 6
-6.44114 -64.5236 38.988 255 239 0
-9.34285 -55.1643 36.8223 136 255 119
-3.81908 -66.5215 30.1781 225 255 30
-4.98069 -65.4493 23.1942 226 255 29
-7.59084 -72.5809 39.765 91 255 164
-7.65977 -49.5187 59.2908 141 255 114
-7.3794 -48.6085 50.9335 59 255 196
-7.10226 -55.0453 52.9088 0 219 255
-7.67918 -63.132 47.0506 238 255 17
-15.7153 -43.9401 64.3053 5 255 250
-10.2203 -51.4668 68.6831 0 79 255
-19.933 -60.2539 14.7121 255 137 0
-10.8794 -48.4912 43.8322 227 255 28
-14.8537 -44.6752 36.2811 255 65 0
-9.35075 -52.7207 24.3824 0 189 255
-6.12251 -61.8719 17.4818 210 255 45
-7.66776 -58.3839 10.4839 7 255 248
-18.5899 -58.2013 8.31512 105 255 150
-23.5189 -59.061 6.4476 36 255 219
-25.1264 -63.8078 7.09306 162 255 93
-13.8695 -65.3241 32.0775 255 226 0
-19.2248 -71.1798 25.3629 255 86 0
-18.2762 -70.9172 29.4913 255 14 0
-18.1943 -41.7845 48.4011 8 255 247
-15.945 -45.9253 50.531 252 255 3
-4.3895 -70.6596 35.6376 209 255 46
-4.786 -65.5651 34.5161 255 203 0
-6.71162 -68.5531 31.6802 255 222 0
-8.96297 -66.4086 28.8385 255 224 0
-7.11305 -73.5412 42.9608 35 255 220
-12.686 -73.3276 41.4856 0 152 255
-7.10302 -52.588 60.8175 5 255 250
-7.32717 -52.2499 56.3268 11 255 244
-7.5341 -55.3351 56.4735 0 177 255
-6.40422 -68.0815 51.9026 206 255 49
-9.05268 -63.4188 50.9305 255 232 0
-5.67129 -68.5219 47.7837 203 255 52
-5.27478 -69.1682 43.6801 187 255 68
-12.614 -48.6904 66.6907 255 153 0
-13.7436 -47.8899 70.8005 0 192 255
-20.6811 -60.5766 18.4431 255 173 0
-20.5851 -66.7824 14.9528 2 255 253
-6.0665 -52.2242 47.6926 11 255 244
-8.27931 -48.5493 46.9537 125 255 130
-8.10387 -52.112 43.5989 0 238 255
-11.4391 -55.8756 33.5937 255 199 0
-13.7871 -51.0792 36.5102 255 235 0
-15.1691 -49.7538 32.3982 255 149 0
-11.219 -54.4878 26.5273 58 255 197
-13.5603 -62.4901 23.1334 255 222 0
-5.91108 -63.6909 20.5214 202 255 53
-14.0675 -60.2443 20.7491 255 159 0
-13.0511 -57.715 18.2659 255 54 0
-5.30481 -56.1314 13.2571 0 177 255
-11.4709 -57.0131 56.2478 0 209 255
-18.7146 -62.9136 25.7356 255 163 0
-20.8671 -69.2137 18.4778 160 255 95
-19.9361 -70.8999 21.6121 239 255 16
-17.6729 -40.8727 43.3081 0 227 255
-12.8515 -41.797 43.5526 213 255 42
-7.49744 -59.2988 41.5936 102 255 153
-8.07566 -55.1322 40.2434 71 255 184
-7.09735 -59.3163 38.0433 112 255 143
-6.37008 -59.6009 34.0728 204 255 51
-6.84346 -61.1103 30.1383 255 233 0
-6.37645 -60.3553 26.839 231 255 24
-4.16723 -66.4642 26.4575 177 255 78
-11.0036 -64.2762 26.0586 255 102 0
-9.66547 -70.0356 37.6697 154 255 101
-16.0408 -70.7501 33.9902 255 117 0
-14.7116 -71.671 37.8027 55 255 200
-12.0029 -48.21 57.1205 174 255 81
-10.5158 -47.498 52.8451 255 245 0
-6.7133 -48.7178 55.0085 6 255 249
-6.38081 -52.4397 52.018 3 255 252
-8.28525 -54.6266 48.8926 153 255 102
-11.0139 -57.2397 53.4604 104 255 151
-11.9476 -57.7536 49.5838 246 255 9
-10.5522 -58.8483 45.4094 194 255 61
-6.38613 -63.2338 43.2094 166 255 89
-5.00053 -69.8298 39.5179 136 255 119
-15.7225 -44.734 60.1862 0 249 255
-12.5181 -48.7406 61.8144 255 250 0
-7.72968 -50.9047 64.6274 102 255 153
-8.41018 -53.8611 64.5008 0 107 255
-19.4786 -61.7029 10.4752 134 255 121
-22.6574 -66.9515 8.19869 0 89 255
-20.5246 -66.7972 7.62749 0 108 255
-16.6645 -78.4588 28.0674 128 255 127
-9.24754 -45.8487 48.9668 224 255 31
-7.5544 -44.2246 45.6427 103 255 152
-7.15042 -43.7092 42.9812 71 255 184
-11.0699 -52.0554 40.0143 115 255 140
-13.4048 -47.0593 40.3537 255 180 0
-8.45927 -41.7922 40.7941 255 252 0
-9.00007 -39.3637 38.3522 220 0 0
-6.40107 -59.5838 23.5462 255 221 0
-5.93019 -58.6416 20.0632 255 203 0
-5.38243 -57.4821 16.7732 255 188 0
-6.56408 -60.1581 14.0424 241 255 14
-13.5198 -57.6543 13.6975 255 21 0
-14.3385 -59.2613 9.87441 63 255 192
-19.9778 -60.1611 7.98625 27 255 228
-22.3568 -60.911 7.43384 93 255 162
-23.0951 -62.9397 7.77482 24 255 231
-12.7401 -66.4437 33.5418 219 255 36
-16.5666 -67.439 31.008 255 183 0
-15.6122 -67.5885 32.9133 255 162 0
-17.1877 -43.7983 54.4861 0 245 255
-17.5019 -44.1392 52.0768 69 255 186
-16.0948 -46.0287 52.9276 255 246 0
-8.0398 -69.4177 34.9835 255 208 0
-5.34907 -69.8804 33.5404 255 207 0
-9.22152 -67.7548 33.4733 255 209 0
-10.225 -66.4856 32.3077 255 239 0
-7.11462 -73.5488 44.7375 58 255 197
-8.88984 -74.9286 43.3737 0 127 255
-8.68024 -75.3097 45.092 0 85 255
-7.80756 -54.2283 60.5914 0 195 255
-7.6397 -54.0308 58.6426 0 204 255
-8.01664 -55.4588 58.3948 0 182 255
-6.47749 -70.9696 49.3953 46 255 209
-5.95081 -68.2263 49.8346 216 255 39
-6.2238 -71.2611 47.2333 150 255 105
-5.92777 -71.5107 45.2264 101 255 154
-15.211 -45.6336 69.3903 20 255 235
-15.4051 -44.9293 71.2523 0 84 255
-20.8203 -61.2739 20.2547 255 159 0
-21.8613 -63.8875 17.0785 191 255 64
-22.0571 -64.8462 18.9297 255 35 0
-7.05151 -53.6141 46.1378 31 255 224
-6.83377 -52.1686 45.4661 0 252 255
-8.04238 -53.3551 44.2877 6 255 249
-11.8124 -55.8846 31.6273 255 145 0
-13.7854 -53.1085 33.0498 255 169 0
-13.8905 -52.8032 30.9846 255 182 0
-14.2695 -49.4003 30.4583 56 255 199
-13.0424 -52.66 29.3343 56 255 199
-11.7846 -52.0616 28.3374 0 136 255
-11.7194 -55.2 28.0812 200 255 55
-17.1846 -60.9063 23.3338 251 255 4
-14.4364 -61.5831 21.7446 255 230 0
-17.7806 -60.3188 21.6151 255 252 0
-17.6898 -59.2962 20.0836 255 205 0
-25.9265 -61.8967 5.12997 0 233 255
-17.7005 -63.2868 27.3905 255 166 0
-20.159 -66.7348 24.1442 255 75 0
-19.3329 -67.0119 25.7073 255 75 0
-18.0453 -74.6724 23.7382 123 255 132
-17.9838 -74.4273 21.6294 96 255 159
-17.1272 -43.7956 47.0066 210 255 45
-18.1262 -41.4941 45.7621 0 248 255
-16.4983 -43.044 44.7701 186 255 69
-15.5747 -41.7065 42.9136 181 255 74
-13.9501 -43.2424 44.6354 230 255 25
-6.68092 -61.4473 40.6218 107 255 148
-6.5937 -59.2076 39.752 118 255 137
-6.95915 -61.9875 38.5698 210 255 45
-4.3287 -66.0938 32.4608 255 225 0
-5.44403 -62.2151 34.6047 255 250 0
-5.38116 -63.0462 32.4931 255 193 0
-6.69822 -60.5478 32.2146 255 244 0
-5.15928 -63.7219 30.0018 255 214 0
-4.6756 -63.6002 28.058 213 255 42
-3.83194 -66.6925 28.2586 172 255 83
-12.2825 -63.7658 29.6429 255 176 0
-10.0256 -65.2254 27.4728 255 167 0
-13.6486 -62.6625 28.2301 255 170 0
-14.9127 -61.9054 26.7287 255 145 0
-8.5749 -71.2865 38.7369 122 255 133
-12.2839 -70.3911 38.2309 169 255 86
-11.2894 -71.5847 39.4716 173 255 82
-10.0702 -48.9425 57.9038 200 255 55
-9.2202 -48.4719 55.8542 136 255 119
-7.15697 -49.2021 57.1061 64 255 191
-6.87975 -53.8726 54.3342 0 186 255
-7.00535 -52.3061 54.1514 8 255 247
-6.10384 -53.8104 52.3218 0 203 255
-5.88882 -53.7687 50.2984 0 249 255
-7.62054 -54.8785 50.8997 68 255 187
-11.3381 -59.9518 55.4046 78 255 177
-11.0698 -57.1242 55.0203 7 255 248
-10.9999 -60.278 53.9563 157 255 98
-8.24529 -63.1251 49.024 255 252 0
-11.0799 -60.8146 50.2062 255 184 0
-10.3756 -60.9452 48.0957 255 209 0
-11.5488 -58.3408 47.4507 233 255 22
-9.13668 -61.0291 46.121 230 255 25
-8.27519 -61.1966 44.1601 141 255 114
-7.28994 -63.3771 44.9367 183 255 72
-5.69208 -71.6521 41.4914 55 255 200
-5.39437 -69.4788 41.6403 154 255 101
-5.47398 -71.6652 39.5103 55 255 200
-6.13487 -71.3645 37.7267 71 255 184
-15.6604 -44.3239 62.3264 0 239 255
-14.2594 -46.7996 60.9527 201 255 54
-14.4885 -46.7608 63.0787 254 255 1
-10.5861 -50.2146 68.1784 109 255 146
-9.74889 -50.2169 65.8452 253 255 2
-8.69303 -51.4449 66.8438 0 247 255
-7.45014 -52.4485 65.0474 0 240 255
-8.93107 -52.8601 66.6578 0 96 255
-19.8055 -60.6738 12.4884 255 186 0
-20.4887 -64.3454 9.06289 27 255 228
-20.7445 -63.9368 11.0345 212 255 43
-16.9087 -74.3451 33.2415 255 249 0
-17.7802 -74.8138 30.7836 128 0 0
-17.567 -78.6583 30.6874 125 255 130
-7.17272 -47.0896 52.0012 125 255 130
-9.97517 -46.6344 50.8225 255 219 0
-6.70387 -46.6863 49.7609 145 255 110
-9.42557 -48.5562 45.3124 157 255 98
-7.11283 -46.3268 45.8045 86 255 169
-8.0002 -46.3057 44.1999 129 255 126
-6.92554 -43.9935 44.1715 64 255 191
-9.46722 -45.894 42.8595 210 255 45
-7.7291 -54.6362 38.2485 67 255 188
-9.42434 -53.6057 40.0558 64 255 191
-10.0658 -53.2293 37.9766 135 255 120
-15.5079 -48.1866 36.6031 255 128 0
-14.3663 -49.277 38.6583 255 210 0
-14.2699 -45.9469 38.4253 255 101 0
-11.6634 -44.0327 40.0321 255 119 0
-12.3918 -42.8118 38.343 255 54 0
-9.09902 -40.7166 39.5428 255 157 0
-12.6388 -41.5018 36.5474 251 0 0
-4.19724 -62.6641 24.8822 191 255 64
-6.39227 -59.8911 25.2304 255 244 0
-4.15497 -62.3935 23.2203 181 255 74
-6.01041 -62.7731 19.0616 214 255 41
-4.16933 -61.613 19.8857 130 255 125
-4.10354 -61.1134 18.1408 145 255 110
-5.63469 -57.9552 18.4675 255 191 0
-4.20355 -60.4874 16.3139 143 255 112
-4.309 -59.8935 14.4256 152 255 103
-6.21683 -61.0151 15.7548 205 255 50
-17.095 -57.8372 16.7753 255 54 0
-12.9882 -57.1746 16.1794 219 0 0
-17.1127 -57.999 14.5569 255 13 0
-17.0772 -58.9408 12.2829 255 108 0
-9.39291 -57.7087 9.5382 0 78 255
-12.8692 -58.145 9.61511 0 167 255
-11.2889 -58.6529 10.4673 89 255 166
-16.8293 -56.24 8.56877 0 223 255
-19.4642 -56.7224 7.09915 0 249 255
-21.2902 -58.7927 7.34237 155 255 100
-24.5876 -61.3527 6.73518 159 255 96
-26.2648 -64.6942 5.22552 244 255 11
-15.1804 -64.5322 30.6144 255 153 0
-18.5549 -67.193 27.4391 255 77 0
-17.6483 -67.3693 29.2811 255 128 0
-19.0123 -71.1401 27.438 255 84 0
-18.401 -74.8428 25.8899 179 255 76
-17.8804 -41.7305 50.9123 0 184 255
-17.4351 -44.14 49.5043 223 255 32
-15.4532 -45.4308 48.2691 253 255 2
-4.37478 -67.747 37.2302 253 255 2
-5.5391 -65.1012 36.5709 255 187 0
-3.66874 -68.3313 35.0382 255 252 0
-3.47131 -68.8506 32.6498 252 255 3
-4.26904 -68.8385 30.5183 192 255 63
-5.32975 -68.4672 28.8969 156 255 99
-7.76093 -67.5593 30.1523 255 245 0
-11.1436 -65.0798 30.9171 255 210 0
-7.13618 -73.3425 41.1012 50 255 205
-10.2442 -72.9283 40.7381 144 255 111
-9.42533 -74.1271 41.9043 0 212 255
-6.47072 -50.8517 60.2777 18 255 237
-6.53557 -50.72 58.0775 0 247 255
-7.26473 -52.3631 58.5847 11 255 244
-7.51598 -54.0096 56.4349 0 202 255
-7.21633 -55.1868 54.6395 0 167 255
-7.93909 -65.7202 53.8344 205 255 50
-9.59942 -63.508 52.899 249 255 6
-7.20892 -65.5815 51.6809 234 255 21
-6.53315 -65.3375 49.6677 222 255 33
-6.15909 -65.4783 47.8031 228 255 27
-5.86742 -65.7253 45.7175 244 255 11
-5.51786 -68.8696 45.7465 208 255 47
-5.81564 -71.7268 43.3749 83 255 172
-15.6326 -43.4263 66.2815 0 188 255
-14.6363 -46.6156 65.3415 255 207 0
-14.9867 -45.9818 67.4305 141 255 114
-13.0465 -48.4428 68.964 232 255 23
-11.8311 -49.8395 70.0204 0 113 255
-20.2231 -60.1515 16.6507 255 162 0
-20.9658 -63.4814 13.2602 120 255 135
-21.4223 -63.38 15.2114 57 255 198
-7.44928 -51.0515 49.4619 104 255 151
-7.81063 -48.535 48.9095 110 255 145
-7.74588 -50.9253 47.3274 94 255 161
-8.72948 -51.0096 45.5248 85 255 170
-9.86622 -50.9088 43.7642 117 255 138
-10.6855 -55.7497 35.4065 221 255 34
-11.4521 -53.2686 36.4276 173 255 82
-12.8898 -53.2368 34.9325 255 249 0
-14.942 -50.3491 34.5384 255 170 0
-15.8617 -47.0286 34.3508 255 120 0
-14.7008 -43.6619 34.1295 231 255 24
-15.0977 -46.3565 32.1665 91 255 164
-10.4557 -53.6855 25.2654 0 241 255
-9.25211 -65.0234 22.8098 255 186 0
-5.36252 -64.6776 21.6651 221 255 34
-10.1175 -63.5827 21.9401 255 188 0
-10.2112 -62.2246 21.0514 255 124 0
-9.67269 -60.9673 19.7123 255 94 0
-9.50665 -59.8372 18.1878 255 105 0
-13.4023 -58.7988 19.8054 255 115 0
-17.3338 -58.2837 18.6755 255 136 0
-5.26851 -58.0374 10.95 0 182 255
-10.3274 -56.0706 59.181 0 0 253
-9.70651 -56.2208 57.9604 0 172 255
-11.7556 -56.8031 57.4095 0 50 255
-12.0115 -59.6044 56.625 0 119 255
-10.1194 -62.8454 56.4386 0 196 255
-8.27361 -65.5799 55.8771 0 207 255
-6.92798 -68.0698 54.0452 0 216 255
-6.92112 -70.7189 51.5497 0 154 255
-21.6613 -56.6092 6.12749 0 98 255
-19.6813 -62.5625 23.9564 255 152 0
-21.6964 -65.7204 20.764 255 24 0
-20.9208 -66.2 22.6363 255 47 0
-20.5978 -70.1762 20.1432 152 255 103
-19.5608 -71.2545 23.3933 255 98 0
-18.1711 -74.0888 19.7475 0 254 255
-16.7103 -39.7088 41.2212 0 149 255
-14.238 -40.328 41.7704 0 217 255
-11.4927 -40.4584 42.8381 55 255 200
-9.61711 -57.2531 42.9283 168 255 87
-9.40287 -55.3163 42.3273 116 255 139
-7.98681 -57.1313 40.8336 140 255 115
-6.91797 -56.5791 38.8148 56 255 199
-7.64556 -56.8821 37.5368 76 255 179
-6.26539 -62.0986 36.4706 234 255 21
-6.56456 -59.5833 36.1585 155 255 100
-8.26977 -57.6427 35.7063 180 255 75
-8.59095 -57.9468 33.7449 244 255 11
-8.76432 -58.1631 31.8183 255 199 0
-9.01121 -58.3966 29.954 255 210 0
-9.28993 -58.1253 28.3503 252 255 3
-6.55477 -60.8995 28.2542 220 255 35
-4.39447 -63.168 26.4965 175 255 80
-4.67048 -66.0241 24.7614 201 255 54
-6.52888 -67.9652 27.2965 227 255 28
-7.32772 -67.1929 25.7127 255 219 0
-8.27604 -66.2729 24.0998 255 179 0
-12.0429 -63.5392 24.4233 255 117 0
-16.0589 -61.4075 24.9705 255 189 0
-10.6982 -68.8397 36.3521 224 255 31
-14.4536 -68.2896 35.0826 255 185 0
-13.4234 -69.3165 36.7238 203 255 52
-15.3507 -71.1305 35.8819 255 255 0
-16.3898 -74.0696 35.4698 0 215 255
-13.8115 -72.3027 39.7209 0 234 255
-14.2071 -47.1522 56.2533 226 255 29
-13.6801 -47.4297 53.9225 255 235 0
-11.2857 -48.0282 54.9 205 255 50
-8.15661 -47.7458 53.9669 94 255 161
-6.77364 -48.5492 52.9427 0 246 255
-6.81173 -50.3917 55.9756 0 246 255
-7.3388 -50.2394 53.8857 42 255 213
-7.67337 -50.7291 51.746 87 255 168
-5.96926 -52.2591 49.9712 2 255 253
-6.22657 -53.7142 48.2242 42 255 213
-9.11739 -54.5107 46.7662 152 255 103
-9.21906 -56.1966 56.4427 0 207 255
-8.89019 -56.1093 54.8854 0 225 255
-8.9612 -55.9399 53.1895 26 255 229
-11.2044 -60.535 52.2479 255 245 0
-11.5458 -57.3003 51.601 202 255 53
-9.60542 -55.6819 51.3903 108 255 147
-10.6445 -55.5594 49.392 173 255 82
-11.2555 -55.8775 47.272 185 255 70
-10.941 -56.6194 45.1502 167 255 88
-8.9025 -59.1844 43.4568 146 255 109
-7.28854 -61.2488 42.3276 70 255 185
-6.2414 -63.7105 41.2705 201 255 54
-5.58254 -66.0347 43.7873 239 255 16
-5.67482 -66.5747 41.6178 255 230 0
-5.47165 -67.1535 39.1743 255 245 0
-4.30105 -70.2749 37.5986 127 255 128
-7.10807 -70.5074 36.4075 153 255 102
-16.8571 -42.6513 56.681 0 193 255
-15.7975 -45.1868 57.8462 90 255 165
-14.1926 -46.9913 58.6935 205 255 50
-12.3368 -48.4166 59.4509 193 255 62
-10.1736 -49.4098 60.5237 255 233 0
-12.5205 -48.9418 64.2249 255 155 0
-9.9506 -49.8983 63.1305 255 197 0
-7.5405 -50.1116 61.8757 168 255 87
-6.69784 -51.5632 62.7799 18 255 237
-7.45679 -53.3133 62.8331 0 247 255
-8.6077 -54.6437 62.0958 0 80 255
-19.8994 -62.2646 8.84747 4 255 251
-22.4233 -64.3468 8.20116 0 222 255
-21.3061 -64.4653 8.2407 0 173 255
-21.5118 -66.9986 8.06479 0 57 255
-19.9816 -66.9007 8.86051 0 123 255
-20.9589 -68.1492 16.7083 156 255 99
-16.9898 -70.7948 31.6104 223 0 0
-18.4415 -75.0523 28.3037 255 129 0
-13.3244 -47.0708 51.6777 255 210 0
-12.8201 -46.312 49.6741 255 217 0
-12.1169 -45.3885 47.8583 255 216 0
-6.71131 -46.4709 47.6879 107 255 148
-8.56093 -45.0012 47.2299 159 255 96
-11.2997 -44.1902 46.2672 255 245 0
-10.3726 -42.9485 45.1594 199 255 56
-9.06245 -42.0102 44.3566 125 255 130
-7.77972 -41.1981 43.929 82 255 173
-9.00378 -53.4035 42.3083 0 254 255
-9.566 -52.0989 41.6877 31 255 224
-11.2744 -50.6106 41.8881 161 255 94
-12.459 -51.6651 38.2861 196 255 59
-12.9041 -50.111 40.3095 214 255 41
-12.236 -47.9634 42.117 255 229 0
-10.6189 -45.0688 41.4451 255 211 0
-7.6574 -42.7815 42.0069 159 255 96
-6.54018 -40.5275 43.5102 0 207 255
-5.86571 -40.1678 42.5631 0 186 255
-5.75164 -39.2476 41.5509 37 255 218
-5.71514 -37.6184 40.2885 26 255 229
-12.1253 -40.4001 34.6664 223 255 32
-8.85017 -37.7515 36.7547 109 255 146
-9.49185 -57.7036 26.6558 255 227 0
-9.34547 -57.1597 24.9737 255 243 0
-9.14471 -56.536 23.4392 255 219 0
-4.14998 -62.0283 21.5668 148 255 107
-6.15733 -59.3369 21.69 255 211 0
-8.87803 -55.994 21.9228 155 255 100
-8.46659 -55.1308 20.4765 95 255 160
-7.93742 -54.3338 18.924 106 255 149
-7.4587 -53.8039 17.2207 2 255 253
-5.27982 -56.7967 15.004 116 255 139
-4.64515 -59.0539 12.636 164 255 91
-7.23776 -59.1673 12.1759 238 255 17
-9.25435 -58.8433 16.5355 255 74 0
-9.63653 -58.1269 14.3972 255 35 0
-10.7069 -58.3845 12.1139 255 190 0
-13.9582 -58.8499 11.6741 255 240 0
-17.0069 -60.3222 10.2471 185 255 70
-17.8407 -60.2033 8.84984 37 255 218
-14.9049 -57.0964 9.42839 0 181 255
-16.4417 -58.6284 9.08774 53 255 202
-24.1497 -65.7496 7.88276 0 222 255
-25.4069 -67.0296 6.34284 0 252 255
-25.7005 -67.9015 4.13134 0 201 255
-14.9411 -43.274 71.6907 0 0 145
-15.2515 -43.423 70.7103 0 0 145
-10.499 -38.3325 41.7377 0 0 141
-11.318 -39.062 41.7816 0 0 141
-9.09706 -38.7549 42.5126 0 0 139
-10.499 -38.3325 41.7377 0 0 139
-26.1078 -63.9018 3.00991 0 0 169
-26.0003 -62.1754 4.08052 0 0 169
-26.034 -63.6231 4.05936 0 0 195
-25.4428 -65.4305 2.10682 0 0 145
-26.1078 -63.9018 3.00991 0 0 145
-16.5428 -75.6877 22.5119 0 0 151
-16.6394 -75.7191 23.6525 0 0 151
-15.3924 -42.5387 63.6763 0 0 143
-14.9476 -42.4634 64.5872 0 0 143
-15.6878 -44.132 63.3158 0 0 196
-15.3649 -42.7306 62.6869 0 0 169
-15.3924 -42.5387 63.6763 0 0 169
-17.6714 -78.352 31.9254 0 0 198
-17.2378 -76.5017 31.9645 0 0 238
-17.3423 -76.1954 33.2025 0 0 198
-7.81794 -52.0648 25.47 0 0 148
-8.88805 -52.0906 25.808 0 0 148
-8.64948 -52.4401 23.9532 0 0 143
-7.81794 -52.0648 25.47 0 0 143
-8.53034 -58.0463 10.0111 0 0 167
-8.01281 -57.5053 9.43489 0 0 150
-7.15023 -57.8429 9.90774 0 0 150
-17.6135 -41.5689 52.1049 0 0 143
-17.2828 -40.4887 51.396 0 0 143
-10.3243 -74.8586 43.0582 0 0 137
-10.0114 -75.4514 43.7282 0 0 137
-15.6137 -42.9398 67.2244 0 0 146
-14.3375 -42.2189 66.4862 0 0 146
-15.2908 -44.2175 67.7989 0 0 169
-15.3097 -44.7041 66.856 0 0 195
-15.6137 -42.9398 67.2244 0 0 169
-20.4021 -66.5147 14.1812 0 0 168
-21.0402 -65.0672 15.2441 0 0 168
-21.2232 -65.335 16.0157 0 0 194
-18.9354 -66.8604 13.8427 0 0 137
-20.4021 -66.5147 14.1812 0 0 137
-13.8448 -47.7905 30.5473 0 0 147
-13.3848 -49.3356 29.8463 0 0 147
-10.7036 -53.1174 27.0885 0 0 162
-10.9864 -51.9043 27.9935 0 0 162
-11.5018 -53.2747 27.4323 0 0 184
-10.8373 -54.0866 25.8963 0 0 181
-10.322 -52.7162 26.4575 0 0 160
-10.7036 -53.1174 27.0885 0 0 160
-5.44098 -56.002 12.0389 0 0 149
-5.88561 -54.736 13.3838 0 0 149
-5.28666 -57.0844 12.1035 0 0 185
-5.42283 -56.955 10.8853 0 0 162
-5.44098 -56.002 12.0389 0 0 162
-11.9755 -56.685 57.8929 0 0 136
-11.0415 -56.4369 58.2953 0 0 146
-11.2614 -56.3187 58.7786 0 0 136
-11.5779 -60.9152 57.1828 0 0 134
-12.3706 -59.3039 57.1691 0 0 134
-10.6318 -62.5357 57.0896 0 0 161
-11.0654 -61.2249 56.5318 0 0 183
-11.5779 -60.9152 57.1828 0 0 161
-7.92176 -66.7598 55.958 0 0 137
-8.6258 -65.4324 56.7851 0 0 137
-7.24895 -68.0048 55.042 0 0 161
-7.60079 -66.8249 54.9611 0 0 183
-7.92176 -66.7598 55.958 0 0 161
-7.51373 -71.7865 51.2819 0 0 138
-7.21532 -70.5468 52.519 0 0 138
-7.26793 -71.9809 50.1788 0 0 140
-7.51373 -71.7865 51.2819 0 0 140
-19.197 -72.0209 19.7798 0 0 181
-19.5278 -71.659 19.0454 0 0 181
-20.267 -70.538 20.8776 0 0 213
-16.6152 -75.2555 19.4678 0 0 181
-18.0774 -74.2581 20.6884 0 0 214
-16.5215 -75.4247 20.4088 0 0 181
-16.5995 -74.4356 18.6113 0 0 155
-16.6152 -75.2555 19.4678 0 0 155
-18.2681 -40.519 47.7447 0 0 145
-17.8892 -40.5375 48.9951 0 0 145
-18.1709 -39.9162 43.8839 0 0 167
-18.3975 -40.227 45.1109 0 0 167
-17.8995 -41.1834 44.5351 0 0 193
-18.004 -39.6247 42.6118 0 0 143
-18.1709 -39.9162 43.8839 0 0 143
-17.1916 -40.2907 42.2646 0 0 187
-17.5227 -39.0428 41.5683 0 0 164
-18.004 -39.6247 42.6118 0 0 164
-16.0746 -41.2883 56.8557 0 0 141
-16.6729 -41.6238 55.9569 0 0 141
-16.0382 -43.3745 59.5492 0 0 145
-15.7691 -43.1291 60.5896 0 0 145
-15.76 -44.9604 59.0162 0 0 208
-16.0757 -43.6009 58.3792 0 0 177
-16.0382 -43.3745 59.5492 0 0 177
-20.4293 -67.9817 7.90345 0 0 139
-20.9229 -68.0824 8.1221 0 0 139
-21.0182 -66.8979 7.84614 0 0 150
-19.9115 -66.76 10.0431 0 0 181
-20.4737 -65.1911 11.0603 0 0 213
-20.4037 -65.0504 12.2429 0 0 181
-16.2183 -78.0336 26.9883 0 0 198
-17.1068 -76.3303 27.1065 0 0 198
-17.553 -76.7555 28.1855 0 0 239
-12.7678 -41.7849 33.5304 0 0 188
-13.4131 -42.031 34.3979 0 0 224
-14.0555 -43.4158 33.262 0 0 188
-8.62343 -37.3232 35.731 0 0 158
-9.77202 -38.9315 34.9278 0 0 158
-7.36521 -36.9514 37.577 0 0 153
-8.62343 -37.3232 35.731 0 0 153
-12.9727 -56.9272 9.42299 0 0 141
-13.9913 -56.2674 9.3983 0 0 141
-24.9135 -68.5709 5.96364 0 0 140
-24.6417 -67.8304 6.79588 0 0 140
-25.0604 -69.0068 4.85789 0 0 175
-25.5537 -67.4655 5.23709 0 0 205
-24.9135 -68.5709 5.96364 0 0 175
-17.3448 -43.9687 53.2814 0 0 197
-17.4243 -42.7733 52.6871 0 0 170
-17.2672 -42.6028 53.8918 0 0 170
-9.9066 -75.6419 44.5873 0 0 154
-10.0114 -75.4514 43.7282 0 0 154
-8.78504 -75.1191 44.2328 0 0 173
-15.1545 -43.7751 69.7794 0 0 148
-15.4029 -44.0434 68.7788 0 0 148
-15.3081 -45.2815 70.3213 0 0 199
-15.1545 -43.7751 69.7794 0 0 172
-15.2515 -43.423 70.7103 0 0 172
-12.7713 -50.9655 29.2843 0 0 179
-13.3848 -49.3356 29.8463 0 0 179
-13.656 -51.0302 29.8963 0 0 210
-12.4135 -52.3608 28.8359 0 0 183
-12.1423 -50.6663 28.7858 0 0 161
-12.7713 -50.9655 29.2843 0 0 161
-6.08641 -54.603 14.5515 0 0 147
-5.88561 -54.736 13.3838 0 0 147
-25.4128 -60.5941 4.99951 0 0 166
-24.209 -59.1763 5.65833 0 0 166
-24.7227 -60.4788 5.78878 0 0 190
-25.4128 -60.5941 4.99951 0 0 142
-26.0003 -62.1754 4.08052 0 0 142
-16.5121 -75.5652 21.4575 0 0 185
-18.0145 -74.5499 22.6838 0 0 218
-16.5428 -75.6877 22.5119 0 0 185
-16.5215 -75.4247 20.4088 0 0 150
-16.5121 -75.5652 21.4575 0 0 150
-14.4817 -73.575 40.5999 0 0 145
-14.0622 -73.7961 41.6587 0 0 145
-15.738 -42.924 61.6597 0 0 145
-15.3649 -42.7306 62.6869 0 0 145
-15.6915 -44.529 61.2563 0 0 201
-15.7691 -43.1291 60.5896 0 0 173
-15.738 -42.924 61.6597 0 0 173
-19.5174 -69.4178 16.927 0 0 153
-19.7085 -70.3731 17.5357 0 0 153
-8.79228 -56.9826 8.96249 0 0 136
-8.01281 -57.5053 9.43489 0 0 136
-10.2166 -57.2334 9.4779 0 0 135
-8.79228 -56.9826 8.96249 0 0 135
-11.131 -57.9269 9.57666 0 0 169
-11.9548 -57.4515 9.51636 0 0 151
-10.2166 -57.2334 9.4779 0 0 151
-23.267 -67.7914 7.7238 0 0 138
-22.2836 -68.286 8.02093 0 0 138
-18.1468 -56.4812 7.83396 0 0 191
-17.1987 -55.6358 7.65396 0 0 166
-15.8812 -55.3946 8.38876 0 0 166
-16.8173 -75.8043 24.7283 0 0 182
-16.6394 -75.7191 23.6525 0 0 182
-18.2232 -74.7576 24.8141 0 0 214
-17.7322 -40.5105 50.2507 0 0 144
-17.2828 -40.4887 51.396 0 0 144
-18.0373 -41.7575 49.6567 0 0 198
-17.8892 -40.5375 48.9951 0 0 171
-17.7322 -40.5105 50.2507 0 0 171
-17.6911 -42.9348 51.4945 0 0 197
-17.6135 -41.5689 52.1049 0 0 170
-17.4243 -42.7733 52.6871 0 0 170
-10.592 -74.4578 42.3236 0 0 155
-9.15758 -74.5278 42.639 0 0 174
-10.3243 -74.8586 43.0582 0 0 155
-12.2223 -74.058 42.1142 0 0 164
-11.0557 -73.7273 41.695 0 0 187
-10.592 -74.4578 42.3236 0 0 164
-14.0622 -73.7961 41.6587 0 0 143
-12.2223 -74.058 42.1142 0 0 143
-14.9063 -42.2065 65.5753 0 0 145
-14.3375 -42.2189 66.4862 0 0 145
-15.674 -43.6832 65.2934 0 0 198
-14.9476 -42.4634 64.5872 0 0 171
-14.9063 -42.2065 65.5753 0 0 171
-15.0989 -45.8077 68.4104 0 0 203
-15.2908 -44.2175 67.7989 0 0 175
-15.4029 -44.0434 68.7788 0 0 175
-20.6319 -64.9996 13.2186 0 0 170
-20.4037 -65.0504 12.2429 0 0 170
-21.194 -63.4307 14.2358 0 0 196
-20.8207 -64.8135 14.3105 0 0 174
-21.6418 -63.6337 16.145 0 0 203
-21.0402 -65.0672 15.2441 0 0 174
-20.6319 -64.9996 13.2186 0 0 142
-20.8207 -64.8135 14.3105 0 0 142
-14.254 -44.7631 32.2805 0 0 179
-14.0555 -43.4158 33.262 0 0 179
-14.8993 -45.0092 33.148 0 0 210
-14.2589 -46.2686 31.4014 0 0 180
-14.6836 -47.8784 31.3124 0 0 212
-13.8448 -47.7905 30.5473 0 0 180
-14.254 -44.7631 32.2805 0 0 149
-14.2589 -46.2686 31.4014 0 0 149
-11.1049 -50.5393 28.7491 0 0 143
-12.1423 -50.6663 28.7858 0 0 143
-11.1049 -50.5393 28.7491 0 0 140
-10.9864 -51.9043 27.9935 0 0 140
-9.44054 -52.573 26.2495 0 0 141
-10.322 -52.7162 26.4575 0 0 141
-9.90323 -53.2031 24.8239 0 0 188
-8.88805 -52.0906 25.808 0 0 164
-9.44054 -52.573 26.2495 0 0 164
-5.95061 -57.6696 10.1408 0 0 135
-5.42283 -56.955 10.8853 0 0 135
-6.46814 -58.2107 10.7169 0 0 169
-7.15023 -57.8429 9.90774 0 0 151
-5.95061 -57.6696 10.1408 0 0 151
-8.02518 -74.344 46.8095 0 0 139
-7.46146 -73.2946 47.7471 0 0 139
-12.2427 -57.9032 57.5613 0 0 128
-11.9755 -56.685 57.8929 0 0 128
-11.8835 -58.2038 57.0173 0 0 161
-12.2427 -57.9032 57.5613 0 0 146
-12.3706 -59.3039 57.1691 0 0 146
-9.54867 -64.0652 57.0659 0 0 139
-10.6318 -62.5357 57.0896 0 0 139
-9.19648 -64.2126 56.1578 0 0 191
-9.54867 -64.0652 57.0659 0 0 166
-8.6258 -65.4324 56.7851 0 0 166
-7.21875 -69.2223 53.7668 0 0 138
-7.24895 -68.0048 55.042 0 0 138
-6.92455 -69.3944 52.7974 0 0 178
-7.21875 -69.2223 53.7668 0 0 158
-7.21532 -70.5468 52.519 0 0 158
-7.04611 -72.1062 49.1016 0 0 165
-6.6993 -70.8442 50.4725 0 0 189
-7.26793 -71.9809 50.1788 0 0 165
-7.46146 -73.2946 47.7471 0 0 164
-6.89283 -72.158 48.0408 0 0 187
-7.04611 -72.1062 49.1016 0 0 164
-18.4404 -55.739 6.91638 0 0 145
-17.1987 -55.6358 7.65396 0 0 145
-19.539 -55.6824 6.43055 0 0 165
-18.4404 -55.739 6.91638 0 0 165
-20.5628 -56.6658 6.61332 0 0 189
-20.5855 -55.5833 5.90152 0 0 143
-19.539 -55.6824 6.43055 0 0 143
-23.2802 -57.9504 5.49827 0 0 168
-22.5901 -57.8351 6.28754 0 0 193
-24.209 -59.1763 5.65833 0 0 168
-22.39 -56.6373 5.44721 0 0 141
-23.2802 -57.9504 5.49827 0 0 141
-20.5855 -55.5833 5.90152 0 0 140
-22.39 -56.6373 5.44721 0 0 140
-19.5739 -70.8543 18.3684 0 0 179
-19.7085 -70.3731 17.5357 0 0 179
-20.7325 -69.6949 19.3105 0 0 211
-19.5739 -70.8543 18.3684 0 0 154
-19.5278 -71.659 19.0454 0 0 154
-18.3145 -73.6154 18.8475 0 0 189
-19.197 -72.0209 19.7798 0 0 189
-19.0536 -72.4944 20.6798 0 0 225
-18.3145 -73.6154 18.8475 0 0 150
-16.5995 -74.4356 18.6113 0 0 150
-18.2341 -40.3738 46.4253 0 0 171
-18.2681 -40.519 47.7447 0 0 171
-18.1602 -41.6393 47.0816 0 0 198
-18.2341 -40.3738 46.4253 0 0 144
-18.3975 -40.227 45.1109 0 0 144
-17.007 -38.4738 40.5012 0 0 141
-17.5227 -39.0428 41.5683 0 0 141
-15.9381 -38.9956 40.6251 0 0 140
-17.007 -38.4738 40.5012 0 0 140
-14.702 -39.3051 40.8997 0 0 167
-15.9381 -38.9956 40.6251 0 0 167
-15.4741 -40.0184 41.4958 0 0 192
-13.4751 -39.583 41.4647 0 0 141
-14.702 -39.3051 40.8997 0 0 141
-12.1024 -39.6482 41.9986 0 0 165
-13.4751 -39.583 41.4647 0 0 165
-12.8654 -40.3932 42.3042 0 0 189
-10.7083 -39.8722 42.6211 0 0 184
-11.318 -39.062 41.7816 0 0 161
-12.1024 -39.6482 41.9986 0 0 161
-17.0828 -76.0577 34.3166 0 0 190
-17.3423 -76.1954 33.2025 0 0 190
-16.6492 -74.2074 34.3557 0 0 227
-15.0444 -73.0626 39.7176 0 0 173
-13.2488 -72.8151 40.6033 0 0 202
-14.4817 -73.575 40.5999 0 0 173
-15.0835 -73.0972 38.6552 0 0 143
-15.0444 -73.0626 39.7176 0 0 143
-15.5335 -72.7813 37.6961 0 0 169
-14.2616 -71.9868 38.7618 0 0 195
-15.0835 -73.0972 38.6552 0 0 169
-16.3726 -73.9806 36.5296 0 0 167
-15.5507 -72.8703 36.6363 0 0 191
-15.5335 -72.7813 37.6961 0 0 167
-16.8083 -75.7239 35.3581 0 0 147
-16.3726 -73.9806 36.5296 0 0 147
-17.0828 -76.0577 34.3166 0 0 147
-16.8083 -75.7239 35.3581 0 0 147
-8.71122 -75.3257 46.0123 0 0 155
-7.99421 -74.3281 45.8892 0 0 175
-8.02518 -74.344 46.8095 0 0 155
-9.69947 -75.8816 45.334 0 0 135
-8.71122 -75.3257 46.0123 0 0 135
-9.9066 -75.6419 44.5873 0 0 133
-9.69947 -75.8816 45.334 0 0 133
-16.8382 -42.1973 54.8594 0 0 142
-17.2672 -42.6028 53.8918 0 0 142
-17.0224 -43.2248 55.5835 0 0 198
-16.8382 -42.1973 54.8594 0 0 171
-16.6729 -41.6238 55.9569 0 0 171
-16.6055 -42.3331 57.7966 0 0 145
-16.0746 -41.2883 56.8557 0 0 145
-16.3273 -43.919 57.2636 0 0 206
-16.6055 -42.3331 57.7966 0 0 176
-16.0757 -43.6009 58.3792 0 0 176
-15.5183 -44.5547 72.1169 0 0 140
-14.9411 -43.274 71.6907 0 0 140
-15.1314 -45.9916 71.737 0 0 136
-15.5183 -44.5547 72.1169 0 0 136
-14.3006 -47.4719 71.5111 0 0 157
-14.5744 -46.4096 71.0264 0 0 177
-15.1314 -45.9916 71.737 0 0 157
-13.6535 -48.5728 71.085 0 0 129
-14.3006 -47.4719 71.5111 0 0 129
-12.6972 -49.5476 70.695 0 0 145
-12.7874 -48.8647 70.4105 0 0 160
-13.6535 -48.5728 71.085 0 0 145
-11.998 -50.466 70.0302 0 0 129
-12.6972 -49.5476 70.695 0 0 129
-11.1926 -51.2797 69.3616 0 0 143
-11.0257 -50.6531 69.3518 0 0 157
-11.998 -50.466 70.0302 0 0 143
-10.6022 -52.1192 68.3672 0 0 133
-11.1926 -51.2797 69.3616 0 0 133
-9.95759 -52.8159 67.3545 0 0 151
-9.5757 -52.1634 67.6704 0 0 168
-10.6022 -52.1192 68.3672 0 0 151
-9.60366 -53.4072 66.1588 0 0 137
-9.95759 -52.8159 67.3545 0 0 137
-9.34322 -53.9077 65.0803 0 0 152
-8.67063 -53.3606 65.5793 0 0 170
-9.60366 -53.4072 66.1588 0 0 152
-9.2385 -54.2309 63.8186 0 0 137
-9.34322 -53.9077 65.0803 0 0 137
-9.33726 -54.6222 62.6161 0 0 150
-8.50894 -54.2524 63.2983 0 0 167
-9.2385 -54.2309 63.8186 0 0 150
-9.39563 -54.9275 61.4789 0 0 132
-9.33726 -54.6222 62.6161 0 0 132
-9.52 -55.2885 60.3803 0 0 145
-8.73207 -55.0047 60.9973 0 0 159
-9.39563 -54.9275 61.4789 0 0 145
-10.2555 -55.641 60.0215 0 0 140
-9.59192 -55.7182 59.5399 0 0 151
-9.52 -55.2885 60.3803 0 0 140
-11.0015 -55.8626 59.4525 0 0 128
-10.2555 -55.641 60.0215 0 0 128
-11.2614 -56.3187 58.7786 0 0 128
-11.0015 -55.8626 59.4525 0 0 128
-21.7108 -68.3096 7.95399 0 0 143
-22.2836 -68.286 8.02093 0 0 143
-22.0846 -66.975 8.13174 0 0 156
-21.7108 -68.3096 7.95399 0 0 134
-20.9229 -68.0824 8.1221 0 0 134
-18.9519 -67.3906 8.11959 0 0 140
-19.9115 -66.76 10.0431 0 0 140
-19.5529 -67.7439 8.13062 0 0 131
-18.9519 -67.3906 8.11959 0 0 131
-19.8244 -67.6921 7.51411 0 0 142
-20.2531 -66.849 8.244 0 0 155
-19.5529 -67.7439 8.13062 0 0 142
-20.4293 -67.9817 7.90345 0 0 131
-19.8244 -67.6921 7.51411 0 0 131
-19.5633 -68.8855 16.0423 0 0 177
-20.913 -68.6815 17.5931 0 0 207
-19.5174 -69.4178 16.927 0 0 177
-19.2936 -67.9006 15.5656 0 0 150
-19.5633 -68.8855 16.0423 0 0 150
-19.1068 -67.2172 14.6878 0 0 177
-20.772 -67.4658 15.8305 0 0 207
-19.2936 -67.9006 15.5656 0 0 177
-18.9354 -66.8604 13.8427 0 0 141
-19.1068 -67.2172 14.6878 0 0 141
-17.0866 -76.2256 25.8996 0 0 196
-18.4213 -74.9475 27.0968 0 0 235
-17.1068 -76.3303 27.1065 0 0 196
-16.8173 -75.8043 24.7283 0 0 158
-17.0866 -76.2256 25.8996 0 0 158
-16.8183 -80.0821 31.1202 0 0 153
-17.6714 -78.352 31.9254 0 0 153
-15.7965 -79.6034 30.1001 0 0 160
-16.8183 -80.0821 31.1202 0 0 160
-15.3453 -79.5037 28.7901 0 0 202
-17.1157 -78.5585 29.3774 0 0 245
-15.7965 -79.6034 30.1001 0 0 202
-14.6866 -78.9122 27.6198 0 0 162
-15.3453 -79.5037 28.7901 0 0 162
-16.2183 -78.0336 26.9883 0 0 156
-14.6866 -78.9122 27.6198 0 0 156
-7.40515 -39.3756 43.0656 0 0 167
-9.09706 -38.7549 42.5126 0 0 167
-8.23209 -39.9068 42.9572 0 0 193
-7.06792 -39.1958 42.592 0 0 148
-7.40515 -39.3756 43.0656 0 0 148
-6.20294 -40.3477 43.0366 0 0 163
-6.37204 -38.6799 42.6644 0 0 139
-7.06792 -39.1958 42.592 0 0 139
-6.31501 -38.2198 42.1584 0 0 147
-6.37204 -38.6799 42.6644 0 0 147
-5.80868 -39.7077 42.057 0 0 163
-5.74369 -37.717 41.9314 0 0 135
-6.31501 -38.2198 42.1584 0 0 135
-5.72543 -36.9024 41.3001 0 0 160
-5.74369 -37.717 41.9314 0 0 160
-5.73339 -38.433 40.9197 0 0 182
-5.2668 -36.317 40.6398 0 0 137
-5.72543 -36.9024 41.3001 0 0 137
-11.4096 -40.2558 33.8836 0 0 151
-12.7678 -41.7849 33.5304 0 0 151
-10.4877 -39.0758 35.7106 0 0 243
-11.4096 -40.2558 33.8836 0 0 201
-9.77202 -38.9315 34.9278 0 0 201
-5.79769 -36.8848 39.3438 0 0 193
-7.28265 -37.6849 38.5216 0 0 231
-7.36521 -36.9514 37.577 0 0 193
-5.2668 -36.317 40.6398 0 0 144
-5.79769 -36.8848 39.3438 0 0 144
-8.41313 -54.0767 22.7234 0 0 177
-8.64948 -52.4401 23.9532 0 0 177
-9.11439 -54.3573 23.1526 0 0 208
-8.20741 -53.6451 22.0003 0 0 179
-8.41313 -54.0767 22.7234 0 0 179
-8.67231 -55.5624 21.1997 0 0 210
-7.56755 -53.4339 21.3269 0 0 150
-8.20741 -53.6451 22.0003 0 0 150
-7.30297 -53.0354 20.5506 0 0 182
-7.56755 -53.4339 21.3269 0 0 182
-8.20201 -54.7323 19.7002 0 0 214
-6.88391 -52.7643 19.6565 0 0 152
-7.30297 -53.0354 20.5506 0 0 152
-6.64455 -52.4994 18.8048 0 0 181
-6.88391 -52.7643 19.6565 0 0 181
-7.69806 -54.0688 18.0723 0 0 213
-6.36123 -52.1985 17.902 0 0 152
-6.64455 -52.4994 18.8048 0 0 152
-7.16336 -53.4392 16.5333 0 0 145
-6.36123 -52.1985 17.902 0 0 145
-6.07391 -54.9356 15.4249 0 0 175
-7.16336 -53.4392 16.5333 0 0 175
-6.36926 -55.3003 16.1123 0 0 205
-5.29231 -56.464 14.1306 0 0 215
-6.08641 -54.603 14.5515 0 0 182
-6.07391 -54.9356 15.4249 0 0 182
-14.9535 -55.8392 8.96849 0 0 142
-15.8812 -55.3946 8.38876 0 0 142
-15.8671 -56.6682 8.99858 0 0 184
-14.9535 -55.8392 8.96849 0 0 161
-13.9913 -56.2674 9.3983 0 0 161
-13.8871 -57.6207 9.52175 0 0 178
-12.9727 -56.9272 9.42299 0 0 158
-11.9548 -57.4515 9.51636 0 0 158
-24.0132 -67.1904 7.56583 0 0 155
-23.4035 -66.3506 8.04073 0 0 174
-23.267 -67.7914 7.7238 0 0 155
-24.7783 -66.3896 7.1128 0 0 187
-24.0132 -67.1904 7.56583 0 0 164
-24.6417 -67.8304 6.79588 0 0 164
-24.7542 -69.4478 3.84668 0 0 145
-25.0604 -69.0068 4.85789 0 0 145
-25.1801 -68.1081 3.14089 0 0 147
-24.7542 -69.4478 3.84668 0 0 147
-25.4006 -66.8321 2.56961 0 0 171
-25.921 -66.6255 3.56005 0 0 199
-25.1801 -68.1081 3.14089 0 0 171
-25.4428 -65.4305 2.10682 0 0 145
-25.4006 -66.8321 2.56961 0 0 145
3 0 117 115
3 2 120 118
3 1 123 121
3 2 126 124
3 2 118 126
3 3 130 128
3 4 133 131
3 3 136 134
3 3 128 136
3 460 139 461
3 6 142 140
3 7 462 463
3 7 464 465
3 5 145 143
3 8 148 146
3 8 150 148
3 8 152 150
3 6 155 153
3 6 140 155
3 10 466 468
3 468 467 157
3 466 467 468
3 10 469 470
3 11 160 158
3 472 471 161
3 12 165 163
3 12 167 165
3 13 170 168
3 15 173 171
3 15 175 173
3 15 177 175
3 11 180 178
3 11 158 180
3 17 184 182
3 18 187 185
3 20 190 188
3 20 192 190
3 9 195 193
3 21 198 196
3 21 200 198
3 21 202 200
3 17 205 203
3 17 182 205
3 22 473 474
3 22 475 477
3 475 207 476
3 475 476 477
3 22 209 207
3 23 212 210
3 23 214 212
3 24 217 215
3 478 220 479
3 480 479 218
3 478 479 480
3 19 223 221
3 25 226 224
3 25 228 226
3 14 231 229
3 26 234 232
3 26 236 234
3 26 238 236
3 27 481 482
3 27 483 484
3 16 241 239
3 28 244 242
3 28 246 244
3 28 248 246
3 24 251 249
3 24 215 251
3 29 485 487
3 485 253 486
3 485 486 487
3 29 255 253
3 30 258 256
3 32 259 116
3 32 260 259
3 33 263 261
3 35 264 119
3 35 265 264
3 488 266 489
3 37 267 122
3 37 268 267
3 38 271 269
3 40 272 125
3 40 273 272
3 40 275 273
3 33 276 127
3 33 261 276
3 42 279 277
3 491 490 129
3 44 282 280
3 46 283 132
3 46 284 283
3 47 287 285
3 49 288 135
3 49 289 288
3 49 291 289
3 42 292 137
3 42 277 292
3 492 293 493
3 494 295 495
3 496 495 293
3 494 495 496
3 52 296 138
3 52 297 296
3 53 300 298
3 54 497 499
3 499 498 141
3 497 498 499
3 54 500 501
3 55 303 301
3 57 304 144
3 57 305 304
3 58 308 306
3 60 309 147
3 60 310 309
3 60 312 310
3 503 502 149
3 61 504 506
3 506 505 151
3 504 505 506
3 61 507 509
3 507 313 508
3 507 508 509
3 62 316 314
3 64 317 154
3 64 318 317
3 64 320 318
3 53 321 156
3 53 298 321
3 66 510 511
3 66 512 514
3 512 322 513
3 512 513 514
3 515 325 516
3 517 516 323
3 515 516 517
3 518 326 519
3 520 327 521
3 522 521 326
3 520 521 522
3 523 328 524
3 525 329 526
3 527 526 328
3 525 526 527
3 528 330 529
3 531 530 330
3 31 331 257
3 68 334 332
3 70 335 159
3 70 532 534
3 534 533 335
3 532 533 534
3 34 336 262
3 535 337 536
3 537 536 162
3 535 536 537
3 539 538 337
3 36 540 541
3 71 542 544
3 544 543 164
3 542 543 544
3 71 545 546
3 71 547 549
3 547 338 548
3 547 548 549
3 72 339 166
3 72 340 339
3 73 343 341
3 75 344 169
3 75 345 344
3 39 346 270
3 76 347 172
3 76 348 347
3 76 349 348
3 77 350 174
3 77 351 350
3 77 353 351
3 79 354 176
3 79 355 354
3 41 356 274
3 80 357 179
3 80 358 357
3 80 359 358
3 68 360 181
3 68 332 360
3 81 363 361
3 83 364 183
3 83 365 364
3 43 366 278
3 84 369 367
3 86 370 186
3 86 371 370
3 45 372 281
3 87 373 189
3 87 374 373
3 87 375 374
3 88 376 191
3 88 377 376
3 67 378 324
3 89 379 194
3 89 380 379
3 48 381 286
3 90 382 197
3 90 383 382
3 90 384 383
3 91 385 199
3 91 386 385
3 91 387 386
3 92 388 201
3 92 389 388
3 50 390 290
3 93 391 204
3 93 392 391
3 93 393 392
3 81 394 206
3 81 361 394
3 550 395 551
3 94 552 553
3 94 554 556
3 554 396 555
3 554 555 556
3 94 397 396
3 95 398 208
3 95 399 398
3 51 400 294
3 96 401 211
3 96 402 401
3 96 403 402
3 97 404 213
3 97 405 404
3 98 408 406
3 100 409 216
3 100 557 559
3 559 558 409
3 557 558 559
3 560 410 561
3 562 561 299
3 560 561 562
3 69 411 333
3 82 412 362
3 101 413 219
3 101 563 565
3 565 564 413
3 563 564 565
3 85 414 368
3 102 415 222
3 102 416 415
3 56 417 302
3 103 418 225
3 103 419 418
3 103 420 419
3 104 421 227
3 104 422 421
3 74 423 342
3 105 424 230
3 105 425 424
3 59 426 307
3 106 427 233
3 106 428 427
3 106 429 428
3 107 430 235
3 107 431 430
3 107 432 431
3 108 433 237
3 108 434 433
3 566 435 567
3 568 567 311
3 566 567 568
3 569 436 570
3 572 571 436
3 78 437 352
3 109 438 240
3 109 439 438
3 63 440 315
3 110 441 243
3 110 442 441
3 110 443 442
3 111 444 245
3 111 445 444
3 111 446 445
3 112 447 247
3 112 448 447
3 65 449 319
3 113 450 250
3 113 451 450
3 113 452 451
3 98 453 252
3 98 406 453
3 573 455 574
3 114 456 254
3 114 454 456
3 99 457 407
3 575 458 576
3 577 459 578
3 579 578 458
3 577 578 579
3 115 116 30
3 117 116 115
3 117 32 116
3 118 119 33
3 120 119 118
3 120 35 119
3 121 580 582
3 580 122 581
3 580 581 582
3 123 122 121
3 123 37 122
3 124 125 38
3 126 125 124
3 126 40 125
3 126 127 40
3 118 127 126
3 118 33 127
3 128 129 42
3 130 129 128
3 130 583 585
3 585 584 129
3 583 584 585
3 131 132 44
3 133 132 131
3 133 46 132
3 134 135 47
3 136 135 134
3 136 49 135
3 136 137 49
3 128 137 136
3 128 42 137
3 586 138 587
3 139 588 590
3 588 138 589
3 588 589 590
3 139 52 138
3 140 141 53
3 142 141 140
3 142 54 141
3 143 144 55
3 145 144 143
3 145 57 144
3 146 147 58
3 148 147 146
3 148 60 147
3 148 149 60
3 150 149 148
3 150 591 593
3 593 592 149
3 591 592 593
3 150 594 596
3 594 151 595
3 594 595 596
3 152 151 150
3 152 61 151
3 153 154 62
3 155 154 153
3 155 64 154
3 155 156 64
3 140 156 155
3 140 53 156
3 597 66 598
3 157 599 601
3 601 600 31
3 599 600 601
3 603 602 157
3 158 159 68
3 160 159 158
3 160 70 159
3 161 162 34
3 604 162 605
3 606 605 161
3 604 605 606
3 608 607 162
3 163 164 36
3 165 164 163
3 165 71 164
3 165 166 71
3 167 166 165
3 167 72 166
3 168 169 73
3 170 169 168
3 170 75 169
3 171 172 39
3 173 172 171
3 173 76 172
3 173 174 76
3 175 174 173
3 175 77 174
3 175 176 77
3 177 176 175
3 177 79 176
3 178 179 41
3 180 179 178
3 180 80 179
3 180 181 80
3 158 181 180
3 158 68 181
3 182 183 81
3 184 183 182
3 184 83 183
3 610 609 43
3 185 186 84
3 187 186 185
3 187 86 186
3 188 189 45
3 190 189 188
3 190 87 189
3 190 191 87
3 192 191 190
3 192 88 191
3 193 194 67
3 195 194 193
3 195 89 194
3 196 197 48
3 198 197 196
3 198 90 197
3 198 199 90
3 200 199 198
3 200 91 199
3 200 201 91
3 202 201 200
3 202 92 201
3 203 204 50
3 205 204 203
3 205 93 204
3 205 206 93
3 182 206 205
3 182 81 206
3 207 611 612
3 207 613 615
3 613 94 614
3 613 614 615
3 207 208 94
3 209 208 207
3 209 95 208
3 210 211 51
3 212 211 210
3 212 96 211
3 212 213 96
3 214 213 212
3 214 97 213
3 215 216 98
3 217 216 215
3 217 100 216
3 617 616 69
3 218 219 82
3 220 219 218
3 220 101 219
3 221 222 85
3 223 222 221
3 223 102 222
3 224 225 56
3 226 225 224
3 226 103 225
3 226 227 103
3 228 227 226
3 228 104 227
3 229 230 74
3 231 230 229
3 231 105 230
3 232 233 59
3 234 233 232
3 234 106 233
3 234 235 106
3 236 235 234
3 236 107 235
3 236 237 107
3 238 237 236
3 238 108 237
3 239 240 78
3 241 240 239
3 241 109 240
3 242 243 63
3 244 243 242
3 244 110 243
3 244 245 110
3 246 245 244
3 246 111 245
3 246 247 111
3 248 247 246
3 248 112 247
3 249 250 65
3 251 250 249
3 251 113 250
3 251 252 113
3 215 252 251
3 215 98 252
3 253 618 619
3 253 620 621
3 253 622 624
3 622 254 623
3 622 623 624
3 255 254 253
3 255 114 254
3 626 625 99
3 256 627 629
3 627 257 628
3 627 628 629
3 258 257 256
3 258 31 257
3 116 258 30
3 259 258 116
3 259 31 258
3 259 157 31
3 260 157 259
3 260 10 157
3 261 262 11
3 263 262 261
3 263 34 262
3 119 263 33
3 264 263 119
3 264 34 263
3 264 161 34
3 265 161 264
3 265 630 632
3 632 631 161
3 630 631 632
3 266 633 634
3 266 635 637
3 635 36 636
3 635 636 637
3 122 638 640
3 638 266 639
3 638 639 640
3 267 266 122
3 267 36 266
3 267 163 36
3 268 163 267
3 268 12 163
3 269 270 13
3 271 270 269
3 271 39 270
3 125 271 38
3 272 271 125
3 272 39 271
3 272 171 39
3 273 171 272
3 273 15 171
3 273 274 15
3 275 274 273
3 275 41 274
3 127 275 40
3 276 275 127
3 276 41 275
3 276 178 41
3 261 178 276
3 261 11 178
3 277 278 17
3 279 278 277
3 279 43 278
3 129 279 42
3 641 279 642
3 643 642 129
3 641 642 643
3 644 43 645
3 646 645 279
3 644 645 646
3 648 647 43
3 280 281 18
3 282 281 280
3 282 45 281
3 132 282 44
3 283 282 132
3 283 45 282
3 283 188 45
3 284 188 283
3 284 20 188
3 285 286 9
3 287 286 285
3 287 48 286
3 135 287 47
3 288 287 135
3 288 48 287
3 288 196 48
3 289 196 288
3 289 21 196
3 289 290 21
3 291 290 289
3 291 50 290
3 137 291 49
3 292 291 137
3 292 50 291
3 292 203 50
3 277 203 292
3 277 17 203
3 293 649 650
3 293 651 653
3 651 22 652
3 651 652 653
3 293 294 22
3 295 294 293
3 295 51 294
3 138 654 656
3 654 295 655
3 654 655 656
3 296 295 138
3 296 51 295
3 296 210 51
3 297 210 296
3 297 23 210
3 298 299 24
3 300 299 298
3 300 657 659
3 659 658 299
3 657 658 659
3 141 300 53
3 660 300 661
3 662 661 141
3 660 661 662
3 664 663 300
3 301 302 19
3 303 302 301
3 303 56 302
3 144 303 55
3 304 303 144
3 304 56 303
3 304 224 56
3 305 224 304
3 305 25 224
3 306 307 14
3 308 307 306
3 308 59 307
3 147 308 58
3 309 308 147
3 309 59 308
3 309 232 59
3 310 232 309
3 310 26 232
3 310 311 26
3 312 311 310
3 312 665 667
3 667 666 311
3 665 666 667
3 149 312 60
3 668 312 669
3 670 669 149
3 668 669 670
3 672 671 312
3 151 673 674
3 676 675 151
3 313 677 678
3 313 679 681
3 679 27 680
3 679 680 681
3 314 315 16
3 316 315 314
3 316 63 315
3 154 316 62
3 317 316 154
3 317 63 316
3 317 242 63
3 318 242 317
3 318 28 242
3 318 319 28
3 320 319 318
3 320 65 319
3 156 320 64
3 321 320 156
3 321 65 320
3 321 249 65
3 298 249 321
3 298 24 249
3 322 682 683
3 322 684 686
3 684 29 685
3 684 685 686
3 688 687 3
3 323 324 4
3 325 324 323
3 325 67 324
3 689 325 690
3 326 691 693
3 691 325 692
3 691 692 693
3 326 67 325
3 326 193 67
3 327 193 326
3 327 9 193
3 694 327 695
3 328 696 698
3 696 327 697
3 696 697 698
3 328 9 327
3 328 285 9
3 329 285 328
3 329 47 285
3 699 329 700
3 330 701 703
3 701 329 702
3 701 702 703
3 330 47 329
3 330 134 47
3 704 134 705
3 706 705 330
3 704 705 706
3 707 3 708
3 709 708 134
3 707 708 709
3 257 710 711
3 331 712 714
3 714 713 257
3 712 713 714
3 331 715 716
3 717 331 718
3 719 718 31
3 717 718 719
3 720 331 721
3 723 722 331
3 332 333 6
3 334 333 332
3 334 69 333
3 159 334 68
3 335 334 159
3 335 69 334
3 335 724 726
3 726 725 69
3 724 725 726
3 728 727 335
3 262 160 11
3 336 160 262
3 336 70 160
3 162 336 34
3 337 336 162
3 337 70 336
3 337 729 731
3 731 730 70
3 729 730 731
3 733 732 337
3 164 734 736
3 736 735 36
3 734 735 736
3 738 737 164
3 338 739 740
3 338 741 742
3 166 338 71
3 339 338 166
3 339 743 745
3 745 744 338
3 743 744 745
3 339 746 747
3 340 748 750
3 750 749 339
3 748 749 750
3 340 751 753
3 751 7 752
3 751 752 753
3 341 342 5
3 343 342 341
3 343 74 342
3 169 343 73
3 344 343 169
3 344 74 343
3 344 229 74
3 345 229 344
3 345 14 229
3 270 170 13
3 346 170 270
3 346 75 170
3 172 346 39
3 347 346 172
3 347 75 346
3 347 345 75
3 348 345 347
3 348 14 345
3 348 306 14
3 349 306 348
3 349 58 306
3 174 349 76
3 350 349 174
3 350 58 349
3 350 146 58
3 351 146 350
3 351 8 146
3 351 352 8
3 353 352 351
3 353 78 352
3 176 353 77
3 354 353 176
3 354 78 353
3 354 239 78
3 355 239 354
3 355 16 239
3 274 177 15
3 356 177 274
3 356 79 177
3 179 356 41
3 357 356 179
3 357 79 356
3 357 355 79
3 358 355 357
3 358 16 355
3 358 314 16
3 359 314 358
3 359 62 314
3 181 359 80
3 360 359 181
3 360 62 359
3 360 153 62
3 332 153 360
3 332 6 153
3 361 362 2
3 363 362 361
3 363 82 362
3 183 363 81
3 364 363 183
3 364 82 363
3 364 218 82
3 365 218 364
3 365 754 756
3 756 755 218
3 754 755 756
3 278 184 17
3 366 184 278
3 366 83 184
3 757 366 758
3 759 758 43
3 757 758 759
3 760 366 761
3 762 83 763
3 764 763 366
3 762 763 764
3 765 365 766
3 767 766 83
3 765 766 767
3 768 365 769
3 771 770 365
3 772 130 773
3 774 773 3
3 772 773 774
3 775 130 776
3 778 777 130
3 367 368 1
3 369 368 367
3 369 85 368
3 186 369 84
3 370 369 186
3 370 85 369
3 370 221 85
3 371 221 370
3 371 19 221
3 281 187 18
3 372 187 281
3 372 86 187
3 189 372 45
3 373 372 189
3 373 86 372
3 373 371 86
3 374 371 373
3 374 19 371
3 374 301 19
3 375 301 374
3 375 55 301
3 191 375 87
3 376 375 191
3 376 55 375
3 376 143 55
3 377 143 376
3 377 5 143
3 324 133 4
3 378 133 324
3 378 46 133
3 194 378 67
3 379 378 194
3 379 46 378
3 379 284 46
3 380 284 379
3 380 20 284
3 286 195 9
3 381 195 286
3 381 89 195
3 197 381 48
3 382 381 197
3 382 89 381
3 382 380 89
3 383 380 382
3 383 20 380
3 383 192 20
3 384 192 383
3 384 88 192
3 199 384 90
3 385 384 199
3 385 88 384
3 385 377 88
3 386 377 385
3 386 5 377
3 386 341 5
3 387 341 386
3 387 73 341
3 201 387 91
3 388 387 201
3 388 73 387
3 388 168 73
3 389 168 388
3 389 13 168
3 290 202 21
3 390 202 290
3 390 92 202
3 204 390 50
3 391 390 204
3 391 92 390
3 391 389 92
3 392 389 391
3 392 13 389
3 392 269 13
3 393 269 392
3 393 38 269
3 206 393 93
3 394 393 206
3 394 38 393
3 394 124 38
3 361 124 394
3 361 2 124
3 779 121 780
3 395 781 783
3 781 121 782
3 781 782 783
3 395 1 121
3 784 395 785
3 396 786 788
3 786 395 787
3 786 787 788
3 396 1 395
3 396 367 1
3 397 367 396
3 397 84 367
3 208 397 94
3 398 397 208
3 398 84 397
3 398 185 84
3 399 185 398
3 399 18 185
3 294 209 22
3 400 209 294
3 400 95 209
3 211 400 51
3 401 400 211
3 401 95 400
3 401 399 95
3 402 399 401
3 402 18 399
3 402 280 18
3 403 280 402
3 403 44 280
3 213 403 96
3 404 403 213
3 404 44 403
3 404 131 44
3 405 131 404
3 405 4 131
3 789 139 790
3 791 139 792
3 793 52 794
3 795 794 139
3 793 794 795
3 796 52 797
3 798 297 799
3 800 799 52
3 798 799 800
3 801 297 802
3 803 23 804
3 805 804 297
3 803 804 805
3 806 23 807
3 808 214 809
3 810 809 23
3 808 809 810
3 811 214 812
3 813 97 814
3 815 814 214
3 813 814 815
3 816 97 817
3 818 405 819
3 820 819 97
3 818 819 820
3 821 405 822
3 823 4 824
3 825 824 405
3 823 824 825
3 826 323 827
3 828 827 4
3 826 827 828
3 829 323 830
3 832 831 323
3 406 407 0
3 408 407 406
3 408 99 407
3 216 408 98
3 409 408 216
3 409 99 408
3 409 833 835
3 835 834 99
3 833 834 835
3 837 836 409
3 299 217 24
3 410 217 299
3 410 100 217
3 838 410 839
3 840 410 841
3 842 100 843
3 844 843 410
3 842 843 844
3 846 845 100
3 333 142 6
3 411 142 333
3 411 54 142
3 847 411 848
3 849 848 69
3 847 848 849
3 850 411 851
3 852 54 853
3 854 853 411
3 852 853 854
3 856 855 54
3 362 120 2
3 412 120 362
3 412 35 120
3 219 412 82
3 413 412 219
3 413 35 412
3 413 265 35
3 857 265 858
3 859 858 413
3 857 858 859
3 861 860 265
3 862 220 863
3 864 220 865
3 866 101 867
3 868 867 220
3 866 867 868
3 869 101 870
3 872 871 101
3 368 123 1
3 414 123 368
3 414 37 123
3 222 414 85
3 415 414 222
3 415 37 414
3 415 268 37
3 416 268 415
3 416 12 268
3 302 223 19
3 417 223 302
3 417 102 223
3 225 417 56
3 418 417 225
3 418 102 417
3 418 416 102
3 419 416 418
3 419 12 416
3 419 167 12
3 420 167 419
3 420 72 167
3 227 420 103
3 421 420 227
3 421 72 420
3 421 340 72
3 422 340 421
3 422 7 340
3 342 145 5
3 423 145 342
3 423 57 145
3 230 423 74
3 424 423 230
3 424 57 423
3 424 305 57
3 425 305 424
3 425 25 305
3 307 231 14
3 426 231 307
3 426 105 231
3 233 426 59
3 427 426 233
3 427 105 426
3 427 425 105
3 428 425 427
3 428 25 425
3 428 228 25
3 429 228 428
3 429 104 228
3 235 429 106
3 430 429 235
3 430 104 429
3 430 422 104
3 431 422 430
3 431 7 422
3 431 873 875
3 875 874 7
3 873 874 875
3 432 876 878
3 878 877 431
3 876 877 878
3 432 879 880
3 237 432 107
3 433 432 237
3 433 881 883
3 883 882 432
3 881 882 883
3 433 884 885
3 434 886 888
3 888 887 433
3 886 887 888
3 434 889 890
3 311 238 26
3 435 238 311
3 435 108 238
3 891 435 892
3 436 893 895
3 893 435 894
3 893 894 895
3 436 108 435
3 436 434 108
3 896 434 897
3 898 897 436
3 896 897 898
3 900 899 434
3 352 152 8
3 437 152 352
3 437 61 152
3 240 437 78
3 438 437 240
3 438 61 437
3 438 313 61
3 439 313 438
3 439 27 313
3 315 241 16
3 440 241 315
3 440 109 241
3 243 440 63
3 441 440 243
3 441 109 440
3 441 439 109
3 442 439 441
3 442 27 439
3 442 901 903
3 903 902 27
3 901 902 903
3 443 904 906
3 906 905 442
3 904 905 906
3 443 907 908
3 245 443 110
3 444 443 245
3 444 909 911
3 911 910 443
3 909 910 911
3 444 912 913
3 445 914 916
3 916 915 444
3 914 915 916
3 445 917 918
3 445 919 920
3 446 921 923
3 923 922 445
3 921 922 923
3 446 924 926
3 924 66 925
3 924 925 926
3 247 446 111
3 447 446 247
3 447 66 446
3 447 322 66
3 448 322 447
3 448 29 322
3 319 248 28
3 449 248 319
3 449 112 248
3 250 449 65
3 450 449 250
3 450 112 449
3 450 448 112
3 451 448 450
3 451 29 448
3 451 255 29
3 452 255 451
3 452 114 255
3 252 452 113
3 453 452 252
3 453 114 452
3 453 454 114
3 406 454 453
3 406 0 454
3 927 256 928
3 455 929 931
3 929 256 930
3 929 930 931
3 455 30 256
3 254 932 934
3 932 455 933
3 932 933 934
3 456 455 254
3 456 30 455
3 456 115 30
3 454 115 456
3 454 0 115
3 407 117 0
3 457 117 407
3 457 32 117
3 935 457 936
3 937 936 99
3 935 936 937
3 458 938 940
3 938 457 939
3 938 939 940
3 458 32 457
3 458 260 32
3 459 260 458
3 459 10 260
3 941 459 942
3 943 459 944
3 945 10 946
3 947 946 459
3 945 946 947
3 949 948 10
