ply
format ascii 1.0
element vertex 717
property float x
property float y
property float z
property uchar red
property uchar green
property uchar blue
element face 839
property list uchar int vertex_index
end_header
-64.7247 -68.1248 -9.05402 241 255 14
-62.3159 -17.9072 -43.5976 92 255 163
-64.4256 -44.3208 -14.2685 230 255 25
-67.9955 -45.9831 -27.3006 193 255 62
-65.8624 -19.3807 -28.0433 255 248 0
-59.1591 6.01905 -37.7698 27 255 228
-62.4144 -33.4236 -14.542 0 183 255
-65.4442 -32.5656 -21.8185 255 218 0
-56.9596 -79.0017 -7.08411 15 255 240
-67.3225 -55.9986 -11.8408 202 255 53
-67.5676 -58.2211 -18.4249 255 180 0
-68.8822 -44.6733 -20.7088 210 255 45
-69.1763 -31.2843 -28.3179 201 255 54
-66.8012 -17.2915 -35.6669 255 195 0
-58.3368 -75.2707 -0.11709 208 255 47
-63.607 -6.20787 -33.6185 255 156 0
-61.0709 -3.82235 -43.1917 255 8 0
-52.8543 8.57932 -48.775 162 0 0
-62.4998 -28.1264 -17.5672 0 182 255
-61.1668 -73.735 -7.97055 255 238 0
-59.3758 -75.5052 -11.3131 0 196 255
-63.4327 -69.7105 -12.4518 132 255 123
-64.7941 -24.935 -39.3207 80 255 175
-66.2538 -50.0471 -13.2342 242 255 13
-68.2859 -50.6363 -16.3757 210 255 45
-66.9275 -44.5412 -17.5163 255 241 0
-65.9089 -26.0367 -25.0411 255 234 0
-67.951 -31.7799 -25.0907 249 255 6
-67.9027 -24.9199 -28.465 223 255 32
-68.4173 -24.2605 -31.9155 241 255 14
-67.0647 -18.0341 -31.8324 234 255 21
-54.8305 -79.9874 0.842501 218 255 37
-54.5355 -77.8137 4.32377 0 235 255
-61.609 0.122282 -35.9356 216 255 39
-62.9596 -4.6012 -38.4806 255 123 0
-59.9703 1.82518 -41.2934 255 29 0
-48.3917 13.6395 -50.3366 255 28 0
-48.528 8.2805 -53.3172 104 255 151
-53.4745 2.48626 -50.9708 255 255 0
-68.0093 -52.381 -23.0186 255 147 0
-62.8661 -38.7677 -14.7318 164 255 91
-64.8699 -38.7369 -18.229 255 235 0
-63.1051 -33.2216 -18.3002 194 255 61
-63.6301 -27.2159 -21.4195 214 255 41
-64.0946 -20.9655 -24.1151 232 255 23
-67.4973 -39.1378 -31.2899 20 255 235
-66.8849 -62.1165 -10.371 197 255 58
-66.5589 -63.4825 -13.7062 255 225 0
-68.241 -57.0114 -15.043 218 255 37
-68.9549 -51.333 -19.6532 238 255 17
-69.2703 -45.1033 -23.9768 255 255 0
-67.514 -38.4003 -21.4919 255 236 0
-69.2381 -38.1672 -24.6694 199 255 56
-69.1846 -38.3904 -27.9311 255 220 0
-68.5394 -31.3785 -31.6958 255 155 0
-67.1859 -24.2987 -35.5591 255 78 0
-65.0205 -17.3157 -39.6433 255 9 0
-54.2279 -82.0622 -2.78529 8 255 247
-58.1469 -77.1266 -3.56738 245 255 10
-61.9127 -72.0645 -4.53695 216 255 39
-57.3682 -73.0807 3.05953 225 255 30
-61.2961 -70.2295 -1.35265 205 255 50
-64.5839 -66.5631 -5.7998 190 255 65
-65.6499 -60.7278 -7.31532 0 152 255
-64.1061 -14.6461 -26.4893 101 255 154
-63.5217 -8.37903 -28.5817 0 219 255
-65.0773 -12.7439 -30.9273 255 222 0
-65.375 -11.2438 -35.2352 255 215 0
-64.3245 -10.4709 -39.5182 255 105 0
-61.9731 -10.4942 -43.7998 203 0 0
-52.7644 12.9929 -45.071 33 255 222
-56.5251 7.83419 -43.4971 241 0 0
-57.1781 2.59932 -46.3574 179 0 0
-58.0651 -3.8619 -47.6996 255 152 0
-63.0817 -70.9873 -8.48391 255 249 0
-62.4092 -71.8062 -10.1971 255 220 0
-64.2344 -68.9021 -10.7586 255 227 0
-63.6695 -21.4047 -41.4458 210 255 45
-65.3721 -47.159 -13.8122 246 255 9
-66.6126 -47.3781 -15.4015 255 253 0
-65.6508 -44.4673 -15.9093 255 243 0
-65.9708 -22.7132 -26.5599 255 244 0
-67.0325 -25.4452 -26.7653 255 252 0
-66.9203 -22.048 -28.3586 248 255 7
-67.5925 -21.4704 -30.1408 222 255 33
-66.6073 -18.6534 -29.944 248 255 7
-60.44 3.14615 -36.9133 128 255 127
-60.9266 1.08175 -38.6469 255 64 0
-59.5059 4.1414 -39.7322 255 35 0
-68.0595 -49.2479 -25.2038 255 129 0
-67.0396 -53.0166 -24.6594 101 255 154
-67.0236 -49.8426 -26.8301 9 255 246
-62.4708 -36.0596 -14.7182 139 255 116
-62.9399 -36.0647 -16.5674 180 255 75
-62.489 -33.3915 -16.4401 143 255 112
-62.7222 -25.3433 -18.8538 0 122 255
-62.8495 -27.7198 -19.5112 160 255 95
-63.1271 -24.7594 -20.8509 34 255 221
-63.898 -24.1087 -22.8138 222 255 33
-63.3959 -21.7462 -22.071 0 229 255
-67.319 -59.0495 -11.0983 191 255 64
-67.6648 -59.6389 -12.7014 206 255 49
-67.9773 -56.4964 -13.4108 196 255 59
-68.6142 -47.7283 -18.5819 212 255 43
-68.8273 -50.9492 -17.995 206 255 49
-69.0997 -47.9608 -20.2068 209 255 46
-69.1567 -48.2854 -21.8619 246 255 9
-69.299 -44.8333 -22.3298 210 255 45
-65.148 -35.7119 -20.0746 255 222 0
-66.2171 -38.5832 -19.8833 255 215 0
-66.5126 -35.4261 -21.7271 255 214 0
-68.7864 -31.4715 -26.6948 206 255 49
-68.7334 -34.8967 -24.9211 217 255 38
-69.2778 -34.7584 -26.5186 196 255 59
-69.4459 -38.2091 -26.2839 219 255 36
-69.3434 -34.7567 -28.1478 234 255 21
-68.9426 -34.9069 -29.8182 255 191 0
-69.0831 -31.2497 -29.9821 255 252 0
-67.7195 -20.7608 -33.7685 255 235 0
-67.9962 -24.1898 -33.7105 255 182 0
-67.1416 -20.6834 -35.65 255 142 0
-66.2102 -20.7891 -37.577 255 42 0
-66.0711 -17.2118 -37.6396 255 101 0
-56.5923 -77.6461 0.388523 214 255 41
-56.4889 -78.6167 -1.36968 232 255 23
-58.3875 -76.218 -1.81549 223 255 32
-60.1134 -74.6396 -4.02065 233 255 22
-60.1914 -73.757 -2.32027 210 255 45
-55.3481 -74.2322 5.30547 0 246 255
-56.5762 -71.7977 4.56062 0 173 255
-60.5263 -69.1536 0.112303 0 242 255
-62.3365 -67.5317 -2.08908 0 234 255
-63.0501 -68.4994 -3.56405 196 255 59
-63.9501 -65.7009 -4.30117 0 227 255
-65.3254 -63.6673 -6.53699 42 255 213
-63.6891 -15.648 -24.2091 0 177 255
-62.8991 -4.09556 -32.1948 84 255 171
-63.6055 -7.24404 -31.1216 156 255 99
-64.1831 -10.4403 -29.9609 255 196 0
-64.4174 -9.45845 -32.3079 255 192 0
-65.3674 -11.9204 -33.0911 255 224 0
-64.4711 -8.59734 -34.6165 255 189 0
-62.1775 -4.10096 -40.8543 255 75 0
-63.6898 -7.40517 -39.1543 255 127 0
-62.7875 -7.12388 -41.3986 255 57 0
-63.2824 -10.3933 -41.6659 255 21 0
-61.5757 -7.04928 -43.6231 235 0 0
-50.6192 11.2652 -49.666 203 0 0
-50.6617 13.4815 -47.8064 255 244 0
-52.7454 11.0609 -47.0994 227 0 0
-54.6726 10.5567 -44.36 255 224 0
-54.8044 8.34384 -46.2069 198 0 0
-56.8043 5.41234 -45.1287 204 0 0
-55.0537 5.6676 -47.6692 158 0 0
-55.8377 -0.640787 -49.4352 247 255 8
-58.4946 -7.38521 -47.9004 105 255 150
-67.1487 -60.9251 -16.067 255 201 0
-65.8492 -64.2287 -15.4036 145 255 110
-66.3602 -61.654 -17.7559 67 255 188
-62.3885 -30.8234 -16.1273 0 180 255
-59.0865 -76.39 -7.50615 255 237 0
-58.2378 -77.3191 -9.20064 20 255 235
-60.3752 -74.6008 -9.67783 255 225 0
-61.4779 -72.6582 -11.8649 37 255 218
-66.9407 -52.9934 -12.5651 223 255 32
-67.8698 -53.3937 -14.1186 206 255 49
-67.3884 -50.3522 -14.7935 232 255 23
-67.7483 -47.5507 -16.9847 238 255 17
-68.0578 -44.5918 -19.1093 241 255 14
-65.7159 -29.33 -23.468 255 224 0
-66.7802 -32.1627 -23.4756 255 222 0
-66.9711 -28.8254 -25.1463 255 236 0
-68.011 -28.3647 -26.7907 233 255 22
-68.6831 -28.0002 -28.4337 200 255 55
-68.8982 -27.7757 -30.1055 216 255 39
-68.387 -24.5115 -30.1725 205 255 50
-67.8753 -21.0289 -31.9362 223 255 32
-67.1408 -17.5691 -33.7337 252 255 3
-53.172 -82.3534 1.26385 0 164 255
-53.2406 -81.2468 3.08668 0 158 255
-54.805 -78.9367 2.60944 55 255 200
-56.4251 -76.6176 2.0898 207 255 48
-62.0775 -1.01994 -33.1669 1 255 254
-62.6664 -3.00678 -34.8342 255 119 0
-63.4201 -5.31325 -36.0703 255 147 0
-62.2341 -2.08023 -37.4218 255 104 0
-61.5288 -1.35295 -39.9559 255 74 0
-60.5133 -0.84934 -42.4359 255 24 0
-46.2173 15.6084 -50.7783 0 253 255
-46.0276 13.4718 -52.6084 37 255 218
-48.3624 11.1773 -52.0131 255 187 0
-50.7375 8.55117 -51.162 147 0 0
-53.102 5.68163 -50.0659 128 0 0
-51.0209 5.47913 -52.273 250 255 5
-67.8477 -55.373 -20.7518 255 163 0
-66.7153 -58.9264 -20.101 80 255 175
-66.9378 -56.0467 -22.4109 91 255 164
-63.5491 -41.5244 -14.5799 199 255 56
-64.6308 -41.6128 -16.2876 255 255 0
-63.6861 -38.8106 -16.5129 222 255 33
-63.8879 -35.9394 -18.3565 241 255 14
-64.1493 -32.9344 -20.0963 254 255 1
-62.6219 -30.6047 -18.0414 150 255 105
-63.3478 -30.2627 -19.9179 205 255 50
-64.4397 -29.825 -21.7293 255 250 0
-64.7097 -26.6424 -23.2643 255 251 0
-64.9032 -23.4151 -24.7173 255 253 0
-64.9701 -20.1661 -26.1058 255 253 0
-67.8104 -42.6046 -29.3202 108 255 147
-66.0116 -65.1567 -9.68458 216 255 39
-65.761 -65.8862 -11.3644 255 248 0
-66.9198 -62.7841 -12.0142 233 255 22
-67.6011 -60.2549 -14.3674 251 255 4
-68.0947 -57.5803 -16.7244 255 241 0
-68.4649 -53.7949 -15.7194 201 255 54
-68.658 -54.2419 -17.3705 229 255 26
-68.4404 -54.7653 -19.0578 255 225 0
-68.6684 -51.8108 -21.337 255 212 0
-68.7936 -48.7177 -23.5359 255 198 0
-68.8158 -45.4919 -25.641 255 181 0
-65.9269 -41.6044 -17.9404 255 225 0
-67.2266 -41.5434 -19.5521 255 235 0
-68.3337 -41.484 -21.1439 238 255 17
-67.7689 -35.1358 -23.3334 255 246 0
-68.5685 -38.2441 -23.0787 229 255 26
-69.0955 -41.4804 -22.7384 205 255 50
-69.4212 -41.5766 -24.353 213 255 42
-69.2862 -41.7983 -25.9946 255 241 0
-68.7246 -42.1479 -27.6569 255 158 0
-68.5056 -38.7083 -29.6063 255 129 0
-68.1447 -35.2017 -31.5248 200 255 55
-67.6294 -31.658 -33.4515 120 255 135
-68.6399 -27.7186 -31.8261 255 220 0
-67.9583 -27.8343 -33.6011 255 116 0
-66.9475 -28.1043 -35.4183 143 255 112
-66.084 -24.5622 -37.443 255 227 0
-65.0211 -21.0462 -39.5252 221 0 0
-63.7402 -17.5652 -41.6477 199 0 0
-53.6775 -83.1676 -4.59566 0 102 255
-55.5993 -80.5764 -4.94916 94 255 161
-54.6262 -81.0137 -0.963623 76 255 179
-56.1429 -79.5795 -3.16008 250 255 5
-57.6543 -78.0433 -5.33738 255 248 0
-59.7293 -75.5043 -5.76398 255 252 0
-61.6972 -72.8989 -6.2402 245 255 10
-63.4375 -70.1868 -6.77907 225 255 30
-54.0445 -76.5833 5.98694 0 163 255
-55.9928 -75.4872 3.72537 215 255 40
-57.985 -74.2363 1.50762 209 255 46
-58.5811 -70.5703 2.32126 0 249 255
-59.378 -71.7532 0.848582 215 255 40
-59.9396 -72.8087 -0.693878 203 255 52
-61.7777 -71.1894 -2.90092 199 255 56
-63.4308 -69.3717 -5.12922 199 255 56
-64.8499 -67.3575 -7.38891 205 255 50
-65.8643 -64.4303 -8.06826 191 255 64
-66.4454 -61.4447 -8.8032 190 255 65
-66.596 -58.4463 -9.56779 48 255 207
-66.3573 -55.473 -10.3271 0 239 255
-65.8069 -52.5474 -11.0423 0 248 255
-65.0533 -49.6757 -11.676 0 248 255
-64.2253 -46.8524 -12.1963 0 237 255
-63.457 -44.0674 -12.5802 0 219 255
-62.8709 -41.3133 -12.8148 0 201 255
-62.5599 -38.5915 -12.8969 0 190 255
-62.5729 -35.9158 -12.8332 0 121 255
-63.5979 -18.7025 -23.1862 0 243 255
-64.1732 -17.806 -25.3374 247 255 8
-64.8774 -16.9126 -27.4422 255 244 0
-63.8862 -11.4989 -27.5723 36 255 219
-64.6129 -13.6671 -28.7296 255 225 0
-65.5642 -16.0541 -29.5005 255 241 0
-66.0863 -15.2746 -31.5254 255 249 0
-66.3208 -14.6229 -33.537 255 251 0
-66.1889 -14.1423 -35.5552 255 221 0
-64.2477 -7.90142 -36.8954 255 172 0
-65.0328 -10.7535 -37.3744 255 176 0
-65.6665 -13.8604 -37.5941 255 152 0
-64.7837 -13.7812 -39.6569 255 61 0
-63.6089 -13.8833 -41.7305 233 0 0
-62.2269 -14.1245 -43.7796 255 176 0
-48.5916 15.5152 -48.3255 0 252 255
-56.3525 9.75786 -41.4878 38 255 217
-57.9784 7.05351 -40.6765 255 243 0
-58.2974 4.90282 -42.4759 251 0 0
-58.7155 2.33207 -43.8679 234 0 0
-59.1933 -0.575005 -44.8562 217 0 0
-55.408 2.64138 -48.7384 135 0 0
-57.6124 -0.515625 -47.2006 160 0 0
-59.6783 -3.75308 -45.4827 195 0 0
-60.1195 -7.15131 -45.8055 174 0 0
-60.4758 -10.7288 -45.8796 224 255 31
-65.1508 -66.6469 -13.0666 255 202 0
-64.2399 -67.4466 -14.7385 0 220 255
-62.2715 -19.8567 -43.4314 0 0 188
-62.9483 -21.6055 -42.3555 0 0 188
-62.9927 -19.656 -42.5217 0 0 229
-61.5622 -18.0955 -44.5053 0 0 148
-62.2715 -19.8567 -43.4314 0 0 148
-59.7995 4.5826 -37.3416 0 0 215
-60.2677 3.95281 -35.8563 0 0 179
-59.6273 5.38926 -36.2845 0 0 179
-63.0643 -23.6243 -20.4229 0 0 153
-62.9246 -25.0513 -19.8523 0 0 175
-62.8619 -23.9162 -19.4244 0 0 153
-63.1987 -22.1177 -21.033 0 0 155
-63.2615 -23.2528 -21.461 0 0 179
-63.0643 -23.6243 -20.4229 0 0 155
-56.5337 -79.5101 -7.92725 0 0 134
-55.9311 -80.3181 -6.89384 0 0 134
-56.1613 -71.1075 5.30387 0 0 134
-55.5852 -72.3301 5.70857 0 0 134
-62.6849 -66.1363 -2.48557 0 0 133
-61.8638 -66.9909 -1.38676 0 0 133
-63.4917 -65.2208 -3.59162 0 0 158
-63.1433 -66.6163 -3.19512 0 0 183
-62.6849 -66.1363 -2.48557 0 0 158
-64.2059 -64.2656 -4.69474 0 0 132
-63.4917 -65.2208 -3.59162 0 0 132
-62.906 -70.1303 -13.2653 0 0 166
-61.9286 -71.6041 -12.9719 0 0 166
-62.4553 -71.1844 -12.1584 0 0 196
-64.5758 -26.9347 -39.1707 0 0 147
-65.255 -26.712 -38.2823 0 0 147
-52.5069 -81.8234 4.23579 0 0 133
-52.536 -82.4227 3.31205 0 0 133
-54.6702 -78.3752 3.46661 0 0 181
-53.9508 -79.5194 3.74018 0 0 156
-53.816 -78.9579 4.59735 0 0 156
-61.8432 -0.448828 -34.5512 0 0 208
-61.6109 0.463727 -33.6 0 0 174
-61.3767 1.03484 -34.9843 0 0 174
-44.8376 13.233 -53.5866 0 0 141
-44.9062 14.4057 -52.7714 0 0 141
-48.4452 9.7289 -52.6651 0 0 232
-47.2068 10.9963 -53.0495 0 0 190
-47.2896 9.54788 -53.7016 0 0 190
-66.4057 -54.881 -24.3234 0 0 141
-66.4317 -53.3436 -25.4371 0 0 141
-58.3011 -76.901 -11.0612 0 0 164
-57.7321 -77.8079 -10.005 0 0 164
-58.8068 -76.4121 -10.2569 0 0 192
-67.0654 -41.1327 -31.1209 0 0 179
-67.2219 -42.8661 -30.136 0 0 179
-67.6538 -40.8712 -30.3051 0 0 215
-53.9527 -82.6149 -3.69047 0 0 188
-53.0891 -83.8989 -3.51766 0 0 161
-53.3643 -83.3462 -2.61247 0 0 161
-53.7226 -75.9102 6.8012 0 0 133
-53.1309 -77.068 7.15507 0 0 133
-59.0825 -69.2638 1.92159 0 0 134
-58.1289 -69.9214 3.03965 0 0 134
-65.79 -55.1768 -9.58788 0 0 133
-65.9745 -56.6306 -9.21316 0 0 133
-65.5149 -53.714 -9.9455 0 0 159
-66.0821 -54.0102 -10.6847 0 0 185
-65.79 -55.1768 -9.58788 0 0 159
-64.5192 -49.4424 -10.886 0 0 132
-64.8497 -50.8482 -10.6005 0 0 132
-64.1052 -48.0307 -11.1462 0 0 158
-64.6393 -48.2641 -11.9361 0 0 183
-64.5192 -49.4424 -10.886 0 0 158
-63.1888 -43.8811 -11.7107 0 0 130
-63.4137 -45.2523 -11.5595 0 0 130
-62.8957 -42.5041 -11.828 0 0 153
-63.164 -42.6903 -12.6975 0 0 176
-63.1888 -43.8811 -11.7107 0 0 153
-62.6973 -38.4404 -11.9635 0 0 129
-62.643 -39.7844 -11.9495 0 0 129
-62.7038 -37.1025 -11.9317 0 0 152
-62.5664 -37.2537 -12.8651 0 0 174
-62.6973 -38.4404 -11.9635 0 0 152
-63.535 -17.6794 -22.5468 0 0 132
-63.4347 -19.1439 -22.0967 0 0 132
-63.3346 -7.49037 -27.6886 0 0 139
-63.2744 -6.84239 -29.0459 0 0 139
-63.4924 -8.97841 -27.2959 0 0 137
-63.3346 -7.49037 -27.6886 0 0 137
-63.704 -9.93897 -28.077 0 0 199
-63.6747 -10.5384 -26.7912 0 0 168
-63.4924 -8.97841 -27.2959 0 0 168
-51.7973 14.0247 -45.3524 0 0 174
-50.746 14.2691 -46.7201 0 0 174
-51.7131 13.2372 -46.4387 0 0 208
-52.8162 13.6178 -43.9153 0 0 140
-51.7973 14.0247 -45.3524 0 0 140
-53.7033 12.587 -43.625 0 0 139
-52.8162 13.6178 -43.9153 0 0 139
-59.6685 -10.8865 -46.8593 0 0 191
-59.4852 -9.057 -46.89 0 0 232
-58.6779 -9.21469 -47.8697 0 0 191
-60.5952 -12.5896 -45.8112 0 0 149
-59.6685 -10.8865 -46.8593 0 0 149
-64.546 -66.2314 -15.8959 0 0 169
-65.0446 -65.8376 -15.0711 0 0 200
-65.3506 -64.6224 -16.2284 0 0 169
-63.6637 -67.8584 -15.532 0 0 139
-64.546 -66.2314 -15.8959 0 0 139
-66.006 -60.674 -19.7415 0 0 140
-66.1567 -59.2953 -20.9017 0 0 140
-63.5346 -23.3825 -41.2862 0 0 188
-64.0969 -25.1476 -40.2236 0 0 188
-64.2318 -23.1699 -40.3832 0 0 228
-63.5346 -23.3825 -41.2862 0 0 148
-62.9483 -21.6055 -42.3555 0 0 148
-53.6388 -78.346 5.46862 0 0 133
-53.816 -78.9579 4.59735 0 0 133
-60.7922 2.54677 -35.4732 0 0 141
-60.2677 3.95281 -35.8563 0 0 141
-61.0245 1.63421 -36.4244 0 0 214
-61.3767 1.03484 -34.9843 0 0 178
-60.7922 2.54677 -35.4732 0 0 178
-47.413 8.03732 -54.248 0 0 147
-47.2896 9.54788 -53.7016 0 0 147
-48.7052 6.68558 -53.7735 0 0 149
-47.413 8.03732 -54.248 0 0 149
-66.4238 -51.7566 -26.5225 0 0 177
-66.4317 -53.3436 -25.4371 0 0 177
-67.0316 -51.4296 -25.7448 0 0 212
-58.7928 -75.9737 -12.0764 0 0 136
-59.8581 -74.5218 -12.3758 0 0 136
-66.8779 -39.3866 -32.1185 0 0 144
-67.2736 -37.3747 -32.2678 0 0 144
-53.5709 -82.7652 -1.68484 0 0 135
-53.3643 -83.3462 -2.61247 0 0 135
-54.9711 -73.5474 6.081 0 0 133
-54.3744 -74.7346 6.46046 0 0 133
-55.9621 -73.0149 4.93304 0 0 188
-54.9711 -73.5474 6.081 0 0 161
-55.5852 -72.3301 5.70857 0 0 161
-60.9587 -67.8018 -0.286071 0 0 133
-60.055 -68.5554 0.817114 0 0 133
-61.4314 -68.3427 -0.988387 0 0 185
-60.9587 -67.8018 -0.286071 0 0 159
-61.8638 -66.9909 -1.38676 0 0 159
-64.8936 -63.2488 -5.81266 0 0 157
-64.6378 -64.6841 -5.41908 0 0 182
-64.2059 -64.2656 -4.69474 0 0 157
-65.0558 -61.7791 -6.20182 0 0 157
-65.4876 -62.1975 -6.92615 0 0 182
-64.8936 -63.2488 -5.81266 0 0 157
-63.6255 -14.6873 -23.4599 0 0 133
-63.5806 -16.1522 -23.0583 0 0 133
-63.6675 -14.1243 -24.679 0 0 135
-63.6255 -14.6873 -23.4599 0 0 135
-63.876 -13.6233 -25.8191 0 0 162
-63.8976 -15.1471 -25.3492 0 0 189
-63.6675 -14.1243 -24.679 0 0 162
-62.9631 -4.70065 -30.8524 0 0 139
-62.6569 -3.20098 -31.2733 0 0 139
-63.3163 -6.27489 -30.3159 0 0 173
-62.9631 -4.70065 -30.8524 0 0 173
-63.2523 -5.6698 -31.6582 0 0 205
-63.5636 -7.81154 -29.8517 0 0 199
-63.2744 -6.84239 -29.0459 0 0 169
-63.3163 -6.27489 -30.3159 0 0 169
-54.8896 -0.776034 -50.4701 0 0 193
-54.6561 0.922737 -50.203 0 0 237
-53.708 0.78749 -51.238 0 0 193
-56.0713 -2.37343 -49.6135 0 0 151
-54.8896 -0.776034 -50.4701 0 0 151
-57.185 -3.98399 -48.7457 0 0 192
-56.9514 -2.25134 -48.5674 0 0 235
-56.0713 -2.37343 -49.6135 0 0 192
-57.3997 -5.74564 -48.8462 0 0 194
-58.2798 -5.62356 -47.8 0 0 237
-57.185 -3.98399 -48.7457 0 0 194
-57.6309 -7.54333 -48.8689 0 0 149
-57.3997 -5.74564 -48.8462 0 0 149
-58.6779 -9.21469 -47.8697 0 0 150
-57.6309 -7.54333 -48.8689 0 0 150
-65.6061 -63.3351 -17.4046 0 0 171
-65.3506 -64.6224 -16.2284 0 0 171
-66.1047 -62.9414 -16.5798 0 0 203
-62.5414 -30.8621 -15.1719 0 0 151
-62.4015 -32.1235 -15.3347 0 0 173
-62.5544 -32.1622 -14.3792 0 0 151
-62.5147 -29.6184 -15.881 0 0 128
-62.5414 -30.8621 -15.1719 0 0 128
-62.5703 -28.2699 -16.6009 0 0 150
-62.4441 -29.4749 -16.8472 0 0 171
-62.5147 -29.6184 -15.881 0 0 150
-62.6247 -26.9854 -17.2195 0 0 128
-62.5703 -28.2699 -16.6009 0 0 128
-62.7359 -25.5938 -17.8628 0 0 150
-62.611 -26.7348 -18.2105 0 0 172
-62.6247 -26.9854 -17.2195 0 0 150
-62.852 -24.2651 -18.3931 0 0 128
-62.7359 -25.5938 -17.8628 0 0 128
-62.8619 -23.9162 -19.4244 0 0 130
-62.852 -24.2651 -18.3931 0 0 130
-60.9091 -73.0983 -12.6517 0 0 165
-59.8581 -74.5218 -12.3758 0 0 165
-60.4269 -74.0817 -11.589 0 0 193
-60.9091 -73.0983 -12.6517 0 0 137
-61.9286 -71.6041 -12.9719 0 0 137
-64.5758 -26.9347 -39.1707 0 0 148
-64.0969 -25.1476 -40.2236 0 0 148
-52.5017 -82.976 2.40064 0 0 133
-52.4398 -83.5729 1.46288 0 0 133
-53.2063 -81.8001 2.17527 0 0 182
-52.5017 -82.976 2.40064 0 0 157
-52.536 -82.4227 3.31205 0 0 157
-53.1686 -80.6745 3.9788 0 0 131
-52.5069 -81.8234 4.23579 0 0 131
-54.0228 -80.0918 2.84806 0 0 184
-53.1686 -80.6745 3.9788 0 0 159
-53.9508 -79.5194 3.74018 0 0 159
-61.8827 -0.219231 -32.1372 0 0 142
-61.6109 0.463727 -33.6 0 0 142
-62.2461 -1.66317 -31.7594 0 0 140
-61.8827 -0.219231 -32.1372 0 0 140
-62.4883 -2.55775 -32.6808 0 0 209
-62.6569 -3.20098 -31.2733 0 0 175
-62.2461 -1.66317 -31.7594 0 0 175
-45.001 15.4741 -51.8563 0 0 136
-45.179 16.346 -50.8756 0 0 136
-46.1224 14.5401 -51.6934 0 0 210
-45.001 15.4741 -51.8563 0 0 176
-44.9062 14.4057 -52.7714 0 0 176
-46.0394 12.1435 -53.3472 0 0 145
-44.8376 13.233 -53.5866 0 0 145
-47.195 12.3245 -52.3108 0 0 222
-46.0394 12.1435 -53.3472 0 0 184
-47.2068 10.9963 -53.0495 0 0 184
-49.9517 5.28489 -53.2514 0 0 191
-49.7744 6.87981 -52.7951 0 0 234
-48.7052 6.68558 -53.7735 0 0 191
-51.2353 3.82401 -52.6347 0 0 151
-49.9517 5.28489 -53.2514 0 0 151
-52.4621 2.32758 -51.9836 0 0 193
-52.2477 3.98269 -51.6219 0 0 236
-51.2353 3.82401 -52.6347 0 0 193
-53.708 0.78749 -51.238 0 0 151
-52.4621 2.32758 -51.9836 0 0 151
-66.268 -57.8554 -22.0566 0 0 175
-66.1567 -59.2953 -20.9017 0 0 175
-66.8265 -57.4866 -21.2559 0 0 208
-66.3548 -56.3961 -23.1992 0 0 176
-66.9887 -54.5317 -23.5351 0 0 210
-66.4057 -54.881 -24.3234 0 0 176
-66.268 -57.8554 -22.0566 0 0 141
-66.3548 -56.3961 -23.1992 0 0 141
-59.0408 6.68865 -36.6256 0 0 140
-59.6273 5.38926 -36.2845 0 0 140
-57.1727 -78.6688 -8.98551 0 0 164
-56.5337 -79.5101 -7.92725 0 0 164
-57.5987 -78.1604 -8.14237 0 0 192
-57.1727 -78.6688 -8.98551 0 0 134
-57.7321 -77.8079 -10.005 0 0 134
-58.3011 -76.901 -11.0612 0 0 135
-58.7928 -75.9737 -12.0764 0 0 135
-67.3495 -44.5718 -29.1213 0 0 177
-67.442 -46.261 -28.1115 0 0 177
-67.9029 -44.2938 -28.3104 0 0 212
-67.3495 -44.5718 -29.1213 0 0 143
-67.2219 -42.8661 -30.136 0 0 143
-67.0654 -41.1327 -31.1209 0 0 144
-66.8779 -39.3866 -32.1185 0 0 144
-67.5973 -35.4066 -32.3852 0 0 179
-67.2736 -37.3747 -32.2678 0 0 179
-67.821 -37.1698 -31.4074 0 0 215
-67.3397 -33.6348 -33.3485 0 0 179
-67.5973 -35.4066 -32.3852 0 0 179
-67.887 -33.4299 -32.4881 0 0 215
-67.0451 -31.856 -34.3367 0 0 144
-67.3397 -33.6348 -33.3485 0 0 144
-66.7041 -30.0791 -35.3202 0 0 182
-67.0451 -31.856 -34.3367 0 0 182
-67.2884 -29.8812 -34.4349 0 0 219
-66.3316 -28.2967 -36.3311 0 0 146
-66.7041 -30.0791 -35.3202 0 0 146
-65.8999 -26.5256 -37.3434 0 0 184
-66.3316 -28.2967 -36.3311 0 0 184
-66.5157 -26.3333 -36.4306 0 0 223
-65.4391 -24.7486 -38.3818 0 0 227
-65.255 -26.712 -38.2823 0 0 187
-65.8999 -26.5256 -37.3434 0 0 187
-52.822 -84.5166 -4.43981 0 0 135
-53.0891 -83.8989 -3.51766 0 0 135
-53.3438 -83.7585 -5.48385 0 0 134
-52.822 -84.5166 -4.43981 0 0 134
-54.29 -82.4011 -5.64962 0 0 135
-53.3438 -83.7585 -5.48385 0 0 135
-55.2509 -81.1055 -5.82637 0 0 161
-54.29 -82.4011 -5.64962 0 0 161
-54.6384 -81.872 -4.77241 0 0 188
-56.2794 -79.7891 -6.01663 0 0 192
-55.9311 -80.3181 -6.89384 0 0 163
-55.2509 -81.1055 -5.82637 0 0 163
-53.0429 -82.9108 0.339725 0 0 133
-52.4398 -83.5729 1.46288 0 0 133
-53.77 -82.2409 -0.774012 0 0 161
-53.0429 -82.9108 0.339725 0 0 161
-53.8991 -81.6836 0.150114 0 0 188
-54.427 -81.5379 -1.87445 0 0 186
-53.5709 -82.7652 -1.68484 0 0 160
-53.77 -82.2409 -0.774012 0 0 160
-53.3933 -77.7308 6.30021 0 0 133
-53.1309 -77.068 7.15507 0 0 133
-54.29 -77.1985 5.15536 0 0 182
-53.6388 -78.346 5.46862 0 0 157
-53.3933 -77.7308 6.30021 0 0 157
-54.6963 -75.4078 5.6462 0 0 187
-53.7226 -75.9102 6.8012 0 0 160
-54.3744 -74.7346 6.46046 0 0 160
-57.1264 -70.5351 4.15933 0 0 134
-56.1613 -71.1075 5.30387 0 0 134
-57.5786 -71.184 3.44094 0 0 187
-57.1264 -70.5351 4.15933 0 0 160
-58.1289 -69.9214 3.03965 0 0 160
-59.5537 -69.8619 1.21678 0 0 186
-59.0825 -69.2638 1.92159 0 0 160
-60.055 -68.5554 0.817114 0 0 160
-65.1302 -60.3302 -6.60267 0 0 132
-65.0558 -61.7791 -6.20182 0 0 132
-65.6208 -59.258 -7.70726 0 0 132
-65.1302 -60.3302 -6.60267 0 0 132
-66.0939 -58.1172 -8.83349 0 0 158
-66.1229 -59.587 -8.44155 0 0 183
-65.6208 -59.258 -7.70726 0 0 158
-66.4767 -56.9596 -9.94745 0 0 183
-66.0939 -58.1172 -8.83349 0 0 158
-65.9745 -56.6306 -9.21316 0 0 158
-65.2265 -52.284 -10.2837 0 0 133
-65.5149 -53.714 -9.9455 0 0 133
-65.4301 -51.1116 -11.3592 0 0 185
-65.2265 -52.284 -10.2837 0 0 159
-64.8497 -50.8482 -10.6005 0 0 159
-63.7978 -46.6448 -11.3675 0 0 131
-64.1052 -48.0307 -11.1462 0 0 131
-63.8412 -45.4599 -12.3882 0 0 180
-63.7978 -46.6448 -11.3675 0 0 155
-63.4137 -45.2523 -11.5595 0 0 155
-62.7986 -41.1453 -11.9084 0 0 129
-62.8957 -42.5041 -11.828 0 0 129
-62.7154 -39.9524 -12.8558 0 0 174
-62.7986 -41.1453 -11.9084 0 0 151
-62.643 -39.7844 -11.9495 0 0 151
-62.9071 -35.7816 -11.888 0 0 130
-62.7038 -37.1025 -11.9317 0 0 130
-62.7393 -34.6149 -12.7368 0 0 130
-62.9071 -35.7816 -11.888 0 0 130
-62.6601 -33.3688 -13.5912 0 0 152
-62.4937 -34.6697 -13.6876 0 0 175
-62.7393 -34.6149 -12.7368 0 0 152
-62.5544 -32.1622 -14.3792 0 0 129
-62.6601 -33.3688 -13.5912 0 0 129
-63.3337 -20.6657 -21.5391 0 0 131
-63.1987 -22.1177 -21.033 0 0 131
-63.4969 -20.2243 -22.6286 0 0 183
-63.3337 -20.6657 -21.5391 0 0 158
-63.4347 -19.1439 -22.0967 0 0 158
-63.6435 -17.1753 -23.6976 0 0 187
-63.535 -17.6794 -22.5468 0 0 160
-63.5806 -16.1522 -23.0583 0 0 160
-63.7661 -12.0497 -26.3606 0 0 136
-63.6747 -10.5384 -26.7912 0 0 136
-63.9962 -13.0725 -27.0308 0 0 194
-63.876 -13.6233 -25.8191 0 0 165
-63.7661 -12.0497 -26.3606 0 0 165
-58.4623 7.35062 -38.1439 0 0 142
-59.0408 6.68865 -36.6256 0 0 142
-46.3959 16.3416 -49.711 0 0 166
-45.3576 17.0792 -49.8083 0 0 136
-45.179 16.346 -50.8756 0 0 166
-47.5831 16.295 -48.4846 0 0 166
-46.3959 16.3416 -49.711 0 0 166
-47.4044 15.5618 -49.5519 0 0 196
-48.7477 16.09 -47.1835 0 0 136
-47.5831 16.295 -48.4846 0 0 136
-49.711 15.2859 -46.9796 0 0 176
-49.6267 14.4984 -48.066 0 0 210
-50.746 14.2691 -46.7201 0 0 176
-48.7477 16.09 -47.1835 0 0 136
-49.711 15.2859 -46.9796 0 0 136
-54.6574 11.3689 -43.2695 0 0 181
-53.7033 12.587 -43.625 0 0 181
-53.7185 11.7748 -44.7155 0 0 217
-55.4974 10.9695 -41.8334 0 0 177
-54.6574 11.3689 -43.2695 0 0 177
-55.5126 10.1573 -42.9239 0 0 212
-56.3074 10.4119 -40.3315 0 0 142
-55.4974 10.9695 -41.8334 0 0 142
-57.059 9.22003 -40.0029 0 0 140
-56.3074 10.4119 -40.3315 0 0 140
-57.8719 7.86785 -39.5972 0 0 181
-57.059 9.22003 -40.0029 0 0 181
-57.1655 8.40568 -41.0821 0 0 218
-58.5687 6.53628 -39.2231 0 0 212
-58.4623 7.35062 -38.1439 0 0 177
-57.8719 7.86785 -39.5972 0 0 177
-61.4708 -14.2875 -44.7612 0 0 190
-61.3513 -12.4266 -44.8296 0 0 231
-60.5952 -12.5896 -45.8112 0 0 190
-61.5153 -16.1788 -44.6702 0 0 191
-62.2714 -16.0158 -43.6886 0 0 233
-61.4708 -14.2875 -44.7612 0 0 191
-61.5622 -18.0955 -44.5053 0 0 148
-61.5153 -16.1788 -44.6702 0 0 148
-63.3096 -68.9983 -14.4087 0 0 169
-62.906 -70.1303 -13.2653 0 0 169
-63.8363 -68.5786 -13.5951 0 0 200
-63.3096 -68.9983 -14.4087 0 0 138
-63.6637 -67.8584 -15.532 0 0 138
-65.8284 -62.0378 -18.569 0 0 173
-66.5377 -60.2902 -18.9285 0 0 206
-66.006 -60.674 -19.7415 0 0 173
-65.6061 -63.3351 -17.4046 0 0 139
-65.8284 -62.0378 -18.569 0 0 139
-66.9561 -48.1908 -27.8762 0 0 176
-67.5096 -47.9128 -27.0654 0 0 211
-67.442 -46.261 -28.1115 0 0 176
-66.3902 -50.1472 -27.6014 0 0 143
-66.9561 -48.1908 -27.8762 0 0 143
-66.4238 -51.7566 -26.5225 0 0 142
-66.3902 -50.1472 -27.6014 0 0 142
3 0 76 74
3 1 294 296
3 296 295 77
3 294 295 296
3 1 297 298
3 2 80 78
3 4 83 81
3 4 85 83
3 5 299 301
3 299 86 300
3 299 300 301
3 5 88 86
3 3 91 89
3 6 94 92
3 302 97 303
3 304 303 95
3 302 303 304
3 305 99 306
3 307 306 97
3 305 306 307
3 8 308 309
3 9 102 100
3 11 105 103
3 11 107 105
3 7 110 108
3 12 113 111
3 12 115 113
3 12 117 115
3 13 120 118
3 13 122 120
3 14 125 123
3 14 127 125
3 310 129 311
3 312 131 313
3 314 133 315
3 316 315 131
3 314 315 316
3 318 317 133
3 15 137 136
3 15 139 137
3 15 141 139
3 16 144 142
3 16 146 144
3 17 149 147
3 17 151 149
3 17 153 151
3 10 158 156
3 19 162 160
3 21 163 75
3 21 319 321
3 321 320 163
3 319 320 321
3 22 322 323
3 23 166 164
3 25 167 79
3 25 168 167
3 26 171 169
3 28 172 82
3 28 173 172
3 28 175 173
3 30 176 84
3 30 177 176
3 324 179 325
3 32 326 328
3 326 180 327
3 326 327 328
3 32 181 180
3 33 329 331
3 329 182 330
3 329 330 331
3 33 183 182
3 33 185 183
3 35 186 87
3 35 187 186
3 332 189 333
3 37 334 336
3 334 190 335
3 334 335 336
3 37 191 190
3 37 193 191
3 39 196 194
3 338 337 90
3 40 199 197
3 42 200 93
3 42 201 200
3 18 202 159
3 43 203 96
3 43 204 203
3 43 205 204
3 44 206 98
3 44 207 206
3 20 339 341
3 341 340 161
3 339 340 341
3 45 342 344
3 344 343 208
3 342 343 344
3 46 211 209
3 48 212 101
3 48 213 212
3 24 214 165
3 49 215 104
3 49 216 215
3 49 217 216
3 50 218 106
3 50 219 218
3 41 220 198
3 51 221 109
3 51 222 221
3 27 223 170
3 52 224 112
3 52 225 224
3 52 226 225
3 53 227 114
3 53 228 227
3 53 229 228
3 54 230 116
3 54 231 230
3 29 232 174
3 55 233 119
3 55 234 233
3 55 235 234
3 56 236 121
3 56 237 236
3 57 345 347
3 345 238 346
3 345 346 347
3 57 239 238
3 31 240 178
3 58 241 124
3 58 242 241
3 58 243 242
3 59 244 126
3 59 245 244
3 348 246 349
3 60 247 128
3 60 248 247
3 350 249 351
3 61 250 130
3 61 251 250
3 61 252 251
3 62 253 132
3 62 254 253
3 62 255 254
3 63 256 134
3 63 257 256
3 352 258 353
3 354 259 355
3 356 355 258
3 354 355 356
3 357 260 358
3 359 261 360
3 361 360 260
3 359 360 361
3 362 262 363
3 364 263 365
3 366 365 262
3 364 365 366
3 367 264 368
3 369 265 370
3 371 370 264
3 369 370 371
3 372 266 373
3 64 267 135
3 64 268 267
3 65 374 375
3 65 376 377
3 65 378 380
3 378 269 379
3 378 379 380
3 66 270 138
3 66 271 270
3 66 272 271
3 67 273 140
3 67 274 273
3 34 275 184
3 68 276 143
3 68 277 276
3 68 278 277
3 69 279 145
3 69 280 279
3 36 281 188
3 70 381 383
3 383 382 148
3 381 382 383
3 70 384 385
3 70 386 387
3 71 282 150
3 71 283 282
3 71 284 283
3 72 285 152
3 72 286 285
3 38 287 192
3 73 288 154
3 73 289 288
3 73 290 289
3 388 291 389
3 390 389 155
3 388 389 390
3 392 391 291
3 47 292 210
3 393 293 394
3 395 394 157
3 393 394 395
3 397 396 293
3 399 398 195
3 74 75 19
3 76 75 74
3 76 21 75
3 77 400 402
3 402 401 22
3 400 401 402
3 404 403 77
3 78 79 23
3 80 79 78
3 80 25 79
3 81 82 26
3 83 82 81
3 83 28 82
3 83 84 28
3 85 84 83
3 85 30 84
3 405 32 406
3 86 407 408
3 86 409 411
3 409 33 410
3 409 410 411
3 86 87 33
3 88 87 86
3 88 35 87
3 412 37 413
3 415 414 37
3 89 90 39
3 91 90 89
3 91 416 418
3 418 417 90
3 416 417 418
3 92 93 40
3 94 93 92
3 94 42 93
3 95 96 18
3 97 96 95
3 97 43 96
3 97 98 43
3 99 98 97
3 99 44 98
3 420 419 20
3 422 421 45
3 100 101 46
3 102 101 100
3 102 48 101
3 103 104 24
3 105 104 103
3 105 49 104
3 105 106 49
3 107 106 105
3 107 50 106
3 108 109 41
3 110 109 108
3 110 51 109
3 111 112 27
3 113 112 111
3 113 52 112
3 113 114 52
3 115 114 113
3 115 53 114
3 115 116 53
3 117 116 115
3 117 54 116
3 118 119 29
3 120 119 118
3 120 55 119
3 120 121 55
3 122 121 120
3 122 56 121
3 423 57 424
3 123 124 31
3 125 124 123
3 125 58 124
3 125 126 58
3 127 126 125
3 127 59 126
3 425 128 426
3 129 427 429
3 427 128 428
3 427 428 429
3 129 60 128
3 430 130 431
3 131 432 434
3 432 130 433
3 432 433 434
3 131 61 130
3 131 132 61
3 133 132 131
3 133 62 132
3 133 134 62
3 435 134 436
3 437 436 133
3 435 436 437
3 438 63 439
3 440 439 134
3 438 439 440
3 441 135 442
3 443 135 444
3 445 64 446
3 447 446 135
3 445 446 447
3 136 448 449
3 137 450 452
3 452 451 136
3 450 451 452
3 137 453 455
3 453 65 454
3 453 454 455
3 137 138 65
3 139 138 137
3 139 66 138
3 139 140 66
3 141 140 139
3 141 67 140
3 142 143 34
3 144 143 142
3 144 68 143
3 144 145 68
3 146 145 144
3 146 69 145
3 147 148 36
3 149 148 147
3 149 70 148
3 149 150 70
3 151 150 149
3 151 71 150
3 151 152 71
3 153 152 151
3 153 72 152
3 456 154 457
3 458 457 38
3 456 457 458
3 459 154 460
3 461 73 462
3 463 462 154
3 461 462 463
3 464 155 465
3 466 465 73
3 464 465 466
3 467 155 468
3 470 469 155
3 156 157 47
3 158 157 156
3 158 471 473
3 473 472 157
3 471 472 473
3 474 159 475
3 476 475 6
3 474 475 476
3 477 159 478
3 479 18 480
3 481 480 159
3 479 480 481
3 482 18 483
3 484 95 485
3 486 485 18
3 484 485 486
3 487 95 488
3 490 489 95
3 160 161 8
3 162 161 160
3 162 20 161
3 75 162 19
3 163 162 75
3 163 20 162
3 163 491 493
3 493 492 20
3 491 492 493
3 495 494 163
3 497 496 22
3 164 165 9
3 166 165 164
3 166 24 165
3 79 166 23
3 167 166 79
3 167 24 166
3 167 103 24
3 168 103 167
3 168 11 103
3 169 170 7
3 171 170 169
3 171 27 170
3 82 171 26
3 172 171 82
3 172 27 171
3 172 111 27
3 173 111 172
3 173 12 111
3 173 174 12
3 175 174 173
3 175 29 174
3 84 175 28
3 176 175 84
3 176 29 175
3 176 118 29
3 177 118 176
3 177 13 118
3 498 178 499
3 179 500 502
3 500 178 501
3 500 501 502
3 179 31 178
3 503 179 504
3 180 505 507
3 505 179 506
3 505 506 507
3 180 31 179
3 180 123 31
3 181 123 180
3 181 14 123
3 182 508 509
3 182 510 511
3 182 512 514
3 512 136 513
3 512 513 514
3 183 136 182
3 183 15 136
3 183 184 15
3 185 184 183
3 185 34 184
3 87 185 33
3 186 185 87
3 186 34 185
3 186 142 34
3 187 142 186
3 187 16 142
3 515 188 516
3 189 517 519
3 517 188 518
3 517 518 519
3 189 36 188
3 520 189 521
3 190 522 524
3 522 189 523
3 522 523 524
3 190 36 189
3 190 147 36
3 191 147 190
3 191 17 147
3 191 192 17
3 193 192 191
3 193 38 192
3 525 193 526
3 527 526 37
3 525 526 527
3 528 193 529
3 530 38 531
3 532 531 193
3 530 531 532
3 534 533 38
3 194 195 10
3 196 195 194
3 196 535 537
3 537 536 195
3 535 536 537
3 90 196 39
3 538 196 539
3 540 539 90
3 538 539 540
3 542 541 196
3 197 198 2
3 199 198 197
3 199 41 198
3 93 199 40
3 200 199 93
3 200 41 199
3 200 108 41
3 201 108 200
3 201 7 108
3 159 94 6
3 202 94 159
3 202 42 94
3 96 202 18
3 203 202 96
3 203 42 202
3 203 201 42
3 204 201 203
3 204 7 201
3 204 169 7
3 205 169 204
3 205 26 169
3 98 205 43
3 206 205 98
3 206 26 205
3 206 81 26
3 207 81 206
3 207 4 81
3 543 5 544
3 161 545 547
3 547 546 8
3 545 546 547
3 549 548 161
3 551 550 20
3 208 552 554
3 554 553 3
3 552 553 554
3 556 555 208
3 558 557 45
3 209 210 0
3 211 210 209
3 211 47 210
3 101 211 46
3 212 211 101
3 212 47 211
3 212 156 47
3 213 156 212
3 213 10 156
3 165 102 9
3 214 102 165
3 214 48 102
3 104 214 24
3 215 214 104
3 215 48 214
3 215 213 48
3 216 213 215
3 216 10 213
3 216 194 10
3 217 194 216
3 217 39 194
3 106 217 49
3 218 217 106
3 218 39 217
3 218 89 39
3 219 89 218
3 219 3 89
3 198 80 2
3 220 80 198
3 220 25 80
3 109 220 41
3 221 220 109
3 221 25 220
3 221 168 25
3 222 168 221
3 222 11 168
3 170 110 7
3 223 110 170
3 223 51 110
3 112 223 27
3 224 223 112
3 224 51 223
3 224 222 51
3 225 222 224
3 225 11 222
3 225 107 11
3 226 107 225
3 226 50 107
3 114 226 52
3 227 226 114
3 227 50 226
3 227 219 50
3 228 219 227
3 228 3 219
3 228 208 3
3 229 208 228
3 229 45 208
3 116 229 53
3 230 229 116
3 230 45 229
3 230 559 561
3 561 560 45
3 559 560 561
3 231 562 564
3 564 563 230
3 562 563 564
3 231 565 566
3 174 117 12
3 232 117 174
3 232 54 117
3 119 232 29
3 233 232 119
3 233 54 232
3 233 231 54
3 234 231 233
3 234 567 569
3 569 568 231
3 567 568 569
3 234 570 571
3 235 572 574
3 574 573 234
3 572 573 574
3 235 575 577
3 575 22 576
3 575 576 577
3 121 235 55
3 236 235 121
3 236 22 235
3 236 77 22
3 237 77 236
3 237 1 77
3 238 578 579
3 238 580 581
3 238 582 583
3 239 584 586
3 586 585 238
3 584 585 586
3 239 587 589
3 587 8 588
3 587 588 589
3 178 590 591
3 240 592 594
3 594 593 178
3 592 593 594
3 240 595 597
3 595 57 596
3 595 596 597
3 124 240 31
3 241 240 124
3 241 57 240
3 241 239 57
3 242 239 241
3 242 8 239
3 242 160 8
3 243 160 242
3 243 19 160
3 126 243 58
3 244 243 126
3 244 19 243
3 244 74 19
3 245 74 244
3 245 0 74
3 246 598 599
3 246 600 602
3 600 32 601
3 600 601 602
3 128 603 605
3 603 246 604
3 603 604 605
3 247 246 128
3 247 32 246
3 247 181 32
3 248 181 247
3 248 14 181
3 606 129 607
3 249 608 610
3 608 129 609
3 608 609 610
3 249 60 129
3 130 611 613
3 611 249 612
3 611 612 613
3 250 249 130
3 250 60 249
3 250 248 60
3 251 248 250
3 251 14 248
3 251 127 14
3 252 127 251
3 252 59 127
3 132 252 61
3 253 252 132
3 253 59 252
3 253 245 59
3 254 245 253
3 254 0 245
3 254 209 0
3 255 209 254
3 255 46 209
3 134 255 62
3 256 255 134
3 256 46 255
3 256 100 46
3 257 100 256
3 257 9 100
3 614 63 615
3 616 63 617
3 618 257 619
3 620 619 63
3 618 619 620
3 258 621 623
3 621 257 622
3 621 622 623
3 258 9 257
3 258 164 9
3 259 164 258
3 259 23 164
3 624 259 625
3 260 626 628
3 626 259 627
3 626 627 628
3 260 23 259
3 260 78 23
3 261 78 260
3 261 2 78
3 629 261 630
3 262 631 633
3 631 261 632
3 631 632 633
3 262 2 261
3 262 197 2
3 263 197 262
3 263 40 197
3 634 263 635
3 264 636 638
3 636 263 637
3 636 637 638
3 264 40 263
3 264 92 40
3 265 92 264
3 265 6 92
3 639 265 640
3 641 265 642
3 643 6 644
3 645 644 265
3 643 644 645
3 647 646 6
3 648 99 649
3 266 650 652
3 650 99 651
3 650 651 652
3 266 44 99
3 135 653 655
3 653 266 654
3 653 654 655
3 267 266 135
3 267 44 266
3 267 207 44
3 268 207 267
3 268 4 207
3 269 656 657
3 269 658 660
3 658 64 659
3 658 659 660
3 138 269 65
3 270 269 138
3 270 64 269
3 270 268 64
3 271 268 270
3 271 4 268
3 271 85 4
3 272 85 271
3 272 30 85
3 140 272 66
3 273 272 140
3 273 30 272
3 273 177 30
3 274 177 273
3 274 13 177
3 184 141 15
3 275 141 184
3 275 67 141
3 143 275 34
3 276 275 143
3 276 67 275
3 276 274 67
3 277 274 276
3 277 13 274
3 277 122 13
3 278 122 277
3 278 56 122
3 145 278 68
3 279 278 145
3 279 56 278
3 279 237 56
3 280 237 279
3 280 1 237
3 661 5 662
3 188 663 665
3 663 664 665
3 281 666 668
3 668 667 188
3 666 667 668
3 281 669 670
3 148 281 36
3 671 281 672
3 673 672 148
3 671 672 673
3 675 674 281
3 150 676 678
3 678 677 70
3 676 677 678
3 282 679 681
3 681 680 150
3 679 680 681
3 282 682 683
3 282 684 685
3 283 686 688
3 688 687 282
3 686 687 688
3 283 689 691
3 689 5 690
3 689 690 691
3 283 88 5
3 284 88 283
3 284 35 88
3 152 284 71
3 285 284 152
3 285 35 284
3 285 187 35
3 286 187 285
3 286 16 187
3 192 153 17
3 287 153 192
3 287 72 153
3 154 287 38
3 288 287 154
3 288 72 287
3 288 286 72
3 289 286 288
3 289 16 286
3 289 146 16
3 290 146 289
3 290 69 146
3 155 290 73
3 291 290 155
3 291 69 290
3 291 280 69
3 692 280 693
3 694 693 291
3 692 693 694
3 695 1 696
3 697 696 280
3 695 696 697
3 699 698 1
3 210 76 0
3 292 76 210
3 292 21 76
3 157 292 47
3 293 292 157
3 293 21 292
3 293 700 702
3 702 701 21
3 700 701 702
3 704 703 293
3 195 158 10
3 705 158 706
3 707 706 195
3 705 706 707
3 709 708 158
3 710 91 711
3 712 711 3
3 710 711 712
3 713 91 714
3 716 715 91
