ply
format ascii 1.0
element vertex 188
property float x
property float y
property float z
property uchar red
property uchar green
property uchar blue
element face 178
property list uchar int vertex_index
end_header
-25.319 -58.3147 53.131 235 0 0
-27.2114 -54.7327 47.9847 255 27 0
-23.1632 -60.1966 54.7794 0 245 255
-24.1907 -61.6619 50.5632 0 165 255
-26.779 -56.5073 50.8991 255 108 0
-25.4178 -59.8504 48.2614 48 255 207
-26.0016 -58.1654 45.9795 0 203 255
-26.7942 -57.7737 58.2446 255 208 0
-29.6676 -56.4985 56.1909 247 0 0
-30.6943 -54.6293 53.5419 176 0 0
-30.3957 -52.0175 50.3158 168 0 0
-29.8106 -50.3079 46.1051 0 214 255
-24.1212 -59.3304 54.0532 255 64 0
-23.1126 -61.0768 52.3613 0 255 255
-23.8106 -60.1999 51.5267 255 182 0
-27.1488 -55.6477 49.5176 255 96 0
-25.9162 -57.2376 48.3038 255 190 0
-26.1977 -56.3441 46.8987 171 255 84
-27.1334 -57.2567 60.4136 0 231 255
-31.0413 -56.0183 58.6156 226 255 29
-32.1457 -55.8103 57.3569 182 255 73
-30.399 -55.7578 54.9292 244 0 0
-32.8085 -54.9803 56.0271 219 255 36
-32.7965 -52.3481 53.1493 254 255 1
-32.3916 -51.2256 51.2496 88 255 167
-30.1339 -51.025 48.3802 255 206 0
-25.8823 -61.433 48.1251 0 102 255
-27.1737 -53.6035 46.2715 196 255 59
-26.3894 -55.4073 45.2787 17 255 238
-26.1818 -57.4326 51.9978 255 92 0
-24.863 -59.037 50.5341 255 142 0
-25.4811 -58.1023 49.5035 255 223 0
-25.7276 -59.0869 47.2147 0 243 255
-24.9516 -59.0223 56.6458 126 255 129
-26.1278 -58.0949 55.8423 234 0 0
-29.1913 -56.5247 59.6284 242 255 13
-28.3607 -56.9516 57.3559 182 0 0
-27.2951 -57.2816 54.7861 255 0 0
-28.0498 -56.4541 53.6982 255 44 0
-28.5883 -55.518 52.3823 255 23 0
-28.8012 -54.5001 50.8962 226 0 0
-33.0108 -53.6889 54.7231 255 245 0
-30.7036 -53.2899 52.0604 128 0 0
-28.5787 -53.2151 49.3268 163 0 0
-28.346 -52.0169 47.5493 255 168 0
-28.1594 -51.1589 45.3331 83 255 172
-24.658 -60.8031 49.4783 164 255 91
-25.1825 -62.2911 49.192 0 86 255
-27.1245 -57.1844 61.605 0 0 153
-26.2841 -57.8303 60.7995 0 0 153
-33.4356 -55.3108 58.06 0 0 158
-32.7482 -55.4305 58.7007 0 0 158
-33.767 -54.8958 57.3951 0 0 199
-32.4771 -55.3953 56.692 0 0 242
-33.4356 -55.3108 58.06 0 0 199
-33.469 -50.9574 51.6624 0 0 156
-33.7264 -51.3802 52.7811 0 0 156
-32.1306 -50.8637 50.2037 0 0 152
-33.469 -50.9574 51.6624 0 0 152
-26.9042 -54.0755 44.8853 0 0 150
-27.1036 -53.1407 45.2578 0 0 150
-22.9114 -61.1791 54.0287 0 0 144
-22.7458 -60.7883 55.1533 0 0 144
-23.9825 -62.1739 51.2424 0 0 163
-23.4434 -61.8813 52.1414 0 0 163
-23.6517 -61.3693 51.4622 0 0 188
-24.3533 -62.4424 50.5358 0 0 152
-24.1451 -62.9543 51.2149 0 0 133
-23.9825 -62.1739 51.2424 0 0 152
-26.4505 -59.2657 45.794 0 0 171
-26.3135 -59.7264 46.4116 0 0 171
-25.8646 -58.6262 46.5971 0 0 200
-26.2318 -56.3073 44.8923 0 0 143
-26.3289 -55.9089 44.0497 0 0 143
-25.8729 -58.398 57.4452 0 0 217
-25.1302 -58.8482 57.7705 0 0 182
-26.0515 -58.2239 58.5699 0 0 182
-30.2371 -55.9786 60.4022 0 0 159
-29.1447 -56.3428 60.8249 0 0 159
-34.1947 -53.1656 55.4334 0 0 158
-34.1309 -53.7798 56.1426 0 0 158
-28.9803 -50.3829 44.5051 0 0 193
-28.1548 -50.8084 44.1191 0 0 193
-28.985 -50.7334 45.7191 0 0 234
-25.4081 -62.6344 48.3602 0 0 152
-25.5324 -61.862 48.6586 0 0 172
-25.7581 -62.2054 47.8268 0 0 152
-24.9103 -62.7677 48.7444 0 0 128
-25.4081 -62.6344 48.3602 0 0 128
-26.221 -57.9654 59.6544 0 0 153
-26.2841 -57.8303 60.7995 0 0 153
-26.9638 -57.5152 59.3291 0 0 215
-26.0515 -58.2239 58.5699 0 0 181
-26.221 -57.9654 59.6544 0 0 181
-32.196 -55.5345 59.3301 0 0 161
-31.1621 -55.7254 59.8958 0 0 161
-31.5935 -55.9143 57.9862 0 0 230
-32.196 -55.5345 59.3301 0 0 191
-32.7482 -55.4305 58.7007 0 0 191
-33.9288 -51.9415 53.731 0 0 157
-34.0876 -52.4952 54.6465 0 0 157
-32.594 -51.7868 52.1995 0 0 250
-33.9288 -51.9415 53.731 0 0 204
-33.7264 -51.3802 52.7811 0 0 204
-31.0018 -50.7634 48.769 0 0 177
-31.2627 -51.1253 49.8149 0 0 210
-32.1306 -50.8637 50.2037 0 0 177
-30.8401 -50.4049 47.6314 0 0 184
-29.9722 -50.6665 47.2426 0 0 219
-31.0018 -50.7634 48.769 0 0 184
-26.1941 -61.137 47.5013 0 0 153
-25.6501 -60.6417 48.1932 0 0 173
-25.9619 -60.3457 47.5694 0 0 153
-26.2261 -61.8264 47.3389 0 0 130
-26.1941 -61.137 47.5013 0 0 130
-25.7581 -62.2054 47.8268 0 0 133
-26.2261 -61.8264 47.3389 0 0 133
-26.5121 -54.9773 44.3889 0 0 185
-26.7815 -54.5054 45.7751 0 0 221
-26.9042 -54.0755 44.8853 0 0 185
-26.3289 -55.9089 44.0497 0 0 145
-26.5121 -54.9773 44.3889 0 0 145
-22.8862 -61.6191 52.8197 0 0 172
-22.9114 -61.1791 54.0287 0 0 172
-23.1379 -60.6367 53.5703 0 0 202
-22.8862 -61.6191 52.8197 0 0 133
-23.4434 -61.8813 52.1414 0 0 133
-26.1168 -59.964 47.0461 0 0 153
-25.9619 -60.3457 47.5694 0 0 153
-25.5727 -59.4686 47.738 0 0 174
-26.7027 -60.6035 46.243 0 0 135
-26.1168 -59.964 47.0461 0 0 158
-26.3135 -59.7264 46.4116 0 0 158
-26.1359 -56.7757 45.7023 0 0 173
-26.2936 -55.8757 46.0887 0 0 204
-26.2318 -56.3073 44.8923 0 0 173
-26.0379 -57.6864 45.2427 0 0 172
-26.0997 -57.2548 46.4391 0 0 201
-26.1359 -56.7757 45.7023 0 0 172
-26.4741 -58.8653 45.1029 0 0 146
-26.0379 -57.6864 45.2427 0 0 146
-26.4505 -59.2657 45.794 0 0 143
-26.4741 -58.8653 45.1029 0 0 143
-23.4846 -60.0726 56.1403 0 0 149
-22.7458 -60.7883 55.1533 0 0 149
-24.3788 -59.4854 57.0735 0 0 143
-25.1302 -58.8482 57.7705 0 0 143
-24.0574 -59.6095 55.7126 0 0 226
-23.4846 -60.0726 56.1403 0 0 188
-24.3788 -59.4854 57.0735 0 0 188
-28.1157 -56.7088 61.2175 0 0 156
-27.1245 -57.1844 61.605 0 0 156
-28.1624 -56.8907 60.021 0 0 244
-28.1157 -56.7088 61.2175 0 0 200
-29.1447 -56.3428 60.8249 0 0 200
-30.1163 -56.2715 59.122 0 0 246
-30.2371 -55.9786 60.4022 0 0 202
-31.1621 -55.7254 59.8958 0 0 202
-34.0298 -54.4255 56.7946 0 0 153
-33.767 -54.8958 57.3951 0 0 153
-32.9096 -54.3346 55.3751 0 0 253
-34.0298 -54.4255 56.7946 0 0 207
-34.1309 -53.7798 56.1426 0 0 207
-32.9036 -53.0185 53.9362 0 5 255
-34.1947 -53.1656 55.4334 0 0 211
-34.0876 -52.4952 54.6465 0 0 211
-27.6898 -52.3474 45.8967 0 0 196
-27.1036 -53.1407 45.2578 0 0 196
-27.7598 -52.8102 46.9104 0 0 238
-27.5965 -51.9183 44.7886 0 0 195
-27.6898 -52.3474 45.8967 0 0 195
-28.2527 -51.5879 46.4412 0 0 237
-27.6448 -51.512 43.6645 0 0 155
-27.5965 -51.9183 44.7886 0 0 155
-27.6448 -51.512 43.6645 0 0 152
-28.1548 -50.8084 44.1191 0 0 152
-30.5449 -49.8353 46.435 0 0 153
-30.8401 -50.4049 47.6314 0 0 153
-29.7363 -49.7733 44.7852 0 0 156
-30.5449 -49.8353 46.435 0 0 156
-28.9061 -49.8483 43.1852 0 0 160
-28.9803 -50.3829 44.5051 0 0 207
-29.7363 -49.7733 44.7852 0 0 207
-24.8492 -62.7569 49.8502 0 0 154
-24.3533 -62.4424 50.5358 0 0 154
-24.6866 -61.9765 49.8776 0 0 175
-24.8492 -62.7569 49.8502 0 0 133
-24.9103 -62.7677 48.7444 0 0 133
3 0 14 12
3 1 17 15
3 48 18 49
3 50 20 51
3 52 22 53
3 54 53 20
3 52 53 54
3 55 24 56
3 58 57 24
3 60 59 27
3 2 61 62
3 3 63 65
3 65 64 13
3 63 64 65
3 3 66 68
3 66 67 68
3 4 31 29
3 6 32 16
3 6 69 71
3 71 70 32
3 69 70 71
3 73 72 28
3 7 74 76
3 74 33 75
3 74 75 76
3 7 34 33
3 77 35 78
3 8 36 19
3 8 37 36
3 8 38 37
3 9 39 21
3 9 40 39
3 79 41 80
3 10 42 23
3 10 43 42
3 10 44 43
3 11 45 25
3 11 81 83
3 83 82 45
3 81 82 83
3 5 46 30
3 84 47 85
3 86 85 26
3 84 85 86
3 88 87 47
3 12 13 2
3 14 13 12
3 14 3 13
3 15 16 4
3 17 16 15
3 17 6 16
3 18 89 90
3 18 91 93
3 91 7 92
3 91 92 93
3 94 19 95
3 20 96 98
3 96 19 97
3 96 97 98
3 20 8 19
3 20 21 8
3 22 21 20
3 22 9 21
3 99 23 100
3 24 101 103
3 101 23 102
3 101 102 103
3 24 10 23
3 24 25 10
3 104 25 105
3 106 105 24
3 104 105 106
3 107 11 108
3 109 108 25
3 107 108 109
3 110 26 111
3 112 111 5
3 110 111 112
3 113 26 114
3 116 115 26
3 27 28 1
3 117 28 118
3 119 118 27
3 117 118 119
3 121 120 28
3 13 122 124
3 124 123 2
3 122 123 124
3 126 125 13
3 29 30 0
3 31 30 29
3 31 5 30
3 16 31 4
3 32 31 16
3 32 5 31
3 32 127 129
3 129 128 5
3 127 128 129
3 132 131 32
3 130 131 132
3 28 17 1
3 133 17 134
3 135 134 28
3 133 134 135
3 136 6 137
3 138 137 17
3 136 137 138
3 139 6 140
3 142 141 6
3 143 2 144
3 33 145 146
3 33 147 149
3 147 2 148
3 147 148 149
3 33 12 2
3 34 12 33
3 34 0 12
3 150 18 151
3 35 152 154
3 152 18 153
3 152 153 154
3 35 7 18
3 19 155 157
3 155 35 156
3 155 156 157
3 36 35 19
3 36 7 35
3 36 34 7
3 37 34 36
3 37 0 34
3 37 29 0
3 38 29 37
3 38 4 29
3 21 38 8
3 39 38 21
3 39 4 38
3 39 15 4
3 40 15 39
3 40 1 15
3 158 22 159
3 41 160 162
3 160 22 161
3 160 161 162
3 41 9 22
3 23 163 165
3 163 41 164
3 163 164 165
3 42 41 23
3 42 9 41
3 42 40 9
3 43 40 42
3 43 1 40
3 43 27 1
3 44 27 43
3 44 166 168
3 168 167 27
3 166 167 168
3 25 44 10
3 45 44 25
3 45 169 171
3 171 170 44
3 169 170 171
3 45 172 173
3 175 174 45
3 176 11 177
3 178 11 179
3 182 181 11
3 180 181 182
3 30 14 0
3 46 14 30
3 46 3 14
3 26 46 5
3 47 46 26
3 47 3 46
3 47 183 185
3 185 184 3
3 183 184 185
3 187 186 47
