ply
format ascii 1.0
element vertex 279
property float x
property float y
property float z
property uchar red
property uchar green
property uchar blue
element face 281
property list uchar int vertex_index
end_header
-22.4161 42.8069 23.5589 82 255 173
-30.4117 47.6919 9.86476 222 0 0
-26.8062 46.6278 16.1816 142 255 113
-30.0156 35.6964 22.4919 255 129 0
-35.9693 45.7565 19.1391 17 255 238
-25.1173 37.2037 32.5346 117 255 138
-23.5899 44.0585 18.273 255 61 0
-24.6547 37.2916 20.9837 255 13 0
-27.6673 40.4737 17.0595 255 58 0
-33.719 49.7708 16.5327 187 255 68
-36.7329 47.2286 16.3173 0 98 255
-35.6442 51.7642 12.8595 76 255 179
-27.2324 34.4303 33.0757 0 238 255
-24.346 33.6948 33.2195 86 255 169
-29.1478 46.1183 13.2864 243 255 12
-24.001 47.3595 8.41341 209 255 46
-24.8419 49.8645 13.8738 148 255 107
-32.7923 40.8718 20.3347 213 255 42
-31.0943 45.629 17.6617 255 192 0
-25.6013 33.3095 26.0108 202 0 0
-23.7664 38.7019 27.7721 255 114 0
-22.9882 43.2873 20.8325 255 200 0
-22.6251 46.6128 20.8384 70 255 185
-22.9953 39.8048 21.834 177 0 0
-24.0252 40.6214 19.3182 255 32 0
-31.1751 48.6537 7.85965 191 255 64
-28.4067 46.7408 6.48634 189 255 66
-32.5988 48.8663 13.6394 255 94 0
-35.0005 50.7195 14.9466 233 255 22
-32.8958 50.1641 11.8026 253 0 0
-33.4938 50.8865 9.459 59 255 196
-26.8073 30.5569 34.5762 0 166 255
-26.0831 33.592 34.8431 96 255 159
-25.0501 30.6614 32.6813 11 255 244
-28.0915 46.4592 14.8606 92 255 163
-26.1369 46.607 12.972 255 156 0
-26.4065 48.2859 15.2935 181 255 74
-31.2852 38.1715 21.2057 255 214 0
-26.844 43.2486 16.0893 255 126 0
-29.6991 42.6542 16.7341 255 69 0
-28.6181 45.7858 16.7853 228 255 27
-30.0574 47.1994 16.3954 149 255 106
-25.8015 35.2708 32.2463 189 255 66
-26.4959 33.1671 29.5646 209 255 46
-25.1175 34.93 29.2586 255 101 0
-23.9209 35.7027 26.3499 161 0 0
-24.8426 37.5005 29.991 255 95 0
-25.1186 40.6461 31.1128 7 255 248
-24.3248 39.3536 32.5096 0 192 255
-24.7215 45.2177 16.5654 255 169 0
-25.1799 48.2474 16.9559 47 255 208
-23.0434 47.2857 18.2124 117 255 138
-27.1137 35.9233 21.2021 236 0 0
-28.5431 37.85 19.3125 152 0 0
-25.9373 38.7559 18.7189 255 40 0
-25.0184 41.8051 17.0354 255 116 0
-34.9815 48.3172 17.5359 154 255 101
-36.953 47.3596 18.0023 0 151 255
-36.0437 49.5743 16.8072 43 255 212
-36.8263 49.8844 15.1139 0 170 255
-27.306 35.448 36.0205 0 101 255
-25.7774 35.9002 35.1698 127 255 128
-24.4411 36.3868 34.0763 82 255 173
-23.4653 37.7037 32.9111 0 114 255
-22.6886 35.2705 32.499 0 144 255
-29.9832 46.7008 11.7315 255 92 0
-27.1548 46.0625 8.66887 231 0 0
-26.4347 45.8132 10.9671 255 73 0
-23.904 48.2568 11.1943 209 255 46
-25.2368 50.6253 16.5349 0 165 255
-34.6327 43.3107 19.8105 128 255 127
-30.4703 40.5677 18.1506 201 0 0
-32.4656 43.0699 17.8883 255 51 0
-33.8186 45.7894 17.7924 255 152 0
-32.2371 48.1734 17.5352 228 255 27
-31.4748 47.8151 15.0467 255 230 0
-25.0204 47.147 5.85263 67 255 188
-30.7592 33.9984 25.1998 126 255 129
-28.3345 32.5574 26.7656 227 255 28
-27.5882 33.6561 23.4451 161 0 0
-24.7154 34.8468 22.9603 206 0 0
-22.959 37.3951 23.7537 128 0 0
-22.4375 40.3713 25.5399 255 207 0
-22.5167 43.5617 25.1349 0 0 159
-22.4346 44.4665 23.5773 0 0 159
-22.4346 44.4665 23.5773 0 0 194
-22.7207 44.7067 22.2141 0 0 194
-22.7021 43.0471 22.1957 0 0 235
-26.2831 29.001 33.9405 0 0 151
-27.2677 28.908 34.8579 0 0 151
-25.4045 29.0532 32.9931 0 0 185
-25.9287 30.6092 33.6287 0 0 221
-26.2831 29.001 33.9405 0 0 185
-24.1951 29.7864 32.3126 0 0 146
-25.4045 29.0532 32.9931 0 0 146
-30.6504 36.9339 21.8488 0 3 255
-32.0227 37.3776 22.9925 0 0 209
-31.3879 36.14 23.6355 0 0 209
-36.9123 45.7118 19.8527 0 0 139
-36.2638 44.8389 20.4815 0 0 139
-22.5917 48.2434 20.6739 0 0 152
-22.6461 47.9685 22.0734 0 0 152
-36.6199 50.9206 12.8728 0 0 166
-37.211 49.9807 14 0 0 166
-36.2352 50.8243 13.9867 0 0 192
-36.0232 51.6439 11.508 0 0 144
-36.6199 50.9206 12.8728 0 0 144
-34.0936 50.6944 8.25796 0 0 147
-32.8854 50.2004 7.63445 0 0 147
-27.4258 34.3303 36.1848 0 0 128
-28.0575 35.1437 36.286 0 0 128
-24.3015 50.9922 12.9667 0 0 199
-23.8326 50.1884 11.6269 0 0 199
-24.373 49.0607 12.534 0 0 243
-24.407 50.4403 17.1946 0 0 156
-25.2083 49.4363 16.7454 0 0 178
-24.3786 49.2514 17.405 0 0 156
-33.8973 41.1201 21.4796 0 0 152
-33.308 39.9574 21.9743 0 0 152
-33.7125 42.0912 20.0726 0 0 233
-34.8175 42.3395 21.2176 0 0 193
-33.8973 41.1201 21.4796 0 0 193
-37.3094 46.286 17.2906 0 0 146
-37.4195 46.3515 18.1331 0 0 146
-36.843 47.2941 17.1598 0 0 163
-30.8219 33.6119 26.8362 0 0 154
-31.9214 34.5828 26.1952 0 0 154
-27.8885 33.6894 31.798 0 0 139
-28.0888 34.3885 33.4307 0 0 139
-23.7211 40.3999 28.3821 0 0 207
-23.0566 41.2347 27.2659 0 0 207
-23.1019 39.5366 26.656 0 0 255
-25 42.0881 31.5949 0 0 139
-24.2353 41.1459 31.7993 0 0 139
-22.7437 38.593 32.6012 0 0 133
-22.4279 37.5018 32.573 0 0 133
-22.5391 46.3694 22.2171 0 0 194
-22.8066 44.95 20.8354 0 0 235
-22.7207 44.7067 22.2141 0 0 194
-22.6461 47.9685 22.0734 0 0 151
-22.5391 46.3694 22.2171 0 0 151
-30.3955 48.402 6.24692 0 0 147
-31.726 49.084 6.83478 0 0 147
-29.0113 47.4455 5.56027 0 0 191
-30.3955 48.402 6.24692 0 0 191
-29.7909 47.6972 7.17299 0 0 230
-27.4269 47.3152 5.12698 0 0 149
-29.0113 47.4455 5.56027 0 0 149
-31.726 49.084 6.83478 0 0 191
-32.8854 50.2004 7.63445 0 0 191
-32.3344 49.7701 8.65933 0 0 230
-27.5924 30.4815 35.4679 0 0 147
-27.2677 28.908 34.8579 0 0 147
-27.1764 31.8848 35.4627 0 0 142
-27.5924 30.4815 35.4679 0 0 142
-26.4452 32.0744 34.7096 0 0 198
-26.8143 33.4023 35.5961 0 0 169
-27.1764 31.8848 35.4627 0 0 169
-23.8949 31.4418 32.1946 0 0 177
-23.5429 32.9585 32.4637 0 0 177
-24.6981 32.1781 32.9504 0 0 209
-23.8949 31.4418 32.1946 0 0 145
-24.1951 29.7864 32.3126 0 0 145
-32.5545 38.6072 22.4098 0 0 158
-32.0227 37.3776 22.9925 0 0 158
-32.0387 39.5216 20.7702 0 1 255
-33.308 39.9574 21.9743 0 0 208
-32.5545 38.6072 22.4098 0 0 208
-23.3551 48.6644 7.31338 0 0 157
-23.5396 49.1261 8.74294 0 0 157
-36.7305 45.9256 16.2994 0 0 132
-36.7143 47.113 15.4522 0 0 132
-23.8384 40.4996 32.4977 0 0 153
-24.2353 41.1459 31.7993 0 0 153
-24.7217 39.9999 31.8112 0 0 174
-23.3104 48.7705 18.0333 0 0 172
-24.3786 49.2514 17.405 0 0 172
-24.1116 47.7665 17.5841 0 0 202
-22.8009 48.5799 19.361 0 0 187
-22.8343 46.9492 19.5254 0 0 225
-22.5917 48.2434 20.6739 0 0 187
-23.3104 48.7705 18.0333 0 0 149
-22.8009 48.5799 19.361 0 0 149
-36.761 48.4409 14.8505 0 0 156
-36.7143 47.113 15.4522 0 0 156
-36.7796 48.5565 15.7156 0 0 177
-36.761 48.4409 14.8505 0 0 143
-37.211 49.9807 14 0 0 143
-34.948 51.205 9.80775 0 0 189
-36.0232 51.6439 11.508 0 0 189
-34.569 51.3254 11.1593 0 0 227
-34.948 51.205 9.80775 0 0 149
-34.0936 50.6944 8.25796 0 0 149
-28.1256 34.8974 34.9031 0 0 133
-28.0575 35.1437 36.286 0 0 133
-27.2692 34.9391 34.5481 0 0 184
-28.0888 34.3885 33.4307 0 0 160
-28.1256 34.8974 34.9031 0 0 160
-26.6945 34.52 35.4318 0 0 173
-27.4258 34.3303 36.1848 0 0 153
-26.8143 33.4023 35.5961 0 0 153
-22.0396 36.2851 32.367 0 0 156
-22.4279 37.5018 32.573 0 0 156
-23.077 36.4871 32.7051 0 0 178
-22.7142 33.7463 32.1035 0 0 167
-23.5173 34.4827 32.8593 0 0 195
-23.5429 32.9585 32.4637 0 0 167
-21.7478 34.8545 32.2341 0 0 139
-22.7142 33.7463 32.1035 0 0 139
-22.0396 36.2851 32.367 0 0 135
-21.7478 34.8545 32.2341 0 0 135
-23.4911 49.5747 10.1334 0 0 197
-23.5396 49.1261 8.74294 0 0 197
-23.9525 47.8082 9.80383 0 0 240
-23.4197 51.5063 10.566 0 0 161
-23.4911 49.5747 10.1334 0 0 209
-23.8326 50.1884 11.6269 0 0 209
-24.4973 51.7393 16.8075 0 0 136
-24.407 50.4403 17.1946 0 0 136
-24.9941 51.8468 15.9069 0 0 136
-24.4973 51.7393 16.8075 0 0 136
-24.7967 51.4664 14.5763 0 0 180
-25.0393 50.2449 15.2043 0 0 214
-24.9941 51.8468 15.9069 0 0 180
-24.3015 50.9922 12.9667 0 0 155
-24.7967 51.4664 14.5763 0 0 155
-35.5955 43.616 20.8172 0 0 149
-34.8175 42.3395 21.2176 0 0 149
-35.301 44.5336 19.4748 0 0 215
-36.2638 44.8389 20.4815 0 0 181
-35.5955 43.616 20.8172 0 0 181
-25.7337 47.5182 4.81013 0 0 188
-27.4269 47.3152 5.12698 0 0 188
-26.7135 46.9439 6.16949 0 0 226
-23.8648 48.5581 6.03299 0 0 195
-24.5107 47.2532 7.13302 0 0 237
-23.3551 48.6644 7.31338 0 0 195
-24.3059 48.5091 4.97614 0 0 147
-23.8648 48.5581 6.03299 0 0 147
-25.7337 47.5182 4.81013 0 0 151
-24.3059 48.5091 4.97614 0 0 151
-37.4041 46.5134 19.2843 0 0 159
-36.9123 45.7118 19.8527 0 0 159
-36.4612 46.558 18.5707 0 0 182
-37.4041 46.5134 19.2843 0 0 136
-37.4195 46.3515 18.1331 0 0 136
-37.3094 46.286 17.2906 0 0 139
-36.7305 45.9256 16.2994 0 0 139
-31.7597 35.291 24.9895 0 0 150
-31.9214 34.5828 26.1952 0 0 150
-30.3874 34.8474 23.8459 0 0 246
-31.3879 36.14 23.6355 0 0 201
-31.7597 35.291 24.9895 0 0 201
-27.5202 33.0578 30.0424 0 0 177
-27.8885 33.6894 31.798 0 0 177
-26.8642 33.7987 31.3201 0 0 210
-28.4395 32.7529 28.643 0 0 180
-27.5202 33.0578 30.0424 0 0 180
-27.4152 32.8622 28.1651 0 0 214
-29.6095 32.8914 27.6191 0 0 154
-28.4395 32.7529 28.643 0 0 154
-29.5468 33.2779 25.9827 0 0 233
-30.8219 33.6119 26.8362 0 0 193
-29.6095 32.8914 27.6191 0 0 193
-22.5274 42.3439 26.1255 0 0 207
-22.5167 43.5617 25.1349 0 0 207
-22.4268 41.5891 24.5494 0 0 254
-22.5274 42.3439 26.1255 0 0 168
-23.0566 41.2347 27.2659 0 0 168
-24.3972 41.3721 30.0524 0 0 204
-23.7211 40.3999 28.3821 0 0 204
-24.4425 39.674 29.4425 0 0 250
-24.3972 41.3721 30.0524 0 0 151
-25 42.0881 31.5949 0 0 151
-23.1735 39.4179 32.4005 0 0 149
-23.895 38.5287 32.7103 0 0 167
-22.7437 38.593 32.6012 0 0 149
-23.8384 40.4996 32.4977 0 0 135
-23.1735 39.4179 32.4005 0 0 135
3 0 83 84
3 0 85 87
3 87 86 21
3 85 86 87
3 0 21 23
3 1 26 25
3 1 29 27
3 1 25 29
3 88 31 89
3 90 33 91
3 92 91 31
3 90 91 92
3 94 93 33
3 2 36 34
3 3 95 97
3 95 37 96
3 95 96 97
3 2 40 38
3 2 34 40
3 4 98 99
3 5 44 42
3 5 46 44
3 5 48 46
3 6 51 49
3 101 100 22
3 7 54 52
3 6 55 24
3 6 49 55
3 9 58 56
3 11 59 28
3 11 102 104
3 104 103 59
3 102 103 104
3 11 105 106
3 108 107 30
3 109 60 110
3 13 61 32
3 13 62 61
3 13 64 62
3 14 67 65
3 16 68 35
3 16 111 113
3 113 112 68
3 111 112 113
3 114 69 115
3 116 115 50
3 114 115 116
3 17 117 118
3 17 119 121
3 119 70 120
3 119 120 121
3 8 71 53
3 18 72 39
3 18 73 72
3 18 74 73
3 14 75 41
3 14 65 75
3 15 76 66
3 10 122 124
3 124 123 57
3 122 123 124
3 125 77 126
3 12 127 128
3 19 78 43
3 19 79 78
3 19 80 79
3 20 81 45
3 20 82 81
3 20 129 131
3 131 130 82
3 129 130 131
3 133 132 47
3 135 134 63
3 21 22 6
3 136 22 137
3 138 137 21
3 136 137 138
3 140 139 22
3 23 24 7
3 21 24 23
3 21 6 24
3 25 141 142
3 26 143 145
3 145 144 25
3 143 144 145
3 26 146 147
3 27 28 9
3 29 28 27
3 29 11 28
3 29 30 11
3 25 30 29
3 25 148 150
3 150 149 30
3 148 149 150
3 31 151 152
3 31 153 154
3 31 155 157
3 155 32 156
3 155 156 157
3 33 32 31
3 33 13 32
3 33 158 160
3 160 159 13
3 158 159 160
3 162 161 33
3 34 35 14
3 36 35 34
3 36 16 35
3 37 163 164
3 37 165 167
3 165 17 166
3 165 166 167
3 38 39 8
3 40 39 38
3 40 18 39
3 40 41 18
3 34 41 40
3 34 14 41
3 169 168 15
3 171 170 10
3 42 43 12
3 44 43 42
3 44 19 43
3 44 45 19
3 46 45 44
3 46 20 45
3 46 47 20
3 48 47 46
3 48 172 174
3 174 173 47
3 172 173 174
3 49 50 2
3 51 50 49
3 51 175 177
3 177 176 50
3 175 176 177
3 22 51 6
3 178 51 179
3 180 179 22
3 178 179 180
3 182 181 51
3 52 53 3
3 54 53 52
3 54 8 53
3 24 54 7
3 55 54 24
3 55 8 54
3 55 38 8
3 49 38 55
3 49 2 38
3 56 57 4
3 58 57 56
3 58 10 57
3 28 58 9
3 59 58 28
3 59 10 58
3 59 183 185
3 185 184 10
3 183 184 185
3 187 186 59
3 30 188 190
3 190 189 11
3 188 189 190
3 192 191 30
3 60 193 194
3 60 195 197
3 195 12 196
3 195 196 197
3 32 198 200
3 198 60 199
3 198 199 200
3 61 60 32
3 61 12 60
3 61 42 12
3 62 42 61
3 62 5 42
3 62 63 5
3 64 63 62
3 64 201 203
3 203 202 63
3 201 202 203
3 204 64 205
3 206 205 13
3 204 205 206
3 207 64 208
3 210 209 64
3 65 66 1
3 67 66 65
3 67 15 66
3 35 67 14
3 68 67 35
3 68 15 67
3 68 211 213
3 213 212 15
3 211 212 213
3 216 215 68
3 214 215 216
3 50 36 2
3 69 36 50
3 69 16 36
3 217 69 218
3 219 69 220
3 221 16 222
3 223 222 69
3 221 222 223
3 225 224 16
3 70 226 227
3 70 228 230
3 228 4 229
3 228 229 230
3 53 37 3
3 71 37 53
3 71 17 37
3 39 71 8
3 72 71 39
3 72 17 71
3 72 70 17
3 73 70 72
3 73 4 70
3 73 56 4
3 74 56 73
3 74 9 56
3 41 74 18
3 75 74 41
3 75 9 74
3 75 27 9
3 65 27 75
3 65 1 27
3 66 26 1
3 76 26 66
3 76 231 233
3 233 232 26
3 231 232 233
3 234 76 235
3 236 235 15
3 234 235 236
3 237 76 238
3 240 239 76
3 57 241 243
3 243 242 4
3 241 242 243
3 245 244 57
3 247 246 10
3 77 248 249
3 77 250 252
3 250 3 251
3 250 251 252
3 43 253 255
3 255 254 12
3 253 254 255
3 78 256 258
3 258 257 43
3 256 257 258
3 78 259 260
3 78 261 263
3 261 77 262
3 261 262 263
3 79 77 78
3 79 3 77
3 79 52 3
3 80 52 79
3 80 7 52
3 45 80 19
3 81 80 45
3 81 7 80
3 81 23 7
3 82 23 81
3 82 0 23
3 82 264 266
3 266 265 0
3 264 265 266
3 268 267 82
3 47 269 271
3 271 270 20
3 269 270 271
3 273 272 47
3 63 48 5
3 274 48 275
3 276 275 63
3 274 275 276
3 278 277 48
