ply
format ascii 1.0
element vertex 120
property float x
property float y
property float z
property uchar red
property uchar green
property uchar blue
element face 99
property list uchar int vertex_index
end_header
-41.5799 -84.8252 -10.8233 179 255 76
-41.9903 -83.1571 -3.37033 255 145 0
-42.2245 -81.051 -6.71053 169 0 0
-44.7242 -77.4119 -8.88988 47 255 208
-40.6882 -86.2159 -9.06664 99 255 156
-42.96 -83.2074 0.258157 0 103 255
-42.1312 -84.3558 -1.86621 65 255 190
-42.7477 -81.6827 -0.989113 34 255 221
-41.6214 -79.186 -4.36419 197 255 58
-42.8726 -77.453 -5.87519 255 244 0
-44.009 -79.0615 -7.80685 172 0 0
-44.5635 -75.6267 -7.07732 92 255 163
-43.2655 -73.923 -8.08947 0 54 255
-40.7752 -85.7579 -4.3185 0 229 255
-40.739 -85.1207 -5.76573 43 255 212
-41.9898 -80.4632 -2.60392 89 255 166
-41.6214 -82.3316 -5.04524 255 92 0
-41.2648 -84.324 -7.04892 222 255 33
-42.5511 -82.9199 -8.47958 128 0 0
-43.8638 -81.1744 -9.90056 245 255 10
-44.9181 -74.3379 -7.95289 0 80 255
-40.1715 -86.7859 -8.42658 0 0 143
-38.9336 -87.4872 -9.10401 0 0 143
-42.8356 -81.3193 -0.354333 0 0 142
-42.8539 -82.4451 -0.365478 0 0 160
-42.9418 -82.0817 0.269302 0 0 142
-43.4244 -75.7272 -5.62456 0 0 143
-42.7821 -76.535 -5.04364 0 0 143
-44.2699 -74.8141 -6.22563 0 0 188
-43.7181 -76.5398 -6.47625 0 0 228
-43.4244 -75.7272 -5.62456 0 0 188
-40.2446 -85.8602 -11.8876 0 0 164
-39.8631 -86.1336 -10.8064 0 0 164
-41.9437 -84.0621 -11.6111 0 0 162
-40.2446 -85.8602 -11.8876 0 0 162
-41.8582 -79.0405 -2.66334 0 0 134
-42.0177 -79.947 -1.87505 0 0 134
-44.2541 -78.6182 -9.98696 0 0 180
-43.8239 -80.4994 -10.4923 0 0 180
-44.294 -79.2932 -9.39522 0 0 216
-44.445 -72.8945 -7.16881 0 0 161
-45.1029 -73.4291 -7.01882 0 0 161
-44.6297 -71.9858 -6.23473 0 0 135
-43.6745 -75.223 -8.8154 0 0 136
-42.9314 -75.0778 -8.99641 0 0 136
-39.4173 -86.8289 -9.92805 0 0 153
-38.9336 -87.4872 -9.10401 0 0 153
-41.1341 -85.5205 -9.94498 0 0 249
-39.8631 -86.1336 -10.8064 0 0 202
-39.4173 -86.8289 -9.92805 0 0 202
-42.5456 -83.7816 -0.804025 0 0 198
-41.7369 -84.8961 -1.09017 0 0 168
-42.1513 -84.3219 -0.027988 0 0 168
-42.1565 -77.4015 -4.28815 0 0 144
-41.674 -78.4019 -3.54348 0 0 144
-42.247 -78.3195 -5.11969 0 0 224
-42.1565 -77.4015 -4.28815 0 0 185
-42.7821 -76.535 -5.04364 0 0 185
-42.4932 -72.4378 -7.33163 0 0 151
-43.6187 -72.6871 -7.2371 0 0 151
-42.2963 -73.8809 -8.08191 0 0 146
-42.4932 -72.4378 -7.33163 0 0 146
-41.9622 -75.0357 -8.98885 0 0 142
-42.9314 -75.0778 -8.99641 0 0 177
-42.2963 -73.8809 -8.08191 0 0 177
-42.5026 -84.0298 1.03368 0 0 140
-42.1513 -84.3219 -0.027988 0 0 140
-43.3331 -83.0088 1.15935 0 0 136
-42.5026 -84.0298 1.03368 0 0 136
-42.9418 -82.0817 0.269302 0 0 134
-43.3331 -83.0088 1.15935 0 0 134
-41.1027 -85.2042 -2.21319 0 0 139
-41.7369 -84.8961 -1.09017 0 0 139
-40.4247 -85.9053 -3.43934 0 0 170
-41.1027 -85.2042 -2.21319 0 0 170
-41.4532 -85.0568 -3.09235 0 0 201
-39.5277 -86.6173 -4.55313 0 0 142
-40.4247 -85.9053 -3.43934 0 0 142
-39.9205 -86.8055 -5.36349 0 0 142
-39.5277 -86.6173 -4.55313 0 0 142
-39.9024 -86.4869 -6.0871 0 0 169
-39.9205 -86.8055 -5.36349 0 0 169
-40.7571 -85.4393 -5.04212 0 0 199
-40.1968 -86.2383 -6.77613 0 0 138
-39.9024 -86.4869 -6.0871 0 0 138
-42.3967 -80.5568 -1.06765 0 0 128
-42.8356 -81.3193 -0.354333 0 0 128
-42.3688 -81.0729 -1.79652 0 0 174
-42.3967 -80.5568 -1.06765 0 0 152
-42.0177 -79.947 -1.87505 0 0 152
-41.8056 -79.8246 -3.48406 0 0 196
-41.8582 -79.0405 -2.66334 0 0 167
-41.674 -78.4019 -3.54348 0 0 167
-40.4597 -85.84 -7.41772 0 0 169
-40.1968 -86.2383 -6.77613 0 0 169
-41.0019 -84.7224 -6.40732 0 0 199
-40.9765 -85.27 -8.05778 0 0 209
-40.1715 -86.7859 -8.42658 0 0 175
-40.4597 -85.84 -7.41772 0 0 175
-43.0857 -82.2367 -11.1497 0 0 208
-41.9437 -84.0621 -11.6111 0 0 208
-42.7218 -82.9998 -10.3619 0 3 255
-43.0857 -82.2367 -11.1497 0 0 147
-43.8239 -80.4994 -10.4923 0 0 147
-44.9256 -74.0735 -6.58103 0 0 139
-44.2699 -74.8141 -6.22563 0 0 139
-44.7408 -74.9823 -7.51511 0 0 182
-44.9256 -74.0735 -6.58103 0 0 157
-45.1029 -73.4291 -7.01882 0 0 157
-44.0918 -74.1304 -8.02118 0 0 202
-44.445 -72.8945 -7.16881 0 0 171
-43.6187 -72.6871 -7.2371 0 0 171
-44.5008 -75.4305 -8.74712 0 0 165
-44.0918 -74.1304 -8.02118 0 0 194
-43.6745 -75.223 -8.8154 0 0 165
-44.4038 -76.9675 -9.21561 0 0 151
-44.8212 -75.8749 -8.42139 0 0 172
-44.5008 -75.4305 -8.74712 0 0 151
-44.2541 -78.6182 -9.98696 0 0 134
-44.4038 -76.9675 -9.21561 0 0 134
3 21 4 22
3 23 7 24
3 25 24 5
3 23 24 25
3 26 9 27
3 28 11 29
3 30 29 9
3 28 29 30
3 0 31 32
3 0 33 34
3 1 13 6
3 1 14 13
3 35 15 36
3 2 16 8
3 2 17 16
3 2 18 17
3 3 19 10
3 3 37 39
3 39 38 19
3 37 38 39
3 40 20 41
3 40 41 42
3 44 43 12
3 4 45 46
3 4 47 49
3 47 0 48
3 47 48 49
3 5 50 52
3 50 6 51
3 50 51 52
3 7 6 5
3 7 1 6
3 53 8 54
3 9 55 57
3 55 8 56
3 55 56 57
3 9 2 8
3 9 10 2
3 11 10 9
3 11 3 10
3 58 12 59
3 60 12 61
3 64 63 12
3 62 63 64
3 65 5 66
3 67 5 68
3 70 69 5
3 6 71 72
3 13 73 75
3 75 74 6
3 73 74 75
3 13 76 77
3 13 78 79
3 14 80 82
3 82 81 13
3 80 81 82
3 14 83 84
3 85 7 86
3 15 87 89
3 87 7 88
3 87 88 89
3 15 1 7
3 8 90 92
3 90 15 91
3 90 91 92
3 16 15 8
3 16 1 15
3 16 14 1
3 17 14 16
3 17 93 95
3 95 94 14
3 93 94 95
3 17 96 98
3 96 4 97
3 96 97 98
3 18 4 17
3 18 0 4
3 10 18 2
3 19 18 10
3 19 0 18
3 19 99 101
3 101 100 0
3 99 100 101
3 103 102 19
3 104 11 105
3 20 106 108
3 106 11 107
3 106 107 108
3 20 3 11
3 12 109 111
3 109 20 110
3 109 110 111
3 112 20 113
3 114 113 12
3 112 113 114
3 115 3 116
3 117 116 20
3 115 116 117
3 119 118 3
