ply
format ascii 1.0
element vertex 428
property float x
property float y
property float z
property uchar red
property uchar green
property uchar blue
element face 352
property list uchar int vertex_index
end_header
-4.02899 -33.3918 30.6951 0 247 255
-6.77506 -22.626 31.2917 255 78 0
-11.5955 -44.2168 1.51106 0 187 255
-7.44533 -49.957 11.2316 8 255 247
-5.51717 -28.3497 30.4373 255 137 0
-7.75199 -33.9384 29.4628 255 16 0
-8.30526 -38.9336 27.5158 130 255 125
-10.4492 -45.9065 3.85954 46 255 209
-7.4879 -47.4347 20.3481 248 255 7
-5.9438 -50.484 14.1891 47 255 208
-10.8683 -51.2936 5.70824 0 180 255
-14.1464 -50.7366 3.92486 20 255 235
-6.96203 -16.3931 31.4924 0 218 255
-8.35772 -43.5039 24.5666 156 255 99
-5.9897 -4.73616 32.8648 0 254 255
-5.06944 -11.7948 32.7901 255 242 0
-4.09407 -18.3349 32.415 48 255 207
-8.64 -48.5648 8.79015 67 255 188
-4.47852 -30.8857 30.1707 205 255 50
-6.95691 -31.0303 30.1659 128 0 0
-5.38263 -33.5778 29.4693 221 0 0
-5.81736 -36.0333 28.861 255 208 0
-4.099 -35.6484 29.7594 0 236 255
-10.0617 -46.4206 5.15187 0 202 255
-4.9458 -48.3289 19.1278 128 255 127
-6.14064 -48.7158 17.2276 96 255 159
-6.91837 -19.6134 31.4315 174 255 81
-7.76982 -22.3167 30.3603 0 215 255
-6.51469 -40.8647 27.1013 184 255 71
-8.52909 -41.2044 26.1447 135 255 120
-6.62563 -43.1079 25.8423 206 255 49
-6.34035 -45.1821 23.9019 222 255 33
-3.86879 -9.50903 33.4186 96 255 159
-4.43653 -15.033 32.5441 163 255 92
-13.7085 -43.3967 2.76172 0 97 255
-12.1571 -43.3199 0.455297 0 97 255
-8.3708 -47.9369 12.6262 0 158 255
-8.07197 -49.3423 9.93919 0 221 255
-7.53012 -50.7289 7.15411 0 215 255
-6.38009 -25.5752 30.9721 211 0 0
-8.1254 -25.361 30.5027 106 255 149
-7.86162 -28.3154 30.4996 255 203 0
-8.59687 -31.0605 29.7557 69 255 186
-8.84598 -34.2525 28.6566 0 170 255
-8.06344 -36.5246 28.5842 231 255 24
-6.20469 -38.5232 28.1165 182 255 73
-10.9618 -45.0193 2.61881 53 255 202
-7.61099 -49.1054 15.7369 22 255 233
-6.69954 -50.3831 12.6475 31 255 224
-6.53171 -52.6167 9.54537 0 192 255
-8.93802 -49.0422 5.0238 4 255 251
-10.1464 -48.9076 3.81481 52 255 203
-8.16658 -45.6994 22.6448 182 255 73
-5.75642 -46.8083 21.776 248 255 7
-6.48218 -7.08839 32.1638 0 175 255
-4.32469 -6.00437 33.384 76 255 179
-5.60593 -8.24497 32.9661 255 50 0
-6.49703 -10.6138 32.2745 67 255 188
-6.18742 -14.0224 32.2919 221 255 34
-5.68891 -17.3744 32.0507 255 72 0
-5.34095 -20.4972 31.7055 233 255 22
-4.88528 -23.4466 31.4031 154 255 101
-4.35969 -26.2226 31.2347 34 255 221
-11.1953 -48.359 2.79135 234 255 21
-11.9039 -47.6137 1.73283 125 255 130
-12.3275 -46.6572 0.61728 38 255 217
-9.21006 -47.7171 7.566 0 233 255
-8.14178 -49.8972 6.10147 168 255 87
-9.92869 -46.5901 5.82623 0 0 132
-9.35104 -45.3777 6.0471 0 0 132
-5.20108 -49.4343 17.6936 0 0 143
-5.10479 -49.461 18.8556 0 0 143
-5.68723 -43.082 26.6174 0 0 189
-6.57016 -41.9863 26.4718 0 0 231
-5.63176 -41.9604 27.2469 0 0 189
-5.73466 -44.2772 25.8515 0 0 151
-5.68723 -43.082 26.6174 0 0 151
-12.652 -43.8068 2.13639 0 0 187
-13.1847 -43.5282 3.30155 0 0 159
-12.1282 -43.9383 2.67621 0 0 159
-7.90806 -48.9469 11.9289 0 0 202
-8.37989 -48.3194 13.4062 0 0 170
-7.91715 -49.3294 12.7088 0 0 170
-7.21365 -50.7834 9.75951 0 0 172
-7.52698 -50.4761 9.11332 0 0 172
-7.75865 -49.6496 10.5854 0 0 206
-5.24578 -38.337 28.5645 0 0 179
-6.01103 -37.2782 28.4887 0 0 216
-5.05212 -37.092 28.9368 0 0 179
-5.34394 -39.5402 28.1899 0 0 141
-5.24578 -38.337 28.5645 0 0 141
-10.9122 -44.8665 4.39417 0 0 136
-10.2331 -45.041 4.93683 0 0 136
-10.7055 -45.4629 3.23917 0 0 190
-11.1685 -44.4229 3.77381 0 0 161
-10.9122 -44.8665 4.39417 0 0 161
-7.84431 -47.5052 19.377 0 0 134
-7.89105 -46.5586 20.618 0 0 134
-6.15885 -51.8647 12.7608 0 0 180
-6.53672 -51.8142 11.99 0 0 180
-6.32167 -50.4336 13.4183 0 0 218
-11.7589 -51.2302 5.31738 0 0 181
-10.7937 -50.1045 4.97516 0 0 181
-9.90317 -50.1679 5.36602 0 0 220
-6.84313 -16.1682 30.898 0 0 134
-6.89729 -14.7024 31.448 0 0 134
-8.03282 -25.3045 29.8497 0 0 133
-8.32742 -26.8038 30.0096 0 0 133
-8.60692 -39.037 26.8745 0 0 128
-8.61128 -37.8397 27.5251 0 0 128
-8.56101 -42.499 24.5947 0 0 150
-8.64669 -41.3493 25.3837 0 0 150
-8.4434 -42.3541 25.3556 0 0 173
-8.44443 -43.5732 23.7466 0 0 129
-8.56101 -42.499 24.5947 0 0 129
-8.26215 -44.6016 23.6057 0 0 179
-8.34886 -44.671 22.7856 0 0 154
-8.44443 -43.5732 23.7466 0 0 154
-5.11477 -46.9693 22.7403 0 0 188
-6.04838 -45.9952 22.8389 0 0 229
-5.40674 -46.1562 23.8033 0 0 188
-5.01002 -47.749 21.5035 0 0 145
-5.11477 -46.9693 22.7403 0 0 145
-6.25205 -4.19458 32.3286 0 0 156
-6.3993 -2.42396 32.0484 0 0 130
-6.13695 -2.96554 32.5845 0 0 156
-6.23594 -5.91227 32.5143 0 0 185
-6.49829 -5.37069 31.9781 0 0 158
-6.25205 -4.19458 32.3286 0 0 158
-3.99852 -6.68476 34.1249 0 0 140
-4.13734 -5.01519 33.9812 0 0 140
-4.44314 -23.8845 32.0781 0 0 137
-4.41504 -22.4367 31.9766 0 0 137
-4.18034 -25.2724 31.9938 0 0 169
-4.62249 -24.8346 31.3189 0 0 201
-4.44314 -23.8845 32.0781 0 0 169
-14.105 -48.4836 1.50724 0 0 161
-13.6306 -48.8252 2.1957 0 0 161
-14.3168 -48.0054 0.949466 0 0 209
-12.1157 -47.1355 1.17506 0 6 255
-14.105 -48.4836 1.50724 0 0 209
-8.17337 -47.3342 9.15222 0 0 140
-8.30432 -47.8265 9.94668 0 0 140
-8.92503 -48.141 8.17807 0 0 198
-8.45839 -46.9103 8.54014 0 0 167
-8.17337 -47.3342 9.15222 0 0 167
-8.60051 -51.393 6.86287 0 0 135
-7.98597 -51.9322 7.17931 0 0 135
-6.91122 -53.4241 8.59166 0 0 140
-6.38698 -53.9675 9.1978 0 0 140
-4.19294 -36.8996 29.386 0 0 174
-5.05212 -37.092 28.9368 0 0 174
-4.95818 -35.8408 29.3102 0 0 208
-10.0394 -45.298 5.583 0 0 133
-9.35104 -45.3777 6.0471 0 0 133
-10.2555 -46.1635 4.50571 0 0 180
-10.2331 -45.041 4.93683 0 0 155
-10.0394 -45.298 5.583 0 0 155
-5.7985 -49.6277 16.7435 0 0 172
-5.54322 -48.5223 18.1777 0 0 205
-5.20108 -49.4343 17.6936 0 0 172
-5.70008 -50.5119 15.2242 0 0 167
-6.04222 -49.5999 15.7083 0 0 199
-5.7985 -49.6277 16.7435 0 0 167
-6.2051 -51.9124 13.8498 0 0 149
-5.70008 -50.5119 15.2242 0 0 149
-12.9522 -52.1665 5.8786 0 0 152
-11.9013 -52.1374 6.43033 0 0 152
-7.10987 -19.3903 30.8579 0 0 161
-7.1317 -17.7802 30.8884 0 0 161
-6.9402 -18.0032 31.462 0 0 189
-7.5356 -20.742 30.3223 0 0 161
-7.10987 -19.3903 30.8579 0 0 161
-7.34409 -20.9651 30.8959 0 0 189
-7.39838 -22.2671 29.7084 0 0 139
-7.5356 -20.742 30.3223 0 0 139
-5.59202 -45.3143 24.8813 0 0 198
-6.48299 -44.145 24.8721 0 0 245
-5.73466 -44.2772 25.8515 0 0 198
-5.40674 -46.1562 23.8033 0 0 148
-5.59202 -45.3143 24.8813 0 0 148
-5.36621 -3.59087 32.9864 0 0 145
-6.13695 -2.96554 32.5845 0 0 145
-3.68279 -10.2172 34.342 0 0 149
-3.77057 -8.43708 34.1422 0 0 149
-3.71637 -11.2287 33.4718 0 0 150
-3.68279 -10.2172 34.342 0 0 150
-4.31669 -12.3716 33.1575 0 0 182
-4.46912 -10.6519 33.1044 0 0 221
-3.71637 -11.2287 33.4718 0 0 182
-4.00024 -13.9906 33.0345 0 0 177
-4.75298 -13.4139 32.6671 0 0 213
-4.31669 -12.3716 33.1575 0 0 177
-4.03229 -15.6383 33.2607 0 0 141
-4.00024 -13.9906 33.0345 0 0 141
-3.86106 -17.2893 33.1962 0 0 183
-4.2653 -16.684 32.4795 0 0 222
-4.03229 -15.6383 33.2607 0 0 183
-13.389 -42.3315 3.30194 0 0 130
-13.1847 -43.5282 3.30155 0 0 130
-14.2551 -42.3858 2.95198 0 0 134
-13.389 -42.3315 3.30194 0 0 134
-14.1707 -43.158 2.18357 0 0 128
-14.2551 -42.3858 2.95198 0 0 128
-13.3949 -43.1196 1.03036 0 0 164
-14.1707 -43.158 2.18357 0 0 164
-12.9328 -43.3583 1.60851 0 0 194
-12.4665 -42.8369 -0.046956 0 0 164
-13.7043 -42.6366 0.52811 0 0 134
-13.3949 -43.1196 1.03036 0 0 164
-14.7518 -50.3866 3.29172 0 0 157
-16.3188 -51.4145 3.85978 0 0 157
-7.53961 -47.2181 13.7024 0 0 140
-8.37989 -48.3194 13.4062 0 0 140
-7.05689 -46.8646 12.7193 0 0 154
-7.53961 -47.2181 13.7024 0 0 154
-8.16972 -47.5126 11.8647 0 0 144
-7.05689 -46.8646 12.7193 0 0 144
-8.02031 -48.2153 10.5212 0 0 170
-8.16972 -47.5126 11.8647 0 0 170
-8.22139 -48.6396 11.2827 0 0 203
-8.35599 -48.9535 9.36467 0 0 187
-8.30432 -47.8265 9.94668 0 0 159
-8.02031 -48.2153 10.5212 0 0 159
-7.25605 -51.1694 7.72078 0 0 170
-7.80105 -50.0356 8.54665 0 0 203
-7.52698 -50.4761 9.11332 0 0 170
-7.98597 -51.9322 7.17931 0 0 130
-7.25605 -51.1694 7.72078 0 0 130
-8.19553 -28.281 30.0081 0 0 155
-8.32742 -26.8038 30.0096 0 0 155
-7.99351 -26.8382 30.5012 0 0 181
-8.56315 -29.6535 29.6361 0 0 153
-8.19553 -28.281 30.0081 0 0 153
-8.22925 -29.6879 30.1277 0 0 177
-8.57611 -31.2049 29.162 0 0 129
-8.56315 -29.6535 29.6361 0 0 129
-8.70067 -32.801 28.6125 0 0 155
-8.57611 -31.2049 29.162 0 0 155
-8.72142 -32.6565 29.2062 0 0 180
-8.59941 -34.3955 28.0095 0 0 134
-8.70067 -32.801 28.6125 0 0 134
-8.88164 -35.4992 28.0955 0 0 128
-8.59941 -34.3955 28.0095 0 0 128
-8.49037 -36.6352 28.0593 0 0 152
-8.88164 -35.4992 28.0955 0 0 152
-8.45471 -35.3886 28.6204 0 0 176
-8.18435 -37.7291 28.05 0 0 172
-8.61128 -37.8397 27.5251 0 0 149
-8.49037 -36.6352 28.0593 0 0 149
-5.49894 -40.711 27.6823 0 0 184
-6.35969 -39.694 27.6089 0 0 224
-5.34394 -39.5402 28.1899 0 0 184
-5.63176 -41.9604 27.2469 0 0 147
-5.49894 -40.711 27.6823 0 0 147
-11.8113 -44.3395 3.23009 0 0 134
-11.1685 -44.4229 3.77381 0 0 134
-11.2786 -44.618 2.06493 0 0 184
-12.1282 -43.9383 2.67621 0 0 158
-11.8113 -44.3395 3.23009 0 0 158
-7.17067 -48.1458 17.8168 0 0 182
-7.84431 -47.5052 19.377 0 0 182
-6.81427 -48.0753 18.7878 0 0 221
-7.90585 -48.3406 17.0715 0 0 185
-7.17067 -48.1458 17.8168 0 0 185
-6.87581 -48.9106 16.4823 0 0 225
-7.72089 -48.1039 16.1417 0 0 135
-7.90585 -48.3406 17.0715 0 0 135
-7.99998 -48.9036 14.9615 0 0 132
-7.72089 -48.1039 16.1417 0 0 132
-7.54426 -49.5425 13.4168 0 0 177
-7.99998 -48.9036 14.9615 0 0 177
-7.15527 -49.7443 14.1922 0 0 214
-7.07243 -50.1701 11.9395 0 0 206
-7.91715 -49.3294 12.7088 0 0 172
-7.54426 -49.5425 13.4168 0 0 172
-6.45281 -52.9311 10.439 0 0 191
-6.61563 -51.4999 11.0964 0 0 235
-6.53672 -51.8142 11.99 0 0 191
-6.30807 -54.2818 10.0914 0 0 143
-6.38698 -53.9675 9.1978 0 0 181
-6.45281 -52.9311 10.439 0 0 181
-6.15885 -51.8647 12.7608 0 0 151
-6.2051 -51.9124 13.8498 0 0 151
-9.54222 -48.9749 4.41931 0 0 210
-9.97105 -47.8336 5.1577 0 0 175
-9.36685 -47.9009 5.76219 0 0 175
-11.3979 -50.0372 4.37067 0 0 190
-9.54222 -48.9749 4.41931 0 0 233
-10.7937 -50.1045 4.97516 0 0 190
-13.3979 -50.9516 4.42569 0 0 196
-12.1464 -49.8221 3.86984 0 0 242
-11.3979 -50.0372 4.37067 0 0 196
-11.7589 -51.2302 5.31738 0 0 144
-12.9522 -52.1665 5.8786 0 0 144
-15.6108 -51.6555 4.48827 0 0 150
-13.3979 -50.9516 4.42569 0 0 150
-16.3188 -51.4145 3.85978 0 0 154
-15.6108 -51.6555 4.48827 0 0 154
-6.84313 -16.1682 30.898 0 0 133
-7.1317 -17.7802 30.8884 0 0 133
-7.85503 -23.7823 29.7785 0 0 163
-7.94761 -23.8389 30.4315 0 0 192
-8.03282 -25.3045 29.8497 0 0 163
-7.39838 -22.2671 29.7084 0 0 138
-7.85503 -23.7823 29.7785 0 0 138
-8.71883 -40.1724 26.189 0 0 148
-8.60692 -39.037 26.8745 0 0 148
-8.41717 -40.069 26.8302 0 0 169
-8.71883 -40.1724 26.189 0 0 128
-8.64669 -41.3493 25.3837 0 0 128
-8.23039 -45.691 21.7664 0 0 131
-8.34886 -44.671 22.7856 0 0 131
-7.82724 -46.5671 21.4964 0 0 179
-7.89105 -46.5586 20.618 0 0 154
-8.23039 -45.691 21.7664 0 0 154
-4.60471 -48.5093 20.1794 0 0 184
-5.35111 -47.5686 20.4519 0 0 223
-5.01002 -47.749 21.5035 0 0 184
-4.7637 -49.6414 19.9071 0 0 142
-5.10479 -49.461 18.8556 0 0 180
-4.60471 -48.5093 20.1794 0 0 180
-6.27388 -6.6597 31.702 0 0 128
-6.49829 -5.37069 31.9781 0 0 128
-6.45626 -8.36041 31.7375 0 0 128
-6.27388 -6.6597 31.702 0 0 128
-4.53371 -4.22498 33.246 0 0 181
-4.34636 -3.23579 33.8432 0 0 143
-4.13734 -5.01519 33.9812 0 0 181
-5.15719 -5.37027 33.1244 0 0 226
-5.36621 -3.59087 32.9864 0 0 185
-4.53371 -4.22498 33.246 0 0 185
-4.09674 -7.7567 33.4013 0 0 223
-3.99852 -6.68476 34.1249 0 0 183
-3.77057 -8.43708 34.1422 0 0 183
-6.46369 -10.1231 31.7928 0 0 152
-6.45626 -8.36041 31.7375 0 0 152
-6.48961 -8.8511 32.2191 0 0 176
-6.66479 -11.8128 31.839 0 0 128
-6.46369 -10.1231 31.7928 0 0 128
-6.50999 -13.5171 31.8477 0 0 156
-6.66479 -11.8128 31.839 0 0 156
-6.34223 -12.3181 32.2832 0 0 182
-6.57472 -15.2077 31.8922 0 0 185
-6.89729 -14.7024 31.448 0 0 158
-6.50999 -13.5171 31.8477 0 0 158
-3.97795 -18.8826 33.4391 0 0 149
-3.86106 -17.2893 33.1962 0 0 149
-4.01944 -19.8809 32.4825 0 0 149
-3.97795 -18.8826 33.4391 0 0 149
-4.64288 -20.962 32.1277 0 0 175
-4.71751 -19.4161 32.0602 0 0 210
-4.01944 -19.8809 32.4825 0 0 175
-5.11312 -21.9719 31.5543 0 0 206
-4.64288 -20.962 32.1277 0 0 172
-4.41504 -22.4367 31.9766 0 0 172
-4.2314 -26.6451 32.118 0 0 139
-4.18034 -25.2724 31.9938 0 0 139
-4.17106 -27.5136 31.2769 0 0 170
-4.2314 -26.6451 32.118 0 0 170
-4.04277 -27.9362 32.1602 0 0 137
-4.7498 -28.5772 30.8782 0 0 168
-4.93843 -27.2861 30.836 0 0 200
-4.17106 -27.5136 31.2769 0 0 168
-4.23047 -29.8452 30.7449 0 0 167
-4.99784 -29.6177 30.304 0 0 199
-4.7498 -28.5772 30.8782 0 0 167
-4.29609 -31.1111 31.0318 0 0 135
-4.23047 -29.8452 30.7449 0 0 135
-4.07132 -32.3642 31.294 0 0 165
-4.25375 -32.1388 30.4329 0 0 195
-4.29609 -31.1111 31.0318 0 0 165
-10.1041 -47.6641 4.48334 0 0 188
-9.92869 -46.5901 5.82623 0 0 160
-9.97105 -47.8336 5.1577 0 0 160
-13.2763 -49.1978 2.72496 0 0 212
-12.6708 -49.5478 3.3581 0 11 255
-14.7518 -50.3866 3.29172 0 0 212
-11.5496 -47.9863 2.26209 0 0 242
-13.2763 -49.1978 2.72496 0 0 196
-13.6306 -48.8252 2.1957 0 0 196
-14.6285 -47.6575 0.245211 0 0 223
-14.3168 -48.0054 0.949466 0 0 223
-16.6178 -49.0057 0.577397 0 0 164
-12.4497 -46.0875 0.023127 0 0 226
-14.6285 -47.6575 0.245211 0 0 226
-14.7507 -47.0878 -0.348942 0 0 165
-12.0837 -44.8673 0.470014 0 0 165
-11.9615 -45.437 1.06417 0 0 196
-12.4497 -46.0875 0.023127 0 0 165
-12.3644 -44.4189 -0.057865 0 0 157
-11.8763 -43.7684 0.983176 0 0 183
-12.0837 -44.8673 0.470014 0 0 157
-12.3247 -43.7538 -0.609555 0 0 132
-12.3644 -44.4189 -0.057865 0 0 132
-12.4665 -42.8369 -0.046956 0 0 128
-12.3247 -43.7538 -0.609555 0 0 128
-4.43761 -33.3169 31.8051 0 0 139
-4.07132 -32.3642 31.294 0 0 139
-4.09933 -34.6896 31.104 0 0 150
-4.43761 -33.3169 31.8051 0 0 150
-4.13434 -35.8179 30.6361 0 0 166
-4.064 -34.5201 30.2273 0 0 197
-4.09933 -34.6896 31.104 0 0 166
-4.07239 -37.1026 30.2596 0 0 139
-4.13434 -35.8179 30.6361 0 0 139
-4.19294 -36.8996 29.386 0 0 139
-4.07239 -37.1026 30.2596 0 0 139
-8.58509 -46.4189 7.84463 0 0 139
-8.45839 -46.9103 8.54014 0 0 139
-9.50287 -47.2384 7.03329 0 0 136
-8.58509 -46.4189 7.84463 0 0 136
-9.07404 -48.3797 6.2949 0 0 197
-9.36685 -47.9009 5.76219 0 0 166
-9.50287 -47.2384 7.03329 0 0 166
-8.90634 -50.9771 6.33655 0 0 158
-7.83595 -50.3131 6.62779 0 0 185
-8.60051 -51.393 6.86287 0 0 158
-10.2696 -51.6753 6.13993 0 0 169
-9.50505 -50.5954 5.90486 0 0 201
-8.90634 -50.9771 6.33655 0 0 169
-11.9013 -52.1374 6.43033 0 0 141
-10.2696 -51.6753 6.13993 0 0 141
-6.75684 -52.1133 8.91641 0 0 182
-7.21365 -50.7834 9.75951 0 0 182
-6.98852 -51.2869 10.3885 0 0 222
-6.75684 -52.1133 8.91641 0 0 135
-6.91122 -53.4241 8.59166 0 0 135
3 0 20 18
3 0 22 20
3 68 23 69
3 71 70 24
3 1 27 26
3 72 30 73
3 74 73 28
3 72 73 74
3 76 75 30
3 2 77 79
3 77 34 78
3 77 78 79
3 2 35 34
3 3 80 82
3 80 36 81
3 80 81 82
3 3 37 36
3 3 83 85
3 85 84 37
3 83 84 85
3 4 41 39
3 5 42 19
3 5 43 42
3 5 44 43
3 86 45 87
3 88 87 21
3 86 87 88
3 90 89 45
3 7 91 92
3 7 93 95
3 93 46 94
3 93 94 95
3 8 96 97
3 9 47 25
3 9 48 47
3 9 98 100
3 100 99 48
3 98 99 100
3 10 101 103
3 103 102 50
3 101 102 103
3 12 104 105
3 107 106 40
3 6 108 109
3 13 110 112
3 112 111 29
3 110 111 112
3 13 113 114
3 13 115 117
3 115 52 116
3 115 116 117
3 118 53 119
3 120 119 31
3 118 119 120
3 122 121 53
3 14 123 125
3 123 124 125
3 14 126 128
3 126 54 127
3 126 127 128
3 129 55 130
3 15 56 32
3 15 57 56
3 15 58 57
3 16 59 33
3 16 60 59
3 131 61 132
3 133 62 134
3 135 134 61
3 133 134 135
3 11 63 51
3 136 64 137
3 138 65 139
3 140 139 64
3 138 139 140
3 17 141 142
3 17 143 145
3 143 66 144
3 143 144 145
3 17 67 66
3 147 146 38
3 149 148 49
3 18 19 4
3 20 19 18
3 20 5 19
3 20 21 5
3 22 21 20
3 22 150 152
3 152 151 21
3 150 151 152
3 23 153 154
3 23 155 157
3 155 7 156
3 155 156 157
3 24 25 8
3 158 25 159
3 160 159 24
3 158 159 160
3 161 9 162
3 163 162 25
3 161 162 163
3 165 164 9
3 167 166 10
3 26 168 170
3 170 169 12
3 168 169 170
3 27 171 173
3 173 172 26
3 171 172 173
3 27 174 175
3 28 29 6
3 30 29 28
3 30 13 29
3 30 31 13
3 176 31 177
3 178 177 30
3 176 177 178
3 180 179 31
3 181 14 182
3 183 32 184
3 185 32 186
3 187 15 188
3 189 188 32
3 187 188 189
3 190 33 191
3 192 191 15
3 190 191 192
3 193 33 194
3 195 16 196
3 197 196 33
3 195 196 197
3 34 198 199
3 34 200 201
3 34 202 203
3 35 204 206
3 206 205 34
3 204 205 206
3 35 207 209
3 207 208 209
3 211 210 11
3 36 212 213
3 36 214 215
3 36 216 217
3 37 218 220
3 220 219 36
3 218 219 220
3 37 221 223
3 221 17 222
3 221 222 223
3 37 38 17
3 224 38 225
3 226 225 37
3 224 225 226
3 228 227 38
3 39 40 1
3 41 40 39
3 41 229 231
3 231 230 40
3 229 230 231
3 19 41 4
3 42 41 19
3 42 232 234
3 234 233 41
3 232 233 234
3 42 235 236
3 43 237 239
3 239 238 42
3 237 238 239
3 43 240 241
3 43 242 243
3 44 244 246
3 246 245 43
3 244 245 246
3 44 247 249
3 247 6 248
3 247 248 249
3 21 44 5
3 45 44 21
3 45 6 44
3 45 28 6
3 250 28 251
3 252 251 45
3 250 251 252
3 254 253 28
3 46 255 256
3 46 257 259
3 257 2 258
3 257 258 259
3 25 260 262
3 262 261 8
3 260 261 262
3 47 263 265
3 265 264 25
3 263 264 265
3 47 266 267
3 47 268 269
3 48 270 272
3 272 271 47
3 270 271 272
3 48 273 275
3 273 3 274
3 273 274 275
3 48 49 3
3 276 49 277
3 278 277 48
3 276 277 278
3 281 280 49
3 279 280 281
3 283 282 9
3 50 284 286
3 284 51 285
3 284 285 286
3 287 51 288
3 289 288 50
3 287 288 289
3 290 11 291
3 292 291 51
3 290 291 292
3 294 293 10
3 295 11 296
3 298 297 11
3 300 299 12
3 40 27 1
3 301 27 302
3 303 302 40
3 301 302 303
3 305 304 27
3 29 306 308
3 308 307 6
3 306 307 308
3 310 309 29
3 52 311 312
3 52 313 315
3 313 8 314
3 313 314 315
3 31 52 13
3 53 52 31
3 53 8 52
3 53 24 8
3 316 24 317
3 318 317 53
3 316 317 318
3 321 320 24
3 319 320 321
3 54 322 323
3 54 324 325
3 55 326 328
3 326 327 328
3 55 329 331
3 329 14 330
3 329 330 331
3 32 332 334
3 332 55 333
3 332 333 334
3 56 55 32
3 56 14 55
3 56 54 14
3 57 54 56
3 57 335 337
3 337 336 54
3 335 336 337
3 57 338 339
3 58 340 342
3 342 341 57
3 340 341 342
3 58 343 345
3 343 12 344
3 343 344 345
3 33 58 15
3 59 58 33
3 59 12 58
3 59 26 12
3 60 26 59
3 60 1 26
3 346 16 347
3 348 16 349
3 350 60 351
3 352 351 16
3 350 351 352
3 61 353 355
3 353 60 354
3 353 354 355
3 61 1 60
3 61 39 1
3 62 39 61
3 62 4 39
3 356 62 357
3 358 62 359
3 358 359 360
3 361 4 362
3 363 362 62
3 361 362 363
3 364 18 365
3 366 365 4
3 364 365 366
3 367 18 368
3 369 0 370
3 371 370 18
3 369 370 371
3 51 372 374
3 372 23 373
3 372 373 374
3 63 23 51
3 63 7 23
3 375 63 376
3 377 376 11
3 375 376 377
3 64 378 380
3 378 63 379
3 378 379 380
3 64 7 63
3 64 46 7
3 65 46 64
3 65 2 46
3 381 65 382
3 381 382 383
3 384 65 385
3 384 385 386
3 387 2 388
3 389 388 65
3 387 388 389
3 390 35 391
3 392 391 2
3 390 391 392
3 393 35 394
3 396 395 35
3 397 0 398
3 399 0 400
3 401 22 402
3 403 402 0
3 401 402 403
3 404 22 405
3 407 406 22
3 66 408 409
3 66 410 411
3 66 412 414
3 412 50 413
3 412 413 414
3 67 50 66
3 67 10 50
3 38 67 17
3 415 67 416
3 417 416 38
3 415 416 417
3 418 10 419
3 420 419 67
3 418 419 420
3 422 421 10
3 49 423 425
3 425 424 3
3 423 424 425
3 427 426 49
