ply
format ascii 1.0
element vertex 900
property float x
property float y
property float z
property uchar red
property uchar green
property uchar blue
element face 889
property list uchar int vertex_index
end_header
-52.9709 -6.02534 38.7083 106 255 149
-41.2901 -11.8388 48.5774 255 135 0
-10.6224 -29.8766 66.3333 237 255 18
-5.40265 -29.019 62.2256 255 187 0
-39.7128 -12.734 57.4942 0 234 255
-34.9462 -24.5956 50.7543 54 255 201
-32.7854 -19.2918 47.5345 255 204 0
-28.4665 -23.4545 56.9173 255 108 0
-23.9514 -22.8028 64.614 255 74 0
-56.9638 -1.45198 33.5489 36 255 219
-39.6908 -13.5216 33.8138 62 255 193
-6.98909 -19.4805 62.2745 60 255 195
-5.95047 -18.0648 70.0448 0 134 255
-48.1622 -10.4151 44.1618 3 255 252
-34.5728 -16.8949 38.5377 51 255 204
-19.0276 -21.8246 71.6641 0 139 255
-59.4908 1.08096 17.8424 0 68 255
-5.59456 -29.5786 53.1526 0 208 255
-5.27229 -29.462 70.9901 168 255 87
-36.4459 -22.2367 56.6459 231 255 24
-37.1513 -19.2862 55.1792 255 200 0
-33.4462 -22.422 60.9786 255 204 0
-32.191 -23.9262 54.6846 255 196 0
-31.5179 -21.7963 65.2959 194 255 61
-55.308 -3.94636 36.1643 13 255 242
-46.0001 -9.99959 36.6631 255 103 0
-48.7892 -7.27364 33.39 251 0 0
-50.8614 -5.07122 30.5241 230 0 0
-44.8556 -12.1415 45.8533 121 255 134
-35.2109 -14.2523 48.1271 255 72 0
-32.4719 -17.3942 42.8985 67 255 188
-37.435 -13.7363 43.5258 255 44 0
-40.4011 -14.0167 40.314 255 193 0
-21.3881 -24.751 56.6374 126 255 129
-18.7271 -24.8315 60.5419 255 176 0
-54.0968 -3.25749 23.3889 255 147 0
-55.6274 -2.81138 20.0903 9 255 246
-8.0274 -24.2074 63.6023 255 121 0
-9.11264 -25.2658 58.1556 255 88 0
-6.2904 -29.678 57.6756 235 255 20
-5.68647 -34.6013 54.211 0 158 255
-5.91292 -34.75 58.2671 55 255 200
-12.3483 -24.8411 72.9262 33 255 222
-8.80442 -24.4412 73.8771 25 255 230
-8.35704 -29.8079 70.8758 255 200 0
-39.5508 -11.6571 52.8161 218 255 37
-35.1741 -22.0111 49.5554 177 255 78
-35.3121 -16.1232 52.8507 255 90 0
-26.3851 -22.9237 60.9346 255 77 0
-57.7907 0.429109 29.9747 0 230 255
-52.5269 -4.11286 26.8028 247 0 0
-6.02643 -18.6706 66.4557 0 197 255
-6.27464 -23.8932 67.5264 255 253 0
-37.2895 -16.0208 35.7789 0 235 255
-43.4842 -12.1485 38.683 255 233 0
-14.8238 -25.0148 70.1043 255 123 0
-21.8026 -22.6815 68.7866 255 189 0
-16.4985 -24.9551 65.4709 162 0 0
-12.3889 -30.0314 61.3946 73 255 182
-7.22563 -20.5239 57.3576 76 255 179
-6.27709 -23.8923 71.6909 244 255 11
-4.06859 -29.071 66.9054 255 135 0
-37.0595 -21.0606 59.0439 165 255 90
-38.0339 -19.2568 58.4284 0 250 255
-35.198 -21.2868 61.952 88 255 167
-34.9264 -22.372 58.7866 255 238 0
-34.4053 -20.8966 64.6684 12 255 243
-54.2141 -5.04723 37.3845 38 255 217
-49.3271 -8.07567 37.7624 255 45 0
-47.4321 -8.68764 35.1717 238 0 0
-50.9139 -6.86682 36.1798 255 49 0
-52.1073 -5.72881 34.8867 255 122 0
-42.9975 -12.0659 47.038 193 255 62
-44.1546 -10.9484 49.7465 0 195 255
-38.0595 -12.8282 48.2765 255 51 0
-36.0209 -13.8186 45.6674 255 34 0
-39.5193 -12.8054 46.0917 255 43 0
-41.1224 -13.0457 44.4607 255 80 0
-56.7441 -1.08864 24.9193 71 255 184
-54.8966 -2.89181 21.6959 142 255 113
-57.3064 -0.760685 23.2375 20 255 235
-57.7652 -0.662399 21.5514 0 250 255
-6.41667 -26.602 62.7534 255 212 0
-7.21428 -26.9008 60.5005 255 161 0
-6.18126 -29.2912 60.0451 255 242 0
-6.3074 -32.0373 57.7388 255 248 0
-6.04286 -31.9067 60.1766 255 149 0
-11.5906 -27.3706 70.2814 255 41 0
-10.2658 -27.3733 72.037 255 176 0
-9.61373 -29.832 69.0246 255 235 0
-39.3862 -11.9071 55.3687 130 255 125
-35.136 -24.704 47.464 0 73 255
-35.7362 -23.4386 49.9472 11 255 244
-37.9185 -15.8971 56.9876 190 255 65
-36.2416 -17.6864 54.3633 255 110 0
-37.2728 -14.4564 55.6299 255 69 0
-36.8829 -13.5018 53.245 255 51 0
-26.0698 -23.825 54.8292 102 255 153
-28.0965 -24.1328 53.5884 79 255 176
-33.7656 -24.4019 52.8819 252 255 3
-31.6567 -24.782 51.5107 15 255 240
-33.109 -25.3145 49.8876 0 150 255
-30.0311 -22.912 61.2583 255 75 0
-28.9442 -22.5842 63.2821 255 94 0
-27.5126 -23.201 59.0093 255 91 0
-24.9214 -23.6713 56.6884 221 255 34
-57.5691 -0.387841 31.8965 76 255 179
-54.3859 -3.33341 32.3144 255 61 0
-51.7222 -4.33148 28.6944 214 0 0
-55.182 -2.53107 30.609 255 31 0
-55.7386 -2.00958 28.5419 255 51 0
-5.7881 -18.2587 68.249 0 175 255
-6.59471 -20.9854 67.4676 168 255 87
-6.16582 -20.8073 69.1254 194 255 61
-33.4782 -22.2688 46.6394 0 239 255
-32.2935 -21.0979 45.3392 0 185 255
-33.2845 -16.986 40.6568 64 255 191
-35.9403 -16.6332 36.9585 0 254 255
-44.1701 -12.5709 41.8746 255 117 0
-42.0275 -13.2957 39.336 255 235 0
-45.7057 -11.2514 41.3188 165 255 90
-47.0191 -10.1273 40.4211 76 255 179
-15.6784 -23.0173 72.5235 0 138 255
-16.994 -23.3796 71.2362 90 255 165
-25.2526 -21.7881 68.3991 47 255 208
-24.0017 -21.3249 69.8376 0 244 255
-22.8495 -22.729 66.7078 255 109 0
-16.5916 -27.0832 58.7161 89 255 166
-17.4232 -24.883 62.9128 128 0 0
-15.2723 -27.2532 60.7848 243 255 12
-14.2201 -27.3747 63.0548 255 126 0
-58.4601 -1.07102 17.4978 0 68 255
-58.4933 -1.2625 15.6025 0 50 255
-5.32207 -18.3953 58.8536 0 114 255
-7.20545 -19.9236 59.8096 195 255 60
-7.05298 -27.8388 55.477 248 255 7
-8.72473 -25.6589 55.6642 153 255 102
-6.68891 -27.6913 53.2595 0 152 255
-6.94228 -27.1159 72.802 156 255 99
-7.29263 -24.1279 73.1494 43 255 212
-5.6411 -26.8189 71.5852 205 255 50
-5.02711 -26.585 69.5851 255 209 0
-4.18066 -29.1846 69.3695 255 224 0
-35.7472 -23.5152 53.8727 237 255 18
-36.5624 -22.2196 52.8719 228 255 27
-37.3304 -20.95 55.6773 224 255 31
-38.3608 -17.6971 58.0087 21 255 234
-31.0211 -23.2675 59.0787 255 103 0
-30.45 -23.7564 55.7835 255 158 0
-32.9866 -23.1326 57.8578 255 202 0
-34.6236 -23.4149 56.1038 255 252 0
-33.5633 -20.1621 66.3516 0 179 255
-32.5974 -22.248 63.2294 255 171 0
-56.2188 -2.71166 34.9946 16 255 239
-42.5597 -11.4709 35.4333 255 137 0
-40.9543 -11.8814 32.5781 26 255 229
-44.027 -10.0263 34.1241 255 237 0
-45.4142 -8.69502 32.3414 217 255 38
-46.7283 -7.54674 30.3243 169 255 86
-47.6912 -6.77211 28.5608 149 255 106
-49.878 -6.15867 31.9349 255 49 0
-53.3083 -4.53851 33.6562 255 108 0
-46.5432 -11.6111 44.8629 129 255 126
-33.4814 -16.4878 47.9149 255 125 0
-32.2824 -18.1347 45.4408 164 255 91
-33.6368 -15.6436 45.3608 255 115 0
-34.3918 -15.2317 43.0119 255 116 0
-35.6268 -15.0217 40.9401 255 113 0
-37.1276 -14.9835 39.2516 255 195 0
-39.003 -13.8632 41.8521 255 111 0
-42.4809 -13.2876 42.9006 255 91 0
-22.6025 -23.5252 60.5282 255 53 0
-21.2985 -23.6969 62.526 255 5 0
-20.0964 -24.7543 58.568 151 255 104
-51.9823 -5.72502 21.5745 45 255 210
-53.0897 -5.56271 20.2061 0 205 255
-56.2408 -2.92743 18.4251 0 174 255
-58.0982 -0.896226 19.5867 0 95 255
-8.44022 -21.3819 63.5319 255 143 0
-9.21203 -21.8429 60.8427 255 44 0
-8.94849 -24.6116 61.0448 255 55 0
-7.44527 -27.4113 57.9705 255 185 0
-5.76667 -29.8023 55.3895 191 255 64
-5.27018 -31.9166 53.4495 0 219 255
-5.43181 -32.0832 55.5621 193 255 62
-5.32441 -34.6296 56.1718 0 238 255
-10.5543 -21.9093 74.0323 0 70 255
-10.5598 -24.6739 73.7613 63 255 192
-8.61165 -27.3449 72.9668 195 255 60
-6.82462 -29.713 71.4783 164 255 91
-40.0827 -11.6618 50.5959 255 148 0
-42.7597 -10.6814 51.2859 18 255 237
-42.1323 -10.3221 53.2358 0 180 255
-34.6675 -23.5306 47.0646 0 181 255
-33.8831 -20.5588 49.0081 255 241 0
-36.0176 -20.7095 52.1814 255 239 0
-34.992 -19.0656 51.472 255 169 0
-33.9163 -17.6628 50.0022 255 157 0
-34.9682 -14.9592 50.8045 255 106 0
-37.0975 -13.0486 50.6287 255 73 0
-29.8877 -24.5387 52.5554 35 255 220
-26.5063 -21.9961 66.7818 82 255 173
-30.0881 -21.4375 66.9829 0 235 255
-27.7261 -22.2313 65.0909 194 255 61
-25.1716 -22.8178 62.7536 255 85 0
-23.8068 -23.5309 58.6456 255 75 0
-22.5962 -25.0272 54.5621 4 255 251
-49.7019 -8.36459 22.6112 0 97 255
-48.7189 -6.30494 26.6825 168 255 87
-49.7548 -6.04302 24.9026 214 255 41
-50.906 -5.91118 23.1099 171 255 84
-53.2996 -3.7805 24.9362 255 92 0
-56.1433 -1.4763 26.7403 197 255 58
-6.51768 -19.0917 64.4535 0 247 255
-7.50777 -21.1575 65.729 254 255 1
-6.97457 -24.0489 65.6385 255 233 0
-5.69541 -26.4859 64.7911 255 214 0
-51.6358 -7.05305 40.1645 6 255 249
-38.5377 -14.9129 34.7684 0 252 255
-38.5995 -14.6741 38.0137 228 255 27
-40.0735 -13.899 37.0717 215 255 40
-41.404 -12.6755 36.3938 254 255 1
-44.7877 -11.1 37.7727 255 202 0
-48.1715 -9.13438 39.2457 193 255 62
-13.6754 -24.955 71.711 150 255 105
-12.6188 -27.2991 68.1137 207 0 0
-22.5072 -20.6145 70.7171 0 133 255
-20.5617 -22.4541 70.4569 93 255 162
-20.2265 -23.6895 64.8363 220 0 0
-19.2081 -23.7162 67.2677 255 26 0
-18.1519 -23.6675 69.4175 255 159 0
-15.6997 -25.0097 67.9448 255 1 0
-13.4942 -27.3553 65.6596 150 0 0
-11.4622 -30.0142 63.7632 222 255 33
-9.38151 -22.3707 58.0058 255 78 0
-8.97191 -22.8631 55.5318 0 238 255
-7.19459 -20.9729 72.7975 0 163 255
-6.34117 -20.7774 71.1253 84 255 171
-6.01963 -23.845 69.6521 255 220 0
-5.18607 -26.4595 67.2136 255 173 0
-4.57675 -29.0246 64.5229 255 135 0
-7.82289 -32.4971 67.7426 28 255 227
-6.58792 -32.4217 69.4023 14 255 241
-5.085 -32.3396 69.727 0 202 255
-3.84598 -32.1697 68.7637 0 253 255
-3.4507 -32.013 66.7182 87 255 168
-3.87143 -31.9988 64.3605 102 255 153
-4.83872 -32.0639 62.2808 205 255 50
-5.39953 -35.0654 60.631 7 255 248
-38.18 -18.9826 60.1095 0 0 226
-36.9225 -19.8305 61.9326 0 0 226
-36.9225 -19.8305 61.9326 0 0 243
-36.1288 -21.1737 60.498 0 50 255
-35.9917 -19.9436 63.3866 0 0 243
-35.9917 -19.9436 63.3866 0 0 128
-35.8218 -19.8889 63.6012 0 0 128
-54.078 -4.87658 38.9461 0 0 163
-54.6996 -4.38753 38.2842 0 0 163
-53.5925 -5.53629 38.0464 0 0 186
-57.9322 0.352757 24.6625 0 0 172
-57.0252 -0.92466 24.0784 0 0 199
-57.6511 0.188782 25.5035 0 0 172
-58.1147 0.551662 23.7516 0 0 146
-57.9322 0.352757 24.6625 0 0 146
-40.6089 -11.6666 57.5721 0 0 175
-40.4456 -11.2531 56.5094 0 0 175
-39.5495 -12.3205 56.4314 0 0 204
-35.3412 -24.0171 50.3508 0 0 180
-35.0219 -24.5255 49.0509 0 0 159
-34.627 -25.104 49.4545 0 0 159
-34.627 -25.104 49.4545 0 0 159
-33.7084 -25.4634 49.0211 0 0 159
-34.0276 -24.955 50.321 0 0 179
-56.9848 -0.125108 33.7693 0 0 164
-57.2875 0.406961 32.9431 0 0 164
-57.2664 -0.91991 32.7227 0 0 187
-39.8199 -14.2592 32.6976 0 0 149
-39.1576 -15.1366 33.3702 0 0 149
-5.86928 -18.1618 69.1469 0 0 174
-5.87678 -17.0657 68.6024 0 0 155
-5.95797 -16.9688 69.5003 0 0 155
-49.5395 -9.40584 45.0621 0 0 146
-48.8111 -9.73884 43.7656 0 0 146
-33.9787 -18.0868 38.6482 0 0 174
-33.3345 -18.1324 39.7078 0 0 174
-33.9287 -16.9405 39.5973 0 0 202
-34.656 -18.0175 37.7072 0 0 144
-33.9787 -18.0868 38.6482 0 0 144
-35.2566 -16.7641 37.7481 0 0 191
-35.3397 -17.8867 36.9176 0 0 167
-34.656 -18.0175 37.7072 0 0 167
-48.8111 -9.73884 43.7656 0 0 186
-47.5829 -10.157 42.3441 0 0 186
-46.9339 -10.8332 42.7403 0 0 220
-18.1545 -21.5426 71.9245 0 0 135
-18.8739 -20.878 71.2552 0 0 135
-18.0108 -22.6021 71.4501 0 0 176
-17.1377 -22.3201 71.7105 0 0 157
-18.1545 -21.5426 71.9245 0 0 157
-15.12 -28.4836 59.2062 0 0 190
-15.932 -27.1682 59.7505 0 0 227
-15.7796 -28.3986 58.1718 0 0 190
-14.4104 -28.586 60.0524 0 0 153
-15.12 -28.4836 59.2062 0 0 153
-59.3017 2.40709 17.2912 0 0 142
-59.1794 1.08761 16.8797 0 0 142
-59.1794 1.08761 16.8797 0 0 161
-58.6807 -0.084121 15.7597 0 0 161
-58.992 -0.090774 16.7225 0 0 183
-7.09727 -19.702 61.042 0 0 203
-6.28016 -18.8611 60.5134 0 0 174
-6.17198 -18.6395 61.7459 0 0 174
-6.10264 -29.4417 52.1082 0 0 162
-6.64981 -28.4981 52.1617 0 0 162
-6.14173 -28.635 53.206 0 0 184
-6.07531 -30.5522 52.403 0 0 140
-6.10264 -29.4417 52.1082 0 0 140
-39.0473 -16.6811 59.0852 0 0 160
-38.1973 -18.4769 58.2186 0 0 180
-38.8839 -17.461 59.295 0 0 160
-39.1212 -15.855 58.5497 0 0 146
-39.0473 -16.6811 59.0852 0 0 146
-34.366 -19.1377 66.3176 0 0 145
-33.4403 -18.6551 66.8214 0 0 145
-55.6727 -2.75173 36.3765 0 0 152
-56.1282 -2.13438 35.7916 0 0 152
-55.7634 -3.32901 35.5795 0 0 169
-46.4579 -11.3335 46.7898 0 0 180
-47.3016 -11.0683 46.2947 0 0 180
-45.6994 -11.8763 45.3581 0 0 211
-54.9181 -4.23587 19.4512 0 0 172
-54.5526 -4.27609 20.254 0 0 172
-55.262 -2.8516 20.8931 0 0 199
-55.5013 -4.39674 18.794 0 0 145
-54.9181 -4.23587 19.4512 0 0 145
-55.9341 -2.86941 19.2577 0 0 195
-55.808 -4.45477 17.9614 0 0 169
-55.5013 -4.39674 18.794 0 0 169
-58.6802 0.462381 20.916 0 0 170
-57.9317 -0.779312 20.569 0 0 196
-58.5138 0.579295 21.8983 0 0 170
-58.8023 0.260077 19.8044 0 0 145
-58.6802 0.462381 20.916 0 0 145
-5.61904 -35.9104 57.538 0 0 165
-5.32479 -35.8502 56.4903 0 0 165
-5.61866 -34.6898 57.2195 0 0 189
-11.454 -24.7575 73.3438 0 0 193
-11.5812 -23.4193 73.792 0 0 168
-12.4754 -23.5029 73.3744 0 0 168
-30.6696 -25.3149 50.6348 0 0 145
-31.4646 -25.6044 49.9746 0 0 145
-27.5585 -21.393 67.5976 0 0 143
-26.8574 -21.0588 68.1714 0 0 143
-30.803 -21.6169 66.1394 0 0 201
-31.063 -20.5336 67.3961 0 0 174
-31.7779 -20.7131 66.5526 0 0 174
-23.2494 -25.0718 53.6985 0 0 184
-23.7588 -24.3492 55.6252 0 0 218
-24.412 -24.3938 54.7617 0 0 184
-22.5203 -26.1139 53.2347 0 0 144
-23.2494 -25.0718 53.6985 0 0 144
-57.8847 1.96044 30.0992 0 0 146
-57.9377 0.766518 28.9784 0 0 146
-41.0792 -12.654 31.3801 0 0 149
-41.689 -11.2055 31.7764 0 0 149
-48.953 -8.38313 23.3536 0 0 143
-49.7881 -9.62898 23.1876 0 0 143
-57.9377 0.766518 28.9784 0 0 184
-57.114 -0.186187 27.3612 0 0 184
-56.967 -0.523597 28.3575 0 0 217
-5.71286 -17.6435 65.8575 0 0 138
-5.76456 -17.4381 66.7868 0 0 138
-6.27205 -18.8812 65.4546 0 0 186
-5.95848 -17.854 64.8564 0 0 163
-5.71286 -17.6435 65.8575 0 0 163
-52.3277 -6.51138 41.4193 0 0 148
-51.0011 -7.48966 40.9965 0 0 148
-43.8038 -10.0073 51.3584 0 0 141
-43.2352 -9.77346 52.2221 0 0 141
-32.1494 -18.726 43.109 0 0 178
-32.0546 -19.0963 44.3801 0 0 178
-32.3772 -17.7644 44.1696 0 0 207
-37.3515 -17.025 34.9154 0 0 142
-36.7093 -17.454 35.5605 0 0 142
-37.9136 -15.4668 35.2737 0 0 187
-37.9756 -16.471 34.4102 0 0 164
-37.3515 -17.025 34.9154 0 0 164
-49.2689 -8.53033 40.5371 0 0 180
-47.5953 -9.63082 39.8334 0 0 211
-48.6927 -9.02677 41.1248 0 0 180
-51.0011 -7.48966 40.9965 0 0 191
-49.9037 -8.09372 39.7051 0 0 228
-49.2689 -8.53033 40.5371 0 0 191
-11.664 -31.2312 61.1372 0 0 183
-11.2007 -31.2227 62.3215 0 0 183
-11.9255 -30.0228 62.5789 0 0 216
-6.24568 -19.6516 56.8749 0 0 178
-5.2939 -18.5873 57.6229 0 0 178
-6.27385 -19.4596 58.1056 0 0 209
-7.05191 -20.6902 56.1896 0 0 146
-6.24568 -19.6516 56.8749 0 0 146
-8.53648 -24.2742 54.5194 0 0 175
-8.84832 -24.261 55.598 0 0 203
-8.41289 -25.6721 54.5856 0 0 175
-8.59099 -22.8841 54.4378 0 0 147
-8.53648 -24.2742 54.5194 0 0 147
-6.45464 -34.2036 53.4662 0 0 171
-6.24649 -32.8612 53.0855 0 0 171
-5.47832 -33.2589 53.8302 0 0 197
-8.77155 -22.9419 73.8311 0 0 167
-9.64649 -21.676 73.9087 0 0 167
-9.67936 -23.1752 73.9547 0 0 192
-7.63038 -34.1558 66.3842 0 0 158
-8.2623 -32.6331 66.4697 0 0 158
-5.81923 -33.8917 68.9222 0 0 146
-6.4386 -34.0034 68.2731 0 0 146
-5.06777 -33.8506 69.0845 0 0 163
-5.83646 -32.3806 69.5647 0 0 186
-5.81923 -33.8917 68.9222 0 0 163
-3.43194 -33.7919 67.7841 0 0 167
-3.82163 -33.7912 68.5324 0 0 167
-3.40759 -35.4134 67.5527 0 0 142
-3.23429 -33.7135 66.7613 0 0 182
-3.64834 -32.0914 67.741 0 0 214
-3.43194 -33.7919 67.7841 0 0 182
-4.02913 -33.5908 63.4773 0 0 152
-3.56734 -33.683 64.5144 0 0 152
-4.51278 -33.6234 62.4375 0 0 183
-4.35508 -32.0313 63.3207 0 0 216
-4.02913 -33.5908 63.4773 0 0 183
-4.79318 -35.1241 61.6126 0 0 182
-5.11913 -33.5646 61.4559 0 0 215
-4.51278 -33.6234 62.4375 0 0 182
-38.6672 -18.0806 59.8017 0 0 183
-37.5467 -20.1587 58.7362 0 0 216
-38.18 -18.9826 60.1095 0 0 183
-38.8839 -17.461 59.295 0 0 146
-38.6672 -18.0806 59.8017 0 0 146
-35.4255 -19.6938 64.9595 0 0 142
-34.787 -19.5049 65.476 0 0 142
-34.8016 -21.0917 63.3102 0 0 241
-35.4255 -19.6938 64.9595 0 0 200
-35.8218 -19.8889 63.6012 0 0 200
-54.9405 -3.86674 37.5862 0 0 155
-55.4874 -3.3163 36.9761 0 0 155
-54.761 -4.4968 36.7744 0 0 173
-54.9405 -3.86674 37.5862 0 0 137
-54.6996 -4.38753 38.2842 0 0 137
-44.5292 -11.5299 47.8128 0 0 181
-45.4583 -11.5677 47.2204 0 0 181
-43.9266 -12.1037 46.4457 0 0 212
-45.1077 -10.9711 49.1671 0 0 180
-44.5292 -11.5299 47.8128 0 0 180
-43.576 -11.5071 48.3923 0 0 212
-45.2197 -10.2612 49.9566 0 0 138
-45.1077 -10.9711 49.1671 0 0 138
-20.4168 -25.8215 55.9014 0 0 151
-21.1668 -25.8691 55.0279 0 0 151
-58.3441 0.600805 22.9085 0 0 169
-57.5358 -0.711542 22.3944 0 0 194
-58.1147 0.551662 23.7516 0 0 169
-58.5138 0.579295 21.8983 0 0 145
-58.3441 0.600805 22.9085 0 0 145
-40.5757 -11.084 55.3534 0 0 184
-40.658 -10.9591 54.0771 0 0 184
-39.4685 -11.7821 54.0924 0 0 217
-40.5757 -11.084 55.3534 0 0 148
-40.4456 -11.2531 56.5094 0 0 148
-34.7219 -25.1582 47.8093 0 0 132
-35.0235 -25.8756 47.016 0 0 132
-35.4361 -24.0713 48.7056 0 0 172
-34.7219 -25.1582 47.8093 0 0 154
-35.0219 -24.5255 49.0509 0 0 154
-26.0007 -24.4677 53.1655 0 0 152
-24.9862 -24.4707 53.8321 0 0 152
-27.0141 -24.6216 52.5451 0 0 185
-26.0007 -24.4677 53.1655 0 0 185
-27.0832 -23.9789 54.2088 0 0 218
-28.0114 -24.7856 52.0732 0 0 148
-27.0141 -24.6216 52.5451 0 0 148
-32.1908 -25.8706 49.1631 0 0 170
-31.4646 -25.6044 49.9746 0 0 170
-32.3829 -25.0482 50.6992 0 0 196
-33.1247 -26.1597 48.6599 0 0 143
-32.1908 -25.8706 49.1631 0 0 143
-33.1247 -26.1597 48.6599 0 0 137
-33.7084 -25.4634 49.0211 0 0 137
-24.9862 -24.4707 53.8321 0 0 180
-24.412 -24.3938 54.7617 0 0 180
-25.4956 -23.7481 55.7588 0 0 211
-57.5813 1.03748 32.0178 0 0 169
-57.6921 1.44596 31.0568 0 0 169
-57.6799 0.020634 30.9356 0 0 195
-57.5813 1.03748 32.0178 0 0 144
-57.2875 0.406961 32.9431 0 0 144
-5.64539 -17.2322 67.6835 0 0 137
-5.87678 -17.0657 68.6024 0 0 137
-5.90726 -18.4647 67.3523 0 0 175
-5.76456 -17.4381 66.7868 0 0 156
-5.64539 -17.2322 67.6835 0 0 156
-34.0054 -22.9516 45.6459 0 0 135
-34.5173 -23.5462 45.876 0 0 135
-33.4131 -22.3661 44.9958 0 0 168
-34.0054 -22.9516 45.6459 0 0 168
-32.8858 -21.6833 45.9893 0 0 193
-32.8618 -21.8116 44.5045 0 0 138
-33.4131 -22.3661 44.9958 0 0 138
-32.7952 -18.2333 40.7981 0 0 172
-32.3889 -18.4374 41.9189 0 0 172
-32.8782 -17.1901 41.7776 0 0 199
-32.7952 -18.2333 40.7981 0 0 146
-33.3345 -18.1324 39.7078 0 0 146
-36.0347 -17.7602 36.1503 0 0 142
-35.3397 -17.8867 36.9176 0 0 142
-36.6149 -16.327 36.3687 0 0 188
-36.7093 -17.454 35.5605 0 0 165
-36.0347 -17.7602 36.1503 0 0 165
-48.2396 -9.59494 41.8953 0 0 186
-46.3624 -10.6893 40.8699 0 0 220
-47.5829 -10.157 42.3441 0 0 186
-48.6927 -9.02677 41.1248 0 0 155
-48.2396 -9.59494 41.8953 0 0 155
-16.4799 -22.139 72.3542 0 0 135
-15.5873 -21.9546 72.4508 0 0 135
-16.3362 -23.1985 71.8798 0 0 173
-16.4799 -22.139 72.3542 0 0 155
-17.1377 -22.3201 71.7105 0 0 155
-24.6272 -21.5565 69.1184 0 0 189
-24.8595 -20.2676 69.9678 0 0 166
-25.485 -20.4992 69.2485 0 0 166
-13.8843 -28.6467 61.1874 0 0 196
-14.7462 -27.314 61.9198 0 0 235
-14.4104 -28.586 60.0524 0 0 196
-12.9687 -29.975 60.3573 0 0 195
-13.3045 -28.7031 62.2247 0 0 234
-13.8843 -28.6467 61.1874 0 0 195
-12.4519 -31.2096 60.2945 0 0 146
-12.9687 -29.975 60.3573 0 0 146
-58.0944 -2.51963 16.1896 0 0 143
-57.6833 -2.2423 17.0597 0 0 143
-58.111 -2.61538 15.2419 0 0 165
-58.0944 -2.51963 16.1896 0 0 165
-58.4767 -1.16676 16.5501 0 0 188
-58.5272 -2.79778 14.502 0 0 140
-58.111 -2.61538 15.2419 0 0 140
-58.1995 -1.51565 14.7512 0 0 160
-58.2334 -3.05093 13.6507 0 0 139
-58.5272 -2.79778 14.502 0 0 160
-58.1995 -1.51565 14.7512 0 0 136
-58.6807 -0.084121 15.7597 0 0 136
-5.33847 -18.0969 60.0354 0 0 142
-5.59679 -17.1367 59.4764 0 0 142
-6.26376 -19.1594 59.3316 0 0 201
-5.33847 -18.0969 60.0354 0 0 174
-6.28016 -18.8611 60.5134 0 0 174
-7.39497 -26.6883 53.3832 0 0 166
-8.41289 -25.6721 54.5856 0 0 166
-7.70682 -26.6751 54.4618 0 0 190
-7.01608 -27.5287 52.2179 0 0 142
-7.39497 -26.6883 53.3832 0 0 142
-7.01608 -27.5287 52.2179 0 0 138
-6.64981 -28.4981 52.1617 0 0 138
-7.20904 -35.1272 54.1806 0 0 145
-6.24002 -35.617 54.7341 0 0 145
-40.4145 -12.1666 58.5615 0 0 142
-39.7972 -13.3735 58.2924 0 0 142
-38.9001 -14.955 58.0391 0 0 183
-38.1396 -16.7971 57.4981 0 0 216
-39.1212 -15.855 58.5497 0 0 183
-39.7972 -13.3735 58.2924 0 0 180
-38.8157 -14.3155 57.2409 0 0 211
-38.9001 -14.955 58.0391 0 0 180
-32.8006 -19.8959 67.0805 0 0 145
-33.4403 -18.6551 66.8214 0 0 145
-32.5406 -20.9792 65.8238 0 0 200
-31.7779 -20.7131 66.5526 0 0 173
-32.8006 -19.8959 67.0805 0 0 173
-33.9843 -20.5293 65.51 0 0 189
-34.366 -19.1377 66.3176 0 0 165
-34.787 -19.5049 65.476 0 0 165
-56.3654 -1.47142 35.1695 0 0 157
-56.7379 -0.841582 34.4467 0 0 157
-56.5913 -2.08182 34.2718 0 0 176
-56.3654 -1.47142 35.1695 0 0 134
-56.1282 -2.13438 35.7916 0 0 134
-55.6727 -2.75173 36.3765 0 0 134
-55.4874 -3.3163 36.9761 0 0 134
-43.2253 -10.2779 32.5494 0 0 198
-41.689 -11.2055 31.7764 0 0 198
-42.4907 -10.9539 33.3511 0 0 238
-43.919 -9.61228 31.6581 0 0 198
-43.2253 -10.2779 32.5494 0 0 198
-44.7206 -9.36065 33.2327 0 0 239
-44.6753 -9.09464 30.7247 0 0 159
-43.919 -9.61228 31.6581 0 0 159
-45.3323 -8.52051 29.7161 0 0 199
-44.6753 -9.09464 30.7247 0 0 199
-46.0712 -8.12088 31.3328 0 0 239
-46.132 -8.16258 28.7892 0 0 156
-45.3323 -8.52051 29.7161 0 0 156
-47.2097 -7.15943 29.4425 0 0 210
-46.6135 -7.77526 27.9075 0 0 179
-46.132 -8.16258 28.7892 0 0 179
-6.34952 -16.8533 70.3316 0 0 137
-5.95797 -16.9688 69.5003 0 0 137
-48.1349 -10.6065 45.8825 0 0 179
-48.9443 -10.0085 45.5319 0 0 179
-47.3527 -11.0131 44.5123 0 0 209
-48.8933 -10.0637 47.3142 0 0 149
-48.1349 -10.6065 45.8825 0 0 181
-47.3016 -11.0683 46.2947 0 0 181
-46.4579 -11.3335 46.7898 0 0 150
-45.4583 -11.5677 47.2204 0 0 150
-19.8156 -20.9507 71.3268 0 0 135
-18.8739 -20.878 71.2552 0 0 135
-19.7709 -25.8231 56.8666 0 0 186
-20.7423 -24.7526 57.6027 0 0 219
-20.4168 -25.8215 55.9014 0 0 186
-19.0542 -25.8499 57.7107 0 0 152
-19.7709 -25.8231 56.8666 0 0 152
-18.3696 -25.8885 58.6976 0 0 193
-19.4118 -24.7929 59.5549 0 0 230
-19.0542 -25.8499 57.7107 0 0 193
-17.3018 -27.0144 57.7847 0 0 194
-17.6594 -25.9574 59.629 0 0 232
-18.3696 -25.8885 58.6976 0 0 194
-16.5949 -28.3561 57.4286 0 0 150
-17.3018 -27.0144 57.7847 0 0 150
-15.7796 -28.3986 58.1718 0 0 150
-16.5949 -28.3561 57.4286 0 0 150
-59.4427 2.56231 18.402 0 0 145
-59.4986 1.24867 18.9323 0 0 145
-52.4327 -7.14002 20.8865 0 0 143
-51.6279 -7.08544 21.4376 0 0 143
-52.9864 -7.05887 20.2023 0 0 165
-52.4327 -7.14002 20.8865 0 0 165
-52.536 -5.64386 20.8903 0 0 189
-53.7705 -7.10788 19.7127 0 0 143
-52.9864 -7.05887 20.2023 0 0 143
-53.6492 -5.61153 19.5091 0 0 175
-53.9931 -4.22726 20.951 0 0 204
-54.5526 -4.27609 20.254 0 0 175
-53.7705 -7.10788 19.7127 0 0 142
-53.6492 -5.61153 19.5091 0 0 142
-56.4486 -4.70382 17.2355 0 0 147
-55.808 -4.45477 17.9614 0 0 147
-56.5737 -3.1705 17.5233 0 0 144
-56.4486 -4.70382 17.2355 0 0 144
-57.5024 -2.1549 18.1041 0 0 168
-56.5737 -3.1705 17.5233 0 0 168
-57.1695 -1.91183 19.0059 0 0 194
-58.2791 -0.983621 18.5422 0 0 199
-57.6833 -2.2423 17.0597 0 0 172
-57.5024 -2.1549 18.1041 0 0 172
-58.9832 0.172682 18.7599 0 0 170
-58.2791 -0.983621 18.5422 0 0 196
-58.8023 0.260077 19.8044 0 0 170
-59.4986 1.24867 18.9323 0 0 164
-58.9754 0.00497 17.6701 0 0 187
-58.9832 0.172682 18.7599 0 0 164
-6.05899 -35.6311 55.7146 0 0 161
-6.24002 -35.617 54.7341 0 0 161
-5.50544 -34.6154 55.1914 0 0 182
-6.05899 -35.6311 55.7146 0 0 141
-5.32479 -35.8502 56.4903 0 0 141
-11.5784 -22.037 73.9275 0 0 141
-11.3479 -20.9026 73.4264 0 0 141
-10.557 -23.2916 73.8968 0 0 195
-11.5784 -22.037 73.9275 0 0 169
-11.5812 -23.4193 73.792 0 0 169
-42.9215 -9.59382 53.197 0 0 158
-43.2352 -9.77346 52.2221 0 0 158
-42.446 -10.5018 52.2608 0 0 178
-41.9488 -10.2916 54.287 0 0 174
-40.8416 -10.9896 53.0259 0 0 202
-40.658 -10.9591 54.0771 0 0 174
-42.5296 -9.44617 54.1287 0 0 157
-41.9488 -10.2916 54.287 0 0 157
-42.346 -9.41562 55.1799 0 0 137
-42.9215 -9.59382 53.197 0 0 137
-42.5296 -9.44617 54.1287 0 0 137
-40.6089 -11.6666 57.5721 0 0 144
-40.4145 -12.1666 58.5615 0 0 144
-35.4893 -25.3861 46.643 0 0 133
-35.0235 -25.8756 47.016 0 0 133
-35.255 -24.7995 46.4433 0 0 142
-35.4893 -25.3861 46.643 0 0 142
-34.9017 -24.1173 47.2643 0 0 154
-35.112 -24.1771 46.0886 0 0 134
-35.255 -24.7995 46.4433 0 0 134
-34.0728 -22.8997 46.852 0 0 173
-34.5173 -23.5462 45.876 0 0 154
-35.112 -24.1771 46.0886 0 0 154
-28.907 -24.9886 51.5567 0 0 173
-28.0114 -24.7856 52.0732 0 0 173
-28.9921 -24.3357 53.0719 0 0 200
-29.7851 -25.1932 51.1571 0 0 169
-30.7722 -24.6603 52.033 0 0 195
-30.6696 -25.3149 50.6348 0 0 169
-28.907 -24.9886 51.5567 0 0 143
-29.7851 -25.1932 51.1571 0 0 143
-26.2306 -20.9547 68.98 0 0 141
-25.485 -20.4992 69.2485 0 0 141
-25.8795 -21.8921 67.5904 0 0 196
-26.2306 -20.9547 68.98 0 0 170
-26.8574 -21.0588 68.1714 0 0 170
-30.1857 -20.0411 67.9186 0 0 146
-31.063 -20.5336 67.3961 0 0 146
-29.3494 -21.1137 67.6981 0 0 144
-30.1857 -20.0411 67.9186 0 0 144
-28.1684 -21.5106 66.7521 0 0 178
-29.3494 -21.1137 67.6981 0 0 178
-28.9071 -21.8344 66.0369 0 0 209
-27.1162 -22.1137 65.9363 0 0 200
-27.5585 -21.393 67.5976 0 0 173
-28.1684 -21.5106 66.7521 0 0 173
-21.7709 -26.0071 53.9903 0 0 178
-21.1668 -25.8691 55.0279 0 0 178
-21.9922 -24.8891 55.5997 0 0 209
-21.7709 -26.0071 53.9903 0 0 145
-22.5203 -26.1139 53.2347 0 0 145
-57.8847 1.96044 30.0992 0 0 146
-57.6921 1.44596 31.0568 0 0 146
-56.9848 -0.125108 33.7693 0 0 138
-56.7379 -0.841582 34.4467 0 0 138
-40.4516 -13.4391 32.0797 0 0 176
-39.8199 -14.2592 32.6976 0 0 176
-40.3226 -12.7015 33.196 0 0 205
-40.4516 -13.4391 32.0797 0 0 149
-41.0792 -12.654 31.3801 0 0 149
-50.7171 -9.55755 22.733 0 0 143
-49.7881 -9.62898 23.1876 0 0 143
-50.4877 -8.40523 21.956 0 0 143
-50.7171 -9.55755 22.733 0 0 143
-47.2575 -7.62778 27.1104 0 0 147
-46.6135 -7.77526 27.9075 0 0 147
-47.7714 -7.39419 26.1713 0 0 177
-47.2575 -7.62778 27.1104 0 0 177
-48.2051 -6.53852 27.6217 0 0 207
-48.4615 -7.3533 25.3892 0 0 146
-47.7714 -7.39419 26.1713 0 0 146
-48.9794 -7.22234 24.4992 0 0 172
-48.4615 -7.3533 25.3892 0 0 172
-49.2369 -6.17398 25.7925 0 0 199
-49.7284 -7.2038 23.7569 0 0 200
-48.953 -8.38313 23.3536 0 0 172
-48.9794 -7.22234 24.4992 0 0 172
-51.0897 -7.17852 22.2053 0 0 168
-50.4877 -8.40523 21.956 0 0 168
-50.304 -7.13788 22.8606 0 0 193
-51.4441 -5.8181 22.3422 0 0 189
-51.6279 -7.08544 21.4376 0 0 165
-51.0897 -7.17852 22.2053 0 0 165
-57.4144 0.007646 26.4507 0 0 179
-56.4437 -1.28247 25.8298 0 0 209
-57.114 -0.186187 27.3612 0 0 179
-57.6511 0.188782 25.5035 0 0 148
-57.4144 0.007646 26.4507 0 0 148
-6.17113 -18.3472 62.7712 0 0 142
-6.17198 -18.6395 61.7459 0 0 142
-5.93543 -18.1528 63.8608 0 0 141
-5.95848 -17.854 64.8564 0 0 141
-6.75338 -19.2861 63.364 0 0 192
-6.17113 -18.3472 62.7712 0 0 168
-5.93543 -18.1528 63.8608 0 0 168
-9.66205 -31.3228 65.765 0 0 161
-10.2121 -31.1652 64.597 0 0 161
-52.9042 -6.06269 40.5815 0 0 173
-53.5718 -5.54883 39.8534 0 0 173
-52.3034 -6.53919 39.4364 0 0 200
-53.5961 -5.52101 41.8363 0 0 148
-52.9042 -6.06269 40.5815 0 0 177
-52.3277 -6.51138 41.4193 0 0 177
-49.5395 -9.40584 45.0621 0 0 146
-48.9443 -10.0085 45.5319 0 0 146
-44.5012 -10.1408 50.5888 0 0 160
-43.4571 -10.8149 50.5162 0 0 181
-43.8038 -10.0073 51.3584 0 0 160
-45.2197 -10.2612 49.9566 0 0 138
-44.5012 -10.1408 50.5888 0 0 138
-32.0602 -20.5779 44.3293 0 0 174
-32.288 -19.6163 45.39 0 0 202
-32.0546 -19.0963 44.3801 0 0 174
-32.8618 -21.8116 44.5045 0 0 143
-32.0602 -20.5779 44.3293 0 0 143
-32.1494 -18.726 43.109 0 0 146
-32.3889 -18.4374 41.9189 0 0 146
-38.581 -15.8322 33.8475 0 0 142
-37.9756 -16.471 34.4102 0 0 142
-39.1142 -14.2172 34.2911 0 0 189
-39.1576 -15.1366 33.3702 0 0 165
-38.581 -15.8322 33.8475 0 0 165
-13.2523 -23.7222 73.1646 0 0 138
-12.4754 -23.5029 73.3744 0 0 138
-14.9174 -22.8103 72.9632 0 0 135
-15.5873 -21.9546 72.4508 0 0 135
-13.9159 -23.7791 72.557 0 0 163
-14.9174 -22.8103 72.9632 0 0 163
-14.6769 -23.9862 72.1173 0 0 185
-13.0118 -24.8981 72.3186 0 0 186
-13.2523 -23.7222 73.1646 0 0 163
-13.9159 -23.7791 72.557 0 0 163
-23.9613 -20.0115 69.8578 0 0 139
-24.8595 -20.2676 69.9678 0 0 139
-23.2141 -19.6563 70.2976 0 0 158
-23.9613 -20.0115 69.8578 0 0 158
-23.2545 -20.9697 70.2774 0 0 178
-22.1776 -19.6316 70.1145 0 0 160
-22.8844 -18.6734 69.695 0 0 139
-23.2141 -19.6563 70.2976 0 0 160
-21.5554 -20.3456 70.8534 0 0 137
-22.1776 -19.6316 70.1145 0 0 137
-20.5827 -21.2654 70.7232 0 0 160
-21.5554 -20.3456 70.8534 0 0 160
-21.5344 -21.5343 70.587 0 0 181
-19.7946 -22.1393 71.0605 0 0 179
-19.8156 -20.9507 71.3268 0 0 159
-20.5827 -21.2654 70.7232 0 0 159
-10.632 -31.234 63.312 0 0 192
-10.2121 -31.1652 64.597 0 0 192
-11.0423 -29.9454 65.0483 0 0 229
-10.632 -31.234 63.312 0 0 150
-11.2007 -31.2227 62.3215 0 0 150
-11.664 -31.2312 61.1372 0 0 147
-12.4519 -31.2096 60.2945 0 0 147
-59.2536 3.88844 17.8507 0 0 146
-59.3017 2.40709 17.2912 0 0 175
-59.4427 2.56231 18.402 0 0 175
-54.078 -4.87658 38.9461 0 0 148
-53.5718 -5.54883 39.8534 0 0 148
-5.5408 -17.283 58.2827 0 0 144
-5.59679 -17.1367 59.4764 0 0 144
-5.51262 -17.4751 57.0519 0 0 145
-5.5408 -17.283 58.2827 0 0 172
-5.2939 -18.5873 57.6229 0 0 172
-7.92506 -21.8598 55.2766 0 0 180
-7.05191 -20.6902 56.1896 0 0 180
-8.09877 -21.6935 56.4447 0 0 211
-7.92506 -21.8598 55.2766 0 0 146
-8.59099 -22.8841 54.4378 0 0 146
-5.91311 -31.7212 52.5514 0 0 163
-6.07531 -30.5522 52.403 0 0 163
-5.43237 -30.7476 53.301 0 0 185
-5.91311 -31.7212 52.5514 0 0 143
-6.24649 -32.8612 53.0855 0 0 143
-7.9772 -34.7295 53.4358 0 0 146
-6.45464 -34.2036 53.4662 0 0 174
-7.20904 -35.1272 54.1806 0 0 174
-6.39844 -18.075 70.9508 0 0 140
-6.34952 -16.8533 70.3316 0 0 140
-10.4254 -20.5771 73.5181 0 0 142
-11.3479 -20.9026 73.4264 0 0 142
-10.4254 -20.5771 73.5181 0 0 141
-9.64649 -21.676 73.9087 0 0 141
-8.01565 -22.7853 73.4673 0 0 163
-8.77155 -22.9419 73.8311 0 0 163
-8.04852 -24.2845 73.5132 0 0 185
-7.96664 -21.2078 73.2913 0 0 169
-8.01565 -22.7853 73.4673 0 0 169
-7.24361 -22.5504 72.9735 0 0 194
-7.85156 -19.7509 72.8012 0 0 141
-7.96664 -21.2078 73.2913 0 0 141
-7.02051 -19.5291 72.3271 0 0 142
-7.85156 -19.7509 72.8012 0 0 142
-6.59379 -19.4313 71.491 0 0 165
-7.02051 -19.5291 72.3271 0 0 165
-6.76788 -20.8752 71.9614 0 0 188
-6.14582 -19.4211 70.585 0 0 192
-6.39844 -18.075 70.9508 0 0 167
-6.59379 -19.4313 71.491 0 0 167
-9.15772 -31.3005 67.1107 0 0 212
-10.1181 -29.8543 67.679 0 4 255
-9.66205 -31.3228 65.765 0 0 212
-8.71831 -31.1646 68.3836 0 0 240
-9.15772 -31.3005 67.1107 0 0 199
-8.2623 -32.6331 66.4697 0 0 199
-7.05608 -34.0411 67.4433 0 0 156
-7.63038 -34.1558 66.3842 0 0 156
-7.20541 -32.4594 68.5725 0 0 215
-7.05608 -34.0411 67.4433 0 0 183
-6.4386 -34.0034 68.2731 0 0 183
-4.44114 -33.8762 69.014 0 0 136
-5.06777 -33.8506 69.0845 0 0 136
-4.46549 -32.2546 69.2454 0 0 188
-4.44114 -33.8762 69.014 0 0 164
-3.82163 -33.7912 68.5324 0 0 164
-3.35697 -33.6901 65.6932 0 0 151
-3.23429 -33.7135 66.7613 0 0 151
-3.66107 -32.0059 65.5393 0 0 228
-3.35697 -33.6901 65.6932 0 0 191
-3.56734 -33.683 64.5144 0 0 191
-4.97829 -36.6524 60.9351 0 0 151
-4.79318 -35.1241 61.6126 0 0 151
-5.19432 -36.3256 59.8239 0 0 149
-4.97829 -36.6524 60.9351 0 0 149
-5.45101 -36.168 58.6419 0 0 179
-5.65622 -34.9077 59.4491 0 0 210
-5.19432 -36.3256 59.8239 0 0 179
-5.61904 -35.9104 57.538 0 0 146
-5.45101 -36.168 58.6419 0 0 146
3 250 249 62
3 251 62 252
3 253 252 64
3 251 252 253
3 254 64 255
3 0 256 258
3 258 257 67
3 256 257 258
3 0 70 68
3 0 67 70
3 1 73 72
3 1 76 74
3 1 72 76
3 259 80 260
3 261 260 78
3 259 260 261
3 263 262 80
3 3 84 82
3 3 86 84
3 2 89 87
3 4 264 266
3 266 265 90
3 264 265 266
3 5 267 269
3 267 92 268
3 267 268 269
3 4 95 93
3 4 90 95
3 7 98 97
3 5 101 99
3 5 270 272
3 272 271 101
3 270 271 272
3 7 104 102
3 7 97 104
3 9 273 275
3 275 274 106
3 273 274 275
3 10 276 277
3 9 109 107
3 9 106 109
3 12 278 280
3 278 111 279
3 278 279 280
3 12 113 111
3 13 281 282
3 6 115 114
3 14 283 285
3 285 284 116
3 283 284 285
3 14 286 287
3 14 288 290
3 288 117 289
3 288 289 290
3 13 120 118
3 13 291 293
3 293 292 120
3 291 292 293
3 15 294 295
3 15 296 298
3 296 123 297
3 296 297 298
3 8 126 124
3 299 129 300
3 301 300 127
3 299 300 301
3 303 302 129
3 16 304 305
3 16 132 131
3 16 306 308
3 308 307 132
3 306 307 308
3 11 309 311
3 309 134 310
3 309 310 311
3 17 137 135
3 17 312 314
3 314 313 137
3 312 313 314
3 17 315 316
3 18 140 138
3 18 142 140
3 19 145 143
3 317 146 318
3 319 318 63
3 317 318 319
3 321 320 146
3 21 149 147
3 19 150 65
3 19 143 150
3 322 151 323
3 21 152 66
3 21 147 152
3 24 324 326
3 326 325 153
3 324 325 326
3 25 156 154
3 26 157 69
3 26 158 157
3 26 160 158
3 24 161 71
3 24 153 161
3 28 327 329
3 329 328 162
3 327 328 329
3 29 165 163
3 31 166 75
3 31 167 166
3 31 169 167
3 28 170 77
3 28 162 170
3 33 173 171
3 35 175 174
3 36 330 332
3 332 331 79
3 330 331 332
3 36 333 334
3 36 335 337
3 335 176 336
3 335 336 337
3 338 177 339
3 340 339 81
3 338 339 340
3 342 341 177
3 37 180 178
3 39 181 83
3 39 182 181
3 39 184 182
3 41 185 85
3 41 343 345
3 345 344 185
3 343 344 345
3 42 346 348
3 346 187 347
3 346 347 348
3 44 188 88
3 44 189 188
3 45 192 190
3 46 193 91
3 46 194 193
3 20 195 144
3 47 196 94
3 47 197 196
3 47 198 197
3 45 199 96
3 45 190 199
3 22 200 148
3 350 349 100
3 351 201 352
3 23 353 355
3 353 202 354
3 353 354 355
3 48 203 103
3 48 204 203
3 48 205 204
3 356 206 357
3 358 357 105
3 356 357 358
3 360 359 206
3 49 361 362
3 364 363 155
3 365 207 366
3 27 208 159
3 50 209 108
3 50 210 209
3 50 211 210
3 49 212 110
3 49 367 369
3 369 368 212
3 367 368 369
3 51 370 371
3 51 372 374
3 372 213 373
3 372 373 374
3 51 214 213
3 52 215 112
3 52 216 215
3 376 375 217
3 378 377 191
3 30 379 381
3 381 380 164
3 379 380 381
3 53 382 383
3 53 384 386
3 384 218 385
3 384 385 386
3 32 219 168
3 54 220 119
3 54 221 220
3 54 222 221
3 387 223 388
3 389 388 121
3 387 388 389
3 390 217 391
3 392 391 223
3 390 391 392
3 55 224 122
3 55 225 224
3 56 226 125
3 56 227 226
3 34 228 172
3 57 229 128
3 57 230 229
3 57 231 230
3 58 232 130
3 58 233 232
3 58 393 395
3 395 394 233
3 393 394 395
3 59 396 398
3 398 397 133
3 396 397 398
3 59 399 400
3 38 234 179
3 401 235 402
3 403 402 136
3 401 402 403
3 405 404 235
3 40 406 408
3 408 407 183
3 406 407 408
3 43 409 411
3 411 410 186
3 409 410 411
3 60 236 139
3 60 237 236
3 60 238 237
3 61 239 141
3 61 240 239
3 412 241 413
3 414 242 415
3 416 243 417
3 418 417 242
3 416 417 418
3 419 244 420
3 419 420 421
3 422 245 423
3 424 423 244
3 422 423 424
3 425 246 426
3 427 247 428
3 429 428 246
3 427 428 429
3 430 248 431
3 432 431 247
3 430 431 432
3 62 63 19
3 433 63 434
3 435 434 62
3 433 434 435
3 437 436 63
3 64 65 21
3 62 65 64
3 62 19 65
3 438 66 439
3 64 440 442
3 440 66 441
3 440 441 442
3 64 21 66
3 67 443 445
3 445 444 24
3 443 444 445
3 447 446 67
3 68 69 25
3 70 69 68
3 70 26 69
3 70 71 26
3 67 71 70
3 67 24 71
3 72 448 450
3 450 449 28
3 448 449 450
3 73 451 453
3 453 452 72
3 451 452 453
3 73 454 455
3 74 75 29
3 76 75 74
3 76 31 75
3 76 77 31
3 72 77 76
3 72 28 77
3 457 456 33
3 78 79 35
3 80 79 78
3 80 36 79
3 80 81 36
3 458 81 459
3 460 459 80
3 458 459 460
3 462 461 81
3 82 83 37
3 84 83 82
3 84 39 83
3 84 85 39
3 86 85 84
3 86 41 85
3 87 88 42
3 89 88 87
3 89 44 88
3 90 463 465
3 465 464 45
3 463 464 465
3 467 466 90
3 468 91 469
3 92 470 472
3 470 91 471
3 470 471 472
3 92 46 91
3 93 94 20
3 95 94 93
3 95 47 94
3 95 96 47
3 90 96 95
3 90 45 96
3 97 473 474
3 98 475 477
3 477 476 97
3 475 476 477
3 98 478 479
3 99 100 22
3 101 100 99
3 101 480 482
3 482 481 100
3 480 481 482
3 101 483 484
3 486 485 101
3 102 103 23
3 104 103 102
3 104 48 103
3 104 105 48
3 97 105 104
3 97 487 489
3 489 488 105
3 487 488 489
3 106 490 492
3 492 491 49
3 490 491 492
3 494 493 106
3 107 108 27
3 109 108 107
3 109 50 108
3 109 110 50
3 106 110 109
3 106 49 110
3 111 495 496
3 111 497 499
3 497 51 498
3 497 498 499
3 111 112 51
3 113 112 111
3 113 52 112
3 114 500 501
3 115 502 504
3 504 503 114
3 502 503 504
3 115 505 506
3 116 507 509
3 509 508 30
3 507 508 509
3 511 510 116
3 117 512 513
3 117 514 516
3 514 53 515
3 514 515 516
3 118 119 32
3 120 119 118
3 120 54 119
3 120 121 54
3 517 121 518
3 519 518 120
3 517 518 519
3 521 520 121
3 522 122 523
3 123 524 526
3 524 122 525
3 524 525 526
3 123 55 122
3 124 527 529
3 527 125 528
3 527 528 529
3 126 125 124
3 126 56 125
3 127 128 34
3 129 128 127
3 129 57 128
3 129 130 57
3 530 130 531
3 532 531 129
3 530 531 532
3 533 58 534
3 535 534 130
3 533 534 535
3 537 536 58
3 131 538 539
3 132 540 542
3 542 541 131
3 540 541 542
3 132 543 544
3 132 545 547
3 545 546 547
3 549 548 132
3 550 133 551
3 134 552 554
3 552 133 553
3 552 553 554
3 134 59 133
3 135 136 38
3 137 136 135
3 137 555 557
3 557 556 136
3 555 556 557
3 137 558 559
3 561 560 137
3 563 562 40
3 138 139 43
3 140 139 138
3 140 60 139
3 140 141 60
3 142 141 140
3 142 61 141
3 565 564 4
3 143 144 5
3 145 144 143
3 145 20 144
3 63 145 19
3 146 145 63
3 146 20 145
3 146 93 20
3 566 93 567
3 568 567 146
3 566 567 568
3 569 4 570
3 571 570 93
3 569 570 571
3 147 148 7
3 149 148 147
3 149 22 148
3 65 149 21
3 150 149 65
3 150 22 149
3 150 99 22
3 143 99 150
3 143 5 99
3 151 572 573
3 151 574 576
3 574 23 575
3 574 575 576
3 66 577 579
3 577 151 578
3 577 578 579
3 152 151 66
3 152 23 151
3 152 102 23
3 147 102 152
3 147 7 102
3 153 580 582
3 582 581 9
3 580 581 582
3 584 583 153
3 586 585 24
3 154 155 10
3 156 155 154
3 156 587 589
3 589 588 155
3 587 588 589
3 69 156 25
3 157 156 69
3 157 590 592
3 592 591 156
3 590 591 592
3 157 593 594
3 158 595 597
3 597 596 157
3 595 596 597
3 158 598 599
3 158 600 602
3 600 159 601
3 600 601 602
3 160 159 158
3 160 27 159
3 71 160 26
3 161 160 71
3 161 27 160
3 161 107 27
3 153 107 161
3 153 9 107
3 603 12 604
3 162 605 607
3 607 606 13
3 605 606 607
3 610 609 162
3 608 609 610
3 612 611 28
3 163 164 6
3 165 164 163
3 165 30 164
3 75 165 29
3 166 165 75
3 166 30 165
3 166 116 30
3 167 116 166
3 167 14 116
3 167 168 14
3 169 168 167
3 169 32 168
3 77 169 31
3 170 169 77
3 170 32 169
3 170 118 32
3 162 118 170
3 162 13 118
3 613 15 614
3 171 172 8
3 173 172 171
3 173 34 172
3 615 173 616
3 617 616 33
3 615 616 617
3 618 173 619
3 620 34 621
3 622 621 173
3 620 621 622
3 623 127 624
3 625 624 34
3 623 624 625
3 626 127 627
3 629 628 127
3 631 630 16
3 174 632 633
3 175 634 636
3 636 635 174
3 634 635 636
3 175 637 638
3 79 175 35
3 639 175 640
3 641 640 79
3 639 640 641
3 643 642 175
3 176 644 645
3 176 646 647
3 81 176 36
3 177 176 81
3 177 648 650
3 650 649 176
3 648 649 650
3 177 651 653
3 651 131 652
3 651 652 653
3 654 131 655
3 656 655 177
3 654 655 656
3 657 16 658
3 659 658 131
3 657 658 659
3 178 179 11
3 180 179 178
3 180 38 179
3 83 180 37
3 181 180 83
3 181 38 180
3 181 135 38
3 182 135 181
3 182 17 135
3 182 183 17
3 184 183 182
3 184 40 183
3 85 184 39
3 185 184 85
3 185 40 184
3 185 660 662
3 662 661 40
3 660 661 662
3 664 663 185
3 665 186 666
3 187 667 669
3 667 186 668
3 667 668 669
3 187 43 186
3 88 187 42
3 188 187 88
3 188 43 187
3 188 138 43
3 189 138 188
3 189 18 138
3 190 191 1
3 192 191 190
3 192 670 672
3 672 671 191
3 670 671 672
3 673 192 674
3 675 674 45
3 673 674 675
3 676 192 677
3 676 677 678
3 680 679 192
3 682 681 4
3 91 683 684
3 193 685 687
3 687 686 91
3 685 686 687
3 193 688 689
3 193 690 692
3 690 114 691
3 690 691 692
3 194 114 193
3 194 6 114
3 144 92 5
3 195 92 144
3 195 46 92
3 94 195 20
3 196 195 94
3 196 46 195
3 196 194 46
3 197 194 196
3 197 6 194
3 197 163 6
3 198 163 197
3 198 29 163
3 96 198 47
3 199 198 96
3 199 29 198
3 199 74 29
3 190 74 199
3 190 1 74
3 148 98 7
3 200 98 148
3 200 693 695
3 695 694 98
3 693 694 695
3 100 200 22
3 696 200 697
3 698 697 100
3 696 697 698
3 700 699 200
3 701 124 702
3 201 703 705
3 703 124 704
3 703 704 705
3 201 8 124
3 202 706 707
3 202 708 709
3 103 202 23
3 203 202 103
3 203 710 712
3 712 711 202
3 710 711 712
3 203 713 715
3 713 201 714
3 713 714 715
3 204 201 203
3 204 8 201
3 204 171 8
3 205 171 204
3 205 33 171
3 105 205 48
3 206 205 105
3 206 33 205
3 206 716 718
3 718 717 33
3 716 717 718
3 720 719 206
3 722 721 49
3 724 723 9
3 155 725 727
3 727 726 10
3 725 726 727
3 729 728 155
3 207 730 731
3 207 732 733
3 159 734 735
3 208 736 738
3 738 737 159
3 736 737 738
3 208 739 740
3 108 208 27
3 209 208 108
3 209 741 743
3 743 742 208
3 741 742 743
3 209 744 746
3 744 207 745
3 744 745 746
3 210 207 209
3 210 747 749
3 749 748 207
3 747 748 749
3 210 750 752
3 750 174 751
3 750 751 752
3 211 174 210
3 211 35 174
3 110 211 50
3 212 211 110
3 212 35 211
3 212 78 35
3 753 78 754
3 755 754 212
3 753 754 755
3 757 756 78
3 758 11 759
3 213 760 761
3 213 762 764
3 762 11 763
3 762 763 764
3 213 178 11
3 214 178 213
3 214 37 178
3 112 214 51
3 215 214 112
3 215 37 214
3 215 82 37
3 216 82 215
3 216 3 82
3 766 765 2
3 217 767 769
3 769 768 0
3 767 768 769
3 772 771 217
3 770 771 772
3 774 773 13
3 191 73 1
3 775 73 776
3 777 776 191
3 775 776 777
3 779 778 73
3 164 115 6
3 780 115 781
3 782 781 164
3 780 781 782
3 784 783 115
3 786 785 30
3 218 787 788
3 218 789 791
3 789 10 790
3 789 790 791
3 168 117 14
3 219 117 168
3 219 53 117
3 119 219 32
3 220 219 119
3 220 53 219
3 220 218 53
3 221 218 220
3 221 10 218
3 221 154 10
3 222 154 221
3 222 25 154
3 121 222 54
3 223 222 121
3 223 25 222
3 223 68 25
3 217 68 223
3 217 0 68
3 792 42 793
3 122 794 795
3 224 796 798
3 798 797 122
3 796 797 798
3 224 799 801
3 799 42 800
3 799 800 801
3 224 87 42
3 225 87 224
3 225 2 87
3 125 802 803
3 226 804 806
3 806 805 125
3 804 805 806
3 226 807 809
3 807 808 809
3 226 810 811
3 227 812 814
3 814 813 226
3 812 813 814
3 227 815 817
3 815 15 816
3 815 816 817
3 172 126 8
3 228 126 172
3 228 56 126
3 128 228 34
3 229 228 128
3 229 56 228
3 229 227 56
3 230 227 229
3 230 15 227
3 230 123 15
3 231 123 230
3 231 55 123
3 130 231 57
3 232 231 130
3 232 55 231
3 232 225 55
3 233 225 232
3 233 2 225
3 233 818 820
3 820 819 2
3 818 819 820
3 822 821 233
3 824 823 58
3 827 826 16
3 825 826 827
3 829 828 0
3 133 830 831
3 834 833 133
3 832 833 834
3 179 134 11
3 234 134 179
3 234 59 134
3 136 234 38
3 235 234 136
3 235 59 234
3 235 835 837
3 837 836 59
3 835 836 837
3 839 838 235
3 183 840 842
3 842 841 17
3 840 841 842
3 844 843 183
3 847 846 40
3 845 846 847
3 848 12 849
3 186 850 851
3 853 852 186
3 139 854 856
3 856 855 43
3 854 855 856
3 236 857 859
3 859 858 139
3 857 858 859
3 236 860 861
3 236 862 863
3 237 864 866
3 866 865 236
3 864 865 866
3 237 867 869
3 867 12 868
3 867 868 869
3 237 113 12
3 238 113 237
3 238 52 113
3 141 238 60
3 239 238 141
3 239 52 238
3 239 216 52
3 240 216 239
3 240 3 216
3 870 89 871
3 872 871 2
3 870 871 872
3 241 873 875
3 873 89 874
3 873 874 875
3 241 44 89
3 876 241 877
3 242 878 880
3 878 241 879
3 878 879 880
3 242 44 241
3 242 189 44
3 243 189 242
3 243 18 189
3 881 243 882
3 244 883 885
3 883 243 884
3 883 884 885
3 244 18 243
3 244 142 18
3 245 142 244
3 245 61 142
3 886 245 887
3 246 888 890
3 888 245 889
3 888 889 890
3 246 61 245
3 246 240 61
3 247 240 246
3 247 3 240
3 247 86 3
3 248 86 247
3 248 41 86
3 891 248 892
3 893 248 894
3 895 41 896
3 897 896 248
3 895 896 897
3 899 898 41
