ply
format ascii 1.0
element vertex 154
property float x
property float y
property float z
property uchar red
property uchar green
property uchar blue
element face 133
property list uchar int vertex_index
end_header
-37.902 3.15083 13.5302 233 0 0
-32.3177 7.93453 12.9441 107 255 148
-34.9789 5.68245 13.8187 255 6 0
-35.1788 -1.47101 15.6869 14 255 241
-33.3119 -0.278597 13.0496 255 31 0
-33.0636 0.917299 9.89929 255 60 0
-30.8033 9.54039 11.0074 163 255 92
-40.8782 1.34748 13.8602 0 81 255
-38.1234 0.225572 15.8441 40 255 215
-36.4121 0.997364 15.3313 255 211 0
-33.5254 6.7957 13.5841 245 255 10
-33.6632 2.73439 13.7439 255 82 0
-32.7927 3.67545 12.7645 255 73 0
-32.9654 0.312925 11.6043 128 0 0
-32.2443 4.73174 11.6396 249 0 0
-32.0547 5.53082 10.4539 203 0 0
-31.4104 8.69297 12.0433 92 255 163
-38.1255 6.74604 12.5566 187 255 68
-36.4048 4.53112 13.6892 213 0 0
-36.7123 8.0614 13.2546 193 255 62
-35.0362 9.30153 13.5179 64 255 191
-34.9311 1.93586 14.5611 255 50 0
-34.0145 -0.879452 14.4812 233 255 22
-34.8506 -3.82127 12.8987 64 255 191
-34.8682 -3.32036 11.463 214 255 41
-35.0575 -2.91195 9.85879 145 255 110
-33.3364 1.46655 8.45472 148 255 107
-32.0611 6.12027 9.13762 251 255 4
-30.4477 10.3379 9.66236 0 233 255
-39.2866 2.17068 13.7212 26 255 229
-39.1415 5.48641 11.7585 39 255 216
-37.5122 9.01691 12.4922 0 0 175
-37.4189 7.40372 12.9056 0 0 215
-38.2188 8.35924 12.1431 0 0 175
-34.9771 11.0828 13.1029 0 0 140
-35.8069 10.2922 12.8804 0 0 140
-34.205 9.92895 13.4567 0 0 136
-34.9771 11.0828 13.1029 0 0 136
-35.2501 -3.29821 15.5719 0 0 135
-35.8374 -1.8382 16.1525 0 0 135
-35.0515 -2.95704 14.946 0 0 129
-35.2501 -3.29821 15.5719 0 0 129
-34.241 -0.756249 9.10237 0 0 191
-35.2379 -2.67087 9.08212 0 0 191
-34.0605 -0.997324 9.87904 0 0 239
-33.2 1.19193 9.177 0 0 233
-34.3774 -0.481621 8.38009 0 0 187
-34.241 -0.756249 9.10237 0 0 187
-40.2406 0.372213 14.9294 0 0 132
-40.9988 -0.034517 14.8543 0 0 132
-40.0824 1.75908 13.7907 0 0 210
-39.4448 0.783815 14.86 0 0 172
-40.2406 0.372213 14.9294 0 0 172
-40.0282 6.54214 10.9729 0 0 134
-39.6821 4.83216 11.4655 0 0 134
-39.4213 7.12798 11.4172 0 0 136
-40.0282 6.54214 10.9729 0 0 136
-37.3097 -0.989905 16.2311 0 0 131
-38.0579 -1.33662 16.5525 0 0 131
-36.454 -0.604009 15.9747 0 0 174
-37.3097 -0.989905 16.2311 0 0 174
-37.2678 0.611468 15.5877 0 0 214
-35.7955 -0.236824 15.5091 0 0 194
-35.8374 -1.8382 16.1525 0 0 161
-36.454 -0.604009 15.9747 0 0 161
-41.6739 0.998138 13.7009 0 0 134
-40.9988 -0.034517 14.8543 0 0 134
-36.6449 9.67215 12.7487 0 0 139
-37.5122 9.01691 12.4922 0 0 139
-35.8742 8.68146 13.3863 0 0 215
-36.6449 9.67215 12.7487 0 0 175
-35.8069 10.2922 12.8804 0 0 175
-33.4496 8.67603 13.4898 0 0 177
-34.2808 8.04861 13.551 0 0 218
-34.205 9.92895 13.4567 0 0 177
-32.8457 9.24545 13.1698 0 0 161
-32.9216 7.36511 13.2641 0 0 194
-33.4496 8.67603 13.4898 0 0 161
-32.1671 9.74337 13.0329 0 0 128
-32.8457 9.24545 13.1698 0 0 128
-34.4693 -2.66126 14.3431 0 0 175
-35.0515 -2.95704 14.946 0 0 175
-34.5967 -1.17523 15.0841 0 0 215
-34.8873 -4.13217 13.5519 0 0 163
-34.4693 -2.66126 14.3431 0 0 163
-34.4325 -2.35036 13.69 0 0 196
-34.5301 -5.93175 12.2513 0 0 182
-34.5669 -6.24264 12.9044 0 0 139
-34.8873 -4.13217 13.5519 0 0 182
-34.9104 -5.56438 11.5946 0 0 144
-34.5301 -5.93175 12.2513 0 0 144
-34.9192 -5.31393 10.8767 0 0 180
-34.9104 -5.56438 11.5946 0 0 180
-34.8594 -3.57082 12.1809 0 0 223
-35.3159 -4.96594 10.2463 0 0 141
-34.9192 -5.31393 10.8767 0 0 141
-35.4106 -4.76173 9.44422 0 0 182
-35.3159 -4.96594 10.2463 0 0 182
-34.9628 -3.11616 10.6609 0 0 225
-35.6484 -4.5232 8.75966 0 0 135
-35.4106 -4.76173 9.44422 0 0 135
-35.6484 -4.5232 8.75966 0 0 138
-35.2379 -2.67087 9.08212 0 0 138
-34.693 -0.368324 7.76795 0 0 137
-34.3774 -0.481621 8.38009 0 0 137
-33.4679 1.60965 7.73311 0 0 142
-34.693 -0.368324 7.76795 0 0 142
-32.8302 3.93651 8.07456 0 0 193
-33.4679 1.60965 7.73311 0 0 193
-32.6988 3.79341 8.79617 0 0 243
-32.1209 6.45553 8.43738 0 0 149
-32.8302 3.93651 8.07456 0 0 149
-31.3142 8.56435 8.69975 0 0 187
-32.1209 6.45553 8.43738 0 0 187
-31.2544 8.22909 9.39999 0 0 233
-30.4262 10.647 8.91914 0 0 143
-31.3142 8.56435 8.69975 0 0 143
-31.7135 10.1226 12.5824 0 0 157
-31.8641 8.31375 12.4937 0 0 188
-32.1671 9.74337 13.0329 0 0 157
-31.1383 10.6031 12.2329 0 0 129
-31.7135 10.1226 12.5824 0 0 129
-30.8348 11.0268 11.715 0 0 159
-31.1069 9.11668 11.5253 0 0 191
-31.1383 10.6031 12.2329 0 0 159
-30.3899 11.5059 11.2067 0 0 131
-30.8348 11.0268 11.715 0 0 131
-30.212 11.9046 10.5341 0 0 173
-30.6255 9.93915 10.3349 0 0 212
-30.3899 11.5059 11.2067 0 0 173
-29.9175 12.328 9.84515 0 0 137
-30.212 11.9046 10.5341 0 0 137
-30.4262 10.647 8.91914 0 0 138
-29.9175 12.328 9.84515 0 0 138
-38.8632 -0.18874 15.9214 0 0 131
-38.0579 -1.33662 16.5525 0 0 131
-38.705 1.19813 14.7827 0 0 202
-38.8632 -0.18874 15.9214 0 0 167
-39.4448 0.783815 14.86 0 0 167
-41.3597 2.31775 12.4511 0 0 137
-41.6739 0.998138 13.7009 0 0 137
-40.5505 2.76269 12.5163 0 0 140
-41.3597 2.31775 12.4511 0 0 140
-39.7547 3.17429 12.4468 0 0 177
-40.0824 1.75908 13.7907 0 0 218
-40.5505 2.76269 12.5163 0 0 177
-39.2141 3.82855 12.7399 0 0 218
-39.7547 3.17429 12.4468 0 0 177
-39.6821 4.83216 11.4655 0 0 177
-38.9133 7.75779 11.8162 0 0 167
-38.6335 6.11623 12.1575 0 0 203
-39.4213 7.12798 11.4172 0 0 167
-38.2188 8.35924 12.1431 0 0 134
-38.9133 7.75779 11.8162 0 0 134
3 0 9 8
3 1 12 10
3 1 14 12
3 1 16 14
3 31 19 32
3 33 32 17
3 31 32 33
3 34 20 35
3 37 36 20
3 3 38 39
3 3 40 41
3 2 21 18
3 4 22 11
3 4 23 22
3 4 24 23
3 5 25 13
3 5 42 44
3 44 43 25
3 42 43 44
3 5 45 47
3 45 26 46
3 45 46 47
3 6 27 15
3 6 28 27
3 7 48 49
3 7 50 52
3 50 29 51
3 50 51 52
3 53 30 54
3 56 55 30
3 8 57 58
3 9 59 61
3 61 60 8
3 59 60 61
3 9 62 64
3 62 3 63
3 62 63 64
3 10 11 2
3 12 11 10
3 12 4 11
3 12 13 4
3 14 13 12
3 14 5 13
3 14 15 5
3 16 15 14
3 16 6 15
3 65 7 66
3 17 18 0
3 19 18 17
3 19 2 18
3 67 19 68
3 20 69 71
3 69 19 70
3 69 70 71
3 20 2 19
3 20 10 2
3 72 10 73
3 74 73 20
3 72 73 74
3 75 1 76
3 77 76 10
3 75 76 77
3 79 78 1
3 18 9 0
3 21 9 18
3 21 3 9
3 11 21 2
3 22 21 11
3 22 3 21
3 22 80 82
3 82 81 3
3 80 81 82
3 23 83 85
3 85 84 22
3 83 84 85
3 23 86 88
3 86 87 88
3 23 89 90
3 24 91 93
3 93 92 23
3 91 92 93
3 24 94 95
3 13 24 4
3 25 24 13
3 25 96 98
3 98 97 24
3 96 97 98
3 25 99 100
3 102 101 25
3 26 103 104
3 26 105 106
3 15 26 5
3 27 26 15
3 27 107 109
3 109 108 26
3 107 108 109
3 27 110 111
3 28 112 114
3 114 113 27
3 112 113 114
3 28 115 116
3 117 16 118
3 119 118 1
3 117 118 119
3 120 16 121
3 122 6 123
3 124 123 16
3 122 123 124
3 125 6 126
3 127 28 128
3 129 128 6
3 127 128 129
3 130 28 131
3 133 132 28
3 134 8 135
3 29 136 138
3 136 8 137
3 136 137 138
3 29 0 8
3 139 7 140
3 141 7 142
3 143 29 144
3 145 144 7
3 143 144 145
3 30 146 148
3 146 29 147
3 146 147 148
3 30 0 29
3 30 17 0
3 149 17 150
3 151 150 30
3 149 150 151
3 153 152 17
