ply
format ascii 1.0
element vertex 179
property float x
property float y
property float z
property uchar red
property uchar green
property uchar blue
element face 169
property list uchar int vertex_index
end_header
-15.0879 46.5746 38.6982 255 49 0
-21.7804 47.1525 32.8288 98 255 157
-18.2888 36.2027 34.56 141 255 114
-14.8187 50.5318 32.2723 121 255 134
-10.7271 49.8944 36.0902 255 45 0
-11.9421 44.7989 41.5059 255 225 0
-21.3905 37.2998 32.235 0 160 255
-17.8195 46.7444 34.8571 255 187 0
-23.352 41.6457 32.4858 10 255 245
-19.7475 42.0631 33.0651 245 255 10
-16.7282 41.5933 36.4123 245 0 0
-17.6151 34.9403 39.483 168 255 87
-15.9568 40.7787 41.6596 201 255 54
-14.6956 48.4802 35.3651 168 0 0
-12.5258 49.9518 33.8117 255 62 0
-12.9934 47.7603 37.2179 164 0 0
-11.3504 47.177 38.9637 132 0 0
-13.4785 45.7466 40.143 255 103 0
-18.9248 49.5302 33.381 0 242 255
-19.4273 46.9425 33.4174 130 255 125
-19.4437 36.8032 32.8573 44 255 211
-20.197 39.5523 32.4394 208 255 47
-18.6904 39.3765 33.5939 255 169 0
-18.2478 42.0251 34.5342 255 143 0
-17.5703 38.9441 35.5064 255 1 0
-16.7858 38.0058 40.6041 255 225 0
-24.1482 46.7954 32.1953 23 255 232
-10.984 52.6048 33.274 35 255 220
-9.19717 49.6896 38.4459 151 255 104
-9.58044 46.8501 41.0146 249 255 6
-10.501 44.1205 43.2019 0 218 255
-16.8836 49.3234 34.1585 255 251 0
-16.6118 46.8542 36.6295 255 84 0
-24.8814 43.5301 32.0769 0 254 255
-23.0891 44.3656 32.6006 255 162 0
-22.0222 39.4823 32.2914 0 218 255
-21.3238 42.0124 32.2271 253 255 2
-20.6746 44.6494 32.7054 255 186 0
-18.926 44.439 33.8909 255 234 0
-17.4197 44.3938 35.58 255 148 0
-15.8985 44.2832 37.5872 255 2 0
-17.7862 35.6258 36.8903 245 255 10
-16.9484 38.5255 37.9305 128 0 0
-15.957 41.1122 38.9154 141 0 0
-14.8458 43.7151 40.0339 255 45 0
-14.3129 43.0537 42.0651 83 255 172
-21.0763 48.238 32.5381 0 0 133
-21.7599 48.2189 31.8369 0 0 133
-20.6038 47.0475 33.1231 0 0 202
-19.8997 48.133 32.8325 0 0 170
-21.0763 48.238 32.5381 0 0 170
-24.0831 46.2995 31.0194 0 0 153
-23.5265 47.9017 30.6441 0 0 153
-13.6703 51.4742 31.5036 0 0 152
-14.4114 51.0675 30.4882 0 0 152
-10.0554 51.2035 35.9902 0 0 202
-10.1838 52.5587 34.5821 0 0 202
-10.8555 51.2496 34.6821 0 0 251
-9.96215 49.792 37.2681 0 0 239
-9.29041 51.1011 37.1681 0 0 195
-10.0554 51.2035 35.9902 0 0 195
-24.1167 42.5879 32.2814 0 0 201
-25 42.0881 31.5949 0 0 169
-24.2353 41.1459 31.7993 0 0 169
-21.7063 38.391 32.2632 0 0 179
-22.7437 38.593 32.6012 0 0 154
-22.4279 37.5018 32.573 0 0 154
-18.1435 33.5735 38.7358 0 0 153
-18.2499 33.3355 40.1162 0 0 153
-17.7006 35.283 38.1866 0 0 244
-18.229 33.9163 37.4394 0 0 198
-18.1435 33.5735 38.7358 0 0 198
-19.6485 49.4269 32.8143 0 0 140
-18.4439 49.4928 31.5438 0 0 140
-19.176 48.2364 33.3992 0 0 182
-19.6485 49.4269 32.8143 0 0 157
-19.8997 48.133 32.8325 0 0 157
-23.8384 40.4996 32.4977 0 0 131
-24.2353 41.1459 31.7993 0 0 131
-17.8016 34.8231 40.8519 0 0 154
-18.2499 33.3355 40.1162 0 0 154
-17.387 36.3559 41.4125 0 0 204
-17.2005 36.473 40.0436 0 0 253
-17.8016 34.8231 40.8519 0 0 204
-16.971 37.9611 41.9714 0 0 156
-17.387 36.3559 41.4125 0 0 156
-16.5565 39.3476 42.4991 0 0 194
-16.3713 39.3922 41.1318 0 0 238
-16.971 37.9611 41.9714 0 0 194
-15.8732 40.6718 42.7865 0 0 142
-16.5565 39.3476 42.4991 0 0 142
-22.9438 48.0404 31.5202 0 0 148
-23.5265 47.9017 30.6441 0 0 148
-22.9643 46.9739 32.512 0 0 222
-21.7599 48.2189 31.8369 0 0 183
-22.9438 48.0404 31.5202 0 0 183
-12.5238 51.1842 32.2733 0 0 206
-13.6703 51.4742 31.5036 0 0 206
-13.6722 50.2418 33.042 0 1 255
-11.7529 52.5107 32.0045 0 0 204
-12.5238 51.1842 32.2733 0 0 204
-11.7549 51.2783 33.5428 0 0 254
-10.9837 53.8867 31.5903 0 0 158
-11.7529 52.5107 32.0045 0 0 158
-10.3091 53.8733 32.9002 0 0 153
-10.9837 53.8867 31.5903 0 0 153
-10.3091 53.8733 32.9002 0 0 155
-10.1838 52.5587 34.5821 0 0 155
-8.45347 50.6915 38.088 0 0 142
-9.29041 51.1011 37.1681 0 0 142
-8.41938 49.3814 39.4862 0 0 143
-8.45347 50.6915 38.088 0 0 143
-8.61101 47.9617 40.7705 0 0 192
-8.41938 49.3814 39.4862 0 0 192
-9.38881 48.2699 39.7302 0 0 235
-8.95503 46.521 42.0634 0 0 146
-8.61101 47.9617 40.7705 0 0 146
-9.41531 45.1562 43.157 0 0 187
-8.95503 46.521 42.0634 0 0 187
-10.0407 45.4853 42.1083 0 0 227
-9.88867 43.6373 44.2763 0 0 149
-9.41531 45.1562 43.157 0 0 149
-22.0396 36.2851 32.367 0 0 132
-22.4279 37.5018 32.573 0 0 132
-21.0987 35.8691 32.102 0 0 133
-22.0396 36.2851 32.367 0 0 133
-20.1253 35.6209 32.4132 0 0 167
-20.4171 37.0515 32.5462 0 0 198
-21.0987 35.8691 32.102 0 0 167
-19.412 35.1769 33.0207 0 0 137
-20.1253 35.6209 32.4132 0 0 137
-18.8345 34.8766 33.8721 0 0 176
-18.8662 36.503 33.7087 0 0 211
-19.412 35.1769 33.0207 0 0 176
-15.7174 50.4478 31.7194 0 0 147
-14.4114 51.0675 30.4882 0 0 147
-17.7705 49.947 32.2738 0 0 144
-18.4439 49.4928 31.5438 0 0 144
-16.7499 49.8437 32.6625 0 0 178
-17.7705 49.947 32.2738 0 0 178
-17.9042 49.4268 33.7698 0 0 214
-15.8511 49.9276 33.2154 0 0 206
-15.7174 50.4478 31.7194 0 0 172
-16.7499 49.8437 32.6625 0 0 172
-24.2786 42.814 30.5344 0 0 199
-24.3972 41.3721 30.0524 0 0 152
-25 42.0881 31.5949 0 0 199
-24.4497 44.6669 30.9603 0 0 165
-24.2786 42.814 30.5344 0 0 165
-24.5148 45.1627 32.1361 0 0 233
-24.0831 46.2995 31.0194 0 0 190
-24.4497 44.6669 30.9603 0 0 190
-23.1735 39.4179 32.4005 0 0 128
-22.7437 38.593 32.6012 0 0 128
-22.6871 40.564 32.3886 0 0 189
-23.8384 40.4996 32.4977 0 0 161
-23.1735 39.4179 32.4005 0 0 161
-18.5482 34.5001 34.9394 0 0 145
-18.8345 34.8766 33.8721 0 0 145
-18.2969 34.2116 36.1046 0 0 154
-18.229 33.9163 37.4394 0 0 154
-18.0375 35.9142 35.7251 0 0 234
-18.5482 34.5001 34.9394 0 0 191
-18.2969 34.2116 36.1046 0 0 191
-15.0513 41.8093 42.9893 0 0 175
-15.1349 41.9162 41.8624 0 0 209
-15.8732 40.6718 42.7865 0 0 175
-13.8491 42.58 42.6806 0 0 134
-15.0513 41.8093 42.9893 0 0 134
-12.6637 43.4526 42.401 0 0 164
-13.1275 43.9263 41.7855 0 0 193
-13.8491 42.58 42.6806 0 0 164
-11.9432 43.1135 43.249 0 0 189
-11.2215 44.4597 42.3539 0 0 231
-12.6637 43.4526 42.401 0 0 189
-11.1984 42.6267 43.8187 0 0 144
-11.9432 43.1135 43.249 0 0 144
-9.88867 43.6373 44.2763 0 0 152
-11.1984 42.6267 43.8187 0 0 152
3 0 15 13
3 0 17 15
3 1 46 47
3 1 48 50
3 48 19 49
3 48 49 50
3 2 22 20
3 2 24 22
3 51 26 52
3 3 53 54
3 4 27 14
3 4 55 57
3 57 56 27
3 55 56 57
3 4 58 60
3 58 28 59
3 58 59 60
3 5 29 16
3 5 30 29
3 7 31 18
3 7 32 31
3 8 61 63
3 61 33 62
3 61 62 63
3 8 34 33
3 6 64 66
3 64 35 65
3 64 65 66
3 9 36 21
3 9 37 36
3 9 38 37
3 10 39 23
3 10 40 39
3 11 67 68
3 11 69 71
3 69 41 70
3 69 70 71
3 11 42 41
3 12 43 25
3 12 44 43
3 12 45 44
3 13 14 3
3 15 14 13
3 15 4 14
3 15 16 4
3 17 16 15
3 17 5 16
3 72 18 73
3 19 74 76
3 74 18 75
3 74 75 76
3 19 7 18
3 77 8 78
3 20 21 6
3 22 21 20
3 22 9 21
3 22 23 9
3 24 23 22
3 24 10 23
3 79 11 80
3 81 25 82
3 83 82 11
3 81 82 83
3 84 25 85
3 86 12 87
3 88 87 25
3 86 87 88
3 90 89 12
3 26 91 92
3 26 93 95
3 93 1 94
3 93 94 95
3 14 96 98
3 98 97 3
3 96 97 98
3 27 99 101
3 101 100 14
3 99 100 101
3 27 102 103
3 27 104 105
3 107 106 27
3 28 108 109
3 28 110 111
3 16 28 4
3 29 28 16
3 29 112 114
3 114 113 28
3 112 113 114
3 29 115 116
3 30 117 119
3 119 118 29
3 117 118 119
3 30 120 121
3 122 6 123
3 124 6 125
3 126 20 127
3 128 127 6
3 126 127 128
3 129 20 130
3 131 2 132
3 133 132 20
3 131 132 133
3 134 3 135
3 18 136 137
3 31 138 140
3 140 139 18
3 138 139 140
3 31 141 143
3 141 3 142
3 141 142 143
3 31 13 3
3 32 13 31
3 32 0 13
3 33 144 146
3 144 145 146
3 33 147 148
3 33 149 151
3 149 26 150
3 149 150 151
3 34 26 33
3 34 1 26
3 35 152 153
3 35 154 156
3 154 8 155
3 154 155 156
3 21 35 6
3 36 35 21
3 36 8 35
3 36 34 8
3 37 34 36
3 37 1 34
3 37 19 1
3 38 19 37
3 38 7 19
3 23 38 9
3 39 38 23
3 39 7 38
3 39 32 7
3 40 32 39
3 40 0 32
3 157 2 158
3 41 159 160
3 41 161 163
3 161 2 162
3 161 162 163
3 41 24 2
3 42 24 41
3 42 10 24
3 25 42 11
3 43 42 25
3 43 10 42
3 43 40 10
3 44 40 43
3 44 0 40
3 44 17 0
3 45 17 44
3 45 5 17
3 164 45 165
3 166 165 12
3 164 165 166
3 167 45 168
3 169 5 170
3 171 170 45
3 169 170 171
3 172 30 173
3 174 173 5
3 172 173 174
3 175 30 176
3 178 177 30
