ply
format ascii 1.0
element vertex 120
property float x
property float y
property float z
property uchar red
property uchar green
property uchar blue
element face 100
property list uchar int vertex_index
end_header
-6.5769 16.7992 -10.435 0 141 255
-6.39842 26.3417 -10.686 81 255 174
-6.21451 19.9446 -16.3141 199 0 0
-6.01872 26.1714 -19.0721 196 255 59
-6.58516 23.2556 -13.4405 255 204 0
-6.83461 18.4406 -13.097 245 255 10
-6.59483 15.8687 -12.7482 77 255 178
-7.32795 24.586 -15.9747 246 255 9
-7.26721 25.8901 -14.0671 40 255 215
-6.20676 25.2079 -8.28242 0 227 255
-6.45881 23.3992 -9.64806 24 255 231
-6.60464 27.4573 -12.4161 0 161 255
-5.6798 28.1642 -9.33865 0 122 255
-5.49596 20.9208 -19.3994 255 152 0
-5.42189 18.257 -18.7984 0 168 255
-6.09046 17.1981 -15.8496 185 255 70
-4.85072 24.0699 -21.3255 190 255 65
-6.41003 23.093 -18.021 128 0 0
-6.82065 21.7312 -14.9767 255 53 0
-6.93814 20.1788 -12.0492 168 255 87
-6.60427 24.5963 -11.8925 234 255 21
-6.63703 21.6745 -10.9212 21 255 234
-6.54483 15.3858 -10.2843 0 0 177
-6.67368 16.2065 -11.6154 0 0 177
-6.70576 17.6199 -11.766 0 0 212
-7.86256 27.2512 -14.1179 0 0 146
-7.42693 26.7353 -15.4003 0 0 146
-6.07194 23.7494 -7.66256 0 0 141
-5.94896 24.6644 -6.9113 0 0 141
-5.66531 29.2057 -8.61041 0 0 135
-5.83548 29.6163 -9.65439 0 0 135
-5.96748 27.6516 -8.05511 0 0 142
-5.66531 29.2057 -8.61041 0 0 142
-6.58688 14.2132 -12.5062 0 0 141
-6.4329 13.0535 -11.3216 0 0 141
-5.67898 16.9212 -18.2879 0 0 140
-5.82737 16.336 -16.8308 0 0 140
-4.95932 26.7189 -20.9721 0 0 172
-5.68098 27.8263 -19.5531 0 0 172
-5.43472 25.1206 -20.1988 0 30 255
-4.37532 25.6682 -22.0988 0 0 226
-4.95932 26.7189 -20.9721 0 0 226
-6.37118 21.0542 -9.68061 0 0 166
-6.54792 22.5369 -10.2846 0 0 196
-6.28207 21.9165 -9.04403 0 0 166
-6.43891 20.1483 -10.2114 0 0 137
-6.37118 21.0542 -9.68061 0 0 137
-6.55379 14.9206 -11.4409 0 0 168
-6.71472 17.1546 -12.9226 0 0 198
-6.67368 16.2065 -11.6154 0 0 168
-6.4329 13.0535 -11.3216 0 0 153
-6.55379 14.9206 -11.4409 0 0 153
-6.80268 26.8759 -17.9028 0 0 162
-5.68098 27.8263 -19.5531 0 0 162
-7.4573 26.0832 -16.3541 0 0 200
-6.67333 25.3787 -17.5234 0 0 246
-6.80268 26.8759 -17.9028 0 0 200
-7.29758 25.238 -15.0209 0 0 208
-7.4573 26.0832 -16.3541 0 0 174
-7.42693 26.7353 -15.4003 0 0 174
-6.19797 22.8451 -8.34538 0 0 170
-6.33278 24.3035 -8.96524 0 0 202
-6.07194 23.7494 -7.66256 0 0 170
-6.28207 21.9165 -9.04403 0 0 139
-6.19797 22.8451 -8.34538 0 0 139
-6.10841 14.313 -9.26513 0 0 144
-6.06564 15.9421 -9.36197 0 0 144
-7.11414 28.778 -12.4134 0 0 138
-7.53127 28.0348 -13.2924 0 0 138
-6.56718 28.3162 -11.774 0 0 128
-7.11414 28.778 -12.4134 0 0 128
-6.46408 27.7584 -10.9089 0 0 151
-6.50153 26.8995 -11.5511 0 0 173
-6.56718 28.3162 -11.774 0 0 151
-6.10477 28.6697 -10.2353 0 0 132
-5.83548 29.6163 -9.65439 0 0 132
-6.03911 27.253 -10.0123 0 0 184
-6.46408 27.7584 -10.9089 0 0 158
-6.10477 28.6697 -10.2353 0 0 158
-6.23096 26.1734 -7.52699 0 0 173
-5.94328 26.686 -8.81054 0 0 206
-5.96748 27.6516 -8.05511 0 0 173
-5.94896 24.6644 -6.9113 0 0 142
-6.23096 26.1734 -7.52699 0 0 142
-5.45892 19.5889 -19.0989 0 0 227
-4.89873 19.7659 -20.5269 0 0 187
-4.93577 21.0978 -20.8274 0 0 187
-6.16166 15.8065 -15.3564 0 0 180
-5.82737 16.336 -16.8308 0 0 180
-5.75617 17.7276 -17.324 0 0 217
-6.3347 14.8779 -14.0569 0 0 204
-6.34265 16.5334 -14.2989 0 0 253
-6.58688 14.2132 -12.5062 0 0 204
-6.4059 13.4863 -13.5637 0 0 134
-6.16166 15.8065 -15.3564 0 0 161
-6.3347 14.8779 -14.0569 0 0 161
-6.54483 15.3858 -10.2843 0 0 135
-6.10841 14.313 -9.26513 0 0 135
-5.37078 18.5446 -19.9856 0 0 135
-4.89873 19.7659 -20.5269 0 0 135
-5.37078 18.5446 -19.9856 0 0 136
-5.67898 16.9212 -18.2879 0 0 136
-4.24194 24.2688 -22.8363 0 0 156
-4.37532 25.6682 -22.0988 0 0 156
-4.61315 22.6723 -21.7905 0 0 154
-4.24194 24.2688 -22.8363 0 0 154
-5.17334 22.4953 -20.3624 0 0 241
-4.93577 21.0978 -20.8274 0 0 196
-4.61315 22.6723 -21.7905 0 0 196
-6.93592 26.6737 -13.2416 0 0 200
-7.86256 27.2512 -14.1179 0 0 169
-7.53127 28.0348 -13.2924 0 0 169
-6.58947 19.4005 -10.7754 0 0 164
-6.78759 20.9267 -11.4852 0 0 193
-6.43891 20.1483 -10.2114 0 0 164
-6.40885 17.7107 -9.96828 0 0 170
-6.75752 18.489 -11.2421 0 0 202
-6.58947 19.4005 -10.7754 0 0 170
-6.06564 15.9421 -9.36197 0 0 137
-6.40885 17.7107 -9.96828 0 0 137
3 0 22 24
3 24 23 5
3 22 23 24
3 25 8 26
3 28 27 9
3 29 12 30
3 32 31 12
3 2 15 13
3 34 33 6
3 36 35 14
3 3 37 38
3 3 39 41
3 39 16 40
3 39 40 41
3 3 17 16
3 4 18 7
3 4 19 18
3 1 20 11
3 42 21 43
3 44 43 10
3 42 43 44
3 46 45 21
3 5 6 2
3 47 6 48
3 49 48 5
3 47 48 49
3 51 50 6
3 52 3 53
3 54 7 55
3 56 55 3
3 54 55 56
3 8 57 59
3 57 7 58
3 57 58 59
3 8 4 7
3 9 10 1
3 60 10 61
3 62 61 9
3 60 61 62
3 64 63 10
3 66 65 0
3 67 11 68
3 69 11 70
3 71 1 72
3 73 72 11
3 71 72 73
3 12 74 75
3 12 76 78
3 76 1 77
3 76 77 78
3 12 9 1
3 79 9 80
3 81 80 12
3 79 80 81
3 83 82 9
3 13 84 86
3 84 14 85
3 84 85 86
3 15 14 13
3 15 87 89
3 89 88 14
3 87 88 89
3 6 15 2
3 90 15 91
3 92 91 6
3 90 91 92
3 95 94 15
3 93 94 95
3 97 96 0
3 14 98 99
3 101 100 14
3 16 102 103
3 16 104 105
3 16 106 108
3 106 13 107
3 106 107 108
3 17 13 16
3 17 2 13
3 7 17 3
3 18 17 7
3 18 2 17
3 18 5 2
3 19 5 18
3 19 0 5
3 11 109 111
3 109 8 110
3 109 110 111
3 20 8 11
3 20 4 8
3 10 20 1
3 21 20 10
3 21 4 20
3 21 19 4
3 112 19 113
3 114 113 21
3 112 113 114
3 115 0 116
3 117 116 19
3 115 116 117
3 119 118 0
