ply
format ascii 1.0
element vertex 433
property float x
property float y
property float z
property uchar red
property uchar green
property uchar blue
element face 430
property list uchar int vertex_index
end_header
-4.02899 -33.3918 30.6951 0 247 255
-5.26377 -50.5931 18.5833 185 255 70
-14.9331 -54.5493 8.20876 117 255 138
-4.74884 -43.056 27.3925 255 118 0
-11.5955 -44.2168 1.51106 0 173 255
-8.95419 -44.1312 31.1092 251 0 0
-7.44533 -49.957 11.2316 222 255 33
-7.75199 -33.9384 29.4628 0 215 255
-8.30526 -38.9336 27.5158 1 255 254
-4.28688 -38.1508 29.0126 232 255 23
-10.4492 -45.9065 3.85954 0 129 255
-13.4102 -43.1696 32.3944 133 255 122
-12.5001 -49.271 29.2343 43 255 212
-8.1969 -49.3072 29.2585 255 68 0
-7.4879 -47.4347 20.3481 176 255 79
-7.8308 -47.1024 16.5464 0 160 255
-5.9438 -50.484 14.1891 255 213 0
-6.24224 -55.3183 8.85023 207 255 48
-10.8683 -51.2936 5.70824 255 227 0
-14.1464 -50.7366 3.92486 255 37 0
-19.5097 -54.5574 5.67555 0 252 255
-8.35772 -43.5039 24.5666 20 255 235
-4.47313 -47.1302 23.7046 255 102 0
-16.3061 -49.3535 1.28165 255 167 0
-17.0324 -47.4868 -1.47008 255 245 0
-15.8527 -44.6109 -3.78819 0 187 255
-8.39669 -36.895 34.7072 255 247 0
-5.11358 -38.6817 32.1737 255 145 0
-4.89302 -44.2586 30.8086 255 236 0
-4.42446 -49.445 28.0223 255 157 0
-6.66851 -51.737 22.1773 170 255 85
-8.64 -48.5648 8.79015 0 209 255
-8.44182 -53.1354 7.20452 157 255 98
-11.0404 -56.758 9.4176 0 187 255
-5.38263 -33.5778 29.4693 14 255 241
-5.81736 -36.0333 28.861 255 220 0
-4.099 -35.6484 29.7594 189 255 66
-4.9458 -48.3289 19.1278 255 176 0
-6.14064 -48.7158 17.2276 255 213 0
-5.45636 -50.5397 16.2594 255 172 0
-6.4664 -53.3407 13.5106 229 255 26
-6.86801 -53.0746 15.8459 47 255 208
-12.9343 -52.9811 7.15241 255 123 0
-15.0362 -53.0394 6.04896 255 107 0
-17.4166 -54.7556 6.73361 102 255 153
-6.51469 -40.8647 27.1013 255 191 0
-8.52909 -41.2044 26.1447 4 255 251
-6.62563 -43.1079 25.8423 255 150 0
-6.34035 -45.1821 23.9019 255 145 0
-4.8437 -45.4465 25.8607 255 68 0
-12.1571 -43.3199 0.455297 0 100 255
-18.4912 -52.0924 3.7947 184 255 71
-15.3573 -50.0366 2.65858 211 0 0
-19.6127 -51.5737 2.19435 81 255 174
-16.586 -46.065 -2.65034 211 255 44
-11.3061 -43.4349 31.316 131 0 0
-10.6939 -40.1115 33.1009 255 228 0
-8.97901 -40.5687 32.2052 128 0 0
-7.02638 -37.701 32.9394 213 0 0
-6.95076 -41.3958 31.9569 255 12 0
-4.90623 -41.4711 31.5738 255 202 0
-6.72605 -44.3559 31.2832 255 147 0
-8.42536 -51.4606 27.2336 119 255 136
-5.90357 -49.6963 29.194 255 108 0
-6.28512 -51.4089 26.5577 233 255 22
-4.80459 -50.9375 25.2137 255 68 0
-7.94822 -52.1595 23.524 56 255 199
-8.38898 -48.7019 14.1861 49 255 206
-8.3708 -47.9369 12.6262 0 159 255
-8.07197 -49.3423 9.93919 29 255 226
-7.53012 -50.7289 7.15411 135 255 120
-6.98198 -51.6099 8.28746 169 255 86
-6.6327 -57.3018 9.33158 0 121 255
-8.19164 -56.2564 8.38678 18 255 237
-8.06344 -36.5246 28.5842 22 255 233
-6.20469 -38.5232 28.1165 255 217 0
-4.48318 -40.5573 28.2634 255 214 0
-10.9618 -45.0193 2.61881 0 198 255
-13.4201 -46.1807 30.6363 231 255 24
-11.0111 -46.2956 29.9257 255 1 0
-8.60248 -46.4967 30.0209 255 96 0
-10.4253 -49.017 29.1608 227 255 28
-10.1883 -51.747 27.6497 0 239 255
-8.20071 -47.5757 18.406 5 255 250
-7.61099 -49.1054 15.7369 221 255 34
-6.69954 -50.3831 12.6475 255 244 0
-6.53171 -52.6167 9.54537 255 236 0
-6.3739 -53.2454 11.3326 255 157 0
-5.57715 -55.8726 10.8207 40 255 215
-8.93802 -49.0422 5.0238 89 255 166
-10.1464 -48.9076 3.81481 70 255 185
-12.6494 -51.1667 4.92653 255 127 0
-17.0753 -52.5744 5.05168 242 255 13
-8.16658 -45.6994 22.6448 39 255 216
-5.75642 -46.8083 21.776 255 150 0
-4.26362 -48.6897 21.2309 255 143 0
-11.1953 -48.359 2.79135 165 255 90
-11.9039 -47.6137 1.73283 255 167 0
-12.3275 -46.6572 0.61728 255 124 0
-16.9296 -48.6578 -0.126858 255 236 0
-12.5718 -45.5178 -0.571027 255 105 0
-12.4923 -44.1877 -1.67441 242 255 13
-12.4149 -42.7055 -2.60085 7 255 248
-4.84623 -33.242 32.9152 0 225 255
-6.18354 -35.098 35.7451 55 255 200
-5.46294 -35.5194 33.1886 200 255 55
-4.16968 -35.9874 31.5129 255 232 0
-4.04577 -38.5567 30.7598 221 255 34
-4.02141 -41.0733 30.018 250 255 5
-4.12062 -43.833 29.2671 255 190 0
-6.3639 -46.8554 30.3316 255 159 0
-4.65932 -47.0023 29.7767 255 212 0
-4.29038 -46.4809 27.9195 255 110 0
-4.2364 -48.54 25.8909 255 83 0
-4.24543 -49.9711 23.1759 255 54 0
-5.8304 -51.1949 20.389 148 255 107
-9.21006 -47.7171 7.566 0 143 255
-8.14178 -49.8972 6.10147 161 255 94
-9.67091 -52.057 6.57162 217 255 38
-11.2364 -53.7434 8.2656 255 179 0
-7.29074 -54.2314 7.63795 151 255 104
-9.70612 -54.9891 8.45933 240 255 15
-13.0777 -55.4384 9.36822 73 255 182
-4.70581 -33.4848 30.0822 0 0 188
-4.93058 -32.2318 29.82 0 0 162
-4.25375 -32.1388 30.4329 0 0 162
-12.652 -43.8068 2.13639 0 0 132
-12.1282 -43.9383 2.67621 0 0 132
-11.8763 -43.7684 0.983176 0 0 173
-12.9328 -43.3583 1.60851 0 0 153
-12.652 -43.8068 2.13639 0 0 153
-20.8048 -52.7866 2.49746 0 0 187
-19.052 -51.8331 2.99452 0 0 224
-20.2441 -53.0459 3.29764 0 0 187
-7.81794 -52.0648 25.47 0 0 190
-7.35524 -51.4347 26.8956 0 0 230
-8.88805 -52.0906 25.808 0 0 190
-8.64948 -52.4401 23.9532 0 0 178
-7.11667 -51.7842 25.0409 0 0 211
-7.81794 -52.0648 25.47 0 0 178
-8.01281 -57.5053 9.43489 0 0 133
-7.15023 -57.8429 9.90774 0 0 133
-8.17443 -32.4995 29.6093 0 0 138
-7.35445 -32.4844 29.8144 0 0 138
-8.29899 -34.0955 29.0597 0 0 134
-8.17443 -32.4995 29.6093 0 0 134
-7.90772 -35.2315 29.0235 0 0 166
-8.45471 -35.3886 28.6204 0 0 148
-8.29899 -34.0955 29.0597 0 0 148
-10.9122 -44.8665 4.39417 0 0 135
-10.2331 -45.041 4.93683 0 0 135
-10.7055 -45.4629 3.23917 0 0 175
-11.1685 -44.4229 3.77381 0 0 154
-10.9122 -44.8665 4.39417 0 0 154
-12.9601 -47.7258 29.9353 0 0 224
-13.8448 -47.7905 30.5473 0 0 187
-13.3848 -49.3356 29.8463 0 0 187
-10.7036 -53.1174 27.0885 0 0 140
-10.9864 -51.9043 27.9935 0 0 140
-10.322 -52.7162 26.4575 0 0 139
-10.7036 -53.1174 27.0885 0 0 139
-7.84431 -47.5052 19.377 0 0 178
-8.24745 -46.6291 19.647 0 0 156
-7.89105 -46.5586 20.618 0 0 156
-5.44098 -56.002 12.0389 0 0 192
-6.02178 -54.6067 12.1656 0 0 232
-5.88561 -54.736 13.3838 0 0 192
-5.42283 -56.955 10.8853 0 0 140
-5.44098 -56.002 12.0389 0 0 140
-20.2759 -54.4196 5.04733 0 0 176
-19.0587 -53.4281 4.73539 0 0 176
-18.2925 -53.5659 5.36361 0 0 208
-8.60692 -39.037 26.8745 0 0 129
-8.61128 -37.8397 27.5251 0 0 129
-8.56101 -42.499 24.5947 0 0 146
-8.64669 -41.3493 25.3837 0 0 146
-8.4434 -42.3541 25.3556 0 0 163
-8.44443 -43.5732 23.7466 0 0 130
-8.56101 -42.499 24.5947 0 0 130
-8.26215 -44.6016 23.6057 0 0 167
-8.34886 -44.671 22.7856 0 0 148
-8.44443 -43.5732 23.7466 0 0 148
-16.981 -48.0723 -0.798468 0 0 234
-18.8518 -49.388 -0.671444 0 0 193
-18.9032 -48.8025 -1.34306 0 0 193
-14.271 -43.0154 -3.61535 0 0 180
-12.5521 -42.0627 -3.02168 0 0 180
-14.1338 -43.6582 -3.19452 0 0 215
-15.5214 -43.8727 -4.29675 0 0 142
-14.271 -43.0154 -3.61535 0 0 142
-5.09341 -33.2678 34.3343 0 0 141
-4.91095 -32.3254 33.8441 0 0 141
-12.7678 -41.7849 33.5304 0 0 157
-14.0555 -43.4158 33.262 0 0 157
-8.62343 -37.3232 35.731 0 0 216
-9.77202 -38.9315 34.9278 0 0 216
-9.54528 -38.5033 33.9041 0 13 255
-7.13847 -36.5231 36.5532 0 0 203
-7.36521 -36.9514 37.577 0 0 157
-8.62343 -37.3232 35.731 0 0 203
-7.29011 -35.9965 35.2262 0 0 250
-6.03189 -35.6246 37.0721 0 0 204
-7.13847 -36.5231 36.5532 0 0 204
-6.64504 -46.1122 16.7938 0 0 151
-7.45412 -46.2638 17.7818 0 0 151
-8.17337 -47.3342 9.15222 0 0 138
-8.30432 -47.8265 9.94668 0 0 138
-8.92503 -48.141 8.17807 0 0 181
-8.45839 -46.9103 8.54014 0 0 158
-8.17337 -47.3342 9.15222 0 0 158
-12.9727 -56.9272 9.42299 0 0 174
-13.9913 -56.2674 9.3983 0 0 174
-12.059 -56.0982 9.39291 0 0 205
-6.16977 -32.304 29.8176 0 0 148
-4.93058 -32.2318 29.82 0 0 148
-6.56731 -33.7581 29.4661 0 0 222
-7.35445 -32.4844 29.8144 0 0 185
-6.16977 -32.304 29.8176 0 0 185
-10.2555 -46.1635 4.50571 0 0 130
-10.2331 -45.041 4.93683 0 0 130
-12.7713 -50.9655 29.2843 0 0 151
-13.3848 -49.3356 29.8463 0 0 151
-12.1423 -50.6663 28.7858 0 0 139
-12.7713 -50.9655 29.2843 0 0 139
-6.08641 -54.603 14.5515 0 0 187
-5.88561 -54.736 13.3838 0 0 187
-6.66721 -53.2076 14.6782 0 0 225
-13.3949 -43.1196 1.03036 0 0 134
-12.9328 -43.3583 1.60851 0 0 134
-12.4665 -42.8369 -0.046956 0 0 134
-13.3949 -43.1196 1.03036 0 0 134
-18.7338 -48.3064 -2.09914 0 0 151
-18.9032 -48.8025 -1.34306 0 0 151
-18.5106 -47.5956 -2.68927 0 0 189
-16.8092 -46.7759 -2.06021 0 0 228
-18.7338 -48.3064 -2.09914 0 0 189
-18.1777 -47.0536 -3.35352 0 0 149
-18.5106 -47.5956 -2.68927 0 0 149
-17.811 -46.3266 -3.92244 0 0 188
-16.2194 -45.338 -3.21927 0 0 226
-18.1777 -47.0536 -3.35352 0 0 188
-17.4063 -45.6781 -4.50497 0 0 149
-17.811 -46.3266 -3.92244 0 0 149
-7.5487 -47.6006 14.4823 0 0 174
-7.26961 -46.8008 15.6624 0 0 174
-8.10989 -47.9021 15.3663 0 0 205
-7.53961 -47.2181 13.7024 0 0 164
-7.5487 -47.6006 14.4823 0 0 164
-8.37989 -48.3194 13.4062 0 0 190
-7.05689 -46.8646 12.7193 0 0 149
-7.53961 -47.2181 13.7024 0 0 149
-8.16972 -47.5126 11.8647 0 0 141
-7.05689 -46.8646 12.7193 0 0 141
-8.02031 -48.2153 10.5212 0 0 161
-8.16972 -47.5126 11.8647 0 0 161
-8.22139 -48.6396 11.2827 0 0 185
-8.35599 -48.9535 9.36467 0 0 173
-8.30432 -47.8265 9.94668 0 0 152
-8.02031 -48.2153 10.5212 0 0 152
-8.79228 -56.9826 8.96249 0 0 161
-7.41217 -56.7791 8.85918 0 0 186
-8.01281 -57.5053 9.43489 0 0 161
-10.2166 -57.2334 9.4779 0 0 157
-9.61601 -56.5072 8.90219 0 0 179
-8.79228 -56.9826 8.96249 0 0 157
-11.9548 -57.4515 9.51636 0 0 134
-10.2166 -57.2334 9.4779 0 0 134
-17.1987 -55.6358 7.65396 0 0 143
-15.8812 -55.3946 8.38876 0 0 143
-8.49037 -36.6352 28.0593 0 0 129
-8.45471 -35.3886 28.6204 0 0 129
-8.18435 -37.7291 28.05 0 0 162
-8.61128 -37.8397 27.5251 0 0 145
-8.49037 -36.6352 28.0593 0 0 145
-11.8113 -44.3395 3.23009 0 0 134
-11.1685 -44.4229 3.77381 0 0 134
-11.2786 -44.618 2.06493 0 0 171
-12.1282 -43.9383 2.67621 0 0 151
-11.8113 -44.3395 3.23009 0 0 151
-14.254 -44.7631 32.2805 0 0 151
-14.0555 -43.4158 33.262 0 0 151
-14.2589 -46.2686 31.4014 0 0 151
-13.8448 -47.7905 30.5473 0 0 151
-13.4152 -44.6752 31.5153 0 0 235
-14.254 -44.7631 32.2805 0 0 194
-14.2589 -46.2686 31.4014 0 0 194
-11.1049 -50.5393 28.7491 0 0 179
-11.4627 -49.144 29.1975 0 0 213
-12.1423 -50.6663 28.7858 0 0 179
-10.3068 -50.382 28.4052 0 0 200
-11.1049 -50.5393 28.7491 0 0 171
-10.9864 -51.9043 27.9935 0 0 171
-9.44054 -52.573 26.2495 0 0 173
-9.30681 -51.6038 27.4416 0 0 203
-10.322 -52.7162 26.4575 0 0 173
-8.88805 -52.0906 25.808 0 0 142
-9.44054 -52.573 26.2495 0 0 142
-7.63907 -46.5005 18.7117 0 0 142
-8.24745 -46.6291 19.647 0 0 142
-8.01575 -47.3391 17.4762 0 0 190
-7.45412 -46.2638 17.7818 0 0 164
-7.63907 -46.5005 18.7117 0 0 164
-5.95061 -57.6696 10.1408 0 0 159
-6.10492 -56.5872 10.0761 0 0 182
-5.42283 -56.955 10.8853 0 0 159
-7.15023 -57.8429 9.90774 0 0 133
-5.95061 -57.6696 10.1408 0 0 133
-9.54222 -48.9749 4.41931 0 0 190
-9.97105 -47.8336 5.1577 0 0 164
-9.36685 -47.9009 5.76219 0 0 164
-19.7666 -53.1871 4.1069 0 0 181
-17.7832 -52.3334 4.42319 0 0 216
-19.0587 -53.4281 4.73539 0 0 181
-20.2441 -53.0459 3.29764 0 0 146
-19.7666 -53.1871 4.1069 0 0 146
-18.4404 -55.739 6.91638 0 0 183
-16.1749 -54.6524 7.47119 0 0 219
-17.1987 -55.6358 7.65396 0 0 183
-19.539 -55.6824 6.43055 0 0 142
-18.4404 -55.739 6.91638 0 0 142
-20.5855 -55.5833 5.90152 0 0 177
-18.4632 -54.6565 6.20458 0 0 210
-19.539 -55.6824 6.43055 0 0 177
-21.3141 -55.6114 5.22124 0 0 170
-20.5855 -55.5833 5.90152 0 0 170
-22.39 -56.6373 5.44721 0 0 141
-20.2759 -54.4196 5.04733 0 0 144
-21.3141 -55.6114 5.22124 0 0 144
-8.71883 -40.1724 26.189 0 0 144
-8.60692 -39.037 26.8745 0 0 144
-8.41717 -40.069 26.8302 0 0 160
-8.71883 -40.1724 26.189 0 0 129
-8.64669 -41.3493 25.3837 0 0 129
-8.23039 -45.691 21.7664 0 0 131
-8.34886 -44.671 22.7856 0 0 131
-7.82724 -46.5671 21.4964 0 0 167
-7.89105 -46.5586 20.618 0 0 149
-8.23039 -45.691 21.7664 0 0 149
-4.07132 -32.3642 31.294 0 0 134
-4.25375 -32.1388 30.4329 0 0 134
-10.1041 -47.6641 4.48334 0 0 133
-9.97105 -47.8336 5.1577 0 0 133
-10.6285 -47.3898 3.97161 0 0 159
-10.1041 -47.6641 4.48334 0 0 159
-10.6709 -48.6333 3.30308 0 0 183
-10.8223 -47.1327 3.32545 0 0 176
-10.2555 -46.1635 4.50571 0 0 155
-10.6285 -47.3898 3.97161 0 0 155
-20.9998 -52.5327 1.5307 0 0 149
-20.8048 -52.7866 2.49746 0 0 149
-20.041 -51.2783 1.3691 0 0 145
-20.9998 -52.5327 1.5307 0 0 145
-18.3877 -50.1682 0.91275 0 0 198
-17.9594 -50.4636 1.738 0 0 240
-20.041 -51.2783 1.3691 0 0 198
-18.6994 -49.8203 0.208496 0 0 156
-18.8518 -49.388 -0.671444 0 0 156
-16.6178 -49.0057 0.577397 0 0 229
-18.3877 -50.1682 0.91275 0 0 190
-18.6994 -49.8203 0.208496 0 0 190
-12.6341 -43.2708 -1.11181 0 0 146
-12.4665 -42.8369 -0.046956 0 0 146
-12.3247 -43.7538 -0.609555 0 0 163
-12.5954 -42.5297 -1.57503 0 0 148
-12.6341 -43.2708 -1.11181 0 0 148
-12.4536 -43.4466 -2.13763 0 0 167
-12.9918 -42.0794 -2.0613 0 0 128
-12.5954 -42.5297 -1.57503 0 0 128
-12.9918 -42.0794 -2.0613 0 0 128
-12.5521 -42.0627 -3.02168 0 0 128
-17.0751 -44.9398 -5.01353 0 0 148
-15.5214 -43.8727 -4.29675 0 0 184
-17.4063 -45.6781 -4.50497 0 0 184
-4.47994 -32.2893 32.4041 0 0 143
-4.91095 -32.3254 33.8441 0 0 143
-4.43761 -33.3169 31.8051 0 0 188
-4.07132 -32.3642 31.294 0 0 163
-4.47994 -32.2893 32.4041 0 0 163
-11.4096 -40.2558 33.8836 0 0 199
-12.7678 -41.7849 33.5304 0 0 199
-12.0521 -41.6406 32.7476 0 0 242
-11.4096 -40.2558 33.8836 0 0 165
-9.77202 -38.9315 34.9278 0 0 165
-5.48159 -34.5649 37.143 0 0 148
-6.03189 -35.6246 37.0721 0 0 148
-5.76206 -34.1957 35.7493 0 0 143
-5.48159 -34.5649 37.143 0 0 143
-5.40176 -34.4064 34.471 0 0 169
-5.76206 -34.1957 35.7493 0 0 169
-5.82324 -35.3087 34.4668 0 0 198
-5.15458 -34.3807 33.0519 0 0 220
-5.09341 -33.2678 34.3343 0 0 184
-5.40176 -34.4064 34.471 0 0 184
-8.41313 -54.0767 22.7234 0 0 150
-8.64948 -52.4401 23.9532 0 0 150
-8.20741 -53.6451 22.0003 0 0 151
-8.41313 -54.0767 22.7234 0 0 151
-7.56755 -53.4339 21.3269 0 0 196
-7.30837 -51.9482 22.8507 0 0 239
-8.20741 -53.6451 22.0003 0 0 196
-7.30297 -53.0354 20.5506 0 0 153
-7.56755 -53.4339 21.3269 0 0 153
-6.88391 -52.7643 19.6565 0 0 201
-6.24946 -51.4659 21.2832 0 0 245
-7.30297 -53.0354 20.5506 0 0 201
-6.64455 -52.4994 18.8048 0 0 152
-6.88391 -52.7643 19.6565 0 0 152
-6.36123 -52.1985 17.902 0 0 199
-5.54709 -50.894 19.4862 0 0 243
-6.64455 -52.4994 18.8048 0 0 199
-7.16336 -53.4392 16.5333 0 0 183
-6.06589 -51.8338 17.2146 0 0 219
-6.36123 -52.1985 17.902 0 0 183
-6.07391 -54.9356 15.4249 0 0 149
-7.16336 -53.4392 16.5333 0 0 149
-6.08641 -54.603 14.5515 0 0 153
-6.07391 -54.9356 15.4249 0 0 153
-6.64504 -46.1122 16.7938 0 0 145
-7.26961 -46.8008 15.6624 0 0 145
-8.58509 -46.4189 7.84463 0 0 138
-8.45839 -46.9103 8.54014 0 0 138
-9.50287 -47.2384 7.03329 0 0 135
-8.58509 -46.4189 7.84463 0 0 135
-9.07404 -48.3797 6.2949 0 0 181
-9.36685 -47.9009 5.76219 0 0 158
-9.50287 -47.2384 7.03329 0 0 158
-14.9535 -55.8392 8.96849 0 0 175
-15.8812 -55.3946 8.38876 0 0 175
-14.0054 -54.9938 8.78849 0 0 206
-14.9535 -55.8392 8.96849 0 0 140
-13.9913 -56.2674 9.3983 0 0 140
-12.9727 -56.9272 9.42299 0 0 137
-11.9548 -57.4515 9.51636 0 0 137
3 0 123 125
3 123 34 124
3 123 124 125
3 0 36 34
3 1 39 37
3 1 41 39
3 2 44 42
3 3 47 45
3 3 49 47
3 4 126 127
3 4 128 130
3 128 50 129
3 128 129 130
3 131 53 132
3 133 132 51
3 131 132 133
3 5 57 55
3 5 59 57
3 5 61 59
3 134 64 135
3 136 135 62
3 134 135 136
3 137 66 138
3 139 138 64
3 137 138 139
3 6 68 67
3 6 69 68
3 6 71 69
3 141 140 72
3 7 142 143
3 7 144 145
3 7 146 148
3 146 74 147
3 146 147 148
3 9 75 35
3 9 76 75
3 10 149 150
3 10 151 153
3 151 77 152
3 151 152 153
3 12 154 156
3 154 78 155
3 154 155 156
3 12 79 78
3 12 81 79
3 157 82 158
3 160 159 82
3 14 161 163
3 161 83 162
3 161 162 163
3 16 84 38
3 16 85 84
3 16 87 85
3 164 88 165
3 166 165 40
3 164 165 166
3 168 167 88
3 18 91 89
3 20 92 43
3 20 169 171
3 171 170 92
3 169 170 171
3 8 172 173
3 21 174 176
3 176 175 46
3 174 175 176
3 21 177 178
3 21 179 181
3 179 93 180
3 179 180 181
3 22 94 48
3 22 95 94
3 19 96 90
3 23 97 52
3 23 98 97
3 24 182 184
3 182 99 183
3 182 183 184
3 24 100 99
3 24 101 100
3 25 102 54
3 25 185 187
3 187 186 102
3 185 186 187
3 25 188 189
3 190 103 191
3 11 192 193
3 26 194 196
3 196 195 56
3 194 195 196
3 26 197 199
3 197 198 199
3 26 200 202
3 200 104 201
3 200 201 202
3 27 105 58
3 27 106 105
3 27 107 106
3 28 108 60
3 28 109 108
3 13 110 80
3 29 111 63
3 29 112 111
3 29 113 112
3 30 114 65
3 30 115 114
3 15 203 204
3 31 205 206
3 31 207 209
3 207 116 208
3 207 208 209
3 31 117 116
3 32 118 70
3 32 119 118
3 17 120 86
3 33 121 73
3 33 122 121
3 33 210 212
3 212 211 122
3 210 211 212
3 34 213 214
3 34 215 217
3 215 7 216
3 215 216 217
3 34 35 7
3 36 35 34
3 36 9 35
3 218 10 219
3 220 12 221
3 223 222 12
3 37 38 14
3 39 38 37
3 39 16 38
3 39 40 16
3 41 40 39
3 41 224 226
3 226 225 40
3 224 225 226
3 42 43 18
3 44 43 42
3 44 20 43
3 45 46 8
3 47 46 45
3 47 21 46
3 47 48 21
3 49 48 47
3 49 22 48
3 50 227 228
3 50 229 230
3 51 52 19
3 53 52 51
3 53 23 52
3 231 24 232
3 233 54 234
3 235 234 24
3 233 234 235
3 236 54 237
3 238 25 239
3 240 239 54
3 238 239 240
3 242 241 25
3 55 56 11
3 57 56 55
3 57 26 56
3 57 58 26
3 59 58 57
3 59 27 58
3 59 60 27
3 61 60 59
3 61 28 60
3 62 63 13
3 64 63 62
3 64 29 63
3 64 65 29
3 66 65 64
3 66 30 65
3 67 243 245
3 245 244 15
3 243 244 245
3 68 246 248
3 248 247 67
3 246 247 248
3 68 249 250
3 68 251 252
3 69 253 255
3 255 254 68
3 253 254 255
3 69 256 258
3 256 31 257
3 256 257 258
3 69 70 31
3 71 70 69
3 71 32 70
3 72 73 17
3 259 73 260
3 261 260 72
3 259 260 261
3 262 33 263
3 264 263 73
3 262 263 264
3 266 265 33
3 268 267 2
3 74 269 270
3 74 271 273
3 271 8 272
3 271 272 273
3 35 74 7
3 75 74 35
3 75 8 74
3 75 45 8
3 76 45 75
3 76 3 45
3 77 274 275
3 77 276 278
3 276 4 277
3 276 277 278
3 279 11 280
3 78 281 282
3 78 283 285
3 283 11 284
3 283 284 285
3 78 55 11
3 79 55 78
3 79 5 55
3 79 80 5
3 81 80 79
3 81 13 80
3 286 81 287
3 288 287 12
3 286 287 288
3 82 289 291
3 289 81 290
3 289 290 291
3 82 13 81
3 82 62 13
3 292 62 293
3 294 293 82
3 292 293 294
3 296 295 62
3 83 297 298
3 83 299 301
3 299 15 300
3 299 300 301
3 38 83 14
3 84 83 38
3 84 15 83
3 84 67 15
3 85 67 84
3 85 6 67
3 85 86 6
3 87 86 85
3 87 17 86
3 40 87 16
3 88 87 40
3 88 17 87
3 88 72 17
3 302 72 303
3 304 303 88
3 302 303 304
3 306 305 72
3 89 307 309
3 307 90 308
3 307 308 309
3 91 90 89
3 91 19 90
3 43 91 18
3 92 91 43
3 92 19 91
3 92 51 19
3 310 51 311
3 312 311 92
3 310 311 312
3 314 313 51
3 315 44 316
3 317 316 2
3 315 316 317
3 318 44 319
3 320 20 321
3 322 321 44
3 320 321 322
3 323 20 324
3 323 324 325
3 327 326 20
3 46 328 330
3 330 329 8
3 328 329 330
3 332 331 46
3 93 333 334
3 93 335 337
3 335 14 336
3 335 336 337
3 48 93 21
3 94 93 48
3 94 14 93
3 94 37 14
3 95 37 94
3 95 1 37
3 338 0 339
3 90 340 341
3 96 342 344
3 344 343 90
3 342 343 344
3 96 345 347
3 345 10 346
3 345 346 347
3 52 96 19
3 97 96 52
3 97 10 96
3 97 77 10
3 98 77 97
3 98 4 77
3 348 53 349
3 350 53 351
3 352 23 353
3 354 353 53
3 352 353 354
3 99 355 356
3 99 357 359
3 357 23 358
3 357 358 359
3 99 98 23
3 100 98 99
3 100 4 98
3 100 50 4
3 101 50 100
3 101 360 362
3 362 361 50
3 360 361 362
3 54 101 24
3 102 101 54
3 102 363 365
3 365 364 101
3 363 364 365
3 102 366 367
3 369 368 102
3 372 371 25
3 370 371 372
3 103 373 374
3 103 375 377
3 375 0 376
3 375 376 377
3 56 378 380
3 380 379 11
3 378 379 380
3 382 381 56
3 104 383 384
3 104 385 386
3 58 104 26
3 105 104 58
3 105 387 389
3 389 388 104
3 387 388 389
3 105 390 392
3 390 103 391
3 390 391 392
3 106 103 105
3 106 0 103
3 106 36 0
3 107 36 106
3 107 9 36
3 60 107 27
3 108 107 60
3 108 9 107
3 108 76 9
3 109 76 108
3 109 3 76
3 80 61 5
3 110 61 80
3 110 28 61
3 63 110 13
3 111 110 63
3 111 28 110
3 111 109 28
3 112 109 111
3 112 3 109
3 112 49 3
3 113 49 112
3 113 22 49
3 65 113 29
3 114 113 65
3 114 22 113
3 114 95 22
3 115 95 114
3 115 1 95
3 393 66 394
3 395 66 396
3 397 30 398
3 399 398 66
3 397 398 399
3 400 30 401
3 402 115 403
3 404 403 30
3 402 403 404
3 405 115 406
3 407 1 408
3 409 408 115
3 407 408 409
3 410 41 411
3 412 411 1
3 410 411 412
3 413 41 414
3 416 415 41
3 418 417 15
3 116 419 420
3 116 421 422
3 116 423 425
3 423 89 424
3 423 424 425
3 117 89 116
3 117 18 89
3 70 117 31
3 118 117 70
3 118 18 117
3 118 42 18
3 119 42 118
3 119 2 42
3 86 71 6
3 120 71 86
3 120 32 71
3 73 120 17
3 121 120 73
3 121 32 120
3 121 119 32
3 122 119 121
3 122 2 119
3 122 426 428
3 428 427 2
3 426 427 428
3 430 429 122
3 432 431 33
