ply
format ascii 1.0
element vertex 397
property float x
property float y
property float z
property uchar red
property uchar green
property uchar blue
element face 438
property list uchar int vertex_index
end_header
3.0228 54.2229 -14.313 255 25 0
9.29856 29.7379 4.37495 255 255 0
2.50631 58.2406 -2.26005 255 40 0
1.60715 62.9662 -23.4967 255 63 0
5.86172 37.2974 -14.2215 163 255 92
6.70927 43.7651 -4.63057 202 0 0
5.99671 46.0902 7.0616 204 0 0
3.48484 43.6629 19.577 158 255 97
3.46429 46.2576 -24.1941 255 33 0
4.58126 46.1778 -14.6292 251 0 0
6.36792 40.9958 -9.73946 230 0 0
4.78029 49.3787 -9.48258 249 0 0
1.84219 58.4847 4.36942 39 255 216
4.33252 52.5652 2.35019 247 0 0
3.42455 52.3159 8.83662 252 0 0
4.87978 45.4561 13.3032 231 0 0
2.21593 50.8287 15.4979 158 255 97
1.94355 58.6686 -19.035 255 32 0
2.57074 54.929 -24.4804 255 54 0
3.22557 50.7123 -19.6316 255 12 0
4.40131 42.0026 -19.1535 170 255 85
9.19074 27.7655 -0.952347 111 255 144
1.38739 61.4951 -12.9867 255 52 0
2.84993 56.7768 -8.49879 255 38 0
0.92247 63.3457 -6.5811 126 255 129
0.740891 66.0599 -17.3047 255 36 0
8.96245 30.7865 9.98551 117 255 138
8.04227 34.8635 -5.13533 255 179 0
8.29771 37.1888 0.061659 151 0 0
4.77146 51.5558 -3.79885 248 0 0
6.62763 45.5098 1.01993 194 0 0
8.05615 38.5424 5.69775 150 0 0
7.28043 38.7939 11.5812 177 0 0
6.06509 37.9279 17.5246 190 255 65
2.25906 58.8879 -28.6985 255 191 0
2.94889 50.2216 -28.77 77 255 178
3.43887 40.7709 -27.5371 0 250 255
3.82818 50.307 -14.5875 255 8 0
4.68984 47.8991 -12.1267 250 0 0
3.84355 51.8752 -11.9072 255 12 0
2.63457 55.4822 6.58493 255 237 0
2.11874 55.0022 9.97166 47 255 208
2.84168 51.7216 12.1555 255 230 0
2.37875 56.4729 -16.6925 255 30 0
2.58849 54.7737 -19.4791 255 23 0
3.113 52.5828 -17.0446 255 17 0
3.82089 48.5023 -17.1292 255 3 0
9.29628 28.8554 1.6659 250 255 5
0.641258 64.9098 -11.9391 133 255 122
1.15149 62.5502 -9.82408 236 255 19
0.230726 69.59 -16.0608 35 255 220
0.343882 67.2557 -14.0179 140 255 115
0.959192 63.7833 -15.166 255 45 0
6.67605 34.6636 -11.9138 45 255 210
6.57692 42.4991 -7.25926 213 0 0
7.25156 38.0581 -7.39206 213 0 0
7.45913 39.4421 -4.8926 190 0 0
8.22436 36.1352 -2.60214 165 0 0
7.56918 40.5981 -2.24984 176 0 0
2.71277 57.6548 -5.43111 255 40 0
3.78715 54.2533 -6.17455 255 18 0
3.65294 55.0247 -3.13318 255 18 0
5.20367 49.4339 4.71181 224 0 0
5.5376 49.1949 1.61511 221 0 0
6.3812 45.9514 4.00367 197 0 0
7.40738 42.1374 3.39467 170 0 0
7.11663 42.4848 6.35058 177 0 0
7.73202 38.8093 8.62113 161 0 0
6.69136 42.5384 9.36161 188 0 0
4.20097 44.6976 16.4446 251 0 0
5.50967 41.7693 15.4549 226 0 0
4.80608 40.9631 18.4988 173 255 82
1.53758 65.0245 -25.5119 99 255 156
1.83581 62.9874 -28.1501 132 255 123
1.99061 61.0557 -26.2664 255 113 0
3.03157 50.6863 -24.4927 255 45 0
2.82081 52.7025 -26.8124 255 99 0
3.18502 48.2774 -26.5838 255 87 0
3.21595 45.6087 -28.2966 87 255 168
3.51279 43.6479 -26.0488 255 72 0
3.81033 38.7888 -25.2701 23 255 232
3.86704 41.6165 -23.6277 151 255 104
5.08291 39.726 -16.6471 168 255 87
5.26234 41.8335 -14.485 250 0 0
6.1182 39.2647 -12.0626 249 0 0
5.45368 43.691 -12.1586 242 0 0
5.63093 45.31 -9.67794 234 0 0
5.75958 46.6866 -7.05047 227 0 0
2.21602 58.5198 1.0097 255 254 0
3.41766 55.4931 0.015636 255 16 0
3.07513 55.6469 3.26019 255 14 0
3.93066 52.5992 5.56121 248 0 0
4.74416 49.3596 7.87699 230 0 0
5.48836 45.9236 10.169 215 0 0
4.18043 48.9742 11.0878 240 0 0
3.54222 48.2863 14.3231 254 0 0
2.86347 47.3099 17.5643 255 17 0
1.70662 60.8347 -21.3171 255 38 0
2.09131 59.0145 -24.1449 255 60 0
2.26139 56.914 -21.8612 255 34 0
2.81626 52.8474 -22.0994 255 26 0
3.35252 48.6079 -22.0335 255 15 0
3.85891 44.1701 -21.6908 255 233 0
3.83374 46.4602 -19.5091 255 1 0
4.48121 44.216 -16.9781 250 0 0
2.19587 57.9433 -13.7811 255 41 0
2.9434 55.6262 -11.4607 255 32 0
2.02971 59.1738 -10.7673 255 50 0
1.85793 60.147 -7.65963 255 56 0
1.65492 60.8435 -4.45914 255 58 0
0.679699 63.865 -3.25588 20 255 235
1.40048 61.2466 -1.16521 133 255 122
1.13017 66.7959 -22.5592 129 255 126
0.677296 68.3143 -19.3839 142 255 113
1.17322 64.6312 -20.4831 255 40 0
1.31837 62.4234 -18.3041 255 36 0
1.64881 60.1972 -16.0636 255 40 0
9.189 30.3867 7.15523 253 255 2
6.9787 36.4643 -9.73575 255 217 0
7.77695 33.4019 -7.5216 69 255 186
8.69605 31.422 -2.98516 226 255 29
8.84028 32.5952 -0.410376 140 0 0
8.87441 33.5578 2.27655 129 0 0
3.84068 53.1966 -9.10091 255 16 0
4.81858 50.6039 -6.70435 248 0 0
5.80444 47.8059 -4.2842 223 0 0
4.6136 52.2146 -0.775911 247 0 0
5.73643 48.6481 -1.39034 221 0 0
6.73357 44.7755 -1.86527 196 0 0
7.55689 41.5035 0.519646 170 0 0
8.24464 37.9981 2.83612 147 0 0
8.78658 34.2817 5.05464 128 0 0
8.57118 34.7485 7.90057 135 0 0
8.22887 34.9484 10.7902 255 150 0
7.76685 34.8792 13.7004 217 255 38
6.14777 42.298 12.4034 205 0 0
6.71727 38.4979 14.5554 198 0 0
7.199 34.5438 16.6104 83 255 172
1.58262 49.6542 18.8457 38 255 217
2.17829 46.0635 20.7957 36 255 219
1.48889 64.735 -29.7188 0 83 255
1.9585 60.6747 -30.3783 0 254 255
2.34571 56.4529 -30.6988 0 176 255
2.42064 56.9533 -26.7064 255 107 0
2.63048 54.6388 -28.9087 156 255 99
1.518 56.2398 10.6378 0 0 142
1.75947 56.5687 8.88895 0 0 142
1.83911 54.6095 11.6863 0 0 142
1.518 56.2398 10.6378 0 0 142
9.44954 27.348 3.99659 0 0 193
9.4484 26.9068 2.64207 0 0 193
9.29742 29.2967 3.02042 0 0 237
0.500641 65.3507 -10.2895 0 0 141
0.319032 66.5627 -11.2972 0 0 141
0.170344 67.7357 -12.3366 0 0 141
0.084569 68.9421 -13.3299 0 0 141
0.319032 66.5627 -11.2972 0 0 177
0.49257 66.0828 -12.9785 0 0 213
0.170344 67.7357 -12.3366 0 0 177
6.26889 35.9805 -13.0676 0 0 216
6.52625 33.6478 -12.9159 0 0 179
6.11909 34.9647 -14.0697 0 0 179
3.77669 41.7785 20.549 0 0 180
4.4373 40.4286 20.01 0 0 180
4.14546 42.313 19.0379 0 0 217
5.74232 36.1808 -15.2157 0 0 181
5.35291 37.3951 -16.4285 0 0 181
5.47232 38.5117 -15.4343 0 0 219
6.11909 34.9647 -14.0697 0 0 142
5.74232 36.1808 -15.2157 0 0 142
9.27892 25.2587 -1.28404 0 0 147
9.0924 27.1363 -2.20727 0 0 147
0.544194 63.9802 -1.55037 0 0 141
0.264941 65.3164 -2.54152 0 0 141
0.904583 62.6709 -0.505034 0 0 176
1.04009 62.5558 -2.21054 0 0 212
0.544194 63.9802 -1.55037 0 0 176
1.24332 61.2961 0.52766 0 0 141
0.904583 62.6709 -0.505034 0 0 141
0.896326 68.6475 -21.9596 0 0 140
1.09628 67.8269 -23.5145 0 0 140
9.21601 28.5677 9.55729 0 0 193
9.32928 28.3678 8.14215 0 0 193
9.07572 30.5866 8.57037 0 0 237
8.25107 32.4687 -5.28248 0 0 185
8.11841 31.7378 -6.47562 0 0 185
7.90961 34.1327 -6.32846 0 0 226
8.36916 33.1428 -4.06025 0 0 229
8.57796 30.7479 -4.2074 0 0 187
8.25107 32.4687 -5.28248 0 0 187
6.3055 35.9383 18.5136 0 0 184
6.87245 34.2463 18.0564 0 0 184
6.63205 36.2359 17.0675 0 0 224
1.2784 48.9368 20.5139 0 0 141
1.01666 50.7234 19.5781 0 0 141
1.57623 47.1415 21.4889 0 0 178
1.88046 47.8588 19.8207 0 0 215
1.2784 48.9368 20.5139 0 0 178
1.4241 65.8376 -28.5031 0 0 132
1.20807 66.6796 -29.2321 0 0 132
2.80201 51.1413 -29.7168 0 0 164
2.64281 53.3499 -29.7862 0 0 164
2.78969 52.4302 -28.8394 0 0 193
2.92015 48.8496 -29.523 0 0 134
2.80201 51.1413 -29.7168 0 0 134
3.25083 41.7232 -28.5536 0 0 166
3.13938 44.1421 -28.9333 0 0 166
3.32741 43.1898 -27.9168 0 0 197
3.31035 39.201 -28.0771 0 0 136
3.25083 41.7232 -28.5536 0 0 136
3.53417 38.2298 -27.0566 0 0 136
3.31035 39.201 -28.0771 0 0 136
3.94917 36.2397 -24.8057 0 0 143
4.02764 37.7689 -24.0687 0 0 143
4.36706 40.7608 -20.1405 0 0 182
4.09585 41.8445 -21.4092 0 0 182
4.13011 43.0863 -20.4222 0 0 220
2.01739 56.8087 7.19558 0 0 179
2.23838 56.9835 5.47717 0 0 217
1.6212 58.31 6.08783 0 0 179
2.37666 55.2422 8.27829 0 0 217
2.01739 56.8087 7.19558 0 0 180
1.75947 56.5687 8.88895 0 0 180
2.20058 52.9692 12.7783 0 0 180
2.48021 53.3619 11.0636 0 0 218
1.83911 54.6095 11.6863 0 0 180
1.8877 52.5227 14.4495 0 0 180
2.5288 51.2751 13.8267 0 0 217
2.20058 52.9692 12.7783 0 0 180
9.41067 26.3979 1.31245 0 0 192
9.3579 25.8529 0.003332 0 0 192
9.24351 28.3105 0.356775 0 0 236
9.41067 26.3979 1.31245 0 0 150
9.4484 26.9068 2.64207 0 0 150
0.755757 64.1709 -9.23196 0 0 176
0.896375 63.73 -10.8816 0 0 212
0.500641 65.3507 -10.2895 0 0 176
0.641247 64.5687 -7.61047 0 0 176
1.03698 62.9479 -8.20259 0 0 211
0.755757 64.1709 -9.23196 0 0 176
0.027991 70.1092 -14.3514 0 0 142
0.010467 71.2992 -15.3288 0 0 142
0.287304 68.4229 -15.0393 0 0 215
0.027991 70.1092 -14.3514 0 0 178
0.084569 68.9421 -13.3299 0 0 178
9.10501 28.7379 10.9658 0 0 149
8.79016 30.8587 11.4147 0 0 149
6.90064 32.3183 -11.8549 0 0 141
6.52625 33.6478 -12.9159 0 0 141
7.06796 33.2175 -10.8302 0 0 141
6.90064 32.3183 -11.8549 0 0 141
5.07876 39.0287 19.4861 0 0 182
5.70827 37.5111 18.999 0 0 182
5.43558 39.4455 18.0117 0 0 220
5.07876 39.0287 19.4861 0 0 143
4.4373 40.4286 20.01 0 0 143
1.68669 64.006 -26.831 0 0 199
1.59756 64.9638 -27.7188 0 0 168
1.44844 65.9823 -26.3996 0 0 168
4.056 39.1828 -23.2475 0 0 179
4.02764 37.7689 -24.0687 0 0 179
3.83869 40.2027 -24.4489 0 0 215
5.00413 38.535 -17.6394 0 0 182
4.66333 39.6733 -18.8927 0 0 182
4.74211 40.8643 -17.9003 0 0 220
5.00413 38.535 -17.6394 0 0 143
5.35291 37.3951 -16.4285 0 0 143
9.27892 25.2587 -1.28404 0 0 149
9.3579 25.8529 0.003332 0 0 149
0.511943 64.8805 -5.92593 0 0 140
0.641247 64.5687 -7.61047 0 0 140
0.390558 65.1402 -4.26332 0 0 140
0.264941 65.3164 -2.54152 0 0 140
0.801084 63.6054 -4.91849 0 0 211
0.511943 64.8805 -5.92593 0 0 176
0.390558 65.1402 -4.26332 0 0 176
1.65108 59.9327 1.61512 0 0 177
1.80825 59.8832 -0.077754 0 0 214
1.24332 61.2961 0.52766 0 0 177
1.46417 59.9152 3.29498 0 0 178
2.0291 58.5023 2.68956 0 0 214
1.65108 59.9327 1.61512 0 0 178
1.28017 59.8105 5.03081 0 0 142
1.46417 59.9152 3.29498 0 0 142
1.6212 58.31 6.08783 0 0 142
1.28017 59.8105 5.03081 0 0 142
1.29998 66.9411 -24.9908 0 0 137
1.44844 65.9823 -26.3996 0 0 137
1.33387 65.9102 -24.0356 0 0 208
1.29998 66.9411 -24.9908 0 0 174
1.09628 67.8269 -23.5145 0 0 174
0.226065 70.7341 -17.0531 0 0 142
0.010467 71.2992 -15.3288 0 0 142
0.44935 70.0963 -18.7147 0 0 178
0.226065 70.7341 -17.0531 0 0 178
0.454011 68.9521 -17.7223 0 0 215
0.669887 69.4067 -20.3719 0 0 141
0.44935 70.0963 -18.7147 0 0 141
0.903735 67.5551 -20.9716 0 0 213
0.896326 68.6475 -21.9596 0 0 177
0.669887 69.4067 -20.3719 0 0 177
9.38688 28.0775 6.75115 0 0 194
9.44167 27.7532 5.36101 0 0 194
9.24378 30.0623 5.76509 0 0 238
9.38688 28.0775 6.75115 0 0 150
9.32928 28.3678 8.14215 0 0 150
9.21601 28.5677 9.55729 0 0 149
9.10501 28.7379 10.9658 0 0 149
7.21929 34.1179 -9.74124 0 0 180
7.06796 33.2175 -10.8302 0 0 180
6.82738 35.564 -10.8248 0 0 218
7.61841 32.5867 -8.63417 0 0 182
7.21929 34.1179 -9.74124 0 0 182
7.37783 34.9331 -8.62868 0 0 220
7.96636 30.9959 -7.62433 0 0 143
7.61841 32.5867 -8.63417 0 0 143
7.96636 30.9959 -7.62433 0 0 144
8.11841 31.7378 -6.47562 0 0 144
8.84506 28.9645 -3.22368 0 0 146
8.57796 30.7479 -4.2074 0 0 146
8.94339 29.5938 -1.96876 0 0 232
9.0924 27.1363 -2.20727 0 0 190
8.84506 28.9645 -3.22368 0 0 190
8.42338 32.9397 11.8171 0 0 191
8.79016 30.8587 11.4147 0 0 191
8.59566 32.8675 10.3879 0 0 234
8.19236 32.9051 13.2722 0 0 190
8.42338 32.9397 11.8171 0 0 190
7.99786 34.9138 12.2453 0 0 233
7.9632 32.8497 14.7049 0 0 147
8.19236 32.9051 13.2722 0 0 147
7.67927 32.6819 16.1599 0 0 188
7.9632 32.8497 14.7049 0 0 188
7.48292 34.7115 15.1554 0 0 230
7.39876 32.5005 17.5862 0 0 146
7.67927 32.6819 16.1599 0 0 146
7.39876 32.5005 17.5862 0 0 146
6.87245 34.2463 18.0564 0 0 146
6.3055 35.9383 18.5136 0 0 144
5.70827 37.5111 18.999 0 0 144
1.60409 51.9846 16.1758 0 0 142
1.8877 52.5227 14.4495 0 0 142
1.28744 51.3973 17.8496 0 0 142
1.01666 50.7234 19.5781 0 0 142
1.89927 50.2414 17.1718 0 0 216
1.60409 51.9846 16.1758 0 0 179
1.28744 51.3973 17.8496 0 0 179
1.84792 45.3163 22.3994 0 0 141
1.57623 47.1415 21.4889 0 0 141
2.47114 44.2172 21.7413 0 0 141
1.84792 45.3163 22.3994 0 0 141
3.12441 43.0169 21.132 0 0 178
2.83157 44.8632 20.1863 0 0 215
2.47114 44.2172 21.7413 0 0 178
3.77669 41.7785 20.549 0 0 142
3.12441 43.0169 21.132 0 0 142
1.15569 65.4737 -30.3125 0 0 128
1.20807 66.6796 -29.2321 0 0 128
1.44164 63.4867 -30.6993 0 0 128
1.15569 65.4737 -30.3125 0 0 128
1.66235 63.8612 -28.9345 0 0 189
1.4241 65.8376 -28.5031 0 0 161
1.59756 64.9638 -27.7188 0 0 161
1.67644 61.4565 -31.029 0 0 152
1.44164 63.4867 -30.6993 0 0 152
1.72369 62.7049 -30.0486 0 0 176
1.90318 59.3787 -31.2464 0 0 128
1.67644 61.4565 -31.029 0 0 128
2.09679 57.2678 -31.4066 0 0 153
1.90318 59.3787 -31.2464 0 0 153
2.15211 58.5638 -30.5386 0 0 177
2.26956 55.0998 -31.4451 0 0 128
2.09679 57.2678 -31.4066 0 0 128
2.50042 54.257 -30.6813 0 0 161
2.4881 55.5458 -29.8038 0 0 189
2.64281 53.3499 -29.7862 0 0 161
2.26956 55.0998 -31.4451 0 0 130
2.50042 54.257 -30.6813 0 0 130
3.05368 46.5432 -29.2863 0 0 165
2.92015 48.8496 -29.523 0 0 165
3.08242 47.9151 -28.5333 0 0 195
3.05368 46.5432 -29.2863 0 0 135
3.13938 44.1421 -28.9333 0 0 135
3.7199 37.2388 -25.9231 0 0 175
3.53417 38.2298 -27.0566 0 0 175
3.6246 39.7799 -26.4036 0 0 210
3.7199 37.2388 -25.9231 0 0 140
3.94917 36.2397 -24.8057 0 0 140
4.09992 40.5678 -22.3776 0 0 181
3.86297 42.8933 -22.6593 0 0 219
4.09585 41.8445 -21.4092 0 0 181
4.056 39.1828 -23.2475 0 0 143
4.09992 40.5678 -22.3776 0 0 143
4.36706 40.7608 -20.1405 0 0 143
4.66333 39.6733 -18.8927 0 0 143
9.44954 27.348 3.99659 0 0 150
9.44167 27.7532 5.36101 0 0 150
3 0 39 37
3 145 41 146
3 148 147 41
3 0 45 43
3 0 37 45
3 1 149 151
3 151 150 47
3 149 150 151
3 153 152 48
3 154 51 155
3 156 48 157
3 158 157 51
3 156 157 158
3 4 159 161
3 159 53 160
3 159 160 161
3 5 56 54
3 5 58 56
3 2 61 59
3 6 64 62
3 6 66 64
3 6 68 66
3 7 71 69
3 7 162 164
3 164 163 71
3 162 163 164
3 3 74 72
3 8 77 75
3 8 79 77
3 8 81 79
3 4 165 167
3 167 166 82
3 165 166 167
3 4 168 169
3 9 85 83
3 11 86 38
3 11 87 86
3 12 90 88
3 14 91 40
3 14 92 91
3 14 94 92
3 16 95 42
3 16 96 95
3 17 99 97
3 19 100 44
3 19 101 100
3 19 103 101
3 9 104 46
3 9 83 104
3 21 170 171
3 22 107 105
3 24 108 49
3 24 109 108
3 172 110 173
3 174 111 175
3 176 175 110
3 174 175 176
3 178 177 111
3 179 112 180
3 25 113 50
3 25 114 113
3 25 115 114
3 22 116 52
3 22 105 116
3 26 181 183
3 183 182 117
3 181 182 183
3 10 118 84
3 27 119 55
3 27 184 186
3 186 185 119
3 184 185 186
3 27 187 189
3 187 120 188
3 187 188 189
3 28 121 57
3 28 122 121
3 23 123 106
3 29 124 60
3 29 125 124
3 13 126 89
3 30 127 63
3 30 128 127
3 30 129 128
3 31 130 65
3 31 131 130
3 31 132 131
3 32 133 67
3 32 134 133
3 15 135 93
3 33 136 70
3 33 137 136
3 33 190 192
3 192 191 137
3 190 191 192
3 193 138 194
3 195 139 196
3 197 196 138
3 195 196 197
3 198 140 199
3 34 141 73
3 34 142 141
3 18 143 98
3 35 144 76
3 35 200 202
3 202 201 144
3 200 201 202
3 35 203 204
3 36 205 207
3 207 206 78
3 205 206 207
3 36 208 209
3 36 210 211
3 213 212 80
3 20 214 216
3 216 215 102
3 214 215 216
3 37 38 9
3 39 38 37
3 39 11 38
3 217 40 218
3 219 218 12
3 217 218 219
3 41 220 222
3 220 40 221
3 220 221 222
3 41 14 40
3 41 42 14
3 223 42 224
3 225 224 41
3 223 224 225
3 226 16 227
3 228 227 42
3 226 227 228
3 43 44 17
3 45 44 43
3 45 19 44
3 45 46 19
3 37 46 45
3 37 9 46
3 47 229 231
3 231 230 21
3 229 230 231
3 233 232 47
3 48 49 22
3 234 49 235
3 236 235 48
3 234 235 236
3 237 24 238
3 239 238 49
3 237 238 239
3 240 50 241
3 51 242 244
3 242 50 243
3 242 243 244
3 51 25 50
3 51 52 25
3 48 52 51
3 48 22 52
3 246 245 26
3 53 247 248
3 53 249 250
3 54 55 10
3 56 55 54
3 56 27 55
3 56 57 27
3 58 57 56
3 58 28 57
3 59 60 23
3 61 60 59
3 61 29 60
3 62 63 13
3 64 63 62
3 64 30 63
3 64 65 30
3 66 65 64
3 66 31 65
3 66 67 31
3 68 67 66
3 68 32 67
3 69 70 15
3 71 70 69
3 71 33 70
3 71 251 253
3 253 252 33
3 251 252 253
3 255 254 71
3 72 256 258
3 256 73 257
3 256 257 258
3 74 73 72
3 74 34 73
3 75 76 18
3 77 76 75
3 77 35 76
3 77 78 35
3 79 78 77
3 79 36 78
3 79 80 36
3 81 80 79
3 81 259 261
3 261 260 80
3 259 260 261
3 82 262 264
3 264 263 20
3 262 263 264
3 266 265 82
3 83 84 4
3 85 84 83
3 85 10 84
3 38 85 9
3 86 85 38
3 86 10 85
3 86 54 10
3 87 54 86
3 87 5 54
3 88 89 2
3 90 89 88
3 90 13 89
3 40 90 12
3 91 90 40
3 91 13 90
3 91 62 13
3 92 62 91
3 92 6 62
3 92 93 6
3 94 93 92
3 94 15 93
3 42 94 14
3 95 94 42
3 95 15 94
3 95 69 15
3 96 69 95
3 96 7 69
3 97 98 3
3 99 98 97
3 99 18 98
3 44 99 17
3 100 99 44
3 100 18 99
3 100 75 18
3 101 75 100
3 101 8 75
3 101 102 8
3 103 102 101
3 103 20 102
3 46 103 19
3 104 103 46
3 104 20 103
3 104 82 20
3 83 82 104
3 83 4 82
3 268 267 21
3 105 106 0
3 107 106 105
3 107 23 106
3 49 107 22
3 108 107 49
3 108 23 107
3 108 59 23
3 109 59 108
3 109 2 59
3 269 24 270
3 110 271 272
3 110 273 275
3 273 24 274
3 273 274 275
3 110 109 24
3 111 109 110
3 111 2 109
3 111 88 2
3 276 88 277
3 278 277 111
3 276 277 278
3 279 12 280
3 281 280 88
3 279 280 281
3 282 12 283
3 285 284 12
3 286 72 287
3 112 288 290
3 288 72 289
3 288 289 290
3 112 3 72
3 50 291 292
3 113 293 295
3 295 294 50
3 293 294 295
3 113 296 297
3 113 298 300
3 298 112 299
3 298 299 300
3 114 112 113
3 114 3 112
3 114 97 3
3 115 97 114
3 115 17 97
3 52 115 25
3 116 115 52
3 116 17 115
3 116 43 17
3 105 43 116
3 105 0 43
3 117 301 303
3 303 302 1
3 301 302 303
3 305 304 117
3 307 306 26
3 84 53 4
3 118 53 84
3 118 308 310
3 310 309 53
3 308 309 310
3 55 118 10
3 119 118 55
3 119 311 313
3 313 312 118
3 311 312 313
3 119 314 315
3 317 316 119
3 120 318 319
3 120 320 322
3 320 21 321
3 320 321 322
3 57 120 27
3 121 120 57
3 121 21 120
3 121 47 21
3 122 47 121
3 122 1 47
3 106 39 0
3 123 39 106
3 123 11 39
3 60 123 23
3 124 123 60
3 124 11 123
3 124 87 11
3 125 87 124
3 125 5 87
3 89 61 2
3 126 61 89
3 126 29 61
3 63 126 13
3 127 126 63
3 127 29 126
3 127 125 29
3 128 125 127
3 128 5 125
3 128 58 5
3 129 58 128
3 129 28 58
3 65 129 30
3 130 129 65
3 130 28 129
3 130 122 28
3 131 122 130
3 131 1 122
3 131 117 1
3 132 117 131
3 132 26 117
3 67 132 31
3 133 132 67
3 133 26 132
3 133 323 325
3 325 324 26
3 323 324 325
3 134 326 328
3 328 327 133
3 326 327 328
3 134 329 330
3 93 68 6
3 135 68 93
3 135 32 68
3 70 135 15
3 136 135 70
3 136 32 135
3 136 134 32
3 137 134 136
3 137 331 333
3 333 332 134
3 331 332 333
3 137 334 335
3 337 336 137
3 339 338 33
3 340 16 341
3 138 342 343
3 138 344 346
3 344 16 345
3 344 345 346
3 138 96 16
3 139 96 138
3 139 7 96
3 347 139 348
3 349 139 350
3 351 7 352
3 353 352 139
3 351 352 353
3 355 354 7
3 140 356 357
3 140 358 359
3 73 360 362
3 360 140 361
3 360 361 362
3 141 140 73
3 141 363 365
3 365 364 140
3 363 364 365
3 141 366 367
3 142 368 370
3 370 369 141
3 368 369 370
3 142 371 372
3 98 74 3
3 143 74 98
3 143 34 74
3 76 143 18
3 144 143 76
3 144 34 143
3 144 142 34
3 373 142 374
3 375 374 144
3 373 374 375
3 377 376 142
3 78 378 380
3 380 379 35
3 378 379 380
3 382 381 78
3 80 383 385
3 385 384 36
3 383 384 385
3 387 386 80
3 102 81 8
3 388 81 389
3 390 389 102
3 388 389 390
3 392 391 81
3 394 393 20
3 396 395 1
