ply
format ascii 1.0
element vertex 499
property float x
property float y
property float z
property uchar red
property uchar green
property uchar blue
element face 544
property list uchar int vertex_index
end_header
-64.7247 -68.1248 -9.05402 255 195 0
-64.4256 -44.3208 -14.2685 220 0 0
-62.4144 -33.4236 -14.542 255 119 0
-65.4442 -32.5656 -21.8185 128 0 0
-64.0201 -50.35 0.683265 239 255 16
-56.9596 -79.0017 -7.08411 164 0 0
-67.3225 -55.9986 -11.8408 255 232 0
-58.3368 -75.2707 -0.11709 51 255 204
-63.0333 -64.7408 -2.88207 239 0 0
-63.195 -53.4341 -5.87646 255 99 0
-63.4822 -42.6693 -7.24856 255 68 0
-63.2506 -28.555 -13.7679 60 255 195
-62.4998 -28.1264 -17.5672 85 255 170
-61.1668 -73.735 -7.97055 157 0 0
-59.3758 -75.5052 -11.3131 238 255 17
-66.2538 -50.0471 -13.2342 203 0 0
-66.9275 -44.5412 -17.5163 230 255 25
-65.9089 -26.0367 -25.0411 105 255 150
-59.5838 -67.9573 1.52192 73 255 182
-60.9568 -62.5315 -0.140606 164 255 91
-63.4925 -59.046 -4.49387 255 10 0
-61.7853 -57.0829 -1.63152 97 255 158
-66.3652 -45.5635 0.203606 141 255 114
-63.9693 -46.6357 -3.34318 255 71 0
-65.8038 -41.5842 -3.62616 160 255 95
-64.8778 -37.4476 -7.30713 255 225 0
-62.8661 -38.7677 -14.7318 255 65 0
-64.8699 -38.7369 -18.229 152 0 0
-63.1051 -33.2216 -18.3002 255 20 0
-63.6301 -27.2159 -21.4195 177 255 78
-66.4281 -49.5007 4.22791 22 255 233
-53.0101 -84.3494 -6.37204 173 0 0
-55.1294 -81.0964 -10.3721 82 255 173
-66.8849 -62.1165 -10.371 153 255 102
-54.2279 -82.0622 -2.78529 86 255 169
-58.1469 -77.1266 -3.56738 198 0 0
-61.9127 -72.0645 -4.53695 242 0 0
-61.2961 -70.2295 -1.35265 255 3 0
-64.5839 -66.5631 -5.7998 255 25 0
-65.6499 -60.7278 -7.31532 255 7 0
-65.2228 -54.8806 -8.84865 245 0 0
-63.9852 -49.209 -10.0961 255 43 0
-62.6346 -51.7868 -2.71624 165 255 90
-62.9622 -47.9935 -6.80886 255 144 0
-62.9205 -43.6949 -10.8412 255 110 0
-62.8346 -38.2893 -11.0301 255 81 0
-63.8893 -33.0795 -10.7659 255 46 0
-63.0817 -70.9873 -8.48391 173 0 0
-62.4092 -71.8062 -10.1971 255 140 0
-64.2344 -68.9021 -10.7586 103 255 152
-65.3721 -47.159 -13.8122 197 0 0
-66.6126 -47.3781 -15.4015 255 171 0
-65.6508 -44.4673 -15.9093 164 0 0
-61.406 -59.7942 -0.925827 131 255 124
-66.1425 -43.5854 -1.7306 150 255 105
-62.4708 -36.0596 -14.7182 255 102 0
-62.9399 -36.0647 -16.5674 255 41 0
-62.489 -33.3915 -16.4401 255 97 0
-62.8495 -27.7198 -19.5112 125 255 130
-54.9026 -81.6345 -6.70358 174 0 0
-54.0865 -82.765 -8.39848 255 175 0
-56.1077 -80.0184 -8.77038 175 0 0
-67.319 -59.0495 -11.0983 151 255 104
-65.148 -35.7119 -20.0746 133 0 0
-66.2171 -38.5832 -19.8833 255 129 0
-66.5126 -35.4261 -21.7271 253 255 2
-56.4889 -78.6167 -1.36968 72 255 183
-58.3875 -76.218 -1.81549 255 210 0
-60.1134 -74.6396 -4.02065 216 0 0
-60.1914 -73.757 -2.32027 250 0 0
-61.3911 -66.4501 -0.684446 223 0 0
-60.5263 -69.1536 0.112303 255 213 0
-62.3365 -67.5317 -2.08908 248 0 0
-63.0501 -68.4994 -3.56405 255 17 0
-63.9501 -65.7009 -4.30117 255 10 0
-65.3254 -63.6673 -6.53699 255 21 0
-64.4617 -62.8304 -5.08832 253 0 0
-63.3895 -56.2188 -5.23144 255 51 0
-64.4596 -57.0472 -6.66555 255 4 0
-64.1031 -54.1997 -7.37539 255 34 0
-64.646 -52.0206 -9.52507 255 8 0
-63.656 -51.3991 -7.98669 255 75 0
-63.1108 -51.0138 -1.0425 97 255 158
-63.7675 -44.6948 -5.30778 255 69 0
-63.2167 -47.3067 -5.09427 255 122 0
-63.1035 -45.3205 -7.08614 255 118 0
-62.9675 -45.9171 -8.83399 255 130 0
-62.9243 -43.2168 -9.05874 255 113 0
-62.7262 -40.9773 -11.002 255 109 0
-63.1547 -40.5389 -9.16084 255 71 0
-65.7502 -34.9064 -7.25282 49 255 206
-64.3671 -35.2915 -9.07465 255 6 0
-65.1992 -32.7642 -8.94007 151 255 104
-64.6776 -30.6194 -10.5364 114 255 141
-62.6944 -30.9009 -14.2164 255 136 0
-62.3885 -30.8234 -16.1273 255 134 0
-62.6409 -28.4134 -15.6346 66 255 189
-59.0865 -76.39 -7.50615 156 0 0
-58.2378 -77.3191 -9.20064 155 0 0
-60.3752 -74.6008 -9.67783 137 0 0
-61.4779 -72.6582 -11.8649 120 255 135
-66.9407 -52.9934 -12.5651 230 0 0
-67.8698 -53.3937 -14.1186 53 255 202
-67.3884 -50.3522 -14.7935 190 255 65
-65.7159 -29.33 -23.468 135 0 0
-66.7802 -32.1627 -23.4756 247 255 8
-66.9711 -28.8254 -25.1463 107 255 148
-60.3671 -65.2654 0.688745 185 255 70
-61.9753 -63.6764 -1.51002 233 0 0
-63.4012 -61.8979 -3.69732 242 0 0
-62.3183 -60.8744 -2.32432 255 10 0
-62.4888 -58.0823 -3.08659 255 60 0
-62.5743 -55.3253 -3.7623 255 112 0
-65.2086 -47.9465 0.411654 255 40 0
-64.0587 -48.5143 -1.35009 255 69 0
-65.0883 -46.0378 -1.57136 255 36 0
-64.8465 -44.0971 -3.51625 255 28 0
-64.5033 -42.105 -5.43066 255 19 0
-64.0913 -40.0414 -7.31444 255 17 0
-65.3711 -39.543 -5.48649 167 255 88
-63.5491 -41.5244 -14.5799 255 12 0
-64.6308 -41.6128 -16.2876 183 0 0
-63.6861 -38.8106 -16.5129 232 0 0
-63.8879 -35.9394 -18.3565 203 0 0
-64.1493 -32.9344 -20.0963 184 0 0
-62.6219 -30.6047 -18.0414 255 86 0
-63.3478 -30.2627 -19.9179 255 2 0
-64.4397 -29.825 -21.7293 175 0 0
-64.7097 -26.6424 -23.2643 220 255 35
-63.8516 -52.1571 2.77204 31 255 224
-65.0633 -51.7196 4.54326 34 255 221
-65.1992 -49.838 2.44531 255 38 0
-66.4607 -47.5327 2.18575 135 255 120
-51.3355 -87.1864 -6.10492 96 255 159
-52.2471 -85.6146 -8.10174 89 255 166
-57.2263 -78.2967 -10.8093 220 255 35
-66.0116 -65.1567 -9.68458 169 255 86
-65.9269 -41.6044 -17.9404 138 0 0
-67.2266 -41.5434 -19.5521 107 255 148
-51.9666 -85.8655 -4.28396 94 255 161
-53.6775 -83.1676 -4.59566 255 169 0
-55.5993 -80.5764 -4.94916 174 0 0
-56.1429 -79.5795 -3.16008 255 179 0
-57.6543 -78.0433 -5.33738 172 0 0
-59.7293 -75.5043 -5.76398 178 0 0
-61.6972 -72.8989 -6.2402 198 0 0
-63.4375 -70.1868 -6.77907 227 0 0
-59.378 -71.7532 0.848582 55 255 200
-59.9396 -72.8087 -0.693878 255 235 0
-61.7777 -71.1894 -2.90092 255 12 0
-63.4308 -69.3717 -5.12922 255 12 0
-64.8499 -67.3575 -7.38891 255 3 0
-65.8643 -64.4303 -8.06826 255 24 0
-66.4454 -61.4447 -8.8032 255 26 0
-66.596 -58.4463 -9.56779 255 10 0
-64.6105 -59.9326 -5.89003 247 0 0
-65.5917 -57.7882 -8.0992 247 0 0
-66.3573 -55.473 -10.3271 241 0 0
-65.8069 -52.5474 -11.0423 226 0 0
-65.0533 -49.6757 -11.676 231 0 0
-64.2253 -46.8524 -12.1963 255 5 0
-62.1713 -54.4131 -2.2325 72 255 183
-62.6692 -52.6133 -4.32762 255 149 0
-63.2267 -49.1973 -3.08284 255 121 0
-62.8613 -49.9434 -4.77129 255 153 0
-63.0186 -50.6947 -6.4059 255 136 0
-63.24 -48.6416 -8.47665 255 113 0
-63.3703 -46.4372 -10.5388 255 84 0
-63.457 -44.0674 -12.5802 255 49 0
-62.8709 -41.3133 -12.8148 255 88 0
-62.5599 -38.5915 -12.8969 255 106 0
-62.5729 -35.9158 -12.8332 255 99 0
-63.6538 -37.8912 -9.1581 255 26 0
-63.2412 -35.6475 -10.9427 255 50 0
-62.9057 -33.314 -12.6403 255 90 0
-63.4988 -30.8283 -12.3463 255 112 0
-64.2421 -28.5129 -11.9979 0 223 255
-67.6499 -56.2475 -12.6258 0 0 175
-67.6482 -57.773 -12.2546 0 0 175
-67.3207 -57.524 -11.4695 0 0 213
-58.3621 -75.7444 -0.966287 0 0 215
-57.4899 -76.9321 -0.713481 0 0 177
-57.4645 -76.4584 0.135717 0 0 177
-63.5655 -50.6819 -0.179616 0 0 206
-62.986 -51.8939 -0.000227 0 0 171
-63.4407 -51.562 0.862654 0 0 171
-65.897 -32.6019 -8.05906 0 0 175
-65.4747 -33.8353 -8.09644 0 0 212
-66.1724 -33.673 -7.21543 0 0 175
-65.6145 -31.5484 -8.86445 0 0 137
-65.897 -32.6019 -8.05906 0 0 137
-62.4553 -71.1844 -12.1584 0 0 191
-61.9436 -72.2322 -11.031 0 0 236
-62.9209 -70.7584 -11.3244 0 0 191
-61.9286 -71.6041 -12.9719 0 0 146
-62.4553 -71.1844 -12.1584 0 0 146
-67.3379 -46.0459 -17.2505 0 0 184
-67.1805 -47.4644 -16.1931 0 0 184
-66.77 -45.9596 -16.4589 0 0 225
-67.4926 -44.5665 -18.3128 0 0 142
-67.3379 -46.0459 -17.2505 0 0 142
-60.662 -63.8984 0.27407 0 0 218
-59.9072 -64.6433 1.38289 0 0 179
-60.202 -63.2764 0.968213 0 0 179
-63.707 -53.0494 3.8513 0 0 137
-63.168 -53.3238 2.97985 0 0 137
-65.7457 -50.6101 4.38559 0 0 211
-65.6692 -51.5924 5.44233 0 0 175
-66.3516 -50.483 5.28465 0 0 175
-54.1491 -82.533 -10.1979 0 0 184
-53.6276 -83.3673 -9.2111 0 0 184
-54.608 -81.9307 -9.3853 0 0 225
-54.585 -81.6644 -11.1282 0 0 140
-54.1491 -82.533 -10.1979 0 0 140
-66.9023 -62.4503 -11.1926 0 0 177
-66.4657 -63.9704 -10.8494 0 0 177
-66.4482 -63.6366 -10.0278 0 0 215
-68.1674 -53.5943 -14.919 0 0 139
-68.0779 -52.015 -15.2471 0 0 139
-67.3703 -39.9719 -20.522 0 0 188
-66.7219 -40.0633 -19.7177 0 0 232
-66.8656 -38.4917 -20.6876 0 0 188
-67.7801 -41.5137 -20.348 0 0 143
-67.3703 -39.9719 -20.522 0 0 143
-67.2746 -33.6492 -23.4045 0 0 144
-67.3656 -31.9713 -24.2831 0 0 144
-51.4889 -86.5899 -3.20856 0 0 144
-51.2285 -87.2773 -4.15775 0 0 144
-53.9527 -82.6149 -3.69047 0 0 223
-53.0891 -83.8989 -3.51766 0 0 182
-53.3643 -83.3462 -2.61247 0 0 182
-59.0825 -69.2638 1.92159 0 0 142
-58.6303 -68.6149 2.63998 0 0 142
-62.4029 -53.1 -2.47437 0 0 195
-62.2198 -53.9777 -1.43139 0 0 164
-62.4514 -52.6646 -1.67326 0 0 164
-64.8585 -28.4032 -11.152 0 0 166
-64.4598 -29.5661 -11.2672 0 0 198
-65.0763 -29.4564 -10.4212 0 0 166
-64.6119 -27.4645 -11.8388 0 0 130
-64.8585 -28.4032 -11.152 0 0 130
-63.2222 -27.3991 -14.3717 0 0 129
-63.6072 -27.5222 -13.5066 0 0 129
-63.8336 -69.3063 -11.6052 0 0 188
-62.9209 -70.7584 -11.3244 0 0 188
-63.3218 -70.3542 -10.4778 0 0 231
-66.4707 -25.7409 -25.9032 0 0 143
-65.9399 -24.3749 -25.8005 0 0 143
-60.5615 -61.9456 0.564839 0 0 138
-60.202 -63.2764 0.968213 0 0 138
-60.7861 -60.5769 0.172229 0 0 175
-61.1814 -61.1629 -0.533216 0 0 211
-60.5615 -61.9456 0.564839 0 0 175
-61.1225 -59.255 -0.195734 0 0 136
-60.7861 -60.5769 0.172229 0 0 136
-61.3121 -57.8994 -0.548582 0 0 169
-61.5957 -58.4386 -1.27867 0 0 204
-61.1225 -59.255 -0.195734 0 0 169
-66.7741 -43.3979 -0.849587 0 0 173
-66.2539 -44.5745 -0.763496 0 0 209
-66.8855 -44.3869 0.117516 0 0 173
-66.6393 -42.3762 -1.79273 0 0 137
-66.7741 -43.3979 -0.849587 0 0 137
-66.4699 -41.3755 -2.74051 0 0 175
-65.9731 -42.5848 -2.67838 0 0 212
-66.6393 -42.3762 -1.79273 0 0 175
-66.2791 -40.3462 -3.66253 0 0 138
-66.4699 -41.3755 -2.74051 0 0 138
-62.7858 -26.5316 -19.1825 0 0 168
-62.6746 -27.9231 -18.5392 0 0 201
-62.611 -26.7348 -18.2105 0 0 168
-62.9883 -26.2396 -20.1811 0 0 136
-62.7858 -26.5316 -19.1825 0 0 136
-63.3786 -25.9877 -21.1352 0 0 174
-63.2398 -27.4679 -20.4654 0 0 211
-62.9883 -26.2396 -20.1811 0 0 174
-63.7641 -25.6623 -22.1166 0 0 139
-63.3786 -25.9877 -21.1352 0 0 139
-66.9496 -49.4204 5.12395 0 0 135
-66.3516 -50.483 5.28465 0 0 135
-66.9999 -48.3974 4.09324 0 0 135
-66.9496 -49.4204 5.12395 0 0 135
-58.7928 -75.9737 -12.0764 0 0 145
-59.8581 -74.5218 -12.3758 0 0 145
-67.4919 -59.3442 -11.8998 0 0 175
-67.2748 -60.8777 -11.5362 0 0 175
-67.1019 -60.583 -10.7347 0 0 212
-67.4919 -59.3442 -11.8998 0 0 139
-67.6482 -57.773 -12.2546 0 0 139
-67.0133 -36.9132 -21.6095 0 0 188
-66.8656 -38.4917 -20.6876 0 0 188
-66.3649 -37.0047 -20.8052 0 0 232
-53.5709 -82.7652 -1.68484 0 0 143
-53.3643 -83.3462 -2.61247 0 0 143
-56.5406 -78.1314 -0.49058 0 0 139
-55.6597 -79.3021 -0.263591 0 0 139
-57.4382 -77.4174 -1.59258 0 0 221
-56.5406 -78.1314 -0.49058 0 0 181
-57.4899 -76.9321 -0.713481 0 0 181
-62.6895 -52.2781 -0.836389 0 0 134
-62.986 -51.8939 -0.000227 0 0 134
-62.8727 -51.4003 -1.87937 0 0 199
-62.4514 -52.6646 -1.67326 0 0 166
-62.6895 -52.2781 -0.836389 0 0 166
-65.3537 -30.476 -9.66263 0 0 173
-64.9384 -31.6918 -9.73825 0 0 208
-65.6145 -31.5484 -8.86445 0 0 173
-65.0763 -29.4564 -10.4212 0 0 135
-65.3537 -30.476 -9.66263 0 0 135
-62.9173 -27.3283 -15.305 0 0 160
-62.9457 -28.4842 -14.7013 0 0 190
-63.2222 -27.3991 -14.3717 0 0 160
-62.6952 -27.1289 -16.2533 0 0 132
-62.9173 -27.3283 -15.305 0 0 132
-62.6247 -26.9854 -17.2195 0 0 163
-62.5703 -28.2699 -16.6009 0 0 194
-62.6952 -27.1289 -16.2533 0 0 163
-62.611 -26.7348 -18.2105 0 0 134
-62.6247 -26.9854 -17.2195 0 0 134
-60.9091 -73.0983 -12.6517 0 0 188
-59.8581 -74.5218 -12.3758 0 0 188
-60.4269 -74.0817 -11.589 0 0 231
-60.9091 -73.0983 -12.6517 0 0 146
-61.9286 -71.6041 -12.9719 0 0 146
-67.8372 -50.4943 -15.5846 0 0 179
-68.0779 -52.015 -15.2471 0 0 179
-67.6291 -51.873 -14.456 0 0 218
-67.5684 -48.9515 -15.8891 0 0 183
-67.0005 -48.8651 -15.0975 0 0 224
-67.1805 -47.4644 -16.1931 0 0 183
-67.8372 -50.4943 -15.5846 0 0 140
-67.5684 -48.9515 -15.8891 0 0 140
-67.461 -30.3027 -25.1185 0 0 186
-67.3656 -31.9713 -24.2831 0 0 186
-66.8756 -30.4941 -24.3109 0 0 228
-67.0018 -27.1353 -25.9558 0 0 187
-66.44 -27.431 -25.0937 0 0 229
-66.4707 -25.7409 -25.9032 0 0 187
-67.491 -28.5951 -25.9685 0 0 142
-67.0018 -27.1353 -25.9558 0 0 142
-67.461 -30.3027 -25.1185 0 0 143
-67.491 -28.5951 -25.9685 0 0 143
-57.3809 -75.9442 0.986357 0 0 140
-57.4645 -76.4584 0.135717 0 0 140
-59.1068 -67.3139 2.22049 0 0 141
-58.6303 -68.6149 2.63998 0 0 141
-59.4984 -65.9679 1.8039 0 0 140
-59.9072 -64.6433 1.38289 0 0 140
-59.9755 -66.6113 1.10533 0 0 222
-59.1068 -67.3139 2.22049 0 0 182
-59.4984 -65.9679 1.8039 0 0 182
-66.0627 -39.3257 -4.5927 0 0 177
-65.5874 -40.5636 -4.55633 0 0 215
-66.2791 -40.3462 -3.66253 0 0 177
-65.8266 -38.2831 -5.49357 0 0 139
-66.0627 -39.3257 -4.5927 0 0 139
-65.5799 -37.2354 -6.40389 0 0 179
-65.1244 -38.4953 -6.39681 0 0 217
-65.8266 -38.2831 -5.49357 0 0 179
-66.0161 -35.9648 -6.37673 0 0 178
-65.314 -36.177 -7.27998 0 0 217
-65.5799 -37.2354 -6.40389 0 0 178
-66.4387 -34.7361 -6.37493 0 0 138
-66.0161 -35.9648 -6.37673 0 0 138
-66.1724 -33.673 -7.21543 0 0 138
-66.4387 -34.7361 -6.37493 0 0 138
-64.3039 -25.3756 -23.039 0 0 181
-64.1699 -26.9292 -22.3419 0 0 221
-63.7641 -25.6623 -22.1166 0 0 181
-64.8064 -25.0288 -23.9908 0 0 142
-64.3039 -25.3756 -23.039 0 0 142
-65.406 -24.7259 -24.8792 0 0 185
-65.3093 -26.3395 -24.1527 0 0 228
-64.8064 -25.0288 -23.9908 0 0 185
-65.9399 -24.3749 -25.8005 0 0 143
-65.406 -24.7259 -24.8792 0 0 143
-63.3564 -52.4656 1.90704 0 0 137
-63.168 -53.3238 2.97985 0 0 137
-63.9359 -51.2536 1.72765 0 0 207
-63.4407 -51.562 0.862654 0 0 172
-63.3564 -52.4656 1.90704 0 0 172
-64.9381 -52.654 5.62989 0 0 138
-65.6692 -51.5924 5.44233 0 0 138
-64.3128 -52.8307 4.73691 0 0 139
-64.9381 -52.654 5.62989 0 0 139
-64.4574 -51.9383 3.65765 0 0 213
-63.707 -53.0494 3.8513 0 0 175
-64.3128 -52.8307 4.73691 0 0 175
-67.0162 -47.4134 3.07216 0 0 169
-66.4444 -48.5167 3.20683 0 0 203
-66.9999 -48.3974 4.09324 0 0 169
-67.0062 -46.3916 2.07585 0 0 136
-67.0162 -47.4134 3.07216 0 0 136
-66.9585 -45.407 1.08478 0 0 171
-66.413 -46.5481 1.19468 0 0 206
-67.0062 -46.3916 2.07585 0 0 171
-66.8855 -44.3869 0.117516 0 0 136
-66.9585 -45.407 1.08478 0 0 136
-50.9762 -87.8917 -7.00199 0 0 143
-50.606 -88.6693 -6.01362 0 0 143
-51.432 -87.1058 -8.0004 0 0 187
-50.9762 -87.8917 -7.00199 0 0 187
-51.7913 -86.4005 -7.10333 0 0 230
-51.8202 -86.2895 -8.94354 0 0 142
-51.432 -87.1058 -8.0004 0 0 142
-52.7079 -84.7921 -9.06273 0 0 181
-53.1668 -84.1898 -8.25011 0 0 221
-53.6276 -83.3673 -9.2111 0 0 181
-51.8202 -86.2895 -8.94354 0 0 143
-52.7079 -84.7921 -9.06273 0 0 143
-57.718 -77.3694 -11.8245 0 0 185
-58.3011 -76.901 -11.0612 0 0 226
-58.7928 -75.9737 -12.0764 0 0 185
-56.6535 -78.8071 -11.5603 0 0 143
-57.718 -77.3694 -11.8245 0 0 143
-55.6051 -80.207 -11.3417 0 0 182
-56.1779 -79.6965 -10.5907 0 0 222
-56.6535 -78.8071 -11.5603 0 0 182
-54.585 -81.6644 -11.1282 0 0 142
-55.6051 -80.207 -11.3417 0 0 142
-65.8863 -65.5214 -10.5245 0 0 180
-65.2429 -67.0055 -10.2092 0 0 180
-65.3681 -66.6408 -9.3693 0 0 220
-65.8863 -65.5214 -10.5245 0 0 142
-66.4657 -63.9704 -10.8494 0 0 142
-66.9023 -62.4503 -11.1926 0 0 140
-67.2748 -60.8777 -11.5362 0 0 140
-67.9236 -54.9451 -13.7647 0 0 176
-67.6499 -56.2475 -12.6258 0 0 176
-67.5962 -54.6962 -12.9797 0 0 214
-67.9236 -54.9451 -13.7647 0 0 138
-68.1674 -53.5943 -14.919 0 0 138
-67.6422 -43.0676 -19.3307 0 0 184
-67.4926 -44.5665 -18.3128 0 0 184
-67.077 -43.0423 -18.5342 0 0 226
-67.6422 -43.0676 -19.3307 0 0 142
-67.7801 -41.5137 -20.348 0 0 142
-67.1407 -35.281 -22.5302 0 0 188
-66.6464 -33.7944 -22.6013 0 0 231
-67.2746 -33.6492 -23.4045 0 0 188
-67.0133 -36.9132 -21.6095 0 0 144
-67.1407 -35.281 -22.5302 0 0 144
-50.913 -87.9377 -5.06823 0 0 145
-50.606 -88.6693 -6.01362 0 0 145
-51.6511 -86.526 -5.19444 0 0 225
-50.913 -87.9377 -5.06823 0 0 184
-51.2285 -87.2773 -4.15775 0 0 184
-52.2337 -85.2479 -3.36181 0 0 142
-51.4889 -86.5899 -3.20856 0 0 142
-52.822 -84.5166 -4.43981 0 0 229
-52.2337 -85.2479 -3.36181 0 0 186
-53.0891 -83.8989 -3.51766 0 0 186
-54.427 -81.5379 -1.87445 0 0 141
-53.5709 -82.7652 -1.68484 0 0 141
-55.5575 -79.8152 -1.16665 0 0 141
-55.6597 -79.3021 -0.263591 0 0 141
-55.3846 -80.2966 -2.06185 0 0 180
-55.5575 -79.8152 -1.16665 0 0 180
-56.3159 -79.0981 -2.26488 0 0 220
-55.1854 -80.8208 -2.97268 0 0 226
-54.427 -81.5379 -1.87445 0 0 184
-55.3846 -80.2966 -2.06185 0 0 184
-58.1609 -74.7535 0.695263 0 0 139
-57.3809 -75.9442 0.986357 0 0 139
-59.5537 -69.8619 1.21678 0 0 181
-59.0825 -69.2638 1.92159 0 0 181
-60.055 -68.5554 0.817114 0 0 221
-58.9796 -71.1618 1.58492 0 0 180
-59.5537 -69.8619 1.21678 0 0 180
-59.9522 -70.4534 0.480442 0 0 220
-58.3731 -72.4169 1.95406 0 0 140
-58.9796 -71.1618 1.58492 0 0 140
-58.6815 -72.9948 1.1781 0 0 140
-58.3731 -72.4169 1.95406 0 0 140
-58.9623 -73.5225 0.406869 0 0 177
-58.6815 -72.9948 1.1781 0 0 177
-59.6588 -72.281 0.077352 0 0 215
-59.1382 -74.0397 -0.405484 0 0 217
-58.1609 -74.7535 0.695263 0 0 178
-58.9623 -73.5225 0.406869 0 0 178
-61.6539 -56.5956 -0.867775 0 0 134
-61.3121 -57.8994 -0.548582 0 0 134
-61.8469 -55.2607 -1.16827 0 0 133
-62.2198 -53.9777 -1.43139 0 0 133
-61.9783 -55.748 -1.93201 0 0 198
-61.6539 -56.5956 -0.867775 0 0 165
-61.8469 -55.2607 -1.16827 0 0 165
-64.103 -27.5011 -12.6216 0 0 158
-63.6072 -27.5222 -13.5066 0 0 158
-63.7463 -28.534 -12.8829 0 0 186
-64.103 -27.5011 -12.6216 0 0 128
-64.6119 -27.4645 -11.8388 0 0 128
-64.9977 -67.3941 -11.0615 0 0 186
-64.4796 -68.5135 -9.9063 0 0 228
-65.2429 -67.0055 -10.2092 0 0 186
-64.6926 -67.7745 -11.9126 0 0 144
-64.9977 -67.3941 -11.0615 0 0 144
-63.8336 -69.3063 -11.6052 0 0 146
-64.6926 -67.7745 -11.9126 0 0 146
3 0 49 47
3 1 52 50
3 2 57 55
3 5 61 59
3 6 177 179
3 179 178 62
3 177 178 179
3 3 65 63
3 7 180 182
3 180 67 181
3 180 181 182
3 7 69 67
3 8 72 70
3 8 74 72
3 8 76 74
3 9 79 77
3 9 81 79
3 4 183 185
3 183 82 184
3 183 184 185
3 10 85 83
3 10 87 85
3 10 89 87
3 186 92 187
3 188 187 90
3 186 187 188
3 190 189 92
3 11 96 94
3 13 99 97
3 191 100 192
3 193 192 48
3 191 192 193
3 195 194 100
3 15 103 101
3 16 196 198
3 198 197 51
3 196 197 198
3 16 199 200
3 17 106 104
3 19 201 203
3 201 107 202
3 201 202 203
3 19 108 107
3 19 110 108
3 21 111 53
3 21 112 111
3 22 115 113
3 24 116 54
3 24 117 116
3 24 119 117
3 26 122 120
3 28 123 56
3 28 124 123
3 12 125 95
3 29 126 58
3 29 127 126
3 29 128 127
3 204 129 205
3 30 206 208
3 206 130 207
3 206 207 208
3 30 131 130
3 30 132 131
3 31 134 133
3 32 209 211
3 211 210 60
3 209 210 211
3 32 212 213
3 14 135 98
3 33 214 216
3 216 215 136
3 214 215 216
3 218 217 102
3 27 137 121
3 219 138 220
3 221 220 64
3 219 220 221
3 223 222 138
3 225 224 105
3 226 139 227
3 34 228 230
3 228 140 229
3 228 229 230
3 34 141 140
3 35 142 66
3 35 143 142
3 35 144 143
3 36 145 68
3 36 146 145
3 18 231 232
3 37 147 71
3 37 148 147
3 37 149 148
3 38 150 73
3 38 151 150
3 38 152 151
3 39 153 75
3 39 154 153
3 20 155 109
3 40 156 78
3 40 157 156
3 40 158 157
3 41 159 80
3 41 160 159
3 42 233 235
3 233 161 234
3 233 234 235
3 42 162 161
3 23 163 114
3 43 164 84
3 43 165 164
3 43 166 165
3 44 167 86
3 44 168 167
3 44 169 168
3 45 170 88
3 45 171 170
3 25 172 118
3 46 173 91
3 46 174 173
3 46 175 174
3 236 176 237
3 238 237 93
3 236 237 238
3 240 239 176
3 242 241 11
3 47 48 13
3 49 48 47
3 49 243 245
3 245 244 48
3 243 244 245
3 50 51 15
3 52 51 50
3 52 16 51
3 247 246 17
3 248 19 249
3 250 53 251
3 252 251 19
3 250 251 252
3 253 53 254
3 255 21 256
3 257 256 53
3 255 256 257
3 258 54 259
3 260 259 22
3 258 259 260
3 261 54 262
3 263 24 264
3 265 264 54
3 263 264 265
3 267 266 24
3 55 56 26
3 57 56 55
3 57 28 56
3 268 58 269
3 270 269 12
3 268 269 270
3 271 58 272
3 273 29 274
3 275 274 58
3 273 274 275
3 277 276 29
3 278 30 279
3 281 280 30
3 59 60 31
3 61 60 59
3 61 32 60
3 283 282 14
3 62 284 286
3 286 285 33
3 284 285 286
3 288 287 62
3 63 64 27
3 65 64 63
3 65 289 291
3 291 290 64
3 289 290 291
3 292 34 293
3 294 66 295
3 67 296 298
3 296 66 297
3 296 297 298
3 67 35 66
3 67 68 35
3 69 68 67
3 69 36 68
3 70 71 18
3 72 71 70
3 72 37 71
3 72 73 37
3 74 73 72
3 74 38 73
3 74 75 38
3 76 75 74
3 76 39 75
3 77 78 20
3 79 78 77
3 79 40 78
3 79 80 40
3 81 80 79
3 81 41 80
3 82 299 300
3 82 301 303
3 301 42 302
3 301 302 303
3 83 84 23
3 85 84 83
3 85 43 84
3 85 86 43
3 87 86 85
3 87 44 86
3 87 88 44
3 89 88 87
3 89 45 88
3 90 91 25
3 92 91 90
3 92 46 91
3 92 93 46
3 304 93 305
3 306 305 92
3 304 305 306
3 308 307 93
3 94 95 2
3 96 95 94
3 96 12 95
3 309 96 310
3 311 310 11
3 309 310 311
3 312 96 313
3 314 12 315
3 316 315 96
3 314 315 316
3 318 317 12
3 97 98 5
3 99 98 97
3 99 14 98
3 48 99 13
3 100 99 48
3 100 14 99
3 100 319 321
3 321 320 14
3 319 320 321
3 323 322 100
3 101 102 6
3 103 102 101
3 103 324 326
3 326 325 102
3 324 325 326
3 51 103 15
3 327 103 328
3 329 328 51
3 327 328 329
3 331 330 103
3 104 105 3
3 106 105 104
3 106 332 334
3 334 333 105
3 332 333 334
3 335 106 336
3 337 336 17
3 335 336 337
3 338 106 339
3 341 340 106
3 342 7 343
3 344 18 345
3 107 346 347
3 107 348 350
3 348 18 349
3 348 349 350
3 107 70 18
3 108 70 107
3 108 8 70
3 108 109 8
3 110 109 108
3 110 20 109
3 53 110 19
3 111 110 53
3 111 20 110
3 111 77 20
3 112 77 111
3 112 9 77
3 113 114 4
3 115 114 113
3 115 23 114
3 54 115 22
3 116 115 54
3 116 23 115
3 116 83 23
3 117 83 116
3 117 10 83
3 117 118 10
3 119 118 117
3 119 25 118
3 351 119 352
3 353 352 24
3 351 352 353
3 354 119 355
3 356 25 357
3 358 357 119
3 356 357 358
3 359 90 360
3 361 360 25
3 359 360 361
3 362 90 363
3 365 364 90
3 120 121 1
3 122 121 120
3 122 27 121
3 56 122 26
3 123 122 56
3 123 27 122
3 123 63 27
3 124 63 123
3 124 3 63
3 95 57 2
3 125 57 95
3 125 28 57
3 58 125 12
3 126 125 58
3 126 28 125
3 126 124 28
3 127 124 126
3 127 3 124
3 127 104 3
3 128 104 127
3 128 17 104
3 366 128 367
3 368 367 29
3 366 367 368
3 369 128 370
3 371 17 372
3 373 372 128
3 371 372 373
3 375 374 17
3 129 376 377
3 129 378 380
3 378 4 379
3 378 379 380
3 130 381 382
3 130 383 384
3 130 385 387
3 385 129 386
3 385 386 387
3 131 129 130
3 131 4 129
3 131 113 4
3 132 113 131
3 132 22 113
3 388 132 389
3 390 389 30
3 388 389 390
3 391 132 392
3 393 22 394
3 395 394 132
3 393 394 395
3 397 396 22
3 133 398 399
3 134 400 402
3 402 401 133
3 400 401 402
3 134 403 404
3 60 134 31
3 405 134 406
3 407 406 60
3 405 406 407
3 409 408 134
3 98 61 5
3 135 61 98
3 135 32 61
3 410 135 411
3 412 411 14
3 410 411 412
3 413 135 414
3 415 32 416
3 417 416 135
3 415 416 417
3 419 418 32
3 136 420 422
3 422 421 0
3 420 421 422
3 424 423 136
3 426 425 33
3 102 427 429
3 429 428 6
3 427 428 429
3 431 430 102
3 121 52 1
3 137 52 121
3 137 16 52
3 64 137 27
3 138 137 64
3 138 16 137
3 138 432 434
3 434 433 16
3 432 433 434
3 436 435 138
3 105 65 3
3 437 65 438
3 439 438 105
3 437 438 439
3 441 440 65
3 442 133 443
3 139 444 446
3 444 133 445
3 444 445 446
3 139 31 133
3 447 139 448
3 140 449 451
3 449 139 450
3 449 450 451
3 140 31 139
3 140 59 31
3 141 59 140
3 141 5 59
3 452 34 453
3 66 454 455
3 142 456 458
3 458 457 66
3 456 457 458
3 142 459 461
3 459 34 460
3 459 460 461
3 142 141 34
3 143 141 142
3 143 5 141
3 143 97 5
3 144 97 143
3 144 13 97
3 68 144 35
3 145 144 68
3 145 13 144
3 145 47 13
3 146 47 145
3 146 0 47
3 462 7 463
3 71 464 466
3 466 465 18
3 464 465 466
3 147 467 469
3 469 468 71
3 467 468 469
3 147 470 471
3 147 472 473
3 148 474 476
3 476 475 147
3 474 475 476
3 148 477 479
3 477 7 478
3 477 478 479
3 148 69 7
3 149 69 148
3 149 36 69
3 73 149 37
3 150 149 73
3 150 36 149
3 150 146 36
3 151 146 150
3 151 0 146
3 151 136 0
3 152 136 151
3 152 33 136
3 75 152 38
3 153 152 75
3 153 33 152
3 153 62 33
3 154 62 153
3 154 6 62
3 109 76 8
3 155 76 109
3 155 39 76
3 78 155 20
3 156 155 78
3 156 39 155
3 156 154 39
3 157 154 156
3 157 6 154
3 157 101 6
3 158 101 157
3 158 15 101
3 80 158 40
3 159 158 80
3 159 15 158
3 159 50 15
3 160 50 159
3 160 1 50
3 480 21 481
3 161 482 483
3 161 484 486
3 484 21 485
3 484 485 486
3 161 112 21
3 162 112 161
3 162 9 112
3 114 82 4
3 163 82 114
3 163 42 82
3 84 163 23
3 164 163 84
3 164 42 163
3 164 162 42
3 165 162 164
3 165 9 162
3 165 81 9
3 166 81 165
3 166 41 81
3 86 166 43
3 167 166 86
3 167 41 166
3 167 160 41
3 168 160 167
3 168 1 160
3 168 120 1
3 169 120 168
3 169 26 120
3 88 169 44
3 170 169 88
3 170 26 169
3 170 55 26
3 171 55 170
3 171 2 55
3 118 89 10
3 172 89 118
3 172 45 89
3 91 172 25
3 173 172 91
3 173 45 172
3 173 171 45
3 174 171 173
3 174 2 171
3 174 94 2
3 175 94 174
3 175 11 94
3 93 175 46
3 176 175 93
3 176 11 175
3 176 487 489
3 489 488 11
3 487 488 489
3 491 490 176
3 492 49 493
3 494 493 0
3 492 493 494
3 495 49 496
3 498 497 49
