ply
format ascii 1.0
element vertex 92
property float x
property float y
property float z
property uchar red
property uchar green
property uchar blue
element face 73
property list uchar int vertex_index
end_header
-3.30654 35.1834 -24.0324 123 255 132
-2.30977 32.997 -27.6676 28 255 227
-4.29156 26.8034 -20.059 179 255 76
-3.007 24.3134 -24.1194 219 255 36
-1.17987 22.074 -26.9883 86 255 169
-3.76673 31.0019 -22.0208 255 71 0
-3.69449 25.5265 -22.211 255 228 0
-3.25295 29.8253 -24.0852 128 0 0
-1.87068 27.5696 -27.344 216 255 39
-0.910376 26.4854 -28.4325 0 216 255
0.032307 21.0476 -27.8699 0 124 255
-2.87122 34.0902 -26.0028 202 255 53
-4.22581 32.2167 -19.743 36 255 219
-2.63757 28.6827 -25.8795 237 0 0
-2.18303 23.1631 -25.7286 149 255 106
-0.766717 28.6404 -29.1488 0 0 128
-1.24131 29.1919 -28.6998 0 0 128
-0.321433 25.9603 -28.7805 0 0 128
-0.766717 28.6404 -29.1488 0 0 128
-4.11374 34.8118 -19.5825 0 0 150
-4.44512 32.8422 -18.5194 0 0 150
-3.94719 34.2515 -20.7817 0 0 148
-4.11374 34.8118 -19.5825 0 0 148
-4.23845 24.0158 -20.2451 0 0 149
-4.57213 24.7088 -19.1226 0 0 149
-3.21623 22.1225 -23.285 0 0 187
-3.55998 22.729 -22.3308 0 0 187
-3.35075 24.92 -23.1652 0 0 231
-2.76953 21.5211 -24.1563 0 0 142
-3.21623 22.1225 -23.285 0 0 142
-1.32233 19.8468 -26.2983 0 0 168
-1.82391 20.3913 -25.6685 0 0 168
-1.68145 22.6186 -26.3585 0 0 203
-0.686381 19.3383 -26.8243 0 0 134
-1.32233 19.8468 -26.2983 0 0 134
0.664996 18.363 -27.6059 0 0 129
0.747847 20.5684 -28.1249 0 0 129
-1.72146 29.7339 -28.1556 0 0 165
-2.09023 30.2833 -27.5058 0 0 198
-1.94101 32.4477 -28.3173 0 0 165
-1.39053 27.0275 -27.8882 0 0 195
-1.72146 29.7339 -28.1556 0 0 163
-1.24131 29.1919 -28.6998 0 0 163
0.149909 23.2414 -28.4992 0 0 156
-0.439034 23.7665 -28.1512 0 0 184
-0.321433 25.9603 -28.7805 0 0 156
0.747847 20.5684 -28.1249 0 0 129
0.149909 23.2414 -28.4992 0 0 129
-2.8923 36.7047 -26.0152 0 0 184
-3.08888 34.6368 -25.0176 0 0 226
-3.10997 37.2513 -25.03 0 0 184
-2.70114 36.186 -26.9441 0 0 139
-2.8923 36.7047 -26.0152 0 0 139
-2.42042 35.6394 -27.7765 0 0 175
-2.5905 33.5436 -26.8352 0 0 213
-2.70114 36.186 -26.9441 0 0 175
-2.14906 35.1016 -28.5321 0 0 134
-2.42042 35.6394 -27.7765 0 0 134
-1.94101 32.4477 -28.3173 0 0 132
-2.14906 35.1016 -28.5321 0 0 132
-4.56463 27.4718 -18.8856 0 0 150
-4.57213 24.7088 -19.1226 0 0 150
-4.53175 30.1785 -18.7276 0 0 150
-4.44512 32.8422 -18.5194 0 0 150
-4.25869 29.5101 -19.901 0 0 252
-4.56463 27.4718 -18.8856 0 0 201
-4.53175 30.1785 -18.7276 0 0 201
-3.71765 33.6441 -21.9206 0 0 196
-3.99627 31.6093 -20.8819 0 0 245
-3.94719 34.2515 -20.7817 0 0 196
-3.48756 35.7348 -22.9264 0 0 193
-3.53663 33.0927 -23.0266 0 0 239
-3.71765 33.6441 -21.9206 0 0 193
-3.24812 37.7573 -23.9617 0 0 145
-3.48756 35.7348 -22.9264 0 0 145
-3.10997 37.2513 -25.03 0 0 143
-3.24812 37.7573 -23.9617 0 0 143
-3.93991 23.3774 -21.3211 0 0 195
-4.23845 24.0158 -20.2451 0 0 195
-3.99303 26.165 -21.135 0 0 243
-3.93991 23.3774 -21.3211 0 0 146
-3.55998 22.729 -22.3308 0 0 146
-2.35755 20.9459 -24.9609 0 0 178
-2.76953 21.5211 -24.1563 0 0 178
-2.59502 23.7383 -24.924 0 0 217
-2.35755 20.9459 -24.9609 0 0 137
-1.82391 20.3913 -25.6685 0 0 137
-0.080294 18.8251 -27.2651 0 0 161
-0.686381 19.3383 -26.8243 0 0 161
-0.57378 21.5608 -27.4291 0 0 192
-0.080294 18.8251 -27.2651 0 0 132
0.664996 18.363 -27.6059 0 0 132
3 0 7 5
3 15 9 16
3 18 17 9
3 19 12 20
3 22 21 12
3 2 23 24
3 3 25 27
3 27 26 6
3 25 26 27
3 3 28 29
3 1 13 11
3 4 14 8
3 4 30 32
3 32 31 14
3 30 31 32
3 4 33 34
3 36 35 10
3 5 6 2
3 7 6 5
3 7 3 6
3 37 8 38
3 39 38 1
3 37 38 39
3 9 40 42
3 40 8 41
3 40 41 42
3 9 4 8
3 9 10 4
3 43 10 44
3 45 44 9
3 43 44 45
3 47 46 10
3 48 11 49
3 50 49 0
3 48 49 50
3 51 11 52
3 53 1 54
3 55 54 11
3 53 54 55
3 56 1 57
3 59 58 1
3 60 2 61
3 12 62 63
3 12 64 66
3 64 2 65
3 64 65 66
3 12 5 2
3 67 5 68
3 69 68 12
3 67 68 69
3 70 0 71
3 72 71 5
3 70 71 72
3 73 0 74
3 76 75 0
3 6 77 79
3 79 78 2
3 77 78 79
3 81 80 6
3 11 7 0
3 13 7 11
3 13 3 7
3 8 13 1
3 14 13 8
3 14 3 13
3 14 82 84
3 84 83 3
3 82 83 84
3 86 85 14
3 10 87 89
3 89 88 4
3 87 88 89
3 91 90 10
