ply
format ascii 1.0
element vertex 134
property float x
property float y
property float z
property uchar red
property uchar green
property uchar blue
element face 115
property list uchar int vertex_index
end_header
21.8102 -104.282 -20.7828 149 0 0
18.0411 -95.1727 -18.3841 255 241 0
23.7397 -92.2054 -20.5863 102 255 153
25.1509 -107.204 -21.5594 176 0 0
28.5198 -99.6989 -22.3703 225 255 30
19.3995 -100.289 -19.7283 243 255 12
25.6627 -96.4881 -21.597 230 255 25
19.9249 -107.834 -20.4522 217 255 38
21.6268 -109.358 -20.8492 208 255 47
23.3773 -105.873 -21.2043 160 0 0
26.8344 -103.558 -21.9385 158 0 0
25.1861 -102.156 -21.5716 148 0 0
17.7486 -92.2029 -17.6673 3 255 252
18.5871 -97.8713 -19.0852 254 255 1
24.5734 -94.485 -21.1187 232 255 23
18.4529 -106.04 -19.985 94 255 161
20.4931 -91.1162 -18.8269 126 255 129
20.9121 -93.879 -19.4698 255 125 0
23.5263 -110.614 -21.1709 71 255 184
27.0931 -108.277 -21.8249 73 255 182
28.6584 -104.711 -22.2288 212 255 43
30.2294 -100.929 -22.6558 90 255 165
20.4777 -102.423 -20.294 255 146 0
21.5949 -96.3645 -20.0864 128 0 0
22.5436 -98.5689 -20.6474 136 0 0
23.7471 -100.497 -21.1418 142 0 0
26.987 -98.2223 -22.0146 229 255 26
16.6061 -95.6218 -17.823 0 0 183
16.4598 -94.1369 -17.4647 0 0 183
17.8949 -93.6878 -18.0257 0 0 231
16.818 -97.0779 -18.2184 0 0 136
16.6061 -95.6218 -17.823 0 0 136
18.3141 -96.522 -18.7346 0 0 227
17.0909 -98.4272 -18.5689 0 0 181
16.818 -97.0779 -18.2184 0 0 181
16.8211 -106.72 -19.5502 0 0 131
17.5045 -107.723 -19.8115 0 0 131
21.6795 -88.9683 -19.1418 0 0 133
20.4059 -89.6031 -18.5154 0 0 133
21.8327 -90.3821 -19.4237 0 0 133
21.6795 -88.9683 -19.1418 0 0 133
30.1419 -98.3247 -22.7626 0 0 174
30.9967 -98.9399 -22.9053 0 0 174
29.3746 -100.314 -22.513 0 0 217
18.3164 -102.13 -19.5812 0 0 133
17.8395 -100.954 -19.2581 0 0 133
19.9386 -101.356 -20.0111 0 0 220
18.8555 -103.197 -19.8641 0 0 176
18.3164 -102.13 -19.5812 0 0 176
20.7758 -108.596 -20.6507 0 0 212
19.8981 -110.246 -20.4611 0 0 171
19.0471 -109.484 -20.2626 0 0 171
16.3677 -92.5515 -17.0703 0 0 137
17.7143 -90.5927 -17.3301 0 0 137
16.3677 -92.5515 -17.0703 0 0 137
16.4598 -94.1369 -17.4647 0 0 137
17.4333 -99.7451 -18.9365 0 0 134
17.0909 -98.4272 -18.5689 0 0 134
18.9933 -99.0799 -19.4067 0 0 223
17.8395 -100.954 -19.2581 0 0 178
17.4333 -99.7451 -18.9365 0 0 178
25.5409 -92.3312 -21.4416 0 0 174
24.1565 -93.3452 -20.8525 0 0 217
25.1241 -91.1914 -21.1755 0 0 174
26.0367 -93.3744 -21.6603 0 0 132
25.5409 -92.3312 -21.4416 0 0 132
26.5814 -94.3759 -21.8995 0 0 175
25.1181 -95.4865 -21.3578 0 0 218
26.0367 -93.3744 -21.6603 0 0 175
27.1944 -95.2845 -22.0902 0 0 132
26.5814 -94.3759 -21.8995 0 0 132
18.2405 -108.619 -20.0451 0 0 130
19.0471 -109.484 -20.2626 0 0 130
19.1889 -106.937 -20.2186 0 0 214
18.2405 -108.619 -20.0451 0 0 172
17.5045 -107.723 -19.8115 0 0 172
19.0337 -90.1464 -17.9356 0 0 136
17.7143 -90.5927 -17.3301 0 0 136
19.1208 -91.6596 -18.2471 0 0 228
19.0337 -90.1464 -17.9356 0 0 181
20.4059 -89.6031 -18.5154 0 0 181
22.0422 -91.7634 -19.7451 0 0 177
20.7026 -92.4976 -19.1483 0 0 221
21.8327 -90.3821 -19.4237 0 0 177
23.456 -90.9266 -20.3034 0 0 176
22.3259 -93.0422 -20.0281 0 0 220
22.0422 -91.7634 -19.7451 0 0 176
24.7567 -90.0112 -20.9362 0 0 131
23.456 -90.9266 -20.3034 0 0 131
25.1241 -91.1914 -21.1755 0 0 131
24.7567 -90.0112 -20.9362 0 0 131
20.8142 -110.973 -20.6406 0 0 129
19.8981 -110.246 -20.4611 0 0 129
21.7639 -111.602 -20.8015 0 0 169
20.8142 -110.973 -20.6406 0 0 169
22.5766 -109.986 -21.01 0 0 210
22.7702 -112.19 -20.9351 0 0 128
21.7639 -111.602 -20.8015 0 0 128
24.553 -111.107 -21.2762 0 0 128
22.7702 -112.19 -20.9351 0 0 128
26.3364 -109.938 -21.6032 0 0 170
24.553 -111.107 -21.2762 0 0 170
25.3097 -109.446 -21.4979 0 0 211
28.1237 -108.683 -21.8859 0 0 128
26.3364 -109.938 -21.6032 0 0 128
28.8537 -106.948 -22.1137 0 0 129
28.1237 -108.683 -21.8859 0 0 129
29.6363 -105.165 -22.3157 0 0 170
28.8537 -106.948 -22.1137 0 0 170
27.8757 -106.494 -22.0269 0 0 211
30.3677 -103.317 -22.5361 0 0 130
29.6363 -105.165 -22.3157 0 0 130
31.1532 -101.426 -22.7496 0 0 172
30.3677 -103.317 -22.5361 0 0 172
29.4439 -102.82 -22.4423 0 0 214
31.8691 -99.4789 -22.9883 0 0 131
31.1532 -101.426 -22.7496 0 0 131
31.8691 -99.4789 -22.9883 0 0 131
30.9967 -98.9399 -22.9053 0 0 131
17.8431 -105.006 -19.7096 0 0 131
16.8211 -106.72 -19.5502 0 0 131
19.4653 -104.232 -20.1395 0 0 220
17.8431 -105.006 -19.7096 0 0 176
18.8555 -103.197 -19.8641 0 0 176
27.8565 -96.1516 -22.299 0 0 175
26.3249 -97.3552 -21.8058 0 0 218
27.1944 -95.2845 -22.0902 0 0 175
28.5724 -96.9306 -22.4589 0 0 132
27.8565 -96.1516 -22.299 0 0 132
29.3388 -97.6689 -22.6367 0 0 175
27.7534 -98.9606 -22.1925 0 0 218
28.5724 -96.9306 -22.4589 0 0 175
30.1419 -98.3247 -22.7626 0 0 131
29.3388 -97.6689 -22.6367 0 0 131
3 0 9 7
3 0 11 9
3 1 27 29
3 29 28 12
3 27 28 29
3 1 30 31
3 1 32 34
3 32 13 33
3 32 33 34
3 35 15 36
3 37 16 38
3 40 39 16
3 3 18 8
3 3 19 18
3 3 20 19
3 4 21 10
3 4 41 43
3 43 42 21
3 41 42 43
3 5 44 45
3 5 46 48
3 46 22 47
3 46 47 48
3 2 23 17
3 6 24 14
3 6 25 24
3 6 26 25
3 7 49 51
3 49 8 50
3 49 50 51
3 9 8 7
3 9 3 8
3 9 10 3
3 11 10 9
3 11 4 10
3 12 52 53
3 55 54 12
3 13 56 57
3 13 58 60
3 58 5 59
3 58 59 60
3 61 14 62
3 63 62 2
3 61 62 63
3 64 14 65
3 66 6 67
3 68 67 14
3 66 67 68
3 70 69 6
3 71 7 72
3 15 73 75
3 73 7 74
3 73 74 75
3 15 0 7
3 76 12 77
3 16 78 80
3 78 12 79
3 78 79 80
3 16 1 12
3 16 17 1
3 81 17 82
3 83 82 16
3 81 82 83
3 84 2 85
3 86 85 17
3 84 85 86
3 87 2 88
3 90 89 2
3 8 91 92
3 18 93 95
3 95 94 8
3 93 94 95
3 18 96 97
3 18 98 99
3 19 100 102
3 102 101 18
3 100 101 102
3 19 103 104
3 19 105 106
3 20 107 109
3 109 108 19
3 107 108 109
3 20 110 111
3 10 20 3
3 21 20 10
3 21 112 114
3 114 113 20
3 112 113 114
3 21 115 116
3 118 117 21
3 119 15 120
3 22 121 123
3 121 15 122
3 121 122 123
3 22 0 15
3 17 13 1
3 23 13 17
3 23 5 13
3 14 23 2
3 24 23 14
3 24 5 23
3 24 22 5
3 25 22 24
3 25 0 22
3 25 11 0
3 26 11 25
3 26 4 11
3 124 26 125
3 126 125 6
3 124 125 126
3 127 26 128
3 129 4 130
3 131 130 26
3 129 130 131
3 133 132 4
