ply
format ascii 1.0
element vertex 242
property float x
property float y
property float z
property uchar red
property uchar green
property uchar blue
element face 189
property list uchar int vertex_index
end_header
64.6338 -54.1378 35.4513 255 112 0
53.1364 -47.3393 49.1729 0 211 255
63.2437 -54.386 40.5969 92 255 163
56.3591 -56.8092 47.0937 58 255 197
59.2827 -57.5888 45.0331 0 119 255
62.9976 -56.7705 31.4865 130 255 125
50.54 -50.7143 48.0968 255 190 0
52.5784 -55.6281 47.7785 24 255 231
63.3433 -55.4321 26.1636 146 255 109
64.0025 -54.3252 38.1108 128 0 0
64.3204 -52.6511 40.1771 113 255 142
65.1171 -52.6089 37.5712 127 255 128
65.1666 -53.8219 32.6994 135 255 120
57.9394 -57.2567 46.258 41 255 214
47.4314 -47.437 48.3685 0 217 255
49.6226 -48.2191 48.4267 255 173 0
48.3239 -49.936 47.9949 87 255 168
63.1902 -56.1637 28.8135 255 235 0
55.5873 -54.5398 47.6362 83 255 172
57.3507 -55.0911 47.0913 54 255 201
58.9024 -55.5362 46.1663 0 211 255
62.9258 -56.0593 38.6512 93 255 162
63.4848 -55.8577 36.0924 245 255 10
63.9311 -55.5233 33.4182 255 109 0
50.9979 -46.5334 49.0049 88 255 167
51.8028 -49.0159 48.573 255 183 0
52.7001 -51.478 48.1946 174 255 81
44.8729 -50.9632 47.8685 0 88 255
47.1063 -51.6879 47.7652 0 90 255
51.5451 -53.1914 47.8883 164 255 91
53.6396 -53.8993 47.869 239 255 16
54.5616 -56.2605 47.5768 94 255 161
64.2958 -55.0571 30.6964 255 100 0
64.6015 -54.4594 27.9772 255 227 0
64.861 -53.7308 25.2933 7 255 248
65.2162 -53.2923 35.1357 0 0 190
65.4578 -52.5279 36.1957 0 0 190
64.8755 -53.3734 36.5113 0 0 236
64.9002 -53.9799 34.0753 0 0 234
65.4826 -53.1344 33.7598 0 0 189
65.2162 -53.2923 35.1357 0 0 189
46.7681 -48.3096 48.1919 0 0 139
46.3561 -47.0756 48.4433 0 0 139
47.2143 -49.559 48.0051 0 0 182
47.8776 -48.6865 48.1817 0 0 224
46.7681 -48.3096 48.1919 0 0 182
53.8349 -46.5049 49.4877 0 0 139
52.7883 -46.1034 49.4094 0 0 139
63.3129 -53.4815 41.5722 0 0 138
62.7851 -54.3533 41.7092 0 0 138
64.3964 -51.7458 41.2069 0 0 142
64.8644 -51.7944 39.9547 0 0 142
59.7554 -56.7256 44.9324 0 0 160
59.5653 -55.6993 45.4989 0 0 160
59.0926 -56.5625 45.5997 0 0 191
62.6596 -56.8256 37.6968 0 0 139
62.4177 -56.929 38.928 0 0 139
62.9391 -56.7248 36.4173 0 0 183
63.2053 -55.9585 37.3718 0 0 226
62.6596 -56.8256 37.6968 0 0 183
63.1139 -56.5529 35.1196 0 0 141
62.9391 -56.7248 36.4173 0 0 141
49.921 -46.1312 48.9444 0 0 141
50.6642 -45.2924 49.2474 0 0 141
44.3055 -51.8667 47.9047 0 0 138
43.7923 -50.6364 48.0475 0 0 138
47.6674 -52.9458 47.7577 0 0 139
46.5379 -52.5791 47.762 0 0 139
48.2281 -52.0656 47.7885 0 0 139
47.6674 -52.9458 47.7577 0 0 139
52.0618 -54.4098 47.8334 0 0 212
50.9979 -54.0625 47.8429 0 0 174
51.5146 -55.2809 47.788 0 0 174
54.1741 -47.7234 49.2097 0 0 138
53.5292 -48.5634 48.9231 0 0 138
65.2628 -51.7733 38.6518 0 0 188
64.8644 -51.7944 39.9547 0 0 188
64.7188 -52.63 38.8742 0 0 232
65.6636 -51.7685 37.2982 0 0 144
65.2628 -51.7733 38.6518 0 0 144
65.6636 -51.7685 37.2982 0 0 143
65.4578 -52.5279 36.1957 0 0 143
65.7768 -52.9899 32.3509 0 0 144
65.4826 -53.1344 33.7598 0 0 144
65.3949 -53.5979 31.3098 0 0 143
65.7768 -52.9899 32.3509 0 0 143
57.471 -58.1215 46.3759 0 0 158
57.1492 -57.0329 46.6759 0 0 188
56.6809 -57.8978 46.7938 0 0 158
58.1519 -58.2871 45.8014 0 0 128
57.471 -58.1215 46.3759 0 0 128
58.8236 -58.4532 45.1889 0 0 158
58.611 -57.4228 45.6455 0 0 188
58.1519 -58.2871 45.8014 0 0 158
47.0776 -46.2047 48.6541 0 0 182
46.0023 -45.8434 48.7289 0 0 140
46.3561 -47.0756 48.4433 0 0 182
48.1378 -46.583 48.6262 0 0 139
47.0776 -46.2047 48.6541 0 0 139
48.527 -47.828 48.3976 0 0 225
49.2334 -46.9741 48.6553 0 0 183
48.1378 -46.583 48.6262 0 0 183
52.0684 -56.5059 47.8402 0 0 136
51.5146 -55.2809 47.788 0 0 136
53.0744 -56.8162 47.7473 0 0 134
52.0684 -56.5059 47.8402 0 0 134
62.5198 -57.0291 29.2293 0 0 190
63.0939 -56.4671 30.15 0 0 235
62.4235 -57.3325 30.5658 0 0 190
62.5381 -56.6639 27.9213 0 0 143
62.5198 -57.0291 29.2293 0 0 143
62.6147 -56.2981 26.5963 0 0 192
63.2668 -55.7979 27.4886 0 0 238
62.5381 -56.6639 27.9213 0 0 192
53.8349 -46.5049 49.4877 0 0 138
54.1741 -47.7234 49.2097 0 0 138
63.8513 -52.614 41.3623 0 0 183
63.3129 -53.4815 41.5722 0 0 183
63.7821 -53.5185 40.387 0 0 225
63.8513 -52.614 41.3623 0 0 141
64.3964 -51.7458 41.2069 0 0 141
56.1252 -53.687 47.7527 0 0 132
55.1713 -53.3666 47.8974 0 0 132
57.0069 -53.9626 47.4802 0 0 163
56.1252 -53.687 47.7527 0 0 163
56.469 -54.8154 47.3637 0 0 196
57.8701 -54.2352 47.1606 0 0 130
57.0069 -53.9626 47.4802 0 0 130
58.646 -54.4577 46.6981 0 0 160
57.8701 -54.2352 47.1606 0 0 160
58.1266 -55.3136 46.6288 0 0 192
59.4073 -54.6752 46.1734 0 0 130
58.646 -54.4577 46.6981 0 0 130
59.4073 -54.6752 46.1734 0 0 130
59.5653 -55.6993 45.4989 0 0 130
59.3769 -58.5572 44.4263 0 0 129
58.8236 -58.4532 45.1889 0 0 129
59.8331 -57.6917 44.2267 0 0 130
59.3769 -58.5572 44.4263 0 0 130
59.7554 -56.7256 44.9324 0 0 130
59.8331 -57.6917 44.2267 0 0 130
62.7311 -55.2565 40.8056 0 0 138
62.7851 -54.3533 41.7092 0 0 138
62.5721 -56.0932 39.8328 0 0 138
62.4177 -56.929 38.928 0 0 138
63.0848 -55.2226 39.624 0 0 219
62.7311 -55.2565 40.8056 0 0 179
62.5721 -56.0932 39.8328 0 0 179
63.337 -56.3857 33.7825 0 0 187
63.708 -55.6905 34.7553 0 0 232
63.1139 -56.5529 35.1196 0 0 187
62.8703 -57.0093 32.8167 0 0 186
63.4644 -56.1469 32.4523 0 0 230
63.337 -56.3857 33.7825 0 0 186
62.3861 -57.6375 31.8801 0 0 143
62.8703 -57.0093 32.8167 0 0 143
62.4235 -57.3325 30.5658 0 0 142
62.3861 -57.6375 31.8801 0 0 142
51.719 -45.7005 49.3255 0 0 140
50.6642 -45.2924 49.2474 0 0 140
52.0671 -46.9363 49.0889 0 0 224
52.7883 -46.1034 49.4094 0 0 182
51.719 -45.7005 49.3255 0 0 182
50.3103 -47.3762 48.7158 0 0 223
49.921 -46.1312 48.9444 0 0 182
49.2334 -46.9741 48.6553 0 0 182
52.8624 -49.4017 48.6232 0 0 179
53.5292 -48.5634 48.9231 0 0 179
52.4696 -48.1776 48.8729 0 0 220
53.3111 -50.6327 48.434 0 0 177
52.8624 -49.4017 48.6232 0 0 177
52.2514 -50.2469 48.3838 0 0 217
53.7277 -51.8357 48.1766 0 0 136
53.3111 -50.6327 48.434 0 0 136
44.4061 -49.7293 48.0688 0 0 139
43.7923 -50.6364 48.0475 0 0 139
45.4889 -50.0727 47.9419 0 0 179
45.022 -48.8388 48.1422 0 0 139
44.4061 -49.7293 48.0688 0 0 179
45.4212 -52.2167 47.8137 0 0 180
44.3055 -51.8667 47.9047 0 0 180
44.8538 -53.1202 47.8499 0 0 139
45.9896 -51.3255 47.8169 0 0 221
45.4212 -52.2167 47.8137 0 0 180
46.5379 -52.5791 47.762 0 0 180
46.6056 -50.435 47.8902 0 0 181
45.4889 -50.0727 47.9419 0 0 181
45.9896 -51.3255 47.8169 0 0 223
47.7151 -50.8119 47.88 0 0 222
47.2143 -49.559 48.0051 0 0 180
46.6056 -50.435 47.8902 0 0 180
48.8368 -51.1896 47.9034 0 0 181
47.7151 -50.8119 47.88 0 0 223
48.2281 -52.0656 47.7885 0 0 181
49.9449 -51.5788 47.9544 0 0 180
49.4319 -50.3251 48.0459 0 0 221
48.8368 -51.1896 47.9034 0 0 180
50.4475 -52.8173 47.8501 0 0 138
50.9979 -54.0625 47.8429 0 0 138
51.0426 -51.9529 47.9925 0 0 219
49.9449 -51.5788 47.9544 0 0 179
50.4475 -52.8173 47.8501 0 0 179
54.1974 -53.0464 48.0138 0 0 172
53.7277 -51.8357 48.1766 0 0 172
53.1698 -52.6886 48.0318 0 0 209
54.6135 -54.2195 47.7526 0 0 203
55.1713 -53.3666 47.8974 0 0 168
54.1974 -53.0464 48.0138 0 0 168
54.066 -57.1324 47.6465 0 0 168
53.57 -55.9443 47.6776 0 0 203
53.0744 -56.8162 47.7473 0 0 168
54.9792 -57.4023 47.4239 0 0 131
54.066 -57.1324 47.6465 0 0 131
55.8779 -57.6766 47.1824 0 0 162
55.4604 -56.5348 47.3353 0 0 194
54.9792 -57.4023 47.4239 0 0 162
56.6809 -57.8978 46.7938 0 0 128
55.8779 -57.6766 47.1824 0 0 128
64.9595 -54.2155 30.3083 0 0 191
65.3949 -53.5979 31.3098 0 0 191
64.7312 -54.4395 31.6979 0 0 238
65.1124 -53.9167 28.9487 0 0 189
64.9595 -54.2155 30.3083 0 0 189
64.4486 -54.7583 29.3368 0 0 234
65.3099 -53.6246 27.5686 0 0 145
65.1124 -53.9167 28.9487 0 0 145
65.4396 -53.2602 26.2266 0 0 189
65.3099 -53.6246 27.5686 0 0 189
64.7312 -54.0951 26.6353 0 0 234
65.6094 -52.8986 24.8696 0 0 145
65.4396 -53.2602 26.2266 0 0 145
62.6248 -55.8764 25.3058 0 0 144
62.6147 -56.2981 26.5963 0 0 144
63.4056 -55.0062 24.8606 0 0 146
62.6248 -55.8764 25.3058 0 0 146
64.1644 -54.1555 24.4255 0 0 191
64.1021 -54.5814 25.7285 0 0 237
63.4056 -55.0062 24.8606 0 0 191
64.969 -53.3019 23.9776 0 0 146
64.1644 -54.1555 24.4255 0 0 146
65.6094 -52.8986 24.8696 0 0 143
64.969 -53.3019 23.9776 0 0 143
3 0 11 9
3 0 35 37
3 37 36 11
3 35 36 37
3 0 38 40
3 38 12 39
3 38 39 40
3 41 14 42
3 43 16 44
3 45 44 14
3 43 44 45
3 1 46 47
3 2 48 49
3 51 50 10
3 3 19 18
3 4 20 13
3 4 52 54
3 54 53 20
3 52 53 54
3 55 21 56
3 57 22 58
3 59 58 21
3 57 58 59
3 61 60 22
3 62 24 63
3 6 25 15
3 6 26 25
3 64 27 65
3 66 28 67
3 69 68 28
3 7 70 72
3 70 29 71
3 70 71 72
3 7 30 29
3 7 31 30
3 5 32 23
3 8 33 17
3 8 34 33
3 74 73 1
3 9 10 2
3 11 10 9
3 11 75 77
3 77 76 10
3 75 76 77
3 11 78 79
3 81 80 11
3 12 82 83
3 12 84 85
3 86 13 87
3 88 87 3
3 86 87 88
3 89 13 90
3 91 4 92
3 93 92 13
3 91 92 93
3 14 94 96
3 94 95 96
3 14 97 98
3 14 99 101
3 99 15 100
3 99 100 101
3 16 15 14
3 16 6 15
3 102 7 103
3 105 104 7
3 106 17 107
3 108 107 5
3 106 107 108
3 109 17 110
3 111 8 112
3 113 112 17
3 111 112 113
3 115 114 1
3 10 116 118
3 118 117 2
3 116 117 118
3 120 119 10
3 18 121 122
3 19 123 125
3 125 124 18
3 123 124 125
3 19 126 127
3 13 19 3
3 20 19 13
3 20 128 130
3 130 129 19
3 128 129 130
3 20 131 132
3 134 133 20
3 135 4 136
3 137 4 138
3 140 139 4
3 141 2 142
3 21 143 144
3 21 145 147
3 145 2 146
3 145 146 147
3 21 9 2
3 22 9 21
3 22 0 9
3 22 23 0
3 148 23 149
3 150 149 22
3 148 149 150
3 151 5 152
3 153 152 23
3 151 152 153
3 154 5 155
3 157 156 5
3 24 158 159
3 24 160 162
3 160 1 161
3 160 161 162
3 15 163 165
3 163 24 164
3 163 164 165
3 25 24 15
3 25 1 24
3 25 166 168
3 168 167 1
3 166 167 168
3 26 169 171
3 171 170 25
3 169 170 171
3 26 172 173
3 27 174 175
3 27 176 178
3 176 177 178
3 179 27 180
3 179 180 181
3 28 182 184
3 182 27 183
3 182 183 184
3 28 185 187
3 187 186 27
3 185 186 187
3 28 188 190
3 188 16 189
3 188 189 190
3 191 16 192
3 193 192 28
3 191 192 193
3 194 6 195
3 196 195 16
3 194 195 196
3 29 197 198
3 29 199 201
3 199 6 200
3 199 200 201
3 29 26 6
3 30 26 29
3 30 202 204
3 204 203 26
3 202 203 204
3 30 205 207
3 205 18 206
3 205 206 207
3 31 18 30
3 31 3 18
3 208 31 209
3 210 209 7
3 208 209 210
3 211 31 212
3 213 3 214
3 215 214 31
3 213 214 215
3 217 216 3
3 23 12 0
3 32 12 23
3 32 218 220
3 220 219 12
3 218 219 220
3 17 32 5
3 33 32 17
3 33 221 223
3 223 222 32
3 221 222 223
3 33 224 225
3 34 226 228
3 228 227 33
3 226 227 228
3 34 229 230
3 231 8 232
3 233 8 234
3 235 34 236
3 237 236 8
3 235 236 237
3 238 34 239
3 241 240 34
