ply
format ascii 1.0
element vertex 191
property float x
property float y
property float z
property uchar red
property uchar green
property uchar blue
element face 180
property list uchar int vertex_index
end_header
-1.26978 -119.455 -3.61261 255 8 0
-1.12885 -112.538 -8.87735 128 255 127
-6.13581 -119.774 -15.3788 111 255 144
-7.14189 -108.973 -16.6025 255 73 0
-0.236984 -114.484 -0.537788 147 255 108
-0.551962 -111.643 -3.44116 255 86 0
-1.2447 -116.522 -6.75967 255 54 0
-6.19342 -114.969 -16.42 222 0 0
-3.27201 -120.58 -10.092 225 255 30
0.303291 -116.557 3.21109 77 255 178
-2.98917 -116.697 -12.3038 255 69 0
-3.15439 -111.627 -13.4388 255 210 0
-0.585835 -117.062 -2.04412 255 8 0
-0.689041 -115.727 -3.6791 255 42 0
-1.28268 -118.101 -5.30797 255 34 0
-0.713734 -112.316 -6.22148 226 255 29
-0.609732 -109.804 -4.54946 2 255 253
-4.55534 -120.422 -12.9329 104 255 151
-3.10912 -118.776 -11.3411 255 81 0
-4.40776 -118.39 -13.8946 255 82 0
-6.53762 -112.117 -16.5911 128 0 0
-4.51941 -113.441 -14.992 227 0 0
-4.90224 -110.509 -15.2061 137 0 0
-3.56717 -108.63 -13.6934 103 255 152
-5.55283 -107.287 -15.2709 143 255 112
-0.538713 -110.529 -0.633341 0 254 255
-0.435999 -113.186 -2.10402 230 255 25
-0.724104 -114.16 -5.07496 255 63 0
-1.17517 -114.679 -7.94925 255 62 0
-8.08088 -118.64 -17.3767 28 255 227
-6.07746 -117.519 -16.0319 255 42 0
-8.16491 -116.176 -17.7277 181 255 74
-8.46318 -113.419 -17.8533 240 255 15
-9.0081 -110.372 -17.8129 255 206 0
-0.742992 -109.018 -1.92012 0 247 255
-2.2731 -121.606 -5.20435 148 255 107
-2.20158 -120.253 -6.9482 255 42 0
-3.4324 -122.134 -8.56392 19 255 236
0.028418 -115.592 1.24249 175 255 80
-0.43442 -118.209 -0.195128 226 0 0
-0.295006 -119.198 1.83373 74 255 181
-1.23006 -120.616 -1.70534 173 255 82
-2.09855 -118.677 -8.44455 255 60 0
-1.9783 -116.848 -9.67057 255 67 0
-1.892 -114.733 -10.6208 255 58 0
-4.37306 -116.068 -14.5706 255 41 0
-2.98052 -114.318 -12.9922 255 34 0
-1.9116 -112.307 -11.3111 142 255 113
-9.80677 -107.049 -17.6674 49 255 206
-0.921758 -111.348 -8.00277 0 0 167
-0.714198 -111.237 -6.67484 0 0 167
-0.921293 -112.427 -7.54941 0 0 203
-1.15425 -111.307 -9.2221 0 0 131
-0.921758 -111.348 -8.00277 0 0 131
-0.336491 -113.835 -1.3209 0 0 204
-0.337762 -112.482 -0.619805 0 0 168
-0.238254 -113.131 0.163311 0 0 168
-9.29215 -116.607 -18.3278 0 0 173
-8.1229 -117.408 -17.5522 0 0 212
-9.25013 -117.839 -18.1523 0 0 173
-9.80299 -112.433 -18.3899 0 0 141
-9.56523 -113.902 -18.4334 0 0 141
-10.0754 -110.909 -18.3697 0 0 189
-8.73564 -111.895 -17.8331 0 0 236
-9.80299 -112.433 -18.3899 0 0 189
-0.744144 -108.497 -3.77794 0 0 129
-0.638316 -108.72 -4.99857 0 0 129
-3.50759 -122.796 -7.67209 0 0 168
-2.85275 -121.87 -6.88414 0 0 205
-2.92794 -122.531 -5.99231 0 0 168
0.165854 -116.075 2.22679 0 0 218
0.28838 -114.669 2.85541 0 0 177
0.425816 -115.151 3.83971 0 0 177
-0.760968 -120.398 1.10427 0 0 135
-0.274863 -119.619 2.91878 0 0 135
-1.22849 -121.107 -0.665266 0 0 176
-0.762533 -119.907 0.064198 0 0 217
-0.760968 -120.398 1.10427 0 0 176
-1.78614 -121.683 -2.47652 0 0 134
-1.22849 -121.107 -0.665266 0 0 134
-2.63224 -110.596 -12.6088 0 0 172
-2.01085 -110.936 -11.5449 0 0 172
-2.53299 -111.967 -12.3749 0 0 210
-3.05602 -107.574 -12.8858 0 0 139
-3.90868 -106.99 -13.7549 0 0 139
-11.2992 -105.909 -18.077 0 0 149
-10.8311 -107.642 -18.1992 0 0 149
-0.662197 -109.981 -5.83883 0 0 165
-0.661733 -111.06 -5.38547 0 0 201
-0.714198 -111.237 -6.67484 0 0 165
-0.638316 -108.72 -4.99857 0 0 130
-0.662197 -109.981 -5.83883 0 0 130
0.601989 -115.564 4.87424 0 0 136
0.425816 -115.151 3.83971 0 0 136
-4.90151 -106.318 -14.5437 0 0 185
-3.90868 -106.99 -13.7549 0 0 185
-4.56 -107.958 -14.4821 0 0 231
-0.389119 -111.154 0.115534 0 0 130
-0.572318 -109.766 0.742491 0 0 130
-0.487356 -111.858 -1.36868 0 0 201
-0.389119 -111.154 0.115534 0 0 165
-0.337762 -112.482 -0.619805 0 0 165
-9.41609 -115.28 -18.3706 0 0 137
-9.29215 -116.607 -18.3278 0 0 137
-8.31405 -114.798 -17.7905 0 0 224
-9.41609 -115.28 -18.3706 0 0 181
-9.56523 -113.902 -18.4334 0 0 181
-0.773289 -109.168 0.02262 0 0 129
-0.572318 -109.766 0.742491 0 0 129
-0.875429 -108.412 -0.620767 0 0 161
-0.773289 -109.168 0.02262 0 0 161
-0.640853 -109.774 -1.27673 0 0 195
-1.02499 -107.674 -1.24803 0 0 128
-0.875429 -108.412 -0.620767 0 0 128
-0.810774 -108.104 -2.46326 0 0 163
-0.676362 -109.411 -3.23479 0 0 197
-0.744144 -108.497 -3.77794 0 0 163
-1.02499 -107.674 -1.24803 0 0 128
-0.810774 -108.104 -2.46326 0 0 128
-4.19822 -122.914 -9.34194 0 0 130
-3.50759 -122.796 -7.67209 0 0 130
-4.09283 -122.159 -10.1184 0 0 130
-4.19822 -122.914 -9.34194 0 0 130
-4.01264 -121.382 -10.8825 0 0 165
-3.3522 -121.357 -9.32797 0 0 201
-4.09283 -122.159 -10.1184 0 0 165
-4.6543 -121.303 -12.3029 0 0 164
-3.91367 -120.501 -11.5125 0 0 198
-4.01264 -121.382 -10.8825 0 0 164
-5.43025 -121.084 -13.6797 0 0 129
-4.6543 -121.303 -12.3029 0 0 129
-6.22048 -120.76 -14.9026 0 0 162
-5.34557 -120.098 -14.1559 0 0 196
-5.43025 -121.084 -13.6797 0 0 162
-7.14779 -120.296 -16.063 0 0 129
-6.22048 -120.76 -14.9026 0 0 129
-8.12032 -119.729 -17.062 0 0 165
-7.10834 -119.207 -16.3777 0 0 199
-7.14779 -120.296 -16.063 0 0 165
-9.22379 -119.024 -17.9906 0 0 131
-8.12032 -119.729 -17.062 0 0 131
-9.25013 -117.839 -18.1523 0 0 133
-9.22379 -119.024 -17.9906 0 0 133
-0.048163 -113.657 1.01599 0 0 132
-0.238254 -113.131 0.163311 0 0 132
0.084538 -114.211 1.90613 0 0 134
0.28838 -114.669 2.85541 0 0 134
-0.104283 -115.038 0.35235 0 0 211
-0.048163 -113.657 1.01599 0 0 172
0.084538 -114.211 1.90613 0 0 172
0.402699 -116.982 4.27339 0 0 137
0.601989 -115.564 4.87424 0 0 137
0.103551 -118.303 3.58471 0 0 137
-0.274863 -119.619 2.91878 0 0 137
0.004142 -117.878 2.52241 0 0 220
0.402699 -116.982 4.27339 0 0 178
0.103551 -118.303 3.58471 0 0 178
-2.30766 -122.178 -4.22603 0 0 172
-1.75158 -121.111 -3.45485 0 0 211
-1.78614 -121.683 -2.47652 0 0 172
-2.92794 -122.531 -5.99231 0 0 132
-2.30766 -122.178 -4.22603 0 0 132
-1.54562 -111.192 -10.439 0 0 169
-1.15425 -111.307 -9.2221 0 0 169
-1.52023 -112.423 -10.0942 0 0 205
-1.54562 -111.192 -10.439 0 0 133
-2.01085 -110.936 -11.5449 0 0 133
-2.83863 -109.098 -12.7361 0 0 176
-2.63224 -110.596 -12.6088 0 0 176
-3.36078 -110.129 -13.5661 0 0 217
-2.83863 -109.098 -12.7361 0 0 136
-3.05602 -107.574 -12.8858 0 0 136
-10.4318 -109.304 -18.272 0 0 145
-10.0754 -110.909 -18.3697 0 0 145
-9.40743 -108.71 -17.7401 0 0 248
-10.4318 -109.304 -18.272 0 0 197
-10.8311 -107.642 -18.1992 0 0 197
-10.3247 -105.262 -17.5707 0 0 149
-11.2992 -105.909 -18.077 0 0 149
-8.90908 -106.303 -17.0908 0 0 148
-10.3247 -105.262 -17.5707 0 0 148
-7.57664 -107.266 -16.5583 0 0 196
-8.47433 -108.011 -17.1349 0 0 246
-8.90908 -106.303 -17.0908 0 0 196
-6.78211 -106.422 -15.8925 0 0 194
-6.34736 -108.13 -15.9367 0 0 244
-7.57664 -107.266 -16.5583 0 0 194
-6.01404 -105.545 -15.259 0 0 145
-6.78211 -106.422 -15.8925 0 0 145
-4.90151 -106.318 -14.5437 0 0 144
-6.01404 -105.545 -15.259 0 0 144
3 0 14 12
3 1 49 51
3 51 50 15
3 49 50 51
3 1 52 53
3 2 19 17
3 3 22 20
3 3 24 22
3 4 54 56
3 54 26 55
3 54 55 56
3 6 27 13
3 6 28 27
3 57 31 58
3 59 58 29
3 57 58 59
3 60 32 61
3 62 33 63
3 64 63 32
3 62 63 64
3 5 34 25
3 66 65 16
3 67 37 68
3 69 68 35
3 67 68 69
3 9 70 72
3 70 38 71
3 70 71 72
3 9 39 38
3 73 40 74
3 75 41 76
3 77 76 40
3 75 76 77
3 79 78 41
3 8 42 36
3 10 43 18
3 10 44 43
3 7 45 30
3 11 46 21
3 11 47 46
3 11 80 82
3 82 81 47
3 80 81 82
3 84 83 23
3 85 48 86
3 12 13 4
3 14 13 12
3 14 6 13
3 15 16 5
3 87 16 88
3 89 88 15
3 87 88 89
3 91 90 16
3 92 9 93
3 17 18 8
3 19 18 17
3 19 10 18
3 20 21 7
3 22 21 20
3 22 11 21
3 22 23 11
3 24 23 22
3 24 94 96
3 96 95 23
3 94 95 96
3 97 25 98
3 26 99 101
3 99 25 100
3 99 100 101
3 26 5 25
3 13 26 4
3 27 26 13
3 27 5 26
3 27 15 5
3 28 15 27
3 28 1 15
3 29 30 2
3 31 30 29
3 31 7 30
3 102 31 103
3 32 104 106
3 104 31 105
3 104 105 106
3 32 7 31
3 32 20 7
3 33 20 32
3 33 3 20
3 25 107 108
3 34 109 111
3 111 110 25
3 109 110 111
3 34 112 113
3 16 34 5
3 114 34 115
3 116 115 16
3 114 115 116
3 118 117 34
3 35 36 0
3 37 36 35
3 37 8 36
3 119 37 120
3 121 37 122
3 123 8 124
3 125 124 37
3 123 124 125
3 126 17 127
3 128 127 8
3 126 127 128
3 129 17 130
3 131 2 132
3 133 132 17
3 131 132 133
3 134 2 135
3 136 29 137
3 138 137 2
3 136 137 138
3 139 29 140
3 142 141 29
3 143 4 144
3 38 145 146
3 38 147 149
3 147 4 148
3 147 148 149
3 38 12 4
3 39 12 38
3 39 0 12
3 150 9 151
3 40 152 153
3 40 154 156
3 154 9 155
3 154 155 156
3 40 39 9
3 41 39 40
3 41 0 39
3 41 35 0
3 157 35 158
3 159 158 41
3 157 158 159
3 161 160 35
3 36 14 0
3 42 14 36
3 42 6 14
3 18 42 8
3 43 42 18
3 43 6 42
3 43 28 6
3 44 28 43
3 44 1 28
3 30 19 2
3 45 19 30
3 45 10 19
3 21 45 7
3 46 45 21
3 46 10 45
3 46 44 10
3 47 44 46
3 47 1 44
3 47 162 164
3 164 163 1
3 162 163 164
3 166 165 47
3 23 167 169
3 169 168 11
3 167 168 169
3 171 170 23
3 172 33 173
3 48 174 176
3 174 33 175
3 174 175 176
3 48 3 33
3 177 48 178
3 179 48 180
3 181 3 182
3 183 182 48
3 181 182 183
3 184 24 185
3 186 185 3
3 184 185 186
3 187 24 188
3 190 189 24
