ply
format ascii 1.0
element vertex 357
property float x
property float y
property float z
property uchar red
property uchar green
property uchar blue
element face 386
property list uchar int vertex_index
end_header
-52.5265 -69.793 23.1906 135 0 0
-59.7637 -60.2335 2.75519 255 45 0
-55.1468 -65.4061 12.4392 200 0 0
-62.7032 -57.4229 9.48945 167 0 0
-47.9326 -80.8021 39.2456 60 255 195
-47.3842 -77.6606 27.6902 173 0 0
-52.697 -73.4059 34.0707 77 255 178
-49.3855 -74.0263 16.1323 166 0 0
-61.6554 -60.6585 14.3544 110 255 145
-50.1526 -77.0481 36.6703 195 255 60
-49.4522 -73.5313 25.4047 169 0 0
-47.8236 -75.7759 21.7953 176 0 0
-50.1274 -71.5489 19.7381 182 0 0
-57.4058 -62.9701 7.42501 255 3 0
-54.6363 -67.6415 9.12242 193 0 0
-57.8452 -65.355 4.34872 193 0 0
-53.4311 -67.6588 17.7408 151 0 0
-57.4538 -64.087 15.9067 255 126 0
-58.8794 -61.3746 10.8026 170 0 0
-60.4276 -58.4095 5.98614 255 0 0
-61.765 -55.2249 1.50442 255 69 0
-63.5624 -53.9418 4.93057 187 255 68
-46.1882 -82.0539 29.8995 139 0 0
-47.6147 -79.4805 33.5974 181 0 0
-49.6309 -75.4705 31.102 169 0 0
-52.3897 -71.7675 28.6593 225 255 30
-46.5457 -80.2523 23.8261 134 0 0
-47.7156 -78.5524 17.9646 255 148 0
-51.906 -69.6248 14.2637 193 0 0
-52.1447 -72.3332 10.8747 255 150 0
-50.8677 -71.6079 24.281 154 0 0
-49.6588 -72.5336 22.5581 175 0 0
-51.1442 -70.5856 21.4926 160 0 0
-58.6018 -61.6471 5.04819 255 26 0
-57.3976 -64.0932 5.84547 240 0 0
-58.8118 -62.7879 3.52166 249 0 0
-59.4473 -64.0213 2.07703 196 255 59
-60.1663 -61.3597 1.27028 159 255 96
-60.839 -58.7158 0.534358 124 255 131
-56.8791 -65.326 18.5253 122 255 133
-62.1879 -59.0848 11.8884 255 148 0
-60.1837 -60.926 12.5636 128 0 0
-60.8134 -59.3987 10.1001 158 0 0
-59.6594 -59.9202 8.35259 212 0 0
-61.4303 -57.8078 7.71255 195 0 0
-61.9984 -56.1689 5.40846 233 0 0
-63.1712 -55.7013 7.16869 192 0 0
-46.8853 -82.232 37.684 72 255 183
-46.8192 -81.5583 34.795 255 175 0
-47.7975 -80.2364 36.4775 201 0 0
-51.3732 -75.2051 35.3562 200 255 55
-49.8848 -76.3308 33.9156 183 0 0
-51.1229 -74.452 32.6285 177 0 0
-50.9119 -73.5726 29.8618 161 0 0
-52.5149 -72.6449 31.377 214 255 41
-46.6989 -79.8331 28.8158 160 0 0
-46.2981 -81.1521 26.8526 134 0 0
-46.7853 -78.9041 25.8041 158 0 0
-48.4487 -74.8829 18.9216 173 0 0
-47.6045 -77.1131 19.894 158 0 0
-48.4402 -76.277 17.0555 154 0 0
-48.7246 -77.7518 15.1877 102 255 153
-49.5871 -75.4672 14.3272 255 152 0
-54.1979 -66.5494 15.0618 172 0 0
-52.44 -68.5305 16.0014 185 0 0
-53.4477 -67.4899 13.3379 201 0 0
-55.0449 -69.0034 7.55793 255 160 0
-53.3531 -69.9923 10.0037 161 0 0
-53.8752 -71.4243 8.41255 105 255 150
-62.8612 -52.774 1.04204 22 255 233
-62.2683 -53.5424 -0.63028 3 255 252
-64.0503 -57.2191 11.3047 83 255 172
-64.4672 -55.4301 8.97067 204 255 51
-49.0144 -78.9184 37.9791 187 255 68
-48.293 -75.554 26.5466 176 0 0
-47.4855 -76.7073 24.7274 175 0 0
-48.4379 -74.5784 23.6406 181 0 0
-48.8424 -73.6244 20.7646 184 0 0
-49.5423 -72.7026 17.9432 184 0 0
-56.2343 -64.2179 9.88992 230 0 0
-54.649 -66.4195 10.7521 217 0 0
-55.9875 -65.2958 8.25381 230 0 0
-56.2172 -66.5526 6.69254 192 0 0
-56.8303 -67.9077 5.20204 222 255 33
-58.6298 -66.6705 2.91905 95 255 160
-54.3965 -68.0862 22.147 247 255 8
-52.8723 -68.7402 20.4566 138 0 0
-54.8033 -66.9927 19.463 255 130 0
-55.38 -65.8406 16.7959 128 0 0
-56.1128 -64.6332 14.1642 153 0 0
-59.5763 -62.3705 15.0887 252 255 3
-58.131 -62.7666 13.326 134 0 0
-56.9717 -63.3713 11.5876 188 0 0
-57.9137 -62.053 9.08319 227 0 0
-58.8892 -60.6744 6.66225 255 11 0
-59.8465 -59.2294 4.32843 255 46 0
-60.7378 -57.7103 2.07709 255 73 0
-61.1419 -56.8451 3.70546 255 38 0
-62.4844 -54.4905 3.18765 255 245 0
-64.8129 -53.5884 6.71651 72 255 183
-45.7828 -84.3063 30.9107 114 255 141
-46.1442 -82.9112 32.9329 229 255 26
-46.7348 -80.7365 31.8241 166 0 0
-47.4522 -78.6016 30.6564 174 0 0
-48.785 -78.2643 35.2094 192 0 0
-48.5393 -77.4456 32.3562 177 0 0
-48.3503 -76.524 29.4594 173 0 0
-49.4633 -74.5219 28.2585 166 0 0
-50.8065 -72.6122 27.0751 154 0 0
-52.3773 -70.808 25.9281 255 146 0
-54.1546 -69.1142 24.8336 110 255 145
-45.9613 -83.4359 27.8486 250 255 5
-46.2118 -82.55 24.7961 251 255 4
-46.6039 -81.6829 21.7872 247 255 8
-47.0665 -77.9899 22.8199 158 0 0
-46.9998 -79.3828 20.8529 138 0 0
-47.2019 -80.8488 18.8548 110 255 145
-51.6661 -69.5593 18.7262 171 0 0
-50.8787 -70.5824 16.9664 189 0 0
-50.5456 -71.8062 15.1993 179 0 0
-53.1766 -68.6544 11.6461 194 0 0
-51.8314 -70.9137 12.5501 171 0 0
-50.6289 -73.187 13.447 155 0 0
-51.028 -74.6548 11.7212 104 255 151
-61.5226 -56.1082 -0.104029 106 255 149
-47.4042 -81.7444 39.8374 0 0 132
-47.9471 -80.9565 40.5376 0 0 132
-47.4089 -81.517 38.4648 0 0 212
-46.8806 -82.4594 39.0566 0 0 173
-47.4042 -81.7444 39.8374 0 0 173
-54.8108 -70.9208 7.22983 0 0 180
-54.4601 -70.2139 7.98524 0 0 224
-55.3957 -69.7104 6.80252 0 0 180
-54.2347 -72.1434 7.63454 0 0 138
-54.8108 -70.9208 7.22983 0 0 138
-62.986 -51.8939 -0.000227 0 0 131
-63.4407 -51.562 0.862654 0 0 131
-64.6596 -57.1772 12.2306 0 0 133
-63.8192 -58.0698 12.5078 0 0 133
-64.862 -56.2672 11.0557 0 0 133
-64.6596 -57.1772 12.2306 0 0 133
-59.9072 -64.6433 1.38289 0 0 136
-60.202 -63.2764 0.968213 0 0 136
-55.6144 -66.7336 20.3131 0 0 183
-54.5999 -67.5395 20.805 0 0 228
-55.411 -67.2803 21.6551 0 0 183
-60.6159 -61.5145 14.7215 0 0 228
-60.3548 -62.2419 15.9803 0 0 183
-61.3943 -61.3859 15.6132 0 0 183
-63.707 -53.0494 3.8513 0 0 172
-63.168 -53.3238 2.97985 0 0 172
-63.0234 -54.2161 4.05911 0 0 211
-65.4149 -53.5004 7.62512 0 0 172
-64.6401 -54.5092 7.84359 0 0 212
-65.2421 -54.4213 8.7522 0 0 172
-46.1222 -83.2867 34.4231 0 0 137
-45.8778 -84.0098 33.4395 0 0 137
-55.0191 -68.7914 25.6387 0 0 137
-54.1052 -69.59 26.1741 0 0 137
-55.1259 -68.3192 24.3195 0 0 137
-55.0191 -68.7914 25.6387 0 0 137
-47.8844 -79.2979 16.9965 0 0 180
-47.6275 -80.4461 17.4417 0 0 180
-47.4588 -79.7006 18.4097 0 0 224
-48.9525 -78.4993 14.2584 0 0 137
-49.3772 -77.3542 13.8631 0 0 137
-62.2198 -53.9777 -1.43139 0 0 128
-62.4514 -52.6646 -1.67326 0 0 128
-60.5615 -61.9456 0.564839 0 0 174
-60.202 -63.2764 0.968213 0 0 174
-59.8068 -62.6905 1.67366 0 0 214
-60.7861 -60.5769 0.172229 0 0 133
-60.5615 -61.9456 0.564839 0 0 133
-61.1225 -59.255 -0.195734 0 0 168
-60.7861 -60.5769 0.172229 0 0 168
-60.5026 -60.0378 0.902321 0 0 206
-61.3121 -57.8994 -0.548582 0 0 130
-61.1225 -59.255 -0.195734 0 0 130
-57.7093 -65.1288 19.3885 0 0 139
-56.6523 -65.9002 19.8442 0 0 139
-57.9502 -64.5188 18.0914 0 0 139
-57.7093 -65.1288 19.3885 0 0 139
-58.2375 -63.8993 16.7821 0 0 184
-57.1665 -64.7065 17.216 0 0 229
-57.9502 -64.5188 18.0914 0 0 184
-46.8523 -81.8951 36.2395 0 0 219
-46.4597 -82.6103 35.3541 0 0 177
-46.4928 -82.9471 36.7986 0 0 177
-46.4437 -83.234 38.236 0 0 134
-46.8806 -82.4594 39.0566 0 0 134
-46.4928 -82.9471 36.7986 0 0 135
-46.4437 -83.234 38.236 0 0 135
-49.8085 -76.2119 13.4328 0 0 179
-49.3772 -77.3542 13.8631 0 0 179
-49.1559 -76.6095 14.7575 0 0 222
-53.297 -72.6126 8.82414 0 0 182
-52.4317 -73.0671 10.0552 0 0 182
-53.01 -71.8787 9.64363 0 0 226
-53.297 -72.6126 8.82414 0 0 137
-54.2347 -72.1434 7.63454 0 0 137
-62.6895 -52.2781 -0.836389 0 0 164
-62.5647 -53.1582 0.205882 0 0 200
-62.986 -51.8939 -0.000227 0 0 164
-62.4514 -52.6646 -1.67326 0 0 129
-62.6895 -52.2781 -0.836389 0 0 129
-62.3806 -60.5766 15.2656 0 0 136
-61.3943 -61.3859 15.6132 0 0 136
-62.6218 -59.7895 14.0327 0 0 137
-62.3806 -60.5766 15.2656 0 0 137
-62.888 -59.0026 12.7997 0 0 179
-61.9216 -59.8716 13.1214 0 0 221
-62.6218 -59.7895 14.0327 0 0 179
-63.1191 -58.1519 11.5965 0 0 222
-62.888 -59.0026 12.7997 0 0 179
-63.8192 -58.0698 12.5078 0 0 179
-65.0705 -55.3727 9.88874 0 0 173
-64.2588 -56.3246 10.1377 0 0 212
-64.862 -56.2672 11.0557 0 0 173
-65.2421 -54.4213 8.7522 0 0 134
-65.0705 -55.3727 9.88874 0 0 134
-49.0876 -79.1314 39.2924 0 0 171
-48.4735 -79.8602 38.6123 0 0 210
-48.5467 -80.0732 39.9256 0 0 171
-49.6899 -78.2414 38.6492 0 0 132
-49.0876 -79.1314 39.2924 0 0 132
-50.259 -77.3062 37.9948 0 0 173
-49.5835 -77.9833 37.3247 0 0 212
-49.6899 -78.2414 38.6492 0 0 173
-50.8747 -76.4148 37.3406 0 0 133
-50.259 -77.3062 37.9948 0 0 133
-51.485 -75.4933 36.6835 0 0 174
-50.7629 -76.1266 36.0133 0 0 214
-50.8747 -76.4148 37.3406 0 0 174
-52.1252 -74.6078 36.0371 0 0 133
-51.485 -75.4933 36.6835 0 0 133
-52.7871 -73.7082 35.3943 0 0 174
-52.0351 -74.3055 34.7135 0 0 214
-52.1252 -74.6078 36.0371 0 0 174
-48.5467 -80.0732 39.9256 0 0 131
-47.9471 -80.9565 40.5376 0 0 131
-56.2884 -69.1626 5.62458 0 0 181
-55.3957 -69.7104 6.80252 0 0 181
-55.9376 -68.4556 6.37998 0 0 225
-57.2535 -68.5901 4.48004 0 0 137
-56.2884 -69.1626 5.62458 0 0 137
-58.1532 -67.9715 3.33855 0 0 181
-57.2535 -68.5901 4.48004 0 0 181
-57.73 -67.2891 4.06055 0 0 225
-59.1068 -67.3139 2.22049 0 0 137
-58.1532 -67.9715 3.33855 0 0 137
-59.4984 -65.9679 1.8039 0 0 178
-59.0385 -65.3459 2.49804 0 0 220
-59.9072 -64.6433 1.38289 0 0 178
-59.1068 -67.3139 2.22049 0 0 137
-59.4984 -65.9679 1.8039 0 0 137
-55.8412 -66.1594 18.9942 0 0 229
-55.6144 -66.7336 20.3131 0 0 184
-56.6523 -65.9002 19.8442 0 0 184
-59.2988 -63.041 16.3731 0 0 138
-60.3548 -62.2419 15.9803 0 0 138
-58.5151 -63.2288 15.4977 0 0 230
-58.2375 -63.8993 16.7821 0 0 184
-59.2988 -63.041 16.3731 0 0 184
-63.3564 -52.4656 1.90704 0 0 170
-62.6728 -53.6322 2.11485 0 0 209
-63.168 -53.3238 2.97985 0 0 170
-63.4407 -51.562 0.862654 0 0 132
-63.3564 -52.4656 1.90704 0 0 132
-65.544 -52.5268 6.52895 0 0 133
-65.4149 -53.5004 7.62512 0 0 133
-64.9381 -52.654 5.62989 0 0 133
-65.544 -52.5268 6.52895 0 0 133
-64.3128 -52.8307 4.73691 0 0 175
-64.1877 -53.7651 5.82354 0 0 216
-64.9381 -52.654 5.62989 0 0 175
-63.707 -53.0494 3.8513 0 0 134
-64.3128 -52.8307 4.73691 0 0 134
-45.6971 -84.7074 32.4284 0 0 139
-45.5914 -85.4403 31.3605 0 0 139
-45.9635 -83.6088 31.9218 0 0 224
-45.6971 -84.7074 32.4284 0 0 181
-45.8778 -84.0098 33.4395 0 0 181
-46.4817 -82.2347 33.8639 0 0 220
-46.1222 -83.2867 34.4231 0 0 178
-46.4597 -82.6103 35.3541 0 0 178
-53.4627 -72.8377 34.7729 0 0 134
-52.7871 -73.7082 35.3943 0 0 134
-53.4178 -72.5371 33.4572 0 0 134
-53.4627 -72.8377 34.7729 0 0 134
-53.3268 -72.1566 32.1104 0 0 176
-52.606 -73.0254 32.7239 0 0 218
-53.4178 -72.5371 33.4572 0 0 176
-53.29 -71.7847 30.7815 0 0 135
-53.3268 -72.1566 32.1104 0 0 135
-53.2274 -71.346 29.4226 0 0 179
-52.4523 -72.2062 30.0182 0 0 221
-53.29 -71.7847 30.7815 0 0 179
-53.2228 -70.9166 28.0869 0 0 136
-53.2274 -71.346 29.4226 0 0 136
-53.2166 -70.4369 26.7213 0 0 180
-52.3835 -71.2878 27.2937 0 0 224
-53.2228 -70.9166 28.0869 0 0 180
-53.266 -69.9611 25.3808 0 0 224
-53.2166 -70.4369 26.7213 0 0 180
-54.1052 -69.59 26.1741 0 0 180
-55.2469 -67.8052 22.9762 0 0 182
-54.2755 -68.6002 23.4903 0 0 226
-55.1259 -68.3192 24.3195 0 0 182
-55.411 -67.2803 21.6551 0 0 138
-55.2469 -67.8052 22.9762 0 0 138
-45.7382 -85.0241 29.8348 0 0 139
-45.5914 -85.4403 31.3605 0 0 139
-45.8275 -84.5888 28.3038 0 0 185
-45.7382 -85.0241 29.8348 0 0 185
-45.8721 -83.8711 29.3797 0 0 230
-45.9771 -84.154 26.7761 0 0 139
-45.8275 -84.5888 28.3038 0 0 139
-46.1023 -83.711 25.2499 0 0 185
-45.9771 -84.154 26.7761 0 0 185
-46.0866 -82.993 26.3224 0 0 230
-46.2867 -83.278 23.7371 0 0 139
-46.1023 -83.711 25.2499 0 0 139
-46.4827 -82.8445 22.2326 0 0 184
-46.2867 -83.278 23.7371 0 0 184
-46.4079 -82.1165 23.2917 0 0 229
-46.7354 -82.4235 20.7512 0 0 138
-46.4827 -82.8445 22.2326 0 0 138
-47.0343 -82.0065 19.285 0 0 183
-46.7354 -82.4235 20.7512 0 0 183
-46.9029 -81.2659 20.321 0 0 228
-47.3843 -81.5977 17.8507 0 0 138
-47.0343 -82.0065 19.285 0 0 138
-47.3843 -81.5977 17.8507 0 0 138
-47.6275 -80.4461 17.4417 0 0 138
-48.3889 -78.8976 15.6081 0 0 181
-47.8844 -79.2979 16.9965 0 0 181
-48.2201 -78.1521 16.5761 0 0 224
-48.3889 -78.8976 15.6081 0 0 137
-48.9525 -78.4993 14.2584 0 0 137
-50.5289 -75.8057 12.1298 0 0 181
-49.8085 -76.2119 13.4328 0 0 181
-50.3075 -75.061 13.0242 0 0 225
-51.8734 -74.2278 10.4785 0 0 180
-51.5864 -73.494 11.298 0 0 224
-52.4317 -73.0671 10.0552 0 0 180
-51.3167 -75.3933 10.8699 0 0 138
-51.8734 -74.2278 10.4785 0 0 138
-50.5289 -75.8057 12.1298 0 0 137
-51.3167 -75.3933 10.8699 0 0 137
-61.6539 -56.5956 -0.867775 0 0 164
-61.3121 -57.8994 -0.548582 0 0 164
-61.1808 -57.412 0.215165 0 0 199
-61.8469 -55.2607 -1.16827 0 0 162
-61.8954 -54.8253 -0.367154 0 0 196
-62.2198 -53.9777 -1.43139 0 0 162
-61.6539 -56.5956 -0.867775 0 0 128
-61.8469 -55.2607 -1.16827 0 0 128
3 0 32 30
3 1 35 33
3 1 37 35
3 1 38 37
3 3 42 40
3 3 44 42
3 3 46 44
3 4 49 47
3 6 52 50
3 6 54 52
3 4 125 126
3 4 127 129
3 127 47 128
3 127 128 129
3 5 57 55
3 7 60 58
3 7 62 60
3 2 65 63
3 130 68 131
3 132 131 66
3 130 131 132
3 134 133 68
3 136 135 69
3 137 71 138
3 140 139 71
3 10 76 74
3 12 77 31
3 12 78 77
3 13 81 79
3 15 82 34
3 15 83 82
3 15 84 83
3 142 141 36
3 143 87 144
3 145 144 85
3 143 144 145
3 17 88 39
3 17 89 88
3 8 146 148
3 146 90 147
3 146 147 148
3 18 91 41
3 18 92 91
3 18 93 92
3 19 94 43
3 19 95 94
3 19 97 95
3 21 98 45
3 21 149 151
3 151 150 98
3 149 150 151
3 152 99 153
3 154 153 72
3 152 153 154
3 155 101 156
3 23 102 48
3 23 103 102
3 9 104 73
3 24 105 51
3 24 106 105
3 24 107 106
3 25 108 53
3 25 109 108
3 157 110 158
3 160 159 110
3 22 111 100
3 26 112 56
3 26 113 112
3 11 114 75
3 27 115 59
3 27 116 115
3 27 161 163
3 163 162 116
3 161 162 163
3 165 164 61
3 16 117 86
3 28 118 64
3 28 119 118
3 14 120 80
3 29 121 67
3 29 122 121
3 29 123 122
3 20 124 96
3 167 166 70
3 30 31 10
3 32 31 30
3 32 12 31
3 33 34 13
3 35 34 33
3 35 15 34
3 35 36 15
3 37 36 35
3 37 168 170
3 170 169 36
3 168 169 170
3 37 171 172
3 38 173 175
3 175 174 37
3 173 174 175
3 38 176 177
3 178 39 179
3 180 39 181
3 182 17 183
3 184 183 39
3 182 183 184
3 40 41 8
3 42 41 40
3 42 18 41
3 42 43 18
3 44 43 42
3 44 19 43
3 44 45 19
3 46 45 44
3 46 21 45
3 47 185 187
3 185 48 186
3 185 186 187
3 49 48 47
3 49 23 48
3 50 51 9
3 52 51 50
3 52 24 51
3 52 53 24
3 54 53 52
3 54 25 53
3 47 188 189
3 47 190 191
3 55 56 22
3 57 56 55
3 57 26 56
3 58 59 11
3 60 59 58
3 60 27 59
3 60 61 27
3 62 61 60
3 62 192 194
3 194 193 61
3 192 193 194
3 63 64 16
3 65 64 63
3 65 28 64
3 66 67 14
3 68 67 66
3 68 29 67
3 68 195 197
3 197 196 29
3 195 196 197
3 199 198 68
3 69 70 20
3 200 70 201
3 202 201 69
3 200 201 202
3 204 203 70
3 205 8 206
3 207 8 208
3 209 40 210
3 211 210 8
3 209 210 211
3 71 212 214
3 212 40 213
3 212 213 214
3 71 3 40
3 71 72 3
3 215 72 216
3 217 216 71
3 215 216 217
3 219 218 72
3 220 73 221
3 222 221 4
3 220 221 222
3 223 73 224
3 225 9 226
3 227 226 73
3 225 226 227
3 228 9 229
3 230 50 231
3 232 231 9
3 230 231 232
3 233 50 234
3 235 6 236
3 237 236 50
3 235 236 237
3 238 4 239
3 74 75 5
3 76 75 74
3 76 11 75
3 31 76 10
3 77 76 31
3 77 11 76
3 77 58 11
3 78 58 77
3 78 7 58
3 79 80 2
3 81 80 79
3 81 14 80
3 34 81 13
3 82 81 34
3 82 14 81
3 82 66 14
3 83 66 82
3 83 240 242
3 242 241 66
3 240 241 242
3 83 243 244
3 84 245 247
3 247 246 83
3 245 246 247
3 84 248 249
3 36 84 15
3 250 84 251
3 252 251 36
3 250 251 252
3 254 253 84
3 85 86 0
3 87 86 85
3 87 16 86
3 39 255 257
3 255 87 256
3 255 256 257
3 88 87 39
3 88 16 87
3 88 63 16
3 89 63 88
3 89 2 63
3 90 258 259
3 90 260 262
3 260 17 261
3 260 261 262
3 41 90 8
3 91 90 41
3 91 17 90
3 91 89 17
3 92 89 91
3 92 2 89
3 92 79 2
3 93 79 92
3 93 13 79
3 43 93 18
3 94 93 43
3 94 13 93
3 94 33 13
3 95 33 94
3 95 1 33
3 95 96 1
3 97 96 95
3 97 20 96
3 45 97 19
3 98 97 45
3 98 20 97
3 98 69 20
3 263 69 264
3 265 264 98
3 263 264 265
3 267 266 69
3 72 46 3
3 99 46 72
3 99 21 46
3 268 99 269
3 270 99 271
3 272 21 273
3 274 273 99
3 272 273 274
3 276 275 21
3 277 100 278
3 101 279 281
3 279 100 280
3 279 280 281
3 101 22 100
3 48 282 284
3 282 101 283
3 282 283 284
3 102 101 48
3 102 22 101
3 102 55 22
3 103 55 102
3 103 5 55
3 73 49 4
3 104 49 73
3 104 23 49
3 51 104 9
3 105 104 51
3 105 23 104
3 105 103 23
3 106 103 105
3 106 5 103
3 106 74 5
3 107 74 106
3 107 10 74
3 53 107 24
3 108 107 53
3 108 10 107
3 108 30 10
3 109 30 108
3 109 0 30
3 285 6 286
3 287 6 288
3 289 54 290
3 291 290 6
3 289 290 291
3 292 54 293
3 294 25 295
3 296 295 54
3 294 295 296
3 297 25 298
3 299 109 300
3 301 300 25
3 299 300 301
3 110 302 304
3 302 109 303
3 302 303 304
3 110 0 109
3 110 85 0
3 305 85 306
3 307 306 110
3 305 306 307
3 309 308 85
3 100 310 311
3 111 312 314
3 314 313 100
3 312 313 314
3 111 315 316
3 56 111 22
3 112 111 56
3 112 317 319
3 319 318 111
3 317 318 319
3 112 320 321
3 113 322 324
3 324 323 112
3 322 323 324
3 113 325 326
3 75 57 5
3 114 57 75
3 114 26 57
3 59 114 11
3 115 114 59
3 115 26 114
3 115 113 26
3 116 113 115
3 116 327 329
3 329 328 113
3 327 328 329
3 116 330 331
3 333 332 116
3 61 334 336
3 336 335 27
3 334 335 336
3 338 337 61
3 86 32 0
3 117 32 86
3 117 12 32
3 64 117 16
3 118 117 64
3 118 12 117
3 118 78 12
3 119 78 118
3 119 7 78
3 80 65 2
3 120 65 80
3 120 28 65
3 67 120 14
3 121 120 67
3 121 28 120
3 121 119 28
3 122 119 121
3 122 7 119
3 122 62 7
3 123 62 122
3 123 339 341
3 341 340 62
3 339 340 341
3 342 123 343
3 344 343 29
3 342 343 344
3 345 123 346
3 348 347 123
3 96 38 1
3 124 38 96
3 124 349 351
3 351 350 38
3 349 350 351
3 70 124 20
3 352 124 353
3 354 353 70
3 352 353 354
3 356 355 124
