ply
format ascii 1.0
element vertex 512
property float x
property float y
property float z
property uchar red
property uchar green
property uchar blue
element face 489
property list uchar int vertex_index
end_header
16.1791 -53.3381 -12.4518 0 187 255
36.0028 -6.77568 -52.5567 255 134 0
28.7709 -24.2482 -37.4305 33 255 222
29.1625 -13.0581 -42.6959 0 150 255
30.2461 -15.2366 -45.8337 255 208 0
29.5332 -3.07889 -51.2083 163 255 92
25.8836 -41.9574 -22.6981 0 88 255
28.6928 -36.4462 -30.1664 0 248 255
28.6427 -8.07494 -47.1717 109 255 146
29.0873 -2.64988 -48.4405 57 255 198
29.3399 -28.4607 -32.8065 0 108 255
28.4737 -33.8573 -29.679 0 180 255
28.8153 -30.1542 -33.9778 36 255 219
30.2896 -32.9414 -34.0955 0 188 255
29.6257 -26.1238 -38.185 178 255 77
32.6946 -10.7826 -49.4146 240 0 0
33.6195 -17.6005 -45.5686 194 0 0
36.755 -13.5202 -48.5755 255 238 0
15.1968 -53.373 -9.63432 0 228 255
28.8494 -18.5703 -40.381 0 227 255
28.9358 -19.792 -41.8229 75 255 180
28.566 -13.7968 -44.8757 45 255 210
29.6479 -8.98789 -48.9647 203 255 52
32.037 -4.42757 -52.6056 255 92 0
30.7058 6.85409 -46.9614 101 255 154
29.781 2.37877 -48.4 56 255 199
19.3856 -48.8876 -13.9457 0 198 255
21.0165 -48.2211 -17.1077 7 255 248
22.9947 -47.1388 -20.1272 0 248 255
27.2443 -39.4763 -26.3654 58 255 197
31.2003 -21.8893 -42.1025 255 119 0
29.2171 -5.21748 -46.3565 0 173 255
14.8978 -55.8676 -11.5767 0 111 255
29.182 -23.6261 -36.6333 0 171 255
29.0034 -26.3943 -35.1353 0 201 255
28.8213 -29.1978 -33.5285 41 255 214
28.792 -27.1646 -35.7595 20 255 235
29.1395 -28.1722 -36.1044 89 255 166
28.9191 -25.0627 -37.9477 44 255 211
34.2608 -8.6953 -51.0445 165 0 0
34.675 -12.0322 -49.1423 135 0 0
36.3754 -10.0738 -50.6364 255 244 0
14.3445 -55.743 -8.93116 0 99 255
14.5702 -53.3283 -8.23278 0 42 255
28.9771 -15.7936 -41.6288 0 193 255
28.5539 -16.2011 -42.6758 57 255 198
28.6047 -13.3658 -43.9302 101 255 154
28.9031 -5.55835 -49.2497 112 255 143
28.8567 -8.43179 -48.2313 93 255 162
29.53 -5.99172 -50.2196 172 255 83
30.6979 -6.65366 -50.8467 255 193 0
30.5449 -3.62676 -52.0864 255 240 0
31.228 9.24662 -48.449 95 255 160
30.5965 7.19522 -49.4723 82 255 173
30.2123 4.69579 -47.8491 85 255 170
30.0681 4.93728 -50.1497 57 255 198
29.6394 2.50368 -50.46 22 255 233
20.1755 -48.6004 -15.5403 0 201 255
23.6346 -45.3016 -19.7373 0 175 255
24.5103 -44.4911 -21.3899 0 224 255
24.15 -46.4067 -21.6004 0 120 255
25.4384 -43.5376 -23.0386 0 214 255
28.335 -34.9888 -30.0594 41 255 214
27.9192 -36.6251 -28.0326 35 255 220
27.9545 -38.0259 -28.2453 91 255 164
27.4208 -41.1888 -26.4203 0 189 255
28.4401 -39.7929 -28.1964 0 152 255
29.4387 -17.5167 -43.8814 178 255 77
29.8453 -20.7165 -42.1019 231 255 24
30.6958 -18.5056 -44.0298 255 159 0
35.5221 -19.1468 -45.0454 238 255 17
34.0882 -21.2224 -43.519 200 255 55
28.7439 -10.5864 -44.9851 0 255 255
28.9552 -7.86758 -45.8065 0 220 255
28.8279 -5.32088 -47.9541 164 255 91
29.0558 -2.76802 -49.9861 153 255 102
28.9388 -31.1443 -31.2778 0 143 255
28.6099 -32.0547 -31.8295 24 255 231
28.799 -33.2401 -32.1047 81 255 174
29.4668 -34.7471 -32.1231 0 226 255
29.3406 -31.3926 -34.155 152 255 103
29.9892 -29.4607 -36.187 61 255 194
30.7715 -27.4597 -38.17 43 255 212
31.3426 -12.9794 -47.6775 255 87 0
31.8021 -16.2981 -45.8446 255 46 0
33.1395 -14.1257 -47.5467 207 0 0
35.1099 -15.5105 -47.1237 128 0 0
37.1014 -17.1364 -46.4531 132 255 123
14.641 -55.8193 -10.261 0 163 255
15.7016 -53.3723 -11.0453 112 255 143
29.3734 -20.8825 -38.0079 0 134 255
28.7834 -21.3872 -38.9758 69 255 186
28.7265 -22.0417 -39.6671 23 255 232
28.5972 -19.0915 -41.2482 29 255 226
28.6973 -16.7585 -43.4311 48 255 207
29.1254 -14.4087 -45.5129 131 255 124
28.5499 -10.902 -46.133 67 255 188
28.929 -11.3821 -46.973 100 255 155
29.8892 -12.0676 -47.4894 250 255 5
30.9672 -9.76854 -49.3598 255 139 0
32.3195 -7.55497 -51.121 255 35 0
33.9006 -5.47938 -52.7597 214 0 0
31.9532 11.068 -47.1145 0 149 255
31.2605 8.83973 -45.7728 1 255 254
29.4068 -0.076929 -48.5963 20 255 235
29.303 -0.073893 -50.4001 56 255 199
29.6517 -0.256641 -51.8847 0 212 255
30.5115 -0.686279 -53.0254 0 250 255
31.8611 -1.38871 -53.8048 74 255 181
33.6189 -2.36356 -54.2119 158 255 97
35.6695 -3.59878 -54.2465 225 255 30
37.8903 -5.08383 -53.9234 0 251 255
16.3419 -51.1925 -10.2265 0 110 255
17.0391 -51.1287 -11.7231 0 249 255
18.5907 -49.0903 -12.3452 0 122 255
17.6977 -51.0128 -13.2255 5 255 250
18.3983 -50.8447 -14.7116 0 196 255
19.2119 -50.6177 -16.16 0 199 255
20.1879 -50.3175 -17.5568 0 203 255
22.8025 -45.9746 -18.0653 0 116 255
21.9494 -47.7387 -18.6358 135 255 120
21.3476 -49.9234 -18.902 0 143 255
28.3538 -35.5441 -27.5395 0 84 255
27.5219 -38.1352 -26.0289 0 129 255
26.5566 -40.789 -24.5207 0 196 255
26.4137 -42.4374 -24.707 0 161 255
29.2579 -22.9081 -40.0691 121 255 134
30.3066 -24.0241 -40.1926 255 226 0
31.7092 -25.4063 -40.0708 102 255 153
32.3089 -19.7393 -43.8967 255 21 0
32.8144 -23.3194 -41.8599 154 255 101
15.7097 -54.6214 -12.6599 0 0 151
15.0691 -55.8861 -12.2223 0 0 151
15.5385 -54.6029 -12.0143 0 0 172
16.455 -53.3078 -13.144 0 0 132
15.7097 -54.6214 -12.6599 0 0 132
37.1084 -7.54499 -52.2898 0 0 199
37.2948 -9.19403 -51.3296 0 0 199
36.1891 -8.42472 -51.5966 0 0 245
14.162 -53.2768 -7.5427 0 0 130
14.2327 -54.472 -7.91401 0 0 130
29.4885 -14.2601 -41.5061 0 0 137
29.6064 -12.9259 -41.9488 0 0 137
29.0698 -14.4259 -42.1624 0 0 189
29.3958 -15.6278 -40.9726 0 0 162
29.4885 -14.2601 -41.5061 0 0 162
30.6559 7.32052 -50.5922 0 0 139
30.9666 8.41583 -50.1817 0 0 139
30.3917 6.19156 -50.9309 0 0 170
30.3323 6.06625 -49.811 0 0 201
30.6559 7.32052 -50.5922 0 0 170
30.1513 4.98782 -51.152 0 0 137
30.3917 6.19156 -50.9309 0 0 137
25.1969 -43.2242 -22.044 0 0 171
24.8607 -43.7333 -21.1365 0 0 150
25.5474 -42.4665 -21.7906 0 0 150
29.0743 -37.3505 -30.1032 0 0 161
28.948 -39.0239 -29.1182 0 0 161
28.5664 -38.1195 -29.1814 0 0 188
35.6918 -21.05 -43.9959 0 0 151
36.4453 -20.041 -44.6869 0 0 151
29.2984 -7.80037 -44.9838 0 0 136
29.1731 -9.11829 -44.6793 0 0 136
29.7775 -28.1549 -32.327 0 0 133
29.5178 -27.1243 -33.5267 0 0 133
29.5135 -29.4427 -31.6386 0 0 132
29.7775 -28.1549 -32.327 0 0 132
29.1393 -29.8025 -32.0422 0 0 177
29.3129 -30.7845 -30.8742 0 0 154
29.5135 -29.4427 -31.6386 0 0 154
37.7827 -14.3849 -48.1704 0 0 200
37.9559 -16.193 -47.1092 0 0 200
36.9282 -15.3283 -47.5143 0 0 246
29.1114 -19.7264 -39.1945 0 0 181
29.4792 -19.5214 -38.6252 0 0 157
29.2172 -18.3653 -39.8118 0 0 157
32.0252 11.3173 -48.4152 0 0 140
32.4644 12.1353 -47.6673 0 0 140
30.7857 6.72227 -45.6126 0 0 175
31.0631 7.71509 -45.0183 0 0 175
30.9831 7.84691 -46.3671 0 0 209
30.5999 5.65625 -46.1385 0 0 143
30.7857 6.72227 -45.6126 0 0 143
29.9642 2.29107 -47.2377 0 0 173
30.1799 3.44958 -46.9622 0 0 173
29.9967 3.53728 -48.1246 0 0 205
29.8008 1.10498 -47.454 0 0 141
29.9642 2.29107 -47.2377 0 0 141
29.5939 1.15092 -48.4982 0 0 199
29.6137 -0.12287 -47.5521 0 0 169
29.8008 1.10498 -47.454 0 0 169
29.5933 1.1922 -51.3045 0 0 161
29.4712 1.21489 -50.43 0 0 187
29.7615 2.48099 -51.3344 0 0 161
29.7677 1.10083 -52.0468 0 0 157
29.4773 -0.165267 -51.1424 0 0 181
29.5933 1.1922 -51.3045 0 0 157
31.1573 0.439358 -53.8427 0 0 136
30.5565 0.736586 -53.3205 0 0 136
31.8321 0.088143 -54.2324 0 0 166
31.1863 -1.03749 -53.4151 0 0 195
31.1573 0.439358 -53.8427 0 0 166
34.5107 -1.43944 -54.9149 0 0 146
33.5271 -0.847543 -54.7705 0 0 146
35.536 -2.05705 -54.9322 0 0 187
34.6442 -2.98117 -54.2292 0 0 226
34.5107 -1.43944 -54.9149 0 0 187
38.8957 -4.3778 -54.5094 0 0 153
37.742 -3.52506 -54.7282 0 0 153
40.0362 -5.24413 -54.1852 0 0 153
39.0309 -5.95016 -53.5992 0 0 199
38.8957 -4.3778 -54.5094 0 0 199
17.0349 -50.2026 -10.4946 0 0 131
16.5401 -50.225 -9.72241 0 0 131
17.3835 -50.1707 -11.2429 0 0 150
16.6905 -51.1606 -10.9748 0 0 171
17.0349 -50.2026 -10.4946 0 0 150
18.9882 -48.9889 -13.1454 0 0 173
19.4318 -48.1596 -12.6575 0 0 152
19.8292 -48.0583 -13.4578 0 0 152
23.6599 -44.9069 -18.5657 0 0 131
23.2878 -45.2604 -17.6562 0 0 131
22.8381 -48.275 -20.1702 0 0 156
22.0146 -49.6673 -19.5576 0 0 156
22.1712 -48.5311 -19.5146 0 0 181
24.1513 -47.5818 -21.5623 0 0 134
24.7713 -45.9675 -22.3432 0 0 134
28.4137 -34.7007 -28.6093 0 0 167
28.7121 -34.2637 -28.2837 0 0 147
28.772 -33.4203 -29.3534 0 0 147
27.0528 -42.8405 -25.5203 0 0 136
27.7013 -42.2403 -26.3273 0 0 136
30.3763 -34.7632 -33.0168 0 0 167
29.9649 -35.6661 -32.0306 0 0 167
29.8782 -33.8443 -33.1093 0 0 196
33.6534 -24.1624 -41.6415 0 0 187
33.4513 -22.2709 -42.6895 0 0 226
34.2903 -23.1139 -42.471 0 0 187
33.0384 -25.1875 -40.8063 0 0 147
33.6534 -24.1624 -41.6415 0 0 147
29.5547 -5.18811 -45.4215 0 0 138
29.4293 -6.47532 -45.2588 0 0 138
29.3633 -3.93219 -46.4777 0 0 138
29.5547 -5.18811 -45.4215 0 0 138
29.2985 -2.64839 -47.5197 0 0 164
29.1522 -3.93368 -47.3985 0 0 192
29.3633 -3.93219 -46.4777 0 0 164
14.4406 -57.287 -11.6753 0 0 129
14.3996 -57.2217 -11.0721 0 0 129
14.4406 -57.287 -11.6753 0 0 131
15.0691 -55.8861 -12.2223 0 0 131
29.4389 -24.707 -35.4401 0 0 133
29.6003 -23.371 -36.108 0 0 133
29.3496 -26.0911 -34.6911 0 0 154
29.4389 -24.707 -35.4401 0 0 154
29.0927 -25.0102 -35.8843 0 0 177
29.1717 -27.4275 -33.9709 0 0 175
29.5178 -27.1243 -33.5267 0 0 153
29.3496 -26.0911 -34.6911 0 0 153
37.4542 -10.8835 -50.2863 0 0 201
37.644 -12.6067 -49.2558 0 0 201
36.5652 -11.797 -49.606 0 0 247
37.4542 -10.8835 -50.2863 0 0 155
37.2948 -9.19403 -51.3296 0 0 155
14.1199 -55.6793 -8.2632 0 0 129
14.0721 -57.0004 -8.50517 0 0 129
14.4574 -54.5356 -8.58197 0 0 167
14.1199 -55.6793 -8.2632 0 0 147
14.2327 -54.472 -7.91401 0 0 147
29.2811 -16.9769 -40.4357 0 0 135
29.3958 -15.6278 -40.9726 0 0 135
28.9132 -17.1819 -41.0049 0 0 182
29.2172 -18.3653 -39.8118 0 0 158
29.2811 -16.9769 -40.4357 0 0 158
31.2823 9.44153 -49.67 0 0 140
31.6626 10.4066 -49.0824 0 0 140
30.9123 8.22092 -48.9607 0 0 205
31.2823 9.44153 -49.67 0 0 173
30.9666 8.41583 -50.1817 0 0 173
29.9369 3.77102 -51.3071 0 0 166
29.8537 3.72048 -50.3048 0 0 194
30.1513 4.98782 -51.152 0 0 166
29.7615 2.48099 -51.3344 0 0 135
29.9369 3.77102 -51.3071 0 0 135
20.274 -47.9099 -14.3059 0 0 132
19.8292 -48.0583 -13.4578 0 0 132
20.6689 -47.7663 -15.1032 0 0 152
19.7805 -48.744 -14.743 0 0 174
20.274 -47.9099 -14.3059 0 0 152
21.083 -47.5582 -15.9558 0 0 132
20.6689 -47.7663 -15.1032 0 0 132
21.5035 -47.3686 -16.7395 0 0 152
20.596 -48.4108 -16.324 0 0 174
21.083 -47.5582 -15.9558 0 0 152
24.4228 -44.1386 -20.3102 0 0 130
24.076 -44.5704 -19.4017 0 0 130
24.0724 -44.8963 -20.5636 0 0 167
24.4228 -44.1386 -20.3102 0 0 147
24.8607 -43.7333 -21.1365 0 0 147
25.4155 -44.5329 -23.0623 0 0 153
24.7713 -45.9675 -22.3432 0 0 153
24.7942 -44.9722 -22.3195 0 0 175
28.211 -41.5424 -27.2153 0 0 162
27.7013 -42.2403 -26.3273 0 0 162
27.9304 -40.4908 -27.3083 0 0 189
28.8418 -40.8596 -28.0708 0 0 139
28.211 -41.5424 -27.2153 0 0 139
28.8418 -40.8596 -28.0708 0 0 138
28.948 -39.0239 -29.1182 0 0 138
30.8805 -33.8703 -33.9777 0 0 141
30.7352 -31.9932 -35.0736 0 0 141
34.9749 -22.0878 -43.2326 0 0 191
34.8052 -20.1846 -44.2822 0 0 233
35.6918 -21.05 -43.9959 0 0 191
34.2903 -23.1139 -42.471 0 0 149
34.9749 -22.0878 -43.2326 0 0 149
29.2768 -11.7136 -43.124 0 0 137
29.6064 -12.9259 -41.9488 0 0 137
29.0675 -10.4777 -44.2685 0 0 160
28.9532 -11.8222 -43.8405 0 0 185
29.2768 -11.7136 -43.124 0 0 160
28.8496 -9.22697 -45.3958 0 0 186
29.0675 -10.4777 -44.2685 0 0 160
29.1731 -9.11829 -44.6793 0 0 160
29.0861 -6.54253 -46.0815 0 0 192
29.2984 -7.80037 -44.9838 0 0 164
29.4293 -6.47532 -45.2588 0 0 164
26.2694 -41.3385 -22.3894 0 0 128
25.5474 -42.4665 -21.7906 0 0 128
29.0046 -32.0638 -30.1528 0 0 130
29.3129 -30.7845 -30.8742 0 0 130
28.7062 -32.5008 -30.4784 0 0 170
28.772 -33.4203 -29.3534 0 0 150
29.0046 -32.0638 -30.1528 0 0 150
30.585 -30.2529 -36.1193 0 0 168
30.7352 -31.9932 -35.0736 0 0 168
30.1394 -31.2011 -35.1412 0 0 199
30.9762 -29.2524 -37.1109 0 0 168
30.585 -30.2529 -36.1193 0 0 168
30.3803 -28.4602 -37.1785 0 0 198
31.4679 -28.268 -38.0606 0 0 142
30.9762 -29.2524 -37.1109 0 0 142
37.2349 -19.0359 -45.3907 0 0 195
36.4453 -20.041 -44.6869 0 0 195
36.3118 -18.1416 -45.7493 0 0 239
38.0531 -18.069 -46.0238 0 0 197
38.1866 -19.9684 -44.9614 0 0 153
37.2349 -19.0359 -45.3907 0 0 197
38.0531 -18.069 -46.0238 0 0 154
37.9559 -16.193 -47.1092 0 0 154
37.7827 -14.3849 -48.1704 0 0 155
37.644 -12.6067 -49.2558 0 0 155
14.1174 -57.0893 -9.13348 0 0 128
14.0721 -57.0004 -8.50517 0 0 128
14.2657 -57.1275 -9.79841 0 0 151
14.1174 -57.0893 -9.13348 0 0 151
14.4928 -55.7811 -9.59609 0 0 172
14.2712 -57.1975 -10.4143 0 0 128
14.2657 -57.1275 -9.79841 0 0 128
14.7694 -55.8434 -10.9189 0 0 174
14.3996 -57.2217 -11.0721 0 0 152
14.2712 -57.1975 -10.4143 0 0 152
29.8439 -20.6627 -37.4025 0 0 136
29.4792 -19.5214 -38.6252 0 0 136
29.696 -21.9991 -36.7953 0 0 135
29.8439 -20.6627 -37.4025 0 0 135
29.2777 -22.2543 -37.3206 0 0 184
29.6003 -23.371 -36.108 0 0 159
29.696 -21.9991 -36.7953 0 0 159
32.3486 11.8589 -46.3125 0 0 174
32.8598 12.9262 -46.8653 0 0 141
32.4644 12.1353 -47.6673 0 0 174
31.9081 10.8587 -45.7221 0 0 140
32.3486 11.8589 -46.3125 0 0 140
31.5906 10.1573 -47.7817 0 0 208
32.0252 11.3173 -48.4152 0 0 175
31.6626 10.4066 -49.0824 0 0 175
31.5617 9.74453 -45.0512 0 0 176
31.9081 10.8587 -45.7221 0 0 176
31.6068 9.95386 -46.4436 0 0 210
31.2606 8.72076 -44.3719 0 0 173
31.5618 9.62555 -43.6503 0 0 141
31.5617 9.74453 -45.0512 0 0 173
31.2606 8.72076 -44.3719 0 0 143
31.0631 7.71509 -45.0183 0 0 143
30.3532 4.5771 -46.5823 0 0 175
30.5999 5.65625 -46.1385 0 0 175
30.4591 5.77494 -47.4052 0 0 208
30.3532 4.5771 -46.5823 0 0 143
30.1799 3.44958 -46.9622 0 0 143
29.4582 -1.36192 -47.5976 0 0 139
29.6137 -0.12287 -47.5521 0 0 139
29.247 -1.36341 -48.5184 0 0 193
29.2985 -2.64839 -47.5197 0 0 165
29.4582 -1.36192 -47.5976 0 0 165
30.1266 0.951405 -52.7502 0 0 134
29.7677 1.10083 -52.0468 0 0 134
30.0816 -0.47146 -52.4551 0 0 182
30.1266 0.951405 -52.7502 0 0 158
30.5565 0.736586 -53.3205 0 0 158
32.6482 -0.360119 -54.5669 0 0 141
31.8321 0.088143 -54.2324 0 0 141
32.74 -1.87613 -54.0083 0 0 211
32.6482 -0.360119 -54.5669 0 0 177
33.5271 -0.847543 -54.7705 0 0 177
36.6316 -2.78254 -54.8898 0 0 150
35.536 -2.05705 -54.9322 0 0 150
36.7799 -4.34131 -54.085 0 0 237
36.6316 -2.78254 -54.8898 0 0 194
37.742 -3.52506 -54.7282 0 0 194
38.0522 -6.69906 -52.9731 0 0 198
37.1084 -7.54499 -52.2898 0 0 198
36.9466 -5.92976 -53.2401 0 0 243
38.0522 -6.69906 -52.9731 0 0 154
39.0309 -5.95016 -53.5992 0 0 154
14.5587 -52.2396 -7.77544 0 0 128
14.162 -53.2768 -7.5427 0 0 128
15.0501 -52.2645 -8.4933 0 0 130
14.5587 -52.2396 -7.77544 0 0 130
15.3634 -52.2869 -9.19406 0 0 148
14.8835 -53.3506 -8.93355 0 0 168
15.0501 -52.2645 -8.4933 0 0 148
15.936 -51.1967 -9.49017 0 0 129
16.5401 -50.225 -9.72241 0 0 129
15.7694 -52.2828 -9.93042 0 0 175
15.3634 -52.2869 -9.19406 0 0 152
15.936 -51.1967 -9.49017 0 0 152
18.9323 -48.2512 -11.8257 0 0 131
19.4318 -48.1596 -12.6575 0 0 131
18.1593 -49.1515 -11.5539 0 0 129
18.9323 -48.2512 -11.8257 0 0 129
17.8149 -50.1095 -12.0342 0 0 177
17.3835 -50.1707 -11.2429 0 0 154
18.1593 -49.1515 -11.5539 0 0 154
17.2142 -52.1452 -13.5308 0 0 152
16.455 -53.3078 -13.144 0 0 152
16.9384 -52.1755 -12.8387 0 0 173
17.5645 -52.0611 -14.2739 0 0 156
17.2142 -52.1452 -13.5308 0 0 156
18.048 -50.9288 -13.9685 0 0 180
17.9226 -52.0163 -14.9454 0 0 131
17.5645 -52.0611 -14.2739 0 0 131
18.3294 -51.9028 -15.6697 0 0 157
17.9226 -52.0163 -14.9454 0 0 157
18.8051 -50.7312 -15.4358 0 0 182
18.8016 -51.8362 -16.3129 0 0 132
18.3294 -51.9028 -15.6697 0 0 132
19.2896 -51.6861 -17.0113 0 0 158
18.8016 -51.8362 -16.3129 0 0 158
19.6999 -50.4676 -16.8584 0 0 183
19.8896 -51.5854 -17.6242 0 0 133
19.2896 -51.6861 -17.0113 0 0 133
22.3965 -46.2453 -17.2183 0 0 130
23.2878 -45.2604 -17.6562 0 0 130
21.9095 -47.0979 -17.5865 0 0 178
21.5035 -47.3686 -16.7395 0 0 155
22.3965 -46.2453 -17.2183 0 0 155
23.2185 -45.6381 -18.9013 0 0 170
23.6599 -44.9069 -18.5657 0 0 150
24.076 -44.5704 -19.4017 0 0 150
20.4695 -51.3883 -18.2967 0 0 160
19.8896 -51.5854 -17.6242 0 0 160
20.7678 -50.1204 -18.2294 0 0 186
21.1917 -51.2377 -18.8855 0 0 136
20.4695 -51.3883 -18.2967 0 0 136
21.1917 -51.2377 -18.8855 0 0 136
22.0146 -49.6673 -19.5576 0 0 136
23.4158 -47.909 -20.9068 0 0 157
22.8381 -48.275 -20.1702 0 0 157
23.5723 -46.7728 -20.8638 0 0 181
23.4158 -47.909 -20.9068 0 0 135
24.1513 -47.5818 -21.5623 0 0 135
26.4977 -40.7311 -23.3723 0 0 129
26.2694 -41.3385 -22.3894 0 0 129
28.7478 -35.1172 -27.1677 0 0 131
28.7121 -34.2637 -28.2837 0 0 131
28.2751 -36.3195 -26.4794 0 0 129
28.7478 -35.1172 -27.1677 0 0 129
27.8592 -37.6151 -25.7241 0 0 150
28.2751 -36.3195 -26.4794 0 0 150
27.9378 -36.8397 -26.7842 0 0 170
27.3168 -38.82 -25.0377 0 0 128
27.8592 -37.6151 -25.7241 0 0 128
26.8342 -40.1469 -24.2836 0 0 148
27.3168 -38.82 -25.0377 0 0 148
27.0393 -39.4621 -25.2748 0 0 168
26.2201 -41.3732 -23.6094 0 0 163
26.4977 -40.7311 -23.3723 0 0 145
26.8342 -40.1469 -24.2836 0 0 145
25.9032 -43.9828 -23.8966 0 0 153
25.4155 -44.5329 -23.0623 0 0 153
25.926 -42.9875 -23.8728 0 0 175
26.5493 -43.4648 -24.6637 0 0 157
26.9172 -41.8131 -25.5636 0 0 181
27.0528 -42.8405 -25.5203 0 0 157
25.9032 -43.9828 -23.8966 0 0 133
26.5493 -43.4648 -24.6637 0 0 133
29.4613 -36.501 -31.0815 0 0 161
29.0743 -37.3505 -30.1032 0 0 161
29.0798 -35.5966 -31.1447 0 0 187
29.4613 -36.501 -31.0815 0 0 138
29.9649 -35.6661 -32.0306 0 0 138
30.3763 -34.7632 -33.0168 0 0 141
30.8805 -33.8703 -33.9777 0 0 141
31.9367 -27.2413 -39.011 0 0 175
31.4679 -28.268 -38.0606 0 0 175
31.2404 -26.433 -39.1204 0 0 209
32.4858 -26.2309 -39.9117 0 0 181
32.2618 -24.3628 -40.9654 0 0 218
33.0384 -25.1875 -40.8063 0 0 181
31.9367 -27.2413 -39.011 0 0 145
32.4858 -26.2309 -39.9117 0 0 145
3 0 131 133
3 133 132 32
3 131 132 133
3 0 134 135
3 2 34 33
3 2 36 34
3 2 38 36
3 1 41 39
3 1 136 138
3 138 137 41
3 136 137 138
3 139 43 140
3 3 141 142
3 3 143 145
3 143 44 144
3 143 144 145
3 3 46 44
3 5 49 47
3 5 51 49
3 146 53 147
3 148 55 149
3 150 149 53
3 148 149 150
3 152 151 55
3 6 153 155
3 153 59 154
3 153 154 155
3 6 61 59
3 7 64 62
3 7 66 64
3 7 156 158
3 158 157 66
3 156 157 158
3 4 69 67
3 160 159 70
3 161 73 162
3 9 74 31
3 9 75 74
3 10 163 164
3 10 165 166
3 10 167 169
3 167 76 168
3 167 168 169
3 12 77 35
3 12 78 77
3 12 80 78
3 14 81 37
3 14 82 81
3 15 85 83
3 17 86 40
3 17 87 86
3 17 170 172
3 172 171 87
3 170 171 172
3 18 88 42
3 18 89 88
3 19 173 175
3 173 90 174
3 173 174 175
3 19 91 90
3 19 93 91
3 21 94 45
3 21 95 94
3 8 96 72
3 22 97 48
3 22 98 97
3 22 99 98
3 23 100 50
3 23 101 100
3 176 102 177
3 24 103 52
3 24 178 180
3 180 179 103
3 178 179 180
3 24 181 182
3 25 183 185
3 185 184 54
3 183 184 185
3 25 186 187
3 25 188 190
3 188 104 189
3 188 189 190
3 191 105 192
3 193 192 56
3 191 192 193
3 194 106 195
3 196 195 105
3 194 195 196
3 197 107 198
3 199 108 200
3 201 200 107
3 199 200 201
3 202 109 203
3 204 110 205
3 206 205 109
3 204 205 206
3 207 111 208
3 211 210 111
3 209 210 211
3 212 112 213
3 214 113 215
3 216 215 112
3 214 215 216
3 26 217 219
3 217 114 218
3 217 218 219
3 26 115 114
3 26 116 115
3 27 117 57
3 27 118 117
3 220 119 221
3 28 120 58
3 28 121 120
3 28 222 224
3 224 223 121
3 222 223 224
3 226 225 60
3 11 227 229
3 227 122 228
3 227 228 229
3 29 123 63
3 29 124 123
3 29 125 124
3 231 230 65
3 13 232 234
3 234 233 79
3 232 233 234
3 20 126 92
3 30 127 68
3 30 128 127
3 16 129 84
3 235 130 236
3 237 236 71
3 235 236 237
3 239 238 130
3 240 31 241
3 242 31 243
3 244 9 245
3 246 245 31
3 244 245 246
3 32 247 248
3 250 249 32
3 33 251 252
3 34 253 255
3 255 254 33
3 253 254 255
3 34 256 258
3 256 10 257
3 256 257 258
3 34 35 10
3 36 35 34
3 36 12 35
3 36 37 12
3 38 37 36
3 38 14 37
3 39 40 15
3 41 40 39
3 41 17 40
3 41 259 261
3 261 260 17
3 259 260 261
3 263 262 41
3 264 42 265
3 43 266 268
3 266 42 267
3 266 267 268
3 43 18 42
3 44 269 270
3 44 271 273
3 271 19 272
3 271 272 273
3 44 45 19
3 46 45 44
3 46 21 45
3 47 48 8
3 49 48 47
3 49 22 48
3 49 50 22
3 51 50 49
3 51 23 50
3 274 52 275
3 53 276 278
3 276 52 277
3 276 277 278
3 53 24 52
3 53 54 24
3 55 54 53
3 55 25 54
3 55 56 25
3 279 56 280
3 281 280 55
3 279 280 281
3 283 282 56
3 284 26 285
3 286 57 287
3 288 287 26
3 286 287 288
3 289 57 290
3 291 27 292
3 293 292 57
3 291 292 293
3 294 58 295
3 59 296 298
3 296 58 297
3 296 297 298
3 59 28 58
3 59 60 28
3 61 60 59
3 61 299 301
3 301 300 60
3 299 300 301
3 62 63 11
3 64 63 62
3 64 29 63
3 64 65 29
3 66 65 64
3 66 302 304
3 304 303 65
3 302 303 304
3 66 305 306
3 308 307 66
3 310 309 13
3 67 68 20
3 69 68 67
3 69 30 68
3 70 71 16
3 311 71 312
3 313 312 70
3 311 312 313
3 315 314 71
3 316 3 317
3 318 72 319
3 320 319 3
3 318 319 320
3 73 321 323
3 321 72 322
3 321 322 323
3 73 8 72
3 31 324 326
3 324 73 325
3 324 325 326
3 74 73 31
3 74 8 73
3 74 47 8
3 75 47 74
3 75 5 47
3 327 6 328
3 76 329 330
3 76 331 333
3 331 11 332
3 331 332 333
3 35 76 10
3 77 76 35
3 77 11 76
3 77 62 11
3 78 62 77
3 78 7 62
3 78 79 7
3 80 79 78
3 80 13 79
3 37 80 12
3 81 80 37
3 81 13 80
3 81 334 336
3 336 335 13
3 334 335 336
3 82 337 339
3 339 338 81
3 337 338 339
3 82 340 341
3 83 84 4
3 85 84 83
3 85 16 84
3 40 85 15
3 86 85 40
3 86 16 85
3 86 70 16
3 87 70 86
3 87 342 344
3 344 343 70
3 342 343 344
3 87 345 347
3 345 346 347
3 349 348 87
3 351 350 17
3 42 352 353
3 88 354 356
3 356 355 42
3 354 355 356
3 88 357 358
3 88 359 361
3 359 32 360
3 359 360 361
3 89 32 88
3 89 0 32
3 90 362 363
3 90 364 365
3 90 366 368
3 366 33 367
3 366 367 368
3 91 33 90
3 91 2 33
3 91 92 2
3 93 92 91
3 93 20 92
3 45 93 19
3 94 93 45
3 94 20 93
3 94 67 20
3 95 67 94
3 95 4 67
3 72 46 3
3 96 46 72
3 96 21 46
3 48 96 8
3 97 96 48
3 97 21 96
3 97 95 21
3 98 95 97
3 98 4 95
3 98 83 4
3 99 83 98
3 99 15 83
3 50 99 22
3 100 99 50
3 100 15 99
3 100 39 15
3 101 39 100
3 101 1 39
3 102 369 371
3 369 370 371
3 102 372 373
3 52 374 376
3 374 102 375
3 374 375 376
3 103 102 52
3 103 377 379
3 379 378 102
3 377 378 379
3 103 380 382
3 380 381 382
3 384 383 103
3 54 385 387
3 387 386 24
3 385 386 387
3 389 388 54
3 104 390 391
3 104 392 394
3 392 9 393
3 392 393 394
3 56 104 25
3 105 104 56
3 105 9 104
3 105 75 9
3 106 75 105
3 106 5 75
3 395 106 396
3 107 397 399
3 397 106 398
3 397 398 399
3 107 5 106
3 107 51 5
3 108 51 107
3 108 23 51
3 400 108 401
3 109 402 404
3 402 108 403
3 402 403 404
3 109 23 108
3 109 101 23
3 110 101 109
3 110 1 101
3 405 110 406
3 111 407 409
3 407 110 408
3 407 408 409
3 111 1 110
3 111 410 412
3 412 411 1
3 410 411 412
3 414 413 111
3 415 43 416
3 417 43 418
3 419 18 420
3 421 420 43
3 419 420 421
3 112 422 423
3 112 424 426
3 424 18 425
3 424 425 426
3 112 89 18
3 113 89 112
3 113 0 89
3 114 427 428
3 114 429 430
3 114 431 433
3 431 113 432
3 431 432 433
3 115 113 114
3 115 0 113
3 115 434 436
3 436 435 0
3 434 435 436
3 116 437 439
3 439 438 115
3 437 438 439
3 116 440 441
3 57 116 26
3 117 116 57
3 117 442 444
3 444 443 116
3 442 443 444
3 117 445 446
3 118 447 449
3 449 448 117
3 447 448 449
3 118 450 451
3 119 452 453
3 119 454 456
3 454 27 455
3 454 455 456
3 58 457 459
3 457 119 458
3 457 458 459
3 120 119 58
3 120 27 119
3 120 118 27
3 121 118 120
3 121 460 462
3 462 461 118
3 460 461 462
3 121 463 464
3 466 465 121
3 60 467 469
3 469 468 28
3 467 468 469
3 471 470 60
3 472 6 473
3 122 474 475
3 122 476 477
3 63 122 11
3 123 122 63
3 123 478 480
3 480 479 122
3 478 479 480
3 123 481 482
3 124 483 485
3 485 484 123
3 483 484 485
3 124 486 488
3 486 6 487
3 486 487 488
3 124 61 6
3 125 61 124
3 125 489 491
3 491 490 61
3 489 490 491
3 65 125 29
3 492 125 493
3 494 493 65
3 492 493 494
3 496 495 125
3 79 497 499
3 499 498 7
3 497 498 499
3 501 500 79
3 503 502 13
3 92 38 2
3 126 38 92
3 126 14 38
3 68 126 20
3 127 126 68
3 127 14 126
3 127 82 14
3 128 82 127
3 128 504 506
3 506 505 82
3 504 505 506
3 84 69 4
3 129 69 84
3 129 30 69
3 71 129 16
3 130 129 71
3 130 30 129
3 130 128 30
3 507 128 508
3 509 508 130
3 507 508 509
3 511 510 128
