ply
format ascii 1.0
element vertex 207
property float x
property float y
property float z
property uchar red
property uchar green
property uchar blue
element face 187
property list uchar int vertex_index
end_header
-29.2361 -49.4174 -26.0741 101 255 154
-38.3197 -37.2014 -37.301 0 179 255
-27.7352 -65.972 -21.7501 3 255 252
-33.2982 -52.2883 -29.8946 189 255 66
-32.9273 -37.2733 -34.4901 255 39 0
-31.2196 -43.4571 -30.3382 64 255 191
-28.9946 -57.505 -23.5764 128 0 0
-30.7793 -59.4168 -25.6341 255 145 0
-31.4769 -51.1815 -27.7484 201 0 0
-33.5685 -44.4563 -32.0245 255 30 0
-35.5943 -37.5772 -35.8631 200 255 55
-34.5654 -31.2523 -38.0891 255 166 0
-27.444 -60.4802 -21.7213 133 255 122
-28.4715 -61.7101 -22.5796 255 121 0
-31.6266 -60.0684 -26.8184 0 241 255
-32.0645 -55.9143 -27.7611 255 167 0
-31.2223 -55.254 -26.6323 173 0 0
-32.3937 -51.8315 -28.7903 213 0 0
-32.5416 -47.8568 -29.9133 243 0 0
-33.5232 -48.3084 -30.9224 255 1 0
-36.91 -37.4721 -36.5845 107 255 148
-36.5439 -34.1877 -37.5503 178 255 77
-37.9347 -33.8863 -38.1999 5 255 250
-31.4713 -36.9228 -33.873 48 255 207
-32.244 -33.9782 -35.8544 140 255 115
-33.0272 -31.1041 -37.6864 107 255 148
-33.7581 -34.2047 -36.3788 255 86 0
-34.5384 -48.5704 -31.9531 54 255 201
-32.0863 -40.3758 -32.4602 255 235 0
-28.0093 -52.2574 -24.0699 115 255 140
-27.87 -56.3088 -22.8033 255 254 0
-29.2571 -53.3932 -24.7448 146 0 0
-29.363 -62.7728 -23.6036 255 254 0
-29.9404 -58.5515 -24.5342 139 0 0
-30.3176 -54.4033 -25.6088 164 0 0
-30.4423 -50.3659 -26.8293 255 172 0
-31.4857 -47.2371 -28.9855 255 204 0
-32.4483 -44.0275 -31.1365 255 3 0
-33.3768 -40.7689 -33.2119 255 41 0
-34.6544 -44.717 -32.9562 146 255 109
-34.5879 -41.0157 -34.0197 233 255 22
-34.2912 -37.5046 -35.1577 255 82 0
-35.1781 -34.2918 -36.9413 255 136 0
-35.9861 -31.2055 -38.5507 39 255 216
-35.3022 -28.5562 -39.5788 0 174 255
-33.822 -28.4011 -39.3281 0 223 255
-29.091 -47.5192 -26.8049 0 0 150
-28.5572 -48.896 -25.7828 0 0 150
-29.7618 -47.9484 -27.1302 0 0 150
-29.091 -47.5192 -26.8049 0 0 150
-27.2431 -65.3497 -21.2912 0 0 154
-26.785 -67.4938 -20.9386 0 0 154
-28.1034 -63.8411 -22.1648 0 0 244
-27.6112 -63.2188 -21.7059 0 0 199
-27.2431 -65.3497 -21.2912 0 0 199
-32.6813 -54.1013 -28.8278 0 0 232
-32.5167 -56.1355 -28.3458 0 0 191
-33.1336 -54.3225 -29.4126 0 0 191
-37.6149 -37.3368 -36.9428 0 0 217
-36.9984 -39.2341 -36.1201 0 0 181
-37.7032 -39.0987 -36.4784 0 0 181
-30.9552 -41.6645 -31.0633 0 0 147
-30.5426 -43.119 -29.9969 0 0 147
-31.6529 -41.9164 -31.3992 0 0 226
-31.3886 -40.1238 -32.1243 0 0 187
-30.9552 -41.6645 -31.0633 0 0 187
-27.2854 -53.626 -23.1502 0 0 152
-27.3134 -51.6458 -23.8243 0 0 152
-30.4968 -61.5259 -25.1909 0 0 195
-30.9205 -61.8517 -25.783 0 0 195
-31.2029 -59.7426 -26.2263 0 0 239
-30.0711 -61.0948 -24.6188 0 0 240
-29.7887 -63.2039 -24.1756 0 0 196
-30.4968 -61.5259 -25.1909 0 0 196
-35.231 -44.7561 -33.4182 0 0 183
-34.5964 -46.6437 -32.4546 0 0 220
-35.173 -46.6828 -32.9166 0 0 183
-35.0911 -39.2965 -34.9414 0 0 211
-35.1911 -41.0543 -34.4332 0 0 177
-35.6943 -39.335 -35.3548 0 0 177
-36.6717 -31.0471 -38.8309 0 0 169
-36.265 -32.6966 -38.0505 0 0 200
-36.9506 -32.5382 -38.3307 0 0 169
-36.3006 -29.7664 -39.2719 0 0 136
-36.6717 -31.0471 -38.8309 0 0 136
-30.7535 -44.9682 -29.2623 0 0 149
-30.5426 -43.119 -29.9969 0 0 149
-27.0975 -62.6038 -21.2768 0 0 155
-26.5339 -61.9055 -20.9042 0 0 155
-27.9577 -61.0952 -22.1504 0 0 243
-27.0975 -62.6038 -21.2768 0 0 198
-27.6112 -63.2188 -21.7059 0 0 198
-32.2978 -58.2125 -27.8745 0 0 152
-32.1175 -60.2724 -27.4218 0 0 152
-31.8456 -57.9914 -27.2898 0 0 234
-32.2978 -58.2125 -27.8745 0 0 192
-32.5167 -56.1355 -28.3458 0 0 192
-36.3521 -39.2825 -35.7156 0 0 144
-36.9984 -39.2341 -36.1201 0 0 144
-36.2522 -37.5247 -36.2238 0 0 212
-35.6943 -39.335 -35.3548 0 0 178
-36.3521 -39.2825 -35.7156 0 0 178
-37.646 -32.3875 -38.6555 0 0 171
-36.9506 -32.5382 -38.3307 0 0 171
-37.2393 -34.037 -37.8751 0 0 203
-31.0662 -35.2982 -34.6118 0 0 146
-30.7133 -36.7111 -33.5885 0 0 146
-31.4526 -33.826 -35.6025 0 0 185
-31.0662 -35.2982 -34.6118 0 0 185
-31.8576 -35.4505 -34.8637 0 0 223
-31.8163 -32.4239 -36.5717 0 0 145
-31.4526 -33.826 -35.6025 0 0 145
-32.6356 -32.5412 -36.7704 0 0 219
-32.208 -30.9868 -37.4877 0 0 182
-31.8163 -32.4239 -36.5717 0 0 182
-27.2882 -68.1168 -21.4126 0 0 202
-26.785 -67.4938 -20.9386 0 0 202
-26.338 -69.6386 -20.6012 0 0 155
-33.8056 -52.4103 -30.4455 0 0 149
-33.1336 -54.3225 -29.4126 0 0 149
-34.4257 -50.5513 -31.4748 0 0 187
-33.9183 -50.4294 -30.9238 0 0 226
-33.8056 -52.4103 -30.4455 0 0 187
-35.1182 -48.6015 -32.4509 0 0 148
-34.4257 -50.5513 -31.4748 0 0 148
-35.173 -46.6828 -32.9166 0 0 147
-35.1182 -48.6015 -32.4509 0 0 147
-38.43 -38.9717 -36.8617 0 0 184
-37.7032 -39.0987 -36.4784 0 0 184
-37.8135 -40.869 -36.039 0 0 146
-31.081 -38.3973 -32.8307 0 0 147
-30.7133 -36.7111 -33.5885 0 0 147
-31.7788 -38.6493 -33.1666 0 0 222
-31.081 -38.3973 -32.8307 0 0 184
-31.3886 -40.1238 -32.1243 0 0 184
-27.9438 -50.316 -24.7808 0 0 151
-27.3134 -51.6458 -23.8243 0 0 151
-28.6227 -50.8374 -25.072 0 0 235
-28.5572 -48.896 -25.7828 0 0 193
-27.9438 -50.316 -24.7808 0 0 193
-39.1008 -37.0027 -37.6518 0 0 148
-38.43 -38.9717 -36.8617 0 0 148
-38.873 -35.3175 -38.0885 0 0 147
-39.1008 -37.0027 -37.6518 0 0 147
-38.6805 -33.66 -38.5379 0 0 181
-38.1272 -35.5439 -37.7504 0 0 216
-38.873 -35.3175 -38.0885 0 0 181
-38.3577 -32.1195 -38.9792 0 0 143
-38.6805 -33.66 -38.5379 0 0 143
-37.646 -32.3875 -38.6555 0 0 141
-38.3577 -32.1195 -38.9792 0 0 141
-26.8401 -59.7957 -21.3894 0 0 155
-26.5339 -61.9055 -20.9042 0 0 155
-27.0531 -57.71 -21.9304 0 0 199
-26.8401 -59.7957 -21.3894 0 0 199
-27.657 -58.3945 -22.2623 0 0 244
-27.2158 -55.6517 -22.5168 0 0 199
-26.3989 -57.0529 -21.6439 0 0 154
-27.0531 -57.71 -21.9304 0 0 199
-27.9396 -54.2831 -23.4366 0 0 241
-27.2854 -53.626 -23.1502 0 0 197
-27.2158 -55.6517 -22.5168 0 0 197
-28.1905 -66.5036 -22.2793 0 0 154
-27.2882 -68.1168 -21.4126 0 0 154
-31.3862 -62.1643 -26.3885 0 0 153
-32.1175 -60.2724 -27.4218 0 0 153
-30.6801 -63.9476 -25.3531 0 0 153
-31.3862 -62.1643 -26.3885 0 0 198
-30.9205 -61.8517 -25.783 0 0 198
-29.0044 -64.904 -23.2061 0 0 153
-29.7887 -63.2039 -24.1756 0 0 153
-28.5491 -64.3724 -22.6768 0 0 244
-28.1905 -66.5036 -22.2793 0 0 199
-29.0044 -64.904 -23.2061 0 0 199
-30.3649 -48.4226 -27.5078 0 0 190
-29.7618 -47.9484 -27.1302 0 0 190
-29.8392 -49.8917 -26.4517 0 0 231
-30.8866 -46.8582 -28.5859 0 0 190
-30.3649 -48.4226 -27.5078 0 0 190
-30.964 -48.8015 -27.9074 0 0 230
-31.3526 -45.3471 -29.6619 0 0 227
-30.7535 -44.9682 -29.2623 0 0 187
-30.8866 -46.8582 -28.5859 0 0 187
-35.2243 -42.905 -33.9014 0 0 144
-35.231 -44.7561 -33.4182 0 0 144
-34.6211 -42.8664 -33.4879 0 0 216
-35.2243 -42.905 -33.9014 0 0 180
-35.1911 -41.0543 -34.4332 0 0 180
-35.9586 -28.4417 -39.786 0 0 160
-35.6441 -29.8809 -39.0647 0 0 186
-36.3006 -29.7664 -39.2719 0 0 160
-35.5803 -27.5062 -40.1482 0 0 128
-35.9586 -28.4417 -39.786 0 0 128
-32.5957 -29.6293 -38.3826 0 0 144
-32.208 -30.9868 -37.4877 0 0 144
-32.9931 -28.2778 -39.2034 0 0 177
-32.5957 -29.6293 -38.3826 0 0 177
-33.4246 -29.7526 -38.5073 0 0 212
-33.4156 -27.0097 -40.008 0 0 141
-32.9931 -28.2778 -39.2034 0 0 141
-34.2266 -27.2139 -40.0303 0 0 139
-33.4156 -27.0097 -40.008 0 0 139
-34.9667 -27.2915 -40.1557 0 0 162
-34.2266 -27.2139 -40.0303 0 0 162
-34.5621 -28.4786 -39.4534 0 0 188
-35.5803 -27.5062 -40.1482 0 0 129
-34.9667 -27.2915 -40.1557 0 0 129
3 0 46 47
3 0 48 49
3 2 50 51
3 2 52 54
3 52 13 53
3 52 53 54
3 3 55 57
3 55 15 56
3 55 56 57
3 3 17 15
3 3 19 17
3 1 58 60
3 58 20 59
3 58 59 60
3 1 22 20
3 4 24 23
3 4 26 24
3 5 61 62
3 5 63 65
3 63 28 64
3 63 64 65
3 66 29 67
3 6 30 12
3 6 31 30
3 7 68 70
3 70 69 14
3 68 69 70
3 7 71 73
3 71 32 72
3 71 72 73
3 7 33 32
3 8 34 16
3 8 35 34
3 8 36 35
3 9 37 18
3 9 38 37
3 74 39 75
3 76 75 27
3 74 75 76
3 10 77 79
3 77 40 78
3 77 78 79
3 10 41 40
3 10 42 41
3 80 43 81
3 82 81 21
3 80 81 82
3 84 83 43
3 11 45 25
3 11 44 45
3 85 5 86
3 87 12 88
3 13 89 91
3 89 12 90
3 89 90 91
3 13 6 12
3 92 14 93
3 15 94 96
3 94 14 95
3 94 95 96
3 15 7 14
3 15 16 7
3 17 16 15
3 17 8 16
3 17 18 8
3 19 18 17
3 19 9 18
3 20 97 98
3 20 99 101
3 99 10 100
3 99 100 101
3 20 21 10
3 22 21 20
3 22 102 104
3 104 103 21
3 102 103 104
3 23 105 106
3 24 107 109
3 109 108 23
3 107 108 109
3 24 110 111
3 24 112 114
3 112 25 113
3 112 113 114
3 26 25 24
3 26 11 25
3 115 2 116
3 115 116 117
3 118 3 119
3 120 27 121
3 122 121 3
3 120 121 122
3 123 27 124
3 126 125 27
3 127 1 128
3 127 128 129
3 130 23 131
3 28 132 134
3 132 23 133
3 132 133 134
3 28 4 23
3 29 135 136
3 29 137 139
3 137 0 138
3 137 138 139
3 140 1 141
3 142 1 143
3 144 22 145
3 146 145 1
3 144 145 146
3 147 22 148
3 150 149 22
3 12 151 152
3 30 153 155
3 155 154 12
3 153 154 155
3 30 156 158
3 156 157 158
3 30 159 161
3 159 29 160
3 159 160 161
3 31 29 30
3 31 0 29
3 162 2 163
3 14 164 165
3 168 167 14
3 166 167 168
3 32 169 170
3 32 171 173
3 171 2 172
3 171 172 173
3 32 13 2
3 33 13 32
3 33 6 13
3 16 33 7
3 34 33 16
3 34 6 33
3 34 31 6
3 35 31 34
3 35 0 31
3 35 174 176
3 176 175 0
3 174 175 176
3 36 177 179
3 179 178 35
3 177 178 179
3 36 180 182
3 180 5 181
3 180 181 182
3 18 36 8
3 37 36 18
3 37 5 36
3 37 28 5
3 38 28 37
3 38 4 28
3 27 19 3
3 39 19 27
3 39 9 19
3 183 39 184
3 40 185 187
3 185 39 186
3 185 186 187
3 40 9 39
3 40 38 9
3 41 38 40
3 41 4 38
3 41 26 4
3 42 26 41
3 42 11 26
3 21 42 10
3 43 42 21
3 43 11 42
3 43 44 11
3 188 44 189
3 190 189 43
3 188 189 190
3 192 191 44
3 25 193 194
3 45 195 197
3 197 196 25
3 195 196 197
3 45 198 199
3 45 200 201
3 44 202 204
3 204 203 45
3 202 203 204
3 44 205 206
