ply
format ascii 1.0
element vertex 229
property float x
property float y
property float z
property uchar red
property uchar green
property uchar blue
element face 213
property list uchar int vertex_index
end_header
-41.7986 -31.33 13.8415 18 255 237
-57.1571 -43.8902 12.9258 255 38 0
-46.8072 -32.9655 18.7494 106 255 149
-52.0088 -40.869 19.3924 255 143 0
-48.0245 -38.4174 12.1969 24 255 231
-43.5628 -32.5779 16.5911 255 208 0
-46.0493 -36.6714 16.0332 255 204 0
-53.3613 -43.2983 16.4475 255 30 0
-49.089 -37.1454 18.7996 255 118 0
-49.3828 -40.165 15.8621 255 146 0
-52.3924 -41.2169 12.1679 229 255 26
-42.0623 -27.6996 16.923 57 255 198
-40.2135 -26.5918 14.3186 46 255 209
-45.3268 -28.1531 18.695 35 255 220
-42.4832 -32.062 15.2892 255 235 0
-43.6425 -34.157 14.9107 105 255 150
-42.9892 -33.3601 13.414 0 194 255
-55.0063 -43.8115 14.7146 128 0 0
-55.4944 -44.8192 16.9939 255 212 0
-57.2972 -45.2451 15.2655 255 230 0
-59.4981 -45.2791 13.4856 191 255 64
-59.6282 -43.6162 11.156 63 255 192
-49.8862 -35.035 19.7913 27 255 228
-47.858 -35.1247 18.7364 196 255 59
-46.6863 -37.8146 14.2014 158 255 97
-47.6208 -38.4797 15.8649 255 182 0
-48.5341 -39.4298 14.0316 255 97 0
-50.5648 -40.9431 14.0591 255 25 0
-50.1291 -39.8527 12.0744 175 255 80
-43.5295 -28.0098 17.9064 100 255 155
-39.8325 -25.8262 12.7102 0 132 255
-52.324 -39.0215 20.4631 104 255 151
-53.7181 -40.8989 21.0603 0 250 255
-45.0169 -32.8746 17.742 255 145 0
-46.1089 -35.0282 17.5777 255 164 0
-44.6904 -34.7123 16.3024 255 213 0
-45.049 -36.0662 14.5197 31 255 224
-52.3458 -42.3133 18.0347 255 135 0
-53.6555 -42.6282 19.9632 76 255 179
-54.2507 -43.9486 18.5874 218 255 37
-56.2245 -45.5737 19.2672 0 175 255
-51.0404 -37.0752 20.0486 119 255 136
-50.4794 -39.0512 19.0054 255 136 0
-47.4089 -37.023 17.4627 255 174 0
-48.8967 -38.883 17.4717 255 175 0
-50.5507 -40.636 17.6565 255 163 0
-51.3083 -41.7593 16.0578 255 94 0
-52.7397 -42.3905 14.2952 201 0 0
-54.7594 -42.549 12.4662 255 232 0
-41.5844 -29.7576 15.5792 255 222 0
-40.8718 -29.0824 14.156 119 255 136
-40.9535 -27.2229 15.7273 37 255 218
-45.9574 -30.6476 18.7602 126 255 129
-44.1522 -30.5412 17.8751 255 118 0
-42.6831 -30.2466 16.8193 255 188 0
-40.5389 -28.2414 12.5625 0 215 255
-41.6529 -30.8655 13.0519 0 0 128
-42.2661 -31.8338 12.836 0 0 128
-42.2661 -31.8338 12.836 0 0 159
-42.8614 -32.8488 12.6222 0 0 159
-42.3939 -32.3451 13.6278 0 0 190
-47.3326 -34.0451 18.7429 0 0 208
-48.37 -34.0017 19.1853 0 0 171
-47.8447 -32.9221 19.1918 0 0 171
-49.0166 -38.4539 11.1698 0 0 181
-50.0689 -39.1716 11.1086 0 0 181
-49.0768 -39.1351 12.1356 0 0 222
-44.7411 -35.633 13.7302 0 0 158
-44.3457 -35.1116 14.7152 0 0 189
-44.0378 -34.6785 13.9257 0 0 158
-45.5832 -36.4713 13.5133 0 0 129
-44.7411 -35.633 13.7302 0 0 129
-56.9359 -45.9646 18.4531 0 0 176
-55.8594 -45.1964 18.1305 0 0 215
-56.5708 -45.5873 17.3165 0 0 176
-57.2196 -46.3942 19.6398 0 0 138
-56.9359 -45.9646 18.4531 0 0 138
-53.571 -41.1271 11.2281 0 0 196
-54.7544 -41.7931 11.3772 0 0 196
-53.5759 -41.8829 12.317 0 0 245
-46.3686 -28.1477 19.0084 0 0 139
-46.1526 -26.8411 18.8617 0 0 139
-45.6421 -29.4003 18.7276 0 0 217
-46.6839 -29.3949 19.0411 0 0 177
-46.3686 -28.1477 19.0084 0 0 177
-40.1954 -26.5433 11.7638 0 0 131
-39.8077 -25.3865 11.8171 0 0 131
-54.43 -42.6807 20.8961 0 0 131
-54.5244 -43.493 20.3246 0 0 131
-43.7112 -34.28 13.1774 0 0 156
-44.0378 -34.6785 13.9257 0 0 156
-43.3158 -33.7586 14.1623 0 0 185
-43.5992 -33.7223 12.367 0 0 130
-43.7112 -34.28 13.1774 0 0 130
-43.5992 -33.7223 12.367 0 0 129
-42.8614 -32.8488 12.6222 0 0 129
-57.4722 -45.8003 16.4523 0 0 185
-56.5708 -45.5873 17.3165 0 0 185
-56.3958 -45.0321 16.1297 0 0 228
-58.4145 -45.9848 15.5752 0 0 143
-57.4722 -45.8003 16.4523 0 0 143
-59.515 -46.0018 14.6852 0 0 196
-58.4145 -45.9848 15.5752 0 0 196
-58.3976 -45.2621 14.3755 0 0 245
-60.5915 -46.0124 13.7842 0 0 146
-59.515 -46.0018 14.6852 0 0 146
-60.6905 -45.1459 12.6025 0 0 150
-60.5915 -46.0124 13.7842 0 0 150
-60.7556 -44.3144 11.4377 0 0 200
-60.6905 -45.1459 12.6025 0 0 200
-59.5631 -44.4477 12.3208 0 0 251
-60.9099 -43.3593 10.3034 0 0 152
-60.7556 -44.3144 11.4377 0 0 152
-49.3842 -33.9568 19.7127 0 0 138
-50.5328 -33.8429 20.1106 0 0 138
-48.8721 -35.0798 19.2638 0 0 208
-49.3842 -33.9568 19.7127 0 0 172
-48.37 -34.0017 19.1853 0 0 172
-51.2256 -39.8163 11.0902 0 0 189
-52.3573 -40.4984 11.137 0 0 189
-51.2607 -40.5348 12.1211 0 0 234
-51.1654 -39.1352 10.1244 0 0 141
-51.2256 -39.8163 11.0902 0 0 184
-50.0689 -39.1716 11.1086 0 0 184
-41.8821 -26.3112 16.8927 0 0 132
-42.609 -26.483 17.3543 0 0 132
-45.1268 -26.81 18.5953 0 0 139
-46.1526 -26.8411 18.8617 0 0 139
-44.2281 -26.7384 18.201 0 0 174
-44.4282 -28.0814 18.3007 0 0 211
-45.1268 -26.81 18.5953 0 0 174
-43.3426 -26.6381 17.8461 0 0 135
-44.2281 -26.7384 18.201 0 0 135
-42.609 -26.483 17.3543 0 0 167
-42.7959 -27.8547 17.4147 0 0 201
-43.3426 -26.6381 17.8461 0 0 167
-39.8252 -24.8321 13.5147 0 0 164
-40.023 -26.209 13.5144 0 0 197
-40.0157 -25.2149 14.3189 0 0 164
-39.607 -24.4771 12.7119 0 0 131
-39.8252 -24.8321 13.5147 0 0 131
-39.8077 -25.3865 11.8171 0 0 134
-39.607 -24.4771 12.7119 0 0 134
-53.3491 -38.9278 21.1595 0 0 135
-52.7638 -37.9377 20.8454 0 0 135
-54.0461 -39.8665 21.4581 0 0 170
-53.3491 -38.9278 21.1595 0 0 170
-53.0211 -39.9602 20.7617 0 0 207
-54.672 -40.8306 21.8628 0 0 135
-54.0461 -39.8665 21.4581 0 0 135
-46.4018 -37.3456 13.3541 0 0 162
-45.8676 -36.9404 14.3605 0 0 195
-45.5832 -36.4713 13.5133 0 0 162
-47.0709 -37.647 12.3519 0 0 164
-47.3554 -38.116 13.1991 0 0 198
-46.4018 -37.3456 13.3541 0 0 164
-47.9443 -37.7748 11.2949 0 0 136
-47.0709 -37.647 12.3519 0 0 136
-54.822 -44.1533 19.6367 0 0 164
-54.5244 -43.493 20.3246 0 0 164
-53.9531 -43.2884 19.2753 0 0 197
-55.8089 -44.9658 19.9766 0 0 166
-54.822 -44.1533 19.6367 0 0 166
-55.2376 -44.7611 18.9273 0 0 201
-56.7066 -45.8284 20.3863 0 0 133
-55.8089 -44.9658 19.9766 0 0 133
-56.7066 -45.8284 20.3863 0 0 134
-57.2196 -46.3942 19.6398 0 0 134
-51.009 -34.9173 20.2796 0 0 138
-50.5328 -33.8429 20.1106 0 0 138
-51.5861 -35.9374 20.4083 0 0 175
-51.009 -34.9173 20.2796 0 0 175
-50.4633 -36.0551 19.9199 0 0 213
-52.122 -36.9646 20.6381 0 0 137
-51.5861 -35.9374 20.4083 0 0 137
-51.6822 -38.0483 20.2558 0 0 210
-52.7638 -37.9377 20.8454 0 0 172
-52.122 -36.9646 20.6381 0 0 172
-55.9876 -42.4258 11.5617 0 0 201
-57.1865 -43.0964 11.7916 0 0 201
-55.9582 -43.2196 12.696 0 0 253
-55.9876 -42.4258 11.5617 0 0 148
-54.7544 -41.7931 11.3772 0 0 148
-53.571 -41.1271 11.2281 0 0 145
-52.3573 -40.4984 11.137 0 0 145
-49.0166 -38.4539 11.1698 0 0 137
-47.9443 -37.7748 11.2949 0 0 137
-41.3278 -26.0728 16.2948 0 0 162
-41.5079 -27.4612 16.3252 0 0 194
-41.8821 -26.3112 16.8927 0 0 162
-40.7706 -25.8324 15.7172 0 0 130
-41.3278 -26.0728 16.2948 0 0 130
-40.4006 -25.5169 15.0128 0 0 161
-40.5835 -26.9073 15.0229 0 0 193
-40.7706 -25.8324 15.7172 0 0 161
-40.0157 -25.2149 14.3189 0 0 129
-40.4006 -25.5169 15.0128 0 0 129
-47.4286 -31.7762 19.1261 0 0 136
-47.8447 -32.9221 19.1918 0 0 136
-47.0037 -30.6173 19.1316 0 0 138
-46.6839 -29.3949 19.0411 0 0 138
-46.3823 -31.8066 18.7548 0 0 212
-47.4286 -31.7762 19.1261 0 0 174
-47.0037 -30.6173 19.1316 0 0 174
-41.1895 -29.7417 13.2092 0 0 158
-41.6529 -30.8655 13.0519 0 0 158
-41.3352 -30.2062 13.9988 0 0 188
-41.023 -29.3212 12.4124 0 0 157
-41.1895 -29.7417 13.2092 0 0 157
-40.7053 -28.6619 13.3592 0 0 186
-41.0616 -28.7724 11.5658 0 0 130
-41.023 -29.3212 12.4124 0 0 130
-40.5486 -27.7509 11.69 0 0 165
-40.1857 -27.0338 12.6363 0 0 198
-40.1954 -26.5433 11.7638 0 0 165
-41.0616 -28.7724 11.5658 0 0 129
-40.5486 -27.7509 11.69 0 0 129
-54.4613 -41.816 21.4446 0 0 164
-53.6868 -41.7635 20.5117 0 0 198
-54.43 -42.6807 20.8961 0 0 164
-54.672 -40.8306 21.8628 0 0 133
-54.4613 -41.816 21.4446 0 0 133
-58.422 -42.9594 10.9067 0 0 201
-58.3927 -43.7532 12.0409 0 0 253
-57.1865 -43.0964 11.7916 0 0 201
-59.7667 -42.687 10.0419 0 0 153
-58.422 -42.9594 10.9067 0 0 153
-60.9099 -43.3593 10.3034 0 0 151
-59.7667 -42.687 10.0419 0 0 151
3 0 56 57
3 0 16 14
3 0 58 60
3 60 59 16
3 58 59 60
3 1 19 17
3 1 20 19
3 1 21 20
3 2 61 63
3 61 23 62
3 61 62 63
3 4 26 24
3 4 28 26
3 4 64 66
3 66 65 28
3 64 65 66
3 3 32 31
3 5 35 33
3 67 36 68
3 69 68 15
3 67 68 69
3 71 70 36
3 7 39 37
3 72 40 73
3 74 73 18
3 72 73 74
3 76 75 40
3 8 41 22
3 8 42 41
3 6 43 34
3 9 44 25
3 9 45 44
3 9 46 45
3 10 47 27
3 10 48 47
3 10 77 79
3 79 78 48
3 77 78 79
3 11 51 49
3 13 80 81
3 13 82 84
3 82 52 83
3 82 83 84
3 13 53 52
3 11 54 29
3 11 49 54
3 12 55 50
3 86 85 30
3 88 87 38
3 14 15 5
3 16 15 14
3 16 89 91
3 91 90 15
3 89 90 91
3 16 92 93
3 95 94 16
3 17 18 7
3 19 18 17
3 19 96 98
3 98 97 18
3 96 97 98
3 19 99 100
3 20 101 103
3 103 102 19
3 101 102 103
3 20 104 105
3 20 106 107
3 21 108 110
3 110 109 20
3 108 109 110
3 21 111 112
3 113 22 114
3 23 115 117
3 115 22 116
3 115 116 117
3 23 8 22
3 24 25 6
3 26 25 24
3 26 9 25
3 26 27 9
3 28 27 26
3 28 10 27
3 28 118 120
3 120 119 10
3 118 119 120
3 123 122 28
3 121 122 123
3 125 124 11
3 126 13 127
3 128 29 129
3 130 129 13
3 128 129 130
3 131 29 132
3 133 11 134
3 135 134 29
3 133 134 135
3 136 30 137
3 138 137 12
3 136 137 138
3 139 30 140
3 142 141 30
3 31 143 144
3 32 145 147
3 147 146 31
3 145 146 147
3 32 148 149
3 33 34 2
3 35 34 33
3 35 6 34
3 15 35 5
3 36 35 15
3 36 6 35
3 36 24 6
3 150 24 151
3 152 151 36
3 150 151 152
3 153 4 154
3 155 154 24
3 153 154 155
3 157 156 4
3 37 38 3
3 39 38 37
3 39 158 160
3 160 159 38
3 158 159 160
3 18 39 7
3 40 39 18
3 40 161 163
3 163 162 39
3 161 162 163
3 40 164 165
3 167 166 40
3 22 168 169
3 41 170 172
3 172 171 22
3 170 171 172
3 41 173 174
3 41 175 177
3 175 31 176
3 175 176 177
3 42 31 41
3 42 3 31
3 34 23 2
3 43 23 34
3 43 8 23
3 25 43 6
3 44 43 25
3 44 8 43
3 44 42 8
3 45 42 44
3 45 3 42
3 45 37 3
3 46 37 45
3 46 7 37
3 27 46 9
3 47 46 27
3 47 7 46
3 47 17 7
3 48 17 47
3 48 1 17
3 48 178 180
3 180 179 1
3 178 179 180
3 182 181 48
3 184 183 10
3 186 185 4
3 49 50 0
3 51 50 49
3 51 12 50
3 187 51 188
3 189 188 11
3 187 188 189
3 190 51 191
3 192 12 193
3 194 193 51
3 192 193 194
3 196 195 12
3 197 2 198
3 52 199 200
3 52 201 203
3 201 2 202
3 201 202 203
3 52 33 2
3 53 33 52
3 53 5 33
3 29 53 13
3 54 53 29
3 54 5 53
3 54 14 5
3 49 14 54
3 49 0 14
3 50 204 206
3 206 205 0
3 204 205 206
3 55 207 209
3 209 208 50
3 207 208 209
3 55 210 211
3 30 55 12
3 212 55 213
3 214 213 30
3 212 213 214
3 216 215 55
3 38 32 3
3 217 32 218
3 219 218 38
3 217 218 219
3 221 220 32
3 222 21 223
3 224 223 1
3 222 223 224
3 225 21 226
3 228 227 21
