ply
format ascii 1.0
element vertex 271
property float x
property float y
property float z
property uchar red
property uchar green
property uchar blue
element face 255
property list uchar int vertex_index
end_header
-38.1109 56.6833 30.2599 217 0 0
-41.6082 59.1126 21.0233 255 20 0
-31.3567 52.7638 38.3962 146 0 0
-40.3361 58.2421 25.7808 245 255 10
-29.061 44.9494 46.3738 99 255 156
-32.4397 47.7875 43.1287 158 0 0
-27.7904 50.5321 41.8259 90 255 165
-33.7086 59.5949 29.3974 128 0 0
-36.5652 61.6673 25.0992 201 0 0
-43.7268 54.2052 21.1025 165 255 90
-42.505 59.1353 15.9781 217 255 38
-38.5728 63.2708 20.5281 255 241 0
-39.1961 51.7635 35.0731 59 255 196
-36.8695 45.047 43.954 73 255 182
-35.9626 50.0071 39.3315 255 169 0
-34.9611 54.7865 34.4972 145 0 0
-30.299 57.5462 33.4761 238 255 17
-40.0094 55.0112 30.4974 42 255 213
-39.3555 57.528 28.0511 255 233 0
-28.3928 47.7896 44.0901 223 255 32
-31.375 60.9521 28.8885 113 255 142
-32.9431 62.0389 26.7768 241 255 14
-42.3553 56.5814 23.5419 240 255 15
-43.3774 54.2094 23.527 25 255 230
-42.7655 56.733 21.107 255 10 0
-43.1516 56.687 18.6184 204 0 0
-42.0503 59.2282 18.5316 219 0 0
-35.624 64.1437 22.4104 196 255 59
-37.6774 62.5586 22.8557 243 0 0
-36.6828 65.015 20.1263 57 255 198
-35.2574 43.8602 45.9561 81 255 174
-31.8849 50.3129 40.7793 153 0 0
-34.204 48.9687 41.3007 164 0 0
-33.6952 51.4024 38.9267 151 0 0
-35.4827 52.4046 36.9474 160 0 0
-33.1809 53.7906 36.5001 138 0 0
-32.6388 56.1627 34.0119 128 0 0
-30.8364 55.1654 35.9626 139 0 0
-41.8096 56.2302 25.9169 11 255 244
-41.0678 58.7804 23.4403 255 52 0
-31.3747 43.6785 47.1407 98 255 157
-33.0287 45.1688 45.465 255 162 0
-30.7163 46.4452 44.8117 154 0 0
-30.1057 49.1121 42.4951 159 0 0
-29.5461 51.6848 40.1697 255 159 0
-29.0269 54.1777 37.8111 226 255 29
-45.0715 51.2989 18.6429 0 81 255
-35.9828 58.1949 29.8776 162 0 0
-37.3962 59.1716 27.7203 207 0 0
-35.2326 60.6566 27.2753 156 0 0
-34.3723 63.128 24.621 222 255 33
-44.1391 54.029 18.6482 73 255 182
-43.6286 56.4606 16.092 96 255 159
-38.5736 60.0515 25.5016 255 0 0
-39.5041 60.7767 23.2096 255 29 0
-40.2167 61.3019 20.8323 255 24 0
-39.2919 63.7636 18.1051 45 255 210
-40.7787 61.6022 18.3656 255 225 0
-41.2852 61.6737 15.8168 80 255 175
-38.7086 54.2149 32.7104 255 205 0
-34.7229 46.4622 43.639 176 0 0
-36.4204 47.5643 41.6623 205 255 50
-37.6511 50.9311 37.2452 200 255 55
-37.1785 53.3405 34.8665 187 0 0
-36.6278 55.7566 32.411 172 0 0
-34.3763 57.1781 31.9775 133 0 0
-32.0444 58.5442 31.4677 255 132 0
-28.5268 56.6131 35.4054 97 255 158
-30.9936 62.1712 27.5962 0 0 137
-30.2212 61.6457 28.6587 0 0 137
-35.6311 65.7907 19.898 0 0 174
-36.1534 64.5794 21.2684 0 0 214
-35.1017 65.3551 21.04 0 0 174
-34.452 43.1526 46.8779 0 0 134
-35.5299 42.503 47.1046 0 0 134
-41.0729 57.2361 25.8489 0 0 200
-41.4262 55.9631 27.0753 0 0 164
-40.6894 56.969 27.0073 0 0 164
-27.5222 51.8539 40.6892 0 0 177
-28.4001 52.4303 39.8611 0 0 177
-28.6683 51.1084 40.9978 0 0 220
-45.4456 51.105 17.4517 0 0 135
-44.8944 52.5016 17.4117 0 0 135
-33.2212 63.813 24.3803 0 0 180
-33.6577 62.5834 25.6989 0 0 223
-32.5066 63.2684 25.4582 0 0 180
-33.8869 64.3554 23.2771 0 0 136
-33.2212 63.813 24.3803 0 0 136
-43.9477 52.9524 22.2601 0 0 166
-43.773 52.9545 23.4723 0 0 166
-43.5521 54.2073 22.3147 0 0 203
-44.1362 52.8881 21.0679 0 0 131
-43.9477 52.9524 22.2601 0 0 131
-43.933 54.1171 19.8754 0 0 210
-44.3424 52.7999 19.8408 0 0 171
-44.1362 52.8881 21.0679 0 0 171
-42.7912 58.9947 14.6827 0 0 181
-43.353 57.6573 14.7396 0 0 181
-43.0668 57.798 16.035 0 0 225
-39.5992 63.8914 16.8462 0 0 132
-38.805 64.9464 16.692 0 0 132
-40.3427 62.8107 16.9764 0 0 171
-40.0353 62.6829 18.2353 0 0 211
-39.5992 63.8914 16.8462 0 0 171
-40.5959 62.8465 15.702 0 0 174
-41.032 61.6379 17.0912 0 0 215
-40.3427 62.8107 16.9764 0 0 174
-39.8626 52.1364 33.9577 0 0 130
-40.0573 50.8895 35.0839 0 0 130
-38.9524 52.9892 33.8918 0 0 208
-39.6189 53.3621 32.7763 0 0 169
-39.8626 52.1364 33.9577 0 0 169
-37.8256 44.2582 43.991 0 0 133
-37.0925 43.7384 45.0836 0 0 133
-37.6532 45.5365 42.8844 0 0 132
-37.8256 44.2582 43.991 0 0 132
-37.0137 49.2551 39.4443 0 0 175
-37.2425 48.0337 40.6097 0 0 175
-36.1915 48.7857 40.4969 0 0 216
-36.8069 50.4691 38.2883 0 0 216
-37.8579 49.7171 38.4011 0 0 175
-37.0137 49.2551 39.4443 0 0 175
-30.0084 58.739 32.2149 0 0 181
-30.8811 59.238 31.2107 0 0 181
-31.1717 58.0452 32.4719 0 0 224
-27.6484 56.1714 36.3248 0 0 177
-28.7769 55.3954 36.6082 0 0 219
-27.8984 54.9537 37.5276 0 0 177
-40.5261 55.3536 29.3656 0 0 129
-40.8062 54.0829 30.5334 0 0 129
-40.1991 56.612 28.1424 0 0 167
-40.5261 55.3536 29.3656 0 0 167
-39.6824 56.2696 29.2743 0 0 204
-39.8458 57.885 26.9159 0 0 203
-40.6894 56.969 27.0073 0 0 166
-40.1991 56.612 28.1424 0 0 166
-27.5792 47.0757 44.8504 0 0 177
-28.7269 46.3695 45.232 0 0 220
-27.9133 45.6555 45.9922 0 0 177
-27.2539 48.5443 43.745 0 0 135
-27.5792 47.0757 44.8504 0 0 135
-26.9526 49.9155 42.6129 0 0 176
-28.0916 49.1608 42.958 0 0 218
-27.2539 48.5443 43.745 0 0 176
-26.6684 51.334 41.5168 0 0 135
-26.9526 49.9155 42.6129 0 0 135
-31.7776 62.7146 26.5404 0 0 181
-32.1591 61.4955 27.8326 0 0 225
-30.9936 62.1712 27.5962 0 0 181
-32.5066 63.2684 25.4582 0 0 137
-31.7776 62.7146 26.5404 0 0 137
-42.8664 55.3954 23.5344 0 0 200
-43.1752 54.1196 24.7201 0 0 165
-42.6642 55.3056 24.7276 0 0 165
-39.3915 50.5378 36.2148 0 0 130
-40.0573 50.8895 35.0839 0 0 130
-36.2865 43.145 46.0846 0 0 134
-35.5299 42.503 47.1046 0 0 134
-36.0634 44.4536 44.955 0 0 214
-37.0925 43.7384 45.0836 0 0 173
-36.2865 43.145 46.0846 0 0 173
-42.1082 54.9507 27.0885 0 0 128
-41.4262 55.9631 27.0753 0 0 128
-42.3913 55.13 25.9151 0 0 128
-42.1082 54.9507 27.0885 0 0 128
-42.0825 56.4058 24.7294 0 0 198
-42.6642 55.3056 24.7276 0 0 163
-42.3913 55.13 25.9151 0 0 163
-32.2017 44.4237 46.3028 0 0 220
-33.3376 43.8069 46.6324 0 0 177
-32.5106 43.0618 47.4702 0 0 177
-28.1405 53.6767 38.6818 0 0 177
-29.2865 52.9313 38.9904 0 0 219
-28.4001 52.4303 39.8611 0 0 177
-27.8984 54.9537 37.5276 0 0 135
-28.1405 53.6767 38.6818 0 0 135
-27.5222 51.8539 40.6892 0 0 134
-26.6684 51.334 41.5168 0 0 134
-45.5364 49.9152 18.6298 0 0 132
-45.1782 50.0817 19.7816 0 0 132
-45.5364 49.9152 18.6298 0 0 134
-45.4456 51.105 17.4517 0 0 134
-34.5127 64.8633 22.1718 0 0 177
-34.9982 63.6358 23.5157 0 0 219
-33.8869 64.3554 23.2771 0 0 177
-35.1017 65.3551 21.04 0 0 135
-34.5127 64.8633 22.1718 0 0 135
-31.719 42.2455 48.3131 0 0 136
-32.5106 43.0618 47.4702 0 0 136
-30.5769 42.8492 47.9169 0 0 136
-31.719 42.2455 48.3131 0 0 136
-29.42 43.4846 47.5335 0 0 180
-30.2179 44.3139 46.7572 0 0 224
-30.5769 42.8492 47.9169 0 0 180
-28.2732 44.1451 47.1203 0 0 136
-29.42 43.4846 47.5335 0 0 136
-27.9133 45.6555 45.9922 0 0 136
-28.2732 44.1451 47.1203 0 0 136
-43.6048 52.9377 24.6574 0 0 128
-43.1752 54.1196 24.7201 0 0 128
-43.6048 52.9377 24.6574 0 0 129
-43.773 52.9545 23.4723 0 0 129
-44.8086 51.4349 19.8381 0 0 132
-45.1782 50.0817 19.7816 0 0 132
-44.6053 52.664 18.6455 0 0 213
-44.8086 51.4349 19.8381 0 0 173
-44.3424 52.7999 19.8408 0 0 173
-44.4282 53.8666 17.4144 0 0 176
-44.8944 52.5016 17.4117 0 0 176
-44.6053 52.664 18.6455 0 0 217
-44.173 55.0824 16.1362 0 0 178
-44.4282 53.8666 17.4144 0 0 178
-43.8839 55.2448 17.3701 0 0 221
-43.9585 56.2699 14.8227 0 0 137
-44.173 55.0824 16.1362 0 0 137
-43.9585 56.2699 14.8227 0 0 138
-43.353 57.6573 14.7396 0 0 138
-36.1422 66.1993 18.728 0 0 133
-35.6311 65.7907 19.898 0 0 133
-37.1239 65.3513 18.9389 0 0 172
-36.1422 66.1993 18.728 0 0 172
-36.5833 66.5356 17.5406 0 0 132
-38.0689 64.4791 19.1398 0 0 171
-37.6278 64.1429 20.3272 0 0 210
-37.1239 65.3513 18.9389 0 0 171
-38.4285 64.7255 17.9284 0 0 132
-38.805 64.9464 16.692 0 0 132
-38.9323 63.5172 19.3166 0 0 208
-38.0689 64.4791 19.1398 0 0 169
-38.4285 64.7255 17.9284 0 0 169
-40.8962 62.8563 14.4027 0 0 134
-40.5959 62.8465 15.702 0 0 134
-41.5623 61.601 14.5117 0 0 136
-40.8962 62.8563 14.4027 0 0 136
-42.1722 60.3318 14.5923 0 0 179
-41.8951 60.4045 15.8975 0 0 222
-41.5623 61.601 14.5117 0 0 179
-42.7912 58.9947 14.6827 0 0 138
-42.1722 60.3318 14.5923 0 0 138
-40.2692 53.7603 31.6698 0 0 129
-40.8062 54.0829 30.5334 0 0 129
-39.359 54.613 31.6039 0 0 207
-40.2692 53.7603 31.6698 0 0 169
-39.6189 53.3621 32.7763 0 0 169
-34.143 44.5145 45.7105 0 0 220
-34.452 43.1526 46.8779 0 0 177
-33.3376 43.8069 46.6324 0 0 177
-37.4286 46.7951 41.7386 0 0 174
-37.6532 45.5365 42.8844 0 0 174
-36.6449 46.3057 42.8082 0 0 214
-37.4286 46.7951 41.7386 0 0 133
-37.2425 48.0337 40.6097 0 0 133
-38.619 50.1216 37.3009 0 0 132
-37.8579 49.7171 38.4011 0 0 132
-38.4236 51.3473 36.1591 0 0 212
-39.3915 50.5378 36.2148 0 0 172
-38.619 50.1216 37.3009 0 0 172
-30.5464 60.4419 29.9211 0 0 181
-31.7097 59.7482 30.1781 0 0 225
-30.8811 59.238 31.2107 0 0 181
-30.2212 61.6457 28.6587 0 0 136
-30.5464 60.4419 29.9211 0 0 136
-27.4212 57.4121 35.1488 0 0 135
-27.6484 56.1714 36.3248 0 0 135
-28.273 57.8148 34.1825 0 0 135
-27.4212 57.4121 35.1488 0 0 135
-29.159 58.2814 33.2178 0 0 179
-29.4129 57.0796 34.4407 0 0 222
-28.273 57.8148 34.1825 0 0 179
-30.0084 58.739 32.2149 0 0 136
-29.159 58.2814 33.2178 0 0 136
3 0 18 17
3 69 68 20
3 1 24 22
3 1 26 24
3 70 29 71
3 72 71 27
3 70 71 72
3 73 30 74
3 2 33 31
3 2 35 33
3 2 37 35
3 3 75 77
3 75 38 76
3 75 76 77
3 3 39 38
3 4 42 40
3 6 43 19
3 6 44 43
3 6 78 80
3 80 79 44
3 78 79 80
3 82 81 46
3 7 49 47
3 83 50 84
3 85 84 21
3 83 84 85
3 87 86 50
3 9 88 90
3 90 89 23
3 88 89 90
3 9 91 92
3 9 93 95
3 93 51 94
3 93 94 95
3 10 52 25
3 10 96 98
3 98 97 52
3 96 97 98
3 8 53 48
3 11 54 28
3 11 55 54
3 99 56 100
3 101 57 102
3 103 102 56
3 101 102 103
3 104 58 105
3 106 105 57
3 104 105 106
3 12 107 108
3 12 109 111
3 109 59 110
3 109 110 111
3 13 112 113
3 13 114 115
3 5 60 41
3 14 61 32
3 14 116 118
3 118 117 61
3 116 117 118
3 14 119 121
3 119 62 120
3 119 120 121
3 15 63 34
3 15 64 63
3 15 65 64
3 16 66 36
3 16 122 124
3 124 123 66
3 122 123 124
3 125 67 126
3 127 126 45
3 125 126 127
3 17 128 129
3 18 130 132
3 132 131 17
3 130 131 132
3 18 133 135
3 133 3 134
3 133 134 135
3 136 19 137
3 138 137 4
3 136 137 138
3 139 19 140
3 141 6 142
3 143 142 19
3 141 142 143
3 145 144 6
3 20 21 7
3 146 21 147
3 148 147 20
3 146 147 148
3 150 149 21
3 22 151 153
3 151 23 152
3 151 152 153
3 24 23 22
3 24 9 23
3 24 25 9
3 26 25 24
3 26 10 25
3 27 28 8
3 29 28 27
3 29 11 28
3 154 12 155
3 30 156 157
3 30 158 160
3 158 13 159
3 158 159 160
3 31 32 5
3 33 32 31
3 33 14 32
3 33 34 14
3 35 34 33
3 35 15 34
3 35 36 15
3 37 36 35
3 37 16 36
3 38 161 162
3 38 163 164
3 38 165 167
3 165 22 166
3 165 166 167
3 39 22 38
3 39 1 22
3 40 168 170
3 168 41 169
3 168 169 170
3 42 41 40
3 42 5 41
3 19 42 4
3 43 42 19
3 43 5 42
3 43 31 5
3 44 31 43
3 44 2 31
3 44 45 2
3 171 45 172
3 173 172 44
3 171 172 173
3 175 174 45
3 177 176 6
3 46 178 179
3 181 180 46
3 47 48 0
3 49 48 47
3 49 8 48
3 21 49 7
3 50 49 21
3 50 8 49
3 50 27 8
3 182 27 183
3 184 183 50
3 182 183 184
3 186 185 27
3 187 40 188
3 189 40 190
3 191 4 192
3 193 192 40
3 191 192 193
3 194 4 195
3 197 196 4
3 23 198 199
3 201 200 23
3 202 46 203
3 51 204 206
3 204 46 205
3 204 205 206
3 51 207 209
3 209 208 46
3 207 208 209
3 25 51 9
3 52 51 25
3 52 210 212
3 212 211 51
3 210 211 212
3 52 213 214
3 216 215 52
3 48 18 0
3 53 18 48
3 53 3 18
3 28 53 8
3 54 53 28
3 54 3 53
3 54 39 3
3 55 39 54
3 55 1 39
3 217 29 218
3 219 29 220
3 219 220 221
3 222 11 223
3 224 223 29
3 222 223 224
3 56 225 226
3 56 227 229
3 227 11 228
3 227 228 229
3 56 55 11
3 57 55 56
3 57 1 55
3 57 26 1
3 58 26 57
3 58 10 26
3 230 58 231
3 232 58 233
3 234 10 235
3 236 235 58
3 234 235 236
3 238 237 10
3 239 17 240
3 59 241 243
3 241 17 242
3 241 242 243
3 59 0 17
3 41 244 246
3 244 30 245
3 244 245 246
3 60 30 41
3 60 13 30
3 32 60 5
3 61 60 32
3 61 13 60
3 61 247 249
3 249 248 13
3 247 248 249
3 251 250 61
3 62 252 253
3 62 254 256
3 254 12 255
3 254 255 256
3 34 62 14
3 63 62 34
3 63 12 62
3 63 59 12
3 64 59 63
3 64 0 59
3 64 47 0
3 65 47 64
3 65 7 47
3 36 65 15
3 66 65 36
3 66 7 65
3 66 20 7
3 257 20 258
3 259 258 66
3 257 258 259
3 261 260 20
3 45 37 2
3 67 37 45
3 67 16 37
3 262 67 263
3 264 67 265
3 266 16 267
3 268 267 67
3 266 267 268
3 270 269 16
