ply
format ascii 1.0
element vertex 262
property float x
property float y
property float z
property uchar red
property uchar green
property uchar blue
element face 236
property list uchar int vertex_index
end_header
-43.9882 -62.8959 47.4346 181 0 0
-35.1137 -75.1673 49.2913 185 255 70
-40.3191 -63.7527 47.329 255 196 0
-39.63 -69.0039 47.7952 151 0 0
-43.4641 -68.1455 47.7074 140 0 0
-47.6287 -61.9753 48.2939 209 255 46
-47.221 -67.1294 48.1617 204 255 51
-36.0284 -69.8223 48.654 199 255 56
-38.7401 -74.4126 48.739 128 0 0
-54.8559 -55.4477 50.8742 21 255 234
-44.357 -57.7162 47.71 201 255 54
-47.9789 -56.8648 48.6871 255 181 0
-51.5361 -56.0683 49.9577 255 35 0
-42.1408 -63.3253 47.2644 199 0 0
-41.8685 -65.9407 47.3781 166 0 0
-43.7583 -65.5108 47.4899 160 0 0
-36.4714 -67.2131 48.3945 69 255 186
-41.1384 -71.263 48.0972 255 123 0
-39.2111 -71.6913 48.2457 128 0 0
-40.6662 -73.965 48.5968 255 252 0
-40.1228 -76.6832 49.0559 119 255 136
-46.9006 -69.7075 48.2656 80 255 175
-53.7435 -53.4562 50.514 9 255 246
-46.166 -57.2844 48.1259 212 255 43
-50.0953 -53.9884 49.4543 194 255 61
-51.9384 -53.6888 50.0373 156 255 99
-53.2381 -55.7184 50.5049 255 131 0
-33.9288 -72.8549 49.6023 165 255 90
-32.4209 -73.2267 50.3724 0 181 255
-33.4679 -75.4813 49.7261 42 255 213
-38.5602 -64.1926 47.6607 65 255 190
-38.1869 -66.7772 47.8077 255 189 0
-39.9983 -66.3577 47.4744 187 0 0
-41.5375 -68.5866 47.6664 135 0 0
-43.0885 -70.7985 48.0696 251 255 4
-45.8271 -62.45 47.7954 181 0 0
-45.6303 -65.0521 47.7709 175 0 0
-47.4521 -64.5494 48.1748 207 255 48
-35.5755 -72.4796 48.9883 255 189 0
-37.7814 -69.4118 48.1193 183 0 0
-37.3453 -72.094 48.5377 164 0 0
-36.8788 -74.8124 48.9651 255 159 0
-38.2195 -77.1539 49.1542 114 255 141
-45.3705 -67.6652 47.8853 169 0 0
-45.0218 -70.2849 48.1357 230 255 25
-55.7593 -57.2116 50.9674 0 47 255
-40.5986 -61.1831 47.3631 62 255 193
-42.3691 -60.7361 47.3177 255 198 0
-42.5756 -58.1651 47.5004 67 255 188
-44.1775 -60.299 47.5227 199 0 0
-45.9931 -59.8608 47.93 186 0 0
-47.7902 -59.4126 48.4818 255 179 0
-49.548 -58.9495 49.1127 187 255 68
-48.238 -54.3357 48.8569 90 255 165
-49.7755 -56.457 49.3236 223 0 0
-51.2486 -58.4735 49.7525 145 255 110
-52.8718 -57.997 50.3274 82 255 173
-54.389 -57.5517 50.7602 2 255 253
-36.6857 -65.9359 48.3362 0 0 150
-35.9203 -66.1883 48.7885 0 0 150
-41.6436 -73.7149 48.5575 0 0 201
-40.9023 -72.614 48.347 0 0 246
-41.8797 -72.3639 48.3077 0 0 201
-41.3635 -75.0511 48.7775 0 0 156
-41.6436 -73.7149 48.5575 0 0 156
-54.0707 -52.3265 50.4249 0 0 151
-53.1123 -52.3942 50.2374 0 0 151
-52.2097 -52.5105 49.9991 0 0 153
-51.2402 -52.6183 49.7518 0 0 153
-53.1123 -52.3942 50.2374 0 0 187
-52.841 -53.5725 50.2756 0 0 224
-52.2097 -52.5105 49.9991 0 0 187
-35.2145 -70.0338 49.0281 0 0 151
-35.4557 -68.7499 48.9455 0 0 151
-35.8019 -71.1509 48.8211 0 0 230
-34.9881 -71.3625 49.1952 0 0 191
-35.2145 -70.0338 49.0281 0 0 191
-39.8215 -78.0431 49.1991 0 0 155
-40.7713 -77.7446 49.1623 0 0 155
-45.7431 -71.2793 48.2995 0 0 192
-45.9612 -69.9962 48.2007 0 0 232
-46.6825 -70.9906 48.3644 0 0 192
-44.794 -71.5947 48.3083 0 0 154
-45.7431 -71.2793 48.2995 0 0 154
-55.6151 -55.3856 50.9207 0 0 161
-56.0668 -56.2675 50.9673 0 0 161
-55.3076 -56.3296 50.9208 0 0 185
-40.7239 -59.9106 47.4554 0 0 149
-39.9035 -60.1632 47.6256 0 0 149
-41.6092 -59.6871 47.4326 0 0 189
-41.4838 -60.9596 47.3404 0 0 227
-40.7239 -59.9106 47.4554 0 0 189
-43.4663 -57.9407 47.6052 0 0 229
-42.684 -56.8846 47.6302 0 0 191
-43.5748 -56.6602 47.7349 0 0 191
-48.4229 -53.0836 48.9018 0 0 154
-47.4701 -53.2565 48.6726 0 0 154
-31.7368 -73.4147 50.8258 0 0 148
-32.1868 -74.4937 50.3206 0 0 148
-48.4136 -62.9826 48.4721 0 0 152
-48.4997 -61.7188 48.5824 0 0 152
-35.6772 -67.4453 48.8157 0 0 150
-35.9203 -66.1883 48.7885 0 0 150
-36.2499 -68.5177 48.5243 0 0 228
-35.4557 -68.7499 48.9455 0 0 190
-35.6772 -67.4453 48.8157 0 0 190
-41.0918 -76.4102 49.0071 0 0 200
-40.3945 -75.3241 48.8264 0 0 243
-41.3635 -75.0511 48.7775 0 0 200
-40.7713 -77.7446 49.1623 0 0 155
-41.0918 -76.4102 49.0071 0 0 155
-47.7965 -69.3794 48.3467 0 0 190
-47.0608 -68.4185 48.2136 0 0 228
-47.9567 -68.0903 48.2948 0 0 190
-47.5909 -70.6333 48.3549 0 0 150
-47.7965 -69.3794 48.3467 0 0 150
-46.6825 -70.9906 48.3644 0 0 151
-47.5909 -70.6333 48.3549 0 0 151
-54.6153 -53.3887 50.6507 0 0 177
-55.1715 -54.3844 50.8308 0 0 177
-54.2997 -54.452 50.6941 0 0 208
-54.6153 -53.3887 50.6507 0 0 147
-54.0707 -52.3265 50.4249 0 0 147
-44.461 -56.4302 47.8258 0 0 152
-43.5748 -56.6602 47.7349 0 0 152
-45.3655 -56.2142 48.0338 0 0 194
-45.2615 -57.5003 47.9179 0 0 234
-44.461 -56.4302 47.8258 0 0 194
-46.2768 -56.003 48.2271 0 0 153
-45.3655 -56.2142 48.0338 0 0 153
-47.1833 -55.7932 48.5077 0 0 195
-47.0725 -57.0746 48.4065 0 0 236
-46.2768 -56.003 48.2271 0 0 195
-50.3187 -52.7681 49.4603 0 0 154
-49.3516 -52.91 49.2005 0 0 154
-51.0169 -53.8386 49.7458 0 0 232
-50.3187 -52.7681 49.4603 0 0 192
-51.2402 -52.6183 49.7518 0 0 192
-33.1748 -73.0408 49.9873 0 0 220
-32.6691 -71.9579 50.3623 0 0 184
-33.4231 -71.772 49.9772 0 0 184
-32.7103 -75.6211 49.9975 0 0 182
-32.1868 -74.4937 50.3206 0 0 182
-32.9444 -74.354 50.0492 0 0 216
-38.3736 -65.4849 47.7342 0 0 226
-37.5434 -65.7179 48.0428 0 0 189
-37.7301 -64.4256 47.9693 0 0 189
-42.8547 -72.1316 48.2939 0 0 200
-41.8797 -72.3639 48.3077 0 0 200
-42.1134 -71.0307 48.0834 0 0 244
-34.8786 -76.5125 49.3603 0 0 152
-35.7488 -76.3568 49.2819 0 0 152
-48.3253 -64.2696 48.4126 0 0 191
-47.5404 -63.2623 48.2343 0 0 230
-48.4136 -62.9826 48.4721 0 0 191
-48.2193 -65.5364 48.3348 0 0 151
-48.3253 -64.2696 48.4126 0 0 151
-48.1037 -66.8264 48.3282 0 0 190
-47.3366 -65.8394 48.1682 0 0 229
-48.2193 -65.5364 48.3348 0 0 190
-47.9567 -68.0903 48.2948 0 0 151
-48.1037 -66.8264 48.3282 0 0 151
-34.1647 -71.5501 49.5022 0 0 151
-33.4231 -71.772 49.9772 0 0 151
-34.7522 -72.6672 49.2953 0 0 226
-34.1647 -71.5501 49.5022 0 0 189
-34.9881 -71.3625 49.1952 0 0 189
-37.3291 -66.9952 48.1011 0 0 228
-36.6857 -65.9359 48.3362 0 0 189
-37.5434 -65.7179 48.0428 0 0 189
-36.6313 -76.1793 49.1188 0 0 194
-35.7488 -76.3568 49.2819 0 0 194
-35.9962 -74.9899 49.1282 0 0 235
-37.3017 -77.35 49.2133 0 0 197
-36.6313 -76.1793 49.1188 0 0 197
-37.5491 -75.9831 49.0596 0 0 238
-37.9397 -78.5238 49.2526 0 0 155
-37.3017 -77.35 49.2133 0 0 155
-38.8698 -78.2784 49.2482 0 0 198
-39.1711 -76.9185 49.1051 0 0 240
-39.8215 -78.0431 49.1991 0 0 198
-38.59 -79.6483 49.3466 0 0 155
-37.9397 -78.5238 49.2526 0 0 196
-38.8698 -78.2784 49.2482 0 0 196
-43.8274 -71.8515 48.2753 0 0 197
-44.0551 -70.5417 48.1026 0 0 239
-44.794 -71.5947 48.3083 0 0 197
-42.8547 -72.1316 48.2939 0 0 156
-43.8274 -71.8515 48.2753 0 0 156
-56.3772 -57.1872 50.8993 0 0 142
-56.6839 -57.8538 50.8161 0 0 128
-56.066 -57.8782 50.8842 0 0 142
-56.3772 -57.1872 50.8993 0 0 133
-56.0668 -56.2675 50.9673 0 0 133
-55.6151 -55.3856 50.9207 0 0 140
-55.1715 -54.3844 50.8308 0 0 140
-37.9331 -63.1738 47.9956 0 0 150
-37.7301 -64.4256 47.9693 0 0 150
-38.73 -62.9223 47.6774 0 0 149
-37.9331 -63.1738 47.9956 0 0 149
-39.6095 -62.7024 47.5116 0 0 189
-39.4397 -63.9726 47.4949 0 0 227
-38.73 -62.9223 47.6774 0 0 189
-39.7492 -61.4176 47.5286 0 0 150
-39.9035 -60.1632 47.6256 0 0 150
-40.4589 -62.4679 47.3461 0 0 225
-39.6095 -62.7024 47.5116 0 0 188
-39.7492 -61.4176 47.5286 0 0 188
-41.8354 -57.135 47.6671 0 0 150
-42.684 -56.8846 47.6302 0 0 150
-41.7124 -58.4016 47.524 0 0 150
-41.8354 -57.135 47.6671 0 0 150
-42.4723 -59.4506 47.4091 0 0 226
-41.6092 -59.6871 47.4326 0 0 188
-41.7124 -58.4016 47.524 0 0 188
-48.5804 -60.4374 48.6764 0 0 192
-48.4997 -61.7188 48.5824 0 0 192
-47.7094 -60.6939 48.3878 0 0 232
-49.4593 -60.2059 48.9918 0 0 192
-48.5804 -60.4374 48.6764 0 0 192
-48.6691 -59.181 48.7973 0 0 231
-50.2921 -59.9282 49.2887 0 0 150
-49.4593 -60.2059 48.9918 0 0 150
-47.3128 -54.5287 48.5926 0 0 154
-47.4701 -53.2565 48.6726 0 0 154
-48.1085 -55.6003 48.772 0 0 236
-47.1833 -55.7932 48.5077 0 0 195
-47.3128 -54.5287 48.5926 0 0 195
-49.1666 -54.1621 49.1556 0 0 236
-48.4229 -53.0836 48.9018 0 0 195
-49.3516 -52.91 49.2005 0 0 195
-51.1424 -59.6902 49.6086 0 0 187
-50.2921 -59.9282 49.2887 0 0 187
-50.3983 -58.7115 49.4326 0 0 224
-51.9294 -59.3927 49.8827 0 0 147
-51.1424 -59.6902 49.6086 0 0 147
-52.7411 -59.1544 50.1701 0 0 179
-51.9294 -59.3927 49.8827 0 0 179
-52.0602 -58.2352 50.04 0 0 212
-53.4715 -58.8438 50.3908 0 0 142
-52.7411 -59.1544 50.1701 0 0 142
-54.2301 -58.6211 50.6073 0 0 168
-53.4715 -58.8438 50.3908 0 0 168
-53.6304 -57.7743 50.5438 0 0 196
-54.8809 -58.3127 50.7464 0 0 136
-54.2301 -58.6211 50.6073 0 0 136
-55.5661 -58.1426 50.85 0 0 155
-54.8809 -58.3127 50.7464 0 0 155
-55.0741 -57.3816 50.8638 0 0 176
-56.066 -57.8782 50.8842 0 0 128
-55.5661 -58.1426 50.85 0 0 128
-32.002 -72.1936 50.9251 0 0 150
-32.6691 -71.9579 50.3623 0 0 150
-32.002 -72.1936 50.9251 0 0 147
-31.7368 -73.4147 50.8258 0 0 147
-34.0557 -76.6695 49.5777 0 0 189
-34.2908 -75.3243 49.5087 0 0 227
-34.8786 -76.5125 49.3603 0 0 189
-33.2423 -76.7858 49.6826 0 0 149
-34.0557 -76.6695 49.5777 0 0 149
-32.7103 -75.6211 49.9975 0 0 148
-33.2423 -76.7858 49.6826 0 0 148
3 0 15 13
3 58 16 59
3 60 19 61
3 62 61 17
3 60 61 62
3 64 63 19
3 66 65 22
3 67 25 68
3 69 22 70
3 71 70 25
3 69 70 71
3 1 29 27
3 2 32 30
3 4 33 14
3 4 34 33
3 5 37 35
3 7 72 73
3 7 74 76
3 74 38 75
3 74 75 76
3 3 39 31
3 8 40 18
3 8 41 40
3 8 42 41
3 78 77 20
3 6 43 36
3 79 44 80
3 81 80 21
3 79 80 81
3 83 82 44
3 9 84 86
3 86 85 45
3 84 85 86
3 87 46 88
3 89 47 90
3 91 90 46
3 89 90 91
3 10 92 94
3 92 48 93
3 92 93 94
3 10 49 48
3 10 50 49
3 11 51 23
3 11 52 51
3 95 53 96
3 12 54 24
3 12 55 54
3 12 56 55
3 9 57 26
3 9 45 57
3 98 97 28
3 13 14 2
3 15 14 13
3 15 4 14
3 100 99 5
3 16 101 102
3 16 103 105
3 103 7 104
3 103 104 105
3 17 18 3
3 19 18 17
3 19 8 18
3 19 20 8
3 106 20 107
3 108 107 19
3 106 107 108
3 110 109 20
3 111 21 112
3 113 112 6
3 111 112 113
3 114 21 115
3 117 116 21
3 22 118 120
3 120 119 9
3 118 119 120
3 122 121 22
3 123 10 124
3 125 23 126
3 127 126 10
3 125 126 127
3 128 23 129
3 130 11 131
3 132 131 23
3 130 131 132
3 133 24 134
3 25 135 137
3 135 24 136
3 135 136 137
3 25 12 24
3 25 26 12
3 22 26 25
3 22 9 26
3 27 138 140
3 138 28 139
3 138 139 140
3 29 28 27
3 29 141 143
3 143 142 28
3 141 142 143
3 30 144 146
3 144 31 145
3 144 145 146
3 32 31 30
3 32 3 31
3 14 32 2
3 33 32 14
3 33 3 32
3 33 17 3
3 34 17 33
3 34 147 149
3 149 148 17
3 147 148 149
3 151 150 1
3 35 36 0
3 37 36 35
3 37 6 36
3 152 37 153
3 154 153 5
3 152 153 154
3 155 37 156
3 157 6 158
3 159 158 37
3 157 158 159
3 161 160 6
3 162 27 163
3 38 164 166
3 164 27 165
3 164 165 166
3 38 1 27
3 31 167 169
3 167 16 168
3 167 168 169
3 39 16 31
3 39 7 16
3 18 39 3
3 40 39 18
3 40 7 39
3 40 38 7
3 41 38 40
3 41 1 38
3 41 170 172
3 172 171 1
3 170 171 172
3 42 173 175
3 175 174 41
3 173 174 175
3 42 176 177
3 20 42 8
3 178 42 179
3 180 179 20
3 178 179 180
3 183 182 42
3 181 182 183
3 36 15 0
3 43 15 36
3 43 4 15
3 21 43 6
3 44 43 21
3 44 4 43
3 44 34 4
3 184 34 185
3 186 185 44
3 184 185 186
3 188 187 34
3 45 189 191
3 189 190 191
3 193 192 45
3 195 194 9
3 196 30 197
3 198 30 199
3 200 2 201
3 202 201 30
3 200 201 202
3 46 203 204
3 46 205 207
3 205 2 206
3 205 206 207
3 46 13 2
3 47 13 46
3 47 0 13
3 48 208 209
3 48 210 211
3 48 212 214
3 212 47 213
3 212 213 214
3 49 47 48
3 49 0 47
3 49 35 0
3 50 35 49
3 50 5 35
3 23 50 10
3 51 50 23
3 51 5 50
3 51 215 217
3 217 216 5
3 215 216 217
3 52 218 220
3 220 219 51
3 218 219 220
3 52 221 222
3 53 223 224
3 53 225 227
3 225 11 226
3 225 226 227
3 24 228 230
3 228 53 229
3 228 229 230
3 54 53 24
3 54 11 53
3 54 52 11
3 55 52 54
3 55 231 233
3 233 232 52
3 231 232 233
3 55 234 235
3 56 236 238
3 238 237 55
3 236 237 238
3 56 239 240
3 26 56 12
3 57 56 26
3 57 241 243
3 243 242 56
3 241 242 243
3 57 244 245
3 45 246 248
3 248 247 57
3 246 247 248
3 45 249 250
3 28 251 252
3 254 253 28
3 255 29 256
3 257 256 1
3 255 256 257
3 258 29 259
3 261 260 29
