ply
format ascii 1.0
element vertex 229
property float x
property float y
property float z
property uchar red
property uchar green
property uchar blue
element face 232
property list uchar int vertex_index
end_header
-16.5016 -64.3478 80.2355 209 0 0
-10.4267 -58.0952 85.5524 127 255 128
-14.0012 -73.9097 76.9613 110 255 145
-9.08283 -67.7412 80.4551 255 114 0
-15.5275 -69.2651 78.8225 255 22 0
-17.9805 -72.1142 76.6039 28 255 227
-19.5063 -67.4253 78.046 255 224 0
-13.3768 -61.1799 82.7838 222 0 0
-9.98956 -63.0314 83.1204 255 108 0
-12.714 -66.1646 80.8587 255 24 0
-11.5936 -70.93 78.7634 255 73 0
-16.8446 -59.1545 81.435 128 0 0
-20.2432 -62.4123 78.8782 176 0 0
-13.5117 -55.9641 84.5509 215 255 40
-6.88459 -64.4972 82.0619 255 218 0
-7.95446 -72.3798 77.6507 93 255 162
-10.2087 -75.5428 76.3499 0 238 255
-16.094 -66.841 79.5712 244 0 0
-17.5265 -68.3638 78.5274 255 6 0
-18.0498 -65.9138 79.1307 226 0 0
-14.9277 -62.7608 81.4465 205 0 0
-13.1109 -63.705 81.8376 252 0 0
-14.6023 -65.2782 80.6554 239 0 0
-14.1351 -67.7294 79.8178 255 15 0
-16.8284 -56.4812 82.0199 129 255 126
-18.5737 -58.1345 80.5114 255 253 0
-15.1605 -57.5366 82.9491 255 140 0
-22.0476 -61.43 77.9823 215 255 40
-21.8499 -63.9834 77.7472 255 195 0
-23.6461 -62.9981 76.8206 0 207 255
-9.57875 -65.4083 81.806 255 112 0
-8.38571 -63.8243 82.7818 255 175 0
-7.92371 -66.1248 81.2994 255 163 0
-6.38871 -66.7286 80.4322 44 255 211
-7.406 -68.4012 79.78 172 255 83
-6.86562 -70.6872 78.2319 0 241 255
-8.53279 -70.0568 79.0731 255 115 0
-12.8389 -72.4622 77.909 255 81 0
-10.9174 -73.2576 77.6084 255 104 0
-12.0663 -74.7422 76.7913 93 255 162
-14.82 -71.6228 77.9601 255 57 0
-15.984 -73.0351 76.8899 126 255 129
-16.8291 -70.7385 77.7889 255 38 0
-18.8334 -69.8114 77.4175 150 255 105
-11.8749 -59.6224 84.1917 255 13 0
-10.2814 -60.5936 84.3796 215 255 40
-11.6629 -62.1409 83.106 255 34 0
-11.3187 -64.5948 81.9729 255 54 0
-10.8637 -66.9909 80.8049 255 70 0
-10.3228 -69.3474 79.6017 255 84 0
-12.2012 -68.5683 79.8394 255 48 0
-13.5397 -70.1222 78.9105 255 46 0
-16.747 -61.7834 80.847 169 0 0
-18.3886 -63.3883 79.6344 187 0 0
-18.5523 -60.7908 80.0805 145 0 0
-20.3306 -59.7966 79.1782 239 255 16
-10.4168 -55.5561 86.5966 22 255 233
-11.8883 -54.4547 86.1073 60 255 195
-11.9459 -57.0505 85.2049 248 0 0
-13.5065 -58.5927 83.6939 190 0 0
-15.1091 -60.1762 82.2084 167 0 0
-19.9767 -64.958 78.5185 217 0 0
-21.4371 -66.4578 77.3898 57 255 198
-8.74944 -61.473 84.2039 55 255 200
-7.30849 -62.2311 83.6289 19 255 236
-5.99032 -62.8473 82.6427 0 179 255
-5.5198 -65.0364 80.9546 0 192 255
-9.72102 -71.6842 78.3516 255 98 0
-9.08573 -74.0113 77.0325 93 255 162
-17.6681 -55.9637 81.4907 0 0 148
-16.7898 -55.1402 82.313 0 0 148
-16.7898 -55.1402 82.313 0 0 147
-15.9714 -55.6762 82.8406 0 0 147
-14.5152 -74.5757 76.3905 0 0 135
-13.5572 -75.0076 76.389 0 0 135
-23.716 -61.7234 76.8876 0 0 183
-22.8468 -62.2141 77.4015 0 0 224
-22.9167 -60.9393 77.4684 0 0 183
-9.69907 -58.5776 85.5416 0 0 134
-9.72466 -57.3448 86.1355 0 0 134
-13.5572 -75.0076 76.389 0 0 167
-12.5897 -75.4238 76.304 0 0 167
-13.0337 -74.326 76.8763 0 0 200
-20.1528 -68.1364 77.4523 0 0 177
-19.8163 -69.3295 77.1381 0 0 177
-19.1698 -68.6183 77.7317 0 0 215
-20.311 -58.4632 79.3267 0 0 190
-19.4522 -58.9655 79.8448 0 0 234
-19.4326 -57.6321 79.9933 0 0 190
-21.2013 -59.3035 78.6694 0 0 146
-20.311 -58.4632 79.3267 0 0 146
-10.3441 -54.2844 87.0286 0 0 134
-9.65967 -54.8298 87.1567 0 0 134
-12.7 -55.2094 85.3291 0 0 226
-12.6566 -53.8933 85.7146 0 0 184
-13.4682 -54.648 84.9364 0 0 184
-17.4825 -73.2209 76.0981 0 0 173
-16.4842 -73.6813 76.2411 0 0 173
-16.9822 -72.5747 76.7469 0 0 208
-22.3633 -65.9638 76.9756 0 0 180
-21.6435 -65.2206 77.5685 0 0 219
-22.5697 -64.7266 77.1543 0 0 180
-22.0651 -67.1566 76.7531 0 0 139
-22.3633 -65.9638 76.9756 0 0 139
-5.69787 -66.97 79.8177 0 0 132
-6.12836 -67.8445 79.5987 0 0 132
-7.1404 -72.6953 77.149 0 0 169
-6.59597 -71.849 77.4396 0 0 169
-7.41004 -71.5335 77.9413 0 0 202
-7.66406 -73.5509 76.9078 0 0 135
-7.1404 -72.6953 77.149 0 0 135
-9.33103 -75.9318 75.9825 0 0 167
-8.76955 -75.166 76.3238 0 0 167
-9.6472 -74.7771 76.6912 0 0 200
-9.86457 -76.6491 75.658 0 0 133
-9.33103 -75.9318 75.9825 0 0 133
-18.5408 -56.7904 80.7364 0 0 192
-17.7011 -57.3078 81.2656 0 0 237
-17.6681 -55.9637 81.4907 0 0 192
-19.4326 -57.6321 79.9933 0 0 147
-18.5408 -56.7904 80.7364 0 0 147
-14.3131 -55.4176 84.1061 0 0 145
-13.4682 -54.648 84.9364 0 0 145
-15.1374 -56.2039 83.3052 0 0 188
-14.3361 -56.7503 83.75 0 0 232
-14.3131 -55.4176 84.1061 0 0 188
-15.9944 -57.0089 82.4845 0 0 236
-15.1374 -56.2039 83.3052 0 0 191
-15.9714 -55.6762 82.8406 0 0 191
-18.4593 -72.7384 75.8821 0 0 138
-18.9673 -71.6322 76.3622 0 0 138
-23.4678 -64.2339 76.6911 0 0 179
-22.5697 -64.7266 77.1543 0 0 179
-22.748 -63.4908 77.2839 0 0 218
-6.637 -68.6808 79.2726 0 0 165
-6.12836 -67.8445 79.5987 0 0 165
-6.89735 -67.5649 80.1061 0 0 196
-7.13581 -69.5442 79.006 0 0 196
-6.36681 -69.8238 78.4986 0 0 165
-6.637 -68.6808 79.2726 0 0 165
-11.6681 -75.8384 76.1682 0 0 164
-10.7393 -76.2387 75.9475 0 0 164
-11.1375 -75.1425 76.5706 0 0 196
-11.6681 -75.8384 76.1682 0 0 133
-12.5897 -75.4238 76.304 0 0 133
-19.3938 -70.4808 76.769 0 0 175
-18.9673 -71.6322 76.3622 0 0 175
-18.4069 -70.9628 77.0107 0 0 212
-20.3767 -69.9989 76.4896 0 0 138
-19.3938 -70.4808 76.769 0 0 175
-19.8163 -69.3295 77.1381 0 0 175
-22.0598 -60.1202 78.0715 0 0 187
-21.1891 -60.6133 78.5802 0 0 230
-21.2013 -59.3035 78.6694 0 0 187
-22.9289 -59.6295 77.5576 0 0 144
-22.9167 -60.9393 77.4684 0 0 187
-22.0598 -60.1202 78.0715 0 0 187
-9.71972 -56.0753 86.6576 0 0 134
-9.65967 -54.8298 87.1567 0 0 134
-10.4217 -56.8257 86.0745 0 0 199
-9.72466 -57.3448 86.1355 0 0 166
-9.71972 -56.0753 86.6576 0 0 166
-11.8139 -53.1669 86.4774 0 0 142
-12.6566 -53.8933 85.7146 0 0 142
-11.0799 -53.7336 86.784 0 0 139
-11.8139 -53.1669 86.4774 0 0 139
-11.1526 -55.0054 86.3519 0 0 212
-10.3441 -54.2844 87.0286 0 0 175
-11.0799 -53.7336 86.784 0 0 175
-15.5066 -74.1384 76.3548 0 0 170
-14.5152 -74.5757 76.3905 0 0 170
-14.9926 -73.4724 76.9256 0 0 204
-15.5066 -74.1384 76.3548 0 0 137
-16.4842 -73.6813 76.2411 0 0 137
-17.4825 -73.2209 76.0981 0 0 138
-18.4593 -72.7384 75.8821 0 0 138
-21.1182 -67.6527 77.1242 0 0 177
-20.1528 -68.1364 77.4523 0 0 177
-20.4717 -66.9415 77.7179 0 0 214
-21.1182 -67.6527 77.1242 0 0 139
-22.0651 -67.1566 76.7531 0 0 139
-24.4948 -62.5032 76.2798 0 0 142
-23.716 -61.7234 76.8876 0 0 142
-24.3408 -63.7335 76.1897 0 0 140
-24.4948 -62.5032 76.2798 0 0 140
-23.4678 -64.2339 76.6911 0 0 140
-24.3408 -63.7335 76.1897 0 0 140
-9.62643 -59.8268 84.9552 0 0 166
-9.69907 -58.5776 85.5416 0 0 166
-10.354 -59.3444 84.966 0 0 198
-8.86047 -60.2665 84.8673 0 0 167
-9.62643 -59.8268 84.9552 0 0 167
-9.5154 -61.0333 84.2918 0 0 199
-8.17712 -60.6907 84.6501 0 0 130
-8.86047 -60.2665 84.8673 0 0 130
-7.45665 -61.0698 84.3626 0 0 160
-8.17712 -60.6907 84.6501 0 0 160
-8.02897 -61.852 83.9164 0 0 189
-6.83162 -61.422 83.9298 0 0 128
-7.45665 -61.0698 84.3626 0 0 128
-6.17254 -61.7301 83.4367 0 0 156
-6.83162 -61.422 83.9298 0 0 156
-6.64941 -62.5392 83.1358 0 0 184
-5.61934 -62.0028 82.7933 0 0 128
-6.17254 -61.7301 83.4367 0 0 128
-5.40709 -63.0802 81.951 0 0 129
-5.61934 -62.0028 82.7933 0 0 129
-5.17183 -64.1748 81.1069 0 0 157
-5.40709 -63.0802 81.951 0 0 157
-5.75506 -63.9418 81.7987 0 0 185
-4.91995 -65.2375 80.2156 0 0 131
-5.17183 -64.1748 81.1069 0 0 131
-5.26341 -66.1239 80.0789 0 0 161
-5.95425 -65.8825 80.6934 0 0 191
-5.69787 -66.97 79.8177 0 0 161
-4.91995 -65.2375 80.2156 0 0 131
-5.26341 -66.1239 80.0789 0 0 131
-6.10984 -70.9593 77.6514 0 0 134
-6.36681 -69.8238 78.4986 0 0 134
-6.10984 -70.9593 77.6514 0 0 134
-6.59597 -71.849 77.4396 0 0 134
-8.22969 -74.3667 76.5987 0 0 169
-7.66406 -73.5509 76.9078 0 0 169
-8.52009 -73.1956 77.3416 0 0 203
-8.22969 -74.3667 76.5987 0 0 134
-8.76955 -75.166 76.3238 0 0 134
-10.3952 -77.345 75.2556 0 0 132
-9.86457 -76.6491 75.658 0 0 163
-10.7393 -76.2387 75.9475 0 0 163
3 0 19 17
3 0 22 20
3 0 17 22
3 70 69 24
3 71 24 72
3 2 73 74
3 75 29 76
3 77 76 27
3 75 76 77
3 1 78 79
3 3 32 30
3 3 34 32
3 3 36 34
3 2 39 37
3 2 80 82
3 82 81 39
3 80 81 82
3 4 42 40
3 6 43 18
3 6 83 85
3 85 84 43
3 83 84 85
3 7 46 44
3 9 47 21
3 9 48 47
3 9 50 48
3 4 51 23
3 4 40 51
3 11 54 52
3 86 55 87
3 88 87 25
3 86 87 88
3 90 89 55
3 91 56 92
3 13 93 95
3 93 57 94
3 93 94 95
3 13 58 57
3 13 59 58
3 11 60 26
3 11 52 60
3 5 96 98
3 98 97 41
3 96 97 98
3 12 61 53
3 99 62 100
3 101 100 28
3 99 100 101
3 103 102 62
3 8 63 45
3 14 64 31
3 14 65 64
3 14 66 65
3 105 104 33
3 15 106 108
3 108 107 35
3 106 107 108
3 15 109 110
3 10 67 49
3 16 68 38
3 16 111 113
3 113 112 68
3 111 112 113
3 16 114 115
3 17 18 4
3 19 18 17
3 19 6 18
3 20 21 7
3 22 21 20
3 22 9 21
3 22 23 9
3 17 23 22
3 17 4 23
3 24 25 11
3 116 25 117
3 118 117 24
3 116 117 118
3 120 119 25
3 121 13 122
3 123 26 124
3 125 124 13
3 123 124 125
3 24 126 128
3 126 26 127
3 126 127 128
3 24 11 26
3 130 129 5
3 27 28 12
3 29 28 27
3 29 131 133
3 133 132 28
3 131 132 133
3 30 31 8
3 32 31 30
3 32 14 31
3 32 33 14
3 34 33 32
3 34 134 136
3 136 135 33
3 134 135 136
3 34 137 139
3 137 35 138
3 137 138 139
3 36 35 34
3 36 15 35
3 37 38 10
3 39 38 37
3 39 16 38
3 39 140 142
3 142 141 16
3 140 141 142
3 144 143 39
3 40 41 2
3 42 41 40
3 42 5 41
3 18 42 4
3 43 42 18
3 43 5 42
3 43 145 147
3 147 146 5
3 145 146 147
3 150 149 43
3 148 149 150
3 44 45 1
3 46 45 44
3 46 8 45
3 21 46 7
3 47 46 21
3 47 8 46
3 47 30 8
3 48 30 47
3 48 3 30
3 48 49 3
3 50 49 48
3 50 10 49
3 23 50 9
3 51 50 23
3 51 10 50
3 51 37 10
3 40 37 51
3 40 2 37
3 52 53 0
3 54 53 52
3 54 12 53
3 25 54 11
3 55 54 25
3 55 12 54
3 55 27 12
3 151 27 152
3 153 152 55
3 151 152 153
3 156 155 27
3 154 155 156
3 56 157 158
3 56 159 161
3 159 1 160
3 159 160 161
3 57 162 163
3 57 164 165
3 57 166 168
3 166 56 167
3 166 167 168
3 58 56 57
3 58 1 56
3 58 44 1
3 59 44 58
3 59 7 44
3 26 59 13
3 60 59 26
3 60 7 59
3 60 20 7
3 52 20 60
3 52 0 20
3 41 169 171
3 171 170 2
3 169 170 171
3 173 172 41
3 175 174 5
3 53 19 0
3 61 19 53
3 61 6 19
3 28 61 12
3 62 61 28
3 62 6 61
3 62 176 178
3 178 177 6
3 176 177 178
3 180 179 62
3 181 29 182
3 183 29 184
3 186 185 29
3 45 187 189
3 189 188 1
3 187 188 189
3 63 190 192
3 192 191 45
3 190 191 192
3 63 193 194
3 31 63 8
3 64 63 31
3 64 195 197
3 197 196 63
3 195 196 197
3 64 198 199
3 65 200 202
3 202 201 64
3 200 201 202
3 65 203 204
3 65 205 206
3 66 207 209
3 209 208 65
3 207 208 209
3 66 210 211
3 33 66 14
3 212 66 213
3 214 213 33
3 212 213 214
3 216 215 66
3 35 217 218
3 220 219 35
3 49 36 3
3 67 36 49
3 67 15 36
3 38 67 10
3 68 67 38
3 68 15 67
3 68 221 223
3 223 222 15
3 221 222 223
3 225 224 68
3 228 227 16
3 226 227 228
