ply
format ascii 1.0
element vertex 116
property float x
property float y
property float z
property uchar red
property uchar green
property uchar blue
element face 99
property list uchar int vertex_index
end_header
-21.639 -104.221 24.2088 128 0 0
-22.766 -108.978 19.365 208 255 47
-25.8459 -103.172 23.0498 255 13 0
-27.5638 -107.747 18.9253 255 39 0
-19.6302 -104.983 25.564 143 255 112
-19.9899 -107.341 22.8392 136 255 119
-22.1778 -106.637 21.68 255 155 0
-26.9964 -100.442 25.4777 27 255 228
-27.959 -102.924 23.287 143 255 112
-26.6958 -105.571 20.8994 255 17 0
-28.9313 -105.208 21.2829 135 255 120
-30.8576 -108.779 17.6292 0 143 255
-23.4132 -111.146 17.2204 73 255 182
-21.119 -101.818 26.9705 117 255 138
-23.0401 -101.124 25.9228 198 255 57
-25.0129 -100.66 25.4197 153 255 102
-23.7238 -103.603 23.3561 210 0 0
-24.4282 -106.039 21.0251 217 0 0
-25.1683 -108.332 18.8971 235 0 0
-25.9403 -110.379 16.918 255 244 0
-29.9043 -107.189 19.4165 114 255 141
-28.4365 -109.602 17.0681 227 255 28
-26.7258 -112.086 15.022 0 167 255
-28.9884 -102.86 23.6518 0 0 134
-28.4528 -101.676 24.6751 0 0 134
-29.4746 -104.003 22.6498 0 0 168
-28.4452 -104.066 22.285 0 0 204
-28.9884 -102.86 23.6518 0 0 168
-21.8347 -110.442 18.6728 0 0 140
-21.5858 -109.327 19.8432 0 0 140
-23.0896 -110.062 18.2927 0 0 226
-22.1583 -111.526 17.6005 0 0 183
-21.8347 -110.442 18.6728 0 0 183
-20.8469 -100.658 28.4645 0 0 143
-20.1992 -102.245 27.7354 0 0 143
-23.6105 -99.6316 26.9764 0 0 135
-22.6942 -99.9084 27.3277 0 0 135
-31.0269 -106.888 19.8575 0 0 131
-30.4978 -106.035 20.7639 0 0 131
-28.8642 -110.328 16.1656 0 0 163
-29.6471 -109.191 17.3486 0 0 196
-30.0748 -109.917 16.4462 0 0 163
-28.0089 -111.57 15.1426 0 0 167
-27.5812 -110.844 16.045 0 0 202
-28.8642 -110.328 16.1656 0 0 167
-27.1144 -112.734 14.0833 0 0 131
-28.0089 -111.57 15.1426 0 0 131
-18.7647 -106.532 25.0007 0 0 145
-18.6765 -105.391 26.4506 0 0 145
-18.9446 -107.711 23.6383 0 0 192
-18.7647 -106.532 25.0007 0 0 192
-19.81 -106.162 24.2016 0 0 240
-19.0597 -108.86 22.2795 0 0 144
-18.9446 -107.711 23.6383 0 0 144
-20.1978 -108.509 21.5803 0 0 143
-19.0597 -108.86 22.2795 0 0 143
-21.2918 -108.157 21.0007 0 0 185
-20.1978 -108.509 21.5803 0 0 185
-21.0839 -106.989 22.2596 0 0 230
-22.4719 -107.807 20.5225 0 0 229
-21.5858 -109.327 19.8432 0 0 185
-21.2918 -108.157 21.0007 0 0 185
-27.9715 -100.436 25.7704 0 0 133
-27.44 -99.166 26.8827 0 0 133
-27.4777 -101.683 24.3823 0 0 205
-27.9715 -100.436 25.7704 0 0 168
-28.4528 -101.676 24.6751 0 0 168
-32.0131 -108.316 18.0778 0 0 129
-31.5035 -107.684 18.9638 0 0 129
-31.3136 -109.35 16.7463 0 0 159
-32.0131 -108.316 18.0778 0 0 159
-32.469 -108.887 17.1949 0 0 128
-30.0748 -109.917 16.4462 0 0 129
-31.3136 -109.35 16.7463 0 0 129
-22.4487 -112.542 16.4932 0 0 139
-22.1583 -111.526 17.6005 0 0 139
-23.7609 -112.096 16.2027 0 0 138
-22.4487 -112.542 16.4932 0 0 138
-19.4548 -103.828 27.0321 0 0 145
-18.6765 -105.391 26.4506 0 0 145
-20.3746 -103.4 26.2673 0 0 235
-19.4548 -103.828 27.0321 0 0 189
-20.1992 -102.245 27.7354 0 0 189
-21.7337 -100.255 27.8516 0 0 139
-20.8469 -100.658 28.4645 0 0 139
-22.0796 -101.471 26.4467 0 0 224
-21.7337 -100.255 27.8516 0 0 182
-22.6942 -99.9084 27.3277 0 0 182
-26.518 -99.1601 26.6819 0 0 132
-27.44 -99.166 26.8827 0 0 132
-25.5262 -99.2689 26.653 0 0 170
-26.518 -99.1601 26.6819 0 0 170
-26.0046 -100.551 25.4487 0 0 207
-24.5969 -99.3997 26.7248 0 0 132
-25.5262 -99.2689 26.653 0 0 132
-24.0265 -100.892 25.6712 0 0 213
-23.6105 -99.6316 26.9764 0 0 174
-24.5969 -99.3997 26.7248 0 0 174
-25.0245 -111.712 16.0515 0 0 174
-23.7609 -112.096 16.2027 0 0 174
-24.6768 -110.763 17.0692 0 0 213
-30.0113 -105.045 21.6971 0 0 133
-29.4746 -104.003 22.6498 0 0 133
-29.4178 -106.198 20.3497 0 0 201
-30.0113 -105.045 21.6971 0 0 166
-30.4978 -106.035 20.7639 0 0 166
-30.3809 -107.984 18.5228 0 0 195
-31.0269 -106.888 19.8575 0 0 162
-31.5035 -107.684 18.9638 0 0 162
-25.4172 -112.566 15.1035 0 0 173
-25.0245 -111.712 16.0515 0 0 173
-26.3331 -111.233 15.97 0 0 211
-25.7781 -113.338 14.1071 0 0 134
-25.4172 -112.566 15.1035 0 0 134
-25.7781 -113.338 14.1071 0 0 133
-27.1144 -112.734 14.0833 0 0 133
3 0 5 4
3 0 6 5
3 23 8 24
3 25 10 26
3 27 26 8
3 25 26 27
3 1 28 29
3 1 30 32
3 30 12 31
3 30 31 32
3 33 13 34
3 35 14 36
3 2 15 7
3 2 16 15
3 2 17 16
3 3 18 9
3 3 19 18
3 37 20 38
3 39 21 40
3 41 40 11
3 39 40 41
3 42 22 43
3 44 43 21
3 42 43 44
3 46 45 22
3 4 47 48
3 5 49 51
3 51 50 4
3 49 50 51
3 5 52 53
3 5 54 55
3 6 56 58
3 58 57 5
3 56 57 58
3 6 59 61
3 59 1 60
3 59 60 61
3 62 7 63
3 8 64 66
3 64 7 65
3 64 65 66
3 8 2 7
3 8 9 2
3 10 9 8
3 10 3 9
3 67 11 68
3 69 11 70
3 69 70 71
3 73 72 11
3 12 74 75
3 12 76 77
3 78 4 79
3 13 80 82
3 80 4 81
3 80 81 82
3 13 0 4
3 83 13 84
3 14 85 87
3 85 13 86
3 85 86 87
3 14 0 13
3 7 88 89
3 15 90 92
3 92 91 7
3 90 91 92
3 15 93 94
3 15 95 97
3 95 14 96
3 95 96 97
3 16 14 15
3 16 0 14
3 16 6 0
3 17 6 16
3 17 1 6
3 9 17 2
3 18 17 9
3 18 1 17
3 18 12 1
3 19 12 18
3 19 98 100
3 100 99 12
3 98 99 100
3 101 10 102
3 20 103 105
3 103 10 104
3 103 104 105
3 20 3 10
3 11 106 108
3 106 20 107
3 106 107 108
3 21 20 11
3 21 3 20
3 21 19 3
3 22 19 21
3 22 109 111
3 111 110 19
3 109 110 111
3 22 112 113
3 115 114 22
