ply
format ascii 1.0
element vertex 420
property float x
property float y
property float z
property uchar red
property uchar green
property uchar blue
element face 475
property list uchar int vertex_index
end_header
-24.9288 99.1921 -35.163 130 255 125
-30.6117 69.6327 -46.1479 255 145 0
-33.7956 56.244 -41.1988 189 255 66
-33.3414 75.0635 -37.4261 192 0 0
-27.0552 100.735 -22.8032 78 255 177
-30.6974 90.228 -31.6246 255 41 0
-28.7066 86.8885 -42.0934 255 170 0
-25.0557 79.682 -49.0692 85 255 170
-25.8505 62.8891 -50.9496 157 255 98
-28.9435 50.8684 -47.7058 255 135 0
-21.5772 52.1046 -51.9838 0 140 255
-33.9709 76.5103 -31.9391 253 255 2
-26.191 100.515 -29.1191 255 198 0
-28.9022 96.3066 -27.5376 255 112 0
-28.1992 95.3421 -33.6035 255 108 0
-29.9048 89.0535 -37.2158 255 79 0
-26.9911 93.5174 -39.121 255 219 0
-23.5223 86.867 -47.1344 0 183 255
-32.4295 63.5663 -43.81 255 23 0
-31.6579 53.5394 -44.8776 255 240 0
-30.28 60.4909 -47.1947 255 187 0
-27.6663 57.5955 -49.5575 255 252 0
-28.405 66.6753 -49.0205 255 237 0
-23.2498 96.9236 -40.1101 26 255 229
-34.0015 65.8439 -39.4807 182 0 0
-32.2697 72.8662 -42.1195 255 47 0
-32.7459 84.4471 -22.5453 149 255 106
-31.0391 90.8942 -25.2875 201 0 0
-32.5983 84.3096 -28.8907 169 0 0
-32.1334 83.3592 -34.8513 217 0 0
-31.3845 81.169 -40.0564 255 56 0
-30.0161 78.7178 -44.4528 255 137 0
-25.5627 90.6406 -43.494 255 236 0
-27.2061 83.3008 -46.131 255 250 0
-28.1824 75.3597 -47.9063 255 245 0
-25.8635 71.4877 -50.3587 224 255 31
-23.2836 67.1678 -51.8248 0 108 255
-23.0796 59.6851 -52.0596 0 146 255
-25.8951 48.4113 -49.6411 106 255 149
-24.6433 54.4173 -51.1104 143 255 112
-23.7773 101.571 -32.8161 0 214 255
-24.4773 102.228 -29.7765 43 255 212
-25.6235 100.025 -32.1576 255 185 0
-27.2283 98.1147 -31.4198 255 144 0
-26.6304 97.5018 -34.4555 255 163 0
-27.6351 94.6083 -36.4468 255 164 0
-25.9754 96.5373 -37.2548 255 213 0
-31.5778 66.6441 -45.0455 255 93 0
-31.405 61.8274 -45.6705 255 82 0
-30.5529 65.2324 -46.7485 255 171 0
-29.4851 63.6159 -48.0976 255 220 0
-29.5516 68.2483 -47.7199 255 222 0
-34.1513 71.6805 -36.1134 255 135 0
-34.5188 66.9856 -37.1623 254 255 1
-33.6814 70.6614 -38.7448 176 0 0
-33.1569 69.1595 -41.0307 231 0 0
-32.8592 74.0294 -39.9068 255 0 0
-31.9814 87.6111 -20.5533 141 255 114
-25.6283 102.612 -23.419 0 221 255
-28.2678 98.6975 -21.5736 14 255 241
-29.8509 93.4548 -29.4194 255 59 0
-30.0486 93.7337 -26.3724 255 34 0
-30.9078 90.6828 -28.4558 243 0 0
-31.899 87.5081 -27.226 195 0 0
-31.6651 87.5486 -30.2789 231 0 0
-32.4545 83.7891 -31.8781 160 0 0
-31.4892 86.8599 -33.1856 252 0 0
-29.4182 87.9492 -39.762 255 131 0
-30.6986 85.1542 -38.8425 255 57 0
-30.1429 84.1702 -41.1552 255 101 0
-30.7557 80.0109 -42.4069 255 90 0
-29.4528 82.9328 -43.3366 255 147 0
-22.3114 95.3656 -42.2558 0 202 255
-24.5554 93.8673 -41.8865 255 230 0
-23.5069 92.304 -43.9328 38 255 217
-24.2092 83.4064 -48.2731 4 255 251
-25.4365 85.1568 -46.7945 255 255 0
-26.1663 81.6561 -47.712 246 255 9
-27.8289 79.5115 -47.0268 255 244 0
-26.7317 77.81 -48.5269 249 255 6
-27.1623 73.5792 -49.1791 232 255 23
-25.6084 75.5945 -49.7873 249 255 6
-30.3034 52.0152 -46.4547 255 76 0
-30.8436 48.2128 -45.2193 39 255 216
-29.4119 47.1354 -46.6258 114 255 141
-27.7883 45.8874 -47.8598 101 255 154
-26.1185 44.7131 -48.8634 0 223 255
-27.4395 49.706 -48.7916 255 188 0
-26.8366 60.2948 -50.3067 211 255 44
-26.1377 55.9245 -50.4588 205 255 50
-25.3884 58.7493 -51.0849 139 255 116
-24.0084 57.3645 -51.6284 92 255 163
-24.5 61.3592 -51.5846 88 255 167
-22.0366 49.4414 -51.5601 0 171 255
-20.4144 48.6585 -51.9178 0 35 255
-34.5086 72.3898 -33.3298 128 255 127
-33.7042 75.9482 -34.73 155 0 0
-24.9723 102.677 -26.6739 45 255 210
-26.5899 100.808 -26.1423 255 174 0
-28.0418 98.6173 -25.1548 255 108 0
-27.6425 98.5586 -28.3409 255 162 0
-28.6478 95.8767 -30.5186 255 105 0
-29.5887 92.8636 -32.5063 255 87 0
-30.3139 89.8816 -34.4518 255 77 0
-29.1125 92.3878 -35.3661 255 126 0
-28.5275 91.6508 -38.0576 255 155 0
-28.0343 90.2552 -40.5378 255 206 0
-23.8857 77.4321 -50.1794 0 181 255
-33.1339 59.663 -42.6096 252 0 0
-32.8364 54.7185 -43.0787 169 255 86
-32.1772 58.5235 -44.4116 255 29 0
-31.0285 56.9866 -46.074 255 103 0
-29.8198 56.0302 -47.4572 255 174 0
-28.4283 54.3498 -48.6314 255 201 0
-29.0445 58.8645 -48.46 255 237 0
-28.277 62.0357 -49.2635 255 242 0
-27.147 64.7759 -50.1144 236 255 19
-24.138 98.1903 -37.7511 21 255 234
-34.6156 57.2375 -39.1108 116 255 139
-34.6964 62.0775 -38.1532 247 255 8
-33.959 61.1733 -40.5544 186 0 0
-33.2652 64.7221 -41.8213 230 0 0
-32.3744 68.3883 -43.1945 255 40 0
-31.4779 71.5636 -44.2736 255 92 0
-29.2168 96.2651 -24.2211 239 255 16
-30.2119 93.7561 -23.0026 172 255 83
-31.1459 90.8018 -21.9782 224 255 31
-31.9339 87.7718 -24.081 128 0 0
-32.7373 84.3157 -25.855 255 145 0
-33.4675 80.7491 -27.4513 117 255 138
-33.3265 80.5203 -30.3777 255 119 0
-33.1141 79.9187 -33.4835 139 0 0
-32.7791 79.3968 -36.1855 205 0 0
-31.071 86.4316 -36.0456 255 16 0
-31.7853 82.5274 -37.4828 255 10 0
-32.4048 78.3618 -38.7466 255 6 0
-31.9102 77.1326 -41.1224 255 71 0
-31.2553 75.8331 -43.3125 255 100 0
-30.4362 74.3301 -45.3325 255 125 0
-25.2561 95.3699 -39.6918 255 250 0
-26.362 92.2296 -41.3342 255 254 0
-27.1894 88.9997 -42.8532 255 221 0
-24.5464 88.904 -45.4498 114 255 141
-26.3504 87.0746 -45.0375 255 227 0
-27.9713 85.2583 -44.2471 255 200 0
-28.7019 81.3258 -45.2892 255 206 0
-29.1758 76.9964 -46.3245 255 182 0
-29.4946 72.5113 -47.1091 255 190 0
-28.4245 71.0417 -48.5332 241 255 14
-27.253 69.4526 -49.7205 235 255 20
-26.0085 67.1159 -50.7216 192 255 63
-24.3205 73.255 -50.8124 0 247 255
-24.6559 69.0566 -51.2106 24 255 231
-24.6132 65.261 -51.4849 117 255 138
-23.3944 63.3193 -51.9679 0 148 255
-24.0811 47.1864 -50.4351 0 175 255
-26.8661 53.0196 -49.6718 255 236 0
-25.2403 51.4356 -50.4592 220 255 35
-23.6156 50.3384 -51.092 20 255 235
-23.1548 53.4904 -51.6319 96 255 159
-22.4828 55.8924 -52.0563 0 140 255
-31.6083 89.0007 -19.5046 0 0 200
-32.0082 87.3286 -18.819 0 0 200
-31.6351 88.7182 -17.7704 0 0 156
-26.5794 101.583 -21.3611 0 0 175
-25.8659 102.522 -21.669 0 0 175
-26.3417 101.673 -23.1111 0 0 206
-27.2169 100.638 -21.0526 0 0 143
-26.5794 101.583 -21.3611 0 0 143
-27.6615 99.7161 -22.1884 0 0 205
-27.8232 99.6196 -20.4378 0 0 174
-27.2169 100.638 -21.0526 0 0 174
-22.4198 92.8832 -44.0768 0 0 169
-22.9091 93.8348 -43.0943 0 0 197
-21.8221 94.414 -43.2384 0 0 169
-33.5777 53.6399 -41.4823 0 0 155
-34.0745 54.2281 -40.4881 0 0 155
-34.2398 74.45 -32.6344 0 0 239
-34.5975 72.8515 -31.8877 0 0 197
-34.3287 74.9117 -31.1924 0 0 197
-34.9686 57.8648 -37.9049 0 0 160
-34.919 55.2311 -38.3186 0 0 160
-33.1283 82.6802 -21.7831 0 0 160
-32.7548 84.29 -20.8108 0 0 160
-33.1287 82.7016 -23.4128 0 0 158
-33.1283 82.6802 -21.7831 0 0 158
-24.0343 87.8855 -46.2921 0 0 197
-23.4884 89.5947 -45.6324 0 0 169
-22.9763 88.5762 -46.4747 0 0 169
-23.4959 74.0878 -50.9341 0 0 164
-24.1031 75.3435 -50.4959 0 0 190
-23.2785 76.1763 -50.6176 0 0 164
-23.9697 68.1122 -51.5177 0 0 181
-23.8542 69.9919 -51.3727 0 0 159
-23.168 69.0475 -51.6798 0 0 159
-31.9035 51.6409 -44.2713 0 0 188
-32.4928 52.2305 -43.3718 0 0 188
-32.2471 54.1289 -43.9782 0 0 226
-31.0131 46.3499 -44.6513 0 0 147
-30.3116 45.7875 -45.357 0 0 147
-25.1942 46.183 -49.6669 0 0 169
-25.3058 44.3339 -49.278 0 0 169
-26.0068 46.5622 -49.2522 0 0 197
-24.9881 47.7988 -50.0381 0 0 198
-24.2872 45.5705 -50.0639 0 0 170
-25.1942 46.183 -49.6669 0 0 170
-22.4076 58.8173 -52.2083 0 0 146
-22.1093 56.9209 -52.2067 0 0 146
-22.7812 57.7887 -52.0579 0 0 162
-20.8552 51.8563 -52.1181 0 0 129
-21.3457 53.4216 -52.1487 0 0 129
-34.0521 76.7793 -30.3963 0 0 155
-34.3287 74.9117 -31.1924 0 0 155
-24.1273 101.9 -31.2963 0 0 199
-23.5338 102.913 -29.9731 0 0 170
-23.1837 102.585 -31.4929 0 0 170
-34.3351 69.333 -36.6378 0 0 245
-34.718 67.5746 -35.8566 0 0 201
-34.5343 69.922 -35.3321 0 0 201
-32.3726 85.8719 -19.8147 0 0 158
-32.0082 87.3286 -18.819 0 0 158
-32.3636 86.0291 -21.5493 0 0 252
-32.7548 84.29 -20.8108 0 0 205
-32.3726 85.8719 -19.8147 0 0 205
-25.0581 103.409 -22.02 0 0 142
-24.7842 103.441 -23.6439 0 0 142
-25.0581 103.409 -22.02 0 0 144
-25.8659 102.522 -21.669 0 0 144
-28.4065 98.4937 -19.9423 0 0 143
-27.8232 99.6196 -20.4378 0 0 143
-28.8509 97.3837 -21.1577 0 0 148
-28.4065 98.4937 -19.9423 0 0 148
-22.5377 67.7982 -51.9381 0 0 134
-23.168 69.0475 -51.6798 0 0 134
-22.6432 66.0021 -52.0338 0 0 133
-22.5377 67.7982 -51.9381 0 0 133
-29.5958 45.2488 -46.0602 0 0 181
-30.3116 45.7875 -45.357 0 0 181
-30.1278 47.6741 -45.9226 0 0 215
-28.7842 44.6805 -46.7186 0 0 148
-29.5958 45.2488 -46.0602 0 0 148
-27.9724 44.0565 -47.3356 0 0 181
-28.7842 44.6805 -46.7186 0 0 181
-28.6001 46.5114 -47.2428 0 0 215
-27.0928 43.4318 -47.8954 0 0 147
-27.9724 44.0565 -47.3356 0 0 147
-26.9534 45.3003 -48.3616 0 0 209
-26.2578 42.8446 -48.3971 0 0 177
-27.0928 43.4318 -47.8954 0 0 177
-21.3696 47.3762 -51.5045 0 0 136
-22.187 47.8115 -51.2928 0 0 136
-20.5585 46.9847 -51.6833 0 0 159
-21.3696 47.3762 -51.5045 0 0 159
-21.2255 49.0499 -51.739 0 0 182
-19.7617 46.8142 -51.8677 0 0 135
-20.5585 46.9847 -51.6833 0 0 135
-20.2738 50.1332 -52.0851 0 0 148
-20.9958 50.3815 -51.9508 0 0 165
-20.8552 51.8563 -52.1181 0 0 148
-19.6345 48.3518 -52.0417 0 0 132
-20.2738 50.1332 -52.0851 0 0 132
-19.7617 46.8142 -51.8677 0 0 133
-19.6345 48.3518 -52.0417 0 0 133
-34.8941 70.5709 -32.4467 0 0 161
-34.5975 72.8515 -31.8877 0 0 161
-34.7129 70.2767 -33.9404 0 0 160
-34.8941 70.5709 -32.4467 0 0 160
-34.3299 72.0351 -34.7216 0 0 243
-34.5343 69.922 -35.3321 0 0 199
-34.7129 70.2767 -33.9404 0 0 199
-23.8606 103.174 -28.4446 0 0 141
-23.5338 102.913 -29.9731 0 0 141
-24.1081 103.398 -26.8933 0 0 168
-23.8606 103.174 -28.4446 0 0 168
-24.7248 102.453 -28.2252 0 0 196
-24.4562 103.474 -25.2713 0 0 169
-23.5921 104.194 -25.4908 0 0 141
-24.1081 103.398 -26.8933 0 0 169
-25.3003 102.645 -25.0464 0 0 201
-24.7842 103.441 -23.6439 0 0 171
-24.4562 103.474 -25.2713 0 0 171
-22.4787 87.501 -47.2263 0 0 139
-22.9763 88.5762 -46.4747 0 0 139
-22.8824 85.8384 -47.8253 0 0 139
-22.4787 87.501 -47.2263 0 0 139
-23.2259 84.1081 -48.3947 0 0 165
-23.8657 85.1367 -47.7037 0 0 192
-22.8824 85.8384 -47.8253 0 0 165
-23.6533 82.3118 -48.8738 0 0 138
-23.2259 84.1081 -48.3947 0 0 138
-24.0766 80.4496 -49.2718 0 0 166
-24.6324 81.5442 -48.6711 0 0 193
-23.6533 82.3118 -48.8738 0 0 166
-23.4916 79.3246 -49.8269 0 0 167
-24.4707 78.557 -49.6243 0 0 194
-24.0766 80.4496 -49.2718 0 0 167
-22.9084 78.1381 -50.304 0 0 139
-23.4916 79.3246 -49.8269 0 0 139
-23.2785 76.1763 -50.6176 0 0 140
-22.9084 78.1381 -50.304 0 0 140
-22.7111 102.226 -32.9517 0 0 143
-23.1837 102.585 -31.4929 0 0 143
-23.3256 101.141 -34.2082 0 0 142
-22.7111 102.226 -32.9517 0 0 142
-23.9014 99.9519 -35.3817 0 0 173
-24.353 100.382 -33.9895 0 0 203
-23.3256 101.141 -34.2082 0 0 173
-23.506 99.451 -36.6757 0 0 170
-24.5334 98.6912 -36.457 0 0 199
-23.9014 99.9519 -35.3817 0 0 170
-23.0605 98.8384 -37.9582 0 0 142
-23.506 99.451 -36.6757 0 0 142
-22.6164 98.2051 -39.1377 0 0 168
-23.6939 97.5569 -38.9306 0 0 195
-23.0605 98.8384 -37.9582 0 0 168
-22.1245 97.5179 -40.2336 0 0 140
-22.6164 98.2051 -39.1377 0 0 140
-21.6553 96.7389 -41.3065 0 0 168
-22.7806 96.1446 -41.183 0 0 196
-22.1245 97.5179 -40.2336 0 0 168
-21.2286 95.7804 -42.3894 0 0 140
-21.6553 96.7389 -41.3065 0 0 140
-21.8221 94.414 -43.2384 0 0 139
-21.2286 95.7804 -42.3894 0 0 139
-34.4845 54.7249 -39.4441 0 0 157
-34.919 55.2311 -38.3186 0 0 157
-34.2056 56.7408 -40.1548 0 0 236
-34.0745 54.2281 -40.4881 0 0 195
-34.4845 54.7249 -39.4441 0 0 195
-34.889 65.1351 -36.3483 0 0 159
-34.718 67.5746 -35.8566 0 0 159
-34.9778 62.6811 -36.8438 0 0 207
-34.889 65.1351 -36.3483 0 0 207
-34.6076 64.5316 -37.6577 0 0 254
-35.0089 60.2849 -37.4261 0 0 158
-34.9778 62.6811 -36.8438 0 0 158
-34.656 59.6575 -38.632 0 0 241
-34.9686 57.8648 -37.9049 0 0 198
-35.0089 60.2849 -37.4261 0 0 198
-29.3254 96.1675 -22.4815 0 0 189
-28.8509 97.3837 -21.1577 0 0 189
-28.7423 97.4813 -22.8973 0 0 227
-29.8229 94.913 -21.8722 0 0 183
-29.3254 96.1675 -22.4815 0 0 183
-29.7143 95.0106 -23.6119 0 0 219
-30.3194 93.4945 -21.2495 0 0 151
-29.8229 94.913 -21.8722 0 0 151
-30.7864 92.0174 -20.7373 0 0 193
-30.3194 93.4945 -21.2495 0 0 193
-30.6789 92.2789 -22.4904 0 0 233
-31.1905 90.5961 -20.2171 0 0 152
-30.7864 92.0174 -20.7373 0 0 152
-31.5636 89.2065 -21.2657 0 0 241
-31.6083 89.0007 -19.5046 0 0 198
-31.1905 90.5961 -20.2171 0 0 198
-33.1244 82.6359 -25.0676 0 0 203
-33.1287 82.7016 -23.4128 0 0 203
-32.7416 84.3814 -24.2002 0 0 248
-33.4895 80.8526 -25.8658 0 0 200
-33.1244 82.6359 -25.0676 0 0 200
-33.1024 82.5324 -26.6531 0 0 244
-33.8273 79.1245 -26.6239 0 0 155
-33.4895 80.8526 -25.8658 0 0 155
-33.8003 78.8987 -28.1524 0 0 155
-33.8273 79.1245 -26.6239 0 0 155
-33.7298 78.7843 -29.6156 0 0 196
-33.8003 78.8987 -28.1524 0 0 196
-33.397 80.6347 -28.9145 0 0 238
-33.6487 78.5153 -31.1584 0 0 250
-34.0521 76.7793 -30.3963 0 0 204
-33.7298 78.7843 -29.6156 0 0 204
-22.9687 91.2947 -44.8739 0 0 141
-22.4198 92.8832 -44.0768 0 0 141
-24.0266 90.604 -44.6913 0 0 201
-22.9687 91.2947 -44.8739 0 0 172
-23.4884 89.5947 -45.6324 0 0 172
-23.6865 72.0911 -51.1735 0 0 137
-23.4959 74.0878 -50.9341 0 0 137
-24.4882 71.1558 -51.0115 0 0 189
-23.6865 72.0911 -51.1735 0 0 163
-23.8542 69.9919 -51.3727 0 0 163
-22.6986 64.0779 -52.1053 0 0 154
-23.339 65.2436 -51.8963 0 0 175
-22.6432 66.0021 -52.0338 0 0 154
-22.6829 62.3041 -52.1566 0 0 133
-22.6986 64.0779 -52.1053 0 0 133
-22.5255 60.4869 -52.2025 0 0 149
-23.237 61.5022 -52.0137 0 0 167
-22.6829 62.3041 -52.1566 0 0 149
-22.4076 58.8173 -52.2083 0 0 129
-22.5255 60.4869 -52.2025 0 0 129
-33.0981 52.8771 -42.4222 0 0 190
-33.5777 53.6399 -41.4823 0 0 190
-33.316 55.4812 -42.1388 0 0 228
-33.0981 52.8771 -42.4222 0 0 152
-32.4928 52.2305 -43.3718 0 0 152
-31.4964 48.9777 -44.4421 0 0 188
-31.9035 51.6409 -44.2713 0 0 188
-31.2507 50.8761 -45.0485 0 0 225
-31.4964 48.9777 -44.4421 0 0 149
-31.0131 46.3499 -44.6513 0 0 149
-25.4253 42.4503 -48.8536 0 0 143
-26.2578 42.8446 -48.3971 0 0 143
-25.4253 42.4503 -48.8536 0 0 142
-25.3058 44.3339 -49.278 0 0 142
-23.3928 45.0391 -50.4018 0 0 140
-24.2872 45.5705 -50.0639 0 0 140
-23.2093 46.6839 -50.7303 0 0 139
-23.3928 45.0391 -50.4018 0 0 139
-22.9765 48.26 -51.0587 0 0 164
-23.2093 46.6839 -50.7303 0 0 164
-23.8484 48.7624 -50.7635 0 0 189
-22.8261 49.8899 -51.3261 0 0 181
-22.187 47.8115 -51.2928 0 0 158
-22.9765 48.26 -51.0587 0 0 158
-21.7985 55.3155 -52.185 0 0 146
-21.3457 53.4216 -52.1487 0 0 146
-22.03 53.9985 -52.02 0 0 163
-21.7985 55.3155 -52.185 0 0 128
-22.1093 56.9209 -52.2067 0 0 128
3 0 42 40
3 0 44 42
3 0 46 44
3 1 49 47
3 1 51 49
3 3 54 52
3 3 56 54
3 161 57 162
3 161 162 163
3 4 164 166
3 166 165 58
3 164 165 166
3 4 167 168
3 4 169 171
3 169 59 170
3 169 170 171
3 5 62 60
3 5 64 62
3 5 66 64
3 6 69 67
3 6 71 69
3 172 74 173
3 174 173 72
3 172 173 174
3 7 77 75
3 7 79 77
3 7 81 79
3 2 175 176
3 9 84 82
3 9 85 84
3 9 87 85
3 8 90 88
3 8 92 90
3 10 94 93
3 11 177 179
3 177 95 178
3 177 178 179
3 11 96 95
3 12 97 41
3 12 98 97
3 12 100 98
3 14 101 43
3 14 102 101
3 14 104 102
3 16 105 45
3 16 106 105
3 18 110 108
3 20 111 48
3 20 112 111
3 20 114 112
3 22 115 50
3 22 116 115
3 180 118 181
3 24 119 53
3 24 120 119
3 24 121 120
3 25 122 55
3 25 123 122
3 26 182 183
3 26 184 185
3 13 124 99
3 27 125 61
3 27 126 125
3 27 127 126
3 28 128 63
3 28 129 128
3 28 130 129
3 29 131 65
3 29 132 131
3 15 133 103
3 30 134 68
3 30 135 134
3 30 136 135
3 31 137 70
3 31 138 137
3 23 139 117
3 32 140 73
3 32 141 140
3 17 186 188
3 186 142 187
3 186 187 188
3 33 143 76
3 33 144 143
3 33 145 144
3 34 146 78
3 34 147 146
3 34 148 147
3 35 149 80
3 35 150 149
3 189 151 190
3 191 190 107
3 189 190 191
3 36 192 194
3 192 152 193
3 192 193 194
3 36 153 152
3 36 154 153
3 19 195 197
3 197 196 109
3 195 196 197
3 199 198 83
3 38 200 202
3 202 201 86
3 200 201 202
3 38 203 205
3 203 155 204
3 203 204 205
3 21 156 113
3 39 157 89
3 39 158 157
3 39 159 158
3 37 160 91
3 37 206 208
3 208 207 160
3 206 207 208
3 210 209 10
3 211 11 212
3 40 213 215
3 213 41 214
3 213 214 215
3 42 41 40
3 42 12 41
3 42 43 12
3 44 43 42
3 44 14 43
3 44 45 14
3 46 45 44
3 46 16 45
3 47 48 18
3 49 48 47
3 49 20 48
3 49 50 20
3 51 50 49
3 51 22 50
3 52 216 218
3 216 53 217
3 216 217 218
3 54 53 52
3 54 24 53
3 54 55 24
3 56 55 54
3 56 25 55
3 57 219 220
3 57 221 223
3 221 26 222
3 221 222 223
3 58 224 225
3 227 226 58
3 59 228 229
3 59 230 231
3 60 61 13
3 62 61 60
3 62 27 61
3 62 63 27
3 64 63 62
3 64 28 63
3 64 65 28
3 66 65 64
3 66 29 65
3 67 68 15
3 69 68 67
3 69 30 68
3 69 70 30
3 71 70 69
3 71 31 70
3 72 73 23
3 74 73 72
3 74 32 73
3 75 76 17
3 77 76 75
3 77 33 76
3 77 78 33
3 79 78 77
3 79 34 78
3 79 80 34
3 81 80 79
3 81 35 80
3 232 36 233
3 235 234 36
3 82 83 19
3 84 83 82
3 84 236 238
3 238 237 83
3 236 237 238
3 84 239 240
3 85 241 243
3 243 242 84
3 241 242 243
3 85 244 245
3 85 246 248
3 246 86 247
3 246 247 248
3 87 86 85
3 87 38 86
3 88 89 21
3 90 89 88
3 90 39 89
3 90 91 39
3 92 91 90
3 92 37 91
3 93 249 250
3 94 251 253
3 253 252 93
3 251 252 253
3 94 254 255
3 256 94 257
3 258 257 10
3 256 257 258
3 259 94 260
3 262 261 94
3 95 263 264
3 95 265 266
3 95 267 269
3 267 52 268
3 267 268 269
3 96 52 95
3 96 3 52
3 41 270 271
3 97 272 274
3 274 273 41
3 272 273 274
3 97 275 277
3 275 276 277
3 97 278 280
3 278 58 279
3 278 279 280
3 98 58 97
3 98 4 58
3 98 99 4
3 100 99 98
3 100 13 99
3 43 100 12
3 101 100 43
3 101 13 100
3 101 60 13
3 102 60 101
3 102 5 60
3 102 103 5
3 104 103 102
3 104 15 103
3 45 104 14
3 105 104 45
3 105 15 104
3 105 67 15
3 106 67 105
3 106 6 67
3 281 17 282
3 283 17 284
3 285 75 286
3 287 286 17
3 285 286 287
3 288 75 289
3 290 7 291
3 292 291 75
3 290 291 292
3 293 107 294
3 295 294 7
3 293 294 295
3 296 107 297
3 299 298 107
3 108 109 2
3 110 109 108
3 110 19 109
3 48 110 18
3 111 110 48
3 111 19 110
3 111 82 19
3 112 82 111
3 112 9 82
3 112 113 9
3 114 113 112
3 114 21 113
3 50 114 20
3 115 114 50
3 115 21 114
3 115 88 21
3 116 88 115
3 116 8 88
3 300 40 301
3 302 40 303
3 304 0 305
3 306 305 40
3 304 305 306
3 307 117 308
3 309 308 0
3 307 308 309
3 310 117 311
3 312 23 313
3 314 313 117
3 312 313 314
3 315 23 316
3 317 72 318
3 319 318 23
3 317 318 319
3 320 72 321
3 323 322 72
3 118 324 325
3 118 326 328
3 326 2 327
3 326 327 328
3 53 329 330
3 119 331 333
3 333 332 53
3 331 332 333
3 119 334 335
3 119 336 338
3 336 118 337
3 336 337 338
3 120 118 119
3 120 2 118
3 120 108 2
3 121 108 120
3 121 18 108
3 55 121 24
3 122 121 55
3 122 18 121
3 122 47 18
3 123 47 122
3 123 1 47
3 99 59 4
3 124 59 99
3 124 339 341
3 341 340 59
3 339 340 341
3 61 124 13
3 125 124 61
3 125 342 344
3 344 343 124
3 342 343 344
3 125 345 346
3 126 347 349
3 349 348 125
3 347 348 349
3 126 350 351
3 126 352 354
3 352 57 353
3 352 353 354
3 127 57 126
3 127 26 57
3 63 127 27
3 128 127 63
3 128 26 127
3 128 355 357
3 357 356 26
3 355 356 357
3 129 358 360
3 360 359 128
3 358 359 360
3 129 361 362
3 129 363 364
3 130 365 367
3 367 366 129
3 365 366 367
3 130 368 370
3 368 11 369
3 368 369 370
3 65 130 28
3 131 130 65
3 131 11 130
3 131 96 11
3 132 96 131
3 132 3 96
3 103 66 5
3 133 66 103
3 133 29 66
3 68 133 15
3 134 133 68
3 134 29 133
3 134 132 29
3 135 132 134
3 135 3 132
3 135 56 3
3 136 56 135
3 136 25 56
3 70 136 30
3 137 136 70
3 137 25 136
3 137 123 25
3 138 123 137
3 138 1 123
3 117 46 0
3 139 46 117
3 139 16 46
3 73 139 23
3 140 139 73
3 140 16 139
3 140 106 16
3 141 106 140
3 141 6 106
3 371 74 372
3 142 373 375
3 373 74 374
3 373 374 375
3 142 32 74
3 76 142 17
3 143 142 76
3 143 32 142
3 143 141 32
3 144 141 143
3 144 6 141
3 144 71 6
3 145 71 144
3 145 31 71
3 78 145 33
3 146 145 78
3 146 31 145
3 146 138 31
3 147 138 146
3 147 1 138
3 147 51 1
3 148 51 147
3 148 22 51
3 80 148 34
3 149 148 80
3 149 22 148
3 149 116 22
3 150 116 149
3 150 8 116
3 107 81 7
3 151 81 107
3 151 35 81
3 376 151 377
3 152 378 380
3 378 151 379
3 378 379 380
3 152 35 151
3 152 150 35
3 153 150 152
3 153 8 150
3 153 92 8
3 154 92 153
3 154 37 92
3 381 154 382
3 383 382 36
3 381 382 383
3 384 154 385
3 386 37 387
3 388 387 154
3 386 387 388
3 390 389 37
3 109 391 393
3 393 392 2
3 391 392 393
3 395 394 109
3 83 396 398
3 398 397 19
3 396 397 398
3 400 399 83
3 86 401 402
3 404 403 86
3 155 405 406
3 155 407 408
3 113 87 9
3 156 87 113
3 156 38 87
3 89 156 21
3 157 156 89
3 157 38 156
3 157 155 38
3 158 155 157
3 158 409 411
3 411 410 155
3 409 410 411
3 158 412 414
3 412 93 413
3 412 413 414
3 159 93 158
3 159 10 93
3 91 159 39
3 160 159 91
3 160 10 159
3 160 415 417
3 417 416 10
3 415 416 417
3 419 418 160
