ply
format ascii 1.0
element vertex 195
property float x
property float y
property float z
property uchar red
property uchar green
property uchar blue
element face 181
property list uchar int vertex_index
end_header
38.9459 -7.81984 16.2559 235 255 20
38.1105 -0.652609 9.12861 0 249 255
40.3484 1.18938 15.8949 255 24 0
38.7964 -5.07682 23.1406 78 255 177
40.5712 4.81153 12.3716 222 255 33
40.7333 5.50838 15.519 156 255 99
38.6542 -4.30408 12.5844 145 0 0
39.7447 0.29053 12.514 255 158 0
39.7013 -3.10879 16.0914 173 0 0
40.0177 2.60357 18.9523 22 255 233
39.7502 -1.98253 19.4469 255 218 0
39.3316 -6.45383 19.8323 248 0 0
38.6247 -9.63506 23.3864 217 255 38
40.882 7.02357 13.9868 0 194 255
38.8452 -6.06147 14.4444 255 131 0
38.1649 -6.56732 12.6862 101 255 154
40.5194 3.00805 14.0267 255 45 0
40.2139 2.65238 12.3861 255 225 0
40.1782 0.781147 14.1833 217 0 0
39.727 -1.5487 14.1963 193 0 0
40.0433 -0.959059 15.9481 231 0 0
39.3073 -3.56421 21.3393 194 255 61
39.5528 -4.18675 19.6337 241 0 0
39.1808 -5.79869 21.4544 227 0 0
38.5526 -11.9459 23.346 0 213 255
38.8905 -10.3084 21.6478 210 255 45
40.8012 6.83508 12.459 0 230 255
40.7605 5.0727 13.9806 255 145 0
40.5913 3.40883 15.6358 255 85 0
38.4098 -2.53429 10.8325 255 140 0
37.8234 -4.9507 10.9993 101 255 154
40.1512 4.58067 10.7315 0 192 255
39.0324 -0.181984 10.7553 251 255 4
39.1789 -2.01308 12.4609 157 0 0
39.2936 -3.71968 14.3153 139 0 0
39.3101 -5.5346 16.262 128 0 0
40.4867 5.99592 16.9123 0 117 255
40.4338 3.92101 17.1849 193 255 62
40.2974 1.80794 17.4594 255 66 0
39.9148 0.348941 19.2396 155 255 100
40.0992 -0.332428 17.6743 255 13 0
39.8359 -2.62415 17.8131 226 0 0
39.5339 -4.96681 18.0252 200 0 0
39.2557 -7.18304 18.1226 204 0 0
38.6738 -7.30241 23.446 218 255 37
39.0236 -7.9692 21.6627 199 0 0
39.1273 -8.66573 19.8766 255 190 0
38.9918 -9.38786 18.0494 90 255 165
38.6802 -8.06528 15.3237 0 0 192
38.6299 -7.1861 14.418 0 0 192
38.8956 -6.94066 15.3502 0 0 236
38.7814 -8.96043 16.1964 0 0 149
38.6802 -8.06528 15.3237 0 0 149
37.5902 -0.742507 8.34286 0 0 149
37.9666 0.395359 8.33246 0 0 149
39.0519 -4.32051 22.24 0 0 226
39.045 -3.24432 22.2419 0 0 186
38.7895 -4.00062 23.1426 0 0 186
38.5418 -12.9949 23.2066 0 0 142
38.345 -12.7232 24.0944 0 0 142
38.6753 -12.2251 22.3701 0 0 145
38.5418 -12.9949 23.2066 0 0 145
40.8353 7.8114 12.5878 0 0 138
40.748 7.81015 11.7416 0 0 138
37.7231 -6.81779 11.8187 0 0 150
37.9304 -7.7285 12.6619 0 0 150
40.3612 4.6961 11.5515 0 0 214
40.328 5.64959 10.7788 0 0 178
40.538 5.76502 11.5989 0 0 178
39.7099 1.27974 11.6507 0 0 186
39.9445 2.46066 11.5867 0 0 186
39.9793 1.47145 12.45 0 0 227
39.3886 0.054273 11.6346 0 0 245
39.3538 1.04348 10.7713 0 0 198
39.7099 1.27974 11.6507 0 0 198
40.2306 6.27235 17.644 0 0 134
40.4529 6.89448 16.8074 0 0 134
40.2257 3.26229 18.0686 0 0 206
40.2391 4.30175 17.9153 0 0 173
40.0311 3.64303 18.799 0 0 173
39.8325 -0.816797 19.3433 0 0 231
39.664 -0.463763 20.1877 0 0 189
39.5817 -1.6295 20.2913 0 0 189
38.3518 -9.31442 24.3261 0 0 146
38.3669 -10.3749 24.2554 0 0 146
38.6492 -8.46874 23.4162 0 0 241
38.3764 -8.1481 24.3559 0 0 196
38.3518 -9.31442 24.3261 0 0 196
39.0336 -9.84046 19.8675 0 0 189
39.0089 -9.48706 20.7622 0 0 231
38.9152 -10.6618 20.7531 0 0 189
38.9659 -10.2015 18.9539 0 0 191
39.0596 -9.02679 18.963 0 0 234
39.0336 -9.84046 19.8675 0 0 191
38.8847 -10.4986 18.0112 0 0 147
38.9659 -10.2015 18.9539 0 0 147
40.8596 7.8383 14.1541 0 0 132
40.8757 7.90564 13.3518 0 0 132
40.8218 7.19156 14.7013 0 0 128
40.8596 7.8383 14.1541 0 0 128
40.7475 6.43396 15.4674 0 0 159
40.8076 6.26597 14.7529 0 0 186
40.8218 7.19156 14.7013 0 0 159
38.2897 -7.43902 13.5388 0 0 189
38.5051 -6.3144 13.5653 0 0 231
38.6299 -7.1861 14.418 0 0 189
37.9304 -7.7285 12.6619 0 0 149
38.2897 -7.43902 13.5388 0 0 149
39.7504 2.92334 19.712 0 0 141
40.0311 3.64303 18.799 0 0 141
39.3603 -2.42034 21.2375 0 0 150
39.045 -3.24432 22.2419 0 0 150
39.5288 -2.77337 20.3931 0 0 228
39.5817 -1.6295 20.2913 0 0 187
39.3603 -2.42034 21.2375 0 0 187
38.3309 -11.5303 24.2352 0 0 147
38.345 -12.7232 24.0944 0 0 147
38.5887 -10.7905 23.3662 0 0 232
38.3669 -10.3749 24.2554 0 0 190
38.3309 -11.5303 24.2352 0 0 190
38.8442 -11.4063 21.521 0 0 189
38.7216 -11.1271 22.4969 0 0 231
38.6753 -12.2251 22.3701 0 0 189
38.9152 -10.6618 20.7531 0 0 143
38.8442 -11.4063 21.521 0 0 143
40.653 6.7768 11.6426 0 0 139
40.748 7.81015 11.7416 0 0 139
40.6862 5.82331 12.4153 0 0 206
40.538 5.76502 11.5989 0 0 172
40.653 6.7768 11.6426 0 0 172
40.8416 6.92932 13.2229 0 0 193
40.8353 7.8114 12.5878 0 0 164
40.8757 7.90564 13.3518 0 0 164
37.9535 -2.79016 10.0941 0 0 190
37.8038 -1.84932 9.24217 0 0 190
38.2601 -1.59345 9.98056 0 0 233
37.6603 -3.99836 10.1775 0 0 190
37.9535 -2.79016 10.0941 0 0 190
38.1166 -3.74249 10.9159 0 0 232
37.3226 -5.08363 10.1439 0 0 149
37.6603 -3.99836 10.1775 0 0 149
37.5524 -6.00948 10.9753 0 0 187
37.9941 -5.75901 11.8427 0 0 228
37.7231 -6.81779 11.8187 0 0 187
37.3226 -5.08363 10.1439 0 0 147
37.5524 -6.00948 10.9753 0 0 147
38.4818 -4.7028 23.982 0 0 144
38.7895 -4.00062 23.1426 0 0 144
38.4733 0.525608 9.14635 0 0 151
37.9666 0.395359 8.33246 0 0 151
40.0687 5.59696 9.95683 0 0 142
40.328 5.64959 10.7788 0 0 142
39.8182 4.43513 9.91453 0 0 146
40.0687 5.59696 9.95683 0 0 146
39.9131 3.42481 10.7594 0 0 184
40.1825 3.61652 11.5588 0 0 223
39.9445 2.46066 11.5867 0 0 184
39.8182 4.43513 9.91453 0 0 146
39.9131 3.42481 10.7594 0 0 146
38.9343 0.76092 9.95968 0 0 149
39.3538 1.04348 10.7713 0 0 149
38.5714 -0.417297 9.94194 0 0 237
38.4733 0.525608 9.14635 0 0 193
38.9343 0.76092 9.95968 0 0 193
37.5902 -0.742507 8.34286 0 0 152
37.8038 -1.84932 9.24217 0 0 152
40.6242 6.67774 16.1641 0 0 130
40.4529 6.89448 16.8074 0 0 130
40.61 5.75215 16.2156 0 0 185
40.7475 6.43396 15.4674 0 0 159
40.6242 6.67774 16.1641 0 0 159
40.2656 5.33921 17.779 0 0 136
40.2306 6.27235 17.644 0 0 136
40.4602 4.95846 17.0486 0 0 206
40.2656 5.33921 17.779 0 0 172
40.2391 4.30175 17.9153 0 0 172
39.7587 1.84023 19.8572 0 0 142
39.7504 2.92334 19.712 0 0 142
39.7072 0.712911 20.0009 0 0 145
39.664 -0.463763 20.1877 0 0 145
39.9662 1.47626 19.0959 0 0 218
39.7587 1.84023 19.8572 0 0 181
39.7072 0.712911 20.0009 0 0 181
38.4657 -5.83833 24.1019 0 0 148
38.4818 -4.7028 23.982 0 0 148
38.4044 -6.95113 24.2546 0 0 148
38.3764 -8.1481 24.3559 0 0 148
38.7351 -6.18962 23.2933 0 0 226
38.4657 -5.83833 24.1019 0 0 186
38.4044 -6.95113 24.2546 0 0 186
38.8043 -9.74444 17.0931 0 0 192
38.7814 -8.96043 16.1964 0 0 192
38.9689 -8.60385 17.1527 0 0 236
38.8043 -9.74444 17.0931 0 0 148
38.8847 -10.4986 18.0112 0 0 148
3 0 48 50
3 50 49 14
3 48 49 50
3 0 51 52
3 2 18 16
3 2 20 18
3 1 53 54
3 3 55 57
3 55 21 56
3 55 56 57
3 3 23 21
3 58 24 59
3 61 60 24
3 62 26 63
3 5 27 13
3 5 28 27
3 6 30 29
3 65 64 15
3 4 66 68
3 66 31 67
3 66 67 68
3 7 69 71
3 71 70 17
3 69 70 71
3 7 72 74
3 72 32 73
3 72 73 74
3 7 33 32
3 8 34 19
3 8 35 34
3 75 36 76
3 9 77 79
3 77 37 78
3 77 78 79
3 9 38 37
3 10 80 82
3 80 39 81
3 80 81 82
3 10 40 39
3 10 41 40
3 11 42 22
3 11 43 42
3 12 83 84
3 12 85 87
3 85 44 86
3 85 86 87
3 12 45 44
3 88 46 89
3 90 89 25
3 88 89 90
3 91 47 92
3 93 92 46
3 91 92 93
3 95 94 47
3 96 13 97
3 98 13 99
3 100 5 101
3 102 101 13
3 100 101 102
3 14 15 6
3 103 15 104
3 105 104 14
3 103 104 105
3 107 106 15
3 16 17 4
3 18 17 16
3 18 7 17
3 18 19 7
3 20 19 18
3 20 8 19
3 108 9 109
3 21 110 111
3 21 112 114
3 112 10 113
3 112 113 114
3 21 22 10
3 23 22 21
3 23 11 22
3 24 115 116
3 24 117 119
3 117 12 118
3 117 118 119
3 24 25 12
3 120 25 121
3 122 121 24
3 120 121 122
3 124 123 25
3 26 125 126
3 26 127 129
3 127 4 128
3 127 128 129
3 13 130 132
3 130 26 131
3 130 131 132
3 27 26 13
3 27 4 26
3 27 16 4
3 28 16 27
3 28 2 16
3 29 133 135
3 135 134 1
3 133 134 135
3 30 136 138
3 138 137 29
3 136 137 138
3 30 139 140
3 15 30 6
3 141 30 142
3 143 142 15
3 141 142 143
3 145 144 30
3 146 3 147
3 148 1 149
3 31 150 151
3 31 152 153
3 17 31 4
3 154 31 155
3 156 155 17
3 154 155 156
3 158 157 31
3 32 159 160
3 32 161 163
3 161 1 162
3 161 162 163
3 32 29 1
3 33 29 32
3 33 6 29
3 19 33 7
3 34 33 19
3 34 6 33
3 34 14 6
3 35 14 34
3 35 0 14
3 165 164 1
3 36 166 167
3 36 168 170
3 168 5 169
3 168 169 170
3 171 36 172
3 37 173 175
3 173 36 174
3 173 174 175
3 37 5 36
3 37 28 5
3 38 28 37
3 38 2 28
3 176 9 177
3 39 178 179
3 39 180 182
3 180 9 181
3 180 181 182
3 39 38 9
3 40 38 39
3 40 2 38
3 40 20 2
3 41 20 40
3 41 8 20
3 22 41 10
3 42 41 22
3 42 8 41
3 42 35 8
3 43 35 42
3 43 0 35
3 183 3 184
3 44 185 186
3 44 187 189
3 187 3 188
3 187 188 189
3 44 23 3
3 45 23 44
3 45 11 23
3 25 45 12
3 46 45 25
3 46 11 45
3 46 43 11
3 47 43 46
3 47 0 43
3 47 190 192
3 192 191 0
3 190 191 192
3 194 193 47
