ply
format ascii 1.0
element vertex 85
property float x
property float y
property float z
property uchar red
property uchar green
property uchar blue
element face 66
property list uchar int vertex_index
end_header
20.5259 -77.8557 -29.9431 255 138 0
17.8357 -82.692 -26.306 255 124 0
19.4403 -78.6383 -32.0494 227 255 28
21.6971 -75.3448 -31.8578 89 255 166
20.7208 -75.8581 -33.7415 0 213 255
16.6674 -84.5936 -24.4083 111 255 144
16.8389 -83.6154 -28.6497 101 255 154
21.217 -77.3534 -27.7873 105 255 150
17.5188 -83.4628 -21.9995 0 229 255
18.838 -81.465 -23.847 250 255 5
20.0226 -79.5158 -25.7454 251 255 4
19.1128 -80.4877 -28.066 128 0 0
18.2229 -81.1409 -30.274 239 255 16
19.5077 -77.4788 -33.9398 0 0 176
20.0806 -77.2482 -32.8955 0 0 221
18.8675 -78.8689 -33.0937 0 0 176
21.5766 -76.2681 -29.8099 0 0 172
21.9222 -76.017 -28.7319 0 0 172
20.8714 -77.6045 -28.8652 0 0 215
22.8099 -73.7111 -31.5931 0 0 129
22.3745 -73.9183 -32.6489 0 0 129
16.4939 -84.9223 -22.1213 0 0 129
16.8426 -84.4072 -20.9466 0 0 129
16.9979 -82.7792 -30.4437 0 0 168
17.5309 -82.3782 -29.4619 0 0 210
16.3059 -84.0164 -29.6316 0 0 168
17.6402 -81.4928 -31.3331 0 0 131
16.9979 -82.7792 -30.4437 0 0 131
21.8863 -74.1749 -33.5907 0 0 168
22.3745 -73.9183 -32.6489 0 0 168
21.209 -75.6014 -32.7997 0 0 209
15.5753 -86.0972 -24.4775 0 0 130
16.0683 -85.4878 -23.3257 0 0 130
16.113 -85.2221 -25.5133 0 0 128
15.5753 -86.0972 -24.4775 0 0 128
16.6971 -84.2713 -26.4622 0 0 172
17.2515 -83.6428 -25.3571 0 0 215
16.113 -85.2221 -25.5133 0 0 172
16.1987 -84.733 -27.634 0 0 179
17.3373 -83.1537 -27.4779 0 0 226
16.6971 -84.2713 -26.4622 0 0 179
15.6536 -85.2129 -28.6823 0 0 130
16.1987 -84.733 -27.634 0 0 130
16.3059 -84.0164 -29.6316 0 0 128
15.6536 -85.2129 -28.6823 0 0 128
22.2552 -75.7342 -27.601 0 0 130
21.6606 -76.8136 -26.6402 0 0 130
22.2552 -75.7342 -27.601 0 0 131
21.9222 -76.017 -28.7319 0 0 131
22.1622 -75.0127 -30.7672 0 0 173
21.5766 -76.2681 -29.8099 0 0 173
21.1115 -76.6002 -30.9005 0 0 216
22.1622 -75.0127 -30.7672 0 0 129
22.8099 -73.7111 -31.5931 0 0 129
17.8282 -82.9479 -20.7689 0 0 130
16.8426 -84.4072 -20.9466 0 0 130
18.5222 -81.9399 -21.666 0 0 129
17.8282 -82.9479 -20.7689 0 0 129
17.0931 -84.0282 -23.2039 0 0 218
16.4939 -84.9223 -22.1213 0 0 174
16.0683 -85.4878 -23.3257 0 0 174
19.1818 -80.941 -22.5897 0 0 175
18.5222 -81.9399 -21.666 0 0 175
18.1784 -82.4639 -22.9233 0 0 219
19.7908 -80.0047 -23.5985 0 0 129
19.1818 -80.941 -22.5897 0 0 129
20.3831 -79.0301 -24.5477 0 0 168
19.7908 -80.0047 -23.5985 0 0 168
19.4303 -80.4904 -24.7962 0 0 210
21.0634 -77.8948 -25.6192 0 0 133
20.3831 -79.0301 -24.5477 0 0 133
20.6198 -78.4346 -26.7664 0 0 222
21.6606 -76.8136 -26.6402 0 0 176
21.0634 -77.8948 -25.6192 0 0 176
18.2489 -80.2415 -32.2208 0 0 174
18.8316 -79.8896 -31.1617 0 0 218
17.6402 -81.4928 -31.3331 0 0 174
18.8675 -78.8689 -33.0937 0 0 130
18.2489 -80.2415 -32.2208 0 0 130
20.1588 -75.997 -34.7202 0 0 129
19.5077 -77.4788 -33.9398 0 0 129
21.3317 -74.3685 -34.6242 0 0 130
20.1588 -75.997 -34.7202 0 0 130
21.8863 -74.1749 -33.5907 0 0 132
21.3317 -74.3685 -34.6242 0 0 132
3 13 4 14
3 15 14 2
3 13 14 15
3 0 16 18
3 18 17 7
3 16 17 18
3 20 19 3
3 21 8 22
3 1 9 5
3 1 10 9
3 1 11 10
3 23 12 24
3 25 24 6
3 23 24 25
3 27 26 12
3 2 3 0
3 4 3 2
3 4 28 30
3 30 29 3
3 28 29 30
3 31 5 32
3 33 5 34
3 35 1 36
3 37 36 5
3 35 36 37
3 38 6 39
3 40 39 1
3 38 39 40
3 41 6 42
3 44 43 6
3 7 45 46
3 48 47 7
3 3 49 51
3 51 50 0
3 49 50 51
3 53 52 3
3 8 54 55
3 8 56 57
3 5 58 60
3 58 8 59
3 58 59 60
3 9 8 5
3 9 61 63
3 63 62 8
3 61 62 63
3 9 64 65
3 10 66 68
3 68 67 9
3 66 67 68
3 10 69 70
3 10 71 73
3 71 7 72
3 71 72 73
3 11 7 10
3 11 0 7
3 6 11 1
3 12 11 6
3 12 0 11
3 12 2 0
3 74 2 75
3 76 75 12
3 74 75 76
3 78 77 2
3 79 4 80
3 81 4 82
3 84 83 4
