ply
format ascii 1.0
element vertex 172
property float x
property float y
property float z
property uchar red
property uchar green
property uchar blue
element face 149
property list uchar int vertex_index
end_header
40.0615 -1.1922 -46.0779 185 0 0
37.8644 11.3286 -49.1298 203 255 52
39.4159 2.07357 -50.6764 124 255 131
39.2418 5.3285 -47.527 149 0 0
38.2369 8.65785 -52.5002 108 255 147
36.391 14.9512 -53.9726 209 255 46
40.2234 -4.46548 -41.4825 255 235 0
40.1867 -5.36273 -48.366 0 238 255
39.718 1.69249 -42.9382 228 0 0
40.197 -2.85478 -43.7758 221 0 0
40.0214 -1.35282 -42.249 255 4 0
39.9298 0.289625 -44.5341 236 0 0
38.5993 8.55517 -48.399 255 171 0
39.0023 6.68013 -46.0011 211 255 44
36.9075 14.1224 -49.5399 79 255 176
35.2987 17.5526 -54.6255 0 212 255
34.2108 19.1865 -57.0268 0 91 255
39.828 0.230132 -48.3569 128 0 0
39.7278 1.96823 -46.8023 181 0 0
39.3854 3.73307 -49.1478 255 106 0
38.7769 7.22481 -50.055 255 124 0
38.0436 10.3413 -51.0084 159 0 0
37.1806 13.2483 -51.6069 180 0 0
37.3615 11.9508 -53.4622 235 255 20
40.35 -7.78108 -40.5879 0 185 255
40.3857 -6.22998 -42.7345 178 255 77
40.3337 -4.74945 -44.9605 212 255 43
40.1665 -3.24913 -47.2951 255 142 0
39.8481 -1.66526 -49.6797 255 255 0
40.0363 -3.06129 -40.0758 24 255 231
39.7961 -0.178334 -40.5258 155 255 100
39.4374 2.80335 -41.2456 50 255 205
39.5569 3.39852 -45.2749 196 0 0
39.2738 4.74253 -43.526 203 255 52
36.1967 15.8731 -51.9844 189 255 66
38.0922 10.4631 -47.868 0 0 171
38.4596 9.07637 -47.5026 0 0 171
38.2319 9.94189 -48.7644 0 0 211
37.6907 11.7635 -48.1378 0 0 132
38.0922 10.4631 -47.868 0 0 132
37.386 12.7255 -49.3349 0 0 217
37.2123 13.1604 -48.3428 0 0 175
37.6907 11.7635 -48.1378 0 0 175
34.2449 18.5474 -57.9957 0 0 134
34.7935 17.8703 -56.8394 0 0 134
33.5733 19.9282 -58.2223 0 0 137
34.2449 18.5474 -57.9957 0 0 137
38.5069 7.94133 -51.2776 0 0 228
38.8319 6.32646 -50.8408 0 0 183
38.5619 7.04298 -52.0634 0 0 183
40.3714 -9.44277 -40.0582 0 0 130
40.2932 -8.6477 -39.4639 0 0 130
40.4498 -7.30924 -43.3592 0 0 134
40.4419 -7.91128 -42.2722 0 0 134
40.4238 -6.56898 -44.4722 0 0 181
40.3597 -5.48972 -43.8475 0 0 225
40.4498 -7.30924 -43.3592 0 0 181
40.2974 -6.03249 -47.2435 0 0 136
40.2802 -7.11949 -47.8504 0 0 136
40.1766 -4.30593 -47.8306 0 0 216
40.2873 -4.9757 -46.708 0 0 175
40.2974 -6.03249 -47.2435 0 0 175
40.1298 -3.76339 -40.7792 0 0 206
40.1039 -4.6376 -39.6429 0 0 168
40.1975 -5.3397 -40.3462 0 0 168
38.974 6.20081 -43.8347 0 0 175
39.1381 5.71133 -44.7636 0 0 215
38.8382 7.16961 -45.0722 0 0 175
39.0821 5.2727 -42.662 0 0 132
38.974 6.20081 -43.8347 0 0 132
35.1418 17.9964 -53.5556 0 0 134
34.6813 18.786 -54.7543 0 0 134
39.1514 3.75083 -51.1515 0 0 137
39.1565 2.73026 -51.8322 0 0 137
38.2129 7.94609 -53.304 0 0 136
38.5619 7.04298 -52.0634 0 0 136
37.8413 9.52511 -53.7416 0 0 136
38.2129 7.94609 -53.304 0 0 136
40.1203 -6.53334 -48.9761 0 0 138
40.2802 -7.11949 -47.8504 0 0 138
39.9987 -4.64496 -49.5115 0 0 140
40.1203 -6.53334 -48.9761 0 0 140
38.6611 8.13885 -46.3037 0 0 173
38.8008 7.61765 -47.2001 0 0 212
38.4596 9.07637 -47.5026 0 0 173
38.8382 7.16961 -45.0722 0 0 134
38.6611 8.13885 -46.3037 0 0 134
36.7172 14.3964 -48.4779 0 0 131
37.2123 13.1604 -48.3428 0 0 131
36.3397 15.4369 -49.8289 0 0 136
36.7172 14.3964 -48.4779 0 0 136
35.3375 17.0533 -55.6387 0 0 178
35.8448 16.2519 -54.2991 0 0 220
35.8836 15.7526 -55.3123 0 0 178
34.7547 18.3695 -55.8261 0 0 217
35.3375 17.0533 -55.6387 0 0 176
34.7935 17.8703 -56.8394 0 0 176
34.1373 19.603 -55.955 0 0 174
34.6813 18.786 -54.7543 0 0 174
34.7547 18.3695 -55.8261 0 0 215
33.5238 20.4506 -57.1479 0 0 135
34.1373 19.603 -55.955 0 0 135
33.5238 20.4506 -57.1479 0 0 136
33.5733 19.9282 -58.2223 0 0 136
39.1361 4.58058 -50.3872 0 0 183
39.4006 2.90332 -49.9121 0 0 228
39.1514 3.75083 -51.1515 0 0 183
39.0811 5.47894 -49.6014 0 0 236
39.1361 4.58058 -50.3872 0 0 189
38.8319 6.32646 -50.8408 0 0 189
37.4036 11.1716 -54.2225 0 0 182
37.7992 10.3043 -52.9812 0 0 227
37.8413 9.52511 -53.7416 0 0 182
36.9321 12.7857 -54.6098 0 0 135
37.4036 11.1716 -54.2225 0 0 135
36.4469 14.2859 -54.865 0 0 177
36.8762 13.451 -53.7174 0 0 219
36.9321 12.7857 -54.6098 0 0 177
35.8836 15.7526 -55.3123 0 0 138
36.4469 14.2859 -54.865 0 0 138
40.2607 -6.9975 -39.8989 0 0 132
40.2932 -8.6477 -39.4639 0 0 132
40.2867 -6.12328 -41.0352 0 0 212
40.1975 -5.3397 -40.3462 0 0 172
40.2607 -6.9975 -39.8989 0 0 172
40.424 -8.68684 -41.1988 0 0 132
40.3714 -9.44277 -40.0582 0 0 132
40.3679 -7.00553 -41.6612 0 0 208
40.424 -8.68684 -41.1988 0 0 170
40.4419 -7.91128 -42.2722 0 0 170
40.3709 -5.72586 -45.5407 0 0 133
40.4238 -6.56898 -44.4722 0 0 133
40.2501 -3.99929 -46.1278 0 0 218
40.3709 -5.72586 -45.5407 0 0 176
40.2873 -4.9757 -46.708 0 0 176
39.8294 -2.79623 -50.1683 0 0 181
40.0174 -3.51399 -49.0229 0 0 225
39.9987 -4.64496 -49.5115 0 0 181
39.6241 -0.908984 -50.7951 0 0 137
39.8294 -2.79623 -50.1683 0 0 137
39.4081 0.960431 -51.2934 0 0 185
39.632 0.204156 -50.1781 0 0 230
39.6241 -0.908984 -50.7951 0 0 185
39.1565 2.73026 -51.8322 0 0 138
39.4081 0.960431 -51.2934 0 0 138
40.0145 -4.06727 -38.9313 0 0 129
40.1039 -4.6376 -39.6429 0 0 129
39.9191 -2.5164 -39.2309 0 0 132
40.0145 -4.06727 -38.9313 0 0 132
39.799 -1.07492 -39.456 0 0 164
39.9191 -2.5164 -39.2309 0 0 164
39.9162 -1.61981 -40.3008 0 0 200
39.649 0.363812 -39.7277 0 0 128
39.799 -1.07492 -39.456 0 0 128
39.4697 1.85465 -40.0875 0 0 167
39.649 0.363812 -39.7277 0 0 167
39.6167 1.31251 -40.8857 0 0 204
39.2471 3.22886 -40.321 0 0 130
39.4697 1.85465 -40.0875 0 0 130
39.1639 4.30311 -41.5218 0 0 171
39.3556 3.77294 -42.3858 0 0 210
39.0821 5.2727 -42.662 0 0 171
39.2471 3.22886 -40.321 0 0 134
39.1639 4.30311 -41.5218 0 0 134
35.9842 16.3123 -51.0511 0 0 171
36.3397 15.4369 -49.8289 0 0 171
36.5521 14.9978 -50.7622 0 0 210
35.5908 17.1567 -52.2351 0 0 180
35.7477 16.7128 -53.305 0 0 223
35.1418 17.9964 -53.5556 0 0 180
35.9842 16.3123 -51.0511 0 0 131
35.5908 17.1567 -52.2351 0 0 131
3 0 11 9
3 1 35 37
3 37 36 12
3 35 36 37
3 1 38 39
3 1 40 42
3 40 14 41
3 40 41 42
3 43 16 44
3 46 45 16
3 2 19 17
3 4 47 49
3 47 20 48
3 47 48 49
3 4 21 20
3 4 23 21
3 50 24 51
3 52 25 53
3 54 26 55
3 56 55 25
3 54 55 56
3 7 57 58
3 7 59 61
3 59 27 60
3 59 60 61
3 7 28 27
3 6 62 64
3 62 29 63
3 62 63 64
3 8 30 10
3 8 31 30
3 3 32 18
3 65 33 66
3 67 66 13
3 65 66 67
3 69 68 33
3 5 34 22
3 71 70 15
3 73 72 2
3 74 4 75
3 77 76 4
3 78 7 79
3 81 80 7
3 9 10 6
3 11 10 9
3 11 8 10
3 12 13 3
3 82 13 83
3 84 83 12
3 82 83 84
3 86 85 13
3 14 87 88
3 14 89 90
3 91 15 92
3 93 92 5
3 91 92 93
3 16 94 96
3 94 15 95
3 94 95 96
3 16 97 99
3 99 98 15
3 97 98 99
3 16 100 101
3 103 102 16
3 17 18 0
3 19 18 17
3 19 3 18
3 104 19 105
3 106 105 2
3 104 105 106
3 20 107 109
3 107 19 108
3 107 108 109
3 20 3 19
3 20 12 3
3 21 12 20
3 21 1 12
3 21 22 1
3 23 22 21
3 23 5 22
3 110 23 111
3 112 111 4
3 110 111 112
3 113 23 114
3 115 5 116
3 117 116 23
3 115 116 117
3 119 118 5
3 24 120 121
3 24 122 124
3 122 6 123
3 122 123 124
3 125 24 126
3 25 127 129
3 127 24 128
3 127 128 129
3 25 6 24
3 25 9 6
3 26 9 25
3 26 0 9
3 130 26 131
3 27 132 134
3 132 26 133
3 132 133 134
3 27 0 26
3 27 17 0
3 28 17 27
3 28 2 17
3 135 28 136
3 137 136 7
3 135 136 137
3 138 28 139
3 140 2 141
3 142 141 28
3 140 141 142
3 144 143 2
3 29 145 146
3 29 147 148
3 10 29 6
3 30 29 10
3 30 149 151
3 151 150 29
3 149 150 151
3 30 152 153
3 31 154 156
3 156 155 30
3 154 155 156
3 31 157 158
3 18 11 0
3 32 11 18
3 32 8 11
3 13 32 3
3 33 32 13
3 33 8 32
3 33 31 8
3 159 31 160
3 161 160 33
3 159 160 161
3 163 162 31
3 22 14 1
3 34 14 22
3 34 164 166
3 166 165 14
3 164 165 166
3 15 34 5
3 167 34 168
3 169 168 15
3 167 168 169
3 171 170 34
