ply
format ascii 1.0
element vertex 168
property float x
property float y
property float z
property uchar red
property uchar green
property uchar blue
element face 141
property list uchar int vertex_index
end_header
25.0761 7.59522 -22.2165 190 0 0
22.0245 2.0371 -11.4724 105 255 150
22.0934 10.3087 -22.0461 0 190 255
25.1906 11.1951 -26.3161 252 255 3
28.1203 4.99286 -22.2964 212 255 43
28.3312 8.84302 -26.607 126 255 129
22.0255 4.36117 -14.6697 0 247 255
25.0334 4.24475 -18.3608 241 0 0
23.5423 8.99267 -22.1973 255 186 0
23.6892 10.6125 -24.1891 201 255 54
25.1956 9.32272 -24.2586 164 0 0
23.4059 1.36584 -12.8417 0 242 255
22.0407 3.11906 -13.0428 143 255 112
23.3635 2.76231 -14.567 214 255 41
23.3671 4.27638 -16.4306 255 243 0
24.8121 2.71609 -16.3308 170 255 85
26.3837 2.87367 -18.2511 181 255 74
20.9401 2.8156 -10.19 0 165 255
22.1845 0.894605 -9.98555 0 93 255
26.6891 6.25225 -22.3011 155 0 0
26.6387 8.18647 -24.3679 128 0 0
28.2708 6.89729 -24.4688 255 251 0
23.5121 7.27428 -20.1745 176 255 79
20.8603 3.80963 -11.7383 0 180 255
23.572 5.62777 -18.305 161 255 94
24.9896 6.01043 -20.3361 216 0 0
26.541 4.52363 -20.2547 197 0 0
28.1156 3.21142 -20.3816 96 255 159
29.5788 1.85161 -20.3935 0 107 255
26.8865 10.0491 -26.6197 255 126 0
26.7349 11.9245 -28.53 0 251 255
24.1277 1.97033 -14.5803 0 0 178
23.3847 2.06407 -13.7043 0 0 214
24.1489 1.2721 -13.7177 0 0 178
24.852 1.94722 -15.4623 0 0 179
24.0878 2.7392 -15.4489 0 0 216
24.1277 1.97033 -14.5803 0 0 179
25.6317 1.99122 -16.4162 0 0 144
24.852 1.94722 -15.4623 0 0 144
22.344 0.317906 -9.30291 0 0 130
21.7308 1.31213 -9.4536 0 0 130
22.1409 11.0768 -22.9804 0 0 142
21.4154 11.03 -22.0043 0 0 142
24.4048 11.832 -26.2419 0 0 189
23.6541 11.5407 -25.1784 0 0 189
24.4399 10.9038 -25.2526 0 0 231
25.1563 12.1909 -27.3715 0 0 150
24.4048 11.832 -26.2419 0 0 150
22.79 7.25204 -19.2527 0 0 142
22.801 8.0156 -20.1911 0 0 142
21.4022 4.65348 -13.9786 0 0 167
21.4098 4.03242 -13.1652 0 0 167
22.0331 3.74011 -13.8563 0 0 198
21.3829 5.26305 -14.7965 0 0 136
21.4022 4.65348 -13.9786 0 0 136
22.0199 5.10724 -15.6111 0 0 141
21.3829 5.26305 -14.7965 0 0 141
28.0382 2.35507 -19.3733 0 0 192
27.2497 3.04254 -19.3163 0 0 235
27.1722 2.1862 -18.3081 0 0 192
28.7698 1.67517 -19.3793 0 0 186
28.8472 2.53151 -20.3876 0 0 227
28.0382 2.35507 -19.3733 0 0 186
27.5086 12.3895 -29.736 0 0 152
27.5888 11.4027 -28.7214 0 0 152
26.7234 12.9355 -29.6319 0 0 151
27.5086 12.3895 -29.736 0 0 151
28.9524 5.28973 -23.3946 0 0 148
28.9067 4.38325 -22.4069 0 0 148
26.4175 2.07001 -17.3763 0 0 184
25.5979 2.79488 -17.291 0 0 224
25.6317 1.99122 -16.4162 0 0 184
27.1722 2.1862 -18.3081 0 0 143
26.4175 2.07001 -17.3763 0 0 143
28.387 9.86193 -27.7599 0 0 150
29.1044 9.2205 -27.7148 0 0 150
21.1086 2.27263 -9.55582 0 0 130
20.5041 3.43052 -9.75816 0 0 130
21.5623 1.8551 -10.0878 0 0 174
21.1086 2.27263 -9.55582 0 0 152
21.7308 1.31213 -9.4536 0 0 152
22.8919 -0.071776 -9.87443 0 0 132
22.344 0.317906 -9.30291 0 0 132
22.7597 0.573389 -10.6036 0 0 134
22.8919 -0.071776 -9.87443 0 0 134
22.6797 1.14464 -11.347 0 0 160
22.1045 1.46585 -10.729 0 0 187
22.7597 0.573389 -10.6036 0 0 160
23.3704 0.809008 -12.0316 0 0 167
22.7152 1.70147 -12.157 0 0 198
22.6797 1.14464 -11.347 0 0 167
24.1229 0.54513 -12.7844 0 0 137
23.3704 0.809008 -12.0316 0 0 137
24.1489 1.2721 -13.7177 0 0 143
24.1229 0.54513 -12.7844 0 0 143
22.9388 11.2288 -24.0519 0 0 182
22.1409 11.0768 -22.9804 0 0 182
22.8913 10.4606 -23.1176 0 0 220
22.9388 11.2288 -24.0519 0 0 147
23.6541 11.5407 -25.1784 0 0 147
29.0276 6.24195 -24.4808 0 0 194
28.1956 5.94507 -23.3826 0 0 239
28.9524 5.28973 -23.3946 0 0 194
29.0374 7.25059 -25.5486 0 0 149
29.0276 6.24195 -24.4808 0 0 149
29.0676 8.22346 -26.6177 0 0 190
28.301 7.87015 -25.5379 0 0 232
29.0374 7.25059 -25.5486 0 0 190
29.1044 9.2205 -27.7148 0 0 149
29.0676 8.22346 -26.6177 0 0 149
21.4073 10.2973 -21.1169 0 0 140
21.4154 11.03 -22.0043 0 0 140
22.0917 9.53281 -21.1269 0 0 142
21.4073 10.2973 -21.1169 0 0 142
22.8161 8.8748 -21.2025 0 0 178
22.8178 9.65068 -22.1217 0 0 215
22.0917 9.53281 -21.1269 0 0 178
23.5272 8.13348 -21.1859 0 0 225
22.8161 8.8748 -21.2025 0 0 185
22.801 8.0156 -20.1911 0 0 185
20.406 3.81952 -10.406 0 0 128
20.5041 3.43052 -9.75816 0 0 128
20.3661 4.31653 -11.1802 0 0 160
20.406 3.81952 -10.406 0 0 160
20.9002 3.31262 -10.9641 0 0 187
20.2532 4.83372 -11.8405 0 0 131
20.3661 4.31653 -11.1802 0 0 131
20.8195 4.37771 -12.5129 0 0 163
21.4505 3.46434 -12.3906 0 0 191
21.4098 4.03242 -13.1652 0 0 163
20.2532 4.83372 -11.8405 0 0 136
20.8195 4.37771 -12.5129 0 0 136
22.6907 5.06485 -16.4915 0 0 176
22.0199 5.10724 -15.6111 0 0 176
22.6963 4.31878 -15.5501 0 0 212
22.7932 5.74055 -17.4288 0 0 178
22.6907 5.06485 -16.4915 0 0 178
23.4696 4.95208 -17.3678 0 0 214
22.8199 6.42879 -18.318 0 0 142
22.7932 5.74055 -17.4288 0 0 142
23.5421 6.45103 -19.2398 0 0 223
22.79 7.25204 -19.2527 0 0 184
22.8199 6.42879 -18.318 0 0 184
28.9043 3.49253 -21.4495 0 0 187
28.9067 4.38325 -22.4069 0 0 187
28.118 4.10214 -21.339 0 0 228
29.6359 2.81263 -21.4555 0 0 192
28.9043 3.49253 -21.4495 0 0 192
28.8472 2.53151 -20.3876 0 0 235
30.367 2.13746 -21.4959 0 0 149
29.6359 2.81263 -21.4555 0 0 149
29.5488 0.957363 -19.4138 0 0 148
28.7698 1.67517 -19.3793 0 0 148
30.3557 1.16969 -20.4983 0 0 148
29.5488 0.957363 -19.4138 0 0 148
30.367 2.13746 -21.4959 0 0 150
30.3557 1.16969 -20.4983 0 0 150
27.6646 10.465 -27.7662 0 0 194
27.6088 9.44607 -26.6133 0 0 238
28.387 9.86193 -27.7599 0 0 194
26.8107 10.9868 -27.5748 0 0 236
27.6646 10.465 -27.7662 0 0 193
27.5888 11.4027 -28.7214 0 0 193
25.9285 12.5556 -28.4785 0 0 196
25.1563 12.1909 -27.3715 0 0 196
25.9627 11.5598 -27.423 0 0 241
25.9285 12.5556 -28.4785 0 0 152
26.7234 12.9355 -29.6319 0 0 152
3 0 10 8
3 31 13 32
3 33 32 11
3 31 32 33
3 34 15 35
3 36 35 13
3 34 35 36
3 38 37 15
3 39 18 40
3 2 41 42
3 3 43 45
3 45 44 9
3 43 44 45
3 3 46 47
3 4 21 19
3 48 22 49
3 1 23 17
3 6 50 52
3 52 51 12
3 50 51 52
3 6 53 54
3 6 55 56
3 7 24 14
3 7 25 24
3 7 26 25
3 57 27 58
3 59 58 16
3 57 58 59
3 60 28 61
3 62 61 27
3 60 61 62
3 5 29 20
3 63 30 64
3 66 65 30
3 8 9 2
3 10 9 8
3 10 3 9
3 68 67 4
3 11 12 1
3 13 12 11
3 13 6 12
3 13 14 6
3 15 14 13
3 15 7 14
3 15 16 7
3 69 16 70
3 71 70 15
3 69 70 71
3 73 72 16
3 75 74 5
3 76 17 77
3 18 78 80
3 78 17 79
3 78 79 80
3 18 1 17
3 81 18 82
3 83 18 84
3 85 1 86
3 87 86 18
3 85 86 87
3 88 11 89
3 90 89 1
3 88 89 90
3 91 11 92
3 94 93 11
3 9 95 97
3 97 96 2
3 95 96 97
3 99 98 9
3 19 20 0
3 21 20 19
3 21 5 20
3 100 21 101
3 102 101 4
3 100 101 102
3 103 21 104
3 105 5 106
3 107 106 21
3 105 106 107
3 109 108 5
3 110 2 111
3 112 2 113
3 114 8 115
3 116 115 2
3 114 115 116
3 22 117 119
3 117 8 118
3 117 118 119
3 22 0 8
3 17 120 121
3 23 122 124
3 124 123 17
3 122 123 124
3 23 125 126
3 12 23 1
3 127 23 128
3 129 128 12
3 127 128 129
3 131 130 23
3 14 132 134
3 134 133 6
3 132 133 134
3 24 135 137
3 137 136 14
3 135 136 137
3 24 138 139
3 24 140 142
3 140 22 141
3 140 141 142
3 25 22 24
3 25 0 22
3 25 19 0
3 26 19 25
3 26 4 19
3 16 26 7
3 27 26 16
3 27 4 26
3 27 143 145
3 145 144 4
3 143 144 145
3 28 146 148
3 148 147 27
3 146 147 148
3 28 149 150
3 151 28 152
3 153 28 154
3 156 155 28
3 20 10 0
3 29 10 20
3 29 3 10
3 157 29 158
3 159 158 5
3 157 158 159
3 30 160 162
3 160 29 161
3 160 161 162
3 30 3 29
3 30 163 165
3 165 164 3
3 163 164 165
3 167 166 30
