ply
format ascii 1.0
element vertex 929
property float x
property float y
property float z
property uchar red
property uchar green
property uchar blue
element face 1233
property list uchar int vertex_index
end_header
-45.4 -86.5743 31.8102 255 17 0
-52.8506 -74.4584 43.8397 189 255 66
-52.5265 -69.793 23.1906 255 54 0
-40.0167 -84.074 48.9843 197 255 58
-45.184 -98.7291 11.8425 230 0 0
-51.1088 -79.8347 8.98942 255 93 0
-27.5196 -84.4226 45.1033 28 255 227
-37.2584 -101.366 29.5807 255 87 0
-49.988 -70.7479 48.4047 115 255 140
-45.8765 -92.5575 22.2194 238 0 0
-48.1789 -89.1378 11.3315 255 66 0
-46.8668 -83.1641 19.7153 255 33 0
-60.6428 -63.4215 19.4235 28 255 227
-55.1468 -65.4061 12.4392 4 255 251
-43.5064 -88.1772 43.0163 255 187 0
-37.9574 -93.6768 42.487 255 232 0
-42.6759 -95.3394 33.251 255 6 0
-41.9059 -101.66 21.04 205 0 0
-47.9326 -80.8021 39.2456 255 141 0
-47.3842 -77.6606 27.6902 255 85 0
-52.697 -73.4059 34.0707 255 110 0
-35.1137 -75.1673 49.2913 242 255 13
-42.6209 -73.4648 48.5182 255 204 0
-46.98 -79.9794 47.5269 105 255 150
-49.3855 -74.0263 16.1323 255 79 0
-25.7643 -92.7722 33.3405 51 255 204
-33.2772 -85.5833 47.4803 243 255 12
-32.068 -94.3107 37.3241 178 0 0
-30.0179 -102.797 24.0167 165 0 0
-34.1285 -108.646 16.7487 255 62 0
-37.5773 -108.006 9.18726 121 255 134
-45.542 -89.5493 27.1684 235 0 0
-46.4769 -87.8422 21.2447 255 5 0
-45.9928 -84.872 25.7036 255 9 0
-44.6405 -87.8743 37.7369 255 67 0
-42.7907 -91.9029 38.659 255 78 0
-44.3808 -91.0807 33.0725 249 0 0
-44.5225 -94.1823 27.8109 218 0 0
-50.4606 -77.8228 41.7933 255 222 0
-50.1526 -77.0481 36.6703 255 117 0
-52.998 -74.4153 39.2763 255 186 0
-39.63 -69.0039 47.7952 255 216 0
-43.4641 -68.1455 47.7074 127 255 128
-51.9025 -73.2623 47.0541 61 255 194
-48.7699 -75.4972 48.1213 89 255 166
-50.0945 -77.3801 45.8459 129 255 126
-47.836 -81.1038 44.1373 239 255 16
-49.3344 -84.4177 10.2386 255 96 0
-49.6991 -87.1592 6.33637 215 255 40
-51.7731 -82.4001 5.3849 201 255 54
-49.4522 -73.5313 25.4047 255 81 0
-47.8236 -75.7759 21.7953 255 87 0
-50.1274 -71.5489 19.7381 255 93 0
-26.7376 -88.3109 39.4417 220 255 35
-37.6599 -79.8936 49.351 255 242 0
-34.1706 -80.5153 49.2576 206 255 49
-36.5195 -85.2511 48.5419 232 255 23
-37.607 -97.7155 36.4504 255 145 0
-35.0036 -94.6536 40.2512 255 98 0
-34.6126 -98.6298 33.5363 255 1 0
-31.3976 -98.3833 30.4325 131 0 0
-33.8536 -102.49 26.5441 240 0 0
-32.1495 -106.588 20.2985 255 6 0
-36.2552 -104.926 22.7973 255 73 0
-43.6601 -100.285 16.4866 190 0 0
-40.2406 -104.782 14.954 173 0 0
-41.9716 -103.409 10.7864 152 0 0
-55.3422 -71.2625 41.7788 93 255 162
-47.221 -67.1294 48.1617 80 255 175
-50.6466 -65.835 48.8421 0 199 255
-53.0147 -68.7944 48.2027 0 75 255
-45.8675 -95.6057 17.0871 244 0 0
-47.0841 -93.9518 11.989 255 30 0
-46.9845 -90.8697 16.6648 255 25 0
-47.6162 -86.1646 15.5377 255 52 0
-48.5008 -81.5376 14.0966 255 69 0
-56.4255 -66.4744 21.1631 255 250 0
-53.4311 -67.6588 17.7408 255 67 0
-57.4538 -64.087 15.9067 255 251 0
-41.9695 -86.9601 46.952 184 255 71
-38.7564 -89.1005 46.8123 206 255 49
-40.8621 -91.3718 43.4393 255 226 0
-40.3942 -95.3597 38.2781 255 132 0
-40.238 -98.9308 32.0452 255 66 0
-39.7695 -102.254 25.4166 255 34 0
-42.5844 -98.5491 27.2454 225 0 0
-44.4364 -97.2295 22.2181 208 0 0
-46.1002 -83.6622 35.9133 255 83 0
-46.1882 -82.0539 29.8995 255 57 0
-47.6147 -79.4805 33.5974 255 91 0
-49.6309 -75.4705 31.102 255 82 0
-52.3897 -71.7675 28.6593 255 70 0
-55.6225 -70.9944 36.8927 255 170 0
-55.7024 -70.0078 31.6998 193 255 62
-55.8837 -68.4685 26.4437 128 255 127
-36.0284 -69.8223 48.654 89 255 166
-38.7401 -74.4126 48.739 255 200 0
-41.4198 -78.8059 49.2687 255 254 0
-46.4645 -72.2736 48.4633 226 255 29
-45.2077 -77.3311 48.8734 176 255 79
-43.5719 -82.244 48.6341 138 255 117
-45.0201 -84.1944 45.9716 199 255 56
-45.8086 -84.5586 41.4854 255 163 0
-48.226 -92.147 7.05451 29 255 226
-46.5457 -80.2523 23.8261 255 53 0
-47.7156 -78.5524 17.9646 255 60 0
-50.0298 -76.9566 12.5385 255 62 0
-51.906 -69.6248 14.2637 255 101 0
-52.1447 -72.3332 10.8747 255 60 0
-53.4008 -75.2371 7.61546 133 255 122
-31.9527 -75.7608 50.2689 0 134 255
-31.0883 -80.6636 49.1695 0 192 255
-30.3304 -85.148 46.1691 255 255 0
-35.5766 -90.2264 45.5155 255 223 0
-32.5787 -90.1612 43.3842 255 97 0
-29.694 -89.2432 41.0833 255 33 0
-29.0177 -93.328 34.6816 171 0 0
-27.8836 -97.8897 28.2877 255 161 0
-27.5638 -107.747 18.9253 255 154 0
-29.2919 -111.054 15.2631 168 255 87
-38.3966 -105.54 18.9701 255 17 0
-35.8737 -108.931 13.0634 185 255 70
-45.405 -88.0564 29.5399 247 0 0
-45.8003 -87.2084 26.5106 247 0 0
-45.6937 -85.7418 28.7589 255 9 0
-45.0602 -87.3097 34.8192 255 35 0
-44.4203 -89.4917 35.4996 255 26 0
-44.9564 -88.8402 32.5494 255 3 0
-45.0102 -90.364 30.1386 236 0 0
-51.7202 -76.2022 42.8535 238 255 17
-51.7312 -76.1298 40.5363 255 201 0
-53.0054 -74.5777 41.6795 255 246 0
-41.8685 -65.9407 47.3781 0 200 255
-52.4928 -74.0263 45.6601 113 255 142
-51.0829 -75.3726 46.4807 88 255 167
-51.5163 -75.9588 44.8669 157 255 98
-50.3846 -77.7738 44.0019 209 255 46
-44.5354 -100.335 9.20332 197 255 58
-45.8794 -97.952 9.52018 173 255 82
-50.1358 -82.1143 9.62624 255 100 0
-50.4644 -83.4532 7.76155 255 107 0
-51.5256 -81.1557 7.20069 255 107 0
-53.0965 -80.1021 4.87092 1 255 254
-52.7422 -78.8783 6.61347 105 255 150
-50.8677 -71.6079 24.281 255 69 0
-49.6588 -72.5336 22.5581 255 87 0
-51.1442 -70.5856 21.4926 255 74 0
-26.0984 -84.1797 44.8246 0 197 255
-25.6567 -86.0866 42.0411 0 226 255
-27.1322 -86.3308 42.4068 255 158 0
-38.8827 -82.1039 49.3174 241 255 14
-37.0827 -82.6038 49.1878 243 255 12
-38.2467 -84.7596 48.8565 219 255 36
-37.473 -99.5717 33.059 255 110 0
-36.1316 -98.3531 35.0838 255 89 0
-35.9342 -100.228 31.5833 255 59 0
-34.3199 -100.55 30.0016 239 0 0
-35.6087 -102.076 28.0714 255 45 0
-35.0749 -103.942 24.6683 255 44 0
-36.8771 -103.138 26.1284 255 76 0
-44.4436 -99.5079 14.1691 206 0 0
-42.9317 -101.834 13.6229 173 0 0
-43.7473 -101.081 11.4163 190 0 0
-42.8374 -102.686 8.67836 224 255 31
-49.1985 -63.9899 48.6504 0 160 255
-45.9396 -94.0749 19.6715 243 0 0
-46.5337 -93.2386 16.9901 255 10 0
-46.4392 -91.7119 19.4257 255 3 0
-46.652 -85.4961 20.5239 255 18 0
-46.9931 -87.0007 18.3499 255 27 0
-47.2336 -84.6651 17.6293 255 40 0
-47.9904 -83.8411 14.8382 255 64 0
-47.5667 -82.3465 16.8466 255 51 0
-58.5394 -64.9315 20.2516 148 255 107
-56.8791 -65.326 18.5253 255 26 0
-59.0212 -63.7116 17.6575 255 30 0
-42.7883 -87.7797 45.1979 245 255 10
-41.3339 -89.2128 45.4258 232 255 23
-42.2278 -89.8533 43.3887 255 205 0
-42.6897 -93.656 36.0577 255 36 0
-41.6559 -93.7348 38.6499 255 101 0
-41.5738 -95.5347 35.8385 255 61 0
-40.3128 -97.1896 35.2527 255 94 0
-41.538 -97.2512 32.8261 255 31 0
-41.4659 -98.903 29.6824 255 10 0
-42.6681 -96.9649 30.2961 239 0 0
-45.2511 -93.3939 25.0221 223 0 0
-44.5419 -95.7084 25.0429 212 0 0
-45.2878 -94.9078 22.3626 223 0 0
-45.1914 -96.4278 19.6576 223 0 0
-46.8853 -82.232 37.684 255 112 0
-46.8192 -81.5583 34.795 255 90 0
-47.7975 -80.2364 36.4775 255 108 0
-51.3732 -75.2051 35.3562 255 111 0
-49.8848 -76.3308 33.9156 255 93 0
-51.1229 -74.452 32.6285 255 88 0
-50.9119 -73.5726 29.8618 255 75 0
-52.5149 -72.6449 31.377 255 87 0
-56.5692 -69.6075 40.8118 0 198 255
-55.5267 -71.2312 39.4031 255 206 0
-56.8272 -69.555 38.3675 50 255 205
-57.202 -68.9554 33.2509 0 236 255
-55.7624 -69.2997 29.0754 112 255 143
-36.4714 -67.2131 48.3945 0 175 255
-41.1384 -71.263 48.0972 255 191 0
-39.2111 -71.6913 48.2457 255 201 0
-40.6662 -73.965 48.5968 255 192 0
-40.1228 -76.6832 49.0559 255 208 0
-42.0607 -76.1372 48.9582 255 223 0
-48.6924 -69.0513 48.4279 187 255 68
-46.9006 -69.7075 48.2656 240 255 15
-48.2811 -71.5591 48.4442 171 255 84
-47.9308 -77.774 47.904 88 255 167
-47.0318 -76.4606 48.541 128 255 127
-46.209 -78.8359 48.4609 113 255 142
-44.4168 -79.8082 48.8896 150 255 105
-45.305 -81.1566 48.1661 115 255 140
-44.3849 -83.4227 47.5651 142 255 113
-45.9826 -82.1173 46.9058 144 255 111
-47.9616 -81.111 41.8296 255 196 0
-46.7451 -82.8546 42.9477 255 215 0
-46.8759 -82.6868 40.4292 255 153 0
-46.0022 -84.2359 38.7881 255 114 0
-47.6789 -91.5414 11.7395 255 48 0
-47.6575 -93.0849 9.49538 250 255 5
-48.2793 -90.6295 9.20485 255 60 0
-50.6352 -86.0257 3.96451 10 255 245
-46.6989 -79.8331 28.8158 255 74 0
-46.2981 -81.1521 26.8526 255 53 0
-46.7853 -78.9041 25.8041 255 73 0
-48.4487 -74.8829 18.9216 255 85 0
-47.6045 -77.1131 19.894 255 72 0
-48.4402 -76.277 17.0555 255 70 0
-48.7246 -77.7518 15.1877 255 62 0
-49.5871 -75.4672 14.3272 255 64 0
-54.1979 -66.5494 15.0618 255 84 0
-52.44 -68.5305 16.0014 255 95 0
-53.4477 -67.4899 13.3379 203 255 52
-53.3531 -69.9923 10.0037 122 255 133
-53.8752 -71.4243 8.41255 135 255 120
-52.7187 -73.8009 9.23572 255 51 0
-54.5942 -72.8625 6.85653 31 255 224
-33.9288 -72.8549 49.6023 0 243 255
-33.4679 -75.4813 49.7261 51 255 204
-33.7084 -83.1018 48.6419 207 255 48
-32.5775 -80.6422 49.2016 164 255 91
-32.1586 -83.1008 48.2916 185 255 70
-30.6935 -82.9652 47.941 36 255 219
-31.7732 -85.4409 46.8268 248 255 7
-38.2894 -91.4554 44.906 238 255 17
-37.149 -89.8107 46.2976 238 255 17
-36.755 -92.1501 44.1578 255 233 0
-33.5393 -94.6197 38.8189 255 0 0
-33.7679 -92.5358 41.8917 255 78 0
-32.3133 -92.2726 40.5412 254 0 0
-31.134 -89.7649 42.204 255 50 0
-30.8597 -91.8058 39.1924 208 0 0
-29.3821 -91.2546 37.9689 209 0 0
-30.5671 -93.8348 35.8997 147 0 0
-30.8281 -100.527 27.0953 147 0 0
-29.6771 -98.0982 29.1713 137 0 0
-28.9467 -100.429 26.0631 153 0 0
-26.9964 -100.442 25.4777 102 255 153
-27.959 -102.924 23.287 255 152 0
-26.6958 -105.571 20.8994 246 255 9
-28.9313 -105.208 21.2829 169 0 0
-33.1685 -107.852 18.5264 255 51 0
-30.8576 -108.779 17.6292 255 4 0
-31.7695 -109.921 15.8633 255 39 0
-30.1125 -112.055 13.4533 46 255 209
-32.6286 -110.596 14.0732 143 255 112
-40.8916 -102.102 23.2539 242 0 0
-39.2227 -103.891 22.1416 255 26 0
-40.2596 -103.688 20.0783 232 0 0
-39.0153 -106.376 12.0252 147 0 0
-38.1529 -106.91 14.0046 194 0 0
-36.7107 -108.568 11.1433 224 255 31
-45.7242 -91.0497 24.7222 233 0 0
-46.2485 -90.1983 21.8287 249 0 0
-46.0131 -88.6963 24.194 244 0 0
-46.195 -86.3458 23.4947 255 1 0
-46.3615 -84.006 22.678 255 17 0
-61.1333 -62.1133 16.8719 32 255 223
-44.124 -88.1886 40.4974 255 118 0
-43.0483 -90.0756 40.9964 255 129 0
-43.7832 -89.9309 38.3384 255 67 0
-43.6389 -91.6221 35.9305 255 25 0
-43.6264 -93.2626 33.3228 249 0 0
-43.6652 -94.8584 30.563 228 0 0
-44.443 -92.6424 30.4974 229 0 0
-45.1357 -91.881 27.6206 225 0 0
-49.1609 -79.3444 40.6057 255 176 0
-49.0144 -78.9184 37.9791 255 128 0
-50.3654 -77.5643 39.3193 255 159 0
-51.5968 -75.7815 38.0108 255 147 0
-52.8772 -74.0104 36.7179 255 141 0
-38.1869 -66.7772 47.8077 11 255 244
-39.9983 -66.3577 47.4744 24 255 231
-41.5375 -68.5866 47.6664 255 205 0
-43.0885 -70.7985 48.0696 255 201 0
-51.066 -72.1639 47.9685 62 255 193
-49.4588 -73.1517 48.2641 100 255 155
-50.3982 -74.4334 47.622 65 255 190
-49.5606 -76.621 47.2368 79 255 176
-48.5806 -78.7201 46.7434 110 255 145
-47.5178 -80.7351 46.067 158 255 97
-48.9854 -79.2859 45.086 181 255 74
-49.167 -79.4831 43.0074 255 246 0
-48.6996 -86.759 10.8165 255 83 0
-48.8868 -88.1923 8.78968 255 80 0
-49.5912 -85.7965 8.2969 255 98 0
-50.6342 -84.7462 5.87546 255 102 0
-51.8314 -83.5986 3.53743 6 255 249
-48.293 -75.554 26.5466 255 87 0
-47.4855 -76.7073 24.7274 255 87 0
-48.4379 -74.5784 23.6406 255 91 0
-48.8424 -73.6244 20.7646 255 94 0
-49.5423 -72.7026 17.9432 255 94 0
-26.2987 -90.4384 36.3639 150 255 105
-36.3839 -77.5462 49.2725 255 244 0
-34.6435 -77.8577 49.4293 224 255 31
-35.869 -80.2667 49.3151 244 255 11
-35.3518 -82.939 48.9525 229 255 26
-34.8587 -85.5269 48.0694 239 255 16
-37.745 -95.7597 39.6332 255 187 0
-36.4763 -94.346 41.5043 255 183 0
-36.2869 -96.4054 38.4372 255 132 0
-34.8139 -96.6807 37.0043 255 41 0
-33.3197 -96.6259 35.4459 200 0 0
-31.7865 -96.3284 33.8964 136 0 0
-33.0397 -98.6051 31.9371 174 0 0
-32.6204 -100.612 28.4556 175 0 0
-31.9888 -102.693 25.1445 191 0 0
-31.0913 -104.882 22.1112 206 0 0
-33.1446 -104.494 23.2824 252 0 0
-34.2717 -105.86 21.4672 255 50 0
-35.3442 -106.757 19.6578 255 71 0
-42.8216 -101.025 18.7811 187 0 0
-41.2084 -103.214 17.9658 192 0 0
-42.0907 -102.566 15.8104 172 0 0
-41.1076 -104.127 12.8829 151 0 0
-39.8947 -105.717 10.0154 255 134 0
-40.808 -105.018 7.99221 115 255 140
-53.8 -72.5849 44.8018 15 255 240
-54.1155 -72.8874 42.7989 222 255 33
-55.0305 -71.0593 43.9347 0 152 255
-47.4521 -64.5494 48.1748 0 177 255
-48.9864 -66.5234 48.4948 201 255 54
-50.3729 -68.3025 48.5914 130 255 125
-51.9287 -67.4509 48.7275 0 156 255
-51.5672 -69.8287 48.3283 67 255 188
-52.5409 -71.0618 47.6179 0 190 255
-53.2828 -71.981 46.4324 0 155 255
-45.6243 -97.155 14.4741 240 0 0
-46.2813 -96.3515 12.033 255 7 0
-46.4918 -94.7829 14.5248 255 12 0
-47.1044 -92.4007 14.3395 255 31 0
-47.5535 -90.0202 13.9604 255 47 0
-46.7602 -89.3512 18.9665 255 15 0
-47.3116 -88.509 16.1624 255 39 0
-47.947 -87.654 13.4402 255 63 0
-48.3881 -85.3128 12.8301 255 77 0
-48.9542 -83.0003 12.1689 255 85 0
-49.6846 -80.7108 11.4783 255 84 0
-54.3965 -68.0862 22.147 255 39 0
-52.8723 -68.7402 20.4566 255 56 0
-54.8033 -66.9927 19.463 255 38 0
-55.38 -65.8406 16.7959 255 48 0
-56.1128 -64.6332 14.1642 126 255 129
-59.5763 -62.3705 15.0887 40 255 215
-41.0466 -85.7144 48.217 168 255 87
-39.3443 -86.631 48.1683 191 255 64
-40.3728 -88.1333 47.0318 190 255 65
-39.8256 -90.4583 45.3326 226 255 29
-39.429 -92.6681 43.1403 255 241 0
-41.857 -91.8412 41.1888 255 149 0
-40.5584 -93.4227 41.0343 255 176 0
-39.1775 -94.7506 40.5131 255 196 0
-39.0345 -96.7068 37.5363 255 155 0
-38.9371 -98.5526 34.3105 255 119 0
-38.8044 -100.316 30.9402 255 92 0
-38.5493 -102.031 27.5256 255 74 0
-40.0845 -100.61 28.7405 255 46 0
-41.2749 -100.513 26.4722 251 0 0
-42.3506 -100.109 24.1458 215 0 0
-43.6727 -96.4204 27.6938 215 0 0
-43.5739 -97.9613 24.7522 207 0 0
-43.3062 -99.493 21.7711 198 0 0
-44.1548 -98.7528 19.3587 201 0 0
-44.92 -97.9593 16.9214 217 0 0
-45.6114 -85.1085 33.9461 255 50 0
-45.7828 -84.3063 30.9107 255 36 0
-46.1442 -82.9112 32.9329 255 66 0
-46.7348 -80.7365 31.8241 255 79 0
-47.4522 -78.6016 30.6564 255 86 0
-48.785 -78.2643 35.2094 255 100 0
-48.5393 -77.4456 32.3562 255 88 0
-48.3503 -76.524 29.4594 255 85 0
-49.4633 -74.5219 28.2585 255 79 0
-50.8065 -72.6122 27.0751 255 69 0
-52.3773 -70.808 25.9281 255 59 0
-54.2637 -72.9138 40.5175 255 224 0
-54.2861 -72.6962 38.0506 255 176 0
-54.2285 -72.2695 35.4751 255 141 0
-57.0284 -69.3324 35.8302 66 255 189
-55.6683 -70.5788 34.3118 255 144 0
-54.1386 -71.6682 32.8437 255 113 0
-54.0651 -70.9244 30.186 255 90 0
-54.0559 -70.0657 27.5145 255 68 0
-54.1546 -69.1142 24.8336 255 51 0
-56.0972 -67.5242 23.8054 141 255 114
-34.4007 -70.2453 49.4022 0 168 255
-35.5755 -72.4796 48.9883 250 255 5
-37.7814 -69.4118 48.1193 255 238 0
-37.3453 -72.094 48.5377 255 225 0
-36.8788 -74.8124 48.9651 255 227 0
-38.2195 -77.1539 49.1542 255 216 0
-39.5201 -79.403 49.3422 255 238 0
-40.7249 -81.4576 49.3184 221 255 34
-45.3705 -67.6652 47.8853 24 255 231
-45.0218 -70.2849 48.1357 255 228 0
-44.5662 -72.9046 48.481 255 236 0
-47.7291 -74.0328 48.5051 150 255 105
-45.8988 -74.8176 48.6955 204 255 51
-43.998 -75.5165 48.843 253 255 2
-43.3265 -78.1131 49.1153 221 255 34
-42.5795 -80.6861 49.1771 189 255 66
-41.801 -83.225 48.9106 168 255 87
-42.7344 -84.6319 48.011 150 255 105
-43.5232 -85.6325 46.5886 188 255 67
-44.1738 -86.2148 44.6798 255 249 0
-46.4565 -82.678 45.1401 216 255 39
-45.4889 -84.5626 43.9139 255 233 0
-44.6951 -86.3984 42.365 255 174 0
-45.0974 -86.2299 39.7432 255 114 0
-45.3951 -85.7748 36.9103 255 74 0
-46.895 -95.5324 9.61284 157 255 98
-48.9277 -89.6342 6.74274 128 255 127
-45.9613 -83.4359 27.8486 255 30 0
-46.2118 -82.55 24.7961 255 30 0
-46.6039 -81.6829 21.7872 255 37 0
-47.0665 -77.9899 22.8199 255 73 0
-46.9998 -79.3828 20.8529 255 56 0
-47.2019 -80.8488 18.8548 255 47 0
-48.0531 -80.0434 16.0285 255 58 0
-49.1803 -79.2467 13.329 255 68 0
-50.5787 -78.4284 10.7634 255 74 0
-51.6661 -69.5593 18.7262 255 83 0
-50.8787 -70.5824 16.9664 255 98 0
-50.5456 -71.8062 15.1993 255 90 0
-53.1766 -68.6544 11.6461 106 255 149
-51.8314 -70.9137 12.5501 255 83 0
-50.6289 -73.187 13.447 255 70 0
-51.028 -74.6548 11.7212 255 57 0
-51.6053 -76.1318 10.0186 255 61 0
-52.2173 -77.5526 8.3232 224 255 31
-33.0167 -78.0902 49.6391 175 255 80
-31.509 -78.2526 49.9108 0 191 255
-29.2909 -82.7455 47.6326 0 147 255
-28.9223 -84.778 45.5724 108 255 147
-37.6552 -87.339 47.8658 217 255 38
-36.0068 -87.8016 47.3286 247 255 8
-34.4187 -87.9989 46.5954 255 230 0
-35.2452 -92.5096 43.1293 255 164 0
-34.0538 -90.3355 44.5191 255 161 0
-32.8971 -87.9376 45.723 255 194 0
-31.4319 -87.6565 44.7835 255 162 0
-30.0007 -87.2273 43.8593 255 142 0
-28.5756 -86.7479 43.0384 255 142 0
-28.2338 -88.7163 40.1292 255 52 0
-27.863 -90.755 36.9911 251 0 0
-27.4134 -92.9323 33.7951 228 0 0
-30.1959 -95.9135 32.5009 128 0 0
-28.5395 -95.5247 31.3994 167 0 0
-26.825 -95.2989 30.7117 194 255 61
-25.1683 -108.332 18.8971 3 255 252
-29.9043 -107.189 19.4165 209 0 0
-28.4365 -109.602 17.0681 196 255 59
-38.091 -103.731 24.156 255 66 0
-37.3674 -105.445 20.9043 255 60 0
-36.3449 -107.193 17.8217 255 51 0
-39.347 -105.287 16.9862 218 0 0
-37.2742 -107.217 15.9391 255 0 0
-35.0247 -108.987 14.9327 255 254 0
-26.809 -84.3011 44.9639 0 0 190
-26.3253 -83.2588 46.0714 0 0 163
-27.0359 -83.3802 46.2108 0 0 163
-57.3294 -68.7521 39.1459 0 0 168
-56.6982 -69.5813 39.5896 0 0 197
-57.2004 -68.7784 40.368 0 0 168
-36.6857 -65.9359 48.3362 0 0 136
-35.9203 -66.1883 48.7885 0 0 136
-50.5554 -86.6768 2.9974 0 0 146
-51.1715 -85.4091 2.81321 0 0 146
-54.8108 -70.9208 7.22983 0 0 146
-54.4601 -70.2139 7.98524 0 0 146
-55.1703 -71.6399 6.45182 0 0 183
-54.2347 -72.1434 7.63454 0 0 219
-54.8108 -70.9208 7.22983 0 0 183
-55.5852 -72.3301 5.70857 0 0 146
-55.1703 -71.6399 6.45182 0 0 146
-24.9297 -92.852 33.3617 0 0 147
-25.2326 -91.5908 34.7532 0 0 147
-25.4203 -94.0568 31.9322 0 0 147
-24.9297 -92.852 33.3617 0 0 147
-36.3312 -109.136 8.79071 0 0 197
-35.8979 -109.418 9.76874 0 0 197
-37.144 -108.287 10.1653 0 0 241
-36.7886 -108.841 7.81135 0 0 154
-36.3312 -109.136 8.79071 0 0 154
-40.1587 -65.0552 47.4017 0 0 137
-39.2793 -65.2751 47.5676 0 0 137
-52.5069 -81.8234 4.23579 0 0 179
-52.536 -82.4227 3.31205 0 0 179
-51.8023 -82.9994 4.46116 0 0 213
-53.9508 -79.5194 3.74018 0 0 143
-53.816 -78.9579 4.59735 0 0 143
-25.9708 -88.2257 39.2722 0 0 175
-25.4303 -87.1136 40.5719 0 0 175
-26.1972 -87.1988 40.7414 0 0 208
-26.5181 -89.3747 37.9028 0 0 213
-25.7513 -89.2895 37.7333 0 0 178
-25.9708 -88.2257 39.2722 0 0 178
-42.2914 -103.508 7.32404 0 0 152
-43.2623 -102.333 7.62392 0 0 152
-54.7933 -70.8265 44.8552 0 0 156
-54.4153 -71.8221 44.3682 0 0 180
-54.178 -71.5893 45.2888 0 0 156
-47.5404 -63.2623 48.2343 0 0 138
-46.6396 -63.4997 47.9851 0 0 138
-52.4717 -68.1227 48.4651 0 0 165
-52.6439 -66.9705 48.7699 0 0 147
-53.1869 -67.6423 48.5075 0 0 147
-53.9194 -71.2874 46.1041 0 0 130
-53.5863 -70.912 46.8246 0 0 130
-54.178 -71.5893 45.2888 0 0 151
-53.5414 -72.2829 45.6171 0 0 172
-53.9194 -71.2874 46.1041 0 0 151
-60.6159 -61.5145 14.7215 0 0 183
-60.3548 -62.2419 15.9803 0 0 220
-61.3943 -61.3859 15.6132 0 0 183
-57.768 -68.5302 35.3558 0 0 141
-57.6077 -68.6208 36.632 0 0 141
-35.2145 -70.0338 49.0281 0 0 188
-34.6419 -68.9614 49.3195 0 0 162
-35.4557 -68.7499 48.9455 0 0 162
-46.2958 -67.3973 48.0235 0 0 194
-45.5004 -66.3586 47.8281 0 0 166
-46.4256 -66.0907 47.9663 0 0 166
-47.8463 -93.4053 7.1398 0 0 184
-47.562 -93.8742 8.36023 0 0 184
-47.9417 -92.616 8.27494 0 0 221
-48.1159 -92.927 5.96582 0 0 146
-47.8463 -93.4053 7.1398 0 0 146
-53.9064 -68.148 10.3843 0 0 143
-53.9128 -67.537 11.1991 0 0 143
-53.7226 -75.9102 6.8012 0 0 179
-53.1309 -77.068 7.15507 0 0 179
-52.8091 -76.3949 7.96933 0 0 213
-31.5027 -74.6817 50.774 0 0 134
-32.1868 -74.4937 50.3206 0 0 134
-31.2584 -75.8888 50.5894 0 0 132
-31.5027 -74.6817 50.774 0 0 132
-30.5994 -79.5136 49.7089 0 0 153
-30.8098 -78.3081 50.0796 0 0 153
-31.2986 -79.4581 49.5401 0 0 174
-30.3876 -80.6374 49.1759 0 0 131
-30.5994 -79.5136 49.7089 0 0 131
-26.9616 -97.8838 28.087 0 0 192
-26.4323 -96.5884 29.299 0 0 192
-27.3543 -96.5943 29.4997 0 0 232
-26.0046 -100.551 25.4487 0 0 151
-26.4212 -101.807 24.2637 0 0 151
-26.7521 -109.063 17.9217 0 0 196
-25.5543 -109.355 17.9076 0 0 196
-26.3661 -108.039 18.9112 0 0 238
-28.0089 -111.57 15.1426 0 0 191
-27.5812 -110.844 16.045 0 0 191
-28.8642 -110.328 16.1656 0 0 231
-28.3975 -112.218 14.2038 0 0 149
-28.0089 -111.57 15.1426 0 0 149
-29.187 -113.14 12.3444 0 0 148
-30.5051 -112.325 12.5265 0 0 148
-34.6589 -109.88 12.6477 0 0 187
-34.2345 -109.908 13.5823 0 0 187
-35.4492 -108.959 13.9981 0 0 226
-42.0046 -64.633 47.3213 0 0 165
-41.0938 -64.8467 47.3536 0 0 165
-41.23 -63.539 47.2967 0 0 137
-42.8134 -65.7257 47.434 0 0 139
-42.0046 -64.633 47.3213 0 0 139
-43.6112 -66.8282 47.5987 0 0 168
-42.6663 -67.0431 47.5428 0 0 197
-42.8134 -65.7257 47.434 0 0 168
-44.9065 -99.9633 8.09869 0 0 150
-44.1113 -101.157 7.8864 0 0 150
-45.5785 -98.7716 8.25712 0 0 186
-44.9065 -99.9633 8.09869 0 0 186
-45.2074 -99.1437 9.36175 0 0 223
-46.199 -97.5519 8.36663 0 0 149
-45.5785 -98.7716 8.25712 0 0 149
-53.6388 -78.346 5.46862 0 0 178
-53.816 -78.9579 4.59735 0 0 178
-52.9194 -79.4902 5.7422 0 0 213
-25.6297 -83.2445 46.1106 0 0 136
-26.3253 -83.2588 46.0714 0 0 136
-25.3719 -84.1599 44.8072 0 0 137
-25.6297 -83.2445 46.1106 0 0 137
-25.8776 -85.1332 43.4328 0 0 197
-25.1511 -85.1133 43.4154 0 0 168
-25.3719 -84.1599 44.8072 0 0 168
-44.1113 -101.157 7.8864 0 0 189
-43.2623 -102.333 7.62392 0 0 189
-43.6864 -101.511 8.94084 0 0 229
-49.2846 -62.7261 48.7607 0 0 137
-48.4136 -62.9826 48.4721 0 0 137
-50.0252 -63.6771 48.8977 0 0 135
-49.2846 -62.7261 48.7607 0 0 135
-50.7492 -64.5997 48.9935 0 0 158
-49.9225 -64.9124 48.7462 0 0 183
-50.0252 -63.6771 48.8977 0 0 158
-53.6779 -68.2187 48.1124 0 0 128
-53.1869 -67.6423 48.5075 0 0 128
-53.4522 -69.3188 47.7098 0 0 128
-53.6779 -68.2187 48.1124 0 0 128
-58.0074 -68.1813 32.7786 0 0 141
-57.8548 -68.3417 34.0662 0 0 141
-57.2888 -68.6942 31.9541 0 0 142
-58.0074 -68.1813 32.7786 0 0 142
-56.5389 -69.2204 31.1786 0 0 175
-56.4522 -69.4816 32.4753 0 0 207
-57.2888 -68.6942 31.9541 0 0 175
-56.5689 -68.8664 29.8664 0 0 176
-55.7324 -69.6538 30.3876 0 0 209
-56.5389 -69.2204 31.1786 0 0 176
-56.6685 -68.5345 28.5676 0 0 143
-56.5689 -68.8664 29.8664 0 0 143
-56.7292 -68.1189 27.2518 0 0 178
-55.823 -68.8841 27.7596 0 0 212
-56.6685 -68.5345 28.5676 0 0 178
-56.8535 -67.7165 25.9516 0 0 144
-56.7292 -68.1189 27.2518 0 0 144
-35.6772 -67.4453 48.8157 0 0 135
-35.9203 -66.1883 48.7885 0 0 135
-36.2499 -68.5177 48.5243 0 0 189
-35.4557 -68.7499 48.9455 0 0 163
-35.6772 -67.4453 48.8157 0 0 163
-50.1428 -87.2805 4.15875 0 0 181
-49.6747 -87.8472 5.34468 0 0 181
-50.1672 -86.5925 5.15044 0 0 216
-50.1428 -87.2805 4.15875 0 0 144
-50.5554 -86.6768 2.9974 0 0 144
-54.199 -69.4979 8.7808 0 0 144
-53.9947 -68.8169 9.56304 0 0 144
-53.6142 -70.7083 9.20811 0 0 217
-54.199 -69.4979 8.7808 0 0 181
-54.4601 -70.2139 7.98524 0 0 181
-54.9711 -73.5474 6.081 0 0 180
-54.3744 -74.7346 6.46046 0 0 180
-53.9975 -74.0498 7.23599 0 0 216
-54.9711 -73.5474 6.081 0 0 146
-55.5852 -72.3301 5.70857 0 0 146
-33.1748 -73.0408 49.9873 0 0 134
-33.4231 -71.772 49.9772 0 0 134
-32.9444 -74.354 50.0492 0 0 160
-33.1748 -73.0408 49.9873 0 0 160
-33.6984 -74.1681 49.6642 0 0 186
-32.7103 -75.6211 49.9975 0 0 181
-32.1868 -74.4937 50.3206 0 0 157
-32.9444 -74.354 50.0492 0 0 157
-26.9025 -103.048 23.1684 0 0 196
-26.4212 -101.807 24.2637 0 0 196
-27.4777 -101.683 24.3823 0 0 240
-27.3274 -104.247 22.0932 0 0 236
-26.2709 -104.371 21.9746 0 0 194
-26.9025 -103.048 23.1684 0 0 194
-31.7632 -111.596 12.8364 0 0 183
-30.5051 -112.325 12.5265 0 0 183
-31.3706 -111.325 13.7632 0 0 220
-35.4792 -109.628 10.7389 0 0 193
-35.0607 -109.809 11.699 0 0 193
-36.2922 -108.75 12.1034 0 0 234
-35.4792 -109.628 10.7389 0 0 152
-35.8979 -109.418 9.76874 0 0 152
-61.8786 -62.0087 17.7795 0 0 179
-60.888 -62.7674 18.1477 0 0 213
-61.6333 -62.6628 19.0554 0 0 179
-62.1195 -61.304 16.5244 0 0 145
-61.8786 -62.0087 17.7795 0 0 145
-61.3943 -61.3859 15.6132 0 0 145
-62.1195 -61.304 16.5244 0 0 145
-38.3736 -65.4849 47.7342 0 0 136
-37.5434 -65.7179 48.0428 0 0 136
-39.0926 -66.5674 47.6411 0 0 191
-38.3736 -65.4849 47.7342 0 0 164
-39.2793 -65.2751 47.5676 0 0 164
-40.9334 -66.1492 47.4263 0 0 194
-40.1587 -65.0552 47.4017 0 0 166
-41.0938 -64.8467 47.3536 0 0 166
-51.7696 -84.1955 2.59967 0 0 177
-51.1715 -85.4091 2.81321 0 0 177
-51.2333 -84.8122 3.75097 0 0 210
-52.5017 -82.976 2.40064 0 0 180
-52.4398 -83.5729 1.46288 0 0 145
-51.7696 -84.1955 2.59967 0 0 180
-52.5017 -82.976 2.40064 0 0 143
-52.536 -82.4227 3.31205 0 0 143
-53.1686 -80.6745 3.9788 0 0 175
-52.5069 -81.8234 4.23579 0 0 175
-52.4348 -81.2511 5.12791 0 0 208
-53.1686 -80.6745 3.9788 0 0 144
-53.9508 -79.5194 3.74018 0 0 144
-54.8979 -65.9128 11.5957 0 0 143
-55.6905 -64.812 11.1646 0 0 143
-24.9026 -86.0968 42.0206 0 0 140
-25.1511 -85.1133 43.4154 0 0 140
-24.9026 -86.0968 42.0206 0 0 142
-25.4303 -87.1136 40.5719 0 0 142
-25.4998 -90.424 36.2649 0 0 145
-25.7513 -89.2895 37.7333 0 0 145
-26.0315 -91.6053 34.8522 0 0 217
-25.2326 -91.5908 34.7532 0 0 181
-25.4998 -90.424 36.2649 0 0 181
-39.1995 -106.532 8.61588 0 0 197
-38.0408 -107.676 8.2018 0 0 197
-38.736 -106.862 9.60134 0 0 241
-39.6562 -106.182 7.60427 0 0 199
-39.1995 -106.532 8.61588 0 0 199
-40.3514 -105.368 9.00381 0 0 243
-40.1524 -105.842 6.62161 0 0 154
-39.6562 -106.182 7.60427 0 0 154
-41.2766 -104.674 6.98097 0 0 194
-41.8227 -103.852 8.33529 0 0 235
-42.2914 -103.508 7.32404 0 0 194
-40.1524 -105.842 6.62161 0 0 154
-41.2766 -104.674 6.98097 0 0 154
-55.3928 -70.086 44.5207 0 0 132
-54.7933 -70.8265 44.8552 0 0 132
-55.6266 -70.264 43.5115 0 0 135
-55.3928 -70.086 44.5207 0 0 135
-55.7825 -70.3656 42.4336 0 0 161
-55.1864 -71.1609 42.8568 0 0 187
-55.6266 -70.264 43.5115 0 0 161
-56.396 -69.5382 41.9501 0 0 165
-55.9557 -70.435 41.2953 0 0 193
-55.7825 -70.3656 42.4336 0 0 165
-56.994 -68.7228 41.5511 0 0 137
-56.396 -69.5382 41.9501 0 0 137
-57.2004 -68.7784 40.368 0 0 139
-56.994 -68.7228 41.5511 0 0 139
-46.5412 -64.8007 47.9728 0 0 138
-46.6396 -63.4997 47.9851 0 0 138
-47.3366 -65.8394 48.1682 0 0 193
-46.4256 -66.0907 47.9663 0 0 165
-46.5412 -64.8007 47.9728 0 0 165
-48.3253 -64.2696 48.4126 0 0 190
-47.5404 -63.2623 48.2343 0 0 164
-48.4136 -62.9826 48.4721 0 0 164
-51.4188 -65.4455 49.0027 0 0 132
-50.7492 -64.5997 48.9935 0 0 132
-52.0599 -66.2534 48.9454 0 0 129
-52.6439 -66.9705 48.7699 0 0 129
-51.2876 -66.643 48.7848 0 0 173
-51.4188 -65.4455 49.0027 0 0 152
-52.0599 -66.2534 48.9454 0 0 152
-53.2153 -70.4524 47.4173 0 0 147
-52.7778 -69.9281 47.9103 0 0 165
-53.4522 -69.3188 47.7098 0 0 147
-52.9118 -71.5214 47.0251 0 0 165
-53.2153 -70.4524 47.4173 0 0 147
-53.5863 -70.912 46.8246 0 0 147
-59.88 -61.6483 13.8261 0 0 146
-60.6159 -61.5145 14.7215 0 0 146
-58.8537 -62.5685 14.2074 0 0 146
-59.88 -61.6483 13.8261 0 0 146
-57.7924 -63.4268 14.6164 0 0 183
-58.5151 -63.2288 15.4977 0 0 219
-58.8537 -62.5685 14.2074 0 0 183
-57.1219 -63.6999 13.7451 0 0 182
-56.7833 -64.3601 15.0355 0 0 218
-57.7924 -63.4268 14.6164 0 0 182
-56.5422 -64.0022 12.8759 0 0 145
-57.1219 -63.6999 13.7451 0 0 145
-56.0592 -64.3887 12.0134 0 0 178
-55.6298 -65.0197 13.3017 0 0 212
-56.5422 -64.0022 12.8759 0 0 178
-55.6905 -64.812 11.1646 0 0 143
-56.0592 -64.3887 12.0134 0 0 143
-27.7202 -83.4663 46.2568 0 0 135
-27.0359 -83.3802 46.2108 0 0 135
-57.5071 -68.7321 37.9007 0 0 140
-57.3294 -68.7521 39.1459 0 0 140
-56.9278 -69.4437 37.0988 0 0 201
-57.5071 -68.7321 37.9007 0 0 171
-57.6077 -68.6208 36.632 0 0 171
-57.1152 -69.1439 34.5405 0 0 203
-57.768 -68.5302 35.3558 0 0 172
-57.8548 -68.3417 34.0662 0 0 172
-56.9602 -67.2443 24.6324 0 0 180
-55.9905 -67.9964 25.1246 0 0 216
-56.8535 -67.7165 25.9516 0 0 180
-57.119 -66.7711 23.3305 0 0 146
-56.9602 -67.2443 24.6324 0 0 146
-57.2831 -66.2462 22.0093 0 0 182
-56.2614 -66.9993 22.4843 0 0 218
-57.119 -66.7711 23.3305 0 0 182
-58.3401 -65.4748 21.5535 0 0 183
-57.4825 -65.703 20.7074 0 0 220
-57.2831 -66.2462 22.0093 0 0 183
-59.3681 -64.7473 21.1225 0 0 145
-58.3401 -65.4748 21.5535 0 0 145
-60.4198 -63.9922 20.7085 0 0 182
-59.5911 -64.1765 19.8375 0 0 218
-59.3681 -64.7473 21.1225 0 0 182
-61.3995 -63.2704 20.325 0 0 144
-60.4198 -63.9922 20.7085 0 0 144
-61.6333 -62.6628 19.0554 0 0 144
-61.3995 -63.2704 20.325 0 0 144
-33.9216 -69.2124 49.8615 0 0 136
-34.6419 -68.9614 49.3195 0 0 136
-33.659 -70.4673 49.8772 0 0 135
-33.9216 -69.2124 49.8615 0 0 135
-34.1647 -71.5501 49.5022 0 0 187
-33.4231 -71.772 49.9772 0 0 162
-33.659 -70.4673 49.8772 0 0 162
-37.3291 -66.9952 48.1011 0 0 189
-36.6857 -65.9359 48.3362 0 0 162
-37.5434 -65.7179 48.0428 0 0 162
-44.5644 -66.588 47.6876 0 0 139
-45.5004 -66.3586 47.8281 0 0 139
-44.4173 -67.9053 47.7964 0 0 197
-43.6112 -66.8282 47.5987 0 0 168
-44.5644 -66.588 47.6876 0 0 168
-46.7068 -96.3421 8.41296 0 0 183
-46.199 -97.5519 8.36663 0 0 183
-46.3872 -96.7422 9.56651 0 0 220
-47.1808 -95.098 8.41896 0 0 181
-47.2762 -94.3086 9.55411 0 0 217
-47.562 -93.8742 8.36023 0 0 181
-46.7068 -96.3421 8.41296 0 0 148
-47.1808 -95.098 8.41896 0 0 148
-49.289 -89.0848 5.54786 0 0 178
-49.3134 -88.3967 6.53955 0 0 212
-49.6747 -87.8472 5.34468 0 0 178
-48.8698 -90.3712 5.70696 0 0 146
-49.289 -89.0848 5.54786 0 0 146
-48.519 -91.6276 5.86285 0 0 180
-48.5768 -90.8906 6.89863 0 0 215
-48.8698 -90.3712 5.70696 0 0 180
-48.1159 -92.927 5.96582 0 0 147
-48.519 -91.6276 5.86285 0 0 147
-54.0483 -66.9547 12.045 0 0 176
-54.2972 -66.448 12.8886 0 0 209
-54.8979 -65.9128 11.5957 0 0 176
-53.3121 -68.0722 12.492 0 0 210
-54.0483 -66.9547 12.045 0 0 177
-53.9128 -67.537 11.1991 0 0 177
-53.2648 -69.3234 10.8249 0 0 213
-53.9064 -68.148 10.3843 0 0 179
-53.9947 -68.8169 9.56304 0 0 179
-53.3933 -77.7308 6.30021 0 0 180
-52.4798 -78.2155 7.46833 0 0 214
-53.1309 -77.068 7.15507 0 0 180
-53.6388 -78.346 5.46862 0 0 143
-53.3933 -77.7308 6.30021 0 0 143
-53.7226 -75.9102 6.8012 0 0 145
-54.3744 -74.7346 6.46046 0 0 145
-31.0366 -77.1347 50.4104 0 0 155
-31.2584 -75.8888 50.5894 0 0 155
-31.7308 -77.0067 50.0899 0 0 178
-31.0366 -77.1347 50.4104 0 0 131
-30.8098 -78.3081 50.0796 0 0 131
-30.1902 -81.7882 48.5617 0 0 153
-30.3876 -80.6374 49.1759 0 0 153
-30.8909 -81.8144 48.5552 0 0 175
-29.4889 -81.6784 48.4075 0 0 155
-30.1902 -81.7882 48.5617 0 0 155
-29.9922 -82.8554 47.7868 0 0 178
-28.8181 -81.6385 48.4473 0 0 131
-29.4889 -81.6784 48.4075 0 0 131
-28.6058 -82.6277 47.5215 0 0 133
-28.8181 -81.6385 48.4473 0 0 133
-28.4215 -83.644 46.4914 0 0 158
-28.6058 -82.6277 47.5215 0 0 158
-29.1066 -83.7618 46.6025 0 0 182
-28.2209 -84.6003 45.3378 0 0 190
-27.7202 -83.4663 46.2568 0 0 163
-28.4215 -83.644 46.4914 0 0 163
-25.9506 -95.3202 30.6178 0 0 187
-25.4203 -94.0568 31.9322 0 0 187
-26.2946 -94.0355 32.0261 0 0 226
-25.9506 -95.3202 30.6178 0 0 149
-26.4323 -96.5884 29.299 0 0 149
-26.518 -99.1601 26.6819 0 0 191
-26.9616 -97.8838 28.087 0 0 191
-27.44 -99.166 26.8827 0 0 231
-26.518 -99.1601 26.6819 0 0 152
-26.0046 -100.551 25.4487 0 0 152
-25.562 -105.805 20.9623 0 0 155
-26.2709 -104.371 21.9746 0 0 155
-24.7983 -107.185 19.9611 0 0 197
-25.562 -105.805 20.9623 0 0 197
-25.932 -106.951 19.8983 0 0 241
-23.9672 -108.655 19.1311 0 0 157
-24.7983 -107.185 19.9611 0 0 157
-24.2908 -109.739 18.0587 0 0 202
-23.0896 -110.062 18.2927 0 0 156
-23.9672 -108.655 19.1311 0 0 202
-24.2908 -109.739 18.0587 0 0 156
-25.5543 -109.355 17.9076 0 0 156
-27.1884 -109.99 16.993 0 0 195
-26.7521 -109.063 17.9217 0 0 195
-28.0002 -108.675 17.9967 0 0 238
-27.1884 -109.99 16.993 0 0 151
-27.5812 -110.844 16.045 0 0 151
-28.8078 -112.718 13.2989 0 0 187
-28.3975 -112.218 14.2038 0 0 187
-29.7022 -111.555 14.3582 0 0 226
-28.8078 -112.718 13.2989 0 0 149
-29.187 -113.14 12.3444 0 0 149
-33.0364 -110.712 13.1526 0 0 182
-33.8267 -109.791 14.5029 0 0 218
-34.2345 -109.908 13.5823 0 0 182
-31.7632 -111.596 12.8364 0 0 148
-33.0364 -110.712 13.1526 0 0 148
-34.6589 -109.88 12.6477 0 0 149
-35.0607 -109.809 11.699 0 0 149
-36.7886 -108.841 7.81135 0 0 155
-38.0408 -107.676 8.2018 0 0 155
3 0 124 122
3 0 127 125
3 0 122 127
3 1 131 129
3 1 135 133
3 1 129 135
3 4 138 137
3 5 141 139
3 5 143 141
3 2 146 144
3 6 484 486
3 484 147 485
3 484 485 486
3 6 149 147
3 3 152 150
3 7 155 153
3 7 157 155
3 7 159 157
3 4 162 160
3 4 137 162
3 9 167 165
3 11 170 168
3 11 172 170
3 12 175 173
3 14 178 176
3 16 181 179
3 16 183 181
3 16 185 183
3 9 188 186
3 9 165 188
3 18 192 190
3 20 195 193
3 20 197 195
3 487 200 488
3 489 488 198
3 487 488 489
3 490 203 491
3 22 206 204
3 22 208 206
3 8 211 209
3 23 214 212
3 23 216 214
3 23 218 216
3 18 221 219
3 18 190 221
3 10 225 223
3 493 492 226
3 19 229 227
3 24 232 230
3 24 234 232
3 13 237 235
3 494 239 495
3 496 241 497
3 498 497 239
3 496 497 498
3 500 499 241
3 25 501 502
3 25 503 504
3 21 243 242
3 26 246 244
3 26 248 246
3 15 251 249
3 27 254 252
3 27 256 254
3 27 258 256
3 28 261 259
3 28 263 261
3 28 265 263
3 29 268 266
3 29 270 268
3 17 273 271
3 30 276 274
3 30 505 507
3 507 506 276
3 505 506 507
3 30 508 509
3 31 279 277
3 33 280 123
3 33 281 280
3 34 285 283
3 36 286 126
3 36 287 286
3 36 289 287
3 31 290 128
3 31 277 290
3 38 293 291
3 40 294 130
3 40 295 294
3 510 297 511
3 42 298 132
3 42 299 298
3 43 302 300
3 45 303 134
3 45 304 303
3 45 306 304
3 38 307 136
3 38 291 307
3 47 310 308
3 49 311 140
3 49 312 311
3 49 512 514
3 514 513 312
3 512 513 514
3 516 515 142
3 50 315 313
3 52 316 145
3 52 317 316
3 53 517 519
3 519 518 148
3 517 518 519
3 53 520 522
3 520 318 521
3 520 521 522
3 54 321 319
3 56 322 151
3 56 323 322
3 57 326 324
3 59 327 154
3 59 328 327
3 59 330 328
3 61 331 156
3 61 332 331
3 61 334 332
3 63 335 158
3 63 336 335
3 64 339 337
3 66 340 161
3 66 341 340
3 66 342 341
3 524 523 163
3 525 345 526
3 527 526 343
3 525 526 527
3 528 346 529
3 69 347 164
3 69 348 347
3 70 530 532
3 530 349 531
3 530 531 532
3 70 350 349
3 70 351 350
3 533 352 534
3 535 343 536
3 537 536 352
3 535 536 537
3 71 355 353
3 73 356 166
3 73 357 356
3 32 358 278
3 74 359 169
3 74 360 359
3 74 361 360
3 75 362 171
3 75 363 362
3 76 366 364
3 78 367 174
3 78 368 367
3 538 369 539
3 540 539 282
3 538 539 540
3 79 372 370
3 81 373 177
3 81 374 373
3 35 375 284
3 82 376 180
3 82 377 376
3 82 378 377
3 83 379 182
3 83 380 379
3 83 382 380
3 85 383 184
3 85 384 383
3 37 385 288
3 86 386 187
3 86 387 386
3 86 388 387
3 71 389 189
3 71 353 389
3 87 392 390
3 89 393 191
3 89 394 393
3 39 395 292
3 90 396 194
3 90 397 396
3 90 398 397
3 91 399 196
3 91 400 399
3 67 401 344
3 92 402 199
3 92 403 402
3 541 404 542
3 93 405 201
3 93 406 405
3 93 407 406
3 94 408 202
3 94 409 408
3 94 410 409
3 95 543 545
3 543 411 544
3 543 544 545
3 95 412 411
3 41 413 296
3 96 414 205
3 96 415 414
3 96 416 415
3 97 417 207
3 97 418 417
3 68 546 548
3 546 419 547
3 546 547 548
3 98 420 210
3 98 421 420
3 44 422 301
3 99 423 213
3 99 424 423
3 99 425 424
3 100 426 215
3 100 427 426
3 100 428 427
3 101 429 217
3 101 430 429
3 46 431 305
3 102 432 220
3 102 433 432
3 102 434 433
3 87 435 222
3 87 390 435
3 72 436 354
3 103 549 551
3 551 550 224
3 549 550 551
3 103 552 553
3 48 437 309
3 88 438 391
3 104 439 228
3 104 440 439
3 51 441 314
3 105 442 231
3 105 443 442
3 105 444 443
3 106 445 233
3 106 446 445
3 77 447 365
3 107 448 236
3 107 449 448
3 554 450 555
3 108 451 238
3 108 452 451
3 108 453 452
3 109 454 240
3 109 455 454
3 109 556 558
3 558 557 455
3 556 557 558
3 110 559 560
3 110 561 562
3 55 456 320
3 111 457 245
3 111 563 565
3 565 564 457
3 563 564 565
3 111 566 567
3 112 458 247
3 112 459 458
3 80 460 371
3 113 461 250
3 113 462 461
3 58 463 325
3 114 464 253
3 114 465 464
3 114 466 465
3 115 467 255
3 115 468 467
3 115 469 468
3 116 470 257
3 116 471 470
3 60 472 329
3 117 473 260
3 117 474 473
3 117 568 570
3 570 569 474
3 568 569 570
3 572 571 262
3 118 475 264
3 118 573 575
3 575 574 475
3 573 574 575
3 62 476 333
3 119 477 267
3 119 576 578
3 578 577 477
3 576 577 578
3 119 579 580
3 582 581 269
3 84 478 381
3 120 479 272
3 120 480 479
3 65 481 338
3 121 482 275
3 121 483 482
3 121 583 585
3 585 584 483
3 583 584 585
3 122 123 31
3 124 123 122
3 124 33 123
3 125 126 34
3 127 126 125
3 127 36 126
3 127 128 36
3 122 128 127
3 122 31 128
3 129 130 38
3 131 130 129
3 131 40 130
3 586 132 587
3 586 587 588
3 589 132 590
3 591 42 592
3 593 592 132
3 591 592 593
3 133 134 43
3 135 134 133
3 135 45 134
3 135 136 45
3 129 136 135
3 129 38 136
3 137 594 595
3 138 596 598
3 598 597 137
3 596 597 598
3 138 599 600
3 139 140 47
3 141 140 139
3 141 49 140
3 141 142 49
3 143 142 141
3 143 601 603
3 603 602 142
3 601 602 603
3 144 145 50
3 146 145 144
3 146 52 145
3 147 604 605
3 147 606 607
3 147 608 610
3 608 148 609
3 608 609 610
3 149 148 147
3 149 53 148
3 150 151 54
3 152 151 150
3 152 56 151
3 153 154 57
3 155 154 153
3 155 59 154
3 155 156 59
3 157 156 155
3 157 61 156
3 157 158 61
3 159 158 157
3 159 63 158
3 160 161 64
3 162 161 160
3 162 66 161
3 162 163 66
3 137 163 162
3 137 611 613
3 613 612 163
3 611 612 613
3 614 164 615
3 616 164 617
3 618 69 619
3 620 619 164
3 618 619 620
3 621 70 622
3 624 623 70
3 165 166 71
3 167 166 165
3 167 73 166
3 168 169 32
3 170 169 168
3 170 74 169
3 170 171 74
3 172 171 170
3 172 75 171
3 173 174 76
3 175 174 173
3 175 78 174
3 176 177 79
3 178 177 176
3 178 81 177
3 179 180 35
3 181 180 179
3 181 82 180
3 181 182 82
3 183 182 181
3 183 83 182
3 183 184 83
3 185 184 183
3 185 85 184
3 186 187 37
3 188 187 186
3 188 86 187
3 188 189 86
3 165 189 188
3 165 71 189
3 190 191 87
3 192 191 190
3 192 89 191
3 193 194 39
3 195 194 193
3 195 90 194
3 195 196 90
3 197 196 195
3 197 91 196
3 198 199 67
3 200 199 198
3 200 92 199
3 625 201 626
3 627 201 628
3 629 93 630
3 631 630 201
3 629 630 631
3 632 202 633
3 634 633 93
3 632 633 634
3 635 202 636
3 637 94 638
3 639 638 202
3 637 638 639
3 641 640 94
3 203 642 643
3 203 644 646
3 644 95 645
3 644 645 646
3 204 205 41
3 206 205 204
3 206 96 205
3 206 207 96
3 208 207 206
3 208 97 207
3 209 210 68
3 211 210 209
3 211 98 210
3 212 213 44
3 214 213 212
3 214 99 213
3 214 215 99
3 216 215 214
3 216 100 215
3 216 217 100
3 218 217 216
3 218 101 217
3 219 220 46
3 221 220 219
3 221 102 220
3 221 222 102
3 190 222 221
3 190 87 222
3 223 224 72
3 225 224 223
3 225 103 224
3 226 647 649
3 649 648 48
3 647 648 649
3 651 650 226
3 227 228 88
3 229 228 227
3 229 104 228
3 230 231 51
3 232 231 230
3 232 105 231
3 232 233 105
3 234 233 232
3 234 106 233
3 235 236 77
3 237 236 235
3 237 107 236
3 652 238 653
3 239 654 656
3 654 238 655
3 654 655 656
3 239 108 238
3 239 240 108
3 241 240 239
3 241 109 240
3 241 657 659
3 659 658 109
3 657 658 659
3 661 660 241
3 242 662 663
3 243 664 666
3 666 665 242
3 664 665 666
3 243 667 669
3 667 110 668
3 667 668 669
3 244 245 55
3 246 245 244
3 246 111 245
3 246 247 111
3 248 247 246
3 248 112 247
3 249 250 80
3 251 250 249
3 251 113 250
3 252 253 58
3 254 253 252
3 254 114 253
3 254 255 114
3 256 255 254
3 256 115 255
3 256 257 115
3 258 257 256
3 258 116 257
3 259 260 60
3 261 260 259
3 261 117 260
3 261 262 117
3 263 262 261
3 263 670 672
3 672 671 262
3 670 671 672
3 263 673 675
3 673 264 674
3 673 674 675
3 265 264 263
3 265 118 264
3 266 267 62
3 268 267 266
3 268 119 267
3 268 269 119
3 270 269 268
3 270 676 678
3 678 677 269
3 676 677 678
3 271 272 84
3 273 272 271
3 273 120 272
3 274 275 65
3 276 275 274
3 276 121 275
3 276 679 681
3 681 680 121
3 679 680 681
3 683 682 276
3 277 278 9
3 279 278 277
3 279 32 278
3 123 279 31
3 280 279 123
3 280 32 279
3 280 168 32
3 281 168 280
3 281 11 168
3 684 282 685
3 686 685 12
3 684 685 686
3 687 282 688
3 690 689 282
3 283 284 14
3 285 284 283
3 285 35 284
3 126 285 34
3 286 285 126
3 286 35 285
3 286 179 35
3 287 179 286
3 287 16 179
3 287 288 16
3 289 288 287
3 289 37 288
3 128 289 36
3 290 289 128
3 290 37 289
3 290 186 37
3 277 186 290
3 277 9 186
3 291 292 18
3 293 292 291
3 293 39 292
3 130 293 38
3 294 293 130
3 294 39 293
3 294 193 39
3 295 193 294
3 295 20 193
3 691 296 692
3 297 693 695
3 693 296 694
3 693 694 695
3 297 41 296
3 132 696 698
3 696 297 697
3 696 697 698
3 298 297 132
3 298 41 297
3 298 204 41
3 299 204 298
3 299 22 204
3 300 301 8
3 302 301 300
3 302 44 301
3 134 302 43
3 303 302 134
3 303 44 302
3 303 212 44
3 304 212 303
3 304 23 212
3 304 305 23
3 306 305 304
3 306 46 305
3 136 306 45
3 307 306 136
3 307 46 306
3 307 219 46
3 291 219 307
3 291 18 219
3 308 309 10
3 310 309 308
3 310 48 309
3 140 310 47
3 311 310 140
3 311 48 310
3 311 226 48
3 312 226 311
3 312 699 701
3 701 700 226
3 699 700 701
3 312 702 704
3 702 703 704
3 706 705 312
3 142 707 709
3 709 708 49
3 707 708 709
3 711 710 142
3 313 314 19
3 315 314 313
3 315 51 314
3 145 315 50
3 316 315 145
3 316 51 315
3 316 230 51
3 317 230 316
3 317 24 230
3 713 712 13
3 148 714 715
3 717 716 148
3 318 718 719
3 318 720 722
3 720 25 721
3 720 721 722
3 319 320 21
3 321 320 319
3 321 55 320
3 151 321 54
3 322 321 151
3 322 55 321
3 322 244 55
3 323 244 322
3 323 26 244
3 324 325 15
3 326 325 324
3 326 58 325
3 154 326 57
3 327 326 154
3 327 58 326
3 327 252 58
3 328 252 327
3 328 27 252
3 328 329 27
3 330 329 328
3 330 60 329
3 156 330 59
3 331 330 156
3 331 60 330
3 331 259 60
3 332 259 331
3 332 28 259
3 332 333 28
3 334 333 332
3 334 62 333
3 158 334 61
3 335 334 158
3 335 62 334
3 335 266 62
3 336 266 335
3 336 29 266
3 337 338 17
3 339 338 337
3 339 65 338
3 161 339 64
3 340 339 161
3 340 65 339
3 340 274 65
3 341 274 340
3 341 30 274
3 341 723 725
3 725 724 30
3 723 724 725
3 342 726 728
3 728 727 341
3 726 727 728
3 342 729 730
3 163 342 66
3 731 342 732
3 733 732 163
3 731 732 733
3 735 734 342
3 343 344 1
3 345 344 343
3 345 67 344
3 736 345 737
3 738 345 739
3 740 67 741
3 742 741 345
3 740 741 742
3 743 198 744
3 745 744 67
3 743 744 745
3 746 198 747
3 749 748 198
3 346 750 751
3 346 752 754
3 752 68 753
3 752 753 754
3 164 755 757
3 755 346 756
3 755 756 757
3 347 346 164
3 347 68 346
3 347 209 68
3 348 209 347
3 348 8 209
3 758 69 759
3 349 760 761
3 349 762 764
3 762 69 763
3 762 763 764
3 349 348 69
3 350 348 349
3 350 8 348
3 350 300 8
3 351 300 350
3 351 43 300
3 765 351 766
3 767 766 70
3 765 766 767
3 352 768 770
3 768 351 769
3 768 769 770
3 352 43 351
3 352 133 43
3 343 133 352
3 343 1 133
3 353 354 4
3 355 354 353
3 355 72 354
3 166 355 71
3 356 355 166
3 356 72 355
3 356 223 72
3 357 223 356
3 357 10 223
3 278 167 9
3 358 167 278
3 358 73 167
3 169 358 32
3 359 358 169
3 359 73 358
3 359 357 73
3 360 357 359
3 360 10 357
3 360 308 10
3 361 308 360
3 361 47 308
3 171 361 74
3 362 361 171
3 362 47 361
3 362 139 47
3 363 139 362
3 363 5 139
3 364 365 2
3 366 365 364
3 366 77 365
3 174 366 76
3 367 366 174
3 367 77 366
3 367 235 77
3 368 235 367
3 368 13 235
3 282 175 12
3 369 175 282
3 369 78 175
3 771 369 772
3 773 369 774
3 775 78 776
3 777 776 369
3 775 776 777
3 778 368 779
3 780 779 78
3 778 779 780
3 781 368 782
3 783 13 784
3 785 784 368
3 783 784 785
3 787 786 13
3 788 6 789
3 370 371 3
3 372 371 370
3 372 80 371
3 177 372 79
3 373 372 177
3 373 80 372
3 373 249 80
3 374 249 373
3 374 15 249
3 284 178 14
3 375 178 284
3 375 81 178
3 180 375 35
3 376 375 180
3 376 81 375
3 376 374 81
3 377 374 376
3 377 15 374
3 377 324 15
3 378 324 377
3 378 57 324
3 182 378 82
3 379 378 182
3 379 57 378
3 379 153 57
3 380 153 379
3 380 7 153
3 380 381 7
3 382 381 380
3 382 84 381
3 184 382 83
3 383 382 184
3 383 84 382
3 383 271 84
3 384 271 383
3 384 17 271
3 288 185 16
3 385 185 288
3 385 85 185
3 187 385 37
3 386 385 187
3 386 85 385
3 386 384 85
3 387 384 386
3 387 17 384
3 387 337 17
3 388 337 387
3 388 64 337
3 189 388 86
3 389 388 189
3 389 64 388
3 389 160 64
3 353 160 389
3 353 4 160
3 390 391 0
3 392 391 390
3 392 88 391
3 191 392 87
3 393 392 191
3 393 88 392
3 393 227 88
3 394 227 393
3 394 19 227
3 292 192 18
3 395 192 292
3 395 89 192
3 194 395 39
3 396 395 194
3 396 89 395
3 396 394 89
3 397 394 396
3 397 19 394
3 397 313 19
3 398 313 397
3 398 50 313
3 196 398 90
3 399 398 196
3 399 50 398
3 399 144 50
3 400 144 399
3 400 2 144
3 344 131 1
3 401 131 344
3 401 40 131
3 199 401 67
3 402 401 199
3 402 40 401
3 402 295 40
3 403 295 402
3 403 20 295
3 790 200 791
3 404 792 794
3 792 200 793
3 792 793 794
3 404 92 200
3 201 795 797
3 795 404 796
3 795 796 797
3 405 404 201
3 405 92 404
3 405 403 92
3 406 403 405
3 406 20 403
3 406 197 20
3 407 197 406
3 407 91 197
3 202 407 93
3 408 407 202
3 408 91 407
3 408 400 91
3 409 400 408
3 409 2 400
3 409 364 2
3 410 364 409
3 410 76 364
3 798 410 799
3 800 799 94
3 798 799 800
3 801 410 802
3 803 76 804
3 805 804 410
3 803 804 805
3 806 173 807
3 808 807 76
3 806 807 808
3 809 173 810
3 811 12 812
3 813 812 173
3 811 812 813
3 814 12 815
3 817 816 12
3 411 818 819
3 411 820 821
3 411 822 824
3 822 242 823
3 822 823 824
3 412 242 411
3 412 21 242
3 296 825 827
3 825 203 826
3 825 826 827
3 413 203 296
3 413 95 203
3 205 413 41
3 414 413 205
3 414 95 413
3 414 412 95
3 415 412 414
3 415 21 412
3 415 319 21
3 416 319 415
3 416 54 319
3 207 416 96
3 417 416 207
3 417 54 416
3 417 150 54
3 418 150 417
3 418 3 150
3 419 828 829
3 419 830 832
3 830 42 831
3 830 831 832
3 210 419 68
3 420 419 210
3 420 42 419
3 420 299 42
3 421 299 420
3 421 22 299
3 301 211 8
3 422 211 301
3 422 98 211
3 213 422 44
3 423 422 213
3 423 98 422
3 423 421 98
3 424 421 423
3 424 22 421
3 424 208 22
3 425 208 424
3 425 97 208
3 215 425 99
3 426 425 215
3 426 97 425
3 426 418 97
3 427 418 426
3 427 3 418
3 427 370 3
3 428 370 427
3 428 79 370
3 217 428 100
3 429 428 217
3 429 79 428
3 429 176 79
3 430 176 429
3 430 14 176
3 305 218 23
3 431 218 305
3 431 101 218
3 220 431 46
3 432 431 220
3 432 101 431
3 432 430 101
3 433 430 432
3 433 14 430
3 433 283 14
3 434 283 433
3 434 34 283
3 222 434 102
3 435 434 222
3 435 34 434
3 435 125 34
3 390 125 435
3 390 0 125
3 354 138 4
3 436 138 354
3 436 833 835
3 835 834 138
3 833 834 835
3 224 436 72
3 836 436 837
3 838 837 224
3 836 837 838
3 840 839 436
3 309 225 10
3 437 225 309
3 437 103 225
3 841 437 842
3 843 842 48
3 841 842 843
3 844 437 845
3 846 103 847
3 848 847 437
3 846 847 848
3 850 849 103
3 391 124 0
3 438 124 391
3 438 33 124
3 228 438 88
3 439 438 228
3 439 33 438
3 439 281 33
3 440 281 439
3 440 11 281
3 314 229 19
3 441 229 314
3 441 104 229
3 231 441 51
3 442 441 231
3 442 104 441
3 442 440 104
3 443 440 442
3 443 11 440
3 443 172 11
3 444 172 443
3 444 75 172
3 233 444 105
3 445 444 233
3 445 75 444
3 445 363 75
3 446 363 445
3 446 5 363
3 365 146 2
3 447 146 365
3 447 52 146
3 236 447 77
3 448 447 236
3 448 52 447
3 448 317 52
3 449 317 448
3 449 24 317
3 851 237 852
3 853 852 13
3 851 852 853
3 450 854 856
3 854 237 855
3 854 855 856
3 450 107 237
3 238 857 859
3 857 450 858
3 857 858 859
3 451 450 238
3 451 107 450
3 451 449 107
3 452 449 451
3 452 24 449
3 452 234 24
3 453 234 452
3 453 106 234
3 240 453 108
3 454 453 240
3 454 106 453
3 454 446 106
3 455 446 454
3 455 5 446
3 455 143 5
3 860 143 861
3 862 861 455
3 860 861 862
3 864 863 143
3 866 865 109
3 320 243 21
3 456 243 320
3 456 110 243
3 245 456 55
3 457 456 245
3 457 110 456
3 457 867 869
3 869 868 110
3 867 868 869
3 871 870 457
3 247 872 874
3 874 873 111
3 872 873 874
3 458 875 877
3 877 876 247
3 875 876 877
3 458 878 879
3 458 880 881
3 459 882 884
3 884 883 458
3 882 883 884
3 459 885 887
3 885 6 886
3 885 886 887
3 371 152 3
3 460 152 371
3 460 56 152
3 250 460 80
3 461 460 250
3 461 56 460
3 461 323 56
3 462 323 461
3 462 26 323
3 325 251 15
3 463 251 325
3 463 113 251
3 253 463 58
3 464 463 253
3 464 113 463
3 464 462 113
3 465 462 464
3 465 26 462
3 465 248 26
3 466 248 465
3 466 112 248
3 255 466 114
3 467 466 255
3 467 112 466
3 467 459 112
3 468 459 467
3 468 6 459
3 468 149 6
3 469 149 468
3 469 53 149
3 257 469 115
3 470 469 257
3 470 53 469
3 470 318 53
3 471 318 470
3 471 25 318
3 329 258 27
3 472 258 329
3 472 116 258
3 260 472 60
3 473 472 260
3 473 116 472
3 473 471 116
3 474 471 473
3 474 25 471
3 474 888 890
3 890 889 25
3 888 889 890
3 892 891 474
3 262 893 895
3 895 894 117
3 893 894 895
3 897 896 262
3 264 898 899
3 475 900 902
3 902 901 264
3 900 901 902
3 475 903 904
3 475 905 907
3 905 906 907
3 909 908 475
3 333 265 28
3 476 265 333
3 476 118 265
3 267 476 62
3 477 476 267
3 477 118 476
3 477 910 912
3 912 911 118
3 910 911 912
3 914 913 477
3 269 915 917
3 917 916 119
3 915 916 917
3 919 918 269
3 381 159 7
3 478 159 381
3 478 63 159
3 272 478 84
3 479 478 272
3 479 63 478
3 479 336 63
3 480 336 479
3 480 29 336
3 338 273 17
3 481 273 338
3 481 120 273
3 275 481 65
3 482 481 275
3 482 120 481
3 482 480 120
3 483 480 482
3 483 29 480
3 483 270 29
3 920 270 921
3 922 921 483
3 920 921 922
3 924 923 270
3 926 925 121
3 928 927 30
