ply
format ascii 1.0
element vertex 330
property float x
property float y
property float z
property uchar red
property uchar green
property uchar blue
element face 367
property list uchar int vertex_index
end_header
-49.1463 51.0476 -3.99954 236 255 19
-34.5224 37.264 -2.09417 59 255 196
-48.3543 55.3605 1.32252 255 253 0
-46.5353 61.3985 -9.49849 202 0 0
-46.0106 54.5835 -12.9671 255 242 0
-52.1787 44.4263 4.82606 219 255 36
-46.5303 40.4383 2.85199 159 255 96
-42.0234 45.9516 -3.46904 228 0 0
-39.1864 47.4536 -11.3377 255 56 0
-49.7644 53.2883 -2.07747 255 151 0
-50.7766 49.8198 3.035 255 94 0
-50.7041 48.0016 0.5257 209 255 46
-50.3658 42.654 3.08589 255 208 0
-48.271 45.9664 -0.425207 255 127 0
-44.0884 43.5403 -0.000153 206 0 0
-46.3057 48.6864 -4.32094 255 85 0
-43.0634 51.1424 -12.519 255 131 0
-47.6049 58.7617 -4.199 128 0 0
-48.61 56.0985 -7.18949 255 184 0
-47.6009 53.3356 -8.59048 255 245 0
-47.2103 58.0242 -12.0291 255 204 0
-35.7758 35.6338 1.48946 163 255 92
-48.9675 51.4043 6.79053 255 232 0
-51.6071 45.8872 7.9333 255 33 0
-39.4587 40.2743 1.01208 210 0 0
-37.6473 42.3149 -2.37361 255 0 0
-44.5937 50.5128 -8.45194 255 95 0
-40.4343 47.3335 -7.35976 255 19 0
-36.4375 43.2843 -6.26594 153 255 102
-49.7463 52.1807 -3.24187 243 255 12
-50.4004 50.6335 -0.808048 249 255 6
-49.9266 49.6039 -1.71697 220 255 35
-49.7674 47.0154 -0.147806 255 243 0
-48.8589 48.5372 -2.21812 255 214 0
-47.2608 47.4179 -2.33079 255 99 0
-47.9745 49.8897 -4.34773 255 191 0
-45.6492 62.9683 -7.69653 255 243 0
-46.1668 61.5767 -4.99189 255 217 0
-47.1257 60.1895 -6.89617 163 0 0
-48.3246 57.4558 -5.87728 255 37 0
-47.756 58.7134 -8.47027 255 64 0
-47.9521 57.1887 -9.66535 255 194 0
-47.0856 59.7354 -10.9566 255 91 0
-36.6599 34.5057 3.01025 52 255 203
-48.6729 53.4385 4.07984 255 239 0
-51.6289 47.1152 3.95298 255 217 0
-51.2246 47.8998 5.52554 255 61 0
-52.1682 45.1919 6.23628 255 185 0
-52.6156 43.1883 8.41856 77 255 178
-52.8186 42.5006 6.84718 1 255 254
-52.412 41.7264 5.58131 0 230 255
-48.6391 41.617 2.79606 255 90 0
-49.8177 39.8627 4.16807 79 255 176
-47.8212 38.7267 4.03249 28 255 227
-42.9981 44.8537 -1.66534 211 0 0
-41.7378 42.0478 0.500519 188 0 0
-40.6767 43.2802 -1.11176 208 0 0
-38.4736 41.4134 -0.59617 235 0 0
-39.7562 44.2832 -2.88273 233 0 0
-46.8223 54.1082 -10.8284 255 240 0
-46.3106 51.9425 -8.68912 255 173 0
-45.5175 52.5651 -10.8276 255 178 0
-41.1692 49.3541 -11.967 255 83 0
-41.8568 49.342 -9.98851 255 63 0
-39.7861 47.5563 -9.36028 255 39 0
-38.3292 45.4504 -6.74948 255 19 0
-37.7775 45.571 -8.75342 255 254 0
-37.278 45.3841 -10.7437 26 255 229
-44.981 64.125 -10.2785 114 255 141
-45.7977 62.3545 -11.9579 170 255 85
-49.2606 54.3552 -0.538904 234 0 0
-49.6648 52.5636 2.14028 205 0 0
-50.2867 51.624 0.491947 255 125 0
-51.032 48.9369 1.59713 255 244 0
-51.4629 46.2675 2.71214 208 255 47
-51.5735 43.5837 3.76326 215 255 40
-50.681 45.355 1.84952 238 255 17
-49.3152 44.3678 1.38267 255 164 0
-47.4641 43.2818 1.29036 255 48 0
-45.2751 42.055 1.50806 255 207 0
-46.3261 44.8247 -0.348286 255 18 0
-45.2534 46.2092 -2.11407 255 5 0
-44.2673 47.3946 -3.99223 255 7 0
-45.1296 54.7322 -14.9594 15 255 240
-44.7183 52.8719 -12.8841 255 190 0
-43.8734 52.8426 -14.8153 44 255 211
-42.2816 50.9559 -14.4213 79 255 176
-40.4707 49.0374 -13.8679 108 255 147
-38.5841 47.0398 -13.2548 16 255 239
-46.5735 59.9808 -2.20845 169 255 86
-48.0051 57.1435 -1.44785 255 130 0
-48.819 55.9942 -3.22156 255 9 0
-49.2086 54.7884 -4.64776 255 171 0
-49.0736 53.5525 -5.68162 244 255 11
-48.3715 52.3029 -6.30076 253 255 2
-48.3781 54.7196 -8.0979 250 255 5
-47.6465 55.6479 -10.4519 254 255 1
-46.8549 56.3004 -12.6961 255 255 0
-46.2797 60.4851 -13.2855 89 255 166
-46.3515 58.5674 -14.2291 30 255 225
-45.9691 56.6416 -14.7804 6 255 249
-35.0651 36.5615 -0.225835 167 255 88
-49.2246 49.284 9.41752 141 255 114
-50.0369 50.6442 4.78672 179 0 0
-50.3674 48.622 7.36848 161 0 0
-50.6289 46.5201 9.8493 219 255 36
-51.8866 43.802 10.223 43 255 212
-51.3894 40.8531 4.67918 11 255 244
-42.9233 40.6296 1.93036 213 255 42
-40.5919 38.9382 2.42116 208 255 47
-38.4543 36.9143 2.82985 185 255 70
-37.4233 38.1525 1.38685 245 0 0
-36.5575 39.1878 -0.259959 255 2 0
-35.8604 39.986 -2.07427 255 6 0
-47.1251 51.0377 -6.51531 255 177 0
-45.417 49.7318 -6.37268 255 85 0
-43.3779 48.3378 -5.95661 255 21 0
-43.8196 50.9918 -10.5159 255 112 0
-42.5811 48.9977 -7.97012 255 42 0
-41.1717 46.7906 -5.38072 251 0 0
-38.9784 45.0166 -4.77674 255 1 0
-36.9756 42.9452 -4.27936 255 14 0
-35.3197 40.5233 -4.01082 161 255 94
-34.1145 35.7099 -2.30198 0 0 142
-34.3038 35.3971 -1.33897 0 0 142
-34.3242 37.496 -3.08128 0 0 143
-34.1145 35.7099 -2.30198 0 0 143
-37.1845 33.8574 3.65782 0 0 140
-36.4283 32.5066 3.63316 0 0 140
-48.5136 54.3995 2.70118 0 0 248
-47.9382 54.8611 3.76318 0 0 199
-47.7789 55.8221 2.38452 0 0 199
-46.0452 38.9211 3.53016 0 0 181
-46.6907 38.0653 4.12041 0 0 181
-47.1757 39.5825 3.44224 0 0 220
-45.3691 39.7534 3.00923 0 0 141
-46.0452 38.9211 3.53016 0 0 141
-44.0517 65.4812 -10.5606 0 0 148
-44.4526 64.934 -9.28754 0 0 148
-44.5514 64.5675 -11.4836 0 0 146
-44.0517 65.4812 -10.5606 0 0 146
-44.005 53.6912 -15.7922 0 0 157
-44.5015 53.7874 -14.8874 0 0 185
-44.6331 54.6359 -15.8642 0 0 157
-41.8534 50.7002 -15.309 0 0 132
-42.6094 51.7161 -15.5062 0 0 132
-40.9479 49.7409 -15.0323 0 0 167
-41.3762 49.9966 -14.1446 0 0 199
-41.8534 50.7002 -15.309 0 0 167
-40.09 48.7261 -14.7671 0 0 134
-40.9479 49.7409 -15.0323 0 0 134
-45.5769 61.7518 -13.7539 0 0 173
-46.0387 61.4198 -12.6217 0 0 209
-45.3359 62.6865 -13.0901 0 0 173
-45.8439 58.6757 -15.2229 0 0 132
-45.8256 59.7456 -14.817 0 0 132
-45.6528 57.7128 -15.4985 0 0 156
-46.1603 57.6045 -14.5048 0 0 184
-45.8439 58.6757 -15.2229 0 0 156
-45.459 56.6437 -15.721 0 0 130
-45.6528 57.7128 -15.4985 0 0 130
-35.1971 34.1682 1.35162 0 0 140
-35.5488 33.6605 2.16436 0 0 140
-35.4205 36.0977 0.631813 0 0 220
-34.8418 34.632 0.493968 0 0 181
-35.1971 34.1682 1.35162 0 0 181
-48.3586 51.7505 7.88749 0 0 151
-48.2253 52.8207 6.51957 0 0 151
-49.0961 50.3441 8.10402 0 0 247
-48.4872 50.6904 9.20098 0 0 198
-48.3586 51.7505 7.88749 0 0 198
-52.7718 42.1546 9.44236 0 0 133
-52.9786 41.8488 8.58409 0 0 133
-50.3904 38.9548 4.78739 0 0 135
-49.465 38.4074 4.61151 0 0 135
-35.672 42.0373 -6.14326 0 0 176
-35.1132 40.6568 -5.0157 0 0 176
-35.8786 41.9038 -5.13838 0 0 213
-37.681 45.9762 -12.9686 0 0 136
-38.2552 46.6924 -14.1699 0 0 136
-45.908 62.2725 -6.34421 0 0 249
-45.3521 62.9871 -5.29918 0 0 200
-45.0933 63.683 -6.6515 0 0 200
-35.9909 33.0964 2.92475 0 0 139
-36.4283 32.5066 3.63316 0 0 139
-36.2178 35.0698 2.24986 0 0 218
-35.5488 33.6605 2.16436 0 0 179
-35.9909 33.0964 2.92475 0 0 179
-48.078 53.8378 5.16423 0 0 151
-47.9382 54.8611 3.76318 0 0 151
-48.8202 52.4214 5.43519 0 0 248
-48.2253 52.8207 6.51957 0 0 199
-48.078 53.8378 5.16423 0 0 199
-53.0801 41.505 7.7984 0 0 158
-52.9786 41.8488 8.58409 0 0 158
-52.7171 42.8444 7.63287 0 0 187
-52.9879 41.1525 7.06717 0 0 128
-53.0801 41.505 7.7984 0 0 128
-52.7846 40.7654 6.43423 0 0 151
-52.9879 41.1525 7.06717 0 0 151
-52.6153 42.1135 6.21424 0 0 176
-52.38 40.358 5.86826 0 0 128
-52.7846 40.7654 6.43423 0 0 128
-48.4668 37.8394 4.54372 0 0 170
-49.465 38.4074 4.61151 0 0 170
-48.8195 39.2947 4.10028 0 0 204
-47.3836 37.1991 4.54779 0 0 139
-48.4668 37.8394 4.54372 0 0 139
-47.3836 37.1991 4.54779 0 0 140
-46.6907 38.0653 4.12041 0 0 140
-36.8865 44.4502 -8.51911 0 0 175
-36.2165 43.3069 -7.27537 0 0 175
-37.1075 44.4276 -7.50968 0 0 212
-36.6368 44.3568 -9.51425 0 0 175
-36.8865 44.4502 -8.51911 0 0 175
-37.5278 45.4775 -9.74856 0 0 212
-36.4396 44.2401 -10.5174 0 0 138
-36.6368 44.3568 -9.51425 0 0 138
-44.7867 64.3556 -7.99655 0 0 151
-45.0933 63.683 -6.6515 0 0 151
-45.3151 63.5467 -8.98751 0 0 243
-44.7867 64.3556 -7.99655 0 0 196
-44.4526 64.934 -9.28754 0 0 196
-44.9597 63.6823 -12.3233 0 0 185
-45.3894 63.2398 -11.1182 0 0 226
-44.5514 64.5675 -11.4836 0 0 185
-45.3359 62.6865 -13.0901 0 0 142
-44.9597 63.6823 -12.3233 0 0 142
-43.4053 52.6595 -15.7032 0 0 130
-44.005 53.6912 -15.7922 0 0 130
-43.0775 51.8993 -14.6183 0 0 192
-43.4053 52.6595 -15.7032 0 0 162
-42.6094 51.7161 -15.5062 0 0 162
-39.1467 47.7273 -14.4605 0 0 170
-39.5274 48.0386 -13.5613 0 0 204
-40.09 48.7261 -14.7671 0 0 170
-38.2552 46.6924 -14.1699 0 0 136
-39.1467 47.7273 -14.4605 0 0 136
-47.6311 56.7841 0.969195 0 0 151
-47.7789 55.8221 2.38452 0 0 151
-45.5861 62.2053 -3.90429 0 0 152
-45.3521 62.9871 -5.29918 0 0 152
-45.7895 61.4074 -2.51258 0 0 203
-45.5861 62.2053 -3.90429 0 0 203
-46.3701 60.7788 -3.60017 0 0 253
-45.9734 60.5303 -1.08756 0 0 153
-45.7895 61.4074 -2.51258 0 0 153
-46.7407 59.0943 -0.796289 0 0 153
-45.9734 60.5303 -1.08756 0 0 153
-47.4565 57.6756 -0.415989 0 0 198
-46.7407 59.0943 -0.796289 0 0 198
-47.2893 58.5621 -1.82815 0 0 246
-48.1797 56.252 -0.062667 0 0 245
-47.6311 56.7841 0.969195 0 0 198
-47.4565 57.6756 -0.415989 0 0 198
-45.7897 60.7045 -14.3452 0 0 137
-45.5769 61.7518 -13.7539 0 0 137
-46.3156 59.5263 -13.7573 0 0 193
-45.7897 60.7045 -14.3452 0 0 163
-45.8256 59.7456 -14.817 0 0 163
-45.0392 55.6889 -15.8105 0 0 155
-45.5494 55.6869 -14.8699 0 0 181
-45.459 56.6437 -15.721 0 0 155
-44.6331 54.6359 -15.8642 0 0 129
-45.0392 55.6889 -15.8105 0 0 129
-34.5752 35.0459 -0.404797 0 0 141
-34.8418 34.632 0.493968 0 0 141
-34.7938 36.9128 -1.16 0 0 223
-34.3038 35.3971 -1.33897 0 0 183
-34.5752 35.0459 -0.404797 0 0 183
-48.6033 49.5863 10.5156 0 0 150
-48.4872 50.6904 9.20098 0 0 150
-49.3171 48.1916 10.6692 0 0 149
-48.6033 49.5863 10.5156 0 0 149
-50.0193 46.8096 10.8851 0 0 192
-49.3171 48.1916 10.6692 0 0 192
-49.9268 47.9021 9.63341 0 0 237
-50.7036 45.438 11.0195 0 0 145
-50.0193 46.8096 10.8851 0 0 145
-51.3325 44.0789 11.2064 0 0 184
-50.7036 45.438 11.0195 0 0 184
-51.2577 45.161 10.0361 0 0 225
-51.9519 42.7298 11.2896 0 0 141
-51.3325 44.0789 11.2064 0 0 141
-52.4073 42.4615 10.3446 0 0 170
-52.2511 43.4951 9.32076 0 0 204
-52.7718 42.1546 9.44236 0 0 170
-51.9519 42.7298 11.2896 0 0 138
-52.4073 42.4615 10.3446 0 0 138
-51.8687 39.9213 5.41719 0 0 152
-52.38 40.358 5.86826 0 0 152
-51.9007 41.2897 5.13024 0 0 177
-51.1762 39.45 5.04294 0 0 160
-50.6035 40.3579 4.42362 0 0 189
-50.3904 38.9548 4.78739 0 0 160
-51.8687 39.9213 5.41719 0 0 130
-51.1762 39.45 5.04294 0 0 130
-44.7415 40.5618 2.33727 0 0 183
-45.3691 39.7534 3.00923 0 0 183
-45.9027 41.2467 2.18003 0 0 224
-43.5656 39.8491 2.54842 0 0 183
-44.7415 40.5618 2.33727 0 0 183
-44.0992 41.3423 1.71921 0 0 223
-42.3875 39.0384 2.77216 0 0 144
-43.5656 39.8491 2.54842 0 0 144
-41.2218 38.1927 3.01756 0 0 184
-42.3875 39.0384 2.77216 0 0 184
-41.7576 39.7839 2.17576 0 0 225
-40.1132 37.2251 3.23308 0 0 143
-41.2218 38.1927 3.01756 0 0 143
-39.0444 36.2131 3.43743 0 0 182
-40.1132 37.2251 3.23308 0 0 182
-39.5231 37.9262 2.6255 0 0 221
-38.0817 35.0618 3.56762 0 0 142
-39.0444 36.2131 3.43743 0 0 142
-37.5571 35.71 2.92005 0 0 216
-37.1845 33.8574 3.65782 0 0 178
-38.0817 35.0618 3.56762 0 0 178
-34.7229 39.1256 -4.0396 0 0 179
-34.3242 37.496 -3.08128 0 0 179
-34.921 38.8936 -3.0525 0 0 217
-34.7229 39.1256 -4.0396 0 0 140
-35.1132 40.6568 -5.0157 0 0 140
-35.672 42.0373 -6.14326 0 0 139
-36.2165 43.3069 -7.27537 0 0 139
-37.028 45.1483 -11.713 0 0 173
-37.931 46.2119 -11.9992 0 0 209
-37.681 45.9762 -12.9686 0 0 173
-36.4396 44.2401 -10.5174 0 0 137
-37.028 45.1483 -11.713 0 0 137
3 0 31 29
3 0 33 31
3 0 35 33
3 1 123 124
3 1 125 126
3 3 38 36
3 3 40 38
3 3 42 40
3 127 43 128
3 2 129 131
3 129 44 130
3 129 130 131
3 5 47 45
3 5 49 47
3 5 50 49
3 6 53 51
3 6 132 134
3 134 133 53
3 132 133 134
3 6 135 136
3 7 56 54
3 7 58 56
3 4 61 59
3 8 64 62
3 8 66 64
3 8 67 66
3 137 68 138
3 140 139 68
3 9 72 70
3 11 73 30
3 11 74 73
3 11 76 74
3 13 77 32
3 13 78 77
3 13 80 78
3 15 81 34
3 15 82 81
3 141 85 142
3 143 142 83
3 141 142 143
3 144 86 145
3 146 87 147
3 148 147 86
3 146 147 148
3 150 149 87
3 17 89 37
3 17 90 89
3 17 91 90
3 18 92 39
3 18 93 92
3 18 95 93
3 20 96 41
3 20 97 96
3 151 98 152
3 153 152 69
3 151 152 153
3 154 99 155
3 156 100 157
3 158 157 99
3 156 157 158
3 160 159 100
3 21 161 162
3 21 163 165
3 163 101 164
3 163 164 165
3 22 166 167
3 22 168 170
3 168 102 169
3 168 169 170
3 10 103 71
3 23 104 46
3 23 105 104
3 23 106 105
3 172 171 48
3 12 107 75
3 174 173 52
3 14 108 79
3 24 109 55
3 24 110 109
3 24 111 110
3 25 112 57
3 25 113 112
3 19 114 94
3 26 115 60
3 26 116 115
3 16 117 84
3 27 118 63
3 27 119 118
3 27 120 119
3 28 121 65
3 28 122 121
3 28 175 177
3 177 176 122
3 175 176 177
3 179 178 88
3 29 30 9
3 31 30 29
3 31 11 30
3 31 32 11
3 33 32 31
3 33 13 32
3 33 34 13
3 35 34 33
3 35 15 34
3 36 180 182
3 180 37 181
3 180 181 182
3 38 37 36
3 38 17 37
3 38 39 17
3 40 39 38
3 40 18 39
3 40 41 18
3 42 41 40
3 42 20 41
3 43 183 184
3 43 185 187
3 185 21 186
3 185 186 187
3 44 188 189
3 44 190 192
3 190 22 191
3 190 191 192
3 45 46 10
3 47 46 45
3 47 23 46
3 47 48 23
3 49 48 47
3 49 193 195
3 195 194 48
3 193 194 195
3 49 196 197
3 50 198 200
3 200 199 49
3 198 199 200
3 50 201 202
3 51 52 12
3 53 52 51
3 53 203 205
3 205 204 52
3 203 204 205
3 53 206 207
3 209 208 53
3 54 55 14
3 56 55 54
3 56 24 55
3 56 57 24
3 58 57 56
3 58 25 57
3 59 60 19
3 61 60 59
3 61 26 60
3 62 63 16
3 64 63 62
3 64 27 63
3 64 65 27
3 66 65 64
3 66 28 65
3 66 210 212
3 212 211 28
3 210 211 212
3 67 213 215
3 215 214 66
3 213 214 215
3 67 216 217
3 218 36 219
3 68 220 222
3 220 36 221
3 220 221 222
3 68 3 36
3 68 69 3
3 223 69 224
3 225 224 68
3 223 224 225
3 227 226 69
3 70 71 2
3 72 71 70
3 72 10 71
3 30 72 9
3 73 72 30
3 73 10 72
3 73 45 10
3 74 45 73
3 74 5 45
3 74 75 5
3 76 75 74
3 76 12 75
3 32 76 11
3 77 76 32
3 77 12 76
3 77 51 12
3 78 51 77
3 78 6 51
3 78 79 6
3 80 79 78
3 80 14 79
3 34 80 13
3 81 80 34
3 81 14 80
3 81 54 14
3 82 54 81
3 82 7 54
3 83 84 4
3 85 84 83
3 85 16 84
3 228 85 229
3 86 230 232
3 230 85 231
3 230 231 232
3 86 16 85
3 86 62 16
3 87 62 86
3 87 8 62
3 87 88 8
3 233 88 234
3 235 234 87
3 233 234 235
3 237 236 88
3 238 2 239
3 37 240 241
3 89 242 244
3 244 243 37
3 242 243 244
3 89 245 246
3 89 247 248
3 90 249 251
3 251 250 89
3 249 250 251
3 90 252 254
3 252 2 253
3 252 253 254
3 90 70 2
3 91 70 90
3 91 9 70
3 39 91 17
3 92 91 39
3 92 9 91
3 92 29 9
3 93 29 92
3 93 0 29
3 93 94 0
3 95 94 93
3 95 19 94
3 41 95 18
3 96 95 41
3 96 19 95
3 96 59 19
3 97 59 96
3 97 4 59
3 69 42 3
3 98 42 69
3 98 20 42
3 255 98 256
3 99 257 259
3 257 98 258
3 257 258 259
3 99 20 98
3 99 97 20
3 100 97 99
3 100 4 97
3 100 83 4
3 260 83 261
3 262 261 100
3 260 261 262
3 264 263 83
3 101 265 266
3 101 267 269
3 267 1 268
3 267 268 269
3 102 270 271
3 102 272 273
3 71 44 2
3 103 44 71
3 103 22 44
3 46 103 10
3 104 103 46
3 104 22 103
3 104 102 22
3 105 102 104
3 105 274 276
3 276 275 102
3 274 275 276
3 105 277 278
3 106 279 281
3 281 280 105
3 279 280 281
3 106 282 283
3 48 106 23
3 284 106 285
3 286 285 48
3 284 285 286
3 288 287 106
3 75 50 5
3 107 50 75
3 107 289 291
3 291 290 50
3 289 290 291
3 52 107 12
3 292 107 293
3 294 293 52
3 292 293 294
3 296 295 107
3 79 297 299
3 299 298 6
3 297 298 299
3 108 300 302
3 302 301 79
3 300 301 302
3 108 303 304
3 55 108 14
3 109 108 55
3 109 305 307
3 307 306 108
3 305 306 307
3 109 308 309
3 110 310 312
3 312 311 109
3 310 311 312
3 110 313 314
3 110 315 317
3 315 43 316
3 315 316 317
3 111 43 110
3 111 21 43
3 57 111 24
3 112 111 57
3 112 21 111
3 112 101 21
3 113 101 112
3 113 1 101
3 94 35 0
3 114 35 94
3 114 15 35
3 60 114 19
3 115 114 60
3 115 15 114
3 115 82 15
3 116 82 115
3 116 7 82
3 84 61 4
3 117 61 84
3 117 26 61
3 63 117 16
3 118 117 63
3 118 26 117
3 118 116 26
3 119 116 118
3 119 7 116
3 119 58 7
3 120 58 119
3 120 25 58
3 65 120 27
3 121 120 65
3 121 25 120
3 121 113 25
3 122 113 121
3 122 1 113
3 122 318 320
3 320 319 1
3 318 319 320
3 322 321 122
3 324 323 28
3 88 67 8
3 325 67 326
3 327 326 88
3 325 326 327
3 329 328 67
