ply
format ascii 1.0
element vertex 337
property float x
property float y
property float z
property uchar red
property uchar green
property uchar blue
element face 360
property list uchar int vertex_index
end_header
-1.26978 -119.455 -3.61261 167 0 0
-5.42666 -97.9883 5.07206 255 127 0
-0.605923 -109.002 2.11832 255 7 0
-1.73252 -102.338 -2.61281 135 255 120
-11.5261 -87.5324 5.66717 235 255 20
-1.9045 -100.292 11.831 116 255 139
-7.86816 -91.4446 -0.020724 125 255 130
-0.236984 -114.484 -0.537788 187 0 0
-0.551962 -111.643 -3.44116 253 0 0
-1.2447 -116.522 -6.75967 218 0 0
-8.8596 -92.7193 5.47008 255 182 0
-10.3306 -90.1336 2.75608 255 229 0
-6.84473 -95.5194 2.37284 255 159 0
-2.42055 -103.421 4.03131 255 80 0
-3.52129 -100.906 1.3926 255 126 0
-1.30699 -106.33 -0.575954 255 70 0
-0.666899 -107.636 -5.44768 52 255 203
-3.58278 -123.457 -6.78026 213 0 0
-3.27201 -120.58 -10.092 180 255 75
-9.85383 -88.9815 8.70483 255 165 0
-7.0007 -94.0162 8.55493 255 66 0
-5.11812 -94.8286 12.0845 77 255 178
-3.66101 -99.3101 8.17503 253 0 0
-0.960796 -104.956 7.24403 190 0 0
0.422436 -110.833 5.57383 255 136 0
0.303291 -116.557 3.21109 255 243 0
-1.22693 -121.597 0.374807 248 255 7
-12.6146 -84.733 3.13223 0 214 255
-4.30693 -96.9109 -0.830265 236 255 19
-0.585835 -117.062 -2.04412 168 0 0
-0.689041 -115.727 -3.6791 205 0 0
-1.28268 -118.101 -5.30797 197 0 0
-7.1587 -95.3395 5.3248 255 151 0
-7.96142 -94.2784 3.92185 255 186 0
-6.18906 -96.9387 3.67931 255 162 0
-1.33835 -106.203 3.18336 255 46 0
-1.84307 -105.062 1.78319 255 91 0
-1.00787 -107.807 0.678581 255 53 0
-0.713734 -112.316 -6.22148 179 255 76
-0.609732 -109.804 -4.54946 255 234 0
-5.18805 -124.958 -8.29612 63 255 192
-4.96404 -123.694 -10.12 173 255 82
-9.90175 -87.0077 10.4543 0 222 255
-8.95476 -89.4187 10.3968 89 255 166
-8.56564 -91.4743 8.64023 255 112 0
-7.62048 -91.8875 10.3353 124 255 131
-3.46389 -97.4985 11.9915 221 255 34
-4.36131 -97.0571 10.132 220 0 0
-2.74954 -99.7928 9.92399 182 0 0
-2.17567 -102.09 7.79561 223 0 0
-1.33396 -102.639 9.5924 255 156 0
0.547245 -108.588 8.43417 132 255 123
0.548342 -113.745 4.46834 255 251 0
-2.47499 -123.685 -1.11963 101 255 154
-12.2182 -84.9942 5.80012 0 222 255
-12.7133 -83.7492 4.5484 0 127 255
-12.1748 -86.3328 4.33403 189 255 66
-9.21354 -90.9648 1.35999 161 255 94
-10.8424 -88.2196 1.53455 28 255 227
-2.55905 -101.814 -0.573772 255 86 0
-3.93431 -99.1056 0.240418 255 99 0
-2.84749 -99.6299 -1.58005 127 255 128
-0.239525 -111.779 0.86441 221 0 0
-0.538713 -110.529 -0.633341 255 11 0
-0.435999 -113.186 -2.10402 230 0 0
-0.724104 -114.16 -5.07496 228 0 0
-1.17517 -114.679 -7.94925 185 255 70
-10.3671 -90.1161 5.56762 255 224 0
-11.1191 -88.9713 4.18659 243 255 12
-9.66177 -91.6244 4.06806 255 221 0
-8.64926 -92.8317 2.60155 255 186 0
-7.39862 -93.6891 1.14252 255 120 0
-3.80918 -100.68 4.65483 255 106 0
-4.50158 -99.6184 3.27263 255 143 0
-3.02414 -102.327 2.64931 255 121 0
-2.2414 -103.617 0.538025 255 103 0
-1.52997 -104.516 -1.66341 255 64 0
-0.742992 -109.018 -1.92012 255 33 0
-0.878555 -107.19 -3.00641 255 33 0
-1.00283 -105.016 -3.91805 150 255 105
-2.2731 -121.606 -5.20435 184 0 0
-2.20158 -120.253 -6.9482 205 0 0
-3.4324 -122.134 -8.56392 227 0 0
-4.75326 -122.184 -11.6729 53 255 202
-11.5309 -85.8944 7.21155 4 255 251
-10.7349 -86.5337 8.76805 37 255 218
-10.7306 -88.3871 7.12663 255 218 0
-9.49849 -90.9202 7.05242 255 168 0
-7.95823 -93.4843 6.96358 255 126 0
-6.26371 -96.0873 6.81788 255 94 0
-6.03657 -94.4274 10.2564 255 236 0
-5.31422 -96.6222 8.41421 255 30 0
-4.57188 -98.745 6.56465 255 68 0
-3.02127 -101.471 6.15602 255 43 0
-1.71901 -104.266 5.55741 255 13 0
-0.736603 -107.115 4.75386 233 0 0
-0.214014 -105.582 9.10328 247 255 8
-0.083374 -107.884 6.50358 154 0 0
-0.112581 -109.986 3.75076 195 0 0
0.140657 -112.83 2.56977 159 0 0
0.028418 -115.592 1.24249 135 0 0
-0.43442 -118.209 -0.195128 128 0 0
-0.295006 -119.198 1.83373 255 247 0
-1.23006 -120.616 -1.70534 139 0 0
-2.34222 -122.75 -3.2477 167 0 0
-3.75765 -124.551 -4.77629 202 255 53
-11.7067 -87.4265 2.91244 226 255 29
-12.0929 -85.4612 1.74652 0 169 255
-5.08867 -98.2071 1.99153 255 142 0
-5.58593 -96.3991 0.795162 255 106 0
-6.02553 -94.1845 -0.332607 255 51 0
-4.69062 -94.3377 -1.84457 44 255 211
-6.44454 -91.5862 -1.40868 48 255 207
-2.09855 -118.677 -8.44455 255 202 0
-1.9783 -116.848 -9.67057 66 255 189
-0.714198 -111.237 -6.67484 0 0 146
-0.921293 -112.427 -7.54941 0 0 146
-5.98689 -124.924 -9.93556 0 0 144
-6.13267 -125.509 -8.99781 0 0 144
-8.51822 -89.612 11.2996 0 0 139
-9.01948 -88.4171 11.328 0 0 139
-7.85109 -90.8465 11.2688 0 0 177
-8.28762 -90.6531 10.366 0 0 212
-8.51822 -89.612 11.2996 0 0 177
-2.68419 -98.8951 11.9113 0 0 239
-3.0725 -97.7638 13.0005 0 0 195
-2.2928 -99.1604 12.9203 0 0 195
-8.76195 -90.0632 0.08635 0 0 174
-9.43464 -89.8233 0.776706 0 0 174
-8.54085 -91.2047 0.669632 0 0 208
-8.07131 -90.13 -0.573793 0 0 142
-8.76195 -90.0632 0.08635 0 0 142
-0.732581 -106.381 -5.81029 0 0 182
-0.900544 -105.071 -5.04547 0 0 182
-0.834862 -106.326 -4.68287 0 0 220
-5.64218 -122.817 -12.4154 0 0 182
-4.85865 -122.939 -10.8964 0 0 219
-5.74757 -123.572 -11.6389 0 0 182
-5.52921 -121.965 -13.0497 0 0 143
-5.64218 -122.817 -12.4154 0 0 143
-11.3299 -85.0184 8.02134 0 0 133
-11.682 -84.6842 7.26183 0 0 133
-5.49925 -93.7733 13.0853 0 0 147
-4.70672 -95.0695 13.0699 0 0 147
-5.91475 -93.5496 12.1156 0 0 146
-5.49925 -93.7733 13.0853 0 0 146
-5.57735 -94.628 11.1705 0 0 221
-6.37398 -93.349 11.2016 0 0 183
-5.91475 -93.5496 12.1156 0 0 183
0.112292 -105.9 10.1215 0 0 152
-0.392725 -104.394 10.3319 0 0 152
-0.760968 -120.398 1.10427 0 0 240
-0.274863 -119.619 2.91878 0 0 195
-0.740825 -120.819 2.18932 0 0 195
-3.891 -124.974 -3.68589 0 0 189
-3.11632 -124.118 -2.94796 0 0 230
-3.24967 -124.542 -1.85756 0 0 189
-4.61108 -125.256 -5.50694 0 0 146
-3.891 -124.974 -3.68589 0 0 146
-12.7775 -83.4164 3.29563 0 0 151
-12.8268 -82.9245 4.00372 0 0 151
-12.664 -84.2411 3.84031 0 0 174
-12.7078 -83.7252 2.5955 0 0 129
-12.7775 -83.4164 3.29563 0 0 129
-11.6388 -85.6776 1.07424 0 0 164
-11.4676 -86.8404 1.64053 0 0 192
-11.0135 -87.0568 0.968256 0 0 164
-12.1752 -84.2778 1.21588 0 0 135
-11.6388 -85.6776 1.07424 0 0 135
-4.91053 -92.8824 -2.33636 0 0 144
-4.13626 -94.2624 -2.62701 0 0 144
-5.78748 -91.5066 -2.11842 0 0 183
-5.56758 -92.962 -1.62662 0 0 222
-4.91053 -92.8824 -2.33636 0 0 183
-6.65902 -90.1185 -1.92943 0 0 145
-5.78748 -91.5066 -2.11842 0 0 145
-2.48374 -116.772 -10.9872 0 0 145
-2.54371 -117.812 -10.5058 0 0 145
-1.93515 -115.79 -10.1457 0 0 145
-2.48374 -116.772 -10.9872 0 0 145
-0.662197 -109.981 -5.83883 0 0 183
-0.661733 -111.06 -5.38547 0 0 222
-0.714198 -111.237 -6.67484 0 0 183
-0.690781 -108.897 -6.28794 0 0 184
-0.638316 -108.72 -4.99857 0 0 223
-0.662197 -109.981 -5.83883 0 0 184
-0.734291 -107.652 -6.63679 0 0 145
-0.690781 -108.897 -6.28794 0 0 145
-5.87488 -124.292 -10.8475 0 0 182
-5.07604 -124.326 -9.20804 0 0 220
-5.98689 -124.924 -9.93556 0 0 182
-5.74757 -123.572 -11.6389 0 0 143
-5.87488 -124.292 -10.8475 0 0 143
-9.49298 -87.2116 11.3567 0 0 137
-9.75863 -86.0486 11.3817 0 0 137
-9.42826 -88.2132 10.4256 0 0 204
-9.49298 -87.2116 11.3567 0 0 171
-9.01948 -88.4171 11.328 0 0 171
-3.87961 -96.4044 13.0234 0 0 149
-3.0725 -97.7638 13.0005 0 0 149
-4.29101 -96.1636 12.038 0 0 233
-4.70672 -95.0695 13.0699 0 0 190
-3.87961 -96.4044 13.0234 0 0 190
0.80691 -108.936 9.48625 0 0 153
0.492921 -107.403 9.78696 0 0 153
0.733659 -110.097 8.00549 0 0 153
0.80691 -108.936 9.48625 0 0 153
0.671254 -111.219 6.57532 0 0 197
0.484841 -109.71 7.004 0 0 242
0.733659 -110.097 8.00549 0 0 197
0.734208 -112.676 6.02257 0 0 196
0.485389 -112.289 5.02108 0 0 241
0.671254 -111.219 6.57532 0 0 196
0.724515 -114.158 5.50287 0 0 153
0.734208 -112.676 6.02257 0 0 153
0.601989 -115.564 4.87424 0 0 197
0.425816 -115.151 3.83971 0 0 243
0.724515 -114.158 5.50287 0 0 197
-1.28732 -121.995 1.48016 0 0 151
-0.740825 -120.819 2.18932 0 0 151
-1.91135 -123.039 0.73294 0 0 192
-1.85096 -122.641 -0.372412 0 0 235
-1.28732 -121.995 1.48016 0 0 192
-2.61596 -124.038 0.007485 0 0 150
-1.91135 -123.039 0.73294 0 0 150
-3.24967 -124.542 -1.85756 0 0 148
-2.61596 -124.038 0.007485 0 0 148
-12.4658 -84.3717 5.17426 0 0 174
-12.5521 -83.1538 5.26291 0 0 151
-12.3046 -83.7763 5.88877 0 0 151
-10.2491 -88.4507 0.863984 0 0 169
-10.028 -89.5922 1.44727 0 0 201
-9.43464 -89.8233 0.776706 0 0 169
-11.0135 -87.0568 0.968256 0 0 138
-10.2491 -88.4507 0.863984 0 0 138
-3.19056 -119.678 -10.7166 0 0 145
-3.91367 -120.501 -11.5125 0 0 145
-1.15201 -113.609 -8.4133 0 0 185
-0.921293 -112.427 -7.54941 0 0 185
-0.944451 -113.498 -7.08536 0 0 224
-1.54932 -100.586 12.8699 0 0 151
-2.2928 -99.1604 12.9203 0 0 151
-1.23797 -101.749 11.6957 0 0 152
-1.54932 -100.586 12.8699 0 0 152
-1.8584 -101.068 -3.03757 0 0 143
-1.46087 -102.414 -3.65381 0 0 143
-1.09602 -103.754 -4.30642 0 0 180
-1.46087 -102.414 -3.65381 0 0 180
-1.36767 -103.677 -3.26543 0 0 216
-1.09602 -103.754 -4.30642 0 0 145
-0.900544 -105.071 -5.04547 0 0 145
-0.732581 -106.381 -5.81029 0 0 146
-0.734291 -107.652 -6.63679 0 0 146
-4.6543 -121.303 -12.3029 0 0 182
-3.91367 -120.501 -11.5125 0 0 182
-4.01264 -121.382 -10.8825 0 0 219
-4.6543 -121.303 -12.3029 0 0 144
-5.52921 -121.965 -13.0497 0 0 144
-12.0257 -84.2341 6.55612 0 0 130
-12.3046 -83.7763 5.88877 0 0 130
-11.8745 -85.4443 6.50584 0 0 181
-12.0257 -84.2341 6.55612 0 0 156
-11.682 -84.6842 7.26183 0 0 156
-10.1354 -85.8298 10.4795 0 0 137
-9.75863 -86.0486 11.3817 0 0 137
-10.552 -85.5928 9.63636 0 0 164
-10.1354 -85.8298 10.4795 0 0 164
-10.3183 -86.7707 9.61117 0 0 194
-10.9319 -85.3381 8.79959 0 0 135
-10.552 -85.5928 9.63636 0 0 135
-11.1329 -86.2141 7.9898 0 0 188
-11.3299 -85.0184 8.02134 0 0 161
-10.9319 -85.3381 8.79959 0 0 161
-7.16593 -92.079 11.241 0 0 142
-7.85109 -90.8465 11.2688 0 0 142
-6.82853 -93.1575 10.2958 0 0 219
-7.16593 -92.079 11.241 0 0 182
-6.37398 -93.349 11.2016 0 0 182
-0.952696 -102.922 10.5764 0 0 194
-1.61922 -101.465 10.7117 0 0 238
-1.23797 -101.749 11.6957 0 0 194
-0.773985 -104.11 9.34784 0 0 240
-0.952696 -102.922 10.5764 0 0 195
-0.392725 -104.394 10.3319 0 0 195
0.166615 -107.085 8.76872 0 0 244
0.112292 -105.9 10.1215 0 0 198
0.492921 -107.403 9.78696 0 0 198
0.402699 -116.982 4.27339 0 0 153
0.601989 -115.564 4.87424 0 0 153
0.103551 -118.303 3.58471 0 0 153
-0.274863 -119.619 2.91878 0 0 153
0.004142 -117.878 2.52241 0 0 243
0.402699 -116.982 4.27339 0 0 197
0.103551 -118.303 3.58471 0 0 197
-5.32628 -125.459 -7.26685 0 0 185
-4.47285 -124.754 -6.53621 0 0 225
-4.61108 -125.256 -5.50694 0 0 185
-6.13267 -125.509 -8.99781 0 0 145
-5.32628 -125.459 -7.26685 0 0 145
-12.7005 -82.5204 4.70091 0 0 128
-12.5521 -83.1538 5.26291 0 0 128
-12.7005 -82.5204 4.70091 0 0 128
-12.8268 -82.9245 4.00372 0 0 128
-12.4469 -84.0893 1.90265 0 0 156
-12.7078 -83.7252 2.5955 0 0 156
-12.3538 -85.0971 2.43937 0 0 181
-12.4469 -84.0893 1.90265 0 0 132
-12.1752 -84.2778 1.21588 0 0 132
-2.41589 -99.7144 -2.52119 0 0 178
-2.29 -100.984 -2.09643 0 0 215
-1.8584 -101.068 -3.03757 0 0 178
-3.00837 -98.353 -2.04684 0 0 143
-2.41589 -99.7144 -2.52119 0 0 143
-3.73808 -96.9935 -1.67195 0 0 179
-3.57721 -98.2704 -1.20516 0 0 215
-3.00837 -98.353 -2.04684 0 0 179
-3.92993 -95.7069 -2.1791 0 0 144
-4.13626 -94.2624 -2.62701 0 0 144
-4.49878 -95.6243 -1.33742 0 0 217
-3.73808 -96.9935 -1.67195 0 0 180
-3.92993 -95.7069 -2.1791 0 0 180
-7.3595 -90.2008 -1.26777 0 0 181
-8.07131 -90.13 -0.573793 0 0 181
-7.15635 -91.5154 -0.7147 0 0 219
-7.3595 -90.2008 -1.26777 0 0 145
-6.65902 -90.1185 -1.92943 0 0 145
-2.60384 -118.727 -9.89282 0 0 184
-2.68528 -119.629 -9.26829 0 0 222
-3.19056 -119.678 -10.7166 0 0 184
-2.03843 -117.763 -9.05756 0 0 223
-2.60384 -118.727 -9.89282 0 0 184
-2.54371 -117.812 -10.5058 0 0 184
-1.53359 -114.706 -9.28503 0 0 185
-1.57673 -115.764 -8.80991 0 0 224
-1.93515 -115.79 -10.1457 0 0 185
-1.15201 -113.609 -8.4133 0 0 146
-1.53359 -114.706 -9.28503 0 0 146
3 0 31 29
3 1 34 32
3 2 37 35
3 116 115 38
3 118 117 40
3 119 43 120
3 121 45 122
3 123 122 43
3 121 122 123
3 5 124 126
3 124 46 125
3 124 125 126
3 5 48 46
3 5 50 48
3 4 56 54
3 6 127 129
3 129 128 57
3 127 128 129
3 6 130 131
3 3 61 59
3 7 64 62
3 9 65 30
3 9 66 65
3 10 69 67
3 12 70 33
3 12 71 70
3 13 74 72
3 15 75 36
3 15 76 75
3 8 77 63
3 16 78 39
3 16 79 78
3 16 132 134
3 134 133 79
3 132 133 134
3 17 82 80
3 135 83 136
3 137 136 41
3 135 136 137
3 139 138 83
3 140 84 141
3 19 85 42
3 19 86 85
3 19 87 86
3 20 88 44
3 20 89 88
3 21 142 143
3 21 144 145
3 21 146 148
3 146 90 147
3 146 147 148
3 22 91 47
3 22 92 91
3 22 93 92
3 23 94 49
3 23 95 94
3 149 96 150
3 24 97 51
3 24 98 97
3 24 99 98
3 25 100 52
3 25 101 100
3 26 151 153
3 151 102 152
3 151 152 153
3 26 103 102
3 26 104 103
3 154 105 155
3 156 155 53
3 154 155 156
3 158 157 105
3 27 159 161
3 161 160 55
3 159 160 161
3 27 162 163
3 11 106 68
3 164 107 165
3 166 165 58
3 164 165 166
3 168 167 107
3 14 108 73
3 28 109 60
3 28 110 109
3 169 111 170
3 171 112 172
3 173 172 111
3 171 172 173
3 175 174 112
3 18 113 81
3 176 114 177
3 179 178 114
3 29 30 7
3 31 30 29
3 31 9 30
3 32 33 10
3 34 33 32
3 34 12 33
3 35 36 13
3 37 36 35
3 37 15 36
3 38 39 8
3 180 39 181
3 182 181 38
3 180 181 182
3 183 16 184
3 185 184 39
3 183 184 185
3 187 186 16
3 40 41 17
3 188 41 189
3 190 189 40
3 188 189 190
3 192 191 41
3 193 42 194
3 43 195 197
3 195 42 196
3 195 196 197
3 43 19 42
3 43 44 19
3 45 44 43
3 45 20 44
3 46 198 199
3 46 200 202
3 200 21 201
3 200 201 202
3 46 47 21
3 48 47 46
3 48 22 47
3 48 49 22
3 50 49 48
3 50 23 49
3 203 51 204
3 205 51 206
3 207 24 208
3 209 208 51
3 207 208 209
3 210 52 211
3 212 211 24
3 210 211 212
3 213 52 214
3 215 25 216
3 217 216 52
3 215 216 217
3 218 26 219
3 220 53 221
3 222 221 26
3 220 221 222
3 223 53 224
3 226 225 53
3 54 227 229
3 227 55 228
3 227 228 229
3 56 55 54
3 56 27 55
3 57 58 11
3 230 58 231
3 232 231 57
3 230 231 232
3 234 233 58
3 59 60 14
3 61 60 59
3 61 28 60
3 236 235 18
3 62 63 2
3 64 63 62
3 64 8 63
3 30 64 7
3 65 64 30
3 65 8 64
3 65 38 8
3 66 38 65
3 66 237 239
3 239 238 38
3 237 238 239
3 240 5 241
3 243 242 5
3 67 68 4
3 69 68 67
3 69 11 68
3 33 69 10
3 70 69 33
3 70 11 69
3 70 57 11
3 71 57 70
3 71 6 57
3 245 244 3
3 72 73 1
3 74 73 72
3 74 14 73
3 36 74 13
3 75 74 36
3 75 14 74
3 75 59 14
3 76 59 75
3 76 3 59
3 63 37 2
3 77 37 63
3 77 15 37
3 39 77 8
3 78 77 39
3 78 15 77
3 78 76 15
3 79 76 78
3 79 3 76
3 79 246 248
3 248 247 3
3 246 247 248
3 250 249 79
3 252 251 16
3 80 81 0
3 82 81 80
3 82 18 81
3 41 82 17
3 83 82 41
3 83 18 82
3 83 253 255
3 255 254 18
3 253 254 255
3 257 256 83
3 258 54 259
3 84 260 262
3 260 54 261
3 260 261 262
3 84 4 54
3 42 263 264
3 85 265 267
3 267 266 42
3 265 266 267
3 85 268 269
3 85 270 272
3 270 84 271
3 270 271 272
3 86 84 85
3 86 4 84
3 86 67 4
3 87 67 86
3 87 10 67
3 44 87 19
3 88 87 44
3 88 10 87
3 88 32 10
3 89 32 88
3 89 1 32
3 273 45 274
3 90 275 277
3 275 45 276
3 275 276 277
3 90 20 45
3 47 90 21
3 91 90 47
3 91 20 90
3 91 89 20
3 92 89 91
3 92 1 89
3 92 72 1
3 93 72 92
3 93 13 72
3 49 93 22
3 94 93 49
3 94 13 93
3 94 35 13
3 95 35 94
3 95 2 35
3 278 50 279
3 280 279 5
3 278 279 280
3 96 281 283
3 281 50 282
3 281 282 283
3 96 23 50
3 51 284 286
3 284 96 285
3 284 285 286
3 97 96 51
3 97 23 96
3 97 95 23
3 98 95 97
3 98 2 95
3 98 62 2
3 99 62 98
3 99 7 62
3 52 99 24
3 100 99 52
3 100 7 99
3 100 29 7
3 101 29 100
3 101 0 29
3 287 25 288
3 102 289 290
3 102 291 293
3 291 25 292
3 291 292 293
3 102 101 25
3 103 101 102
3 103 0 101
3 103 80 0
3 104 80 103
3 104 17 80
3 53 104 26
3 105 104 53
3 105 17 104
3 105 40 17
3 294 40 295
3 296 295 105
3 294 295 296
3 298 297 40
3 55 299 300
3 302 301 55
3 68 56 4
3 106 56 68
3 106 27 56
3 58 106 11
3 107 106 58
3 107 27 106
3 107 303 305
3 305 304 27
3 303 304 305
3 307 306 107
3 73 34 1
3 108 34 73
3 108 12 34
3 60 108 14
3 109 108 60
3 109 12 108
3 109 71 12
3 110 71 109
3 110 6 71
3 308 61 309
3 310 309 3
3 308 309 310
3 311 61 312
3 313 28 314
3 315 314 61
3 313 314 315
3 111 316 317
3 111 318 320
3 318 28 319
3 318 319 320
3 111 110 28
3 112 110 111
3 112 6 110
3 112 321 323
3 323 322 6
3 321 322 323
3 325 324 112
3 81 31 0
3 113 31 81
3 113 9 31
3 326 113 327
3 328 327 18
3 326 327 328
3 114 329 331
3 329 113 330
3 329 330 331
3 114 9 113
3 114 66 9
3 332 66 333
3 334 333 114
3 332 333 334
3 336 335 66
