ply
format ascii 1.0
element vertex 771
property float x
property float y
property float z
property uchar red
property uchar green
property uchar blue
element face 920
property list uchar int vertex_index
end_header
-41.7986 -31.33 13.8415 10 255 245
-40.5663 -6.15732 12.458 166 255 89
-38.9645 10.5088 -16.933 255 29 0
-33.7269 17.9535 -30.2756 0 135 255
-37.6749 1.44012 -0.127955 191 0 0
-34.1065 25.1271 -14.4809 255 180 0
-37.7106 15.2846 -24.6062 255 239 0
-32.3966 26.7758 -22.019 180 255 75
-38.0867 -2.6214 7.18142 255 173 0
-37.113 15.8127 7.14171 72 255 183
-34.6742 20.2354 1.40888 255 54 0
-44.7567 -22.5797 18.1248 193 255 62
-39.6648 -20.8094 14.1687 102 255 153
-45.1011 0.935953 -20.5642 54 255 201
-39.2082 -17.6599 6.82995 255 240 0
-41.3528 -13.1704 -2.14932 255 128 0
-43.7006 -6.90552 -11.4102 255 129 0
-38.3021 5.764 -8.49255 145 0 0
-34.2524 23.2263 -6.41653 251 0 0
-32.675 31.6079 -15.2992 0 204 255
-33.4721 25.9759 -18.3144 246 255 9
-32.1464 31.8914 -18.9704 0 114 255
-39.1507 13.3045 8.83235 0 220 255
-43.5628 -32.5779 16.5911 0 61 255
-41.8478 4.74519 -19.0532 255 97 0
-41.7439 8.08128 -23.2931 255 174 0
-35.9866 17.0372 -27.8116 150 255 105
-39.1685 13.751 -30.81 156 255 99
-36.7471 15.2408 -33.5407 56 255 199
-39.9241 -13.9439 13.4993 153 255 102
-38.944 -19.3778 10.8285 178 255 77
-38.8241 -12.4903 10.5372 232 255 23
-37.6973 -0.636316 3.71597 255 40 0
-38.8136 -8.89264 2.89608 255 56 0
-39.403 -6.69034 -1.38079 242 0 0
-42.5971 -10.2668 -6.7876 255 115 0
-40.1067 -4.21855 -5.78743 218 0 0
-40.8195 -1.4847 -10.2426 235 0 0
-37.9053 3.57026 -4.23852 140 0 0
-33.9979 29.3851 0.493006 255 163 0
-34.2754 21.9193 -2.36523 238 0 0
-33.4249 30.7114 -3.3639 255 124 0
-33.2232 31.3937 -7.45005 83 255 172
-36.349 17.6695 -15.1285 255 60 0
-38.6984 12.9944 -20.9184 255 129 0
-35.8593 19.3193 -18.9888 255 164 0
-34.7316 20.792 -22.6053 243 255 12
-33.0357 21.8523 -25.8328 134 255 121
-41.1883 2.22376 11.1524 0 217 255
-38.9974 -4.46697 10.1446 218 255 37
-39.1165 4.29213 9.59489 182 255 73
-37.5939 6.44589 7.34514 255 238 0
-36.5873 8.59824 4.45711 255 98 0
-36.0453 10.6497 1.01258 224 0 0
-35.6093 18.1713 4.64221 255 178 0
-35.1762 27.4086 3.79108 255 243 0
-42.0623 -27.6996 16.923 49 255 206
-40.2135 -26.5918 14.3186 35 255 220
-41.59 -21.9096 16.6206 108 255 147
-41.9817 -15.1965 15.6081 164 255 91
-42.8571 -7.70897 13.9996 204 255 51
-40.8855 11.2254 -27.2861 251 255 4
-39.7829 -24.9469 10.924 96 255 159
-40.5058 -22.9079 6.925 0 214 255
-41.9754 -20.5135 2.53251 0 244 255
-38.5336 -10.8197 6.92703 255 162 0
-40.1289 -15.6167 2.43467 255 169 0
-43.7659 -17.6854 -2.07657 11 255 244
-45.524 -14.3104 -6.77075 26 255 229
-47.021 -10.3434 -11.469 0 201 255
-44.576 -3.13757 -15.9985 172 255 83
-41.4542 1.51234 -14.6824 255 29 0
-38.7332 8.06937 -12.7609 199 0 0
-35.9098 12.5454 -2.85307 151 0 0
-36.0735 14.3022 -6.95135 151 0 0
-36.3234 15.9898 -11.09 216 0 0
-34.3061 24.2493 -10.5042 255 76 0
-33.0488 31.5942 -11.4867 20 255 235
-30.866 27.3426 -25.4219 0 113 255
-30.9051 22.3164 -28.411 42 255 213
-28.4084 22.1858 -30.0953 0 62 255
-32.4244 31.6926 -17.1293 0 183 255
-42.7336 -32.3375 11.8305 0 74 255
-41.5072 -30.401 12.2624 0 121 255
-42.4832 -32.062 15.2892 1 255 254
-43.6425 -34.157 14.9107 0 58 255
-42.9892 -33.3601 13.414 0 115 255
-40.3676 7.40212 -18.015 255 51 0
-41.8758 6.41478 -21.1948 255 135 0
-40.3605 8.85939 -20.092 255 95 0
-34.9063 17.6121 -29.1532 89 255 166
-36.461 15.8907 -30.6367 96 255 159
-35.2368 16.3527 -31.7895 0 193 255
-35.3832 15.5159 -34.5059 0 67 255
-40.2265 -10.1482 13.0183 163 255 92
-39.2611 -13.242 12.114 184 255 71
-39.4638 -9.39504 11.7799 187 255 68
-37.6486 0.393667 1.83441 237 0 0
-38.3565 -3.88365 1.28362 242 0 0
-38.5243 -2.79949 -0.780077 204 0 0
-39.7488 -5.48742 -3.5735 224 0 0
-38.7358 -1.67542 -2.89196 179 0 0
-38.979 -0.512676 -5.03974 167 0 0
-37.7639 2.49914 -2.15723 158 0 0
-34.0852 33.5302 -0.583759 46 255 209
-33.646 30.1329 -1.38634 255 135 0
-33.7066 34.1558 -2.50979 58 255 197
-33.4532 34.5763 -4.51846 0 222 255
-35.1599 21.4421 -14.6236 255 110 0
-36.1814 18.5043 -17.0843 255 113 0
-34.9381 22.0696 -16.567 255 160 0
-32.988 26.392 -20.1865 213 255 42
-34.0741 23.2619 -20.323 255 250 0
-33.4401 23.7875 -22.121 216 255 39
-33.9459 21.3885 -24.282 189 255 66
-32.6841 24.2303 -23.8382 170 255 85
-40.0835 3.24389 10.4626 28 255 227
-40.2231 7.64336 9.93493 0 213 255
-38.0685 14.5671 8.08848 0 227 255
-38.168 9.96332 8.36689 197 255 58
-37.3345 11.1277 7.30696 240 255 15
-37.0293 7.52891 5.97673 255 171 0
-36.6322 12.2734 6.06562 255 209 0
-36.0609 13.3839 4.64915 255 139 0
-36.2914 17.0207 5.99116 255 241 0
-36.013 26.2137 5.13981 1 255 254
-36.1967 30.5075 4.25606 0 173 255
-35.3218 31.6872 2.83926 11 255 244
-43.1557 -25.2665 17.7857 117 255 138
-41.702 -24.9228 16.8624 77 255 178
-43.0243 -22.3038 17.4844 146 255 109
-43.3847 -15.7352 16.3166 0 222 255
-43.7896 -12.1624 15.4694 0 236 255
-42.3874 -11.5343 14.8675 185 255 70
-44.2727 -8.43441 14.4754 0 249 255
-46.7585 -22.7355 18.5782 0 170 255
-44.9267 -25.467 18.4956 0 208 255
-43.5295 -28.0098 17.9064 0 161 255
-38.3014 14.1843 -22.8089 255 182 0
-39.8411 11.7152 -24.0689 255 190 0
-39.2834 13.0262 -25.9298 255 242 0
-39.5886 13.9043 -33.9688 0 181 255
-40.7767 12.8398 -32.3314 0 207 255
-39.818 -23.838 14.3191 67 255 188
-39.8325 -25.8262 12.7102 61 255 194
-39.3816 -23.128 12.7135 96 255 159
-38.9719 -18.5554 8.89455 225 255 30
-39.3926 -21.4446 8.95525 175 255 80
-39.7582 -20.4827 6.86561 211 255 44
-41.1747 -21.7579 4.7658 0 230 255
-40.2998 -19.4364 4.67737 242 255 13
-38.467 -3.56367 8.73468 255 237 0
-38.5224 -7.75629 8.76993 255 220 0
-38.3051 -6.86333 7.04802 255 156 0
-39.8605 -11.3651 0.387534 255 71 0
-39.4257 -12.4735 2.59904 255 103 0
-40.7233 -14.4484 0.156204 255 145 0
-41.7113 -17.0466 0.111597 255 223 0
-42.488 -15.6771 -2.22296 255 207 0
-44.6665 -16.0716 -4.41944 19 255 236
-43.2603 -14.1768 -4.57013 255 197 0
-43.1724 -8.6412 -9.10306 255 119 0
-44.6861 -10.7681 -9.26083 255 189 0
-45.3062 -8.86602 -11.5938 147 255 108
-45.8497 -6.84502 -13.9182 57 255 198
-46.3052 -4.72029 -16.2379 0 213 255
-44.1725 -5.06747 -13.7082 255 143 0
-39.5224 1.93599 -9.39405 179 0 0
-41.1542 -0.018843 -12.4679 255 1 0
-39.798 3.22965 -11.5765 201 0 0
-40.0504 4.57394 -13.7474 230 0 0
-38.5255 6.8997 -10.6325 167 0 0
-35.3052 15.4439 1.34187 255 7 0
-35.9315 11.6176 -0.878531 179 0 0
-35.1114 16.3763 -0.508573 215 0 0
-34.233 22.6159 -4.3729 234 0 0
-35.0298 18.0405 -4.46665 178 0 0
-35.0935 18.7848 -6.51477 190 0 0
-36.2057 15.1497 -9.02602 177 0 0
-35.1806 19.4853 -8.5728 220 0 0
-35.2487 20.1547 -10.6195 255 8 0
-34.2917 23.7649 -8.46768 255 30 0
-33.1528 31.5388 -9.48833 55 255 200
-30.8283 24.783 -26.8762 0 218 255
-29.7252 24.8793 -28.1123 0 136 255
-29.7788 19.8781 -30.704 0 51 255
-33.256 28.5642 -14.7186 241 255 14
-33.8464 25.5513 -16.4135 255 226 0
-32.9837 28.7998 -16.623 199 255 56
-32.635 29.0734 -18.5094 174 255 81
-32.2092 29.3739 -20.3906 25 255 230
-40.3514 12.0436 9.37904 0 150 255
-36.9834 20.4305 6.80793 0 166 255
-46.742 -19.7546 17.9463 0 180 255
-44.8015 -19.4891 17.5641 0 236 255
-43.422 2.58751 -19.9333 255 154 0
-45.1685 3.03333 -22.8407 0 204 255
-43.4745 4.47209 -22.143 154 255 101
-43.3624 6.35417 -24.3245 48 255 207
-43.0537 8.18906 -26.4623 25 255 230
-36.9319 16.2498 -26.2844 212 255 43
-38.5207 14.1914 -27.6688 213 255 42
-37.5694 15.1605 -29.2507 155 255 100
-38.0261 14.6459 -32.2963 105 255 150
-38.2413 14.6412 -35.3648 0 154 255
-36.79 15.0223 -36.4732 0 77 255
-39.7172 -17.5067 13.8883 133 255 122
-39.1641 -20.1301 12.5975 134 255 121
-39.1415 -16.8301 12.3904 166 255 89
-38.819 -16.0941 10.6961 213 255 42
-38.7222 -15.2967 8.83777 255 243 0
-37.8369 -1.64365 5.50312 255 105 0
-38.2231 -5.91906 5.21338 255 93 0
-38.2489 -4.92478 3.28625 255 36 0
-39.0842 -7.82589 0.780001 255 16 0
-40.3352 -10.1649 -1.85692 255 49 0
-41.9853 -11.7771 -4.46741 255 118 0
-40.8232 -8.87133 -4.12089 255 36 0
-41.3057 -7.48502 -6.39426 255 33 0
-41.7701 -6.00784 -8.66955 255 39 0
-42.2075 -4.44256 -10.9414 255 52 0
-40.4666 -2.88441 -8.01326 222 0 0
-39.2447 0.689981 -7.21118 168 0 0
-38.0891 4.65655 -6.35582 136 0 0
-34.2155 24.9186 1.14485 255 108 0
-34.4142 21.127 -0.426435 255 9 0
-33.9029 25.7524 -0.701424 255 69 0
-33.7191 26.4529 -2.65252 255 49 0
-33.6341 27.0238 -4.66984 255 51 0
-33.6079 27.4772 -6.71762 255 73 0
-33.2987 31.1263 -5.39781 194 255 61
-37.6249 13.9739 -15.9312 255 32 0
-38.9113 11.7574 -18.9548 255 77 0
-37.5164 15.0157 -17.912 255 84 0
-37.2483 16.0405 -19.8356 255 137 0
-36.8032 17.0183 -21.69 255 191 0
-34.5762 22.6813 -18.4679 255 206 0
-35.3743 20.0916 -20.8336 255 215 0
-36.1793 17.9133 -23.4583 255 248 0
-35.3888 18.6868 -25.1175 203 255 52
-34.4543 19.3036 -26.6377 143 255 112
-33.4032 19.7371 -27.9855 84 255 171
-40.8964 -2.01674 11.8305 171 255 84
-39.6936 -5.33083 11.3919 181 255 74
-39.9076 -1.09958 10.9513 173 255 82
-39.0745 -0.149744 9.89383 198 255 57
-38.3922 0.831387 8.66975 245 255 10
-39.1317 8.79703 9.24283 177 255 78
-38.2877 5.36273 8.55365 217 255 38
-37.8511 1.8388 7.29204 255 203 0
-37.4388 2.86426 5.77346 255 133 0
-37.1418 3.89774 4.1262 255 63 0
-36.9476 4.92935 2.36261 253 0 0
-36.8454 5.95127 0.496368 199 0 0
-36.2614 9.64156 2.79746 255 29 0
-35.6195 14.4444 3.06882 255 69 0
-35.0704 19.2474 3.10779 255 113 0
-36.0641 21.6931 5.70088 93 255 162
-35.2925 22.8751 4.37562 255 214 0
-34.6761 23.9558 2.84836 255 159 0
-34.5043 28.4724 2.23174 255 202 0
-34.6185 32.7025 1.21377 29 255 226
-41.5844 -29.7576 15.5792 9 255 246
-40.8718 -29.0824 14.156 15 255 240
-40.9535 -27.2229 15.7273 29 255 226
-40.5876 -24.442 15.707 59 255 196
-40.4696 -21.4069 15.5152 92 255 163
-43.1131 -19.1229 16.9932 22 255 233
-41.6978 -18.6629 16.1985 138 255 117
-40.5659 -18.1204 15.1632 122 255 133
-40.8284 -14.5967 14.6688 146 255 109
-41.1995 -10.8614 14.0511 162 255 93
-41.6207 -6.94946 13.3291 175 255 80
-44.7808 -4.58787 13.3678 0 182 255
-43.3378 -3.75938 13.0331 0 241 255
-42.0411 -2.9026 12.5243 37 255 218
-42.4264 1.23338 11.6642 0 155 255
-42.6831 -30.2466 16.8193 0 173 255
-40.1946 10.3103 -22.1155 255 141 0
-41.4209 9.70208 -25.3315 255 216 0
-42.5244 9.92242 -28.5328 2 255 253
-40.1311 12.594 -29.1253 205 255 50
-41.7635 11.4934 -30.5032 0 233 255
-40.5389 -28.2414 12.5625 0 183 255
-40.5584 -27.2604 10.8175 0 152 255
-40.8873 -26.1636 8.942 0 106 255
-39.2522 -22.327 10.9153 135 255 120
-40.0239 -23.971 8.98648 0 254 255
-38.9013 -8.5991 10.3557 232 255 23
-38.591 -11.6847 8.79819 255 221 0
-38.817 -14.4325 6.84873 255 191 0
-38.6193 -9.89012 4.95165 255 106 0
-39.065 -13.4939 4.76015 255 143 0
-39.6091 -16.6837 4.66716 255 202 0
-40.9671 -18.2954 2.41818 255 243 0
-42.8552 -19.1612 0.245776 1 255 254
-43.9996 -12.5404 -6.91853 255 191 0
-46.3144 -12.3993 -9.122 31 255 224
-44.8936 -1.12995 -18.2832 70 255 185
-42.6085 -2.79287 -13.2061 255 72 0
-42.9592 -1.06425 -15.4611 255 96 0
-43.2394 0.73423 -17.7044 255 124 0
-41.6955 3.10415 -16.8797 255 61 0
-40.2517 5.96759 -15.8968 255 11 0
-38.8922 9.27438 -14.8648 238 0 0
-36.8257 6.95924 -1.45664 159 0 0
-36.8791 7.95334 -3.47797 135 0 0
-36.9932 8.93785 -5.54719 128 0 0
-35.0262 17.2405 -2.45476 186 0 0
-35.9647 13.4375 -4.88584 142 0 0
-37.1507 9.92033 -7.64322 136 0 0
-37.3273 10.9097 -9.74588 159 0 0
-37.4909 11.9136 -11.8374 194 0 0
-37.6036 12.936 -13.9031 238 0 0
-36.3849 16.8293 -13.1278 255 9 0
-35.2545 20.8044 -12.6396 255 58 0
-34.2545 24.6977 -12.5111 255 128 0
-33.5951 27.8318 -8.76561 255 112 0
-33.5523 28.1121 -10.7905 255 162 0
-33.4452 28.3459 -12.7768 255 217 0
-32.8894 31.5997 -13.4262 0 238 255
-31.6895 29.6646 -22.2499 0 131 255
-31.6933 27.0993 -23.7802 12 255 243
-31.8131 24.5665 -25.4377 123 255 132
-32.0182 22.1638 -27.2212 83 255 172
-32.2615 19.9737 -29.1277 0 187 255
-28.4969 24.8671 -29.1158 0 74 255
-29.7016 22.3174 -29.3738 17 255 238
-31.0492 20.0152 -30.0384 0 109 255
-33.8343 17.2441 -31.4774 0 0 147
-34.5893 16.4437 -32.2343 0 0 147
-34.4819 17.1531 -31.0326 0 0 165
-34.1145 35.7099 -2.30198 0 0 168
-33.8959 33.843 -1.54678 0 0 196
-34.3038 35.3971 -1.33897 0 0 168
-33.9164 35.9419 -3.28908 0 0 141
-34.1145 35.7099 -2.30198 0 0 141
-40.942 9.22166 9.83658 0 0 137
-40.83 7.0781 10.1906 0 0 137
-36.9529 31.8583 4.28073 0 0 138
-36.7147 29.8497 4.84723 0 0 138
-36.4283 32.5066 3.63316 0 0 139
-36.9529 31.8583 4.28073 0 0 139
-44.8262 -10.6413 15.1226 0 0 140
-44.5954 -12.4498 15.6716 0 0 140
-45.0677 -8.77734 14.6256 0 0 167
-44.0311 -10.2984 14.9724 0 0 195
-44.8262 -10.6413 15.1226 0 0 167
-46.0293 1.4966 -21.8954 0 0 141
-45.9923 0.347058 -20.7257 0 0 141
-40.3727 13.7705 -34.7334 0 0 134
-39.6579 14.2126 -35.5318 0 0 134
-29.2472 26.2269 -28.1279 0 0 132
-29.8113 26.1892 -27.5018 0 0 132
-44.1266 -33.6451 16.4468 0 0 130
-44.2899 -32.7263 17.1666 0 0 130
-44.3457 -35.1116 14.7152 0 0 130
-44.0378 -34.6785 13.9257 0 0 130
-46.8238 -18.1714 17.5346 0 0 141
-47.8643 -18.321 17.6241 0 0 141
-47.8643 -18.321 17.6241 0 0 141
-47.8223 -19.8369 18.0683 0 0 141
-35.3399 15.2782 -35.8829 0 0 129
-34.6853 15.4938 -34.837 0 0 129
-33.3685 34.6889 -5.54203 0 0 141
-33.6467 36.2655 -5.30949 0 0 141
-36.5345 23.3027 5.97909 0 0 163
-36.5238 21.0618 6.2544 0 0 188
-36.9942 22.6713 6.53261 0 0 163
-35.1971 34.1682 1.35162 0 0 165
-34.9701 32.1949 2.02651 0 0 191
-35.5488 33.6605 2.16436 0 0 165
-34.8418 34.632 0.493968 0 0 140
-35.1971 34.1682 1.35162 0 0 140
-44.0719 -17.6626 16.9018 0 0 163
-43.9573 -19.306 17.2786 0 0 189
-44.9161 -17.8457 17.1873 0 0 163
-45.8205 -3.08011 12.8089 0 0 141
-45.5724 -4.98672 13.4597 0 0 141
-43.5641 -1.74393 12.519 0 0 140
-44.3044 -2.21153 12.6121 0 0 140
-42.9157 -1.31554 12.2646 0 0 163
-42.6894 -3.33099 12.7787 0 0 188
-43.5641 -1.74393 12.519 0 0 163
-43.1084 0.752453 11.8345 0 0 165
-42.2338 -0.834608 12.0943 0 0 191
-42.9157 -1.31554 12.2646 0 0 165
-46.0083 3.69058 -24.2081 0 0 138
-45.1158 4.07975 -23.974 0 0 138
-42.0839 11.9479 -32.0871 0 0 157
-41.2701 12.1666 -31.4173 0 0 180
-41.5905 12.6211 -33.0012 0 0 157
-42.5967 11.1821 -31.087 0 0 137
-42.0839 11.9479 -32.0871 0 0 137
-40.9889 -23.9384 6.94074 0 0 155
-40.748 -24.47 7.97148 0 0 155
-40.2648 -23.4395 7.95574 0 0 177
-41.3797 -23.2962 5.90223 0 0 136
-40.9889 -23.9384 6.94074 0 0 136
-42.5738 -21.4108 2.62979 0 0 159
-42.1735 -22.033 3.74644 0 0 159
-41.575 -21.1357 3.64915 0 0 183
-43.0732 -20.6713 1.52302 0 0 137
-42.5738 -21.4108 2.62979 0 0 137
-44.4822 -18.4583 -1.91233 0 0 163
-44.0268 -19.1963 -0.751155 0 0 163
-43.3106 -18.4233 -0.915395 0 0 188
-44.9879 -17.5915 -3.06101 0 0 139
-44.4822 -18.4583 -1.91233 0 0 139
-46.3467 -14.9627 -6.56898 0 0 165
-45.9179 -15.8433 -5.39332 0 0 165
-45.0952 -15.191 -5.59509 0 0 192
-46.7866 -13.9436 -7.73736 0 0 140
-46.3467 -14.9627 -6.56898 0 0 140
-47.9251 -10.865 -11.2594 0 0 168
-47.5718 -11.8929 -10.0859 0 0 168
-46.6677 -11.3713 -10.2955 0 0 195
-48.258 -9.7 -12.4362 0 0 141
-47.9251 -10.865 -11.2594 0 0 141
-45.6165 -2.82436 -17.2787 0 0 173
-46.4811 -3.61572 -17.3984 0 0 173
-45.4406 -3.92893 -16.1182 0 0 204
-44.7348 -2.13376 -17.1409 0 0 197
-45.7753 -1.82055 -18.4211 0 0 169
-45.6165 -2.82436 -17.2787 0 0 169
-31.533 31.0361 -22.4822 0 0 134
-31.7521 30.9085 -21.5483 0 0 134
-30.9563 28.6279 -24.7298 0 0 134
-30.5557 28.7245 -25.5558 0 0 134
-31.2797 27.221 -24.601 0 0 177
-31.3699 28.5063 -23.909 0 0 156
-30.9563 28.6279 -24.7298 0 0 156
-27.7735 23.4762 -29.9849 0 0 130
-27.717 22.0668 -30.3365 0 0 130
-28.4526 23.5265 -29.6055 0 0 167
-27.8178 24.8168 -29.4952 0 0 149
-27.7735 23.4762 -29.9849 0 0 149
-31.1246 18.9748 -30.905 0 0 144
-30.414 19.9467 -30.3712 0 0 159
-30.4894 18.9063 -31.2377 0 0 144
-31.7658 19.036 -30.5957 0 0 128
-31.1246 18.9748 -30.905 0 0 128
-32.4128 32.9063 -16.6235 0 0 151
-32.5497 31.6502 -16.2142 0 0 170
-32.5381 32.864 -15.7085 0 0 151
-32.322 32.9265 -17.4596 0 0 130
-32.4128 32.9063 -16.6235 0 0 130
-32.1831 33.0259 -18.3802 0 0 150
-32.2854 31.792 -18.0499 0 0 169
-32.322 32.9265 -17.4596 0 0 150
-42.7947 -31.7279 11.0042 0 0 132
-43.5485 -32.5425 10.7547 0 0 132
-42.1815 -30.7596 11.2202 0 0 151
-42.7947 -31.7279 11.0042 0 0 151
-42.1204 -31.3692 12.0464 0 0 170
-41.5458 -29.8521 11.4157 0 0 131
-42.1815 -30.7596 11.2202 0 0 131
-43.7112 -34.28 13.1774 0 0 146
-44.0378 -34.6785 13.9257 0 0 146
-43.3158 -33.7586 14.1623 0 0 163
-43.5992 -33.7223 12.367 0 0 131
-43.7112 -34.28 13.1774 0 0 131
-43.4714 -33.211 11.5753 0 0 148
-43.5992 -33.7223 12.367 0 0 148
-42.8614 -32.8488 12.6222 0 0 166
-43.5485 -32.5425 10.7547 0 0 133
-43.4714 -33.211 11.5753 0 0 133
-34.6625 16.0253 -33.5925 0 0 146
-35.31 15.9343 -33.1477 0 0 163
-34.5893 16.4437 -32.2343 0 0 146
-34.6853 15.4938 -34.837 0 0 129
-34.6625 16.0253 -33.5925 0 0 129
-33.7896 36.1521 -4.29342 0 0 169
-33.5799 34.366 -3.51412 0 0 198
-33.9164 35.9419 -3.28908 0 0 169
-33.6467 36.2655 -5.30949 0 0 141
-33.7896 36.1521 -4.29342 0 0 141
-40.7602 4.87836 10.4544 0 0 159
-40.6359 2.73383 10.8075 0 0 183
-41.3126 4.3683 10.7993 0 0 159
-40.1533 5.44362 10.1987 0 0 186
-40.7602 4.87836 10.4544 0 0 161
-40.83 7.0781 10.1906 0 0 161
-36.6229 27.7028 5.2891 0 0 138
-36.509 25.563 5.69856 0 0 138
-36.1048 28.3606 4.69794 0 0 191
-36.6229 27.7028 5.2891 0 0 165
-36.7147 29.8497 4.84723 0 0 165
-35.9909 33.0964 2.92475 0 0 164
-35.7593 31.0973 3.54766 0 0 189
-36.4283 32.5066 3.63316 0 0 164
-35.5488 33.6605 2.16436 0 0 139
-35.9909 33.0964 2.92475 0 0 139
-44.393 -14.2362 16.0952 0 0 139
-44.2077 -15.9688 16.5635 0 0 139
-43.5871 -13.9488 15.893 0 0 192
-44.393 -14.2362 16.0952 0 0 165
-44.5954 -12.4498 15.6716 0 0 165
-46.8684 -24.1324 18.8033 0 0 139
-47.8735 -22.7569 18.7374 0 0 139
-45.9525 -25.4981 18.762 0 0 163
-46.8684 -24.1324 18.8033 0 0 163
-45.8426 -24.1013 18.5369 0 0 188
-45.1268 -26.81 18.5953 0 0 136
-45.9525 -25.4981 18.762 0 0 136
-44.2281 -26.7384 18.201 0 0 178
-44.4282 -28.0814 18.3007 0 0 156
-45.1268 -26.81 18.5953 0 0 156
-40.9667 13.2382 -33.9147 0 0 155
-40.1827 13.3721 -33.1501 0 0 176
-40.3727 13.7705 -34.7334 0 0 155
-41.5905 12.6211 -33.0012 0 0 135
-40.9667 13.2382 -33.9147 0 0 135
-46.4687 -8.51071 -12.703 0 0 171
-47.3261 -9.24939 -12.6406 0 0 171
-46.1636 -9.6047 -11.5314 0 0 201
-46.7404 -7.50021 -13.8652 0 0 169
-46.4687 -8.51071 -12.703 0 0 169
-45.578 -7.85552 -12.756 0 0 197
-46.9916 -6.34955 -15.0374 0 0 142
-46.7404 -7.50021 -13.8652 0 0 142
-46.0774 -5.78265 -15.0781 0 0 196
-47.2193 -5.28719 -16.1973 0 0 168
-46.9916 -6.34955 -15.0374 0 0 168
-33.1522 33.1962 -9.04986 0 0 171
-33.188 31.4663 -8.46919 0 0 200
-33.1874 33.1236 -8.03072 0 0 171
-33.0831 33.1515 -10.0545 0 0 140
-33.1522 33.1962 -9.04986 0 0 140
-33.0311 33.1792 -11.0537 0 0 166
-33.1008 31.5665 -10.4875 0 0 193
-33.0831 33.1515 -10.0545 0 0 166
-32.9442 33.0833 -12.0242 0 0 138
-33.0311 33.1792 -11.0537 0 0 138
-30.3817 27.4208 -26.1566 0 0 133
-30.5557 28.7245 -25.5558 0 0 133
-30.3628 26.141 -26.8838 0 0 154
-30.8472 26.0628 -26.1491 0 0 174
-30.3817 27.4208 -26.1566 0 0 154
-30.2768 24.8311 -27.4943 0 0 170
-30.3628 26.141 -26.8838 0 0 151
-29.8113 26.1892 -27.5018 0 0 151
-28.4323 20.8877 -30.6108 0 0 129
-27.717 22.0668 -30.3365 0 0 129
-29.1175 19.7339 -30.9152 0 0 145
-29.0936 21.032 -30.3996 0 0 161
-28.4323 20.8877 -30.6108 0 0 145
-29.8378 18.7455 -31.419 0 0 128
-29.1175 19.7339 -30.9152 0 0 128
-30.4894 18.9063 -31.2377 0 0 128
-29.8378 18.7455 -31.419 0 0 128
-41.1242 13.5405 9.21446 0 0 138
-41.0061 11.4218 9.55864 0 0 138
-40.4307 14.2178 9.08921 0 0 139
-41.1242 13.5405 9.21446 0 0 139
-39.8303 14.8482 8.81586 0 0 161
-39.7511 12.674 9.1057 0 0 185
-40.4307 14.2178 9.08921 0 0 161
-39.1851 15.5304 8.59175 0 0 138
-39.8303 14.8482 8.81586 0 0 138
-38.644 16.1617 8.21982 0 0 160
-38.6096 13.9358 8.46041 0 0 184
-39.1851 15.5304 8.59175 0 0 160
-38.054 16.8387 7.88949 0 0 137
-38.644 16.1617 8.21982 0 0 137
-37.5763 17.4614 7.41611 0 0 161
-37.5908 15.1899 7.6151 0 0 185
-38.054 16.8387 7.88949 0 0 161
-37.5115 19.7703 7.24922 0 0 163
-37.0482 18.1216 6.97482 0 0 188
-37.5763 17.4614 7.41611 0 0 163
-37.5601 21.9807 6.97128 0 0 137
-37.5115 19.7703 7.24922 0 0 137
-36.9942 22.6713 6.53261 0 0 138
-37.5601 21.9807 6.97128 0 0 138
-44.1664 -34.4346 15.6065 0 0 146
-44.1266 -33.6451 16.4468 0 0 146
-43.6026 -33.3675 15.7509 0 0 163
-44.1664 -34.4346 15.6065 0 0 129
-44.3457 -35.1116 14.7152 0 0 129
-45.8535 -18.0387 17.3435 0 0 167
-45.7717 -19.6218 17.7552 0 0 195
-46.8238 -18.1714 17.5346 0 0 167
-44.9161 -17.8457 17.1873 0 0 140
-45.8535 -18.0387 17.3435 0 0 140
-47.8306 -21.3274 18.3843 0 0 140
-47.8735 -22.7569 18.7374 0 0 140
-46.7502 -21.245 18.2623 0 0 196
-47.8306 -21.3274 18.3843 0 0 168
-47.8223 -19.8369 18.0683 0 0 168
-44.2688 4.79914 -23.6251 0 0 172
-45.1158 4.07975 -23.974 0 0 172
-44.3215 3.75271 -22.4919 0 0 201
-44.2127 5.74017 -24.7158 0 0 167
-44.2688 4.79914 -23.6251 0 0 167
-43.4184 5.41313 -23.2337 0 0 194
-44.0578 6.76128 -25.8377 0 0 141
-44.2127 5.74017 -24.7158 0 0 141
-43.9035 7.67872 -26.9066 0 0 164
-44.0578 6.76128 -25.8377 0 0 164
-43.208 7.27161 -25.3934 0 0 190
-43.6336 8.64664 -28.006 0 0 139
-43.9035 7.67872 -26.9066 0 0 139
-38.9842 14.581 -36.2298 0 0 152
-39.6579 14.2126 -35.5318 0 0 152
-38.9149 14.2728 -34.6668 0 0 172
-38.2066 14.83 -36.8856 0 0 133
-38.9842 14.581 -36.2298 0 0 133
-37.4809 15.0205 -37.4398 0 0 150
-38.2066 14.83 -36.8856 0 0 150
-37.5156 14.8318 -35.919 0 0 169
-36.674 15.0688 -37.9299 0 0 131
-37.4809 15.0205 -37.4398 0 0 131
-36.0433 15.0314 -36.8665 0 0 147
-36.0866 15.2691 -35.4895 0 0 165
-35.3399 15.2782 -35.8829 0 0 147
-36.674 15.0688 -37.9299 0 0 130
-36.0433 15.0314 -36.8665 0 0 130
-33.2912 32.9639 -5.98171 0 0 174
-33.3759 32.8513 -4.95813 0 0 205
-33.3685 34.6889 -5.54203 0 0 174
-33.2535 33.0976 -7.00783 0 0 174
-33.2609 31.26 -6.42393 0 0 204
-33.2912 32.9639 -5.98171 0 0 174
-33.1874 33.1236 -8.03072 0 0 142
-33.2535 33.0976 -7.00783 0 0 142
-40.2873 9.84348 9.65699 0 0 189
-40.942 9.22166 9.83658 0 0 163
-41.0061 11.4218 9.55864 0 0 163
-36.0385 23.9534 5.42035 0 0 191
-36.5345 23.3027 5.97909 0 0 165
-36.509 25.563 5.69856 0 0 165
-34.5752 35.0459 -0.404797 0 0 167
-34.3518 33.1164 0.315006 0 0 194
-34.8418 34.632 0.493968 0 0 167
-34.3038 35.3971 -1.33897 0 0 140
-34.5752 35.0459 -0.404797 0 0 140
-43.2489 -17.4291 16.6549 0 0 188
-44.0719 -17.6626 16.9018 0 0 163
-44.2077 -15.9688 16.5635 0 0 163
-45.3184 -6.90999 14.0135 0 0 140
-45.0677 -8.77734 14.6256 0 0 140
-44.5267 -6.51114 13.9216 0 0 198
-45.3184 -6.90999 14.0135 0 0 169
-45.5724 -4.98672 13.4597 0 0 169
-45.0259 -2.62577 12.7794 0 0 142
-45.8205 -3.08011 12.8089 0 0 142
-44.0593 -4.17363 13.2005 0 0 193
-45.0259 -2.62577 12.7794 0 0 166
-44.3044 -2.21153 12.6121 0 0 166
-43.311 2.7862 11.3127 0 0 138
-43.1084 0.752453 11.8345 0 0 138
-42.5956 3.32221 11.224 0 0 140
-43.311 2.7862 11.3127 0 0 140
-41.9765 3.8174 10.9681 0 0 161
-41.8073 1.72857 11.4083 0 0 186
-42.5956 3.32221 11.224 0 0 161
-41.3126 4.3683 10.7993 0 0 138
-41.9765 3.8174 10.9681 0 0 138
-43.8575 -31.5595 17.2331 0 0 131
-44.2899 -32.7263 17.1666 0 0 131
-43.8408 -29.2755 17.8908 0 0 133
-44.4282 -28.0814 18.3007 0 0 133
-43.4176 -30.3939 17.3472 0 0 150
-43.8408 -29.2755 17.8908 0 0 150
-43.1063 -29.1282 17.3629 0 0 169
-43.123 -31.4123 16.7052 0 0 166
-43.8575 -31.5595 17.2331 0 0 148
-43.4176 -30.3939 17.3472 0 0 148
-46.063 2.54528 -23.0336 0 0 166
-46.0293 1.4966 -21.8954 0 0 166
-45.1348 1.98464 -21.7025 0 0 193
-46.063 2.54528 -23.0336 0 0 140
-46.0083 3.69058 -24.2081 0 0 140
-43.369 9.51332 -29.0413 0 0 162
-43.6336 8.64664 -28.006 0 0 162
-42.789 9.05574 -27.4975 0 0 187
-42.9772 10.3966 -30.1019 0 0 160
-42.1439 10.7079 -29.518 0 0 183
-42.5967 11.1821 -31.087 0 0 160
-43.369 9.51332 -29.0413 0 0 138
-42.9772 10.3966 -30.1019 0 0 138
-41.0616 -28.7724 11.5658 0 0 150
-41.5458 -29.8521 11.4157 0 0 150
-41.023 -29.3212 12.4124 0 0 169
-41.0714 -28.2818 10.6933 0 0 149
-41.0616 -28.7724 11.5658 0 0 149
-40.5486 -27.7509 11.69 0 0 167
-41.2727 -27.664 9.79762 0 0 133
-41.0714 -28.2818 10.6933 0 0 133
-41.4372 -27.1156 8.85988 0 0 152
-41.2727 -27.664 9.79762 0 0 152
-40.7229 -26.712 9.87975 0 0 171
-41.7733 -26.4418 7.92166 0 0 134
-41.4372 -27.1156 8.85988 0 0 134
-41.1797 -25.5663 7.94925 0 0 157
-40.4556 -25.0673 8.96424 0 0 179
-40.748 -24.47 7.97148 0 0 157
-41.7733 -26.4418 7.92166 0 0 133
-41.1797 -25.5663 7.94925 0 0 133
-41.7141 -22.7212 4.82263 0 0 157
-41.3797 -23.2962 5.90223 0 0 157
-40.8402 -22.3329 5.8454 0 0 180
-41.7141 -22.7212 4.82263 0 0 136
-42.1735 -22.033 3.74644 0 0 136
-43.5131 -19.9952 0.379657 0 0 161
-43.0732 -20.6713 1.52302 0 0 161
-42.4153 -19.8374 1.38914 0 0 185
-43.5131 -19.9952 0.379657 0 0 138
-44.0268 -19.1963 -0.751155 0 0 138
-45.4382 -16.7847 -4.23245 0 0 164
-44.9879 -17.5915 -3.06101 0 0 164
-44.2162 -16.8785 -3.248 0 0 190
-45.4382 -16.7847 -4.23245 0 0 139
-45.9179 -15.8433 -5.39332 0 0 139
-47.1818 -12.988 -8.91299 0 0 167
-46.7866 -13.9436 -7.73736 0 0 167
-45.9192 -13.3549 -7.94637 0 0 194
-47.1818 -12.988 -8.91299 0 0 141
-47.5718 -11.8929 -10.0859 0 0 141
-48.258 -9.7 -12.4362 0 0 141
-47.3261 -9.24939 -12.6406 0 0 141
-47.4094 -4.09183 -17.374 0 0 142
-47.2193 -5.28719 -16.1973 0 0 142
-47.4094 -4.09183 -17.374 0 0 140
-46.4811 -3.61572 -17.3984 0 0 140
-45.8886 -0.685892 -19.5852 0 0 142
-45.7753 -1.82055 -18.4211 0 0 142
-44.9973 -0.096996 -19.4237 0 0 195
-45.9923 0.347058 -20.7257 0 0 168
-45.8886 -0.685892 -19.5852 0 0 168
-32.8645 33.086 -12.9939 0 0 161
-32.9691 31.597 -12.4564 0 0 186
-32.9442 33.0833 -12.0242 0 0 161
-32.7578 32.9642 -13.9146 0 0 135
-32.8645 33.086 -12.9939 0 0 135
-32.6506 32.9683 -14.8511 0 0 156
-32.7822 31.6038 -14.3627 0 0 178
-32.7578 32.9642 -13.9146 0 0 156
-32.5381 32.864 -15.7085 0 0 132
-32.6506 32.9683 -14.8511 0 0 132
-32.1055 33.1642 -19.2684 0 0 131
-32.1831 33.0259 -18.3802 0 0 131
-31.9805 32.022 -19.9086 0 0 132
-32.1055 33.1642 -19.2684 0 0 132
-32.0119 30.7632 -20.6187 0 0 156
-32.1778 30.6326 -19.6805 0 0 178
-31.9805 32.022 -19.9086 0 0 156
-31.9493 29.5192 -21.3202 0 0 179
-32.0119 30.7632 -20.6187 0 0 157
-31.7521 30.9085 -21.5483 0 0 157
-31.368 29.7889 -23.1438 0 0 134
-31.533 31.0361 -22.4822 0 0 134
-31.6914 28.382 -23.015 0 0 180
-31.368 29.7889 -23.1438 0 0 157
-31.3699 28.5063 -23.909 0 0 157
-27.9831 26.2253 -29.1339 0 0 131
-27.8178 24.8168 -29.4952 0 0 131
-28.633 26.2208 -28.6297 0 0 132
-27.9831 26.2253 -29.1339 0 0 132
-29.1111 24.8732 -28.614 0 0 168
-29.2472 26.2269 -28.1279 0 0 149
-28.633 26.2208 -28.6297 0 0 149
-32.372 19.0152 -30.1403 0 0 146
-31.6553 19.9945 -29.5831 0 0 163
-31.7658 19.036 -30.5957 0 0 146
-33.1047 18.0052 -30.7143 0 0 147
-32.9942 18.9636 -29.7017 0 0 164
-32.372 19.0152 -30.1403 0 0 147
-33.8343 17.2441 -31.4774 0 0 129
-33.1047 18.0052 -30.7143 0 0 129
3 0 83 82
3 0 86 84
3 0 82 86
3 2 89 87
3 3 92 90
3 3 329 331
3 331 330 92
3 329 330 331
3 1 96 94
3 4 99 97
3 4 101 99
3 4 103 101
3 332 106 333
3 334 333 104
3 332 333 334
3 336 335 106
3 5 110 108
3 7 113 111
3 7 115 113
3 337 117 338
3 9 120 118
3 9 122 120
3 9 124 122
3 339 126 340
3 342 341 126
3 11 130 128
3 343 132 344
3 345 134 346
3 347 346 132
3 345 346 347
3 11 136 135
3 11 128 136
3 13 348 349
3 6 140 138
3 351 350 141
3 12 145 143
3 14 148 146
3 14 150 148
3 8 153 151
3 15 156 154
3 15 158 156
3 15 160 158
3 16 163 161
3 16 164 163
3 16 166 164
3 17 169 167
3 17 171 169
3 10 174 172
3 18 177 175
3 18 179 177
3 18 181 179
3 352 184 353
3 19 188 186
3 21 189 81
3 21 190 189
3 23 354 355
3 357 356 85
3 359 358 193
3 360 193 361
3 24 197 195
3 25 198 88
3 25 199 198
3 26 202 200
3 28 203 91
3 28 204 203
3 28 205 204
3 363 362 93
3 29 208 206
3 31 209 95
3 31 210 209
3 32 213 211
3 34 214 98
3 34 215 214
3 34 217 215
3 36 218 100
3 36 219 218
3 36 221 219
3 38 222 102
3 38 223 222
3 39 226 224
3 41 227 105
3 41 228 227
3 41 230 228
3 365 364 107
3 43 233 231
3 45 234 109
3 45 235 234
3 20 236 187
3 46 237 112
3 46 238 237
3 46 239 238
3 47 240 114
3 47 241 240
3 48 244 242
3 50 245 116
3 50 246 245
3 22 247 191
3 51 248 119
3 51 249 248
3 51 250 249
3 52 251 121
3 52 252 251
3 52 254 252
3 54 255 123
3 54 256 255
3 366 257 367
3 368 367 192
3 366 367 368
3 55 258 125
3 55 259 258
3 55 260 259
3 369 261 370
3 371 370 127
3 369 370 371
3 373 372 261
3 56 264 262
3 58 265 129
3 58 266 265
3 374 267 375
3 376 375 194
3 374 375 376
3 59 268 131
3 59 269 268
3 59 270 269
3 60 271 133
3 60 272 271
3 377 273 378
3 379 274 380
3 381 275 382
3 383 382 274
3 381 382 383
3 384 276 385
3 386 385 275
3 384 385 386
3 56 277 137
3 56 262 277
3 388 387 196
3 44 278 232
3 61 279 139
3 61 280 279
3 27 281 201
3 389 282 390
3 391 390 142
3 389 390 391
3 393 392 282
3 57 283 263
3 62 284 144
3 62 285 284
3 30 286 207
3 63 287 147
3 63 394 396
3 396 395 287
3 394 395 396
3 63 397 398
3 64 399 401
3 401 400 149
3 399 400 401
3 64 402 403
3 49 288 243
3 65 289 152
3 65 290 289
3 33 291 212
3 66 292 155
3 66 293 292
3 66 294 293
3 67 295 157
3 67 404 406
3 406 405 295
3 404 405 406
3 67 407 408
3 68 409 411
3 411 410 159
3 409 410 411
3 68 412 413
3 35 296 216
3 69 297 162
3 69 414 416
3 416 415 297
3 414 415 416
3 69 417 418
3 70 419 421
3 421 420 165
3 419 420 421
3 70 422 424
3 422 298 423
3 422 423 424
3 37 299 220
3 71 300 168
3 71 301 300
3 71 302 301
3 72 303 170
3 72 304 303
3 53 305 253
3 73 306 173
3 73 307 306
3 40 308 225
3 74 309 176
3 74 310 309
3 74 311 310
3 75 312 178
3 75 313 312
3 75 314 313
3 76 315 180
3 76 316 315
3 42 317 229
3 77 318 182
3 77 319 318
3 77 320 319
3 425 321 426
3 78 427 428
3 78 429 431
3 429 322 430
3 429 430 431
3 78 323 322
3 79 324 183
3 79 325 324
3 80 432 433
3 80 434 436
3 434 326 435
3 434 435 436
3 80 327 326
3 437 328 438
3 439 438 185
3 437 438 439
3 441 440 328
3 442 81 443
3 444 443 19
3 442 443 444
3 445 81 446
3 447 21 448
3 449 448 81
3 447 448 449
3 82 450 451
3 83 452 454
3 454 453 82
3 452 453 454
3 83 455 456
3 84 85 23
3 86 85 84
3 86 457 459
3 459 458 85
3 457 458 459
3 86 460 461
3 82 462 464
3 464 463 86
3 462 463 464
3 82 465 466
3 87 88 24
3 89 88 87
3 89 25 88
3 90 91 26
3 92 91 90
3 92 28 91
3 92 93 28
3 467 93 468
3 469 468 92
3 467 468 469
3 471 470 93
3 94 95 29
3 96 95 94
3 96 31 95
3 97 98 32
3 99 98 97
3 99 34 98
3 99 100 34
3 101 100 99
3 101 36 100
3 101 102 36
3 103 102 101
3 103 38 102
3 104 105 39
3 106 105 104
3 106 41 105
3 106 107 41
3 472 107 473
3 474 473 106
3 472 473 474
3 476 475 107
3 108 109 43
3 110 109 108
3 110 45 109
3 111 112 20
3 113 112 111
3 113 46 112
3 113 114 46
3 115 114 113
3 115 47 114
3 477 116 478
3 479 478 48
3 477 478 479
3 117 480 482
3 480 116 481
3 480 481 482
3 117 50 116
3 118 119 22
3 120 119 118
3 120 51 119
3 120 121 51
3 122 121 120
3 122 52 121
3 122 123 52
3 124 123 122
3 124 54 123
3 483 125 484
3 126 485 487
3 485 125 486
3 485 486 487
3 126 55 125
3 126 127 55
3 488 127 489
3 490 489 126
3 488 489 490
3 492 491 127
3 128 129 56
3 130 129 128
3 130 58 129
3 493 131 494
3 132 495 497
3 495 131 496
3 495 496 497
3 132 59 131
3 132 133 59
3 134 133 132
3 134 60 133
3 135 498 499
3 136 500 502
3 502 501 135
3 500 501 502
3 136 503 504
3 136 505 507
3 505 137 506
3 505 506 507
3 128 137 136
3 128 56 137
3 138 139 44
3 140 139 138
3 140 61 139
3 141 142 27
3 508 142 509
3 510 509 141
3 508 509 510
3 512 511 142
3 143 144 57
3 145 144 143
3 145 62 144
3 146 147 30
3 148 147 146
3 148 63 147
3 148 149 63
3 150 149 148
3 150 64 149
3 151 152 49
3 153 152 151
3 153 65 152
3 154 155 33
3 156 155 154
3 156 66 155
3 156 157 66
3 158 157 156
3 158 67 157
3 158 159 67
3 160 159 158
3 160 68 159
3 161 162 35
3 163 162 161
3 163 69 162
3 163 513 515
3 515 514 69
3 513 514 515
3 164 516 518
3 518 517 163
3 516 517 518
3 164 519 520
3 164 521 523
3 521 165 522
3 521 522 523
3 166 165 164
3 166 70 165
3 167 168 37
3 169 168 167
3 169 71 168
3 169 170 71
3 171 170 169
3 171 72 170
3 172 173 53
3 174 173 172
3 174 73 173
3 175 176 40
3 177 176 175
3 177 74 176
3 177 178 74
3 179 178 177
3 179 75 178
3 179 180 75
3 181 180 179
3 181 76 180
3 524 182 525
3 526 525 42
3 524 525 526
3 527 182 528
3 529 77 530
3 531 530 182
3 529 530 531
3 533 532 77
3 534 78 535
3 536 183 537
3 538 537 78
3 536 537 538
3 184 539 541
3 539 183 540
3 539 540 541
3 184 79 183
3 542 80 543
3 544 185 545
3 546 545 80
3 544 545 546
3 547 185 548
3 550 549 185
3 186 187 5
3 188 187 186
3 188 20 187
3 81 188 19
3 189 188 81
3 189 20 188
3 189 111 20
3 190 111 189
3 190 7 111
3 551 191 552
3 553 191 554
3 555 22 556
3 557 556 191
3 555 556 557
3 558 22 559
3 560 118 561
3 562 561 22
3 560 561 562
3 563 118 564
3 565 9 566
3 567 566 118
3 565 566 567
3 568 192 569
3 570 569 9
3 568 569 570
3 571 192 572
3 574 573 192
3 85 575 577
3 577 576 23
3 575 576 577
3 579 578 85
3 193 194 11
3 580 194 581
3 582 581 193
3 580 581 582
3 584 583 194
3 585 135 586
3 193 587 589
3 587 135 588
3 587 588 589
3 193 11 135
3 195 196 13
3 197 196 195
3 197 590 592
3 592 591 196
3 590 591 592
3 88 197 24
3 198 197 88
3 198 593 595
3 595 594 197
3 593 594 595
3 198 596 597
3 199 598 600
3 600 599 198
3 598 599 600
3 199 601 602
3 200 201 6
3 202 201 200
3 202 27 201
3 91 202 26
3 203 202 91
3 203 27 202
3 203 141 27
3 204 141 203
3 204 603 605
3 605 604 141
3 603 604 605
3 204 606 607
3 205 608 610
3 610 609 204
3 608 609 610
3 205 611 612
3 93 205 28
3 613 205 614
3 615 614 93
3 613 614 615
3 617 616 205
3 206 207 12
3 208 207 206
3 208 30 207
3 95 208 29
3 209 208 95
3 209 30 208
3 209 146 30
3 210 146 209
3 210 14 146
3 211 212 8
3 213 212 211
3 213 33 212
3 98 213 32
3 214 213 98
3 214 33 213
3 214 154 33
3 215 154 214
3 215 15 154
3 215 216 15
3 217 216 215
3 217 35 216
3 100 217 34
3 218 217 100
3 218 35 217
3 218 161 35
3 219 161 218
3 219 16 161
3 219 220 16
3 221 220 219
3 221 37 220
3 102 221 36
3 222 221 102
3 222 37 221
3 222 167 37
3 223 167 222
3 223 17 167
3 224 225 10
3 226 225 224
3 226 40 225
3 105 226 39
3 227 226 105
3 227 40 226
3 227 175 40
3 228 175 227
3 228 18 175
3 228 229 18
3 230 229 228
3 230 42 229
3 107 230 41
3 618 230 619
3 620 619 107
3 618 619 620
3 621 42 622
3 623 622 230
3 621 622 623
3 625 624 42
3 231 232 2
3 233 232 231
3 233 44 232
3 109 233 43
3 234 233 109
3 234 44 233
3 234 138 44
3 235 138 234
3 235 6 138
3 187 110 5
3 236 110 187
3 236 45 110
3 112 236 20
3 237 236 112
3 237 45 236
3 237 235 45
3 238 235 237
3 238 6 235
3 238 200 6
3 239 200 238
3 239 26 200
3 114 239 46
3 240 239 114
3 240 26 239
3 240 90 26
3 241 90 240
3 241 3 90
3 242 243 1
3 244 243 242
3 244 49 243
3 116 244 48
3 245 244 116
3 245 49 244
3 245 151 49
3 246 151 245
3 246 8 151
3 191 626 628
3 626 117 627
3 626 627 628
3 247 117 191
3 247 50 117
3 119 247 22
3 248 247 119
3 248 50 247
3 248 246 50
3 249 246 248
3 249 8 246
3 249 211 8
3 250 211 249
3 250 32 211
3 121 250 51
3 251 250 121
3 251 32 250
3 251 97 32
3 252 97 251
3 252 4 97
3 252 253 4
3 254 253 252
3 254 53 253
3 123 254 52
3 255 254 123
3 255 53 254
3 255 172 53
3 256 172 255
3 256 10 172
3 192 124 9
3 257 124 192
3 257 54 124
3 125 629 631
3 629 257 630
3 629 630 631
3 258 257 125
3 258 54 257
3 258 256 54
3 259 256 258
3 259 10 256
3 259 224 10
3 260 224 259
3 260 39 224
3 127 260 55
3 261 260 127
3 261 39 260
3 261 104 39
3 632 104 633
3 634 633 261
3 632 633 634
3 636 635 104
3 262 263 0
3 264 263 262
3 264 57 263
3 129 264 56
3 265 264 129
3 265 57 264
3 265 143 57
3 266 143 265
3 266 12 143
3 194 130 11
3 267 130 194
3 267 58 130
3 131 637 639
3 637 267 638
3 637 638 639
3 268 267 131
3 268 58 267
3 268 266 58
3 269 266 268
3 269 12 266
3 269 206 12
3 270 206 269
3 270 29 206
3 133 270 59
3 271 270 133
3 271 29 270
3 271 94 29
3 272 94 271
3 272 1 94
3 640 134 641
3 273 642 644
3 642 134 643
3 642 643 644
3 273 60 134
3 645 273 646
3 274 647 649
3 647 273 648
3 647 648 649
3 274 60 273
3 274 272 60
3 275 272 274
3 275 1 272
3 275 242 1
3 276 242 275
3 276 48 242
3 650 276 651
3 652 276 653
3 654 48 655
3 656 655 276
3 654 655 656
3 658 657 48
3 659 23 660
3 137 661 662
3 277 663 665
3 665 664 137
3 663 664 665
3 277 666 668
3 666 23 667
3 666 667 668
3 277 84 23
3 262 84 277
3 262 0 84
3 196 669 671
3 671 670 13
3 669 670 671
3 673 672 196
3 232 89 2
3 278 89 232
3 278 25 89
3 139 278 44
3 279 278 139
3 279 25 278
3 279 199 25
3 280 199 279
3 280 674 676
3 676 675 199
3 674 675 676
3 201 140 6
3 281 140 201
3 281 61 140
3 142 281 27
3 282 281 142
3 282 61 281
3 282 280 61
3 677 280 678
3 679 678 282
3 677 678 679
3 681 680 280
3 263 83 0
3 283 83 263
3 283 682 684
3 684 683 83
3 682 683 684
3 144 283 57
3 284 283 144
3 284 685 687
3 687 686 283
3 685 686 687
3 284 688 689
3 285 690 692
3 692 691 284
3 690 691 692
3 285 693 694
3 207 145 12
3 286 145 207
3 286 62 145
3 147 286 30
3 287 286 147
3 287 62 286
3 287 285 62
3 695 285 696
3 697 696 287
3 695 696 697
3 699 698 285
3 149 700 702
3 702 701 63
3 700 701 702
3 704 703 149
3 243 96 1
3 288 96 243
3 288 31 96
3 152 288 49
3 289 288 152
3 289 31 288
3 289 210 31
3 290 210 289
3 290 14 210
3 212 153 8
3 291 153 212
3 291 65 153
3 155 291 33
3 292 291 155
3 292 65 291
3 292 290 65
3 293 290 292
3 293 14 290
3 293 150 14
3 294 150 293
3 294 64 150
3 157 294 66
3 295 294 157
3 295 64 294
3 295 705 707
3 707 706 64
3 705 706 707
3 709 708 295
3 159 710 712
3 712 711 67
3 710 711 712
3 714 713 159
3 216 160 15
3 296 160 216
3 296 68 160
3 162 296 35
3 297 296 162
3 297 68 296
3 297 715 717
3 717 716 68
3 715 716 717
3 719 718 297
3 721 720 69
3 165 722 723
3 725 724 165
3 298 726 727
3 298 728 730
3 728 13 729
3 728 729 730
3 220 166 16
3 299 166 220
3 299 70 166
3 168 299 37
3 300 299 168
3 300 70 299
3 300 298 70
3 301 298 300
3 301 13 298
3 301 195 13
3 302 195 301
3 302 24 195
3 170 302 71
3 303 302 170
3 303 24 302
3 303 87 24
3 304 87 303
3 304 2 87
3 253 103 4
3 305 103 253
3 305 38 103
3 173 305 53
3 306 305 173
3 306 38 305
3 306 223 38
3 307 223 306
3 307 17 223
3 225 174 10
3 308 174 225
3 308 73 174
3 176 308 40
3 309 308 176
3 309 73 308
3 309 307 73
3 310 307 309
3 310 17 307
3 310 171 17
3 311 171 310
3 311 72 171
3 178 311 74
3 312 311 178
3 312 72 311
3 312 304 72
3 313 304 312
3 313 2 304
3 313 231 2
3 314 231 313
3 314 43 231
3 180 314 75
3 315 314 180
3 315 43 314
3 315 108 43
3 316 108 315
3 316 5 108
3 229 181 18
3 317 181 229
3 317 76 181
3 182 317 42
3 318 317 182
3 318 76 317
3 318 316 76
3 319 316 318
3 319 5 316
3 319 186 5
3 320 186 319
3 320 19 186
3 731 320 732
3 733 732 77
3 731 732 733
3 734 320 735
3 736 19 737
3 738 737 320
3 736 737 738
3 740 739 19
3 741 21 742
3 743 21 744
3 745 190 746
3 747 746 21
3 745 746 747
3 321 748 750
3 748 190 749
3 748 749 750
3 321 7 190
3 751 321 752
3 322 753 755
3 753 321 754
3 753 754 755
3 322 7 321
3 322 115 7
3 323 115 322
3 323 47 115
3 183 323 78
3 324 323 183
3 324 47 323
3 324 241 47
3 325 241 324
3 325 3 241
3 326 756 757
3 326 758 759
3 326 760 762
3 760 184 761
3 760 761 762
3 327 184 326
3 327 79 184
3 185 327 80
3 328 327 185
3 328 79 327
3 328 325 79
3 763 325 764
3 765 764 328
3 763 764 765
3 766 3 767
3 768 767 325
3 766 767 768
3 770 769 3
