ply
format ascii 1.0
element vertex 137
property float x
property float y
property float z
property uchar red
property uchar green
property uchar blue
element face 126
property list uchar int vertex_index
end_header
6.85293 53.8814 30.9578 255 247 0
8.71279 56.6318 30.2525 167 255 88
7.76259 57.001 25.1235 255 131 0
8.85638 60.3073 24.3691 0 214 255
8.25355 48.2833 29.863 38 255 217
9.54058 51.1925 24.9327 128 0 0
7.96103 52.7764 36.4801 120 255 135
10.5175 56.4244 28.6442 68 255 187
8.93401 58.8183 27.6035 200 255 55
10.7598 58.7384 26.1072 0 233 255
7.37468 51.2295 30.4396 243 255 12
8.14892 49.6148 27.4071 255 15 0
7.80564 52.8158 28.0151 248 0 0
7.55155 57.7347 21.9067 52 255 203
8.11511 55.2397 21.7202 164 255 91
7.91202 50.5043 39.7531 0 120 255
9.39427 51.0281 38.5073 0 179 255
9.40063 52.8789 34.8872 7 255 248
7.34701 55.5836 31.0066 50 255 205
7.27527 55.5599 28.4703 255 202 0
7.65269 57.5063 28.3917 143 255 112
7.77297 59.1151 24.9357 191 255 64
7.76175 59.9142 21.8352 0 156 255
7.46884 46.5141 26.8927 14 255 241
8.0609 47.9085 24.5446 158 255 97
9.23516 49.2021 22.0895 62 255 193
8.91629 54.5751 25.1491 150 0 0
9.62682 52.5651 21.7313 246 255 9
7.09096 51.6524 33.8884 71 255 184
7.09168 51.3528 37.1826 0 205 255
7.05684 53.6814 33.8767 106 255 149
8.20543 54.5764 33.2016 121 255 134
9.92805 54.3418 31.6024 38 255 217
11.5882 56.9837 26.3756 0 0 188
10.6386 57.5814 27.3757 0 0 229
11.467 55.8266 27.6441 0 0 188
8.17131 56.6916 20.395 0 0 142
8.15776 58.0849 20.4639 0 0 142
10.2059 49.8874 39.1554 0 0 138
9.28973 49.9213 40.0789 0 0 138
10.8592 49.4919 38.1112 0 0 138
10.0476 50.6326 37.4631 0 0 171
10.2059 49.8874 39.1554 0 0 171
7.8612 47.3987 28.3779 0 0 215
8.01631 45.9012 28.1893 0 0 178
8.40866 46.7858 29.6745 0 0 178
9.06038 52.8389 20.2757 0 0 181
8.87096 53.9024 21.7258 0 0 220
8.30452 54.1762 20.2702 0 0 181
9.53746 51.4447 20.3976 0 0 142
9.06038 52.8389 20.2757 0 0 142
7.11954 50.2821 35.3421 0 0 146
7.57541 50.2994 33.6484 0 0 146
10.4186 53.0743 32.191 0 0 173
9.66434 53.6103 33.2448 0 0 206
10.1549 52.3429 33.8334 0 0 173
10.8388 53.8619 30.609 0 0 139
10.4186 53.0743 32.191 0 0 139
8.45309 55.4441 20.3018 0 0 168
7.83333 56.4872 21.8135 0 0 199
8.17131 56.6916 20.395 0 0 168
8.30452 54.1762 20.2702 0 0 136
8.45309 55.4441 20.3018 0 0 136
8.5486 49.6594 40.7018 0 0 130
7.66617 49.2149 41.1632 0 0 130
8.65314 50.7662 39.1302 0 0 174
8.5486 49.6594 40.7018 0 0 151
9.28973 49.9213 40.0789 0 0 151
10.0508 51.558 35.653 0 0 176
9.39745 51.9535 36.6972 0 0 212
10.0476 50.6326 37.4631 0 0 176
10.1549 52.3429 33.8334 0 0 143
10.0508 51.558 35.653 0 0 143
8.26285 59.1747 20.4282 0 0 161
8.15776 58.0849 20.4639 0 0 161
7.65665 58.8245 21.871 0 0 189
7.26801 45.0087 27.1803 0 0 139
8.01631 45.9012 28.1893 0 0 139
6.98325 45.8024 25.6284 0 0 142
7.26801 45.0087 27.1803 0 0 142
7.27928 46.4997 24.4543 0 0 170
6.98325 45.8024 25.6284 0 0 170
7.76487 47.2113 25.7187 0 0 203
8.06305 47.1738 23.2624 0 0 140
7.27928 46.4997 24.4543 0 0 140
8.65018 47.8206 22.0348 0 0 169
8.06305 47.1738 23.2624 0 0 169
8.64803 48.5553 23.3171 0 0 201
9.30961 48.5086 20.8101 0 0 138
8.65018 47.8206 22.0348 0 0 138
9.34163 49.7632 20.5767 0 0 187
9.43099 50.8836 21.9104 0 0 228
9.53746 51.4447 20.3976 0 0 187
9.30961 48.5086 20.8101 0 0 135
9.34163 49.7632 20.5767 0 0 135
8.49113 47.1519 31.3249 0 0 145
8.40866 46.7858 29.6745 0 0 145
8.1567 48.6149 31.6358 0 0 147
8.49113 47.1519 31.3249 0 0 147
7.71726 50.088 31.9241 0 0 192
7.81411 49.7564 30.1513 0 0 236
8.1567 48.6149 31.6358 0 0 192
7.23282 51.441 32.164 0 0 226
7.71726 50.088 31.9241 0 0 185
7.57541 50.2994 33.6484 0 0 185
7.40619 49.6112 39.8491 0 0 151
7.16034 48.3217 41.2591 0 0 128
7.66617 49.2149 41.1632 0 0 151
6.99602 50.0354 38.5638 0 0 152
7.40619 49.6112 39.8491 0 0 152
7.50185 50.9286 38.4679 0 0 176
7.11991 50.1323 36.9892 0 0 137
6.99602 50.0354 38.5638 0 0 137
7.09132 51.5026 35.5355 0 0 207
7.11954 50.2821 35.3421 0 0 173
7.11991 50.1323 36.9892 0 0 173
11.1335 54.9032 29.1299 0 0 182
10.2228 55.3831 30.1233 0 0 220
10.8388 53.8619 30.609 0 0 182
11.467 55.8266 27.6441 0 0 144
11.1335 54.9032 29.1299 0 0 144
11.9953 57.9465 25.3546 0 0 144
11.5882 56.9837 26.3756 0 0 144
10.8858 59.3145 24.6783 0 0 145
11.9953 57.9465 25.3546 0 0 145
9.93409 60.0989 23.8092 0 0 162
9.80808 59.5228 25.2381 0 0 191
10.8858 59.3145 24.6783 0 0 162
9.01234 60.821 22.6928 0 0 137
9.93409 60.0989 23.8092 0 0 137
8.46502 60.6244 21.4259 0 0 155
8.30907 60.1107 23.1022 0 0 180
9.01234 60.821 22.6928 0 0 155
8.27553 60.6323 20.1356 0 0 128
8.46502 60.6244 21.4259 0 0 128
8.26285 59.1747 20.4282 0 0 145
8.27553 60.6323 20.1356 0 0 145
3 33 9 34
3 35 34 7
3 33 34 35
3 0 12 10
3 37 36 13
3 38 16 39
3 42 41 16
3 40 41 42
3 1 20 18
3 3 21 8
3 3 22 21
3 4 43 45
3 43 23 44
3 43 44 45
3 5 24 11
3 5 25 24
3 2 26 19
3 46 27 47
3 48 47 14
3 46 47 48
3 50 49 27
3 51 28 52
3 6 29 15
3 6 30 29
3 6 31 30
3 53 32 54
3 55 54 17
3 53 54 55
3 57 56 32
3 7 8 1
3 9 8 7
3 9 3 8
3 10 11 4
3 12 11 10
3 12 5 11
3 13 14 2
3 58 14 59
3 60 59 13
3 58 59 60
3 62 61 14
3 63 15 64
3 16 65 67
3 65 15 66
3 65 66 67
3 16 6 15
3 16 17 6
3 68 17 69
3 70 69 16
3 68 69 70
3 72 71 17
3 18 19 0
3 20 19 18
3 20 2 19
3 8 20 1
3 21 20 8
3 21 2 20
3 21 13 2
3 22 13 21
3 22 73 75
3 75 74 13
3 73 74 75
3 23 76 77
3 23 78 79
3 11 23 4
3 24 23 11
3 24 80 82
3 82 81 23
3 80 81 82
3 24 83 84
3 25 85 87
3 87 86 24
3 85 86 87
3 25 88 89
3 19 12 0
3 26 12 19
3 26 5 12
3 14 26 2
3 27 26 14
3 27 5 26
3 27 25 5
3 90 25 91
3 92 91 27
3 90 91 92
3 94 93 25
3 95 4 96
3 97 4 98
3 99 10 100
3 101 100 4
3 99 100 101
3 28 102 104
3 102 10 103
3 102 103 104
3 28 0 10
3 15 105 107
3 105 106 107
3 29 108 110
3 110 109 15
3 108 109 110
3 29 111 112
3 29 113 115
3 113 28 114
3 113 114 115
3 30 28 29
3 30 0 28
3 30 18 0
3 31 18 30
3 31 1 18
3 17 31 6
3 32 31 17
3 32 1 31
3 32 7 1
3 116 7 117
3 118 117 32
3 116 117 118
3 120 119 7
3 121 9 122
3 123 9 124
3 125 3 126
3 127 126 9
3 125 126 127
3 128 3 129
3 130 22 131
3 132 131 3
3 130 131 132
3 133 22 134
3 136 135 22
