ply
format ascii 1.0
element vertex 135
property float x
property float y
property float z
property uchar red
property uchar green
property uchar blue
element face 120
property list uchar int vertex_index
end_header
14.5634 -11.1422 62.3586 247 0 0
18.0938 -4.96521 63.9011 40 255 215
14.8724 -6.13884 65.7405 208 0 0
17.3197 -9.74163 61.0414 27 255 228
11.562 -12.5002 65.4312 255 195 0
11.2218 -8.7434 68.0746 255 158 0
18.6256 -2.83564 65.7818 0 237 255
18.3534 -12.5032 61.0719 0 233 255
13.8595 -14.4666 63.7983 205 255 50
12.4027 -15.0312 65.7461 100 255 155
13.0086 -11.7414 63.6037 134 0 0
14.8244 -4.48234 67.2727 135 255 120
12.9959 -7.28796 67.0653 255 8 0
12.9368 -5.84353 68.5098 84 255 171
10.8432 -7.18555 69.0605 0 182 255
16.1814 -7.53549 62.9032 255 122 0
14.5859 -8.26024 63.7492 178 0 0
16.5923 -5.38535 64.6216 255 92 0
16.8657 -3.39147 66.2936 113 255 142
15.3858 -13.9473 62.5335 162 255 93
19.0703 -15.0543 63.5691 0 184 255
17.0988 -13.2901 61.7205 198 255 57
16.1682 -10.4394 61.6394 255 132 0
17.5251 -7.12675 62.3477 14 255 241
10.1842 -13.2655 67.2988 0 252 255
12.8605 -9.21381 65.156 128 0 0
11.2502 -10.409 66.5291 255 46 0
9.64247 -11.4394 67.963 42 255 213
9.20068 -9.85035 68.664 0 156 255
13.7198 -4.17035 68.301 0 0 182
13.8806 -5.16294 67.8912 0 0 218
14.6636 -3.48975 67.6824 0 0 182
13.4612 -3.29873 68.4904 0 0 142
12.6782 -4.97192 68.6992 0 0 173
13.7198 -4.17035 68.301 0 0 173
17.6785 -1.88456 66.3183 0 0 171
17.7456 -3.11355 66.0377 0 0 202
18.5584 -1.60665 66.0624 0 0 171
16.703 -2.35413 66.6538 0 0 142
17.6785 -1.88456 66.3183 0 0 142
16.2269 -14.7887 63.4552 0 0 152
15.4026 -15.0341 64.0851 0 0 152
19.6751 -14.6677 62.9307 0 0 145
19.9808 -15.2798 64.628 0 0 145
11.2817 -14.0059 66.4006 0 0 186
11.702 -15.2714 66.558 0 0 186
11.9824 -13.7657 65.5887 0 0 223
10.8731 -12.8828 66.365 0 0 221
10.5928 -14.3885 67.3344 0 0 185
11.2817 -14.0059 66.4006 0 0 185
9.90185 -7.83834 68.8034 0 0 133
10.6689 -6.44114 68.9071 0 0 133
19.3462 -2.38883 65.2721 0 0 183
18.3597 -3.90043 64.8414 0 0 219
19.0803 -3.45362 64.3318 0 0 183
19.4781 -1.23278 65.7742 0 0 141
19.3462 -2.38883 65.2721 0 0 141
19.411 -0.003792 66.0548 0 0 143
18.5584 -1.60665 66.0624 0 0 175
19.4781 -1.23278 65.7742 0 0 175
18.8695 -11.9959 60.6604 0 0 141
19.3166 -13.3921 61.6821 0 0 141
18.558 -10.6198 60.8059 0 0 138
18.8695 -11.9959 60.6604 0 0 138
18.0411 -9.23901 60.7907 0 0 177
17.8365 -11.1224 61.0566 0 0 211
18.558 -10.6198 60.8059 0 0 177
18.1287 -8.00819 61.4064 0 0 140
18.0411 -9.23901 60.7907 0 0 140
13.1311 -14.7489 64.7722 0 0 239
13.1455 -16.0096 66.3716 0 0 197
13.8739 -15.7273 65.3977 0 0 197
11.6314 -5.64293 68.9745 0 0 170
11.89 -6.51454 68.7851 0 0 199
12.6782 -4.97192 68.6992 0 0 170
10.6689 -6.44114 68.9071 0 0 133
11.6314 -5.64293 68.9745 0 0 133
15.6824 -2.89957 67.1433 0 0 181
15.8451 -3.9369 66.7832 0 0 216
16.703 -2.35413 66.6538 0 0 181
14.6636 -3.48975 67.6824 0 0 146
15.6824 -2.89957 67.1433 0 0 146
14.6395 -15.2937 64.7176 0 0 151
13.8739 -15.7273 65.3977 0 0 151
14.6226 -14.207 63.1659 0 0 224
14.6395 -15.2937 64.7176 0 0 186
15.4026 -15.0341 64.0851 0 0 186
19.0438 -15.5839 65.1411 0 0 150
19.9808 -15.2798 64.628 0 0 150
18.0692 -15.3421 63.973 0 0 153
19.0438 -15.5839 65.1411 0 0 153
18.7118 -13.7787 62.3205 0 0 216
19.6751 -14.6677 62.9307 0 0 181
19.3166 -13.3921 61.6821 0 0 181
17.0835 -14.4601 63.0487 0 0 201
18.0692 -15.3421 63.973 0 0 201
18.0846 -14.1722 62.6448 0 0 246
16.2423 -13.6187 62.127 0 0 226
16.2269 -14.7887 63.4552 0 0 188
17.0835 -14.4601 63.0487 0 0 188
18.2314 -6.70075 62.0596 0 0 172
17.4224 -8.43419 61.6945 0 0 203
18.1287 -8.00819 61.4064 0 0 172
18.4097 -5.61458 62.7686 0 0 138
18.2314 -6.70075 62.0596 0 0 138
18.694 -4.53382 63.5453 0 0 165
17.8094 -6.04598 63.1244 0 0 191
18.4097 -5.61458 62.7686 0 0 165
19.0803 -3.45362 64.3318 0 0 138
18.694 -4.53382 63.5453 0 0 138
12.3025 -16.2643 67.0639 0 0 150
13.1455 -16.0096 66.3716 0 0 150
12.3025 -16.2643 67.0639 0 0 146
11.702 -15.2714 66.558 0 0 146
9.8411 -14.6668 68.0824 0 0 144
10.5928 -14.3885 67.3344 0 0 144
9.49158 -13.6483 68.0541 0 0 170
9.1485 -15.0497 68.8376 0 0 141
9.8411 -14.6668 68.0824 0 0 170
9.22072 -12.7353 68.3861 0 0 167
9.49158 -13.6483 68.0541 0 0 167
9.91332 -12.3524 67.6309 0 0 195
8.85783 -11.9517 68.4185 0 0 134
9.22072 -12.7353 68.3861 0 0 134
8.63693 -11.1572 68.769 0 0 158
8.85783 -11.9517 68.4185 0 0 158
9.42157 -10.6449 68.3135 0 0 182
8.36002 -10.4657 68.5896 0 0 131
8.63693 -11.1572 68.769 0 0 131
9.08057 -9.17074 68.6051 0 0 149
10.022 -8.51795 68.8623 0 0 168
9.90185 -7.83834 68.8034 0 0 149
8.2399 -9.78614 68.5307 0 0 128
8.36002 -10.4657 68.5896 0 0 144
9.08057 -9.17074 68.6051 0 0 144
3 0 10 8
3 29 13 30
3 31 30 11
3 29 30 31
3 34 33 13
3 32 33 34
3 1 17 15
3 35 18 36
3 37 36 6
3 35 36 37
3 39 38 18
3 40 19 41
3 42 20 43
3 3 21 7
3 3 22 21
3 3 23 22
3 4 44 46
3 46 45 9
3 44 45 46
3 4 47 49
3 47 24 48
3 47 48 49
3 2 25 16
3 5 26 12
3 5 27 26
3 5 28 27
3 51 50 14
3 52 6 53
3 54 53 1
3 52 53 54
3 55 6 56
3 59 58 6
3 57 58 59
3 60 7 61
3 62 7 63
3 64 3 65
3 66 65 7
3 64 65 66
3 68 67 3
3 8 69 71
3 69 9 70
3 69 70 71
3 10 9 8
3 10 4 9
3 11 12 2
3 13 12 11
3 13 5 12
3 13 14 5
3 72 14 73
3 74 73 13
3 72 73 74
3 76 75 14
3 15 16 0
3 17 16 15
3 17 2 16
3 6 17 1
3 18 17 6
3 18 2 17
3 18 11 2
3 77 11 78
3 79 78 18
3 77 78 79
3 81 80 11
3 82 8 83
3 19 84 86
3 84 8 85
3 84 85 86
3 19 0 8
3 20 87 88
3 20 89 90
3 7 91 93
3 91 20 92
3 91 92 93
3 21 20 7
3 21 94 96
3 96 95 20
3 94 95 96
3 21 97 99
3 97 19 98
3 97 98 99
3 22 19 21
3 22 0 19
3 22 15 0
3 23 15 22
3 23 1 15
3 100 23 101
3 102 101 3
3 100 101 102
3 103 23 104
3 105 1 106
3 107 106 23
3 105 106 107
3 109 108 1
3 9 110 111
3 113 112 9
3 24 114 115
3 24 116 118
3 116 117 118
3 16 10 0
3 25 10 16
3 25 4 10
3 12 25 2
3 26 25 12
3 26 4 25
3 26 24 4
3 27 24 26
3 27 119 121
3 121 120 24
3 119 120 121
3 27 122 123
3 28 124 126
3 126 125 27
3 124 125 126
3 28 127 128
3 14 28 5
3 129 28 130
3 131 130 14
3 129 130 131
3 134 133 28
3 132 133 134
