ply
format ascii 1.0
element vertex 139
property float x
property float y
property float z
property uchar red
property uchar green
property uchar blue
element face 124
property list uchar int vertex_index
end_header
37.9209 -4.14665 -0.11417 102 255 153
34.9561 0.024544 8.57364 255 30 0
32.2991 11.2145 5.19431 0 210 255
33.7264 5.66071 6.81489 213 0 0
36.562 -7.33671 5.07869 255 27 0
36.098 2.41722 2.69234 231 255 24
38.075 -2.12248 4.71654 243 0 0
38.2803 -1.55153 -0.247233 0 153 255
37.551 -3.24095 7.71315 255 13 0
35.9704 -7.31816 6.61712 164 255 91
36.9389 -3.06623 9.25765 249 255 6
34.1424 7.24232 4.1012 244 255 11
34.0715 2.64455 7.54753 214 0 0
35.4357 1.27106 5.7048 181 0 0
36.7374 -1.1162 6.80393 241 0 0
37.377 -4.61562 5.13741 224 0 0
37.8683 -6.61666 0.065679 0 242 255
33.206 3.72944 9.57775 157 255 98
34.4305 0.018486 10.268 121 255 134
33.1152 8.52019 6.15068 255 200 0
32.2559 9.55368 8.19598 33 255 222
33.0096 6.70159 8.90161 162 255 93
38.7125 -10.2888 3.44405 0 239 255
38.0476 -10.7542 5.03505 0 234 255
36.1792 -3.05156 10.847 0 156 255
38.665 -0.602618 2.04575 225 255 30
34.6591 4.13688 4.77472 128 0 0
37.3904 0.15233 3.87162 221 0 0
38.1009 -3.39252 2.17171 255 77 0
37.7556 -5.81652 2.44514 249 255 6
37.9164 -8.24308 2.84827 134 255 121
37.4693 -5.00667 -1.31078 0 0 177
37.649 -3.70911 -1.37731 0 0 177
38.1006 -2.84909 -0.180702 0 0 213
32.1884 12.5382 4.7678 0 0 143
31.7672 13.0451 5.89632 0 0 143
32.8344 10.6669 4.15128 0 0 142
32.1884 12.5382 4.7678 0 0 142
33.2208 9.22842 4.64776 0 0 232
33.756 8.6808 3.60472 0 0 189
32.8344 10.6669 4.15128 0 0 189
37.3316 -8.50269 -0.920837 0 0 140
37.8508 -7.7584 0.309902 0 0 140
33.1441 3.59898 10.4004 0 0 139
32.9639 5.59537 10.1522 0 0 139
31.7393 11.236 8.84078 0 0 136
31.9078 10.8305 7.8218 0 0 136
32.8657 7.08145 9.81414 0 0 135
32.4933 8.50072 9.51478 0 0 135
32.9639 5.59537 10.1522 0 0 169
33.1078 5.21551 9.23968 0 0 201
32.8657 7.08145 9.81414 0 0 169
36.5574 -9.27598 6.54241 0 0 143
35.8338 -7.19918 7.51396 0 0 143
35.1838 -1.52036 11.3442 0 0 165
35.3049 -1.51654 10.5575 0 0 196
34.3095 0.014663 11.0547 0 0 165
37.2155 1.96701 1.86189 0 0 153
35.6824 3.99411 2.36503 0 0 153
37.3815 0.907299 2.36905 0 0 215
38.4989 0.457089 1.53859 0 0 178
37.2155 1.96701 1.86189 0 0 178
37.7364 -2.42409 -1.40325 0 0 142
38.6221 -0.296552 -0.491783 0 0 142
37.7364 -2.42409 -1.40325 0 0 139
37.649 -3.70911 -1.37731 0 0 139
36.318 -5.07321 8.83422 0 0 185
35.8338 -7.19918 7.51396 0 0 185
36.4546 -5.19219 7.93738 0 0 226
34.7046 6.40667 3.06946 0 0 149
33.756 8.6808 3.60472 0 0 149
35.1202 4.82977 3.39677 0 0 238
35.6824 3.99411 2.36503 0 0 193
34.7046 6.40667 3.06946 0 0 193
37.4044 -7.43472 -1.12949 0 0 175
37.4307 -6.19972 -1.21942 0 0 175
37.8946 -5.38165 -0.024245 0 0 211
37.4044 -7.43472 -1.12949 0 0 137
37.3316 -8.50269 -0.920837 0 0 137
33.7564 1.74351 10.7455 0 0 172
33.8183 1.87396 9.9229 0 0 206
33.1441 3.59898 10.4004 0 0 172
34.3095 0.014663 11.0547 0 0 135
33.7564 1.74351 10.7455 0 0 135
31.9293 11.661 6.32097 0 0 143
31.7672 13.0451 5.89632 0 0 143
32.3374 10.3138 6.79915 0 0 185
32.7071 9.86736 5.67249 0 0 225
31.9293 11.661 6.32097 0 0 185
32.6855 9.03693 7.17333 0 0 209
32.3374 10.3138 6.79915 0 0 174
31.9078 10.8305 7.8218 0 0 174
32.1164 9.92677 9.16197 0 0 166
31.7393 11.236 8.84078 0 0 166
31.5998 11.6091 9.80676 0 0 135
32.6327 8.12764 8.5488 0 0 205
32.1164 9.92677 9.16197 0 0 171
32.4933 8.50072 9.51478 0 0 171
37.4693 -5.00667 -1.31078 0 0 138
37.4307 -6.19972 -1.21942 0 0 138
38.4742 -11.5796 3.55809 0 0 134
37.982 -11.5005 2.60309 0 0 134
38.1418 -11.8123 4.3536 0 0 150
38.4742 -11.5796 3.55809 0 0 150
38.3801 -10.5215 4.23955 0 0 174
38.4701 -11.9459 5.2842 0 0 129
38.1418 -11.8123 4.3536 0 0 129
37.5961 -10.994 5.75138 0 0 181
37.009 -9.0362 5.82609 0 0 220
36.5574 -9.27598 6.54241 0 0 181
38.4701 -11.9459 5.2842 0 0 128
37.5961 -10.994 5.75138 0 0 128
35.9382 -5.06588 9.6289 0 0 185
36.318 -5.07321 8.83422 0 0 185
36.559 -3.05889 10.0523 0 0 226
35.9013 -3.11905 11.5286 0 0 132
35.1838 -1.52036 11.3442 0 0 132
35.7458 -5.09877 10.4246 0 0 138
35.9013 -3.11905 11.5286 0 0 138
35.9382 -5.06588 9.6289 0 0 141
35.7458 -5.09877 10.4246 0 0 141
38.3066 -0.017367 0.392099 0 0 132
38.6221 -0.296552 -0.491783 0 0 132
38.4727 -1.07707 0.899261 0 0 200
38.3066 -0.017367 0.392099 0 0 168
38.4989 0.457089 1.53859 0 0 168
37.7945 -7.35833 1.49963 0 0 167
37.8508 -7.7584 0.309902 0 0 167
37.8119 -6.21659 1.25541 0 0 198
37.8749 -8.57161 1.7012 0 0 167
37.7945 -7.35833 1.49963 0 0 167
37.836 -7.0298 2.6467 0 0 199
37.8539 -9.55176 1.94828 0 0 130
37.8749 -8.57161 1.7012 0 0 130
38.252 -10.5746 2.24617 0 0 167
37.8539 -9.55176 1.94828 0 0 167
38.3145 -9.26594 3.14616 0 0 199
37.982 -11.5005 2.60309 0 0 133
38.252 -10.5746 2.24617 0 0 133
3 0 31 33
3 33 32 7
3 31 32 33
3 1 10 8
3 2 34 35
3 2 36 37
3 2 38 40
3 38 11 39
3 38 39 40
3 1 14 12
3 1 8 14
3 42 41 16
3 44 43 17
3 45 20 46
3 47 21 48
3 49 17 50
3 51 50 21
3 49 50 51
3 4 23 22
3 53 52 9
3 54 24 55
3 56 55 18
3 54 55 56
3 5 57 58
3 5 59 61
3 59 25 60
3 59 60 61
3 3 26 19
3 6 27 13
3 6 28 27
3 6 29 28
3 4 30 15
3 4 22 30
3 7 62 63
3 65 64 7
3 8 9 4
3 10 9 8
3 10 66 68
3 68 67 9
3 66 67 68
3 11 69 70
3 11 71 73
3 71 5 72
3 71 72 73
3 12 13 3
3 14 13 12
3 14 6 13
3 14 15 6
3 8 15 14
3 8 4 15
3 16 74 76
3 76 75 0
3 74 75 76
3 78 77 16
3 17 18 1
3 79 18 80
3 81 80 17
3 79 80 81
3 83 82 18
3 84 2 85
3 86 19 87
3 88 87 2
3 86 87 88
3 20 89 91
3 89 19 90
3 89 90 91
3 20 3 19
3 92 20 93
3 92 93 94
3 21 95 97
3 95 20 96
3 95 96 97
3 21 3 20
3 21 12 3
3 17 12 21
3 17 1 12
3 99 98 0
3 22 100 101
3 23 102 104
3 104 103 22
3 102 103 104
3 23 105 106
3 9 23 4
3 107 23 108
3 109 108 9
3 107 108 109
3 111 110 23
3 18 10 1
3 24 10 18
3 24 112 114
3 114 113 10
3 112 113 114
3 115 24 116
3 117 24 118
3 120 119 24
3 121 7 122
3 25 123 125
3 123 7 124
3 123 124 125
3 25 0 7
3 19 11 2
3 26 11 19
3 26 5 11
3 13 26 3
3 27 26 13
3 27 5 26
3 27 25 5
3 28 25 27
3 28 0 25
3 28 16 0
3 29 16 28
3 29 126 128
3 128 127 16
3 126 127 128
3 15 29 6
3 30 29 15
3 30 129 131
3 131 130 29
3 129 130 131
3 30 132 133
3 22 134 136
3 136 135 30
3 134 135 136
3 22 137 138
