ply
format ascii 1.0
element vertex 194
property float x
property float y
property float z
property uchar red
property uchar green
property uchar blue
element face 189
property list uchar int vertex_index
end_header
43.9224 -77.5527 18.8002 0 206 255
36.9145 -84.5811 15.153 104 255 151
37.3662 -76.3069 9.12085 201 0 0
41.6889 -81.2042 3.52859 79 255 176
44.9017 -75.2704 14.6741 0 151 255
42.9814 -74.7641 10.5834 255 239 0
40.5256 -77.1511 14.204 255 78 0
33.7584 -85.7335 11.0198 34 255 221
40.1786 -81.2311 17.1684 235 255 20
43.1982 -78.2583 6.71899 135 0 0
36.334 -78.7946 3.66071 217 255 38
36.2731 -80.9156 12.63 255 111 0
32.7208 -80.811 7.83387 193 255 62
44.5251 -76.3317 16.5151 0 243 255
42.8751 -76.0048 14.2769 201 255 54
42.7801 -77.7645 16.1121 255 208 0
39.8797 -81.8905 21.3947 0 138 255
40.0486 -74.9367 9.72785 255 16 0
43.1548 -76.1079 8.66492 204 0 0
39.9883 -76.5725 7.12938 128 0 0
39.7218 -78.3824 4.98406 197 0 0
36.8101 -77.3122 6.25743 171 0 0
38.3247 -82.9687 16.2162 207 255 48
38.385 -81.2558 14.874 255 200 0
37.0159 -83.2 13.5883 243 255 12
32.9928 -83.4036 9.38767 162 255 93
45.5439 -80.4018 5.02614 45 255 210
43.4168 -82.2406 2.94263 0 139 255
45.1596 -74.0266 13.7666 0 65 255
45.3411 -74.628 11.8664 0 154 255
43.6154 -74.8085 12.8485 77 255 178
41.0582 -75.0842 12.3021 255 177 0
38.3786 -76.2947 11.9937 253 0 0
35.0697 -84.8354 14.2453 0 135 255
35.767 -85.2107 12.8862 128 255 127
33.7889 -86.3972 12.8514 0 95 255
42.2537 -79.342 17.9858 109 255 146
41.173 -80.513 19.5591 21 255 234
39.4252 -82.556 18.6034 80 255 175
37.5687 -84.2421 18.0738 0 211 255
35.865 -83.8554 16.5926 0 117 255
45.9557 -75.5094 10.2684 51 255 204
46.6073 -77.2381 8.65153 212 255 43
46.5494 -79.1119 6.74834 133 255 122
42.6754 -79.8841 5.01911 255 89 0
38.9483 -79.9657 3.15224 129 255 126
40.3549 -79.3792 15.8777 255 147 0
38.0984 -78.9762 13.6771 255 45 0
36.2626 -78.3771 11.2758 240 0 0
35.2611 -83.2737 11.3767 255 127 0
34.5494 -80.6791 10.1876 255 1 0
34.8975 -78.2405 8.30124 209 0 0
33.7164 -78.9032 5.70215 216 255 39
43.7015 -76.2881 19.2639 0 0 177
43.2498 -75.6755 20.917 0 0 142
43.4707 -76.9401 20.4533 0 0 177
44.2238 -76.9422 17.6576 0 0 209
44.0028 -75.6776 18.1213 0 0 175
43.7015 -76.2881 19.2639 0 0 175
43.9855 -74.1586 15.2574 0 0 137
44.2477 -74.6718 16.1261 0 0 137
45.0306 -74.6485 14.2203 0 0 174
44.1144 -73.5367 14.8036 0 0 151
43.9855 -74.1586 15.2574 0 0 151
33.1973 -85.3661 12.9866 0 0 159
34.4293 -85.6163 13.5483 0 0 185
33.8377 -84.5852 13.6835 0 0 159
41.3528 -80.0029 20.9942 0 0 135
42.002 -79.6257 20.1467 0 0 135
38.8801 -83.0819 19.5898 0 0 162
39.6525 -82.2233 19.9991 0 0 189
39.1073 -82.7491 20.9855 0 0 162
37.9518 -83.9249 19.325 0 0 161
38.4969 -83.399 18.3386 0 0 188
38.8801 -83.0819 19.5898 0 0 161
35.4572 -82.8203 16.9266 0 0 138
36.1123 -83.787 18.0315 0 0 138
35.1924 -83.2263 15.5281 0 0 136
35.4572 -82.8203 16.9266 0 0 136
35.9991 -79.7109 2.6097 0 0 185
37.3062 -80.2965 2.35546 0 0 185
37.6412 -79.3802 3.40647 0 0 223
41.1932 -82.2859 2.41683 0 0 147
40.1372 -81.5312 2.47864 0 0 147
44.0594 -75.2024 17.0466 0 0 137
44.0028 -75.6776 18.1213 0 0 137
44.7134 -75.801 15.5946 0 0 188
44.2477 -74.6718 16.1261 0 0 161
44.0594 -75.2024 17.0466 0 0 161
39.8683 -81.5105 22.8731 0 0 145
40.7062 -80.6917 21.912 0 0 145
39.2438 -82.5501 22.3736 0 0 170
39.8683 -81.5105 22.8731 0 0 170
39.2325 -82.17 23.8519 0 0 139
39.1073 -82.7491 20.9855 0 0 136
39.2438 -82.5501 22.3736 0 0 136
32.1794 -84.8719 9.55235 0 0 181
33.3756 -84.5686 10.2037 0 0 218
32.5622 -86.0368 10.3684 0 0 181
31.8463 -83.6975 8.56624 0 0 147
32.1794 -84.8719 9.55235 0 0 147
31.7104 -82.4012 7.78934 0 0 188
32.8568 -82.1073 8.61077 0 0 228
31.8463 -83.6975 8.56624 0 0 188
31.7773 -81.0105 6.77996 0 0 152
31.7104 -82.4012 7.78934 0 0 152
45.9635 -80.3729 4.32977 0 0 131
46.748 -79.3886 5.24979 0 0 131
44.9 -81.2923 3.28802 0 0 160
45.9635 -80.3729 4.32977 0 0 160
44.4804 -81.3212 3.98438 0 0 186
44.0708 -82.1899 2.22008 0 0 137
44.9 -81.2923 3.28802 0 0 137
42.0571 -82.8041 2.12385 0 0 169
42.5528 -81.7224 3.23561 0 0 200
41.1932 -82.2859 2.41683 0 0 169
42.9263 -83.2768 1.66641 0 0 140
42.0571 -82.8041 2.12385 0 0 140
44.0708 -82.1899 2.22008 0 0 137
42.9263 -83.2768 1.66641 0 0 137
43.9999 -72.7656 14.1016 0 0 138
44.1144 -73.5367 14.8036 0 0 138
45.3185 -73.2848 13.4435 0 0 156
44.1589 -72.0238 13.7785 0 0 132
43.9999 -72.7656 14.1016 0 0 156
45.2503 -74.3273 12.8165 0 0 154
45.4093 -73.5855 12.4934 0 0 138
45.3185 -73.2848 13.4435 0 0 138
32.6071 -86.5808 12.9266 0 0 133
33.1973 -85.3661 12.9866 0 0 133
33.126 -87.2385 12.3423 0 0 128
32.6071 -86.5808 12.9266 0 0 128
33.1108 -86.9066 11.4265 0 0 150
33.7737 -86.0654 11.9356 0 0 172
33.126 -87.2385 12.3423 0 0 150
32.5622 -86.0368 10.3684 0 0 140
33.1108 -86.9066 11.4265 0 0 140
43.3767 -78.1455 19.7672 0 0 140
43.4707 -76.9401 20.4533 0 0 140
42.5423 -79.0402 19.3601 0 0 164
43.088 -78.4474 18.393 0 0 193
43.3767 -78.1455 19.7672 0 0 164
41.7133 -79.9275 18.7725 0 0 188
42.5423 -79.0402 19.3601 0 0 161
42.002 -79.6257 20.1467 0 0 161
40.5263 -81.2018 20.4769 0 0 211
41.3528 -80.0029 20.9942 0 0 176
40.7062 -80.6917 21.912 0 0 176
36.9641 -83.9804 18.7721 0 0 128
37.9518 -83.9249 19.325 0 0 128
36.7168 -84.0487 17.3332 0 0 169
36.9641 -83.9804 18.7721 0 0 149
36.1123 -83.787 18.0315 0 0 149
34.7948 -83.7164 14.3545 0 0 161
35.4673 -84.3454 15.4189 0 0 188
35.1924 -83.2263 15.5281 0 0 161
33.5628 -83.4662 13.7927 0 0 135
33.8377 -84.5852 13.6835 0 0 163
34.7948 -83.7164 14.3545 0 0 163
46.2607 -74.1654 11.7858 0 0 129
45.4093 -73.5855 12.4934 0 0 129
46.568 -74.6061 10.9868 0 0 144
46.2607 -74.1654 11.7858 0 0 144
45.6484 -75.0687 11.0674 0 0 163
47.3598 -75.2518 10.2337 0 0 136
46.568 -74.6061 10.9868 0 0 136
47.6856 -76.1162 9.42524 0 0 173
47.3598 -75.2518 10.2337 0 0 173
46.2815 -76.3737 9.45995 0 0 205
47.8358 -77.006 8.16316 0 0 145
47.6856 -76.1162 9.42524 0 0 145
47.8068 -77.9429 7.21156 0 0 174
47.8358 -77.006 8.16316 0 0 174
46.5784 -78.175 7.69993 0 0 208
47.2507 -78.7436 6.11089 0 0 135
47.8068 -77.9429 7.21156 0 0 135
46.0467 -79.7568 5.88724 0 0 175
46.748 -79.3886 5.24979 0 0 153
47.2507 -78.7436 6.11089 0 0 153
38.7669 -80.912 2.29047 0 0 181
40.1372 -81.5312 2.47864 0 0 181
40.3186 -80.585 3.34041 0 0 217
38.7669 -80.912 2.29047 0 0 145
37.3062 -80.2965 2.35546 0 0 145
32.2751 -80.0566 5.71411 0 0 187
33.2186 -79.8571 6.76801 0 0 226
31.7773 -81.0105 6.77996 0 0 187
33.2199 -79.4802 4.36918 0 0 154
32.2751 -80.0566 5.71411 0 0 154
34.5287 -79.4259 3.34846 0 0 200
35.0252 -78.8489 4.68143 0 0 246
33.2199 -79.4802 4.36918 0 0 200
35.9991 -79.7109 2.6097 0 0 151
34.5287 -79.4259 3.34846 0 0 151
3 0 53 55
3 53 54 55
3 0 56 58
3 56 13 57
3 56 57 58
3 0 15 13
3 2 19 17
3 2 21 19
3 1 24 22
3 3 27 26
3 4 59 60
3 4 61 63
3 61 28 62
3 61 62 63
3 4 30 28
3 6 31 14
3 6 32 31
3 64 35 65
3 66 65 33
3 64 65 66
3 67 37 68
3 69 38 70
3 71 70 16
3 69 70 71
3 72 39 73
3 74 73 38
3 72 73 74
3 75 40 76
3 78 77 40
3 5 41 29
3 9 42 18
3 9 43 42
3 9 44 43
3 10 45 20
3 10 79 81
3 81 80 45
3 79 80 81
3 8 46 36
3 11 47 23
3 11 48 47
3 7 49 34
3 12 50 25
3 12 51 50
3 12 52 51
3 83 82 3
3 13 84 85
3 13 86 88
3 86 4 87
3 86 87 88
3 13 14 4
3 15 14 13
3 15 6 14
3 89 16 90
3 91 16 92
3 91 92 93
3 95 94 16
3 17 18 5
3 19 18 17
3 19 9 18
3 19 20 9
3 21 20 19
3 21 10 20
3 22 23 8
3 24 23 22
3 24 11 23
3 96 25 97
3 98 97 7
3 96 97 98
3 99 25 100
3 101 12 102
3 103 102 25
3 101 102 103
3 105 104 12
3 26 106 107
3 27 108 110
3 110 109 26
3 108 109 110
3 27 111 112
3 113 27 114
3 115 114 3
3 113 114 115
3 116 27 117
3 119 118 27
3 28 120 121
3 28 122 124
3 122 123 124
3 28 125 127
3 125 29 126
3 125 126 127
3 30 29 28
3 30 5 29
3 14 30 4
3 31 30 14
3 31 5 30
3 31 17 5
3 32 17 31
3 32 2 17
3 33 34 1
3 35 34 33
3 35 7 34
3 128 35 129
3 130 35 131
3 132 7 133
3 134 133 35
3 132 133 134
3 136 135 7
3 137 0 138
3 139 36 140
3 141 140 0
3 139 140 141
3 37 142 144
3 142 36 143
3 142 143 144
3 37 8 36
3 16 145 147
3 145 37 146
3 145 146 147
3 38 37 16
3 38 8 37
3 38 22 8
3 39 22 38
3 39 1 22
3 148 39 149
3 40 150 152
3 150 39 151
3 150 151 152
3 40 1 39
3 40 33 1
3 153 33 154
3 155 154 40
3 153 154 155
3 158 157 33
3 156 157 158
3 29 159 160
3 41 161 163
3 163 162 29
3 161 162 163
3 41 164 165
3 18 41 5
3 42 41 18
3 42 166 168
3 168 167 41
3 166 167 168
3 42 169 170
3 43 171 173
3 173 172 42
3 171 172 173
3 43 174 175
3 43 176 178
3 176 26 177
3 176 177 178
3 44 26 43
3 44 3 26
3 20 44 9
3 45 44 20
3 45 3 44
3 45 179 181
3 181 180 3
3 179 180 181
3 183 182 45
3 36 15 0
3 46 15 36
3 46 6 15
3 23 46 8
3 47 46 23
3 47 6 46
3 47 32 6
3 48 32 47
3 48 2 32
3 34 24 1
3 49 24 34
3 49 11 24
3 25 49 7
3 50 49 25
3 50 11 49
3 50 48 11
3 51 48 50
3 51 2 48
3 51 21 2
3 52 21 51
3 52 10 21
3 184 52 185
3 186 185 12
3 184 185 186
3 187 52 188
3 189 10 190
3 191 190 52
3 189 190 191
3 193 192 10
