ply
format ascii 1.0
element vertex 160
property float x
property float y
property float z
property uchar red
property uchar green
property uchar blue
element face 151
property list uchar int vertex_index
end_header
44.6711 24.0663 28.8014 206 0 0
46.6773 33.5041 26.7315 187 0 0
45.5417 28.4843 24.3717 255 54 0
41.5859 25.1663 24.6529 121 255 134
46.7021 32.1661 22.4818 255 52 0
48.1286 28.2341 28.5149 255 103 0
44.9579 29.7138 30.2563 86 255 169
47.6648 25.3203 32.1541 152 255 103
43.4686 20.8982 30.5174 148 255 107
45.0167 26.7238 26.8723 128 0 0
43.6348 26.8135 24.8668 255 100 0
42.8764 24.7997 26.7834 200 0 0
40.4711 23.3939 26.0485 42 255 213
42.0441 22.759 28.0671 246 255 9
45.3818 35.1416 24.3633 195 255 60
44.8955 33.8958 22.3572 201 255 54
47.4162 32.8714 24.62 211 0 0
48.347 30.6395 25.3952 255 25 0
48.2148 30.9211 27.5767 246 0 0
46.8853 27.404 31.5157 107 255 148
45.6823 26.5274 32.4131 0 154 255
44.7734 21.4203 32.2759 26 255 229
41.6078 19.5787 30.9282 0 125 255
44.914 35.6229 26.0372 44 255 211
44.7346 29.9949 21.9443 110 255 145
44.1301 28.101 22.8348 32 255 223
42.7076 26.4318 22.9677 0 187 255
43.2711 33.2617 20.5119 26 255 229
44.5124 31.6574 20.7613 125 255 130
47.0201 30.1682 23.2197 255 33 0
47.1148 28.6187 26.2216 170 0 0
46.6739 25.9736 28.9014 197 0 0
44.1857 33.7046 27.8557 113 255 142
45.9492 31.52 28.6445 255 118 0
47.6074 28.9064 29.6846 255 89 0
48.0458 26.4672 30.6041 241 255 14
46.883 24.1789 30.6651 255 168 0
46.3578 24.3429 32.8398 0 227 255
46.5192 22.6048 31.7241 255 239 0
44.467 22.4867 29.8452 255 125 0
41.5862 21.3258 28.8909 0 228 255
44.145 27.0014 31.9753 0 0 140
44.9189 27.4836 31.794 0 0 140
40.7972 19.4344 31.4764 0 0 139
42.1805 20.1631 31.9077 0 0 139
39.282 18.9793 31.0266 0 0 139
40.0926 19.1236 30.4784 0 0 170
40.7972 19.4344 31.4764 0 0 170
44.0561 36.7818 25.6561 0 0 139
44.1551 36.5167 24.853 0 0 139
41.2823 24.9425 23.4924 0 0 172
41.8431 25.5753 22.6498 0 0 172
42.1468 25.799 23.8103 0 0 204
40.5076 24.405 24.1925 0 0 142
41.2823 24.9425 23.4924 0 0 142
39.3698 22.6731 25.4566 0 0 142
39.9658 22.4836 26.5237 0 0 142
42.8987 33.6965 28.4089 0 0 153
43.2372 34.7442 27.4477 0 0 153
44.0531 30.8408 30.1435 0 0 142
43.5845 30.326 30.793 0 0 142
45.4536 30.6169 29.4504 0 0 240
44.5488 31.7439 29.3376 0 0 196
44.0531 30.8408 30.1435 0 0 196
45.4136 23.936 32.9558 0 0 164
45.2407 25.0378 32.7373 0 0 164
44.2965 24.6309 32.8534 0 0 136
40.7523 22.1661 27.533 0 0 181
39.9658 22.4836 26.5237 0 0 181
41.2576 23.0764 27.0578 0 0 217
45.1386 34.5187 23.3603 0 0 247
43.6567 34.8518 22.3591 0 0 200
43.8999 35.4747 23.3622 0 0 200
44.5567 29.0768 30.7156 0 0 141
43.5845 30.326 30.793 0 0 141
45.5204 27.9219 31.3453 0 0 172
45.9216 28.5589 30.886 0 0 204
44.5567 29.0768 30.7156 0 0 172
46.2838 26.9657 31.9644 0 0 195
45.5204 27.9219 31.3453 0 0 166
44.9189 27.4836 31.794 0 0 166
43.7633 21.0839 32.5815 0 0 139
44.6214 22.4747 32.6739 0 0 139
43.1906 20.4995 31.6021 0 0 207
43.7633 21.0839 32.5815 0 0 174
42.1805 20.1631 31.9077 0 0 174
40.9509 19.6409 30.021 0 0 170
41.8813 20.3006 29.8156 0 0 170
42.5382 20.2384 30.7228 0 0 200
40.9509 19.6409 30.021 0 0 139
40.0926 19.1236 30.4784 0 0 139
44.389 36.2761 24.016 0 0 152
43.8999 35.4747 23.3622 0 0 152
45.1479 35.3823 25.2003 0 0 211
44.389 36.2761 24.016 0 0 176
44.1551 36.5167 24.853 0 0 176
43.4399 29.3925 21.2417 0 0 144
43.2899 30.197 20.8221 0 0 144
43.1376 28.4455 21.687 0 0 188
43.4399 29.3925 21.2417 0 0 188
44.4323 29.0479 22.3896 0 0 228
43.3624 27.6859 22.017 0 0 133
43.1376 28.4455 21.687 0 0 133
42.6511 26.8513 22.0834 0 0 158
43.3624 27.6859 22.017 0 0 158
43.4188 27.2664 22.9013 0 0 183
42.8223 25.9641 22.1111 0 0 128
42.6511 26.8513 22.0834 0 0 128
42.8223 25.9641 22.1111 0 0 135
41.8431 25.5753 22.6498 0 0 135
39.9502 23.5188 24.8903 0 0 181
40.5076 24.405 24.1925 0 0 181
41.0285 24.2801 25.3507 0 0 218
39.9502 23.5188 24.8903 0 0 143
39.3698 22.6731 25.4566 0 0 143
43.1022 34.2371 21.5275 0 0 153
43.6567 34.8518 22.3591 0 0 153
42.2901 33.9201 20.6048 0 0 178
43.1022 34.2371 21.5275 0 0 178
44.0833 33.5787 21.4345 0 0 214
41.3846 33.442 19.644 0 0 147
42.2901 33.9201 20.6048 0 0 147
42.1005 32.7539 19.6868 0 0 143
41.3846 33.442 19.644 0 0 143
42.7211 31.9518 19.8115 0 0 182
42.1005 32.7539 19.6868 0 0 182
43.8918 32.4596 20.6366 0 0 219
43.1788 31.0283 20.2306 0 0 151
42.7211 31.9518 19.8115 0 0 151
44.6235 30.8261 21.3528 0 0 228
43.2899 30.197 20.8221 0 0 188
43.1788 31.0283 20.2306 0 0 188
43.6013 35.7034 26.5384 0 0 153
44.0561 36.7818 25.6561 0 0 153
44.5498 34.6637 26.9464 0 0 237
43.6013 35.7034 26.5384 0 0 194
43.2372 34.7442 27.4477 0 0 194
43.667 32.8362 28.9432 0 0 149
42.8987 33.6965 28.4089 0 0 149
45.0674 32.6123 28.2501 0 0 254
43.667 32.8362 28.9432 0 0 205
44.5488 31.7439 29.3376 0 0 205
44.903 26.1301 32.524 0 0 136
44.145 27.0014 31.9753 0 0 136
46.02 25.4351 32.6264 0 0 183
44.903 26.1301 32.524 0 0 158
45.2407 25.0378 32.7373 0 0 158
45.5656 22.8816 32.5578 0 0 194
45.4136 23.936 32.9558 0 0 165
44.6214 22.4747 32.6739 0 0 165
40.5234 21.4496 27.9449 0 0 168
40.7523 22.1661 27.533 0 0 168
41.8151 22.0424 28.479 0 0 198
40.9401 20.5144 29.0023 0 0 171
42.5274 21.112 29.7042 0 0 203
41.8813 20.3006 29.8156 0 0 171
40.1266 20.6172 28.2359 0 0 136
40.9401 20.5144 29.0023 0 0 136
40.5234 21.4496 27.9449 0 0 142
40.1266 20.6172 28.2359 0 0 142
3 0 11 9
3 0 13 11
3 1 16 14
3 1 18 16
3 41 20 42
3 43 22 44
3 47 46 22
3 45 46 47
3 48 23 49
3 2 25 24
3 3 26 10
3 3 50 52
3 52 51 26
3 50 51 52
3 3 53 54
3 56 55 12
3 4 27 15
3 4 28 27
3 4 29 28
3 5 30 17
3 5 31 30
3 57 32 58
3 6 59 60
3 6 61 63
3 61 33 62
3 61 62 63
3 6 34 33
3 7 35 19
3 7 36 35
3 64 37 65
3 64 65 66
3 8 38 21
3 8 39 38
3 8 40 39
3 9 10 2
3 11 10 9
3 11 3 10
3 11 12 3
3 13 12 11
3 13 67 69
3 69 68 12
3 67 68 69
3 14 70 72
3 70 15 71
3 70 71 72
3 16 15 14
3 16 4 15
3 16 17 4
3 18 17 16
3 18 5 17
3 73 6 74
3 75 19 76
3 77 76 6
3 75 76 77
3 20 78 80
3 78 19 79
3 78 79 80
3 20 7 19
3 81 21 82
3 22 83 85
3 83 21 84
3 83 84 85
3 22 8 21
3 22 86 88
3 88 87 8
3 86 87 88
3 90 89 22
3 91 14 92
3 23 93 95
3 93 14 94
3 93 94 95
3 23 1 14
3 24 96 97
3 25 98 100
3 100 99 24
3 98 99 100
3 25 101 102
3 10 25 2
3 26 25 10
3 26 103 105
3 105 104 25
3 103 104 105
3 26 106 107
3 109 108 26
3 12 110 112
3 112 111 3
3 110 111 112
3 114 113 12
3 15 115 116
3 27 117 119
3 119 118 15
3 117 118 119
3 27 120 121
3 27 122 123
3 28 124 126
3 126 125 27
3 124 125 126
3 28 127 128
3 28 129 131
3 129 24 130
3 129 130 131
3 29 24 28
3 29 2 24
3 17 29 4
3 30 29 17
3 30 2 29
3 30 9 2
3 31 9 30
3 31 0 9
3 132 23 133
3 32 134 136
3 134 23 135
3 134 135 136
3 32 1 23
3 137 32 138
3 33 139 141
3 139 32 140
3 139 140 141
3 33 1 32
3 33 18 1
3 34 18 33
3 34 5 18
3 19 34 6
3 35 34 19
3 35 5 34
3 35 31 5
3 36 31 35
3 36 0 31
3 142 20 143
3 37 144 146
3 144 20 145
3 144 145 146
3 37 7 20
3 21 147 149
3 147 37 148
3 147 148 149
3 38 37 21
3 38 7 37
3 38 36 7
3 39 36 38
3 39 0 36
3 39 13 0
3 40 13 39
3 40 150 152
3 152 151 13
3 150 151 152
3 153 40 154
3 155 154 8
3 153 154 155
3 156 40 157
3 159 158 40
