ply
format ascii 1.0
element vertex 203
property float x
property float y
property float z
property uchar red
property uchar green
property uchar blue
element face 196
property list uchar int vertex_index
end_header
43.1388 -29.6974 21.6547 0 77 255
37.8336 -29.2415 12.4874 0 229 255
45.7163 -37.1164 18.0063 218 255 37
36.5861 -33.8749 19.5443 255 111 0
38.5285 -27.2984 22.1213 255 203 0
39.3798 -31.8322 22.269 233 255 22
46.3431 -34.7871 12.7534 255 136 0
32.5224 -29.1137 17.4284 0 203 255
41.9815 -34.8818 23.2009 26 255 229
38.6062 -22.9295 20.3113 0 181 255
34.382 -29.2626 21.0394 255 170 0
36.2125 -32.688 15.1507 255 45 0
40.7677 -36.5935 18.0415 246 0 0
40.8022 -34.691 12.7521 207 0 0
42.0844 -30.7017 8.81695 57 255 198
39.076 -27.6605 11.4476 0 3 255
40.8851 -28.589 21.5751 0 247 255
41.1958 -30.535 22.14 41 255 214
40.5351 -22.4685 19.4301 0 197 255
36.835 -30.9926 21.791 255 199 0
36.3227 -28.4918 21.9193 255 181 0
35.2361 -31.7854 20.5108 255 157 0
34.3882 -31.7767 18.5858 255 139 0
36.0226 -33.7047 17.2503 255 62 0
43.3836 -36.887 20.8125 130 255 125
41.224 -36.1039 20.9102 255 106 0
43.1312 -36.9938 17.9185 213 0 0
46.83 -33.0086 10.6458 117 255 138
43.5095 -34.9226 12.4736 151 0 0
44.0075 -33.0898 10.3075 223 255 32
41.341 -32.8408 10.5475 255 208 0
40.7098 -24.1564 21.0918 44 255 211
40.8425 -26.3285 21.8699 38 255 217
38.7836 -29.709 22.066 255 240 0
37.787 -33.1068 21.3583 255 200 0
48.7184 -35.9504 15.6044 123 255 132
45.9466 -36.2308 15.1426 128 0 0
49.2612 -34.5952 13.1504 129 255 126
34.7082 -29.9376 14.8454 47 255 208
41.8471 -31.8254 23.702 0 241 255
38.4228 -25.1859 21.3505 255 229 0
36.2717 -25.9828 21.4796 124 255 131
34.27 -26.5828 20.897 0 215 255
33.0904 -29.4692 19.3753 157 255 98
34.3142 -31.0569 16.542 255 142 0
36.9138 -31.0645 13.4957 255 71 0
40.5423 -33.5746 22.7976 255 249 0
39.3199 -34.9067 21.0635 255 137 0
38.4842 -35.5261 18.6295 255 37 0
43.2359 -36.2986 14.9773 165 0 0
40.5627 -35.9881 15.2553 207 0 0
38.1893 -35.1716 15.9584 251 0 0
38.4412 -33.9144 13.5977 245 0 0
39.0942 -32.1011 11.7288 246 0 0
40.0586 -29.9423 10.6365 155 255 100
38.4548 -28.451 11.9675 0 0 184
37.2032 -28.3237 12.3968 0 0 158
36.5819 -29.1142 12.9167 0 0 158
39.5196 -28.5973 11.403 0 0 153
40.1408 -27.8068 10.8831 0 0 153
38.4548 -28.451 11.9675 0 0 176
42.1673 -30.1162 21.8973 0 0 169
42.0927 -29.2778 21.4062 0 0 148
43.0643 -28.859 21.1636 0 0 148
41.7147 -22.2436 19.2402 0 0 134
41.8003 -21.1532 18.9465 0 0 134
45.7197 -32.0898 9.60576 0 0 186
45.4187 -33.0492 10.4766 0 0 226
47.1309 -32.0492 9.77491 0 0 186
44.3551 -32.1135 9.38624 0 0 147
45.7197 -32.0898 9.60576 0 0 147
42.0266 -25.9977 21.6024 0 0 135
42.0189 -24.9149 21.3495 0 0 135
50.7754 -34.4747 13.3496 0 0 199
48.9898 -35.2728 14.3774 0 0 246
50.504 -35.1523 14.5766 0 0 199
32.5816 -28.9032 16.4793 0 0 132
32.2504 -27.9414 17.701 0 0 132
33.6153 -29.5257 16.1369 0 0 183
33.6745 -29.3152 15.1878 0 0 157
32.5816 -28.9032 16.4793 0 0 157
38.9734 -21.7019 20.7329 0 0 138
39.8902 -21.509 20.0975 0 0 138
37.6715 -23.1779 20.6353 0 0 133
38.9734 -21.7019 20.7329 0 0 133
42.5703 -29.5587 8.37208 0 0 184
41.5574 -29.179 9.28186 0 0 184
41.0715 -30.322 9.72673 0 0 222
37.7795 -27.8354 11.5118 0 0 132
37.2032 -28.3237 12.3968 0 0 132
39.5952 -26.8647 10.8925 0 0 131
37.7795 -27.8354 11.5118 0 0 131
40.8246 -26.8614 10.5918 0 0 130
39.5952 -26.8647 10.8925 0 0 130
40.8246 -26.8614 10.5918 0 0 133
40.1408 -27.8068 10.8831 0 0 133
41.9374 -28.3048 21.1238 0 0 136
42.0479 -27.1279 21.455 0 0 136
41.0404 -29.562 21.8575 0 0 182
41.9374 -28.3048 21.1238 0 0 157
42.0927 -29.2778 21.4062 0 0 157
32.6259 -27.9312 18.4915 0 0 129
32.2504 -27.9414 17.701 0 0 129
40.8547 -21.2785 19.6569 0 0 137
41.8003 -21.1532 18.9465 0 0 137
39.5706 -22.699 19.8707 0 0 188
39.8902 -21.509 20.0975 0 0 160
40.8547 -21.2785 19.6569 0 0 160
43.0219 -31.9891 9.50626 0 0 184
42.6743 -32.9653 10.4275 0 0 223
44.3551 -32.1135 9.38624 0 0 184
43.3935 -30.9195 8.64098 0 0 186
41.7127 -31.7713 9.68224 0 0 226
43.0219 -31.9891 9.50626 0 0 186
43.8143 -29.8862 7.84665 0 0 144
43.3935 -30.9195 8.64098 0 0 144
41.9525 -23.8288 20.9605 0 0 138
41.8021 -23.0876 20.0711 0 0 138
40.7761 -25.2424 21.4809 0 0 200
41.9525 -23.8288 20.9605 0 0 168
42.0189 -24.9149 21.3495 0 0 168
40.8638 -27.4587 21.7225 0 0 196
42.0266 -25.9977 21.6024 0 0 166
42.0479 -27.1279 21.455 0 0 166
51.1928 -33.6829 12.2272 0 0 152
50.7754 -34.4747 13.3496 0 0 152
49.5774 -33.7054 12.1685 0 0 152
51.1928 -33.6829 12.2272 0 0 152
48.1184 -33.8014 11.97 0 0 191
47.8022 -34.6911 12.9519 0 0 234
49.5774 -33.7054 12.1685 0 0 191
48.3618 -32.9121 10.9161 0 0 199
46.5865 -33.8978 11.6996 0 0 246
48.1184 -33.8014 11.97 0 0 199
48.6864 -31.9669 10.0101 0 0 150
48.3618 -32.9121 10.9161 0 0 150
47.1309 -32.0492 9.77491 0 0 150
48.6864 -31.9669 10.0101 0 0 150
35.0193 -29.4623 14.0957 0 0 130
33.6745 -29.3152 15.1878 0 0 130
36.2709 -29.5896 13.6664 0 0 175
36.5819 -29.1142 12.9167 0 0 152
35.0193 -29.4623 14.0957 0 0 152
42.6366 -30.9356 23.8907 0 0 169
42.493 -30.7614 22.6784 0 0 201
43.2824 -29.8716 22.867 0 0 169
42.3533 -32.4873 24.2032 0 0 131
42.6366 -30.9356 23.8907 0 0 131
42.4205 -34.0155 23.9527 0 0 157
41.9143 -33.3536 23.4515 0 0 183
42.3533 -32.4873 24.2032 0 0 157
42.8036 -35.4405 23.2848 0 0 132
42.4205 -34.0155 23.9527 0 0 132
43.5046 -36.4431 22.0906 0 0 164
42.6826 -35.8844 22.0067 0 0 193
42.8036 -35.4405 23.2848 0 0 164
44.4967 -37.1398 20.7782 0 0 139
43.5046 -36.4431 22.0906 0 0 139
45.663 -37.2545 19.3751 0 0 173
44.5499 -37.0017 19.4094 0 0 207
44.4967 -37.1398 20.7782 0 0 173
47.0282 -37.0456 18.0718 0 0 145
45.663 -37.2545 19.3751 0 0 145
48.5292 -36.4626 16.8709 0 0 183
47.2173 -36.5334 16.8053 0 0 222
47.0282 -37.0456 18.0718 0 0 183
50.1729 -35.7795 15.7723 0 0 149
48.5292 -36.4626 16.8709 0 0 149
50.504 -35.1523 14.5766 0 0 149
50.1729 -35.7795 15.7723 0 0 149
44.0635 -28.689 20.8539 0 0 128
43.0643 -28.859 21.1636 0 0 128
44.1116 -29.2357 21.7548 0 0 130
44.0635 -28.689 20.8539 0 0 130
44.2552 -29.4099 22.9671 0 0 134
43.2824 -29.8716 22.867 0 0 163
44.1116 -29.2357 21.7548 0 0 163
40.6224 -23.3124 20.261 0 0 198
41.7147 -22.2436 19.2402 0 0 167
41.8021 -23.0876 20.0711 0 0 167
36.5043 -24.7045 21.2195 0 0 157
37.6715 -23.1779 20.6353 0 0 157
37.4389 -24.4562 20.8955 0 0 183
35.5035 -25.0045 20.9282 0 0 163
36.5043 -24.7045 21.2195 0 0 163
35.2708 -26.2828 21.1883 0 0 192
34.5288 -25.1622 20.8206 0 0 135
35.5035 -25.0045 20.9282 0 0 135
33.4997 -26.6657 20.2258 0 0 137
34.5288 -25.1622 20.8206 0 0 137
32.9099 -28.1089 19.4649 0 0 166
33.4997 -26.6657 20.2258 0 0 166
33.6802 -28.026 20.1361 0 0 197
32.8064 -29.2915 18.4018 0 0 196
32.6259 -27.9312 18.4915 0 0 166
32.9099 -28.1089 19.4649 0 0 166
40.6321 -28.9477 10.4776 0 0 178
39.5196 -28.5973 11.403 0 0 178
38.9461 -29.5919 11.562 0 0 214
40.6321 -28.9477 10.4776 0 0 142
41.5574 -29.179 9.28186 0 0 142
42.5703 -29.5587 8.37208 0 0 144
43.8143 -29.8862 7.84665 0 0 144
3 1 55 57
3 55 15 56
3 55 56 57
3 1 58 60
3 60 59 15
3 58 59 60
3 0 61 63
3 61 17 62
3 61 62 63
3 64 18 65
3 3 21 19
3 3 23 21
3 2 26 24
3 66 29 67
3 68 67 27
3 66 67 68
3 70 69 29
3 71 32 72
3 5 33 16
3 5 34 33
3 73 37 74
3 75 74 35
3 73 74 75
3 7 76 77
3 7 78 80
3 78 38 79
3 78 79 80
3 9 81 82
3 9 83 84
3 4 40 31
3 10 41 20
3 10 42 41
3 10 43 42
3 11 44 22
3 11 45 44
3 8 46 39
3 12 47 25
3 12 48 47
3 6 49 36
3 13 50 28
3 13 51 50
3 13 52 51
3 14 53 30
3 14 54 53
3 14 85 87
3 87 86 54
3 85 86 87
3 15 88 89
3 15 90 91
3 15 92 93
3 95 94 15
3 96 16 97
3 17 98 100
3 98 16 99
3 98 99 100
3 17 5 16
3 101 7 102
3 18 103 104
3 18 105 107
3 105 9 106
3 105 106 107
3 19 20 4
3 21 20 19
3 21 10 20
3 21 22 10
3 23 22 21
3 23 11 22
3 24 25 8
3 26 25 24
3 26 12 25
3 27 28 6
3 29 28 27
3 29 13 28
3 29 30 13
3 108 30 109
3 110 109 29
3 108 109 110
3 111 14 112
3 113 112 30
3 111 112 113
3 115 114 14
3 116 31 117
3 32 118 120
3 118 31 119
3 118 119 120
3 32 4 31
3 16 121 123
3 121 32 122
3 121 122 123
3 33 32 16
3 33 4 32
3 33 19 4
3 34 19 33
3 34 3 19
3 35 36 2
3 37 36 35
3 37 6 36
3 124 37 125
3 126 37 127
3 128 6 129
3 130 129 37
3 128 129 130
3 131 27 132
3 133 132 6
3 131 132 133
3 134 27 135
3 137 136 27
3 38 138 139
3 38 140 142
3 140 1 141
3 140 141 142
3 143 39 144
3 145 144 0
3 143 144 145
3 146 39 147
3 148 8 149
3 150 149 39
3 148 149 150
3 151 8 152
3 153 24 154
3 155 154 8
3 153 154 155
3 156 24 157
3 158 2 159
3 160 159 24
3 158 159 160
3 161 2 162
3 163 35 164
3 165 164 2
3 163 164 165
3 166 35 167
3 169 168 35
3 170 0 171
3 172 0 173
3 176 175 0
3 174 175 176
3 31 177 179
3 177 18 178
3 177 178 179
3 40 18 31
3 40 9 18
3 20 40 4
3 41 40 20
3 41 9 40
3 41 180 182
3 182 181 9
3 180 181 182
3 42 183 185
3 185 184 41
3 183 184 185
3 42 186 187
3 42 188 189
3 43 190 192
3 192 191 42
3 190 191 192
3 43 193 195
3 193 7 194
3 193 194 195
3 22 43 10
3 44 43 22
3 44 7 43
3 44 38 7
3 45 38 44
3 45 1 38
3 39 17 0
3 46 17 39
3 46 5 17
3 25 46 8
3 47 46 25
3 47 5 46
3 47 34 5
3 48 34 47
3 48 3 34
3 36 26 2
3 49 26 36
3 49 12 26
3 28 49 6
3 50 49 28
3 50 12 49
3 50 48 12
3 51 48 50
3 51 3 48
3 51 23 3
3 52 23 51
3 52 11 23
3 30 52 13
3 53 52 30
3 53 11 52
3 53 45 11
3 54 45 53
3 54 1 45
3 54 196 198
3 198 197 1
3 196 197 198
3 200 199 54
3 202 201 14
