ply
format ascii 1.0
element vertex 171
property float x
property float y
property float z
property uchar red
property uchar green
property uchar blue
element face 159
property list uchar int vertex_index
end_header
16.5817 -71.1569 39.8563 255 76 0
19.346 -69.8856 32.868 249 255 6
8.05856 -68.4953 34.5437 243 255 12
9.25205 -71.8436 39.8799 255 62 0
12.2478 -68.8245 38.0207 255 60 0
6.29151 -70.0014 36.8512 0 214 255
11.2924 -72.9683 42.967 140 0 0
16.5868 -64.3419 32.6443 255 248 0
18.128 -70.0876 36.8504 177 255 78
14.4497 -66.7305 35.1993 255 118 0
10.2482 -65.692 32.554 139 255 116
6.74941 -71.3622 39.5836 0 160 255
7.81581 -71.0462 38.3644 181 255 74
7.12293 -72.5336 40.8193 59 255 196
17.6603 -73.1108 39.1265 0 174 255
17.3096 -70.546 38.4205 185 255 70
10.4777 -68.1151 36.8118 247 0 0
13.4246 -67.6938 36.7493 255 97 0
11.533 -66.727 35.7857 227 0 0
12.5182 -65.5287 34.6166 244 0 0
9.10923 -67.138 33.5668 255 240 0
10.3425 -74.1943 45.6046 0 149 255
14.4033 -71.6507 41.5478 128 0 0
15.3718 -73.071 42.4308 202 255 53
17.0524 -73.2128 40.5626 69 255 186
12.8861 -70.6284 40.5999 139 0 0
14.4187 -69.6437 39.1853 252 0 0
10.8785 -70.187 39.1222 248 0 0
9.2847 -69.627 37.6084 255 64 0
7.04988 -69.5672 35.6243 138 255 117
8.96997 -73.9743 44.1635 152 255 103
7.85999 -73.4144 42.3427 133 255 122
10.2253 -72.3695 41.5133 186 0 0
18.4857 -66.4417 33.2733 255 32 0
19.7452 -67.4342 30.7729 164 255 91
18.9288 -69.8042 34.947 255 232 0
15.4926 -68.7595 37.7603 255 58 0
16.263 -67.99 36.1704 255 27 0
17.2681 -67.0947 34.8224 193 0 0
15.3963 -65.5578 33.9315 255 64 0
13.621 -64.3899 33.2409 162 255 93
12.575 -73.8868 44.0464 162 255 93
6.3724 -70.5787 39.0165 0 0 134
6.37276 -70.2734 39.8299 0 0 134
6.37276 -70.2734 39.8299 0 0 131
6.61605 -70.8609 40.3644 0 0 131
8.90122 -73.9791 45.5065 0 0 142
9.52365 -74.1713 46.3223 0 0 142
19.5756 -72.3196 31.4639 0 0 187
19.5475 -71.7647 32.912 0 0 187
7.21586 -72.5199 42.3746 0 0 157
7.32169 -73.1014 43.0846 0 0 157
6.67755 -72.207 43.1164 0 0 134
18.7539 -71.5947 36.05 0 0 156
18.3314 -71.4129 37.162 0 0 156
18.5284 -69.9459 35.8987 0 0 253
19.1543 -71.453 35.0983 0 0 205
18.7539 -71.5947 36.05 0 0 205
10.7781 -65.1077 31.9237 0 0 195
12.4645 -64.4567 32.2672 0 0 195
11.9346 -65.041 32.8974 0 0 237
15.4018 -73.7244 42.9702 0 0 138
16.1578 -74.0032 42.0503 0 0 138
6.9056 -70.4206 38.4069 0 0 155
7.28261 -71.2042 38.974 0 0 178
6.3724 -70.5787 39.0165 0 0 155
6.14345 -69.8982 37.6503 0 0 159
7.05366 -70.5238 37.6078 0 0 183
6.9056 -70.4206 38.4069 0 0 159
6.80281 -71.4466 40.9823 0 0 133
6.84732 -72.0796 41.6129 0 0 133
6.93617 -71.9479 40.2015 0 0 177
6.80281 -71.4466 40.9823 0 0 154
6.61605 -70.8609 40.3644 0 0 154
17.6698 -64.3183 31.7886 0 0 150
15.6515 -63.7604 32.2819 0 0 150
18.0976 -72.9245 38.3001 0 0 142
18.1955 -74.1847 38.9998 0 0 142
17.9222 -71.6421 37.9471 0 0 176
18.0976 -72.9245 38.3001 0 0 176
17.4849 -71.8284 38.7735 0 0 210
17.7188 -70.3168 37.6354 0 0 208
18.3314 -71.4129 37.162 0 0 175
17.9222 -71.6421 37.9471 0 0 175
11.0555 -74.1581 46.1314 0 0 136
9.52365 -74.1713 46.3223 0 0 136
11.9512 -74.3107 45.3424 0 0 139
11.0555 -74.1581 46.1314 0 0 139
16.998 -74.074 41.1162 0 0 176
16.1578 -74.0032 42.0503 0 0 176
16.2121 -73.1419 41.4967 0 0 209
17.3136 -74.1261 40.5102 0 0 128
16.998 -74.074 41.1162 0 0 128
17.6175 -74.0751 39.7922 0 0 151
17.3136 -74.1261 40.5102 0 0 151
17.3563 -73.1618 39.8446 0 0 172
18.1955 -74.1847 38.9998 0 0 140
17.6175 -74.0751 39.7922 0 0 140
7.87667 -73.3814 43.9949 0 0 137
8.21496 -73.8691 44.786 0 0 137
8.41498 -73.6943 43.2531 0 0 196
7.87667 -73.3814 43.9949 0 0 167
7.32169 -73.1014 43.0846 0 0 167
7.49146 -72.974 41.581 0 0 182
7.21586 -72.5199 42.3746 0 0 158
6.84732 -72.0796 41.6129 0 0 158
19.2081 -68.8073 31.779 0 0 230
19.6382 -70.5292 31.5763 0 0 230
18.9158 -68.1637 33.0706 0 35 255
19.8378 -69.3035 30.5288 0 0 248
19.2081 -68.8073 31.779 0 0 248
19.1155 -66.938 32.0231 0 62 255
19.8592 -69.9322 28.9964 0 0 185
19.8378 -69.3035 30.5288 0 0 185
19.249 -65.8644 30.8529 0 0 232
18.166 -65.8881 31.7086 0 39 255
17.6698 -64.3183 31.7886 0 0 232
20.1944 -68.126 29.3942 0 0 172
19.249 -65.8644 30.8529 0 0 172
19.8592 -69.9322 28.9964 0 0 180
20.1944 -68.126 29.3942 0 0 180
19.3389 -71.724 33.9516 0 0 165
19.1543 -71.453 35.0983 0 0 165
19.1374 -69.8449 33.9075 0 22 255
19.5475 -71.7647 32.912 0 0 221
19.3389 -71.724 33.9516 0 0 221
14.1686 -63.7844 32.5802 0 0 178
15.6515 -63.7604 32.2819 0 0 178
15.1039 -64.3659 32.9426 0 0 211
14.1686 -63.7844 32.5802 0 0 154
12.4645 -64.4567 32.2672 0 0 154
5.69176 -69.0917 37.2669 0 0 132
6.14345 -69.8982 37.6503 0 0 132
5.82215 -69.2527 36.3444 0 0 161
5.69176 -69.0917 37.2669 0 0 161
5.2224 -68.3429 36.7601 0 0 136
6.20134 -69.0355 35.7309 0 0 149
6.6707 -69.7843 36.2378 0 0 169
5.82215 -69.2527 36.3444 0 0 149
6.15892 -69.1885 34.8619 0 0 134
6.20134 -69.0355 35.7309 0 0 134
6.66326 -68.6525 34.3216 0 0 172
7.55422 -69.0312 35.084 0 0 203
6.15892 -69.1885 34.8619 0 0 172
6.94047 -68.7236 33.4935 0 0 144
6.66326 -68.6525 34.3216 0 0 144
7.46581 -68.0449 33.0051 0 0 194
8.5839 -67.8166 34.0552 0 0 236
6.94047 -68.7236 33.4935 0 0 194
8.12068 -67.7046 32.3793 0 0 154
7.46581 -68.0449 33.0051 0 0 154
8.69015 -66.9816 31.8729 0 0 204
9.6787 -66.415 33.0604 0 0 251
8.12068 -67.7046 32.3793 0 0 204
9.34654 -66.4229 31.3554 0 0 155
8.69015 -66.9816 31.8729 0 0 155
10.7781 -65.1077 31.9237 0 0 157
9.34654 -66.4229 31.3554 0 0 157
9.65623 -74.0843 44.8841 0 0 192
8.90122 -73.9791 45.5065 0 0 165
8.21496 -73.8691 44.786 0 0 165
13.0674 -74.157 44.5633 0 0 168
11.9512 -74.3107 45.3424 0 0 168
11.4587 -74.0405 44.8255 0 0 197
14.0033 -74.1323 43.778 0 0 179
13.9734 -73.4789 43.2386 0 0 214
15.4018 -73.7244 42.9702 0 0 179
13.0674 -74.157 44.5633 0 0 136
14.0033 -74.1323 43.778 0 0 136
19.5756 -72.3196 31.4639 0 0 174
19.6382 -70.5292 31.5763 0 0 174
3 43 42 11
3 44 11 45
3 0 15 14
3 2 18 16
3 2 20 18
3 46 21 47
3 0 24 22
3 0 14 24
3 1 48 49
3 3 27 25
3 5 28 12
3 5 29 28
3 50 31 51
3 50 51 52
3 3 32 13
3 3 25 32
3 7 34 33
3 8 53 54
3 8 55 57
3 55 35 56
3 55 56 57
3 4 36 26
3 9 37 17
3 9 38 37
3 9 39 38
3 10 40 19
3 10 58 60
3 60 59 40
3 58 59 60
3 6 41 30
3 62 61 23
3 11 12 3
3 63 12 64
3 65 64 11
3 63 64 65
3 66 5 67
3 68 67 12
3 66 67 68
3 69 13 70
3 11 71 73
3 71 13 72
3 71 72 73
3 11 3 13
3 75 74 7
3 14 76 77
3 15 78 80
3 80 79 14
3 78 79 80
3 15 81 83
3 81 8 82
3 81 82 83
3 16 17 4
3 18 17 16
3 18 9 17
3 18 19 9
3 20 19 18
3 20 10 19
3 21 84 85
3 21 86 87
3 22 23 6
3 24 23 22
3 24 88 90
3 90 89 23
3 88 89 90
3 24 91 92
3 14 93 95
3 95 94 24
3 93 94 95
3 14 96 97
3 25 26 0
3 27 26 25
3 27 4 26
3 12 27 3
3 28 27 12
3 28 4 27
3 28 16 4
3 29 16 28
3 29 2 16
3 98 30 99
3 31 100 102
3 100 30 101
3 100 101 102
3 31 6 30
3 13 103 105
3 103 31 104
3 103 104 105
3 32 31 13
3 32 6 31
3 32 22 6
3 25 22 32
3 25 0 22
3 33 106 108
3 108 107 1
3 106 107 108
3 34 109 111
3 111 110 33
3 109 110 111
3 34 112 113
3 114 34 115
3 116 115 7
3 114 115 116
3 117 34 118
3 120 119 34
3 35 121 122
3 35 123 125
3 123 1 124
3 123 124 125
3 26 15 0
3 36 15 26
3 36 8 15
3 17 36 4
3 37 36 17
3 37 8 36
3 37 35 8
3 38 35 37
3 38 1 35
3 38 33 1
3 39 33 38
3 39 7 33
3 19 39 9
3 40 39 19
3 40 7 39
3 40 126 128
3 128 127 7
3 126 127 128
3 130 129 40
3 131 5 132
3 133 5 134
3 133 134 135
3 136 29 137
3 138 137 5
3 136 137 138
3 139 29 140
3 141 2 142
3 143 142 29
3 141 142 143
3 144 2 145
3 146 20 147
3 148 147 2
3 146 147 148
3 149 20 150
3 151 10 152
3 153 152 20
3 151 152 153
3 154 10 155
3 157 156 10
3 30 158 160
3 158 21 159
3 158 159 160
3 41 21 30
3 41 161 163
3 163 162 21
3 161 162 163
3 23 41 6
3 164 41 165
3 166 165 23
3 164 165 166
3 168 167 41
3 170 169 1
