ply
format ascii 1.0
element vertex 197
property float x
property float y
property float z
property uchar red
property uchar green
property uchar blue
element face 197
property list uchar int vertex_index
end_header
53.2149 -31.1278 1.43907 248 255 7
46.1386 -36.7604 5.09319 255 178 0
45.0396 -36.9458 -2.70819 248 0 0
51.3724 -43.6476 0.496755 217 255 38
44.7826 -40.4118 6.37081 0 178 255
45.3845 -41.5409 2.20746 255 104 0
48.5417 -43.8594 4.09629 1 255 254
49.2592 -28.8494 0.60172 102 255 153
51.0576 -39.4006 -4.62001 171 255 84
47.8289 -35.3672 -6.20904 255 216 0
49.2644 -34.2853 2.99496 255 63 0
45.7252 -32.797 1.2461 255 66 0
44.3379 -37.3319 1.43372 255 126 0
47.7499 -41.2789 -1.76627 207 0 0
44.1697 -31.8457 -2.49121 180 255 75
56.0032 -32.9453 3.65121 69 255 186
51.9021 -35.4823 6.0786 116 255 139
45.8129 -42.6249 4.96969 31 255 224
51.2732 -29.7744 1.49479 250 255 5
47.6262 -35.3017 4.24153 255 145 0
45.9941 -35.2891 2.82502 255 155 0
44.9138 -37.0489 3.36871 255 166 0
48.1195 -42.9472 1.0948 255 11 0
46.3857 -41.6288 0.090033 255 13 0
49.5816 -42.7456 -0.94255 174 0 0
51.2432 -42.1756 -2.58532 225 255 30
53.2492 -43.4437 -1.36558 135 255 120
44.0852 -34.8177 -0.578437 255 42 0
44.5374 -32.2137 -0.346409 255 15 0
44.3148 -34.4285 -2.77231 219 0 0
53.936 -34.1133 4.96607 164 255 91
45.1244 -38.586 5.7393 114 255 141
44.4578 -39.116 3.81989 255 168 0
44.8704 -41.0223 4.3386 255 212 0
46.7958 -42.8582 3.09183 255 117 0
49.9373 -43.7539 2.20912 144 255 111
47.5816 -38.353 -3.85102 128 0 0
46.2045 -36.2041 -4.5229 163 0 0
49.437 -37.2488 -5.27596 255 50 0
51.6543 -36.0567 -6.74675 74 255 181
51.0908 -32.9257 1.93059 228 0 0
49.1161 -31.6898 1.83801 200 0 0
47.3949 -33.5662 2.13695 255 82 0
44.7209 -34.9972 1.30767 255 131 0
44.4016 -37.2778 -0.659769 255 55 0
44.4728 -39.6298 1.6483 255 104 0
45.096 -39.7259 -0.495552 255 25 0
46.1877 -39.2433 -2.4033 214 0 0
49.3704 -40.5126 -3.33316 255 136 0
47.262 -30.7168 1.08513 223 0 0
45.7314 -30.0508 -0.345364 167 255 88
45.1943 -33.8906 -4.87048 212 255 43
54.6626 -32.6567 2.02746 191 255 64
52.6349 -33.6847 3.29996 252 0 0
50.6606 -34.6211 4.69595 255 58 0
48.8466 -35.8563 5.70714 255 134 0
49.9636 -36.9649 6.95568 0 249 255
47.1901 -37.376 6.64069 59 255 196
52.244 -30.4511 1.46693 0 0 241
53.4109 -29.505 1.35011 0 0 195
54.3818 -30.1817 1.32225 0 0 195
50.3017 -28.0463 0.198992 0 0 145
51.351 -28.427 0.735893 0 0 145
48.312 -28.5096 -0.122238 0 0 147
50.3017 -28.0463 0.198992 0 0 147
53.4888 -36.1787 -6.6388 0 0 152
52.396 -36.9216 -6.10055 0 0 152
52.8055 -35.3908 -7.61464 0 0 161
53.4888 -36.1787 -6.6388 0 0 161
52.1322 -41.7358 -3.28137 0 0 148
53.1221 -42.6142 -2.76077 0 0 148
44.4567 -30.6362 -2.37036 0 0 177
45.2376 -29.7388 -1.29744 0 0 177
44.9505 -30.9482 -1.41829 0 0 215
57.1552 -32.459 2.97158 0 0 146
57.781 -32.7376 3.87559 0 0 146
55.3329 -32.801 2.83933 0 0 224
56.4849 -32.3148 2.15971 0 0 184
57.1552 -32.459 2.97158 0 0 184
49.1079 -37.5426 7.62735 0 0 135
50.4863 -37.3701 7.71953 0 0 135
47.7211 -37.7481 7.46986 0 0 170
48.5769 -37.1705 6.79819 0 0 204
49.1079 -37.5426 7.62735 0 0 170
46.5412 -38.1237 7.17934 0 0 132
47.7211 -37.7481 7.46986 0 0 132
45.4188 -42.4374 5.8876 0 0 154
45.2977 -41.5184 5.67025 0 0 181
44.9037 -41.3309 6.58816 0 0 154
46.477 -43.3139 5.29787 0 0 130
45.4188 -42.4374 5.8876 0 0 130
47.8414 -43.9312 4.86117 0 0 158
47.1773 -43.2422 4.53299 0 0 186
46.477 -43.3139 5.29787 0 0 158
52.358 -28.8895 1.18243 0 0 147
53.4109 -29.505 1.35011 0 0 147
50.2662 -29.3119 1.04825 0 0 234
51.351 -28.427 0.735893 0 0 190
52.358 -28.8895 1.18243 0 0 190
52.0977 -38.5936 -5.03718 0 0 157
53.0093 -39.7181 -4.80276 0 0 157
54.1251 -43.2483 -2.15089 0 0 187
53.1221 -42.6142 -2.76077 0 0 187
52.2462 -42.8097 -1.97545 0 0 229
47.1817 -34.2706 -6.47804 0 0 152
48.8803 -34.804 -7.00489 0 0 152
56.5798 -33.4322 4.43206 0 0 146
57.781 -32.7376 3.87559 0 0 146
55.5462 -34.0162 5.08948 0 0 181
54.9696 -33.5293 4.30864 0 0 221
56.5798 -33.4322 4.43206 0 0 181
54.434 -34.7403 5.53726 0 0 139
55.5462 -34.0162 5.08948 0 0 139
53.4171 -35.4248 6.09353 0 0 173
52.9191 -34.7978 5.52233 0 0 208
54.434 -34.7403 5.53726 0 0 173
51.2873 -37.5177 -5.36515 0 0 205
50.2473 -38.3247 -4.94799 0 2 255
52.0977 -38.5936 -5.03718 0 0 205
50.5457 -36.6527 -6.01135 0 2 255
51.2873 -37.5177 -5.36515 0 0 205
52.396 -36.9216 -6.10055 0 0 205
50.793 -35.1487 -7.27374 0 0 207
48.8803 -34.804 -7.00489 0 0 207
49.7416 -35.7119 -6.47789 0 5 255
50.793 -35.1487 -7.27374 0 0 160
52.8055 -35.3908 -7.61464 0 0 160
51.1958 -40.9043 -3.65528 0 0 187
50.3068 -41.3441 -2.95924 0 0 230
52.1322 -41.7358 -3.28137 0 0 187
52.0394 -40.3483 -4.29871 0 0 193
50.214 -39.9566 -3.97659 0 0 238
51.1958 -40.9043 -3.65528 0 0 193
53.0093 -39.7181 -4.80276 0 0 150
52.0394 -40.3483 -4.29871 0 0 150
46.548 -29.1104 -0.59578 0 0 186
48.312 -28.5096 -0.122238 0 0 186
47.4953 -29.4501 0.128178 0 0 228
46.548 -29.1104 -0.59578 0 0 140
45.2376 -29.7388 -1.29744 0 0 140
45.8644 -33.5323 -5.80877 0 0 186
46.5116 -34.6289 -5.53976 0 0 229
47.1817 -34.2706 -6.47804 0 0 186
44.8291 -32.6437 -4.86703 0 0 144
45.8644 -33.5323 -5.80877 0 0 144
44.3168 -31.6213 -3.6774 0 0 187
44.682 -32.8681 -3.68085 0 0 229
44.8291 -32.6437 -4.86703 0 0 187
44.4567 -30.6362 -2.37036 0 0 143
44.3168 -31.6213 -3.6774 0 0 143
55.0833 -31.0604 1.25351 0 0 148
54.3818 -30.1817 1.32225 0 0 148
55.8071 -31.8249 1.54771 0 0 144
56.4849 -32.3148 2.15971 0 0 144
53.9387 -31.8923 1.73326 0 0 235
55.0833 -31.0604 1.25351 0 0 190
55.8071 -31.8249 1.54771 0 0 190
52.3434 -36.1137 6.56643 0 0 135
53.4171 -35.4248 6.09353 0 0 135
51.3741 -36.855 7.00497 0 0 169
51.8968 -37.2602 7.76882 0 0 135
50.4863 -37.3701 7.71953 0 0 169
50.9329 -36.2236 6.51714 0 0 196
52.3434 -36.1137 6.56643 0 0 165
51.3741 -36.855 7.00497 0 0 165
45.5083 -38.7287 6.72865 0 0 164
46.1572 -37.981 6.19 0 0 195
46.5412 -38.1237 7.17934 0 0 164
45.3374 -39.6416 7.0444 0 0 155
44.9535 -39.4989 6.05506 0 0 182
45.5083 -38.7287 6.72865 0 0 155
44.9242 -40.4798 7.40177 0 0 128
45.3374 -39.6416 7.0444 0 0 128
44.9037 -41.3309 6.58816 0 0 128
44.9242 -40.4798 7.40177 0 0 128
49.1408 -44.6756 4.74128 0 0 136
47.8414 -43.9312 4.86117 0 0 136
49.925 -44.5036 4.11712 0 0 168
49.1408 -44.6756 4.74128 0 0 168
50.5242 -45.3197 4.76211 0 0 135
50.6228 -44.4508 3.17354 0 0 186
49.2395 -43.8066 3.15271 0 0 227
49.925 -44.5036 4.11712 0 0 186
51.4291 -44.156 2.53061 0 0 141
50.6228 -44.4508 3.17354 0 0 141
52.1466 -44.1029 1.67443 0 0 188
50.6548 -43.7008 1.35294 0 0 231
51.4291 -44.156 2.53061 0 0 188
53.0158 -44.0203 0.873379 0 0 149
52.1466 -44.1029 1.67443 0 0 149
53.9542 -43.9183 -0.05779 0 0 209
52.3108 -43.5457 -0.434414 0 8 255
53.0158 -44.0203 0.873379 0 0 209
54.7825 -43.9627 -0.946087 0 0 151
53.9542 -43.9183 -0.05779 0 0 151
54.1251 -43.2483 -2.15089 0 0 150
54.7825 -43.9627 -0.946087 0 0 150
3 0 58 60
3 58 18 59
3 58 59 60
3 1 21 19
3 3 24 22
3 3 26 24
3 2 29 27
3 4 33 31
3 6 34 17
3 6 35 34
3 7 61 62
3 7 63 64
3 8 38 36
3 65 39 66
3 68 67 39
3 10 42 40
3 12 43 20
3 12 44 43
3 5 45 32
3 13 46 23
3 13 47 46
3 13 48 47
3 70 69 25
3 11 49 41
3 14 50 28
3 14 71 73
3 73 72 50
3 71 72 73
3 9 51 37
3 15 74 75
3 15 76 78
3 76 52 77
3 76 77 78
3 15 53 52
3 16 54 30
3 16 55 54
3 79 56 80
3 81 57 82
3 83 82 56
3 81 82 83
3 85 84 57
3 86 17 87
3 88 87 4
3 86 87 88
3 89 17 90
3 91 6 92
3 93 92 17
3 91 92 93
3 18 94 95
3 18 96 98
3 96 7 97
3 96 97 98
3 100 99 8
3 19 20 10
3 21 20 19
3 21 12 20
3 22 23 5
3 24 23 22
3 24 13 23
3 24 25 13
3 26 25 24
3 26 101 103
3 103 102 25
3 101 102 103
3 27 28 11
3 29 28 27
3 29 14 28
3 105 104 9
3 106 15 107
3 108 30 109
3 110 109 15
3 108 109 110
3 111 30 112
3 113 16 114
3 115 114 30
3 113 114 115
3 31 32 1
3 33 32 31
3 33 5 32
3 17 33 4
3 34 33 17
3 34 5 33
3 34 22 5
3 35 22 34
3 35 3 22
3 36 37 2
3 38 37 36
3 38 9 37
3 116 38 117
3 118 117 8
3 116 117 118
3 39 119 121
3 119 38 120
3 119 120 121
3 39 9 38
3 39 122 124
3 124 123 9
3 122 123 124
3 126 125 39
3 40 41 0
3 42 41 40
3 42 11 41
3 20 42 10
3 43 42 20
3 43 11 42
3 43 27 11
3 44 27 43
3 44 2 27
3 32 21 1
3 45 21 32
3 45 12 21
3 23 45 5
3 46 45 23
3 46 12 45
3 46 44 12
3 47 44 46
3 47 2 44
3 47 36 2
3 48 36 47
3 48 8 36
3 25 48 13
3 127 48 128
3 129 128 25
3 127 128 129
3 130 8 131
3 132 131 48
3 130 131 132
3 134 133 8
3 41 18 0
3 49 18 41
3 49 7 18
3 28 49 11
3 50 49 28
3 50 7 49
3 50 135 137
3 137 136 7
3 135 136 137
3 139 138 50
3 37 29 2
3 51 29 37
3 51 14 29
3 140 51 141
3 142 141 9
3 140 141 142
3 143 51 144
3 145 14 146
3 147 146 51
3 145 146 147
3 149 148 14
3 150 0 151
3 52 152 153
3 52 154 156
3 154 0 155
3 154 155 156
3 52 40 0
3 53 40 52
3 53 10 40
3 30 53 15
3 54 53 30
3 54 10 53
3 54 19 10
3 55 19 54
3 55 1 19
3 157 16 158
3 56 159 161
3 159 160 161
3 56 162 164
3 162 16 163
3 162 163 164
3 56 55 16
3 57 55 56
3 57 1 55
3 57 31 1
3 165 31 166
3 167 166 57
3 165 166 167
3 168 4 169
3 170 169 31
3 168 169 170
3 171 4 172
3 174 173 4
3 175 6 176
3 177 6 178
3 177 178 179
3 180 35 181
3 182 181 6
3 180 181 182
3 183 35 184
3 185 3 186
3 187 186 35
3 185 186 187
3 188 3 189
3 190 26 191
3 192 191 3
3 190 191 192
3 193 26 194
3 196 195 26
