ply
format ascii 1.0
element vertex 190
property float x
property float y
property float z
property uchar red
property uchar green
property uchar blue
element face 191
property list uchar int vertex_index
end_header
57.7306 -31.4546 45.1149 0 239 255
52.6868 -31.7346 32.527 255 94 0
60.7209 -27.0169 36.642 186 255 69
59.4846 -35.1588 36.7136 255 201 0
59.9217 -28.3485 41.7346 139 255 116
58.7455 -30.6775 38.5357 255 216 0
59.0365 -32.982 40.8382 241 255 14
52.6471 -36.5296 32.5497 255 56 0
57.4562 -29.2978 34.4309 255 109 0
55.0762 -33.7933 35.787 255 97 0
57.828 -37.3229 32.7391 128 0 0
59.8732 -37.4082 37.0795 0 211 255
62.4469 -38.035 32.7136 0 213 255
58.7785 -27.8955 42.8303 0 110 255
59.0333 -29.8257 43.5402 60 255 195
59.695 -30.6378 41.6844 199 255 56
58.5533 -31.9266 42.9732 255 107 0
52.0753 -30.7434 30.1609 0 244 255
50.7358 -32.6309 31.6351 90 255 165
50.5406 -35.0431 31.9601 93 255 162
51.955 -34.1489 33.42 255 133 0
60.1683 -25.9181 38.3485 0 184 255
60.6432 -25.8522 35.4723 0 100 255
60.8722 -27.0094 33.9765 0 211 255
59.187 -28.1027 32.949 61 255 194
59.5694 -28.0999 35.387 255 160 0
58.1002 -33.1515 38.1081 255 212 0
56.8286 -32.0749 36.988 255 143 0
57.1411 -34.7948 36.4739 255 85 0
55.9245 -36.2095 34.8139 255 41 0
58.7652 -36.4118 34.7771 243 0 0
62.6492 -37.8187 30.4993 0 163 255
54.1788 -30.244 31.1559 88 255 167
59.66 -26.7139 40.7773 0 157 255
60.4205 -27.4605 39.4925 165 255 90
59.7941 -28.6316 38.008 255 208 0
59.99 -29.5058 40.1094 195 255 60
59.3724 -31.773 39.8738 179 255 76
59.4113 -34.1489 38.8823 161 255 94
51.633 -37.3441 30.5942 51 255 204
54.3603 -38.0819 30.4083 201 255 54
56.7535 -29.2594 32.3467 78 255 177
55.1099 -30.5842 33.2873 255 89 0
57.8651 -29.7568 36.6837 255 117 0
55.893 -31.1047 35.4534 255 94 0
53.6976 -32.6732 34.4336 255 87 0
53.7094 -35.338 34.3947 255 118 0
55.0571 -37.2414 32.853 255 1 0
56.9763 -38.0802 30.503 255 221 0
57.0074 -34.0902 44.1978 89 255 166
57.5448 -34.4813 41.4443 164 255 91
59.0655 -35.4754 39.2108 82 255 173
60.7524 -36.0046 37.2127 188 255 67
61.6944 -37.9817 34.9922 0 239 255
61.3578 -36.5005 34.9107 255 236 0
61.0233 -37.0672 32.5308 255 86 0
60.5563 -37.6162 30.3131 240 255 15
58.382 -30.6401 44.3275 0 0 182
58.3197 -29.614 44.1254 0 0 158
57.6683 -30.4285 44.9127 0 0 158
54.9113 -29.4775 30.7123 0 0 139
53.8458 -29.712 30.2083 0 0 139
56.7774 -35.1353 43.3642 0 0 194
56.4863 -35.1747 44.8456 0 0 194
56.2563 -36.2197 44.012 0 0 152
57.0461 -35.3308 41.9874 0 0 180
57.2761 -34.2858 42.821 0 0 214
56.7774 -35.1353 43.3642 0 0 180
59.4694 -36.4418 38.1452 0 0 205
58.3784 -36.0153 39.2662 0 0 173
58.7822 -36.9817 38.2005 0 0 173
62.0706 -38.0084 33.8529 0 0 189
61.6573 -38.8226 33.8827 0 0 163
62.0336 -38.8492 32.7434 0 0 163
61.5507 -37.659 29.0081 0 0 182
61.6028 -37.7175 30.4062 0 0 217
62.5971 -37.7602 29.1011 0 0 182
60.3079 -37.8556 29.0045 0 0 151
61.5507 -37.659 29.0081 0 0 151
58.1923 -28.6489 43.7704 0 0 135
57.8001 -28.076 43.0752 0 0 135
58.9059 -28.8606 43.1852 0 0 182
58.1923 -28.6489 43.7704 0 0 158
58.3197 -29.614 44.1254 0 0 158
51.0683 -30.9212 29.8225 0 0 139
51.7243 -30.0556 29.2411 0 0 139
50.3985 -31.865 30.5596 0 0 176
51.0683 -30.9212 29.8225 0 0 176
51.4055 -31.6872 30.898 0 0 209
49.9213 -32.9992 31.0752 0 0 142
50.3985 -31.865 30.5596 0 0 142
50.6382 -33.837 31.7976 0 0 199
49.8237 -34.2053 31.2377 0 0 169
49.9213 -32.9992 31.0752 0 0 169
59.6682 -25.5997 37.5782 0 0 131
59.4016 -25.8311 38.7913 0 0 131
59.9057 -25.5668 36.1401 0 0 159
59.6682 -25.5997 37.5782 0 0 159
60.4057 -25.8852 36.9104 0 0 184
60.115 -25.5616 34.8108 0 0 133
59.9057 -25.5668 36.1401 0 0 133
60.7178 -25.863 34.168 0 0 131
60.115 -25.5616 34.8108 0 0 131
60.8323 -26.4416 33.4201 0 0 147
60.7178 -25.863 34.168 0 0 147
60.7577 -26.4308 34.7244 0 0 165
60.6015 -27.0427 32.8088 0 0 128
60.8323 -26.4416 33.4201 0 0 128
60.0296 -27.556 33.4628 0 0 187
59.7589 -27.5893 32.2951 0 0 162
60.6015 -27.0427 32.8088 0 0 162
59.242 -38.1378 37.1607 0 0 147
58.7822 -36.9817 38.2005 0 0 147
62.4366 -38.6109 31.5767 0 0 137
62.0336 -38.8492 32.7434 0 0 137
62.5378 -38.5028 30.4695 0 0 148
62.548 -37.9269 31.6064 0 0 167
62.4366 -38.6109 31.5767 0 0 148
62.7468 -38.2773 28.989 0 0 136
62.5378 -38.5028 30.4695 0 0 136
62.5971 -37.7602 29.1011 0 0 129
62.7468 -38.2773 28.989 0 0 129
52.794 -29.9618 29.7108 0 0 139
51.7243 -30.0556 29.2411 0 0 139
53.127 -30.4937 30.6584 0 0 195
52.794 -29.9618 29.7108 0 0 167
53.8458 -29.712 30.2083 0 0 167
58.3246 -27.384 42.0896 0 0 135
57.8001 -28.076 43.0752 0 0 135
58.7654 -26.7932 41.0631 0 0 156
58.3246 -27.384 42.0896 0 0 156
59.2192 -27.3047 41.8038 0 0 179
59.1475 -26.229 40.0057 0 0 134
58.7654 -26.7932 41.0631 0 0 134
59.9141 -26.316 39.5629 0 0 178
59.4016 -25.8311 38.7913 0 0 155
59.1475 -26.229 40.0057 0 0 155
56.9893 -31.3617 45.5274 0 0 132
57.6683 -30.4285 44.9127 0 0 132
49.9073 -35.4424 31.0979 0 0 142
49.8237 -34.2053 31.2377 0 0 142
50.4535 -36.5929 30.415 0 0 183
49.9073 -35.4424 31.0979 0 0 183
51.0868 -36.1936 31.2771 0 0 219
51.1576 -37.5451 29.6019 0 0 146
50.4535 -36.5929 30.415 0 0 146
52.6556 -37.9062 29.4095 0 0 151
51.1576 -37.5451 29.6019 0 0 151
54.0192 -38.2751 29.3166 0 0 189
52.6556 -37.9062 29.4095 0 0 189
52.9967 -37.713 30.5012 0 0 228
55.5268 -38.3367 29.1674 0 0 152
54.0192 -38.2751 29.3166 0 0 152
58.685 -28.0785 31.9516 0 0 136
59.7589 -27.5893 32.2951 0 0 136
57.4682 -28.6569 31.6504 0 0 171
58.685 -28.0785 31.9516 0 0 171
57.9702 -28.681 32.6479 0 0 202
56.1987 -28.9852 31.3077 0 0 142
57.4682 -28.6569 31.6504 0 0 142
55.4661 -29.7517 31.7513 0 0 210
54.9113 -29.4775 30.7123 0 0 177
56.1987 -28.9852 31.3077 0 0 177
56.8348 -38.3358 29.2148 0 0 194
55.5268 -38.3367 29.1674 0 0 194
55.6683 -38.081 30.4557 0 0 235
56.9058 -32.6269 45.7777 0 0 137
56.9893 -31.3617 45.5274 0 0 137
56.5442 -33.9447 45.3191 0 0 146
56.4863 -35.1747 44.8456 0 0 146
57.369 -32.7724 44.6563 0 0 233
56.9058 -32.6269 45.7777 0 0 192
56.5442 -33.9447 45.3191 0 0 192
57.618 -35.5183 40.3829 0 0 150
57.0461 -35.3308 41.9874 0 0 150
58.3052 -34.9783 40.3276 0 0 199
57.618 -35.5183 40.3829 0 0 170
58.3784 -36.0153 39.2662 0 0 170
60.0998 -38.4918 36.087 0 0 143
59.242 -38.1378 37.1607 0 0 143
61.0104 -38.7786 35.0434 0 0 142
61.6573 -38.8226 33.8827 0 0 142
60.7838 -37.695 36.0359 0 0 214
60.0998 -38.4918 36.087 0 0 179
61.0104 -38.7786 35.0434 0 0 179
58.5179 -38.0876 29.0994 0 0 228
58.7663 -37.8482 30.4081 0 32 255
60.3079 -37.8556 29.0045 0 0 228
56.8348 -38.3358 29.2148 0 0 165
58.5179 -38.0876 29.0994 0 0 165
3 0 57 59
3 57 14 58
3 57 58 59
3 0 16 14
3 1 18 17
3 1 20 18
3 2 22 21
3 2 23 22
3 2 25 23
3 3 28 26
3 3 30 28
3 60 32 61
3 4 33 13
3 4 34 33
3 4 36 34
3 6 37 15
3 6 38 37
3 7 39 19
3 7 40 39
3 8 41 24
3 8 42 41
3 5 43 35
3 9 44 27
3 9 45 44
3 9 46 45
3 10 47 29
3 10 48 47
3 62 49 63
3 62 63 64
3 65 50 66
3 67 66 49
3 65 66 67
3 11 68 70
3 68 51 69
3 68 69 70
3 11 52 51
3 12 71 73
3 71 53 72
3 71 72 73
3 12 54 53
3 12 55 54
3 74 56 75
3 76 75 31
3 74 75 76
3 78 77 56
3 79 13 80
3 14 81 83
3 81 13 82
3 81 82 83
3 14 4 13
3 14 15 4
3 16 15 14
3 16 6 15
3 17 84 85
3 18 86 88
3 88 87 17
3 86 87 88
3 18 89 90
3 18 91 93
3 91 19 92
3 91 92 93
3 20 19 18
3 20 7 19
3 21 94 95
3 22 96 98
3 98 97 21
3 96 97 98
3 22 99 100
3 22 101 102
3 23 103 105
3 105 104 22
3 103 104 105
3 23 106 107
3 23 108 110
3 108 24 109
3 108 109 110
3 25 24 23
3 25 8 24
3 26 27 5
3 28 27 26
3 28 9 27
3 28 29 9
3 30 29 28
3 30 10 29
3 111 11 112
3 113 12 114
3 115 31 116
3 117 116 12
3 115 116 117
3 118 31 119
3 121 120 31
3 122 17 123
3 32 124 126
3 124 17 125
3 124 125 126
3 32 1 17
3 13 127 128
3 33 129 131
3 131 130 13
3 129 130 131
3 33 132 133
3 33 134 136
3 134 21 135
3 134 135 136
3 34 21 33
3 34 2 21
3 34 35 2
3 36 35 34
3 36 5 35
3 15 36 4
3 37 36 15
3 37 5 36
3 37 26 5
3 38 26 37
3 38 3 26
3 137 0 138
3 19 139 140
3 39 141 143
3 143 142 19
3 141 142 143
3 39 144 145
3 39 146 147
3 40 148 150
3 150 149 39
3 148 149 150
3 40 151 152
3 24 153 154
3 41 155 157
3 157 156 24
3 155 156 157
3 41 158 159
3 41 160 162
3 160 32 161
3 160 161 162
3 42 32 41
3 42 1 32
3 35 25 2
3 43 25 35
3 43 8 25
3 27 43 5
3 44 43 27
3 44 8 43
3 44 42 8
3 45 42 44
3 45 1 42
3 45 20 1
3 46 20 45
3 46 7 20
3 29 46 9
3 47 46 29
3 47 7 46
3 47 40 7
3 48 40 47
3 48 163 165
3 165 164 40
3 163 164 165
3 166 0 167
3 49 168 169
3 49 170 172
3 170 0 171
3 170 171 172
3 49 16 0
3 50 16 49
3 50 6 16
3 173 50 174
3 51 175 177
3 175 50 176
3 175 176 177
3 51 6 50
3 51 38 6
3 52 38 51
3 52 3 38
3 178 11 179
3 53 180 181
3 53 182 184
3 182 11 183
3 182 183 184
3 53 52 11
3 54 52 53
3 54 3 52
3 54 30 3
3 55 30 54
3 55 10 30
3 31 55 12
3 56 55 31
3 56 10 55
3 56 48 10
3 185 48 186
3 187 186 56
3 185 186 187
3 189 188 48
