ply
format ascii 1.0
element vertex 296
property float x
property float y
property float z
property uchar red
property uchar green
property uchar blue
element face 309
property list uchar int vertex_index
end_header
4.24177 -73.5077 20.1854 196 255 59
6.22992 -82.7753 22.123 120 255 135
9.57387 -79.3662 28.5813 13 255 242
3.98367 -84.9495 9.13007 219 255 36
13.4187 -65.21 14.8584 102 255 153
6.54365 -81.8728 33.779 175 255 80
13.4739 -81.2622 32.4335 126 255 129
9.5908 -89.8481 13.4552 0 194 255
3.82477 -78.8305 22.3226 236 255 19
7.36219 -83.8001 16.2652 255 25 0
5.94653 -78.5754 16.0836 255 90 0
5.51722 -80.0973 10.0891 106 255 149
3.05018 -73.5191 14.4761 255 212 0
8.0482 -86.5854 21.0931 229 255 26
5.66286 -84.7536 28.7447 255 194 0
4.74312 -79.5284 28.1792 104 255 151
6.71075 -75.805 25.3974 255 235 0
5.49669 -88.6617 15.5129 124 255 131
4.35115 -90.0963 9.57427 255 228 0
7.66258 -91.4637 5.95575 0 237 255
11.1963 -72.8737 21.2842 38 255 217
6.01729 -68.432 16.3462 128 0 0
6.24959 -67.2902 12.2392 136 255 119
12.5395 -82.6517 35.0353 96 255 159
16.5268 -81.614 34.3807 0 185 255
10.7966 -88.4554 16.8627 0 185 255
3.94924 -75.9784 21.5415 222 255 33
5.09974 -78.5746 19.3026 255 228 0
4.79211 -75.8452 18.4798 255 198 0
3.71526 -76.3035 15.4308 255 135 0
3.14886 -73.0896 17.5159 255 197 0
6.69199 -86.8599 28.2428 22 255 233
6.0816 -85.3501 32.3325 8 255 247
7.85922 -80.365 31.3041 246 255 9
5.19884 -80.4433 31.1048 157 255 98
6.61132 -78.749 29.2948 122 255 133
5.3388 -77.5621 27.3567 97 255 158
8.06936 -77.7435 27.0791 52 255 203
6.70083 -84.7607 21.3796 160 255 95
6.63703 -87.5281 18.3406 157 255 98
5.39984 -85.7062 19.2838 135 255 120
6.05312 -84.4223 11.6866 255 37 0
5.98695 -87.1106 12.0294 255 128 0
4.13439 -87.4032 9.15031 231 255 24
4.91572 -91.1381 6.80655 226 255 29
4.98511 -88.2491 6.83633 194 255 61
8.01302 -89.2802 6.53732 0 175 255
5.87998 -85.6045 7.64202 111 255 144
6.57537 -78.4911 11.5145 0 221 255
11.7191 -69.0258 17.6954 211 255 44
9.69374 -66.4944 15.3887 255 106 0
5.31644 -67.0171 14.0144 255 163 0
9.27052 -65.2442 12.6427 255 75 0
6.74774 -83.7966 35.2499 0 181 255
9.17872 -83.0499 35.9535 0 235 255
9.55073 -81.8429 33.4299 255 178 0
11.0382 -80.859 30.5263 75 255 180
5.14078 -80.8174 22.5273 161 255 94
5.99145 -83.4163 19.5766 235 255 20
5.39241 -80.8741 19.4158 255 239 0
6.9386 -81.0254 16.163 255 60 0
4.83233 -81.8141 12.4992 255 91 0
4.28419 -82.1775 9.29928 255 224 0
3.80389 -79.3668 12.716 255 188 0
3.38017 -77.0522 12.324 239 255 16
4.44753 -74.8302 12.6875 112 255 143
13.1569 -64.1702 11.672 29 255 226
9.34154 -88.3653 20.9384 0 253 255
8.13358 -87.8054 24.557 6 255 249
6.85076 -85.8105 24.7633 255 224 0
6.66734 -83.3807 25.4128 255 201 0
5.15742 -83.0429 32.0847 210 255 45
5.35796 -82.0292 28.7725 255 240 0
5.49543 -80.8567 25.4324 221 255 34
4.16277 -78.7803 25.4626 145 255 110
4.23254 -76.2653 24.6105 191 255 64
5.42934 -74.3546 22.6351 221 255 34
8.71571 -87.9175 17.2495 246 255 9
7.23953 -89.45 14.8223 34 255 221
5.70117 -91.1728 12.9884 0 142 255
5.92985 -86.3947 15.7021 255 204 0
5.27704 -89.3508 12.6913 169 255 86
4.88227 -92.5851 10.6782 0 243 255
5.35712 -93.7134 7.64893 23 255 232
7.95671 -94.1151 6.11374 0 180 255
7.61709 -83.4732 8.96388 0 246 255
9.92193 -76.8957 24.332 0 231 255
8.84561 -74.4646 22.8814 179 255 76
7.06362 -72.8708 20.6673 255 129 0
8.82688 -70.9343 18.7587 255 97 0
4.46654 -70.9379 18.6368 255 98 0
3.11597 -69.8226 15.8174 255 183 0
3.68593 -70.1352 13.5397 255 213 0
5.82497 -71.7987 13.5276 35 255 220
10.0944 -65.7086 10.4325 0 250 255
17.994 -81.4665 35.7702 0 0 147
16.3445 -82.4716 35.4776 0 0 147
10.7639 -89.1427 18.6335 0 0 140
11.493 -89.2626 16.759 0 0 140
7.19135 -85.2003 33.8326 0 0 136
6.9318 -85.7768 32.1343 0 0 136
8.50336 -79.4057 11.8342 0 0 150
7.02153 -77.6199 12.3913 0 0 150
14.2766 -66.3613 15.9798 0 0 157
15.8303 -66.1858 15.0516 0 0 157
11.5562 -65.8522 15.1235 0 0 254
12.4141 -67.0035 16.2449 0 0 207
14.2766 -66.3613 15.9798 0 0 207
10.9305 -83.6559 36.5223 0 0 132
9.60572 -83.8819 36.5219 0 0 132
9.70235 -91.5308 13.3307 0 0 165
10.8922 -91.9265 13.2105 0 0 139
10.7807 -90.2438 13.3351 0 0 165
8.618 -91.1741 13.3269 0 0 137
9.70235 -91.5308 13.3307 0 0 137
8.36517 -87.8466 26.364 0 0 138
8.96395 -88.4221 24.5469 0 0 138
9.54898 -92.119 6.09253 0 0 176
9.69604 -93.4447 6.17152 0 0 176
7.80965 -92.7894 6.03474 0 0 208
9.32771 -91.205 6.20161 0 0 155
11.2141 -91.8604 6.33839 0 0 134
9.54898 -92.119 6.09253 0 0 155
9.49662 -89.3421 6.82301 0 0 141
8.4091 -88.1585 7.4041 0 0 141
11.709 -77.4585 23.6498 0 0 144
10.6769 -77.7801 25.018 0 0 144
10.0209 -73.6692 22.0828 0 0 201
10.427 -75.0545 22.3414 0 0 172
11.6023 -74.2591 21.5429 0 0 172
11.8807 -65.3279 9.67427 0 0 180
11.6257 -64.9394 11.0523 0 0 213
13.4119 -64.5586 10.294 0 0 180
14.3508 -82.9904 35.8049 0 0 144
12.6109 -83.4567 36.0632 0 0 144
14.5332 -82.1329 34.708 0 0 219
14.3508 -82.9904 35.8049 0 0 184
16.3445 -82.4716 35.4776 0 0 184
11.3836 -89.5474 15.0388 0 0 137
11.493 -89.2626 16.759 0 0 137
10.1937 -89.1517 15.159 0 0 209
10.7807 -90.2438 13.3351 0 0 177
11.3836 -89.5474 15.0388 0 0 177
7.23699 -86.5317 30.0895 0 0 141
7.64437 -87.3738 28.2069 0 0 141
6.38679 -86.105 30.2876 0 0 188
7.23699 -86.5317 30.0895 0 0 163
6.9318 -85.7768 32.1343 0 0 163
7.34258 -86.3207 7.95645 0 0 177
8.4091 -88.1585 7.4041 0 0 177
6.9465 -87.4424 7.08967 0 0 209
7.88005 -80.1522 11.0496 0 0 176
7.35097 -80.9553 10.3369 0 0 176
6.04629 -79.2942 10.8018 0 0 207
7.88005 -80.1522 11.0496 0 0 147
8.50336 -79.4057 11.8342 0 0 147
12.9096 -73.6128 20.56 0 0 146
11.6023 -74.2591 21.5429 0 0 146
13.4268 -68.2692 17.3983 0 0 154
14.0697 -69.7535 17.6289 0 0 154
10.7064 -67.7601 16.542 0 5 255
13.4268 -68.2692 17.3983 0 0 211
12.4141 -67.0035 16.2449 0 0 211
8.39023 -84.2553 36.1701 0 0 128
7.52443 -84.4235 35.2913 0 0 128
7.96323 -83.4233 35.6017 0 0 168
8.39023 -84.2553 36.1701 0 0 150
9.60572 -83.8819 36.5219 0 0 150
10.8591 -82.8508 35.4944 0 0 201
10.9305 -83.6559 36.5223 0 0 172
12.6109 -83.4567 36.0632 0 0 172
5.95761 -75.7895 12.9778 0 0 176
7.02153 -77.6199 12.3913 0 0 176
5.51145 -76.6607 12.101 0 0 207
15.2299 -65.0579 14.4436 0 0 147
15.8303 -66.1858 15.0516 0 0 147
15.099 -64.538 12.8504 0 0 194
13.2878 -64.6901 13.2652 0 0 235
15.2299 -65.0579 14.4436 0 0 194
14.7583 -64.3151 11.4309 0 0 145
15.099 -64.538 12.8504 0 0 145
15.0133 -64.7036 10.0529 0 0 142
13.4119 -64.5586 10.294 0 0 172
14.7583 -64.3151 11.4309 0 0 172
9.56793 -88.7021 22.7376 0 0 138
10.0364 -89.0977 20.6713 0 0 138
8.73756 -88.0854 22.7477 0 0 187
9.56793 -88.7021 22.7376 0 0 162
8.96395 -88.4221 24.5469 0 0 162
7.41278 -87.3326 26.3999 0 0 190
8.36517 -87.8466 26.364 0 0 165
7.64437 -87.3738 28.2069 0 0 165
6.41467 -84.5734 33.7912 0 0 179
7.19135 -85.2003 33.8326 0 0 157
7.52443 -84.4235 35.2913 0 0 157
10.069 -88.4104 18.9005 0 0 191
10.7639 -89.1427 18.6335 0 0 165
10.0364 -89.0977 20.6713 0 0 165
7.44236 -90.975 14.0104 0 0 169
8.618 -91.1741 13.3269 0 0 169
8.41517 -89.649 14.1387 0 0 197
6.67318 -91.8364 13.0935 0 0 158
7.44236 -90.975 14.0104 0 0 158
6.47035 -90.3114 13.9053 0 0 181
5.84628 -92.7405 12.8267 0 0 132
6.67318 -91.8364 13.0935 0 0 132
5.43684 -93.4467 11.6716 0 0 162
5.84628 -92.7405 12.8267 0 0 162
5.29172 -91.879 11.8333 0 0 187
5.72339 -94.0108 10.2877 0 0 140
5.43684 -93.4467 11.6716 0 0 140
5.96081 -94.575 8.77307 0 0 173
5.72339 -94.0108 10.2877 0 0 173
5.1197 -93.1493 9.16357 0 0 203
6.92186 -94.8468 7.63666 0 0 143
5.96081 -94.575 8.77307 0 0 143
8.22166 -95.0477 6.86906 0 0 162
6.92186 -94.8468 7.63666 0 0 162
6.65692 -93.9142 6.88133 0 0 187
9.93903 -94.5395 6.60386 0 0 142
8.22166 -95.0477 6.86906 0 0 142
9.93903 -94.5395 6.60386 0 0 142
9.69604 -93.4447 6.17152 0 0 142
9.50293 -90.1133 6.49239 0 0 161
9.32771 -91.205 6.20161 0 0 161
7.8378 -90.3719 6.24654 0 0 185
9.50293 -90.1133 6.49239 0 0 130
9.49662 -89.3421 6.82301 0 0 130
8.21113 -85.255 8.61738 0 0 177
7.34258 -86.3207 7.95645 0 0 177
6.74854 -84.5389 8.30295 0 0 209
8.40091 -82.6432 9.77427 0 0 184
6.56715 -81.7853 9.5265 0 0 219
7.35097 -80.9553 10.3369 0 0 184
9.13697 -84.1157 9.41058 0 0 142
8.40091 -82.6432 9.77427 0 0 142
8.21113 -85.255 8.61738 0 0 148
9.13697 -84.1157 9.41058 0 0 148
18.4054 -80.4182 34.8213 0 0 190
17.994 -81.4665 35.7702 0 0 190
19.8725 -80.2707 36.2108 0 0 152
17.217 -80.6867 33.3264 0 0 152
18.4054 -80.4182 34.8213 0 0 152
15.6905 -80.5107 32.3528 0 0 188
15.0003 -81.4381 33.4071 0 0 225
17.217 -80.6867 33.3264 0 0 188
14.4701 -80.5829 31.2715 0 0 149
15.6905 -80.5107 32.3528 0 0 149
13.2522 -80.3813 30.3179 0 0 182
12.256 -81.0606 31.4799 0 0 216
14.4701 -80.5829 31.2715 0 0 182
12.1774 -80.4392 29.1924 0 0 150
13.2522 -80.3813 30.3179 0 0 150
11.4452 -79.6927 28.2199 0 0 178
10.306 -80.1126 29.5538 0 0 210
12.1774 -80.4392 29.1924 0 0 178
10.5029 -79.0153 27.1427 0 0 147
11.4452 -79.6927 28.2199 0 0 147
9.75064 -78.2039 26.3916 0 0 172
8.82162 -78.5548 27.8302 0 0 201
10.5029 -79.0153 27.1427 0 0 172
8.99564 -77.3196 25.7056 0 0 201
9.75064 -78.2039 26.3916 0 0 171
10.6769 -77.7801 25.018 0 0 171
10.9652 -76.2701 23.0668 0 0 147
11.709 -77.4585 23.6498 0 0 147
9.38377 -75.6802 23.6067 0 0 208
10.9652 -76.2701 23.0668 0 0 176
10.427 -75.0545 22.3414 0 0 176
12.471 -72.1041 20.474 0 0 147
12.9096 -73.6128 20.56 0 0 147
12.7324 -70.1801 18.6796 0 0 155
14.0697 -69.7535 17.6289 0 0 155
11.2863 -71.1344 19.2113 0 0 200
12.7324 -70.1801 18.6796 0 0 200
10.273 -69.9801 18.2271 0 0 243
10.0116 -71.904 20.0215 0 0 245
12.471 -72.1041 20.474 0 0 201
11.2863 -71.1344 19.2113 0 0 201
6.64633 -74.2737 13.3979 0 0 194
5.95761 -75.7895 12.9778 0 0 194
5.13625 -73.3145 13.1076 0 0 235
11.0147 -66.8372 11.1155 0 0 154
11.8807 -65.3279 9.67427 0 0 154
9.31273 -67.5652 11.8291 0 0 155
11.0147 -66.8372 11.1155 0 0 155
7.39031 -68.356 12.7325 0 0 207
8.17201 -66.4994 11.3358 0 0 255
9.31273 -67.5652 11.8291 0 0 207
7.178 -70.6102 13.3767 0 0 191
6.03728 -69.5444 12.8834 0 0 229
7.39031 -68.356 12.7325 0 0 191
7.32031 -73.0395 14.1758 0 0 161
7.178 -70.6102 13.3767 0 0 161
6.64633 -74.2737 13.3979 0 0 156
7.32031 -73.0395 14.1758 0 0 156
3 95 24 96
3 97 25 98
3 0 28 26
3 0 30 28
3 99 32 100
3 2 35 33
3 2 37 35
3 1 40 38
3 3 43 41
3 3 45 43
3 3 47 45
3 102 101 48
3 4 103 104
3 4 105 107
3 105 50 106
3 105 106 107
3 4 52 50
3 108 54 109
3 6 55 23
3 6 56 55
3 7 110 112
3 110 111 112
3 7 113 114
3 8 59 57
3 10 60 27
3 10 61 60
3 10 63 61
3 12 64 29
3 12 65 64
3 115 68 116
3 14 69 31
3 14 70 69
3 5 71 53
3 15 72 34
3 15 73 72
3 15 74 73
3 16 75 36
3 16 76 75
3 13 77 67
3 17 78 39
3 17 79 78
3 9 80 58
3 18 81 42
3 18 82 81
3 18 83 82
3 19 84 44
3 19 117 119
3 119 118 84
3 117 118 119
3 19 120 122
3 120 121 122
3 124 123 46
3 11 85 62
3 125 86 126
3 20 127 129
3 127 87 128
3 127 128 129
3 20 88 87
3 21 89 49
3 21 90 89
3 21 91 90
3 22 92 51
3 22 93 92
3 130 94 131
3 132 131 66
3 130 131 132
3 133 23 134
3 24 135 137
3 135 23 136
3 135 136 137
3 24 6 23
3 25 138 139
3 25 140 142
3 140 7 141
3 140 141 142
3 26 27 8
3 28 27 26
3 28 10 27
3 28 29 10
3 30 29 28
3 30 12 29
3 143 31 144
3 32 145 147
3 145 31 146
3 145 146 147
3 32 14 31
3 33 34 5
3 35 34 33
3 35 15 34
3 35 36 15
3 37 36 35
3 37 16 36
3 38 39 13
3 40 39 38
3 40 17 39
3 41 42 9
3 43 42 41
3 43 18 42
3 43 44 18
3 45 44 43
3 45 19 44
3 45 46 19
3 47 46 45
3 47 148 150
3 150 149 46
3 148 149 150
3 48 151 153
3 153 152 11
3 151 152 153
3 155 154 48
3 156 20 157
3 158 49 159
3 50 160 162
3 160 49 161
3 160 161 162
3 50 21 49
3 50 51 21
3 52 51 50
3 52 22 51
3 163 53 164
3 54 165 167
3 165 53 166
3 165 166 167
3 54 5 53
3 23 168 170
3 168 54 169
3 168 169 170
3 55 54 23
3 55 5 54
3 55 33 5
3 56 33 55
3 56 2 33
3 57 58 1
3 59 58 57
3 59 9 58
3 27 59 8
3 60 59 27
3 60 9 59
3 60 41 9
3 61 41 60
3 61 3 41
3 61 62 3
3 63 62 61
3 63 11 62
3 29 63 10
3 64 63 29
3 64 11 63
3 64 48 11
3 65 48 64
3 65 171 173
3 173 172 48
3 171 172 173
3 174 4 175
3 176 66 177
3 178 177 4
3 176 177 178
3 179 66 180
3 183 182 66
3 181 182 183
3 184 67 185
3 68 186 188
3 186 67 187
3 186 187 188
3 68 13 67
3 31 189 191
3 189 68 190
3 189 190 191
3 69 68 31
3 69 13 68
3 69 38 13
3 70 38 69
3 70 1 38
3 53 192 194
3 192 32 193
3 192 193 194
3 71 32 53
3 71 14 32
3 34 71 5
3 72 71 34
3 72 14 71
3 72 70 14
3 73 70 72
3 73 1 70
3 73 57 1
3 74 57 73
3 74 8 57
3 36 74 15
3 75 74 36
3 75 8 74
3 75 26 8
3 76 26 75
3 76 0 26
3 67 195 197
3 195 25 196
3 195 196 197
3 77 25 67
3 77 7 25
3 39 77 13
3 78 77 39
3 78 7 77
3 78 198 200
3 200 199 7
3 198 199 200
3 79 201 203
3 203 202 78
3 201 202 203
3 79 204 205
3 58 40 1
3 80 40 58
3 80 17 40
3 42 80 9
3 81 80 42
3 81 17 80
3 81 79 17
3 82 79 81
3 82 206 208
3 208 207 79
3 206 207 208
3 82 209 210
3 83 211 213
3 213 212 82
3 211 212 213
3 83 214 215
3 44 83 18
3 84 83 44
3 84 216 218
3 218 217 83
3 216 217 218
3 84 219 220
3 222 221 84
3 46 223 225
3 225 224 19
3 223 224 225
3 227 226 46
3 62 47 3
3 85 47 62
3 85 228 230
3 230 229 47
3 228 229 230
3 231 85 232
3 233 232 11
3 231 232 233
3 234 85 235
3 237 236 85
3 238 24 239
3 238 239 240
3 241 24 242
3 243 6 244
3 245 244 24
3 243 244 245
3 246 6 247
3 248 56 249
3 250 249 6
3 248 249 250
3 251 56 252
3 253 2 254
3 255 254 56
3 253 254 255
3 256 2 257
3 258 37 259
3 260 259 2
3 258 259 260
3 86 261 263
3 261 37 262
3 261 262 263
3 86 16 37
3 264 86 265
3 87 266 268
3 266 86 267
3 266 267 268
3 87 16 86
3 87 76 16
3 88 76 87
3 88 0 76
3 269 20 270
3 49 271 272
3 89 273 275
3 275 274 49
3 273 274 275
3 89 276 278
3 276 20 277
3 276 277 278
3 89 88 20
3 90 88 89
3 90 0 88
3 90 30 0
3 91 30 90
3 91 12 30
3 51 91 21
3 92 91 51
3 92 12 91
3 92 65 12
3 93 65 92
3 93 279 281
3 281 280 65
3 279 280 281
3 66 52 4
3 94 52 66
3 94 22 52
3 282 94 283
3 284 94 285
3 286 22 287
3 288 287 94
3 286 287 288
3 289 93 290
3 291 290 22
3 289 290 291
3 292 93 293
3 295 294 93
