ply
format ascii 1.0
element vertex 353
property float x
property float y
property float z
property uchar red
property uchar green
property uchar blue
element face 356
property list uchar int vertex_index
end_header
19.4611 -81.319 37.1597 221 255 34
10.7313 -89.83 20.4043 16 255 239
8.30111 -85.0505 35.3327 29 255 226
17.2501 -75.606 44.2648 0 91 255
21.6116 -71.8098 41.066 15 255 240
21.577 -84.574 38.5193 255 87 0
17.3188 -87.2946 25.723 25 255 230
20.4656 -91.7162 18.1904 12 255 243
12.6822 -84.2618 37.0911 6 255 249
18.6688 -78.084 42.8698 0 249 255
22.001 -79.5671 43.6363 140 255 115
19.075 -83.9656 40.1361 102 255 153
14.6159 -87.1145 36.8086 255 180 0
13.7036 -91.4661 14.2408 154 255 101
25.2515 -75.0381 35.2326 175 255 80
12.7595 -86.5567 23.8386 255 58 0
14.5784 -91.4208 18.0766 232 255 23
18.1963 -94.6864 14.6603 255 211 0
8.59675 -87.8878 28.1711 70 255 185
20.2259 -74.1502 44.274 0 210 255
24.2523 -78.2872 39.8308 252 0 0
23.4186 -84.228 33.4481 141 0 0
22.7155 -86.7806 27.095 223 255 32
18.3394 -87.182 31.9983 243 0 0
12.8607 -86.9602 30.9307 255 12 0
18.7307 -75.2587 38.8731 0 128 255
24.0149 -94.7228 17.6933 173 255 82
16.1621 -83.3292 36.5746 120 255 135
19.7273 -79.138 41.1411 255 158 0
20.1209 -80.657 42.3331 142 255 113
18.7349 -82.9019 38.9788 255 143 0
16.0881 -84.8678 38.3119 182 255 73
12.1894 -90.0698 16.6552 81 255 174
11.9706 -90.6394 13.2149 0 196 255
11.6972 -88.9722 23.0142 255 176 0
13.326 -88.6109 20.4209 255 160 0
12.5304 -90.8034 19.3094 238 255 17
13.6965 -92.1414 16.2298 136 255 119
7.78199 -86.2036 31.9362 102 255 153
16.1299 -74.5994 45.0976 0 0 203
18.7 -75.1445 44.9766 0 175 255
22.2309 -82.1687 41.497 233 255 22
23.5224 -79.1415 42.1183 255 147 0
23.4623 -81.9149 39.5004 255 41 0
23.867 -81.1648 37.0438 128 0 0
22.6098 -84.6696 35.9186 255 8 0
21.7255 -86.5773 32.6955 251 0 0
19.9688 -86.1901 35.2678 192 0 0
11.2815 -86.3451 36.2997 255 250 0
13.2239 -87.1834 34.0438 255 58 0
10.3524 -85.9487 33.5975 255 52 0
9.95881 -86.4272 29.9554 255 46 0
17.0524 -73.2128 40.5626 0 0 219
17.5748 -75.0394 40.4578 0 22 255
19.4499 -86.7637 26.61 71 255 184
18.6773 -90.0011 17.5101 0 172 255
22.2323 -93.3717 18.8705 66 255 189
16.9915 -95.0239 12.27 48 255 207
19.9168 -96.7306 14.9035 12 255 243
10.0327 -84.7139 37.0904 0 181 255
17.7647 -77.1502 43.5192 0 160 255
19.7378 -77.2276 44.7237 66 255 189
20.2653 -79.0654 44.1735 0 252 255
21.0593 -81.7167 42.386 49 255 206
20.2397 -84.5596 40.1172 167 255 88
18.3498 -86.3436 37.6935 255 92 0
16.9423 -85.9639 38.8266 130 255 125
13.1881 -85.9043 37.7964 131 255 124
14.0266 -93.6583 12.268 0 232 255
12.082 -93.6162 13.048 0 159 255
24.0207 -73.1148 38.1995 218 255 37
15.1234 -86.3523 24.917 249 255 6
14.7208 -87.0241 21.0458 91 255 164
15.6517 -89.5083 17.7189 142 255 113
17.4411 -92.0787 16.9731 252 255 3
18.7063 -94.0384 17.4895 255 185 0
15.7716 -93.4259 15.7214 204 255 51
15.3532 -93.1338 13.8945 156 255 99
9.79431 -89.0388 24.5369 33 255 222
21.2405 -73.0749 42.9142 36 255 219
21.9361 -76.4707 44.1325 237 255 18
23.2474 -75.6313 42.5582 255 161 0
23.7798 -74.577 40.4222 255 41 0
24.8209 -76.9846 37.5266 128 0 0
23.9656 -79.6639 34.631 253 0 0
23.7516 -82.2269 31.0464 255 174 0
24.9556 -83.6774 28.0239 164 255 91
23.6472 -85.9199 30.3377 164 0 0
20.376 -87.1617 29.4682 255 5 0
17.4812 -87.3607 28.86 255 209 0
16.3778 -87.2901 34.6089 227 0 0
15.5504 -87.5319 31.3074 255 114 0
15.5177 -87.2984 28.3519 255 140 0
12.7622 -86.034 27.788 241 0 0
10.7355 -87.3726 26.4333 255 113 0
19.9902 -77.8916 38.609 104 255 151
16.8827 -75.7438 42.9635 0 0 229
17.4148 -76.466 42.0073 0 57 255
18.4517 -76.7506 40.8614 73 255 182
26.2136 -93.0277 16.7547 0 140 255
24.2409 -94.5818 14.6571 0 233 255
20.8445 -95.5879 17.0601 255 175 0
22.2738 -95.9457 14.7594 47 255 208
17.994 -81.4665 35.7702 0 0 205
16.3445 -82.4716 35.4776 0 0 205
17.8116 -82.3241 36.8672 0 0 246
10.7639 -89.1427 18.6335 0 0 185
11.493 -89.2626 16.759 0 0 185
11.4604 -89.9499 18.5298 0 0 217
7.19135 -85.2003 33.8326 0 0 176
6.9318 -85.7768 32.1343 0 0 176
8.04155 -85.627 33.6345 0 0 204
16.817 -72.1848 40.2094 0 0 170
15.7278 -72.4317 41.0552 0 0 170
15.4925 -71.4038 40.702 0 0 146
17.3563 -73.1618 39.8446 0 0 135
16.817 -72.1848 40.2094 0 0 135
20.6188 -70.6282 41.8147 0 0 180
19.3392 -70.3978 43.0351 0 0 151
20.332 -71.5793 42.2864 0 0 180
18.1461 -86.9466 24.6951 0 0 170
19.2117 -86.6812 25.1386 0 0 170
18.3843 -87.0292 26.1665 0 0 195
20.9018 -90.7588 18.3117 0 0 163
20.0076 -89.9012 17.9716 0 0 163
19.5714 -90.8586 17.8503 0 0 184
22.0508 -91.3272 18.5937 0 0 144
20.9018 -90.7588 18.3117 0 0 144
21.3489 -92.5439 18.5304 0 0 204
22.9342 -92.1549 18.9337 0 0 177
22.0508 -91.3272 18.5937 0 0 177
17.4625 -96.3757 12.6735 0 0 157
15.8649 -95.7064 11.5471 0 0 157
10.9305 -83.6559 36.5223 0 0 167
9.60572 -83.8819 36.5219 0 0 167
11.3575 -84.4879 37.0907 0 0 189
10.8922 -91.9265 13.2105 0 0 153
10.7807 -90.2438 13.3351 0 0 153
24.6497 -72.9989 35.6874 0 0 209
24.0343 -72.0373 37.1708 0 0 209
24.6361 -74.0764 36.7161 0 0 253
8.36517 -87.8466 26.364 0 0 181
8.96395 -88.4221 24.5469 0 0 181
9.19553 -88.4633 26.354 0 0 211
19.3027 -73.4958 44.477 0 0 138
18.736 -74.0952 44.8662 0 0 138
20.7332 -73.6125 43.5941 0 0 175
19.81 -72.9582 43.7971 0 0 157
19.3027 -73.4958 44.477 0 0 157
19.3985 -75.5609 37.699 0 0 178
20.0282 -76.8773 37.5669 0 0 178
19.3605 -76.5751 38.741 0 0 207
16.9132 -75.3395 42.3167 0 0 147
16.1572 -75.0608 43.2366 0 0 147
16.1877 -74.6566 42.5898 0 0 134
17.1792 -75.7006 41.8385 0 0 137
17.1487 -76.1049 42.4854 0 0 144
16.9132 -75.3395 42.3167 0 0 137
23.8256 -85.6637 25.9949 0 0 213
24.9456 -84.1121 26.4593 0 0 213
23.8355 -85.229 27.5594 0 4 255
25.1142 -93.8753 17.224 0 0 201
25.7583 -92.5619 17.7631 0 0 174
24.6589 -93.4095 18.2325 0 0 174
21.6784 -96.8472 13.8365 0 0 168
21.0953 -96.3381 14.8315 0 0 192
20.4999 -97.2397 13.9085 0 0 168
22.7911 -95.9482 13.137 0 0 155
21.6784 -96.8472 13.8365 0 0 155
14.3508 -82.9904 35.8049 0 0 196
12.6109 -83.4567 36.0632 0 0 196
14.4222 -83.7955 36.8329 0 0 233
14.3508 -82.9904 35.8049 0 0 164
16.3445 -82.4716 35.4776 0 0 164
11.3836 -89.5474 15.0388 0 0 180
12.08 -90.3546 14.9351 0 0 210
11.493 -89.2626 16.759 0 0 180
10.7807 -90.2438 13.3351 0 0 160
11.3836 -89.5474 15.0388 0 0 160
25.438 -73.7603 34.1381 0 0 174
24.8134 -76.1798 33.7319 0 0 174
7.23699 -86.5317 30.0895 0 0 188
7.64437 -87.3738 28.2069 0 0 188
8.18937 -87.0457 30.0536 0 0 222
7.23699 -86.5317 30.0895 0 0 152
6.9318 -85.7768 32.1343 0 0 152
16.688 -74.3198 45.278 0 0 130
15.5275 -74.3005 45.6617 0 0 130
17.9731 -74.5923 45.2175 0 0 140
16.688 -74.3198 45.278 0 0 140
17.415 -74.8719 45.0371 0 0 149
19.4629 -74.6473 44.6253 0 0 162
18.736 -74.0952 44.8662 0 0 149
17.9731 -74.5923 45.2175 0 0 149
18.6328 -73.9984 38.1734 0 0 140
18.1955 -74.1847 38.9998 0 0 140
16.2121 -73.1419 41.4967 0 0 141
15.7278 -72.4317 41.0552 0 0 141
16.998 -74.074 41.1162 0 0 159
16.1578 -74.0032 42.0503 0 0 140
16.2121 -73.1419 41.4967 0 0 159
17.3136 -74.1261 40.5102 0 0 152
17.2592 -74.9874 41.0638 0 0 142
16.998 -74.074 41.1162 0 0 142
17.6175 -74.0751 39.7922 0 0 145
17.3136 -74.1261 40.5102 0 0 157
17.3563 -73.1618 39.8446 0 0 145
18.1955 -74.1847 38.9998 0 0 156
18.1528 -75.149 39.6654 0 0 173
17.6175 -74.0751 39.7922 0 0 156
20.3384 -86.3661 25.5638 0 0 186
21.9712 -86.3745 25.8062 0 0 186
21.0827 -86.7722 26.8525 0 0 219
20.3384 -86.3661 25.5638 0 0 148
19.2117 -86.6812 25.1386 0 0 148
18.9501 -88.974 17.9396 0 0 143
17.8053 -88.9656 18.1613 0 0 143
18.9501 -88.974 17.9396 0 0 145
20.0076 -89.9012 17.9716 0 0 145
23.7676 -92.7339 18.821 0 0 144
22.9342 -92.1549 18.9337 0 0 144
23.1236 -94.0472 18.2819 0 0 211
24.6589 -93.4095 18.2325 0 0 181
23.7676 -92.7339 18.821 0 0 181
18.9251 -97.229 13.9903 0 0 189
18.4542 -95.8773 13.5868 0 0 223
17.4625 -96.3757 12.6735 0 0 189
20.4999 -97.2397 13.9085 0 0 149
18.9251 -97.229 13.9903 0 0 149
8.39023 -84.2553 36.1701 0 0 156
7.52443 -84.4235 35.2913 0 0 156
9.16691 -84.8822 36.2115 0 0 174
8.39023 -84.2553 36.1701 0 0 144
9.60572 -83.8819 36.5219 0 0 144
10.9305 -83.6559 36.5223 0 0 157
12.6109 -83.4567 36.0632 0 0 157
13.0915 -95.0381 12.3103 0 0 156
14.3825 -95.0236 11.5461 0 0 156
12.1192 -95.017 12.7003 0 0 169
13.0915 -95.0381 12.3103 0 0 169
13.0543 -93.6372 12.658 0 0 193
11.0759 -94.8895 13.3535 0 0 149
12.1192 -95.017 12.7003 0 0 149
10.9479 -93.4149 13.1271 0 0 175
12.0263 -92.1278 13.1315 0 0 202
10.8922 -91.9265 13.2105 0 0 175
11.0759 -94.8895 13.3535 0 0 148
10.9479 -93.4149 13.1271 0 0 148
22.8119 -71.5477 38.7302 0 0 200
21.6074 -70.8952 40.1635 0 0 200
22.8162 -72.4623 39.6328 0 0 239
22.8119 -71.5477 38.7302 0 0 167
24.0343 -72.0373 37.1708 0 0 167
24.8361 -71.7211 34.5928 0 0 171
24.6497 -72.9989 35.6874 0 0 220
25.438 -73.7603 34.1381 0 0 220
15.9114 -86.519 23.5763 0 0 183
17.0091 -86.9902 23.9793 0 0 183
16.2211 -86.8234 25.32 0 0 214
15.7101 -86.8549 21.6407 0 0 180
15.9114 -86.519 23.5763 0 0 180
14.9221 -86.6882 22.9814 0 0 209
15.827 -87.4771 19.9292 0 0 151
15.7101 -86.8549 21.6407 0 0 151
16.2925 -88.7192 18.2657 0 0 181
15.827 -87.4771 19.9292 0 0 181
15.1862 -88.2662 19.3824 0 0 211
17.1645 -89.7547 17.6145 0 0 199
17.8053 -88.9656 18.1613 0 0 173
16.2925 -88.7192 18.2657 0 0 173
14.3825 -95.0236 11.5461 0 0 190
15.8649 -95.7064 11.5471 0 0 190
15.5091 -94.3411 12.269 0 0 224
9.56793 -88.7021 22.7376 0 0 183
10.0364 -89.0977 20.6713 0 0 183
10.2628 -89.4344 22.4706 0 0 214
9.56793 -88.7021 22.7376 0 0 151
8.96395 -88.4221 24.5469 0 0 151
8.36517 -87.8466 26.364 0 0 153
7.64437 -87.3738 28.2069 0 0 153
7.19135 -85.2003 33.8326 0 0 148
7.52443 -84.4235 35.2913 0 0 148
20.1465 -72.2119 43.2105 0 0 144
19.81 -72.9582 43.7971 0 0 144
21.4261 -72.4423 41.9901 0 0 199
20.332 -71.5793 42.2864 0 0 173
20.1465 -72.2119 43.2105 0 0 173
24.1704 -78.4927 33.4312 0 0 225
24.8134 -76.1798 33.7319 0 0 225
24.6085 -77.351 34.9318 0 22 255
24.0634 -79.7742 31.6389 0 0 239
24.1704 -78.4927 33.4312 0 0 239
23.8586 -80.9454 32.8387 0 42 255
23.8469 -80.7614 29.932 0 0 179
24.0634 -79.7742 31.6389 0 0 179
24.3536 -82.9521 29.5352 0 20 255
24.4489 -81.4867 28.4207 0 0 224
23.8469 -80.7614 29.932 0 0 224
20.137 -78.5569 36.9355 0 0 201
19.8725 -80.2707 36.2108 0 0 201
19.7256 -79.6053 37.8843 0 0 240
20.137 -78.5569 36.9355 0 0 160
20.0282 -76.8773 37.5669 0 0 160
19.3985 -75.5609 37.699 0 0 153
18.6328 -73.9984 38.1734 0 0 153
15.1792 -74.5092 45.4197 0 0 135
15.5275 -74.3005 45.6617 0 0 135
14.5767 -74.2103 45.9838 0 0 128
15.8716 -74.68 44.8054 0 0 133
15.1792 -74.5092 45.4197 0 0 133
14.9209 -74.5898 45.1274 0 0 128
16.4317 -75.1834 44.389 0 0 132
16.69 -75.1027 44.6812 0 0 138
15.8716 -74.68 44.8054 0 0 132
16.248 -75.2522 43.7383 0 0 139
15.5225 -74.5693 44.0114 0 0 130
16.1572 -75.0608 43.2366 0 0 139
17.0664 -75.6749 43.6141 0 0 152
16.4317 -75.1834 44.389 0 0 142
16.248 -75.2522 43.7383 0 0 142
17.4948 -75.7527 41.2325 0 0 148
17.1792 -75.7006 41.8385 0 0 139
17.2592 -74.9874 41.0638 0 0 139
10.7639 -89.1427 18.6335 0 0 153
10.0364 -89.0977 20.6713 0 0 153
17.994 -81.4665 35.7702 0 0 168
19.8725 -80.2707 36.2108 0 0 168
20.6188 -70.6282 41.8147 0 0 156
21.6074 -70.8952 40.1635 0 0 156
24.9864 -82.0228 27.0072 0 0 170
24.4489 -81.4867 28.4207 0 0 170
24.9864 -82.0228 27.0072 0 0 170
24.9456 -84.1121 26.4593 0 0 170
23.8256 -85.6637 25.9949 0 0 166
21.9712 -86.3745 25.8062 0 0 166
18.1461 -86.9466 24.6951 0 0 151
17.0091 -86.9902 23.9793 0 0 151
26.3381 -91.4037 16.7358 0 0 151
25.7583 -92.5619 17.7631 0 0 151
27.102 -91.9956 16.0079 0 0 150
26.3381 -91.4037 16.7358 0 0 150
26.4152 -92.9799 15.3722 0 0 150
27.102 -91.9956 16.0079 0 0 150
25.4289 -93.757 14.3234 0 0 183
26.4152 -92.9799 15.3722 0 0 183
25.2273 -93.8048 15.7059 0 0 214
24.6439 -94.463 13.2277 0 0 153
25.4289 -93.757 14.3234 0 0 153
23.7746 -95.2663 13.0858 0 0 184
23.2574 -95.2637 14.7083 0 0 215
22.7911 -95.9482 13.137 0 0 184
24.6439 -94.463 13.2277 0 0 150
23.7746 -95.2663 13.0858 0 0 150
3 0 103 105
3 105 104 27
3 103 104 105
3 0 30 28
3 0 27 30
3 1 106 108
3 108 107 32
3 106 107 108
3 1 36 34
3 1 32 36
3 2 109 111
3 111 110 38
3 109 110 111
3 3 40 39
3 5 43 41
3 5 45 43
3 5 47 45
3 2 50 48
3 2 38 50
3 112 52 113
3 112 113 114
3 116 115 52
3 4 117 119
3 117 118 119
3 6 120 122
3 122 121 54
3 120 121 122
3 7 123 125
3 125 124 55
3 123 124 125
3 7 126 127
3 7 128 130
3 128 56 129
3 128 129 130
3 132 131 57
3 8 133 135
3 135 134 59
3 133 134 135
3 9 62 60
3 11 63 29
3 11 64 63
3 11 66 64
3 8 67 31
3 8 59 67
3 13 69 68
3 137 136 33
3 14 138 140
3 140 139 70
3 138 139 140
3 15 72 71
3 16 73 35
3 16 74 73
3 16 76 74
3 13 77 37
3 13 68 77
3 18 141 143
3 143 142 78
3 141 142 143
3 19 144 145
3 19 146 148
3 146 79 147
3 146 147 148
3 10 80 61
3 20 81 42
3 20 82 81
3 20 83 82
3 21 84 44
3 21 85 84
3 21 87 85
3 23 88 46
3 23 89 88
3 12 90 65
3 24 91 49
3 24 92 91
3 24 93 92
3 18 94 51
3 18 78 94
3 25 149 151
3 151 150 95
3 149 150 151
3 152 96 153
3 152 153 154
3 155 97 156
3 157 156 96
3 155 156 157
3 25 98 53
3 25 95 98
3 22 158 160
3 160 159 86
3 158 159 160
3 26 161 163
3 161 99 162
3 161 162 163
3 26 100 99
3 17 101 75
3 164 102 165
3 166 165 58
3 164 165 166
3 168 167 102
3 27 169 171
3 171 170 8
3 169 170 171
3 173 172 27
3 28 29 9
3 30 29 28
3 30 11 29
3 30 31 11
3 27 31 30
3 27 8 31
3 32 33 13
3 174 33 175
3 176 175 32
3 174 175 176
3 178 177 33
3 180 179 14
3 34 35 15
3 36 35 34
3 36 16 35
3 36 37 16
3 32 37 36
3 32 13 37
3 38 181 183
3 183 182 18
3 181 182 183
3 185 184 38
3 39 186 187
3 40 188 190
3 190 189 39
3 188 189 190
3 40 191 193
3 191 19 192
3 191 192 193
3 41 42 10
3 43 42 41
3 43 20 42
3 43 44 20
3 45 44 43
3 45 21 44
3 45 46 21
3 47 46 45
3 47 23 46
3 48 49 12
3 50 49 48
3 50 24 49
3 50 51 24
3 38 51 50
3 38 18 51
3 195 194 25
3 52 196 197
3 52 198 200
3 198 199 200
3 52 201 203
3 201 53 202
3 201 202 203
3 204 53 205
3 206 205 52
3 204 205 206
3 207 25 208
3 209 208 53
3 207 208 209
3 54 210 212
3 212 211 22
3 210 211 212
3 214 213 54
3 55 215 216
3 218 217 55
3 56 219 220
3 56 221 223
3 221 26 222
3 221 222 223
3 57 58 17
3 224 58 225
3 226 225 57
3 224 225 226
3 228 227 58
3 59 229 231
3 231 230 2
3 229 230 231
3 233 232 59
3 235 234 8
3 60 61 3
3 62 61 60
3 62 10 61
3 29 62 9
3 63 62 29
3 63 10 62
3 63 41 10
3 64 41 63
3 64 5 41
3 64 65 5
3 66 65 64
3 66 12 65
3 31 66 11
3 67 66 31
3 67 12 66
3 67 48 12
3 59 48 67
3 59 2 48
3 68 236 237
3 69 238 240
3 240 239 68
3 238 239 240
3 69 241 242
3 33 69 13
3 243 69 244
3 245 244 33
3 243 244 245
3 247 246 69
3 70 248 250
3 250 249 4
3 248 249 250
3 252 251 70
3 255 254 14
3 253 254 255
3 71 256 258
3 258 257 6
3 256 257 258
3 72 259 261
3 261 260 71
3 259 260 261
3 72 262 263
3 35 72 15
3 73 72 35
3 73 264 266
3 266 265 72
3 264 265 266
3 73 267 269
3 267 55 268
3 267 268 269
3 74 55 73
3 74 7 55
3 74 75 7
3 76 75 74
3 76 17 75
3 37 76 16
3 77 76 37
3 77 17 76
3 77 57 17
3 68 57 77
3 68 270 272
3 272 271 57
3 270 271 272
3 78 273 275
3 275 274 1
3 273 274 275
3 277 276 78
3 279 278 18
3 281 280 2
3 79 282 283
3 79 284 286
3 284 4 285
3 284 285 286
3 61 40 3
3 80 40 61
3 80 19 40
3 42 80 10
3 81 80 42
3 81 19 80
3 81 79 19
3 82 79 81
3 82 4 79
3 82 70 4
3 83 70 82
3 83 14 70
3 44 83 20
3 84 83 44
3 84 14 83
3 84 287 289
3 289 288 14
3 287 288 289
3 85 290 292
3 292 291 84
3 290 291 292
3 85 293 294
3 85 295 297
3 295 86 296
3 295 296 297
3 87 86 85
3 87 22 86
3 46 87 21
3 88 87 46
3 88 22 87
3 88 54 22
3 89 54 88
3 89 6 54
3 65 47 5
3 90 47 65
3 90 23 47
3 49 90 12
3 91 90 49
3 91 23 90
3 91 89 23
3 92 89 91
3 92 6 89
3 92 71 6
3 93 71 92
3 93 15 71
3 51 93 24
3 94 93 51
3 94 15 93
3 94 34 15
3 78 34 94
3 78 1 34
3 95 298 300
3 300 299 0
3 298 299 300
3 302 301 95
3 304 303 25
3 305 39 306
3 305 306 307
3 308 39 309
3 308 309 310
3 311 3 312
3 313 312 39
3 311 312 313
3 96 314 316
3 314 315 316
3 96 317 319
3 317 3 318
3 317 318 319
3 96 60 3
3 97 60 96
3 97 9 60
3 53 320 322
3 320 97 321
3 320 321 322
3 98 97 53
3 98 9 97
3 98 28 9
3 95 28 98
3 95 0 28
3 324 323 1
3 326 325 0
3 328 327 4
3 86 329 330
3 332 331 86
3 334 333 22
3 336 335 6
3 99 337 338
3 99 339 340
3 99 341 342
3 100 343 345
3 345 344 99
3 343 344 345
3 100 346 347
3 75 56 7
3 101 56 75
3 101 26 56
3 58 101 17
3 102 101 58
3 102 26 101
3 102 100 26
3 348 100 349
3 350 349 102
3 348 349 350
3 352 351 100
