ply
format ascii 1.0
element vertex 283
property float x
property float y
property float z
property uchar red
property uchar green
property uchar blue
element face 301
property list uchar int vertex_index
end_header
34.4508 -72.598 28.7975 99 255 156
23.9422 -79.296 28.8175 237 255 18
27.4007 -85.5651 12.9775 41 255 214
33.6601 -76.5441 17.7316 174 255 81
29.0509 -68.2328 22.1673 211 255 44
23.5991 -81.2254 18.1976 255 246 0
34.6786 -74.337 22.8881 172 255 83
25.9584 -69.5065 31.1115 200 255 55
26.8951 -64.4061 28.2148 16 255 239
25.9125 -72.7548 25.037 254 0 0
27.6395 -74.4335 19.7348 255 229 0
25.6094 -81.0142 23.2009 255 115 0
16.9333 -87.9301 18.8125 0 95 255
32.6057 -84.335 13.1218 0 107 255
35.0494 -81.7852 17.2605 0 199 255
30.7637 -79.8087 13.3913 187 255 68
33.0552 -68.9004 23.7722 255 244 0
31.7598 -72.065 18.3999 96 255 159
28.1494 -76.6562 14.941 196 255 59
24.6537 -82.9152 14.2846 109 255 146
20.0713 -85.0018 21.9216 154 255 101
21.0898 -86.6247 17.5329 91 255 164
25.2728 -88.9436 17.4839 54 255 201
34.9539 -75.5534 28.1174 0 182 255
35.3259 -76.2793 25.1166 0 217 255
34.6795 -73.467 25.7851 217 255 38
24.3752 -77.3215 32.2313 130 255 125
25.6244 -72.4825 33.0436 92 255 163
25.033 -74.3822 30.0439 128 0 0
26.1197 -71.1637 28.0977 192 0 0
24.7984 -76.059 26.9 203 0 0
25.6781 -76.8469 24.1964 255 49 0
25.0173 -80.3681 25.9906 255 250 0
29.7242 -84.7187 12.6566 0 231 255
29.1227 -87.5132 13.3197 0 75 255
27.4022 -88.2365 14.3339 0 133 255
35.4051 -78.2762 20.3055 69 255 186
35.8616 -81.4516 20.2305 0 159 255
34.5538 -79.1721 17.735 192 255 63
33.7782 -80.1469 15.1129 185 255 70
32.4913 -77.8606 15.4197 158 255 97
28.0188 -66.1271 25.166 255 245 0
28.4293 -63.1406 27.4367 0 145 255
29.8769 -65.2977 24.6121 49 255 206
31.806 -65.815 25.5105 19 255 236
31.2353 -67.926 22.2619 190 255 65
32.701 -70.3274 20.8193 145 255 110
30.553 -70.1419 19.989 112 255 143
25.7803 -78.1191 18.8939 255 188 0
27.4458 -75.5028 17.1739 251 255 4
25.5324 -78.6295 16.3636 255 247 0
26.0713 -79.615 14.2043 187 255 68
23.6088 -81.8322 15.8594 177 255 78
21.2269 -85.9684 24.5175 0 255 255
18.9734 -86.5986 23.6671 0 159 255
19.223 -87.947 18.3691 0 202 255
21.338 -89.8014 18.433 0 180 255
23.272 -87.8274 17.3386 113 255 142
23.6361 -90.9382 18.997 0 172 255
25.303 -92.0961 18.7716 0 86 255
35.5801 -77.1384 22.7661 0 215 255
34.5225 -75.3125 20.1738 189 255 66
26.1767 -66.6015 29.5322 121 255 134
26.9094 -68.0967 26.5009 255 69 0
27.3495 -69.988 23.2437 255 135 0
28.4964 -71.2735 20.6219 207 255 48
26.8923 -73.5674 22.3105 255 137 0
26.5117 -77.5846 21.4014 255 116 0
24.5796 -81.1523 20.7431 255 181 0
16.6995 -86.6858 22.2356 0 108 255
34.5198 -82.5973 14.4637 0 196 255
31.5418 -82.0835 13.0515 175 255 80
28.4349 -82.6 12.6346 105 255 150
33.9851 -71.6937 31.54 0 81 255
33.4718 -69.6494 29.4131 44 255 211
32.8626 -67.4897 27.3282 67 255 188
34.0316 -70.6568 25.8977 255 212 0
34.0276 -71.7377 23.0329 193 255 62
33.636 -72.7908 20.2153 147 255 108
32.8881 -74.1275 17.5281 142 255 113
29.3877 -72.6262 18.3556 141 255 114
30.206 -74.0676 16.4185 146 255 109
31.1504 -76.0289 15.4867 134 255 121
29.379 -78.1295 13.7726 159 255 96
27.1892 -81.1352 13.3137 125 255 130
26.1112 -84.1326 13.5019 50 255 205
24.9357 -84.5467 24.8948 91 255 164
23.4793 -83.9878 22.7044 255 203 0
21.7138 -83.3276 20.3334 234 255 21
18.2371 -86.2803 20.5303 66 255 189
19.6729 -85.1997 19.1181 86 255 169
21.5155 -83.7153 17.6226 134 255 121
22.7381 -84.8808 16.1669 86 255 169
24.3473 -86.0162 15.4541 68 255 187
25.7751 -87.033 14.9037 39 255 216
26.4627 -89.7796 16.7169 0 134 255
34.7023 -74.0757 28.4575 0 0 202
34.6648 -74.9725 29.8568 0 0 172
34.4133 -73.4948 30.1969 0 0 172
18.1461 -86.9466 24.6951 0 0 130
19.2117 -86.6812 25.1386 0 0 130
20.9018 -90.7588 18.3117 0 0 128
20.0076 -89.9012 17.9716 0 0 128
22.0508 -91.3272 18.5937 0 0 146
22.487 -90.3698 18.715 0 0 164
20.9018 -90.7588 18.3117 0 0 146
22.9342 -92.1549 18.9337 0 0 133
22.0508 -91.3272 18.5937 0 0 133
24.9636 -68.9833 32.7574 0 0 197
24.7965 -70.4713 33.7235 0 0 197
25.7914 -70.9945 32.0776 0 0 240
25.0437 -67.6053 32.015 0 0 150
24.9636 -68.9833 32.7574 0 0 150
26.0676 -68.054 30.3219 0 0 235
25.1528 -66.1528 31.2253 0 0 194
25.0437 -67.6053 32.015 0 0 194
33.1973 -85.3661 12.9866 0 0 128
33.8377 -84.5852 13.6835 0 0 128
35.7045 -82.7519 18.3655 0 0 156
36.1106 -82.5851 19.8505 0 0 156
35.4555 -81.6184 18.7455 0 0 178
35.4572 -82.8203 16.9266 0 0 132
35.7045 -82.7519 18.3655 0 0 132
34.7846 -82.1912 15.8621 0 0 169
35.1924 -83.2263 15.5281 0 0 150
35.4572 -82.8203 16.9266 0 0 150
33.8868 -71.1993 33.0758 0 0 136
34.0937 -72.4645 33.0416 0 0 136
33.3045 -68.0918 30.1134 0 0 138
33.5901 -69.2391 30.9611 0 0 138
26.5034 -63.0473 29.4114 0 0 139
25.8112 -63.8986 29.8788 0 0 139
28.3491 -62.1782 28.9178 0 0 133
29.4255 -63.1289 27.5542 0 0 133
23.8256 -85.6637 25.9949 0 0 147
24.9456 -84.1121 26.4593 0 0 147
25.7583 -92.5619 17.7631 0 0 132
24.6589 -93.4095 18.2325 0 0 132
34.9125 -76.4819 29.4905 0 0 142
34.6648 -74.9725 29.8568 0 0 142
35.2808 -76.9711 27.8594 0 0 140
34.9125 -76.4819 29.4905 0 0 140
35.1399 -75.9163 26.617 0 0 190
35.4669 -77.334 26.3589 0 0 164
35.2808 -76.9711 27.8594 0 0 164
24.9998 -74.902 32.6374 0 0 235
25.438 -73.7603 34.1381 0 0 194
24.8134 -76.1798 33.7319 0 0 194
30.5748 -85.7415 12.8291 0 0 153
32.0155 -85.5497 13.0618 0 0 153
31.165 -84.5269 12.8892 0 0 174
30.274 -87.1388 13.1607 0 0 150
30.5748 -85.7415 12.8291 0 0 150
29.4235 -86.116 12.9881 0 0 169
30.0642 -88.459 13.189 0 0 129
30.274 -87.1388 13.1607 0 0 129
29.293 -88.9044 13.6997 0 0 128
30.0642 -88.459 13.189 0 0 128
28.4327 -89.266 14.2068 0 0 147
29.293 -88.9044 13.6997 0 0 147
28.2624 -87.8748 13.8268 0 0 166
27.6963 -89.6 14.7975 0 0 128
28.4327 -89.266 14.2068 0 0 128
35.6334 -79.8639 20.268 0 0 190
36.144 -80.9174 21.492 0 0 164
35.9157 -79.3297 21.5294 0 0 164
30.1493 -64.2074 26.1419 0 0 158
29.4255 -63.1289 27.5542 0 0 158
29.1531 -64.2191 26.0244 0 0 181
30.8414 -65.5564 25.0613 0 0 186
31.1139 -64.4661 26.591 0 0 161
30.1493 -64.2074 26.1419 0 0 161
20.3384 -86.3661 25.5638 0 0 137
21.9712 -86.3745 25.8062 0 0 137
20.1002 -86.2835 24.0923 0 0 173
20.3384 -86.3661 25.5638 0 0 153
19.2117 -86.6812 25.1386 0 0 153
18.9501 -88.974 17.9396 0 0 144
18.0781 -87.9385 18.5908 0 0 161
17.8053 -88.9656 18.1613 0 0 144
20.2805 -88.8742 18.4011 0 0 167
18.9501 -88.974 17.9396 0 0 148
20.0076 -89.9012 17.9716 0 0 148
23.7676 -92.7339 18.821 0 0 147
24.4695 -91.5172 18.8843 0 0 165
22.9342 -92.1549 18.9337 0 0 147
24.6589 -93.4095 18.2325 0 0 135
23.7676 -92.7339 18.821 0 0 135
35.6994 -77.7559 25.0673 0 0 136
35.4669 -77.334 26.3589 0 0 136
35.8265 -78.1855 23.892 0 0 156
35.6994 -77.7559 25.0673 0 0 156
35.453 -76.7089 23.9414 0 0 178
36.0032 -78.7608 22.7598 0 0 135
35.8265 -78.1855 23.892 0 0 135
35.4926 -77.7073 21.5358 0 0 190
35.9157 -79.3297 21.5294 0 0 164
36.0032 -78.7608 22.7598 0 0 164
24.8361 -71.7211 34.5928 0 0 150
25.438 -73.7603 34.1381 0 0 150
24.8361 -71.7211 34.5928 0 0 147
24.7965 -70.4713 33.7235 0 0 147
25.452 -64.9963 30.5375 0 0 144
25.1528 -66.1528 31.2253 0 0 144
26.5359 -65.5038 28.8735 0 0 208
25.8112 -63.8986 29.8788 0 0 176
25.452 -64.9963 30.5375 0 0 176
15.9114 -86.519 23.5763 0 0 135
17.0091 -86.9902 23.9793 0 0 135
15.7101 -86.8549 21.6407 0 0 134
15.9114 -86.519 23.5763 0 0 134
15.827 -87.4771 19.9292 0 0 158
16.8164 -87.3079 20.524 0 0 182
15.7101 -86.8549 21.6407 0 0 158
16.2925 -88.7192 18.2657 0 0 135
15.827 -87.4771 19.9292 0 0 135
17.8053 -88.9656 18.1613 0 0 132
16.2925 -88.7192 18.2657 0 0 132
33.1973 -85.3661 12.9866 0 0 128
32.0155 -85.5497 13.0618 0 0 128
24.1704 -78.4927 33.4312 0 0 152
24.8134 -76.1798 33.7319 0 0 152
24.0634 -79.7742 31.6389 0 0 157
24.1704 -78.4927 33.4312 0 0 157
23.8469 -80.7614 29.932 0 0 203
24.1587 -78.3088 30.5244 0 0 249
24.0634 -79.7742 31.6389 0 0 203
24.4489 -81.4867 28.4207 0 0 152
23.8469 -80.7614 29.932 0 0 152
36.4613 -82.2867 21.1582 0 0 133
36.144 -80.9174 21.492 0 0 133
36.4613 -82.2867 21.1582 0 0 130
36.1106 -82.5851 19.8505 0 0 130
34.7948 -83.7164 14.3545 0 0 129
35.1924 -83.2263 15.5281 0 0 129
33.5628 -83.4662 13.7927 0 0 168
33.8377 -84.5852 13.6835 0 0 149
34.7948 -83.7164 14.3545 0 0 149
34.1804 -73.0427 31.5681 0 0 137
34.0937 -72.4645 33.0416 0 0 137
34.2179 -72.1458 30.1688 0 0 183
34.4133 -73.4948 30.1969 0 0 159
34.1804 -73.0427 31.5681 0 0 159
33.8467 -70.2613 32.0246 0 0 136
33.8868 -71.1993 33.0758 0 0 136
33.7284 -70.6715 30.4765 0 0 189
33.8467 -70.2613 32.0246 0 0 163
33.5901 -69.2391 30.9611 0 0 163
27.2705 -62.4146 29.0224 0 0 161
26.5034 -63.0473 29.4114 0 0 161
27.6622 -63.7733 27.8258 0 0 186
27.2705 -62.4146 29.0224 0 0 136
28.3491 -62.1782 28.9178 0 0 136
31.9111 -65.1663 27.1975 0 0 138
31.1139 -64.4661 26.591 0 0 138
32.4394 -66.0037 28.1064 0 0 167
31.9111 -65.1663 27.1975 0 0 167
32.3343 -66.6524 26.4194 0 0 194
32.9999 -67.012 29.071 0 0 141
32.4394 -66.0037 28.1064 0 0 141
33.1672 -68.5695 28.3707 0 0 203
33.3045 -68.0918 30.1134 0 0 172
32.9999 -67.012 29.071 0 0 172
24.9864 -82.0228 27.0072 0 0 188
24.4797 -79.8321 27.404 0 0 227
24.4489 -81.4867 28.4207 0 0 188
24.9765 -82.4574 25.4427 0 0 226
24.9864 -82.0228 27.0072 0 0 188
24.9456 -84.1121 26.4593 0 0 188
23.0813 -85.2576 24.7062 0 0 216
23.8256 -85.6637 25.9949 0 0 181
21.9712 -86.3745 25.8062 0 0 181
17.8364 -86.6422 22.9514 0 0 180
18.1461 -86.9466 24.6951 0 0 157
17.0091 -86.9902 23.9793 0 0 157
27.2265 -90.3716 15.9891 0 0 152
27.6963 -89.6 14.7975 0 0 152
26.9324 -89.008 15.5254 0 0 173
26.3381 -91.4037 16.7358 0 0 157
25.8828 -90.9379 17.7443 0 0 180
25.7583 -92.5619 17.7631 0 0 157
27.2265 -90.3716 15.9891 0 0 133
26.3381 -91.4037 16.7358 0 0 133
3 0 96 98
3 96 23 97
3 96 97 98
3 0 25 23
3 1 28 26
3 1 30 28
3 1 32 30
3 2 34 33
3 2 35 34
3 3 38 36
3 3 40 38
3 4 43 41
3 4 45 43
3 4 47 45
3 5 50 48
3 5 52 50
3 99 54 100
3 101 56 102
3 103 58 104
3 105 104 56
3 103 104 105
3 107 106 58
3 6 60 24
3 6 61 60
3 7 108 110
3 110 109 27
3 108 109 110
3 7 111 112
3 7 113 115
3 113 62 114
3 113 114 115
3 9 63 29
3 9 64 63
3 9 66 64
3 11 67 31
3 11 68 67
3 13 116 117
3 14 118 120
3 120 119 37
3 118 119 120
3 14 121 122
3 14 123 125
3 123 70 124
3 123 124 125
3 15 71 39
3 15 72 71
3 126 73 127
3 128 74 129
3 8 130 131
3 133 132 42
3 16 75 44
3 16 76 75
3 16 77 76
3 17 78 46
3 17 79 78
3 10 80 65
3 18 81 49
3 18 82 81
3 18 83 82
3 19 84 51
3 19 85 84
3 134 86 135
3 20 87 53
3 20 88 87
3 12 89 69
3 21 90 55
3 21 91 90
3 21 92 91
3 22 93 57
3 22 94 93
3 22 95 94
3 137 136 59
3 23 138 139
3 23 140 141
3 23 142 144
3 142 24 143
3 142 143 144
3 25 24 23
3 25 6 24
3 26 145 147
3 145 27 146
3 145 146 147
3 28 27 26
3 28 7 27
3 28 29 7
3 30 29 28
3 30 9 29
3 30 31 9
3 32 31 30
3 32 11 31
3 33 148 150
3 150 149 13
3 148 149 150
3 34 151 153
3 153 152 33
3 151 152 153
3 34 154 155
3 34 156 157
3 35 158 160
3 160 159 34
3 158 159 160
3 35 161 162
3 36 163 165
3 163 37 164
3 163 164 165
3 38 37 36
3 38 14 37
3 38 39 14
3 40 39 38
3 40 15 39
3 41 42 8
3 43 42 41
3 43 166 168
3 168 167 42
3 166 167 168
3 43 169 171
3 169 44 170
3 169 170 171
3 45 44 43
3 45 16 44
3 45 46 16
3 47 46 45
3 47 17 46
3 48 49 10
3 50 49 48
3 50 18 49
3 50 51 18
3 52 51 50
3 52 19 51
3 172 53 173
3 54 174 176
3 174 53 175
3 174 175 176
3 54 20 53
3 177 55 178
3 179 178 12
3 177 178 179
3 56 180 182
3 180 55 181
3 180 181 182
3 56 21 55
3 56 57 21
3 58 57 56
3 58 22 57
3 58 59 22
3 183 59 184
3 185 184 58
3 183 184 185
3 187 186 59
3 24 188 189
3 60 190 192
3 192 191 24
3 190 191 192
3 60 193 194
3 60 195 197
3 195 36 196
3 195 196 197
3 61 36 60
3 61 3 36
3 27 198 199
3 201 200 27
3 62 202 203
3 62 204 206
3 204 8 205
3 204 205 206
3 29 62 7
3 63 62 29
3 63 8 62
3 63 41 8
3 64 41 63
3 64 4 41
3 64 65 4
3 66 65 64
3 66 10 65
3 31 66 9
3 67 66 31
3 67 10 66
3 67 48 10
3 68 48 67
3 68 5 48
3 207 69 208
3 209 69 210
3 211 12 212
3 213 212 69
3 211 212 213
3 214 12 215
3 217 216 12
3 219 218 13
3 220 26 221
3 222 26 223
3 224 1 225
3 226 225 26
3 224 225 226
3 228 227 1
3 37 229 230
3 232 231 37
3 70 233 234
3 70 235 237
3 235 13 236
3 235 236 237
3 39 70 14
3 71 70 39
3 71 13 70
3 71 33 13
3 72 33 71
3 72 2 33
3 73 238 239
3 73 240 242
3 240 0 241
3 240 241 242
3 243 73 244
3 74 245 247
3 245 73 246
3 245 246 247
3 74 0 73
3 42 248 250
3 250 249 8
3 248 249 250
3 252 251 42
3 44 253 254
3 75 255 257
3 257 256 44
3 255 256 257
3 75 258 259
3 75 260 262
3 260 74 261
3 260 261 262
3 76 74 75
3 76 0 74
3 76 25 0
3 77 25 76
3 77 6 25
3 46 77 16
3 78 77 46
3 78 6 77
3 78 61 6
3 79 61 78
3 79 3 61
3 65 47 4
3 80 47 65
3 80 17 47
3 49 80 10
3 81 80 49
3 81 17 80
3 81 79 17
3 82 79 81
3 82 3 79
3 82 40 3
3 83 40 82
3 83 15 40
3 51 83 18
3 84 83 51
3 84 15 83
3 84 72 15
3 85 72 84
3 85 2 72
3 263 32 264
3 265 264 1
3 263 264 265
3 86 266 268
3 266 32 267
3 266 267 268
3 86 11 32
3 53 269 271
3 269 86 270
3 269 270 271
3 87 86 53
3 87 11 86
3 87 68 11
3 88 68 87
3 88 5 68
3 69 272 274
3 272 54 273
3 272 273 274
3 89 54 69
3 89 20 54
3 55 89 12
3 90 89 55
3 90 20 89
3 90 88 20
3 91 88 90
3 91 5 88
3 91 52 5
3 92 52 91
3 92 19 52
3 57 92 21
3 93 92 57
3 93 19 92
3 93 85 19
3 94 85 93
3 94 2 85
3 94 35 2
3 95 35 94
3 95 275 277
3 277 276 35
3 275 276 277
3 59 95 22
3 278 95 279
3 280 279 59
3 278 279 280
3 282 281 95
