ply
format ascii 1.0
element vertex 878
property float x
property float y
property float z
property uchar red
property uchar green
property uchar blue
element face 891
property list uchar int vertex_index
end_header
39.0018 41.0205 23.9845 227 255 28
32.2335 19.4727 47.8196 0 192 255
44.6711 24.0663 28.8014 34 255 221
35.3891 50.7869 7.38083 0 242 255
46.6773 33.5041 26.7315 255 200 0
37.4637 49.8789 16.9511 255 192 0
32.928 27.9415 44.3656 68 255 187
37.6948 24.266 38.0688 105 255 150
39.6311 21.1299 46.4666 255 181 0
37.3004 9.90555 55.8422 255 192 0
39.8788 49.8189 1.88137 255 175 0
22.4038 54.0954 26.0948 255 39 0
42.6077 27.4754 31.5376 0 186 255
38.9305 9.56859 46.5782 0 234 255
40.3569 40.5023 21.2393 105 255 150
42.418 35.8078 22.361 73 255 182
43.1983 37.9408 25.2749 194 255 61
37.5675 46.3826 21.8327 255 152 0
39.0079 44.3376 17.207 138 255 117
34.0732 41.4401 23.201 0 170 255
33.4128 46.1094 20.3258 34 255 221
32.0095 23.8017 47.0093 20 255 235
35.716 25.1419 46.9175 134 255 121
35.4685 20.6693 48.5251 162 255 93
29.5229 3.74755 53.0135 0 228 255
45.5417 28.4843 24.3717 15 255 240
36.5007 53.3262 0.712774 255 236 0
39.2484 52.2866 4.83334 201 255 54
23.1433 48.8087 24.7531 151 255 104
23.4754 55.3554 20.7681 255 154 0
30.6354 31.6842 37.374 0 29 255
39.511 31.4381 31.5828 0 236 255
39.9379 20.8312 39.2335 0 140 255
40.8659 22.5267 35.2251 0 175 255
38.2266 4.61363 54.5879 255 138 0
39.6536 10.6651 51.9997 255 99 0
40.5783 5.57383 50.7259 255 253 0
46.7021 32.1661 22.4818 74 255 181
48.1286 28.2341 28.5149 188 255 67
36.2454 51.0898 11.6636 255 218 0
39.6005 50.6871 9.27758 225 255 30
39.2021 47.8079 13.3758 144 255 111
33.6973 29.6737 40.5628 7 255 248
36.0791 27.5142 37.2177 0 130 255
36.4889 27.5383 42.7286 159 255 96
37.3918 22.2935 42.4955 255 194 0
42.1915 18.9109 42.495 255 233 0
42.2713 1.80854 47.2257 0 178 255
32.1253 14.3767 49.3989 57 255 198
35.1126 14.9266 51.7129 247 255 8
33.5506 9.45169 54.8806 255 116 0
33.8776 3.98791 55.548 255 136 0
39.7533 51.3475 -2.19686 0 207 255
40.2469 46.9493 5.56263 232 255 23
17.4484 53.0197 25.0625 26 255 229
18.4828 55.0007 19.9103 204 255 51
20.7585 59.5433 15.6762 0 242 255
21.2477 50.4952 31.1286 182 255 73
25.2459 47.141 30.8546 61 255 194
41.6117 33.6884 28.9621 255 226 0
44.9579 29.7138 30.2563 255 245 0
47.6648 25.3203 32.1541 5 255 250
44.4694 23.5291 33.0719 101 255 154
43.4686 20.8982 30.5174 0 190 255
39.5337 15.8953 50.8853 245 0 0
41.9041 14.9582 46.8598 255 131 0
40.8018 41.5955 23.2911 207 255 48
42.1418 39.4937 23.0547 116 255 139
41.413 39.527 24.6291 188 255 67
37.8329 43.8557 23.4843 255 138 0
39.8092 43.9101 22.2397 255 152 0
35.9342 41.4085 23.1949 191 255 64
35.2367 44.3252 23.0985 255 230 0
31.6599 21.6297 47.6347 0 153 255
33.4749 22.4118 48.275 85 255 170
33.557 20.3114 48.6881 120 255 135
45.0167 26.7238 26.8723 85 255 170
34.5646 50.4328 5.102 0 229 255
36.1903 52.176 3.97662 147 255 108
37.4903 52.1223 6.49596 241 255 14
32.003 30.6195 36.8836 0 89 255
31.2584 32.2832 35.5977 0 2 255
37.8723 2.9061 51.3869 94 255 161
40.0574 5.07043 52.9808 255 157 0
39.8701 2.91012 50.6325 100 255 155
45.3818 35.1416 24.3633 255 208 0
44.8955 33.8958 22.3572 59 255 196
47.4162 32.8714 24.62 255 217 0
48.347 30.6395 25.3952 243 255 12
48.2148 30.9211 27.5767 255 243 0
36.7163 50.9256 14.6837 240 255 15
38.3853 50.9719 13.3253 255 249 0
39.0279 49.4951 15.3957 251 255 4
35.3018 47.7115 18.513 255 134 0
33.4001 47.219 17.3256 0 222 255
34.9399 49.4235 15.7675 142 255 113
34.3847 49.9512 13.5314 32 255 223
31.1887 27.4461 43.7137 0 171 255
31.9491 28.6027 41.908 0 128 255
32.0945 29.6266 40.2922 0 63 255
33.7439 28.7001 42.2384 0 250 255
35.3556 29.0751 41.8638 69 255 186
34.9015 28.2312 44.0162 65 255 190
37.106 22.947 46.4757 187 255 68
36.7573 24.283 44.9134 222 255 33
38.5074 21.6437 44.5688 255 234 0
40.1677 20.7533 42.5982 225 255 30
41.4036 20.2794 44.5586 255 229 0
31.8172 11.6048 50.4711 0 245 255
33.0612 12.1402 52.4564 255 145 0
32.2696 9.13919 53.1208 197 255 58
31.1629 3.29026 54.5651 196 255 59
32.0945 2.10207 52.1487 0 248 255
34.0875 2.66516 52.68 101 255 154
39.1959 52.8291 1.17264 182 255 73
38.4738 52.8703 -0.900352 215 255 40
39.6653 50.9523 -0.347156 215 255 40
39.1911 48.3609 -1.77744 0 205 255
38.9337 47.5835 0.342808 96 255 159
38.7221 47.3742 9.2171 180 255 75
39.8752 49.0744 7.35868 255 209 0
38.9806 45.7775 7.04537 43 255 212
19.9273 53.9885 26.0455 255 83 0
17.9038 54.1359 22.7445 122 255 133
20.3446 54.1929 23.1299 255 122 0
23.4474 56.0197 18.5468 61 255 194
22.4624 58.6955 18.6781 255 63 0
22.6304 58.5889 15.9691 0 222 255
18.8376 49.8894 30.1821 0 167 255
25.9959 45.4397 30.4938 0 108 255
39.8274 35.376 27.5101 18 255 237
39.2531 34.1964 29.8231 0 232 255
40.9168 29.4217 31.3068 0 210 255
42.211 30.9382 31.3298 156 255 99
44.1555 28.4399 31.1749 164 255 91
46.8853 27.404 31.5157 104 255 151
45.6823 26.5274 32.4131 67 255 188
37.2903 26.1571 37.9358 0 255 255
38.5389 24.8872 35.9757 0 150 255
41.0357 20.8328 33.8887 0 117 255
42.5801 22.9281 33.8216 63 255 192
42.7533 20.7475 32.8872 8 255 247
44.7734 21.4203 32.2759 115 255 140
41.6078 19.5787 30.9282 0 129 255
36.1933 12.6154 54.2219 255 199 0
37.0575 15.441 51.6152 255 50 0
38.2944 13.0135 53.6205 255 118 0
39.2237 10.0728 49.1961 255 94 0
40.6809 12.7756 49.3068 255 79 0
40.3117 12.1461 46.7773 194 255 61
41.0275 14.0074 44.8963 85 255 170
41.4385 4.1248 46.7943 0 142 255
40.8688 38.2222 21.8533 0 249 255
43.3962 37.4105 23.6687 208 255 47
44.914 35.6229 26.0372 255 252 0
37.5241 47.8258 19.2425 255 134 0
39.0884 47.4823 17.1011 255 125 0
39.1825 45.53 19.92 255 91 0
39.3488 42.5926 19.7292 117 255 138
33.3714 44.3896 22.3579 0 246 255
35.1927 46.4989 21.5905 255 223 0
30.8519 25.3216 44.803 0 143 255
32.4243 26.2749 45.91 140 255 115
34.1756 27.1601 46.1946 120 255 135
33.9663 24.8268 47.6045 129 255 126
35.3835 22.8896 47.8384 114 255 141
37.5285 21.0971 47.9783 255 254 0
30.5483 6.36367 52.4056 0 244 255
44.7346 29.9949 21.9443 0 169 255
33.9602 51.4932 -0.345251 0 252 255
34.5202 52.6377 2.10363 29 255 226
37.6653 53.3744 2.58541 210 255 45
40.0493 51.5106 3.33827 218 255 37
23.3335 51.6301 25.6209 128 0 0
22.4276 54.0411 23.0392 255 156 0
22.8449 51.9889 22.2588 220 255 35
23.8074 52.9437 19.8835 0 202 255
38.1894 33.4155 31.6692 0 176 255
37.0888 31.4492 31.7878 0 41 255
38.3622 22.3929 38.4986 61 255 194
39.2621 23.381 36.4958 15 255 240
39.7064 21.8717 37.2137 0 121 255
38.0731 7.10128 56.2671 255 219 0
38.9832 10.4055 54.5346 255 187 0
39.2716 7.59302 54.3582 255 138 0
39.6203 7.86471 51.5997 255 132 0
39.3637 7.44554 48.8067 144 255 111
44.5124 31.6574 20.7613 0 171 255
47.0201 30.1682 23.2197 237 255 18
47.1148 28.6187 26.2216 255 188 0
46.6739 25.9736 28.9014 255 207 0
35.6963 51.1421 9.15691 61 255 194
37.9918 52.3579 8.59212 136 255 119
38.2789 51.8708 10.5842 202 255 53
38.8773 49.3669 11.3751 255 184 0
38.203 45.9077 11.1975 0 250 255
39.5663 46.1308 14.7775 69 255 186
33.7894 49.9776 10.7742 0 207 255
31.8663 30.3838 38.7855 0 123 255
33.2754 29.5547 38.091 0 134 255
35.1818 29.1187 39.0649 0 247 255
36.7258 28.175 39.8093 177 255 78
37.0309 25.9429 40.3679 233 255 22
36.1966 26.7012 45.0163 144 255 111
36.7963 25.3378 42.9367 255 249 0
37.0485 23.2849 40.2315 249 255 6
38.8173 21.2884 40.5877 149 255 106
41.1911 19.9908 40.7853 2 255 253
40.6414 17.311 40.7298 0 193 255
40.295 1.11799 47.736 0 205 255
32.6207 16.9491 48.3233 0 241 255
34.0536 17.3363 49.514 187 255 68
33.5945 14.871 51 243 255 12
34.5885 12.6385 53.8564 255 239 0
35.2692 9.84028 56.0426 255 156 0
31.6926 6.22051 54.603 255 118 0
33.279 6.29407 56.4024 255 92 0
35.8532 6.79882 56.9486 255 179 0
36.2436 4.70046 55.6665 255 164 0
36.0653 2.94298 52.3253 109 255 146
35.6206 51.8481 -2.06006 92 255 163
37.5655 52.2035 -3.43487 0 196 255
39.735 51.9525 7.13901 167 255 88
40.7489 50.321 5.4833 209 255 46
40.8112 48.1925 4.09969 255 247 0
39.6211 43.8964 5.30198 0 177 255
41.0183 45.0379 3.92783 0 245 255
39.81 46.2609 2.50881 77 255 178
21.002 56.0544 20.5654 255 5 0
19.6612 57.8693 17.9516 225 255 30
19.848 60.4845 12.7405 0 44 255
19.7967 51.9201 27.9142 255 222 0
22.3158 52.8544 29.0813 230 0 0
23.75 49.3182 31.2923 157 255 98
24.5556 51.0567 29.0339 188 0 0
25.0141 48.1879 28.2423 255 171 0
38.6807 38.4764 24.3356 92 255 163
40.6997 37.5199 26.1021 103 255 152
42.2887 35.7839 27.0397 255 189 0
44.1857 33.7046 27.8557 255 153 0
40.7361 32.8453 31.196 141 255 114
43.1484 31.9679 30.0307 255 236 0
45.9492 31.52 28.6445 255 135 0
47.6074 28.9064 29.6846 197 255 58
48.0458 26.4672 30.6041 69 255 186
46.883 24.1789 30.6651 141 255 114
40.8256 24.0948 34.8181 0 174 255
42.3444 24.8005 33.407 0 155 255
44.1237 25.7328 32.6349 0 223 255
46.3578 24.3429 32.8398 52 255 203
46.5192 22.6048 31.7241 90 255 165
44.467 22.4867 29.8452 0 219 255
35.7217 18.032 49.5019 255 219 0
37.8381 18.6435 49.2784 255 108 0
40.1125 18.8528 48.4076 255 34 0
40.0804 13.2116 51.8787 255 119 0
41.524 15.6972 48.9991 255 22 0
41.9658 18.6171 46.5835 255 119 0
42.4216 17.3645 44.9391 255 153 0
41.0417 15.9992 42.8299 111 255 144
41.1526 3.56256 49.1979 200 255 55
40.1309 5.35407 47.9052 0 232 255
31.2 20.178 46.9658 0 0 145
31.5996 18.896 47.098 0 0 145
31.9467 20.5512 47.7271 0 0 186
30.9133 21.2565 46.8733 0 0 164
31.2 20.178 46.9658 0 0 164
43.7737 24.433 27.7924 0 0 187
43.9465 25.7618 26.8278 0 0 187
44.8439 25.3951 27.8368 0 0 220
43.3576 23.4126 28.4342 0 0 148
43.7737 24.433 27.7924 0 0 148
34.149 49.807 6.72507 0 0 146
34.4308 50.0837 7.86347 0 0 146
34.9768 50.6098 6.24141 0 0 200
33.7368 49.63 5.58566 0 0 173
34.149 49.807 6.72507 0 0 173
32.3522 30.7263 35.9083 0 0 132
32.5179 30.0155 36.2419 0 0 132
39.0296 2.07459 49.3481 0 0 184
38.8712 2.90811 51.0097 0 0 216
38.0307 2.07258 49.7253 0 0 184
31.3497 10.3181 50.6855 0 0 148
31.0475 11.1718 49.5474 0 0 148
31.5759 9.08527 52.0103 0 0 183
32.0434 10.372 51.7959 0 0 215
31.3497 10.3181 50.6855 0 0 183
31.4892 1.20265 50.2597 0 0 148
31.1674 1.71753 51.7207 0 0 148
32.3506 1.49784 50.489 0 0 148
31.4892 1.20265 50.2597 0 0 148
38.4837 45.081 7.92789 0 0 176
38.8513 46.5758 8.13124 0 0 204
38.3545 45.8794 9.01376 0 0 176
22.5723 57.3227 15.7425 0 0 190
23.0389 57.3043 17.258 0 0 226
22.9808 56.0381 17.0313 0 0 190
22.7539 58.2464 14.5193 0 0 150
22.5723 57.3227 15.7425 0 0 150
38.1099 34.1039 29.8601 0 0 143
38.4142 34.653 28.7917 0 0 143
41.37 20.0188 32.4559 0 0 166
41.8945 20.7902 33.3879 0 0 189
40.5112 20.0614 32.9567 0 0 166
40.7972 19.4344 31.4764 0 0 164
42.1805 20.1631 31.9077 0 0 186
41.37 20.0188 32.4559 0 0 164
40.0926 19.1236 30.4784 0 0 141
40.7972 19.4344 31.4764 0 0 141
39.198 10.3279 45.5612 0 0 175
39.8886 11.6167 45.6608 0 0 175
39.6211 10.8573 46.6778 0 0 203
40.6128 39.3623 21.5463 0 0 199
39.9927 38.8119 20.6024 0 0 172
39.7367 39.9519 20.2954 0 0 172
39.7367 39.9519 20.2954 0 0 179
39.2327 40.9971 19.5403 0 0 179
39.8528 41.5474 20.4842 0 0 208
33.7223 42.9149 22.7795 0 0 202
32.8552 42.8401 22.2269 0 0 175
33.2062 41.3654 22.6485 0 0 175
31.4307 24.5617 45.9062 0 0 189
30.6169 24.2101 45.2377 0 0 166
31.1958 23.4502 46.3409 0 0 166
44.8359 28.2926 23.6033 0 0 160
44.4323 29.0479 22.3896 0 0 160
45.1381 29.2396 23.158 0 0 180
33.5612 51.7546 2.62335 0 0 152
33.2699 51.4537 1.37495 0 0 152
23.8173 51.7685 19.6043 0 0 146
23.3505 51.3156 20.7029 0 0 146
23.5785 53.3053 18.8211 0 0 143
23.8173 51.7685 19.6043 0 0 143
30.179 32.3073 36.2694 0 0 143
29.5771 32.5929 36.0888 0 0 131
30.0335 31.9699 37.1934 0 0 143
30.6078 32.6862 34.5095 0 0 135
31.522 32.5077 34.7572 0 0 135
35.9616 31.3111 32.1531 0 0 136
36.5531 32.1853 31.8901 0 0 136
41.8635 35.1931 21.5294 0 0 149
40.9898 36.3355 21.4176 0 0 149
44.9866 32.7139 21.4969 0 0 172
44.0833 33.5787 21.4345 0 0 172
45.7988 33.031 22.4195 0 0 199
45.6073 31.9118 21.6216 0 0 189
43.8918 32.4596 20.6366 0 0 166
44.9866 32.7139 21.4969 0 0 166
32.5527 45.7061 19.3957 0 0 149
32.4919 44.9464 20.5771 0 0 149
32.4209 46.8653 16.6486 0 0 149
33.0675 48.0937 16.1553 0 0 149
31.5389 15.0998 48.2233 0 0 146
31.3607 13.8412 48.6895 0 0 146
32.373 15.6629 48.8611 0 0 203
31.7866 16.386 47.6855 0 0 175
31.5389 15.0998 48.2233 0 0 175
35.2633 2.071 50.6587 0 0 189
35.0764 2.80407 52.5027 0 0 224
34.2744 1.93209 50.8361 0 0 189
36.1627 2.1709 50.4522 0 0 152
35.2633 2.071 50.6587 0 0 152
39.749 51.6207 -3.25331 0 0 162
38.6551 52.0487 -3.87231 0 0 162
38.6594 51.7755 -2.81587 0 0 184
39.8953 50.2737 -2.95321 0 0 143
39.749 51.6207 -3.25331 0 0 143
39.3724 47.0536 -2.821 0 0 152
39.0577 46.6495 -1.76043 0 0 152
39.0934 42.3734 5.11601 0 0 172
38.8376 43.2581 5.95917 0 0 172
38.3099 41.7351 5.7732 0 0 145
40.6181 44.2026 2.90353 0 0 147
40.6025 43.5171 3.88049 0 0 147
40.0139 44.8141 2.19402 0 0 171
40.4142 45.6494 3.21832 0 0 197
40.6181 44.2026 2.90353 0 0 171
39.4013 45.0541 1.42074 0 0 146
40.0139 44.8141 2.19402 0 0 146
16.3193 54.2721 24.1887 0 0 154
16.0497 53.3335 25.1487 0 0 154
16.9611 55.2504 20.0035 0 0 200
16.6716 54.818 21.4207 0 0 200
18.1933 54.5683 21.3274 0 0 241
17.6491 55.8754 18.2783 0 0 169
16.9611 55.2504 20.0035 0 0 169
19.5865 59.0792 15.1589 0 0 191
19.0378 58.2423 16.2966 0 0 191
20.2099 58.7063 16.8139 0 0 226
20.3033 60.0139 14.2083 0 0 221
19.1312 59.5499 13.6911 0 0 187
19.5865 59.0792 15.1589 0 0 187
24.4979 48.2296 31.0735 0 0 209
23.5726 47.3749 31.2614 0 0 179
24.3206 46.2863 31.0425 0 0 179
25.4453 45.667 28.807 0 0 157
26.0308 44.3448 29.7626 0 0 157
38.3485 37.4686 25.0389 0 0 152
37.3586 38.5729 23.7399 0 0 152
39.358 36.9904 25.9222 0 0 177
39.6902 37.9981 25.2188 0 0 206
38.3485 37.4686 25.0389 0 0 177
35.9124 27.3104 35.8621 0 0 142
35.2602 27.9957 36.7858 0 0 142
42.5274 21.112 29.7042 0 0 164
43.0266 21.9062 29.3681 0 0 164
43.9678 21.6924 30.1813 0 0 186
40.3284 14.3892 42.9079 0 0 186
41.0346 15.0033 43.8631 0 0 219
40.3213 13.3933 43.9411 0 0 186
39.5179 13.6508 41.8071 0 0 157
40.2311 15.2608 41.7291 0 0 196
40.3284 14.3892 42.9079 0 0 196
40.0495 5.12082 46.5323 0 0 162
40.7847 4.73943 47.3498 0 0 183
40.7033 4.50618 45.9768 0 0 162
39.5517 6.00946 47.1225 0 0 142
40.0495 5.12082 46.5323 0 0 142
31.021 22.3642 46.6536 0 0 141
30.9133 21.2565 46.8733 0 0 141
31.8347 22.7157 47.322 0 0 184
31.1958 23.4502 46.3409 0 0 163
31.021 22.3642 46.6536 0 0 163
44.3257 26.7687 25.8695 0 0 173
44.5882 27.6489 24.6193 0 0 173
45.2792 27.6041 25.622 0 0 200
44.3257 26.7687 25.8695 0 0 147
43.9465 25.7618 26.8278 0 0 147
35.3774 51.3044 4.53931 0 0 217
34.3962 51.5238 3.55985 0 0 185
33.5833 50.6522 4.12253 0 0 185
23.0185 49.2481 23.1377 0 0 155
23.0647 47.6637 24.3002 0 0 155
32.9864 49.6482 4.67274 0 0 145
33.7368 49.63 5.58566 0 0 145
33.5833 50.6522 4.12253 0 0 151
32.9864 49.6482 4.67274 0 0 151
31.9799 31.5582 35.2653 0 0 155
31.6307 31.4513 36.2406 0 0 172
32.3522 30.7263 35.9083 0 0 155
31.522 32.5077 34.7572 0 0 135
31.9799 31.5582 35.2653 0 0 135
39.5372 20.186 38.3312 0 0 140
39.9302 19.6171 39.2205 0 0 140
38.734 43.6444 16.1336 0 0 150
38.5734 42.8247 17.2809 0 0 150
33.8374 49.196 15.3762 0 0 178
33.0675 48.0937 16.1553 0 0 178
34.17 48.3213 16.5465 0 0 208
34.6623 49.6874 14.6494 0 0 185
33.5598 49.4598 14.2582 0 0 163
33.8374 49.196 15.3762 0 0 163
30.7909 27.8016 42.3782 0 0 140
30.5009 26.9394 43.0231 0 0 140
31.1711 28.3799 41.4754 0 0 156
30.7909 27.8016 42.3782 0 0 156
31.5689 28.0244 42.8109 0 0 175
31.2723 29.1184 40.7488 0 0 136
31.1711 28.3799 41.4754 0 0 136
32.0218 29.1147 41.1001 0 0 159
31.345 29.6303 39.941 0 0 146
31.2723 29.1184 40.7488 0 0 146
31.2067 12.4553 49.2256 0 0 148
31.0475 11.1718 49.5474 0 0 148
31.9713 12.9907 49.935 0 0 209
31.3607 13.8412 48.6895 0 0 179
31.2067 12.4553 49.2256 0 0 179
30.7016 2.31163 52.9289 0 0 181
30.3429 3.5189 53.7893 0 0 212
29.8816 2.54027 52.1531 0 0 181
31.6287 2.69616 53.3569 0 0 200
30.7016 2.31163 52.9289 0 0 173
31.1674 1.71753 51.7207 0 0 173
33.3471 1.77938 50.7547 0 0 186
33.091 2.38361 52.4144 0 0 219
32.3506 1.49784 50.489 0 0 186
34.2744 1.93209 50.8361 0 0 152
33.3471 1.77938 50.7547 0 0 152
38.929 46.2608 -0.700303 0 0 184
39.0577 46.6495 -1.76043 0 0 184
39.0624 47.9722 -0.717317 0 0 216
22.3267 59.2489 14.6545 0 0 168
21.3908 59.7261 14.5081 0 0 168
21.6945 59.0661 15.8226 0 0 193
22.3267 59.2489 14.6545 0 0 146
22.7539 58.2464 14.5193 0 0 146
18.2513 49.2175 31.2461 0 0 175
17.6625 49.7563 29.9603 0 0 175
17.0761 49.0843 31.0242 0 0 147
19.176 49.0169 31.1613 0 0 141
18.2513 49.2175 31.2461 0 0 141
20.381 49.3198 31.6345 0 0 179
20.0427 50.1923 30.6553 0 0 209
19.176 49.0169 31.1613 0 0 179
25.0595 45.5561 31.2558 0 0 143
24.3206 46.2863 31.0425 0 0 143
25.4345 44.7055 31.0754 0 0 154
25.6209 46.2903 30.6742 0 0 172
25.0595 45.5561 31.2558 0 0 154
26.1983 43.9091 31.2805 0 0 161
25.4345 44.7055 31.0754 0 0 161
25.6369 43.1749 31.8621 0 0 140
26.0308 44.3448 29.7626 0 0 154
26.1983 43.9091 31.2805 0 0 154
38.7014 35.2428 27.6352 0 0 143
38.9219 35.9184 26.6262 0 0 143
39.5402 34.7862 28.6666 0 0 194
38.7014 35.2428 27.6352 0 0 169
38.4142 34.653 28.7917 0 0 169
37.1826 26.0555 36.6102 0 0 162
36.577 26.7341 36.2511 0 0 162
36.6847 26.8357 37.5767 0 0 184
37.8069 25.4206 35.6301 0 0 162
37.1826 26.0555 36.6102 0 0 162
37.9146 25.5221 36.9557 0 0 183
38.9977 25.0738 34.7933 0 0 141
37.8069 25.4206 35.6301 0 0 141
40.9509 19.6409 30.021 0 0 163
41.8813 20.3006 29.8156 0 0 163
42.5382 20.2384 30.7228 0 0 185
40.9509 19.6409 30.021 0 0 141
40.0926 19.1236 30.4784 0 0 141
40.2465 12.5473 44.7203 0 0 181
40.6696 13.0768 45.8368 0 0 212
39.8886 11.6167 45.6608 0 0 181
40.3213 13.3933 43.9411 0 0 146
40.2465 12.5473 44.7203 0 0 146
42.5878 3.48236 46.3497 0 0 166
41.8549 2.96667 47.01 0 0 189
43.0042 2.32423 46.5654 0 0 166
41.6708 3.90945 45.6355 0 0 168
42.5878 3.48236 46.3497 0 0 168
42.8201 3.26701 45.1908 0 0 144
40.7033 4.50618 45.9768 0 0 140
41.6708 3.90945 45.6355 0 0 140
40.2152 37.5427 21.1637 0 0 147
39.9927 38.8119 20.6024 0 0 147
41.6434 37.015 22.1071 0 0 209
40.9898 36.3355 21.4176 0 0 179
40.2152 37.5427 21.1637 0 0 179
38.7439 41.9522 18.542 0 0 191
38.5734 42.8247 17.2809 0 0 191
39.1783 43.4651 18.4681 0 0 227
38.7439 41.9522 18.542 0 0 154
39.2327 40.9971 19.5403 0 0 154
32.4711 44.0865 21.5931 0 0 149
32.8552 42.8401 22.2269 0 0 149
33.3921 45.2495 21.3418 0 0 201
32.4919 44.9464 20.5771 0 0 174
32.4711 44.0865 21.5931 0 0 174
30.1336 24.8521 44.1633 0 0 141
30.6169 24.2101 45.2377 0 0 141
30.3325 25.8771 43.5678 0 0 141
30.1336 24.8521 44.1633 0 0 141
31.0203 26.3839 44.2584 0 0 188
30.5009 26.9394 43.0231 0 0 165
30.3325 25.8771 43.5678 0 0 165
29.9728 6.49392 51.3632 0 0 148
30.7152 7.69751 51.6527 0 0 148
29.5917 5.23485 51.7664 0 0 147
29.9728 6.49392 51.3632 0 0 147
29.079 3.92679 52.0704 0 0 172
30.0356 5.05561 52.7095 0 0 198
29.5917 5.23485 51.7664 0 0 172
28.9056 2.41567 51.681 0 0 178
29.079 3.92679 52.0704 0 0 178
28.4617 2.59491 50.7379 0 0 148
29.8816 2.54027 52.1531 0 0 148
28.9056 2.41567 51.681 0 0 148
43.4399 29.3925 21.2417 0 0 145
43.2899 30.197 20.8221 0 0 145
43.4399 29.3925 21.2417 0 0 147
44.4323 29.0479 22.3896 0 0 147
44.8359 28.2926 23.6033 0 0 140
44.5882 27.6489 24.6193 0 0 140
32.9899 50.8815 0.150513 0 0 152
32.5839 50.4967 -1.24807 0 0 152
34.2402 52.0654 0.879191 0 0 211
32.9899 50.8815 0.150513 0 0 180
33.2699 51.4537 1.37495 0 0 180
35.3552 52.4068 3.04013 0 0 214
33.5612 51.7546 2.62335 0 0 182
34.3962 51.5238 3.55985 0 0 182
22.8692 50.8383 21.8906 0 0 191
22.9941 50.3988 23.506 0 0 227
23.0185 49.2481 23.1377 0 0 191
23.3262 52.4663 21.0712 0 0 207
22.8692 50.8383 21.8906 0 0 178
23.3505 51.3156 20.7029 0 0 178
23.3985 54.8433 18.1527 0 0 169
23.6274 54.4817 19.2152 0 0 195
23.5785 53.3053 18.8211 0 0 169
22.9808 56.0381 17.0313 0 0 152
23.3985 54.8433 18.1527 0 0 152
30.4905 32.6068 35.3812 0 0 149
30.179 32.3073 36.2694 0 0 149
30.9469 31.9837 36.4859 0 0 164
30.4905 32.6068 35.3812 0 0 132
30.6078 32.6862 34.5095 0 0 132
37.1034 33.1684 31.8309 0 0 140
37.5781 33.7135 30.7831 0 0 140
37.6391 32.4323 31.7285 0 0 169
37.1034 33.1684 31.8309 0 0 152
36.5531 32.1853 31.8901 0 0 152
36.2631 30.5787 31.9448 0 0 135
35.9616 31.3111 32.1531 0 0 135
37.6091 30.5244 31.6578 0 0 141
36.2631 30.5787 31.9448 0 0 141
38.8203 30.5188 31.5553 0 0 159
38.2999 31.4436 31.6853 0 0 179
37.6091 30.5244 31.6578 0 0 159
39.5232 29.5106 31.4173 0 0 167
40.2139 30.4299 31.4448 0 0 191
38.8203 30.5188 31.5553 0 0 167
40.1896 28.6869 31.419 0 0 138
39.5232 29.5106 31.4173 0 0 138
41.035 27.7138 31.5344 0 0 167
41.7623 28.4486 31.4222 0 0 190
40.1896 28.6869 31.419 0 0 167
39.4214 20.7063 37.3213 0 0 161
39.8221 21.3515 38.2236 0 0 183
39.5372 20.186 38.3312 0 0 161
39.5793 21.2456 36.3483 0 0 139
39.4214 20.7063 37.3213 0 0 139
40.159 21.5731 35.354 0 0 160
40.2861 22.1992 36.2194 0 0 180
39.5793 21.2456 36.3483 0 0 160
40.2439 20.7262 34.6858 0 0 158
40.9508 21.6797 34.5569 0 0 178
40.159 21.5731 35.354 0 0 158
39.7908 20.1085 33.809 0 0 142
40.2439 20.7262 34.6858 0 0 142
40.5112 20.0614 32.9567 0 0 144
39.7908 20.1085 33.809 0 0 144
43.1022 34.2371 21.5275 0 0 184
41.8635 35.1931 21.5294 0 0 184
43.6567 34.8518 22.3591 0 0 217
43.1022 34.2371 21.5275 0 0 144
44.0833 33.5787 21.4345 0 0 144
42.7211 31.9518 19.8115 0 0 145
43.8918 32.4596 20.6366 0 0 145
43.1788 31.0283 20.2306 0 0 150
42.7211 31.9518 19.8115 0 0 150
44.6235 30.8261 21.3528 0 0 205
43.2899 30.197 20.8221 0 0 176
43.1788 31.0283 20.2306 0 0 176
38.0949 45.1461 10.004 0 0 179
38.3545 45.8794 9.01376 0 0 179
38.4625 46.6409 10.2073 0 0 209
39.0133 44.541 14.9189 0 0 187
39.2871 45.2342 15.9923 0 0 221
38.734 43.6444 16.1336 0 0 187
39.3242 45.161 13.7613 0 0 152
39.0133 44.541 14.9189 0 0 152
39.1421 45.9996 13.0605 0 0 175
39.3842 46.9693 14.0767 0 0 203
39.3242 45.161 13.7613 0 0 175
38.6425 45.0495 11.9713 0 0 186
38.7025 46.8578 12.2867 0 0 219
39.1421 45.9996 13.0605 0 0 186
38.0823 44.376 10.9555 0 0 147
38.6425 45.0495 11.9713 0 0 147
38.0949 45.1461 10.004 0 0 148
38.0823 44.376 10.9555 0 0 148
32.5464 46.2609 17.8956 0 0 182
32.5527 45.7061 19.3957 0 0 182
33.4065 46.6642 18.8257 0 0 213
32.5464 46.2609 17.8956 0 0 147
32.4209 46.8653 16.6486 0 0 147
33.3084 49.6888 13.0251 0 0 142
33.5598 49.4598 14.2582 0 0 142
33.0107 49.7019 11.6466 0 0 168
33.3084 49.6888 13.0251 0 0 168
34.087 49.9644 12.1528 0 0 193
32.6029 49.461 10.3947 0 0 145
33.0107 49.7019 11.6466 0 0 145
33.6309 49.679 9.56017 0 0 146
32.6029 49.461 10.3947 0 0 146
34.5843 50.2613 8.75151 0 0 176
33.6309 49.679 9.56017 0 0 176
34.7428 50.5598 9.96557 0 0 205
35.5427 50.9645 8.26887 0 0 181
34.4308 50.0837 7.86347 0 0 160
34.5843 50.2613 8.75151 0 0 160
30.5435 31.2506 37.9728 0 0 128
30.0335 31.9699 37.1934 0 0 128
31.273 30.2218 39.4319 0 0 130
31.345 29.6303 39.941 0 0 130
31.159 30.6004 38.6785 0 0 140
31.273 30.2218 39.4319 0 0 140
31.9804 30.0052 39.5389 0 0 150
31.2509 31.034 38.0798 0 0 148
30.5435 31.2506 37.9728 0 0 138
31.159 30.6004 38.6785 0 0 138
33.1541 29.4831 36.8456 0 0 155
32.5179 30.0155 36.2419 0 0 155
32.6392 30.0871 37.4873 0 0 173
33.8583 29.0159 37.2224 0 0 137
33.1541 29.4831 36.8456 0 0 137
34.8116 28.7979 37.7093 0 0 164
33.8583 29.0159 37.2224 0 0 164
34.2286 29.3367 38.5779 0 0 186
35.6305 28.3165 38.1413 0 0 189
35.2602 27.9957 36.7858 0 0 166
34.8116 28.7979 37.7093 0 0 166
40.5568 19.1969 39.9964 0 0 162
39.9302 19.6171 39.2205 0 0 162
40.5645 20.411 40.0094 0 0 184
40.282 17.857 39.9686 0 0 163
40.5568 19.1969 39.9964 0 0 163
40.9163 18.6509 40.7575 0 0 184
39.6768 16.6589 39.7649 0 0 143
40.282 17.857 39.9686 0 0 143
39.8439 0.25361 46.2477 0 0 153
39.242 1.17853 47.8999 0 0 153
41.1105 0.481533 46.3642 0 0 156
39.8439 0.25361 46.2477 0 0 156
42.0986 0.826809 46.1091 0 0 176
41.2831 1.46326 47.4809 0 0 204
41.1105 0.481533 46.3642 0 0 176
43.3572 1.32134 46.2766 0 0 184
42.0986 0.826809 46.1091 0 0 184
43.1845 0.33961 45.16 0 0 152
43.0042 2.32423 46.5654 0 0 141
43.3572 1.32134 46.2766 0 0 141
31.7932 17.6341 47.3499 0 0 145
31.7866 16.386 47.6855 0 0 145
32.4271 18.2109 48.0714 0 0 193
31.5996 18.896 47.098 0 0 168
31.7932 17.6341 47.3499 0 0 168
31.4089 7.75143 52.7632 0 0 221
31.5759 9.08527 52.0103 0 0 187
30.7152 7.69751 51.6527 0 0 187
37.0662 2.15246 49.983 0 0 183
36.9688 2.92454 51.8561 0 0 216
36.1627 2.1709 50.4522 0 0 183
38.0307 2.07258 49.7253 0 0 150
37.0662 2.15246 49.983 0 0 150
33.5548 51.189 -1.96752 0 0 160
32.5839 50.4967 -1.24807 0 0 160
34.385 51.3664 -2.82493 0 0 183
33.5548 51.189 -1.96752 0 0 183
34.7904 51.6706 -1.20266 0 0 214
35.3591 52.1045 -3.63598 0 0 155
34.385 51.3664 -2.82493 0 0 155
36.3315 52.2822 -4.32338 0 0 181
35.3591 52.1045 -3.63598 0 0 181
36.593 52.0258 -2.74747 0 0 212
37.4272 52.9567 -4.6511 0 0 150
36.3315 52.2822 -4.32338 0 0 150
37.4272 52.9567 -4.6511 0 0 149
38.6551 52.0487 -3.87231 0 0 149
39.6141 48.7804 -2.7435 0 0 171
39.8953 50.2737 -2.95321 0 0 171
39.4722 49.8542 -1.98715 0 0 197
39.7954 47.4731 -3.78705 0 0 151
39.6141 48.7804 -2.7435 0 0 184
39.3724 47.0536 -2.821 0 0 184
38.5173 44.1986 6.83086 0 0 149
38.4837 45.081 7.92789 0 0 149
39.3008 44.8369 6.17367 0 0 203
38.5173 44.1986 6.83086 0 0 175
38.8376 43.2581 5.95917 0 0 175
39.9039 42.9464 4.56756 0 0 144
39.0934 42.3734 5.11601 0 0 144
40.3197 44.4672 4.61491 0 0 193
39.9039 42.9464 4.56756 0 0 168
40.6025 43.5171 3.88049 0 0 168
38.9632 45.7154 0.337744 0 0 196
39.3718 46.9222 1.42581 0 0 235
39.4013 45.0541 1.42074 0 0 196
38.929 46.2608 -0.700303 0 0 153
38.9632 45.7154 0.337744 0 0 153
16.547 54.8302 23.0297 0 0 190
16.3193 54.2721 24.1887 0 0 190
17.6761 53.5778 23.9035 0 0 226
16.547 54.8302 23.0297 0 0 162
16.6716 54.818 21.4207 0 0 162
18.2383 57.3097 17.299 0 0 221
17.6491 55.8754 18.2783 0 0 221
19.072 56.435 18.9309 0 17 255
18.2383 57.3097 17.299 0 0 162
19.0378 58.2423 16.2966 0 0 162
18.6123 60.8219 12.6015 0 0 153
19.1312 59.5499 13.6911 0 0 153
19.3749 60.7177 11.4076 0 0 148
18.6123 60.8219 12.6015 0 0 148
20.9356 60.1967 13.0402 0 0 173
20.3033 60.0139 14.2083 0 0 201
21.3908 59.7261 14.5081 0 0 173
20.6331 60.6759 11.5973 0 0 147
20.9356 60.1967 13.0402 0 0 147
19.3749 60.7177 11.4076 0 0 148
20.6331 60.6759 11.5973 0 0 148
17.2788 51.9597 26.026 0 0 156
16.0497 53.3335 25.1487 0 0 156
17.9734 50.3946 28.5858 0 0 152
17.6625 49.7563 29.9603 0 0 152
18.4529 51.4099 27.4518 0 0 201
17.9734 50.3946 28.5858 0 0 201
19.3172 50.9048 29.0481 0 0 243
18.6225 52.4699 26.4883 0 0 234
17.2788 51.9597 26.026 0 0 195
18.4529 51.4099 27.4518 0 0 195
21.441 48.8593 31.3508 0 0 150
20.381 49.3198 31.6345 0 0 150
22.6922 48.2708 31.4327 0 0 153
23.5726 47.3749 31.2614 0 0 153
22.4988 49.9067 31.2104 0 0 223
21.441 48.8593 31.3508 0 0 188
22.6922 48.2708 31.4327 0 0 188
24.9544 47.0411 27.6813 0 0 196
25.505 46.8138 29.368 0 0 235
25.4453 45.667 28.807 0 0 196
24.019 47.3515 25.9367 0 0 207
24.0787 48.4983 26.4977 0 0 250
24.9544 47.0411 27.6813 0 0 207
23.0647 47.6637 24.3002 0 0 160
24.019 47.3515 25.9367 0 0 160
34.0413 39.9725 23.0313 0 0 146
33.2062 41.3654 22.6485 0 0 146
35.0549 40.0548 23.1726 0 0 146
34.0413 39.9725 23.0313 0 0 146
35.9853 40.0389 23.1695 0 0 164
35.0037 41.4243 23.198 0 0 187
35.0549 40.0548 23.1726 0 0 164
37.3074 39.9424 23.7652 0 0 225
35.9853 40.0389 23.1695 0 0 189
37.3586 38.5729 23.7399 0 0 189
40.2635 36.4479 26.8061 0 0 208
39.358 36.9904 25.9222 0 0 179
38.9219 35.9184 26.6262 0 0 179
38.7213 33.8059 30.7462 0 0 178
38.1099 34.1039 29.8601 0 0 158
37.5781 33.7135 30.7831 0 0 158
35.9124 27.3104 35.8621 0 0 141
36.577 26.7341 36.2511 0 0 141
41.8012 26.8897 31.7917 0 0 140
41.035 27.7138 31.5344 0 0 140
40.1411 24.6776 34.2145 0 0 165
38.9977 25.0738 34.7933 0 0 165
39.6822 24.491 35.3969 0 0 188
40.9005 25.0305 33.5089 0 0 161
40.1411 24.6776 34.2145 0 0 161
41.585 24.4476 34.1126 0 0 182
41.6696 25.5522 32.7264 0 0 144
40.9005 25.0305 33.5089 0 0 144
42.5592 26.0183 32.3404 0 0 165
41.6696 25.5522 32.7264 0 0 165
43.2341 25.2666 33.021 0 0 189
43.3657 26.6041 32.0862 0 0 189
41.8012 26.8897 31.7917 0 0 166
42.5592 26.0183 32.3404 0 0 166
43.2555 22.6228 28.9562 0 0 167
43.3576 23.4126 28.4342 0 0 167
44.569 23.2765 29.3233 0 0 192
43.2555 22.6228 28.9562 0 0 142
43.0266 21.9062 29.3681 0 0 142
42.5274 21.112 29.7042 0 0 142
41.8813 20.3006 29.8156 0 0 142
40.031 15.9167 40.679 0 0 181
40.8415 16.6551 41.7798 0 0 213
40.2311 15.2608 41.7291 0 0 181
39.6768 16.6589 39.7649 0 0 149
40.031 15.9167 40.679 0 0 149
40.0825 2.01405 49.1842 0 0 213
39.0296 2.07459 49.3481 0 0 181
39.242 1.17853 47.8999 0 0 181
39.1681 7.0552 47.5732 0 0 165
39.7473 6.3998 48.356 0 0 188
39.5517 6.00946 47.1225 0 0 165
38.9515 8.11672 46.459 0 0 182
39.1471 8.50707 47.6924 0 0 213
39.1681 7.0552 47.5732 0 0 182
38.6203 9.02909 45.4258 0 0 149
38.9515 8.11672 46.459 0 0 149
39.198 10.3279 45.5612 0 0 147
38.6203 9.02909 45.4258 0 0 147
3 0 68 66
3 0 66 69
3 0 69 71
3 1 262 263
3 1 264 266
3 264 73 265
3 264 265 266
3 1 75 73
3 2 267 269
3 269 268 76
3 267 268 269
3 2 270 271
3 3 79 77
3 3 272 273
3 3 274 276
3 274 77 275
3 274 275 276
3 278 277 80
3 279 84 280
3 281 280 82
3 279 280 281
3 4 87 85
3 4 89 87
3 5 92 90
3 5 95 93
3 5 90 95
3 6 98 97
3 6 100 98
3 6 102 100
3 8 105 103
3 8 107 105
3 282 108 283
3 284 110 285
3 286 285 108
3 284 285 286
3 287 112 288
3 290 289 112
3 10 116 114
3 10 118 116
3 291 121 292
3 293 292 119
3 291 292 293
3 11 124 122
3 294 127 295
3 296 295 125
3 294 295 296
3 298 297 127
3 299 131 300
3 12 134 132
3 12 136 134
3 7 138 137
3 301 141 302
3 303 302 139
3 301 302 303
3 304 143 305
3 306 305 141
3 304 305 306
3 308 307 143
3 9 146 144
3 13 149 147
3 13 309 311
3 311 310 149
3 309 310 311
3 14 312 314
3 312 152 313
3 312 313 314
3 16 153 67
3 16 154 153
3 17 157 155
3 14 158 70
3 14 315 317
3 317 316 158
3 315 316 317
3 19 318 320
3 318 159 319
3 318 319 320
3 17 160 72
3 17 155 160
3 21 321 323
3 321 161 322
3 321 322 323
3 21 162 161
3 21 164 162
3 23 165 74
3 23 166 165
3 25 324 326
3 326 325 168
3 324 325 326
3 327 170 328
3 27 171 78
3 27 172 171
3 28 175 173
3 329 176 330
3 332 331 176
3 30 333 335
3 333 334 335
3 337 336 81
3 338 178 339
3 32 181 179
3 34 184 182
3 36 185 83
3 36 186 185
3 15 340 341
3 37 342 344
3 344 343 86
3 342 343 344
3 37 345 347
3 345 187 346
3 345 346 347
3 37 188 187
3 38 189 88
3 38 190 189
3 39 193 191
3 41 194 91
3 41 195 194
3 18 196 156
3 20 348 349
3 351 350 94
3 39 197 96
3 39 191 197
3 42 198 99
3 42 199 198
3 42 200 199
3 44 201 101
3 44 202 201
3 22 203 163
3 45 204 104
3 45 205 204
3 45 206 205
3 46 207 106
3 46 208 207
3 48 352 353
3 48 354 356
3 354 210 355
3 354 355 356
3 48 212 210
3 50 213 109
3 50 214 213
3 24 215 167
3 51 216 111
3 51 217 216
3 51 218 217
3 357 219 358
3 359 358 113
3 357 358 359
3 361 360 219
3 26 220 169
3 52 221 115
3 52 362 364
3 364 363 221
3 362 363 364
3 52 365 366
3 368 367 117
3 40 222 192
3 53 223 120
3 53 224 223
3 369 225 370
3 369 370 371
3 372 226 373
3 374 227 375
3 376 375 226
3 374 375 376
3 378 377 227
3 54 379 380
3 55 381 383
3 383 382 123
3 381 382 383
3 55 384 385
3 29 228 174
3 56 229 126
3 56 386 388
3 388 387 229
3 386 387 388
3 56 389 391
3 389 230 390
3 389 390 391
3 57 231 128
3 57 232 231
3 58 392 394
3 392 233 393
3 392 393 394
3 58 234 233
3 58 235 234
3 396 395 129
3 397 236 398
3 399 237 400
3 401 400 236
3 399 400 401
3 59 238 130
3 59 239 238
3 31 240 177
3 60 241 133
3 60 242 241
3 60 243 242
3 61 244 135
3 61 245 244
3 43 402 403
3 33 246 180
3 62 247 140
3 62 248 247
3 62 249 248
3 63 250 142
3 63 251 250
3 63 404 406
3 406 405 251
3 404 405 406
3 49 252 211
3 64 253 145
3 64 254 253
3 35 255 183
3 65 256 148
3 65 257 256
3 65 258 257
3 407 259 408
3 409 408 150
3 407 408 409
3 412 411 259
3 410 411 412
3 47 260 209
3 413 261 414
3 415 414 151
3 413 414 415
3 417 416 261
3 66 67 14
3 68 67 66
3 68 16 67
3 69 70 17
3 66 70 69
3 66 14 70
3 71 72 19
3 69 72 71
3 69 17 72
3 73 418 419
3 73 420 422
3 420 21 421
3 420 421 422
3 73 74 21
3 75 74 73
3 75 23 74
3 76 423 425
3 425 424 25
3 423 424 425
3 427 426 76
3 77 428 430
3 428 78 429
3 428 429 430
3 79 78 77
3 79 27 78
3 432 431 28
3 77 433 434
3 77 435 436
3 80 81 30
3 437 81 438
3 439 438 80
3 437 438 439
3 441 440 81
3 443 442 32
3 82 83 34
3 84 83 82
3 84 36 83
3 85 86 15
3 87 86 85
3 87 37 86
3 87 88 37
3 89 88 87
3 89 38 88
3 90 91 39
3 92 91 90
3 92 41 91
3 445 444 18
3 93 94 20
3 95 94 93
3 95 446 448
3 448 447 94
3 446 447 448
3 95 449 451
3 449 96 450
3 449 450 451
3 90 96 95
3 90 39 96
3 97 452 453
3 98 454 456
3 456 455 97
3 454 455 456
3 98 457 458
3 98 459 461
3 459 99 460
3 459 460 461
3 100 99 98
3 100 42 99
3 100 101 42
3 102 101 100
3 102 44 101
3 103 104 22
3 105 104 103
3 105 45 104
3 105 106 45
3 107 106 105
3 107 46 106
3 108 462 463
3 108 464 466
3 464 48 465
3 464 465 466
3 108 109 48
3 110 109 108
3 110 50 109
3 467 111 468
3 469 468 24
3 467 468 469
3 112 470 472
3 470 111 471
3 470 471 472
3 112 51 111
3 112 113 51
3 473 113 474
3 475 474 112
3 473 474 475
3 477 476 113
3 114 115 26
3 116 115 114
3 116 52 115
3 116 117 52
3 118 117 116
3 118 478 480
3 480 479 117
3 478 479 480
3 119 120 40
3 121 120 119
3 121 53 120
3 122 123 54
3 124 123 122
3 124 55 123
3 125 126 29
3 127 126 125
3 127 56 126
3 127 481 483
3 483 482 56
3 481 482 483
3 485 484 127
3 486 128 487
3 486 487 488
3 489 128 490
3 491 57 492
3 493 492 128
3 491 492 493
3 494 58 495
3 496 129 497
3 498 497 58
3 496 497 498
3 499 129 500
3 499 500 501
3 503 502 129
3 504 130 505
3 131 506 508
3 506 130 507
3 506 507 508
3 131 59 130
3 132 133 31
3 134 133 132
3 134 60 133
3 134 135 60
3 136 135 134
3 136 61 135
3 137 509 511
3 511 510 43
3 509 510 511
3 138 512 514
3 514 513 137
3 512 513 514
3 138 515 516
3 139 140 33
3 141 140 139
3 141 62 140
3 141 142 62
3 143 142 141
3 143 63 142
3 143 517 519
3 519 518 63
3 517 518 519
3 521 520 143
3 144 145 49
3 146 145 144
3 146 64 145
3 147 148 35
3 149 148 147
3 149 65 148
3 149 150 65
3 522 150 523
3 524 523 149
3 522 523 524
3 526 525 150
3 527 151 528
3 529 528 47
3 527 528 529
3 530 151 531
3 530 531 532
3 534 533 151
3 152 535 536
3 152 537 539
3 537 15 538
3 537 538 539
3 67 152 14
3 153 152 67
3 153 15 152
3 153 85 15
3 154 85 153
3 154 4 85
3 155 156 5
3 157 156 155
3 157 18 156
3 70 157 17
3 158 157 70
3 158 18 157
3 158 540 542
3 542 541 18
3 540 541 542
3 544 543 158
3 159 545 546
3 159 547 549
3 547 20 548
3 547 548 549
3 72 159 19
3 160 159 72
3 160 20 159
3 160 93 20
3 155 93 160
3 155 5 93
3 161 550 551
3 161 552 553
3 161 554 556
3 554 97 555
3 554 555 556
3 162 97 161
3 162 6 97
3 162 163 6
3 164 163 162
3 164 22 163
3 74 164 21
3 165 164 74
3 165 22 164
3 165 103 22
3 166 103 165
3 166 8 103
3 557 167 558
3 559 167 560
3 561 24 562
3 563 562 167
3 561 562 563
3 564 24 565
3 564 565 566
3 568 567 24
3 168 569 570
3 572 571 168
3 574 573 25
3 575 169 576
3 170 577 579
3 577 169 578
3 577 578 579
3 170 26 169
3 78 580 582
3 580 170 581
3 580 581 582
3 171 170 78
3 171 26 170
3 171 114 26
3 172 114 171
3 172 10 114
3 173 174 11
3 175 174 173
3 175 29 174
3 583 175 584
3 585 584 28
3 583 584 585
3 176 586 588
3 586 175 587
3 586 587 588
3 176 29 175
3 176 125 29
3 589 125 590
3 591 590 176
3 589 590 591
3 593 592 125
3 81 594 596
3 596 595 30
3 594 595 596
3 598 597 81
3 599 177 600
3 178 601 603
3 601 177 602
3 601 602 603
3 178 31 177
3 604 178 605
3 606 178 607
3 608 31 609
3 610 609 178
3 608 609 610
3 611 132 612
3 613 612 31
3 611 612 613
3 614 132 615
3 616 12 617
3 618 617 132
3 616 617 618
3 179 180 7
3 181 180 179
3 181 33 180
3 619 181 620
3 621 620 32
3 619 620 621
3 622 181 623
3 624 33 625
3 626 625 181
3 624 625 626
3 627 139 628
3 629 628 33
3 627 628 629
3 630 139 631
3 633 632 139
3 182 183 9
3 184 183 182
3 184 35 183
3 83 184 34
3 185 184 83
3 185 35 184
3 185 147 35
3 186 147 185
3 186 13 147
3 86 634 636
3 636 635 15
3 634 635 636
3 638 637 86
3 187 639 640
3 187 641 642
3 187 643 645
3 643 168 644
3 643 644 645
3 188 168 187
3 188 25 168
3 88 188 37
3 189 188 88
3 189 25 188
3 189 76 25
3 190 76 189
3 190 2 76
3 191 192 3
3 193 192 191
3 193 40 192
3 91 193 39
3 194 193 91
3 194 40 193
3 194 119 40
3 195 119 194
3 195 646 648
3 648 647 119
3 646 647 648
3 156 92 5
3 196 92 156
3 196 41 92
3 649 196 650
3 651 650 18
3 649 650 651
3 652 196 653
3 654 41 655
3 656 655 196
3 654 655 656
3 657 195 658
3 659 658 41
3 657 658 659
3 660 195 661
3 663 662 195
3 94 664 666
3 666 665 20
3 664 665 666
3 668 667 94
3 96 669 670
3 197 671 673
3 673 672 96
3 671 672 673
3 197 674 675
3 197 676 677
3 191 678 680
3 680 679 197
3 678 679 680
3 191 681 683
3 681 3 682
3 681 682 683
3 684 30 685
3 99 686 687
3 198 688 690
3 690 689 99
3 688 689 690
3 198 691 693
3 691 30 692
3 691 692 693
3 198 80 30
3 199 80 198
3 199 694 696
3 696 695 80
3 694 695 696
3 199 697 698
3 200 699 701
3 701 700 199
3 699 700 701
3 200 702 704
3 702 43 703
3 702 703 704
3 101 200 42
3 201 200 101
3 201 43 200
3 201 137 43
3 202 137 201
3 202 7 137
3 163 102 6
3 203 102 163
3 203 44 102
3 104 203 22
3 204 203 104
3 204 44 203
3 204 202 44
3 205 202 204
3 205 7 202
3 205 179 7
3 206 179 205
3 206 32 179
3 106 206 45
3 207 206 106
3 207 32 206
3 207 705 707
3 707 706 32
3 705 706 707
3 208 708 710
3 710 709 207
3 708 709 710
3 208 711 712
3 713 209 714
3 715 209 716
3 717 47 718
3 719 718 209
3 717 718 719
3 720 47 721
3 720 721 722
3 724 723 47
3 210 725 726
3 210 727 729
3 727 1 728
3 727 728 729
3 210 211 1
3 212 211 210
3 212 49 211
3 109 212 48
3 213 212 109
3 213 49 212
3 213 144 49
3 214 144 213
3 214 9 144
3 167 730 732
3 730 110 731
3 730 731 732
3 215 110 167
3 215 50 110
3 111 215 24
3 216 215 111
3 216 50 215
3 216 214 50
3 217 214 216
3 217 9 214
3 217 182 9
3 218 182 217
3 218 34 182
3 113 218 51
3 219 218 113
3 219 34 218
3 219 82 34
3 733 82 734
3 735 734 219
3 733 734 735
3 737 736 82
3 169 738 739
3 220 740 742
3 742 741 169
3 740 741 742
3 220 743 744
3 115 220 26
3 221 220 115
3 221 745 747
3 747 746 220
3 745 746 747
3 221 748 749
3 751 750 221
3 117 752 754
3 754 753 52
3 752 753 754
3 757 756 117
3 755 756 757
3 192 79 3
3 222 79 192
3 222 27 79
3 120 222 40
3 223 222 120
3 223 27 222
3 223 172 27
3 224 172 223
3 224 10 172
3 758 121 759
3 225 760 762
3 760 121 761
3 760 761 762
3 225 53 121
3 763 225 764
3 226 765 767
3 765 225 766
3 765 766 767
3 226 53 225
3 226 224 53
3 227 224 226
3 227 10 224
3 227 118 10
3 768 118 769
3 770 769 227
3 768 769 770
3 772 771 118
3 123 773 775
3 775 774 54
3 773 774 775
3 777 776 123
3 174 124 11
3 228 124 174
3 228 55 124
3 126 228 29
3 229 228 126
3 229 55 228
3 229 778 780
3 780 779 55
3 778 779 780
3 782 781 229
3 230 783 784
3 230 785 786
3 787 230 788
3 789 788 56
3 787 788 789
3 790 230 791
3 793 792 230
3 794 54 795
3 128 796 797
3 231 798 800
3 800 799 128
3 798 799 800
3 231 801 803
3 801 54 802
3 801 802 803
3 231 122 54
3 232 122 231
3 232 11 122
3 804 57 805
3 233 806 807
3 233 808 810
3 808 57 809
3 808 809 810
3 233 232 57
3 234 232 233
3 234 11 232
3 234 173 11
3 235 173 234
3 235 28 173
3 129 235 58
3 811 235 812
3 813 812 129
3 811 812 813
3 814 28 815
3 816 815 235
3 814 815 816
3 818 817 28
3 819 19 820
3 821 19 822
3 823 71 824
3 825 824 19
3 823 824 825
3 236 826 828
3 826 71 827
3 826 827 828
3 236 0 71
3 236 68 0
3 237 68 236
3 237 16 68
3 130 829 831
3 829 237 830
3 829 830 831
3 238 237 130
3 238 16 237
3 238 154 16
3 239 154 238
3 239 4 154
3 177 832 834
3 832 131 833
3 832 833 834
3 240 131 177
3 240 59 131
3 133 240 31
3 241 240 133
3 241 59 240
3 241 239 59
3 242 239 241
3 242 4 239
3 242 89 4
3 243 89 242
3 243 38 89
3 135 243 60
3 244 243 135
3 244 38 243
3 244 190 38
3 245 190 244
3 245 2 190
3 836 835 43
3 837 12 838
3 180 138 7
3 246 138 180
3 246 839 841
3 841 840 138
3 839 840 841
3 140 246 33
3 247 246 140
3 247 842 844
3 844 843 246
3 842 843 844
3 247 845 846
3 248 847 849
3 849 848 247
3 847 848 849
3 248 850 852
3 850 12 851
3 850 851 852
3 248 136 12
3 249 136 248
3 249 61 136
3 142 249 62
3 250 249 142
3 250 61 249
3 250 245 61
3 251 245 250
3 251 2 245
3 251 853 855
3 855 854 2
3 853 854 855
3 857 856 251
3 859 858 63
3 211 75 1
3 252 75 211
3 252 23 75
3 145 252 49
3 253 252 145
3 253 23 252
3 253 166 23
3 254 166 253
3 254 8 166
3 183 146 9
3 255 146 183
3 255 64 146
3 148 255 35
3 256 255 148
3 256 64 255
3 256 254 64
3 257 254 256
3 257 8 254
3 257 107 8
3 258 107 257
3 258 46 107
3 150 258 65
3 259 258 150
3 259 46 258
3 259 208 46
3 860 208 861
3 862 861 259
3 860 861 862
3 864 863 208
3 209 865 867
3 865 84 866
3 865 866 867
3 260 84 209
3 260 36 84
3 151 260 47
3 261 260 151
3 261 36 260
3 261 186 36
3 868 186 869
3 870 869 261
3 868 869 870
3 871 13 872
3 873 872 186
3 871 872 873
3 874 13 875
3 877 876 13
