ply
format ascii 1.0
element vertex 108
property float x
property float y
property float z
property uchar red
property uchar green
property uchar blue
element face 91
property list uchar int vertex_index
end_header
4.76497 88.2639 8.05888 154 255 101
1.82644 82.9429 18.2196 96 255 159
0.839647 91.0351 8.53991 235 255 20
-0.868327 88.4123 14.1045 255 107 0
3.28132 85.9301 13.0253 219 0 0
6.7793 83.8478 11.6954 0 141 255
2.81223 89.7837 8.14385 205 255 50
0.568092 85.7163 16.1409 245 255 10
1.19695 87.3164 13.4365 137 0 0
2.42355 84.7011 15.5023 191 0 0
6.63641 87.0048 7.54416 0 148 255
3.70859 82.0547 17.3123 75 255 180
-1.18711 92.1433 9.11767 128 255 127
-3.02823 89.5272 14.7367 0 255 255
-2.14737 90.8997 11.964 255 243 0
-0.092427 89.8177 11.3612 128 0 0
1.95076 88.6 10.8607 148 0 0
3.88376 87.3393 10.4443 234 0 0
4.31619 83.6173 14.8118 159 255 96
5.07533 84.9393 12.3 241 255 14
5.848 86.038 9.91915 227 255 28
4.25941 89.4485 6.85567 0 0 180
3.28304 90.2084 6.89816 0 0 180
3.7886 89.0238 8.10136 0 0 220
0.868682 83.4363 18.5782 0 0 140
1.50608 82.0756 19.511 0 0 140
1.19727 84.3296 17.1802 0 0 232
0.239507 84.823 17.5389 0 0 187
0.868682 83.4363 18.5782 0 0 187
7.06017 87.3549 6.43526 0 0 129
7.4479 86.3354 7.44303 0 0 129
0.24628 92.1711 7.4367 0 0 183
-0.7671 92.7252 7.72558 0 0 183
-0.173733 91.5892 8.82879 0 0 226
-1.94828 88.9698 14.4206 0 0 245
-2.28505 88.1367 15.8259 0 0 196
-1.2051 87.5792 15.5098 0 0 196
4.92148 82.3198 15.6693 0 0 176
4.01239 82.836 16.062 0 0 215
4.61767 81.5385 16.9196 0 0 176
5.92732 84.3936 11.9977 0 0 205
5.63912 83.683 13.2142 0 0 169
6.49111 83.1373 12.9119 0 0 169
7.14266 84.3672 10.5604 0 0 161
6.67701 85.4623 9.67224 0 0 161
6.31365 84.9429 10.8073 0 0 192
2.26973 90.9091 7.03192 0 0 179
1.28344 91.5349 7.22995 0 0 179
1.82594 90.4094 8.34188 0 0 219
2.26973 90.9091 7.03192 0 0 139
3.28304 90.2084 6.89816 0 0 139
-0.486888 86.2312 16.528 0 0 147
0.239507 84.823 17.5389 0 0 147
-0.150117 87.0643 15.1227 0 0 241
-1.2051 87.5792 15.5098 0 0 193
-0.486888 86.2312 16.528 0 0 193
7.31957 82.6508 12.4979 0 0 133
6.49111 83.1373 12.9119 0 0 133
7.62335 83.2866 11.3493 0 0 132
7.31957 82.6508 12.4979 0 0 132
6.1316 88.0857 6.55129 0 0 172
5.19588 88.7153 6.80865 0 0 172
5.70069 87.6344 7.80152 0 0 209
6.1316 88.0857 6.55129 0 0 133
7.06017 87.3549 6.43526 0 0 133
2.47655 81.6482 19.0219 0 0 140
1.50608 82.0756 19.511 0 0 140
3.41763 81.2041 18.5683 0 0 178
2.76751 82.4988 17.7659 0 0 218
2.47655 81.6482 19.0219 0 0 178
4.30987 80.7349 18.145 0 0 137
3.41763 81.2041 18.5683 0 0 137
4.61767 81.5385 16.9196 0 0 137
4.30987 80.7349 18.145 0 0 137
-1.88007 93.408 7.87852 0 0 149
-2.31968 92.8001 9.32411 0 0 149
-1.88007 93.408 7.87852 0 0 147
-0.7671 92.7252 7.72558 0 0 147
0.24628 92.1711 7.4367 0 0 140
1.28344 91.5349 7.22995 0 0 140
4.25941 89.4485 6.85567 0 0 138
5.19588 88.7153 6.80865 0 0 138
-3.33456 88.7079 16.0875 0 0 145
-2.28505 88.1367 15.8259 0 0 145
-4.01993 90.0027 15.0319 0 0 141
-3.33456 88.7079 16.0875 0 0 141
-3.64745 90.7892 13.5865 0 0 143
-4.01993 90.0027 15.0319 0 0 143
-3.20702 91.4754 12.2001 0 0 190
-3.64745 90.7892 13.5865 0 0 190
-2.5878 90.2135 13.3503 0 0 236
-2.79981 92.1783 10.7472 0 0 146
-3.20702 91.4754 12.2001 0 0 146
-1.66724 91.5215 10.5408 0 0 248
-2.31968 92.8001 9.32411 0 0 198
-2.79981 92.1783 10.7472 0 0 198
5.25955 83.022 14.4701 0 0 137
4.92148 82.3198 15.6693 0 0 137
4.69576 84.2783 13.5559 0 0 217
5.25955 83.022 14.4701 0 0 177
5.63912 83.683 13.2142 0 0 177
7.07122 85.9457 8.48475 0 0 162
6.2422 86.5214 8.73165 0 0 194
6.67701 85.4623 9.67224 0 0 162
7.4479 86.3354 7.44303 0 0 128
7.07122 85.9457 8.48475 0 0 128
7.14266 84.3672 10.5604 0 0 130
7.62335 83.2866 11.3493 0 0 130
3 0 21 23
3 23 22 6
3 21 22 23
3 1 24 25
3 1 26 28
3 26 7 27
3 26 27 28
3 1 9 7
3 30 29 10
3 2 31 33
3 33 32 12
3 31 32 33
3 3 34 36
3 34 13 35
3 34 35 36
3 3 14 13
3 3 15 14
3 4 16 8
3 4 17 16
3 37 18 38
3 39 38 11
3 37 38 39
3 5 40 42
3 40 19 41
3 40 41 42
3 5 20 19
3 5 43 45
3 45 44 20
3 43 44 45
3 6 46 48
3 48 47 2
3 46 47 48
3 50 49 6
3 7 51 52
3 7 53 55
3 53 3 54
3 53 54 55
3 7 8 3
3 9 8 7
3 9 4 8
3 56 5 57
3 59 58 5
3 10 60 62
3 62 61 0
3 60 61 62
3 64 63 10
3 65 1 66
3 67 11 68
3 69 68 1
3 67 68 69
3 70 11 71
3 73 72 11
3 12 74 75
3 77 76 12
3 79 78 2
3 81 80 0
3 13 82 83
3 13 84 85
3 13 86 87
3 14 88 90
3 90 89 13
3 88 89 90
3 14 91 92
3 14 93 95
3 93 12 94
3 93 94 95
3 15 12 14
3 15 2 12
3 8 15 3
3 16 15 8
3 16 2 15
3 16 6 2
3 17 6 16
3 17 0 6
3 11 9 1
3 18 9 11
3 18 4 9
3 96 18 97
3 19 98 100
3 98 18 99
3 98 99 100
3 19 4 18
3 19 17 4
3 20 17 19
3 20 0 17
3 20 10 0
3 101 10 102
3 103 102 20
3 101 102 103
3 105 104 10
3 107 106 5
