ply
format ascii 1.0
element vertex 175
property float x
property float y
property float z
property uchar red
property uchar green
property uchar blue
element face 169
property list uchar int vertex_index
end_header
0.00713 -70.2592 56.205 160 0 0
-2.01227 -59.4821 53.7104 249 0 0
-0.707052 -65.4655 60.1418 224 0 0
-1.91024 -60.505 58.5577 253 0 0
-0.883165 -64.9674 54.956 187 0 0
-0.220692 -69.9936 51.0089 128 0 0
-3.308 -55.2914 56.8065 22 255 233
-2.91909 -53.6886 52.4721 224 255 31
-1.18531 -64.2504 50.0431 156 0 0
-1.95121 -58.1894 49.2725 255 214 0
-2.08676 -51.8425 48.6311 16 255 239
-0.3041 -67.7908 58.2024 191 0 0
-0.766594 -65.2421 57.5189 204 0 0
-0.38159 -67.628 55.5829 170 0 0
-1.9663 -60.0319 56.0812 252 0 0
-2.61488 -57.9415 57.7002 255 247 0
-2.59395 -57.327 55.3331 255 32 0
-3.16257 -54.5335 54.5676 124 255 131
-2.51929 -56.6279 53.092 255 37 0
-0.399 -69.7879 48.4828 248 255 7
-0.68981 -67.1597 50.5023 135 0 0
-0.861824 -66.8475 48.0545 242 255 13
-1.62471 -60.6871 47.4092 86 255 169
-2.10852 -55.0467 48.9436 145 255 110
-1.2233 -63.285 62.0065 168 255 87
-1.86782 -60.9015 61.1314 163 255 92
-1.25597 -63.0044 59.3733 236 0 0
-1.33747 -62.6635 56.8104 224 0 0
-1.4469 -62.2579 54.3312 213 0 0
0.236134 -72.8415 54.1684 233 255 22
-0.077091 -70.1488 53.5858 142 0 0
0.148615 -72.7639 51.551 241 255 14
0.000744 -72.6384 48.9709 114 255 141
-0.721407 -65.6436 62.8068 54 255 201
-0.303099 -67.914 60.8572 190 255 65
0.01539 -70.3317 58.8535 211 255 44
0.248089 -72.8786 56.8109 97 255 158
-2.60529 -58.4647 60.1898 41 255 214
-3.18065 -50.6618 51.8484 0 248 255
-0.518402 -67.4193 53.0134 151 0 0
-1.03345 -64.637 52.4629 171 0 0
-1.55593 -61.7878 51.94 202 0 0
-1.29864 -63.8126 47.6966 228 255 27
-1.62861 -61.2599 49.6348 189 0 0
-2.01848 -58.8629 51.4439 243 0 0
-2.36554 -55.8598 50.9682 255 32 0
-2.56303 -52.781 50.5029 255 75 0
-2.60133 -49.631 50.0385 0 252 255
-0.720085 -68.1878 47.0344 0 0 184
-0.630412 -68.3177 48.2687 0 0 228
-0.488673 -69.658 47.2485 0 0 184
0.254803 -74.1238 51.831 0 0 182
0.192375 -72.8027 52.8597 0 0 226
0.298563 -74.1627 53.1396 0 0 182
0.048931 -73.9603 47.9476 0 0 138
0.130781 -74.0243 49.2356 0 0 138
-0.091637 -72.5484 47.7041 0 0 138
0.048931 -73.9603 47.9476 0 0 138
-0.772749 -65.7126 64.1475 0 0 132
-0.988574 -64.5775 63.7475 0 0 132
-0.1838 -69.1429 61.1848 0 0 135
-0.34764 -67.9585 62.1912 0 0 135
-0.024556 -70.3518 60.183 0 0 175
-0.143854 -69.1228 59.8554 0 0 216
-0.1838 -69.1429 61.1848 0 0 175
0.284888 -74.1871 57.0979 0 0 137
0.211192 -72.8798 58.1363 0 0 137
0.316032 -74.1945 55.7775 0 0 137
0.284888 -74.1871 57.0979 0 0 137
-3.34061 -55.6195 57.999 0 0 169
-2.99405 -56.9445 58.4458 0 0 169
-2.96144 -56.6165 57.2533 0 0 206
-3.7071 -54.3091 57.478 0 0 131
-3.34061 -55.6195 57.999 0 0 131
-3.61937 -53.9143 56.3458 0 0 130
-3.7071 -54.3091 57.478 0 0 130
-3.27182 -52.6649 53.1301 0 0 164
-3.39357 -53.0874 54.1778 0 0 164
-3.04083 -54.1111 53.5199 0 0 199
-3.04987 -52.1752 52.1603 0 0 197
-3.4026 -51.1515 52.8182 0 0 163
-3.27182 -52.6649 53.1301 0 0 163
-1.31443 -63.573 46.5592 0 0 138
-1.14591 -65.1488 46.6849 0 0 138
-1.99369 -50.2145 48.4745 0 0 164
-2.25098 -49.1087 49.1782 0 0 164
-2.34404 -50.7368 49.3348 0 0 199
-1.56571 -60.3874 46.3324 0 0 137
-1.47747 -62.0102 46.4155 0 0 137
-1.70126 -59.0852 47.2955 0 0 136
-1.56571 -60.3874 46.3324 0 0 136
-1.86451 -57.8363 48.2272 0 0 176
-1.78796 -59.4382 48.3408 0 0 216
-1.70126 -59.0852 47.2955 0 0 176
-1.94317 -56.2649 48.0627 0 0 173
-2.02987 -56.618 49.1081 0 0 213
-1.86451 -57.8363 48.2272 0 0 173
-1.91966 -54.6324 47.9692 0 0 133
-1.94317 -56.2649 48.0627 0 0 133
-1.90878 -53.0304 47.8129 0 0 170
-2.09764 -53.4446 48.7874 0 0 207
-1.91966 -54.6324 47.9692 0 0 170
-1.79031 -51.3758 47.7269 0 0 132
-1.90878 -53.0304 47.8129 0 0 132
-1.54556 -62.0932 61.569 0 0 211
-1.86283 -61.0638 62.4578 0 0 172
-1.54057 -62.2556 62.8953 0 0 172
0.204716 -74.0871 50.5257 0 0 138
0.254803 -74.1238 51.831 0 0 138
0.074679 -72.7011 50.261 0 0 226
0.204716 -74.0871 50.5257 0 0 182
0.130781 -74.0243 49.2356 0 0 182
-0.291509 -71.1231 47.4601 0 0 183
-0.199128 -71.2131 48.7268 0 0 228
-0.091637 -72.5484 47.7041 0 0 183
-0.488673 -69.658 47.2485 0 0 139
-0.291509 -71.1231 47.4601 0 0 139
-1.23952 -63.3982 63.3474 0 0 132
-1.54057 -62.2556 62.8953 0 0 132
-0.972353 -64.4643 62.4067 0 0 211
-1.23952 -63.3982 63.3474 0 0 172
-0.988574 -64.5775 63.7475 0 0 172
-0.556794 -66.8233 63.1661 0 0 133
-0.772749 -65.7126 64.1475 0 0 133
-0.512253 -66.7788 61.832 0 0 211
-0.556794 -66.8233 63.1661 0 0 172
-0.34764 -67.9585 62.1912 0 0 172
0.094842 -71.6063 59.1577 0 0 136
-0.024556 -70.3518 60.183 0 0 136
0.13174 -71.6051 57.8322 0 0 220
0.094842 -71.6063 59.1577 0 0 178
0.211192 -72.8798 58.1363 0 0 178
0.310054 -74.1759 54.4562 0 0 181
0.242112 -72.8601 55.4896 0 0 225
0.316032 -74.1945 55.7775 0 0 181
0.298563 -74.1627 53.1396 0 0 138
0.310054 -74.1759 54.4562 0 0 138
-2.22669 -59.8995 61.9592 0 0 133
-1.86283 -61.0638 62.4578 0 0 133
-2.59542 -58.6812 61.4884 0 0 171
-2.22669 -59.8995 61.9592 0 0 171
-2.23656 -59.6831 60.6606 0 0 210
-2.9914 -57.4809 60.9504 0 0 132
-2.59542 -58.6812 61.4884 0 0 132
-2.98926 -57.2061 59.6906 0 0 169
-2.61009 -58.2031 58.945 0 0 207
-2.99405 -56.9445 58.4458 0 0 169
-2.9914 -57.4809 60.9504 0 0 132
-2.98926 -57.2061 59.6906 0 0 132
-3.54665 -53.5354 55.2263 0 0 165
-3.61937 -53.9143 56.3458 0 0 165
-3.23529 -54.9125 55.687 0 0 201
-3.54665 -53.5354 55.2263 0 0 129
-3.39357 -53.0874 54.1778 0 0 129
-3.56414 -49.653 52.4256 0 0 128
-3.4026 -51.1515 52.8182 0 0 128
-3.23624 -49.1044 51.5357 0 0 128
-3.56414 -49.653 52.4256 0 0 128
-0.927507 -66.6663 46.8638 0 0 139
-0.720085 -68.1878 47.0344 0 0 139
-1.08023 -65.33 47.8756 0 0 227
-0.927507 -66.6663 46.8638 0 0 183
-1.14591 -65.1488 46.6849 0 0 183
-1.46167 -62.2498 47.5529 0 0 224
-1.31443 -63.573 46.5592 0 0 181
-1.47747 -62.0102 46.4155 0 0 181
-2.94658 -48.589 50.6307 0 0 161
-3.23624 -49.1044 51.5357 0 0 161
-2.89099 -50.1464 50.9435 0 0 194
-2.54623 -48.0221 49.8043 0 0 128
-2.94658 -48.589 50.6307 0 0 128
-2.54623 -48.0221 49.8043 0 0 128
-2.25098 -49.1087 49.1782 0 0 128
-1.99369 -50.2145 48.4745 0 0 131
-1.79031 -51.3758 47.7269 0 0 131
3 0 13 11
3 1 16 14
3 1 18 16
3 48 21 49
3 50 49 19
3 48 49 50
3 2 26 24
3 4 27 12
3 4 28 27
3 51 31 52
3 53 52 29
3 51 52 53
3 54 32 55
3 57 56 32
3 58 33 59
3 60 34 61
3 62 35 63
3 64 63 34
3 62 63 64
3 65 36 66
3 68 67 36
3 3 37 25
3 6 69 71
3 71 70 15
3 69 70 71
3 6 72 73
3 6 74 75
3 7 76 78
3 78 77 17
3 76 77 78
3 7 79 81
3 79 38 80
3 79 80 81
3 5 39 30
3 8 40 20
3 8 41 40
3 82 42 83
3 9 43 22
3 9 44 43
3 9 45 44
3 10 46 23
3 10 47 46
3 10 84 86
3 86 85 47
3 84 85 86
3 11 12 2
3 13 12 11
3 13 4 12
3 14 15 3
3 16 15 14
3 16 6 15
3 16 17 6
3 18 17 16
3 18 7 17
3 19 20 5
3 21 20 19
3 21 8 20
3 87 22 88
3 89 22 90
3 91 9 92
3 93 92 22
3 91 92 93
3 94 23 95
3 96 95 9
3 94 95 96
3 97 23 98
3 99 10 100
3 101 100 23
3 99 100 101
3 103 102 10
3 24 104 106
3 104 25 105
3 104 105 106
3 26 25 24
3 26 3 25
3 12 26 2
3 27 26 12
3 27 3 26
3 27 14 3
3 28 14 27
3 28 1 14
3 29 30 0
3 31 30 29
3 31 5 30
3 107 31 108
3 32 109 111
3 109 31 110
3 109 110 111
3 32 5 31
3 32 19 5
3 112 19 113
3 114 113 32
3 112 113 114
3 116 115 19
3 117 24 118
3 33 119 121
3 119 24 120
3 119 120 121
3 33 2 24
3 122 33 123
3 34 124 126
3 124 33 125
3 124 125 126
3 34 2 33
3 34 11 2
3 35 11 34
3 35 0 11
3 127 35 128
3 36 129 131
3 129 35 130
3 129 130 131
3 36 0 35
3 36 29 0
3 132 29 133
3 134 133 36
3 132 133 134
3 136 135 29
3 25 137 138
3 37 139 141
3 141 140 25
3 139 140 141
3 37 142 143
3 15 37 3
3 144 37 145
3 146 145 15
3 144 145 146
3 148 147 37
3 17 149 151
3 151 150 6
3 149 150 151
3 153 152 17
3 38 154 155
3 38 156 157
3 30 13 0
3 39 13 30
3 39 4 13
3 20 39 5
3 40 39 20
3 40 4 39
3 40 28 4
3 41 28 40
3 41 1 28
3 158 21 159
3 42 160 162
3 160 21 161
3 160 161 162
3 42 8 21
3 22 163 165
3 163 42 164
3 163 164 165
3 43 42 22
3 43 8 42
3 43 41 8
3 44 41 43
3 44 1 41
3 44 18 1
3 45 18 44
3 45 7 18
3 23 45 9
3 46 45 23
3 46 7 45
3 46 38 7
3 47 38 46
3 47 166 168
3 168 167 38
3 166 167 168
3 47 169 170
3 172 171 47
3 174 173 10
