ply
format ascii 1.0
element vertex 152
property float x
property float y
property float z
property uchar red
property uchar green
property uchar blue
element face 144
property list uchar int vertex_index
end_header
-59.7637 -60.2335 2.75519 194 255 61
-64.0201 -50.35 0.683265 146 0 0
-63.195 -53.4341 -5.87646 192 255 63
-63.4925 -59.046 -4.49387 123 255 132
-61.7853 -57.0829 -1.63152 214 0 0
-63.9693 -46.6357 -3.34318 255 169 0
-60.4276 -58.4095 5.98614 94 255 161
-61.765 -55.2249 1.50442 221 0 0
-63.5624 -53.9418 4.93057 251 255 4
-62.6346 -51.7868 -2.71624 255 3 0
-62.9622 -47.9935 -6.80886 46 255 209
-60.1663 -61.3597 1.27028 91 255 164
-61.406 -59.7942 -0.925827 255 161 0
-60.839 -58.7158 0.534358 208 0 0
-61.9984 -56.1689 5.40846 237 255 18
-63.3895 -56.2188 -5.23144 229 255 26
-62.8612 -52.774 1.04204 188 0 0
-62.2683 -53.5424 -0.63028 246 0 0
-63.1108 -51.0138 -1.0425 209 0 0
-63.7675 -44.6948 -5.30778 0 215 255
-63.2167 -47.3067 -5.09427 255 207 0
-62.3183 -60.8744 -2.32432 122 255 133
-62.4888 -58.0823 -3.08659 145 0 0
-62.5743 -55.3253 -3.7623 209 0 0
-65.2086 -47.9465 0.411654 243 255 12
-64.0587 -48.5143 -1.35009 157 0 0
-65.0883 -46.0378 -1.57136 110 255 145
-59.8465 -59.2294 4.32843 195 255 60
-60.7378 -57.7103 2.07709 225 0 0
-61.1419 -56.8451 3.70546 186 0 0
-62.4844 -54.4905 3.18765 157 0 0
-63.8516 -52.1571 2.77204 128 0 0
-65.0633 -51.7196 4.54326 118 255 137
-65.1992 -49.838 2.44531 247 255 8
-61.5226 -56.1082 -0.104029 247 0 0
-62.1713 -54.4131 -2.2325 255 1 0
-62.6692 -52.6133 -4.32762 253 0 0
-63.2267 -49.1973 -3.08284 219 0 0
-62.8613 -49.9434 -4.77129 255 3 0
-63.0186 -50.6947 -6.4059 165 255 90
-59.2877 -61.5107 3.13842 0 0 130
-59.1827 -60.9403 3.90169 0 0 130
-59.965 -60.7966 2.01274 0 0 216
-59.489 -62.0738 2.39597 0 0 173
-59.2877 -61.5107 3.13842 0 0 173
-63.649 -53.8169 -6.62592 0 0 175
-63.7463 -55.2092 -6.30342 0 0 175
-63.2922 -54.8264 -5.55395 0 0 218
-63.4255 -52.4166 -6.93158 0 0 131
-63.649 -53.8169 -6.62592 0 0 131
-63.4355 -45.0076 -6.19696 0 0 130
-63.6248 -43.682 -6.27817 0 0 130
-61.6376 -61.703 -1.23246 0 0 135
-62.1468 -62.2754 -1.91717 0 0 135
-65.7268 -45.8007 -0.683875 0 0 178
-65.1485 -46.9921 -0.579851 0 0 222
-65.7869 -46.755 0.30763 0 0 178
-59.6584 -59.5419 6.32419 0 0 132
-60.0435 -59.1648 7.16936 0 0 132
-60.1371 -58.8194 5.15729 0 0 215
-59.3678 -59.9519 5.49534 0 0 173
-59.6584 -59.5419 6.32419 0 0 173
-65.7457 -50.6101 4.38559 0 0 133
-65.6692 -51.5924 5.44233 0 0 133
-65.8136 -49.6693 3.33661 0 0 177
-65.1312 -50.7788 3.49429 0 0 221
-65.7457 -50.6101 4.38559 0 0 177
-65.83 -48.6854 2.31553 0 0 133
-65.8136 -49.6693 3.33661 0 0 133
-64.0515 -59.4893 -5.19195 0 0 135
-63.4468 -60.4719 -4.0956 0 0 135
-63.1011 -48.3176 -7.64276 0 0 167
-63.1293 -49.6682 -7.44128 0 0 167
-62.9904 -49.3441 -6.60738 0 0 206
-59.8068 -62.6905 1.67366 0 0 133
-59.489 -62.0738 2.39597 0 0 133
-60.5615 -61.9456 0.564839 0 0 133
-59.8068 -62.6905 1.67366 0 0 133
-60.7861 -60.5769 0.172229 0 0 222
-61.1814 -61.1629 -0.533216 0 0 177
-60.5615 -61.9456 0.564839 0 0 177
-60.929 -58.1087 6.84934 0 0 133
-60.0435 -59.1648 7.16936 0 0 133
-61.7143 -56.9884 6.56051 0 0 178
-61.213 -57.2892 5.6973 0 0 222
-60.929 -58.1087 6.84934 0 0 178
-62.5848 -55.9351 6.28858 0 0 134
-61.7143 -56.9884 6.56051 0 0 134
-63.3668 -54.8215 6.04963 0 0 180
-62.7804 -55.0553 5.16951 0 0 225
-62.5848 -55.9351 6.28858 0 0 180
-63.9246 -56.633 -5.94849 0 0 179
-63.976 -58.0466 -5.57971 0 0 179
-63.441 -57.6324 -4.86266 0 0 225
-63.9246 -56.633 -5.94849 0 0 133
-63.7463 -55.2092 -6.30342 0 0 133
-63.1601 -46.3136 -6.0902 0 0 171
-63.4921 -46.0007 -5.20102 0 0 213
-63.4355 -45.0076 -6.19696 0 0 171
-63.0329 -46.657 -6.9475 0 0 166
-63.0895 -47.6501 -5.95156 0 0 206
-63.1601 -46.3136 -6.0902 0 0 166
-62.9649 -46.9553 -7.82142 0 0 128
-63.0329 -46.657 -6.9475 0 0 128
-62.8598 -61.3861 -3.01082 0 0 135
-62.1468 -62.2754 -1.91717 0 0 135
-62.9054 -59.9602 -3.4091 0 0 228
-63.4468 -60.4719 -4.0956 0 0 182
-62.8598 -61.3861 -3.01082 0 0 182
-61.8622 -60.3343 -1.62508 0 0 223
-61.6376 -61.703 -1.23246 0 0 178
-61.1814 -61.1629 -0.533216 0 0 178
-65.6154 -44.8116 -1.65098 0 0 133
-65.7268 -45.8007 -0.683875 0 0 133
-64.9674 -45.0675 -2.5438 0 0 134
-65.6154 -44.8116 -1.65098 0 0 134
-64.4079 -45.3664 -3.42971 0 0 177
-64.5288 -46.3368 -2.45727 0 0 221
-64.9674 -45.0675 -2.5438 0 0 177
-64.307 -44.3959 -4.41201 0 0 177
-63.8684 -45.6652 -4.32548 0 0 221
-64.4079 -45.3664 -3.42971 0 0 177
-64.1354 -43.3999 -5.36922 0 0 133
-64.307 -44.3959 -4.41201 0 0 133
-63.6248 -43.682 -6.27817 0 0 133
-64.1354 -43.3999 -5.36922 0 0 133
-59.2241 -60.4383 4.68831 0 0 130
-59.3678 -59.9519 5.49534 0 0 130
-59.8051 -59.7314 3.54181 0 0 212
-59.1827 -60.9403 3.90169 0 0 170
-59.2241 -60.4383 4.68831 0 0 170
-64.1877 -53.7651 5.82354 0 0 134
-63.3668 -54.8215 6.04963 0 0 134
-64.9381 -52.654 5.62989 0 0 132
-65.6692 -51.5924 5.44233 0 0 132
-64.3128 -52.8307 4.73691 0 0 226
-64.1877 -53.7651 5.82354 0 0 180
-64.9381 -52.654 5.62989 0 0 180
-65.8346 -47.7396 1.2987 0 0 177
-65.2039 -48.8922 1.42848 0 0 221
-65.83 -48.6854 2.31553 0 0 177
-65.7869 -46.755 0.30763 0 0 133
-65.8346 -47.7396 1.2987 0 0 133
-64.0515 -59.4893 -5.19195 0 0 135
-63.976 -58.0466 -5.57971 0 0 135
-63.3373 -51.0469 -7.1963 0 0 170
-63.4255 -52.4166 -6.93158 0 0 170
-63.1068 -52.0644 -6.14118 0 0 210
-63.3373 -51.0469 -7.1963 0 0 129
-63.1293 -49.6682 -7.44128 0 0 129
-63.1011 -48.3176 -7.64276 0 0 128
-62.9649 -46.9553 -7.82142 0 0 128
3 0 40 41
3 0 42 44
3 42 11 43
3 42 43 44
3 0 13 11
3 2 45 47
3 47 46 15
3 45 46 47
3 2 48 49
3 1 18 16
3 51 50 19
3 52 21 53
3 4 22 12
3 4 23 22
3 54 26 55
3 56 55 24
3 54 55 56
3 6 57 58
3 6 59 61
3 59 27 60
3 59 60 61
3 6 29 27
3 8 30 14
3 8 31 30
3 62 32 63
3 64 33 65
3 66 65 32
3 64 65 66
3 68 67 33
3 3 69 70
3 7 34 28
3 9 35 17
3 9 36 35
3 5 37 25
3 10 38 20
3 10 39 38
3 10 71 73
3 73 72 39
3 71 72 73
3 11 74 75
3 11 76 77
3 11 78 80
3 78 12 79
3 78 79 80
3 13 12 11
3 13 4 12
3 81 6 82
3 83 14 84
3 85 84 6
3 83 84 85
3 86 14 87
3 88 8 89
3 90 89 14
3 88 89 90
3 15 91 93
3 93 92 3
3 91 92 93
3 95 94 15
3 16 17 7
3 18 17 16
3 18 9 17
3 19 20 5
3 96 20 97
3 98 97 19
3 96 97 98
3 99 10 100
3 101 100 20
3 99 100 101
3 103 102 10
3 21 104 105
3 21 106 108
3 106 3 107
3 106 107 108
3 12 109 111
3 109 21 110
3 109 110 111
3 22 21 12
3 22 3 21
3 22 15 3
3 23 15 22
3 23 2 15
3 24 25 1
3 26 25 24
3 26 5 25
3 112 26 113
3 114 26 115
3 116 5 117
3 118 117 26
3 116 117 118
3 119 19 120
3 121 120 5
3 119 120 121
3 122 19 123
3 125 124 19
3 27 126 127
3 27 128 130
3 128 0 129
3 128 129 130
3 27 28 0
3 29 28 27
3 29 7 28
3 14 29 6
3 30 29 14
3 30 7 29
3 30 16 7
3 31 16 30
3 31 1 16
3 131 8 132
3 32 133 134
3 32 135 137
3 135 8 136
3 135 136 137
3 32 31 8
3 33 31 32
3 33 1 31
3 33 24 1
3 138 24 139
3 140 139 33
3 138 139 140
3 142 141 24
3 144 143 3
3 28 13 0
3 34 13 28
3 34 4 13
3 17 34 7
3 35 34 17
3 35 4 34
3 35 23 4
3 36 23 35
3 36 2 23
3 25 18 1
3 37 18 25
3 37 9 18
3 20 37 5
3 38 37 20
3 38 9 37
3 38 36 9
3 39 36 38
3 39 2 36
3 39 145 147
3 147 146 2
3 145 146 147
3 149 148 39
3 151 150 10
