ply
format ascii 1.0
element vertex 124
property float x
property float y
property float z
property uchar red
property uchar green
property uchar blue
element face 108
property list uchar int vertex_index
end_header
-12.098 -52.4608 -8.52963 103 255 152
-12.3435 -59.8528 -12.9156 157 0 0
-12.4791 -55.912 -11.0997 179 0 0
-9.54767 -54.1069 -5.6628 134 255 121
-9.51667 -60.04 -5.44517 0 230 255
-10.7186 -58.1069 -8.28486 179 0 0
-10.6232 -62.4849 -10.2075 187 255 68
-12.4102 -57.8044 -12.1178 181 0 0
-13.6266 -54.702 -12.5138 204 255 51
-13.5684 -56.4615 -13.4937 211 255 44
-10.0711 -59.1046 -6.87285 255 157 0
-10.3118 -61.3319 -7.95477 71 255 184
-10.7865 -60.2332 -9.34815 255 195 0
-12.3992 -62.0523 -13.5037 120 255 135
-13.6147 -58.3868 -14.2408 105 255 150
-12.4168 -54.1481 -9.88633 255 167 0
-13.652 -53.0845 -11.3247 84 255 171
-10.7853 -53.3067 -7.09437 254 255 1
-9.42467 -56.963 -5.61451 252 255 3
-10.3242 -56.0785 -7.04192 128 0 0
-11.3113 -55.1429 -8.46185 152 0 0
-11.5111 -57.0444 -9.69148 182 0 0
-11.479 -59.059 -10.7356 197 0 0
-11.3351 -61.2157 -11.5697 194 0 0
-10.3508 -64.8692 -10.8687 66 255 189
-11.2062 -63.5168 -12.2014 217 255 38
-12.5658 -51.2531 -8.54358 0 0 134
-11.7624 -51.6235 -7.81146 0 0 134
-10.1779 -63.0495 -7.70573 0 0 129
-10.1574 -61.8439 -7.25275 0 0 129
-10.259 -62.4999 -8.39521 0 0 128
-10.1779 -63.0495 -7.70573 0 0 128
-13.1348 -61.2588 -14.1369 0 0 137
-12.5315 -63.2088 -13.715 0 0 137
-14.3163 -53.3219 -12.6489 0 0 129
-14.2786 -54.0539 -13.2255 0 0 129
-14.264 -56.7046 -14.553 0 0 131
-14.3512 -57.5988 -14.8946 0 0 131
-9.7124 -52.7934 -5.65357 0 0 138
-8.96289 -53.1264 -4.92888 0 0 138
-10.1665 -53.7068 -6.37858 0 0 224
-10.3312 -52.3933 -6.36936 0 0 179
-9.7124 -52.7934 -5.65357 0 0 179
-9.25459 -60.4771 -4.71729 0 0 180
-9.3888 -62.1084 -4.55817 0 0 134
-9.65088 -61.6713 -5.28605 0 0 180
-9.04378 -58.9217 -4.80531 0 0 134
-9.25459 -60.4771 -4.71729 0 0 134
-9.47067 -58.5015 -5.52984 0 0 231
-8.99778 -57.3832 -4.88997 0 0 184
-9.04378 -58.9217 -4.80531 0 0 184
-10.2246 -66.119 -11.1191 0 0 128
-9.87646 -66.7752 -10.4524 0 0 128
-10.6523 -65.4427 -11.7855 0 0 172
-10.7785 -64.193 -11.5351 0 0 213
-10.2246 -66.119 -11.1191 0 0 172
-11.2053 -64.7258 -12.4365 0 0 132
-10.6523 -65.4427 -11.7855 0 0 132
-14.2494 -54.9336 -13.7155 0 0 174
-14.2786 -54.0539 -13.2255 0 0 174
-13.5975 -55.5818 -13.0038 0 0 217
-8.95504 -54.4908 -4.94108 0 0 136
-8.96289 -53.1264 -4.92888 0 0 136
-9.75979 -61.198 -5.99795 0 0 130
-9.65088 -61.6713 -5.28605 0 0 130
-10.037 -60.7303 -6.71179 0 0 176
-9.7939 -59.5723 -6.15901 0 0 219
-9.75979 -61.198 -5.99795 0 0 176
-10.1915 -60.2183 -7.41381 0 0 210
-10.037 -60.7303 -6.71179 0 0 169
-10.1574 -61.8439 -7.25275 0 0 169
-10.4963 -61.9505 -9.0919 0 0 170
-10.5492 -60.7825 -8.65146 0 0 211
-10.259 -62.4999 -8.39521 0 0 170
-10.4147 -63.0764 -9.5216 0 0 167
-10.7049 -61.359 -9.77785 0 0 206
-10.4963 -61.9505 -9.0919 0 0 167
-13.7425 -59.4261 -14.5055 0 0 180
-13.0069 -60.2195 -13.8722 0 0 226
-13.1348 -61.2588 -14.1369 0 0 180
-14.3512 -57.5988 -14.8946 0 0 135
-13.7425 -59.4261 -14.5055 0 0 135
-12.9573 -52.8518 -9.93412 0 0 177
-12.798 -52.0082 -9.25577 0 0 177
-12.2574 -53.3044 -9.20798 0 0 221
-13.5749 -52.32 -10.6533 0 0 171
-12.9573 -52.8518 -9.93412 0 0 171
-13.0344 -53.6163 -10.6055 0 0 212
-14.316 -51.8308 -11.3933 0 0 132
-13.5749 -52.32 -10.6533 0 0 132
-14.329 -52.5131 -12.0543 0 0 174
-13.6393 -53.8933 -11.9192 0 0 217
-14.3163 -53.3219 -12.6489 0 0 174
-14.316 -51.8308 -11.3933 0 0 129
-14.329 -52.5131 -12.0543 0 0 129
-14.2409 -55.7419 -14.1795 0 0 175
-13.5915 -57.4242 -13.8673 0 0 219
-14.264 -56.7046 -14.553 0 0 175
-14.2494 -54.9336 -13.7155 0 0 129
-14.2409 -55.7419 -14.1795 0 0 129
-11.106 -52.0465 -7.09383 0 0 136
-10.3312 -52.3933 -6.36936 0 0 136
-11.4416 -52.8837 -7.812 0 0 218
-11.7624 -51.6235 -7.81146 0 0 175
-11.106 -52.0465 -7.09383 0 0 175
-8.89354 -55.9188 -4.91693 0 0 135
-8.99778 -57.3832 -4.88997 0 0 135
-9.48617 -55.535 -5.63865 0 0 235
-8.95504 -54.4908 -4.94108 0 0 186
-8.89354 -55.9188 -4.91693 0 0 186
-10.2408 -64.303 -9.86277 0 0 128
-10.4147 -63.0764 -9.5216 0 0 128
-10.1046 -65.4951 -10.1933 0 0 128
-9.87646 -66.7752 -10.4524 0 0 128
-10.487 -63.6771 -10.5381 0 0 206
-10.2408 -64.303 -9.86277 0 0 167
-10.1046 -65.4951 -10.1933 0 0 167
-11.8018 -63.9936 -13.0876 0 0 178
-11.8027 -62.7845 -12.8525 0 0 224
-11.2053 -64.7258 -12.4365 0 0 178
-12.5315 -63.2088 -13.715 0 0 137
-11.8018 -63.9936 -13.0876 0 0 137
-12.5658 -51.2531 -8.54358 0 0 130
-12.798 -52.0082 -9.25577 0 0 130
3 0 26 27
3 1 9 7
3 28 11 29
3 31 30 11
3 33 32 13
3 2 16 15
3 35 34 8
3 37 36 14
3 3 38 39
3 3 40 42
3 40 17 41
3 40 41 42
3 4 43 45
3 43 44 45
3 4 46 47
3 4 48 50
3 48 18 49
3 48 49 50
3 5 19 10
3 5 20 19
3 5 21 20
3 6 22 12
3 6 23 22
3 51 24 52
3 53 25 54
3 55 54 24
3 53 54 55
3 57 56 25
3 7 8 2
3 9 8 7
3 9 58 60
3 60 59 8
3 58 59 60
3 61 3 62
3 63 4 64
3 65 10 66
3 67 66 4
3 65 66 67
3 11 68 70
3 68 10 69
3 68 69 70
3 11 5 10
3 11 12 5
3 71 12 72
3 73 72 11
3 71 72 73
3 74 6 75
3 76 75 12
3 74 75 76
3 13 14 1
3 77 14 78
3 79 78 13
3 77 78 79
3 81 80 14
3 15 82 84
3 84 83 0
3 82 83 84
3 16 85 87
3 87 86 15
3 85 86 87
3 16 88 89
3 8 16 2
3 90 16 91
3 92 91 8
3 90 91 92
3 94 93 16
3 14 9 1
3 95 9 96
3 97 96 14
3 95 96 97
3 99 98 9
3 17 100 101
3 17 102 104
3 102 0 103
3 102 103 104
3 18 105 106
3 18 107 109
3 107 3 108
3 107 108 109
3 10 18 4
3 19 18 10
3 19 3 18
3 19 17 3
3 20 17 19
3 20 0 17
3 20 15 0
3 21 15 20
3 21 2 15
3 12 21 5
3 22 21 12
3 22 2 21
3 22 7 2
3 23 7 22
3 23 1 7
3 110 6 111
3 24 112 113
3 24 114 116
3 114 6 115
3 114 115 116
3 24 23 6
3 25 23 24
3 25 1 23
3 25 13 1
3 117 13 118
3 119 118 25
3 117 118 119
3 121 120 13
3 123 122 0
