ply
format ascii 1.0
element vertex 181
property float x
property float y
property float z
property uchar red
property uchar green
property uchar blue
element face 167
property list uchar int vertex_index
end_header
-52.8506 -74.4584 43.8397 246 0 0
-40.0167 -84.074 48.9843 0 79 255
-46.98 -79.9794 47.5269 255 123 0
-50.4606 -77.8228 41.7933 252 255 3
-52.998 -74.4153 39.2763 150 255 105
-51.9025 -73.2623 47.0541 255 193 0
-48.7699 -75.4972 48.1213 255 150 0
-50.0945 -77.3801 45.8459 255 86 0
-47.836 -81.1038 44.1373 201 255 54
-45.2077 -77.3311 48.8734 142 255 113
-43.5719 -82.244 48.6341 227 255 28
-51.7202 -76.2022 42.8535 169 0 0
-51.7312 -76.1298 40.5363 255 235 0
-53.0054 -74.5777 41.6795 128 0 0
-52.4928 -74.0263 45.6601 255 112 0
-51.0829 -75.3726 46.4807 255 150 0
-51.5163 -75.9588 44.8669 255 42 0
-50.3846 -77.7738 44.0019 214 0 0
-47.9308 -77.774 47.904 255 151 0
-47.0318 -76.4606 48.541 201 255 54
-46.209 -78.8359 48.4609 255 111 0
-44.4168 -79.8082 48.8896 255 53 0
-45.305 -81.1566 48.1661 255 107 0
-44.3849 -83.4227 47.5651 9 255 246
-45.9826 -82.1173 46.9058 223 255 32
-51.066 -72.1639 47.9685 129 255 126
-49.4588 -73.1517 48.2641 71 255 184
-50.3982 -74.4334 47.622 255 187 0
-49.5606 -76.621 47.2368 255 165 0
-48.5806 -78.7201 46.7434 255 116 0
-47.5178 -80.7351 46.067 255 40 0
-48.9854 -79.2859 45.086 255 4 0
-49.167 -79.4831 43.0074 227 255 28
-53.8 -72.5849 44.8018 130 255 125
-54.1155 -72.8874 42.7989 205 255 50
-51.5672 -69.8287 48.3283 0 118 255
-52.5409 -71.0618 47.6179 32 255 223
-53.2828 -71.981 46.4324 63 255 192
-54.2637 -72.9138 40.5175 127 255 128
-47.7291 -74.0328 48.5051 8 255 247
-43.3265 -78.1131 49.1153 64 255 191
-42.5795 -80.6861 49.1771 155 255 100
-41.801 -83.225 48.9106 0 177 255
-46.4565 -82.678 45.1401 63 255 192
-39.1317 -84.4168 48.9204 0 0 139
-39.4497 -83.089 49.1508 0 0 139
-50.413 -77.6936 40.5563 0 0 146
-49.8108 -78.5836 41.1995 0 0 146
-52.2974 -75.0984 38.6436 0 0 195
-51.664 -75.9557 39.2736 0 0 195
-52.3646 -75.2726 39.9063 0 0 244
-52.9376 -74.2129 37.9971 0 0 148
-52.2974 -75.0984 38.6436 0 0 148
-49.8108 -78.5836 41.1995 0 0 190
-49.164 -79.4137 41.8066 0 0 190
-49.8138 -78.6529 42.4003 0 0 236
-54.4153 -71.8221 44.3682 0 0 135
-54.178 -71.5893 45.2888 0 0 135
-52.2909 -69.3116 48.2655 0 0 128
-51.748 -68.6398 48.5279 0 0 128
-52.7778 -69.9281 47.9103 0 0 156
-52.054 -70.4453 47.9731 0 0 184
-52.2909 -69.3116 48.2655 0 0 156
-53.9194 -71.2874 46.1041 0 0 130
-53.5863 -70.912 46.8246 0 0 130
-54.178 -71.5893 45.2888 0 0 164
-53.5414 -72.2829 45.6171 0 0 196
-53.9194 -71.2874 46.1041 0 0 164
-54.8029 -72.0881 41.1482 0 0 184
-54.1896 -72.9006 41.6582 0 0 227
-54.7289 -72.0749 42.2889 0 0 184
-45.5533 -76.0743 48.7845 0 0 174
-46.4653 -75.6391 48.6183 0 0 174
-46.1198 -76.8959 48.7072 0 0 211
-44.6029 -76.4238 48.8582 0 0 139
-45.5533 -76.0743 48.7845 0 0 139
-44.2671 -77.7221 48.9943 0 0 221
-43.6623 -76.8148 48.9791 0 0 180
-44.6029 -76.4238 48.8582 0 0 180
-43.1531 -83.438 48.3225 0 0 171
-42.2677 -83.9284 48.4608 0 0 171
-42.6865 -82.7345 48.7723 0 0 207
-43.9541 -84.5276 47.0769 0 0 136
-44.7025 -83.8085 46.7684 0 0 136
-45.5014 -83.1558 46.4387 0 0 172
-44.7025 -83.8085 46.7684 0 0 172
-45.1838 -82.77 47.2355 0 0 208
-47.2905 -81.9792 43.5425 0 0 144
-47.8988 -81.1074 42.9834 0 0 144
-51.0483 -76.8471 39.9278 0 0 193
-50.413 -77.6936 40.5563 0 0 193
-51.0959 -76.9763 41.1648 0 0 241
-51.0483 -76.8471 39.9278 0 0 147
-51.664 -75.9557 39.2736 0 0 147
-50.2624 -72.6578 48.1163 0 0 195
-49.7234 -71.9498 48.3344 0 0 163
-50.527 -71.4559 48.1866 0 0 163
-48.5643 -80.2971 42.4185 0 0 187
-47.8988 -81.1074 42.9834 0 0 187
-48.5015 -80.2934 43.5724 0 0 232
-48.5643 -80.2971 42.4185 0 0 145
-49.164 -79.4137 41.8066 0 0 145
-54.573 -71.9733 43.3668 0 0 174
-53.9578 -72.7361 43.8004 0 0 212
-54.4153 -71.8221 44.3682 0 0 174
-54.7289 -72.0749 42.2889 0 0 140
-54.573 -71.9733 43.3668 0 0 140
-50.9701 -69.0656 48.4598 0 0 130
-51.748 -68.6398 48.5279 0 0 130
-50.7776 -70.2883 48.3665 0 0 131
-50.9701 -69.0656 48.4598 0 0 131
-51.3166 -70.9963 48.1484 0 0 191
-50.527 -71.4559 48.1866 0 0 160
-50.7776 -70.2883 48.3665 0 0 160
-53.2153 -70.4524 47.4173 0 0 128
-52.7778 -69.9281 47.9103 0 0 128
-52.9118 -71.5214 47.0251 0 0 185
-53.2153 -70.4524 47.4173 0 0 156
-53.5863 -70.912 46.8246 0 0 156
-39.6805 -85.3525 48.5763 0 0 136
-40.5316 -84.8942 48.6006 0 0 136
-54.8952 -72.0725 39.9603 0 0 144
-54.8029 -72.0881 41.1482 0 0 144
-54.2749 -72.805 39.284 0 0 145
-54.8952 -72.0725 39.9603 0 0 145
-53.6421 -73.5558 38.6635 0 0 193
-53.6308 -73.6646 39.8969 0 0 240
-54.2749 -72.805 39.284 0 0 193
-52.9376 -74.2129 37.9971 0 0 147
-53.6421 -73.5558 38.6635 0 0 147
-40.3708 -82.7658 49.1514 0 0 140
-39.4497 -83.089 49.1508 0 0 140
-48.8699 -72.3554 48.3542 0 0 133
-49.7234 -71.9498 48.3344 0 0 133
-48.0051 -72.796 48.4746 0 0 170
-48.8699 -72.3554 48.3542 0 0 170
-48.5939 -73.5923 48.3846 0 0 206
-47.0968 -73.1532 48.4842 0 0 137
-48.0051 -72.796 48.4746 0 0 137
-46.8139 -74.4252 48.6003 0 0 172
-47.3805 -75.2467 48.523 0 0 208
-46.4653 -75.6391 48.6183 0 0 172
-47.0968 -73.1532 48.4842 0 0 138
-46.8139 -74.4252 48.6003 0 0 138
-42.6936 -77.1252 49.0367 0 0 142
-43.6623 -76.8148 48.9791 0 0 142
-42.3732 -78.4595 49.192 0 0 142
-42.6936 -77.1252 49.0367 0 0 142
-41.9996 -79.746 49.2229 0 0 181
-42.3732 -78.4595 49.192 0 0 181
-42.953 -79.3996 49.1462 0 0 222
-41.6522 -81.0718 49.2478 0 0 139
-41.9996 -79.746 49.2229 0 0 139
-41.263 -82.3413 49.1145 0 0 177
-41.6522 -81.0718 49.2478 0 0 177
-42.1903 -81.9556 49.0439 0 0 216
-40.9088 -83.6495 48.9474 0 0 214
-40.3708 -82.7658 49.1514 0 0 176
-41.263 -82.3413 49.1145 0 0 176
-41.4238 -84.4697 48.5638 0 0 175
-40.5316 -84.8942 48.6006 0 0 175
-40.9088 -83.6495 48.9474 0 0 213
-41.4238 -84.4697 48.5638 0 0 134
-42.2677 -83.9284 48.4608 0 0 134
-43.5596 -84.0273 47.788 0 0 168
-43.1531 -83.438 48.3225 0 0 168
-43.9784 -82.8334 48.0996 0 0 202
-43.5596 -84.0273 47.788 0 0 135
-43.9541 -84.5276 47.0769 0 0 135
-45.7383 -83.4362 45.5558 0 0 175
-45.5014 -83.1558 46.4387 0 0 175
-46.2195 -82.3977 46.023 0 0 213
-46.6008 -82.7663 44.0439 0 0 184
-47.1462 -81.8909 44.6387 0 0 227
-47.2905 -81.9792 43.5425 0 0 184
-45.9727 -83.6203 44.527 0 0 142
-46.6008 -82.7663 44.0439 0 0 142
-45.7383 -83.4362 45.5558 0 0 140
-45.9727 -83.6203 44.527 0 0 140
-39.1317 -84.4168 48.9204 0 0 138
-39.6805 -85.3525 48.5763 0 0 138
3 0 13 11
3 0 16 14
3 0 11 16
3 1 44 45
3 2 20 18
3 2 22 20
3 2 24 22
3 3 46 47
3 4 48 50
3 50 49 12
3 48 49 50
3 4 51 52
3 5 27 25
3 7 28 15
3 7 29 28
3 7 31 29
3 3 32 17
3 3 53 55
3 55 54 32
3 53 54 55
3 57 56 33
3 58 35 59
3 60 36 61
3 62 61 35
3 60 61 62
3 63 37 64
3 65 33 66
3 67 66 37
3 65 66 67
3 68 38 69
3 70 69 34
3 68 69 70
3 6 39 26
3 9 71 73
3 73 72 19
3 71 72 73
3 9 74 75
3 9 76 78
3 76 40 77
3 76 77 78
3 10 41 21
3 10 42 41
3 10 79 81
3 81 80 42
3 79 80 81
3 83 82 23
3 8 43 30
3 11 12 3
3 13 12 11
3 13 4 12
3 14 15 5
3 16 15 14
3 16 7 15
3 16 17 7
3 11 17 16
3 11 3 17
3 18 19 6
3 20 19 18
3 20 9 19
3 20 21 9
3 22 21 20
3 22 10 21
3 22 23 10
3 24 23 22
3 24 84 86
3 86 85 23
3 84 85 86
3 88 87 8
3 12 89 91
3 91 90 3
3 89 90 91
3 93 92 12
3 25 94 96
3 94 26 95
3 94 95 96
3 27 26 25
3 27 6 26
3 15 27 5
3 28 27 15
3 28 6 27
3 28 18 6
3 29 18 28
3 29 2 18
3 29 30 2
3 31 30 29
3 31 8 30
3 17 31 7
3 32 31 17
3 32 8 31
3 32 97 99
3 99 98 8
3 97 98 99
3 101 100 32
3 33 34 0
3 102 34 103
3 104 103 33
3 102 103 104
3 106 105 34
3 35 107 108
3 35 109 110
3 35 111 113
3 111 25 112
3 111 112 113
3 36 25 35
3 36 5 25
3 114 36 115
3 37 116 118
3 116 36 117
3 116 117 118
3 37 5 36
3 37 14 5
3 33 14 37
3 33 0 14
3 120 119 1
3 34 13 0
3 38 13 34
3 38 4 13
3 121 38 122
3 123 38 124
3 125 4 126
3 127 126 38
3 125 126 127
3 129 128 4
3 130 1 131
3 26 132 133
3 39 134 136
3 136 135 26
3 134 135 136
3 39 137 138
3 19 39 6
3 139 39 140
3 141 140 19
3 139 140 141
3 143 142 39
3 40 144 145
3 40 146 147
3 21 40 9
3 41 40 21
3 41 148 150
3 150 149 40
3 148 149 150
3 41 151 152
3 42 153 155
3 155 154 41
3 153 154 155
3 42 156 158
3 156 1 157
3 156 157 158
3 42 159 161
3 161 160 1
3 159 160 161
3 163 162 42
3 23 164 166
3 166 165 10
3 164 165 166
3 168 167 23
3 30 24 2
3 43 24 30
3 43 169 171
3 171 170 24
3 169 170 171
3 172 43 173
3 174 173 8
3 172 173 174
3 175 43 176
3 178 177 43
3 180 179 1
