ply
format ascii 1.0
element vertex 130
property float x
property float y
property float z
property uchar red
property uchar green
property uchar blue
element face 114
property list uchar int vertex_index
end_header
0.06814 -80.6674 47.9874 156 0 0
-1.23974 -85.5792 58.9524 0 173 255
-0.860985 -85.8935 54.0618 213 0 0
0.360991 -75.4838 52.1109 249 255 6
0.185539 -80.8025 53.1928 146 0 0
-0.881781 -85.7882 48.9919 255 177 0
0.327463 -78.1164 50.0475 130 0 0
0.260818 -75.4103 49.5004 115 255 140
0.194643 -78.0131 47.4502 235 255 20
0.344645 -78.1591 55.2923 238 255 17
0.106277 -80.7776 55.7905 224 255 31
-1.64546 -88.3205 51.9075 180 255 75
-0.824793 -85.8883 51.5407 192 0 0
-1.67222 -88.2491 49.4139 71 255 184
-0.465113 -83.0794 45.9311 255 174 0
-0.119673 -80.5013 45.4081 215 255 40
-0.721607 -82.8231 43.3711 0 208 255
-0.552868 -83.2007 58.7175 58 255 197
-0.338638 -83.3381 56.2145 255 187 0
-0.995537 -85.7943 56.5386 255 219 0
-1.70706 -88.2697 54.3525 46 255 209
0.383974 -75.5104 54.7441 113 255 142
0.379637 -78.1632 52.6662 128 0 0
0.171825 -80.7663 50.5866 147 0 0
-0.228144 -83.389 53.6663 172 0 0
-0.214233 -83.3609 51.0923 166 0 0
-0.294022 -83.2577 48.5092 170 0 0
-1.03021 -85.5988 46.4306 82 255 173
0.017907 -80.7333 57.0756 0 0 135
0.162125 -79.4421 56.8495 0 0 135
-2.15458 -89.4315 49.583 0 0 173
-1.65884 -88.2848 50.6607 0 0 213
-2.1412 -89.4672 50.8298 0 0 173
-2.18154 -89.3618 48.3479 0 0 132
-2.15458 -89.4315 49.583 0 0 132
-0.994812 -84.0727 43.621 0 0 175
-0.59336 -82.9513 44.6511 0 0 216
-0.866565 -84.2009 44.901 0 0 175
-1.06208 -84.2731 60.0525 0 0 129
-1.42559 -85.408 60.1179 0 0 129
-0.896302 -84.3899 58.8349 0 0 209
-0.71865 -83.0839 59.9351 0 0 170
-1.06208 -84.2731 60.0525 0 0 170
-2.23041 -89.363 54.4295 0 0 130
-1.78644 -88.1763 55.5429 0 0 130
-2.18167 -89.4413 53.2587 0 0 129
-2.23041 -89.363 54.4295 0 0 129
0.254803 -74.1238 51.831 0 0 138
0.298563 -74.1627 53.1396 0 0 138
0.130781 -74.0243 49.2356 0 0 138
0.178968 -75.3462 48.2124 0 0 138
-0.062988 -79.1738 45.147 0 0 135
-0.249587 -80.3815 44.1345 0 0 135
0.352831 -75.503 56.0645 0 0 137
0.316032 -74.1945 55.7775 0 0 137
-1.68872 -86.6631 58.9937 0 0 128
-1.42559 -85.408 60.1179 0 0 128
-1.55278 -86.8311 57.8429 0 0 128
-1.68872 -86.6631 58.9937 0 0 128
0.14588 -76.6477 47.1873 0 0 181
0.178968 -75.3462 48.2124 0 0 181
0.227731 -76.7117 48.4753 0 0 225
0.281308 -78.1328 56.6004 0 0 136
0.333166 -76.8274 56.3386 0 0 136
0.225461 -79.4683 55.5414 0 0 224
0.281308 -78.1328 56.6004 0 0 180
0.162125 -79.4421 56.8495 0 0 180
-1.72836 -88.1579 48.1505 0 0 175
-1.33314 -86.9275 47.9395 0 0 175
-1.277 -87.0186 49.2029 0 0 216
-1.72836 -88.1579 48.1505 0 0 134
-2.18154 -89.3618 48.3479 0 0 134
-0.550554 -81.5424 43.116 0 0 175
-0.249587 -80.3815 44.1345 0 0 175
-0.42064 -81.6622 44.3896 0 0 216
-1.15538 -83.8907 42.3488 0 0 134
-0.994812 -84.0727 43.621 0 0 134
-0.886432 -82.6538 42.1063 0 0 133
-1.15538 -83.8907 42.3488 0 0 133
-0.550554 -81.5424 43.116 0 0 134
-0.886432 -82.6538 42.1063 0 0 134
-0.453595 -81.866 59.7989 0 0 132
-0.71865 -83.0839 59.9351 0 0 132
-0.311666 -81.9449 58.5391 0 0 134
-0.453595 -81.866 59.7989 0 0 134
-0.445753 -83.2694 57.466 0 0 215
-0.20455 -82.0136 57.2876 0 0 174
-0.311666 -81.9449 58.5391 0 0 174
-1.43068 -86.9386 56.636 0 0 168
-1.11764 -85.6867 57.7455 0 0 206
-1.55278 -86.8311 57.8429 0 0 168
-1.3513 -87.032 55.4455 0 0 204
-1.43068 -86.9386 56.636 0 0 167
-1.78644 -88.1763 55.5429 0 0 167
-2.15087 -89.4667 52.0362 0 0 170
-1.67626 -88.2951 53.13 0 0 209
-2.18167 -89.4413 53.2587 0 0 170
-2.1412 -89.4672 50.8298 0 0 131
-2.15087 -89.4667 52.0362 0 0 131
0.204716 -74.0871 50.5257 0 0 182
0.254803 -74.1238 51.831 0 0 182
0.310905 -75.4471 50.8056 0 0 227
0.204716 -74.0871 50.5257 0 0 138
0.130781 -74.0243 49.2356 0 0 138
0.094171 -77.9297 46.1681 0 0 178
0.037485 -79.2572 46.4292 0 0 221
-0.062988 -79.1738 45.147 0 0 178
0.14588 -76.6477 47.1873 0 0 137
0.094171 -77.9297 46.1681 0 0 137
0.310054 -74.1759 54.4562 0 0 137
0.316032 -74.1945 55.7775 0 0 137
0.372482 -75.4971 53.4275 0 0 226
0.298563 -74.1627 53.1396 0 0 182
0.310054 -74.1759 54.4562 0 0 182
0.364309 -76.8347 55.0182 0 0 226
0.352831 -75.503 56.0645 0 0 181
0.333166 -76.8274 56.3386 0 0 181
-0.11618 -82.0578 56.0025 0 0 220
0.017907 -80.7333 57.0756 0 0 178
-0.20455 -82.0136 57.2876 0 0 178
-1.14911 -85.4606 45.1508 0 0 176
-0.866565 -84.2009 44.901 0 0 176
-0.747661 -84.3391 46.1809 0 0 217
-1.40735 -86.8328 46.6588 0 0 176
-0.955995 -85.6935 47.7113 0 0 217
-1.33314 -86.9275 47.9395 0 0 176
-1.50621 -86.6902 45.3861 0 0 134
-1.40735 -86.8328 46.6588 0 0 134
-1.14911 -85.4606 45.1508 0 0 134
-1.50621 -86.6902 45.3861 0 0 134
3 0 8 6
3 28 10 29
3 30 13 31
3 32 31 11
3 30 31 32
3 34 33 13
3 35 16 36
3 37 36 14
3 35 36 37
3 1 38 39
3 1 40 42
3 40 17 41
3 40 41 42
3 1 19 17
3 43 20 44
3 46 45 20
3 3 47 48
3 50 49 7
3 52 51 15
3 53 21 54
3 4 22 9
3 4 23 22
3 2 24 18
3 5 25 12
3 5 26 25
3 5 27 26
3 55 1 56
3 58 57 1
3 6 7 3
3 8 7 6
3 8 59 61
3 61 60 7
3 59 60 61
3 62 9 63
3 10 64 66
3 64 9 65
3 64 65 66
3 10 4 9
3 11 12 2
3 13 12 11
3 13 5 12
3 13 67 69
3 69 68 5
3 67 68 69
3 71 70 13
3 14 15 0
3 16 15 14
3 16 72 74
3 74 73 15
3 72 73 74
3 75 16 76
3 77 16 78
3 80 79 16
3 17 81 82
3 17 83 84
3 17 85 87
3 85 18 86
3 85 86 87
3 19 18 17
3 19 2 18
3 88 19 89
3 90 89 1
3 88 89 90
3 20 91 93
3 91 19 92
3 91 92 93
3 20 2 19
3 20 11 2
3 94 11 95
3 96 95 20
3 94 95 96
3 98 97 11
3 7 99 101
3 101 100 3
3 99 100 101
3 103 102 7
3 15 8 0
3 104 8 105
3 106 105 15
3 104 105 106
3 108 107 8
3 21 109 110
3 21 111 113
3 111 3 112
3 111 112 113
3 9 114 116
3 114 21 115
3 114 115 116
3 22 21 9
3 22 3 21
3 22 6 3
3 23 6 22
3 23 0 6
3 18 117 119
3 117 10 118
3 117 118 119
3 24 10 18
3 24 4 10
3 12 24 2
3 25 24 12
3 25 4 24
3 25 23 4
3 26 23 25
3 26 0 23
3 26 14 0
3 27 14 26
3 27 120 122
3 122 121 14
3 120 121 122
3 123 27 124
3 125 124 5
3 123 124 125
3 126 27 127
3 129 128 27
