ply
format ascii 1.0
element vertex 179
property float x
property float y
property float z
property uchar red
property uchar green
property uchar blue
element face 156
property list uchar int vertex_index
end_header
29.7692 -46.0648 -15.4814 44 255 211
31.9923 -54.8167 -15.7276 128 0 0
29.2623 -64.1377 -14.1056 197 255 58
31.7271 -38.5093 -20.0293 79 255 176
29.2967 -42.6293 -19.2554 200 255 55
32.2251 -35.5967 -23.6252 0 216 255
35.803 -57.7779 -16.0595 117 255 138
28.1936 -51.6195 -15.6788 241 255 14
31.2359 -36.5571 -22.0464 0 205 255
33.3065 -33.2379 -23.9219 0 111 255
34.5516 -32.6995 -25.1146 0 74 255
35.5202 -30.3239 -25.4686 0 2 255
30.6407 -59.446 -14.8188 248 0 0
32.4606 -60.5857 -14.9068 177 0 0
34.0284 -56.0931 -15.2242 255 132 0
35.1611 -52.0003 -16.3306 133 255 122
29.2726 -50.3099 -14.0872 0 223 255
28.2869 -53.5199 -14.197 0 214 255
28.2183 -48.5136 -15.4396 170 255 85
31.5518 -41.4611 -20.8497 128 255 127
30.4617 -45.0116 -18.772 128 255 127
28.0641 -66.4773 -12.2022 0 63 255
28.1818 -62.5239 -13.6914 17 255 238
29.0726 -58.0699 -14.8786 206 255 49
30.5622 -42.2522 -17.6476 163 255 92
28.7632 -44.2476 -17.2513 153 255 102
29.8621 -40.2437 -19.7184 131 255 124
30.5557 -38.8905 -21.6218 174 255 81
32.9682 -38.0813 -22.9051 3 255 252
33.0356 -40.7271 -18.0849 0 218 255
30.6991 -65.4752 -14.5325 55 255 200
34.1077 -61.9991 -15.27 97 255 158
28.1981 -56.2923 -14.538 0 233 255
29.7116 -53.5876 -15.9722 255 2 0
28.4464 -46.7581 -17.1174 227 255 28
29.8323 -49.0513 -17.1344 255 220 0
32.4906 -50.6035 -16.7334 255 211 0
34.3052 -32.3589 -23.8232 0 0 140
33.3426 -34.1749 -22.933 0 0 140
35.4121 -30.9019 -24.5966 0 0 155
34.4134 -31.7809 -24.6952 0 0 176
34.3052 -32.3589 -23.8232 0 0 155
32.6529 -42.5338 -20.4157 0 0 158
33.241 -40.8581 -21.3546 0 0 158
28.3482 -67.1918 -11.0423 0 0 135
28.2849 -68.0558 -11.4954 0 0 135
28.084 -61.586 -13.4928 0 0 131
28.2608 -63.536 -12.7631 0 0 131
28.5294 -59.359 -14.0864 0 0 151
28.6272 -60.2969 -14.285 0 0 170
28.084 -61.586 -13.4928 0 0 151
33.5234 -35.3561 -23.9609 0 0 172
33.895 -36.5983 -23.6008 0 0 172
32.5967 -36.839 -23.2652 0 0 201
35.8465 -32.5305 -24.8875 0 0 143
35.9049 -31.2951 -25.5416 0 0 143
33.9063 -41.6573 -17.0038 0 0 156
32.5584 -42.5117 -16.9855 0 0 156
29.9807 -64.8065 -14.319 0 0 198
29.6454 -66.719 -13.8625 0 0 170
28.927 -66.0503 -13.649 0 0 170
36.5554 -58.8127 -16.674 0 0 209
35.7077 -60.9232 -16.2792 0 0 209
34.9553 -59.8885 -15.6648 0 2 255
37.148 -56.8947 -17.2178 0 0 157
36.5554 -58.8127 -16.674 0 0 157
31.3691 -47.968 -17.6005 0 0 208
30.147 -47.0315 -17.9532 0 1 255
31.6838 -45.9481 -18.4193 0 0 208
32.6982 -48.744 -17.4 0 0 202
31.1615 -49.8274 -16.9339 0 0 247
31.3691 -47.968 -17.6005 0 0 202
34.0256 -49.5201 -17.2767 0 0 158
32.6982 -48.744 -17.4 0 0 158
32.3073 -35.8346 -21.9952 0 0 171
31.4815 -37.5332 -21.0379 0 0 200
32.5529 -36.8107 -20.9867 0 0 171
32.2712 -34.8975 -22.9841 0 0 193
32.3073 -35.8346 -21.9952 0 0 167
33.3426 -34.1749 -22.933 0 0 167
36.3892 -30.1073 -25.7185 0 0 144
35.9049 -31.2951 -25.5416 0 0 144
35.0359 -31.5117 -25.2916 0 0 160
35.575 -54.9455 -16.2275 0 0 199
36.4623 -55.7879 -16.6452 0 0 199
34.9157 -56.9355 -15.6419 0 0 242
36.1413 -52.8991 -16.7807 0 0 206
35.575 -54.9455 -16.2275 0 0 206
34.5947 -54.0467 -15.7774 0 0 252
36.4117 -51.2332 -17.5755 0 0 153
36.1413 -52.8991 -16.7807 0 0 153
28.7798 -51.9149 -14.1421 0 0 211
29.0454 -54.4054 -13.4963 0 0 179
29.5382 -52.8004 -13.4414 0 0 179
32.1078 -44.3091 -19.3768 0 0 206
31.0068 -43.2364 -19.8108 0 0 252
32.6529 -42.5338 -20.4157 0 0 206
31.6838 -45.9481 -18.4193 0 0 158
32.1078 -44.3091 -19.3768 0 0 158
28.3279 -67.2201 -12.6973 0 0 135
28.2849 -68.0558 -11.4954 0 0 135
28.6632 -65.3075 -13.1539 0 0 185
28.927 -66.0503 -13.649 0 0 161
28.3279 -67.2201 -12.6973 0 0 161
28.2019 -65.5127 -12.0185 0 0 135
28.3482 -67.1918 -11.0423 0 0 135
28.1229 -64.5006 -12.9468 0 0 167
28.2019 -65.5127 -12.0185 0 0 149
28.2608 -63.536 -12.7631 0 0 149
33.9492 -39.1682 -22.3824 0 0 203
33.241 -40.8581 -21.3546 0 0 203
32.26 -39.7712 -21.8774 0 0 247
34.6521 -37.6653 -23.0893 0 0 153
33.9492 -39.1682 -22.3824 0 0 153
34.6521 -37.6653 -23.0893 0 0 151
33.895 -36.5983 -23.6008 0 0 151
34.6867 -33.9075 -24.7056 0 0 169
33.5234 -35.3561 -23.9609 0 0 169
33.3884 -34.1481 -24.3699 0 0 196
34.6867 -33.9075 -24.7056 0 0 141
35.8465 -32.5305 -24.8875 0 0 141
30.2649 -51.4785 -13.3769 0 0 152
29.5382 -52.8004 -13.4414 0 0 152
30.3555 -49.2386 -14.0544 0 0 155
30.2649 -51.4785 -13.3769 0 0 155
30.6038 -47.1161 -14.7515 0 0 187
29.5209 -48.1873 -14.7843 0 0 224
30.3555 -49.2386 -14.0544 0 0 187
30.9251 -45.1806 -15.6837 0 0 149
30.6038 -47.1161 -14.7515 0 0 149
31.3217 -43.2743 -16.7668 0 0 186
30.1657 -44.1585 -16.5645 0 0 222
30.9251 -45.1806 -15.6837 0 0 186
31.7989 -41.4897 -17.8662 0 0 222
31.3217 -43.2743 -16.7668 0 0 186
32.5584 -42.5117 -16.9855 0 0 186
34.5149 -39.7509 -17.9074 0 0 160
33.9063 -41.6573 -17.0038 0 0 160
33.8182 -38.9102 -19.0291 0 0 158
34.5149 -39.7509 -17.9074 0 0 158
33.1639 -37.8013 -20.0013 0 0 196
32.3813 -39.6182 -19.0571 0 0 237
33.8182 -38.9102 -19.0291 0 0 196
32.5529 -36.8107 -20.9867 0 0 152
33.1639 -37.8013 -20.0013 0 0 152
36.1257 -29.2907 -25.4156 0 0 131
35.4121 -30.9019 -24.5966 0 0 131
36.6912 -28.8254 -26.0648 0 0 128
36.1257 -29.2907 -25.4156 0 0 128
36.3892 -30.1073 -25.7185 0 0 131
36.6912 -28.8254 -26.0648 0 0 131
30.139 -67.3502 -14.4208 0 0 141
29.6454 -66.719 -13.8625 0 0 141
31.6036 -65.9345 -14.7579 0 0 146
30.139 -67.3502 -14.4208 0 0 146
33.3079 -64.1964 -15.1267 0 0 191
31.6036 -65.9345 -14.7579 0 0 191
32.4034 -63.7372 -14.9012 0 0 229
34.9723 -62.7413 -15.6524 0 0 156
33.3079 -64.1964 -15.1267 0 0 156
34.9723 -62.7413 -15.6524 0 0 152
35.7077 -60.9232 -16.2792 0 0 152
37.148 -56.8947 -17.2178 0 0 157
36.4623 -55.7879 -16.6452 0 0 157
28.537 -55.9618 -13.4578 0 0 145
29.0454 -54.4054 -13.4963 0 0 145
28.4927 -57.348 -13.6283 0 0 162
28.537 -55.9618 -13.4578 0 0 162
28.2425 -54.9061 -14.3675 0 0 186
28.0922 -58.4702 -13.9161 0 0 138
28.4927 -57.348 -13.6283 0 0 138
28.6354 -57.1811 -14.7083 0 0 181
28.5294 -59.359 -14.0864 0 0 159
28.0922 -58.4702 -13.9161 0 0 159
35.3608 -50.2185 -17.0752 0 0 200
33.8259 -51.3019 -16.532 0 0 244
34.0256 -49.5201 -17.2767 0 0 200
36.4117 -51.2332 -17.5755 0 0 157
35.3608 -50.2185 -17.0752 0 0 157
3 37 9 38
3 39 11 40
3 41 40 9
3 39 40 41
3 1 14 12
3 1 15 14
3 0 18 16
3 43 42 19
3 44 21 45
3 46 22 47
3 48 23 49
3 50 49 22
3 48 49 50
3 3 26 24
3 5 27 8
3 5 28 27
3 5 51 53
3 53 52 28
3 51 52 53
3 55 54 10
3 56 29 57
3 2 58 60
3 58 30 59
3 58 59 60
3 6 31 13
3 6 61 63
3 63 62 31
3 61 62 63
3 6 64 65
3 7 32 17
3 7 33 32
3 4 34 25
3 66 35 67
3 68 67 20
3 66 67 68
3 69 36 70
3 71 70 35
3 69 70 71
3 73 72 36
3 74 8 75
3 76 75 3
3 74 75 76
3 9 77 79
3 77 8 78
3 77 78 79
3 9 5 8
3 9 10 5
3 11 10 9
3 11 80 82
3 82 81 10
3 80 81 82
3 12 13 2
3 14 13 12
3 14 6 13
3 14 83 85
3 85 84 6
3 83 84 85
3 15 86 88
3 88 87 14
3 86 87 88
3 15 89 90
3 16 91 93
3 91 17 92
3 91 92 93
3 18 17 16
3 18 7 17
3 19 20 4
3 94 20 95
3 96 95 19
3 94 95 96
3 98 97 20
3 21 99 100
3 21 101 103
3 101 2 102
3 101 102 103
3 104 21 105
3 22 106 108
3 106 21 107
3 106 107 108
3 22 2 21
3 22 12 2
3 23 12 22
3 23 1 12
3 24 25 0
3 26 25 24
3 26 4 25
3 8 26 3
3 27 26 8
3 27 4 26
3 27 19 4
3 28 19 27
3 28 109 111
3 111 110 19
3 109 110 111
3 28 112 113
3 115 114 28
3 10 116 118
3 118 117 5
3 116 117 118
3 120 119 10
3 121 16 122
3 123 16 124
3 125 0 126
3 127 126 16
3 125 126 127
3 128 0 129
3 130 24 131
3 132 131 0
3 130 131 132
3 29 133 135
3 133 24 134
3 133 134 135
3 29 3 24
3 136 29 137
3 138 29 139
3 140 3 141
3 142 141 29
3 140 141 142
3 144 143 3
3 145 11 146
3 147 11 148
3 150 149 11
3 30 151 152
3 30 153 154
3 13 30 2
3 31 30 13
3 31 155 157
3 157 156 30
3 155 156 157
3 31 158 159
3 161 160 31
3 163 162 6
3 17 164 165
3 32 166 168
3 168 167 17
3 166 167 168
3 32 169 170
3 32 171 173
3 171 23 172
3 171 172 173
3 33 23 32
3 33 1 23
3 25 18 0
3 34 18 25
3 34 7 18
3 20 34 4
3 35 34 20
3 35 7 34
3 35 33 7
3 36 33 35
3 36 1 33
3 36 15 1
3 174 15 175
3 176 175 36
3 174 175 176
3 178 177 15
