ply
format ascii 1.0
element vertex 198
property float x
property float y
property float z
property uchar red
property uchar green
property uchar blue
element face 190
property list uchar int vertex_index
end_header
43.9224 -77.5527 18.8002 255 63 0
38.1308 -82.317 26.0697 255 210 0
36.23 -79.8424 32.2276 0 255 255
42.3338 -75.2515 24.4997 255 194 0
41.8103 -72.7537 20.4475 128 0 0
44.9017 -75.2704 14.6741 209 255 46
40.5256 -77.1511 14.204 215 0 0
39.6095 -78.1027 28.1754 187 255 68
41.5326 -79.4929 22.4292 255 24 0
40.1786 -81.2311 17.1684 255 185 0
38.335 -83.6077 20.5762 45 255 210
43.0189 -76.3276 22.1064 255 122 0
42.1329 -74.0572 22.852 255 52 0
43.4806 -75.0234 19.7275 255 0 0
43.5936 -74.0732 17.5782 255 54 0
44.5251 -76.3317 16.5151 255 157 0
42.8751 -76.0048 14.2769 255 222 0
42.7801 -77.7645 16.1121 255 108 0
37.1116 -81.241 29.2695 255 229 0
37.7144 -79.4668 30.1059 121 255 134
39.0795 -80.6232 27.511 255 22 0
40.9962 -78.8622 25.6724 234 0 0
39.857 -81.1305 24.3514 223 0 0
39.8797 -81.8905 21.3947 255 42 0
38.608 -83.2096 23.3524 135 255 120
38.3247 -82.9687 16.2162 126 255 129
38.385 -81.2558 14.874 194 255 61
37.0159 -83.2 13.5883 0 129 255
34.98 -78.5652 33.7352 0 138 255
35.6065 -79.946 30.2771 18 255 237
36.3716 -81.1011 27.2229 27 255 228
37.1202 -82.2655 24.6493 0 164 255
40.6823 -74.2096 26.8295 6 255 249
40.7273 -72.9731 25.106 73 255 182
40.1918 -71.5192 23.4636 212 255 43
39.8066 -70.1069 21.3905 135 255 120
41.2671 -71.6959 18.1931 219 255 36
43.0693 -73.0469 15.8407 79 255 176
45.1596 -74.0266 13.7666 0 117 255
43.6154 -74.8085 12.8485 0 185 255
41.0582 -75.0842 12.3021 121 255 134
38.3786 -76.2947 11.9937 255 254 0
41.5193 -76.6202 26.3901 224 255 31
42.4923 -77.6445 23.5773 255 156 0
42.831 -78.7383 20.7343 255 151 0
42.2537 -79.342 17.9858 255 140 0
41.173 -80.513 19.5591 255 124 0
39.4252 -82.556 18.6034 255 176 0
37.5687 -84.2421 18.0738 0 196 255
40.3549 -79.3792 15.8777 255 39 0
38.0984 -78.9762 13.6771 255 152 0
36.2626 -78.3771 11.2758 0 253 255
36.9652 -83.8905 14.3707 0 0 163
37.6703 -83.0844 14.9022 0 0 189
37.6196 -83.7749 15.6846 0 0 163
34.6897 -77.2091 34.1356 0 0 197
34.8748 -77.5989 35.4847 0 0 197
34.5845 -76.2427 35.8852 0 0 154
35.6071 -79.1674 28.9392 0 0 153
35.2388 -78.6782 30.5703 0 0 153
35.9897 -79.745 27.4121 0 0 198
35.989 -80.5236 28.75 0 0 241
35.6071 -79.1674 28.9392 0 0 198
36.2222 -80.1668 26.1204 0 0 147
35.9897 -79.745 27.4121 0 0 147
36.6888 -78.8533 32.9738 0 0 147
36.076 -79.105 34.1224 0 0 147
38.6609 -77.3895 29.542 0 0 201
37.7133 -78.0715 30.5073 0 0 201
38.6619 -78.7848 29.1406 0 0 246
39.3461 -76.7717 28.3825 0 0 153
38.6609 -77.3895 29.542 0 0 153
40.5644 -77.3615 27.2827 0 0 237
40.301 -76.0304 27.4899 0 0 195
39.3461 -76.7717 28.3825 0 0 195
37.0906 -82.6937 23.3676 0 0 146
36.7733 -81.3243 23.7014 0 0 146
37.1858 -79.9459 13.1535 0 0 184
38.2417 -80.116 14.2756 0 0 221
37.3291 -81.0857 13.752 0 0 184
36.2679 -79.6463 11.9529 0 0 190
37.1805 -78.6767 12.4764 0 0 230
37.1858 -79.9459 13.1535 0 0 190
36.6445 -82.0578 13.1091 0 0 181
37.3291 -81.0857 13.752 0 0 181
37.7005 -82.2279 14.2311 0 0 216
35.4509 -78.4665 34.8762 0 0 170
35.3458 -77.5001 36.6257 0 0 140
34.8748 -77.5989 35.4847 0 0 170
35.605 -79.2038 32.9814 0 0 194
36.076 -79.105 34.1224 0 0 166
35.4509 -78.4665 34.8762 0 0 166
34.9256 -77.9878 32.2993 0 0 158
34.6897 -77.2091 34.1356 0 0 158
35.2932 -79.2556 32.0061 0 0 243
34.9256 -77.9878 32.2993 0 0 198
35.2388 -78.6782 30.5703 0 0 198
36.5965 -80.749 24.8336 0 0 194
36.7459 -81.6833 25.9361 0 0 236
36.2222 -80.1668 26.1204 0 0 194
36.7733 -81.3243 23.7014 0 0 146
36.5965 -80.749 24.8336 0 0 146
40.3335 -72.8685 27.2576 0 0 147
39.9575 -73.3147 28.2881 0 0 147
40.3561 -72.2503 26.3958 0 0 173
40.3335 -72.8685 27.2576 0 0 173
40.7048 -73.5913 25.9678 0 0 204
40.1739 -71.6359 25.6363 0 0 141
40.3561 -72.2503 26.3958 0 0 141
39.9061 -70.909 24.8151 0 0 178
40.1739 -71.6359 25.6363 0 0 178
40.4595 -72.2462 24.2848 0 0 213
39.626 -70.0934 24.0081 0 0 147
39.9061 -70.909 24.8151 0 0 147
39.4335 -69.3872 22.9715 0 0 195
39.626 -70.0934 24.0081 0 0 195
39.9992 -70.8131 22.427 0 0 238
39.2089 -68.7123 21.9296 0 0 194
38.8357 -67.9926 23.5106 0 0 152
39.4335 -69.3872 22.9715 0 0 194
39.6591 -69.507 20.3068 0 0 152
39.2089 -68.7123 21.9296 0 0 152
40.3893 -70.3015 18.7081 0 0 200
39.6591 -69.507 20.3068 0 0 200
40.5368 -70.9014 19.7918 0 0 246
41.0464 -71.1691 17.306 0 0 148
40.3893 -70.3015 18.7081 0 0 148
41.9475 -71.8446 16.1298 0 0 180
41.0464 -71.1691 17.306 0 0 180
42.1682 -72.3714 17.0169 0 0 216
42.9548 -72.2757 15.1387 0 0 143
41.9475 -71.8446 16.1298 0 0 143
43.9999 -72.7656 14.1016 0 0 179
42.9548 -72.2757 15.1387 0 0 179
44.1144 -73.5367 14.8036 0 0 213
45.3185 -73.2848 13.4435 0 0 138
43.9999 -72.7656 14.1016 0 0 138
45.2503 -74.3273 12.8165 0 0 128
45.3185 -73.2848 13.4435 0 0 128
44.4783 -74.7183 12.3574 0 0 146
45.2503 -74.3273 12.8165 0 0 146
44.3875 -74.4176 13.3075 0 0 165
43.2984 -74.7863 11.716 0 0 134
44.4783 -74.7183 12.3574 0 0 134
42.0198 -74.9242 11.4428 0 0 169
43.2984 -74.7863 11.716 0 0 169
42.3368 -74.9464 12.5753 0 0 198
40.5534 -75.0105 11.015 0 0 146
42.0198 -74.9242 11.4428 0 0 146
39.2136 -75.6157 10.8608 0 0 190
40.5534 -75.0105 11.015 0 0 190
39.7184 -75.6895 12.1479 0 0 230
37.8724 -76.3008 10.5573 0 0 154
39.2136 -75.6157 10.8608 0 0 154
37.4309 -78.6656 31.9129 0 0 183
36.6888 -78.8533 32.9738 0 0 183
36.9722 -79.6546 31.1668 0 0 220
37.4309 -78.6656 31.9129 0 0 158
37.7133 -78.0715 30.5073 0 0 158
39.8825 -74.8251 27.7096 0 0 155
39.9575 -73.3147 28.2881 0 0 155
41.1008 -75.4149 26.6098 0 0 220
39.8825 -74.8251 27.7096 0 0 184
40.301 -76.0304 27.4899 0 0 184
37.2416 -84.4116 16.6134 0 0 169
37.6196 -83.7749 15.6846 0 0 169
37.9467 -83.6054 17.145 0 0 199
37.8345 -83.1657 22.7191 0 0 156
37.8641 -82.7376 24.0008 0 0 179
37.0906 -82.6937 23.3676 0 0 156
37.698 -83.3648 21.331 0 0 154
38.4715 -83.4087 21.9643 0 0 175
37.8345 -83.1657 22.7191 0 0 154
37.3473 -83.6632 20.0233 0 0 134
37.698 -83.3648 21.331 0 0 134
36.9641 -83.9804 18.7721 0 0 156
37.9518 -83.9249 19.325 0 0 179
37.3473 -83.6632 20.0233 0 0 156
36.7168 -84.0487 17.3332 0 0 157
36.9641 -83.9804 18.7721 0 0 157
36.1123 -83.787 18.0315 0 0 133
37.2416 -84.4116 16.6134 0 0 134
36.7168 -84.0487 17.3332 0 0 134
36.8144 -77.342 10.1983 0 0 199
37.8724 -76.3008 10.5573 0 0 199
37.3206 -77.3359 11.6347 0 0 243
36.3915 -84.2053 13.2372 0 0 136
36.9652 -83.8905 14.3707 0 0 136
36.1385 -83.2368 12.4825 0 0 141
36.3915 -84.2053 13.2372 0 0 141
36.6445 -82.0578 13.1091 0 0 145
36.1385 -83.2368 12.4825 0 0 145
35.406 -79.5281 10.7317 0 0 151
36.2679 -79.6463 11.9529 0 0 151
35.58 -78.3088 9.7885 0 0 156
35.406 -79.5281 10.7317 0 0 156
36.8144 -77.342 10.1983 0 0 158
35.58 -78.3088 9.7885 0 0 158
3 0 13 11
3 0 15 13
3 0 17 15
3 1 20 18
3 1 22 20
3 1 24 22
3 52 27 53
3 54 53 25
3 52 53 54
3 55 28 56
3 55 56 57
3 58 29 59
3 60 30 61
3 62 61 29
3 60 61 62
3 64 63 30
3 3 33 32
3 4 34 12
3 4 35 34
3 4 36 35
3 5 37 14
3 5 38 37
3 5 39 38
3 6 40 16
3 6 41 40
3 2 65 66
3 7 67 69
3 69 68 19
3 67 68 69
3 7 70 71
3 7 72 74
3 72 42 73
3 72 73 74
3 8 43 21
3 8 44 43
3 8 46 44
3 10 47 23
3 10 48 47
3 76 75 31
3 9 49 45
3 77 50 78
3 79 78 26
3 77 78 79
3 80 51 81
3 82 81 50
3 80 81 82
3 11 12 3
3 13 12 11
3 13 4 12
3 13 14 4
3 15 14 13
3 15 5 14
3 15 16 5
3 17 16 15
3 17 6 16
3 18 19 2
3 20 19 18
3 20 7 19
3 20 21 7
3 22 21 20
3 22 8 21
3 22 23 8
3 24 23 22
3 24 10 23
3 25 26 9
3 27 26 25
3 27 83 85
3 85 84 26
3 83 84 85
3 28 86 88
3 86 87 88
3 28 89 91
3 89 2 90
3 89 90 91
3 92 28 93
3 29 94 96
3 94 28 95
3 94 95 96
3 29 2 28
3 29 18 2
3 30 18 29
3 30 1 18
3 30 31 1
3 97 31 98
3 99 98 30
3 97 98 99
3 101 100 31
3 32 102 103
3 33 104 106
3 106 105 32
3 104 105 106
3 33 107 108
3 12 33 3
3 34 33 12
3 34 109 111
3 111 110 33
3 109 110 111
3 34 112 113
3 35 114 116
3 116 115 34
3 114 115 116
3 35 117 119
3 117 118 119
3 35 120 121
3 36 122 124
3 124 123 35
3 122 123 124
3 36 125 126
3 14 36 4
3 37 36 14
3 37 127 129
3 129 128 36
3 127 128 129
3 37 130 131
3 38 132 134
3 134 133 37
3 132 133 134
3 38 135 136
3 38 137 138
3 39 139 141
3 141 140 38
3 139 140 141
3 39 142 143
3 16 39 5
3 40 39 16
3 40 144 146
3 146 145 39
3 144 145 146
3 40 147 148
3 41 149 151
3 151 150 40
3 149 150 151
3 41 152 153
3 19 154 156
3 156 155 2
3 154 155 156
3 158 157 19
3 159 32 160
3 42 161 163
3 161 32 162
3 161 162 163
3 42 3 32
3 21 42 7
3 43 42 21
3 43 3 42
3 43 11 3
3 44 11 43
3 44 0 11
3 44 45 0
3 46 45 44
3 46 9 45
3 23 46 8
3 47 46 23
3 47 9 46
3 47 25 9
3 48 25 47
3 48 164 166
3 166 165 25
3 164 165 166
3 31 24 1
3 167 24 168
3 169 168 31
3 167 168 169
3 170 10 171
3 172 171 24
3 170 171 172
3 173 10 174
3 175 48 176
3 177 176 10
3 175 176 177
3 178 48 179
3 178 179 180
3 182 181 48
3 45 17 0
3 49 17 45
3 49 6 17
3 26 49 9
3 50 49 26
3 50 6 49
3 50 41 6
3 51 41 50
3 51 183 185
3 185 184 41
3 183 184 185
3 186 27 187
3 188 27 189
3 191 190 27
3 192 51 193
3 194 51 195
3 197 196 51
