ply
format ascii 1.0
element vertex 246
property float x
property float y
property float z
property uchar red
property uchar green
property uchar blue
element face 237
property list uchar int vertex_index
end_header
38.7121 16.0068 38.7999 137 255 118
37.6948 24.266 38.0688 255 230 0
39.9867 19.2901 32.0247 255 127 0
32.7925 10.7903 31.1966 234 255 21
36.5451 27.9626 32.3434 0 114 255
39.9379 20.8312 39.2335 94 255 161
40.8659 22.5267 35.2251 190 255 65
37.5387 18.5468 35.5555 255 115 0
34.8912 16.4466 31.7498 255 57 0
35.5155 13.6119 35.0442 255 31 0
36.0791 27.5142 37.2177 51 255 204
39.4566 25.2605 33.6109 169 255 86
44.4694 23.5291 33.0719 21 255 234
43.4686 20.8982 30.5174 0 206 255
37.2961 18.4497 28.2082 57 255 198
33.0761 13.9088 27.471 0 200 255
37.015 10.0321 38.5882 194 0 0
34.8727 6.95475 35.0209 242 255 13
39.9225 18.403 39.2075 170 255 85
39.1365 19.5409 37.4288 255 153 0
37.8094 17.1727 37.3916 255 99 0
36.2273 16.0557 35.5629 255 131 0
36.9597 14.6098 36.9065 255 52 0
37.2903 26.1571 37.9358 255 197 0
37.0749 25.954 35.2845 255 171 0
38.5389 24.8872 35.9757 255 247 0
41.0357 20.8328 33.8887 255 190 0
42.5801 22.9281 33.8216 221 255 34
42.7533 20.7475 32.8872 255 175 0
44.7734 21.4203 32.2759 43 255 212
41.6078 19.5787 30.9282 255 183 0
40.2939 19.7031 29.1137 127 255 128
38.5774 18.6685 30.0286 255 148 0
33.4408 13.8902 31.4568 255 27 0
33.6439 15.2355 29.6824 255 241 0
32.5155 12.276 29.3808 181 255 74
37.4445 5.6913 39.7944 0 176 255
37.316 8.64075 40.4642 150 255 105
36.4737 7.13925 38.3456 255 251 0
35.8009 8.71408 36.6831 240 0 0
36.1636 5.36801 36.5473 53 255 202
38.3622 22.3929 38.4986 47 255 208
39.2621 23.381 36.4958 154 255 101
39.7064 21.8717 37.2137 203 255 52
39.4522 20.6195 35.4829 255 197 0
38.546 19.3841 33.7294 255 113 0
37.2134 18.1959 31.737 255 77 0
36.3265 17.5006 33.7589 255 92 0
34.8321 15.1431 33.604 255 82 0
34.0126 12.4577 33.0553 168 0 0
36.7258 28.175 39.8093 0 237 255
37.0309 25.9429 40.3679 108 255 147
37.0485 23.2849 40.2315 8 255 247
41.1911 19.9908 40.7853 0 117 255
35.7458 27.1065 34.5064 48 255 207
37.8344 26.518 32.7128 74 255 181
40.8256 24.0948 34.8181 205 255 50
42.3444 24.8005 33.407 0 253 255
38.6671 19.9087 27.5808 0 114 255
35.7673 17.4055 29.8304 222 255 33
38.2199 11.4676 40.8693 109 255 146
37.9283 13.0648 38.504 255 138 0
36.4381 11.6246 36.544 212 0 0
34.9877 10.4743 34.9228 128 0 0
33.6578 8.81811 33.1319 255 184 0
32.6076 9.91674 30.129 0 0 180
32.469 10.6596 29.2211 0 0 180
32.654 11.5332 30.2887 0 0 219
37.5217 4.78557 38.699 0 0 137
38.1862 4.22935 39.2921 0 0 137
37.0363 5.50955 37.9746 0 0 180
36.9591 6.41527 39.07 0 0 220
37.5217 4.78557 38.699 0 0 180
36.8813 4.62393 37.0754 0 0 173
36.3187 6.25363 37.4464 0 0 210
37.0363 5.50955 37.9746 0 0 173
37.3373 28.7811 31.9356 0 0 161
36.7835 29.6539 31.8148 0 0 131
35.9913 28.8354 32.2227 0 0 161
38.0037 27.9574 31.9373 0 0 132
37.3373 28.7811 31.9356 0 0 132
36.6074 27.8567 41.269 0 0 134
36.0407 28.6251 40.8366 0 0 134
36.7599 26.7406 41.5482 0 0 178
36.8784 27.0589 40.0886 0 0 217
36.6074 27.8567 41.269 0 0 178
37.2201 22.7892 41.3635 0 0 147
36.9224 24.3114 41.5841 0 0 147
37.9329 22.2867 40.4096 0 0 136
37.2201 22.7892 41.3635 0 0 136
41.6913 19.4509 41.6401 0 0 130
40.6794 20.3721 41.6917 0 0 130
40.9163 18.6509 40.7575 0 0 136
41.6913 19.4509 41.6401 0 0 136
35.9124 27.3104 35.8621 0 0 197
35.0935 27.7918 35.4301 0 0 165
35.2602 27.9957 36.7858 0 0 165
40.2256 25.7822 32.8283 0 0 168
39.4146 26.4109 32.3793 0 0 168
38.6455 25.8892 33.1618 0 0 201
44.2965 24.6309 32.8534 0 0 157
43.2341 25.2666 33.021 0 0 157
43.4069 24.1648 33.2394 0 0 185
45.4136 23.936 32.9558 0 0 129
44.2965 24.6309 32.8534 0 0 129
44.9939 21.7515 31.1208 0 0 156
45.6463 22.0125 32 0 0 156
44.121 21.1592 31.3967 0 0 184
43.9678 21.6924 30.1813 0 0 134
44.9939 21.7515 31.1208 0 0 134
42.5274 21.112 29.7042 0 0 163
43.0266 21.9062 29.3681 0 0 132
43.9678 21.6924 30.1813 0 0 163
36.6434 18.2963 27.3316 0 0 156
37.3289 19.0258 27.0179 0 0 156
37.9816 19.1792 27.8945 0 0 184
33.8544 15.2479 27.6488 0 0 179
34.1384 15.9113 28.7545 0 0 179
33.36 14.5721 28.5767 0 0 218
33.6282 14.792 26.6261 0 0 137
33.8544 15.2479 27.6488 0 0 137
33.3085 13.369 26.4604 0 0 174
33.8606 14.2523 25.6155 0 0 137
33.6282 14.792 26.6261 0 0 174
35.4311 28.3012 33.0488 0 0 129
35.9913 28.8354 32.2227 0 0 129
32.5772 11.5314 28.2888 0 0 182
32.8575 12.3477 27.3339 0 0 182
32.7958 13.0924 28.4259 0 0 222
32.5772 11.5314 28.2888 0 0 141
32.469 10.6596 29.2211 0 0 141
38.0482 5.09908 40.4008 0 0 137
38.1862 4.22935 39.2921 0 0 137
37.5679 6.43883 40.959 0 0 135
38.0482 5.09908 40.4008 0 0 135
37.3802 7.16602 40.1293 0 0 211
37.5037 7.91356 41.2939 0 0 174
37.5679 6.43883 40.959 0 0 174
35.6305 28.3165 38.1413 0 0 133
35.2602 27.9957 36.7858 0 0 133
35.9538 28.6469 39.4371 0 0 131
36.0407 28.6251 40.8366 0 0 131
36.4025 27.8446 38.5135 0 0 191
35.6305 28.3165 38.1413 0 0 161
35.9538 28.6469 39.4371 0 0 161
36.9136 25.6403 41.6523 0 0 135
36.7599 26.7406 41.5482 0 0 135
37.0397 24.6139 40.2997 0 0 229
36.9136 25.6403 41.6523 0 0 186
36.9224 24.3114 41.5841 0 0 186
38.5897 21.8407 39.5432 0 0 166
37.7053 22.8389 39.365 0 0 198
37.9329 22.2867 40.4096 0 0 166
39.3776 21.0598 39.9106 0 0 150
39.15 21.612 38.8661 0 0 174
38.5897 21.8407 39.5432 0 0 150
40.0042 20.6396 40.6865 0 0 133
40.6794 20.3721 41.6917 0 0 133
40.5645 20.411 40.0094 0 0 173
39.3776 21.0598 39.9106 0 0 149
40.0042 20.6396 40.6865 0 0 149
40.282 17.857 39.9686 0 0 161
40.5568 19.1969 39.9964 0 0 192
40.9163 18.6509 40.7575 0 0 161
39.6768 16.6589 39.7649 0 0 166
39.3173 17.2049 39.0037 0 0 199
40.282 17.857 39.9686 0 0 166
35.0314 27.8732 34.1303 0 0 133
35.0935 27.7918 35.4301 0 0 133
36.1454 27.5345 33.4249 0 0 196
35.4311 28.3012 33.0488 0 0 164
35.0314 27.8732 34.1303 0 0 164
38.6484 27.2351 32.122 0 0 160
38.0037 27.9574 31.9373 0 0 160
37.1898 27.2403 32.5281 0 0 190
38.6484 27.2351 32.122 0 0 136
39.4146 26.4109 32.3793 0 0 136
41.6696 25.5522 32.7264 0 0 171
40.2256 25.7822 32.8283 0 0 171
40.9005 25.0305 33.5089 0 0 206
41.6696 25.5522 32.7264 0 0 133
43.2341 25.2666 33.021 0 0 133
45.5656 22.8816 32.5578 0 0 157
45.4136 23.936 32.9558 0 0 157
44.6214 22.4747 32.6739 0 0 186
45.5656 22.8816 32.5578 0 0 128
45.6463 22.0125 32 0 0 128
40.9401 20.5144 29.0023 0 0 163
42.5274 21.112 29.7042 0 0 163
41.8813 20.3006 29.8156 0 0 195
40.1266 20.6172 28.2359 0 0 156
40.9401 20.5144 29.0023 0 0 156
39.4805 19.8059 28.3473 0 0 183
39.0638 20.741 27.2899 0 0 135
40.1266 20.6172 28.2359 0 0 135
37.9011 19.9308 26.5928 0 0 160
38.2978 20.7631 26.3019 0 0 130
39.0638 20.741 27.2899 0 0 160
37.9011 19.9308 26.5928 0 0 136
37.3289 19.0258 27.0179 0 0 136
35.2001 16.9963 28.8285 0 0 174
34.7056 16.3205 29.7564 0 0 210
34.1384 15.9113 28.7545 0 0 174
35.9645 17.5184 28.0173 0 0 174
36.5317 17.9276 29.0193 0 0 211
35.2001 16.9963 28.8285 0 0 174
36.6434 18.2963 27.3316 0 0 134
35.9645 17.5184 28.0173 0 0 134
33.3085 13.369 26.4604 0 0 140
32.8575 12.3477 27.3339 0 0 140
39.0664 15.2646 39.7141 0 0 143
39.6768 16.6589 39.7649 0 0 143
37.8564 9.2789 41.437 0 0 134
37.5037 7.91356 41.2939 0 0 134
38.3083 10.6923 41.6395 0 0 168
37.8564 9.2789 41.437 0 0 168
37.7679 10.0542 40.6667 0 0 202
38.9175 12.1234 41.9276 0 0 138
38.3083 10.6923 41.6395 0 0 138
38.8203 12.995 40.7488 0 0 149
38.9175 12.1234 41.9276 0 0 149
38.6745 13.7936 39.5661 0 0 199
38.8203 12.995 40.7488 0 0 199
38.0741 12.2662 39.6866 0 0 248
38.3202 14.5358 38.652 0 0 226
39.0664 15.2646 39.7141 0 0 184
38.6745 13.7936 39.5661 0 0 184
37.1899 3.89098 36.1123 0 0 136
36.8813 4.62393 37.0754 0 0 136
36.2468 4.5372 35.5814 0 0 140
37.1899 3.89098 36.1123 0 0 140
35.6014 5.33056 34.8182 0 0 181
35.5182 6.16138 35.7841 0 0 221
36.2468 4.5372 35.5814 0 0 181
34.7113 6.04132 34.1172 0 0 143
35.6014 5.33056 34.8182 0 0 143
34.1038 6.973 33.1727 0 0 194
34.2653 7.88643 34.0764 0 0 240
34.7113 6.04132 34.1172 0 0 194
33.3864 7.87026 32.1169 0 0 154
34.1038 6.973 33.1727 0 0 154
32.9537 8.85637 31.1492 0 0 201
33.2252 9.80422 32.1643 0 0 252
33.3864 7.87026 32.1169 0 0 201
32.6076 9.91674 30.129 0 0 152
32.9537 8.85637 31.1492 0 0 152
3 0 20 18
3 0 22 20
3 1 25 23
3 2 28 26
3 2 30 28
3 2 32 30
3 3 35 33
3 3 65 67
3 67 66 35
3 65 66 67
3 68 36 69
3 70 38 71
3 72 71 36
3 70 71 72
3 73 40 74
3 75 74 38
3 73 74 75
3 4 76 78
3 76 77 78
3 4 79 80
3 5 43 41
3 7 44 19
3 7 45 44
3 7 47 45
3 9 48 21
3 9 49 48
3 81 50 82
3 83 51 84
3 85 84 50
3 83 84 85
3 86 52 87
3 89 88 52
3 90 53 91
3 93 92 53
3 10 94 96
3 94 54 95
3 94 95 96
3 11 55 24
3 11 97 99
3 99 98 55
3 97 98 99
3 6 56 42
3 12 57 27
3 12 100 102
3 102 101 57
3 100 101 102
3 12 103 104
3 13 105 107
3 107 106 29
3 105 106 107
3 13 108 109
3 13 110 112
3 110 111 112
3 14 58 31
3 14 113 115
3 115 114 58
3 113 114 115
3 8 59 46
3 15 116 118
3 118 117 34
3 116 117 118
3 15 119 120
3 15 121 123
3 121 122 123
3 16 60 37
3 16 61 60
3 16 62 61
3 17 63 39
3 17 64 63
3 124 4 125
3 18 19 5
3 20 19 18
3 20 7 19
3 20 21 7
3 22 21 20
3 22 9 21
3 23 24 10
3 25 24 23
3 25 11 24
3 26 27 6
3 28 27 26
3 28 12 27
3 28 29 12
3 30 29 28
3 30 13 29
3 30 31 13
3 32 31 30
3 32 14 31
3 33 34 8
3 35 34 33
3 35 15 34
3 35 126 128
3 128 127 15
3 126 127 128
3 130 129 35
3 36 131 132
3 36 133 134
3 36 135 137
3 135 37 136
3 135 136 137
3 38 37 36
3 38 16 37
3 38 39 16
3 40 39 38
3 40 17 39
3 41 42 1
3 43 42 41
3 43 6 42
3 19 43 5
3 44 43 19
3 44 6 43
3 44 26 6
3 45 26 44
3 45 2 26
3 45 46 2
3 47 46 45
3 47 8 46
3 21 47 7
3 48 47 21
3 48 8 47
3 48 33 8
3 49 33 48
3 49 3 33
3 138 10 139
3 50 140 141
3 50 142 144
3 142 10 143
3 142 143 144
3 50 23 10
3 51 23 50
3 51 1 23
3 145 51 146
3 52 147 149
3 147 51 148
3 147 148 149
3 52 1 51
3 52 41 1
3 150 41 151
3 152 151 52
3 150 151 152
3 153 5 154
3 155 154 41
3 153 154 155
3 53 156 157
3 53 158 160
3 158 5 159
3 158 159 160
3 53 18 5
3 161 18 162
3 163 162 53
3 161 162 163
3 164 0 165
3 166 165 18
3 164 165 166
3 54 167 168
3 54 169 171
3 169 4 170
3 169 170 171
3 24 54 10
3 55 54 24
3 55 4 54
3 55 172 174
3 174 173 4
3 172 173 174
3 176 175 55
3 42 25 1
3 56 25 42
3 56 11 25
3 27 56 6
3 57 56 27
3 57 11 56
3 57 177 179
3 179 178 11
3 177 178 179
3 181 180 57
3 29 182 184
3 184 183 12
3 182 183 184
3 186 185 29
3 31 187 189
3 189 188 13
3 187 188 189
3 58 190 192
3 192 191 31
3 190 191 192
3 58 193 194
3 58 195 197
3 195 196 197
3 199 198 58
3 46 32 2
3 59 32 46
3 59 14 32
3 34 59 8
3 200 59 201
3 202 201 34
3 200 201 202
3 203 14 204
3 205 204 59
3 203 204 205
3 207 206 14
3 209 208 15
3 210 0 211
3 37 212 213
3 60 214 216
3 216 215 37
3 214 215 216
3 60 217 218
3 60 219 220
3 61 221 223
3 223 222 60
3 221 222 223
3 61 224 226
3 224 0 225
3 224 225 226
3 61 22 0
3 62 22 61
3 62 9 22
3 39 62 16
3 63 62 39
3 63 9 62
3 63 49 9
3 64 49 63
3 64 3 49
3 227 40 228
3 229 40 230
3 231 17 232
3 233 232 40
3 231 232 233
3 234 17 235
3 236 64 237
3 238 237 17
3 236 237 238
3 239 64 240
3 241 3 242
3 243 242 64
3 241 242 243
3 245 244 3
