ply
format ascii 1.0
element vertex 231
property float x
property float y
property float z
property uchar red
property uchar green
property uchar blue
element face 210
property list uchar int vertex_index
end_header
38.9937 -9.46849 61.0213 255 100 0
32.8298 -13.3969 60.6141 143 0 0
40.6639 -9.80973 53.3194 82 255 173
27.8724 -14.6961 67.4275 112 255 143
29.0481 -14.6837 60.7165 253 0 0
31.6927 -15.6172 66.4348 255 5 0
41.4251 -9.23368 58.1023 255 187 0
39.636 -14.1467 59.8143 75 255 180
35.6757 -11.1103 61.204 255 70 0
38.697 -14.6658 63.463 95 255 160
35.5481 -15.3165 65.236 255 59 0
44.7701 -7.4775 52.6701 0 8 255
24.4968 -13.3137 56.8599 67 255 188
27.2233 -13.6219 65.2427 93 255 162
27.6573 -14.3602 60.7548 255 152 0
28.8291 -14.5599 64.6483 255 3 0
26.6719 -14.0596 56.9981 255 192 0
40.6265 -9.14482 59.8055 255 198 0
40.4231 -11.3779 59.1434 220 255 35
40.1404 -11.6107 61.1109 255 103 0
36.5762 -8.9185 58.8718 206 255 49
38.597 -7.90675 58.9209 133 255 122
40.4995 -7.41814 58.2593 105 255 150
34.2793 -12.2405 60.7805 255 13 0
35.9235 -12.851 63.4758 255 108 0
34.2217 -13.6627 63.5031 255 22 0
30.5363 -17.6076 68.4889 134 255 121
32.4092 -17.7961 67.5956 143 255 112
30.6466 -13.9529 57.4675 255 208 0
32.2731 -12.8229 57.4173 213 255 42
33.706 -11.6769 57.7623 161 255 94
42.6826 -8.07321 55.1851 57 255 198
42.9278 -8.57228 53.0733 0 174 255
28.5887 -17.2321 69.1485 27 255 228
30.8546 -14.4115 60.789 128 0 0
32.3326 -14.5893 63.5217 206 0 0
30.2887 -14.8428 63.9182 240 0 0
29.7081 -15.395 67.2596 255 34 0
25.8939 -13.5338 54.3959 0 171 255
28.5511 -14.2459 57.4584 255 188 0
41.2858 -9.53996 55.8234 199 255 56
39.8099 -11.3097 56.8773 84 255 171
40.2402 -6.70638 55.7769 0 175 255
41.9721 -7.60069 56.8934 75 255 180
37.3096 -10.1718 61.4543 255 82 0
38.8529 -11.8811 62.5331 255 172 0
37.4258 -12.2632 63.1963 255 181 0
37.2847 -15.0384 64.587 204 255 51
36.0994 -18.052 65.236 54 255 201
33.6064 -15.5918 65.6866 255 44 0
34.3133 -18.0022 66.4943 163 255 92
35.0244 -10.3529 58.3637 192 255 63
39.6269 -14.4112 61.8618 141 255 114
25.8472 -13.7076 58.8237 0 0 217
23.6328 -13.0772 58.4735 0 0 217
25.9709 -13.6348 64.7379 0 0 185
27.2105 -13.8616 63.0151 0 0 185
27.2105 -13.8616 63.0151 0 0 142
27.4403 -13.991 62.9987 0 0 157
27.4275 -14.2308 60.7711 0 0 142
27.4275 -14.2308 60.7711 0 0 139
26.0771 -13.837 58.8073 0 0 154
25.8472 -13.7076 58.8237 0 0 139
30.3946 -18.8324 68.2037 0 0 142
29.5013 -18.7299 68.4699 0 0 142
39.4253 -10.6617 52.321 0 0 158
40.513 -9.8904 52.0109 0 0 158
40.513 -9.8904 52.0109 0 0 201
41.645 -9.27167 51.8878 0 0 201
41.7959 -9.19101 53.1964 0 0 246
27.2532 -15.2779 68.1103 0 0 180
27.6114 -16.5459 68.9708 0 0 180
28.2306 -15.9641 68.288 0 0 215
24.9622 -13.1493 54.5703 0 0 141
24.7791 -12.6396 53.5463 0 0 141
39.1869 -13.9165 58.743 0 0 199
39.5804 -12.5321 58.4075 0 0 199
40.0296 -12.7623 59.4789 0 0 244
38.8183 -15.3298 58.7737 0 0 156
39.1869 -13.9165 58.743 0 0 156
39.2437 -7.08263 55.9508 0 0 161
39.1059 -6.9894 54.1622 0 0 161
33.1932 -19.1285 66.6218 0 0 186
33.3612 -17.8991 67.045 0 0 224
32.2411 -19.0254 67.1724 0 0 186
34.066 -19.1254 65.9735 0 0 147
33.1932 -19.1285 66.6218 0 0 147
44.4274 -6.65174 52.479 0 0 132
44.2046 -7.18844 53.3591 0 0 132
45.2861 -6.75394 52.324 0 0 130
44.4274 -6.65174 52.479 0 0 130
45.0764 -7.78794 51.847 0 0 133
45.2861 -6.75394 52.324 0 0 133
23.5285 -12.554 56.8764 0 0 164
23.6328 -13.0772 58.4735 0 0 164
24.2636 -13.0393 55.8023 0 0 180
23.2953 -12.2795 55.8188 0 0 145
23.5285 -12.554 56.8764 0 0 180
26.5635 -13.8861 66.0011 0 0 167
26.8881 -14.4232 67.0936 0 0 167
27.5479 -14.159 66.3351 0 0 195
26.5635 -13.8861 66.0011 0 0 146
25.9709 -13.6348 64.7379 0 0 146
25.5844 -13.6867 56.929 0 0 207
25.3512 -13.4122 55.8714 0 0 175
24.2636 -13.0393 55.8023 0 0 175
36.3914 -8.72514 57.4105 0 0 156
35.4051 -9.3703 57.1545 0 0 156
37.4018 -8.21926 57.4351 0 0 199
36.3914 -8.72514 57.4105 0 0 199
37.5866 -8.41263 58.8963 0 0 243
38.4221 -7.68281 57.5228 0 0 154
37.4018 -8.21926 57.4351 0 0 154
39.5482 -7.66244 58.5901 0 0 225
39.3734 -7.43851 57.192 0 0 186
38.4221 -7.68281 57.5228 0 0 186
31.331 -18.9266 67.7571 0 0 180
31.4727 -17.7018 68.0423 0 0 215
30.3946 -18.8324 68.2037 0 0 180
32.2411 -19.0254 67.1724 0 0 148
31.331 -18.9266 67.7571 0 0 148
30.2191 -13.6147 55.7542 0 0 158
29.2427 -13.9101 55.7649 0 0 158
31.0323 -13.0497 55.7291 0 0 205
30.2191 -13.6147 55.7542 0 0 205
31.4599 -13.3879 57.4424 0 0 252
31.8478 -12.5571 55.835 0 0 151
31.0323 -13.0497 55.7291 0 0 151
32.9896 -12.2499 57.5898 0 0 229
32.5642 -11.9841 56.0075 0 0 189
31.8478 -12.5571 55.835 0 0 189
38.6134 -16.0751 62.7321 0 0 152
38.1521 -16.2322 63.6237 0 0 152
43.1608 -7.4863 54.6166 0 0 128
42.4558 -7.31743 55.105 0 0 128
43.2834 -7.73583 53.5607 0 0 158
43.1608 -7.4863 54.6166 0 0 158
42.8052 -8.32274 54.1292 0 0 182
43.849 -8.02489 52.8717 0 0 181
44.2046 -7.18844 53.3591 0 0 158
43.2834 -7.73583 53.5607 0 0 158
42.9604 -8.84091 51.9416 0 0 177
43.8816 -8.29352 51.74 0 0 177
43.849 -8.02489 52.8717 0 0 211
42.9604 -8.84091 51.9416 0 0 153
41.645 -9.27167 51.8878 0 0 153
27.7173 -17.9379 69.2847 0 0 143
28.5275 -18.5421 68.7997 0 0 143
27.7173 -17.9379 69.2847 0 0 145
27.6114 -16.5459 68.9708 0 0 145
27.2532 -15.2779 68.1103 0 0 141
26.8881 -14.4232 67.0936 0 0 141
28.5275 -18.5421 68.7997 0 0 184
29.5013 -18.7299 68.4699 0 0 184
29.5625 -17.4199 68.8187 0 0 221
25.5702 -13.1187 53.0223 0 0 151
24.7791 -12.6396 53.5463 0 0 151
26.8664 -13.7005 54.2291 0 0 149
25.5702 -13.1187 53.0223 0 0 149
26.2829 -13.7967 55.697 0 0 221
24.9622 -13.1493 54.5703 0 0 184
25.3512 -13.4122 55.8714 0 0 184
28.195 -14.0566 55.7603 0 0 203
26.8664 -13.7005 54.2291 0 0 203
27.2225 -13.8898 55.9271 0 0 249
29.5989 -14.0994 57.4629 0 0 254
29.2427 -13.9101 55.7649 0 0 206
28.195 -14.0566 55.7603 0 0 206
40.0865 -10.4392 55.0451 0 0 197
39.7755 -10.574 53.7931 0 0 197
40.9748 -9.67485 54.5714 0 0 240
39.3485 -11.324 55.572 0 0 202
40.0865 -10.4392 55.0451 0 0 202
40.5478 -10.4248 56.3504 0 0 247
38.6129 -12.2509 56.0943 0 0 157
39.3485 -11.324 55.572 0 0 157
39.2738 -12.498 57.2745 0 0 193
40.1165 -11.3438 58.0104 0 0 235
39.5804 -12.5321 58.4075 0 0 193
38.6129 -12.2509 56.0943 0 0 159
39.2738 -12.498 57.2745 0 0 159
40.1783 -6.64056 54.2033 0 0 157
39.1059 -6.9894 54.1622 0 0 157
41.2346 -6.63402 55.4008 0 0 153
40.1783 -6.64056 54.2033 0 0 153
40.3699 -7.06226 57.0181 0 0 220
39.2437 -7.08263 55.9508 0 0 184
39.3734 -7.43851 57.192 0 0 184
42.1006 -7.08117 55.9591 0 0 165
41.2346 -6.63402 55.4008 0 0 165
41.1062 -7.15354 56.3352 0 0 192
42.3274 -7.83695 56.0393 0 0 169
42.4558 -7.31743 55.105 0 0 149
42.1006 -7.08117 55.9591 0 0 149
37.446 -16.4185 64.1857 0 0 181
38.1521 -16.2322 63.6237 0 0 181
37.9908 -14.8521 64.025 0 0 216
36.8534 -17.9253 64.5102 0 0 190
37.446 -16.4185 64.1857 0 0 190
36.692 -16.5452 64.9115 0 0 230
35.7113 -19.1412 64.4587 0 0 149
36.8534 -17.9253 64.5102 0 0 149
34.959 -19.1503 65.3443 0 0 183
35.2064 -18.0271 65.8652 0 0 220
34.066 -19.1254 65.9735 0 0 183
35.7113 -19.1412 64.4587 0 0 152
34.959 -19.1503 65.3443 0 0 152
33.1847 -11.423 56.2835 0 0 144
32.5642 -11.9841 56.0075 0 0 144
33.8439 -10.7611 56.5842 0 0 186
33.1847 -11.423 56.2835 0 0 186
34.3652 -11.0149 58.063 0 0 224
34.6292 -10.0875 56.9004 0 0 152
33.8439 -10.7611 56.5842 0 0 152
35.8003 -9.63572 58.6177 0 0 238
35.4051 -9.3703 57.1545 0 0 195
34.6292 -10.0875 56.9004 0 0 195
39.4253 -10.6617 52.321 0 0 160
39.7755 -10.574 53.7931 0 0 160
39.0784 -15.9478 61.9314 0 0 187
39.162 -14.5385 62.6624 0 0 225
38.6134 -16.0751 62.7321 0 0 187
39.1348 -15.7446 60.9187 0 0 154
39.0784 -15.9478 61.9314 0 0 154
39.1394 -15.6123 59.8949 0 0 194
39.6315 -14.279 60.8381 0 0 236
39.1348 -15.7446 60.9187 0 0 194
38.8183 -15.3298 58.7737 0 0 159
39.1394 -15.6123 59.8949 0 0 159
45.0764 -7.78794 51.847 0 0 142
43.8816 -8.29352 51.74 0 0 142
3 53 12 54
3 56 55 13
3 57 13 58
3 59 58 14
3 57 58 59
3 60 14 61
3 62 61 12
3 60 61 62
3 0 19 17
3 0 21 20
3 0 17 21
3 1 25 23
3 64 63 26
3 1 29 28
3 1 23 29
3 2 65 66
3 2 32 31
3 2 67 69
3 69 68 32
3 67 68 69
3 3 70 72
3 72 71 33
3 70 71 72
3 4 36 34
3 3 37 15
3 3 33 37
3 73 38 74
3 4 39 16
3 4 34 39
3 6 41 40
3 7 75 77
3 77 76 18
3 75 76 77
3 7 78 79
3 80 42 81
3 6 43 22
3 6 40 43
3 8 46 44
3 10 47 24
3 10 48 47
3 5 49 35
3 82 50 83
3 84 83 27
3 82 83 84
3 86 85 50
3 8 51 30
3 8 44 51
3 9 52 45
3 11 87 88
3 11 89 90
3 11 91 92
3 12 93 94
3 12 95 97
3 95 96 97
3 13 98 100
3 100 99 3
3 98 99 100
3 102 101 13
3 14 15 4
3 13 15 14
3 13 3 15
3 12 103 105
3 103 16 104
3 103 104 105
3 14 16 12
3 14 4 16
3 17 18 6
3 19 18 17
3 19 7 18
3 20 106 107
3 21 108 110
3 110 109 20
3 108 109 110
3 21 111 112
3 21 113 115
3 113 22 114
3 113 114 115
3 17 22 21
3 17 6 22
3 23 24 8
3 25 24 23
3 25 10 24
3 26 27 5
3 116 27 117
3 118 117 26
3 116 117 118
3 120 119 27
3 28 121 122
3 29 123 125
3 125 124 28
3 123 124 125
3 29 126 127
3 29 128 130
3 128 30 129
3 128 129 130
3 23 30 29
3 23 8 30
3 132 131 9
3 31 133 134
3 32 135 137
3 137 136 31
3 135 136 137
3 32 138 140
3 138 11 139
3 138 139 140
3 32 141 143
3 143 142 11
3 141 142 143
3 145 144 32
3 33 146 147
3 149 148 33
3 151 150 3
3 34 35 1
3 36 35 34
3 36 5 35
3 15 36 4
3 37 36 15
3 37 5 36
3 37 26 5
3 33 26 37
3 33 152 154
3 154 153 26
3 152 153 154
3 38 155 156
3 38 157 158
3 16 159 161
3 159 38 160
3 159 160 161
3 39 38 16
3 39 162 164
3 164 163 38
3 162 163 164
3 39 165 167
3 165 28 166
3 165 166 167
3 34 28 39
3 34 1 28
3 40 168 170
3 170 169 2
3 168 169 170
3 41 171 173
3 173 172 40
3 171 172 173
3 41 174 175
3 18 41 6
3 176 41 177
3 178 177 18
3 176 177 178
3 180 179 41
3 42 181 182
3 42 183 184
3 22 185 187
3 185 42 186
3 185 186 187
3 43 42 22
3 43 188 190
3 190 189 42
3 188 189 190
3 43 191 193
3 191 31 192
3 191 192 193
3 40 31 43
3 40 2 31
3 44 45 0
3 46 45 44
3 46 9 45
3 24 46 8
3 47 46 24
3 47 9 46
3 47 194 196
3 196 195 9
3 194 195 196
3 48 197 199
3 199 198 47
3 197 198 199
3 48 200 201
3 35 25 1
3 49 25 35
3 49 10 25
3 27 49 5
3 50 49 27
3 50 10 49
3 50 48 10
3 202 48 203
3 204 203 50
3 202 203 204
3 206 205 48
3 30 207 208
3 51 209 211
3 211 210 30
3 209 210 211
3 51 212 213
3 51 214 216
3 214 20 215
3 214 215 216
3 44 20 51
3 44 0 20
3 218 217 2
3 45 19 0
3 52 19 45
3 52 7 19
3 219 52 220
3 221 220 9
3 219 220 221
3 222 52 223
3 224 7 225
3 226 225 52
3 224 225 226
3 228 227 7
3 230 229 11
