ply
format ascii 1.0
element vertex 270
property float x
property float y
property float z
property uchar red
property uchar green
property uchar blue
element face 238
property list uchar int vertex_index
end_header
43.5643 -53.4052 43.3337 138 255 117
45.2632 -48.4642 38.7331 255 240 0
40.7776 -49.7583 39.3244 187 0 0
41.3517 -47.3783 37.1292 194 0 0
45.0081 -50.9817 41.8382 179 255 76
46.3841 -39.1965 39.8563 155 255 100
48.7032 -37.5139 44.2863 255 134 0
39.6301 -52.2516 40.3541 255 120 0
42.5807 -55.7477 41.7156 0 201 255
38.0357 -54.1858 38.6754 139 255 116
36.5089 -48.4783 37.6327 86 255 169
44.7682 -41.1173 36.249 255 195 0
38.8022 -42.6757 34.6654 45 255 210
42.7283 -44.4627 35.2877 167 0 0
41.9833 -51.5332 41.7277 168 0 0
42.9136 -50.3741 40.5578 178 0 0
44.1752 -52.1638 43.0159 248 255 7
37.6676 -51.6547 38.8529 166 255 89
39.0579 -53.2661 39.331 215 255 40
36.603 -52.6329 38.1364 91 255 164
35.8887 -50.0305 38.2153 6 255 249
37.9657 -50.5183 39.1449 255 49 0
43.8354 -39.5114 37.5582 134 255 121
42.9092 -40.5073 35.9861 170 255 85
43.286 -47.9775 37.9233 128 0 0
41.8389 -46.0585 35.8396 143 0 0
43.8349 -46.7794 36.4255 195 0 0
44.5746 -45.3401 35.815 255 210 0
45.7177 -47.4056 36.9836 70 255 185
50.5471 -37.9199 45.3359 255 231 0
49.7761 -36.608 46.5063 112 255 143
51.8182 -37.1519 47.5197 0 237 255
38.9253 -47.8568 37.2905 197 255 58
39.4229 -46.6381 35.9807 218 255 37
41.0904 -48.6181 38.4602 255 3 0
43.0552 -49.2345 39.538 255 17 0
44.9492 -49.6892 40.6937 210 255 45
45.7919 -37.8201 41.0559 172 255 83
46.9265 -36.9119 43.2982 119 255 136
47.727 -38.2665 41.9603 255 144 0
49.5705 -38.7289 42.7963 148 255 107
41.5197 -52.8731 41.9781 255 75 0
43.4419 -54.4909 42.4087 170 255 85
41.3239 -53.7724 40.8223 255 248 0
35.2909 -53.3681 37.8539 48 255 207
36.6045 -55.2169 38.6901 0 239 255
38.6938 -49.1162 38.4031 255 170 0
40.0174 -51.0365 40.4194 248 0 0
44.7142 -38.7256 39.3484 93 255 162
45.5492 -39.9504 37.9737 138 255 117
39.6497 -41.2685 35.1438 29 255 226
39.9157 -45.1029 35.1381 255 161 0
40.7899 -43.3393 34.7862 184 0 0
41.7916 -41.8369 35.113 255 187 0
43.719 -42.6718 35.351 161 0 0
45.5724 -43.6441 35.9434 80 255 175
44.5154 -54.3518 43.6345 0 0 136
44.6967 -53.749 43.949 0 0 136
44.6967 -53.749 43.949 0 0 176
45.0022 -53.1283 43.7901 0 0 176
43.8698 -52.7845 43.1748 0 0 214
35.9702 -51.8216 37.9933 0 0 167
37.1353 -52.1438 38.4946 0 0 201
36.5025 -51.3325 38.3515 0 0 167
35.613 -50.5204 38.0328 0 0 128
34.7751 -49.6019 38.0959 0 0 128
36.5025 -51.3325 38.3515 0 0 158
36.7781 -50.8426 38.5341 0 0 188
35.613 -50.5204 38.0328 0 0 158
41.8724 -40.2533 35.9874 0 0 136
42.4613 -39.8155 36.6381 0 0 136
46.2247 -48.7197 39.0283 0 0 186
46.4519 -48.1904 38.1536 0 0 186
45.4905 -47.9349 37.8584 0 0 229
52.156 -38.0437 46.6976 0 0 205
51.1826 -37.5359 46.4278 0 3 255
51.5204 -38.4277 45.6057 0 0 205
52.8166 -37.4377 47.5151 0 0 146
52.156 -38.0437 46.6976 0 0 146
45.9708 -51.1963 42.3467 0 0 167
45.9414 -50.55 41.7745 0 0 167
44.9787 -50.3354 41.266 0 0 201
49.7575 -39.7782 42.1626 0 0 151
48.8996 -39.2673 41.7291 0 0 151
50.4339 -39.306 43.2019 0 0 151
49.7575 -39.7782 42.1626 0 0 151
39.2877 -54.5171 39.3572 0 0 169
39.7988 -54.0573 39.685 0 0 169
38.5468 -53.726 39.0032 0 0 203
38.5415 -55.0012 39.2503 0 0 140
39.2877 -54.5171 39.3572 0 0 140
33.9336 -52.9253 37.8828 0 0 134
34.648 -52.5471 37.7337 0 0 134
35.9853 -55.8544 38.941 0 0 147
35.2477 -54.8539 38.523 0 0 147
37.143 -56.1854 39.2751 0 0 143
35.9853 -55.8544 38.941 0 0 143
35.5323 -47.4815 37.0621 0 0 137
35.4296 -48.1197 37.5861 0 0 137
36.6782 -47.8288 37.0787 0 0 141
35.5323 -47.4815 37.0621 0 0 141
37.6013 -48.7972 38.0179 0 0 223
37.7706 -48.1477 37.4639 0 0 182
36.6782 -47.8288 37.0787 0 0 182
43.5787 -56.1788 42.7017 0 0 190
44.0093 -55.5504 43.0483 0 0 190
43.0113 -55.1193 42.0622 0 0 235
43.8972 -38.4986 39.1389 0 0 130
44.515 -38.0185 39.89 0 0 130
45.5987 -41.606 36.5984 0 0 187
45.9892 -41.0225 37.4607 0 0 187
45.1587 -40.5338 37.1113 0 0 231
38.2468 -41.6695 35.0024 0 0 136
37.7467 -42.309 34.7952 0 0 136
39.226 -41.9721 34.9046 0 0 204
38.6705 -40.9659 35.2416 0 0 169
38.2468 -41.6695 35.0024 0 0 169
45.9858 -44.7132 36.053 0 0 172
45.0735 -44.4921 35.8792 0 0 208
45.4869 -45.5612 35.9888 0 0 172
46.3162 -43.9333 36.187 0 0 128
45.9858 -44.7132 36.053 0 0 128
48.2501 -36.6782 44.8236 0 0 187
47.3618 -36.3773 44.3295 0 0 187
47.8148 -37.2129 43.7923 0 0 231
49.5051 -35.5372 46.2126 0 0 147
50.4909 -35.9235 46.9725 0 0 147
45.234 -52.491 43.5648 0 0 192
45.6504 -51.8999 42.9759 0 0 192
44.5916 -51.5728 42.4271 0 0 239
45.234 -52.491 43.5648 0 0 135
45.0022 -53.1283 43.7901 0 0 135
47.3064 -39.5011 40.2591 0 0 145
46.7553 -40.0351 39.213 0 0 145
35.1195 -48.8958 37.8774 0 0 139
34.7751 -49.6019 38.0959 0 0 139
36.1988 -49.2544 37.924 0 0 221
35.4296 -48.1197 37.5861 0 0 181
35.1195 -48.8958 37.8774 0 0 181
42.2791 -56.9336 42.186 0 0 135
42.9258 -56.5446 42.4409 0 0 172
41.934 -56.1367 41.4607 0 0 172
42.9244 -39.3175 37.4241 0 0 134
43.4578 -38.8915 38.2439 0 0 134
43.3723 -40.0094 36.7722 0 0 206
42.9244 -39.3175 37.4241 0 0 170
42.4613 -39.8155 36.6381 0 0 170
38.4077 -43.4361 34.6924 0 0 138
37.7467 -42.309 34.7952 0 0 138
46.0585 -46.594 36.5732 0 0 174
45.4869 -45.5612 35.9888 0 0 174
45.1461 -46.3729 36.3993 0 0 211
46.6708 -47.6367 37.1877 0 0 139
46.0585 -46.594 36.5732 0 0 139
46.6708 -47.6367 37.1877 0 0 145
46.4519 -48.1904 38.1536 0 0 145
51.5119 -36.1955 47.4792 0 0 181
50.4909 -35.9235 46.9725 0 0 181
50.7971 -36.8799 47.013 0 0 222
52.5171 -36.482 47.8519 0 0 137
51.5119 -36.1955 47.4792 0 0 137
53.5156 -36.7678 47.8473 0 0 137
52.5171 -36.482 47.8519 0 0 175
52.8166 -37.4377 47.5151 0 0 175
39.1741 -47.2475 36.6356 0 0 226
38.4156 -46.1559 35.6621 0 0 184
38.1668 -46.7653 36.317 0 0 184
45.9081 -49.8714 41.0702 0 0 194
46.0651 -49.2589 40.0899 0 0 194
45.1062 -49.0767 39.7134 0 0 242
45.9081 -49.8714 41.0702 0 0 137
45.9414 -50.55 41.7745 0 0 137
45.9708 -51.1963 42.3467 0 0 143
45.6504 -51.8999 42.9759 0 0 143
46.3592 -37.366 42.177 0 0 226
46.0656 -36.6013 42.7361 0 0 184
45.4983 -37.0554 41.6149 0 0 184
47.9778 -39.0361 41.3111 0 0 186
47.0556 -38.7315 40.9083 0 0 229
47.3064 -39.5011 40.2591 0 0 186
48.6487 -38.4977 42.3783 0 0 229
47.9778 -39.0361 41.3111 0 0 186
48.8996 -39.2673 41.7291 0 0 186
50.9222 -38.9015 44.4717 0 0 214
50.0588 -38.3244 44.0661 0 16 255
50.4339 -39.306 43.2019 0 0 214
51.5204 -38.4277 45.6057 0 0 156
50.9222 -38.9015 44.4717 0 0 156
40.9318 -54.3104 40.4307 0 0 170
40.1909 -53.5193 40.0767 0 0 206
39.7988 -54.0573 39.685 0 0 170
41.5602 -55.298 40.8773 0 0 177
41.9523 -54.76 41.269 0 0 216
40.9318 -54.3104 40.4307 0 0 177
41.934 -56.1367 41.4607 0 0 134
41.5602 -55.298 40.8773 0 0 134
35.304 -52.1795 37.8749 0 0 131
35.9702 -51.8216 37.9933 0 0 131
35.9469 -53.0005 37.9951 0 0 195
35.304 -52.1795 37.8749 0 0 163
34.648 -52.5471 37.7337 0 0 163
34.5909 -53.9295 38.1048 0 0 145
33.9336 -52.9253 37.8828 0 0 145
35.9477 -54.2925 38.272 0 0 234
34.5909 -53.9295 38.1048 0 0 189
35.2477 -54.8539 38.523 0 0 189
37.8259 -55.5167 39.2577 0 0 179
38.5415 -55.0012 39.2503 0 0 179
37.3201 -54.7014 38.6827 0 0 218
37.8259 -55.5167 39.2577 0 0 146
37.143 -56.1854 39.2751 0 0 146
37.8864 -47.518 36.9076 0 0 145
38.1668 -46.7653 36.317 0 0 145
38.8095 -48.4865 37.8468 0 0 212
37.8864 -47.518 36.9076 0 0 175
37.7706 -48.1477 37.4639 0 0 175
44.4542 -54.8946 43.172 0 0 175
44.5154 -54.3518 43.6345 0 0 175
43.5031 -53.9481 42.8712 0 0 212
44.4542 -54.8946 43.172 0 0 141
44.0093 -55.5504 43.0483 0 0 141
43.5787 -56.1788 42.7017 0 0 135
42.9258 -56.5446 42.4409 0 0 135
45.0539 -37.5657 40.7438 0 0 132
45.4983 -37.0554 41.6149 0 0 132
45.253 -38.2728 40.2021 0 0 190
45.0539 -37.5657 40.7438 0 0 160
44.515 -38.0185 39.89 0 0 160
44.2748 -39.1185 38.4533 0 0 198
43.8972 -38.4986 39.1389 0 0 165
43.4578 -38.8915 38.2439 0 0 165
46.3378 -40.412 38.2717 0 0 177
46.7553 -40.0351 39.213 0 0 177
45.9666 -39.5734 38.915 0 0 215
46.3378 -40.412 38.2717 0 0 140
45.9892 -41.0225 37.4607 0 0 140
39.2935 -40.3687 35.536 0 0 134
38.6705 -40.9659 35.2416 0 0 134
40.2426 -40.6339 35.5663 0 0 134
39.2935 -40.3687 35.536 0 0 134
38.718 -45.4173 35.3501 0 0 139
38.4156 -46.1559 35.6621 0 0 139
38.9644 -44.6497 34.9288 0 0 176
38.718 -45.4173 35.3501 0 0 176
39.6693 -45.8705 35.5594 0 0 215
39.359 -43.8893 34.9017 0 0 211
38.4077 -43.4361 34.6924 0 0 174
38.9644 -44.6497 34.9288 0 0 174
41.3136 -40.9181 35.5509 0 0 178
40.2426 -40.6339 35.5663 0 0 178
40.7207 -41.5527 35.1284 0 0 217
42.3504 -41.1721 35.5495 0 0 215
41.8724 -40.2533 35.9874 0 0 176
41.3136 -40.9181 35.5509 0 0 176
46.0008 -42.8694 36.4456 0 0 183
45.5987 -41.606 36.5984 0 0 183
45.1703 -42.3807 36.0962 0 0 224
46.0008 -42.8694 36.4456 0 0 132
46.3162 -43.9333 36.187 0 0 132
46.2247 -48.7197 39.0283 0 0 148
46.0651 -49.2589 40.0899 0 0 148
46.4178 -35.9826 43.6454 0 0 143
46.0656 -36.6013 42.7361 0 0 143
46.4178 -35.9826 43.6454 0 0 149
47.3618 -36.3773 44.3295 0 0 149
48.7866 -36.2253 45.9336 0 0 199
48.2501 -36.6782 44.8236 0 0 199
49.2396 -37.0609 45.3963 0 0 249
48.7866 -36.2253 45.9336 0 0 143
49.5051 -35.5372 46.2126 0 0 143
3 0 56 57
3 0 16 14
3 0 58 60
3 60 59 16
3 58 59 60
3 61 19 62
3 63 62 17
3 61 62 63
3 64 20 65
3 66 17 67
3 68 67 20
3 66 67 68
3 69 23 70
3 1 26 24
3 1 28 26
3 1 71 73
3 73 72 28
3 71 72 73
3 74 31 75
3 76 75 29
3 74 75 76
3 78 77 31
3 2 34 32
3 4 35 15
3 4 36 35
3 4 79 81
3 81 80 36
3 79 80 81
3 5 39 37
3 82 40 83
3 85 84 40
3 7 43 41
3 9 86 88
3 88 87 18
3 86 87 88
3 9 89 90
3 91 44 92
3 93 45 94
3 96 95 45
3 10 97 98
3 10 99 100
3 10 101 103
3 101 46 102
3 101 102 103
3 7 47 21
3 7 41 47
3 8 104 106
3 106 105 42
3 104 105 106
3 107 48 108
3 11 49 22
3 11 109 111
3 111 110 49
3 109 110 111
3 12 112 113
3 12 114 116
3 114 50 115
3 114 115 116
3 3 51 33
3 13 52 25
3 13 53 52
3 13 54 53
3 117 55 118
3 119 118 27
3 117 118 119
3 121 120 55
3 6 122 124
3 124 123 38
3 122 123 124
3 126 125 30
3 14 15 2
3 16 15 14
3 16 4 15
3 16 127 129
3 129 128 4
3 127 128 129
3 131 130 16
3 133 132 5
3 17 18 7
3 19 18 17
3 19 9 18
3 20 134 135
3 20 136 138
3 136 10 137
3 136 137 138
3 20 21 10
3 17 21 20
3 17 7 21
3 141 140 8
3 139 140 141
3 142 22 143
3 23 144 146
3 144 22 145
3 144 145 146
3 23 11 22
3 147 12 148
3 24 25 3
3 26 25 24
3 26 13 25
3 26 27 13
3 28 27 26
3 28 149 151
3 151 150 27
3 149 150 151
3 28 152 153
3 155 154 28
3 29 30 6
3 31 30 29
3 31 156 158
3 158 157 30
3 156 157 158
3 31 159 160
3 163 162 31
3 161 162 163
3 32 164 166
3 164 33 165
3 164 165 166
3 34 33 32
3 34 3 33
3 15 34 2
3 35 34 15
3 35 3 34
3 35 24 3
3 36 24 35
3 36 1 24
3 36 167 169
3 169 168 1
3 167 168 169
3 171 170 36
3 173 172 4
3 37 174 176
3 174 38 175
3 174 175 176
3 39 38 37
3 39 6 38
3 177 39 178
3 179 178 5
3 177 178 179
3 40 180 182
3 180 39 181
3 180 181 182
3 40 6 39
3 40 29 6
3 183 29 184
3 185 184 40
3 183 184 185
3 187 186 29
3 41 42 0
3 43 42 41
3 43 8 42
3 18 43 7
3 188 43 189
3 190 189 18
3 188 189 190
3 191 8 192
3 193 192 43
3 191 192 193
3 195 194 8
3 196 19 197
3 44 198 200
3 198 19 199
3 198 199 200
3 44 9 19
3 201 44 202
3 45 203 205
3 203 44 204
3 203 204 205
3 45 9 44
3 45 206 208
3 208 207 9
3 206 207 208
3 210 209 45
3 211 32 212
3 46 213 215
3 213 32 214
3 213 214 215
3 46 2 32
3 21 46 10
3 47 46 21
3 47 2 46
3 47 14 2
3 41 14 47
3 41 0 14
3 42 216 218
3 218 217 0
3 216 217 218
3 220 219 42
3 222 221 8
3 223 37 224
3 48 225 227
3 225 37 226
3 225 226 227
3 48 5 37
3 22 228 230
3 228 48 229
3 228 229 230
3 49 48 22
3 49 5 48
3 49 231 233
3 233 232 5
3 231 232 233
3 235 234 49
3 50 236 237
3 50 238 239
3 33 240 241
3 51 242 244
3 244 243 33
3 242 243 244
3 51 245 247
3 245 12 246
3 245 246 247
3 25 51 3
3 52 51 25
3 52 12 51
3 52 50 12
3 53 50 52
3 53 248 250
3 250 249 50
3 248 249 250
3 53 251 253
3 251 23 252
3 251 252 253
3 54 23 53
3 54 11 23
3 27 54 13
3 55 54 27
3 55 11 54
3 55 254 256
3 256 255 11
3 254 255 256
3 258 257 55
3 260 259 1
3 38 261 262
3 264 263 38
3 30 265 267
3 267 266 6
3 265 266 267
3 269 268 30
