ply
format ascii 1.0
element vertex 148
property float x
property float y
property float z
property uchar red
property uchar green
property uchar blue
element face 134
property list uchar int vertex_index
end_header
23.4549 20.218 -19.5185 164 255 91
19.9755 29.6922 -20.0093 255 102 0
27.3385 28.3191 -13.246 70 255 185
17.9797 19.0383 -21.3044 220 0 0
20.3638 14.6776 -22.45 0 60 255
16.4777 25.204 -23.7674 157 255 98
19.7964 24.0236 -16.5401 255 97 0
20.9771 28.9952 -12.7663 255 56 0
24.909 24.8809 -16.0131 252 0 0
20.4064 19.0339 -19.0908 255 30 0
18.8119 16.3258 -22.1124 155 255 100
21.4817 17.2226 -21.0049 75 255 180
17.1703 30.3785 -22.7786 20 255 235
18.5863 27.2806 -21.6604 255 115 0
18.6998 24.5842 -19.762 153 0 0
19.3233 26.9795 -17.8461 196 0 0
25.1555 30.1183 -10.2466 46 255 209
22.1287 31.2539 -11.3712 125 255 130
23.7739 28.3534 -11.7738 255 70 0
22.7312 26.275 -13.3133 255 101 0
25.9184 26.7618 -14.4707 255 237 0
27.7005 25.6731 -18.5287 66 255 189
16.0285 19.5253 -24.133 49 255 206
16.6535 16.4896 -23.4912 0 205 255
17.4875 22.2721 -22.2473 255 92 0
18.9981 21.6522 -18.6589 244 0 0
21.3952 21.5599 -17.0288 255 72 0
21.1557 32.4816 -18.1364 136 255 119
20.8488 32.2962 -14.3704 223 255 32
19.7233 29.727 -15.9153 128 0 0
20.2662 26.5287 -14.6164 255 70 0
22.0155 23.9513 -15.0638 255 104 0
24.3421 22.6395 -17.7568 255 230 0
26.8008 23.5177 -19.9406 44 255 211
28.1549 27.955 -15.3108 0 0 196
27.4448 27.1764 -15.9232 0 0 196
26.6285 27.5405 -13.8583 0 0 236
19.1826 14.5446 -22.6606 0 0 151
18.4066 15.3687 -22.4917 0 0 151
19.5878 15.5017 -22.2812 0 0 169
20.1491 13.6592 -22.1847 0 0 134
19.1826 14.5446 -22.6606 0 0 134
15.2477 25.65 -24.8456 0 0 151
15.9447 26.8295 -24.3471 0 0 151
15.6459 24.0182 -24.4656 0 0 153
15.2477 25.65 -24.8456 0 0 153
16.9826 23.738 -23.0073 0 0 241
16.1508 22.5522 -23.7055 0 0 199
15.6459 24.0182 -24.4656 0 0 199
22.1432 33.8069 -17.6133 0 0 149
20.6984 33.8099 -18.3877 0 0 149
28.5045 24.3383 -19.694 0 0 145
29.068 25.3509 -19.2761 0 0 145
16.291 29.4168 -23.8527 0 0 162
15.823 31.0602 -24.4438 0 0 162
16.999 27.8678 -23.2936 0 0 210
16.291 29.4168 -23.8527 0 0 210
17.8783 28.8295 -22.2195 0 3 255
17.532 26.2423 -22.7139 0 13 255
15.9447 26.8295 -24.3471 0 0 217
16.999 27.8678 -23.2936 0 0 217
23.6421 30.6861 -10.8089 0 0 217
22.9369 32.2125 -10.7655 0 0 183
24.4503 31.6446 -10.2032 0 0 183
28.3359 26.632 -17.9522 0 0 200
26.8095 26.2175 -16.4997 0 0 243
27.4448 27.1764 -15.9232 0 0 200
29.068 25.3509 -19.2761 0 0 147
28.3359 26.632 -17.9522 0 0 147
16.5989 32.1417 -23.3794 0 0 165
15.823 31.0602 -24.4438 0 0 165
18.1177 31.4526 -21.748 0 0 168
16.5989 32.1417 -23.3794 0 0 168
19.5203 31.1094 -20.3634 0 0 197
18.5729 30.0353 -21.3939 0 0 238
18.1177 31.4526 -21.748 0 0 197
25.8303 31.0328 -9.54948 0 0 146
24.4503 31.6446 -10.2032 0 0 146
27.018 29.8643 -10.9601 0 0 156
25.8303 31.0328 -9.54948 0 0 156
28.1095 28.9647 -12.4598 0 0 192
26.247 29.2187 -11.7463 0 0 232
27.018 29.8643 -10.9601 0 0 192
28.9844 28.5918 -14.6311 0 0 158
28.1095 28.9647 -12.4598 0 0 158
15.4103 18.4333 -24.1286 0 0 162
14.4045 18.8871 -24.5983 0 0 138
15.0227 19.9791 -24.6027 0 0 162
15.7228 16.9154 -23.8077 0 0 157
15.4103 18.4333 -24.1286 0 0 157
16.341 18.0075 -23.8121 0 0 178
16.3564 15.7663 -23.248 0 0 128
15.7228 16.9154 -23.8077 0 0 128
17.3274 15.4506 -23.1811 0 0 155
17.7327 16.4077 -22.8018 0 0 175
18.4066 15.3687 -22.4917 0 0 155
16.3564 15.7663 -23.248 0 0 128
17.3274 15.4506 -23.1811 0 0 128
23.8564 19.3614 -20.7366 0 0 147
24.6595 20.6478 -20.3639 0 0 147
15.4213 21.1789 -24.6484 0 0 138
15.0227 19.9791 -24.6027 0 0 138
16.758 20.8987 -23.1902 0 5 255
15.4213 21.1789 -24.6484 0 0 211
16.1508 22.5522 -23.7055 0 0 211
20.1104 32.5041 -19.427 0 0 149
20.6984 33.8099 -18.3877 0 0 149
20.5656 31.0869 -19.0729 0 0 226
19.5203 31.1094 -20.3634 0 0 189
20.1104 32.5041 -19.427 0 0 189
22.4956 32.7566 -12.3557 0 0 150
22.9369 32.2125 -10.7655 0 0 150
21.8556 33.2777 -13.8554 0 0 190
22.4956 32.7566 -12.3557 0 0 190
21.4887 31.7751 -12.8708 0 0 228
21.9897 33.7143 -15.7303 0 0 160
21.8556 33.2777 -13.8554 0 0 160
21.0022 32.3889 -16.2534 0 12 255
22.1432 33.8069 -17.6133 0 0 216
21.9897 33.7143 -15.7303 0 0 216
25.1031 21.8586 -19.4831 0 0 190
24.6595 20.6478 -20.3639 0 0 190
23.8985 21.4287 -18.6377 0 0 227
26.3324 22.2977 -20.575 0 0 192
25.1031 21.8586 -19.4831 0 0 192
25.5714 23.0786 -18.8487 0 0 230
27.4229 22.2983 -20.7226 0 0 139
26.3324 22.2977 -20.575 0 0 139
28.0547 23.2606 -20.4 0 0 173
27.2506 24.5954 -19.2347 0 0 203
28.5045 24.3383 -19.694 0 0 173
27.4229 22.2983 -20.7226 0 0 139
28.0547 23.2606 -20.4 0 0 139
28.1549 27.955 -15.3108 0 0 156
28.9844 28.5918 -14.6311 0 0 156
22.8698 17.8637 -21.4798 0 0 190
22.4683 18.7203 -20.2617 0 0 228
23.8564 19.3614 -20.7366 0 0 190
22.0839 16.451 -21.4558 0 0 140
22.8698 17.8637 -21.4798 0 0 140
21.525 15.1786 -22.1784 0 0 158
20.9228 15.9501 -21.7274 0 0 180
22.0839 16.451 -21.4558 0 0 158
21.0804 13.9506 -21.9059 0 0 158
21.525 15.1786 -22.1784 0 0 158
22.2416 14.4515 -21.6343 0 0 136
20.1491 13.6592 -22.1847 0 0 130
21.0804 13.9506 -21.9059 0 0 130
3 0 11 9
3 1 13 12
3 1 15 13
3 2 18 16
3 2 20 18
3 2 34 36
3 36 35 20
3 34 35 36
3 3 23 22
3 4 37 39
3 39 38 10
3 37 38 39
3 4 40 41
3 5 42 43
3 5 44 45
3 5 46 48
3 46 24 47
3 46 47 48
3 6 25 14
3 6 26 25
3 49 27 50
3 7 28 17
3 7 29 28
3 7 30 29
3 8 31 19
3 8 32 31
3 8 33 32
3 52 51 21
3 9 10 3
3 11 10 9
3 11 4 10
3 12 53 54
3 13 55 57
3 57 56 12
3 55 56 57
3 13 58 60
3 58 5 59
3 58 59 60
3 13 14 5
3 15 14 13
3 15 6 14
3 16 61 63
3 61 17 62
3 61 62 63
3 18 17 16
3 18 7 17
3 18 19 7
3 20 19 18
3 20 8 19
3 20 21 8
3 64 21 65
3 66 65 20
3 64 65 66
3 68 67 21
3 69 12 70
3 71 12 72
3 73 1 74
3 75 74 12
3 73 74 75
3 76 16 77
3 78 16 79
3 80 2 81
3 82 81 16
3 80 81 82
3 84 83 2
3 22 85 87
3 85 86 87
3 23 88 90
3 90 89 22
3 88 89 90
3 23 91 92
3 10 23 3
3 93 23 94
3 95 94 10
3 93 94 95
3 97 96 23
3 99 98 0
3 100 22 101
3 24 102 104
3 102 22 103
3 102 103 104
3 24 3 22
3 14 24 5
3 25 24 14
3 25 3 24
3 25 9 3
3 26 9 25
3 26 0 9
3 27 105 106
3 27 107 109
3 107 1 108
3 107 108 109
3 17 110 111
3 28 112 114
3 114 113 17
3 112 113 114
3 28 115 116
3 28 117 119
3 117 27 118
3 117 118 119
3 29 27 28
3 29 1 27
3 29 15 1
3 30 15 29
3 30 6 15
3 19 30 7
3 31 30 19
3 31 6 30
3 31 26 6
3 32 26 31
3 32 0 26
3 32 120 122
3 122 121 0
3 120 121 122
3 33 123 125
3 125 124 32
3 123 124 125
3 33 126 127
3 21 33 8
3 128 33 129
3 130 129 21
3 128 129 130
3 132 131 33
3 134 133 2
3 135 11 136
3 137 136 0
3 135 136 137
3 138 11 139
3 140 4 141
3 142 141 11
3 140 141 142
3 143 4 144
3 143 144 145
3 147 146 4
