ply
format ascii 1.0
element vertex 180
property float x
property float y
property float z
property uchar red
property uchar green
property uchar blue
element face 156
property list uchar int vertex_index
end_header
37.2571 6.12634 -2.43328 185 255 70
34.9561 0.024544 8.57364 15 255 240
32.2991 11.2145 5.19431 48 255 207
37.0912 13.1702 -3.72613 255 173 0
33.7264 5.66071 6.81489 159 255 96
38.9639 0.958426 -0.736332 0 225 255
35.3199 15.2986 -0.395902 238 255 17
34.4127 8.86506 1.2011 156 0 0
36.098 2.41722 2.69234 219 0 0
36.3462 9.9011 -3.11174 255 245 0
37.4275 7.22565 -4.47243 26 255 229
36.9389 -3.06623 9.25765 0 158 255
35.6596 17.564 -1.35156 0 185 255
33.0694 12.8734 2.16263 161 255 94
33.3697 10.1193 3.10825 255 214 0
35.2668 5.57101 2.03772 128 0 0
34.1424 7.24232 4.1012 202 0 0
34.0715 2.64455 7.54753 155 255 100
35.4357 1.27106 5.7048 255 217 0
36.7374 -1.1162 6.80393 34 255 221
37.3156 14.9818 -4.82321 0 169 255
37.0876 10.3293 -5.12699 0 211 255
34.4305 0.018486 10.268 0 139 255
33.1152 8.52019 6.15068 153 255 102
38.5445 3.38922 -1.63335 105 255 150
36.6141 16.5541 -3.09779 0 221 255
36.5423 14.5117 -2.07971 255 167 0
35.3473 11.3795 -1.5815 191 0 0
33.7947 15.7094 1.61272 49 255 206
34.13 12.2656 0.122661 180 0 0
35.7476 7.40653 -0.685721 148 0 0
36.9872 4.16988 -0.02856 240 0 0
38.3329 1.5168 1.03143 255 242 0
38.665 -0.602618 2.04575 0 247 255
34.6591 4.13688 4.77472 205 0 0
37.3904 0.15233 3.87162 164 255 91
37.7972 5.13812 -3.13723 0 0 180
37.3418 7.02551 -3.47647 0 0 180
36.8017 8.01372 -2.77251 0 0 216
35.9475 -1.52084 8.91564 0 0 200
37.245 -3.15359 8.4854 0 0 169
36.2536 -1.6082 8.14339 0 0 169
32.1884 12.5382 4.7678 0 0 143
31.7672 13.0451 5.89632 0 0 143
32.8344 10.6669 4.15128 0 0 213
32.7236 11.9905 3.72476 0 0 177
32.1884 12.5382 4.7678 0 0 177
36.2536 -1.6082 8.14339 0 0 170
37.1442 -2.17857 7.25854 0 0 170
35.8468 -0.545829 7.68878 0 0 202
37.4948 5.84003 -5.33322 0 0 136
37.3728 4.62278 -5.03844 0 0 136
38.1685 0.118808 -1.62636 0 0 181
37.9588 1.3342 -2.07487 0 0 181
38.7542 2.17382 -1.18484 0 0 218
35.3049 -1.51654 10.5575 0 0 135
34.3095 0.014663 11.0547 0 0 135
35.5559 17.9627 -2.6478 0 0 128
35.9307 17.1582 -3.42973 0 0 128
33.111 16.1267 2.63405 0 0 142
33.0559 17.3885 2.08483 0 0 142
37.7327 -0.985075 4.29408 0 0 176
36.413 0.711697 4.78821 0 0 211
36.7553 -0.425708 5.21067 0 0 176
37.7456 -1.62009 3.02167 0 0 142
37.7327 -0.985075 4.29408 0 0 142
37.8824 5.68778 -4.15681 0 0 169
36.8869 8.56338 -3.79209 0 0 200
37.3418 7.02551 -3.47647 0 0 169
37.3728 4.62278 -5.03844 0 0 149
37.8824 5.68778 -4.15681 0 0 149
38.0782 -1.16911 -1.6478 0 0 142
38.6221 -0.296552 -0.491783 0 0 142
36.4546 -5.19219 7.93738 0 0 144
37.245 -3.15359 8.4854 0 0 144
36.318 -5.07321 8.83422 0 0 144
36.4546 -5.19219 7.93738 0 0 144
34.3229 19.0557 -0.893669 0 0 134
35.0786 18.4677 -1.77468 0 0 134
34.9284 17.916 -0.306861 0 0 144
34.3229 19.0557 -0.893669 0 0 144
34.7586 16.7833 0.170966 0 0 172
35.4898 16.4313 -0.873729 0 0 204
34.9284 17.916 -0.306861 0 0 172
32.5735 13.3676 3.25195 0 0 178
32.7484 14.7087 2.909 0 0 178
32.2525 15.2029 3.99833 0 0 143
33.2195 11.4964 2.63544 0 0 219
32.5735 13.3676 3.25195 0 0 182
32.7236 11.9905 3.72476 0 0 182
37.4062 -1.61934 5.76023 0 0 183
36.7553 -0.425708 5.21067 0 0 183
36.0865 0.077431 6.25436 0 0 221
37.0572 -2.86591 5.97067 0 0 142
37.4062 -1.61934 5.76023 0 0 142
37.0572 -2.86591 5.97067 0 0 142
37.1442 -2.17857 7.25854 0 0 142
37.3344 13.645 -5.4911 0 0 136
36.3958 15.5085 -4.99205 0 0 136
37.2204 11.3187 -5.64299 0 0 161
37.3344 13.645 -5.4911 0 0 161
37.2016 12.6555 -4.9751 0 0 189
37.1851 8.74968 -5.84601 0 0 138
37.2204 11.3187 -5.64299 0 0 138
37.3248 7.39183 -5.6605 0 0 179
37.2576 8.77745 -4.79971 0 0 215
37.4948 5.84003 -5.33322 0 0 179
37.1851 8.74968 -5.84601 0 0 132
37.3248 7.39183 -5.6605 0 0 132
33.8183 1.87396 9.9229 0 0 177
34.6933 0.021515 9.42084 0 0 212
34.0811 1.87699 9.0757 0 0 177
33.7564 1.74351 10.7455 0 0 138
33.8183 1.87396 9.9229 0 0 138
34.3095 0.014663 11.0547 0 0 136
33.7564 1.74351 10.7455 0 0 136
31.9293 11.661 6.32097 0 0 143
31.7672 13.0451 5.89632 0 0 143
32.3374 10.3138 6.79915 0 0 181
32.7071 9.86736 5.67249 0 0 219
31.9293 11.661 6.32097 0 0 181
32.6855 9.03693 7.17333 0 0 139
32.3374 10.3138 6.79915 0 0 139
32.9912 7.60719 7.50544 0 0 177
33.4208 7.09045 6.48279 0 0 212
32.6855 9.03693 7.17333 0 0 177
33.368 6.18115 7.85825 0 0 142
32.9912 7.60719 7.50544 0 0 142
33.5405 4.67307 8.22457 0 0 180
33.8989 4.15263 7.18121 0 0 217
33.368 6.18115 7.85825 0 0 180
33.6388 3.18699 8.56264 0 0 143
33.5405 4.67307 8.22457 0 0 143
34.0811 1.87699 9.0757 0 0 177
34.5138 1.33455 8.06058 0 0 213
33.6388 3.18699 8.56264 0 0 177
38.4282 2.53569 -2.33537 0 0 168
37.7845 3.90425 -2.73533 0 0 168
37.9008 4.75778 -2.03331 0 0 199
38.4282 2.53569 -2.33537 0 0 130
37.9588 1.3342 -2.07487 0 0 130
38.1685 0.118808 -1.62636 0 0 136
38.0782 -1.16911 -1.6478 0 0 136
37.7972 5.13812 -3.13723 0 0 136
37.7845 3.90425 -2.73533 0 0 136
36.559 -3.05889 10.0523 0 0 169
35.6847 -1.52387 9.76285 0 0 201
35.3049 -1.51654 10.5575 0 0 169
36.318 -5.07321 8.83422 0 0 144
36.559 -3.05889 10.0523 0 0 144
36.2815 16.3721 -4.29244 0 0 151
36.3958 15.5085 -4.99205 0 0 151
35.3617 16.8988 -4.46127 0 0 129
36.9648 15.7679 -3.9605 0 0 173
36.2815 16.3721 -4.29244 0 0 151
35.9307 17.1582 -3.42973 0 0 151
36.1369 17.059 -2.22467 0 0 181
35.5559 17.9627 -2.6478 0 0 156
35.0786 18.4677 -1.77468 0 0 156
33.9959 16.9887 1.17528 0 0 144
33.0559 17.3885 2.08483 0 0 144
34.5573 15.504 0.60841 0 0 209
34.7586 16.7833 0.170966 0 0 175
33.9959 16.9887 1.17528 0 0 175
33.432 14.2914 1.88767 0 0 222
33.111 16.1267 2.63405 0 0 184
32.7484 14.7087 2.909 0 0 184
38.3066 -0.017367 0.392099 0 0 158
38.6221 -0.296552 -0.491783 0 0 158
38.6484 1.23761 0.14755 0 0 184
38.4727 -1.07707 0.899261 0 0 166
38.3066 -0.017367 0.392099 0 0 166
38.4989 0.457089 1.53859 0 0 196
38.293 -2.37464 0.965792 0 0 138
38.4727 -1.07707 0.899261 0 0 138
38.3829 -1.99757 2.10873 0 0 173
38.0277 -0.225144 2.95869 0 0 205
37.7456 -1.62009 3.02167 0 0 173
38.293 -2.37464 0.965792 0 0 140
38.3829 -1.99757 2.10873 0 0 140
3 0 36 38
3 38 37 9
3 36 37 38
3 1 39 41
3 39 11 40
3 39 40 41
3 2 42 43
3 2 44 46
3 44 14 45
3 44 45 46
3 2 16 14
3 1 19 17
3 1 47 49
3 49 48 19
3 47 48 49
3 3 21 20
3 51 50 10
3 5 52 54
3 54 53 24
3 52 53 54
3 56 55 22
3 57 25 58
3 6 26 12
3 6 27 26
3 59 28 60
3 7 29 13
3 7 30 29
3 7 31 30
3 8 32 15
3 8 33 32
3 4 34 23
3 61 35 62
3 63 62 18
3 61 62 63
3 65 64 35
3 9 10 3
3 66 10 67
3 68 67 9
3 66 67 68
3 70 69 10
3 72 71 5
3 11 73 74
3 11 75 76
3 77 12 78
3 79 12 80
3 81 6 82
3 83 82 12
3 81 82 83
3 84 13 85
3 84 85 86
3 14 87 89
3 87 13 88
3 87 88 89
3 14 7 13
3 14 15 7
3 16 15 14
3 16 8 15
3 17 18 4
3 19 18 17
3 19 90 92
3 92 91 18
3 90 91 92
3 19 93 94
3 96 95 19
3 20 97 98
3 21 99 101
3 101 100 20
3 99 100 101
3 21 102 103
3 10 21 3
3 104 21 105
3 106 105 10
3 104 105 106
3 108 107 21
3 109 22 110
3 111 110 1
3 109 110 111
3 112 22 113
3 115 114 22
3 116 2 117
3 118 23 119
3 120 119 2
3 118 119 120
3 121 23 122
3 123 4 124
3 125 124 23
3 123 124 125
3 126 4 127
3 128 17 129
3 130 129 4
3 128 129 130
3 131 17 132
3 133 1 134
3 135 134 17
3 133 134 135
3 24 136 138
3 138 137 0
3 136 137 138
3 140 139 24
3 142 141 5
3 144 143 0
3 22 11 1
3 145 11 146
3 147 146 22
3 145 146 147
3 149 148 11
3 150 20 151
3 150 151 152
3 25 153 155
3 153 20 154
3 153 154 155
3 25 3 20
3 12 156 158
3 156 25 157
3 156 157 158
3 26 25 12
3 26 3 25
3 26 9 3
3 27 9 26
3 27 0 9
3 28 159 160
3 28 161 163
3 161 6 162
3 161 162 163
3 13 164 166
3 164 28 165
3 164 165 166
3 29 28 13
3 29 6 28
3 29 27 6
3 30 27 29
3 30 0 27
3 30 24 0
3 31 24 30
3 31 5 24
3 15 31 7
3 32 31 15
3 32 5 31
3 32 167 169
3 169 168 5
3 167 168 169
3 33 170 172
3 172 171 32
3 170 171 172
3 33 173 174
3 23 16 2
3 34 16 23
3 34 8 16
3 18 34 4
3 35 34 18
3 35 8 34
3 35 33 8
3 175 33 176
3 177 176 35
3 175 176 177
3 179 178 33
