ply
format ascii 1.0
element vertex 157
property float x
property float y
property float z
property uchar red
property uchar green
property uchar blue
element face 136
property list uchar int vertex_index
end_header
35.3039 -31.4799 -23.7246 145 255 110
37.8664 -37.741 -14.504 182 255 73
36.3841 -45.3892 -11.1051 209 255 46
33.0889 -50.3566 -12.2384 206 255 49
34.777 -42.5875 -15.9227 255 110 0
37.3499 -34.9521 -19.2423 170 0 0
37.7987 -26.8332 -21.5277 181 255 74
33.3787 -35.112 -21.9441 99 255 156
33.8699 -51.9469 -9.92065 45 255 210
37.3243 -41.6311 -12.9501 255 121 0
36.0283 -44.1783 -13.5468 229 0 0
37.0144 -40.3093 -15.4693 235 0 0
35.9942 -38.7747 -17.7299 255 132 0
37.9219 -36.3777 -16.8856 255 63 0
37.5083 -28.1432 -19.5541 67 255 188
35.6689 -24.952 -21.0521 0 237 255
35.0259 -49.0553 -9.3073 9 255 246
36.7188 -42.6212 -10.6329 0 225 255
37.1275 -38.9746 -12.4183 0 218 255
31.4384 -48.1673 -14.0217 114 255 141
34.8301 -47.9386 -11.6459 255 21 0
33.7828 -46.3601 -13.8156 147 0 0
32.0811 -44.2963 -15.886 131 255 124
34.6007 -37.0933 -19.9733 255 212 0
36.2732 -33.3368 -21.5217 128 0 0
37.9049 -33.6356 -16.3412 0 225 255
38.2323 -32.1825 -18.4061 199 255 56
38.0012 -30.7163 -20.7181 255 34 0
37.2133 -29.344 -23.0583 255 242 0
36.6679 -23.3777 -22.658 0 144 255
36.7311 -28.2576 -25.3626 0 111 255
34.3052 -32.3589 -23.8232 0 0 171
33.3426 -34.1749 -22.933 0 0 171
34.3413 -33.2959 -22.8344 0 0 201
35.4121 -30.9019 -24.5966 0 0 135
34.3052 -32.3589 -23.8232 0 0 135
33.7353 -52.3836 -8.77225 0 0 183
33.3819 -54.029 -8.9424 0 0 183
33.2473 -54.4656 -7.794 0 0 148
34.1515 -24.7186 -21.8169 0 0 146
35.2055 -25.8118 -20.473 0 0 146
36.1533 -41.3293 -10.6802 0 0 143
35.9417 -42.9871 -9.72566 0 0 143
36.3576 -39.506 -11.5729 0 0 174
36.9231 -40.7979 -11.5256 0 0 204
36.1533 -41.3293 -10.6802 0 0 174
32.1731 -51.5019 -12.4525 0 0 157
32.8805 -52.6596 -11.331 0 0 157
32.2637 -49.262 -13.13 0 0 239
31.3478 -50.4073 -13.3441 0 0 196
32.1731 -51.5019 -12.4525 0 0 196
33.9063 -41.6573 -17.0038 0 0 205
32.5584 -42.5117 -16.9855 0 0 205
33.4291 -43.4419 -15.9043 0 0 251
37.3687 -31.6846 -17.1632 0 0 145
36.8123 -32.5768 -16.4674 0 0 145
37.5323 -30.958 -18.1956 0 0 173
38.0686 -32.9091 -17.3736 0 0 203
37.3687 -31.6846 -17.1632 0 0 173
35.858 -22.0443 -23.7251 0 0 147
35.2306 -22.9522 -23.1301 0 0 147
37.3295 -26.5453 -25.7761 0 0 144
37.245 -27.0347 -24.6723 0 0 144
37.2966 -27.7922 -26.0118 0 0 133
37.3295 -26.5453 -25.7761 0 0 133
32.3073 -35.8346 -21.9952 0 0 144
32.5529 -36.8107 -20.9867 0 0 144
32.3073 -35.8346 -21.9952 0 0 141
33.3426 -34.1749 -22.933 0 0 141
33.271 -53.4547 -10.1721 0 0 151
33.3819 -54.029 -8.9424 0 0 151
33.4794 -51.1518 -11.0795 0 0 233
32.8805 -52.6596 -11.331 0 0 193
33.271 -53.4547 -10.1721 0 0 193
36.1252 -27.4074 -19.724 0 0 144
37.1704 -28.9384 -18.7696 0 0 144
36.5886 -26.5476 -20.3031 0 0 206
36.1252 -27.4074 -19.724 0 0 175
35.2055 -25.8118 -20.473 0 0 175
34.6267 -49.3474 -8.26431 0 0 145
34.3133 -50.9377 -8.46558 0 0 145
35.3738 -47.5926 -9.06383 0 0 143
34.6267 -49.3474 -8.26431 0 0 143
36.0529 -45.7596 -9.96273 0 0 177
35.705 -47.2222 -10.2062 0 0 210
35.3738 -47.5926 -9.06383 0 0 177
36.2202 -44.3756 -9.72663 0 0 173
35.4431 -44.7415 -8.81938 0 0 143
35.9417 -42.9871 -9.72566 0 0 173
36.5515 -44.0052 -10.869 0 0 203
36.0529 -45.7596 -9.96273 0 0 173
36.2202 -44.3756 -9.72663 0 0 173
30.3555 -49.2386 -14.0544 0 0 202
30.2649 -51.4785 -13.3769 0 0 157
31.3478 -50.4073 -13.3441 0 0 202
30.6038 -47.1161 -14.7515 0 0 153
30.3555 -49.2386 -14.0544 0 0 153
34.4479 -50.5011 -9.61397 0 0 214
33.7353 -52.3836 -8.77225 0 0 180
34.3133 -50.9377 -8.46558 0 0 180
30.9251 -45.1806 -15.6837 0 0 191
30.6038 -47.1161 -14.7515 0 0 191
31.7597 -46.2318 -14.9538 0 0 230
31.3217 -43.2743 -16.7668 0 0 152
30.9251 -45.1806 -15.6837 0 0 152
31.3217 -43.2743 -16.7668 0 0 152
32.5584 -42.5117 -16.9855 0 0 152
34.5149 -39.7509 -17.9074 0 0 215
33.9063 -41.6573 -17.0038 0 0 215
35.3856 -40.6811 -16.8263 0 11 255
33.8182 -38.9102 -19.0291 0 0 209
34.5149 -39.7509 -17.9074 0 0 209
35.2974 -37.934 -18.8516 0 2 255
33.1639 -37.8013 -20.0013 0 0 157
33.8182 -38.9102 -19.0291 0 0 157
33.9897 -36.1026 -20.9587 0 0 240
32.5529 -36.8107 -20.9867 0 0 198
33.1639 -37.8013 -20.0013 0 0 198
36.3195 -37.7067 -12.6932 0 0 146
36.3576 -39.506 -11.5729 0 0 146
37.0347 -37.056 -13.4355 0 0 144
36.3195 -37.7067 -12.6932 0 0 144
37.4042 -36.4393 -14.4783 0 0 170
37.4969 -38.3578 -13.4611 0 0 199
37.0347 -37.056 -13.4355 0 0 170
37.4234 -34.3865 -15.3969 0 0 146
36.8123 -32.5768 -16.4674 0 0 146
37.8856 -35.6883 -15.4226 0 0 198
37.4042 -36.4393 -14.4783 0 0 170
37.4234 -34.3865 -15.3969 0 0 170
37.8703 -30.1629 -18.9801 0 0 194
37.5323 -30.958 -18.1956 0 0 167
37.1704 -28.9384 -18.7696 0 0 167
34.7311 -23.7394 -22.3272 0 0 149
34.1515 -24.7186 -21.8169 0 0 149
36.1684 -24.1648 -21.8551 0 0 214
34.7311 -23.7394 -22.3272 0 0 180
35.2306 -22.9522 -23.1301 0 0 180
37.0555 -22.8327 -23.628 0 0 142
35.858 -22.0443 -23.7251 0 0 142
37.2134 -24.5948 -23.3201 0 0 143
37.0555 -22.8327 -23.628 0 0 143
37.7788 -26.3225 -22.7549 0 0 181
37.2333 -25.1054 -22.0928 0 0 216
37.2134 -24.5948 -23.3201 0 0 181
37.4861 -27.578 -23.5202 0 0 181
37.506 -28.0886 -22.293 0 0 216
37.7788 -26.3225 -22.7549 0 0 181
36.9722 -28.8008 -24.2104 0 0 213
37.4861 -27.578 -23.5202 0 0 180
37.245 -27.0347 -24.6723 0 0 180
36.1257 -29.2907 -25.4156 0 0 151
35.4121 -30.9019 -24.5966 0 0 151
36.0175 -29.8687 -24.5436 0 0 170
36.6912 -28.8254 -26.0648 0 0 128
36.1257 -29.2907 -25.4156 0 0 143
37.2966 -27.7922 -26.0118 0 0 143
3 0 31 33
3 33 32 7
3 31 32 33
3 0 34 35
3 36 8 37
3 36 37 38
3 1 11 9
3 1 13 11
3 39 15 40
3 41 17 42
3 43 18 44
3 45 44 17
3 43 44 45
3 3 46 47
3 3 48 50
3 48 19 49
3 48 49 50
3 2 20 16
3 4 21 10
3 4 22 21
3 4 51 53
3 53 52 22
3 51 52 53
3 5 23 12
3 5 24 23
3 54 25 55
3 56 26 57
3 58 57 25
3 56 57 58
3 6 27 14
3 6 28 27
3 59 29 60
3 61 30 62
3 64 63 30
3 7 65 66
3 68 67 7
3 8 69 70
3 8 71 73
3 71 3 72
3 71 72 73
3 9 10 2
3 11 10 9
3 11 4 10
3 11 12 4
3 13 12 11
3 13 5 12
3 74 14 75
3 15 76 78
3 76 14 77
3 76 77 78
3 15 6 14
3 79 16 80
3 81 16 82
3 83 2 84
3 85 84 16
3 83 84 85
3 17 86 88
3 86 87 88
3 17 89 91
3 89 2 90
3 89 90 91
3 17 9 2
3 18 9 17
3 18 1 9
3 19 92 94
3 92 93 94
3 19 95 96
3 16 97 99
3 97 8 98
3 97 98 99
3 20 8 16
3 20 3 8
3 10 20 2
3 21 20 10
3 21 3 20
3 21 19 3
3 22 19 21
3 22 100 102
3 102 101 19
3 100 101 102
3 22 103 104
3 106 105 22
3 12 107 109
3 109 108 4
3 107 108 109
3 23 110 112
3 112 111 12
3 110 111 112
3 23 113 114
3 23 115 117
3 115 7 116
3 115 116 117
3 24 7 23
3 24 0 7
3 118 18 119
3 120 18 121
3 122 1 123
3 124 123 18
3 122 123 124
3 25 125 126
3 25 127 129
3 127 1 128
3 127 128 129
3 25 13 1
3 26 13 25
3 26 5 13
3 14 130 132
3 130 26 131
3 130 131 132
3 27 26 14
3 27 5 26
3 27 24 5
3 28 24 27
3 28 0 24
3 133 15 134
3 29 135 137
3 135 15 136
3 135 136 137
3 29 6 15
3 138 29 139
3 140 29 141
3 142 6 143
3 144 143 29
3 142 143 144
3 145 28 146
3 147 146 6
3 145 146 147
3 30 148 150
3 148 28 149
3 148 149 150
3 30 0 28
3 30 151 153
3 153 152 0
3 151 152 153
3 156 155 30
3 154 155 156
