ply
format ascii 1.0
element vertex 148
property float x
property float y
property float z
property uchar red
property uchar green
property uchar blue
element face 133
property list uchar int vertex_index
end_header
49.4157 33.1677 -9.51853 212 255 43
45.1375 28.5197 -13.582 231 255 24
43.9691 31.3598 -7.30713 96 255 159
47.3992 32.1809 -12.6187 217 255 38
42.6935 29.4668 -9.02948 188 255 67
40.1945 26.3562 -9.92733 0 239 255
46.7164 38.1222 -13.2143 3 255 252
43.1024 35.7242 -13.2258 255 153 0
39.9511 31.5306 -11.6966 128 0 0
43.2303 30.4703 -8.05775 104 255 151
48.7773 34.6079 -8.71299 0 191 255
48.271 35.1585 -11.3847 104 255 151
46.2316 30.5041 -13.4134 249 255 6
45.8024 33.7196 -13.9788 255 33 0
44.125 32.0918 -13.8757 199 0 0
41.6122 33.6793 -11.7234 172 0 0
43.0106 29.9446 -13.478 181 0 0
41.2596 28.5363 -13.9531 90 255 165
43.544 26.8481 -13.6632 17 255 238
47.4521 31.9644 -9.20854 255 190 0
48.5628 33.0849 -11.463 168 255 87
46.6662 31.4514 -10.3348 255 247 0
45.8274 30.3309 -11.3624 255 181 0
45.2079 28.3929 -11.9068 255 135 0
43.7452 26.501 -12.0503 166 255 89
41.6268 27.911 -9.61878 255 255 0
50.0873 32.8243 -7.45041 0 153 255
47.6138 32.4502 -6.93967 95 255 160
44.4941 32.3318 -6.06229 51 255 204
47.4162 34.8808 -13.2158 255 192 0
45.3388 37.3222 -14.0953 199 255 56
38.5548 35.0644 -8.97282 255 137 0
36.3472 33.343 -8.90822 180 255 75
50.3821 32.7917 -6.57266 0 0 128
49.8864 33.7017 -6.99439 0 0 128
46.3289 32.4726 -5.44182 0 0 147
47.9006 32.2358 -5.91412 0 0 147
44.7691 32.4135 -5.00314 0 0 184
46.0539 32.391 -6.50098 0 0 222
46.3289 32.4726 -5.44182 0 0 184
46.2781 39.5932 -12.7365 0 0 185
46.2117 39.2601 -11.6717 0 0 147
46.65 37.7892 -12.1495 0 0 185
45.7231 39.4632 -13.5533 0 0 142
46.2781 39.5932 -12.7365 0 0 142
42.7594 37.4699 -13.3182 0 0 208
43.8776 38.2689 -13.753 0 0 208
44.2206 36.5232 -13.6605 0 3 255
41.7579 36.4438 -11.8571 0 0 179
42.7594 37.4699 -13.3182 0 0 179
38.8223 31.152 -12.2063 0 0 237
37.0203 32.0582 -10.8121 0 0 237
38.1491 32.4368 -10.3024 0 46 255
40.2505 28.5093 -14.7173 0 0 145
41.4225 27.2342 -14.2984 0 0 145
41.0197 25.7588 -11.2233 0 0 192
42.7951 25.8312 -12.2848 0 0 192
41.9698 26.4286 -10.9888 0 0 233
41.6183 30.6087 -6.31949 0 0 178
43.5997 30.9151 -7.68244 0 0 213
41.9877 31.0534 -5.94419 0 0 178
41.2493 30.233 -6.8054 0 0 144
41.6183 30.6087 -6.31949 0 0 144
40.9809 29.7313 -7.29127 0 0 184
42.9619 29.9686 -8.54362 0 0 221
41.2493 30.233 -6.8054 0 0 184
38.7882 29.707 -5.95369 0 0 145
40.5008 29.4425 -7.6919 0 0 181
40.9809 29.7313 -7.29127 0 0 181
47.6804 36.032 -9.89883 0 0 162
47.5873 35.25 -8.28812 0 0 162
47.4273 36.3073 -11.2347 0 0 192
47.6804 36.032 -9.89883 0 0 192
48.5241 34.8832 -10.0489 0 0 234
47.4937 36.6404 -12.2995 0 0 210
46.65 37.7892 -12.1495 0 0 176
47.4273 36.3073 -11.2347 0 0 176
42.5647 26.3901 -14.1534 0 0 172
41.4225 27.2342 -14.2984 0 0 172
42.4018 27.6922 -13.8081 0 0 204
37.1354 26.4398 -9.38315 0 0 156
39.4447 25.8718 -10.3187 0 0 204
37.8852 26.9242 -8.99176 0 0 204
39.9674 28.6646 -7.98655 0 0 211
42.1602 28.6889 -9.32413 0 7 255
40.5008 29.4425 -7.6919 0 0 211
39.31 28.1706 -8.35925 0 0 156
39.9674 28.6646 -7.98655 0 0 156
38.5939 27.3932 -8.51352 0 0 216
40.9106 27.1336 -9.77305 0 15 255
39.31 28.1706 -8.35925 0 0 216
37.8852 26.9242 -8.99176 0 0 158
38.5939 27.3932 -8.51352 0 0 158
49.2314 34.5936 -7.62568 0 0 144
47.5873 35.25 -8.28812 0 0 144
49.4323 33.7161 -8.0817 0 0 180
49.2314 34.5936 -7.62568 0 0 156
49.8864 33.7017 -6.99439 0 0 156
49.1373 32.4229 -6.16949 0 0 136
50.3821 32.7917 -6.57266 0 0 136
48.8505 32.6372 -7.19504 0 0 197
49.1373 32.4229 -6.16949 0 0 168
47.9006 32.2358 -5.91412 0 0 168
43.1412 32.3909 -4.30485 0 0 150
44.7691 32.4135 -5.00314 0 0 150
42.6917 32.1712 -4.97838 0 0 146
43.1412 32.3909 -4.30485 0 0 146
42.4292 31.6851 -5.6008 0 0 183
44.2316 31.8458 -6.68471 0 0 220
42.6917 32.1712 -4.97838 0 0 183
41.9877 31.0534 -5.94419 0 0 150
42.4292 31.6851 -5.6008 0 0 150
45.0342 39.0632 -13.9937 0 0 173
45.7231 39.4632 -13.5533 0 0 173
46.0276 37.7222 -13.6548 0 0 206
45.0342 39.0632 -13.9937 0 0 158
43.8776 38.2689 -13.753 0 0 158
41.0128 35.4214 -11.1059 0 0 224
41.7579 36.4438 -11.8571 0 0 224
42.3573 34.7017 -12.4746 0 27 255
39.4842 36.1139 -9.73059 0 0 236
41.0128 35.4214 -11.1059 0 0 236
40.0835 34.3718 -10.3481 0 44 255
37.8623 36.883 -8.69801 0 0 171
39.4842 36.1139 -9.73059 0 0 171
36.689 35.9298 -7.9382 0 0 178
37.8623 36.883 -8.69801 0 0 178
35.5852 35.0691 -7.9059 0 0 233
36.689 35.9298 -7.9382 0 0 233
37.451 34.2037 -8.94052 0 40 255
34.4581 34.1638 -7.94741 0 0 172
35.5852 35.0691 -7.9059 0 0 172
35.2002 32.9786 -9.40277 0 0 164
34.4581 34.1638 -7.94741 0 0 164
35.2002 32.9786 -9.40277 0 0 174
37.0203 32.0582 -10.8121 0 0 174
39.4765 29.6549 -13.3346 0 0 217
38.8223 31.152 -12.2063 0 0 217
40.6054 30.0335 -12.8249 0 16 255
39.4765 29.6549 -13.3346 0 0 161
40.2505 28.5093 -14.7173 0 0 161
42.6945 26.0048 -13.0912 0 0 150
43.6446 26.6745 -12.8567 0 0 171
42.7951 25.8312 -12.2848 0 0 150
42.5647 26.3901 -14.1534 0 0 136
42.6945 26.0048 -13.0912 0 0 136
41.0197 25.7588 -11.2233 0 0 143
39.4447 25.8718 -10.3187 0 0 143
3 0 11 10
3 1 14 12
3 1 16 14
3 1 18 16
3 2 21 19
3 4 22 9
3 4 23 22
3 4 25 23
3 33 26 34
3 35 27 36
3 37 28 38
3 39 38 27
3 37 38 39
3 6 40 42
3 40 41 42
3 6 43 44
3 3 29 20
3 7 30 13
3 7 45 47
3 47 46 30
3 45 46 47
3 7 48 49
3 8 31 15
3 8 32 31
3 8 50 52
3 52 51 32
3 50 51 52
3 54 53 17
3 5 55 57
3 57 56 24
3 55 56 57
3 58 9 59
3 60 59 2
3 58 59 60
3 61 9 62
3 63 4 64
3 65 64 9
3 63 64 65
3 68 67 4
3 66 67 68
3 10 69 70
3 11 71 73
3 73 72 10
3 71 72 73
3 11 74 76
3 74 6 75
3 74 75 76
3 12 13 3
3 14 13 12
3 14 7 13
3 14 15 7
3 16 15 14
3 16 8 15
3 16 17 8
3 18 17 16
3 18 77 79
3 79 78 17
3 77 78 79
3 82 81 5
3 80 81 82
3 19 20 0
3 21 20 19
3 21 3 20
3 9 21 2
3 22 21 9
3 22 3 21
3 22 12 3
3 23 12 22
3 23 1 12
3 23 24 1
3 25 24 23
3 25 5 24
3 83 25 84
3 85 84 4
3 83 84 85
3 86 25 87
3 88 5 89
3 90 89 25
3 88 89 90
3 92 91 5
3 93 10 94
3 26 95 97
3 95 10 96
3 95 96 97
3 26 0 10
3 98 26 99
3 27 100 102
3 100 26 101
3 100 101 102
3 27 0 26
3 27 19 0
3 28 19 27
3 28 2 19
3 103 28 104
3 105 28 106
3 107 2 108
3 109 108 28
3 107 108 109
3 111 110 2
3 20 11 0
3 29 11 20
3 29 6 11
3 13 29 3
3 30 29 13
3 30 6 29
3 30 112 114
3 114 113 6
3 112 113 114
3 116 115 30
3 15 117 119
3 119 118 7
3 117 118 119
3 31 120 122
3 122 121 15
3 120 121 122
3 31 123 124
3 31 125 126
3 32 127 129
3 129 128 31
3 127 128 129
3 32 130 131
3 32 132 133
3 135 134 32
3 17 136 138
3 138 137 8
3 136 137 138
3 140 139 17
3 24 18 1
3 141 18 142
3 143 142 24
3 141 142 143
3 145 144 18
3 147 146 5
