ply
format ascii 1.0
element vertex 277
property float x
property float y
property float z
property uchar red
property uchar green
property uchar blue
element face 272
property list uchar int vertex_index
end_header
30.995 54.3743 -45.6542 178 0 0
25.6321 89.4135 -42.8119 255 83 0
24.3439 40.1108 -48.7783 96 255 159
29.4393 73.7005 -45.4797 255 8 0
28.1102 57.7384 -48.0442 218 0 0
24.9159 49.9921 -49.4425 255 187 0
28.0235 47.3602 -47.5369 142 0 0
22.8292 95.7444 -40.2583 255 91 0
24.0754 83.841 -46.441 132 255 123
26.1099 75.8748 -47.6292 248 255 7
27.9145 81.9658 -44.4196 255 52 0
33.5038 51.2296 -42.697 91 255 164
30.815 44.3916 -45.0728 227 255 28
24.0463 99.691 -34.9201 0 250 255
26.7705 94.0773 -37.9286 113 255 142
28.8954 87.369 -40.3216 146 255 109
27.4607 66.9657 -48.1237 255 4 0
30.6106 64.267 -45.7569 215 0 0
30.8162 79.3404 -41.7438 172 255 83
32.1446 70.434 -42.7317 52 255 203
29.5638 56.0104 -46.9556 214 0 0
28.1427 52.5777 -47.8547 190 0 0
29.599 51.1829 -46.7178 159 0 0
24.421 92.7421 -41.5516 255 87 0
22.1999 93.3324 -42.4783 114 255 141
23.6328 90.3176 -43.6755 204 255 51
22.8098 87.6135 -45.4835 0 255 255
24.7867 86.9381 -44.7584 255 83 0
25.9975 83.1909 -45.5423 255 34 0
26.7419 85.8354 -43.7936 255 46 0
25.4227 97.0176 -36.6218 93 255 162
24.6811 45.2616 -49.1768 199 0 0
23.1178 46.6378 -49.9439 64 255 191
22.7372 41.4961 -49.639 89 255 166
29.0767 40.8824 -46.0343 109 255 146
27.8905 74.7094 -46.6613 255 24 0
26.9711 71.5996 -47.8854 255 46 0
28.5997 70.3075 -46.9017 255 24 0
29.1287 65.8777 -46.9933 205 0 0
30.1167 69.3388 -45.6327 255 1 0
29.9997 83.3874 -41.0245 154 255 101
26.4676 58.791 -49.0178 255 220 0
25.0273 55.203 -49.6355 70 255 185
26.6446 53.9117 -48.8108 190 0 0
26.5323 48.7 -48.5511 189 0 0
26.1963 43.8084 -48.2649 255 175 0
21.33 98.496 -38.5189 73 255 182
20.72 96.259 -40.8881 0 244 255
25.1467 79.8918 -47.1657 144 255 111
27.0034 79.2011 -46.1792 255 14 0
28.6806 78.0559 -45.062 255 11 0
32.3159 52.6435 -44.2109 142 0 0
30.9565 49.2461 -45.4166 134 0 0
32.3185 47.6431 -43.9204 232 255 23
21.9693 100.228 -36.1225 0 230 255
23.4575 97.919 -37.6885 255 123 0
24.8824 95.201 -39.1163 255 94 0
26.1589 92.0354 -40.5069 255 75 0
27.3869 88.4978 -41.634 255 43 0
27.8742 90.9429 -39.1723 131 255 124
29.4022 45.7015 -46.3926 128 0 0
27.5288 41.8959 -47.2449 241 255 14
25.1322 72.7114 -48.7026 23 255 232
25.7869 68.4085 -48.9251 152 255 103
26.1932 63.5763 -49.0614 160 255 95
27.8536 62.3675 -48.153 224 0 0
29.4877 60.8984 -46.9953 202 0 0
30.8738 59.2286 -45.7823 215 0 0
28.4794 84.6551 -42.5393 255 41 0
29.4348 80.9549 -43.1028 255 37 0
30.2301 76.6189 -43.7173 226 0 0
31.5935 74.8507 -42.274 170 255 85
30.9214 72.1573 -44.0987 255 4 0
31.4117 67.4553 -44.4297 255 235 0
31.9008 62.6874 -44.4263 182 255 73
32.1292 57.7965 -44.4448 255 182 0
33.3522 56.2895 -42.8903 88 255 167
23.2706 38.3246 -49.0365 0 0 182
22.4673 39.0173 -49.4669 0 0 182
23.5406 40.8035 -49.2086 0 0 225
21.0558 93.4553 -42.8131 0 0 132
21.8385 91.9509 -43.4865 0 0 132
23.0152 84.1949 -46.7346 0 0 169
22.3824 86.0812 -46.2559 0 0 169
23.4426 85.7272 -45.9623 0 0 206
23.5915 82.2651 -47.141 0 0 133
23.0152 84.1949 -46.7346 0 0 133
24.6111 81.8664 -46.8034 0 0 206
24.1271 80.2905 -47.5033 0 0 169
23.5915 82.2651 -47.141 0 0 169
23.2764 100.856 -33.9803 0 0 128
24.2406 100.422 -33.503 0 0 128
23.0078 99.9597 -35.5213 0 0 203
22.2379 101.125 -34.5815 0 0 167
23.2764 100.856 -33.9803 0 0 167
24.106 50.7736 -49.8062 0 0 179
24.1617 53.3791 -49.9027 0 0 179
24.9716 52.5976 -49.539 0 0 221
22.3324 47.2297 -50.2466 0 0 135
22.1316 44.701 -50.1412 0 0 135
27.3954 39.4783 -46.9778 0 0 181
28.3028 41.3891 -46.6396 0 0 223
28.1693 38.9716 -46.3725 0 0 181
26.6435 40.1961 -47.5389 0 0 136
27.3954 39.4783 -46.9778 0 0 136
25.6211 74.2931 -48.1659 0 0 196
24.6836 74.6378 -48.5521 0 0 162
25.1725 76.2195 -48.0154 0 0 162
31.869 72.6423 -42.5029 0 0 210
32.1502 74.0116 -41.5276 0 0 172
32.4257 71.8032 -41.7564 0 0 172
32.5124 61.7255 -43.6755 0 0 137
32.3024 64.1856 -43.6561 0 0 137
32.6266 59.28 -43.6848 0 0 179
32.015 60.242 -44.4355 0 0 220
32.5124 61.7255 -43.6755 0 0 179
33.2381 58.5265 -42.9076 0 0 173
32.7407 57.043 -43.6675 0 0 212
32.6266 59.28 -43.6848 0 0 173
22.555 90.4434 -44.0851 0 0 165
21.8385 91.9509 -43.4865 0 0 165
22.9164 91.825 -43.0769 0 0 200
23.2213 88.9655 -44.5795 0 0 195
22.1434 89.0914 -44.9891 0 0 162
22.555 90.4434 -44.0851 0 0 162
33.5031 48.6737 -42.5507 0 0 138
34.0491 50.2494 -41.8876 0 0 138
25.0055 99.146 -34.3128 0 0 130
24.2406 100.422 -33.503 0 0 130
25.6937 97.8093 -35.1637 0 0 167
24.7345 98.3543 -35.771 0 0 203
25.0055 99.146 -34.3128 0 0 167
26.2475 96.4992 -35.954 0 0 128
25.6937 97.8093 -35.1637 0 0 128
26.9214 95.029 -36.6074 0 0 163
26.0966 95.5474 -37.2752 0 0 196
26.2475 96.4992 -35.954 0 0 163
27.5448 93.4768 -37.2178 0 0 130
26.9214 95.029 -36.6074 0 0 130
21.9413 42.1302 -49.9887 0 0 179
22.1316 44.701 -50.1412 0 0 179
22.9275 44.067 -49.7914 0 0 221
21.7348 39.7486 -49.8416 0 0 173
20.9388 40.3827 -50.1913 0 0 134
21.9413 42.1302 -49.9887 0 0 173
21.7348 39.7486 -49.8416 0 0 135
22.4673 39.0173 -49.4669 0 0 135
29.7694 40.0635 -45.3509 0 0 186
29.9459 42.637 -45.5536 0 0 231
30.6386 41.8182 -44.8701 0 0 186
28.8286 38.1356 -45.7709 0 0 144
29.7694 40.0635 -45.3509 0 0 144
28.1693 38.9716 -46.3725 0 0 140
28.8286 38.1356 -45.7709 0 0 140
30.1663 84.5541 -39.9364 0 0 172
29.4475 85.3782 -40.673 0 0 210
29.6142 86.545 -39.585 0 0 172
30.6725 82.5333 -40.2214 0 0 134
30.1663 84.5541 -39.9364 0 0 134
31.0808 80.5098 -40.581 0 0 177
30.4079 81.3639 -41.3841 0 0 217
30.6725 82.5333 -40.2214 0 0 177
32.727 69.5114 -41.9232 0 0 137
32.4257 71.8032 -41.7564 0 0 137
32.4243 68.0588 -42.8088 0 0 137
32.727 69.5114 -41.9232 0 0 137
25.7474 56.997 -49.3267 0 0 210
24.925 57.6303 -49.6996 0 0 172
25.6451 59.4243 -49.3907 0 0 172
20.2708 98.544 -38.8905 0 0 128
20.5296 99.6434 -37.5803 0 0 128
19.9658 97.4255 -40.0751 0 0 157
20.2708 98.544 -38.8905 0 0 157
21.025 97.3775 -39.7035 0 0 189
19.5456 96.2515 -41.2186 0 0 129
19.9658 97.4255 -40.0751 0 0 129
20.3158 94.9186 -42.018 0 0 169
21.46 94.7957 -41.6832 0 0 206
21.0558 93.4553 -42.8131 0 0 169
19.5456 96.2515 -41.2186 0 0 132
20.3158 94.9186 -42.018 0 0 132
21.6805 87.7288 -45.8019 0 0 129
22.1434 89.0914 -44.9891 0 0 129
21.6805 87.7288 -45.8019 0 0 132
22.3824 86.0812 -46.2559 0 0 132
24.6909 78.228 -47.7837 0 0 133
24.1271 80.2905 -47.5033 0 0 133
25.6283 77.8833 -47.3975 0 0 201
25.1725 76.2195 -48.0154 0 0 166
24.6909 78.228 -47.7837 0 0 166
32.9105 46.8804 -43.1625 0 0 181
32.9111 49.4363 -43.3087 0 0 224
33.5031 48.6737 -42.5507 0 0 181
32.1955 45.1171 -43.7784 0 0 139
32.9105 46.8804 -43.1625 0 0 139
31.4437 43.4913 -44.3546 0 0 182
31.5668 46.0173 -44.4966 0 0 225
32.1955 45.1171 -43.7784 0 0 182
31.2673 40.9179 -44.1519 0 0 140
30.6386 41.8182 -44.8701 0 0 184
31.4437 43.4913 -44.3546 0 0 184
21.1918 101.343 -35.0481 0 0 130
22.2379 101.125 -34.5815 0 0 130
20.8493 100.51 -36.3821 0 0 129
21.1918 101.343 -35.0481 0 0 129
21.6496 99.3622 -37.3207 0 0 189
20.5296 99.6434 -37.5803 0 0 158
20.8493 100.51 -36.3821 0 0 158
28.0966 91.9097 -37.8396 0 0 165
27.3223 92.5101 -38.5505 0 0 200
27.5448 93.4768 -37.2178 0 0 165
28.6291 90.1472 -38.5147 0 0 133
28.0966 91.9097 -37.8396 0 0 133
29.1397 88.3603 -39.0894 0 0 169
28.3848 89.156 -39.7469 0 0 206
28.6291 90.1472 -38.5147 0 0 169
29.6142 86.545 -39.585 0 0 133
29.1397 88.3603 -39.0894 0 0 133
24.1265 55.5862 -49.979 0 0 137
24.925 57.6303 -49.6996 0 0 137
24.1265 55.5862 -49.979 0 0 133
24.1617 53.3791 -49.9027 0 0 133
23.2069 49.0965 -50.0569 0 0 175
24.106 50.7736 -49.8062 0 0 175
24.0169 48.315 -49.6932 0 0 215
23.2069 49.0965 -50.0569 0 0 133
22.3324 47.2297 -50.2466 0 0 133
25.9772 41.1523 -48.0489 0 0 178
26.8626 42.8521 -47.7549 0 0 220
26.6435 40.1961 -47.5389 0 0 178
25.051 39.3035 -48.3056 0 0 180
25.2701 41.9596 -48.5216 0 0 222
25.9772 41.1523 -48.0489 0 0 180
23.9955 37.5659 -48.5992 0 0 138
25.051 39.3035 -48.3056 0 0 138
23.2706 38.3246 -49.0365 0 0 138
23.9955 37.5659 -48.5992 0 0 138
24.1258 73.1107 -49.0202 0 0 130
24.6836 74.6378 -48.5521 0 0 130
24.4962 70.9034 -49.1732 0 0 136
24.1258 73.1107 -49.0202 0 0 136
24.8236 68.7519 -49.2845 0 0 172
24.4962 70.9034 -49.1732 0 0 172
25.4596 70.56 -48.8139 0 0 211
25.1325 66.4954 -49.3431 0 0 136
24.8236 68.7519 -49.2845 0 0 136
25.3356 64.0792 -49.4112 0 0 173
25.1325 66.4954 -49.3431 0 0 173
25.9901 65.9924 -48.9932 0 0 212
25.5079 61.8169 -49.4125 0 0 132
25.3356 64.0792 -49.4112 0 0 132
26.3304 61.1837 -49.0396 0 0 208
25.6451 59.4243 -49.3907 0 0 170
25.5079 61.8169 -49.4125 0 0 170
31.4427 78.3707 -40.9936 0 0 137
31.0808 80.5098 -40.581 0 0 137
31.8314 76.1258 -41.2587 0 0 132
32.1502 74.0116 -41.5276 0 0 132
31.2049 77.0956 -42.0089 0 0 217
31.4427 78.3707 -40.9936 0 0 176
31.8314 76.1258 -41.2587 0 0 176
32.0578 66.5695 -43.6578 0 0 179
31.7781 68.9446 -43.5807 0 0 220
32.4243 68.0588 -42.8088 0 0 179
31.6562 65.0714 -44.428 0 0 218
32.0578 66.5695 -43.6578 0 0 177
32.3024 64.1856 -43.6561 0 0 177
33.7869 57.6708 -42.0955 0 0 134
33.2381 58.5265 -42.9076 0 0 134
33.8875 55.3263 -42.1065 0 0 135
33.7869 57.6708 -42.0955 0 0 135
33.9633 52.7963 -42.0098 0 0 178
33.428 53.7595 -42.7936 0 0 219
33.8875 55.3263 -42.1065 0 0 178
34.5087 51.8161 -41.2004 0 0 138
34.0491 50.2494 -41.8876 0 0 180
33.9633 52.7963 -42.0098 0 0 180
3 0 22 20
3 1 25 23
3 1 27 25
3 1 29 27
3 2 33 31
3 2 77 79
3 79 78 33
3 77 78 79
3 3 37 35
3 3 39 37
3 4 43 41
3 6 44 21
3 6 45 44
3 7 47 46
3 81 80 24
3 8 82 84
3 84 83 26
3 82 83 84
3 8 85 86
3 8 87 89
3 87 48 88
3 87 88 89
3 10 49 28
3 10 50 49
3 11 53 51
3 13 90 91
3 13 92 94
3 92 54 93
3 92 93 94
3 13 55 54
3 14 56 30
3 14 57 56
3 14 59 57
3 5 95 97
3 97 96 42
3 95 96 97
3 99 98 32
3 12 60 52
3 100 61 101
3 102 101 34
3 100 101 102
3 104 103 61
3 9 105 107
3 105 62 106
3 105 106 107
3 16 63 36
3 16 64 63
3 16 65 64
3 17 66 38
3 17 67 66
3 15 68 58
3 18 69 40
3 18 70 69
3 19 108 110
3 108 71 109
3 108 109 110
3 19 72 71
3 19 73 72
3 111 74 112
3 113 75 114
3 115 114 74
3 113 114 115
3 116 76 117
3 118 117 75
3 116 117 118
3 20 21 4
3 22 21 20
3 22 6 21
3 23 24 7
3 25 24 23
3 25 119 121
3 121 120 24
3 119 120 121
3 25 122 124
3 122 26 123
3 122 123 124
3 27 26 25
3 27 8 26
3 27 28 8
3 29 28 27
3 29 10 28
3 126 125 11
3 127 13 128
3 129 30 130
3 131 130 13
3 129 130 131
3 132 30 133
3 134 14 135
3 136 135 30
3 134 135 136
3 138 137 14
3 31 32 5
3 33 32 31
3 33 139 141
3 141 140 32
3 139 140 141
3 33 142 144
3 142 143 144
3 146 145 33
3 147 34 148
3 149 148 12
3 147 148 149
3 150 34 151
3 153 152 34
3 35 36 9
3 37 36 35
3 37 16 36
3 37 38 16
3 39 38 37
3 39 17 38
3 154 40 155
3 156 155 15
3 154 155 156
3 157 40 158
3 159 18 160
3 161 160 40
3 159 160 161
3 162 19 163
3 165 164 19
3 41 166 168
3 166 42 167
3 166 167 168
3 43 42 41
3 43 5 42
3 21 43 4
3 44 43 21
3 44 5 43
3 44 31 5
3 45 31 44
3 45 2 31
3 46 169 170
3 47 171 173
3 173 172 46
3 171 172 173
3 47 174 175
3 24 47 7
3 176 47 177
3 178 177 24
3 176 177 178
3 180 179 47
3 26 181 182
3 184 183 26
3 48 185 186
3 48 187 189
3 187 9 188
3 187 188 189
3 28 48 8
3 49 48 28
3 49 9 48
3 49 35 9
3 50 35 49
3 50 3 35
3 51 52 0
3 53 52 51
3 53 12 52
3 190 53 191
3 192 191 11
3 190 191 192
3 193 53 194
3 195 12 196
3 197 196 53
3 195 196 197
3 200 199 12
3 198 199 200
3 54 201 202
3 54 203 204
3 54 205 207
3 205 46 206
3 205 206 207
3 55 46 54
3 55 7 46
3 30 55 13
3 56 55 30
3 56 7 55
3 56 23 7
3 57 23 56
3 57 1 23
3 57 58 1
3 59 58 57
3 59 15 58
3 208 59 209
3 210 209 14
3 208 209 210
3 211 59 212
3 213 15 214
3 215 214 59
3 213 214 215
3 217 216 15
3 42 218 219
3 221 220 42
3 32 222 224
3 224 223 5
3 222 223 224
3 226 225 32
3 52 22 0
3 60 22 52
3 60 6 22
3 34 60 12
3 61 60 34
3 61 6 60
3 61 45 6
3 227 45 228
3 229 228 61
3 227 228 229
3 230 2 231
3 232 231 45
3 230 231 232
3 233 2 234
3 236 235 2
3 62 237 238
3 62 239 240
3 36 62 9
3 63 62 36
3 63 241 243
3 243 242 62
3 241 242 243
3 63 244 245
3 64 246 248
3 248 247 63
3 246 247 248
3 64 249 250
3 64 251 253
3 251 41 252
3 251 252 253
3 65 41 64
3 65 4 41
3 38 65 16
3 66 65 38
3 66 4 65
3 66 20 4
3 67 20 66
3 67 0 20
3 58 29 1
3 68 29 58
3 68 10 29
3 40 68 15
3 69 68 40
3 69 10 68
3 69 50 10
3 70 50 69
3 70 3 50
3 254 18 255
3 71 256 257
3 71 258 260
3 258 18 259
3 258 259 260
3 71 70 18
3 72 70 71
3 72 3 70
3 72 39 3
3 73 39 72
3 73 17 39
3 261 73 262
3 263 262 19
3 261 262 263
3 74 264 266
3 264 73 265
3 264 265 266
3 74 17 73
3 74 67 17
3 75 67 74
3 75 0 67
3 75 51 0
3 76 51 75
3 76 11 51
3 267 76 268
3 269 76 270
3 271 11 272
3 273 272 76
3 271 272 273
3 276 275 11
3 274 275 276
