ply
format ascii 1.0
element vertex 548
property float x
property float y
property float z
property uchar red
property uchar green
property uchar blue
element face 565
property list uchar int vertex_index
end_header
-25.1687 -56.2531 26.0753 255 141 0
-12.7664 -65.5228 29.7612 255 167 0
-27.4981 -47.8855 30.2917 7 255 248
-21.1963 -52.2877 32.0739 255 222 0
-34.7252 -46.9256 3.07241 12 255 243
-16.9634 -69.9233 22.2622 255 88 0
-10.728 -74.9667 22.2779 255 48 0
-15.1888 -77.9212 13.4782 207 0 0
-19.0778 -61.39 28.3713 255 167 0
-6.38634 -68.7489 30.0779 162 255 93
-25.23 -45.7113 32.5582 0 211 255
-36.6425 -42.7687 1.64645 0 153 255
-16.0383 -74.0074 18.1815 238 0 0
-17.9835 -74.3118 13.506 255 194 0
-17.043 -78.0084 8.75537 255 249 0
-23.8331 -60.1945 23.2471 98 255 157
-26.7546 -56.9449 21.8094 255 86 0
-23.3085 -54.5585 29.5483 255 243 0
-20.1261 -56.9237 30.4831 255 205 0
-22.2354 -58.7894 27.3324 255 184 0
-20.9627 -63.0655 24.6043 176 255 79
-10.7174 -62.3939 32.7232 0 213 255
-9.59402 -67.2106 30.0207 255 158 0
-9.73665 -79.2959 17.7865 51 255 204
-7.41392 -76.6779 22.1097 255 21 0
-26.5131 -52.1666 28.3259 255 219 0
-28.1745 -53.3968 24.6371 154 255 101
-29.4207 -49.5108 27.1315 0 200 255
-22.1416 -47.5309 33.2891 0 242 255
-24.335 -50.2486 31.2201 250 255 5
-14.9717 -68.1445 26.2142 255 130 0
-11.6451 -70.2941 26.4735 255 90 0
-13.9538 -72.5488 22.552 255 39 0
-12.9463 -76.9371 18.1227 255 25 0
-29.5095 -53.7562 20.2454 101 255 154
-30.4959 -53.4942 15.2417 160 255 95
-35.938 -44.7795 6.67293 30 255 225
-13.9112 -60.6841 32.1284 255 212 0
-16.9748 -58.9238 31.3873 255 199 0
-15.8508 -63.7113 29.1833 255 167 0
-17.9489 -65.8232 25.6002 255 126 0
-8.50488 -72.0722 26.3169 255 64 0
-5.23797 -73.5436 26.1583 133 255 122
-18.4795 -72.4976 15.5464 55 255 200
-18.8828 -74.0744 11.0677 111 255 144
-24.45 -58.265 24.7837 255 140 0
-25.237 -58.5909 22.6871 210 255 45
-25.9628 -56.7521 24.0518 255 113 0
-24.2412 -55.5215 27.958 255 200 0
-22.726 -56.7387 28.5203 255 224 0
-23.686 -57.4885 26.8043 255 197 0
-23.082 -59.5358 25.4556 255 145 0
-11.646 -64.1553 31.2356 255 193 0
-10.1609 -64.9873 31.3656 127 255 128
-11.1929 -66.519 29.8289 255 173 0
-27.0336 -49.9893 29.4077 255 235 0
-28.0054 -50.7676 27.8163 255 223 0
-28.5916 -48.7048 28.7941 15 255 240
-22.6406 -45.2092 33.7298 0 152 255
-26.4119 -46.9233 31.4924 0 242 255
-24.8351 -47.8931 31.959 224 255 31
-25.8711 -49.1485 30.7901 248 255 7
-25.5091 -51.2759 29.8647 255 239 0
-15.9274 -69.1862 24.313 255 138 0
-14.397 -70.3505 24.5291 255 101 0
-15.5751 -71.141 22.5229 255 82 0
-15.6277 -75.9383 15.9446 219 0 0
-14.5377 -75.4635 18.286 255 9 0
-14.135 -77.3916 16.0391 229 0 0
-12.5698 -78.8814 15.8162 178 255 77
-13.7212 -79.3843 13.5285 197 255 58
-14.6201 -79.8575 11.1475 218 255 37
-28.8734 -53.7011 22.4935 76 255 179
-31.3621 -51.9459 16.9823 46 255 209
-31.7906 -51.685 14.3953 0 196 255
-12.7857 -59.1803 33.4093 0 207 255
-14.3145 -58.3462 33.0509 33 255 222
-20.1251 -50.6286 33.1808 0 194 255
-19.4893 -53.125 32.6025 41 255 214
-19.6595 -59.1062 29.4997 255 195 0
-18.5367 -57.8039 31.0379 255 212 0
-18.1367 -60.1846 29.9399 255 182 0
-16.5147 -61.2756 30.3491 255 187 0
-17.4442 -62.5477 28.8623 255 162 0
-16.9621 -64.7551 27.5402 255 141 0
-18.5426 -63.5816 27.0796 255 129 0
-20.3627 -65.0218 23.1483 0 237 255
-7.13313 -66.3309 31.6877 0 217 255
-4.94863 -69.3639 30.1246 0 243 255
-11.1917 -72.6724 24.432 255 112 0
-10.134 -71.2889 26.3303 255 107 0
-9.66191 -73.5009 24.4071 255 67 0
-5.67837 -77.6801 21.7452 175 255 80
-6.32022 -75.2862 24.0164 255 252 0
-24.1388 -44.4085 33.3887 0 134 255
-35.7165 -44.9421 2.49094 111 255 144
-17.9822 -70.3846 20.0646 170 255 85
-16.4913 -72.0052 20.2719 255 18 0
-17.4929 -72.4363 17.9365 255 214 0
-17.1332 -74.2368 15.7743 235 0 0
-16.5748 -76.1805 13.6428 206 0 0
-16.2018 -77.9442 11.2291 153 0 0
-17.5801 -76.0676 11.1828 128 0 0
-18.4347 -75.9218 8.5973 138 255 117
-26.0153 -58.6176 20.4058 11 255 244
-27.3777 -57.0202 19.4631 113 255 142
-22.3517 -53.5518 30.8256 255 243 0
-20.6222 -54.5586 31.3927 255 201 0
-21.6923 -55.7792 30.0358 255 218 0
-21.2161 -58.0133 28.9611 255 207 0
-20.6551 -60.2014 27.8167 255 172 0
-20.0657 -62.3121 26.5995 255 151 0
-21.571 -60.9814 26.0397 255 150 0
-22.3691 -61.5917 24.1078 91 255 164
-8.57452 -65.6755 31.5655 48 255 207
-7.97323 -68.1082 29.9815 255 161 0
-10.1685 -77.2384 20.0227 255 12 0
-9.1142 -75.8723 22.1855 255 12 0
-8.43988 -78.1849 19.9219 255 225 0
-6.78374 -79.042 19.7552 173 255 82
-5.09701 -80.116 19.2825 0 206 255
-25.8487 -54.1782 27.3189 255 170 0
-26.7394 -54.7419 25.419 255 148 0
-27.4158 -52.7701 26.6755 255 198 0
-28.8243 -51.5466 25.8923 49 255 206
-21.6155 -49.8469 32.7803 81 255 174
-23.7511 -46.6067 32.9129 189 255 66
-23.2271 -48.9167 32.3663 241 255 14
-22.7398 -51.2159 31.699 252 255 3
-23.8533 -52.343 30.4658 251 255 4
-24.8524 -53.4014 29.0105 255 213 0
-13.7955 -67.0401 28.0155 255 133 0
-12.3135 -67.8931 28.1946 255 126 0
-13.3207 -69.3593 26.3117 255 106 0
-12.7868 -71.5647 24.5354 255 91 0
-12.28 -73.6819 22.6563 255 51 0
-14.9736 -73.3642 20.5222 255 29 0
-13.4753 -74.7579 20.3942 255 17 0
-11.9021 -75.9723 20.2962 255 11 0
-11.3747 -78.1299 18.026 255 248 0
-15.6009 -79.9329 8.78911 130 255 125
-27.394 -55.2357 23.3939 255 134 0
-28.1689 -55.2827 21.142 255 107 0
-28.6382 -55.448 18.7561 244 255 11
-30.066 -53.6429 17.8661 255 235 0
-29.208 -55.2174 16.1617 56 255 199
-34.2748 -47.8728 5.6956 31 255 224
-34.9496 -46.741 7.59762 35 255 220
-35.3077 -45.9383 4.93573 255 61 0
-36.2974 -43.8122 4.07568 121 255 134
-12.2438 -61.6729 32.4175 144 255 111
-13.2498 -63.1406 31.0789 255 174 0
-18.9749 -55.5249 31.8842 116 255 139
-17.4966 -56.4218 32.2837 20 255 235
-15.9131 -57.4347 32.6574 44 255 211
-15.4423 -59.9396 31.7178 255 220 0
-14.874 -62.1896 30.7768 255 188 0
-14.335 -64.6344 29.5011 255 150 0
-15.4178 -65.9988 27.7444 255 143 0
-16.5137 -67.0199 25.9171 255 139 0
-17.4637 -67.9485 23.9175 255 123 0
-19.4907 -64.4589 25.1449 255 131 0
-18.9168 -66.4805 23.6481 182 255 73
-18.5043 -68.3786 21.908 118 255 137
-10.6134 -68.8519 28.2619 255 109 0
-9.00233 -69.6782 28.2692 255 102 0
-7.41735 -70.3594 28.3048 255 116 0
-7.95029 -74.4189 24.2517 255 36 0
-6.84913 -72.8116 26.2682 255 53 0
-5.8609 -71.1423 28.1896 255 101 0
-4.20357 -71.8502 28.1692 22 255 233
-22.9089 -43.9704 33.9255 0 0 131
-22.1366 -44.4103 34.0879 0 0 131
-34.4281 -47.4204 2.15809 0 0 141
-34.1936 -47.8915 3.4887 0 0 141
-32.4465 -50.7165 13.9842 0 0 145
-32.2132 -50.9243 15.2732 0 0 145
-32.6925 -50.4395 12.6977 0 0 144
-32.0365 -51.408 13.1087 0 0 182
-32.4465 -50.7165 13.9842 0 0 182
-14.57 -57.0974 33.4365 0 0 133
-13.8304 -57.4323 33.6609 0 0 133
-6.00123 -67.8052 31.0035 0 0 168
-6.37462 -66.5962 31.8085 0 0 168
-6.75974 -67.5399 30.8828 0 0 200
-5.66749 -69.0564 30.1012 0 0 197
-5.28237 -68.1127 31.0269 0 0 166
-6.00123 -67.8052 31.0035 0 0 166
-5.15719 -76.7753 22.8998 0 0 147
-4.83476 -78.0777 21.6515 0 0 147
-36.4162 -43.24 0.798146 0 0 175
-35.9532 -44.3267 1.22039 0 0 175
-36.1795 -43.8554 2.0687 0 0 210
-18.1979 -71.5502 17.8132 0 0 186
-17.7376 -71.4105 19.0006 0 0 226
-18.4426 -70.5243 18.8772 0 0 186
-19.0594 -74.863 8.51847 0 0 198
-18.6587 -74.9981 9.83248 0 0 244
-19.2834 -73.9393 9.75365 0 0 198
-18.8492 -75.713 7.39405 0 0 147
-19.0594 -74.863 8.51847 0 0 147
-24.2055 -60.2959 22.1501 0 0 139
-23.4952 -61.1091 22.5353 0 0 139
-23.4952 -61.1091 22.5353 0 0 173
-22.7632 -61.8077 22.9657 0 0 173
-23.1011 -60.8931 23.6774 0 0 207
-9.96028 -62.8281 32.8067 0 0 135
-10.2256 -61.5317 33.4272 0 0 135
-6.50981 -80.2011 18.5251 0 0 146
-7.38124 -79.7297 18.6265 0 0 146
-5.66645 -80.7381 18.2888 0 0 181
-5.94037 -79.579 19.5189 0 0 219
-6.50981 -80.2011 18.5251 0 0 181
-4.73555 -81.2629 18.1154 0 0 145
-5.66645 -80.7381 18.2888 0 0 145
-29.8588 -49.7314 26.1829 0 0 169
-29.5606 -50.7493 25.5633 0 0 169
-29.1225 -50.5287 26.5119 0 0 201
-21.3487 -47.9238 33.492 0 0 131
-21.5669 -46.7808 33.7047 0 0 131
-21.8785 -48.6889 33.0347 0 0 183
-21.0856 -49.0817 33.2376 0 0 157
-21.3487 -47.9238 33.492 0 0 157
-11.7331 -79.5696 15.6973 0 0 147
-12.2953 -79.9584 14.5285 0 0 147
-30.1114 -54.1539 14.4009 0 0 177
-29.4675 -55.0155 14.8608 0 0 177
-29.8519 -54.3558 15.7017 0 0 213
-34.0575 -48.2844 7.05105 0 0 144
-33.6957 -48.8633 6.10023 0 0 144
-35.4438 -45.7603 7.13528 0 0 214
-35.2885 -46.1188 8.45579 0 0 177
-35.7827 -45.138 7.99345 0 0 177
-19.4081 -66.6329 22.6143 0 0 168
-19.6397 -65.7512 23.3982 0 0 200
-20.1311 -65.9036 22.3644 0 0 168
-19.2019 -67.582 21.7443 0 0 172
-18.7106 -67.4296 22.778 0 0 205
-19.4081 -66.6329 22.6143 0 0 172
-18.9734 -68.5375 20.78 0 0 141
-19.2019 -67.582 21.7443 0 0 141
-37.184 -41.1396 0.176562 0 0 137
-36.8255 -42.1822 0.459035 0 0 170
-37.001 -41.7261 1.36398 0 0 170
-19.1234 -71.574 15.3989 0 0 145
-18.6912 -71.5808 16.6182 0 0 145
-18.9053 -72.4382 14.3428 0 0 144
-19.1234 -71.574 15.3989 0 0 144
-18.6573 -73.3453 13.3226 0 0 186
-18.2315 -73.4047 14.5262 0 0 226
-18.9053 -72.4382 14.3428 0 0 186
-19.1069 -73.2266 12.1034 0 0 186
-18.4332 -74.1931 12.2868 0 0 226
-18.6573 -73.3453 13.3226 0 0 186
-19.4925 -73.077 10.9103 0 0 144
-19.1069 -73.2266 12.1034 0 0 144
-19.2834 -73.9393 9.75365 0 0 148
-19.4925 -73.077 10.9103 0 0 148
-8.8577 -79.8566 17.6421 0 0 146
-9.45303 -80.4106 16.5369 0 0 146
-21.8163 -45.6199 33.925 0 0 132
-22.1366 -44.4103 34.0879 0 0 132
-22.3911 -46.3701 33.5094 0 0 185
-21.5669 -46.7808 33.7047 0 0 159
-21.8163 -45.6199 33.925 0 0 159
-12.871 -80.2098 13.3846 0 0 194
-12.2953 -79.9584 14.5285 0 0 194
-13.1455 -79.1329 14.6724 0 0 238
-13.4154 -80.4054 12.2971 0 0 147
-12.871 -80.2098 13.3846 0 0 147
-13.8649 -80.642 11.1065 0 0 185
-13.4154 -80.4054 12.2971 0 0 185
-14.1707 -79.6209 12.338 0 0 225
-14.3598 -80.8208 9.86064 0 0 147
-13.8649 -80.642 11.1065 0 0 147
-16.8178 -78.8856 7.53344 0 0 149
-17.4986 -77.8539 7.53261 0 0 149
-29.2302 -52.822 23.1839 0 0 168
-28.524 -53.549 23.5653 0 0 199
-28.8808 -52.6698 24.2557 0 0 168
-29.5481 -52.9291 22.1218 0 0 136
-29.2302 -52.822 23.1839 0 0 136
-29.8662 -52.9566 20.9977 0 0 169
-29.1915 -53.7287 21.3695 0 0 201
-29.5481 -52.9291 22.1218 0 0 169
-31.999 -51.0548 16.5667 0 0 140
-31.7537 -51.1784 17.7793 0 0 140
-31.5764 -51.8155 15.6888 0 0 218
-31.999 -51.0548 16.5667 0 0 181
-32.2132 -50.9243 15.2732 0 0 181
-31.3706 -52.3857 13.5205 0 0 180
-30.7233 -53.2903 13.9438 0 0 180
-31.1433 -52.5896 14.8185 0 0 218
-31.3706 -52.3857 13.5205 0 0 144
-32.0365 -51.408 13.1087 0 0 144
-36.225 -44.1891 7.60452 0 0 175
-35.7827 -45.138 7.99345 0 0 175
-36.0697 -44.5476 8.92504 0 0 140
-36.374 -43.7563 6.31358 0 0 141
-36.225 -44.1891 7.60452 0 0 141
-13.066 -57.8493 33.8401 0 0 135
-12.3084 -58.2755 34.037 0 0 135
-13.5501 -58.7632 33.2301 0 0 196
-13.066 -57.8493 33.8401 0 0 166
-13.8304 -57.4323 33.6609 0 0 166
-19.2853 -51.0995 33.3982 0 0 135
-19.5569 -49.8513 33.6459 0 0 135
-18.9674 -52.3477 33.109 0 0 164
-19.2853 -51.0995 33.3982 0 0 164
-19.8072 -51.8768 32.8917 0 0 193
-18.69 -53.5866 32.8172 0 0 133
-18.9674 -52.3477 33.109 0 0 133
-21.059 -64.3051 22.8251 0 0 170
-20.6627 -64.0437 23.8763 0 0 202
-21.359 -63.3269 23.5531 0 0 170
-20.8133 -65.1819 21.9919 0 0 139
-21.059 -64.3051 22.8251 0 0 139
-20.1311 -65.9036 22.3644 0 0 138
-20.8133 -65.1819 21.9919 0 0 138
-6.64994 -65.4615 32.5404 0 0 137
-7.39319 -65.0585 32.4703 0 0 137
-6.64994 -65.4615 32.5404 0 0 135
-6.37462 -66.5962 31.8085 0 0 135
-4.5621 -68.4909 31.0473 0 0 136
-5.28237 -68.1127 31.0269 0 0 136
-4.17709 -69.6656 30.1903 0 0 136
-4.5621 -68.4909 31.0473 0 0 136
-5.47811 -75.5784 24.0353 0 0 183
-5.99929 -76.4831 22.8808 0 0 222
-5.15719 -76.7753 22.8998 0 0 183
-4.93699 -74.7071 25.1063 0 0 179
-5.7791 -74.4149 25.0873 0 0 216
-5.47811 -75.5784 24.0353 0 0 179
-4.44688 -73.9559 26.0529 0 0 138
-4.93699 -74.7071 25.1063 0 0 138
-28.2581 -47.2654 30.0081 0 0 131
-27.7148 -46.85 30.6574 0 0 131
-24.41 -43.2805 33.5631 0 0 153
-23.6581 -43.5701 33.7549 0 0 153
-23.9293 -42.4421 33.9293 0 0 129
-24.9325 -44.0043 33.1891 0 0 130
-24.41 -43.2805 33.5631 0 0 130
-25.4781 -44.6557 32.7739 0 0 152
-24.6844 -45.0599 32.9734 0 0 176
-24.9325 -44.0043 33.1891 0 0 152
-25.9885 -45.2556 32.3507 0 0 128
-25.4781 -44.6557 32.7739 0 0 128
-26.5794 -45.8617 31.8178 0 0 154
-25.821 -46.3173 32.0253 0 0 179
-25.9885 -45.2556 32.3507 0 0 154
-27.1717 -46.3689 31.2578 0 0 130
-26.5794 -45.8617 31.8178 0 0 130
-27.7148 -46.85 30.6574 0 0 154
-26.955 -47.4044 30.892 0 0 179
-27.1717 -46.3689 31.2578 0 0 154
-35.4491 -45.4208 1.5668 0 0 173
-34.9535 -46.4126 1.85753 0 0 173
-35.2209 -45.9339 2.78167 0 0 206
-35.4491 -45.4208 1.5668 0 0 142
-35.9532 -44.3267 1.22039 0 0 142
-36.5992 -42.6535 -0.389271 0 0 138
-36.4162 -43.24 0.798146 0 0 170
-36.8255 -42.1822 0.459035 0 0 170
-17.9862 -72.467 16.7415 0 0 224
-18.1979 -71.5502 17.8132 0 0 185
-18.6912 -71.5808 16.6182 0 0 185
-18.1945 -76.8106 7.45358 0 0 193
-17.4986 -77.8539 7.53261 0 0 193
-17.7388 -76.9651 8.67634 0 0 237
-18.1945 -76.8106 7.45358 0 0 149
-18.8492 -75.713 7.39405 0 0 149
-24.9074 -59.4942 21.8701 0 0 173
-24.2055 -60.2959 22.1501 0 0 173
-24.5351 -59.3927 22.9671 0 0 206
-25.2966 -59.5075 20.7295 0 0 178
-24.9074 -59.4942 21.8701 0 0 178
-25.6261 -58.6043 21.5465 0 0 215
-25.6397 -59.4822 19.5888 0 0 141
-25.2966 -59.5075 20.7295 0 0 141
-26.2932 -58.6307 19.2153 0 0 141
-25.6397 -59.4822 19.5888 0 0 141
-26.9744 -57.832 18.7439 0 0 173
-26.2932 -58.6307 19.2153 0 0 173
-26.6965 -57.8189 19.9345 0 0 207
-27.6312 -56.9947 18.2462 0 0 140
-26.9744 -57.832 18.7439 0 0 140
-22.0622 -62.59 23.3049 0 0 171
-21.359 -63.3269 23.5531 0 0 171
-21.6659 -62.3286 24.3561 0 0 204
-22.0622 -62.59 23.3049 0 0 141
-22.7632 -61.8077 22.9657 0 0 141
-9.68203 -64.1247 32.1279 0 0 167
-9.96028 -62.8281 32.8067 0 0 167
-10.4391 -63.6906 32.0444 0 0 198
-8.88885 -64.4689 32.2278 0 0 166
-9.68203 -64.1247 32.1279 0 0 166
-9.3677 -65.3314 31.4655 0 0 197
-8.11389 -64.7308 32.4092 0 0 136
-8.88885 -64.4689 32.2278 0 0 136
-7.85382 -66.0032 31.6266 0 0 196
-7.39319 -65.0585 32.4703 0 0 166
-8.11389 -64.7308 32.4092 0 0 166
-8.20931 -79.3011 18.7098 0 0 187
-9.08826 -78.7404 18.8542 0 0 228
-8.8577 -79.8566 17.6421 0 0 187
-7.61181 -78.6134 19.8386 0 0 221
-8.20931 -79.3011 18.7098 0 0 182
-7.38124 -79.7297 18.6265 0 0 182
-4.54408 -79.2956 20.4201 0 0 186
-4.83476 -78.0777 21.6515 0 0 186
-5.38769 -78.898 20.5139 0 0 226
-4.18963 -80.5171 19.2177 0 0 190
-3.6367 -79.6968 20.3553 0 0 148
-4.54408 -79.2956 20.4201 0 0 190
-4.18963 -80.5171 19.2177 0 0 146
-4.73555 -81.2629 18.1154 0 0 146
-29.2056 -51.7447 24.8833 0 0 166
-28.8808 -52.6698 24.2557 0 0 166
-28.4994 -52.4717 25.2647 0 0 197
-29.2056 -51.7447 24.8833 0 0 138
-29.5606 -50.7493 25.5633 0 0 138
-28.8049 -47.675 29.2594 0 0 160
-28.0448 -48.2952 29.5429 0 0 188
-28.2581 -47.2654 30.0081 0 0 160
-29.2966 -48.0262 28.504 0 0 158
-28.8049 -47.675 29.2594 0 0 158
-29.5099 -46.9965 28.9693 0 0 132
-29.7112 -48.4292 27.6728 0 0 162
-29.0061 -49.1078 27.9628 0 0 191
-29.2966 -48.0262 28.504 0 0 162
-30.1068 -48.7423 26.8572 0 0 133
-29.7112 -48.4292 27.6728 0 0 133
-29.8588 -49.7314 26.1829 0 0 136
-30.1068 -48.7423 26.8572 0 0 136
-20.3404 -49.4726 33.4379 0 0 131
-19.5569 -49.8513 33.6459 0 0 131
-20.8703 -50.2377 32.9805 0 0 180
-20.3404 -49.4726 33.4379 0 0 155
-21.0856 -49.0817 33.2376 0 0 155
-23.3897 -44.8088 33.5592 0 0 181
-22.9089 -43.9704 33.9255 0 0 156
-23.6581 -43.5701 33.7549 0 0 156
-34.4281 -47.4204 2.15809 0 0 140
-34.9535 -46.4126 1.85753 0 0 140
-11.1356 -79.1938 16.8022 0 0 186
-11.9723 -78.5057 16.9211 0 0 227
-11.7331 -79.5696 15.6973 0 0 186
-10.3165 -79.7768 16.6825 0 0 182
-10.5557 -78.7129 17.9063 0 0 221
-11.1356 -79.1938 16.8022 0 0 182
-9.45303 -80.4106 16.5369 0 0 146
-10.3165 -79.7768 16.6825 0 0 146
-14.8502 -80.8585 8.68144 0 0 191
-14.3598 -80.8208 9.86064 0 0 191
-15.1105 -79.8952 9.96831 0 0 234
-16.0967 -79.8478 7.55031 0 0 193
-16.3219 -78.9706 8.77224 0 0 237
-16.8178 -78.8856 7.53344 0 0 193
-15.3833 -80.8745 7.37847 0 0 153
-16.0967 -79.8478 7.55031 0 0 153
-14.8502 -80.8585 8.68144 0 0 153
-15.3833 -80.8745 7.37847 0 0 153
-28.2614 -56.2086 17.8927 0 0 172
-27.6312 -56.9947 18.2462 0 0 172
-28.0079 -56.2341 19.1096 0 0 206
-30.1702 -52.9201 19.9157 0 0 137
-29.8662 -52.9566 20.9977 0 0 137
-31.0965 -52.015 18.2842 0 0 142
-31.7537 -51.1784 17.7793 0 0 142
-30.4484 -52.8634 18.7261 0 0 180
-31.0965 -52.015 18.2842 0 0 180
-30.7141 -52.7944 17.4242 0 0 217
-29.7878 -53.6996 19.0558 0 0 209
-30.1702 -52.9201 19.9157 0 0 174
-30.4484 -52.8634 18.7261 0 0 174
-28.5463 -56.0934 16.5956 0 0 180
-28.2614 -56.2086 17.8927 0 0 180
-28.9231 -55.3327 17.4589 0 0 218
-28.761 -56.0033 15.3462 0 0 142
-28.5463 -56.0934 16.5956 0 0 142
-28.761 -56.0033 15.3462 0 0 146
-29.4675 -55.0155 14.8608 0 0 146
-30.1114 -54.1539 14.4009 0 0 140
-30.7233 -53.2903 13.9438 0 0 140
-33.9685 -48.3651 4.8003 0 0 141
-33.6957 -48.8633 6.10023 0 0 141
-34.5 -47.3992 4.384 0 0 210
-34.1936 -47.8915 3.4887 0 0 175
-33.9685 -48.3651 4.8003 0 0 175
-34.7717 -47.0782 8.93685 0 0 141
-35.2885 -46.1188 8.45579 0 0 141
-34.3949 -47.7185 8.00207 0 0 182
-34.2169 -48.0557 9.34129 0 0 144
-34.7717 -47.0782 8.93685 0 0 182
-34.6122 -47.3069 6.64661 0 0 219
-34.0575 -48.2844 7.05105 0 0 181
-34.3949 -47.7185 8.00207 0 0 181
-36.5537 -43.2726 5.01495 0 0 177
-36.1177 -44.2959 5.3743 0 0 213
-36.374 -43.7563 6.31358 0 0 177
-36.6921 -42.7877 3.76448 0 0 140
-36.5537 -43.2726 5.01495 0 0 140
-36.8647 -42.266 2.54987 0 0 171
-36.4699 -43.2904 2.86106 0 0 204
-36.6921 -42.7877 3.76448 0 0 171
-37.001 -41.7261 1.36398 0 0 138
-36.8647 -42.266 2.54987 0 0 138
-10.983 -61.118 33.2762 0 0 135
-10.2256 -61.5317 33.4272 0 0 135
-12.0172 -59.5112 33.6193 0 0 134
-12.3084 -58.2755 34.037 0 0 134
-11.7462 -60.7575 33.1234 0 0 166
-12.0172 -59.5112 33.6193 0 0 166
-12.5148 -60.4266 32.9134 0 0 196
-11.4806 -62.0334 32.5704 0 0 196
-10.983 -61.118 33.2762 0 0 166
-11.7462 -60.7575 33.1234 0 0 166
-18.4328 -54.7865 32.4581 0 0 162
-18.69 -53.5866 32.8172 0 0 162
-19.2321 -54.325 32.2434 0 0 191
-17.6937 -55.235 32.6578 0 0 159
-18.4328 -54.7865 32.4581 0 0 159
-18.2358 -55.9734 32.084 0 0 185
-16.9561 -55.692 32.8409 0 0 132
-17.6937 -55.235 32.6578 0 0 132
-16.1643 -56.1985 33.0278 0 0 163
-16.9561 -55.692 32.8409 0 0 163
-16.7049 -56.9282 32.4705 0 0 191
-15.3693 -56.6417 33.2398 0 0 134
-16.1643 -56.1985 33.0278 0 0 134
-15.1138 -57.8904 32.8542 0 0 194
-14.57 -57.0974 33.4365 0 0 164
-15.3693 -56.6417 33.2398 0 0 164
-18.7123 -69.5405 19.8584 0 0 181
-18.2433 -69.3816 20.9863 0 0 218
-18.9734 -68.5375 20.78 0 0 181
-18.4426 -70.5243 18.8772 0 0 144
-18.7123 -69.5405 19.8584 0 0 144
-3.80457 -70.9087 29.2126 0 0 174
-4.17709 -69.6656 30.1903 0 0 174
-4.5761 -70.6071 29.1469 0 0 208
-3.92968 -73.1092 27.0584 0 0 177
-4.72077 -72.6969 27.1637 0 0 213
-4.44688 -73.9559 26.0529 0 0 177
-3.45779 -72.1626 28.1853 0 0 141
-3.92968 -73.1092 27.0584 0 0 141
-3.80457 -70.9087 29.2126 0 0 139
-3.45779 -72.1626 28.1853 0 0 139
3 0 47 45
3 0 50 48
3 0 45 50
3 1 54 52
3 2 57 55
3 171 58 172
3 2 61 59
3 2 55 61
3 4 173 174
3 5 65 63
3 7 68 66
3 7 70 68
3 7 71 70
3 175 74 176
3 179 178 74
3 177 178 179
3 180 76 181
3 3 78 77
3 8 81 79
3 8 83 81
3 8 85 83
3 9 182 184
3 184 183 87
3 182 183 184
3 9 185 187
3 185 88 186
3 185 186 187
3 6 91 89
3 189 188 92
3 11 190 192
3 192 191 95
3 190 191 192
3 193 98 194
3 195 194 96
3 193 194 195
3 13 99 43
3 13 100 99
3 13 102 100
3 196 103 197
3 198 197 44
3 196 197 198
3 200 199 103
3 15 201 202
3 16 104 46
3 16 105 104
3 17 108 106
3 19 109 49
3 19 110 109
3 19 112 110
3 15 113 51
3 15 203 205
3 205 204 113
3 203 204 205
3 21 206 207
3 22 114 53
3 22 115 114
3 23 118 116
3 208 119 209
3 210 120 211
3 212 211 119
3 210 211 212
3 214 213 120
3 25 123 121
3 27 124 56
3 27 215 217
3 217 216 124
3 215 216 217
3 28 218 219
3 28 220 222
3 220 125 221
3 220 221 222
3 10 126 94
3 29 127 60
3 29 128 127
3 29 129 128
3 25 130 62
3 25 121 130
3 30 133 131
3 32 134 64
3 32 135 134
3 12 136 97
3 33 137 67
3 33 138 137
3 33 139 138
3 224 223 69
3 14 140 101
3 26 141 122
3 34 142 72
3 34 143 142
3 35 144 73
3 35 145 144
3 35 225 227
3 227 226 145
3 225 226 227
3 228 146 229
3 36 230 232
3 230 147 231
3 230 231 232
3 36 148 147
3 36 149 148
3 37 150 75
3 37 151 150
3 18 152 107
3 38 153 80
3 38 154 153
3 38 155 154
3 39 156 82
3 39 157 156
3 39 158 157
3 40 159 84
3 40 160 159
3 20 161 111
3 233 162 234
3 235 234 86
3 233 234 235
3 236 163 237
3 238 237 162
3 236 237 238
3 240 239 163
3 31 164 132
3 41 165 90
3 41 166 165
3 24 167 117
3 42 168 93
3 42 169 168
3 42 170 169
3 243 242 11
3 241 242 243
3 244 43 245
3 246 43 247
3 248 13 249
3 250 249 43
3 248 249 250
3 251 44 252
3 253 252 13
3 251 252 253
3 254 44 255
3 257 256 44
3 45 46 15
3 47 46 45
3 47 16 46
3 48 49 17
3 50 49 48
3 50 19 49
3 50 51 19
3 45 51 50
3 45 15 51
3 52 53 21
3 54 53 52
3 54 22 53
3 259 258 23
3 55 56 25
3 57 56 55
3 57 27 56
3 58 260 261
3 58 262 264
3 262 28 263
3 262 263 264
3 59 60 10
3 61 60 59
3 61 29 60
3 61 62 29
3 55 62 61
3 55 25 62
3 63 64 30
3 65 64 63
3 65 32 64
3 66 67 12
3 68 67 66
3 68 33 67
3 68 69 33
3 70 69 68
3 70 265 267
3 267 266 69
3 265 266 267
3 70 268 269
3 71 270 272
3 272 271 70
3 270 271 272
3 71 273 274
3 276 275 14
3 277 72 278
3 279 278 26
3 277 278 279
3 280 72 281
3 282 34 283
3 284 283 72
3 282 283 284
3 285 73 286
3 74 287 289
3 287 73 288
3 287 288 289
3 74 35 73
3 74 290 292
3 292 291 35
3 290 291 292
3 294 293 74
3 295 36 296
3 295 296 297
3 299 298 36
3 300 75 301
3 76 302 304
3 302 75 303
3 302 303 304
3 76 37 75
3 77 305 306
3 78 307 309
3 309 308 77
3 307 308 309
3 78 310 311
3 79 80 18
3 81 80 79
3 81 38 80
3 81 82 38
3 83 82 81
3 83 39 82
3 83 84 39
3 85 84 83
3 85 40 84
3 312 86 313
3 314 313 20
3 312 313 314
3 315 86 316
3 318 317 86
3 87 319 320
3 322 321 87
3 88 323 324
3 88 325 326
3 89 90 31
3 91 90 89
3 91 41 90
3 92 93 24
3 327 93 328
3 329 328 92
3 327 328 329
3 330 42 331
3 332 331 93
3 330 331 332
3 334 333 42
3 336 335 2
3 337 94 338
3 337 338 339
3 340 94 341
3 342 10 343
3 344 343 94
3 342 343 344
3 345 10 346
3 347 59 348
3 349 348 10
3 347 348 349
3 350 59 351
3 352 2 353
3 354 353 59
3 352 353 354
3 95 355 357
3 357 356 4
3 355 356 357
3 359 358 95
3 362 361 11
3 360 361 362
3 96 97 5
3 98 97 96
3 98 12 97
3 43 363 365
3 363 98 364
3 363 364 365
3 99 98 43
3 99 12 98
3 99 66 12
3 100 66 99
3 100 7 66
3 100 101 7
3 102 101 100
3 102 14 101
3 44 102 13
3 103 102 44
3 103 14 102
3 103 366 368
3 368 367 14
3 366 367 368
3 370 369 103
3 46 371 373
3 373 372 15
3 371 372 373
3 104 374 376
3 376 375 46
3 374 375 376
3 104 377 378
3 104 379 380
3 105 381 383
3 383 382 104
3 381 382 383
3 105 384 385
3 106 107 3
3 108 107 106
3 108 18 107
3 49 108 17
3 109 108 49
3 109 18 108
3 109 79 18
3 110 79 109
3 110 8 79
3 110 111 8
3 112 111 110
3 112 20 111
3 51 112 19
3 113 112 51
3 113 20 112
3 113 386 388
3 388 387 20
3 386 387 388
3 390 389 113
3 53 391 393
3 393 392 21
3 391 392 393
3 114 394 396
3 396 395 53
3 394 395 396
3 114 397 398
3 114 399 401
3 399 87 400
3 399 400 401
3 115 87 114
3 115 9 87
3 116 117 6
3 118 117 116
3 118 24 117
3 402 118 403
3 404 403 23
3 402 403 404
3 119 405 407
3 405 118 406
3 405 406 407
3 119 24 118
3 119 92 24
3 120 92 119
3 120 408 410
3 410 409 92
3 408 409 410
3 120 411 413
3 411 412 413
3 415 414 120
3 121 122 0
3 123 122 121
3 123 26 122
3 56 123 25
3 124 123 56
3 124 26 123
3 124 416 418
3 418 417 26
3 416 417 418
3 420 419 124
3 421 57 422
3 423 422 2
3 421 422 423
3 424 57 425
3 424 425 426
3 427 27 428
3 429 428 57
3 427 428 429
3 430 27 431
3 433 432 27
3 434 77 435
3 125 436 438
3 436 77 437
3 436 437 438
3 125 3 77
3 94 439 441
3 439 58 440
3 439 440 441
3 126 58 94
3 126 28 58
3 60 126 10
3 127 126 60
3 127 28 126
3 127 125 28
3 128 125 127
3 128 3 125
3 128 106 3
3 129 106 128
3 129 17 106
3 62 129 29
3 130 129 62
3 130 17 129
3 130 48 17
3 121 48 130
3 121 0 48
3 443 442 4
3 131 132 1
3 133 132 131
3 133 31 132
3 64 133 30
3 134 133 64
3 134 31 133
3 134 89 31
3 135 89 134
3 135 6 89
3 97 65 5
3 136 65 97
3 136 32 65
3 67 136 12
3 137 136 67
3 137 32 136
3 137 135 32
3 138 135 137
3 138 6 135
3 138 116 6
3 139 116 138
3 139 23 116
3 69 139 33
3 444 139 445
3 446 445 69
3 444 445 446
3 447 23 448
3 449 448 139
3 447 448 449
3 451 450 23
3 101 71 7
3 140 71 101
3 140 452 454
3 454 453 71
3 452 453 454
3 455 140 456
3 457 456 14
3 455 456 457
3 458 140 459
3 461 460 140
3 122 47 0
3 141 47 122
3 141 16 47
3 72 141 26
3 142 141 72
3 142 16 141
3 142 105 16
3 143 105 142
3 143 462 464
3 464 463 105
3 462 463 464
3 465 34 466
3 73 467 468
3 144 469 471
3 471 470 73
3 469 470 471
3 144 472 474
3 472 34 473
3 472 473 474
3 144 143 34
3 145 143 144
3 145 475 477
3 477 476 143
3 475 476 477
3 145 478 479
3 481 480 145
3 483 482 35
3 146 484 485
3 146 486 488
3 486 4 487
3 486 487 488
3 147 489 490
3 147 491 493
3 491 492 493
3 147 494 496
3 494 146 495
3 494 495 496
3 148 146 147
3 148 4 146
3 148 95 4
3 149 95 148
3 149 11 95
3 497 149 498
3 499 498 36
3 497 498 499
3 500 149 501
3 502 11 503
3 504 503 149
3 502 503 504
3 506 505 11
3 507 21 508
3 75 509 510
3 150 511 513
3 513 512 75
3 511 512 513
3 150 514 516
3 514 21 515
3 514 515 516
3 150 52 21
3 151 52 150
3 151 1 52
3 107 78 3
3 152 78 107
3 152 517 519
3 519 518 78
3 517 518 519
3 80 152 18
3 153 152 80
3 153 520 522
3 522 521 152
3 520 521 522
3 153 523 524
3 154 525 527
3 527 526 153
3 525 526 527
3 154 528 529
3 154 530 532
3 530 76 531
3 530 531 532
3 155 76 154
3 155 37 76
3 82 155 38
3 156 155 82
3 156 37 155
3 156 151 37
3 157 151 156
3 157 1 151
3 157 131 1
3 158 131 157
3 158 30 131
3 84 158 39
3 159 158 84
3 159 30 158
3 159 63 30
3 160 63 159
3 160 5 63
3 111 85 8
3 161 85 111
3 161 40 85
3 86 161 20
3 162 161 86
3 162 40 161
3 162 160 40
3 163 160 162
3 163 5 160
3 163 96 5
3 533 96 534
3 535 534 163
3 533 534 535
3 537 536 96
3 132 54 1
3 164 54 132
3 164 22 54
3 90 164 31
3 165 164 90
3 165 22 164
3 165 115 22
3 166 115 165
3 166 9 115
3 117 91 6
3 167 91 117
3 167 41 91
3 93 167 24
3 168 167 93
3 168 41 167
3 168 166 41
3 169 166 168
3 169 9 166
3 169 88 9
3 170 88 169
3 170 538 540
3 540 539 88
3 538 539 540
3 541 170 542
3 543 542 42
3 541 542 543
3 544 170 545
3 547 546 170
