ply
format ascii 1.0
element vertex 292
property float x
property float y
property float z
property uchar red
property uchar green
property uchar blue
element face 277
property list uchar int vertex_index
end_header
30.9439 0.618132 33.1732 76 255 179
28.2055 -18.7806 41.8479 200 0 0
29.0088 -4.52209 39.6818 255 41 0
28.0343 -26.898 47.6997 128 0 0
28.0925 -32.8014 49.3105 255 167 0
28.6563 -6.92765 43.4372 164 255 91
28.4429 -23.6375 39.0649 56 255 199
28.6959 -16.5472 37.9591 224 0 0
30.3863 5.57934 35.8508 41 255 214
28.3045 -13.9646 44.6694 185 0 0
28.1045 -20.4502 46.1308 204 0 0
28.0973 -25.4632 43.2609 209 0 0
27.7978 -39.0855 56.1019 49 255 206
28.144 -38.6215 51.0167 209 255 46
29.55 2.61581 38.9337 115 255 140
29.7557 -2.0441 36.4366 255 86 0
28.5137 -11.7636 40.7463 255 6 0
29.1632 -9.45447 37.11 242 0 0
28.068 -30.4984 51.0275 233 255 22
28.0749 -33.3564 51.7715 207 255 48
31.2798 4.62184 32.9053 0 210 255
28.2276 -17.921 47.4302 202 255 53
28.145 -21.2732 48.2717 238 255 17
28.0701 -29.412 46.1563 255 159 0
28.0402 -26.0741 45.3029 199 0 0
28.1176 -28.5884 44.0462 179 255 76
28.2257 -27.8319 41.8405 70 255 185
27.5883 -41.5398 56.7976 0 180 255
27.8942 -41.4691 54.3425 173 255 82
28.9957 -2.50754 41.1093 244 255 11
29.2646 1.28513 40.6617 39 255 216
29.2694 -1.02036 39.2976 255 43 0
29.6275 0.387597 37.6703 255 91 0
29.3437 -3.2727 37.9726 255 69 0
28.2172 -16.371 43.1436 182 0 0
28.3677 -12.7795 42.6079 211 0 0
28.3403 -15.3109 41.1902 234 0 0
29.1112 -15.5602 36.1139 185 255 70
28.8845 -13.0369 37.6201 255 4 0
29.3444 -12.0524 35.791 170 255 85
29.635 -8.26941 35.4736 162 255 93
28.096 -24.3669 49.2284 253 255 2
28.0684 -27.5067 50.0581 242 255 13
28.0519 -29.9343 48.4837 152 0 0
28.1278 -32.4561 46.9745 80 255 175
28.8663 -3.41142 42.9052 30 255 225
28.7791 -5.73185 41.531 255 28 0
28.2855 -21.3194 40.3974 221 0 0
28.3945 -17.8684 39.8371 222 0 0
28.5391 -20.1533 38.4641 255 222 0
28.8845 -19.3073 36.6509 72 255 183
30.6273 3.04017 34.5172 255 212 0
28.4753 -11.2607 46.1267 82 255 173
28.3352 -14.5985 46.6798 194 255 61
28.1876 -17.2346 45.3381 206 0 0
28.1119 -19.7523 44.0479 204 0 0
28.047 -23.8097 46.7602 151 0 0
28.056 -22.8826 44.6118 213 0 0
28.1277 -22.0482 42.4749 180 0 0
28.2325 -24.6948 41.0785 255 183 0
28.0675 -36.15 52.6571 216 255 39
28.0051 -38.9242 53.558 255 192 0
28.1068 -41.2383 51.9033 56 255 199
29.9193 3.96356 37.3599 115 255 140
30.0724 1.53037 36.0779 255 49 0
30.2871 -0.819685 34.8365 252 255 3
28.4615 -10.5189 44.0343 255 200 0
28.5555 -9.23819 42.1468 248 0 0
28.7388 -8.21134 40.2456 253 0 0
28.5542 -14.2062 39.4005 255 23 0
28.7582 -10.8823 38.9499 255 15 0
29.0244 -7.06678 38.5278 255 1 0
29.4391 -5.71351 36.8222 255 30 0
29.9543 -4.42994 35.1793 148 255 107
28.1307 -35.6963 50.2639 210 255 45
28.0564 -33.5506 53.0636 0 0 135
28.081 -32.1799 52.5509 0 0 135
31.3075 1.37895 32.3552 0 0 177
31.4755 3.3808 32.2213 0 0 177
31.1118 2.61998 33.0392 0 0 219
31.1316 -0.686049 32.4687 0 0 137
31.3075 1.37895 32.3552 0 0 137
28.1915 -21.6154 49.4674 0 0 140
28.235 -19.9291 49.0142 0 0 140
28.1486 -30.1193 44.3515 0 0 169
28.0938 -29.0002 45.1013 0 0 207
28.1248 -30.5311 45.4065 0 0 169
28.1968 -29.8417 43.2614 0 0 133
28.1486 -30.1193 44.3515 0 0 133
27.6388 -42.7799 56.0244 0 0 130
27.4336 -42.8068 57.1625 0 0 130
29.4744 -13.2249 35.1295 0 0 164
29.2278 -13.8063 35.9524 0 0 200
29.3578 -14.9788 35.291 0 0 164
29.6325 -11.3545 34.9369 0 0 132
29.4744 -13.2249 35.1295 0 0 132
28.0996 -27.7286 51.2829 0 0 135
28.1228 -26.2821 50.844 0 0 135
28.7613 -5.16953 43.1712 0 0 209
28.8359 -4.00976 43.8566 0 0 170
28.7308 -5.76787 44.1226 0 0 170
29.0302 -20.5705 35.9137 0 0 135
28.8122 -21.0773 36.9165 0 0 135
29.1183 -18.739 35.7431 0 0 134
29.0302 -20.5705 35.9137 0 0 134
30.6783 6.36234 35.0277 0 0 129
30.555 7.43816 35.6406 0 0 129
30.5068 4.30975 35.184 0 0 218
30.7988 5.09275 34.361 0 0 176
30.6783 6.36234 35.0277 0 0 176
28.3729 -15.0392 47.7687 0 0 135
28.4364 -13.3937 47.4591 0 0 135
28.3218 -27.5546 40.7398 0 0 132
28.3223 -29.0549 41.0925 0 0 132
27.9014 -39.0049 54.83 0 0 211
27.9781 -37.7635 54.355 0 0 172
27.8744 -37.8442 55.627 0 0 172
28.0554 -42.5567 52.3684 0 0 172
28.0005 -41.3537 53.1229 0 0 212
27.9491 -42.6721 53.5881 0 0 172
28.1715 -42.4007 51.1331 0 0 133
28.0554 -42.5567 52.3684 0 0 133
29.5378 3.75949 39.6283 0 0 167
29.3952 3.09415 40.4923 0 0 167
29.4073 1.95047 39.7977 0 0 205
29.6796 4.38242 38.8236 0 0 128
29.5378 3.75949 39.6283 0 0 128
29.7347 3.28968 38.1468 0 0 195
29.8642 5.05629 38.0367 0 0 161
29.6796 4.38242 38.8236 0 0 161
30.0837 -5.7912 34.5088 0 0 172
29.7947 -6.34967 35.3264 0 0 212
29.9241 -7.71094 34.6559 0 0 172
30.2662 -3.81576 34.3471 0 0 134
30.0837 -5.7912 34.5088 0 0 134
28.0776 -30.7509 52.1788 0 0 135
28.0995 -29.2245 51.7676 0 0 135
28.0715 -31.9274 51.3995 0 0 212
28.0776 -30.7509 52.1788 0 0 172
28.081 -32.1799 52.5509 0 0 172
31.6394 5.36318 32.0857 0 0 134
31.4533 6.64006 32.7234 0 0 134
31.6394 5.36318 32.0857 0 0 134
31.4755 3.3808 32.2213 0 0 134
28.6411 -7.47276 44.4423 0 0 132
28.7308 -5.76787 44.1226 0 0 132
28.5914 -23.2424 38.1235 0 0 130
28.5541 -24.8976 38.3734 0 0 130
30.3014 6.62791 36.4604 0 0 128
30.555 7.43816 35.6406 0 0 128
28.2763 -18.253 48.5935 0 0 135
28.3191 -16.7004 48.1439 0 0 135
28.1863 -19.5971 47.8509 0 0 232
28.2763 -18.253 48.5935 0 0 185
28.235 -19.9291 49.0142 0 0 185
28.2509 -29.4635 42.1585 0 0 179
28.1716 -28.2101 42.9434 0 0 222
28.1968 -29.8417 43.2614 0 0 179
28.3223 -29.0549 41.0925 0 0 134
28.2509 -29.4635 42.1585 0 0 134
27.7918 -42.7446 54.7969 0 0 172
27.7412 -41.5045 55.5701 0 0 212
27.6388 -42.7799 56.0244 0 0 172
27.9491 -42.6721 53.5881 0 0 131
27.7918 -42.7446 54.7969 0 0 131
29.1302 -0.611208 40.8855 0 0 203
29.1829 0.733795 41.4857 0 0 166
29.0485 -1.16254 41.7094 0 0 166
29.7778 -9.46303 34.7782 0 0 173
29.4897 -10.1609 35.6323 0 0 213
29.6325 -11.3545 34.9369 0 0 173
29.9241 -7.71094 34.6559 0 0 129
29.7778 -9.46303 34.7782 0 0 129
28.1915 -38.348 49.8115 0 0 132
28.1986 -39.7419 50.2982 0 0 132
28.1366 -24.7123 50.4292 0 0 136
28.1671 -23.1623 49.9457 0 0 136
28.0822 -25.9368 49.6432 0 0 226
28.1366 -24.7123 50.4292 0 0 182
28.1228 -26.2821 50.844 0 0 182
28.0682 -29.0026 50.5428 0 0 225
28.0996 -27.7286 51.2829 0 0 181
28.0995 -29.2245 51.7676 0 0 181
28.1537 -32.0531 45.8156 0 0 174
28.1248 -30.5311 45.4065 0 0 174
28.099 -30.9341 46.5654 0 0 215
28.9356 -2.25463 43.5507 0 0 131
28.8359 -4.00976 43.8566 0 0 131
28.9838 -1.61448 42.6074 0 0 131
28.9356 -2.25463 43.5507 0 0 131
28.931 -2.95948 42.0073 0 0 206
29.0485 -1.16254 41.7094 0 0 168
28.9838 -1.61448 42.6074 0 0 168
28.6395 -21.5003 37.8231 0 0 171
28.491 -21.8954 38.7645 0 0 211
28.5914 -23.2424 38.1235 0 0 171
28.7118 -19.7303 37.5575 0 0 209
28.6395 -21.5003 37.8231 0 0 170
28.8122 -21.0773 36.9165 0 0 170
29.2316 -16.8654 35.4746 0 0 174
28.9979 -17.4337 36.3824 0 0 215
29.1183 -18.739 35.7431 0 0 174
29.3578 -14.9788 35.291 0 0 131
29.2316 -16.8654 35.4746 0 0 131
31.125 5.88358 33.555 0 0 134
31.4533 6.64006 32.7234 0 0 134
30.9536 3.831 33.7113 0 0 217
31.125 5.88358 33.555 0 0 176
30.7988 5.09275 34.361 0 0 176
28.5065 -11.7248 47.1825 0 0 134
28.5779 -10.0259 46.8264 0 0 134
28.4052 -12.9296 46.4033 0 0 218
28.5065 -11.7248 47.1825 0 0 176
28.4364 -13.3937 47.4591 0 0 176
28.2814 -16.2598 47.055 0 0 219
28.3729 -15.0392 47.7687 0 0 177
28.3191 -16.7004 48.1439 0 0 177
28.1205 -22.8201 48.75 0 0 222
28.1915 -21.6154 49.4674 0 0 179
28.1671 -23.1623 49.9457 0 0 179
28.3252 -25.9861 40.3588 0 0 176
28.2291 -26.2633 41.4595 0 0 217
28.3218 -27.5546 40.7398 0 0 176
28.4304 -25.4574 39.352 0 0 179
28.3377 -24.1661 40.0717 0 0 222
28.3252 -25.9861 40.3588 0 0 179
28.5541 -24.8976 38.3734 0 0 134
28.4304 -25.4574 39.352 0 0 134
28.0093 -36.3764 53.9046 0 0 136
28.0527 -34.9474 53.5063 0 0 136
28.0363 -37.5371 53.1075 0 0 218
28.0093 -36.3764 53.9046 0 0 176
27.9781 -37.7635 54.355 0 0 176
28.18 -41.0503 50.7416 0 0 166
28.1986 -39.7419 50.2982 0 0 166
28.1254 -39.9299 51.46 0 0 203
28.18 -41.0503 50.7416 0 0 131
28.1715 -42.4007 51.1331 0 0 131
27.7791 -37.9179 56.8529 0 0 131
27.8744 -37.8442 55.627 0 0 131
27.6485 -39.2295 57.2337 0 0 129
27.7791 -37.9179 56.8529 0 0 129
27.5438 -40.4567 57.5815 0 0 162
27.693 -40.3126 56.4498 0 0 196
27.6485 -39.2295 57.2337 0 0 162
27.3591 -41.6019 58.0314 0 0 129
27.5438 -40.4567 57.5815 0 0 129
27.4336 -42.8068 57.1625 0 0 133
27.3591 -41.6019 58.0314 0 0 133
29.3022 2.54556 41.3364 0 0 129
29.1829 0.733795 41.4857 0 0 129
29.3022 2.54556 41.3364 0 0 129
29.3952 3.09415 40.4923 0 0 129
30.0679 5.82002 37.2149 0 0 129
29.8642 5.05629 38.0367 0 0 129
30.1528 4.77145 36.6054 0 0 194
30.3014 6.62791 36.4604 0 0 160
30.0679 5.82002 37.2149 0 0 160
28.5507 -9.6393 45.7871 0 0 132
28.5779 -10.0259 46.8264 0 0 132
28.5438 -9.26836 44.7409 0 0 173
28.5507 -9.6393 45.7871 0 0 173
28.4684 -10.8898 45.0805 0 0 213
28.5589 -8.72325 43.7358 0 0 219
28.6411 -7.47276 44.4423 0 0 177
28.5438 -9.26836 44.7409 0 0 177
30.4326 -2.01064 34.1757 0 0 168
30.1207 -2.62481 35.0079 0 0 206
30.2662 -3.81576 34.3471 0 0 168
30.7609 -1.29173 33.3441 0 0 172
30.6155 -0.100776 34.0048 0 0 211
30.4326 -2.01064 34.1757 0 0 172
31.1316 -0.686049 32.4687 0 0 136
30.7609 -1.29173 33.3441 0 0 136
28.0712 -34.7532 52.2143 0 0 224
28.0564 -33.5506 53.0636 0 0 180
28.0527 -34.9474 53.5063 0 0 180
28.1848 -36.8854 49.4351 0 0 178
28.1373 -37.1589 50.6403 0 0 220
28.1915 -38.348 49.8115 0 0 178
28.1604 -35.499 49.026 0 0 134
28.1848 -36.8854 49.4351 0 0 134
28.1414 -34.0516 48.5493 0 0 179
28.1116 -34.2488 49.7872 0 0 223
28.1604 -35.499 49.026 0 0 179
28.159 -33.8789 47.3813 0 0 174
28.1102 -32.6288 48.1425 0 0 215
28.1414 -34.0516 48.5493 0 0 174
28.192 -33.6172 46.2241 0 0 132
28.159 -33.8789 47.3813 0 0 132
28.1537 -32.0531 45.8156 0 0 135
28.192 -33.6172 46.2241 0 0 135
3 75 19 76
3 0 77 79
3 79 78 20
3 77 78 79
3 0 80 81
3 82 22 83
3 84 25 85
3 86 85 23
3 84 85 86
3 88 87 25
3 90 89 27
3 2 31 29
3 2 33 31
3 1 36 34
3 91 39 92
3 93 92 37
3 91 92 93
3 95 94 39
3 96 42 97
3 4 43 18
3 4 44 43
3 5 98 100
3 98 45 99
3 98 99 100
3 5 46 45
3 6 49 47
3 101 50 102
3 104 103 50
3 8 105 106
3 8 107 109
3 107 51 108
3 107 108 109
3 110 53 111
3 10 54 21
3 10 55 54
3 3 56 41
3 11 57 24
3 11 58 57
3 11 59 58
3 113 112 26
3 12 114 116
3 114 61 115
3 114 115 116
3 117 62 118
3 119 118 28
3 117 118 119
3 121 120 62
3 14 122 124
3 124 123 30
3 122 123 124
3 14 125 126
3 14 127 129
3 127 63 128
3 127 128 129
3 15 64 32
3 15 65 64
3 9 66 52
3 16 67 35
3 16 68 67
3 7 69 48
3 17 70 38
3 17 71 70
3 17 72 71
3 130 73 131
3 132 131 40
3 130 131 132
3 134 133 73
3 13 74 60
3 135 18 136
3 19 137 139
3 137 18 138
3 137 138 139
3 19 4 18
3 20 140 141
3 143 142 20
3 144 5 145
3 147 146 6
3 148 8 149
3 150 21 151
3 22 152 154
3 152 21 153
3 152 153 154
3 22 10 21
3 23 24 3
3 25 24 23
3 25 11 24
3 25 26 11
3 155 26 156
3 157 156 25
3 155 156 157
3 159 158 26
3 27 28 12
3 160 28 161
3 162 161 27
3 160 161 162
3 164 163 28
3 29 165 167
3 165 30 166
3 165 166 167
3 31 30 29
3 31 14 30
3 31 32 14
3 33 32 31
3 33 15 32
3 34 35 9
3 36 35 34
3 36 16 35
3 37 38 7
3 39 38 37
3 39 17 38
3 39 40 17
3 168 40 169
3 170 169 39
3 168 169 170
3 172 171 40
3 174 173 13
3 175 41 176
3 42 177 179
3 177 41 178
3 177 178 179
3 42 3 41
3 18 180 182
3 180 42 181
3 180 181 182
3 43 42 18
3 43 3 42
3 43 23 3
3 44 23 43
3 44 183 185
3 185 184 23
3 183 184 185
3 45 186 187
3 45 188 189
3 45 190 192
3 190 29 191
3 190 191 192
3 46 29 45
3 46 2 29
3 47 48 1
3 49 48 47
3 49 7 48
3 193 49 194
3 195 194 6
3 193 194 195
3 50 196 198
3 196 49 197
3 196 197 198
3 50 7 49
3 50 37 7
3 199 37 200
3 201 200 50
3 199 200 201
3 203 202 37
3 204 20 205
3 51 206 208
3 206 20 207
3 206 207 208
3 51 0 20
3 209 52 210
3 53 211 213
3 211 52 212
3 211 212 213
3 53 9 52
3 21 214 216
3 214 53 215
3 214 215 216
3 54 53 21
3 54 9 53
3 54 34 9
3 55 34 54
3 55 1 34
3 41 217 219
3 217 22 218
3 217 218 219
3 56 22 41
3 56 10 22
3 24 56 3
3 57 56 24
3 57 10 56
3 57 55 10
3 58 55 57
3 58 1 55
3 58 47 1
3 59 47 58
3 59 6 47
3 26 59 11
3 220 59 221
3 222 221 26
3 220 221 222
3 223 6 224
3 225 224 59
3 223 224 225
3 227 226 6
3 228 60 229
3 61 230 232
3 230 60 231
3 230 231 232
3 61 13 60
3 28 61 12
3 62 61 28
3 62 13 61
3 62 233 235
3 235 234 13
3 233 234 235
3 237 236 62
3 238 12 239
3 240 12 241
3 242 27 243
3 244 243 12
3 242 243 244
3 245 27 246
3 248 247 27
3 30 249 250
3 252 251 30
3 63 253 254
3 63 255 257
3 255 8 256
3 255 256 257
3 32 63 14
3 64 63 32
3 64 8 63
3 64 51 8
3 65 51 64
3 65 0 51
3 52 258 259
3 66 260 262
3 262 261 52
3 260 261 262
3 66 263 265
3 263 5 264
3 263 264 265
3 35 66 9
3 67 66 35
3 67 5 66
3 67 46 5
3 68 46 67
3 68 2 46
3 48 36 1
3 69 36 48
3 69 16 36
3 38 69 7
3 70 69 38
3 70 16 69
3 70 68 16
3 71 68 70
3 71 2 68
3 71 33 2
3 72 33 71
3 72 15 33
3 40 72 17
3 73 72 40
3 73 15 72
3 73 65 15
3 266 65 267
3 268 267 73
3 266 267 268
3 269 0 270
3 271 270 65
3 269 270 271
3 273 272 0
3 60 274 276
3 274 19 275
3 274 275 276
3 74 19 60
3 74 4 19
3 277 74 278
3 279 278 13
3 277 278 279
3 280 74 281
3 282 4 283
3 284 283 74
3 282 283 284
3 285 44 286
3 287 286 4
3 285 286 287
3 288 44 289
3 291 290 44
