ply
format ascii 1.0
element vertex 528
property float x
property float y
property float z
property uchar red
property uchar green
property uchar blue
element face 567
property list uchar int vertex_index
end_header
29.9622 -49.8421 21.2485 225 0 0
30.4501 -45.6201 3.77163 243 0 0
28.7243 -63.1492 31.9961 154 255 101
29.4494 -51.8733 30.476 186 0 0
28.8329 -61.5622 21.9851 160 255 95
28.3139 -59.3921 12.5245 147 255 108
33.553 -34.4073 12.7726 119 255 136
34.1575 6.17848 26.3504 0 115 255
32.5218 -10.4933 27.5507 0 231 255
31.0262 -25.521 28.425 211 255 44
28.9925 -41.6231 38.3267 72 255 183
30.0242 -39.1707 29.2122 203 0 0
31.7406 -36.8027 21.1368 229 0 0
30.4915 -47.5523 12.4813 232 0 0
29.6831 -43.7794 -4.63856 0 79 255
28.8625 -62.5043 26.9238 191 255 64
33.3407 -2.16066 27.1064 222 255 33
29.0473 -47.4254 39.4224 184 255 71
29.6834 -50.7439 25.9489 243 0 0
29.6878 -45.751 29.8534 211 0 0
30.184 -44.4514 25.4676 219 0 0
30.8237 -38.0503 25.0447 244 0 0
30.7707 -43.5417 21.1533 187 0 0
31.3923 -42.4434 16.8732 178 0 0
30.2448 -48.7688 16.8063 221 0 0
30.0642 -44.9734 -0.532168 255 233 0
28.2614 -50.6996 -0.606791 32 255 223
28.9451 -58.3122 36.4074 179 255 76
29.2285 -52.7332 35.4614 185 0 0
29.1672 -57.7683 31.3496 216 0 0
29.289 -56.7901 26.3362 235 0 0
29.359 -55.6173 21.6885 196 0 0
29.3086 -54.8654 16.9179 255 1 0
28.6554 -60.4305 17.2301 187 255 68
32.3092 -40.1693 8.41226 225 255 30
31.7288 -17.8076 28.0568 192 255 63
32.4941 -23.7138 24.6149 128 0 0
29.3401 -46.703 34.5251 196 0 0
29.4038 -40.5541 33.733 193 0 0
30.4547 -32.4638 28.8585 255 217 0
31.6026 -31.0559 24.8759 150 0 0
32.8509 -29.7634 20.9832 173 0 0
32.687 -35.6803 17.0517 135 0 0
31.9148 -41.4062 12.5968 174 0 0
30.5812 -46.5073 8.18615 210 0 0
29.2379 -53.6647 12.5208 250 0 0
29.0354 -52.6214 8.06868 255 5 0
28.7469 -51.5457 3.78075 255 232 0
29.0376 -50.5475 39.8011 61 255 194
29.8155 -50.3174 23.6612 212 0 0
29.9163 -47.6475 25.6566 206 0 0
30.1203 -47.2705 23.365 192 0 0
30.4602 -44.0219 23.3639 200 0 0
30.3421 -46.8127 21.0884 198 0 0
30.5919 -46.0868 18.9596 234 0 0
30.108 -49.3066 19.0143 225 0 0
31.3248 -42.702 3.75741 200 255 55
31.2265 -42.2284 1.57691 92 255 163
30.2611 -45.3612 1.60872 242 0 0
29.1493 -47.8322 -0.594887 255 248 0
29.3738 -48.2338 1.57425 255 10 0
28.8522 -60.8957 34.2041 249 0 0
29.0737 -58.0343 33.8955 218 0 0
28.9674 -60.5853 31.6975 229 0 0
28.8597 -62.1395 24.4617 182 255 73
29.0927 -59.6181 26.7797 220 0 0
29.0824 -59.3949 24.279 235 0 0
29.3143 -56.404 24.082 210 0 0
29.0824 -58.7192 21.9194 230 0 0
29.058 -58.0216 19.5902 242 0 0
28.7826 -60.8835 19.7078 172 255 83
32.9872 -37.4305 10.6564 234 255 21
32.9732 -6.35808 27.2482 234 255 21
31.3987 -21.6315 28.1514 221 255 34
32.1312 -20.807 26.3793 154 0 0
31.7358 -24.707 26.4989 157 0 0
29.3416 -52.3409 32.9482 216 0 0
29.296 -49.8038 34.9968 200 0 0
29.4173 -49.3695 32.6793 186 0 0
29.841 -42.3676 29.5408 176 0 0
29.58 -43.2251 31.7799 182 0 0
29.6724 -39.8486 31.5401 178 0 0
29.478 -37.1073 33.2396 191 255 64
29.8207 -36.6214 31.0938 255 212 0
29.9852 -33.0695 30.8351 39 255 216
30.1994 -35.7019 29.207 234 0 0
31.2548 -37.3933 23.1872 228 0 0
31.1793 -34.5626 25.0562 203 0 0
31.7146 -34.1185 22.9911 184 0 0
32.2329 -30.4733 22.8533 155 0 0
32.2756 -33.5297 20.9631 185 0 0
32.8426 -32.652 19.1138 146 0 0
32.2117 -36.3369 19.0693 179 0 0
31.0103 -45.0472 14.6961 209 0 0
31.6789 -41.9235 14.6618 184 0 0
31.1611 -44.6192 12.4644 226 0 0
31.3057 -44.04 10.3689 205 0 0
30.4998 -47.2506 10.2946 225 0 0
28.8357 -57.2671 14.7676 248 0 0
29.3114 -54.091 14.7002 243 0 0
28.7304 -56.5461 12.4681 227 0 0
28.3446 -55.6175 7.82391 151 255 104
28.2183 -54.8716 5.83185 134 255 121
28.9161 -52.0183 5.88665 255 29 0
27.9835 -54.451 3.7352 23 255 232
28.8214 -62.8207 29.4155 187 255 68
33.7213 1.93336 26.8479 0 235 255
32.8788 0.731918 28.5431 82 255 173
32.5161 -3.3797 28.7412 207 255 48
32.1188 -7.26475 29.013 96 255 159
29.039 -44.6256 38.7425 191 255 64
29.5599 -51.3992 28.0793 251 0 0
29.5635 -48.8591 30.1856 199 0 0
29.7164 -48.3756 27.9454 241 0 0
29.9051 -45.2214 27.6822 206 0 0
30.1398 -41.9596 27.3263 223 0 0
30.3907 -38.5718 27.1835 221 0 0
30.483 -41.1978 25.3089 248 0 0
30.8384 -40.8445 23.2047 213 0 0
31.2658 -40.0648 21.0983 194 0 0
31.6447 -39.6121 19.0714 192 0 0
31.0902 -42.9136 19.0851 220 0 0
30.8116 -45.5005 17.0037 224 0 0
30.3923 -48.084 14.6687 206 0 0
28.0671 -58.9816 10.1594 52 255 203
29.9566 -44.2453 -2.51565 0 181 255
28.981 -47.1775 -2.68129 21 255 234
29.0999 -53.1717 37.9441 188 255 67
29.1196 -55.5985 35.8373 255 215 0
29.2312 -55.2665 33.3556 240 0 0
29.3176 -54.8068 31.1276 215 0 0
29.0618 -59.9499 29.1701 215 0 0
29.2501 -57.0889 28.8449 209 0 0
29.4051 -54.32 28.4697 214 0 0
29.4799 -53.8464 26.1376 239 0 0
29.5622 -53.2604 23.8323 200 0 0
29.6457 -52.6932 21.3782 224 0 0
29.6815 -52.4476 19.0966 255 4 0
29.3351 -55.3262 19.2119 255 7 0
28.9655 -57.6489 17.1738 255 12 0
28.4904 -59.9347 14.7865 151 255 104
31.4513 -42.9133 6.08333 255 170 0
28.6986 -61.082 36.6408 53 255 202
28.5599 -63.5582 34.4428 38 255 217
32.1593 -14.2678 27.6969 0 205 255
32.532 -17.1312 26.2135 208 255 47
32.9537 -19.9503 24.4686 236 255 19
33.2399 -23.0824 22.7167 252 255 3
29.1648 -50.1429 37.5554 207 0 0
29.1957 -47.3522 36.9247 193 0 0
29.1957 -44.1356 36.3877 192 0 0
29.5008 -46.2775 32.1409 193 0 0
29.3653 -43.6284 34.1568 205 0 0
29.1769 -40.871 36.0017 255 196 0
29.194 -37.7475 35.3936 62 255 193
30.7215 -29.0905 28.6402 192 255 63
30.6661 -35.3921 27.0201 205 0 0
30.9855 -31.8633 26.899 190 0 0
31.3683 -28.2106 26.666 175 0 0
32.0576 -27.4576 24.6862 155 0 0
32.7411 -26.8748 22.7501 148 0 0
33.4447 -26.2026 20.7868 233 255 22
33.481 -29.1485 18.9698 236 255 19
33.3789 -32.167 16.9901 255 252 0
33.107 -35.2423 14.8937 255 142 0
32.032 -39.1385 16.8965 161 0 0
32.3985 -38.5322 14.8569 168 0 0
32.7291 -37.9326 12.7863 141 0 0
32.1512 -40.7347 10.5127 164 0 0
31.4029 -43.4773 8.26237 176 0 0
30.5276 -46.0771 5.87074 205 0 0
29.7467 -51.8563 16.9838 253 0 0
29.801 -51.2308 14.7498 245 0 0
29.8155 -50.7022 12.5119 207 0 0
28.5707 -55.9923 10.1383 255 211 0
29.1467 -53.1223 10.2117 237 0 0
29.7981 -50.1774 10.2451 223 0 0
29.7436 -49.6465 7.91572 232 0 0
29.7092 -49.0055 5.87694 244 0 0
29.5535 -48.6089 3.65003 250 0 0
28.4868 -51.2036 1.52924 156 255 99
28.991 -51.9189 40.1797 0 0 134
28.9555 -50.6131 41.0673 0 0 134
33.6767 -34.3 11.6308 0 0 138
33.9167 -32.8081 12.7538 0 0 138
33.2701 -35.9189 11.7145 0 0 226
33.3938 -35.8116 10.5727 0 0 183
33.6767 -34.3 11.6308 0 0 183
34.3301 8.24669 26.1083 0 0 141
33.8858 7.64564 27.0724 0 0 141
34.6031 6.8143 25.4114 0 0 140
34.3301 8.24669 26.1083 0 0 140
34.4051 4.66375 25.6501 0 0 142
34.6031 6.8143 25.4114 0 0 142
32.9838 -9.85749 26.6267 0 0 187
33.2095 -7.7899 26.4754 0 0 187
32.7475 -8.42567 27.3994 0 0 233
32.762 -11.7906 26.7564 0 0 138
32.9838 -9.85749 26.6267 0 0 138
31.2124 -23.5763 28.2882 0 0 220
31.0455 -22.1223 29.0644 0 0 178
30.8592 -24.0671 29.2012 0 0 178
28.8854 -40.2524 39.0949 0 0 134
28.913 -41.7879 39.4816 0 0 134
28.9817 -40.0413 37.9417 0 0 135
28.8854 -40.2524 39.0949 0 0 135
27.7803 -56.0375 4.76612 0 0 132
27.9045 -56.3523 5.82169 0 0 132
27.6629 -55.8272 3.7178 0 0 164
28.1009 -54.6613 4.78353 0 0 199
27.7803 -56.0375 4.76612 0 0 164
27.5212 -55.4967 2.59463 0 0 132
27.6629 -55.8272 3.7178 0 0 132
30.1465 -42.2094 -4.78647 0 0 137
30.2969 -42.4552 -3.67816 0 0 137
29.4845 -43.6292 -5.70217 0 0 135
30.1465 -42.2094 -4.78647 0 0 135
29.0411 -45.0749 -5.63272 0 0 133
29.4845 -43.6292 -5.70217 0 0 133
32.6677 2.02446 29.1906 0 0 136
33.0895 2.86963 28.3379 0 0 136
32.1119 -3.91858 29.5826 0 0 134
32.2891 -2.01236 29.4683 0 0 134
31.9132 -5.86111 29.7185 0 0 173
32.3175 -5.32222 28.8771 0 0 213
32.1119 -3.91858 29.5826 0 0 173
28.9692 -46.156 40.266 0 0 134
28.9749 -47.6521 40.6184 0 0 134
29.0431 -46.0255 39.0824 0 0 207
28.965 -44.7561 39.9261 0 0 169
28.9692 -46.156 40.266 0 0 169
30.5799 -43.3251 -0.572935 0 0 182
31.1611 -41.9526 0.481605 0 0 182
30.6454 -43.6009 0.522371 0 0 226
30.0104 -44.6094 -1.52391 0 0 214
30.5261 -42.961 -1.56467 0 0 174
30.5799 -43.3251 -0.572935 0 0 174
28.1536 -50.4173 -1.62749 0 0 167
28.5975 -48.9836 -1.62154 0 0 167
28.7054 -49.2659 -0.600839 0 0 203
27.7517 -51.7591 -1.58604 0 0 128
28.1536 -50.4173 -1.62749 0 0 128
29.0323 -56.9554 36.1223 0 0 214
29.0495 -55.6945 37.1187 0 0 174
28.9623 -57.0514 37.4037 0 0 174
32.3012 -40.0653 7.21086 0 0 138
32.7187 -38.6456 8.3374 0 0 138
31.8803 -41.5413 7.24779 0 0 222
31.8722 -41.4373 6.0464 0 0 180
32.3012 -40.0653 7.21086 0 0 180
28.519 -62.395 36.8682 0 0 136
28.5922 -61.077 37.9929 0 0 136
28.4496 -63.6331 35.7692 0 0 175
28.6293 -62.3201 35.5418 0 0 215
28.519 -62.395 36.8682 0 0 175
33.7685 -1.67459 26.243 0 0 181
33.9588 0.372419 26.1137 0 0 181
33.531 -0.113649 26.9771 0 0 225
31.5256 -16.4984 28.8084 0 0 132
31.3595 -18.3211 28.9203 0 0 132
31.9441 -16.0377 27.8769 0 0 212
31.7408 -14.7285 28.6285 0 0 173
31.5256 -16.4984 28.8084 0 0 173
29.3385 -35.8799 34.1591 0 0 133
29.5156 -35.5127 33.0852 0 0 133
30.3099 -31.0621 29.732 0 0 173
30.0751 -31.365 30.7203 0 0 173
30.22 -32.7666 29.8468 0 0 212
30.5881 -30.7771 28.7494 0 0 211
30.4432 -29.3755 29.6228 0 0 173
30.3099 -31.0621 29.732 0 0 173
28.215 -57.1349 9.04934 0 0 172
28.3189 -57.487 10.1488 0 0 211
27.9632 -58.6295 9.05987 0 0 172
28.9701 -49.2132 40.8077 0 0 135
28.9555 -50.6131 41.0673 0 0 135
29.0424 -48.9865 39.6118 0 0 221
28.9749 -47.6521 40.6184 0 0 179
28.9701 -49.2132 40.8077 0 0 179
31.2756 -42.4652 2.66716 0 0 230
31.7838 -40.7628 2.6914 0 0 185
31.833 -40.9996 3.78165 0 0 185
33.0576 -37.2762 9.45945 0 0 140
33.3938 -35.8116 10.5727 0 0 140
32.6482 -38.7999 9.53432 0 0 225
32.7187 -38.6456 8.3374 0 0 181
33.0576 -37.2762 9.45945 0 0 181
33.4064 -5.85253 26.379 0 0 186
33.5902 -3.75382 26.3081 0 0 186
33.157 -4.25937 27.1773 0 0 231
33.4064 -5.85253 26.379 0 0 136
33.2095 -7.7899 26.4754 0 0 136
31.1944 -20.233 28.9677 0 0 136
31.0455 -22.1223 29.0644 0 0 136
31.5638 -19.7196 28.1041 0 0 216
31.3595 -18.3211 28.9203 0 0 175
31.1944 -20.233 28.9677 0 0 175
29.6869 -35.2698 32.0123 0 0 173
29.5156 -35.5127 33.0852 0 0 173
29.6493 -36.8644 32.1667 0 0 212
29.9029 -34.8455 30.9645 0 0 222
29.7692 -33.4938 31.883 0 0 180
29.6869 -35.2698 32.0123 0 0 180
27.9676 -56.7252 6.81772 0 0 128
28.102 -56.9475 7.89213 0 0 128
28.2815 -55.2446 6.82788 0 0 200
27.9676 -56.7252 6.81772 0 0 165
27.9045 -56.3523 5.82169 0 0 165
27.86 -54.1846 2.64382 0 0 172
28.2417 -52.7319 2.6666 0 0 172
28.3652 -52.9983 3.75798 0 0 210
27.86 -54.1846 2.64382 0 0 130
27.5212 -55.4967 2.59463 0 0 130
28.6704 -64.1888 29.5902 0 0 175
28.7729 -62.985 30.7058 0 0 216
28.6218 -64.3531 30.8805 0 0 175
28.7087 -64.038 28.2656 0 0 136
28.6704 -64.1888 29.5902 0 0 136
28.7292 -63.8798 27.0198 0 0 173
28.8419 -62.6625 28.1696 0 0 213
28.7087 -64.038 28.2656 0 0 173
28.7331 -63.7561 25.7841 0 0 134
28.7292 -63.8798 27.0198 0 0 134
28.7318 -63.5737 24.553 0 0 176
28.8611 -62.3219 25.6927 0 0 216
28.7331 -63.7561 25.7841 0 0 176
28.7266 -63.2602 23.346 0 0 134
28.7318 -63.5737 24.553 0 0 134
28.7132 -62.9716 22.1077 0 0 174
28.8463 -61.8508 23.2234 0 0 214
28.7266 -63.2602 23.346 0 0 174
28.6784 -62.6807 20.9122 0 0 133
28.7132 -62.9716 22.1077 0 0 133
33.7156 -32.9718 13.873 0 0 137
33.9167 -32.8081 12.7538 0 0 137
33.7288 5.59291 27.2416 0 0 139
33.8858 7.64564 27.0724 0 0 139
33.5108 3.47035 27.4903 0 0 183
33.9394 4.05592 26.5991 0 0 227
33.7288 5.59291 27.2416 0 0 183
33.3001 1.33264 27.6955 0 0 224
33.5108 3.47035 27.4903 0 0 181
33.0895 2.86963 28.3379 0 0 181
32.4705 0.043444 29.3693 0 0 133
32.6677 2.02446 29.1906 0 0 133
32.6975 -1.32389 28.6421 0 0 218
32.4705 0.043444 29.3693 0 0 177
32.2891 -2.01236 29.4683 0 0 177
30.7156 -25.8773 29.3543 0 0 134
30.8592 -24.0671 29.2012 0 0 134
28.9362 -43.2892 39.6895 0 0 134
28.965 -44.7561 39.9261 0 0 134
29.0157 -43.1243 38.5346 0 0 213
28.913 -41.7879 39.4816 0 0 173
28.9362 -43.2892 39.6895 0 0 173
27.9004 -60.2493 10.2175 0 0 165
28.1905 -59.1869 11.342 0 0 200
28.0237 -60.4546 11.4 0 0 165
27.7422 -59.9845 9.00157 0 0 131
27.9004 -60.2493 10.2175 0 0 131
27.9632 -58.6295 9.05987 0 0 130
27.7422 -59.9845 9.00157 0 0 130
31.7302 -40.5802 1.57585 0 0 139
31.7838 -40.7628 2.6914 0 0 139
31.7302 -40.5802 1.57585 0 0 139
31.1611 -41.9526 0.481605 0 0 139
30.4337 -42.6882 -2.6167 0 0 134
30.5261 -42.961 -1.56467 0 0 134
29.8199 -44.0124 -3.5771 0 0 215
30.2969 -42.4552 -3.67816 0 0 175
30.4337 -42.6882 -2.6167 0 0 175
29.331 -45.5415 -3.55422 0 0 175
29.1943 -45.3085 -4.61567 0 0 175
29.8199 -44.0124 -3.5771 0 0 215
28.8432 -47.0076 -3.63704 0 0 165
29.331 -45.5415 -3.55422 0 0 165
29.4688 -45.7114 -2.59847 0 0 200
28.3746 -48.4673 -3.6276 0 0 129
28.8432 -47.0076 -3.63704 0 0 129
28.5134 -48.6563 -2.66474 0 0 170
29.0652 -47.5048 -1.63809 0 0 208
28.5975 -48.9836 -1.62154 0 0 170
28.3746 -48.4673 -3.6276 0 0 130
28.5134 -48.6563 -2.66474 0 0 130
29.0397 -54.4811 38.1721 0 0 134
29.0222 -53.231 39.2512 0 0 134
29.1097 -54.3851 36.8907 0 0 210
29.0397 -54.4811 38.1721 0 0 171
29.0495 -55.6945 37.1187 0 0 171
28.6532 -62.3413 19.7735 0 0 171
28.8077 -61.2228 20.8465 0 0 209
28.6784 -62.6807 20.9122 0 0 171
28.5835 -62.113 18.5567 0 0 136
28.6532 -62.3413 19.7735 0 0 136
28.5199 -61.8865 17.3179 0 0 178
28.719 -60.657 18.469 0 0 219
28.5835 -62.113 18.5567 0 0 178
28.4234 -61.5847 16.0362 0 0 138
28.5199 -61.8865 17.3179 0 0 138
28.341 -61.3368 14.8144 0 0 174
28.5729 -60.1826 16.0083 0 0 214
28.4234 -61.5847 16.0362 0 0 174
28.2229 -61.0915 13.6236 0 0 134
28.341 -61.3368 14.8144 0 0 134
28.1346 -60.8202 12.4927 0 0 171
28.4021 -59.6634 13.6555 0 0 209
28.2229 -61.0915 13.6236 0 0 171
28.0237 -60.4546 11.4 0 0 132
28.1346 -60.8202 12.4927 0 0 132
31.8089 -41.3317 4.88344 0 0 140
31.833 -40.9996 3.78165 0 0 140
31.388 -42.8077 4.92037 0 0 219
31.8089 -41.3317 4.88344 0 0 177
31.8722 -41.4373 6.0464 0 0 177
28.8601 -58.4129 37.6612 0 0 134
28.9623 -57.0514 37.4037 0 0 134
28.7368 -59.7978 37.7779 0 0 135
28.5922 -61.077 37.9929 0 0 135
28.8218 -59.6971 36.5241 0 0 215
28.8601 -58.4129 37.6612 0 0 175
28.7368 -59.7978 37.7779 0 0 175
28.3687 -64.8115 34.5662 0 0 133
28.4496 -63.6331 35.7692 0 0 133
28.4594 -64.7666 33.3626 0 0 130
28.3687 -64.8115 34.5662 0 0 130
28.5416 -64.5621 32.1393 0 0 174
28.6421 -63.3537 33.2195 0 0 213
28.4594 -64.7666 33.3626 0 0 174
28.6218 -64.3531 30.8805 0 0 135
28.5416 -64.5621 32.1393 0 0 135
34.187 2.54118 25.8989 0 0 189
34.4051 4.66375 25.6501 0 0 189
33.9394 4.05592 26.5991 0 0 237
34.187 2.54118 25.8989 0 0 144
33.9588 0.372419 26.1137 0 0 144
33.7685 -1.67459 26.243 0 0 139
33.5902 -3.75382 26.3081 0 0 139
31.7011 -7.81365 29.9061 0 0 136
31.9132 -5.86111 29.7185 0 0 136
31.9111 -9.241 29.1638 0 0 137
31.7011 -7.81365 29.9061 0 0 137
32.1126 -10.8553 28.4326 0 0 180
32.3203 -8.87901 28.2818 0 0 223
31.9111 -9.241 29.1638 0 0 180
31.9314 -12.7425 28.5058 0 0 140
31.7408 -14.7285 28.6285 0 0 140
32.3405 -12.3805 27.6238 0 0 219
32.1126 -10.8553 28.4326 0 0 177
31.9314 -12.7425 28.5058 0 0 177
32.5808 -13.6779 26.8295 0 0 175
32.762 -11.7906 26.7564 0 0 175
32.3405 -12.3805 27.6238 0 0 215
32.7671 -15.1096 26.0878 0 0 179
32.5808 -13.6779 26.8295 0 0 179
32.3456 -15.6995 26.9552 0 0 222
32.9454 -16.6536 25.3224 0 0 138
32.7671 -15.1096 26.0878 0 0 138
33.1563 -18.0632 24.45 0 0 179
32.9454 -16.6536 25.3224 0 0 179
32.7429 -18.5407 25.341 0 0 220
33.3544 -19.5168 23.5529 0 0 137
33.1563 -18.0632 24.45 0 0 137
33.4976 -21.0828 22.677 0 0 185
33.3544 -19.5168 23.5529 0 0 185
33.0968 -21.5163 23.5927 0 0 230
33.6071 -22.6904 21.8017 0 0 139
33.4976 -21.0828 22.677 0 0 139
29.0687 -51.8596 38.8726 0 0 218
28.991 -51.9189 40.1797 0 0 177
29.0222 -53.231 39.2512 0 0 177
29.0739 -39.6653 36.7792 0 0 173
28.9817 -40.0413 37.9417 0 0 173
29.0847 -41.247 37.1642 0 0 213
29.0824 -38.1035 36.4752 0 0 168
29.0739 -39.6653 36.7792 0 0 168
29.1854 -39.3092 35.6977 0 0 205
29.0614 -36.4303 36.2575 0 0 135
29.0824 -38.1035 36.4752 0 0 135
29.1964 -36.2 35.2361 0 0 170
29.336 -37.4274 34.3166 0 0 208
29.3385 -35.8799 34.1591 0 0 170
29.0614 -36.4303 36.2575 0 0 131
29.1964 -36.2 35.2361 0 0 131
29.8386 -31.8947 31.6476 0 0 132
29.7692 -33.4938 31.883 0 0 132
29.8386 -31.8947 31.6476 0 0 131
30.0751 -31.365 30.7203 0 0 131
30.5632 -27.662 29.4619 0 0 134
30.4432 -29.3755 29.6228 0 0 134
30.8738 -27.3058 28.5326 0 0 212
30.7156 -25.8773 29.3543 0 0 173
30.5632 -27.662 29.4619 0 0 173
33.7095 -24.2505 20.8367 0 0 184
33.6071 -22.6904 21.8017 0 0 184
33.3423 -24.6425 21.7518 0 0 228
33.7743 -25.7935 19.8852 0 0 138
33.7095 -24.2505 20.8367 0 0 138
33.7924 -27.2664 18.9767 0 0 177
33.7743 -25.7935 19.8852 0 0 177
33.4628 -27.6755 19.8783 0 0 219
33.8003 -28.7419 17.9479 0 0 141
33.7924 -27.2664 18.9767 0 0 141
33.7493 -30.2511 16.958 0 0 189
33.8003 -28.7419 17.9479 0 0 189
33.4299 -30.6577 17.98 0 0 236
33.6285 -31.8516 15.9818 0 0 141
33.7493 -30.2511 16.958 0 0 141
33.4926 -33.3893 14.9336 0 0 185
33.6285 -31.8516 15.9818 0 0 185
33.2429 -33.7046 15.9419 0 0 230
33.33 -34.8248 13.8331 0 0 236
33.7156 -32.9718 13.873 0 0 189
33.4926 -33.3893 14.9336 0 0 189
28.4577 -55.8049 8.98112 0 0 203
28.215 -57.1349 9.04934 0 0 167
28.102 -56.9475 7.89213 0 0 167
28.1116 -52.5609 1.54084 0 0 169
28.6168 -51.3746 2.655 0 0 206
28.2417 -52.7319 2.6666 0 0 169
27.9904 -52.3164 0.543196 0 0 128
28.1116 -52.5609 1.54084 0 0 128
27.8777 -52.0644 -0.524819 0 0 165
28.3741 -50.9516 0.461224 0 0 200
27.9904 -52.3164 0.543196 0 0 165
27.7517 -51.7591 -1.58604 0 0 130
27.8777 -52.0644 -0.524819 0 0 130
29.0411 -45.0749 -5.63272 0 0 133
29.1943 -45.3085 -4.61567 0 0 133
3 181 48 182
3 0 51 49
3 0 53 51
3 0 55 53
3 1 58 56
3 1 60 58
3 2 63 61
3 4 66 64
3 4 68 66
3 4 70 68
3 6 183 184
3 6 185 187
3 185 71 186
3 185 186 187
3 7 188 189
3 7 190 191
3 7 192 193
3 8 194 196
3 196 195 72
3 194 195 196
3 8 197 198
3 9 199 201
3 199 73 200
3 199 200 201
3 9 75 73
3 10 202 203
3 10 204 205
3 3 78 76
3 11 81 79
3 11 83 81
3 11 85 83
3 12 88 86
3 12 90 88
3 12 92 90
3 13 95 93
3 13 97 95
3 5 100 98
3 206 102 207
3 208 104 209
3 210 209 102
3 208 209 210
3 212 211 104
3 14 213 214
3 14 215 216
3 14 217 218
3 219 107 220
3 221 108 222
3 223 109 224
3 225 224 108
3 223 224 225
3 17 226 227
3 17 228 230
3 228 110 229
3 228 229 230
3 18 113 111
3 20 114 50
3 20 115 114
3 20 117 115
3 22 118 52
3 22 119 118
3 22 121 119
3 24 122 54
3 24 123 122
3 25 231 233
3 233 232 57
3 231 232 233
3 25 234 236
3 234 125 235
3 234 235 236
3 25 126 125
3 26 237 239
3 239 238 59
3 237 238 239
3 26 240 241
3 27 242 244
3 242 128 243
3 242 243 244
3 29 129 62
3 29 130 129
3 15 131 105
3 30 132 65
3 30 133 132
3 30 134 133
3 31 135 67
3 31 136 135
3 31 138 136
3 33 139 69
3 33 140 139
3 34 245 246
3 34 247 249
3 247 141 248
3 247 248 249
3 250 142 251
3 252 143 253
3 254 253 142
3 252 253 254
3 16 255 257
3 257 256 106
3 255 256 257
3 35 258 259
3 35 260 262
3 260 144 261
3 260 261 262
3 35 145 144
3 36 146 74
3 36 147 146
3 28 148 127
3 37 149 77
3 37 150 149
3 19 151 112
3 38 152 80
3 38 153 152
3 38 154 153
3 264 263 82
3 39 265 267
3 267 266 84
3 265 266 267
3 39 268 270
3 268 155 269
3 268 269 270
3 21 156 116
3 40 157 87
3 40 158 157
3 40 159 158
3 41 160 89
3 41 161 160
3 41 162 161
3 42 163 91
3 42 164 163
3 23 165 120
3 43 166 94
3 43 167 166
3 43 168 167
3 44 169 96
3 44 170 169
3 32 171 137
3 45 172 99
3 45 173 172
3 271 174 272
3 273 272 124
3 271 272 273
3 46 175 101
3 46 176 175
3 46 177 176
3 47 178 103
3 47 179 178
3 47 180 179
3 48 274 275
3 48 276 278
3 276 17 277
3 276 277 278
3 49 50 18
3 51 50 49
3 51 20 50
3 51 52 20
3 53 52 51
3 53 22 52
3 53 54 22
3 55 54 53
3 55 24 54
3 56 279 281
3 279 57 280
3 279 280 281
3 58 57 56
3 58 25 57
3 58 59 25
3 60 59 58
3 60 26 59
3 61 62 27
3 63 62 61
3 63 29 62
3 64 65 15
3 66 65 64
3 66 30 65
3 66 67 30
3 68 67 66
3 68 31 67
3 68 69 31
3 70 69 68
3 70 33 69
3 71 282 283
3 71 284 286
3 284 34 285
3 284 285 286
3 72 287 289
3 289 288 16
3 287 288 289
3 291 290 72
3 73 292 293
3 73 294 296
3 294 35 295
3 294 295 296
3 73 74 35
3 75 74 73
3 75 36 74
3 76 77 28
3 78 77 76
3 78 37 77
3 79 80 19
3 81 80 79
3 81 38 80
3 81 82 38
3 83 82 81
3 83 297 299
3 299 298 82
3 297 298 299
3 83 300 302
3 300 84 301
3 300 301 302
3 85 84 83
3 85 39 84
3 86 87 21
3 88 87 86
3 88 40 87
3 88 89 40
3 90 89 88
3 90 41 89
3 90 91 41
3 92 91 90
3 92 42 91
3 93 94 23
3 95 94 93
3 95 43 94
3 95 96 43
3 97 96 95
3 97 44 96
3 98 99 32
3 100 99 98
3 100 45 99
3 303 101 304
3 102 305 307
3 305 101 306
3 305 306 307
3 102 46 101
3 102 103 46
3 104 103 102
3 104 47 103
3 104 308 310
3 310 309 47
3 308 309 310
3 312 311 104
3 313 105 314
3 315 314 2
3 313 314 315
3 316 105 317
3 318 15 319
3 320 319 105
3 318 319 320
3 321 15 322
3 323 64 324
3 325 324 15
3 323 324 325
3 326 64 327
3 328 4 329
3 330 329 64
3 328 329 330
3 332 331 4
3 333 6 334
3 335 7 336
3 337 106 338
3 339 338 7
3 337 338 339
3 107 340 342
3 340 106 341
3 340 341 342
3 107 16 106
3 343 107 344
3 108 345 347
3 345 107 346
3 345 346 347
3 108 16 107
3 108 72 16
3 109 72 108
3 109 8 72
3 348 9 349
3 110 350 351
3 110 352 354
3 352 10 353
3 352 353 354
3 111 112 3
3 113 112 111
3 113 19 112
3 50 113 18
3 114 113 50
3 114 19 113
3 114 79 19
3 115 79 114
3 115 11 79
3 115 116 11
3 117 116 115
3 117 21 116
3 52 117 20
3 118 117 52
3 118 21 117
3 118 86 21
3 119 86 118
3 119 12 86
3 119 120 12
3 121 120 119
3 121 23 120
3 54 121 22
3 122 121 54
3 122 23 121
3 122 93 23
3 123 93 122
3 123 13 93
3 355 124 356
3 357 356 5
3 355 356 357
3 358 124 359
3 361 360 124
3 57 362 363
3 365 364 57
3 125 366 367
3 125 368 370
3 368 14 369
3 368 369 370
3 125 371 373
3 373 372 14
3 371 372 373
3 126 374 376
3 376 375 125
3 374 375 376
3 126 377 378
3 59 126 25
3 379 126 380
3 381 380 59
3 379 380 381
3 383 382 126
3 384 127 385
3 128 386 388
3 386 127 387
3 386 387 388
3 128 28 127
3 62 128 27
3 129 128 62
3 129 28 128
3 129 76 28
3 130 76 129
3 130 3 76
3 105 63 2
3 131 63 105
3 131 29 63
3 65 131 15
3 132 131 65
3 132 29 131
3 132 130 29
3 133 130 132
3 133 3 130
3 133 111 3
3 134 111 133
3 134 18 111
3 67 134 30
3 135 134 67
3 135 18 134
3 135 49 18
3 136 49 135
3 136 0 49
3 136 137 0
3 138 137 136
3 138 32 137
3 69 138 31
3 139 138 69
3 139 32 138
3 139 98 32
3 140 98 139
3 140 5 98
3 389 70 390
3 391 390 4
3 389 390 391
3 392 70 393
3 394 33 395
3 396 395 70
3 394 395 396
3 397 33 398
3 399 140 400
3 401 400 33
3 399 400 401
3 402 140 403
3 404 5 405
3 406 405 140
3 404 405 406
3 408 407 5
3 409 56 410
3 141 411 413
3 411 56 412
3 411 412 413
3 141 1 56
3 414 27 415
3 142 416 417
3 142 418 420
3 418 27 419
3 418 419 420
3 142 61 27
3 143 61 142
3 143 2 61
3 421 143 422
3 423 143 424
3 425 2 426
3 427 426 143
3 425 426 427
3 429 428 2
3 106 430 432
3 432 431 7
3 430 431 432
3 434 433 106
3 436 435 16
3 437 109 438
3 439 109 440
3 441 8 442
3 443 442 109
3 441 442 443
3 144 444 445
3 144 446 448
3 446 8 447
3 446 447 448
3 144 449 451
3 451 450 8
3 449 450 451
3 145 452 454
3 454 453 144
3 452 453 454
3 145 455 456
3 74 145 35
3 146 145 74
3 146 457 459
3 459 458 145
3 457 458 459
3 146 460 461
3 147 462 464
3 464 463 146
3 462 463 464
3 147 465 466
3 127 467 469
3 467 48 468
3 467 468 469
3 148 48 127
3 148 17 48
3 77 148 28
3 149 148 77
3 149 17 148
3 149 110 17
3 150 110 149
3 150 10 110
3 112 78 3
3 151 78 112
3 151 37 78
3 80 151 19
3 152 151 80
3 152 37 151
3 152 150 37
3 153 150 152
3 153 10 150
3 153 470 472
3 472 471 10
3 470 471 472
3 154 473 475
3 475 474 153
3 473 474 475
3 154 476 477
3 82 154 38
3 478 154 479
3 480 479 82
3 478 479 480
3 482 481 154
3 84 483 484
3 486 485 84
3 155 487 488
3 155 489 491
3 489 9 490
3 489 490 491
3 116 85 11
3 156 85 116
3 156 39 85
3 87 156 21
3 157 156 87
3 157 39 156
3 157 155 39
3 158 155 157
3 158 9 155
3 158 75 9
3 159 75 158
3 159 36 75
3 89 159 40
3 160 159 89
3 160 36 159
3 160 147 36
3 161 147 160
3 161 492 494
3 494 493 147
3 492 493 494
3 161 495 496
3 162 497 499
3 499 498 161
3 497 498 499
3 162 500 501
3 91 162 41
3 163 162 91
3 163 502 504
3 504 503 162
3 502 503 504
3 163 505 506
3 164 507 509
3 509 508 163
3 507 508 509
3 164 510 512
3 510 6 511
3 510 511 512
3 120 92 12
3 165 92 120
3 165 42 92
3 94 165 23
3 166 165 94
3 166 42 165
3 166 164 42
3 167 164 166
3 167 6 164
3 167 71 6
3 168 71 167
3 168 34 71
3 96 168 43
3 169 168 96
3 169 34 168
3 169 141 34
3 170 141 169
3 170 1 141
3 137 55 0
3 171 55 137
3 171 24 55
3 99 171 32
3 172 171 99
3 172 24 171
3 172 123 24
3 173 123 172
3 173 13 123
3 124 100 5
3 174 100 124
3 174 45 100
3 101 513 515
3 513 174 514
3 513 514 515
3 175 174 101
3 175 45 174
3 175 173 45
3 176 173 175
3 176 13 173
3 176 97 13
3 177 97 176
3 177 44 97
3 103 177 46
3 178 177 103
3 178 44 177
3 178 170 44
3 179 170 178
3 179 1 170
3 179 60 1
3 180 60 179
3 180 26 60
3 516 180 517
3 518 517 47
3 516 517 518
3 519 180 520
3 521 26 522
3 523 522 180
3 521 522 523
3 525 524 26
3 527 526 14
