ply
format ascii 1.0
element vertex 485
property float x
property float y
property float z
property uchar red
property uchar green
property uchar blue
element face 467
property list uchar int vertex_index
end_header
-6.16554 -51.7184 41.3034 65 255 190
-16.9619 -45.7753 35.7025 94 255 161
-0.431999 -71.2855 30.5776 236 255 19
-23.1773 -42.7317 34.1212 0 228 255
-3.2867 -61.5291 37.424 255 14 0
-11.3198 -48.8516 37.9867 255 115 0
-26.0206 -34.1687 34.5538 155 255 100
-32.0902 -34.0161 31.186 255 117 0
-4.72896 -56.803 39.5934 163 255 92
-14.0331 -47.4353 36.7084 191 255 64
-22.8353 -35.0643 35.6167 75 255 180
-34.112 -30.2414 29.7923 145 255 110
0.934862 -67.7693 35.1971 132 255 123
-20.0386 -44.4249 34.8177 88 255 167
-0.614758 -62.9029 38.5945 92 255 163
-1.92107 -66.4321 34.2971 173 0 0
-8.77444 -50.1724 39.5142 255 53 0
-7.37352 -55.3125 38.2611 255 42 0
-10.1008 -53.8628 37.0121 239 255 16
-27.4957 -37.5748 33.5098 187 255 68
-30.183 -37.5832 32.0801 0 169 255
-29.2222 -33.9517 33.105 255 176 0
-31.2212 -29.8536 32.2792 127 255 128
-10.0006 -45.2948 40.4661 255 80 0
-12.622 -43.673 38.7249 255 103 0
-15.3212 -42.3064 37.3093 255 125 0
-18.1986 -40.9809 36.2138 255 145 0
-21.3067 -39.6068 35.3351 255 168 0
-24.4461 -38.4433 34.5034 255 227 0
-6.06841 -60.3616 36.2916 255 240 0
-4.75187 -65.0755 33.7433 166 255 89
-3.40556 -69.9672 30.2561 246 255 9
-2.07593 -74.9029 26.071 162 255 93
-5.48949 -54.2395 40.5007 177 255 78
-15.4498 -46.5505 36.2044 80 255 175
-35.3471 -30.4222 28.3265 0 196 255
0.23215 -69.4935 32.8508 255 243 0
-21.6327 -43.6113 34.4461 82 255 173
-2.76573 -59.7953 39.223 44 255 211
-1.92951 -62.2206 37.9883 255 203 0
-1.28309 -64.598 36.4415 187 0 0
-2.64027 -64.001 35.9188 217 0 0
-10.0583 -49.3613 38.7569 255 83 0
-9.43337 -52.0181 38.1974 255 61 0
-10.7369 -51.3049 37.5507 255 91 0
-26.7572 -36.0384 34.0162 255 225 0
-28.3329 -35.8533 33.3499 252 255 3
-27.6141 -34.0601 33.8916 255 170 0
-29.6636 -29.9199 33.2702 7 255 248
-8.79329 -46.0471 41.42 128 255 127
-9.51845 -43.5012 41.8669 44 255 211
-11.9771 -42.1051 39.8668 103 255 152
-13.2705 -41.3383 39.023 83 255 172
-13.9748 -42.969 37.9602 255 134 0
-14.6006 -40.5935 38.2655 79 255 176
-17.3831 -39.2418 36.9905 80 255 175
-18.9114 -38.5486 36.4449 91 255 164
-19.7399 -40.2254 35.766 255 130 0
-20.4945 -37.7854 35.9713 163 255 92
-24.4846 -34.4244 35.1077 65 255 190
-23.6102 -36.7242 35.0603 255 170 0
-25.1645 -36.3049 34.5821 255 191 0
-26.0009 -38.0088 34.032 245 255 10
-31.1491 -35.8872 31.6597 136 255 119
-32.4511 -36.1149 30.5452 0 244 255
-8.2244 -57.0476 36.7964 236 255 19
-6.81746 -57.8262 37.3121 255 30 0
-7.49934 -59.6018 35.8809 34 255 221
-4.17556 -67.6178 31.9701 204 255 51
-4.636 -75.8706 24.0543 0 142 255
-3.65578 -74.3682 25.9476 12 255 243
-4.03965 -59.1904 38.5562 251 255 4
-12.6358 -48.0521 37.356 255 127 0
-12.0593 -50.5855 36.9469 198 255 57
-13.4579 -49.8341 36.376 3 255 252
-27.0656 -32.1449 34.3639 0 238 255
-21.3049 -35.4425 36.1328 0 225 255
-33.1433 -32.2095 30.4996 255 60 0
-33.437 -34.3214 29.9068 118 255 137
-34.4306 -32.4037 29.1445 144 255 111
-18.5177 -45.0051 35.2486 103 255 152
0.124632 -65.3669 36.9231 243 255 12
-0.54111 -67.006 34.7576 128 0 0
-1.22426 -68.9026 32.4408 143 0 0
-7.46729 -50.9992 40.3484 255 242 0
-6.77537 -53.5753 39.6638 255 16 0
-8.08501 -52.7038 38.9625 255 44 0
-8.72538 -54.5915 37.6196 255 59 0
-9.5162 -56.4694 36.2805 16 255 239
-11.541 -53.2327 36.384 24 255 231
-28.1699 -39.2009 32.9697 0 116 255
-28.8575 -37.5648 32.8696 36 255 219
-29.7815 -35.7686 32.5825 255 250 0
-30.6935 -33.8689 32.2324 255 164 0
-28.6345 -32.0009 33.6237 185 255 70
-30.1944 -31.894 32.7534 255 124 0
-31.691 -31.9043 31.7431 255 78 0
-32.8032 -29.9685 31.0531 153 255 102
-8.12971 -48.4437 40.9528 133 255 122
-9.35412 -47.7059 40.0521 255 90 0
-10.6555 -46.8781 39.2029 255 96 0
-10.7557 -42.8382 40.7819 129 255 126
-11.2896 -44.5833 39.5196 255 98 0
-11.9776 -46.3053 38.3429 255 98 0
-13.3096 -45.5503 37.6477 255 109 0
-14.6399 -44.8468 37.0352 255 135 0
-16.0429 -44.1757 36.4718 255 128 0
-15.9599 -39.6786 37.6572 87 255 168
-16.7217 -41.5377 36.7588 255 130 0
-17.5482 -43.2928 35.9935 255 118 0
-19.1443 -42.619 35.507 255 129 0
-20.6772 -42.0075 35.0907 255 146 0
-22.1651 -41.186 34.7599 255 180 0
-21.935 -37.3296 35.5354 255 177 0
-22.8837 -38.8999 34.94 255 191 0
-23.723 -40.5268 34.3809 122 255 133
-25.2772 -39.9658 33.967 6 255 249
-26.8022 -39.4836 33.4988 0 230 255
-6.03515 -56.1641 38.8586 255 27 0
-5.41285 -58.5468 37.8979 255 27 0
-4.63809 -60.9281 36.8626 255 8 0
-5.42223 -62.7605 35.0833 175 255 80
-3.93917 -63.3794 35.5302 255 0 0
-3.40618 -65.8187 33.8955 214 0 0
-2.63959 -68.2193 32.2346 156 0 0
-1.85108 -70.8217 30.2204 131 0 0
-2.712 -72.475 28.2014 255 100 0
-1.12914 -73.1998 28.2493 255 251 0
-5.82752 -52.9789 40.9021 0 0 228
-5.17528 -53.4691 41.3236 0 0 189
-5.5133 -52.2086 41.725 0 0 189
-16.6981 -46.9817 35.5375 0 0 178
-15.942 -47.3693 35.7884 0 0 178
-16.2059 -46.1629 35.9534 0 0 211
0.285609 -71.5598 30.7707 0 0 196
0.617684 -70.6638 31.9073 0 0 196
-0.099925 -70.3895 31.7142 0 0 238
-0.090593 -72.4981 29.5385 0 0 157
0.285609 -71.5598 30.7707 0 0 157
-22.9089 -43.9704 33.9255 0 0 178
-22.1366 -44.4103 34.0879 0 0 178
-22.405 -43.1715 34.2837 0 0 211
-9.2435 -42.6932 42.6715 0 0 151
-8.89488 -43.963 42.398 0 0 151
-13.6827 -40.0806 39.1521 0 0 148
-13.0053 -40.4468 39.6199 0 0 148
-14.3477 -39.7083 38.7733 0 0 177
-13.9355 -40.9659 38.6442 0 0 209
-13.6827 -40.0806 39.1521 0 0 177
-19.3196 -37.321 36.5487 0 0 145
-18.582 -37.6025 36.8323 0 0 145
-20.1111 -36.9394 36.3119 0 0 177
-19.7029 -38.167 36.2081 0 0 210
-19.3196 -37.321 36.5487 0 0 177
-8.21537 -59.253 35.6689 0 0 184
-7.86187 -58.3247 36.3387 0 0 219
-8.5779 -57.9759 36.1267 0 0 184
-4.31358 -77.173 22.806 0 0 165
-5.15719 -76.7753 22.8998 0 0 165
-3.84549 -76.3209 23.8961 0 0 161
-4.31358 -77.173 22.806 0 0 161
-4.06564 -57.1742 39.9651 0 0 150
-4.40983 -55.9569 40.4836 0 0 150
-4.38431 -57.9967 39.0748 0 0 225
-3.72099 -58.3679 39.4465 0 0 187
-4.06564 -57.1742 39.9651 0 0 187
-35.4815 -31.5229 27.9426 0 0 151
-35.8973 -30.5412 27.4912 0 0 151
1.64478 -68.109 35.4765 0 0 155
1.23918 -66.9555 36.3397 0 0 155
-19.7438 -45.6432 34.6529 0 0 179
-18.9833 -45.9333 34.8683 0 0 179
-19.2781 -44.715 35.0332 0 0 212
-0.335941 -62.1297 39.6111 0 0 153
-1.02021 -61.7139 39.2583 0 0 153
0.061733 -63.3023 38.8923 0 0 151
-0.335941 -62.1297 39.6111 0 0 151
-0.245063 -64.1349 37.7588 0 0 242
0.431428 -64.5343 38.0566 0 0 199
0.061733 -63.3023 38.8923 0 0 199
-12.2327 -52.7645 36.1588 0 0 180
-11.8001 -51.9091 36.6655 0 0 214
-12.4919 -51.4409 36.4403 0 0 180
-28.3358 -31.0059 33.8869 0 0 177
-27.85 -32.0729 33.9938 0 0 210
-27.5514 -31.0779 34.257 0 0 177
-7.81763 -47.6549 41.7353 0 0 147
-7.52524 -48.8538 41.4075 0 0 147
-11.1054 -41.5615 41.006 0 0 148
-10.5094 -41.9692 41.5016 0 0 148
-16.3982 -38.5313 37.7314 0 0 142
-15.6915 -38.8571 38.0939 0 0 142
-30.3785 -38.5492 31.7485 0 0 137
-29.7825 -38.3864 32.1997 0 0 137
-33.5649 -35.3652 29.5529 0 0 148
-34.0648 -34.4632 29.1523 0 0 148
-5.08705 -63.918 34.4133 0 0 219
-5.79449 -63.6763 34.2382 0 0 183
-5.45932 -64.8338 33.5682 0 0 183
-1.30736 -75.2906 26.0378 0 0 203
-0.833962 -74.439 27.127 0 0 203
-1.60253 -74.0514 27.1602 0 0 249
-4.79009 -54.6751 40.9373 0 0 151
-5.17528 -53.4691 41.3236 0 0 151
-5.10923 -55.5213 40.047 0 0 238
-4.40983 -55.9569 40.4836 0 0 196
-4.79009 -54.6751 40.9373 0 0 196
-15.2161 -47.7889 36.0126 0 0 177
-14.5077 -48.2313 36.2646 0 0 177
-14.7414 -46.9929 36.4564 0 0 209
-15.2161 -47.7889 36.0126 0 0 145
-15.942 -47.3693 35.7884 0 0 145
-35.1789 -29.3191 28.6776 0 0 187
-34.7295 -30.3318 29.0594 0 0 224
-34.5614 -29.2287 29.4105 0 0 187
-35.7905 -29.4302 27.8483 0 0 152
-35.1789 -29.3191 28.6776 0 0 152
-35.8973 -30.5412 27.4912 0 0 151
-35.7905 -29.4302 27.8483 0 0 151
0.959037 -69.782 33.1144 0 0 199
1.31039 -68.9198 34.2876 0 0 199
0.583506 -68.6314 34.024 0 0 242
0.959037 -69.782 33.1144 0 0 157
0.617684 -70.6638 31.9073 0 0 157
-21.3124 -44.821 34.2832 0 0 178
-20.5154 -45.2278 34.469 0 0 178
-20.8356 -44.0181 34.6319 0 0 210
-21.3124 -44.821 34.2832 0 0 146
-22.1366 -44.4103 34.0879 0 0 146
-2.0957 -60.1602 39.5725 0 0 151
-2.42495 -58.9816 40.2232 0 0 151
-1.67759 -61.3728 38.9552 0 0 191
-2.0957 -60.1602 39.5725 0 0 191
-2.34762 -61.008 38.6056 0 0 230
-1.27214 -62.5618 38.2914 0 0 225
-1.02021 -61.7139 39.2583 0 0 187
-1.67759 -61.3728 38.9552 0 0 187
-29.3872 -28.9078 33.5394 0 0 147
-28.8504 -29.9654 33.7101 0 0 147
-30.1656 -28.8361 33.0624 0 0 147
-29.3872 -28.9078 33.5394 0 0 147
-30.9444 -28.803 32.5669 0 0 184
-30.4424 -29.8868 32.7747 0 0 219
-30.1656 -28.8361 33.0624 0 0 184
-31.7255 -28.8555 31.9986 0 0 148
-30.9444 -28.803 32.5669 0 0 148
-8.5323 -45.236 42.1745 0 0 150
-8.14943 -46.4566 41.9689 0 0 150
-9.15587 -44.7742 41.6434 0 0 227
-8.5323 -45.236 42.1745 0 0 189
-8.89488 -43.963 42.398 0 0 189
-12.3586 -40.8302 40.0418 0 0 150
-11.7162 -41.195 40.5484 0 0 150
-12.6238 -41.7217 39.4449 0 0 215
-12.3586 -40.8302 40.0418 0 0 181
-13.0053 -40.4468 39.6199 0 0 181
-17.8178 -37.9491 37.1051 0 0 144
-17.1098 -38.3129 37.398 0 0 144
-18.1473 -38.8952 36.7177 0 0 215
-17.8178 -37.9491 37.1051 0 0 181
-18.582 -37.6025 36.8323 0 0 181
-31.3219 -36.8871 31.348 0 0 170
-30.8389 -37.7352 31.5582 0 0 170
-30.666 -36.7352 31.8699 0 0 199
-31.9729 -37.001 30.7907 0 0 172
-31.3219 -36.8871 31.348 0 0 172
-31.8001 -36.001 31.1024 0 0 202
-32.5707 -37.1572 30.1905 0 0 143
-31.9729 -37.001 30.7907 0 0 143
-5.18399 -65.9684 32.8363 0 0 149
-5.45932 -64.8338 33.5682 0 0 149
-4.89584 -67.2396 31.9496 0 0 192
-4.46372 -66.3466 32.8567 0 0 231
-5.18399 -65.9684 32.8363 0 0 192
-4.5621 -68.4909 31.0473 0 0 151
-4.89584 -67.2396 31.9496 0 0 151
-4.17709 -69.6656 30.1903 0 0 192
-3.79056 -68.7925 31.1131 0 0 232
-4.5621 -68.4909 31.0473 0 0 192
-5.47811 -75.5784 24.0353 0 0 162
-5.15719 -76.7753 22.8998 0 0 162
-4.93699 -74.7071 25.1063 0 0 159
-5.47811 -75.5784 24.0353 0 0 159
-4.14589 -75.1194 25.0009 0 0 240
-4.44688 -73.9559 26.0529 0 0 197
-4.93699 -74.7071 25.1063 0 0 197
-3.35538 -75.5697 24.8428 0 0 199
-4.14589 -75.1194 25.0009 0 0 243
-3.84549 -76.3209 23.8961 0 0 199
-2.56546 -75.8371 24.9045 0 0 206
-2.86585 -74.6356 26.0093 0 0 253
-3.35538 -75.5697 24.8428 0 0 206
-1.71801 -76.161 24.9243 0 0 164
-2.56546 -75.8371 24.9045 0 0 164
-23.6581 -43.5701 33.7549 0 0 142
-23.9293 -42.4421 33.9293 0 0 142
-3.08403 -58.6703 39.7799 0 0 151
-2.42495 -58.9816 40.2232 0 0 151
-3.40269 -59.4929 38.8896 0 0 215
-3.08403 -58.6703 39.7799 0 0 181
-3.72099 -58.3679 39.4465 0 0 181
-13.1912 -51.0652 36.1548 0 0 178
-12.4919 -51.4409 36.4403 0 0 178
-12.7586 -50.2098 36.6615 0 0 211
-14.2201 -49.4307 36.0984 0 0 179
-13.7455 -48.6347 36.5422 0 0 212
-14.5077 -48.2313 36.2646 0 0 179
-13.9444 -50.7319 35.8782 0 0 149
-14.2201 -49.4307 36.0984 0 0 149
-13.1912 -51.0652 36.1548 0 0 147
-13.9444 -50.7319 35.8782 0 0 147
-26.2157 -32.1932 34.7253 0 0 179
-26.5431 -33.1568 34.4589 0 0 212
-25.6932 -33.2051 34.8203 0 0 179
-26.7426 -31.1571 34.6428 0 0 146
-26.2157 -32.1932 34.7253 0 0 146
-27.5514 -31.0779 34.257 0 0 146
-26.7426 -31.1571 34.6428 0 0 146
-20.9656 -34.6194 36.464 0 0 143
-20.5163 -35.7679 36.3927 0 0 143
-21.7658 -34.2524 36.1905 0 0 144
-20.9656 -34.6194 36.464 0 0 144
-22.531 -34.0633 35.9325 0 0 177
-22.0701 -35.2534 35.8748 0 0 210
-21.7658 -34.2524 36.1905 0 0 177
-23.3064 -33.8992 35.6391 0 0 145
-22.531 -34.0633 35.9325 0 0 145
-24.131 -33.5793 35.3846 0 0 176
-23.66 -34.7443 35.3622 0 0 207
-23.3064 -33.8992 35.6391 0 0 176
-24.9252 -33.3329 35.0972 0 0 142
-24.131 -33.5793 35.3846 0 0 142
-25.6932 -33.2051 34.8203 0 0 174
-25.2526 -34.2966 34.8308 0 0 204
-24.9252 -33.3329 35.0972 0 0 174
-34.5616 -33.5044 28.7711 0 0 187
-34.0648 -34.4632 29.1523 0 0 187
-33.9338 -33.3626 29.5257 0 0 225
-35.0233 -32.5137 28.3516 0 0 189
-34.8888 -31.4129 28.7355 0 0 227
-35.4815 -31.5229 27.9426 0 0 189
-34.5616 -33.5044 28.7711 0 0 150
-35.0233 -32.5137 28.3516 0 0 150
1.64478 -68.109 35.4765 0 0 156
1.31039 -68.9198 34.2876 0 0 156
-18.1999 -46.2625 35.092 0 0 181
-17.4221 -46.6476 35.319 0 0 181
-17.7398 -45.3902 35.4755 0 0 215
-18.1999 -46.2625 35.092 0 0 147
-18.9833 -45.9333 34.8683 0 0 147
-19.7438 -45.6432 34.6529 0 0 144
-20.5154 -45.2278 34.469 0 0 144
-22.9089 -43.9704 33.9255 0 0 145
-23.6581 -43.5701 33.7549 0 0 145
0.834067 -65.7543 37.2027 0 0 156
0.431428 -64.5343 38.0566 0 0 156
0.529747 -66.5681 36.0601 0 0 244
1.23918 -66.9555 36.3397 0 0 200
0.834067 -65.7543 37.2027 0 0 200
-9.2238 -57.6868 35.8688 0 0 177
-8.5779 -57.9759 36.1267 0 0 177
-8.8703 -56.7585 36.5385 0 0 209
-12.0014 -54.0497 35.8514 0 0 146
-12.2327 -52.7645 36.1588 0 0 146
-11.2651 -54.4682 36.0798 0 0 146
-12.0014 -54.0497 35.8514 0 0 146
-10.545 -54.7832 36.3938 0 0 184
-10.8209 -53.5478 36.6981 0 0 219
-11.2651 -54.4682 36.0798 0 0 184
-10.2527 -56.0865 36.028 0 0 187
-9.80852 -55.1661 36.6463 0 0 224
-10.545 -54.7832 36.3938 0 0 187
-9.94578 -57.2538 35.6944 0 0 145
-10.2527 -56.0865 36.028 0 0 145
-9.2238 -57.6868 35.8688 0 0 145
-9.94578 -57.2538 35.6944 0 0 145
-16.6981 -46.9817 35.5375 0 0 144
-17.4221 -46.6476 35.319 0 0 144
-28.776 -39.1952 32.6445 0 0 128
-28.4184 -39.8166 32.7307 0 0 128
-29.1198 -38.3772 32.5944 0 0 153
-28.776 -39.1952 32.6445 0 0 153
-28.5137 -38.3829 32.9196 0 0 174
-29.5202 -37.574 32.4748 0 0 181
-29.7825 -38.3864 32.1997 0 0 158
-29.1198 -38.3772 32.5944 0 0 158
-29.149 -30.9604 33.4469 0 0 215
-28.3358 -31.0059 33.8869 0 0 180
-28.8504 -29.9654 33.7101 0 0 180
-32.5165 -28.9129 31.3856 0 0 187
-32.0122 -29.9111 31.6662 0 0 225
-31.7255 -28.8555 31.9986 0 0 187
-33.2749 -28.9182 30.7286 0 0 151
-32.5165 -28.9129 31.3856 0 0 151
-33.9293 -29.0546 30.0982 0 0 187
-33.4576 -30.1049 30.4227 0 0 225
-33.2749 -28.9182 30.7286 0 0 187
-34.5614 -29.2287 29.4105 0 0 150
-33.9293 -29.0546 30.0982 0 0 150
-5.88117 -50.9394 42.1057 0 0 150
-5.5133 -52.2086 41.725 0 0 150
-6.54316 -50.4911 41.5828 0 0 151
-5.88117 -50.9394 42.1057 0 0 151
-7.19403 -50.1315 41.1053 0 0 186
-6.81642 -51.3588 40.8259 0 0 223
-6.54316 -50.4911 41.5828 0 0 186
-7.7985 -49.7215 40.6506 0 0 222
-7.19403 -50.1315 41.1053 0 0 185
-7.52524 -48.8538 41.4075 0 0 185
-8.4615 -47.2454 41.1864 0 0 225
-7.81763 -47.6549 41.7353 0 0 188
-8.14943 -46.4566 41.9689 0 0 188
-9.8908 -42.3007 42.0441 0 0 152
-9.2435 -42.6932 42.6715 0 0 152
-10.1371 -43.1697 41.3244 0 0 220
-9.8908 -42.3007 42.0441 0 0 184
-10.5094 -41.9692 41.5016 0 0 184
-11.3664 -42.4717 40.3244 0 0 219
-11.1054 -41.5615 41.006 0 0 183
-11.7162 -41.195 40.5484 0 0 183
-15.0118 -39.3146 38.398 0 0 145
-14.3477 -39.7083 38.7733 0 0 145
-15.2802 -40.1361 37.9613 0 0 204
-15.0118 -39.3146 38.398 0 0 173
-15.6915 -38.8571 38.0939 0 0 173
-16.6715 -39.4602 37.3239 0 0 204
-16.3982 -38.5313 37.7314 0 0 174
-17.1098 -38.3129 37.398 0 0 174
-20.8997 -36.614 36.052 0 0 207
-20.1111 -36.9394 36.3119 0 0 176
-20.5163 -35.7679 36.3927 0 0 176
-24.2021 -41.3396 34.0592 0 0 171
-23.9293 -42.4421 33.9293 0 0 171
-23.4502 -41.6292 34.2511 0 0 200
-24.9792 -41.0591 33.8522 0 0 172
-24.2021 -41.3396 34.0592 0 0 172
-24.5001 -40.2463 34.174 0 0 202
-25.7299 -40.7351 33.6519 0 0 141
-24.9792 -41.0591 33.8522 0 0 141
-26.4924 -40.494 33.4178 0 0 167
-25.7299 -40.7351 33.6519 0 0 167
-26.0397 -39.7247 33.7329 0 0 194
-27.2129 -40.1805 33.1948 0 0 137
-26.4924 -40.494 33.4178 0 0 137
-27.8968 -40.0391 32.9302 0 0 155
-27.2129 -40.1805 33.1948 0 0 155
-27.486 -39.3422 33.2342 0 0 176
-28.4184 -39.8166 32.7307 0 0 128
-27.8968 -40.0391 32.9302 0 0 128
-30.3785 -38.5492 31.7485 0 0 140
-30.8389 -37.7352 31.5582 0 0 140
-33.0719 -36.262 29.8721 0 0 179
-32.9441 -35.2182 30.226 0 0 212
-33.5649 -35.3652 29.5529 0 0 179
-32.5707 -37.1572 30.1905 0 0 145
-33.0719 -36.262 29.8721 0 0 145
-7.88328 -60.4507 35.1908 0 0 147
-8.21537 -59.253 35.6689 0 0 147
-7.15538 -60.8599 35.3145 0 0 148
-7.88328 -60.4507 35.1908 0 0 148
-6.43992 -61.2398 35.5198 0 0 186
-6.78387 -59.9817 36.0863 0 0 223
-7.15538 -60.8599 35.3145 0 0 186
-6.11683 -62.4393 34.9157 0 0 149
-5.79449 -63.6763 34.2382 0 0 149
-5.74532 -61.5611 35.6875 0 0 216
-6.43992 -61.2398 35.5198 0 0 181
-6.11683 -62.4393 34.9157 0 0 181
-3.80457 -70.9087 29.2126 0 0 156
-4.17709 -69.6656 30.1903 0 0 156
-3.92968 -73.1092 27.0584 0 0 158
-4.44688 -73.9559 26.0529 0 0 158
-3.45779 -72.1626 28.1853 0 0 203
-3.92968 -73.1092 27.0584 0 0 203
-3.18389 -73.4216 27.0745 0 0 248
-3.05878 -71.2211 29.2287 0 0 241
-3.80457 -70.9087 29.2126 0 0 198
-3.45779 -72.1626 28.1853 0 0 198
-0.439161 -73.4552 28.3743 0 0 195
-0.090593 -72.4981 29.5385 0 0 195
-0.780567 -72.2426 29.4135 0 0 237
-0.439161 -73.4552 28.3743 0 0 156
-0.833962 -74.439 27.127 0 0 156
-1.30736 -75.2906 26.0378 0 0 158
-1.71801 -76.161 24.9243 0 0 158
3 0 128 130
3 128 33 129
3 128 129 130
3 1 131 133
3 133 132 34
3 131 132 133
3 2 134 136
3 136 135 36
3 134 135 136
3 2 137 138
3 3 139 141
3 141 140 37
3 139 140 141
3 4 39 38
3 4 41 39
3 5 44 42
3 6 47 45
3 142 50 143
3 144 52 145
3 146 54 147
3 148 147 52
3 146 147 148
3 149 56 150
3 151 58 152
3 153 152 56
3 151 152 153
3 6 61 59
3 6 45 61
3 7 64 63
3 154 67 155
3 156 155 65
3 154 155 156
3 157 69 158
3 160 159 69
3 8 161 162
3 8 163 165
3 163 71 164
3 163 164 165
3 9 74 72
3 11 79 77
3 167 166 35
3 12 168 169
3 13 170 172
3 172 171 80
3 170 171 172
3 14 173 174
3 14 175 176
3 14 177 179
3 177 81 178
3 177 178 179
3 15 82 40
3 15 83 82
3 16 86 84
3 18 87 43
3 18 88 87
3 180 89 181
3 182 181 73
3 180 181 182
3 19 91 90
3 21 92 46
3 21 93 92
3 183 94 184
3 185 184 75
3 183 184 185
3 22 95 48
3 22 96 95
3 22 97 96
3 186 98 187
3 23 99 49
3 23 100 99
3 188 101 189
3 24 102 51
3 24 103 102
3 24 104 103
3 25 105 53
3 25 106 105
3 190 107 191
3 26 108 55
3 26 109 108
3 26 110 109
3 27 111 57
3 27 112 111
3 10 113 76
3 28 114 60
3 28 115 114
3 28 116 115
3 19 117 62
3 19 90 117
3 20 192 193
3 195 194 78
3 17 118 85
3 29 119 66
3 29 120 119
3 30 196 198
3 196 121 197
3 196 197 198
3 30 122 121
3 30 123 122
3 31 124 68
3 31 125 124
3 32 126 70
3 32 127 126
3 32 199 201
3 201 200 127
3 199 200 201
3 33 202 203
3 33 204 206
3 204 8 205
3 204 205 206
3 34 207 209
3 209 208 9
3 207 208 209
3 211 210 34
3 212 35 213
3 214 213 11
3 212 213 214
3 215 35 216
3 218 217 35
3 36 219 221
3 221 220 12
3 219 220 221
3 223 222 36
3 37 224 226
3 226 225 13
3 224 225 226
3 228 227 37
3 38 229 230
3 39 231 233
3 233 232 38
3 231 232 233
3 39 234 236
3 234 14 235
3 234 235 236
3 39 40 14
3 41 40 39
3 41 15 40
3 42 43 16
3 44 43 42
3 44 18 43
3 45 46 19
3 47 46 45
3 47 21 46
3 237 48 238
3 239 48 240
3 241 22 242
3 243 242 48
3 241 242 243
3 245 244 22
3 246 49 247
3 50 248 250
3 248 49 249
3 248 249 250
3 50 23 49
3 251 51 252
3 52 253 255
3 253 51 254
3 253 254 255
3 52 24 51
3 52 53 24
3 54 53 52
3 54 25 53
3 256 55 257
3 56 258 260
3 258 55 259
3 258 259 260
3 56 26 55
3 56 57 26
3 58 57 56
3 58 27 57
3 59 60 10
3 61 60 59
3 61 28 60
3 61 62 28
3 45 62 61
3 45 19 62
3 63 261 263
3 263 262 20
3 261 262 263
3 64 264 266
3 266 265 63
3 264 265 266
3 64 267 268
3 65 66 17
3 67 66 65
3 67 29 66
3 269 30 270
3 271 68 272
3 273 272 30
3 271 272 273
3 274 68 275
3 276 31 277
3 278 277 68
3 276 277 278
3 69 279 280
3 69 281 282
3 69 283 285
3 283 70 284
3 283 284 285
3 286 70 287
3 288 287 69
3 286 287 288
3 289 32 290
3 291 290 70
3 289 290 291
3 293 292 32
3 295 294 3
3 296 38 297
3 71 298 300
3 298 38 299
3 298 299 300
3 71 4 38
3 72 73 5
3 74 73 72
3 74 301 303
3 303 302 73
3 301 302 303
3 304 74 305
3 306 305 9
3 304 305 306
3 307 74 308
3 310 309 74
3 311 75 312
3 313 312 6
3 311 312 313
3 314 75 315
3 317 316 75
3 318 76 319
3 320 76 321
3 322 10 323
3 324 323 76
3 322 323 324
3 325 10 326
3 327 59 328
3 329 328 10
3 327 328 329
3 330 59 331
3 332 6 333
3 334 333 59
3 332 333 334
3 77 78 7
3 79 78 77
3 79 335 337
3 337 336 78
3 335 336 337
3 35 79 11
3 338 79 339
3 340 339 35
3 338 339 340
3 342 341 79
3 344 343 12
3 80 345 347
3 347 346 1
3 345 346 347
3 349 348 80
3 351 350 13
3 353 352 3
3 81 354 355
3 81 356 358
3 356 12 357
3 356 357 358
3 40 81 14
3 82 81 40
3 82 12 81
3 82 36 12
3 83 36 82
3 83 2 36
3 84 85 0
3 86 85 84
3 86 17 85
3 43 86 16
3 87 86 43
3 87 17 86
3 87 65 17
3 88 65 87
3 88 359 361
3 361 360 65
3 359 360 361
3 73 44 5
3 89 44 73
3 89 18 44
3 362 89 363
3 364 89 365
3 366 18 367
3 368 367 89
3 366 367 368
3 369 88 370
3 371 370 18
3 369 370 371
3 372 88 373
3 375 374 88
3 377 376 1
3 90 378 379
3 91 380 382
3 382 381 90
3 380 381 382
3 91 383 385
3 383 20 384
3 383 384 385
3 46 91 19
3 92 91 46
3 92 20 91
3 92 63 20
3 93 63 92
3 93 7 63
3 75 47 6
3 94 47 75
3 94 21 47
3 48 386 388
3 386 94 387
3 386 387 388
3 95 94 48
3 95 21 94
3 95 93 21
3 96 93 95
3 96 7 93
3 96 77 7
3 97 77 96
3 97 11 77
3 389 97 390
3 391 390 22
3 389 390 391
3 392 97 393
3 394 11 395
3 396 395 97
3 394 395 396
3 398 397 11
3 399 0 400
3 401 0 402
3 403 84 404
3 405 404 0
3 403 404 405
3 98 406 408
3 406 84 407
3 406 407 408
3 98 16 84
3 49 409 411
3 409 98 410
3 409 410 411
3 99 98 49
3 99 16 98
3 99 42 16
3 100 42 99
3 100 5 42
3 412 50 413
3 101 414 416
3 414 50 415
3 414 415 416
3 101 23 50
3 51 417 419
3 417 101 418
3 417 418 419
3 102 101 51
3 102 23 101
3 102 100 23
3 103 100 102
3 103 5 100
3 103 72 5
3 104 72 103
3 104 9 72
3 53 104 24
3 105 104 53
3 105 9 104
3 105 34 9
3 106 34 105
3 106 1 34
3 420 54 421
3 107 422 424
3 422 54 423
3 422 423 424
3 107 25 54
3 55 425 427
3 425 107 426
3 425 426 427
3 108 107 55
3 108 25 107
3 108 106 25
3 109 106 108
3 109 1 106
3 109 80 1
3 110 80 109
3 110 13 80
3 57 110 26
3 111 110 57
3 111 13 110
3 111 37 13
3 112 37 111
3 112 3 37
3 76 428 430
3 428 58 429
3 428 429 430
3 113 58 76
3 113 27 58
3 60 113 10
3 114 113 60
3 114 27 113
3 114 112 27
3 115 112 114
3 115 3 112
3 115 431 433
3 433 432 3
3 431 432 433
3 116 434 436
3 436 435 115
3 434 435 436
3 116 437 438
3 62 116 28
3 117 116 62
3 117 439 441
3 441 440 116
3 439 440 441
3 117 442 443
3 90 444 446
3 446 445 117
3 444 445 446
3 90 447 448
3 450 449 20
3 78 64 7
3 451 64 452
3 453 452 78
3 451 452 453
3 455 454 64
3 85 33 0
3 118 33 85
3 118 8 33
3 66 118 17
3 119 118 66
3 119 8 118
3 119 71 8
3 120 71 119
3 120 4 71
3 456 67 457
3 458 67 459
3 460 29 461
3 462 461 67
3 460 461 462
3 121 463 464
3 121 465 467
3 465 29 466
3 465 466 467
3 121 120 29
3 122 120 121
3 122 4 120
3 122 41 4
3 123 41 122
3 123 15 41
3 68 123 30
3 124 123 68
3 124 15 123
3 124 83 15
3 125 83 124
3 125 2 83
3 468 31 469
3 70 470 471
3 126 472 474
3 474 473 70
3 472 473 474
3 126 475 477
3 475 31 476
3 475 476 477
3 126 125 31
3 127 125 126
3 127 2 125
3 127 478 480
3 480 479 2
3 478 479 480
3 482 481 127
3 484 483 32
