ply
format ascii 1.0
element vertex 299
property float x
property float y
property float z
property uchar red
property uchar green
property uchar blue
element face 242
property list uchar int vertex_index
end_header
-16.9237 -84.2356 -6.66703 255 150 0
-22.2691 -74.3756 -6.57196 179 255 76
-18.692 -82.8192 -11.3863 255 175 0
-24.6874 -69.2102 -7.31649 157 255 98
-2.51233 -83.3798 16.6738 0 144 255
-4.71389 -86.166 12.0795 0 177 255
-6.9771 -88.2328 7.3624 168 255 87
-14.9299 -85.2909 -1.6487 106 255 149
-11.5039 -89.4888 -2.31058 198 255 57
-19.7342 -79.3584 -6.26664 235 255 20
-21.5767 -77.508 -11.2502 130 0 0
-9.36623 -89.2211 2.59887 0 85 255
-16.1917 -86.1205 -9.18925 212 255 43
-17.1977 -85.2491 -11.4394 84 255 171
-17.7781 -83.6318 -9.00803 166 0 0
-25.8245 -66.6918 -7.78218 0 186 255
-25.5725 -68.2566 -9.83798 44 255 211
-6.57916 -85.1098 12.2915 46 255 209
-5.81001 -87.3931 9.64101 156 255 99
-7.78406 -86.066 9.97111 161 255 94
-15.955 -84.7902 -4.08194 255 252 0
-14.2805 -87.1382 -4.40142 255 135 0
-15.3081 -86.6406 -6.87641 246 255 9
-21.0842 -76.8383 -6.55312 194 255 61
-20.6644 -78.4673 -8.80913 149 0 0
-22.0194 -75.7886 -8.90648 192 0 0
-0.821582 -84.0619 16.6708 0 240 255
-19.5564 -81.8943 -13.4963 85 255 170
-23.4942 -71.8147 -6.93206 168 255 87
-23.2277 -73.2895 -9.09565 255 203 0
-24.4067 -70.7411 -9.30951 158 255 97
-3.62947 -84.7438 14.4983 0 59 255
-12.1376 -87.6612 0.489213 82 255 173
-13.2553 -87.4024 -1.82315 255 171 0
-12.5544 -89.2325 -4.53272 87 255 168
-18.3933 -81.8024 -6.45655 231 255 24
-19.2885 -81.0637 -8.96504 128 0 0
-20.214 -80.1172 -11.3057 154 0 0
-21.099 -79.179 -13.7485 252 255 3
-22.8915 -74.9023 -11.4322 218 255 37
-22.5723 -76.3354 -13.7444 107 255 148
0.973312 -80.5862 21.4672 0 43 255
-1.5606 -81.6919 19.0299 0 239 255
0.122389 -82.3315 19.0887 0 141 255
-8.91632 -86.8129 7.61899 42 255 213
-8.2682 -88.7817 5.00362 0 199 255
-10.3403 -89.6236 -0.00715 0 214 255
-26.2962 -66.1633 -9.07978 0 0 131
-26.3675 -65.4985 -8.0774 0 0 131
-7.54641 -84.4913 12.4249 0 0 134
-6.96932 -83.9372 13.5958 0 0 134
-8.14886 -84.9695 11.2647 0 0 171
-7.18161 -85.5879 11.1313 0 0 209
-7.54641 -84.4913 12.4249 0 0 171
-18.3914 -83.6277 -12.6065 0 0 177
-17.6442 -84.8427 -12.6331 0 0 177
-17.9449 -84.0341 -11.4128 0 0 218
-19.1242 -82.3567 -12.4413 0 0 213
-18.8236 -83.1653 -13.6616 0 0 174
-18.3914 -83.6277 -12.6065 0 0 174
-25.4695 -68.9502 -10.8603 0 0 134
-26.0756 -67.6236 -11.0582 0 0 134
-4.17168 -85.4549 13.2889 0 0 207
-4.54871 -84.2573 14.6158 0 0 170
-5.09092 -84.9684 13.4064 0 0 170
-3.73272 -86.6911 11.9718 0 0 175
-3.19051 -85.98 13.1812 0 0 175
-4.17168 -85.4549 13.2889 0 0 215
-4.32924 -87.2476 10.8626 0 0 131
-3.73272 -86.6911 11.9718 0 0 131
-5.96425 -88.8848 7.25621 0 0 172
-5.38071 -88.4649 8.39551 0 0 172
-6.39356 -87.8129 8.5017 0 0 210
-6.55225 -89.2951 6.05326 0 0 135
-5.96425 -88.8848 7.25621 0 0 135
-14.0926 -86.3466 -1.73593 0 0 222
-13.578 -86.4824 -0.478387 0 0 180
-14.4154 -85.4267 -0.391162 0 0 180
-13.0306 -89.1141 -5.76877 0 0 178
-13.4175 -88.1854 -4.46707 0 0 219
-13.8936 -88.067 -5.70311 0 0 178
-12.0958 -90.2058 -5.84453 0 0 139
-13.0306 -89.1141 -5.76877 0 0 139
-23.552 -73.5131 -11.513 0 0 184
-23.0596 -74.0959 -10.2639 0 0 229
-23.7201 -72.7067 -10.3447 0 0 184
-23.0194 -75.7803 -14.8963 0 0 133
-23.2166 -75.0498 -13.8522 0 0 133
-22.3002 -77.1689 -14.8515 0 0 137
-23.0194 -75.7803 -14.8963 0 0 137
0.124879 -80.2482 21.424 0 0 130
0.623332 -79.3378 22.6575 0 0 130
-2.03647 -82.5358 17.8519 0 0 198
-2.42143 -81.3051 19.0914 0 0 163
-2.89729 -82.149 17.9134 0 0 163
0.49602 -83.5753 17.8571 0 0 164
-0.349597 -83.1967 17.8797 0 0 198
0.024035 -84.4405 16.6481 0 0 164
0.969647 -82.7357 19.0649 0 0 129
0.49602 -83.5753 17.8571 0 0 129
-9.82105 -86.0594 7.74862 0 0 132
-9.26268 -85.7728 8.92522 0 0 132
-8.81721 -89.0014 3.80125 0 0 212
-9.19074 -87.9889 5.17093 0 0 173
-9.73976 -88.2086 3.96855 0 0 173
-8.33016 -90.079 2.46465 0 0 180
-7.78114 -89.8593 3.66702 0 0 180
-8.81721 -89.0014 3.80125 0 0 223
-16.6947 -85.6848 -10.3143 0 0 228
-16.3186 -86.5691 -11.5512 0 0 184
-15.8155 -87.0048 -10.4261 0 0 184
-26.1702 -66.9458 -10.1077 0 0 176
-25.6985 -67.4742 -8.81008 0 0 217
-26.2962 -66.1633 -9.07978 0 0 176
-26.0756 -67.6236 -11.0582 0 0 132
-26.1702 -66.9458 -10.1077 0 0 132
-6.02356 -84.4403 13.5124 0 0 133
-6.96932 -83.9372 13.5958 0 0 133
-5.64652 -85.6379 12.1855 0 0 210
-5.09092 -84.9684 13.4064 0 0 172
-6.02356 -84.4403 13.5124 0 0 172
-14.4074 -87.8182 -6.94061 0 0 185
-13.8936 -88.067 -5.70311 0 0 185
-14.7943 -86.8894 -5.63891 0 0 230
-14.9126 -87.5585 -8.11283 0 0 138
-14.4074 -87.8182 -6.94061 0 0 138
-15.3544 -87.2985 -9.26926 0 0 177
-14.9126 -87.5585 -8.11283 0 0 177
-15.7499 -86.3806 -8.03283 0 0 218
-15.8155 -87.0048 -10.4261 0 0 136
-15.3544 -87.2985 -9.26926 0 0 136
-1.29552 -84.8845 15.4694 0 0 161
-1.66696 -83.7209 16.6723 0 0 194
-2.14089 -84.5434 15.4709 0 0 161
-0.414143 -85.3048 15.4107 0 0 131
-1.29552 -84.8845 15.4694 0 0 131
0.024035 -84.4405 16.6481 0 0 130
-0.414143 -85.3048 15.4107 0 0 130
-10.2303 -88.3781 2.79644 0 0 132
-9.73976 -88.2086 3.96855 0 0 132
-10.5207 -90.5147 -2.51893 0 0 135
-11.0463 -90.4557 -3.59578 0 0 135
-16.8483 -86.076 -12.6331 0 0 138
-16.3186 -86.5691 -11.5512 0 0 138
-16.8483 -86.076 -12.6331 0 0 137
-17.6442 -84.8427 -12.6331 0 0 137
-19.2577 -82.6766 -14.7181 0 0 135
-18.8236 -83.1653 -13.6616 0 0 135
-20.0252 -81.3548 -14.7232 0 0 140
-19.2577 -82.6766 -14.7181 0 0 140
-24.3096 -71.4325 -10.4516 0 0 176
-23.7201 -72.7067 -10.3447 0 0 176
-23.8172 -72.0153 -9.20258 0 0 216
-24.8866 -70.1924 -10.5961 0 0 171
-24.9896 -69.4989 -9.57374 0 0 209
-25.4695 -68.9502 -10.8603 0 0 171
-24.3096 -71.4325 -10.4516 0 0 135
-24.8866 -70.1924 -10.5961 0 0 135
-3.44321 -82.8948 16.8111 0 0 131
-2.89729 -82.149 17.9134 0 0 131
-4.00178 -83.5768 15.7233 0 0 130
-4.54871 -84.2573 14.6158 0 0 130
-3.0709 -84.0618 15.5861 0 0 200
-3.44321 -82.8948 16.8111 0 0 165
-4.00178 -83.5768 15.7233 0 0 165
-2.69946 -85.2254 14.3832 0 0 165
-2.14089 -84.5434 15.4709 0 0 165
-3.0709 -84.0618 15.5861 0 0 200
-2.69946 -85.2254 14.3832 0 0 133
-3.19051 -85.98 13.1812 0 0 133
-4.8773 -87.8612 9.64339 0 0 167
-4.32924 -87.2476 10.8626 0 0 167
-5.26195 -86.7795 10.8602 0 0 203
-4.8773 -87.8612 9.64339 0 0 131
-5.38071 -88.4649 8.39551 0 0 131
-13.0192 -86.6118 0.677795 0 0 138
-12.4755 -86.6835 1.89646 0 0 138
-12.6964 -87.5318 -0.666969 0 0 219
-13.0192 -86.6118 0.677795 0 0 177
-13.578 -86.4824 -0.478387 0 0 177
-11.5715 -90.3275 -4.70685 0 0 179
-11.0463 -90.4557 -3.59578 0 0 179
-12.0292 -89.3606 -3.42165 0 0 221
-11.5715 -90.3275 -4.70685 0 0 138
-12.0958 -90.2058 -5.84453 0 0 138
-17.9059 -82.1606 -5.15296 0 0 187
-17.6585 -83.019 -6.56179 0 0 233
-17.1711 -83.3773 -5.25821 0 0 187
-18.5867 -81.0241 -5.15799 0 0 137
-17.9059 -82.1606 -5.15296 0 0 137
-19.2572 -79.8021 -5.06304 0 0 178
-19.0638 -80.5804 -6.36159 0 0 220
-18.5867 -81.0241 -5.15799 0 0 178
-19.9586 -78.5069 -5.07986 0 0 137
-19.2572 -79.8021 -5.06304 0 0 137
-20.6336 -77.2469 -5.2231 0 0 182
-20.4092 -78.0983 -6.40988 0 0 226
-19.9586 -78.5069 -5.07986 0 0 182
-21.2281 -76.0878 -5.33159 0 0 135
-20.6336 -77.2469 -5.2231 0 0 135
-21.8205 -74.8565 -5.34101 0 0 175
-21.6767 -75.607 -6.56254 0 0 216
-21.2281 -76.0878 -5.33159 0 0 175
-22.428 -73.6053 -5.50323 0 0 134
-21.8205 -74.8565 -5.34101 0 0 134
-23.0405 -72.3248 -5.68328 0 0 174
-22.8816 -73.0952 -6.75201 0 0 214
-22.428 -73.6053 -5.50323 0 0 174
-23.6263 -71.0524 -5.86342 0 0 134
-23.0405 -72.3248 -5.68328 0 0 134
-24.2229 -69.7502 -6.05563 0 0 176
-24.0908 -70.5124 -7.12427 0 0 216
-23.6263 -71.0524 -5.86342 0 0 176
-24.7666 -68.5342 -6.24788 0 0 132
-24.2229 -69.7502 -6.05563 0 0 132
-25.3352 -67.275 -6.48073 0 0 173
-25.256 -67.951 -7.54933 0 0 212
-24.7666 -68.5342 -6.24788 0 0 173
-25.8916 -66.0289 -6.72477 0 0 134
-25.3352 -67.275 -6.48073 0 0 134
-26.3675 -65.4985 -8.0774 0 0 133
-25.8916 -66.0289 -6.72477 0 0 133
-15.2552 -84.3572 -0.35232 0 0 137
-14.4154 -85.4267 -0.391162 0 0 137
-15.7544 -84.0999 -1.50577 0 0 137
-15.2552 -84.3572 -0.35232 0 0 137
-16.2669 -83.8495 -2.72239 0 0 184
-15.4425 -85.0406 -2.86532 0 0 228
-15.7544 -84.0999 -1.50577 0 0 184
-16.6868 -83.6546 -3.96566 0 0 137
-16.2669 -83.8495 -2.72239 0 0 137
-17.1711 -83.3773 -5.25821 0 0 182
-16.4394 -84.5129 -5.37449 0 0 226
-16.6868 -83.6546 -3.96566 0 0 182
-20.7965 -79.9972 -14.8493 0 0 182
-20.0252 -81.3548 -14.7232 0 0 182
-20.3277 -80.5366 -13.6224 0 0 226
-23.3762 -74.3332 -12.6961 0 0 140
-23.552 -73.5131 -11.513 0 0 140
-22.7319 -75.6189 -12.5883 0 0 220
-23.3762 -74.3332 -12.6961 0 0 178
-23.2166 -75.0498 -13.8522 0 0 178
-21.5635 -78.5907 -14.8536 0 0 180
-21.8357 -77.7572 -13.7465 0 0 222
-22.3002 -77.1689 -14.8515 0 0 180
-20.7965 -79.9972 -14.8493 0 0 137
-21.5635 -78.5907 -14.8536 0 0 137
1.42943 -79.6229 22.7961 0 0 129
0.623332 -79.3378 22.6575 0 0 129
1.74936 -80.8529 21.6027 0 0 128
1.42943 -79.6229 22.7961 0 0 128
-1.92154 -80.3642 20.3388 0 0 132
-2.42143 -81.3051 19.0914 0 0 132
-1.14208 -80.801 20.2053 0 0 128
-1.92154 -80.3642 20.3388 0 0 128
-0.300583 -81.1208 20.2348 0 0 160
-1.14208 -80.801 20.2053 0 0 160
-0.719106 -82.0117 19.0593 0 0 193
0.547851 -81.4588 20.2779 0 0 194
0.124879 -80.2482 21.424 0 0 161
-0.300583 -81.1208 20.2348 0 0 161
1.39511 -81.8631 20.2541 0 0 163
0.547851 -81.4588 20.2779 0 0 197
0.969647 -82.7357 19.0649 0 0 163
1.74936 -80.8529 21.6027 0 0 129
1.39511 -81.8631 20.2541 0 0 129
-8.69655 -85.3994 10.1013 0 0 132
-8.14886 -84.9695 11.2647 0 0 132
-8.35019 -86.4394 8.79505 0 0 204
-8.69655 -85.3994 10.1013 0 0 168
-9.26268 -85.7728 8.92522 0 0 168
-9.5148 -87.0044 6.47861 0 0 131
-9.82105 -86.0594 7.74862 0 0 131
-8.59226 -87.7973 6.3113 0 0 208
-9.5148 -87.0044 6.47861 0 0 170
-9.19074 -87.9889 5.17093 0 0 170
-7.1978 -89.5696 4.87387 0 0 181
-6.55225 -89.2951 6.05326 0 0 181
-7.62265 -88.5072 6.18301 0 0 223
-7.1978 -89.5696 4.87387 0 0 138
-7.78114 -89.8593 3.66702 0 0 138
-11.616 -87.5981 1.74161 0 0 136
-12.4755 -86.6835 1.89646 0 0 136
-10.7174 -88.5793 1.49343 0 0 182
-11.616 -87.5981 1.74161 0 0 182
-11.239 -88.6424 0.241032 0 0 225
-9.85326 -89.4224 1.29586 0 0 217
-10.2303 -88.3781 2.79644 0 0 177
-10.7174 -88.5793 1.49343 0 0 177
-9.93883 -90.5822 -1.36721 0 0 181
-10.9221 -89.5562 -1.15887 0 0 224
-10.5207 -90.5147 -2.51893 0 0 181
-9.38331 -90.4768 -0.083312 0 0 137
-9.93883 -90.5822 -1.36721 0 0 137
-8.89627 -90.2756 1.2197 0 0 180
-9.85326 -89.4224 1.29586 0 0 223
-9.38331 -90.4768 -0.083312 0 0 180
-8.33016 -90.079 2.46465 0 0 139
-8.89627 -90.2756 1.2197 0 0 139
3 0 14 12
3 48 47 15
3 49 17 50
3 51 19 52
3 53 52 17
3 51 52 53
3 0 22 20
3 0 12 22
3 1 25 23
3 2 54 56
3 56 55 13
3 54 55 56
3 2 57 59
3 57 27 58
3 57 58 59
3 3 30 28
3 61 60 16
3 5 62 64
3 62 31 63
3 62 63 64
3 5 65 67
3 67 66 31
3 65 66 67
3 5 68 69
3 6 70 72
3 72 71 18
3 70 71 72
3 6 73 74
3 7 75 77
3 75 33 76
3 75 76 77
3 78 34 79
3 80 79 21
3 78 79 80
3 82 81 34
3 9 36 35
3 10 37 24
3 10 38 37
3 83 39 84
3 85 84 29
3 83 84 85
3 86 40 87
3 89 88 40
3 90 41 91
3 4 92 94
3 92 42 93
3 92 93 94
3 95 43 96
3 97 96 26
3 95 96 97
3 99 98 43
3 100 44 101
3 11 102 104
3 102 45 103
3 102 103 104
3 11 105 107
3 107 106 45
3 105 106 107
3 8 46 32
3 12 108 110
3 108 13 109
3 108 109 110
3 14 13 12
3 14 2 13
3 15 16 3
3 111 16 112
3 113 112 15
3 111 112 113
3 115 114 16
3 17 116 117
3 17 118 120
3 118 5 119
3 118 119 120
3 17 18 5
3 19 18 17
3 19 6 18
3 20 21 7
3 22 21 20
3 22 121 123
3 123 122 21
3 121 122 123
3 22 124 125
3 12 126 128
3 128 127 22
3 126 127 128
3 12 129 130
3 23 24 9
3 25 24 23
3 25 10 24
3 131 26 132
3 133 132 4
3 131 132 133
3 134 26 135
3 137 136 26
3 138 11 139
3 141 140 8
3 13 142 143
3 145 144 13
3 27 146 147
3 27 148 149
3 28 29 1
3 30 29 28
3 30 150 152
3 152 151 29
3 150 151 152
3 16 30 3
3 153 30 154
3 155 154 16
3 153 154 155
3 157 156 30
3 158 4 159
3 31 160 161
3 31 162 164
3 162 4 163
3 162 163 164
3 31 165 167
3 167 166 4
3 165 166 167
3 169 168 31
3 18 170 172
3 172 171 5
3 170 171 172
3 174 173 18
3 175 32 176
3 33 177 179
3 177 32 178
3 177 178 179
3 33 8 32
3 21 33 7
3 34 33 21
3 34 8 33
3 34 180 182
3 182 181 8
3 180 181 182
3 184 183 34
3 185 35 186
3 187 186 0
3 185 186 187
3 188 35 189
3 190 9 191
3 192 191 35
3 190 191 192
3 193 9 194
3 195 23 196
3 197 196 9
3 195 196 197
3 198 23 199
3 200 1 201
3 202 201 23
3 200 201 202
3 203 1 204
3 205 28 206
3 207 206 1
3 205 206 207
3 208 28 209
3 210 3 211
3 212 211 28
3 210 211 212
3 213 3 214
3 215 15 216
3 217 216 3
3 215 216 217
3 218 15 219
3 221 220 15
3 222 7 223
3 224 7 225
3 226 20 227
3 228 227 7
3 226 227 228
3 229 20 230
3 231 0 232
3 233 232 20
3 231 232 233
3 35 14 0
3 36 14 35
3 36 2 14
3 24 36 9
3 37 36 24
3 37 2 36
3 37 27 2
3 38 27 37
3 38 234 236
3 236 235 27
3 234 235 236
3 29 25 1
3 39 25 29
3 39 10 25
3 237 39 238
3 40 239 241
3 239 39 240
3 239 240 241
3 40 10 39
3 40 38 10
3 242 38 243
3 244 243 40
3 242 243 244
3 246 245 38
3 41 247 248
3 41 249 250
3 42 251 252
3 42 253 254
3 26 42 4
3 43 42 26
3 43 255 257
3 257 256 42
3 255 256 257
3 43 258 260
3 258 41 259
3 258 259 260
3 261 41 262
3 263 262 43
3 261 262 263
3 265 264 41
3 266 19 267
3 44 268 270
3 268 19 269
3 268 269 270
3 44 6 19
3 271 44 272
3 45 273 275
3 273 44 274
3 273 274 275
3 45 6 44
3 45 276 278
3 278 277 6
3 276 277 278
3 280 279 45
3 32 281 282
3 46 283 285
3 285 284 32
3 283 284 285
3 46 286 288
3 286 11 287
3 286 287 288
3 289 46 290
3 291 290 8
3 289 290 291
3 292 46 293
3 294 11 295
3 296 295 46
3 294 295 296
3 298 297 11
