ply
format ascii 1.0
element vertex 453
property float x
property float y
property float z
property uchar red
property uchar green
property uchar blue
element face 453
property list uchar int vertex_index
end_header
20.7301 -88.6668 20.3941 109 255 146
26.9449 -89.0237 2.69054 200 0 0
26.5217 -78.316 3.66198 170 0 0
26.8545 -81.102 13.1719 255 187 0
19.8159 -96.8331 8.56465 245 0 0
25.4258 -82.0312 22.7716 113 255 142
24.8474 -74.5505 -4.77473 26 255 229
24.8399 -90.4519 12.0271 255 85 0
24.6246 -98.4614 0.070719 255 56 0
22.9745 -61.9842 -12.7063 0 127 255
26.8987 -83.8606 3.4148 166 0 0
26.4789 -81.8943 -1.07921 255 179 0
27.0269 -87.1962 -1.7253 213 255 42
27.0589 -92.6738 -2.75568 215 255 40
23.4414 -85.8307 21.8023 255 108 0
25.0014 -86.4328 17.4074 255 116 0
23.0432 -90.0246 16.1937 255 135 0
22.517 -98.1614 4.34542 255 33 0
22.0529 -101.781 -1.9054 49 255 206
26.8985 -79.9663 8.43553 148 0 0
26.8107 -85.0555 8.10035 200 0 0
20.3354 -92.8617 14.4168 255 77 0
16.8459 -94.594 12.4163 174 255 81
21.3697 -84.5268 26.0413 72 255 183
23.482 -67.6408 -8.11747 0 8 255
25.7922 -76.572 -0.732241 242 0 0
26.3546 -81.9764 18.0187 185 255 70
26.1786 -86.0716 12.7711 227 0 0
26.1974 -90.2359 7.30037 238 0 0
22.7973 -94.1633 10.3525 255 95 0
24.8258 -94.4903 6.16917 255 27 0
26.2958 -94.0037 1.61565 251 0 0
26.1659 -97.6148 -4.31425 189 255 66
23.367 -60.1282 -11.8469 0 74 255
23.178 -61.7801 -11.2366 0 101 255
26.9792 -86.4254 3.10706 156 0 0
26.9487 -85.5603 0.765136 174 0 0
27.0642 -88.3281 0.404296 164 0 0
27.1397 -90.0794 -2.12468 228 255 27
27.0022 -90.9988 0.08448 209 0 0
22.1382 -87.4261 21.1258 255 110 0
23.2295 -87.9487 18.9927 255 115 0
21.9583 -89.4872 18.2628 255 102 0
27.0516 -78.3304 13.2206 100 255 155
26.9935 -77.9692 10.7911 220 255 35
26.9261 -80.5694 10.9148 185 0 0
26.892 -82.4629 8.35268 183 0 0
26.7889 -83.2312 10.645 223 0 0
14.7646 -97.0171 8.33547 0 222 255
22.7887 -83.3591 26.4167 69 255 186
21.9255 -82.4744 28.6426 0 134 255
24.5153 -72.1017 -4.75457 0 154 255
24.0403 -71.0595 -6.57779 0 41 255
26.3113 -75.5743 3.76084 212 255 43
25.9219 -74.7366 1.50375 178 255 77
26.1822 -77.3701 1.39245 214 0 0
26.1148 -80.8465 -3.3057 54 255 201
25.9565 -82.0856 20.3651 149 255 106
24.9328 -88.3938 14.7079 255 78 0
25.6616 -86.3154 15.152 255 33 0
25.6192 -88.504 12.2183 255 42 0
26.1657 -88.1854 10.099 255 8 0
25.5886 -90.4212 9.72554 255 78 0
20.037 -94.7651 11.6763 255 57 0
21.5572 -93.6787 12.3809 255 108 0
21.356 -95.6214 9.57072 255 39 0
23.6753 -98.3754 2.26461 255 43 0
23.7834 -96.4776 5.26462 255 33 0
24.7862 -96.5436 3.03619 255 45 0
25.623 -94.4182 3.8893 255 0 0
25.5714 -96.3283 1.01523 255 30 0
26.2479 -95.8712 -1.17542 253 0 0
25.5367 -97.9801 -1.93459 255 18 0
23.1793 -60.0512 -13.2771 0 39 255
25.0064 -72.8906 -2.6688 131 255 124
26.7326 -81.1407 3.50395 158 0 0
26.4597 -79.9696 1.30796 182 0 0
26.7301 -82.7461 1.15153 177 0 0
26.7941 -84.5407 -1.23773 194 255 61
24.5897 -83.9877 22.2701 255 122 0
25.2478 -84.2561 19.934 255 90 0
24.3371 -86.1716 19.5805 255 116 0
24.1226 -88.3305 16.8318 255 141 0
23.9283 -90.3978 14.1718 255 115 0
19.6463 -98.7276 5.56855 157 255 98
21.2697 -97.6958 6.33554 255 29 0
20.9934 -99.4882 3.50948 144 255 111
22.2425 -100.095 1.22902 255 226 0
23.5083 -100.173 -0.812577 255 45 0
24.5472 -100.053 -3.00026 246 255 9
23.286 -101.731 -3.79181 36 255 219
26.6184 -76.4303 6.01126 228 255 27
26.857 -77.2038 8.45656 243 255 12
26.7576 -79.1241 5.99312 128 0 0
26.8702 -81.8776 5.82285 149 0 0
26.9146 -84.4889 5.81558 169 0 0
26.8563 -87.1739 5.4841 183 0 0
20.4932 -90.7669 17.4534 235 255 20
18.9238 -91.9132 16.3176 40 255 215
18.656 -93.8713 13.4438 255 253 0
18.3494 -95.834 10.5047 222 0 0
15.1478 -95.1128 11.3269 66 255 189
16.5858 -96.5355 9.43975 255 197 0
18.1573 -97.9272 7.25674 194 255 61
24.748 -82.0222 24.8636 0 239 255
23.7442 -83.7827 24.3607 171 255 84
22.4361 -85.32 23.9079 255 137 0
21.0002 -86.6134 23.2268 93 255 162
23.1429 -63.1379 -10.4274 0 0 255
23.863 -68.597 -6.4729 0 31 255
25.4796 -73.9955 -0.738328 160 255 95
25.3272 -75.6603 -2.90343 255 230 0
26.1178 -79.2306 -1.03931 228 0 0
25.7248 -78.3612 -3.11774 169 255 86
26.6553 -81.6493 15.6407 211 255 44
25.7745 -84.297 17.7066 255 49 0
26.2293 -84.1349 15.3045 242 0 0
26.5999 -83.5399 12.9543 215 0 0
26.5607 -85.7349 10.363 225 0 0
26.5806 -87.69 7.87978 211 0 0
26.6754 -89.537 5.06452 211 0 0
21.7362 -91.5655 15.3917 255 102 0
22.8027 -92.2071 13.2818 255 111 0
23.9264 -92.3577 11.2961 255 78 0
22.6473 -96.1045 7.53808 255 47 0
23.859 -94.4445 8.31224 255 58 0
24.8845 -92.4269 9.0759 255 69 0
25.6216 -92.3425 6.94354 255 42 0
26.2518 -92.1149 4.53564 227 0 0
26.7203 -91.5319 2.36549 238 0 0
26.7475 -93.3998 -0.384517 241 0 0
26.7332 -95.1558 -3.28244 209 255 46
25.2998 -99.7798 -5.04614 47 255 208
22.9051 -63.7029 -11.8668 0 70 255
23.2808 -61.6786 -10.6626 0 0 128
23.3906 -60.9305 -10.8324 0 0 128
22.0801 -81.486 29.9789 0 0 145
22.5594 -81.7839 28.9662 0 0 145
24.5974 -74.0545 -5.77086 0 0 181
24.4313 -72.8301 -5.76078 0 0 181
24.6814 -73.3261 -4.76465 0 0 213
24.7857 -75.235 -5.90308 0 0 149
24.5974 -74.0545 -5.77086 0 0 149
25.6911 -82.0584 21.5683 0 0 219
26.0558 -81.0374 21.5976 0 0 185
25.7905 -81.0102 22.8009 0 0 185
22.8875 -62.1197 -13.4203 0 0 154
22.9899 -61.1532 -13.7057 0 0 154
23.0769 -61.0177 -12.9917 0 0 173
25.123 -72.1381 -1.71887 0 0 147
24.885 -71.7002 -2.73526 0 0 147
26.9612 -86.7965 -2.7931 0 0 194
26.8448 -85.4688 -2.54931 0 0 194
26.9105 -85.8684 -1.48151 0 0 234
27.0766 -88.1518 -3.01592 0 0 156
26.9612 -86.7965 -2.7931 0 0 156
27.1236 -92.2434 -3.8867 0 0 199
27.164 -90.9462 -3.5712 0 0 199
27.0993 -91.3766 -2.44018 0 0 240
27.043 -93.5475 -4.18321 0 0 157
27.1236 -92.2434 -3.8867 0 0 157
20.168 -100.081 2.90667 0 0 193
20.3198 -99.1079 4.53901 0 0 232
19.4945 -99.7012 3.93621 0 0 193
22.1477 -100.938 -0.338191 0 0 226
21.4762 -100.74 0.728119 0 0 189
21.3814 -101.583 -0.83909 0 0 189
26.7134 -75.4731 7.21169 0 0 158
26.5559 -75.0904 5.99397 0 0 158
18.2374 -91.2735 17.3029 0 0 152
19.0333 -90.8608 17.8359 0 0 152
17.7509 -94.2327 12.9301 0 0 226
17.9605 -93.2821 14.3596 0 0 189
17.0555 -93.6435 13.8459 0 0 189
14.2418 -95.2022 10.8757 0 0 155
14.431 -94.2414 12.3418 0 0 155
16.475 -97.4654 7.96851 0 0 195
15.6752 -96.7763 8.88761 0 0 234
15.5644 -97.7062 7.41636 0 0 195
17.2608 -98.1613 6.877 0 0 194
17.3716 -97.2314 8.34825 0 0 233
16.475 -97.4654 7.96851 0 0 194
17.9858 -98.8099 5.81378 0 0 153
17.2608 -98.1613 6.877 0 0 153
24.3728 -81.8433 25.9788 0 0 148
24.8978 -80.9532 26.1261 0 0 148
23.8709 -82.7236 25.7273 0 0 179
24.2461 -82.9024 24.6121 0 0 210
24.3728 -81.8433 25.9788 0 0 179
23.3349 -67.0547 -8.8166 0 0 138
23.4966 -66.5041 -8.02449 0 0 138
23.3657 -68.2225 -8.95774 0 0 139
23.3349 -67.0547 -8.8166 0 0 139
24.0937 -69.1134 -5.53089 0 0 146
24.0567 -67.9232 -5.51872 0 0 146
23.8215 -70.4641 -7.4166 0 0 145
23.9575 -71.6969 -7.51191 0 0 145
25.7246 -79.1508 -4.2466 0 0 186
25.9198 -79.6038 -3.21172 0 0 221
25.9196 -80.3934 -4.34058 0 0 186
25.4906 -77.8224 -4.12796 0 0 153
25.7246 -79.1508 -4.2466 0 0 153
26.5835 -80.7245 18.1216 0 0 156
26.4627 -80.7946 19.3219 0 0 156
26.505 -81.8129 16.8297 0 0 235
26.7338 -80.5609 16.9326 0 0 195
26.5835 -80.7245 18.1216 0 0 195
26.4015 -97.2446 -5.38795 0 0 197
26.6852 -96.0151 -4.87204 0 0 197
26.4495 -96.3853 -3.79834 0 0 238
24.767 -100.741 -5.60452 0 0 185
24.9235 -99.9163 -4.0232 0 0 219
24.3908 -100.878 -4.58158 0 0 185
22.9408 -64.4734 -11.342 0 0 152
23.024 -63.4204 -11.1471 0 0 171
23.0598 -64.1909 -10.6223 0 0 152
23.4851 -60.1046 -11.1375 0 0 134
23.6497 -59.1714 -11.3674 0 0 134
23.2725 -60.9542 -11.5418 0 0 163
23.4851 -60.1046 -11.1375 0 0 147
23.3906 -60.9305 -10.8324 0 0 147
21.1535 -102.386 -2.33659 0 0 154
21.3814 -101.583 -0.83909 0 0 154
21.8703 -102.541 -3.43322 0 0 155
21.1535 -102.386 -2.33659 0 0 155
27.0225 -78.1498 12.0059 0 0 234
27.0812 -76.8867 11.9118 0 0 194
27.1102 -77.0673 13.1266 0 0 194
16.1575 -93.8777 13.3471 0 0 153
17.0555 -93.6435 13.8459 0 0 153
13.7742 -97.0505 7.9263 0 0 158
14.0502 -96.1544 9.38003 0 0 158
14.5665 -97.9039 6.88135 0 0 158
13.7742 -97.0505 7.9263 0 0 158
15.5644 -97.7062 7.41636 0 0 157
14.5665 -97.9039 6.88135 0 0 157
22.9911 -82.2262 27.8533 0 0 148
23.3931 -82.5118 26.7553 0 0 148
22.3571 -82.9167 27.5297 0 0 209
22.9911 -82.2262 27.8533 0 0 178
22.5594 -81.7839 28.9662 0 0 178
23.6703 -66.9232 -7.20916 0 0 141
23.4966 -66.5041 -8.02449 0 0 141
24.2778 -71.5806 -5.66617 0 0 209
24.1823 -70.3447 -5.58333 0 0 178
24.4198 -70.8658 -4.67172 0 0 178
24.1939 -72.309 -6.67239 0 0 179
24.2778 -71.5806 -5.66617 0 0 210
24.4313 -72.8301 -5.76078 0 0 179
23.9575 -71.6969 -7.51191 0 0 145
24.1939 -72.309 -6.67239 0 0 145
26.1166 -75.1555 2.63229 0 0 234
26.0152 -73.7974 2.55153 0 0 194
26.2099 -74.2162 3.68007 0 0 194
26.3237 -82.215 -3.40207 0 0 198
26.2968 -81.3704 -2.19245 0 0 240
26.5057 -82.7389 -2.28883 0 0 198
26.1456 -81.664 -4.44291 0 0 155
26.3237 -82.215 -3.40207 0 0 155
25.9196 -80.3934 -4.34058 0 0 152
26.1456 -81.664 -4.44291 0 0 152
26.2637 -80.8492 20.4951 0 0 153
26.0558 -81.0374 21.5976 0 0 153
26.1555 -82.031 19.1919 0 0 234
26.4627 -80.7946 19.3219 0 0 195
26.2637 -80.8492 20.4951 0 0 195
23.5453 -59.0472 -12.0979 0 0 136
23.6497 -59.1714 -11.3674 0 0 136
23.4515 -59.0088 -12.813 0 0 156
23.5453 -59.0472 -12.0979 0 0 156
23.2731 -60.0897 -12.562 0 0 177
23.3182 -58.9924 -13.5957 0 0 138
23.4515 -59.0088 -12.813 0 0 138
23.0679 -60.0933 -14.0717 0 0 138
23.3182 -58.9924 -13.5957 0 0 138
23.0679 -60.0933 -14.0717 0 0 138
22.9899 -61.1532 -13.7057 0 0 138
27.1457 -77.2926 14.4289 0 0 158
27.1102 -77.0673 13.1266 0 0 158
27.0187 -78.678 14.4371 0 0 159
27.1457 -77.2926 14.4289 0 0 159
26.9201 -80.0638 14.4128 0 0 204
26.9531 -79.7162 13.1963 0 0 247
27.0187 -78.678 14.4371 0 0 204
24.6395 -71.3058 -3.77814 0 0 146
24.4198 -70.8658 -4.67172 0 0 146
24.7608 -72.4961 -3.71168 0 0 212
24.6395 -71.3058 -3.77814 0 0 180
24.885 -71.7002 -2.73526 0 0 180
26.6633 -84.0621 -2.36808 0 0 196
26.5057 -82.7389 -2.28883 0 0 196
26.6365 -83.2175 -1.15847 0 0 236
26.6633 -84.0621 -2.36808 0 0 160
26.8448 -85.4688 -2.54931 0 0 160
27.133 -89.5934 -3.21561 0 0 202
27.0766 -88.1518 -3.01592 0 0 202
27.0833 -88.6378 -1.92499 0 0 245
27.133 -89.5934 -3.21561 0 0 158
27.164 -90.9462 -3.5712 0 0 158
20.8517 -100.436 1.86835 0 0 155
20.168 -100.081 2.90667 0 0 155
21.6179 -99.7916 2.36925 0 0 229
20.8517 -100.436 1.86835 0 0 192
21.4762 -100.74 0.728119 0 0 192
23.7602 -101.717 -4.97736 0 0 189
24.3908 -100.878 -4.58158 0 0 189
23.9166 -100.892 -3.39603 0 0 226
22.4869 -102.516 -4.37643 0 0 189
22.6695 -101.756 -2.84861 0 0 226
21.8703 -102.541 -3.43322 0 0 189
23.0951 -102.487 -5.37439 0 0 154
22.4869 -102.516 -4.37643 0 0 154
23.7602 -101.717 -4.97736 0 0 152
23.0951 -102.487 -5.37439 0 0 152
26.4024 -74.6625 4.86876 0 0 157
26.2099 -74.2162 3.68007 0 0 157
26.4648 -76.0023 4.88605 0 0 233
26.4024 -74.6625 4.86876 0 0 194
26.5559 -75.0904 5.99397 0 0 194
27.0116 -76.6241 10.7691 0 0 155
27.0812 -76.8867 11.9118 0 0 155
26.9434 -76.2414 9.60182 0 0 197
27.0116 -76.6241 10.7691 0 0 197
26.9252 -77.5865 9.62384 0 0 237
26.8326 -75.8599 8.43434 0 0 156
26.9434 -76.2414 9.60182 0 0 156
26.7377 -76.817 7.23391 0 0 243
26.7134 -75.4731 7.21169 0 0 201
26.8326 -75.8599 8.43434 0 0 201
19.818 -90.2876 18.4038 0 0 187
20.6116 -89.7169 18.9237 0 0 222
19.9365 -89.2376 19.8742 0 0 187
19.7085 -91.3401 16.8855 0 0 224
19.818 -90.2876 18.4038 0 0 188
19.0333 -90.8608 17.8359 0 0 188
18.0944 -92.3031 15.7966 0 0 152
18.2374 -91.2735 17.3029 0 0 152
18.7899 -92.8922 14.8807 0 0 221
18.0944 -92.3031 15.7966 0 0 186
17.9605 -93.2821 14.3596 0 0 186
15.3084 -94.137 12.8024 0 0 155
14.431 -94.2414 12.3418 0 0 155
15.9969 -94.8534 11.8716 0 0 225
16.1575 -93.8777 13.3471 0 0 189
15.3084 -94.137 12.8024 0 0 189
14.9562 -96.065 9.83117 0 0 236
14.2418 -95.2022 10.8757 0 0 196
14.0502 -96.1544 9.38003 0 0 196
18.7303 -99.2101 4.96968 0 0 190
18.9018 -98.3274 6.41264 0 0 227
17.9858 -98.8099 5.81378 0 0 190
19.4945 -99.7012 3.93621 0 0 158
18.7303 -99.2101 4.96968 0 0 158
25.5677 -80.9414 23.9744 0 0 149
25.7905 -81.0102 22.8009 0 0 149
25.2288 -80.9368 25.0205 0 0 151
24.8978 -80.9532 26.1261 0 0 151
25.0869 -82.0267 23.8176 0 0 218
25.5677 -80.9414 23.9744 0 0 184
25.2288 -80.9368 25.0205 0 0 184
23.2665 -83.5709 25.3887 0 0 212
23.8709 -82.7236 25.7273 0 0 180
23.3931 -82.5118 26.7553 0 0 180
21.3733 -82.0474 29.6536 0 0 146
22.0801 -81.486 29.9789 0 0 146
21.1699 -83.0269 28.3078 0 0 147
21.3733 -82.0474 29.6536 0 0 147
20.892 -84.0531 27.0072 0 0 175
21.6476 -83.5006 27.342 0 0 205
21.1699 -83.0269 28.3078 0 0 175
20.6299 -85.0817 25.6051 0 0 146
20.892 -84.0531 27.0072 0 0 146
20.4451 -86.125 24.1978 0 0 179
21.185 -85.5701 24.634 0 0 210
20.6299 -85.0817 25.6051 0 0 179
20.2558 -87.1597 22.7601 0 0 147
20.4451 -86.125 24.1978 0 0 147
20.1208 -88.1864 21.3437 0 0 180
20.8652 -87.6401 21.8104 0 0 212
20.2558 -87.1597 22.7601 0 0 180
19.9365 -89.2376 19.8742 0 0 150
20.1208 -88.1864 21.3437 0 0 150
23.328 -62.6694 -9.73955 0 0 128
23.2633 -62.3576 -10.258 0 0 128
23.2101 -63.6551 -9.86194 0 0 132
23.328 -62.6694 -9.73955 0 0 132
23.0598 -64.1909 -10.6223 0 0 134
23.2101 -63.6551 -9.86194 0 0 134
23.8608 -67.4013 -6.38688 0 0 144
24.0567 -67.9232 -5.51872 0 0 144
23.6725 -68.1189 -7.29518 0 0 197
23.6703 -66.9232 -7.20916 0 0 170
23.8608 -67.4013 -6.38688 0 0 170
23.9516 -69.8282 -6.52534 0 0 210
24.0937 -69.1134 -5.53089 0 0 178
24.1823 -70.3447 -5.58333 0 0 178
23.7329 -69.2328 -7.36416 0 0 172
23.9516 -69.8282 -6.52534 0 0 200
23.8215 -70.4641 -7.4166 0 0 172
23.5424 -68.7548 -8.18644 0 0 166
23.6725 -68.1189 -7.29518 0 0 191
23.7329 -69.2328 -7.36416 0 0 166
23.3657 -68.2225 -8.95774 0 0 139
23.5424 -68.7548 -8.18644 0 0 139
25.8105 -73.4807 1.43749 0 0 152
26.0152 -73.7974 2.55153 0 0 152
25.5893 -73.1101 0.316456 0 0 188
25.8105 -73.4807 1.43749 0 0 188
25.7008 -74.3661 0.382709 0 0 225
25.3597 -72.6906 -0.753631 0 0 152
25.5893 -73.1101 0.316456 0 0 152
25.243 -73.443 -1.70356 0 0 215
25.123 -72.1381 -1.71887 0 0 182
25.3597 -72.6906 -0.753631 0 0 182
25.2918 -76.472 -4.02081 0 0 191
25.526 -77.0107 -3.01059 0 0 229
25.4906 -77.8224 -4.12796 0 0 191
25.0519 -75.9171 -4.95646 0 0 189
25.0873 -75.1054 -3.83908 0 0 226
25.2918 -76.472 -4.02081 0 0 189
24.7857 -75.235 -5.90308 0 0 153
25.0519 -75.9171 -4.95646 0 0 153
26.8205 -80.3374 15.6472 0 0 160
26.7338 -80.5609 16.9326 0 0 160
26.7549 -81.3756 14.4063 0 0 243
26.9201 -80.0638 14.4128 0 0 200
26.8205 -80.3374 15.6472 0 0 200
26.8802 -94.7885 -4.44658 0 0 197
27.043 -93.5475 -4.18321 0 0 197
26.896 -93.9148 -3.01906 0 0 237
26.8802 -94.7885 -4.44658 0 0 157
26.6852 -96.0151 -4.87204 0 0 157
25.1719 -100.501 -6.5796 0 0 150
24.767 -100.741 -5.60452 0 0 150
25.6327 -99.4779 -6.11268 0 0 152
25.1719 -100.501 -6.5796 0 0 152
26.0658 -98.3954 -5.74673 0 0 189
25.7328 -98.6973 -4.6802 0 0 225
25.6327 -99.4779 -6.11268 0 0 189
26.4015 -97.2446 -5.38795 0 0 153
26.0658 -98.3954 -5.74673 0 0 153
23.1604 -62.459 -10.832 0 0 150
23.2808 -61.6786 -10.6626 0 0 138
23.2633 -62.3576 -10.258 0 0 138
22.8451 -64.7898 -12.1354 0 0 136
22.9408 -64.4734 -11.342 0 0 136
22.823 -63.9213 -12.5855 0 0 134
22.8451 -64.7898 -12.1354 0 0 134
22.8577 -63.062 -13.0052 0 0 153
22.9398 -62.8436 -12.2865 0 0 171
22.823 -63.9213 -12.5855 0 0 153
22.8875 -62.1197 -13.4203 0 0 135
22.8577 -63.062 -13.0052 0 0 135
3 134 34 135
3 1 37 35
3 1 39 37
3 0 42 40
3 3 45 43
3 3 47 45
3 136 50 137
3 6 138 140
3 140 139 51
3 138 139 140
3 6 141 142
3 2 55 53
3 5 143 145
3 143 57 144
3 143 144 145
3 7 60 58
3 7 62 60
3 4 65 63
3 8 68 66
3 8 70 68
3 8 72 70
3 9 73 33
3 9 146 148
3 148 147 73
3 146 147 148
3 149 74 150
3 10 77 75
3 12 78 36
3 12 151 153
3 153 152 78
3 151 152 153
3 12 154 155
3 13 156 158
3 158 157 38
3 156 157 158
3 13 159 160
3 14 81 79
3 16 82 41
3 16 83 82
3 161 86 162
3 163 162 84
3 161 162 163
3 18 164 166
3 164 87 165
3 164 165 166
3 18 88 87
3 18 90 88
3 167 91 168
3 19 92 44
3 19 93 92
3 19 94 93
3 20 95 46
3 20 96 95
3 169 98 170
3 22 171 173
3 171 99 172
3 171 172 173
3 22 100 99
3 174 101 175
3 176 102 177
3 178 177 48
3 176 177 178
3 179 103 180
3 181 180 102
3 179 180 181
3 183 182 103
3 184 104 185
3 186 105 187
3 188 187 104
3 186 187 188
3 23 106 49
3 23 107 106
3 24 189 190
3 24 191 192
3 193 109 194
3 196 195 52
3 25 110 54
3 25 111 110
3 11 112 76
3 197 113 198
3 199 198 56
3 197 198 199
3 201 200 113
3 26 202 203
3 26 204 206
3 204 114 205
3 204 205 206
3 15 115 80
3 27 116 59
3 27 117 116
3 27 118 117
3 28 119 61
3 28 120 119
3 21 121 97
3 29 122 64
3 29 123 122
3 17 124 85
3 30 125 67
3 30 126 125
3 30 127 126
3 31 128 69
3 31 129 128
3 31 130 129
3 32 131 71
3 32 207 209
3 209 208 131
3 207 208 209
3 210 132 211
3 212 211 89
3 210 211 212
3 213 133 214
3 215 214 108
3 213 214 215
3 216 33 217
3 34 218 220
3 218 33 219
3 218 219 220
3 34 9 33
3 35 36 10
3 37 36 35
3 37 12 36
3 37 38 12
3 39 38 37
3 39 13 38
3 40 41 14
3 42 41 40
3 42 16 41
3 221 18 222
3 224 223 18
3 43 225 227
3 225 44 226
3 225 226 227
3 45 44 43
3 45 19 44
3 45 46 19
3 47 46 45
3 47 20 46
3 228 22 229
3 230 48 231
3 232 48 233
3 235 234 48
3 236 49 237
3 50 238 240
3 238 49 239
3 238 239 240
3 50 23 49
3 241 24 242
3 51 243 245
3 243 52 244
3 243 244 245
3 246 52 247
3 248 247 51
3 246 247 248
3 250 249 52
3 53 251 253
3 251 54 252
3 251 252 253
3 55 54 53
3 55 25 54
3 254 56 255
3 256 255 11
3 254 255 256
3 257 56 258
3 260 259 56
3 57 261 262
3 57 263 265
3 263 26 264
3 263 264 265
3 58 59 15
3 60 59 58
3 60 27 59
3 60 61 27
3 62 61 60
3 62 28 61
3 63 64 21
3 65 64 63
3 65 29 64
3 66 67 17
3 68 67 66
3 68 30 67
3 68 69 30
3 70 69 68
3 70 31 69
3 70 71 31
3 72 71 70
3 72 32 71
3 33 266 267
3 73 268 270
3 270 269 33
3 268 269 270
3 73 271 272
3 73 273 274
3 276 275 73
3 277 43 278
3 279 43 280
3 281 3 282
3 283 282 43
3 281 282 283
3 284 51 285
3 74 286 288
3 286 51 287
3 286 287 288
3 74 6 51
3 75 76 2
3 77 76 75
3 77 11 76
3 36 77 10
3 78 77 36
3 78 11 77
3 78 289 291
3 291 290 11
3 289 290 291
3 293 292 78
3 38 294 296
3 296 295 12
3 294 295 296
3 298 297 38
3 79 80 5
3 81 80 79
3 81 15 80
3 41 81 14
3 82 81 41
3 82 15 81
3 82 58 15
3 83 58 82
3 83 7 58
3 84 85 4
3 86 85 84
3 86 17 85
3 299 86 300
3 87 301 303
3 301 86 302
3 301 302 303
3 87 17 86
3 87 66 17
3 88 66 87
3 88 8 66
3 88 89 8
3 90 89 88
3 90 304 306
3 306 305 89
3 304 305 306
3 307 90 308
3 309 308 18
3 307 308 309
3 310 90 311
3 313 312 90
3 314 53 315
3 91 316 318
3 316 53 317
3 316 317 318
3 91 2 53
3 44 319 320
3 92 321 323
3 323 322 44
3 321 322 323
3 92 324 325
3 92 326 328
3 326 91 327
3 326 327 328
3 93 91 92
3 93 2 91
3 93 75 2
3 94 75 93
3 94 10 75
3 46 94 19
3 95 94 46
3 95 10 94
3 95 35 10
3 96 35 95
3 96 1 35
3 329 97 330
3 331 330 0
3 329 330 331
3 98 332 334
3 332 97 333
3 332 333 334
3 98 21 97
3 335 98 336
3 99 337 339
3 337 98 338
3 337 338 339
3 99 21 98
3 99 63 21
3 100 63 99
3 100 4 63
3 101 340 341
3 101 342 344
3 342 22 343
3 342 343 344
3 48 345 347
3 345 101 346
3 345 346 347
3 102 101 48
3 102 22 101
3 102 100 22
3 103 100 102
3 103 4 100
3 103 84 4
3 348 84 349
3 350 349 103
3 348 349 350
3 352 351 84
3 353 5 354
3 104 355 356
3 104 357 359
3 357 5 358
3 357 358 359
3 104 79 5
3 105 79 104
3 105 14 79
3 49 360 362
3 360 105 361
3 360 361 362
3 106 105 49
3 106 14 105
3 106 40 14
3 107 40 106
3 107 0 40
3 363 50 364
3 365 50 366
3 367 23 368
3 369 368 50
3 367 368 369
3 370 23 371
3 372 107 373
3 374 373 23
3 372 373 374
3 375 107 376
3 377 0 378
3 379 378 107
3 377 378 379
3 381 380 0
3 382 108 383
3 384 108 385
3 387 386 108
3 109 388 389
3 109 390 392
3 390 24 391
3 390 391 392
3 52 393 395
3 393 109 394
3 393 394 395
3 396 109 397
3 398 397 52
3 396 397 398
3 399 24 400
3 401 400 109
3 399 400 401
3 403 402 24
3 54 404 405
3 110 406 408
3 408 407 54
3 406 407 408
3 110 409 410
3 110 411 413
3 411 74 412
3 411 412 413
3 111 74 110
3 111 6 74
3 76 55 2
3 112 55 76
3 112 25 55
3 56 112 11
3 113 112 56
3 113 25 112
3 113 111 25
3 414 111 415
3 416 415 113
3 414 415 416
3 417 6 418
3 419 418 111
3 417 418 419
3 421 420 6
3 114 422 423
3 114 424 426
3 424 3 425
3 424 425 426
3 80 57 5
3 115 57 80
3 115 26 57
3 59 115 15
3 116 115 59
3 116 26 115
3 116 114 26
3 117 114 116
3 117 3 114
3 117 47 3
3 118 47 117
3 118 20 47
3 61 118 27
3 119 118 61
3 119 20 118
3 119 96 20
3 120 96 119
3 120 1 96
3 97 42 0
3 121 42 97
3 121 16 42
3 64 121 21
3 122 121 64
3 122 16 121
3 122 83 16
3 123 83 122
3 123 7 83
3 85 65 4
3 124 65 85
3 124 29 65
3 67 124 17
3 125 124 67
3 125 29 124
3 125 123 29
3 126 123 125
3 126 7 123
3 126 62 7
3 127 62 126
3 127 28 62
3 69 127 30
3 128 127 69
3 128 28 127
3 128 120 28
3 129 120 128
3 129 1 120
3 129 39 1
3 130 39 129
3 130 13 39
3 71 130 31
3 131 130 71
3 131 13 130
3 131 427 429
3 429 428 13
3 427 428 429
3 431 430 131
3 89 72 8
3 132 72 89
3 132 32 72
3 432 132 433
3 434 132 435
3 436 32 437
3 438 437 132
3 436 437 438
3 440 439 32
3 108 441 443
3 441 34 442
3 441 442 443
3 133 34 108
3 133 9 34
3 444 133 445
3 446 133 447
3 448 9 449
3 450 449 133
3 448 449 450
3 452 451 9
