ply
format ascii 1.0
element vertex 972
property float x
property float y
property float z
property uchar red
property uchar green
property uchar blue
element face 946
property list uchar int vertex_index
end_header
9.18392 -51.3147 48.1647 0 219 255
5.60793 -9.60579 33.1654 255 138 0
5.99611 -69.1846 40.0763 17 255 238
12.6337 -63.5344 30.0348 255 125 0
9.01533 -58.9733 44.4983 0 190 255
8.26945 -55.0414 52.199 0 189 255
8.15115 -63.3842 49.1323 192 255 63
27.911 32.2026 36.1311 0 0 224
6.02661 -37.613 42.1808 0 204 255
7.12448 -21.0617 29.0663 255 75 0
16.5817 -71.1569 39.8563 0 252 255
8.05856 -68.4953 34.5437 255 224 0
7.45996 -73.764 45.4085 103 255 152
6.97607 -44.9269 46.246 0 207 255
4.16475 -23.4114 33.7121 34 255 221
8.20262 -34.1318 29.5998 255 188 0
8.82419 -44.5831 23.4418 0 238 255
8.04056 -55.2101 45.8712 0 241 255
10.3285 -52.386 44.8507 0 140 255
8.58707 -52.9682 50.3129 50 255 205
6.8074 -57.1467 48.16 50 255 205
9.25205 -71.8436 39.8799 204 255 51
12.2478 -68.8245 38.0207 205 255 50
6.29151 -70.0014 36.8512 0 214 255
6.69693 -66.3783 43.6673 156 255 99
6.42753 -68.6815 46.1108 114 255 141
6.57172 -71.6255 42.4065 50 255 205
11.2924 -72.9683 42.967 255 182 0
11.6687 -43.1683 43.7675 0 175 255
6.16171 -46.1654 42.8724 46 255 209
7.52914 -42.6549 42.4513 140 255 115
4.14677 -16.7432 32.5557 221 255 34
5.14109 -27.4036 27.0609 255 126 0
8.82659 -27.8776 29.541 197 255 58
8.18356 -33.9054 27.2043 255 98 0
9.12749 -39.5924 27.2468 197 255 58
6.86538 -39.3294 24.3245 222 255 33
7.30139 -43.8398 20.5968 14 255 241
16.5868 -64.3419 32.6443 111 255 144
20.5536 -65.3022 28.7029 139 255 116
6.99701 -63.9043 41.5933 0 209 255
5.33622 -61.2581 53.4534 0 198 255
5.68622 -59.3695 50.8538 22 255 233
8.73296 -61.1402 47.0201 215 255 40
6.58235 -33.4933 42.0453 0 140 255
7.098 -8.17042 31.4394 98 255 157
7.84233 -15.3518 31.6863 180 255 75
5.00709 -14.1318 29.4413 255 192 0
2.13613 -20.3627 27.4279 165 255 90
9.3316 -64.7963 26.5433 0 228 255
16.9576 -61.0338 27.4136 255 62 0
14.4497 -66.7305 35.1993 165 255 90
10.2482 -65.692 32.554 255 141 0
7.27236 -65.6405 51.3163 119 255 136
7.29866 -70.4928 48.988 168 255 87
10.0947 -74.0222 48.4148 0 179 255
13.5599 -74.4272 45.0802 0 76 255
5.70736 -48.2643 50.2714 0 173 255
6.7067 -48.1123 46.8052 28 255 227
9.63498 -48.4546 44.1391 0 229 255
5.91277 -41.7153 40.5543 0 118 255
7.30675 -22.0819 31.5167 255 146 0
5.52351 -28.3665 30.5269 255 96 0
4.08664 -34.0224 30.6584 0 190 255
9.28517 -53.6516 46.9467 9 255 246
9.20663 -53.9271 45.1207 0 150 255
9.89665 -51.925 46.5265 36 255 219
8.81936 -52.0924 49.1442 37 255 218
8.97478 -54.3939 48.1132 38 255 217
6.74941 -71.3622 39.5836 14 255 241
7.81581 -71.0462 38.3644 115 255 140
5.99539 -69.7951 38.4493 22 255 233
6.40152 -67.7018 41.6036 74 255 181
6.67334 -68.9407 42.8614 86 255 169
6.48269 -70.3596 41.1453 22 255 233
7.12293 -72.5336 40.8193 77 255 178
9.60051 -42.9373 43.1056 44 255 211
11.5095 -41.2774 41.926 0 191 255
3.77918 -10.5405 33.7798 71 255 184
3.79766 -14.1213 34.2244 12 255 243
4.88396 -13.3075 32.8063 255 75 0
4.1208 -30.6338 26.3195 149 255 106
6.68467 -30.7467 27.1326 193 0 0
5.77429 -33.773 26.0366 255 169 0
7.47572 -36.5963 25.8443 255 43 0
4.92089 -36.5311 24.8499 82 255 173
14.7162 -63.1789 31.9195 255 159 0
18.7527 -64.2947 30.933 156 255 99
16.7293 -62.249 30.3969 228 0 0
9.3687 -61.6655 42.9002 0 253 255
7.88042 -56.1476 53.1339 0 86 255
6.10245 -58.2573 52.5138 0 163 255
6.90275 -57.3026 51.4152 48 255 207
7.04186 -58.164 46.2647 60 255 195
6.80605 -59.1482 47.6004 84 255 171
9.04 -60.0697 45.7683 195 255 60
8.94985 -62.9182 43.9887 237 255 18
4.75763 -32.7963 41.9487 0 59 255
4.96847 -30.2529 41.4409 0 4 255
5.24694 -7.53495 30.422 54 255 201
6.07849 -11.2419 30.4778 255 57 0
3.89846 -10.5325 29.6787 114 255 141
11.6668 -63.0959 25.5736 0 230 255
17.3096 -70.546 38.4205 0 146 255
10.4777 -68.1151 36.8118 253 255 2
13.4246 -67.6938 36.7493 180 255 75
11.533 -66.727 35.7857 255 243 0
12.5182 -65.5287 34.6166 255 255 0
9.10923 -67.138 33.5668 255 150 0
6.44192 -62.2778 51.467 107 255 148
6.27456 -63.5569 52.6498 94 255 161
7.62799 -64.5641 50.2938 197 255 58
6.5716 -71.2383 45.4706 118 255 137
6.59241 -69.6719 47.5471 142 255 113
6.89296 -72.4508 47.0657 162 255 93
7.753 -73.29 48.7907 161 255 94
8.70482 -74.1484 47.0399 112 255 143
11.7685 -74.1219 46.6581 0 153 255
10.3425 -74.1943 45.6046 116 255 139
14.4033 -71.6507 41.5478 176 255 79
15.3718 -73.071 42.4308 0 215 255
26.6177 33.2282 33.9543 0 0 218
6.73332 -46.8527 49.6677 0 72 255
5.76959 -49.0264 51.7398 0 79 255
5.9032 -46.3547 46.4409 0 253 255
8.06279 -48.3105 45.5468 65 255 190
6.73505 -47.0207 44.9677 26 255 229
7.00907 -45.977 41.275 0 125 255
9.06957 -47.1382 41.8206 0 180 255
8.07742 -38.0298 41.676 0 122 255
7.07937 -40.0586 41.8481 0 208 255
5.91023 -39.5616 41.1685 0 201 255
7.75261 -18.1513 30.4056 255 243 0
7.75293 -18.7631 31.7177 251 255 4
8.23969 -21.4925 30.4575 204 255 51
9.00464 -31.0696 29.8165 176 255 79
8.22746 -28.1423 30.6405 255 189 0
7.09887 -31.1377 30.1773 255 71 0
4.49322 -31.0661 30.3309 171 255 84
5.48313 -33.8655 29.4248 255 113 0
4.43548 -36.6896 29.4571 0 201 255
6.58849 -36.7189 28.879 208 255 47
9.04036 -42.2908 25.5409 225 255 30
7.4438 -42.1411 26.6577 59 255 196
7.25867 -44.6102 24.8174 0 234 255
8.16938 -45.7777 18.3387 0 81 255
7.24527 -45.4332 16.7919 0 31 255
19.5854 -60.4569 25.9219 153 255 102
20.9916 -62.6843 26.459 236 255 19
22.3914 -63.4024 23.8088 25 255 230
7.30412 -57.1586 45.062 0 160 255
7.98252 -55.4625 44.3445 0 42 255
8.4892 -53.9163 51.3239 51 255 204
7.7106 -56.3827 50.2827 71 255 184
8.62763 -55.4127 49.234 77 255 178
7.42647 -56.0866 46.9842 36 255 219
34.7697 -76.6325 37.2342 0 31 255
12.8861 -70.6284 40.5999 255 181 0
14.4187 -69.6437 39.1853 249 255 6
10.8785 -70.187 39.1222 253 255 2
9.2847 -69.627 37.6084 203 255 52
7.04988 -69.5672 35.6243 52 255 203
7.96844 -65.1825 46.1506 209 255 46
7.30633 -66.2028 47.2476 216 255 39
6.57869 -67.6219 44.8672 118 255 137
6.64886 -70.0549 44.2036 80 255 175
6.78338 -72.7885 43.8264 77 255 178
8.96997 -73.9743 44.1635 170 255 85
7.85999 -73.4144 42.3427 143 255 112
10.2253 -72.3695 41.5133 255 214 0
9.37858 -44.3158 44.9714 0 234 255
5.89814 -45.5554 44.758 80 255 175
7.22136 -44.2865 44.0037 117 255 138
6.0002 -44.4887 42.7473 22 255 233
5.74748 -44.4007 41.4559 0 169 255
5.49646 -37.1008 40.8505 0 130 255
6.5495 -38.7808 39.6654 0 108 255
3.84317 -20.1908 32.9412 107 255 148
6.15082 -24.1543 27.9833 201 0 0
8.07796 -24.5276 29.24 255 169 0
7.45387 -27.6571 28.1188 255 19 0
8.68821 -30.9254 28.4463 255 196 0
9.23358 -34.1077 28.663 148 255 107
8.90549 -36.8958 28.6425 214 255 41
9.16975 -36.8389 27.2693 199 255 56
8.84493 -39.4586 25.7326 255 234 0
8.52507 -41.9402 23.8888 246 255 9
8.60185 -44.2328 21.9508 65 255 190
6.86092 -41.6393 22.6798 47 255 208
18.4857 -66.4417 33.2733 0 254 255
5.75617 -66.4614 40.7266 0 198 255
5.19856 -67.2876 39.4574 0 149 255
5.76355 -59.2605 53.8391 0 60 255
5.40925 -60.227 52.147 0 255 255
6.55229 -61.3099 50.2732 79 255 176
6.11676 -58.1742 49.4276 51 255 204
6.56427 -60.2031 48.9765 105 255 150
8.44423 -62.3978 48.0517 197 255 58
8.53108 -64.0543 45.0738 235 255 20
6.77502 -65.0432 42.5823 149 255 106
29.1028 30.8196 37.9337 0 0 204
6.34785 -35.7181 42.4666 0 151 255
4.81721 -35.2251 41.9621 0 166 255
7.37229 -8.85931 32.7157 177 255 78
7.23781 -12.5615 32.7401 255 198 0
7.51763 -11.845 31.6041 212 255 43
7.02004 -14.7627 30.3905 255 153 0
6.01442 -17.6641 29.187 248 0 0
3.64276 -17.2132 28.4039 255 225 0
4.98707 -20.7637 27.9997 128 0 0
3.76088 -23.9219 27.163 255 227 0
11.0305 -64.6192 28.0992 170 255 85
14.4811 -62.3015 28.6029 255 63 0
13.3075 -62.8802 26.923 255 166 0
15.6158 -61.2057 25.7584 66 255 189
4.0705 -7.42267 33.5701 0 223 255
6.37516 -6.46415 33.3185 12 255 243
7.43968 -5.68849 32.306 0 110 255
15.4926 -68.7595 37.7603 58 255 197
16.263 -67.99 36.1704 0 229 255
17.2681 -67.0947 34.8224 0 252 255
15.3963 -65.5578 33.9315 203 255 52
13.621 -64.3899 33.2409 255 253 0
11.308 -64.5235 31.2935 255 178 0
5.09201 -68.1819 37.6827 0 106 255
5.26796 -68.8098 34.0995 0 139 255
5.82238 -68.9519 32.4434 18 255 237
7.13212 -68.2712 31.1918 66 255 189
8.4449 -67.1539 30.1569 61 255 194
9.52731 -65.7905 29.188 41 255 214
5.41694 -62.4994 54.7358 0 95 255
6.10751 -64.6551 53.6896 0 143 255
7.40518 -66.5903 52.4235 0 164 255
6.89793 -67.3002 48.5638 182 255 73
7.05355 -68.313 49.9439 124 255 131
7.72978 -68.9221 51.3602 0 181 255
8.24537 -71.309 50.5291 0 217 255
9.42967 -73.3698 50.2453 0 121 255
12.575 -73.8868 44.0464 64 255 191
7.19296 -49.7617 49.2445 50 255 205
8.08498 -49.5973 47.6383 68 255 187
5.9559 -48.1156 48.4512 19 255 236
6.10942 -46.3658 47.9724 0 159 255
8.1755 -45.2397 47.5646 0 98 255
7.5494 -52.0818 52.985 0 90 255
7.18885 -51.2852 51.7716 0 196 255
7.17315 -50.4592 50.5286 47 255 208
9.42034 -49.8659 46.3452 82 255 173
10.6302 -50.2139 44.7752 0 178 255
7.95646 -47.1903 43.3835 82 255 173
10.7208 -48.4871 42.6108 0 116 255
9.28058 -40.7295 41.7259 0 249 255
6.04543 -42.1517 41.8014 69 255 186
6.71206 -43.7963 40.0632 0 102 255
5.00457 -20.0404 39.6058 0 39 255
5.2582 -23.4833 39.9662 0 30 255
5.26571 -26.9861 40.6446 0 26 255
6.4749 -16.0158 32.4266 255 119 0
5.554 -19.4354 31.9126 255 70 0
4.72766 -22.7562 31.6264 255 80 0
8.45085 -24.8645 30.6424 218 255 37
6.49191 -25.2957 31.0464 255 81 0
4.42495 -25.8497 31.8072 183 255 72
4.36364 -28.8243 32.1579 0 231 255
7.20361 -39.5134 27.9435 78 255 177
8.74256 -46.3143 19.7736 0 153 255
19.0319 -62.2039 28.6834 255 156 0
13.1582 -40.6713 41.2442 0 0 145
12.5022 -41.5505 42.0351 0 0 145
4.23125 -33.7668 25.6547 0 0 218
4.94755 -32.2034 26.178 0 13 255
3.4045 -32.1972 25.7961 0 0 218
3.80454 -35.1459 25.0613 0 0 209
5.34759 -35.152 25.4432 0 0 255
4.23125 -33.7668 25.6547 0 0 209
3.6322 -36.504 24.367 0 0 159
3.80454 -35.1459 25.0613 0 0 159
9.27543 -59.2405 43.494 0 0 165
9.45211 -60.5866 42.6949 0 0 165
9.19201 -60.3194 43.6993 0 0 188
5.89389 -29.2848 41.1075 0 0 142
5.78069 -30.6666 41.4387 0 0 142
3.25337 -8.73319 29.6446 0 0 209
4.5727 -9.03374 30.0503 0 0 254
3.92761 -7.23439 30.0163 0 0 209
16.9456 -70.8515 39.1384 0 0 177
17.4849 -71.8284 38.7735 0 0 158
17.121 -72.1339 39.4914 0 0 158
16.817 -72.1848 40.2094 0 0 179
15.7278 -72.4317 41.0552 0 0 179
15.4925 -71.4038 40.702 0 0 208
17.121 -72.1339 39.4914 0 0 135
16.817 -72.1848 40.2094 0 0 135
27.2643 32.7154 35.0427 0 0 174
26.4424 32.4887 34.4427 0 0 156
27.0891 31.9759 35.5311 0 0 156
8.77661 -46.3947 40.8127 0 0 142
7.72525 -45.6757 40.6712 0 0 142
4.41847 -23.8652 35.1602 0 0 163
4.16235 -22.1958 34.7009 0 0 163
4.54174 -25.0517 34.0246 0 0 164
4.41847 -23.8652 35.1602 0 0 164
7.59357 -45.5841 22.8349 0 0 184
6.81081 -45.5976 23.5227 0 0 184
8.04143 -44.5967 24.1296 0 0 217
8.46388 -45.6159 22.309 0 0 150
7.59357 -45.5841 22.8349 0 0 150
5.82716 -44.5131 17.1719 0 0 152
6.50955 -44.5765 17.9842 0 0 152
6.70284 -45.2412 16.0342 0 0 148
5.82716 -44.5131 17.1719 0 0 148
22.0959 -61.9074 23.9099 0 0 205
20.9884 -61.9296 24.8654 0 0 248
20.6929 -60.4347 24.9664 0 0 205
9.89347 -53.2392 44.2008 0 0 149
9.33252 -54.0098 44.3358 0 0 149
9.76758 -53.1565 44.9857 0 0 163
10.6289 -52.4728 44.0273 0 0 136
9.89347 -53.2392 44.2008 0 0 136
34.8748 -77.5989 35.4847 0 0 159
34.5845 -76.2427 35.8852 0 0 159
6.59694 -37.421 39.4821 0 0 143
5.76804 -36.648 39.9557 0 0 143
4.00947 -17.2347 33.6829 0 0 193
3.83491 -15.9238 34.5172 0 0 193
3.97221 -15.4323 33.3901 0 0 231
3.99497 -18.467 32.7485 0 0 228
3.85767 -18.9585 33.8756 0 0 191
4.00947 -17.2347 33.6829 0 0 191
18.166 -65.8881 31.7086 0 0 198
19.1155 -66.938 32.0231 0 0 198
17.5363 -65.3918 32.9588 0 0 238
20.5986 -67.06 28.3592 0 0 212
19.6981 -66.5562 29.4742 0 0 212
19.6532 -64.7984 29.8179 0 4 255
20.751 -67.7395 26.7532 0 0 170
20.5986 -67.06 28.3592 0 0 170
6.38143 -64.0058 40.9118 0 0 162
5.76101 -65.2844 40.4784 0 0 162
6.37659 -65.1828 41.1599 0 0 184
6.6164 -58.1885 54.0427 0 0 138
6.48939 -58.6416 54.6555 0 0 138
29.8491 30.2269 38.7617 0 0 149
29.1484 29.9979 38.3383 0 0 149
29.8948 29.4051 39.1663 0 0 134
29.7772 30.8183 38.2527 0 0 130
29.8491 30.2269 38.7617 0 0 130
7.77037 -33.7917 41.3576 0 0 153
7.6437 -32.5693 41.0885 0 0 153
6.4651 -34.6057 42.2559 0 0 212
7.65312 -34.9041 41.5682 0 0 181
7.77037 -33.7917 41.3576 0 0 181
4.80447 -33.5788 40.9049 0 0 140
4.58108 -32.4261 41.1011 0 0 140
2.88944 -18.7879 27.9159 0 6 255
2.28649 -17.0047 28.0164 0 0 214
1.53318 -18.5794 27.5285 0 0 214
14.8218 -61.2494 25.0854 0 0 180
13.6413 -62.1508 25.666 0 0 210
12.8473 -62.1945 24.993 0 0 180
16.7517 -60.4948 25.2261 0 0 146
14.8218 -61.2494 25.0854 0 0 146
3.96158 -6.40357 34.3873 0 0 147
3.92763 -7.97333 34.5337 0 0 147
6.7278 -4.96462 33.1681 0 0 152
5.51256 -5.34478 33.3579 0 0 152
7.26006 -4.57679 32.6618 0 0 157
6.90742 -6.07632 32.8123 0 0 176
6.7278 -4.96462 33.1681 0 0 157
5.11222 -66.289 38.2821 0 0 174
5.14528 -67.7348 38.57 0 0 202
5.16549 -65.8419 39.1695 0 0 174
5.43076 -67.1921 34.8324 0 0 144
5.31038 -68.6569 34.9686 0 0 144
5.37931 -67.7816 32.1485 0 0 143
5.6338 -67.5422 33.0387 0 0 143
6.03418 -67.4413 31.5228 0 0 166
6.47725 -68.6115 31.8176 0 0 190
5.37931 -67.7816 32.1485 0 0 166
7.21797 -67.0388 29.3848 0 0 145
6.68813 -67.1616 30.1093 0 0 145
7.75917 -66.3571 28.9003 0 0 175
8.98611 -66.4722 29.6724 0 0 203
7.21797 -67.0388 29.3848 0 0 175
8.48187 -65.9145 28.3058 0 0 146
7.75917 -66.3571 28.9003 0 0 146
5.37658 -61.8787 54.0946 0 0 174
5.64399 -61.3236 54.9984 0 0 156
5.60363 -60.7029 54.3573 0 0 156
10.8856 -73.8217 48.9534 0 0 156
10.5531 -73.4954 49.8687 0 0 156
9.76217 -73.696 49.33 0 0 175
11.5425 -73.9708 47.8647 0 0 143
10.8856 -73.8217 48.9534 0 0 143
13.8942 -74.4231 45.411 0 0 141
12.9985 -74.2704 46.1999 0 0 141
12.6642 -74.2746 45.8691 0 0 152
14.5866 -74.5939 44.7967 0 0 128
13.8942 -74.4231 45.411 0 0 128
15.4018 -73.7244 42.9702 0 0 138
16.1578 -74.0032 42.0503 0 0 138
7.5921 -46.2489 48.4587 0 0 166
6.42137 -46.6092 48.8201 0 0 189
7.90405 -46.4924 49.3063 0 0 166
8.62514 -45.6859 48.2548 0 0 162
7.14246 -45.8027 47.7685 0 0 184
7.5921 -46.2489 48.4587 0 0 162
6.70671 -50.9722 53.1795 0 0 139
6.91206 -51.4609 53.8379 0 0 139
6.52643 -50.5739 52.5727 0 0 156
7.36913 -51.6835 52.3783 0 0 174
6.70671 -50.9722 53.1795 0 0 156
10.5762 -49.4708 43.641 0 0 158
11.0738 -50.3504 43.959 0 0 158
10.1326 -49.3343 44.4571 0 0 177
11.43 -48.4633 41.8636 0 0 163
9.8952 -47.8126 42.2157 0 0 186
10.6044 -47.7889 41.4686 0 0 163
11.6931 -49.5914 42.1351 0 0 143
11.43 -48.4633 41.8636 0 0 143
9.92016 -39.6992 41.3118 0 0 147
11.0161 -40.0228 41.1032 0 0 147
6.96032 -39.8452 39.4178 0 0 146
7.71456 -39.2828 38.6537 0 0 146
4.62156 -19.3982 38.635 0 0 152
4.83267 -18.2457 39.388 0 0 152
4.9649 -24.5679 39.523 0 0 145
4.75015 -22.7611 39.2601 0 0 145
4.96865 -26.3193 39.8622 0 0 168
5.26195 -25.2347 40.3054 0 0 193
4.9649 -24.5679 39.523 0 0 168
4.94403 -28.1081 40.1596 0 0 145
4.96865 -26.3193 39.8622 0 0 145
4.2951 -32.8783 31.5844 0 0 180
4.49839 -31.4001 31.4207 0 0 180
4.28993 -32.5443 30.4947 0 0 211
4.46354 -34.2908 31.7073 0 0 149
4.2951 -32.8783 31.5844 0 0 149
4.32192 -35.4899 31.0132 0 0 149
4.46354 -34.2908 31.7073 0 0 149
4.35807 -38.1397 29.926 0 0 146
4.55703 -37.994 28.9399 0 0 146
6.15833 -42.0402 27.0578 0 0 158
6.27194 -43.3978 26.3782 0 0 158
8.02684 -46.9356 17.7521 0 0 138
8.44516 -46.7593 17.1451 0 0 138
21.2762 -64.5287 26.1754 0 0 172
21.534 -64.9449 24.6612 0 0 172
11.5477 -42.3805 42.6249 0 0 174
10.6346 -43.0528 43.4365 0 0 201
12.5818 -42.4959 42.9558 0 0 174
10.555 -42.1074 42.5158 0 0 194
11.5477 -42.3805 42.6249 0 0 169
12.5022 -41.5505 42.0351 0 0 169
3.78842 -12.3309 34.0021 0 0 238
3.85167 -12.8312 35.198 0 0 198
3.84243 -11.0407 34.9757 0 0 198
4.82568 -37.8356 24.1396 0 0 185
5.79793 -39.2348 23.8769 0 0 185
5.89313 -37.9302 24.5872 0 0 219
4.82568 -37.8356 24.1396 0 0 158
3.6322 -36.504 24.367 0 0 158
8.84911 -61.9086 41.9251 0 0 169
7.66327 -63.028 41.2716 0 0 169
8.18285 -62.7849 42.2468 0 0 193
8.84911 -61.9086 41.9251 0 0 143
9.45211 -60.5866 42.6949 0 0 143
6.99144 -57.2025 52.8238 0 0 174
6.78585 -57.6869 53.38 0 0 156
7.67484 -56.6321 53.6901 0 0 156
6.58763 -32.2868 41.7408 0 0 150
7.6437 -32.5693 41.0885 0 0 150
5.67527 -31.9383 41.6926 0 0 163
5.66999 -33.1448 41.997 0 0 186
6.58763 -32.2868 41.7408 0 0 163
4.86305 -31.5246 41.6948 0 0 183
5.67527 -31.9383 41.6926 0 0 162
5.78069 -30.6666 41.4387 0 0 162
4.6865 -31.1544 40.8472 0 0 159
4.58108 -32.4261 41.1011 0 0 159
4.86305 -31.5246 41.6948 0 0 179
1.2613 -20.2341 26.8779 0 0 155
1.53318 -18.5794 27.5285 0 0 155
1.6001 -22.0769 26.9235 0 0 155
1.2613 -20.2341 26.8779 0 0 155
9.32894 -63.6016 25.4187 0 0 195
10.4992 -63.9461 26.0585 0 0 233
8.16135 -64.4518 25.9036 0 0 195
10.4336 -62.8184 25.1656 0 0 178
9.32894 -63.6016 25.4187 0 0 178
8.09575 -63.3241 25.0107 0 0 148
12.8473 -62.1945 24.993 0 0 156
10.4336 -62.8184 25.1656 0 0 156
17.9222 -71.6421 37.9471 0 0 142
17.4849 -71.8284 38.7735 0 0 142
17.7188 -70.3168 37.6354 0 0 142
17.9222 -71.6421 37.9471 0 0 142
16.2121 -73.1419 41.4967 0 0 166
14.8876 -72.3609 41.9893 0 0 190
15.7278 -72.4317 41.0552 0 0 166
16.1578 -74.0032 42.0503 0 0 142
16.2121 -73.1419 41.4967 0 0 142
25.7456 33.2547 33.5579 0 0 136
26.4424 32.4887 34.4427 0 0 136
25.8224 34.0598 33.2546 0 0 135
25.7456 33.2547 33.5579 0 0 135
7.14248 -47.2935 50.548 0 0 155
6.22034 -47.5585 49.9696 0 0 172
6.6295 -47.9993 50.8498 0 0 155
8.18803 -47.0871 50.0592 0 0 143
7.14248 -47.2935 50.548 0 0 143
7.90405 -46.4924 49.3063 0 0 144
8.18803 -47.0871 50.0592 0 0 144
6.59389 -48.7395 52.3661 0 0 136
5.8168 -49.4445 52.5568 0 0 136
6.66062 -48.3803 51.584 0 0 136
6.59389 -48.7395 52.3661 0 0 136
6.6295 -47.9993 50.8498 0 0 152
5.73848 -48.6454 51.0056 0 0 169
6.66062 -48.3803 51.584 0 0 152
9.80687 -46.9753 41.0855 0 0 165
8.03932 -46.5576 41.5478 0 0 189
8.77661 -46.3947 40.8127 0 0 165
10.6044 -47.7889 41.4686 0 0 143
9.80687 -46.9753 41.0855 0 0 143
7.57839 -39.0442 41.7621 0 0 206
8.81955 -39.3637 41.3729 0 0 177
9.31858 -38.3493 41.2868 0 0 177
5.63354 -38.0087 28.6508 0 0 179
4.55703 -37.994 28.9399 0 0 179
5.51199 -36.7043 29.168 0 0 209
6.17937 -44.6324 25.4581 0 0 192
6.27194 -43.3978 26.3782 0 0 192
7.35124 -43.3756 25.7376 0 0 229
5.98223 -45.7048 24.2393 0 0 158
6.17937 -44.6324 25.4581 0 0 158
5.98223 -45.7048 24.2393 0 0 154
6.81081 -45.5976 23.5227 0 0 154
6.97161 -44.7487 18.7576 0 0 180
7.73539 -44.8087 19.4678 0 0 211
6.53761 -43.7798 19.8867 0 0 180
7.70733 -45.6054 17.5653 0 0 203
6.97161 -44.7487 18.7576 0 0 175
6.50955 -44.5765 17.9842 0 0 175
7.98311 -46.5871 16.3717 0 0 169
8.44516 -46.7593 17.1451 0 0 169
7.70733 -45.6054 17.5653 0 0 195
8.06108 -46.3134 15.6863 0 0 140
7.98311 -46.5871 16.3717 0 0 140
8.06108 -46.3134 15.6863 0 0 149
6.70284 -45.2412 16.0342 0 0 149
22.2339 -65.3039 23.3361 0 0 227
21.534 -64.9449 24.6612 0 0 227
21.6915 -63.0433 25.1339 0 27 255
7.81307 -57.3275 44.312 0 0 153
8.66868 -58.2348 44.0302 0 0 153
8.15972 -58.0659 44.7801 0 0 170
8.15228 -56.4794 43.9533 0 0 152
7.81307 -57.3275 44.312 0 0 152
7.64332 -56.3105 44.7032 0 0 169
8.34055 -55.5806 43.5424 0 0 135
8.15228 -56.4794 43.9533 0 0 135
8.72047 -54.7775 43.9477 0 0 150
8.59458 -54.6948 44.7326 0 0 165
9.33252 -54.0098 44.3358 0 0 150
8.34055 -55.5806 43.5424 0 0 135
8.72047 -54.7775 43.9477 0 0 135
35.3458 -77.5001 36.6257 0 0 166
35.9079 -77.2833 37.4939 0 0 143
35.3318 -76.4157 38.1025 0 0 166
35.3458 -77.5001 36.6257 0 0 146
34.8748 -77.5989 35.4847 0 0 146
28.1715 32.8493 35.4118 0 0 136
28.6712 32.2291 36.572 0 0 136
7.09445 -44.8876 40.7616 0 0 156
7.72525 -45.6757 40.6712 0 0 156
6.37828 -45.1889 41.3654 0 0 175
7.12346 -38.261 38.8895 0 0 167
6.02298 -37.9408 40.2579 0 0 191
6.59694 -37.421 39.4821 0 0 167
7.71456 -39.2828 38.6537 0 0 145
7.12346 -38.261 38.8895 0 0 145
4.0322 -14.6744 35.5273 0 0 163
3.85167 -12.8312 35.198 0 0 163
4.0322 -14.6744 35.5273 0 0 162
3.83491 -15.9238 34.5172 0 0 162
4.00156 -20.5855 34.3155 0 0 159
3.85767 -18.9585 33.8756 0 0 159
4.00396 -21.8011 33.3266 0 0 240
4.16235 -22.1958 34.7009 0 0 200
4.00156 -20.5855 34.3155 0 0 200
5.7957 -40.3897 23.0546 0 0 182
6.86315 -40.4843 23.5022 0 0 214
5.79793 -39.2348 23.8769 0 0 182
5.93375 -41.593 22.0831 0 0 151
5.7957 -40.3897 23.0546 0 0 151
6.15399 -42.6932 21.0417 0 0 183
7.08116 -42.7395 21.6383 0 0 215
5.93375 -41.593 22.0831 0 0 183
6.53761 -43.7798 19.8867 0 0 151
6.15399 -42.6932 21.0417 0 0 151
19.2081 -68.8073 31.779 0 0 161
18.9158 -68.1637 33.0706 0 0 161
19.2081 -68.8073 31.779 0 0 167
19.1155 -66.938 32.0231 0 0 167
19.249 -65.8644 30.8529 0 0 205
18.166 -65.8881 31.7086 0 0 205
17.6698 -64.3183 31.7886 0 0 248
19.249 -65.8644 30.8529 0 0 163
19.6981 -66.5562 29.4742 0 0 163
5.4822 -65.6975 39.8438 0 0 155
5.47737 -66.8745 40.092 0 0 172
5.76101 -65.2844 40.4784 0 0 155
5.16549 -65.8419 39.1695 0 0 141
5.4822 -65.6975 39.8438 0 0 141
6.38143 -64.0058 40.9118 0 0 139
7.66327 -63.028 41.2716 0 0 139
9.27543 -59.2405 43.494 0 0 138
8.66868 -58.2348 44.0302 0 0 138
5.8173 -59.7042 54.5501 0 0 138
6.48939 -58.6416 54.6555 0 0 138
5.54988 -60.2593 53.6463 0 0 167
5.60363 -60.7029 54.3573 0 0 151
5.8173 -59.7042 54.5501 0 0 151
5.933 -58.7589 53.1765 0 0 180
6.6164 -58.1885 54.0427 0 0 159
6.78585 -57.6869 53.38 0 0 159
27.7899 31.352 36.5362 0 0 138
27.0891 31.9759 35.5311 0 0 138
28.3858 30.6605 37.4375 0 0 135
29.1484 29.9979 38.3383 0 0 135
28.5069 31.5111 37.0324 0 0 168
27.7899 31.352 36.5362 0 0 152
28.3858 30.6605 37.4375 0 0 152
29.2671 31.5376 37.4733 0 0 149
28.6712 32.2291 36.572 0 0 149
28.5069 31.5111 37.0324 0 0 163
29.2671 31.5376 37.4733 0 0 132
29.7772 30.8183 38.2527 0 0 132
9.58531 -37.3299 40.8314 0 0 149
9.31858 -38.3493 41.2868 0 0 149
8.42361 -37.1228 41.4154 0 0 144
9.58531 -37.3299 40.8314 0 0 144
7.3982 -36.9144 41.6678 0 0 160
7.05201 -37.8214 41.9284 0 0 181
8.42361 -37.1228 41.4154 0 0 160
7.55883 -35.9669 41.8107 0 0 149
7.65312 -34.9041 41.5682 0 0 149
6.18723 -36.6655 42.3237 0 0 198
7.3982 -36.9144 41.6678 0 0 172
7.55883 -35.9669 41.8107 0 0 172
5.42841 -35.7101 40.5115 0 0 165
5.76804 -36.648 39.9557 0 0 165
5.15683 -36.1629 41.4063 0 0 188
4.83426 -34.7932 40.9116 0 0 169
4.78742 -34.0107 41.9554 0 0 193
4.80447 -33.5788 40.9049 0 0 169
5.42841 -35.7101 40.5115 0 0 145
4.83426 -34.7932 40.9116 0 0 145
2.44499 -10.2702 29.1801 0 0 170
3.25337 -8.73319 29.6446 0 0 170
3.02124 -12.0289 29.2113 0 0 169
2.44499 -10.2702 29.1801 0 0 169
3.57555 -13.8285 29.0926 0 0 217
4.45278 -12.3321 29.56 0 12 255
3.02124 -12.0289 29.2113 0 0 217
2.89338 -15.3693 28.5739 0 0 168
2.28649 -17.0047 28.0164 0 0 168
4.32493 -15.6725 28.9226 0 14 255
3.57555 -13.8285 29.0926 0 0 219
2.89338 -15.3693 28.5739 0 0 219
2.41247 -23.8565 26.7911 0 0 216
2.94851 -22.1423 27.2955 0 9 255
1.6001 -22.0769 26.9235 0 0 216
2.92291 -25.6419 26.7552 0 0 167
2.41247 -23.8565 26.7911 0 0 167
3.61302 -27.3828 26.7042 0 0 226
4.45098 -25.6627 27.112 0 24 255
2.92291 -25.6419 26.7552 0 0 226
3.10287 -28.9978 26.3335 0 0 219
4.63095 -29.0187 26.6902 0 15 255
3.61302 -27.3828 26.7042 0 0 219
2.59681 -30.6582 25.8853 0 0 171
3.10287 -28.9978 26.3335 0 0 171
3.4045 -32.1972 25.7961 0 0 168
2.59681 -30.6582 25.8853 0 0 168
18.7366 -60.1204 25.3078 0 0 179
17.6006 -60.8313 25.8402 0 0 209
16.7517 -60.4948 25.2261 0 0 179
20.6929 -60.4347 24.9664 0 0 150
18.7366 -60.1204 25.3078 0 0 150
3.78198 -9.53222 34.6385 0 0 151
3.84243 -11.0407 34.9757 0 0 151
3.92484 -8.98156 33.675 0 0 204
3.78198 -9.53222 34.6385 0 0 176
3.92763 -7.97333 34.5337 0 0 176
4.36023 -5.82404 33.4837 0 0 148
3.96158 -6.40357 34.3873 0 0 148
5.22283 -6.94341 33.4443 0 0 219
4.36023 -5.82404 33.4837 0 0 186
5.51256 -5.34478 33.3579 0 0 186
7.32078 -4.17671 31.9266 0 0 138
7.26006 -4.57679 32.6618 0 0 138
6.90057 -5.38902 31.6431 0 0 142
7.32078 -4.17671 31.9266 0 0 142
6.72973 -6.62999 31.2098 0 0 166
7.26884 -6.92945 31.8727 0 0 189
6.90057 -5.38902 31.6431 0 0 166
5.8042 -6.31225 30.7011 0 0 177
6.17247 -7.85268 30.9307 0 0 206
6.72973 -6.62999 31.2098 0 0 177
4.72154 -5.99207 30.2631 0 0 151
5.8042 -6.31225 30.7011 0 0 151
3.92761 -7.23439 30.0163 0 0 157
4.72154 -5.99207 30.2631 0 0 157
16.8103 -69.4235 37.3053 0 0 166
17.7188 -70.3168 37.6354 0 0 166
16.4011 -69.6527 38.0904 0 0 189
17.1955 -69.0388 36.5104 0 0 172
16.8103 -69.4235 37.3053 0 0 172
15.8778 -68.3747 36.9654 0 0 198
17.5959 -68.8971 35.5587 0 0 148
17.1955 -69.0388 36.5104 0 0 148
18.0984 -68.4495 34.8847 0 0 177
17.5959 -68.8971 35.5587 0 0 177
16.7655 -67.5423 35.4964 0 0 207
18.307 -68.4902 33.8452 0 0 152
18.0984 -68.4495 34.8847 0 0 152
17.8769 -66.7682 34.0479 0 0 227
18.9158 -68.1637 33.0706 0 0 191
18.307 -68.4902 33.8452 0 0 191
5.13358 -66.6359 37.4397 0 0 146
5.11222 -66.289 38.2821 0 0 146
5.2224 -68.3429 36.7601 0 0 148
5.13358 -66.6359 37.4397 0 0 148
5.82215 -69.2527 36.3444 0 0 155
5.69176 -69.0917 37.2669 0 0 173
5.2224 -68.3429 36.7601 0 0 155
6.20134 -69.0355 35.7309 0 0 147
6.6707 -69.7843 36.2378 0 0 160
5.82215 -69.2527 36.3444 0 0 147
6.15892 -69.1885 34.8619 0 0 170
6.20134 -69.0355 35.7309 0 0 153
5.31038 -68.6569 34.9686 0 0 153
5.35659 -67.4711 33.8668 0 0 146
5.43076 -67.1921 34.8324 0 0 146
5.54517 -68.8808 33.2714 0 0 188
5.35659 -67.4711 33.8668 0 0 165
5.6338 -67.5422 33.0387 0 0 165
6.03174 -67.7203 30.6268 0 0 143
6.03418 -67.4413 31.5228 0 0 143
7.78851 -67.7125 30.6744 0 0 198
6.03174 -67.7203 30.6268 0 0 172
6.68813 -67.1616 30.1093 0 0 172
9.23348 -65.3288 27.7614 0 0 176
10.2789 -65.2048 28.6436 0 0 204
8.48187 -65.9145 28.3058 0 0 176
8.38402 -65.4174 26.9835 0 0 170
10.1811 -64.7077 27.3213 0 0 195
9.23348 -65.3288 27.7614 0 0 170
7.4092 -64.6819 26.3503 0 0 151
8.38402 -65.4174 26.9835 0 0 151
8.16135 -64.4518 25.9036 0 0 141
7.4092 -64.6819 26.3503 0 0 141
5.87128 -61.9161 55.6419 0 0 138
5.64399 -61.3236 54.9984 0 0 138
5.6643 -63.0914 55.3431 0 0 138
5.87128 -61.9161 55.6419 0 0 138
6.00958 -64.1692 54.82 0 0 159
5.6643 -63.0914 55.3431 0 0 159
5.76222 -63.5772 54.2127 0 0 179
6.38859 -65.0765 54.2631 0 0 135
6.00958 -64.1692 54.82 0 0 135
7.03743 -66.0441 53.6301 0 0 157
6.38859 -65.0765 54.2631 0 0 157
6.75634 -65.6227 53.0566 0 0 177
7.76163 -66.919 53.0032 0 0 138
7.03743 -66.0441 53.6301 0 0 138
7.92394 -68.0849 52.4715 0 0 157
7.76163 -66.919 53.0032 0 0 157
7.56748 -67.7562 51.8919 0 0 175
8.10663 -69.1663 51.9897 0 0 137
7.92394 -68.0849 52.4715 0 0 137
8.36443 -70.3598 51.5742 0 0 158
8.10663 -69.1663 51.9897 0 0 158
7.98758 -70.1155 50.9446 0 0 177
8.866 -71.4582 51.0898 0 0 140
8.36443 -70.3598 51.5742 0 0 140
9.45815 -72.4886 50.9479 0 0 155
8.866 -71.4582 51.0898 0 0 155
8.83752 -72.3394 50.3872 0 0 173
10.2811 -73.1396 50.7803 0 0 138
9.45815 -72.4886 50.9479 0 0 138
10.2811 -73.1396 50.7803 0 0 138
10.5531 -73.4954 49.8687 0 0 138
12.3794 -74.0206 46.9864 0 0 151
11.5425 -73.9708 47.8647 0 0 151
10.9316 -74.0721 47.5364 0 0 167
12.3794 -74.0206 46.9864 0 0 133
12.9985 -74.2704 46.1999 0 0 133
14.0033 -74.1323 43.778 0 0 168
13.9734 -73.4789 43.2386 0 0 192
15.4018 -73.7244 42.9702 0 0 168
14.4958 -74.4025 44.2949 0 0 155
13.0674 -74.157 44.5633 0 0 173
14.0033 -74.1323 43.778 0 0 155
14.5866 -74.5939 44.7967 0 0 130
14.4958 -74.4025 44.2949 0 0 130
34.7889 -75.8005 38.4566 0 0 137
35.3318 -76.4157 38.1025 0 0 137
34.4513 -75.5346 37.3088 0 0 172
34.7889 -75.8005 38.4566 0 0 172
34.4706 -74.7026 38.5312 0 0 146
34.5845 -76.2427 35.8852 0 0 150
34.4513 -75.5346 37.3088 0 0 150
27.5249 33.3621 34.3234 0 0 157
27.2643 32.7154 35.0427 0 0 177
28.1715 32.8493 35.4118 0 0 157
26.7544 33.7667 33.4477 0 0 133
27.5249 33.3621 34.3234 0 0 133
25.8224 34.0598 33.2546 0 0 133
26.7544 33.7667 33.4477 0 0 133
9.90626 -45.52 47.6654 0 0 145
8.62514 -45.6859 48.2548 0 0 145
9.42747 -45.039 46.9205 0 0 147
9.90626 -45.52 47.6654 0 0 147
8.82776 -44.8826 46.2612 0 0 168
7.57578 -45.0833 46.9053 0 0 192
9.42747 -45.039 46.9205 0 0 168
10.029 -44.5771 45.6239 0 0 170
8.17732 -44.6214 45.6087 0 0 195
8.82776 -44.8826 46.2612 0 0 170
11.1156 -44.2187 44.9587 0 0 143
10.029 -44.5771 45.6239 0 0 143
12.2606 -43.6449 44.3567 0 0 172
10.5236 -43.7421 44.3695 0 0 198
11.1156 -44.2187 44.9587 0 0 172
13.2416 -43.0866 43.5549 0 0 145
12.2606 -43.6449 44.3567 0 0 145
12.5818 -42.4959 42.9558 0 0 147
13.2416 -43.0866 43.5549 0 0 147
8.3415 -55.055 54.0116 0 0 141
7.67484 -56.6321 53.6901 0 0 141
8.04687 -54.5643 53.5248 0 0 141
8.3415 -55.055 54.0116 0 0 141
8.24139 -54.0111 53.0574 0 0 158
8.07494 -55.5945 52.6664 0 0 177
8.04687 -54.5643 53.5248 0 0 158
7.88136 -52.5313 53.4504 0 0 136
6.91206 -51.4609 53.8379 0 0 136
7.90943 -53.5616 52.592 0 0 176
8.24139 -54.0111 53.0574 0 0 157
7.88136 -52.5313 53.4504 0 0 157
6.47922 -50.1558 51.7557 0 0 184
6.52643 -50.5739 52.5727 0 0 162
5.8168 -49.4445 52.5568 0 0 162
10.7797 -51.3868 43.9895 0 0 157
10.6289 -52.4728 44.0273 0 0 157
10.4793 -51.3 44.8129 0 0 175
10.7797 -51.3868 43.9895 0 0 139
11.0738 -50.3504 43.959 0 0 139
11.1191 -49.487 42.8768 0 0 159
10.5762 -49.4708 43.641 0 0 159
10.1779 -48.4709 43.375 0 0 180
11.1191 -49.487 42.8768 0 0 139
11.6931 -49.5914 42.1351 0 0 139
12.1306 -40.2967 41.2032 0 0 148
13.1582 -40.6713 41.2442 0 0 148
10.3951 -41.0035 41.826 0 0 209
12.1306 -40.2967 41.2032 0 0 179
11.0161 -40.0228 41.1032 0 0 179
8.17998 -40.3941 41.787 0 0 202
9.92016 -39.6992 41.3118 0 0 175
8.81955 -39.3637 41.3729 0 0 175
7.57674 -44.5853 40.0653 0 0 159
7.09445 -44.8876 40.7616 0 0 159
6.22977 -44.0985 40.7595 0 0 180
6.64068 -40.2356 40.1693 0 0 160
6.22987 -39.1712 40.4169 0 0 180
6.96032 -39.8452 39.4178 0 0 160
6.64195 -41.3124 39.8622 0 0 165
5.9115 -40.6385 40.8614 0 0 189
6.64068 -40.2356 40.1693 0 0 165
7.26587 -42.2638 39.6838 0 0 143
6.64195 -41.3124 39.8622 0 0 143
7.66552 -43.3043 39.4383 0 0 174
6.31241 -42.7558 40.3087 0 0 202
7.26587 -42.2638 39.6838 0 0 174
8.52554 -44.1661 39.4547 0 0 147
7.66552 -43.3043 39.4383 0 0 147
7.57674 -44.5853 40.0653 0 0 145
8.52554 -44.1661 39.4547 0 0 145
5.67318 -18.8639 39.6523 0 0 147
4.83267 -18.2457 39.388 0 0 147
5.92024 -20.7414 39.6183 0 0 149
5.67318 -18.8639 39.6523 0 0 149
4.62334 -21.0396 39.0799 0 0 147
4.62156 -19.3982 38.635 0 0 147
5.13139 -21.7618 39.786 0 0 197
4.62334 -21.0396 39.0799 0 0 171
4.75015 -22.7611 39.2601 0 0 171
6.04705 -22.4628 39.7985 0 0 177
5.92024 -20.7414 39.6183 0 0 177
5.13139 -21.7618 39.786 0 0 207
6.13966 -24.2027 39.9549 0 0 148
6.04705 -22.4628 39.7985 0 0 148
6.14341 -25.9541 40.2941 0 0 181
6.13966 -24.2027 39.9549 0 0 181
5.26195 -25.2347 40.3054 0 0 212
6.0425 -27.6514 40.7094 0 0 147
6.14341 -25.9541 40.2941 0 0 147
5.11709 -28.6195 41.0428 0 0 202
5.89389 -29.2848 41.1075 0 0 174
6.0425 -27.6514 40.7094 0 0 174
4.79542 -29.7415 40.5577 0 0 170
5.11709 -28.6195 41.0428 0 0 195
4.94403 -28.1081 40.1596 0 0 170
4.6865 -31.1544 40.8472 0 0 141
4.79542 -29.7415 40.5577 0 0 141
4.67184 -26.2708 33.0721 0 0 197
4.54174 -25.0517 34.0246 0 0 197
4.29485 -24.6306 32.7597 0 0 236
4.64118 -27.7581 33.2475 0 0 191
4.67184 -26.2708 33.0721 0 0 191
4.3943 -27.337 31.9826 0 0 227
4.83449 -29.3344 33.5088 0 0 160
4.64118 -27.7581 33.2475 0 0 160
4.4336 -30.2792 32.3342 0 0 179
4.42843 -29.9452 31.2444 0 0 208
4.49839 -31.4001 31.4207 0 0 179
4.83449 -29.3344 33.5088 0 0 158
4.4336 -30.2792 32.3342 0 0 158
4.49635 -36.8235 30.4126 0 0 172
4.32192 -35.4899 31.0132 0 0 172
4.26106 -35.356 30.0577 0 0 199
4.49635 -36.8235 30.4126 0 0 145
4.35807 -38.1397 29.926 0 0 145
5.94109 -39.4059 28.1831 0 0 190
5.63354 -38.0087 28.6508 0 0 190
6.89605 -38.1162 28.4112 0 0 226
6.03824 -40.7264 27.7007 0 0 193
7.32371 -40.8273 27.3006 0 0 230
6.15833 -42.0402 27.0578 0 0 193
5.94109 -39.4059 28.1831 0 0 154
6.03824 -40.7264 27.7007 0 0 154
8.35271 -45.4408 21.5636 0 0 158
8.46388 -45.6159 22.309 0 0 158
8.71302 -44.4079 22.6963 0 0 177
8.42306 -46.4815 20.4749 0 0 159
8.35271 -45.4408 21.5636 0 0 159
8.6722 -45.2735 20.8622 0 0 179
7.67037 -47.1604 19.0059 0 0 143
8.42306 -46.4815 20.4749 0 0 143
8.31343 -47.2039 18.4696 0 0 160
8.45597 -46.046 19.0561 0 0 181
8.02684 -46.9356 17.7521 0 0 160
7.67037 -47.1604 19.0059 0 0 144
8.31343 -47.2039 18.4696 0 0 144
20.2964 -64.2884 27.2876 0 0 222
20.0117 -62.4441 27.5712 0 18 255
21.2762 -64.5287 26.1754 0 0 222
21.0572 -65.8376 27.2974 0 0 215
19.7928 -63.753 28.6932 0 8 255
20.2964 -64.2884 27.2876 0 0 215
20.751 -67.7395 26.7532 0 0 172
21.0572 -65.8376 27.2974 0 0 172
23.0166 -63.8584 22.3553 0 0 164
22.0959 -61.9074 23.9099 0 0 164
22.4552 -65.6505 21.6577 0 0 176
23.0166 -63.8584 22.3553 0 0 176
22.2339 -65.3039 23.3361 0 0 179
22.4552 -65.6505 21.6577 0 0 179
3 0 66 64
3 0 64 67
3 2 71 69
3 2 74 72
3 2 69 74
3 267 77 268
3 1 80 78
3 269 83 270
3 271 270 81
3 269 270 271
3 272 85 273
3 274 273 83
3 272 273 274
3 276 275 85
3 3 88 86
3 4 277 279
3 279 278 89
3 277 278 279
3 5 92 90
3 4 95 93
3 4 89 95
3 280 98 281
3 282 101 283
3 284 283 99
3 282 283 284
3 10 285 287
3 285 103 286
3 285 286 287
3 11 106 104
3 11 108 106
3 6 111 109
3 12 114 112
3 12 116 114
3 12 118 116
3 10 288 290
3 290 289 119
3 288 289 290
3 10 291 292
3 7 293 295
3 293 121 294
3 293 294 295
3 13 126 124
3 297 296 127
3 8 131 129
3 14 298 299
3 14 300 301
3 9 134 132
3 15 137 135
3 15 139 137
3 15 141 139
3 16 144 142
3 16 302 304
3 304 303 144
3 302 303 304
3 16 305 306
3 307 146 308
3 310 309 146
3 311 149 312
3 313 312 147
3 311 312 313
3 17 151 150
3 18 314 316
3 316 315 65
3 314 315 316
3 18 317 318
3 19 154 152
3 17 155 68
3 17 150 155
3 320 319 156
3 21 159 157
3 23 160 70
3 23 161 160
3 24 164 162
3 26 165 73
3 26 166 165
3 26 168 166
3 21 169 75
3 21 157 169
3 28 172 170
3 30 173 76
3 30 174 173
3 322 321 175
3 31 323 325
3 325 324 79
3 323 324 325
3 31 326 328
3 326 177 327
3 326 327 328
3 32 180 178
3 34 181 82
3 34 182 181
3 34 184 182
3 36 185 84
3 36 186 185
3 36 188 186
3 38 329 331
3 331 330 189
3 329 330 331
3 39 332 334
3 334 333 87
3 332 333 334
3 39 335 336
3 40 337 339
3 339 338 190
3 337 338 339
3 340 192 341
3 42 193 91
3 42 194 193
3 20 195 153
3 43 196 94
3 43 197 196
3 43 198 197
3 40 199 96
3 40 190 199
3 342 200 343
3 342 343 344
3 346 345 200
3 44 347 348
3 44 349 351
3 349 201 350
3 349 350 351
3 44 202 201
3 353 352 97
3 45 205 203
3 47 206 100
3 47 207 206
3 48 354 356
3 354 208 355
3 354 355 356
3 48 209 208
3 48 210 209
3 49 213 211
3 357 214 358
3 359 358 102
3 357 358 359
3 361 360 214
3 362 215 363
3 364 216 365
3 366 217 367
3 368 367 216
3 366 367 368
3 22 218 158
3 51 219 105
3 51 220 219
3 51 221 220
3 52 222 107
3 52 223 222
3 369 224 370
3 371 370 191
3 369 370 371
3 372 225 373
3 374 226 375
3 376 227 377
3 378 377 226
3 376 377 378
3 379 228 380
3 381 229 382
3 383 382 228
3 381 382 383
3 385 384 229
3 41 386 388
3 386 230 387
3 386 387 388
3 53 231 110
3 53 232 231
3 25 233 163
3 54 234 113
3 54 235 234
3 54 236 235
3 55 237 115
3 55 389 391
3 391 390 237
3 389 390 391
3 55 392 393
3 56 394 396
3 396 395 117
3 394 395 396
3 56 397 398
3 27 238 167
3 400 399 120
3 57 241 239
3 401 242 402
3 403 402 122
3 401 402 403
3 404 243 405
3 406 405 242
3 404 405 406
3 407 244 408
3 409 245 410
3 411 410 244
3 409 410 411
3 57 246 123
3 57 239 246
3 58 247 240
3 59 248 125
3 59 412 414
3 414 413 248
3 412 413 414
3 29 249 171
3 415 250 416
3 417 416 128
3 415 416 417
3 419 418 250
3 420 251 421
3 60 252 130
3 60 253 252
3 423 422 176
3 424 254 425
3 426 255 427
3 428 256 429
3 430 429 255
3 428 429 430
3 432 431 256
3 46 257 204
3 61 258 133
3 61 259 258
3 33 260 179
3 62 261 136
3 62 262 261
3 62 263 262
3 63 433 435
3 435 434 138
3 433 434 435
3 63 436 437
3 63 438 439
3 441 440 140
3 35 264 183
3 443 442 143
3 37 265 187
3 445 444 145
3 50 266 212
3 447 446 148
3 64 65 17
3 66 65 64
3 66 18 65
3 67 68 19
3 64 68 67
3 64 17 68
3 69 70 21
3 71 70 69
3 71 23 70
3 72 73 24
3 74 73 72
3 74 26 73
3 74 75 26
3 69 75 74
3 69 21 75
3 448 76 449
3 450 449 28
3 448 449 450
3 77 451 453
3 451 76 452
3 451 452 453
3 77 30 76
3 78 454 456
3 454 79 455
3 454 455 456
3 80 79 78
3 80 31 79
3 81 82 32
3 83 82 81
3 83 34 82
3 83 84 34
3 85 84 83
3 85 36 84
3 85 457 459
3 459 458 36
3 457 458 459
3 461 460 85
3 86 87 38
3 88 87 86
3 88 39 87
3 89 462 464
3 464 463 40
3 462 463 464
3 466 465 89
3 90 467 469
3 467 91 468
3 467 468 469
3 92 91 90
3 92 42 91
3 93 94 20
3 95 94 93
3 95 43 94
3 95 96 43
3 89 96 95
3 89 40 96
3 470 44 471
3 472 97 473
3 474 473 44
3 472 473 474
3 98 475 477
3 475 97 476
3 475 476 477
3 98 478 480
3 480 479 97
3 478 479 480
3 99 100 45
3 101 100 99
3 101 47 100
3 481 48 482
3 484 483 48
3 485 102 486
3 487 486 49
3 485 486 487
3 488 102 489
3 488 489 490
3 492 491 102
3 103 493 494
3 103 495 496
3 104 105 22
3 106 105 104
3 106 51 105
3 106 107 51
3 108 107 106
3 108 52 107
3 109 110 41
3 111 110 109
3 111 53 110
3 112 113 25
3 114 113 112
3 114 54 113
3 114 115 54
3 116 115 114
3 116 55 115
3 116 117 55
3 118 117 116
3 118 56 117
3 119 120 27
3 497 120 498
3 499 498 119
3 497 498 499
3 501 500 120
3 121 502 503
3 121 504 505
3 506 122 507
3 508 507 57
3 506 507 508
3 509 122 510
3 512 511 122
3 513 123 514
3 515 123 516
3 517 57 518
3 519 518 123
3 517 518 519
3 124 125 58
3 126 125 124
3 126 59 125
3 127 128 29
3 520 128 521
3 522 521 127
3 520 521 522
3 524 523 128
3 129 525 527
3 525 130 526
3 525 526 527
3 131 130 129
3 131 60 130
3 132 133 46
3 134 133 132
3 134 61 133
3 135 136 33
3 137 136 135
3 137 62 136
3 137 138 62
3 139 138 137
3 139 63 138
3 139 140 63
3 141 140 139
3 141 528 530
3 530 529 140
3 528 529 530
3 142 143 35
3 144 143 142
3 144 531 533
3 533 532 143
3 531 532 533
3 144 534 535
3 537 536 144
3 538 145 539
3 540 539 37
3 538 539 540
3 146 541 543
3 541 145 542
3 541 542 543
3 146 544 546
3 546 545 145
3 544 545 546
3 146 547 548
3 550 549 146
3 147 148 50
3 149 148 147
3 149 551 553
3 553 552 148
3 551 552 553
3 150 554 556
3 556 555 4
3 554 555 556
3 151 557 559
3 559 558 150
3 557 558 559
3 151 560 561
3 65 151 17
3 562 151 563
3 564 563 65
3 562 563 564
3 566 565 151
3 152 153 5
3 154 153 152
3 154 20 153
3 68 154 19
3 155 154 68
3 155 20 154
3 155 93 20
3 150 93 155
3 150 4 93
3 156 567 569
3 567 568 569
3 571 570 156
3 157 158 10
3 159 158 157
3 159 22 158
3 70 159 21
3 160 159 70
3 160 22 159
3 160 104 22
3 161 104 160
3 161 11 104
3 162 163 6
3 164 163 162
3 164 25 163
3 73 164 24
3 165 164 73
3 165 25 164
3 165 112 25
3 166 112 165
3 166 12 112
3 166 167 12
3 168 167 166
3 168 27 167
3 75 168 26
3 169 168 75
3 169 27 168
3 169 119 27
3 157 119 169
3 157 10 119
3 573 572 7
3 170 171 13
3 172 171 170
3 172 29 171
3 76 172 28
3 173 172 76
3 173 29 172
3 173 127 29
3 174 127 173
3 174 574 576
3 576 575 127
3 574 575 576
3 175 176 8
3 577 176 578
3 579 578 175
3 577 578 579
3 581 580 176
3 79 582 583
3 585 584 79
3 177 586 587
3 177 588 590
3 588 14 589
3 588 589 590
3 178 179 9
3 180 179 178
3 180 33 179
3 82 180 32
3 181 180 82
3 181 33 180
3 181 135 33
3 182 135 181
3 182 15 135
3 182 183 15
3 184 183 182
3 184 35 183
3 84 184 34
3 185 184 84
3 185 35 184
3 185 142 35
3 186 142 185
3 186 16 142
3 186 187 16
3 188 187 186
3 188 37 187
3 591 188 592
3 593 592 36
3 591 592 593
3 594 188 595
3 596 37 597
3 598 597 188
3 596 597 598
3 600 599 37
3 189 601 602
3 604 603 189
3 87 605 607
3 607 606 38
3 605 606 607
3 609 608 87
3 190 191 2
3 610 191 611
3 612 611 190
3 610 611 612
3 614 613 191
3 616 615 40
3 618 617 4
3 192 619 620
3 192 621 623
3 621 41 622
3 621 622 623
3 91 624 626
3 624 192 625
3 624 625 626
3 193 192 91
3 193 41 192
3 193 109 41
3 194 109 193
3 194 6 109
3 153 92 5
3 195 92 153
3 195 42 92
3 94 195 20
3 196 195 94
3 196 42 195
3 196 194 42
3 197 194 196
3 197 6 194
3 197 162 6
3 198 162 197
3 198 24 162
3 96 198 43
3 199 198 96
3 199 24 198
3 199 72 24
3 190 72 199
3 190 2 72
3 627 7 628
3 200 629 630
3 200 631 633
3 631 7 632
3 631 632 633
3 200 634 636
3 636 635 7
3 634 635 636
3 638 637 200
3 639 129 640
3 641 129 642
3 643 8 644
3 645 644 129
3 643 644 645
3 201 646 647
3 201 648 650
3 648 8 649
3 648 649 650
3 201 175 8
3 202 175 201
3 202 651 653
3 653 652 175
3 651 652 653
3 97 202 44
3 654 202 655
3 656 655 97
3 654 655 656
3 658 657 202
3 203 204 1
3 205 204 203
3 205 46 204
3 100 205 45
3 206 205 100
3 206 46 205
3 206 132 46
3 207 132 206
3 207 9 132
3 659 101 660
3 661 101 662
3 663 47 664
3 665 664 101
3 663 664 665
3 208 666 667
3 208 668 670
3 668 47 669
3 668 669 670
3 208 207 47
3 209 207 208
3 209 9 207
3 209 178 9
3 210 178 209
3 210 32 178
3 671 210 672
3 673 672 48
3 671 672 673
3 674 210 675
3 676 32 677
3 678 677 210
3 676 677 678
3 679 81 680
3 681 680 32
3 679 680 681
3 682 81 683
3 685 684 81
3 211 212 3
3 213 212 211
3 213 50 212
3 102 213 49
3 214 213 102
3 214 50 213
3 214 147 50
3 686 147 687
3 688 687 214
3 686 687 688
3 690 689 147
3 691 78 692
3 215 693 695
3 693 78 694
3 693 694 695
3 215 1 78
3 696 215 697
3 216 698 700
3 698 215 699
3 698 699 700
3 216 1 215
3 216 203 1
3 217 203 216
3 217 45 203
3 701 217 702
3 703 217 704
3 705 45 706
3 707 706 217
3 705 706 707
3 708 99 709
3 710 709 45
3 708 709 710
3 711 99 712
3 714 713 99
3 158 103 10
3 218 103 158
3 218 715 717
3 717 716 103
3 715 716 717
3 105 218 22
3 219 218 105
3 219 718 720
3 720 719 218
3 718 719 720
3 219 721 722
3 220 723 725
3 725 724 219
3 723 724 725
3 220 726 727
3 220 728 730
3 728 189 729
3 728 729 730
3 221 189 220
3 221 38 189
3 107 221 51
3 222 221 107
3 222 38 221
3 222 86 38
3 223 86 222
3 223 3 86
3 191 71 2
3 224 71 191
3 224 23 71
3 731 224 732
3 733 224 734
3 735 23 736
3 737 736 224
3 735 736 737
3 738 161 739
3 740 739 23
3 738 739 740
3 225 741 743
3 741 161 742
3 741 742 743
3 225 11 161
3 744 225 745
3 226 746 748
3 746 225 747
3 746 747 748
3 226 11 225
3 226 108 11
3 227 108 226
3 227 52 108
3 749 227 750
3 228 751 753
3 751 227 752
3 751 752 753
3 228 52 227
3 228 223 52
3 229 223 228
3 229 3 223
3 229 211 3
3 754 211 755
3 756 755 229
3 754 755 756
3 757 49 758
3 759 758 211
3 757 758 759
3 760 49 761
3 763 762 49
3 230 764 765
3 230 766 767
3 110 230 41
3 231 230 110
3 231 768 770
3 770 769 230
3 768 769 770
3 231 771 772
3 232 773 775
3 775 774 231
3 773 774 775
3 232 776 777
3 163 111 6
3 233 111 163
3 233 53 111
3 113 233 25
3 234 233 113
3 234 53 233
3 234 232 53
3 235 232 234
3 235 778 780
3 780 779 232
3 778 779 780
3 235 781 782
3 236 783 785
3 785 784 235
3 783 784 785
3 236 786 787
3 115 236 54
3 237 236 115
3 237 788 790
3 790 789 236
3 788 789 790
3 237 791 792
3 794 793 237
3 117 795 797
3 797 796 55
3 795 796 797
3 799 798 117
3 167 118 12
3 238 118 167
3 238 56 118
3 120 238 27
3 800 238 801
3 802 801 120
3 800 801 802
3 803 56 804
3 805 804 238
3 803 804 805
3 807 806 56
3 808 156 809
3 810 156 811
3 810 811 812
3 814 813 156
3 815 121 816
3 817 816 7
3 815 816 817
3 818 121 819
3 821 820 121
3 239 240 0
3 241 240 239
3 241 58 240
3 122 241 57
3 242 241 122
3 242 58 241
3 242 124 58
3 243 124 242
3 243 13 124
3 822 243 823
3 824 243 825
3 826 13 827
3 828 827 243
3 826 827 828
3 829 170 830
3 831 830 13
3 829 830 831
3 832 170 833
3 834 28 835
3 836 835 170
3 834 835 836
3 837 28 838
3 840 839 28
3 841 90 842
3 843 90 844
3 845 5 846
3 847 846 90
3 845 846 847
3 244 848 849
3 244 850 852
3 850 5 851
3 850 851 852
3 244 152 5
3 245 152 244
3 245 19 152
3 123 853 855
3 853 245 854
3 853 854 855
3 246 245 123
3 246 19 245
3 246 67 19
3 239 67 246
3 239 0 67
3 240 66 0
3 247 66 240
3 247 18 66
3 125 247 58
3 248 247 125
3 248 18 247
3 248 856 858
3 858 857 18
3 856 857 858
3 860 859 248
3 171 126 13
3 249 126 171
3 249 59 126
3 128 249 29
3 250 249 128
3 250 59 249
3 250 861 863
3 863 862 59
3 861 862 863
3 865 864 250
3 866 77 867
3 251 868 870
3 868 77 869
3 868 869 870
3 251 30 77
3 130 871 873
3 871 251 872
3 871 872 873
3 252 251 130
3 252 30 251
3 252 174 30
3 253 174 252
3 253 874 876
3 876 875 174
3 874 875 876
3 176 131 8
3 877 131 878
3 879 878 176
3 877 878 879
3 880 60 881
3 882 881 131
3 880 881 882
3 883 60 884
3 885 253 886
3 887 886 60
3 885 886 887
3 888 253 889
3 891 890 253
3 254 892 893
3 254 894 895
3 896 254 897
3 255 898 900
3 898 254 899
3 898 899 900
3 255 901 903
3 903 902 254
3 901 902 903
3 255 904 905
3 256 906 908
3 908 907 255
3 906 907 908
3 256 909 910
3 256 911 913
3 911 98 912
3 911 912 913
3 914 98 915
3 916 915 256
3 914 915 916
3 918 917 98
3 204 80 1
3 257 80 204
3 257 31 80
3 133 257 46
3 258 257 133
3 258 31 257
3 258 177 31
3 259 177 258
3 259 14 177
3 179 134 9
3 260 134 179
3 260 61 134
3 136 260 33
3 261 260 136
3 261 61 260
3 261 259 61
3 262 259 261
3 262 14 259
3 262 919 921
3 921 920 14
3 919 920 921
3 263 922 924
3 924 923 262
3 922 923 924
3 263 925 926
3 138 263 62
3 927 263 928
3 929 928 138
3 927 928 929
3 931 930 263
3 140 932 934
3 934 933 63
3 932 933 934
3 936 935 140
3 183 141 15
3 264 141 183
3 264 937 939
3 939 938 141
3 937 938 939
3 143 264 35
3 940 264 941
3 942 941 143
3 940 941 942
3 944 943 264
3 187 945 947
3 947 946 16
3 945 946 947
3 265 948 950
3 950 949 187
3 948 949 950
3 265 951 952
3 145 265 37
3 953 265 954
3 955 954 145
3 953 954 955
3 957 956 265
3 212 88 3
3 266 88 212
3 266 39 88
3 148 266 50
3 958 266 959
3 960 959 148
3 958 959 960
3 961 39 962
3 963 962 266
3 961 962 963
3 965 964 39
3 966 149 967
3 968 149 969
3 971 970 149
