ply
format ascii 1.0
element vertex 179
property float x
property float y
property float z
property uchar red
property uchar green
property uchar blue
element face 169
property list uchar int vertex_index
end_header
-34.9427 13.3661 -56.4119 255 54 0
-29.0073 5.15187 -54.4422 255 114 0
-32.037 13.3275 -53.8279 99 255 156
-31.4892 9.68639 -56.2997 255 103 0
-29.3446 8.96555 -52.7623 255 35 0
-39.116 11.2066 -57.2957 169 255 86
-35.1946 8.47121 -58.1416 203 255 52
-32.0042 4.91004 -57.0456 161 255 94
-29.4814 0.562963 -54.4243 131 255 124
-28.6572 7.13563 -47.7644 128 0 0
-27.801 3.90189 -50.3322 239 0 0
-31.1169 12.6239 -51.8847 31 255 224
-30.5437 11.2574 -53.4992 255 69 0
-29.8357 10.4644 -51.3263 255 222 0
-35.2587 15.2435 -54.9321 0 250 255
-37.0195 14.8042 -55.7309 168 255 87
-39.0584 13.7879 -56.1244 137 255 118
-36.8956 12.559 -57.0546 152 0 0
-37.0653 9.94721 -57.969 252 255 3
-34.9254 11.0676 -57.4934 232 0 0
-30.1304 7.51196 -55.5597 255 106 0
-31.6272 7.39751 -56.8993 255 51 0
-30.2932 5.25623 -55.9444 255 71 0
-30.6645 2.83254 -55.8856 255 249 0
-29.1544 2.93059 -54.6435 255 103 0
-28.5928 6.23128 -44.9031 125 255 130
-28.1649 4.68269 -46.5047 255 252 0
-28.1759 5.61052 -49.2231 166 0 0
-27.7689 3.01312 -47.8145 228 255 27
-33.3115 13.6095 -55.3407 186 255 69
-33.0934 11.6482 -56.5975 255 89 0
-31.6237 11.6916 -55.2652 255 121 0
-30.2093 9.53505 -54.7369 255 104 0
-29.066 7.18041 -53.8112 255 86 0
-33.1683 9.34006 -57.4336 255 26 0
-33.51 6.79036 -57.8204 176 255 79
-31.2035 0.291258 -55.3973 0 211 255
-29.2112 8.48746 -46.0143 112 255 143
-29.431 9.47738 -48.8017 225 255 30
-28.8587 8.10932 -50.416 197 0 0
-28.4347 6.49963 -51.6827 255 5 0
-28.1834 4.66352 -52.5593 255 76 0
-27.4284 1.21073 -48.7781 63 255 192
-27.5508 2.01793 -51.0558 124 255 131
-28.1096 2.63131 -53.0244 184 255 71
-28.2052 0.437967 -53.0791 0 234 255
-30.8102 12.1397 -50.7173 0 0 136
-31.4969 13.1168 -50.9132 0 0 136
-30.1696 11.06 -50.4381 0 0 176
-30.4763 11.5441 -51.6055 0 0 216
-30.8102 12.1397 -50.7173 0 0 176
-28.0462 3.42258 -45.7921 0 0 144
-28.1945 4.2884 -45.0644 0 0 144
-27.8482 2.58779 -46.447 0 0 185
-27.9669 3.84791 -47.1596 0 0 229
-28.0462 3.42258 -45.7921 0 0 185
-32.9259 14.2254 -53.7643 0 0 131
-32.3673 13.9286 -52.9292 0 0 131
-32.6743 13.4685 -54.5843 0 0 196
-33.5631 14.3664 -54.5207 0 0 163
-32.9259 14.2254 -53.7643 0 0 163
-40.2199 11.7185 -56.7208 0 0 197
-40.1912 13.0092 -56.1352 0 0 197
-39.0872 12.4972 -56.7101 0 0 247
-40.329 10.2867 -57.2293 0 0 153
-40.2199 11.7185 -56.7208 0 0 153
-39.2818 9.76727 -57.6715 0 0 149
-40.329 10.2867 -57.2293 0 0 149
-36.3473 7.7859 -58.2902 0 0 189
-37.2826 8.5239 -58.2038 0 0 189
-36.13 9.20921 -58.0553 0 0 235
-35.4517 7.0803 -58.2346 0 0 141
-36.3473 7.7859 -58.2902 0 0 141
-33.0372 4.50008 -57.3928 0 0 181
-33.7901 5.44025 -57.7803 0 0 181
-32.7571 5.8502 -57.433 0 0 223
-32.2884 3.60175 -56.8908 0 0 138
-33.0372 4.50008 -57.3928 0 0 138
-29.7203 -0.676581 -54.1184 0 0 175
-30.5814 -0.812433 -54.6049 0 0 175
-30.3424 0.427111 -54.9108 0 0 214
-27.3647 -0.16365 -47.9264 0 0 139
-27.5211 0.783494 -47.5119 0 0 139
-27.492 0.99773 -51.2195 0 0 130
-27.3559 0.647571 -50.2119 0 0 130
-27.7714 1.30442 -52.2038 0 0 163
-27.8302 2.32462 -52.0401 0 0 197
-27.492 0.99773 -51.2195 0 0 163
-27.8192 0.207749 -52.2311 0 0 160
-28.1574 1.53464 -53.0518 0 0 191
-27.7714 1.30442 -52.2038 0 0 160
-31.9072 13.5768 -51.9576 0 0 135
-31.4969 13.1168 -50.9132 0 0 135
-31.577 12.9757 -52.8563 0 0 204
-32.3673 13.9286 -52.9292 0 0 168
-31.9072 13.5768 -51.9576 0 0 168
-36.3445 15.8953 -54.484 0 0 129
-35.5526 15.9165 -54.0131 0 0 129
-37.2249 15.6757 -54.8835 0 0 168
-36.3445 15.8953 -54.484 0 0 168
-36.1391 15.0239 -55.3315 0 0 204
-38.1526 15.3648 -55.1508 0 0 171
-38.358 16.2363 -54.3033 0 0 134
-37.2249 15.6757 -54.8835 0 0 171
-38.039 14.2961 -55.9277 0 0 227
-39.1721 14.8567 -55.3475 0 0 183
-38.1526 15.3648 -55.1508 0 0 183
-28.4085 5.0627 -44.2636 0 0 143
-28.5391 5.90444 -43.4289 0 0 143
-28.3789 5.45699 -45.7039 0 0 231
-28.4085 5.0627 -44.2636 0 0 186
-28.1945 4.2884 -45.0644 0 0 186
-34.5367 15.1834 -54.3164 0 0 130
-35.5526 15.9165 -54.0131 0 0 130
-34.2851 14.4265 -55.1364 0 0 193
-34.5367 15.1834 -54.3164 0 0 161
-33.5631 14.3664 -54.5207 0 0 161
-40.2163 14.2562 -55.4297 0 0 142
-39.1721 14.8567 -55.3475 0 0 142
-40.2163 14.2562 -55.4297 0 0 149
-40.1912 13.0092 -56.1352 0 0 149
-38.2564 9.13758 -58.0081 0 0 198
-39.2818 9.76727 -57.6715 0 0 198
-38.0906 10.5769 -57.6323 0 0 248
-38.2564 9.13758 -58.0081 0 0 144
-37.2826 8.5239 -58.2038 0 0 144
-34.6093 6.23987 -58.074 0 0 183
-35.4517 7.0803 -58.2346 0 0 183
-34.3523 7.63079 -57.981 0 0 227
-34.6093 6.23987 -58.074 0 0 139
-33.7901 5.44025 -57.7803 0 0 139
-31.6185 2.56301 -56.3109 0 0 179
-32.2884 3.60175 -56.8908 0 0 179
-31.3343 3.87129 -56.4656 0 0 220
-31.888 1.29236 -56.0667 0 0 178
-31.6185 2.56301 -56.3109 0 0 178
-30.934 1.5619 -55.6415 0 0 219
-32.242 -0.057306 -55.6925 0 0 142
-31.888 1.29236 -56.0667 0 0 142
-31.5367 -1.02236 -54.9547 0 0 142
-32.242 -0.057306 -55.6925 0 0 142
-31.5367 -1.02236 -54.9547 0 0 140
-30.5814 -0.812433 -54.6049 0 0 140
-28.8067 6.95981 -43.9945 0 0 140
-28.5391 5.90444 -43.4289 0 0 140
-29.1159 8.0879 -44.5501 0 0 187
-28.8067 6.95981 -43.9945 0 0 187
-28.902 7.35937 -45.4587 0 0 233
-29.5004 9.09368 -45.0309 0 0 139
-29.1159 8.0879 -44.5501 0 0 139
-29.6578 9.55053 -46.4568 0 0 140
-29.5004 9.09368 -45.0309 0 0 140
-29.7677 10.0455 -47.8505 0 0 182
-29.6578 9.55053 -46.4568 0 0 182
-29.3211 8.98242 -47.408 0 0 224
-29.9672 10.5665 -49.1758 0 0 140
-29.7677 10.0455 -47.8505 0 0 140
-29.6334 9.97088 -50.064 0 0 219
-30.1696 11.06 -50.4381 0 0 178
-29.9672 10.5665 -49.1758 0 0 178
-27.6914 1.68469 -47.0301 0 0 142
-27.8482 2.58779 -46.447 0 0 142
-27.5986 2.11192 -48.2963 0 0 222
-27.6914 1.68469 -47.0301 0 0 180
-27.5211 0.783494 -47.5119 0 0 180
-27.2947 0.243969 -49.073 0 0 135
-27.3647 -0.16365 -47.9264 0 0 135
-27.4896 1.61433 -49.917 0 0 209
-27.2947 0.243969 -49.073 0 0 172
-27.3559 0.647571 -50.2119 0 0 172
-27.8281 -0.879635 -52.2031 0 0 128
-27.8192 0.207749 -52.2311 0 0 128
-28.3309 -0.723572 -52.9122 0 0 128
-27.8281 -0.879635 -52.2031 0 0 128
-28.969 -0.661074 -53.5847 0 0 163
-28.8433 0.500465 -53.7517 0 0 197
-28.3309 -0.723572 -52.9122 0 0 163
-29.7203 -0.676581 -54.1184 0 0 133
-28.969 -0.661074 -53.5847 0 0 133
3 46 11 47
3 48 13 49
3 50 49 11
3 48 49 50
3 0 15 14
3 0 17 15
3 0 19 17
3 1 22 20
3 1 24 22
3 51 26 52
3 53 28 54
3 55 54 26
3 53 54 55
3 2 56 57
3 2 58 60
3 58 29 59
3 58 59 60
3 2 31 29
3 4 32 12
3 4 33 32
3 5 61 63
3 63 62 16
3 61 62 63
3 5 64 65
3 5 66 67
3 6 68 70
3 70 69 18
3 68 69 70
3 6 71 72
3 3 34 30
3 7 35 21
3 7 73 75
3 75 74 35
3 73 74 75
3 7 76 77
3 8 36 23
3 8 78 80
3 80 79 36
3 78 79 80
3 9 37 25
3 9 38 37
3 9 39 38
3 10 40 27
3 10 41 40
3 81 42 82
3 83 43 84
3 85 44 86
3 87 86 43
3 85 86 87
3 88 45 89
3 90 89 44
3 88 89 90
3 11 91 92
3 11 93 95
3 93 2 94
3 93 94 95
3 11 12 2
3 13 12 11
3 13 4 12
3 14 96 97
3 15 98 100
3 100 99 14
3 98 99 100
3 15 101 103
3 101 102 103
3 15 104 106
3 104 16 105
3 104 105 106
3 17 16 15
3 17 5 16
3 17 18 5
3 19 18 17
3 19 6 18
3 20 21 3
3 22 21 20
3 22 7 21
3 22 23 7
3 24 23 22
3 24 8 23
3 107 25 108
3 26 109 111
3 109 25 110
3 109 110 111
3 26 9 25
3 26 27 9
3 28 27 26
3 28 10 27
3 112 14 113
3 29 114 116
3 114 14 115
3 114 115 116
3 29 0 14
3 29 30 0
3 31 30 29
3 31 3 30
3 12 31 2
3 32 31 12
3 32 3 31
3 32 20 3
3 33 20 32
3 33 1 20
3 16 117 118
3 120 119 16
3 18 121 123
3 123 122 5
3 121 122 123
3 125 124 18
3 30 19 0
3 34 19 30
3 34 6 19
3 21 34 3
3 35 34 21
3 35 6 34
3 35 126 128
3 128 127 6
3 126 127 128
3 130 129 35
3 23 131 133
3 133 132 7
3 131 132 133
3 36 134 136
3 136 135 23
3 134 135 136
3 36 137 138
3 36 139 140
3 142 141 36
3 25 143 144
3 37 145 147
3 147 146 25
3 145 146 147
3 37 148 149
3 37 150 151
3 38 152 154
3 154 153 37
3 152 153 154
3 38 155 156
3 38 157 159
3 157 13 158
3 157 158 159
3 39 13 38
3 39 4 13
3 27 39 9
3 40 39 27
3 40 4 39
3 40 33 4
3 41 33 40
3 41 1 33
3 160 28 161
3 42 162 164
3 162 28 163
3 162 163 164
3 42 10 28
3 165 42 166
3 43 167 169
3 167 42 168
3 167 168 169
3 43 10 42
3 43 41 10
3 44 41 43
3 44 1 41
3 44 24 1
3 45 24 44
3 45 8 24
3 170 45 171
3 172 45 173
3 174 8 175
3 176 175 45
3 174 175 176
3 178 177 8
