ply
format ascii 1.0
element vertex 213
property float x
property float y
property float z
property uchar red
property uchar green
property uchar blue
element face 207
property list uchar int vertex_index
end_header
-16.3125 8.33064 72.1704 179 0 0
-11.3357 0.28924 81.1094 129 255 126
-11.2591 15.798 77.5783 224 0 0
-16.3397 23.7006 68.5082 255 160 0
-8.66024 3.16618 82.9577 0 223 255
-18.9064 11.9383 67.9113 154 255 101
-19.0692 19.2658 66.4113 255 28 0
-16.3838 15.9731 70.5947 172 0 0
-13.92 4.42948 76.8459 200 0 0
-13.9342 12.1416 75.2185 159 0 0
-11.4303 7.84209 79.565 255 14 0
-8.59463 10.899 81.1766 0 248 255
-13.8019 20.1179 73.1501 140 0 0
-13.3275 28.1493 70.4357 119 255 136
-17.5594 10.1738 69.9362 255 196 0
-17.6164 13.916 69.2247 220 0 0
-16.3408 12.126 71.4202 173 0 0
-12.6705 2.38784 79.0731 254 0 0
-12.7009 6.1561 78.3048 224 0 0
-11.4022 4.0012 80.3667 255 40 0
-8.68426 6.98423 82.136 80 255 175
-23.7934 20.2938 62.8241 0 34 255
-22.0919 18.7423 64.0417 0 140 255
-17.7087 21.4509 67.4372 215 0 0
-19.0816 22.918 65.3852 158 255 97
-17.6435 25.2041 66.2649 76 255 179
-12.6609 14.0144 76.5265 185 0 0
-13.9002 16.1126 74.2585 150 0 0
-12.54 18.0408 75.4284 170 0 0
-12.0207 26.1634 72.7296 111 255 144
-10.0167 1.77204 82.1785 96 255 159
-20.3849 13.6316 66.1711 12 255 243
-20.484 17.1959 65.5017 217 255 38
-18.9914 15.5998 67.2337 255 29 0
-17.6836 17.684 68.4118 221 0 0
-16.3976 19.8383 69.6364 169 0 0
-9.7144 17.4504 78.3189 49 255 206
-11.0304 19.8603 76.3344 198 255 57
-15.1176 6.41287 74.5107 173 0 0
-15.128 10.2292 73.7342 156 0 0
-13.9305 8.23506 76.0637 174 0 0
-12.7073 10.0428 77.4737 202 0 0
-11.3892 11.7836 78.6487 247 0 0
-10.0819 5.54924 81.4129 255 97 0
-10.0653 9.43687 80.5417 255 71 0
-9.94534 13.4117 79.5194 254 255 1
-17.5629 6.49853 70.6272 72 255 183
-16.3407 4.6308 72.9185 206 255 49
-15.1507 2.71768 75.2901 202 255 53
-13.936 0.764378 77.6295 179 255 76
-12.6509 -1.22854 79.8408 36 255 219
-20.548 20.7504 64.6296 114 255 141
-15.1461 14.1234 72.8931 149 0 0
-15.1358 18.0587 71.9337 145 0 0
-15.0629 22.0081 70.8209 137 0 0
-12.3298 22.0971 74.1634 255 152 0
-13.6169 24.1352 71.877 128 0 0
-14.897 25.9545 69.5367 247 255 8
-22.0475 17.0097 64.3948 0 0 131
-22.9188 17.8285 63.8325 0 0 131
-16.2568 25.6256 67.8504 0 0 184
-16.9087 26.3773 66.7288 0 0 184
-16.9916 24.4523 67.3866 0 0 226
-9.54512 19.4904 77.6253 0 0 136
-8.88416 18.1943 78.5178 0 0 136
-8.4886 12.8949 80.6097 0 0 169
-9.16396 14.1512 79.7812 0 0 169
-9.26999 12.1553 80.348 0 0 205
-18.2547 5.63918 69.9106 0 0 137
-18.2183 7.4071 69.5788 0 0 137
-16.4013 2.85316 73.3311 0 0 139
-17.0058 3.78561 72.1533 0 0 139
-15.8063 1.89659 74.5169 0 0 179
-15.7457 3.67424 74.1043 0 0 219
-16.4013 2.85316 73.3311 0 0 179
-13.9736 -0.979419 78.0531 0 0 138
-14.598 -0.023893 76.8859 0 0 138
-13.331 -1.97588 79.1587 0 0 174
-13.2934 -0.232079 78.7351 0 0 211
-13.9736 -0.979419 78.0531 0 0 174
-23.7655 21.9758 62.2614 0 0 131
-22.9524 21.2427 62.9463 0 0 131
-19.7993 23.6024 64.4452 0 0 136
-19.0303 24.736 64.7565 0 0 136
-11.5154 23.0226 74.5386 0 0 183
-11.6801 20.9787 75.2489 0 0 225
-10.8657 21.9042 75.6241 0 0 183
-13.9708 29.0193 69.2564 0 0 187
-14.7555 27.9219 68.8069 0 0 187
-14.1122 27.0519 69.9862 0 0 231
-7.97108 5.70616 82.7587 0 0 158
-8.67225 5.07521 82.5468 0 0 188
-7.95907 3.79714 83.1696 0 0 158
-7.94989 7.62706 82.3121 0 0 129
-7.97108 5.70616 82.7587 0 0 129
-7.90508 9.58444 81.8324 0 0 161
-8.63944 8.94161 81.6563 0 0 192
-7.94989 7.62706 82.3121 0 0 161
-7.819 11.5486 81.3071 0 0 131
-7.90508 9.58444 81.8324 0 0 131
-23.7696 18.6043 63.2237 0 0 130
-24.6858 19.4441 62.778 0 0 130
-22.9427 19.518 63.4329 0 0 193
-23.7696 18.6043 63.2237 0 0 162
-22.9188 17.8285 63.8325 0 0 162
-22.1016 20.467 63.5551 0 0 163
-22.9524 21.2427 62.9463 0 0 163
-22.9427 19.518 63.4329 0 0 195
-18.3113 25.879 65.1964 0 0 177
-19.0303 24.736 64.7565 0 0 177
-18.3626 24.0611 65.8251 0 0 217
-17.5468 27.0737 65.5744 0 0 140
-18.3113 25.879 65.1964 0 0 140
-17.5468 27.0737 65.5744 0 0 141
-16.9087 26.3773 66.7288 0 0 141
-11.1471 27.1028 73.0266 0 0 142
-11.3609 25.0557 73.8217 0 0 142
-11.8141 28.1938 71.9311 0 0 142
-11.1471 27.1028 73.0266 0 0 142
-12.4675 29.1867 70.7842 0 0 188
-12.6741 27.1563 71.5826 0 0 233
-11.8141 28.1938 71.9311 0 0 188
-13.1248 30.1498 69.6333 0 0 143
-12.4675 29.1867 70.7842 0 0 143
-9.96051 -0.050534 82.5367 0 0 167
-10.6762 1.03064 81.644 0 0 202
-10.6201 -0.791934 82.0022 0 0 167
-9.28243 0.617133 82.9352 0 0 130
-9.96051 -0.050534 82.5367 0 0 130
-8.60422 1.3142 83.3248 0 0 162
-9.33845 2.46911 82.5681 0 0 194
-9.28243 0.617133 82.9352 0 0 162
-7.92158 1.92686 83.5595 0 0 128
-8.60422 1.3142 83.3248 0 0 128
-7.95907 3.79714 83.1696 0 0 128
-7.92158 1.92686 83.5595 0 0 128
-20.4344 15.4137 65.8364 0 0 200
-21.2436 16.2365 65.1248 0 0 166
-21.194 14.4543 65.4595 0 0 166
-10.2031 20.6954 76.6331 0 0 178
-10.3724 18.6553 77.3266 0 0 218
-9.54512 19.4904 77.6253 0 0 178
-10.0384 22.7393 75.9228 0 0 139
-10.8657 21.9042 75.6241 0 0 179
-10.2031 20.6954 76.6331 0 0 179
-9.04849 16.1706 79.1809 0 0 171
-9.82987 15.431 78.9192 0 0 207
-9.16396 14.1512 79.7812 0 0 171
-8.88416 18.1943 78.5178 0 0 136
-9.04849 16.1706 79.1809 0 0 136
-8.4886 12.8949 80.6097 0 0 131
-7.819 11.5486 81.3071 0 0 131
-21.149 12.7219 65.7173 0 0 132
-21.194 14.4543 65.4595 0 0 132
-20.3507 11.8573 66.4474 0 0 133
-21.149 12.7219 65.7173 0 0 133
-19.6114 11.0107 67.3175 0 0 170
-19.6456 12.7849 67.0412 0 0 206
-20.3507 11.8573 66.4474 0 0 170
-18.89 10.127 68.2209 0 0 136
-19.6114 11.0107 67.3175 0 0 136
-18.2165 9.24476 69.2333 0 0 176
-18.2329 11.0561 68.9238 0 0 214
-18.89 10.127 68.2209 0 0 176
-17.5611 8.33619 70.2817 0 0 217
-18.2165 9.24476 69.2333 0 0 178
-18.2183 7.4071 69.5788 0 0 178
-17.6169 4.71947 71.0076 0 0 138
-18.2547 5.63918 69.9106 0 0 138
-16.9518 5.56466 71.7729 0 0 218
-17.6169 4.71947 71.0076 0 0 179
-17.0058 3.78561 72.1533 0 0 179
-15.2054 0.952757 75.7163 0 0 139
-15.8063 1.89659 74.5169 0 0 139
-14.5433 1.74103 76.4598 0 0 217
-15.2054 0.952757 75.7163 0 0 177
-14.598 -0.023893 76.8859 0 0 177
-12.6638 -2.94658 80.251 0 0 136
-13.331 -1.97588 79.1587 0 0 136
-11.9599 -2.24824 80.8463 0 0 134
-12.6638 -2.94658 80.251 0 0 134
-11.3024 -1.48935 81.4806 0 0 171
-11.9933 -0.469649 80.4751 0 0 207
-11.9599 -2.24824 80.8463 0 0 171
-10.6201 -0.791934 82.0022 0 0 132
-11.3024 -1.48935 81.4806 0 0 132
-24.6739 21.1024 62.3042 0 0 130
-24.6858 19.4441 62.778 0 0 130
-24.6459 22.7844 61.7415 0 0 131
-24.6739 21.1024 62.3042 0 0 163
-23.7655 21.9758 62.2614 0 0 163
-21.288 17.9691 64.7717 0 0 198
-22.0475 17.0097 64.3948 0 0 165
-21.2436 16.2365 65.1248 0 0 165
-21.3297 21.471 63.849 0 0 165
-22.1016 20.467 63.5551 0 0 165
-21.32 19.7463 64.3356 0 0 198
-20.5325 22.5186 64.0674 0 0 171
-19.8148 21.8342 65.0074 0 0 207
-19.7993 23.6024 64.4452 0 0 171
-21.3297 21.471 63.849 0 0 133
-20.5325 22.5186 64.0674 0 0 133
-12.1753 24.1302 73.4465 0 0 226
-11.5154 23.0226 74.5386 0 0 183
-11.3609 25.0557 73.8217 0 0 183
-15.5355 26.7525 68.3646 0 0 185
-16.2568 25.6256 67.8504 0 0 185
-15.6183 24.8276 69.0225 0 0 228
-15.5355 26.7525 68.3646 0 0 143
-14.7555 27.9219 68.8069 0 0 143
-13.7681 31.0199 68.4539 0 0 144
-13.9708 29.0193 69.2564 0 0 190
-13.1248 30.1498 69.6333 0 0 190
3 0 16 14
3 1 19 17
3 58 22 59
3 3 25 23
3 3 60 62
3 62 61 25
3 60 61 62
3 2 28 26
3 5 33 31
3 7 34 15
3 7 35 34
3 64 63 36
3 8 40 38
3 10 41 18
3 10 42 41
3 4 43 30
3 11 44 20
3 11 45 44
3 11 65 67
3 67 66 45
3 65 66 67
3 68 46 69
3 70 47 71
3 72 48 73
3 74 73 47
3 72 73 74
3 75 49 76
3 77 50 78
3 79 78 49
3 77 78 79
3 81 80 21
3 6 51 32
3 83 82 24
3 9 52 39
3 12 53 27
3 12 54 53
3 84 55 85
3 86 85 37
3 84 85 86
3 13 56 29
3 13 57 56
3 13 87 89
3 89 88 57
3 87 88 89
3 14 15 5
3 16 15 14
3 16 7 15
3 17 18 8
3 19 18 17
3 19 10 18
3 90 20 91
3 92 91 4
3 90 91 92
3 93 20 94
3 95 11 96
3 97 96 20
3 95 96 97
3 99 98 11
3 100 21 101
3 22 102 104
3 102 21 103
3 102 103 104
3 22 105 107
3 107 106 21
3 105 106 107
3 23 24 6
3 25 24 23
3 25 108 110
3 110 109 24
3 108 109 110
3 25 111 112
3 114 113 25
3 26 27 9
3 28 27 26
3 28 12 27
3 115 29 116
3 117 29 118
3 119 13 120
3 121 120 29
3 119 120 121
3 123 122 13
3 124 30 125
3 126 125 1
3 124 125 126
3 127 30 128
3 129 4 130
3 131 130 30
3 129 130 131
3 132 4 133
3 135 134 4
3 31 136 138
3 136 32 137
3 136 137 138
3 33 32 31
3 33 6 32
3 15 33 5
3 34 33 15
3 34 6 33
3 34 23 6
3 35 23 34
3 35 3 23
3 36 37 2
3 139 37 140
3 141 140 36
3 139 140 141
3 144 143 37
3 142 143 144
3 38 39 0
3 40 39 38
3 40 9 39
3 18 40 8
3 41 40 18
3 41 9 40
3 41 26 9
3 42 26 41
3 42 2 26
3 30 19 1
3 43 19 30
3 43 10 19
3 20 43 4
3 44 43 20
3 44 10 43
3 44 42 10
3 45 42 44
3 45 2 42
3 45 36 2
3 145 36 146
3 147 146 45
3 145 146 147
3 149 148 36
3 151 150 11
3 152 31 153
3 154 31 155
3 156 5 157
3 158 157 31
3 156 157 158
3 159 5 160
3 161 14 162
3 163 162 5
3 161 162 163
3 46 164 166
3 164 14 165
3 164 165 166
3 46 0 14
3 167 46 168
3 47 169 171
3 169 46 170
3 169 170 171
3 47 0 46
3 47 38 0
3 48 38 47
3 48 8 38
3 172 48 173
3 49 174 176
3 174 48 175
3 174 175 176
3 49 8 48
3 49 17 8
3 50 17 49
3 50 1 17
3 177 50 178
3 179 50 180
3 181 1 182
3 183 182 50
3 181 182 183
3 185 184 1
3 21 186 187
3 190 189 21
3 188 189 190
3 32 191 193
3 191 22 192
3 191 192 193
3 51 22 32
3 51 194 196
3 196 195 22
3 194 195 196
3 24 51 6
3 197 51 198
3 199 198 24
3 197 198 199
3 201 200 51
3 39 16 0
3 52 16 39
3 52 7 16
3 27 52 9
3 53 52 27
3 53 7 52
3 53 35 7
3 54 35 53
3 54 3 35
3 37 28 2
3 55 28 37
3 55 12 28
3 29 202 204
3 202 55 203
3 202 203 204
3 56 55 29
3 56 12 55
3 56 54 12
3 57 54 56
3 57 3 54
3 57 205 207
3 207 206 3
3 205 206 207
3 209 208 57
3 212 211 13
3 210 211 212
