ply
format ascii 1.0
element vertex 187
property float x
property float y
property float z
property uchar red
property uchar green
property uchar blue
element face 177
property list uchar int vertex_index
end_header
-3.29184 -47.5471 51.2229 12 255 243
-6.2298 -39.4772 54.9663 139 255 116
-4.88358 -51.3762 59.398 226 0 0
-4.94222 -48.3481 67.0636 253 255 2
-5.81771 -47.3158 61.7912 169 0 0
-4.72254 -52.5652 64.4851 178 0 0
-4.97109 -43.5558 53.1271 255 80 0
-6.30206 -41.4738 59.2985 147 0 0
-5.91236 -45.7136 57.0513 255 16 0
-4.43502 -49.6668 54.9495 255 37 0
-3.37752 -56.497 61.711 79 255 176
-4.61555 -50.8863 68.5077 103 255 152
-5.02568 -50.5073 65.7849 152 0 0
-4.48456 -52.9779 67.1855 217 255 38
-4.11539 -45.5401 52.2277 255 77 0
-4.12494 -42.3289 51.4857 110 255 145
-3.25574 -44.3446 50.605 8 255 247
-2.2553 -43.1276 49.1006 0 56 255
-5.89231 -39.1959 60.5977 140 255 115
-5.88676 -42.2353 61.7478 255 246 0
-5.50002 -49.3865 60.5967 209 0 0
-5.98514 -46.5899 59.3334 220 0 0
-5.47856 -48.6177 58.2122 249 0 0
-5.24475 -47.7083 56.0141 255 33 0
-4.7453 -50.5841 57.0821 255 5 0
-6.38851 -37.3292 56.0604 57 255 198
-5.1541 -45.6669 65.6544 138 255 117
-5.74157 -45.1386 63.0223 255 125 0
-5.45223 -47.8965 64.3823 128 0 0
-5.33608 -50.0131 63.1344 175 0 0
-4.86702 -52.0354 61.8766 197 0 0
-5.72213 -41.5463 54.0109 224 255 31
-4.98152 -40.3169 52.3022 3 255 252
-6.30032 -38.3439 58.232 227 255 28
-6.4305 -40.5521 57.0237 231 0 0
-6.14259 -44.4681 60.4983 159 0 0
-6.29796 -43.6432 58.1281 227 0 0
-6.16432 -42.6643 55.9553 255 33 0
-5.57487 -44.695 54.9779 255 57 0
-4.78769 -46.6734 54.0208 255 63 0
-3.94763 -48.6442 53.0029 233 255 22
-4.01975 -54.9857 65.8031 85 255 170
-4.12812 -54.5479 63.1356 255 181 0
-4.16528 -53.9974 60.5738 204 0 0
-3.37322 -55.9476 59.1915 72 255 183
-4.10619 -53.3267 58.1495 255 213 0
-3.93073 -52.5372 55.885 156 255 99
-3.62456 -51.6412 53.788 31 255 224
-4.33867 -53.1336 68.5618 0 0 178
-4.55006 -51.9321 67.8466 0 0 220
-4.40416 -52.0878 69.223 0 0 178
-2.89149 -46.9801 50.3965 0 0 164
-2.87344 -45.3789 50.0876 0 0 164
-3.27379 -45.9458 50.914 0 0 200
-5.56723 -42.5394 63.0359 0 0 142
-5.55799 -41.0605 62.4289 0 0 142
-6.17389 -37.8214 54.5444 0 0 167
-6.25324 -36.7474 55.0915 0 0 167
-6.30915 -38.4032 55.5134 0 0 205
-4.05435 -40.6705 51.1456 0 0 128
-3.60501 -41.6912 50.7488 0 0 128
-1.71552 -42.5286 48.3754 0 0 130
-1.91947 -44.2053 48.5462 0 0 130
-3.65304 -56.1407 66.4272 0 0 135
-3.94465 -55.1544 67.1711 0 0 135
-3.75282 -55.5225 62.4233 0 0 217
-3.73466 -55.7457 63.7386 0 0 176
-3.35935 -56.7202 63.0263 0 0 176
-3.34061 -55.6195 57.999 0 0 134
-2.99405 -56.9445 58.4458 0 0 134
-3.7071 -54.3091 57.478 0 0 173
-3.73971 -54.6371 58.6705 0 0 213
-3.34061 -55.6195 57.999 0 0 173
-3.61937 -53.9143 56.3458 0 0 172
-4.01846 -52.932 57.0173 0 0 211
-3.7071 -54.3091 57.478 0 0 172
-3.27182 -52.6649 53.1301 0 0 131
-3.39357 -53.0874 54.1778 0 0 131
-3.4026 -51.1515 52.8182 0 0 131
-3.27182 -52.6649 53.1301 0 0 131
-3.17041 -42.699 50.3085 0 0 164
-3.60501 -41.6912 50.7488 0 0 164
-3.69034 -43.3368 51.0454 0 0 199
-2.75552 -43.7361 49.8528 0 0 200
-2.67019 -42.0906 49.5562 0 0 164
-3.17041 -42.699 50.3085 0 0 164
-2.37322 -44.7704 49.3354 0 0 165
-2.75552 -43.7361 49.8528 0 0 201
-2.87344 -45.3789 50.0876 0 0 165
-1.91947 -44.2053 48.5462 0 0 129
-2.37322 -44.7704 49.3354 0 0 129
-5.56076 -39.5408 61.8538 0 0 143
-5.50102 -38.0013 61.3199 0 0 143
-5.88953 -40.7156 61.1728 0 0 239
-5.56076 -39.5408 61.8538 0 0 190
-5.55799 -41.0605 62.4289 0 0 190
-6.28864 -35.6603 55.6655 0 0 134
-6.26982 -36.2116 56.6962 0 0 134
-6.28864 -35.6603 55.6655 0 0 131
-6.25324 -36.7474 55.0915 0 0 131
-2.98153 -57.6973 62.249 0 0 135
-3.35935 -56.7202 63.0263 0 0 135
-5.44784 -45.4027 64.3384 0 0 234
-5.49463 -43.991 63.6731 0 0 187
-5.2009 -44.2552 64.9892 0 0 187
-5.7049 -39.9083 53.5817 0 0 164
-5.95873 -38.8738 54.0594 0 0 164
-5.97596 -40.5118 54.4886 0 0 199
-5.3346 -39.2936 52.7274 0 0 163
-5.7049 -39.9083 53.5817 0 0 163
-5.35183 -40.9316 53.1566 0 0 198
-4.90445 -38.64 51.9416 0 0 128
-5.3346 -39.2936 52.7274 0 0 128
-4.48264 -39.6645 51.5539 0 0 163
-4.55323 -41.3229 51.894 0 0 198
-4.05435 -40.6705 51.1456 0 0 163
-4.90445 -38.64 51.9416 0 0 128
-4.48264 -39.6645 51.5539 0 0 128
-2.08792 -41.4489 48.871 0 0 129
-2.67019 -42.0906 49.5562 0 0 129
-2.08792 -41.4489 48.871 0 0 129
-1.71552 -42.5286 48.3754 0 0 129
-5.83119 -37.6153 60.1009 0 0 143
-5.50102 -38.0013 61.3199 0 0 143
-6.0352 -37.1893 58.9181 0 0 185
-5.83119 -37.6153 60.1009 0 0 185
-6.09631 -38.7699 59.4149 0 0 232
-6.22573 -36.719 57.7819 0 0 138
-6.0352 -37.1893 58.9181 0 0 138
-6.34442 -37.8365 57.1462 0 0 219
-6.26982 -36.2116 56.6962 0 0 177
-6.22573 -36.719 57.7819 0 0 177
-5.81417 -43.6869 62.385 0 0 234
-5.56723 -42.5394 63.0359 0 0 187
-5.49463 -43.991 63.6731 0 0 187
-4.80631 -44.4919 66.3188 0 0 142
-5.2009 -44.2552 64.9892 0 0 142
-4.80056 -45.8706 67.0038 0 0 142
-4.80631 -44.4919 66.3188 0 0 142
-4.69462 -47.2111 67.7084 0 0 187
-5.04816 -47.0075 66.359 0 0 234
-4.80056 -45.8706 67.0038 0 0 187
-4.64441 -48.5198 68.4298 0 0 139
-4.69462 -47.2111 67.7084 0 0 139
-4.48107 -49.7889 69.1518 0 0 182
-4.77888 -49.6172 67.7857 0 0 227
-4.64441 -48.5198 68.4298 0 0 182
-4.38602 -51.0275 69.886 0 0 137
-4.48107 -49.7889 69.1518 0 0 137
-4.40416 -52.0878 69.223 0 0 136
-4.38602 -51.0275 69.886 0 0 136
-6.17389 -37.8214 54.5444 0 0 129
-5.95873 -38.8738 54.0594 0 0 129
-4.17706 -54.1505 67.8623 0 0 135
-4.33867 -53.1336 68.5618 0 0 135
-4.25215 -53.9818 66.4943 0 0 218
-4.17706 -54.1505 67.8623 0 0 176
-3.94465 -55.1544 67.1711 0 0 176
-3.68047 -55.9646 65.0723 0 0 134
-3.65304 -56.1407 66.4272 0 0 134
-4.07393 -54.7668 64.4694 0 0 219
-3.68047 -55.9646 65.0723 0 0 177
-3.73466 -55.7457 63.7386 0 0 177
-2.9914 -57.4809 60.9504 0 0 176
-2.98153 -57.6973 62.249 0 0 176
-2.59542 -58.6812 61.4884 0 0 134
-2.98926 -57.2061 59.6906 0 0 134
-2.99405 -56.9445 58.4458 0 0 134
-3.37537 -56.2223 60.4512 0 0 218
-2.9914 -57.4809 60.9504 0 0 176
-2.98926 -57.2061 59.6906 0 0 176
-3.54665 -53.5354 55.2263 0 0 132
-3.61937 -53.9143 56.3458 0 0 132
-3.77765 -52.0892 54.8365 0 0 208
-3.54665 -53.5354 55.2263 0 0 170
-3.39357 -53.0874 54.1778 0 0 170
-3.56414 -49.653 52.4256 0 0 166
-3.7861 -50.1427 53.3955 0 0 203
-3.4026 -51.1515 52.8182 0 0 166
-3.23624 -49.1044 51.5357 0 0 166
-3.61974 -48.0956 52.1129 0 0 202
-3.56414 -49.653 52.4256 0 0 166
-2.94658 -48.589 50.6307 0 0 129
-3.23624 -49.1044 51.5357 0 0 129
-2.54623 -48.0221 49.8043 0 0 129
-2.89149 -46.9801 50.3965 0 0 166
-2.94658 -48.589 50.6307 0 0 166
3 48 13 49
3 50 49 11
3 48 49 50
3 0 16 14
3 0 51 53
3 53 52 16
3 51 52 53
3 54 19 55
3 2 22 20
3 2 24 22
3 1 56 58
3 58 57 25
3 56 57 58
3 3 28 26
3 5 29 12
3 5 30 29
3 6 32 31
3 60 59 15
3 62 61 17
3 7 33 18
3 7 34 33
3 4 35 27
3 8 36 21
3 8 37 36
3 8 38 37
3 9 39 23
3 9 40 39
3 63 41 64
3 10 65 67
3 65 42 66
3 65 66 67
3 10 43 42
3 68 44 69
3 70 45 71
3 72 71 44
3 70 71 72
3 73 46 74
3 75 74 45
3 73 74 75
3 76 47 77
3 79 78 47
3 11 12 3
3 13 12 11
3 13 5 12
3 14 15 6
3 16 15 14
3 16 80 82
3 82 81 15
3 80 81 82
3 16 83 85
3 83 17 84
3 83 84 85
3 86 17 87
3 88 87 16
3 86 87 88
3 90 89 17
3 91 18 92
3 19 93 95
3 93 18 94
3 93 94 95
3 19 7 18
3 20 21 4
3 22 21 20
3 22 8 21
3 22 23 8
3 24 23 22
3 24 9 23
3 25 96 97
3 99 98 25
3 100 10 101
3 26 102 104
3 102 27 103
3 102 103 104
3 28 27 26
3 28 4 27
3 12 28 3
3 29 28 12
3 29 4 28
3 29 20 4
3 30 20 29
3 30 2 20
3 31 105 107
3 107 106 1
3 105 106 107
3 32 108 110
3 110 109 31
3 108 109 110
3 32 111 112
3 15 32 6
3 113 32 114
3 115 114 15
3 113 114 115
3 117 116 32
3 17 118 119
3 121 120 17
3 18 122 123
3 33 124 126
3 126 125 18
3 124 125 126
3 33 127 128
3 33 129 131
3 129 25 130
3 129 130 131
3 34 25 33
3 34 1 25
3 27 132 134
3 132 19 133
3 132 133 134
3 35 19 27
3 35 7 19
3 21 35 4
3 36 35 21
3 36 7 35
3 36 34 7
3 37 34 36
3 37 1 34
3 37 31 1
3 38 31 37
3 38 6 31
3 23 38 8
3 39 38 23
3 39 6 38
3 39 14 6
3 40 14 39
3 40 0 14
3 135 26 136
3 137 26 138
3 139 3 140
3 141 140 26
3 139 140 141
3 142 3 143
3 144 11 145
3 146 145 3
3 144 145 146
3 147 11 148
3 150 149 11
3 152 151 1
3 153 13 154
3 41 155 157
3 155 13 156
3 155 156 157
3 41 5 13
3 158 41 159
3 42 160 162
3 160 41 161
3 160 161 162
3 42 5 41
3 42 30 5
3 43 30 42
3 43 2 30
3 163 10 164
3 163 164 165
3 44 166 167
3 44 168 170
3 168 10 169
3 168 169 170
3 44 43 10
3 45 43 44
3 45 2 43
3 45 24 2
3 46 24 45
3 46 9 24
3 171 46 172
3 47 173 175
3 173 46 174
3 173 174 175
3 47 9 46
3 47 40 9
3 176 40 177
3 178 177 47
3 176 177 178
3 179 0 180
3 181 180 40
3 179 180 181
3 182 0 183
3 186 185 0
3 184 185 186
