ply
format ascii 1.0
element vertex 152
property float x
property float y
property float z
property uchar red
property uchar green
property uchar blue
element face 141
property list uchar int vertex_index
end_header
-68.7263 -11.5031 20.7708 110 255 145
-68.6063 -19.4863 27.0581 126 255 129
-63.5027 -21.4759 21.531 236 255 19
-68.7624 -15.5007 24.0531 120 255 135
-66.8575 -20.5761 23.8611 255 12 0
-66.6743 -16.4023 21.0742 238 0 0
-66.4454 -12.061 17.9847 220 0 0
-67.1131 -24.7259 26.4028 147 255 108
-64.1497 -25.7855 23.7293 208 255 47
-63.0935 -16.9998 19.0288 255 235 0
-68.7768 -13.5181 22.4338 115 255 140
-67.9246 -15.9805 22.4578 255 45 0
-67.8789 -13.9294 20.8849 255 45 0
-67.9489 -22.0918 26.7108 132 255 123
-65.3618 -21.0565 22.5784 200 0 0
-65.5774 -23.1733 23.7832 220 0 0
-63.7952 -23.6457 22.6493 220 255 35
-64.7629 -12.1874 16.951 243 255 12
-64.9113 -14.5092 18.4697 128 0 0
-62.9442 -14.6524 17.6335 152 255 103
-68.7006 -17.4829 25.5972 231 255 24
-67.9452 -20.0448 25.3642 255 49 0
-67.9407 -18.0112 23.9532 255 47 0
-66.7612 -18.4975 22.5116 253 0 0
-65.1885 -18.919 21.2997 176 0 0
-68.5938 -9.42215 19.1094 0 255 255
-67.7825 -11.8272 19.2646 255 47 0
-67.6154 -9.64474 17.6394 135 255 120
-66.2596 -9.7626 16.4001 64 255 191
-66.1203 -27.3595 26.1696 55 255 200
-66.9747 -22.6516 25.1432 255 22 0
-65.8346 -25.2752 24.9597 233 0 0
-64.5521 -27.897 24.8341 80 255 175
-66.5768 -14.2663 19.5558 226 0 0
-65.0453 -16.7446 19.9278 150 0 0
-63.2729 -19.2665 20.33 255 255 0
-69.0403 -16.9495 27.4061 0 163 255
-68.2776 -20.7891 26.8845 0 0 203
-68.2192 -21.8048 27.582 0 0 167
-68.5479 -20.5021 27.7556 0 0 167
-62.5966 -22.772 21.6365 0 0 185
-62.7428 -23.8569 22.1957 0 0 185
-63.649 -22.5608 22.0902 0 0 230
-62.8733 -13.4276 16.8997 0 0 188
-63.8536 -13.4199 17.2922 0 0 235
-63.7827 -12.1951 16.5585 0 0 188
-67.9906 -8.44862 17.568 0 0 163
-68.1046 -9.53345 18.3744 0 0 198
-68.4798 -8.33732 18.303 0 0 163
-66.133 -8.56263 15.6211 0 0 132
-66.8117 -8.56453 16.2267 0 0 132
-65.42 -9.76186 15.9032 0 0 136
-66.133 -8.56263 15.6211 0 0 136
-67.1873 -25.7588 27.0503 0 0 131
-67.5332 -24.4378 27.219 0 0 131
-66.6167 -26.0427 26.2862 0 0 208
-66.691 -27.0756 26.9337 0 0 170
-67.1873 -25.7588 27.0503 0 0 170
-63.3807 -27.093 23.7156 0 0 182
-63.5819 -28.1487 24.268 0 0 182
-64.3509 -26.8412 24.2817 0 0 225
-69.1152 -15.7368 27.5661 0 0 130
-69.0117 -16.704 28.3719 0 0 130
-69.1097 -15.9744 26.6147 0 0 130
-69.1152 -15.7368 27.5661 0 0 130
-67.9511 -23.1208 27.373 0 0 130
-68.2192 -21.8048 27.582 0 0 130
-67.531 -23.4089 26.5568 0 0 204
-67.5332 -24.4378 27.219 0 0 168
-67.9511 -23.1208 27.373 0 0 168
-62.9562 -24.9503 22.6828 0 0 183
-63.1334 -26.0202 23.2228 0 0 183
-63.9725 -24.7156 23.1893 0 0 227
-62.9562 -24.9503 22.6828 0 0 139
-62.7428 -23.8569 22.1957 0 0 139
-67.4896 -8.5056 16.8464 0 0 129
-67.9906 -8.44862 17.568 0 0 129
-66.9375 -9.70367 17.0198 0 0 207
-67.4896 -8.5056 16.8464 0 0 169
-66.8117 -8.56453 16.2267 0 0 169
-64.6716 -10.9743 16.1787 0 0 179
-65.5112 -10.975 16.6756 0 0 221
-65.42 -9.76186 15.9032 0 0 179
-63.7827 -12.1951 16.5585 0 0 141
-64.6716 -10.9743 16.1787 0 0 141
-66.2659 -28.3893 26.822 0 0 170
-66.8365 -28.1053 27.5861 0 0 132
-66.691 -27.0756 26.9337 0 0 170
-65.5489 -28.6684 26.1003 0 0 134
-66.2659 -28.3893 26.822 0 0 134
-64.7648 -28.9371 25.4325 0 0 175
-65.5489 -28.6684 26.1003 0 0 175
-65.3362 -27.6283 25.5019 0 0 215
-63.8508 -29.2018 24.8018 0 0 138
-64.7648 -28.9371 25.4325 0 0 138
-63.8508 -29.2018 24.8018 0 0 138
-63.5819 -28.1487 24.268 0 0 138
-63.3807 -27.093 23.7156 0 0 138
-63.1334 -26.0202 23.2228 0 0 138
-61.8485 -14.676 17.3348 0 0 145
-62.8733 -13.4276 16.8997 0 0 145
-61.9181 -15.9114 18.0014 0 0 144
-61.8485 -14.676 17.3348 0 0 144
-61.9928 -17.085 18.6991 0 0 194
-63.0189 -15.8261 18.3311 0 0 244
-61.9181 -15.9114 18.0014 0 0 194
-62.0884 -18.2706 19.3132 0 0 143
-61.9928 -17.085 18.6991 0 0 143
-62.1781 -19.404 19.9638 0 0 191
-63.1832 -18.1332 19.6794 0 0 239
-62.0884 -18.2706 19.3132 0 0 191
-62.3092 -20.5505 20.5232 0 0 141
-62.1781 -19.404 19.9638 0 0 141
-62.4241 -21.6552 21.1236 0 0 188
-63.3878 -20.3712 20.9305 0 0 234
-62.3092 -20.5505 20.5232 0 0 188
-62.5966 -22.772 21.6365 0 0 140
-62.4241 -21.6552 21.1236 0 0 140
-68.7277 -19.2117 27.9809 0 0 131
-68.5479 -20.5021 27.7556 0 0 131
-68.9446 -17.9433 28.1549 0 0 167
-68.9161 -17.6978 29.1208 0 0 131
-69.0117 -16.704 28.3719 0 0 167
-68.8233 -18.2179 27.2321 0 0 203
-68.7277 -19.2117 27.9809 0 0 167
-68.9446 -17.9433 28.1549 0 0 167
-68.9398 -16.241 25.7102 0 0 166
-68.8704 -17.2162 26.5016 0 0 201
-69.1097 -15.9744 26.6147 0 0 166
-68.9707 -15.2499 24.9382 0 0 165
-68.7315 -16.4918 24.8251 0 0 200
-68.9398 -16.241 25.7102 0 0 165
-69.0083 -14.2839 24.1098 0 0 129
-68.9707 -15.2499 24.9382 0 0 129
-69.0155 -13.2926 23.3001 0 0 163
-68.7696 -14.5094 23.2434 0 0 198
-69.0083 -14.2839 24.1098 0 0 163
-69.0151 -12.3196 22.4515 0 0 129
-69.0155 -13.2926 23.3001 0 0 129
-68.9899 -11.3121 21.62 0 0 162
-68.7515 -12.5106 21.6023 0 0 196
-69.0151 -12.3196 22.4515 0 0 162
-68.9454 -10.3137 20.775 0 0 128
-68.9899 -11.3121 21.62 0 0 128
-68.8791 -9.27329 19.9443 0 0 161
-68.6601 -10.4626 19.9401 0 0 195
-68.9454 -10.3137 20.775 0 0 161
-68.7847 -8.23507 19.1277 0 0 161
-68.8791 -9.27329 19.9443 0 0 161
-69.07 -8.08622 19.9626 0 0 128
-68.4798 -8.33732 18.303 0 0 128
-68.7847 -8.23507 19.1277 0 0 128
3 0 12 10
3 1 37 39
3 37 13 38
3 37 38 39
3 2 16 14
3 2 40 42
3 42 41 16
3 40 41 42
3 43 19 44
3 45 44 17
3 43 44 45
3 3 22 20
3 5 23 11
3 5 24 23
3 46 27 47
3 48 47 25
3 46 47 48
3 49 28 50
3 52 51 28
3 7 53 54
3 7 55 57
3 55 29 56
3 55 56 57
3 4 30 21
3 8 31 15
3 8 32 31
3 8 58 60
3 60 59 32
3 58 59 60
3 6 33 26
3 9 34 18
3 9 35 34
3 61 36 62
3 64 63 36
3 10 11 3
3 12 11 10
3 12 5 11
3 13 65 66
3 13 67 69
3 67 7 68
3 67 68 69
3 14 15 4
3 16 15 14
3 16 8 15
3 16 70 72
3 72 71 8
3 70 71 72
3 74 73 16
3 17 18 6
3 19 18 17
3 19 9 18
3 20 21 1
3 22 21 20
3 22 4 21
3 11 22 3
3 23 22 11
3 23 4 22
3 23 14 4
3 24 14 23
3 24 2 14
3 25 26 0
3 27 26 25
3 27 6 26
3 75 27 76
3 28 77 79
3 77 27 78
3 77 78 79
3 28 6 27
3 28 17 6
3 80 17 81
3 82 81 28
3 80 81 82
3 84 83 17
3 29 85 87
3 85 86 87
3 29 88 89
3 21 13 1
3 30 13 21
3 30 7 13
3 15 30 4
3 31 30 15
3 31 7 30
3 31 29 7
3 32 29 31
3 32 90 92
3 92 91 29
3 90 91 92
3 32 93 94
3 96 95 32
3 98 97 8
3 26 12 0
3 33 12 26
3 33 5 12
3 18 33 6
3 34 33 18
3 34 5 33
3 34 24 5
3 35 24 34
3 35 2 24
3 99 19 100
3 101 19 102
3 103 9 104
3 105 104 19
3 103 104 105
3 106 9 107
3 108 35 109
3 110 109 9
3 108 109 110
3 111 35 112
3 113 2 114
3 115 114 35
3 113 114 115
3 117 116 2
3 118 1 119
3 36 120 122
3 120 121 122
3 36 123 125
3 123 1 124
3 123 124 125
3 36 20 1
3 126 20 127
3 128 127 36
3 126 127 128
3 129 3 130
3 131 130 20
3 129 130 131
3 132 3 133
3 134 10 135
3 136 135 3
3 134 135 136
3 137 10 138
3 139 0 140
3 141 140 10
3 139 140 141
3 142 0 143
3 144 25 145
3 146 145 0
3 144 145 146
3 147 25 148
3 147 148 149
3 151 150 25
