ply
format ascii 1.0
element vertex 580
property float x
property float y
property float z
property uchar red
property uchar green
property uchar blue
element face 713
property list uchar int vertex_index
end_header
-20.4915 -70.4824 12.9006 255 63 0
-25.1687 -56.2531 26.0753 255 174 0
-29.9289 -54.8896 6.58484 255 39 0
-30.9649 -50.3675 23.1374 67 255 188
-18.8586 -77.2242 3.7437 126 255 129
-23.4341 -68.1891 2.2569 255 172 0
-34.7252 -46.9256 3.07241 255 118 0
-32.6339 -50.569 -3.97009 22 255 233
-16.9634 -69.9233 22.2622 255 123 0
-10.728 -74.9667 22.2779 214 255 41
-15.1888 -77.9212 13.4782 255 225 0
-22.5257 -63.8188 20.2309 255 105 0
-25.1099 -62.6648 10.1613 255 49 0
-27.8847 -56.9693 17.0294 255 100 0
-33.1025 -49.7481 13.5732 255 72 0
-37.1218 -42.0936 10.197 255 124 0
-19.0778 -61.39 28.3713 44 255 211
-27.8048 -59.3457 -0.554578 239 0 0
-19.6841 -73.8042 8.43964 192 0 0
-21.1678 -72.8756 3.31032 255 254 0
-21.9088 -69.6518 7.75047 173 0 0
-36.6425 -42.7687 1.64645 255 150 0
-35.7573 -44.5589 -1.95173 124 255 131
-18.903 -70.664 17.6899 255 7 0
-16.0383 -74.0074 18.1815 255 22 0
-17.9835 -74.3118 13.506 248 0 0
-17.043 -78.0084 8.75537 232 255 23
-23.8331 -60.1945 23.2471 255 142 0
-25.2641 -60.3468 18.7718 255 88 0
-26.7546 -56.9449 21.8094 255 121 0
-33.5516 -46.9727 21.5956 0 239 255
-32.1453 -50.4108 18.5762 255 97 0
-34.6107 -46.7288 16.8942 255 100 0
-35.2893 -46.1004 11.9739 255 88 0
-36.5866 -43.0364 15.1506 189 255 66
-22.2354 -58.7894 27.3324 255 216 0
-20.9627 -63.0655 24.6043 255 172 0
-27.5233 -58.7049 8.21551 255 4 0
-26.3634 -61.2198 4.76296 255 17 0
-28.7787 -57.0034 2.80387 255 71 0
-28.1745 -53.3968 24.6371 255 202 0
-32.4007 -50.9754 4.77749 255 32 0
-31.2146 -52.9062 1.11509 255 55 0
-33.5858 -48.8344 -0.366076 255 105 0
-14.9717 -68.1445 26.2142 255 164 0
-11.6451 -70.2941 26.4735 94 255 161
-13.9538 -72.5488 22.552 255 76 0
-12.9463 -76.9371 18.1227 255 63 0
-21.4583 -67.1812 16.6891 255 59 0
-22.7313 -66.7238 11.761 255 44 0
-23.8798 -63.6411 15.2835 255 77 0
-26.4067 -59.8709 13.6274 255 22 0
-28.8396 -56.2895 11.9585 255 61 0
-29.5095 -53.7562 20.2454 255 149 0
-30.4959 -53.4942 15.2417 255 62 0
-31.4257 -52.4922 10.1473 255 39 0
-33.8401 -48.696 8.40651 255 46 0
-35.938 -44.7795 6.67293 255 87 0
-37.525 -40.5395 5.18134 180 255 75
-15.8508 -63.7113 29.1833 0 206 255
-17.9489 -65.8232 25.6002 255 160 0
-19.8994 -66.7853 21.5806 255 135 0
-24.1161 -65.4174 6.37717 220 0 0
-25.5237 -63.8506 0.951156 218 0 0
-30.1669 -55.0137 -2.32342 255 40 0
-29.5494 -57.0504 -5.94789 53 255 202
-20.1023 -72.0796 10.7529 255 7 0
-20.7431 -71.8705 8.19482 204 0 0
-21.1822 -70.2033 10.3245 255 11 0
-37.3594 -40.6834 1.08151 54 255 201
-37.0085 -41.5957 -0.728382 0 227 255
-19.7674 -70.6504 15.2514 255 38 0
-18.4795 -72.4976 15.5464 255 19 0
-19.3311 -72.3788 13.1392 255 21 0
-18.8828 -74.0744 11.0677 189 0 0
-24.45 -58.265 24.7837 255 174 0
-25.237 -58.5909 22.6871 255 125 0
-25.9628 -56.7521 24.0518 255 147 0
-34.1739 -46.8188 19.3517 190 255 65
-35.265 -45.0039 18.606 100 255 155
-35.6382 -44.9318 16.0853 255 109 0
-36.2446 -43.21 17.637 0 248 255
-24.2412 -55.5215 27.958 24 255 231
-22.726 -56.7387 28.5203 4 255 251
-23.686 -57.4885 26.8043 255 228 0
-23.082 -59.5358 25.4556 255 178 0
-28.7548 -56.7304 7.43429 255 32 0
-28.0846 -57.9816 5.54524 255 13 0
-29.2703 -56.0339 4.64732 255 36 0
-22.2926 -70.5936 2.8207 255 254 0
-24.1569 -67.4755 -0.369687 89 255 166
-33.6621 -48.8573 3.90499 255 59 0
-32.9518 -50.0032 2.13116 255 67 0
-34.131 -47.9152 1.24376 255 100 0
-35.2823 -45.4857 -3.79826 12 255 243
-15.9274 -69.1862 24.313 255 171 0
-14.397 -70.3505 24.5291 255 135 0
-15.5751 -71.141 22.5229 255 117 0
-15.6277 -75.9383 15.9446 255 4 0
-14.5377 -75.4635 18.286 255 47 0
-14.135 -77.3916 16.0391 255 14 0
-12.5698 -78.8814 15.8162 152 255 103
-13.7212 -79.3843 13.5285 61 255 194
-17.9543 -77.6995 6.30985 242 255 13
-22.0336 -65.4724 18.4136 255 83 0
-22.7301 -65.338 16.0039 255 65 0
-23.3356 -63.693 17.7486 255 95 0
-26.5711 -58.6438 18.0247 255 102 0
-25.8706 -60.1544 16.3387 255 50 0
-27.1318 -58.4227 15.4153 255 79 0
-27.5992 -58.1242 12.6959 255 76 0
-28.3141 -56.7892 14.5308 255 58 0
-29.587 -51.9428 23.8742 135 255 120
-28.8734 -53.7011 22.4935 255 184 0
-30.2228 -52.157 21.75 255 171 0
-32.6358 -50.1636 16.1511 255 60 0
-31.3621 -51.9459 16.9823 255 61 0
-31.7906 -51.685 14.3953 255 31 0
-30.9506 -53.0864 12.6458 255 57 0
-32.2825 -51.131 11.8221 255 34 0
-32.6726 -50.5903 9.06732 255 60 0
-33.4633 -49.3044 11.0058 255 62 0
-36.2709 -44.1479 11.0024 255 103 0
-35.6274 -45.4966 9.31396 255 95 0
-36.512 -43.5987 8.53611 255 102 0
-36.8099 -42.733 5.95422 255 102 0
-37.2927 -41.5114 7.63544 255 120 0
-17.4442 -62.5477 28.8623 48 255 207
-16.9621 -64.7551 27.5402 255 174 0
-18.5426 -63.5816 27.0796 255 163 0
-21.7554 -63.5883 22.5019 255 143 0
-20.3627 -65.0218 23.1483 255 169 0
-21.2639 -65.3419 20.8355 255 138 0
-20.7042 -67.102 19.2295 255 89 0
-23.9521 -64.6362 10.9703 255 30 0
-23.3989 -66.1595 9.16652 243 0 0
-24.5405 -64.1047 8.31654 252 0 0
-27.065 -60.3211 2.05351 255 7 0
-25.9824 -62.377 2.78677 239 0 0
-26.652 -61.6332 0.027815 246 0 0
-26.3433 -62.82 -1.65088 164 255 91
-27.4694 -60.5448 -2.43557 255 233 0
-31.8561 -51.8657 -1.35927 255 66 0
-30.6042 -54.0438 -0.606759 255 41 0
-31.4511 -52.711 -3.22792 255 248 0
-11.1917 -72.6724 24.432 176 255 79
-9.66191 -73.5009 24.4071 0 149 255
-19.2636 -75.5041 6.1908 147 0 0
-20.0334 -75.117 3.52092 248 255 7
-20.4338 -73.4032 5.8457 157 0 0
-21.5796 -71.124 5.596 128 0 0
-22.6741 -68.9713 4.93367 134 0 0
-35.7165 -44.9421 2.49094 255 117 0
-35.1817 -45.8995 0.642654 255 91 0
-36.1899 -43.7113 -0.05016 204 255 51
-17.9822 -70.3846 20.0646 255 27 0
-16.4913 -72.0052 20.2719 255 56 0
-17.4929 -72.4363 17.9365 255 13 0
-17.1332 -74.2368 15.7743 255 19 0
-16.5748 -76.1805 13.6428 246 0 0
-16.2018 -77.9442 11.2291 192 255 63
-17.5801 -76.0676 11.1828 171 0 0
-18.4347 -75.9218 8.5973 142 0 0
-23.1572 -62.0237 21.8236 255 105 0
-23.917 -62.1233 19.403 255 88 0
-24.5778 -60.3974 21.0531 255 104 0
-26.0153 -58.6176 20.4058 255 108 0
-27.3777 -57.0202 19.4631 255 125 0
-32.2755 -48.7314 22.3833 66 255 189
-31.6522 -50.3926 20.9234 255 144 0
-32.9238 -48.688 20.1275 255 137 0
-33.4532 -48.4943 17.9142 255 90 0
-33.808 -48.4013 15.3506 255 88 0
-34.2231 -47.9607 12.854 255 96 0
-34.965 -46.4957 14.4994 255 105 0
-35.987 -44.5948 13.5871 255 108 0
-36.8471 -42.7231 12.6785 255 123 0
-21.2161 -58.0133 28.9611 0 187 255
-20.6551 -60.2014 27.8167 128 255 127
-20.0657 -62.3121 26.5995 255 184 0
-21.571 -60.9814 26.0397 255 183 0
-22.3691 -61.5917 24.1078 255 145 0
-26.2477 -60.7892 9.16764 255 32 0
-25.6266 -62.1794 7.45851 255 25 0
-26.817 -60.1191 6.49735 255 9 0
-27.558 -59.1022 3.78899 255 38 0
-28.214 -58.212 1.27757 255 62 0
-10.1685 -77.2384 20.0227 30 255 225
-25.8487 -54.1782 27.3189 49 255 206
-26.7394 -54.7419 25.419 255 180 0
-27.4158 -52.7701 26.6755 31 255 224
-28.8243 -51.5466 25.8923 0 197 255
-31.1648 -52.9528 5.77959 255 26 0
-30.5157 -54.0107 3.89293 255 20 0
-31.7564 -51.9951 2.89188 255 39 0
-32.439 -50.8366 0.267221 255 92 0
-33.0838 -49.7037 -2.25288 219 255 36
-34.711 -46.719 -1.28072 255 87 0
-34.1761 -47.6901 -2.98943 117 255 138
-13.7955 -67.0401 28.0155 64 255 191
-12.3135 -67.8931 28.1946 0 228 255
-13.3207 -69.3593 26.3117 255 140 0
-12.7868 -71.5647 24.5354 255 126 0
-12.28 -73.6819 22.6563 255 87 0
-14.9736 -73.3642 20.5222 255 66 0
-13.4753 -74.7579 20.3942 255 55 0
-11.9021 -75.9723 20.2962 255 49 0
-11.3747 -78.1299 18.026 130 255 125
-20.9983 -68.8039 14.7475 255 74 0
-21.6013 -68.6726 12.3139 255 68 0
-22.1539 -66.9991 14.1604 255 57 0
-23.3544 -65.1023 13.3776 255 60 0
-24.5356 -63.1706 12.7252 255 52 0
-24.568 -62.0073 16.9876 255 77 0
-25.1313 -61.7589 14.522 255 24 0
-25.7538 -61.2513 11.7809 255 40 0
-26.9452 -59.3929 10.8393 255 50 0
-28.1285 -57.544 10.1934 255 65 0
-29.3421 -55.6988 9.30774 255 62 0
-27.394 -55.2357 23.3939 255 167 0
-28.1689 -55.2827 21.142 255 142 0
-28.6382 -55.448 18.7561 255 89 0
-30.8308 -52.084 19.586 255 121 0
-30.066 -53.6429 17.8661 255 58 0
-29.208 -55.2174 16.1617 255 40 0
-29.727 -54.8136 13.56 255 49 0
-30.0977 -54.461 10.9265 255 58 0
-30.6493 -53.7201 8.37382 255 39 0
-31.9456 -51.7276 7.47494 255 62 0
-33.1166 -49.8539 6.50486 255 70 0
-34.2748 -47.8728 5.6956 255 72 0
-34.5937 -47.4153 10.2761 255 70 0
-34.9496 -46.741 7.59762 255 66 0
-35.3077 -45.9383 4.93573 255 97 0
-36.2974 -43.8122 4.07568 255 114 0
-37.0869 -41.7632 3.45329 255 145 0
-37.6772 -39.656 2.64778 0 214 255
-15.4178 -65.9988 27.7444 147 255 108
-16.5137 -67.0199 25.9171 255 172 0
-17.4637 -67.9485 23.9175 255 157 0
-19.4907 -64.4589 25.1449 255 164 0
-18.9168 -66.4805 23.6481 255 167 0
-18.5043 -68.3786 21.908 255 107 0
-19.4425 -68.6964 19.6521 255 58 0
-20.247 -68.8862 17.221 255 49 0
-37.3511 -41.1413 14.5034 0 240 255
-37.5651 -40.7486 12.0342 78 255 177
-37.7126 -40.2471 9.48911 73 255 182
-37.8628 -39.4077 6.93696 0 232 255
-22.2842 -68.1917 9.83813 255 4 0
-23.0352 -67.4783 7.13953 188 0 0
-23.7611 -66.7425 4.37076 184 0 0
-25.232 -63.3338 5.45502 248 0 0
-24.872 -64.5407 3.5732 218 0 0
-24.4357 -66.0854 1.66505 194 0 0
-25.2679 -65.1145 -1.08487 215 255 40
-29.974 -54.9837 2.00198 255 44 0
-29.3802 -56.1688 0.275497 255 68 0
-28.9685 -57.1899 -1.46087 255 14 0
-30.9627 -53.8639 -4.90694 38 255 217
-29.8032 -56.0325 -4.09745 255 239 0
-28.6081 -58.3446 -3.36959 238 0 0
-28.3572 -59.4378 -5.13046 55 255 200
-37.5047 -40.0533 -0.200597 0 0 132
-37.6133 -39.6047 0.634687 0 0 132
-35.5259 -44.1405 19.3288 0 0 132
-35.009 -45.0253 19.7672 0 0 132
-36.0156 -43.2435 18.8443 0 0 165
-35.7548 -44.107 18.1215 0 0 198
-35.5259 -44.1405 19.3288 0 0 165
-19.2536 -77.0325 2.38394 0 0 145
-18.6491 -78.0826 2.50367 0 0 145
-23.2652 -68.9683 1.24685 0 0 187
-22.6945 -70.1705 1.52875 0 0 187
-22.8633 -69.3913 2.5388 0 0 231
-23.7955 -67.8323 0.943608 0 0 225
-23.6266 -68.6115 -0.066441 0 0 184
-23.2652 -68.9683 1.24685 0 0 184
-14.9044 -78.8893 12.3128 0 0 173
-14.1707 -79.6209 12.338 0 0 173
-14.455 -78.6527 13.5033 0 0 210
-18.2041 -78.3102 3.77869 0 0 191
-17.752 -78.5478 5.06176 0 0 191
-18.4064 -77.4618 5.02677 0 0 236
-18.6491 -78.0826 2.50367 0 0 145
-18.2041 -78.3102 3.77869 0 0 145
-18.6072 -60.7873 29.1556 0 0 129
-19.3686 -60.2481 28.9355 0 0 129
-18.261 -61.9688 28.6168 0 0 191
-17.7904 -61.3661 29.4011 0 0 161
-18.6072 -60.7873 29.1556 0 0 161
-36.8407 -41.9872 -1.65301 0 0 134
-37.2162 -40.8841 -2.01879 0 0 134
-9.3042 -77.7117 19.9723 0 0 137
-9.95259 -78.2672 18.9046 0 0 137
-26.9644 -52.4684 27.5007 0 0 156
-26.6322 -53.4742 26.9972 0 0 183
-26.1809 -53.1724 27.8224 0 0 156
-29.1225 -50.5287 26.5119 0 0 130
-28.4148 -51.1571 26.8543 0 0 130
-29.5606 -50.7493 25.5633 0 0 131
-29.1225 -50.5287 26.5119 0 0 131
-26.1809 -53.1724 27.8224 0 0 129
-25.3505 -53.7898 28.1647 0 0 129
-21.0331 -73.6305 2.10783 0 0 189
-20.4659 -74.7511 2.21314 0 0 189
-20.6006 -73.9963 3.41562 0 0 233
-34.5416 -46.9577 -4.30023 0 0 171
-34.7292 -46.5879 -3.39384 0 0 206
-35.0947 -45.8555 -4.70464 0 0 171
-34.0035 -48.0199 -4.00822 0 0 137
-34.5416 -46.9577 -4.30023 0 0 137
-11.7331 -79.5696 15.6973 0 0 141
-12.2953 -79.9584 14.5285 0 0 141
-16.3219 -78.9706 8.77224 0 0 185
-15.9013 -78.9385 10.0091 0 0 185
-16.6224 -77.9763 9.99226 0 0 227
-15.3624 -62.9505 29.9801 0 0 132
-16.1827 -62.4935 29.7662 0 0 132
-15.0929 -64.1729 29.3422 0 0 130
-15.3624 -62.9505 29.9801 0 0 130
-15.6343 -64.8551 28.4638 0 0 190
-14.8764 -65.3166 28.6227 0 0 160
-15.0929 -64.1729 29.3422 0 0 160
-37.6585 -40.1796 13.9959 0 0 133
-37.5614 -40.2914 15.2234 0 0 133
-37.7655 -39.9833 12.7613 0 0 163
-37.4581 -40.9449 13.2688 0 0 194
-37.6585 -40.1796 13.9959 0 0 163
-37.9305 -39.2372 9.07382 0 0 132
-37.9123 -39.4658 10.2766 0 0 132
-38.0056 -38.8175 7.79775 0 0 163
-37.7877 -39.8274 8.21303 0 0 194
-37.9305 -39.2372 9.07382 0 0 163
-26.2278 -63.4531 -2.62321 0 0 142
-26.7837 -62.2927 -3.01099 0 0 142
-31.4125 -53.1974 -6.24311 0 0 138
-31.5859 -52.7063 -5.39188 0 0 138
-29.6763 -56.5415 -5.02267 0 0 217
-30.2589 -55.4032 -5.4532 0 0 178
-30.1319 -55.9122 -6.37842 0 0 178
-11.1293 -69.573 27.3677 0 0 168
-11.4635 -68.3725 28.2283 0 0 168
-11.9793 -69.0936 27.3341 0 0 201
-37.3292 -40.5094 -1.10554 0 0 167
-37.184 -41.1396 0.176562 0 0 200
-37.5047 -40.0533 -0.200597 0 0 167
-37.2162 -40.8841 -2.01879 0 0 133
-37.3292 -40.5094 -1.10554 0 0 133
-34.4634 -45.9327 20.14 0 0 168
-33.8627 -46.8957 20.4736 0 0 201
-34.1523 -46.0097 21.2619 0 0 168
-34.7194 -45.9114 18.9788 0 0 199
-34.4634 -45.9327 20.14 0 0 166
-35.009 -45.0253 19.7672 0 0 166
-23.4836 -56.1301 28.2392 0 0 184
-23.0173 -55.6486 29.0343 0 0 156
-23.7749 -55.04 28.7531 0 0 156
-22.1662 -71.2979 1.74268 0 0 186
-21.6038 -72.4389 1.98749 0 0 186
-21.7302 -71.7346 3.06551 0 0 229
-22.1662 -71.2979 1.74268 0 0 142
-22.6945 -70.1705 1.52875 0 0 142
-24.0464 -68.1588 -1.39376 0 0 142
-23.6266 -68.6115 -0.066441 0 0 142
-24.599 -66.9706 -1.73796 0 0 144
-24.0464 -68.1588 -1.39376 0 0 144
-35.7931 -44.3474 -4.12659 0 0 173
-35.5198 -45.0223 -2.875 0 0 209
-36.0306 -43.8841 -3.20333 0 0 173
-35.5974 -44.7767 -5.04281 0 0 136
-35.7931 -44.3474 -4.12659 0 0 136
-35.0947 -45.8555 -4.70464 0 0 134
-35.5974 -44.7767 -5.04281 0 0 134
-12.871 -80.2098 13.3846 0 0 186
-12.2953 -79.9584 14.5285 0 0 186
-13.1455 -79.1329 14.6724 0 0 228
-13.4154 -80.4054 12.2971 0 0 141
-12.871 -80.2098 13.3846 0 0 141
-13.4154 -80.4054 12.2971 0 0 139
-14.1707 -79.6209 12.338 0 0 139
-17.2734 -78.7311 6.31068 0 0 186
-16.8178 -78.8856 7.53344 0 0 186
-17.4986 -77.8539 7.53261 0 0 228
-17.2734 -78.7311 6.31068 0 0 144
-17.752 -78.5478 5.06176 0 0 144
-16.9794 -61.9116 29.6057 0 0 130
-17.7904 -61.3661 29.4011 0 0 130
-16.6475 -63.1295 29.0228 0 0 189
-16.1827 -62.4935 29.7662 0 0 159
-16.9794 -61.9116 29.6057 0 0 159
-27.3468 -61.1551 -3.40333 0 0 182
-26.7837 -62.2927 -3.01099 0 0 182
-26.9064 -61.6824 -2.04322 0 0 222
-30.0241 -56.403 -7.22489 0 0 136
-30.1319 -55.9122 -6.37842 0 0 136
-29.409 -57.6684 -6.8167 0 0 141
-30.0241 -56.403 -7.22489 0 0 141
-10.6628 -71.9807 25.3812 0 0 165
-10.8896 -70.7915 26.4019 0 0 165
-11.4184 -71.4832 25.4528 0 0 197
-9.89795 -72.3949 25.3687 0 0 162
-10.6628 -71.9807 25.3812 0 0 162
-10.4268 -73.0867 24.4196 0 0 192
-9.08339 -72.7866 25.362 0 0 133
-9.89795 -72.3949 25.3687 0 0 133
-36.4313 -43.045 -1.3139 0 0 166
-36.5992 -42.6535 -0.389271 0 0 199
-36.8407 -41.9872 -1.65301 0 0 166
-36.215 -43.4688 -2.26469 0 0 170
-35.9736 -44.1351 -1.00095 0 0 205
-36.4313 -43.045 -1.3139 0 0 170
-36.0306 -43.8841 -3.20333 0 0 135
-36.215 -43.4688 -2.26469 0 0 135
-22.2092 -56.2589 29.278 0 0 129
-23.0173 -55.6486 29.0343 0 0 129
-21.4542 -56.8962 29.4984 0 0 156
-22.2092 -56.2589 29.278 0 0 156
-21.971 -57.376 28.7407 0 0 184
-20.6711 -57.4685 29.7221 0 0 129
-21.4542 -56.8962 29.4984 0 0 129
-20.4378 -58.5597 29.2304 0 0 128
-20.6711 -57.4685 29.7221 0 0 128
-20.1573 -59.6538 28.6582 0 0 159
-20.4378 -58.5597 29.2304 0 0 159
-20.9356 -59.1074 28.3889 0 0 188
-19.8664 -60.7957 28.094 0 0 192
-19.3686 -60.2481 28.9355 0 0 161
-20.1573 -59.6538 28.6582 0 0 161
-32.4215 -51.0589 -4.92345 0 0 138
-33.0028 -49.9444 -5.25583 0 0 138
-9.64136 -76.5553 21.1041 0 0 171
-9.92109 -75.4195 22.2317 0 0 171
-10.4483 -76.1026 21.1503 0 0 206
-9.64136 -76.5553 21.1041 0 0 138
-9.3042 -77.7117 19.9723 0 0 138
-27.7106 -51.7689 27.2459 0 0 128
-26.9644 -52.4684 27.5007 0 0 128
-28.12 -52.1584 26.2839 0 0 186
-27.7106 -51.7689 27.2459 0 0 158
-28.4148 -51.1571 26.8543 0 0 158
-29.942 -50.9474 24.5542 0 0 164
-29.2056 -51.7447 24.8833 0 0 196
-29.5606 -50.7493 25.5633 0 0 164
-30.631 -50.1597 24.1858 0 0 164
-30.276 -51.1551 23.5058 0 0 196
-29.942 -50.9474 24.5542 0 0 164
-31.3116 -49.3529 23.852 0 0 133
-30.631 -50.1597 24.1858 0 0 133
-31.9669 -48.5349 23.4749 0 0 166
-31.6202 -49.5495 22.7603 0 0 199
-31.3116 -49.3529 23.852 0 0 166
-32.5787 -47.7704 23.1013 0 0 131
-31.9669 -48.5349 23.4749 0 0 131
-33.2168 -46.891 22.7074 0 0 167
-32.9136 -47.8521 21.9894 0 0 200
-32.5787 -47.7704 23.1013 0 0 167
-33.8047 -46.0351 22.3636 0 0 132
-33.2168 -46.891 22.7074 0 0 132
-34.1523 -46.0097 21.2619 0 0 134
-33.8047 -46.0351 22.3636 0 0 134
-24.5468 -54.4614 28.4843 0 0 128
-23.7749 -55.04 28.7531 0 0 128
-25.0449 -54.8499 27.6384 0 0 189
-24.5468 -54.4614 28.4843 0 0 160
-25.3505 -53.7898 28.1647 0 0 160
-19.841 -75.9789 2.27255 0 0 190
-19.2536 -77.0325 2.38394 0 0 190
-19.446 -76.1706 3.63231 0 0 234
-19.841 -75.9789 2.27255 0 0 150
-20.4659 -74.7511 2.21314 0 0 150
-21.0331 -73.6305 2.10783 0 0 147
-21.6038 -72.4389 1.98749 0 0 147
-33.4574 -49.0267 -3.63994 0 0 172
-33.63 -48.6969 -2.62115 0 0 208
-34.0035 -48.0199 -4.00822 0 0 172
-33.2324 -49.4594 -4.49855 0 0 174
-32.8589 -50.1363 -3.11149 0 0 211
-33.4574 -49.0267 -3.63994 0 0 174
-33.0028 -49.9444 -5.25583 0 0 134
-33.2324 -49.4594 -4.49855 0 0 134
-13.0545 -67.4666 28.1051 0 0 189
-12.54 -66.7079 28.9779 0 0 160
-13.281 -66.2814 28.8883 0 0 160
-10.5557 -78.7129 17.9063 0 0 170
-9.95259 -78.2672 18.9046 0 0 170
-10.7716 -77.6842 19.0244 0 0 204
-11.1356 -79.1938 16.8022 0 0 179
-11.9723 -78.5057 16.9211 0 0 218
-11.7331 -79.5696 15.6973 0 0 179
-10.5557 -78.7129 17.9063 0 0 138
-11.1356 -79.1938 16.8022 0 0 138
-15.411 -78.9008 11.1883 0 0 182
-14.9044 -78.8893 12.3128 0 0 182
-15.6953 -77.9327 12.3537 0 0 223
-15.411 -78.9008 11.1883 0 0 143
-15.9013 -78.9385 10.0091 0 0 143
-16.3219 -78.9706 8.77224 0 0 143
-16.8178 -78.8856 7.53344 0 0 143
-37.7722 -39.091 1.41782 0 0 161
-37.6133 -39.6047 0.634687 0 0 161
-37.5183 -40.1697 1.86464 0 0 192
-14.0652 -65.8373 28.7583 0 0 132
-13.281 -66.2814 28.8883 0 0 132
-14.6067 -66.5195 27.88 0 0 198
-14.0652 -65.8373 28.7583 0 0 166
-14.8764 -65.3166 28.6227 0 0 166
-36.4549 -42.3428 18.4597 0 0 133
-36.0156 -43.2435 18.8443 0 0 133
-36.6508 -42.2961 17.2818 0 0 132
-36.4549 -42.3428 18.4597 0 0 132
-36.8218 -42.2093 16.0385 0 0 166
-36.4156 -43.1232 16.3938 0 0 199
-36.6508 -42.2961 17.2818 0 0 166
-37.2041 -41.2618 15.715 0 0 133
-37.5614 -40.2914 15.2234 0 0 133
-36.9689 -42.0888 14.827 0 0 198
-36.8218 -42.2093 16.0385 0 0 166
-37.2041 -41.2618 15.715 0 0 166
-37.8385 -39.7165 11.5492 0 0 132
-37.7655 -39.9833 12.7613 0 0 132
-37.6388 -40.4978 10.7617 0 0 202
-37.8385 -39.7165 11.5492 0 0 168
-37.9123 -39.4658 10.2766 0 0 168
-38.0205 -38.4069 6.52358 0 0 131
-38.0056 -38.8175 7.79775 0 0 131
-37.9009 -39.0283 5.67587 0 0 131
-38.0205 -38.4069 6.52358 0 0 131
-37.732 -39.5942 4.79806 0 0 159
-37.6939 -39.9736 6.05915 0 0 189
-37.9009 -39.0283 5.67587 0 0 159
-37.8081 -39.1525 3.53127 0 0 158
-37.6011 -40.0978 3.91456 0 0 187
-37.732 -39.5942 4.79806 0 0 158
-37.8573 -38.6418 2.31209 0 0 130
-37.8081 -39.1525 3.53127 0 0 130
-37.7722 -39.091 1.41782 0 0 130
-37.8573 -38.6418 2.31209 0 0 130
-25.1545 -65.7901 -2.09556 0 0 187
-24.599 -66.9706 -1.73796 0 0 187
-24.7124 -66.295 -0.727278 0 0 230
-25.6901 -64.6003 -2.34021 0 0 179
-25.8056 -63.9673 -1.36787 0 0 218
-26.2278 -63.4531 -2.62321 0 0 179
-25.1545 -65.7901 -2.09556 0 0 142
-25.6901 -64.6003 -2.34021 0 0 142
-31.8301 -52.1299 -4.55237 0 0 175
-32.0425 -51.64 -3.59901 0 0 213
-32.4215 -51.0589 -4.92345 0 0 175
-31.2069 -53.2874 -4.06743 0 0 216
-31.8301 -52.1299 -4.55237 0 0 178
-31.5859 -52.7063 -5.39188 0 0 178
-30.8386 -54.3189 -5.85794 0 0 138
-31.4125 -53.1974 -6.24311 0 0 138
-30.383 -54.9482 -4.5022 0 0 213
-30.8386 -54.3189 -5.85794 0 0 175
-30.2589 -55.4032 -5.4532 0 0 175
-27.7907 -60.6015 -4.75078 0 0 183
-27.3468 -61.1551 -3.40333 0 0 183
-27.9133 -59.9913 -3.78301 0 0 224
-28.8129 -58.862 -6.40798 0 0 179
-28.9533 -58.2441 -5.53917 0 0 218
-29.409 -57.6684 -6.8167 0 0 179
-28.2713 -60.021 -6.11887 0 0 140
-28.8129 -58.862 -6.40798 0 0 140
-27.7907 -60.6015 -4.75078 0 0 142
-28.2713 -60.021 -6.11887 0 0 142
-11.7532 -67.206 29.0118 0 0 131
-12.54 -66.7079 28.9779 0 0 131
-11.7532 -67.206 29.0118 0 0 132
-11.4635 -68.3725 28.2283 0 0 132
-11.1293 -69.573 27.3677 0 0 132
-10.8896 -70.7915 26.4019 0 0 132
-9.38805 -74.6866 23.2963 0 0 171
-10.1949 -74.2338 23.3425 0 0 207
-9.92109 -75.4195 22.2317 0 0 171
-8.8061 -73.9599 24.3294 0 0 138
-9.38805 -74.6866 23.2963 0 0 138
-9.08339 -72.7866 25.362 0 0 136
-8.8061 -73.9599 24.3294 0 0 136
3 0 68 66
3 264 263 69
3 0 73 71
3 0 66 73
3 1 77 75
3 265 79 266
3 267 81 268
3 269 268 79
3 267 268 269
3 1 84 82
3 1 75 84
3 2 88 86
3 4 270 271
3 5 272 274
3 274 273 89
3 272 273 274
3 5 275 277
3 275 90 276
3 275 276 277
3 6 93 91
3 8 97 95
3 10 100 98
3 10 102 100
3 10 278 280
3 280 279 102
3 278 279 280
3 4 281 283
3 283 282 103
3 281 282 283
3 4 284 285
3 11 106 104
3 13 109 107
3 13 111 109
3 3 114 112
3 14 117 115
3 14 119 117
3 14 121 119
3 15 124 122
3 15 126 124
3 16 286 287
3 16 288 290
3 288 127 289
3 288 289 290
3 16 129 127
3 11 132 130
3 11 104 132
3 12 136 134
3 17 139 137
3 17 141 139
3 7 144 142
3 9 146 145
3 18 149 147
3 20 150 67
3 20 151 150
3 21 154 152
3 292 291 70
3 23 157 155
3 25 158 72
3 25 159 158
3 25 161 159
3 18 162 74
3 18 147 162
3 27 165 163
3 29 166 76
3 29 167 166
3 30 170 168
3 32 171 78
3 32 172 171
3 32 174 172
3 34 175 80
3 34 176 175
3 35 177 83
3 35 178 177
3 35 180 178
3 27 181 85
3 27 163 181
3 37 184 182
3 39 185 87
3 39 186 185
3 294 293 187
3 295 190 296
3 297 296 188
3 295 296 297
3 298 191 299
3 301 300 191
3 302 188 303
3 19 304 306
3 306 305 148
3 304 305 306
3 41 194 192
3 43 195 92
3 43 196 195
3 22 197 153
3 307 198 308
3 309 308 94
3 307 308 309
3 311 310 198
3 44 201 199
3 46 202 96
3 46 203 202
3 24 204 156
3 47 205 99
3 47 206 205
3 47 207 206
3 313 312 101
3 26 314 316
3 316 315 160
3 314 315 316
3 48 210 208
3 50 211 105
3 50 212 211
3 28 213 164
3 51 214 108
3 51 215 214
3 51 216 215
3 52 217 110
3 52 218 217
3 40 219 189
3 53 220 113
3 53 221 220
3 31 222 169
3 54 223 116
3 54 224 223
3 54 225 224
3 55 226 118
3 55 227 226
3 55 228 227
3 56 229 120
3 56 230 229
3 33 231 173
3 57 232 123
3 57 233 232
3 57 234 233
3 58 235 125
3 58 236 235
3 59 317 318
3 59 319 320
3 59 321 323
3 321 237 322
3 321 322 323
3 60 238 128
3 60 239 238
3 36 240 179
3 61 241 131
3 61 242 241
3 61 243 242
3 48 244 133
3 48 208 244
3 324 245 325
3 326 246 327
3 328 327 245
3 326 327 328
3 329 247 330
3 331 248 332
3 333 332 247
3 331 332 333
3 49 249 209
3 62 250 135
3 62 251 250
3 38 252 183
3 63 253 138
3 63 254 253
3 63 255 254
3 335 334 140
3 42 256 193
3 64 257 143
3 64 258 257
3 336 259 337
3 65 338 340
3 338 260 339
3 338 339 340
3 65 261 260
3 65 262 261
3 45 341 343
3 343 342 200
3 341 342 343
3 66 67 18
3 68 67 66
3 68 20 67
3 69 70 21
3 344 70 345
3 346 345 69
3 344 345 346
3 348 347 70
3 71 72 23
3 73 72 71
3 73 25 72
3 73 74 25
3 66 74 73
3 66 18 74
3 75 76 27
3 77 76 75
3 77 29 76
3 349 78 350
3 351 350 30
3 349 350 351
3 79 352 354
3 352 78 353
3 352 353 354
3 79 32 78
3 79 80 32
3 81 80 79
3 81 34 80
3 82 355 357
3 355 83 356
3 355 356 357
3 84 83 82
3 84 35 83
3 84 85 35
3 75 85 84
3 75 27 85
3 86 87 37
3 88 87 86
3 88 39 87
3 89 358 360
3 360 359 19
3 358 359 360
3 362 361 89
3 90 363 364
3 90 365 366
3 91 92 41
3 93 92 91
3 93 43 92
3 367 94 368
3 369 368 22
3 367 368 369
3 370 94 371
3 373 372 94
3 95 96 44
3 97 96 95
3 97 46 96
3 98 99 24
3 100 99 98
3 100 47 99
3 100 101 47
3 102 101 100
3 102 374 376
3 376 375 101
3 374 375 376
3 102 377 378
3 380 379 102
3 103 381 383
3 383 382 26
3 381 382 383
3 385 384 103
3 104 105 48
3 106 105 104
3 106 50 105
3 107 108 28
3 109 108 107
3 109 51 108
3 109 110 51
3 111 110 109
3 111 52 110
3 112 113 40
3 114 113 112
3 114 53 113
3 115 116 31
3 117 116 115
3 117 54 116
3 117 118 54
3 119 118 117
3 119 55 118
3 119 120 55
3 121 120 119
3 121 56 120
3 122 123 33
3 124 123 122
3 124 57 123
3 124 125 57
3 126 125 124
3 126 58 125
3 127 386 387
3 127 388 390
3 388 59 389
3 388 389 390
3 127 128 59
3 129 128 127
3 129 60 128
3 130 131 36
3 132 131 130
3 132 61 131
3 132 133 61
3 104 133 132
3 104 48 133
3 134 135 49
3 136 135 134
3 136 62 135
3 137 138 38
3 139 138 137
3 139 63 138
3 139 140 63
3 141 140 139
3 141 391 393
3 393 392 140
3 391 392 393
3 142 143 42
3 144 143 142
3 144 64 143
3 394 65 395
3 397 396 65
3 145 398 400
3 400 399 45
3 398 399 400
3 146 401 403
3 403 402 145
3 401 402 403
3 146 404 405
3 147 148 4
3 149 148 147
3 149 19 148
3 67 149 18
3 150 149 67
3 150 19 149
3 150 89 19
3 151 89 150
3 151 5 89
3 152 153 6
3 154 153 152
3 154 22 153
3 70 154 21
3 406 154 407
3 408 407 70
3 406 407 408
3 409 22 410
3 411 410 154
3 409 410 411
3 413 412 22
3 155 156 8
3 157 156 155
3 157 24 156
3 72 157 23
3 158 157 72
3 158 24 157
3 158 98 24
3 159 98 158
3 159 10 98
3 159 160 10
3 161 160 159
3 161 26 160
3 74 161 25
3 162 161 74
3 162 26 161
3 162 103 26
3 147 103 162
3 147 4 103
3 163 164 11
3 165 164 163
3 165 28 164
3 76 165 27
3 166 165 76
3 166 28 165
3 166 107 28
3 167 107 166
3 167 13 107
3 168 169 3
3 170 169 168
3 170 31 169
3 78 170 30
3 171 170 78
3 171 31 170
3 171 115 31
3 172 115 171
3 172 14 115
3 172 173 14
3 174 173 172
3 174 33 173
3 80 174 32
3 175 174 80
3 175 33 174
3 175 122 33
3 176 122 175
3 176 15 122
3 83 414 415
3 177 416 418
3 418 417 83
3 416 417 418
3 177 419 420
3 177 421 422
3 178 423 425
3 425 424 177
3 423 424 425
3 178 426 428
3 426 16 427
3 426 427 428
3 178 179 16
3 180 179 178
3 180 36 179
3 85 180 35
3 181 180 85
3 181 36 180
3 181 130 36
3 163 130 181
3 163 11 130
3 182 183 12
3 184 183 182
3 184 38 183
3 87 184 37
3 185 184 87
3 185 38 184
3 185 137 38
3 186 137 185
3 186 17 137
3 430 429 7
3 187 431 433
3 433 432 9
3 431 432 433
3 435 434 187
3 188 189 1
3 190 189 188
3 190 40 189
3 436 190 437
3 191 438 440
3 438 190 439
3 438 439 440
3 191 40 190
3 191 112 40
3 441 112 442
3 443 442 191
3 441 442 443
3 444 3 445
3 446 445 112
3 444 445 446
3 447 3 448
3 449 168 450
3 451 450 3
3 449 450 451
3 452 168 453
3 454 30 455
3 456 455 168
3 454 455 456
3 457 30 458
3 460 459 30
3 461 82 462
3 188 463 465
3 463 82 464
3 463 464 465
3 188 1 82
3 148 466 468
3 468 467 4
3 466 467 468
3 470 469 148
3 472 471 19
3 192 193 2
3 194 193 192
3 194 42 193
3 92 194 41
3 195 194 92
3 195 42 194
3 195 142 42
3 196 142 195
3 196 7 142
3 153 93 6
3 197 93 153
3 197 43 93
3 94 197 22
3 198 197 94
3 198 43 197
3 198 196 43
3 473 196 474
3 475 474 198
3 473 474 475
3 476 7 477
3 478 477 196
3 476 477 478
3 480 479 7
3 199 481 483
3 481 200 482
3 481 482 483
3 201 200 199
3 201 45 200
3 96 201 44
3 202 201 96
3 202 45 201
3 202 145 45
3 203 145 202
3 203 9 145
3 156 97 8
3 204 97 156
3 204 46 97
3 99 204 24
3 205 204 99
3 205 46 204
3 205 203 46
3 206 203 205
3 206 9 203
3 206 187 9
3 207 187 206
3 207 484 486
3 486 485 187
3 484 485 486
3 101 207 47
3 487 207 488
3 489 488 101
3 487 488 489
3 491 490 207
3 160 492 494
3 494 493 10
3 492 493 494
3 496 495 160
3 498 497 26
3 208 209 0
3 210 209 208
3 210 49 209
3 105 210 48
3 211 210 105
3 211 49 210
3 211 134 49
3 212 134 211
3 212 12 134
3 164 106 11
3 213 106 164
3 213 50 106
3 108 213 28
3 214 213 108
3 214 50 213
3 214 212 50
3 215 212 214
3 215 12 212
3 215 182 12
3 216 182 215
3 216 37 182
3 110 216 51
3 217 216 110
3 217 37 216
3 217 86 37
3 218 86 217
3 218 2 86
3 189 77 1
3 219 77 189
3 219 29 77
3 113 219 40
3 220 219 113
3 220 29 219
3 220 167 29
3 221 167 220
3 221 13 167
3 169 114 3
3 222 114 169
3 222 53 114
3 116 222 31
3 223 222 116
3 223 53 222
3 223 221 53
3 224 221 223
3 224 13 221
3 224 111 13
3 225 111 224
3 225 52 111
3 118 225 54
3 226 225 118
3 226 52 225
3 226 218 52
3 227 218 226
3 227 2 218
3 227 192 2
3 228 192 227
3 228 41 192
3 120 228 55
3 229 228 120
3 229 41 228
3 229 91 41
3 230 91 229
3 230 6 91
3 173 121 14
3 231 121 173
3 231 56 121
3 123 231 33
3 232 231 123
3 232 56 231
3 232 230 56
3 233 230 232
3 233 6 230
3 233 152 6
3 234 152 233
3 234 21 152
3 125 234 57
3 235 234 125
3 235 21 234
3 235 69 21
3 236 69 235
3 236 499 501
3 501 500 69
3 499 500 501
3 502 199 503
3 237 504 506
3 504 199 505
3 504 505 506
3 237 44 199
3 128 237 59
3 238 237 128
3 238 44 237
3 238 95 44
3 239 95 238
3 239 8 95
3 179 129 16
3 240 129 179
3 240 60 129
3 131 240 36
3 241 240 131
3 241 60 240
3 241 239 60
3 242 239 241
3 242 8 239
3 242 155 8
3 243 155 242
3 243 23 155
3 133 243 61
3 244 243 133
3 244 23 243
3 244 71 23
3 208 71 244
3 208 0 71
3 507 81 508
3 509 81 510
3 511 34 512
3 513 512 81
3 511 512 513
3 245 514 515
3 245 516 518
3 516 34 517
3 516 517 518
3 245 176 34
3 246 176 245
3 246 15 176
3 519 246 520
3 247 521 523
3 521 246 522
3 521 522 523
3 247 15 246
3 247 126 15
3 248 126 247
3 248 58 126
3 524 248 525
3 526 248 527
3 528 58 529
3 530 529 248
3 528 529 530
3 531 236 532
3 533 532 58
3 531 532 533
3 534 236 535
3 537 536 236
3 209 68 0
3 249 68 209
3 249 20 68
3 135 249 49
3 250 249 135
3 250 20 249
3 250 151 20
3 251 151 250
3 251 5 151
3 183 136 12
3 252 136 183
3 252 62 136
3 138 252 38
3 253 252 138
3 253 62 252
3 253 251 62
3 254 251 253
3 254 5 251
3 254 90 5
3 255 90 254
3 255 538 540
3 540 539 90
3 538 539 540
3 140 255 63
3 541 255 542
3 543 542 140
3 541 542 543
3 545 544 255
3 193 88 2
3 256 88 193
3 256 39 88
3 143 256 42
3 257 256 143
3 257 39 256
3 257 186 39
3 258 186 257
3 258 17 186
3 546 144 547
3 548 547 7
3 546 547 548
3 259 549 551
3 549 144 550
3 549 550 551
3 259 64 144
3 552 259 553
3 260 554 556
3 554 259 555
3 554 555 556
3 260 64 259
3 260 258 64
3 261 258 260
3 261 17 258
3 261 141 17
3 262 141 261
3 262 557 559
3 559 558 141
3 557 558 559
3 560 262 561
3 562 561 65
3 560 561 562
3 563 262 564
3 566 565 262
3 200 567 568
3 570 569 200
3 572 571 45
3 573 146 574
3 575 574 9
3 573 574 575
3 576 146 577
3 579 578 146
